<?xml version="1.0" encoding="UTF-8" standalone="no"?><svg xmlns="http://www.w3.org/2000/svg" xmlns:xlink="http://www.w3.org/1999/xlink" contentScriptType="application/ecmascript" contentStyleType="text/css" height="699px" preserveAspectRatio="none" style="width:369px;height:699px;" version="1.1" viewBox="0 0 369 699" width="369px" zoomAndPan="magnify"><defs><filter height="300%" id="f168kboas74u7e" width="300%" x="-1" y="-1"><feGaussianBlur result="blurOut" stdDeviation="2.0"/><feColorMatrix in="blurOut" result="blurOut2" type="matrix" values="0 0 0 0 0 0 0 0 0 0 0 0 0 0 0 0 0 0 .4 0"/><feOffset dx="4.0" dy="4.0" in="blurOut2" result="blurOut3"/><feBlend in="SourceGraphic" in2="blurOut3" mode="normal"/></filter></defs><g><ellipse cx="226.5" cy="18" fill="#000000" filter="url(#f168kboas74u7e)" rx="10" ry="10" style="stroke: none; stroke-width: 1.0;"/><rect fill="#FEFECE" filter="url(#f168kboas74u7e)" height="50" rx="12.5" ry="12.5" style="stroke: #A80036; stroke-width: 1.5;" width="50" x="201.5" y="88"/><line style="stroke: #A80036; stroke-width: 1.5;" x1="201.5" x2="251.5" y1="114.2969" y2="114.2969"/><text fill="#000000" font-family="sans-serif" font-size="14" lengthAdjust="spacingAndGlyphs" textLength="30" x="211.5" y="105.9951">IDLE</text><rect fill="#FEFECE" filter="url(#f168kboas74u7e)" height="50" rx="12.5" ry="12.5" style="stroke: #A80036; stroke-width: 1.5;" width="123" x="6" y="198"/><line style="stroke: #A80036; stroke-width: 1.5;" x1="6" x2="129" y1="224.2969" y2="224.2969"/><text fill="#000000" font-family="sans-serif" font-size="14" lengthAdjust="spacingAndGlyphs" textLength="103" x="16" y="215.9951">HOMINGSTART</text><rect fill="#FEFECE" filter="url(#f168kboas74u7e)" height="50" rx="12.5" ry="12.5" style="stroke: #A80036; stroke-width: 1.5;" width="121" x="7" y="308"/><line style="stroke: #A80036; stroke-width: 1.5;" x1="7" x2="128" y1="334.2969" y2="334.2969"/><text fill="#000000" font-family="sans-serif" font-size="14" lengthAdjust="spacingAndGlyphs" textLength="101" x="17" y="325.9951">ARMENCODER</text><rect fill="#FEFECE" filter="url(#f168kboas74u7e)" height="50" rx="12.5" ry="12.5" style="stroke: #A80036; stroke-width: 1.5;" width="174" x="114.5" y="418"/><line style="stroke: #A80036; stroke-width: 1.5;" x1="114.5" x2="288.5" y1="444.2969" y2="444.2969"/><text fill="#000000" font-family="sans-serif" font-size="14" lengthAdjust="spacingAndGlyphs" textLength="154" x="124.5" y="435.9951">HOMINGWaitFinalMove</text><rect fill="#FEFECE" filter="url(#f168kboas74u7e)" height="50" rx="12.5" ry="12.5" style="stroke: #A80036; stroke-width: 1.5;" width="145" x="129" y="528"/><line style="stroke: #A80036; stroke-width: 1.5;" x1="129" x2="274" y1="554.2969" y2="554.2969"/><text fill="#000000" font-family="sans-serif" font-size="14" lengthAdjust="spacingAndGlyphs" textLength="125" x="139" y="545.9951">HOMINGFinalMove</text><rect fill="#FEFECE" filter="url(#f168kboas74u7e)" height="50" rx="12.5" ry="12.5" style="stroke: #A80036; stroke-width: 1.5;" width="124" x="164.5" y="198"/><line style="stroke: #A80036; stroke-width: 1.5;" x1="164.5" x2="288.5" y1="224.2969" y2="224.2969"/><text fill="#000000" font-family="sans-serif" font-size="14" lengthAdjust="spacingAndGlyphs" textLength="104" x="174.5" y="215.9951">HOMINGCancel</text><rect fill="#FEFECE" filter="url(#f168kboas74u7e)" height="50" rx="12.5" ry="12.5" style="stroke: #A80036; stroke-width: 1.5;" width="128" x="67.5" y="638"/><line style="stroke: #A80036; stroke-width: 1.5;" x1="67.5" x2="195.5" y1="664.2969" y2="664.2969"/><text fill="#000000" font-family="sans-serif" font-size="14" lengthAdjust="spacingAndGlyphs" textLength="108" x="77.5" y="655.9951">HOMINGFinalize</text><!--MD5=[9c5673dd9f569fe24504060ab78be963]
link *start to IDLE--><path d="M226.5,28.26 C226.5,40.86 226.5,63.98 226.5,82.74 " fill="none" id="*start-&gt;IDLE" style="stroke: #A80036; stroke-width: 1.0;"/><polygon fill="#A80036" points="226.5,87.91,230.5,78.91,226.5,82.91,222.5,78.91,226.5,87.91" style="stroke: #A80036; stroke-width: 1.0;"/><!--MD5=[797d2e4e767f422722d014178a96fc9e]
link IDLE to HOMINGSTART--><path d="M201.31,131.11 C176.02,148.29 136.69,175.01 107.2,195.03 " fill="none" id="IDLE-&gt;HOMINGSTART" style="stroke: #A80036; stroke-width: 1.0;"/><polygon fill="#A80036" points="102.92,197.94,112.6165,196.2144,107.0626,195.1402,108.1368,189.5863,102.92,197.94" style="stroke: #A80036; stroke-width: 1.0;"/><!--MD5=[be9ac648804cf43f0680248545beea74]
link HOMINGSTART to ARMENCODER--><path d="M67.5,248.24 C67.5,264.36 67.5,285.62 67.5,302.69 " fill="none" id="HOMINGSTART-&gt;ARMENCODER" style="stroke: #A80036; stroke-width: 1.0;"/><polygon fill="#A80036" points="67.5,307.84,71.5,298.84,67.5,302.84,63.5,298.84,67.5,307.84" style="stroke: #A80036; stroke-width: 1.0;"/><!--MD5=[e7d06f4035334a14d01f0c35835b94e3]
link ARMENCODER to HOMINGWaitFinalMove--><path d="M97.57,358.24 C118.35,374.98 146.01,397.28 167.58,414.66 " fill="none" id="ARMENCODER-&gt;HOMINGWaitFinalMove" style="stroke: #A80036; stroke-width: 1.0;"/><polygon fill="#A80036" points="171.53,417.84,167.0127,409.0882,167.6298,414.7113,162.0068,415.3285,171.53,417.84" style="stroke: #A80036; stroke-width: 1.0;"/><!--MD5=[caf241bb8f304109a4d9ac46de1c4be7]
link HOMINGWaitFinalMove to HOMINGFinalMove--><path d="M201.5,468.24 C201.5,484.36 201.5,505.62 201.5,522.69 " fill="none" id="HOMINGWaitFinalMove-&gt;HOMINGFinalMove" style="stroke: #A80036; stroke-width: 1.0;"/><polygon fill="#A80036" points="201.5,527.84,205.5,518.84,201.5,522.84,197.5,518.84,201.5,527.84" style="stroke: #A80036; stroke-width: 1.0;"/><!--MD5=[2a5b821eafb6a7318762f126566a2644]
link HOMINGFinalMove to IDLE--><path d="M247.39,527.87 C269.3,513.66 293.34,493.44 305.5,468 C357.23,359.72 349.72,309.56 305.5,198 C295.49,172.74 273.88,150.65 255.79,135.47 " fill="none" id="HOMINGFinalMove-&gt;IDLE" style="stroke: #A80036; stroke-width: 1.0;"/><polygon fill="#A80036" points="251.76,132.15,256.1714,140.9557,255.6221,135.3255,261.2523,134.7762,251.76,132.15" style="stroke: #A80036; stroke-width: 1.0;"/><!--MD5=[6c0ec0a2a81e3ff03c1a19f118d8c1f4]
link IDLE to HOMINGCancel--><path d="M226.5,138.24 C226.5,154.36 226.5,175.62 226.5,192.69 " fill="none" id="IDLE-&gt;HOMINGCancel" style="stroke: #A80036; stroke-width: 1.0;"/><polygon fill="#A80036" points="226.5,197.84,230.5,188.84,226.5,192.84,222.5,188.84,226.5,197.84" style="stroke: #A80036; stroke-width: 1.0;"/><!--MD5=[728090db6526596799bf42312f56257f]
link HOMINGFinalMove to HOMINGFinalize--><path d="M185.79,578.24 C175.16,594.63 161.08,616.36 149.93,633.57 " fill="none" id="HOMINGFinalMove-&gt;HOMINGFinalize" style="stroke: #A80036; stroke-width: 1.0;"/><polygon fill="#A80036" points="147.16,637.84,155.4129,632.465,149.8804,633.6448,148.7006,628.1124,147.16,637.84" style="stroke: #A80036; stroke-width: 1.0;"/><!--MD5=[db926098ed16072a4987a80ff8a70fe7]
link HOMINGFinalize to ARMENCODER--><path d="M125.37,637.82 C121.21,621.08 115.73,598.25 111.5,578 C95.39,500.92 79.83,409.39 72.27,363.44 " fill="none" id="HOMINGFinalize-&gt;ARMENCODER" style="stroke: #A80036; stroke-width: 1.0;"/><polygon fill="#A80036" points="71.43,358.33,68.9461,367.8605,72.2427,363.2635,76.8397,366.5601,71.43,358.33" style="stroke: #A80036; stroke-width: 1.0;"/><!--MD5=[2cef54d80c070e863c455e6abb430072]
@startuml AxisCommand.svg
[*] - -> IDLE
IDLE - -> HOMINGSTART
HOMINGSTART - -> ARMENCODER
ARMENCODER - -> HOMINGWaitFinalMove
HOMINGWaitFinalMove - -> HOMINGFinalMove
HOMINGFinalMove - -> IDLE
IDLE - -> HOMINGCancel
HOMINGFinalMove - -> HOMINGFinalize
HOMINGFinalize - -> ARMENCODER
@enduml

PlantUML version 1.2020.02(Sun Mar 01 21:22:07 AEDT 2020)
(GPL source distribution)
Java Runtime: OpenJDK Runtime Environment
JVM: OpenJDK 64-Bit Server VM
Java Version: 17.0.14+7-Debian-1deb12u1
Operating System: Linux
Default Encoding: UTF-8
Language: en
Country: null
--></g></svg>