<?xml version="1.0" encoding="UTF-8" standalone="no"?>
<!DOCTYPE svg PUBLIC "-//W3C//DTD SVG 1.1//EN"
 "http://www.w3.org/Graphics/SVG/1.1/DTD/svg11.dtd">
<!-- Generated by graphviz version 2.43.0 (0)
 -->
<!-- Title: /home/cnc/actions&#45;runner/_work/LinuxCnc_PokeysLibComp/LinuxCnc_PokeysLibComp/external/pokeysHal/experimental/build/pokeys_async.c Pages: 1 -->
<svg width="724pt" height="341pt"
 viewBox="0.00 0.00 723.50 341.00" xmlns="http://www.w3.org/2000/svg" xmlns:xlink="http://www.w3.org/1999/xlink">
<g id="graph0" class="graph" transform="scale(1 1) rotate(0) translate(4 337)">
<title>/home/cnc/actions&#45;runner/_work/LinuxCnc_PokeysLibComp/LinuxCnc_PokeysLibComp/external/pokeysHal/experimental/build/pokeys_async.c</title>
<polygon fill="white" stroke="transparent" points="-4,4 -4,-337 719.5,-337 719.5,4 -4,4"/>
<!-- Node1 -->
<g id="node1" class="node">
<title>Node1</title>
<g id="a_node1"><a xlink:title=" ">
<polygon fill="#bfbfbf" stroke="black" points="331,-280.5 331,-332.5 576,-332.5 576,-280.5 331,-280.5"/>
<text text-anchor="start" x="339" y="-320.5" font-family="Helvetica,sans-Serif" font-size="10.00">/home/cnc/actions&#45;runner</text>
<text text-anchor="start" x="339" y="-309.5" font-family="Helvetica,sans-Serif" font-size="10.00">/_work/LinuxCnc_PokeysLibComp</text>
<text text-anchor="start" x="339" y="-298.5" font-family="Helvetica,sans-Serif" font-size="10.00">/LinuxCnc_PokeysLibComp/external</text>
<text text-anchor="middle" x="453.5" y="-287.5" font-family="Helvetica,sans-Serif" font-size="10.00">/pokeysHal/experimental/build/pokeys_async.c</text>
</a>
</g>
</g>
<!-- Node2 -->
<g id="node2" class="node">
<title>Node2</title>
<g id="a_node2"><a xlink:href="rtapi_8h.html" target="_top" xlink:title=" ">
<polygon fill="white" stroke="black" points="158.5,-56.5 158.5,-75.5 206.5,-75.5 206.5,-56.5 158.5,-56.5"/>
<text text-anchor="middle" x="182.5" y="-63.5" font-family="Helvetica,sans-Serif" font-size="10.00">rtapi.h</text>
</a>
</g>
</g>
<!-- Node1&#45;&gt;Node2 -->
<g id="edge1" class="edge">
<title>Node1&#45;&gt;Node2</title>
<path fill="none" stroke="midnightblue" d="M330.86,-283.27C278.08,-266.68 222.02,-237.88 193.5,-188 175.07,-155.76 176.78,-110.65 179.65,-85.61"/>
<polygon fill="midnightblue" stroke="midnightblue" points="183.13,-86.01 180.99,-75.63 176.19,-85.08 183.13,-86.01"/>
</g>
<!-- Node6 -->
<g id="node6" class="node">
<title>Node6</title>
<g id="a_node6"><a xlink:href="rtapi__string_8h.html" target="_top" xlink:title=" ">
<polygon fill="white" stroke="black" points="65,-112.5 65,-131.5 146,-131.5 146,-112.5 65,-112.5"/>
<text text-anchor="middle" x="105.5" y="-119.5" font-family="Helvetica,sans-Serif" font-size="10.00">rtapi_string.h</text>
</a>
</g>
</g>
<!-- Node1&#45;&gt;Node6 -->
<g id="edge5" class="edge">
<title>Node1&#45;&gt;Node6</title>
<path fill="none" stroke="midnightblue" d="M330.76,-291C262.88,-280.83 187.02,-265.25 160.5,-244 128.04,-217.99 114.02,-168.62 108.57,-141.68"/>
<polygon fill="midnightblue" stroke="midnightblue" points="111.98,-140.85 106.73,-131.64 105.09,-142.11 111.98,-140.85"/>
</g>
<!-- Node9 -->
<g id="node9" class="node">
<title>Node9</title>
<g id="a_node9"><a xlink:href="rtapi__errno_8h.html" target="_top" xlink:title=" ">
<polygon fill="white" stroke="black" points="391,-56.5 391,-75.5 470,-75.5 470,-56.5 391,-56.5"/>
<text text-anchor="middle" x="430.5" y="-63.5" font-family="Helvetica,sans-Serif" font-size="10.00">rtapi_errno.h</text>
</a>
</g>
</g>
<!-- Node1&#45;&gt;Node9 -->
<g id="edge9" class="edge">
<title>Node1&#45;&gt;Node9</title>
<path fill="none" stroke="midnightblue" d="M451.08,-280.43C446.45,-232.44 436.44,-128.6 432.32,-85.91"/>
<polygon fill="midnightblue" stroke="midnightblue" points="435.79,-85.42 431.35,-75.8 428.83,-86.09 435.79,-85.42"/>
</g>
<!-- Node11 -->
<g id="node11" class="node">
<title>Node11</title>
<g id="a_node11"><a xlink:href="hal_8h.html" target="_top" xlink:title=" ">
<polygon fill="white" stroke="black" points="357,-112.5 357,-131.5 398,-131.5 398,-112.5 357,-112.5"/>
<text text-anchor="middle" x="377.5" y="-119.5" font-family="Helvetica,sans-Serif" font-size="10.00">hal.h</text>
</a>
</g>
</g>
<!-- Node1&#45;&gt;Node11 -->
<g id="edge11" class="edge">
<title>Node1&#45;&gt;Node11</title>
<path fill="none" stroke="midnightblue" d="M442.93,-280.12C427.4,-242.81 398.76,-174.04 385.11,-141.28"/>
<polygon fill="midnightblue" stroke="midnightblue" points="388.18,-139.53 381.1,-131.65 381.72,-142.23 388.18,-139.53"/>
</g>
<!-- Node16 -->
<g id="node16" class="node">
<title>Node16</title>
<g id="a_node16"><a xlink:title=" ">
<polygon fill="white" stroke="#bfbfbf" points="519.5,-224.5 519.5,-243.5 569.5,-243.5 569.5,-224.5 519.5,-224.5"/>
<text text-anchor="middle" x="544.5" y="-231.5" font-family="Helvetica,sans-Serif" font-size="10.00">stdio.h</text>
</a>
</g>
</g>
<!-- Node1&#45;&gt;Node16 -->
<g id="edge18" class="edge">
<title>Node1&#45;&gt;Node16</title>
<path fill="none" stroke="midnightblue" d="M485.84,-280.45C499.03,-270.23 513.83,-258.76 525.27,-249.9"/>
<polygon fill="midnightblue" stroke="midnightblue" points="527.51,-252.59 533.28,-243.7 523.23,-247.05 527.51,-252.59"/>
</g>
<!-- Node17 -->
<g id="node17" class="node">
<title>Node17</title>
<g id="a_node17"><a xlink:href="rtapi__math64_8h.html" target="_top" xlink:title=" ">
<polygon fill="white" stroke="black" points="482,-168.5 482,-187.5 573,-187.5 573,-168.5 482,-168.5"/>
<text text-anchor="middle" x="527.5" y="-175.5" font-family="Helvetica,sans-Serif" font-size="10.00">rtapi_math64.h</text>
</a>
</g>
</g>
<!-- Node1&#45;&gt;Node17 -->
<g id="edge19" class="edge">
<title>Node1&#45;&gt;Node17</title>
<path fill="none" stroke="midnightblue" d="M468.3,-280.2C482.85,-255.32 504.69,-218 517.37,-196.31"/>
<polygon fill="midnightblue" stroke="midnightblue" points="520.47,-197.95 522.5,-187.55 514.43,-194.41 520.47,-197.95"/>
</g>
<!-- Node18 -->
<g id="node18" class="node">
<title>Node18</title>
<g id="a_node18"><a xlink:href="experimental_2build_2PoKeysLibHal_8h.html" target="_top" xlink:title=" ">
<polygon fill="white" stroke="black" points="280.5,-224.5 280.5,-243.5 372.5,-243.5 372.5,-224.5 280.5,-224.5"/>
<text text-anchor="middle" x="326.5" y="-231.5" font-family="Helvetica,sans-Serif" font-size="10.00">PoKeysLibHal.h</text>
</a>
</g>
</g>
<!-- Node1&#45;&gt;Node18 -->
<g id="edge21" class="edge">
<title>Node1&#45;&gt;Node18</title>
<path fill="none" stroke="midnightblue" d="M408.37,-280.45C388.94,-269.66 367,-257.48 350.73,-248.45"/>
<polygon fill="midnightblue" stroke="midnightblue" points="352.3,-245.32 341.86,-243.53 348.91,-251.44 352.3,-245.32"/>
</g>
<!-- Node21 -->
<g id="node21" class="node">
<title>Node21</title>
<g id="a_node21"><a xlink:title=" ">
<polygon fill="white" stroke="#bfbfbf" points="588,-224.5 588,-243.5 641,-243.5 641,-224.5 588,-224.5"/>
<text text-anchor="middle" x="614.5" y="-231.5" font-family="Helvetica,sans-Serif" font-size="10.00">stdlib.h</text>
</a>
</g>
</g>
<!-- Node1&#45;&gt;Node21 -->
<g id="edge28" class="edge">
<title>Node1&#45;&gt;Node21</title>
<path fill="none" stroke="midnightblue" d="M510.72,-280.45C536.15,-269.31 564.98,-256.68 585.79,-247.57"/>
<polygon fill="midnightblue" stroke="midnightblue" points="587.27,-250.74 595.03,-243.53 584.46,-244.33 587.27,-250.74"/>
</g>
<!-- Node22 -->
<g id="node22" class="node">
<title>Node22</title>
<g id="a_node22"><a xlink:title=" ">
<polygon fill="white" stroke="#bfbfbf" points="659.5,-224.5 659.5,-243.5 715.5,-243.5 715.5,-224.5 659.5,-224.5"/>
<text text-anchor="middle" x="687.5" y="-231.5" font-family="Helvetica,sans-Serif" font-size="10.00">unistd.h</text>
</a>
</g>
</g>
<!-- Node1&#45;&gt;Node22 -->
<g id="edge29" class="edge">
<title>Node1&#45;&gt;Node22</title>
<path fill="none" stroke="midnightblue" d="M536.66,-280.45C575.25,-268.82 619.22,-255.57 649.69,-246.39"/>
<polygon fill="midnightblue" stroke="midnightblue" points="650.91,-249.68 659.48,-243.44 648.89,-242.98 650.91,-249.68"/>
</g>
<!-- Node3 -->
<g id="node3" class="node">
<title>Node3</title>
<g id="a_node3"><a xlink:title=" ">
<polygon fill="white" stroke="#bfbfbf" points="80.5,-0.5 80.5,-19.5 136.5,-19.5 136.5,-0.5 80.5,-0.5"/>
<text text-anchor="middle" x="108.5" y="-7.5" font-family="Helvetica,sans-Serif" font-size="10.00">stddef.h</text>
</a>
</g>
</g>
<!-- Node2&#45;&gt;Node3 -->
<g id="edge2" class="edge">
<title>Node2&#45;&gt;Node3</title>
<path fill="none" stroke="midnightblue" d="M170.61,-56.32C159.35,-48.11 142.21,-35.6 128.79,-25.81"/>
<polygon fill="midnightblue" stroke="midnightblue" points="130.75,-22.9 120.61,-19.83 126.62,-28.56 130.75,-22.9"/>
</g>
<!-- Node4 -->
<g id="node4" class="node">
<title>Node4</title>
<g id="a_node4"><a xlink:title=" ">
<polygon fill="white" stroke="#bfbfbf" points="154.5,-0.5 154.5,-19.5 210.5,-19.5 210.5,-0.5 154.5,-0.5"/>
<text text-anchor="middle" x="182.5" y="-7.5" font-family="Helvetica,sans-Serif" font-size="10.00">stdarg.h</text>
</a>
</g>
</g>
<!-- Node2&#45;&gt;Node4 -->
<g id="edge3" class="edge">
<title>Node2&#45;&gt;Node4</title>
<path fill="none" stroke="midnightblue" d="M182.5,-56.08C182.5,-49.01 182.5,-38.86 182.5,-29.99"/>
<polygon fill="midnightblue" stroke="midnightblue" points="186,-29.75 182.5,-19.75 179,-29.75 186,-29.75"/>
</g>
<!-- Node5 -->
<g id="node5" class="node">
<title>Node5</title>
<g id="a_node5"><a xlink:title=" ">
<polygon fill="white" stroke="#bfbfbf" points="229,-0.5 229,-19.5 286,-19.5 286,-0.5 229,-0.5"/>
<text text-anchor="middle" x="257.5" y="-7.5" font-family="Helvetica,sans-Serif" font-size="10.00">spawn.h</text>
</a>
</g>
</g>
<!-- Node2&#45;&gt;Node5 -->
<g id="edge4" class="edge">
<title>Node2&#45;&gt;Node5</title>
<path fill="none" stroke="midnightblue" d="M194.55,-56.32C205.96,-48.11 223.33,-35.6 236.93,-25.81"/>
<polygon fill="midnightblue" stroke="midnightblue" points="239.16,-28.52 245.23,-19.83 235.07,-22.84 239.16,-28.52"/>
</g>
<!-- Node6&#45;&gt;Node2 -->
<g id="edge6" class="edge">
<title>Node6&#45;&gt;Node2</title>
<path fill="none" stroke="midnightblue" d="M117.87,-112.32C129.66,-104.06 147.63,-91.45 161.64,-81.63"/>
<polygon fill="midnightblue" stroke="midnightblue" points="163.98,-84.26 170.16,-75.65 159.96,-78.53 163.98,-84.26"/>
</g>
<!-- Node7 -->
<g id="node7" class="node">
<title>Node7</title>
<g id="a_node7"><a xlink:title=" ">
<polygon fill="white" stroke="#bfbfbf" points="0,-56.5 0,-75.5 53,-75.5 53,-56.5 0,-56.5"/>
<text text-anchor="middle" x="26.5" y="-63.5" font-family="Helvetica,sans-Serif" font-size="10.00">string.h</text>
</a>
</g>
</g>
<!-- Node6&#45;&gt;Node7 -->
<g id="edge7" class="edge">
<title>Node6&#45;&gt;Node7</title>
<path fill="none" stroke="midnightblue" d="M92.81,-112.32C80.6,-103.98 61.92,-91.21 47.5,-81.35"/>
<polygon fill="midnightblue" stroke="midnightblue" points="49.39,-78.41 39.16,-75.65 45.44,-84.19 49.39,-78.41"/>
</g>
<!-- Node8 -->
<g id="node8" class="node">
<title>Node8</title>
<g id="a_node8"><a xlink:href="rtapi__gfp_8h.html" target="_top" xlink:title=" ">
<polygon fill="white" stroke="black" points="71,-56.5 71,-75.5 140,-75.5 140,-56.5 71,-56.5"/>
<text text-anchor="middle" x="105.5" y="-63.5" font-family="Helvetica,sans-Serif" font-size="10.00">rtapi_gfp.h</text>
</a>
</g>
</g>
<!-- Node6&#45;&gt;Node8 -->
<g id="edge8" class="edge">
<title>Node6&#45;&gt;Node8</title>
<path fill="none" stroke="midnightblue" d="M105.5,-112.08C105.5,-105.01 105.5,-94.86 105.5,-85.99"/>
<polygon fill="midnightblue" stroke="midnightblue" points="109,-85.75 105.5,-75.75 102,-85.75 109,-85.75"/>
</g>
<!-- Node10 -->
<g id="node10" class="node">
<title>Node10</title>
<g id="a_node10"><a xlink:title=" ">
<polygon fill="white" stroke="#bfbfbf" points="405,-0.5 405,-19.5 456,-19.5 456,-0.5 405,-0.5"/>
<text text-anchor="middle" x="430.5" y="-7.5" font-family="Helvetica,sans-Serif" font-size="10.00">errno.h</text>
</a>
</g>
</g>
<!-- Node9&#45;&gt;Node10 -->
<g id="edge10" class="edge">
<title>Node9&#45;&gt;Node10</title>
<path fill="none" stroke="midnightblue" d="M430.5,-56.08C430.5,-49.01 430.5,-38.86 430.5,-29.99"/>
<polygon fill="midnightblue" stroke="midnightblue" points="434,-29.75 430.5,-19.75 427,-29.75 434,-29.75"/>
</g>
<!-- Node11&#45;&gt;Node2 -->
<g id="edge12" class="edge">
<title>Node11&#45;&gt;Node2</title>
<path fill="none" stroke="midnightblue" d="M356.63,-115.22C323.03,-105.92 256.62,-87.52 216.22,-76.34"/>
<polygon fill="midnightblue" stroke="midnightblue" points="217.12,-72.96 206.55,-73.66 215.25,-79.7 217.12,-72.96"/>
</g>
<!-- Node11&#45;&gt;Node9 -->
<g id="edge13" class="edge">
<title>Node11&#45;&gt;Node9</title>
<path fill="none" stroke="midnightblue" d="M386.25,-112.08C393.97,-104.22 405.4,-92.57 414.72,-83.08"/>
<polygon fill="midnightblue" stroke="midnightblue" points="417.4,-85.34 421.91,-75.75 412.41,-80.44 417.4,-85.34"/>
</g>
<!-- Node12 -->
<g id="node12" class="node">
<title>Node12</title>
<g id="a_node12"><a xlink:href="rtapi__bool_8h.html" target="_top" xlink:title=" ">
<polygon fill="white" stroke="black" points="298.5,-56.5 298.5,-75.5 372.5,-75.5 372.5,-56.5 298.5,-56.5"/>
<text text-anchor="middle" x="335.5" y="-63.5" font-family="Helvetica,sans-Serif" font-size="10.00">rtapi_bool.h</text>
</a>
</g>
</g>
<!-- Node11&#45;&gt;Node12 -->
<g id="edge14" class="edge">
<title>Node11&#45;&gt;Node12</title>
<path fill="none" stroke="midnightblue" d="M370.56,-112.08C364.57,-104.38 355.75,-93.03 348.45,-83.65"/>
<polygon fill="midnightblue" stroke="midnightblue" points="351.21,-81.5 342.31,-75.75 345.68,-85.79 351.21,-81.5"/>
</g>
<!-- Node14 -->
<g id="node14" class="node">
<title>Node14</title>
<g id="a_node14"><a xlink:href="rtapi__stdint_8h.html" target="_top" xlink:title=" ">
<polygon fill="white" stroke="black" points="488,-56.5 488,-75.5 569,-75.5 569,-56.5 488,-56.5"/>
<text text-anchor="middle" x="528.5" y="-63.5" font-family="Helvetica,sans-Serif" font-size="10.00">rtapi_stdint.h</text>
</a>
</g>
</g>
<!-- Node11&#45;&gt;Node14 -->
<g id="edge16" class="edge">
<title>Node11&#45;&gt;Node14</title>
<path fill="none" stroke="midnightblue" d="M398.18,-113.6C423.14,-104.68 465.45,-89.55 495.07,-78.95"/>
<polygon fill="midnightblue" stroke="midnightblue" points="496.35,-82.21 504.59,-75.55 493.99,-75.62 496.35,-82.21"/>
</g>
<!-- Node13 -->
<g id="node13" class="node">
<title>Node13</title>
<g id="a_node13"><a xlink:title=" ">
<polygon fill="white" stroke="#bfbfbf" points="304.5,-0.5 304.5,-19.5 366.5,-19.5 366.5,-0.5 304.5,-0.5"/>
<text text-anchor="middle" x="335.5" y="-7.5" font-family="Helvetica,sans-Serif" font-size="10.00">stdbool.h</text>
</a>
</g>
</g>
<!-- Node12&#45;&gt;Node13 -->
<g id="edge15" class="edge">
<title>Node12&#45;&gt;Node13</title>
<path fill="none" stroke="midnightblue" d="M335.5,-56.08C335.5,-49.01 335.5,-38.86 335.5,-29.99"/>
<polygon fill="midnightblue" stroke="midnightblue" points="339,-29.75 335.5,-19.75 332,-29.75 339,-29.75"/>
</g>
<!-- Node15 -->
<g id="node15" class="node">
<title>Node15</title>
<g id="a_node15"><a xlink:title=" ">
<polygon fill="white" stroke="#bfbfbf" points="496,-0.5 496,-19.5 561,-19.5 561,-0.5 496,-0.5"/>
<text text-anchor="middle" x="528.5" y="-7.5" font-family="Helvetica,sans-Serif" font-size="10.00">inttypes.h</text>
</a>
</g>
</g>
<!-- Node14&#45;&gt;Node15 -->
<g id="edge17" class="edge">
<title>Node14&#45;&gt;Node15</title>
<path fill="none" stroke="midnightblue" d="M528.5,-56.08C528.5,-49.01 528.5,-38.86 528.5,-29.99"/>
<polygon fill="midnightblue" stroke="midnightblue" points="532,-29.75 528.5,-19.75 525,-29.75 532,-29.75"/>
</g>
<!-- Node17&#45;&gt;Node14 -->
<g id="edge20" class="edge">
<title>Node17&#45;&gt;Node14</title>
<path fill="none" stroke="midnightblue" d="M527.58,-168.37C527.74,-150.62 528.11,-109.67 528.33,-85.6"/>
<polygon fill="midnightblue" stroke="midnightblue" points="531.83,-85.62 528.42,-75.59 524.83,-85.56 531.83,-85.62"/>
</g>
<!-- Node18&#45;&gt;Node11 -->
<g id="edge23" class="edge">
<title>Node18&#45;&gt;Node11</title>
<path fill="none" stroke="midnightblue" d="M334.07,-224.26C341.25,-215.58 351.89,-201.63 358.5,-188 365.71,-173.12 370.73,-154.98 373.79,-141.64"/>
<polygon fill="midnightblue" stroke="midnightblue" points="377.24,-142.26 375.91,-131.75 370.4,-140.8 377.24,-142.26"/>
</g>
<!-- Node19 -->
<g id="node19" class="node">
<title>Node19</title>
<g id="a_node19"><a xlink:title=" ">
<polygon fill="white" stroke="#bfbfbf" points="203,-168.5 203,-187.5 256,-187.5 256,-168.5 203,-168.5"/>
<text text-anchor="middle" x="229.5" y="-175.5" font-family="Helvetica,sans-Serif" font-size="10.00">stdint.h</text>
</a>
</g>
</g>
<!-- Node18&#45;&gt;Node19 -->
<g id="edge22" class="edge">
<title>Node18&#45;&gt;Node19</title>
<path fill="none" stroke="midnightblue" d="M310.92,-224.32C295.5,-215.74 271.69,-202.49 253.79,-192.52"/>
<polygon fill="midnightblue" stroke="midnightblue" points="255.49,-189.46 245.05,-187.65 252.08,-195.58 255.49,-189.46"/>
</g>
<!-- Node20 -->
<g id="node20" class="node">
<title>Node20</title>
<g id="a_node20"><a xlink:href="pokeysHal_2experimental_2build_2hal__canon_8h.html" target="_top" xlink:title="Canonical Device Interface definitions and export helpers for LinuxCNC HAL.">
<polygon fill="white" stroke="black" points="274,-168.5 274,-187.5 349,-187.5 349,-168.5 274,-168.5"/>
<text text-anchor="middle" x="311.5" y="-175.5" font-family="Helvetica,sans-Serif" font-size="10.00">hal_canon.h</text>
</a>
</g>
</g>
<!-- Node18&#45;&gt;Node20 -->
<g id="edge24" class="edge">
<title>Node18&#45;&gt;Node20</title>
<path fill="none" stroke="midnightblue" d="M324.02,-224.08C322.01,-216.85 319.11,-206.41 316.61,-197.4"/>
<polygon fill="midnightblue" stroke="midnightblue" points="319.98,-196.45 313.93,-187.75 313.24,-198.32 319.98,-196.45"/>
</g>
<!-- Node20&#45;&gt;Node2 -->
<g id="edge26" class="edge">
<title>Node20&#45;&gt;Node2</title>
<path fill="none" stroke="midnightblue" d="M301.38,-168.37C279.52,-149.73 227.69,-105.53 200.25,-82.13"/>
<polygon fill="midnightblue" stroke="midnightblue" points="202.46,-79.42 192.58,-75.59 197.91,-84.74 202.46,-79.42"/>
</g>
<!-- Node20&#45;&gt;Node6 -->
<g id="edge27" class="edge">
<title>Node20&#45;&gt;Node6</title>
<path fill="none" stroke="midnightblue" d="M278.86,-168.44C243.45,-159.16 186.79,-144.31 147.95,-134.13"/>
<polygon fill="midnightblue" stroke="midnightblue" points="148.55,-130.67 137.99,-131.52 146.77,-137.44 148.55,-130.67"/>
</g>
<!-- Node20&#45;&gt;Node11 -->
<g id="edge25" class="edge">
<title>Node20&#45;&gt;Node11</title>
<path fill="none" stroke="midnightblue" d="M322.1,-168.32C331.96,-160.26 346.85,-148.08 358.72,-138.37"/>
<polygon fill="midnightblue" stroke="midnightblue" points="361.18,-140.88 366.7,-131.83 356.75,-135.46 361.18,-140.88"/>
</g>
</g>
</svg>
