<?xml version="1.0" encoding="UTF-8" standalone="no"?>
<!DOCTYPE svg PUBLIC "-//W3C//DTD SVG 1.1//EN"
 "http://www.w3.org/Graphics/SVG/1.1/DTD/svg11.dtd">
<!-- Generated by graphviz version 2.43.0 (0)
 -->
<!-- Title: /usr/include/linuxcnc/canon.hh Pages: 1 -->
<!--zoomable 263 -->
<svg id="main" version="1.1" xmlns="http://www.w3.org/2000/svg" xmlns:xlink="http://www.w3.org/1999/xlink" xml:space="preserve" onload="init(evt)">
<style type="text/css"><![CDATA[
.edge:hover path { stroke: red; }
.edge:hover polygon { stroke: red; fill: red; }
]]></style>
<script type="text/javascript"><![CDATA[
var edges = document.getElementsByTagName('g');
if (edges && edges.length) {
  for (var i=0;i<edges.length;i++) {
    if (edges[i].id.substr(0,4)=='edge') {
      edges[i].setAttribute('class','edge');
    }
  }
}
]]></script>
        <defs>
                <circle id="rim" cx="0" cy="0" r="7"/>
                <circle id="rim2" cx="0" cy="0" r="3.5"/>
                <g id="zoomPlus">
                        <use xlink:href="#rim" fill="#404040">
                                <set attributeName="fill" to="#808080" begin="zoomplus.mouseover" end="zoomplus.mouseout"/>
                        </use>
                        <path d="M-4,0h8M0,-4v8" fill="none" stroke="white" stroke-width="1.5" pointer-events="none"/>
                </g>
                <g id="zoomMin">
                        <use xlink:href="#rim" fill="#404040">
                                <set attributeName="fill" to="#808080" begin="zoomminus.mouseover" end="zoomminus.mouseout"/>
                        </use>
                        <path d="M-4,0h8" fill="none" stroke="white" stroke-width="1.5" pointer-events="none"/>
                </g>
                <g id="dirArrow">
                        <path fill="none" stroke="white" stroke-width="1.5" d="M0,-3.0v7 M-2.5,-0.5L0,-3.0L2.5,-0.5"/>
                </g>
               <g id="resetDef">
                       <use xlink:href="#rim2" fill="#404040">
                               <set attributeName="fill" to="#808080" begin="reset.mouseover" end="reset.mouseout"/>
                       </use>
               </g>
        </defs>

<script type="text/javascript">
var viewWidth = 506;
var viewHeight = 263;
var sectionId = 'dynsection-0';
</script>
<script xlink:href="svgpan.js"/>
<svg id="graph" class="graph">
<g id="viewport">
<title>/usr/include/linuxcnc/canon.hh</title>
<polygon fill="white" stroke="transparent" points="-4,4 -4,-259 501.91,-259 501.91,4 -4,4"/>
<!-- Node1 -->
<g id="node1" class="node">
<title>Node1</title>
<g id="a_node1"><a xlink:title=" ">
<polygon fill="#bfbfbf" stroke="black" points="111.41,-224.5 111.41,-254.5 227.41,-254.5 227.41,-224.5 111.41,-224.5"/>
<text text-anchor="start" x="119.41" y="-242.5" font-family="Helvetica,sans-Serif" font-size="10.00">/usr/include/linuxcnc</text>
<text text-anchor="middle" x="169.41" y="-231.5" font-family="Helvetica,sans-Serif" font-size="10.00">/canon.hh</text>
</a>
</g>
</g>
<!-- Node2 -->
<g id="node2" class="node">
<title>Node2</title>
<g id="a_node2"><a xlink:title=" ">
<polygon fill="white" stroke="#bfbfbf" points="12.41,-112.5 12.41,-131.5 62.41,-131.5 62.41,-112.5 12.41,-112.5"/>
<text text-anchor="middle" x="37.41" y="-119.5" font-family="Helvetica,sans-Serif" font-size="10.00">stdio.h</text>
</a>
</g>
</g>
<!-- Node1&#45;&gt;Node2 -->
<g id="edge1" class="edge">
<title>Node1&#45;&gt;Node2</title>
<path fill="none" stroke="midnightblue" d="M147.81,-224.44C133.57,-214.81 114.77,-201.39 99.41,-188 81.89,-172.72 63.75,-153.2 51.66,-139.55"/>
<polygon fill="midnightblue" stroke="midnightblue" points="54.18,-137.13 44.96,-131.91 48.92,-141.74 54.18,-137.13"/>
</g>
<!-- Node3 -->
<g id="node3" class="node">
<title>Node3</title>
<g id="a_node3"><a xlink:title=" ">
<polygon fill="white" stroke="#bfbfbf" points="240.91,-112.5 240.91,-131.5 287.91,-131.5 287.91,-112.5 240.91,-112.5"/>
<text text-anchor="middle" x="264.41" y="-119.5" font-family="Helvetica,sans-Serif" font-size="10.00">vector</text>
</a>
</g>
</g>
<!-- Node1&#45;&gt;Node3 -->
<g id="edge2" class="edge">
<title>Node1&#45;&gt;Node3</title>
<path fill="none" stroke="midnightblue" d="M190.86,-224.47C203.78,-215.25 219.91,-202.27 231.41,-188 242.93,-173.71 251.99,-154.75 257.68,-141"/>
<polygon fill="midnightblue" stroke="midnightblue" points="260.95,-142.25 261.36,-131.66 254.44,-139.68 260.95,-142.25"/>
</g>
<!-- Node4 -->
<g id="node4" class="node">
<title>Node4</title>
<g id="a_node4"><a xlink:href="emcpos_8h.html" target="_top" xlink:title=" ">
<polygon fill="white" stroke="black" points="101.41,-56.5 101.41,-75.5 165.41,-75.5 165.41,-56.5 101.41,-56.5"/>
<text text-anchor="middle" x="133.41" y="-63.5" font-family="Helvetica,sans-Serif" font-size="10.00">emcpos.h</text>
</a>
</g>
</g>
<!-- Node1&#45;&gt;Node4 -->
<g id="edge3" class="edge">
<title>Node1&#45;&gt;Node4</title>
<path fill="none" stroke="midnightblue" d="M123.95,-224.41C83.39,-209.03 26.88,-179.98 3.41,-132 -15.21,-93.94 46.53,-77.84 91.22,-71.27"/>
<polygon fill="midnightblue" stroke="midnightblue" points="91.87,-74.72 101.31,-69.9 90.93,-67.78 91.87,-74.72"/>
</g>
<!-- Node6 -->
<g id="node6" class="node">
<title>Node6</title>
<g id="a_node6"><a xlink:href="emctool_8h.html" target="_top" xlink:title=" ">
<polygon fill="white" stroke="black" points="80.91,-112.5 80.91,-131.5 145.91,-131.5 145.91,-112.5 80.91,-112.5"/>
<text text-anchor="middle" x="113.41" y="-119.5" font-family="Helvetica,sans-Serif" font-size="10.00">emctool.h</text>
</a>
</g>
</g>
<!-- Node1&#45;&gt;Node6 -->
<g id="edge5" class="edge">
<title>Node1&#45;&gt;Node6</title>
<path fill="none" stroke="midnightblue" d="M143.27,-224.37C130.21,-215.76 115.67,-203.43 108.41,-188 101.57,-173.45 103.86,-155.04 107.25,-141.53"/>
<polygon fill="midnightblue" stroke="midnightblue" points="110.62,-142.49 110.06,-131.91 103.9,-140.53 110.62,-142.49"/>
</g>
<!-- Node7 -->
<g id="node7" class="node">
<title>Node7</title>
<g id="a_node7"><a xlink:href="canon__position_8hh.html" target="_top" xlink:title=" ">
<polygon fill="white" stroke="black" points="116.91,-168.5 116.91,-187.5 221.91,-187.5 221.91,-168.5 116.91,-168.5"/>
<text text-anchor="middle" x="169.41" y="-175.5" font-family="Helvetica,sans-Serif" font-size="10.00">canon_position.hh</text>
</a>
</g>
</g>
<!-- Node1&#45;&gt;Node7 -->
<g id="edge7" class="edge">
<title>Node1&#45;&gt;Node7</title>
<path fill="none" stroke="midnightblue" d="M169.41,-224.4C169.41,-216.47 169.41,-206.46 169.41,-197.86"/>
<polygon fill="midnightblue" stroke="midnightblue" points="172.91,-197.66 169.41,-187.66 165.91,-197.66 172.91,-197.66"/>
</g>
<!-- Node8 -->
<g id="node8" class="node">
<title>Node8</title>
<g id="a_node8"><a xlink:href="emcmotcfg_8h.html" target="_top" xlink:title=" ">
<polygon fill="white" stroke="black" points="278.91,-168.5 278.91,-187.5 359.91,-187.5 359.91,-168.5 278.91,-168.5"/>
<text text-anchor="middle" x="319.41" y="-175.5" font-family="Helvetica,sans-Serif" font-size="10.00">emcmotcfg.h</text>
</a>
</g>
</g>
<!-- Node1&#45;&gt;Node8 -->
<g id="edge13" class="edge">
<title>Node1&#45;&gt;Node8</title>
<path fill="none" stroke="midnightblue" d="M204.96,-224.4C230.24,-214.37 263.88,-201.03 288.14,-191.4"/>
<polygon fill="midnightblue" stroke="midnightblue" points="289.58,-194.6 297.58,-187.66 287,-188.09 289.58,-194.6"/>
</g>
<!-- Node9 -->
<g id="node9" class="node">
<title>Node9</title>
<g id="a_node9"><a xlink:href="modal__state_8hh.html" target="_top" xlink:title=" ">
<polygon fill="white" stroke="black" points="378.41,-168.5 378.41,-187.5 470.41,-187.5 470.41,-168.5 378.41,-168.5"/>
<text text-anchor="middle" x="424.41" y="-175.5" font-family="Helvetica,sans-Serif" font-size="10.00">modal_state.hh</text>
</a>
</g>
</g>
<!-- Node1&#45;&gt;Node9 -->
<g id="edge14" class="edge">
<title>Node1&#45;&gt;Node9</title>
<path fill="none" stroke="midnightblue" d="M227.59,-224.92C273.18,-214.29 335.76,-199.69 378.01,-189.83"/>
<polygon fill="midnightblue" stroke="midnightblue" points="378.82,-193.23 387.76,-187.55 377.23,-186.41 378.82,-193.23"/>
</g>
<!-- Node5 -->
<g id="node5" class="node">
<title>Node5</title>
<g id="a_node5"><a xlink:href="posemath_8h.html" target="_top" xlink:title=" ">
<polygon fill="white" stroke="black" points="126.41,-0.5 126.41,-19.5 200.41,-19.5 200.41,-0.5 126.41,-0.5"/>
<text text-anchor="middle" x="163.41" y="-7.5" font-family="Helvetica,sans-Serif" font-size="10.00">posemath.h</text>
</a>
</g>
</g>
<!-- Node4&#45;&gt;Node5 -->
<g id="edge4" class="edge">
<title>Node4&#45;&gt;Node5</title>
<path fill="none" stroke="midnightblue" d="M138.36,-56.08C142.51,-48.61 148.56,-37.72 153.68,-28.52"/>
<polygon fill="midnightblue" stroke="midnightblue" points="156.75,-30.19 158.55,-19.75 150.63,-26.79 156.75,-30.19"/>
</g>
<!-- Node6&#45;&gt;Node4 -->
<g id="edge6" class="edge">
<title>Node6&#45;&gt;Node4</title>
<path fill="none" stroke="midnightblue" d="M116.71,-112.08C119.39,-104.85 123.26,-94.41 126.6,-85.4"/>
<polygon fill="midnightblue" stroke="midnightblue" points="129.98,-86.34 130.17,-75.75 123.41,-83.91 129.98,-86.34"/>
</g>
<!-- Node7&#45;&gt;Node2 -->
<g id="edge8" class="edge">
<title>Node7&#45;&gt;Node2</title>
<path fill="none" stroke="midnightblue" d="M148.5,-168.44C126.67,-159.52 92.26,-145.44 67.52,-135.32"/>
<polygon fill="midnightblue" stroke="midnightblue" points="68.81,-132.06 58.23,-131.52 66.16,-138.54 68.81,-132.06"/>
</g>
<!-- Node7&#45;&gt;Node3 -->
<g id="edge9" class="edge">
<title>Node7&#45;&gt;Node3</title>
<path fill="none" stroke="midnightblue" d="M184.67,-168.32C199.63,-159.82 222.67,-146.73 240.14,-136.8"/>
<polygon fill="midnightblue" stroke="midnightblue" points="242.22,-139.64 249.19,-131.65 238.76,-133.55 242.22,-139.64"/>
</g>
<!-- Node7&#45;&gt;Node4 -->
<g id="edge10" class="edge">
<title>Node7&#45;&gt;Node4</title>
<path fill="none" stroke="midnightblue" d="M168.24,-168.41C166.37,-155.79 162.21,-131.63 155.41,-112 152.17,-102.65 147.47,-92.73 143.24,-84.58"/>
<polygon fill="midnightblue" stroke="midnightblue" points="146.27,-82.84 138.45,-75.69 140.11,-86.16 146.27,-82.84"/>
</g>
<!-- Node7&#45;&gt;Node5 -->
<g id="edge12" class="edge">
<title>Node7&#45;&gt;Node5</title>
<path fill="none" stroke="midnightblue" d="M170.7,-168.45C173.5,-148.62 179.46,-97.96 174.41,-56 173.34,-47.11 171.12,-37.43 168.95,-29.34"/>
<polygon fill="midnightblue" stroke="midnightblue" points="172.25,-28.17 166.14,-19.51 165.52,-30.09 172.25,-28.17"/>
</g>
<!-- Node7&#45;&gt;Node6 -->
<g id="edge11" class="edge">
<title>Node7&#45;&gt;Node6</title>
<path fill="none" stroke="midnightblue" d="M160.41,-168.32C152.22,-160.42 139.91,-148.55 129.94,-138.94"/>
<polygon fill="midnightblue" stroke="midnightblue" points="132.2,-136.26 122.57,-131.83 127.34,-141.29 132.2,-136.26"/>
</g>
<!-- Node9&#45;&gt;Node3 -->
<g id="edge15" class="edge">
<title>Node9&#45;&gt;Node3</title>
<path fill="none" stroke="midnightblue" d="M399.06,-168.44C371.67,-159.2 327.9,-144.43 297.74,-134.25"/>
<polygon fill="midnightblue" stroke="midnightblue" points="298.67,-130.87 288.08,-130.99 296.44,-137.5 298.67,-130.87"/>
</g>
<!-- Node10 -->
<g id="node10" class="node">
<title>Node10</title>
<g id="a_node10"><a xlink:title=" ">
<polygon fill="white" stroke="#bfbfbf" points="364.41,-112.5 364.41,-131.5 408.41,-131.5 408.41,-112.5 364.41,-112.5"/>
<text text-anchor="middle" x="386.41" y="-119.5" font-family="Helvetica,sans-Serif" font-size="10.00">bitset</text>
</a>
</g>
</g>
<!-- Node9&#45;&gt;Node10 -->
<g id="edge16" class="edge">
<title>Node9&#45;&gt;Node10</title>
<path fill="none" stroke="midnightblue" d="M418.14,-168.08C412.77,-160.46 404.89,-149.26 398.33,-139.94"/>
<polygon fill="midnightblue" stroke="midnightblue" points="401.19,-137.91 392.57,-131.75 395.46,-141.94 401.19,-137.91"/>
</g>
<!-- Node11 -->
<g id="node11" class="node">
<title>Node11</title>
<g id="a_node11"><a xlink:href="state__tag_8h.html" target="_top" xlink:title=" ">
<polygon fill="white" stroke="black" points="426.91,-112.5 426.91,-131.5 497.91,-131.5 497.91,-112.5 426.91,-112.5"/>
<text text-anchor="middle" x="462.41" y="-119.5" font-family="Helvetica,sans-Serif" font-size="10.00">state_tag.h</text>
</a>
</g>
</g>
<!-- Node9&#45;&gt;Node11 -->
<g id="edge17" class="edge">
<title>Node9&#45;&gt;Node11</title>
<path fill="none" stroke="midnightblue" d="M430.69,-168.08C436.05,-160.46 443.93,-149.26 450.49,-139.94"/>
<polygon fill="midnightblue" stroke="midnightblue" points="453.36,-141.94 456.25,-131.75 447.64,-137.91 453.36,-141.94"/>
</g>
</g>
</svg>
        <g id="navigator" transform="translate(0 0)" fill="#404254">
                <rect fill="#f2f5e9" fill-opacity="0.5" stroke="#606060" stroke-width=".5" x="0" y="0" width="60" height="60"/>
                <use id="zoomplus" xlink:href="#zoomPlus" x="17" y="9" onmousedown="handleZoom(evt,'in')"/>
                <use id="zoomminus" xlink:href="#zoomMin" x="42" y="9" onmousedown="handleZoom(evt,'out')"/>
                <use id="reset" xlink:href="#resetDef" x="30" y="36" onmousedown="handleReset()"/>
                <g id="arrowUp" xlink:href="#dirArrow" transform="translate(30 24)" onmousedown="handlePan(0,-1)">
                  <use xlink:href="#rim" fill="#404040">
                        <set attributeName="fill" to="#808080" begin="arrowUp.mouseover" end="arrowUp.mouseout"/>
                  </use>
                  <path fill="none" stroke="white" stroke-width="1.5" d="M0,-3.0v7 M-2.5,-0.5L0,-3.0L2.5,-0.5"/>
                </g>
                <g id="arrowRight" xlink:href="#dirArrow" transform="rotate(90) translate(36 -43)" onmousedown="handlePan(1,0)">
                  <use xlink:href="#rim" fill="#404040">
                        <set attributeName="fill" to="#808080" begin="arrowRight.mouseover" end="arrowRight.mouseout"/>
                  </use>
                  <path fill="none" stroke="white" stroke-width="1.5" d="M0,-3.0v7 M-2.5,-0.5L0,-3.0L2.5,-0.5"/>
                </g>
                <g id="arrowDown" xlink:href="#dirArrow" transform="rotate(180) translate(-30 -48)" onmousedown="handlePan(0,1)">
                  <use xlink:href="#rim" fill="#404040">
                        <set attributeName="fill" to="#808080" begin="arrowDown.mouseover" end="arrowDown.mouseout"/>
                  </use>
                  <path fill="none" stroke="white" stroke-width="1.5" d="M0,-3.0v7 M-2.5,-0.5L0,-3.0L2.5,-0.5"/>
                </g>
                <g id="arrowLeft" xlink:href="#dirArrow" transform="rotate(270) translate(-36 17)" onmousedown="handlePan(-1,0)">
                  <use xlink:href="#rim" fill="#404040">
                        <set attributeName="fill" to="#808080" begin="arrowLeft.mouseover" end="arrowLeft.mouseout"/>
                  </use>
                  <path fill="none" stroke="white" stroke-width="1.5" d="M0,-3.0v7 M-2.5,-0.5L0,-3.0L2.5,-0.5"/>
                </g>
        </g>
        <svg viewBox="0 0 15 15" width="100%" height="30px" preserveAspectRatio="xMaxYMin meet">
         <g id="arrow_out" transform="scale(0.3 0.3)">
          <a xlink:href="canon_8hh__incl_org.svg" target="_base">
           <rect id="button" ry="5" rx="5" y="6" x="6" height="38" width="38"
                fill="#f2f5e9" fill-opacity="0.5" stroke="#606060" stroke-width="1.0"/>
           <path id="arrow"
             d="M 11.500037,31.436501 C 11.940474,20.09759 22.043105,11.32322 32.158766,21.979434 L 37.068811,17.246167 C 37.068811,17.246167 37.088388,32 37.088388,32 L 22.160133,31.978069 C 22.160133,31.978069 26.997745,27.140456 26.997745,27.140456 C 18.528582,18.264221 13.291696,25.230495 11.500037,31.436501 z"
             style="fill:#404040;"/>
          </a>
         </g>
        </svg>
</svg>
