<?xml version="1.0" encoding="UTF-8" standalone="no"?>
<!DOCTYPE svg PUBLIC "-//W3C//DTD SVG 1.1//EN"
 "http://www.w3.org/Graphics/SVG/1.1/DTD/svg11.dtd">
<!-- Generated by graphviz version 2.43.0 (0)
 -->
<!-- Title: /usr/include/linuxcnc/canon_position.hh Pages: 1 -->
<svg width="280pt" height="207pt"
 viewBox="0.00 0.00 280.00 207.00" xmlns="http://www.w3.org/2000/svg" xmlns:xlink="http://www.w3.org/1999/xlink">
<g id="graph0" class="graph" transform="scale(1 1) rotate(0) translate(4 203)">
<title>/usr/include/linuxcnc/canon_position.hh</title>
<polygon fill="white" stroke="transparent" points="-4,4 -4,-203 276,-203 276,4 -4,4"/>
<!-- Node1 -->
<g id="node1" class="node">
<title>Node1</title>
<g id="a_node1"><a xlink:title=" ">
<polygon fill="#bfbfbf" stroke="black" points="86,-168.5 86,-198.5 202,-198.5 202,-168.5 86,-168.5"/>
<text text-anchor="start" x="94" y="-186.5" font-family="Helvetica,sans-Serif" font-size="10.00">/usr/include/linuxcnc</text>
<text text-anchor="middle" x="144" y="-175.5" font-family="Helvetica,sans-Serif" font-size="10.00">/canon_position.hh</text>
</a>
</g>
</g>
<!-- Node2 -->
<g id="node2" class="node">
<title>Node2</title>
<g id="a_node2"><a xlink:title=" ">
<polygon fill="white" stroke="#bfbfbf" points="0,-112.5 0,-131.5 50,-131.5 50,-112.5 0,-112.5"/>
<text text-anchor="middle" x="25" y="-119.5" font-family="Helvetica,sans-Serif" font-size="10.00">stdio.h</text>
</a>
</g>
</g>
<!-- Node1&#45;&gt;Node2 -->
<g id="edge1" class="edge">
<title>Node1&#45;&gt;Node2</title>
<path fill="none" stroke="midnightblue" d="M115.8,-168.4C96.28,-158.64 70.47,-145.74 51.37,-136.18"/>
<polygon fill="midnightblue" stroke="midnightblue" points="52.83,-133 42.32,-131.66 49.69,-139.26 52.83,-133"/>
</g>
<!-- Node3 -->
<g id="node3" class="node">
<title>Node3</title>
<g id="a_node3"><a xlink:title=" ">
<polygon fill="white" stroke="#bfbfbf" points="68.5,-112.5 68.5,-131.5 115.5,-131.5 115.5,-112.5 68.5,-112.5"/>
<text text-anchor="middle" x="92" y="-119.5" font-family="Helvetica,sans-Serif" font-size="10.00">vector</text>
</a>
</g>
</g>
<!-- Node1&#45;&gt;Node3 -->
<g id="edge2" class="edge">
<title>Node1&#45;&gt;Node3</title>
<path fill="none" stroke="midnightblue" d="M131.68,-168.4C124.04,-159.66 114.21,-148.41 106.24,-139.3"/>
<polygon fill="midnightblue" stroke="midnightblue" points="108.78,-136.88 99.57,-131.66 103.51,-141.49 108.78,-136.88"/>
</g>
<!-- Node4 -->
<g id="node4" class="node">
<title>Node4</title>
<g id="a_node4"><a xlink:href="emcpos_8h.html" target="_top" xlink:title=" ">
<polygon fill="white" stroke="black" points="173,-56.5 173,-75.5 237,-75.5 237,-56.5 173,-56.5"/>
<text text-anchor="middle" x="205" y="-63.5" font-family="Helvetica,sans-Serif" font-size="10.00">emcpos.h</text>
</a>
</g>
</g>
<!-- Node1&#45;&gt;Node4 -->
<g id="edge3" class="edge">
<title>Node1&#45;&gt;Node4</title>
<path fill="none" stroke="midnightblue" d="M145.73,-168.5C148.01,-153.7 152.97,-130.06 163,-112 169.14,-100.96 178.56,-90.52 186.93,-82.48"/>
<polygon fill="midnightblue" stroke="midnightblue" points="189.47,-84.9 194.49,-75.56 184.75,-79.73 189.47,-84.9"/>
</g>
<!-- Node5 -->
<g id="node5" class="node">
<title>Node5</title>
<g id="a_node5"><a xlink:href="posemath_8h.html" target="_top" xlink:title=" ">
<polygon fill="white" stroke="black" points="198,-0.5 198,-19.5 272,-19.5 272,-0.5 198,-0.5"/>
<text text-anchor="middle" x="235" y="-7.5" font-family="Helvetica,sans-Serif" font-size="10.00">posemath.h</text>
</a>
</g>
</g>
<!-- Node1&#45;&gt;Node5 -->
<g id="edge7" class="edge">
<title>Node1&#45;&gt;Node5</title>
<path fill="none" stroke="midnightblue" d="M198.25,-168.48C216.66,-160.84 235.27,-149.29 246,-132 265.76,-100.17 252.8,-54.26 243.02,-29.13"/>
<polygon fill="midnightblue" stroke="midnightblue" points="246.19,-27.63 239.12,-19.73 239.72,-30.31 246.19,-27.63"/>
</g>
<!-- Node6 -->
<g id="node6" class="node">
<title>Node6</title>
<g id="a_node6"><a xlink:href="emctool_8h.html" target="_top" xlink:title=" ">
<polygon fill="white" stroke="black" points="172.5,-112.5 172.5,-131.5 237.5,-131.5 237.5,-112.5 172.5,-112.5"/>
<text text-anchor="middle" x="205" y="-119.5" font-family="Helvetica,sans-Serif" font-size="10.00">emctool.h</text>
</a>
</g>
</g>
<!-- Node1&#45;&gt;Node6 -->
<g id="edge5" class="edge">
<title>Node1&#45;&gt;Node6</title>
<path fill="none" stroke="midnightblue" d="M158.46,-168.4C167.59,-159.49 179.42,-147.95 188.86,-138.74"/>
<polygon fill="midnightblue" stroke="midnightblue" points="191.41,-141.15 196.12,-131.66 186.52,-136.13 191.41,-141.15"/>
</g>
<!-- Node4&#45;&gt;Node5 -->
<g id="edge4" class="edge">
<title>Node4&#45;&gt;Node5</title>
<path fill="none" stroke="midnightblue" d="M209.95,-56.08C214.1,-48.61 220.15,-37.72 225.27,-28.52"/>
<polygon fill="midnightblue" stroke="midnightblue" points="228.34,-30.19 230.14,-19.75 222.22,-26.79 228.34,-30.19"/>
</g>
<!-- Node6&#45;&gt;Node4 -->
<g id="edge6" class="edge">
<title>Node6&#45;&gt;Node4</title>
<path fill="none" stroke="midnightblue" d="M205,-112.08C205,-105.01 205,-94.86 205,-85.99"/>
<polygon fill="midnightblue" stroke="midnightblue" points="208.5,-85.75 205,-75.75 201.5,-85.75 208.5,-85.75"/>
</g>
</g>
</svg>
