<?xml version="1.0" encoding="UTF-8" standalone="no"?>
<!DOCTYPE svg PUBLIC "-//W3C//DTD SVG 1.1//EN"
 "http://www.w3.org/Graphics/SVG/1.1/DTD/svg11.dtd">
<!-- Generated by graphviz version 2.43.0 (0)
 -->
<!-- Title: CMS_DIAG_STATIC_PROC_INFO Pages: 1 -->
<svg width="224pt" height="182pt"
 viewBox="0.00 0.00 224.00 182.00" xmlns="http://www.w3.org/2000/svg" xmlns:xlink="http://www.w3.org/1999/xlink">
<g id="graph0" class="graph" transform="scale(1 1) rotate(0) translate(4 178)">
<title>CMS_DIAG_STATIC_PROC_INFO</title>
<polygon fill="white" stroke="transparent" points="-4,4 -4,-178 220,-178 220,4 -4,4"/>
<!-- Node1 -->
<g id="node1" class="node">
<title>Node1</title>
<g id="a_node1"><a xlink:title=" ">
<polygon fill="#bfbfbf" stroke="black" points="31,-0.5 31,-57.5 199,-57.5 199,-0.5 31,-0.5"/>
<text text-anchor="middle" x="115" y="-45.5" font-family="Helvetica,sans-Serif" font-size="10.00">CMS_DIAG_STATIC_PROC_INFO</text>
<polyline fill="none" stroke="black" points="31,-38.5 199,-38.5 "/>
<text text-anchor="middle" x="115" y="-26.5" font-family="Helvetica,sans-Serif" font-size="10.00"> </text>
<polyline fill="none" stroke="black" points="31,-19.5 199,-19.5 "/>
<text text-anchor="middle" x="115" y="-7.5" font-family="Helvetica,sans-Serif" font-size="10.00"> </text>
</a>
</g>
</g>
<!-- Node2 -->
<g id="node2" class="node">
<title>Node2</title>
<g id="a_node2"><a xlink:title=" ">
<polygon fill="white" stroke="black" points="0,-116.5 0,-173.5 38,-173.5 38,-116.5 0,-116.5"/>
<text text-anchor="middle" x="19" y="-161.5" font-family="Helvetica,sans-Serif" font-size="10.00">char</text>
<polyline fill="none" stroke="black" points="0,-154.5 38,-154.5 "/>
<text text-anchor="middle" x="19" y="-142.5" font-family="Helvetica,sans-Serif" font-size="10.00"> </text>
<polyline fill="none" stroke="black" points="0,-135.5 38,-135.5 "/>
<text text-anchor="middle" x="19" y="-123.5" font-family="Helvetica,sans-Serif" font-size="10.00"> </text>
</a>
</g>
</g>
<!-- Node2&#45;&gt;Node1 -->
<g id="edge1" class="edge">
<title>Node2&#45;&gt;Node1</title>
<path fill="none" stroke="#404040" d="M21.89,-116.38C24.42,-103.1 29.14,-87.59 38,-76 40.9,-72.21 44.2,-68.67 47.77,-65.37"/>
<polygon fill="none" stroke="#404040" points="47.87,-65.29 49.96,-58.39 57.14,-57.67 55.04,-64.57 47.87,-65.29"/>
<text text-anchor="middle" x="74.5" y="-90" font-family="Helvetica,sans-Serif" font-size="10.00"> +host_sysinfo</text>
<text text-anchor="middle" x="74.5" y="-79" font-family="Helvetica,sans-Serif" font-size="10.00">+name</text>
</g>
<!-- Node3 -->
<g id="node3" class="node">
<title>Node3</title>
<g id="a_node3"><a xlink:title=" ">
<polygon fill="white" stroke="black" points="96,-116.5 96,-173.5 134,-173.5 134,-116.5 96,-116.5"/>
<text text-anchor="middle" x="115" y="-161.5" font-family="Helvetica,sans-Serif" font-size="10.00">long</text>
<polyline fill="none" stroke="black" points="96,-154.5 134,-154.5 "/>
<text text-anchor="middle" x="115" y="-142.5" font-family="Helvetica,sans-Serif" font-size="10.00"> </text>
<polyline fill="none" stroke="black" points="96,-135.5 134,-135.5 "/>
<text text-anchor="middle" x="115" y="-123.5" font-family="Helvetica,sans-Serif" font-size="10.00"> </text>
</a>
</g>
</g>
<!-- Node3&#45;&gt;Node1 -->
<g id="edge2" class="edge">
<title>Node3&#45;&gt;Node1</title>
<path fill="none" stroke="#404040" d="M115,-116.4C115,-102.5 115,-85.39 115,-70.07"/>
<polygon fill="none" stroke="#404040" points="115,-69.74 111,-63.74 115,-57.74 119,-63.74 115,-69.74"/>
<text text-anchor="middle" x="128.5" y="-84.5" font-family="Helvetica,sans-Serif" font-size="10.00"> +pid</text>
</g>
<!-- Node4 -->
<g id="node4" class="node">
<title>Node4</title>
<g id="a_node4"><a xlink:title=" ">
<polygon fill="white" stroke="black" points="152,-116.5 152,-173.5 202,-173.5 202,-116.5 152,-116.5"/>
<text text-anchor="middle" x="177" y="-161.5" font-family="Helvetica,sans-Serif" font-size="10.00">double</text>
<polyline fill="none" stroke="black" points="152,-154.5 202,-154.5 "/>
<text text-anchor="middle" x="177" y="-142.5" font-family="Helvetica,sans-Serif" font-size="10.00"> </text>
<polyline fill="none" stroke="black" points="152,-135.5 202,-135.5 "/>
<text text-anchor="middle" x="177" y="-123.5" font-family="Helvetica,sans-Serif" font-size="10.00"> </text>
</a>
</g>
</g>
<!-- Node4&#45;&gt;Node1 -->
<g id="edge3" class="edge">
<title>Node4&#45;&gt;Node1</title>
<path fill="none" stroke="#404040" d="M165.64,-116.36C160.16,-103.8 153.23,-88.91 146,-76 144.52,-73.35 142.93,-70.66 141.29,-67.98"/>
<polygon fill="none" stroke="#404040" points="141.22,-67.87 134.63,-64.96 134.77,-57.75 141.37,-60.66 141.22,-67.87"/>
<text text-anchor="middle" x="186.5" y="-84.5" font-family="Helvetica,sans-Serif" font-size="10.00"> +rcslib_ver</text>
</g>
</g>
</svg>
