<?xml version="1.0" encoding="UTF-8" standalone="no"?>
<!DOCTYPE svg PUBLIC "-//W3C//DTD SVG 1.1//EN"
 "http://www.w3.org/Graphics/SVG/1.1/DTD/svg11.dtd">
<!-- Generated by graphviz version 2.43.0 (0)
 -->
<!-- Title: EMC_TRAJ_SET_SPINDLESYNC Pages: 1 -->
<!--zoomable 596 -->
<svg id="main" version="1.1" xmlns="http://www.w3.org/2000/svg" xmlns:xlink="http://www.w3.org/1999/xlink" xml:space="preserve" onload="init(evt)">
<style type="text/css"><![CDATA[
.edge:hover path { stroke: red; }
.edge:hover polygon { stroke: red; fill: red; }
]]></style>
<script type="text/javascript"><![CDATA[
var edges = document.getElementsByTagName('g');
if (edges && edges.length) {
  for (var i=0;i<edges.length;i++) {
    if (edges[i].id.substr(0,4)=='edge') {
      edges[i].setAttribute('class','edge');
    }
  }
}
]]></script>
        <defs>
                <circle id="rim" cx="0" cy="0" r="7"/>
                <circle id="rim2" cx="0" cy="0" r="3.5"/>
                <g id="zoomPlus">
                        <use xlink:href="#rim" fill="#404040">
                                <set attributeName="fill" to="#808080" begin="zoomplus.mouseover" end="zoomplus.mouseout"/>
                        </use>
                        <path d="M-4,0h8M0,-4v8" fill="none" stroke="white" stroke-width="1.5" pointer-events="none"/>
                </g>
                <g id="zoomMin">
                        <use xlink:href="#rim" fill="#404040">
                                <set attributeName="fill" to="#808080" begin="zoomminus.mouseover" end="zoomminus.mouseout"/>
                        </use>
                        <path d="M-4,0h8" fill="none" stroke="white" stroke-width="1.5" pointer-events="none"/>
                </g>
                <g id="dirArrow">
                        <path fill="none" stroke="white" stroke-width="1.5" d="M0,-3.0v7 M-2.5,-0.5L0,-3.0L2.5,-0.5"/>
                </g>
               <g id="resetDef">
                       <use xlink:href="#rim2" fill="#404040">
                               <set attributeName="fill" to="#808080" begin="reset.mouseover" end="reset.mouseout"/>
                       </use>
               </g>
        </defs>

<script type="text/javascript">
var viewWidth = 662;
var viewHeight = 596;
var sectionId = 'dynsection-1';
</script>
<script xlink:href="svgpan.js"/>
<svg id="graph" class="graph">
<g id="viewport">
<title>EMC_TRAJ_SET_SPINDLESYNC</title>
<polygon fill="white" stroke="transparent" points="-4,4 -4,-592 658,-592 658,4 -4,4"/>
<!-- Node1 -->
<g id="node1" class="node">
<title>Node1</title>
<g id="a_node1"><a xlink:title=" ">
<polygon fill="#bfbfbf" stroke="black" points="328.5,-0.5 328.5,-68.5 509.5,-68.5 509.5,-0.5 328.5,-0.5"/>
<text text-anchor="middle" x="419" y="-56.5" font-family="Helvetica,sans-Serif" font-size="10.00">EMC_TRAJ_SET_SPINDLESYNC</text>
<polyline fill="none" stroke="black" points="328.5,-49.5 509.5,-49.5 "/>
<text text-anchor="middle" x="419" y="-37.5" font-family="Helvetica,sans-Serif" font-size="10.00"> </text>
<polyline fill="none" stroke="black" points="328.5,-30.5 509.5,-30.5 "/>
<text text-anchor="start" x="336.5" y="-18.5" font-family="Helvetica,sans-Serif" font-size="10.00">+ EMC_TRAJ_SET_SPINDLESYNC()</text>
<text text-anchor="start" x="336.5" y="-7.5" font-family="Helvetica,sans-Serif" font-size="10.00">+ update()</text>
</a>
</g>
</g>
<!-- Node2 -->
<g id="node2" class="node">
<title>Node2</title>
<g id="a_node2"><a xlink:href="classEMC__TRAJ__CMD__MSG.html" target="_top" xlink:title=" ">
<polygon fill="white" stroke="black" points="303.5,-116.5 303.5,-184.5 444.5,-184.5 444.5,-116.5 303.5,-116.5"/>
<text text-anchor="middle" x="374" y="-172.5" font-family="Helvetica,sans-Serif" font-size="10.00">EMC_TRAJ_CMD_MSG</text>
<polyline fill="none" stroke="black" points="303.5,-165.5 444.5,-165.5 "/>
<text text-anchor="middle" x="374" y="-153.5" font-family="Helvetica,sans-Serif" font-size="10.00"> </text>
<polyline fill="none" stroke="black" points="303.5,-146.5 444.5,-146.5 "/>
<text text-anchor="start" x="311.5" y="-134.5" font-family="Helvetica,sans-Serif" font-size="10.00">+ EMC_TRAJ_CMD_MSG()</text>
<text text-anchor="start" x="311.5" y="-123.5" font-family="Helvetica,sans-Serif" font-size="10.00">+ update()</text>
</a>
</g>
</g>
<!-- Node2&#45;&gt;Node1 -->
<g id="edge1" class="edge">
<title>Node2&#45;&gt;Node1</title>
<path fill="none" stroke="midnightblue" d="M390.85,-106.8C395.84,-94.18 401.22,-80.55 405.92,-68.62"/>
<polygon fill="none" stroke="midnightblue" points="387.55,-105.63 387.14,-116.22 394.06,-108.2 387.55,-105.63"/>
</g>
<!-- Node3 -->
<g id="node3" class="node">
<title>Node3</title>
<g id="a_node3"><a xlink:href="classRCS__CMD__MSG.html" target="_top" xlink:title=" ">
<polygon fill="white" stroke="black" points="443.5,-249 443.5,-306 554.5,-306 554.5,-249 443.5,-249"/>
<text text-anchor="middle" x="499" y="-294" font-family="Helvetica,sans-Serif" font-size="10.00">RCS_CMD_MSG</text>
<polyline fill="none" stroke="black" points="443.5,-287 554.5,-287 "/>
<text text-anchor="middle" x="499" y="-275" font-family="Helvetica,sans-Serif" font-size="10.00"> </text>
<polyline fill="none" stroke="black" points="443.5,-268 554.5,-268 "/>
<text text-anchor="start" x="451.5" y="-256" font-family="Helvetica,sans-Serif" font-size="10.00">+ RCS_CMD_MSG()</text>
</a>
</g>
</g>
<!-- Node3&#45;&gt;Node2 -->
<g id="edge2" class="edge">
<title>Node3&#45;&gt;Node2</title>
<path fill="none" stroke="midnightblue" d="M463.92,-241.42C446.24,-223.74 424.89,-202.39 407.44,-184.94"/>
<polygon fill="none" stroke="midnightblue" points="461.71,-244.16 471.26,-248.76 466.66,-239.21 461.71,-244.16"/>
</g>
<!-- Node4 -->
<g id="node4" class="node">
<title>Node4</title>
<g id="a_node4"><a xlink:href="classNMLmsg.html" target="_top" xlink:title=" ">
<polygon fill="white" stroke="black" points="502,-370.5 502,-471.5 580,-471.5 580,-370.5 502,-370.5"/>
<text text-anchor="middle" x="541" y="-459.5" font-family="Helvetica,sans-Serif" font-size="10.00">NMLmsg</text>
<polyline fill="none" stroke="black" points="502,-452.5 580,-452.5 "/>
<text text-anchor="middle" x="541" y="-440.5" font-family="Helvetica,sans-Serif" font-size="10.00"> </text>
<polyline fill="none" stroke="black" points="502,-433.5 580,-433.5 "/>
<text text-anchor="start" x="510" y="-421.5" font-family="Helvetica,sans-Serif" font-size="10.00">+ clear()</text>
<text text-anchor="start" x="510" y="-410.5" font-family="Helvetica,sans-Serif" font-size="10.00">+ update()</text>
<text text-anchor="start" x="510" y="-399.5" font-family="Helvetica,sans-Serif" font-size="10.00"># NMLmsg()</text>
<text text-anchor="start" x="510" y="-388.5" font-family="Helvetica,sans-Serif" font-size="10.00"># NMLmsg()</text>
<text text-anchor="start" x="510" y="-377.5" font-family="Helvetica,sans-Serif" font-size="10.00"># NMLmsg()</text>
</a>
</g>
</g>
<!-- Node4&#45;&gt;Node3 -->
<g id="edge3" class="edge">
<title>Node4&#45;&gt;Node3</title>
<path fill="none" stroke="midnightblue" d="M523.31,-360.39C517.71,-341.55 511.8,-321.63 507.21,-306.15"/>
<polygon fill="none" stroke="midnightblue" points="519.99,-361.52 526.19,-370.11 526.7,-359.53 519.99,-361.52"/>
</g>
<!-- Node5 -->
<g id="node5" class="node">
<title>Node5</title>
<g id="a_node5"><a xlink:title=" ">
<polygon fill="white" stroke="black" points="315.5,-530.5 315.5,-587.5 344.5,-587.5 344.5,-530.5 315.5,-530.5"/>
<text text-anchor="middle" x="330" y="-575.5" font-family="Helvetica,sans-Serif" font-size="10.00">int</text>
<polyline fill="none" stroke="black" points="315.5,-568.5 344.5,-568.5 "/>
<text text-anchor="middle" x="330" y="-556.5" font-family="Helvetica,sans-Serif" font-size="10.00"> </text>
<polyline fill="none" stroke="black" points="315.5,-549.5 344.5,-549.5 "/>
<text text-anchor="middle" x="330" y="-537.5" font-family="Helvetica,sans-Serif" font-size="10.00"> </text>
</a>
</g>
</g>
<!-- Node5&#45;&gt;Node1 -->
<g id="edge13" class="edge">
<title>Node5&#45;&gt;Node1</title>
<path fill="none" stroke="#404040" d="M315.43,-542.67C294.39,-518.85 258,-470.62 258,-422 258,-422 258,-422 258,-149.5 258,-113.5 285.15,-87.84 317.14,-70.1"/>
<polygon fill="none" stroke="#404040" points="317.5,-69.92 320.98,-63.6 328.15,-64.39 324.67,-70.7 317.5,-69.92"/>
<text text-anchor="middle" x="281.5" y="-275" font-family="Helvetica,sans-Serif" font-size="10.00"> +spindle</text>
</g>
<!-- Node5&#45;&gt;Node3 -->
<g id="edge6" class="edge">
<title>Node5&#45;&gt;Node3</title>
<path fill="none" stroke="#404040" d="M344.55,-531.68C353.57,-514.87 365.1,-492.45 374,-472 393.24,-427.78 385.51,-410.94 411,-370 423.58,-349.79 441.21,-330.35 457.39,-314.63"/>
<polygon fill="none" stroke="#404040" points="457.47,-314.54 459.08,-307.51 466.18,-306.29 464.58,-313.32 457.47,-314.54"/>
<text text-anchor="middle" x="452" y="-418.5" font-family="Helvetica,sans-Serif" font-size="10.00"> +serial_number</text>
</g>
<!-- Node5&#45;&gt;Node4 -->
<g id="edge4" class="edge">
<title>Node5&#45;&gt;Node4</title>
<path fill="none" stroke="#404040" d="M344.51,-550.86C361.4,-542.33 389.94,-527.31 413,-512 426.19,-503.25 427.23,-497.81 441,-490 460.46,-478.97 469.06,-483.9 488,-472 489.33,-471.17 490.65,-470.3 491.96,-469.4"/>
<polygon fill="none" stroke="#404040" points="492.25,-469.18 494.65,-462.38 501.85,-461.98 499.45,-468.78 492.25,-469.18"/>
<text text-anchor="middle" x="495.5" y="-504" font-family="Helvetica,sans-Serif" font-size="10.00"> +automatically_clear</text>
<text text-anchor="middle" x="495.5" y="-493" font-family="Helvetica,sans-Serif" font-size="10.00">+type</text>
</g>
<!-- Node8 -->
<g id="node8" class="node">
<title>Node8</title>
<g id="a_node8"><a xlink:href="structstate__tag__t.html" target="_top" xlink:title=" ">
<polygon fill="white" stroke="black" points="115.5,-392.5 115.5,-449.5 186.5,-449.5 186.5,-392.5 115.5,-392.5"/>
<text text-anchor="middle" x="151" y="-437.5" font-family="Helvetica,sans-Serif" font-size="10.00">state_tag_t</text>
<polyline fill="none" stroke="black" points="115.5,-430.5 186.5,-430.5 "/>
<text text-anchor="middle" x="151" y="-418.5" font-family="Helvetica,sans-Serif" font-size="10.00"> </text>
<polyline fill="none" stroke="black" points="115.5,-411.5 186.5,-411.5 "/>
<text text-anchor="middle" x="151" y="-399.5" font-family="Helvetica,sans-Serif" font-size="10.00"> </text>
</a>
</g>
</g>
<!-- Node5&#45;&gt;Node8 -->
<g id="edge10" class="edge">
<title>Node5&#45;&gt;Node8</title>
<path fill="none" stroke="#404040" d="M315.46,-555.79C290.58,-551.38 239.33,-539.44 206,-512 189.45,-498.38 176.54,-478.4 167.4,-460.73"/>
<polygon fill="none" stroke="#404040" points="167.33,-460.6 161.11,-456.96 162.06,-449.81 168.29,-453.45 167.33,-460.6"/>
<text text-anchor="middle" x="225" y="-498.5" font-family="Helvetica,sans-Serif" font-size="10.00"> +fields</text>
</g>
<!-- Node6 -->
<g id="node6" class="node">
<title>Node6</title>
<g id="a_node6"><a xlink:title=" ">
<polygon fill="white" stroke="black" points="548,-530.5 548,-587.5 586,-587.5 586,-530.5 548,-530.5"/>
<text text-anchor="middle" x="567" y="-575.5" font-family="Helvetica,sans-Serif" font-size="10.00">long</text>
<polyline fill="none" stroke="black" points="548,-568.5 586,-568.5 "/>
<text text-anchor="middle" x="567" y="-556.5" font-family="Helvetica,sans-Serif" font-size="10.00"> </text>
<polyline fill="none" stroke="black" points="548,-549.5 586,-549.5 "/>
<text text-anchor="middle" x="567" y="-537.5" font-family="Helvetica,sans-Serif" font-size="10.00"> </text>
</a>
</g>
</g>
<!-- Node6&#45;&gt;Node4 -->
<g id="edge5" class="edge">
<title>Node6&#45;&gt;Node4</title>
<path fill="none" stroke="#404040" d="M561.74,-530.48C559.15,-516.93 555.91,-500 552.77,-483.58"/>
<polygon fill="none" stroke="#404040" points="552.77,-483.55 547.71,-478.41 550.51,-471.76 555.57,-476.91 552.77,-483.55"/>
<text text-anchor="middle" x="572.5" y="-498.5" font-family="Helvetica,sans-Serif" font-size="10.00"> +size</text>
</g>
<!-- Node7 -->
<g id="node7" class="node">
<title>Node7</title>
<g id="a_node7"><a xlink:href="structStateTag.html" target="_top" xlink:title=" ">
<polygon fill="white" stroke="black" points="323,-232.5 323,-322.5 425,-322.5 425,-232.5 323,-232.5"/>
<text text-anchor="middle" x="374" y="-310.5" font-family="Helvetica,sans-Serif" font-size="10.00">StateTag</text>
<polyline fill="none" stroke="black" points="323,-303.5 425,-303.5 "/>
<text text-anchor="middle" x="374" y="-291.5" font-family="Helvetica,sans-Serif" font-size="10.00"> </text>
<polyline fill="none" stroke="black" points="323,-284.5 425,-284.5 "/>
<text text-anchor="start" x="331" y="-272.5" font-family="Helvetica,sans-Serif" font-size="10.00">+ StateTag()</text>
<text text-anchor="start" x="331" y="-261.5" font-family="Helvetica,sans-Serif" font-size="10.00">+ StateTag()</text>
<text text-anchor="start" x="331" y="-250.5" font-family="Helvetica,sans-Serif" font-size="10.00">+ is_valid()</text>
<text text-anchor="start" x="331" y="-239.5" font-family="Helvetica,sans-Serif" font-size="10.00">+ get_state_tag()</text>
</a>
</g>
</g>
<!-- Node7&#45;&gt;Node2 -->
<g id="edge7" class="edge">
<title>Node7&#45;&gt;Node2</title>
<path fill="none" stroke="#404040" d="M374,-232.43C374,-220.87 374,-208.38 374,-196.76"/>
<polygon fill="none" stroke="#404040" points="374,-196.57 370,-190.57 374,-184.57 378,-190.57 374,-196.57"/>
<text text-anchor="middle" x="388" y="-206" font-family="Helvetica,sans-Serif" font-size="10.00"> +tag</text>
</g>
<!-- Node8&#45;&gt;Node7 -->
<g id="edge8" class="edge">
<title>Node8&#45;&gt;Node7</title>
<path fill="none" stroke="midnightblue" d="M195.43,-393.53C227.29,-374.35 271.11,-347.58 309,-323 313.47,-320.1 318.09,-317.05 322.71,-313.96"/>
<polygon fill="none" stroke="midnightblue" points="193.54,-390.58 186.77,-398.73 197.14,-396.58 193.54,-390.58"/>
</g>
<!-- Node9 -->
<g id="node9" class="node">
<title>Node9</title>
<g id="a_node9"><a xlink:title=" ">
<polygon fill="white" stroke="black" points="0,-530.5 0,-587.5 38,-587.5 38,-530.5 0,-530.5"/>
<text text-anchor="middle" x="19" y="-575.5" font-family="Helvetica,sans-Serif" font-size="10.00">float</text>
<polyline fill="none" stroke="black" points="0,-568.5 38,-568.5 "/>
<text text-anchor="middle" x="19" y="-556.5" font-family="Helvetica,sans-Serif" font-size="10.00"> </text>
<polyline fill="none" stroke="black" points="0,-549.5 38,-549.5 "/>
<text text-anchor="middle" x="19" y="-537.5" font-family="Helvetica,sans-Serif" font-size="10.00"> </text>
</a>
</g>
</g>
<!-- Node9&#45;&gt;Node8 -->
<g id="edge9" class="edge">
<title>Node9&#45;&gt;Node8</title>
<path fill="none" stroke="#404040" d="M20.96,-530.39C23.06,-517.12 27.34,-501.61 36,-490 53.1,-467.07 80.41,-450.45 104.13,-439.39"/>
<polygon fill="none" stroke="#404040" points="104.45,-439.25 108.32,-433.16 115.42,-434.4 111.55,-440.48 104.45,-439.25"/>
<text text-anchor="middle" x="68.5" y="-498.5" font-family="Helvetica,sans-Serif" font-size="10.00"> +fields_float</text>
</g>
<!-- Node10 -->
<g id="node10" class="node">
<title>Node10</title>
<g id="a_node10"><a xlink:title=" ">
<polygon fill="white" stroke="black" points="76.5,-530.5 76.5,-587.5 137.5,-587.5 137.5,-530.5 76.5,-530.5"/>
<text text-anchor="middle" x="107" y="-575.5" font-family="Helvetica,sans-Serif" font-size="10.00">unsigned</text>
<polyline fill="none" stroke="black" points="76.5,-568.5 137.5,-568.5 "/>
<text text-anchor="middle" x="107" y="-556.5" font-family="Helvetica,sans-Serif" font-size="10.00"> </text>
<polyline fill="none" stroke="black" points="76.5,-549.5 137.5,-549.5 "/>
<text text-anchor="middle" x="107" y="-537.5" font-family="Helvetica,sans-Serif" font-size="10.00"> </text>
</a>
</g>
</g>
<!-- Node10&#45;&gt;Node8 -->
<g id="edge11" class="edge">
<title>Node10&#45;&gt;Node8</title>
<path fill="none" stroke="#404040" d="M104.04,-530.35C103.54,-517.8 104.16,-502.9 108,-490 111.1,-479.59 116.28,-469.23 121.99,-459.86"/>
<polygon fill="none" stroke="#404040" points="122.04,-459.79 121.96,-452.58 128.59,-449.73 128.67,-456.95 122.04,-459.79"/>
<text text-anchor="middle" x="145.5" y="-498.5" font-family="Helvetica,sans-Serif" font-size="10.00"> +packed_flags</text>
</g>
<!-- Node11 -->
<g id="node11" class="node">
<title>Node11</title>
<g id="a_node11"><a xlink:title=" ">
<polygon fill="white" stroke="black" points="286.5,-392.5 286.5,-449.5 365.5,-449.5 365.5,-392.5 286.5,-392.5"/>
<text text-anchor="middle" x="326" y="-437.5" font-family="Helvetica,sans-Serif" font-size="10.00">bitset&lt; 64 &gt;</text>
<polyline fill="none" stroke="black" points="286.5,-430.5 365.5,-430.5 "/>
<text text-anchor="middle" x="326" y="-418.5" font-family="Helvetica,sans-Serif" font-size="10.00"> </text>
<polyline fill="none" stroke="black" points="286.5,-411.5 365.5,-411.5 "/>
<text text-anchor="middle" x="326" y="-399.5" font-family="Helvetica,sans-Serif" font-size="10.00"> </text>
</a>
</g>
</g>
<!-- Node11&#45;&gt;Node7 -->
<g id="edge12" class="edge">
<title>Node11&#45;&gt;Node7</title>
<path fill="none" stroke="#404040" d="M335.37,-392.38C340.98,-375.84 348.31,-354.22 355.08,-334.26"/>
<polygon fill="none" stroke="#404040" points="355.13,-334.12 353.27,-327.15 358.99,-322.75 360.85,-329.72 355.13,-334.12"/>
<text text-anchor="middle" x="369.5" y="-344" font-family="Helvetica,sans-Serif" font-size="10.00"> +flags</text>
</g>
<!-- Node12 -->
<g id="node12" class="node">
<title>Node12</title>
<g id="a_node12"><a xlink:title=" ">
<polygon fill="white" stroke="black" points="463,-122 463,-179 513,-179 513,-122 463,-122"/>
<text text-anchor="middle" x="488" y="-167" font-family="Helvetica,sans-Serif" font-size="10.00">double</text>
<polyline fill="none" stroke="black" points="463,-160 513,-160 "/>
<text text-anchor="middle" x="488" y="-148" font-family="Helvetica,sans-Serif" font-size="10.00"> </text>
<polyline fill="none" stroke="black" points="463,-141 513,-141 "/>
<text text-anchor="middle" x="488" y="-129" font-family="Helvetica,sans-Serif" font-size="10.00"> </text>
</a>
</g>
</g>
<!-- Node12&#45;&gt;Node1 -->
<g id="edge14" class="edge">
<title>Node12&#45;&gt;Node1</title>
<path fill="none" stroke="#404040" d="M469.27,-121.94C464.2,-114.26 458.79,-105.87 454,-98 450.31,-91.94 446.53,-85.49 442.88,-79.1"/>
<polygon fill="none" stroke="#404040" points="442.8,-78.97 436.37,-75.71 436.9,-68.52 443.34,-71.78 442.8,-78.97"/>
<text text-anchor="middle" x="508.5" y="-90" font-family="Helvetica,sans-Serif" font-size="10.00"> +feed_per_revolution</text>
</g>
<!-- Node13 -->
<g id="node13" class="node">
<title>Node13</title>
<g id="a_node13"><a xlink:title=" ">
<polygon fill="white" stroke="black" points="566,-122 566,-179 604,-179 604,-122 566,-122"/>
<text text-anchor="middle" x="585" y="-167" font-family="Helvetica,sans-Serif" font-size="10.00">bool</text>
<polyline fill="none" stroke="black" points="566,-160 604,-160 "/>
<text text-anchor="middle" x="585" y="-148" font-family="Helvetica,sans-Serif" font-size="10.00"> </text>
<polyline fill="none" stroke="black" points="566,-141 604,-141 "/>
<text text-anchor="middle" x="585" y="-129" font-family="Helvetica,sans-Serif" font-size="10.00"> </text>
</a>
</g>
</g>
<!-- Node13&#45;&gt;Node1 -->
<g id="edge15" class="edge">
<title>Node13&#45;&gt;Node1</title>
<path fill="none" stroke="#404040" d="M580.74,-121.72C577.62,-109.71 572.25,-96.3 563,-87 551.25,-75.19 536.6,-66.07 521.19,-59.04"/>
<polygon fill="none" stroke="#404040" points="520.92,-58.93 513.84,-60.29 509.86,-54.28 516.94,-52.91 520.92,-58.93"/>
<text text-anchor="middle" x="612" y="-90" font-family="Helvetica,sans-Serif" font-size="10.00"> +velocity_mode</text>
</g>
</g>
</svg>
        <g id="navigator" transform="translate(0 0)" fill="#404254">
                <rect fill="#f2f5e9" fill-opacity="0.5" stroke="#606060" stroke-width=".5" x="0" y="0" width="60" height="60"/>
                <use id="zoomplus" xlink:href="#zoomPlus" x="17" y="9" onmousedown="handleZoom(evt,'in')"/>
                <use id="zoomminus" xlink:href="#zoomMin" x="42" y="9" onmousedown="handleZoom(evt,'out')"/>
                <use id="reset" xlink:href="#resetDef" x="30" y="36" onmousedown="handleReset()"/>
                <g id="arrowUp" xlink:href="#dirArrow" transform="translate(30 24)" onmousedown="handlePan(0,-1)">
                  <use xlink:href="#rim" fill="#404040">
                        <set attributeName="fill" to="#808080" begin="arrowUp.mouseover" end="arrowUp.mouseout"/>
                  </use>
                  <path fill="none" stroke="white" stroke-width="1.5" d="M0,-3.0v7 M-2.5,-0.5L0,-3.0L2.5,-0.5"/>
                </g>
                <g id="arrowRight" xlink:href="#dirArrow" transform="rotate(90) translate(36 -43)" onmousedown="handlePan(1,0)">
                  <use xlink:href="#rim" fill="#404040">
                        <set attributeName="fill" to="#808080" begin="arrowRight.mouseover" end="arrowRight.mouseout"/>
                  </use>
                  <path fill="none" stroke="white" stroke-width="1.5" d="M0,-3.0v7 M-2.5,-0.5L0,-3.0L2.5,-0.5"/>
                </g>
                <g id="arrowDown" xlink:href="#dirArrow" transform="rotate(180) translate(-30 -48)" onmousedown="handlePan(0,1)">
                  <use xlink:href="#rim" fill="#404040">
                        <set attributeName="fill" to="#808080" begin="arrowDown.mouseover" end="arrowDown.mouseout"/>
                  </use>
                  <path fill="none" stroke="white" stroke-width="1.5" d="M0,-3.0v7 M-2.5,-0.5L0,-3.0L2.5,-0.5"/>
                </g>
                <g id="arrowLeft" xlink:href="#dirArrow" transform="rotate(270) translate(-36 17)" onmousedown="handlePan(-1,0)">
                  <use xlink:href="#rim" fill="#404040">
                        <set attributeName="fill" to="#808080" begin="arrowLeft.mouseover" end="arrowLeft.mouseout"/>
                  </use>
                  <path fill="none" stroke="white" stroke-width="1.5" d="M0,-3.0v7 M-2.5,-0.5L0,-3.0L2.5,-0.5"/>
                </g>
        </g>
        <svg viewBox="0 0 15 15" width="100%" height="30px" preserveAspectRatio="xMaxYMin meet">
         <g id="arrow_out" transform="scale(0.3 0.3)">
          <a xlink:href="classEMC__TRAJ__SET__SPINDLESYNC__coll__graph_org.svg" target="_base">
           <rect id="button" ry="5" rx="5" y="6" x="6" height="38" width="38"
                fill="#f2f5e9" fill-opacity="0.5" stroke="#606060" stroke-width="1.0"/>
           <path id="arrow"
             d="M 11.500037,31.436501 C 11.940474,20.09759 22.043105,11.32322 32.158766,21.979434 L 37.068811,17.246167 C 37.068811,17.246167 37.088388,32 37.088388,32 L 22.160133,31.978069 C 22.160133,31.978069 26.997745,27.140456 26.997745,27.140456 C 18.528582,18.264221 13.291696,25.230495 11.500037,31.436501 z"
             style="fill:#404040;"/>
          </a>
         </g>
        </svg>
</svg>
