<?xml version="1.0" encoding="UTF-8" standalone="no"?>
<!DOCTYPE svg PUBLIC "-//W3C//DTD SVG 1.1//EN"
 "http://www.w3.org/Graphics/SVG/1.1/DTD/svg11.dtd">
<!-- Generated by graphviz version 2.43.0 (0)
 -->
<!-- Title: EMC_TASK_PLAN_RUN Pages: 1 -->
<!--zoomable 522 -->
<svg id="main" version="1.1" xmlns="http://www.w3.org/2000/svg" xmlns:xlink="http://www.w3.org/1999/xlink" xml:space="preserve" onload="init(evt)">
<style type="text/css"><![CDATA[
.edge:hover path { stroke: red; }
.edge:hover polygon { stroke: red; fill: red; }
]]></style>
<script type="text/javascript"><![CDATA[
var edges = document.getElementsByTagName('g');
if (edges && edges.length) {
  for (var i=0;i<edges.length;i++) {
    if (edges[i].id.substr(0,4)=='edge') {
      edges[i].setAttribute('class','edge');
    }
  }
}
]]></script>
        <defs>
                <circle id="rim" cx="0" cy="0" r="7"/>
                <circle id="rim2" cx="0" cy="0" r="3.5"/>
                <g id="zoomPlus">
                        <use xlink:href="#rim" fill="#404040">
                                <set attributeName="fill" to="#808080" begin="zoomplus.mouseover" end="zoomplus.mouseout"/>
                        </use>
                        <path d="M-4,0h8M0,-4v8" fill="none" stroke="white" stroke-width="1.5" pointer-events="none"/>
                </g>
                <g id="zoomMin">
                        <use xlink:href="#rim" fill="#404040">
                                <set attributeName="fill" to="#808080" begin="zoomminus.mouseover" end="zoomminus.mouseout"/>
                        </use>
                        <path d="M-4,0h8" fill="none" stroke="white" stroke-width="1.5" pointer-events="none"/>
                </g>
                <g id="dirArrow">
                        <path fill="none" stroke="white" stroke-width="1.5" d="M0,-3.0v7 M-2.5,-0.5L0,-3.0L2.5,-0.5"/>
                </g>
               <g id="resetDef">
                       <use xlink:href="#rim2" fill="#404040">
                               <set attributeName="fill" to="#808080" begin="reset.mouseover" end="reset.mouseout"/>
                       </use>
               </g>
        </defs>

<script type="text/javascript">
var viewWidth = 342;
var viewHeight = 522;
var sectionId = 'dynsection-1';
</script>
<script xlink:href="svgpan.js"/>
<svg id="graph" class="graph">
<g id="viewport">
<title>EMC_TASK_PLAN_RUN</title>
<polygon fill="white" stroke="transparent" points="-4,4 -4,-518 338,-518 338,4 -4,4"/>
<!-- Node1 -->
<g id="node1" class="node">
<title>Node1</title>
<g id="a_node1"><a xlink:title=" ">
<polygon fill="#bfbfbf" stroke="black" points="0,-0.5 0,-68.5 146,-68.5 146,-0.5 0,-0.5"/>
<text text-anchor="middle" x="73" y="-56.5" font-family="Helvetica,sans-Serif" font-size="10.00">EMC_TASK_PLAN_RUN</text>
<polyline fill="none" stroke="black" points="0,-49.5 146,-49.5 "/>
<text text-anchor="middle" x="73" y="-37.5" font-family="Helvetica,sans-Serif" font-size="10.00"> </text>
<polyline fill="none" stroke="black" points="0,-30.5 146,-30.5 "/>
<text text-anchor="start" x="8" y="-18.5" font-family="Helvetica,sans-Serif" font-size="10.00">+ EMC_TASK_PLAN_RUN()</text>
<text text-anchor="start" x="8" y="-7.5" font-family="Helvetica,sans-Serif" font-size="10.00">+ update()</text>
</a>
</g>
</g>
<!-- Node2 -->
<g id="node2" class="node">
<title>Node2</title>
<g id="a_node2"><a xlink:href="classEMC__TASK__CMD__MSG.html" target="_top" xlink:title=" ">
<polygon fill="white" stroke="black" points="72.5,-106.5 72.5,-174.5 215.5,-174.5 215.5,-106.5 72.5,-106.5"/>
<text text-anchor="middle" x="144" y="-162.5" font-family="Helvetica,sans-Serif" font-size="10.00">EMC_TASK_CMD_MSG</text>
<polyline fill="none" stroke="black" points="72.5,-155.5 215.5,-155.5 "/>
<text text-anchor="middle" x="144" y="-143.5" font-family="Helvetica,sans-Serif" font-size="10.00"> </text>
<polyline fill="none" stroke="black" points="72.5,-136.5 215.5,-136.5 "/>
<text text-anchor="start" x="80.5" y="-124.5" font-family="Helvetica,sans-Serif" font-size="10.00">+ EMC_TASK_CMD_MSG()</text>
<text text-anchor="start" x="80.5" y="-113.5" font-family="Helvetica,sans-Serif" font-size="10.00">+ update()</text>
</a>
</g>
</g>
<!-- Node2&#45;&gt;Node1 -->
<g id="edge1" class="edge">
<title>Node2&#45;&gt;Node1</title>
<path fill="none" stroke="midnightblue" d="M115.63,-97.94C109,-88.24 102.03,-78.02 95.69,-68.73"/>
<polygon fill="none" stroke="midnightblue" points="112.81,-100.02 121.34,-106.31 118.59,-96.08 112.81,-100.02"/>
</g>
<!-- Node3 -->
<g id="node3" class="node">
<title>Node3</title>
<g id="a_node3"><a xlink:href="classRCS__CMD__MSG.html" target="_top" xlink:title=" ">
<polygon fill="white" stroke="black" points="90.5,-212.5 90.5,-269.5 201.5,-269.5 201.5,-212.5 90.5,-212.5"/>
<text text-anchor="middle" x="146" y="-257.5" font-family="Helvetica,sans-Serif" font-size="10.00">RCS_CMD_MSG</text>
<polyline fill="none" stroke="black" points="90.5,-250.5 201.5,-250.5 "/>
<text text-anchor="middle" x="146" y="-238.5" font-family="Helvetica,sans-Serif" font-size="10.00"> </text>
<polyline fill="none" stroke="black" points="90.5,-231.5 201.5,-231.5 "/>
<text text-anchor="start" x="98.5" y="-219.5" font-family="Helvetica,sans-Serif" font-size="10.00">+ RCS_CMD_MSG()</text>
</a>
</g>
</g>
<!-- Node3&#45;&gt;Node2 -->
<g id="edge2" class="edge">
<title>Node3&#45;&gt;Node2</title>
<path fill="none" stroke="midnightblue" d="M145.23,-202.3C145.05,-193.17 144.85,-183.48 144.67,-174.58"/>
<polygon fill="none" stroke="midnightblue" points="141.74,-202.37 145.44,-212.3 148.73,-202.23 141.74,-202.37"/>
</g>
<!-- Node4 -->
<g id="node4" class="node">
<title>Node4</title>
<g id="a_node4"><a xlink:href="classNMLmsg.html" target="_top" xlink:title=" ">
<polygon fill="white" stroke="black" points="201,-307.5 201,-408.5 279,-408.5 279,-307.5 201,-307.5"/>
<text text-anchor="middle" x="240" y="-396.5" font-family="Helvetica,sans-Serif" font-size="10.00">NMLmsg</text>
<polyline fill="none" stroke="black" points="201,-389.5 279,-389.5 "/>
<text text-anchor="middle" x="240" y="-377.5" font-family="Helvetica,sans-Serif" font-size="10.00"> </text>
<polyline fill="none" stroke="black" points="201,-370.5 279,-370.5 "/>
<text text-anchor="start" x="209" y="-358.5" font-family="Helvetica,sans-Serif" font-size="10.00">+ clear()</text>
<text text-anchor="start" x="209" y="-347.5" font-family="Helvetica,sans-Serif" font-size="10.00">+ update()</text>
<text text-anchor="start" x="209" y="-336.5" font-family="Helvetica,sans-Serif" font-size="10.00"># NMLmsg()</text>
<text text-anchor="start" x="209" y="-325.5" font-family="Helvetica,sans-Serif" font-size="10.00"># NMLmsg()</text>
<text text-anchor="start" x="209" y="-314.5" font-family="Helvetica,sans-Serif" font-size="10.00"># NMLmsg()</text>
</a>
</g>
</g>
<!-- Node4&#45;&gt;Node3 -->
<g id="edge3" class="edge">
<title>Node4&#45;&gt;Node3</title>
<path fill="none" stroke="midnightblue" d="M194.46,-301.29C185.5,-290.32 176.47,-279.28 168.67,-269.74"/>
<polygon fill="none" stroke="midnightblue" points="191.91,-303.7 200.95,-309.23 197.33,-299.27 191.91,-303.7"/>
</g>
<!-- Node5 -->
<g id="node5" class="node">
<title>Node5</title>
<g id="a_node5"><a xlink:title=" ">
<polygon fill="white" stroke="black" points="73.5,-456.5 73.5,-513.5 102.5,-513.5 102.5,-456.5 73.5,-456.5"/>
<text text-anchor="middle" x="88" y="-501.5" font-family="Helvetica,sans-Serif" font-size="10.00">int</text>
<polyline fill="none" stroke="black" points="73.5,-494.5 102.5,-494.5 "/>
<text text-anchor="middle" x="88" y="-482.5" font-family="Helvetica,sans-Serif" font-size="10.00"> </text>
<polyline fill="none" stroke="black" points="73.5,-475.5 102.5,-475.5 "/>
<text text-anchor="middle" x="88" y="-463.5" font-family="Helvetica,sans-Serif" font-size="10.00"> </text>
</a>
</g>
</g>
<!-- Node5&#45;&gt;Node1 -->
<g id="edge8" class="edge">
<title>Node5&#45;&gt;Node1</title>
<path fill="none" stroke="#404040" d="M73.45,-460.06C59.97,-435.58 42,-396 42,-359 42,-359 42,-359 42,-139.5 42,-119.56 47.3,-98.34 53.51,-80.3"/>
<polygon fill="none" stroke="#404040" points="53.54,-80.21 51.86,-73.2 57.68,-68.95 59.37,-75.96 53.54,-80.21"/>
<text text-anchor="middle" x="57" y="-238.5" font-family="Helvetica,sans-Serif" font-size="10.00"> +line</text>
</g>
<!-- Node5&#45;&gt;Node3 -->
<g id="edge7" class="edge">
<title>Node5&#45;&gt;Node3</title>
<path fill="none" stroke="#404040" d="M88.21,-456.31C89.2,-420.86 93.42,-357.94 110,-307 112.92,-298.04 117.1,-288.91 121.58,-280.43"/>
<polygon fill="none" stroke="#404040" points="121.71,-280.19 121.16,-273 127.58,-269.72 128.14,-276.91 121.71,-280.19"/>
<text text-anchor="middle" x="151" y="-355.5" font-family="Helvetica,sans-Serif" font-size="10.00"> +serial_number</text>
</g>
<!-- Node5&#45;&gt;Node4 -->
<g id="edge4" class="edge">
<title>Node5&#45;&gt;Node4</title>
<path fill="none" stroke="#404040" d="M102.56,-461.91C110.98,-450.39 122.4,-436.71 135,-427 150.12,-415.34 157.63,-418.82 174,-409 179.62,-405.63 185.34,-401.87 190.94,-397.97"/>
<polygon fill="none" stroke="#404040" points="191.09,-397.85 193.63,-391.1 200.83,-390.85 198.3,-397.6 191.09,-397.85"/>
<text text-anchor="middle" x="189.5" y="-430" font-family="Helvetica,sans-Serif" font-size="10.00"> +automatically_clear</text>
</g>
<!-- Node6 -->
<g id="node6" class="node">
<title>Node6</title>
<g id="a_node6"><a xlink:title=" ">
<polygon fill="white" stroke="black" points="228,-456.5 228,-513.5 278,-513.5 278,-456.5 228,-456.5"/>
<text text-anchor="middle" x="253" y="-501.5" font-family="Helvetica,sans-Serif" font-size="10.00">int32_t</text>
<polyline fill="none" stroke="black" points="228,-494.5 278,-494.5 "/>
<text text-anchor="middle" x="253" y="-482.5" font-family="Helvetica,sans-Serif" font-size="10.00"> </text>
<polyline fill="none" stroke="black" points="228,-475.5 278,-475.5 "/>
<text text-anchor="middle" x="253" y="-463.5" font-family="Helvetica,sans-Serif" font-size="10.00"> </text>
</a>
</g>
</g>
<!-- Node6&#45;&gt;Node4 -->
<g id="edge5" class="edge">
<title>Node6&#45;&gt;Node4</title>
<path fill="none" stroke="#404040" d="M250.11,-456.26C249.03,-445.79 247.74,-433.42 246.46,-421.07"/>
<polygon fill="none" stroke="#404040" points="246.42,-420.74 241.82,-415.18 245.18,-408.8 249.78,-414.36 246.42,-420.74"/>
<text text-anchor="middle" x="266" y="-430" font-family="Helvetica,sans-Serif" font-size="10.00"> +type</text>
</g>
<!-- Node7 -->
<g id="node7" class="node">
<title>Node7</title>
<g id="a_node7"><a xlink:title=" ">
<polygon fill="white" stroke="black" points="296,-456.5 296,-513.5 334,-513.5 334,-456.5 296,-456.5"/>
<text text-anchor="middle" x="315" y="-501.5" font-family="Helvetica,sans-Serif" font-size="10.00">long</text>
<polyline fill="none" stroke="black" points="296,-494.5 334,-494.5 "/>
<text text-anchor="middle" x="315" y="-482.5" font-family="Helvetica,sans-Serif" font-size="10.00"> </text>
<polyline fill="none" stroke="black" points="296,-475.5 334,-475.5 "/>
<text text-anchor="middle" x="315" y="-463.5" font-family="Helvetica,sans-Serif" font-size="10.00"> </text>
</a>
</g>
</g>
<!-- Node7&#45;&gt;Node4 -->
<g id="edge6" class="edge">
<title>Node7&#45;&gt;Node4</title>
<path fill="none" stroke="#404040" d="M302.42,-456.31C297.85,-446.86 292.47,-436.32 287,-427 285.44,-424.35 283.82,-421.66 282.14,-418.97"/>
<polygon fill="none" stroke="#404040" points="281.97,-418.7 275.37,-415.79 275.51,-408.58 282.11,-411.49 281.97,-418.7"/>
<text text-anchor="middle" x="308.5" y="-430" font-family="Helvetica,sans-Serif" font-size="10.00"> +size</text>
</g>
</g>
</svg>
        <g id="navigator" transform="translate(0 0)" fill="#404254">
                <rect fill="#f2f5e9" fill-opacity="0.5" stroke="#606060" stroke-width=".5" x="0" y="0" width="60" height="60"/>
                <use id="zoomplus" xlink:href="#zoomPlus" x="17" y="9" onmousedown="handleZoom(evt,'in')"/>
                <use id="zoomminus" xlink:href="#zoomMin" x="42" y="9" onmousedown="handleZoom(evt,'out')"/>
                <use id="reset" xlink:href="#resetDef" x="30" y="36" onmousedown="handleReset()"/>
                <g id="arrowUp" xlink:href="#dirArrow" transform="translate(30 24)" onmousedown="handlePan(0,-1)">
                  <use xlink:href="#rim" fill="#404040">
                        <set attributeName="fill" to="#808080" begin="arrowUp.mouseover" end="arrowUp.mouseout"/>
                  </use>
                  <path fill="none" stroke="white" stroke-width="1.5" d="M0,-3.0v7 M-2.5,-0.5L0,-3.0L2.5,-0.5"/>
                </g>
                <g id="arrowRight" xlink:href="#dirArrow" transform="rotate(90) translate(36 -43)" onmousedown="handlePan(1,0)">
                  <use xlink:href="#rim" fill="#404040">
                        <set attributeName="fill" to="#808080" begin="arrowRight.mouseover" end="arrowRight.mouseout"/>
                  </use>
                  <path fill="none" stroke="white" stroke-width="1.5" d="M0,-3.0v7 M-2.5,-0.5L0,-3.0L2.5,-0.5"/>
                </g>
                <g id="arrowDown" xlink:href="#dirArrow" transform="rotate(180) translate(-30 -48)" onmousedown="handlePan(0,1)">
                  <use xlink:href="#rim" fill="#404040">
                        <set attributeName="fill" to="#808080" begin="arrowDown.mouseover" end="arrowDown.mouseout"/>
                  </use>
                  <path fill="none" stroke="white" stroke-width="1.5" d="M0,-3.0v7 M-2.5,-0.5L0,-3.0L2.5,-0.5"/>
                </g>
                <g id="arrowLeft" xlink:href="#dirArrow" transform="rotate(270) translate(-36 17)" onmousedown="handlePan(-1,0)">
                  <use xlink:href="#rim" fill="#404040">
                        <set attributeName="fill" to="#808080" begin="arrowLeft.mouseover" end="arrowLeft.mouseout"/>
                  </use>
                  <path fill="none" stroke="white" stroke-width="1.5" d="M0,-3.0v7 M-2.5,-0.5L0,-3.0L2.5,-0.5"/>
                </g>
        </g>
        <svg viewBox="0 0 15 15" width="100%" height="30px" preserveAspectRatio="xMaxYMin meet">
         <g id="arrow_out" transform="scale(0.3 0.3)">
          <a xlink:href="classEMC__TASK__PLAN__RUN__coll__graph_org.svg" target="_base">
           <rect id="button" ry="5" rx="5" y="6" x="6" height="38" width="38"
                fill="#f2f5e9" fill-opacity="0.5" stroke="#606060" stroke-width="1.0"/>
           <path id="arrow"
             d="M 11.500037,31.436501 C 11.940474,20.09759 22.043105,11.32322 32.158766,21.979434 L 37.068811,17.246167 C 37.068811,17.246167 37.088388,32 37.088388,32 L 22.160133,31.978069 C 22.160133,31.978069 26.997745,27.140456 26.997745,27.140456 C 18.528582,18.264221 13.291696,25.230495 11.500037,31.436501 z"
             style="fill:#404040;"/>
          </a>
         </g>
        </svg>
</svg>
