<?xml version="1.0" encoding="UTF-8" standalone="no"?>
<!DOCTYPE svg PUBLIC "-//W3C//DTD SVG 1.1//EN"
 "http://www.w3.org/Graphics/SVG/1.1/DTD/svg11.dtd">
<!-- Generated by graphviz version 2.43.0 (0)
 -->
<!-- Title: EMC_TOOL_START_CHANGE Pages: 1 -->
<svg width="296pt" height="522pt"
 viewBox="0.00 0.00 295.50 522.00" xmlns="http://www.w3.org/2000/svg" xmlns:xlink="http://www.w3.org/1999/xlink">
<g id="graph0" class="graph" transform="scale(1 1) rotate(0) translate(4 518)">
<title>EMC_TOOL_START_CHANGE</title>
<polygon fill="white" stroke="transparent" points="-4,4 -4,-518 291.5,-518 291.5,4 -4,4"/>
<!-- Node1 -->
<g id="node1" class="node">
<title>Node1</title>
<g id="a_node1"><a xlink:title=" ">
<polygon fill="#bfbfbf" stroke="black" points="0,-0.5 0,-68.5 171,-68.5 171,-0.5 0,-0.5"/>
<text text-anchor="middle" x="85.5" y="-56.5" font-family="Helvetica,sans-Serif" font-size="10.00">EMC_TOOL_START_CHANGE</text>
<polyline fill="none" stroke="black" points="0,-49.5 171,-49.5 "/>
<text text-anchor="middle" x="85.5" y="-37.5" font-family="Helvetica,sans-Serif" font-size="10.00"> </text>
<polyline fill="none" stroke="black" points="0,-30.5 171,-30.5 "/>
<text text-anchor="start" x="8" y="-18.5" font-family="Helvetica,sans-Serif" font-size="10.00">+ EMC_TOOL_START_CHANGE()</text>
<text text-anchor="start" x="8" y="-7.5" font-family="Helvetica,sans-Serif" font-size="10.00">+ update()</text>
</a>
</g>
</g>
<!-- Node2 -->
<g id="node2" class="node">
<title>Node2</title>
<g id="a_node2"><a xlink:href="classEMC__TOOL__CMD__MSG.html" target="_top" xlink:title=" ">
<polygon fill="white" stroke="black" points="13,-106.5 13,-174.5 158,-174.5 158,-106.5 13,-106.5"/>
<text text-anchor="middle" x="85.5" y="-162.5" font-family="Helvetica,sans-Serif" font-size="10.00">EMC_TOOL_CMD_MSG</text>
<polyline fill="none" stroke="black" points="13,-155.5 158,-155.5 "/>
<text text-anchor="middle" x="85.5" y="-143.5" font-family="Helvetica,sans-Serif" font-size="10.00"> </text>
<polyline fill="none" stroke="black" points="13,-136.5 158,-136.5 "/>
<text text-anchor="start" x="21" y="-124.5" font-family="Helvetica,sans-Serif" font-size="10.00">+ EMC_TOOL_CMD_MSG()</text>
<text text-anchor="start" x="21" y="-113.5" font-family="Helvetica,sans-Serif" font-size="10.00">+ update()</text>
</a>
</g>
</g>
<!-- Node2&#45;&gt;Node1 -->
<g id="edge1" class="edge">
<title>Node2&#45;&gt;Node1</title>
<path fill="none" stroke="midnightblue" d="M85.5,-96.17C85.5,-87 85.5,-77.46 85.5,-68.73"/>
<polygon fill="none" stroke="midnightblue" points="82,-96.31 85.5,-106.31 89,-96.31 82,-96.31"/>
</g>
<!-- Node3 -->
<g id="node3" class="node">
<title>Node3</title>
<g id="a_node3"><a xlink:href="classRCS__CMD__MSG.html" target="_top" xlink:title=" ">
<polygon fill="white" stroke="black" points="30,-212.5 30,-269.5 141,-269.5 141,-212.5 30,-212.5"/>
<text text-anchor="middle" x="85.5" y="-257.5" font-family="Helvetica,sans-Serif" font-size="10.00">RCS_CMD_MSG</text>
<polyline fill="none" stroke="black" points="30,-250.5 141,-250.5 "/>
<text text-anchor="middle" x="85.5" y="-238.5" font-family="Helvetica,sans-Serif" font-size="10.00"> </text>
<polyline fill="none" stroke="black" points="30,-231.5 141,-231.5 "/>
<text text-anchor="start" x="38" y="-219.5" font-family="Helvetica,sans-Serif" font-size="10.00">+ RCS_CMD_MSG()</text>
</a>
</g>
</g>
<!-- Node3&#45;&gt;Node2 -->
<g id="edge2" class="edge">
<title>Node3&#45;&gt;Node2</title>
<path fill="none" stroke="midnightblue" d="M85.5,-202.01C85.5,-192.96 85.5,-183.38 85.5,-174.58"/>
<polygon fill="none" stroke="midnightblue" points="82,-202.3 85.5,-212.3 89,-202.3 82,-202.3"/>
</g>
<!-- Node4 -->
<g id="node4" class="node">
<title>Node4</title>
<g id="a_node4"><a xlink:href="classNMLmsg.html" target="_top" xlink:title=" ">
<polygon fill="white" stroke="black" points="154.5,-307.5 154.5,-408.5 232.5,-408.5 232.5,-307.5 154.5,-307.5"/>
<text text-anchor="middle" x="193.5" y="-396.5" font-family="Helvetica,sans-Serif" font-size="10.00">NMLmsg</text>
<polyline fill="none" stroke="black" points="154.5,-389.5 232.5,-389.5 "/>
<text text-anchor="middle" x="193.5" y="-377.5" font-family="Helvetica,sans-Serif" font-size="10.00"> </text>
<polyline fill="none" stroke="black" points="154.5,-370.5 232.5,-370.5 "/>
<text text-anchor="start" x="162.5" y="-358.5" font-family="Helvetica,sans-Serif" font-size="10.00">+ clear()</text>
<text text-anchor="start" x="162.5" y="-347.5" font-family="Helvetica,sans-Serif" font-size="10.00">+ update()</text>
<text text-anchor="start" x="162.5" y="-336.5" font-family="Helvetica,sans-Serif" font-size="10.00"># NMLmsg()</text>
<text text-anchor="start" x="162.5" y="-325.5" font-family="Helvetica,sans-Serif" font-size="10.00"># NMLmsg()</text>
<text text-anchor="start" x="162.5" y="-314.5" font-family="Helvetica,sans-Serif" font-size="10.00"># NMLmsg()</text>
</a>
</g>
</g>
<!-- Node4&#45;&gt;Node3 -->
<g id="edge3" class="edge">
<title>Node4&#45;&gt;Node3</title>
<path fill="none" stroke="midnightblue" d="M147.1,-307.59C134.89,-294.6 122.16,-281.04 111.46,-269.64"/>
<polygon fill="none" stroke="midnightblue" points="144.81,-310.26 154.2,-315.16 149.91,-305.47 144.81,-310.26"/>
</g>
<!-- Node5 -->
<g id="node5" class="node">
<title>Node5</title>
<g id="a_node5"><a xlink:title=" ">
<polygon fill="white" stroke="black" points="44,-456.5 44,-513.5 73,-513.5 73,-456.5 44,-456.5"/>
<text text-anchor="middle" x="58.5" y="-501.5" font-family="Helvetica,sans-Serif" font-size="10.00">int</text>
<polyline fill="none" stroke="black" points="44,-494.5 73,-494.5 "/>
<text text-anchor="middle" x="58.5" y="-482.5" font-family="Helvetica,sans-Serif" font-size="10.00"> </text>
<polyline fill="none" stroke="black" points="44,-475.5 73,-475.5 "/>
<text text-anchor="middle" x="58.5" y="-463.5" font-family="Helvetica,sans-Serif" font-size="10.00"> </text>
</a>
</g>
</g>
<!-- Node5&#45;&gt;Node3 -->
<g id="edge7" class="edge">
<title>Node5&#45;&gt;Node3</title>
<path fill="none" stroke="#404040" d="M56.76,-456.45C55.13,-421.42 54.15,-359.2 63.5,-307 65.03,-298.47 67.46,-289.54 70.17,-281.13"/>
<polygon fill="none" stroke="#404040" points="70.2,-281.02 68.37,-274.05 74.1,-269.67 75.94,-276.65 70.2,-281.02"/>
<text text-anchor="middle" x="104.5" y="-355.5" font-family="Helvetica,sans-Serif" font-size="10.00"> +serial_number</text>
</g>
<!-- Node5&#45;&gt;Node4 -->
<g id="edge4" class="edge">
<title>Node5&#45;&gt;Node4</title>
<path fill="none" stroke="#404040" d="M68.61,-456.34C73.41,-446.13 79.98,-435.08 88.5,-427 102.35,-413.86 111.13,-418.82 127.5,-409 133.12,-405.63 138.84,-401.87 144.44,-397.97"/>
<polygon fill="none" stroke="#404040" points="144.59,-397.85 147.13,-391.1 154.33,-390.85 151.8,-397.6 144.59,-397.85"/>
<text text-anchor="middle" x="143" y="-430" font-family="Helvetica,sans-Serif" font-size="10.00"> +automatically_clear</text>
</g>
<!-- Node6 -->
<g id="node6" class="node">
<title>Node6</title>
<g id="a_node6"><a xlink:title=" ">
<polygon fill="white" stroke="black" points="181.5,-456.5 181.5,-513.5 231.5,-513.5 231.5,-456.5 181.5,-456.5"/>
<text text-anchor="middle" x="206.5" y="-501.5" font-family="Helvetica,sans-Serif" font-size="10.00">int32_t</text>
<polyline fill="none" stroke="black" points="181.5,-494.5 231.5,-494.5 "/>
<text text-anchor="middle" x="206.5" y="-482.5" font-family="Helvetica,sans-Serif" font-size="10.00"> </text>
<polyline fill="none" stroke="black" points="181.5,-475.5 231.5,-475.5 "/>
<text text-anchor="middle" x="206.5" y="-463.5" font-family="Helvetica,sans-Serif" font-size="10.00"> </text>
</a>
</g>
</g>
<!-- Node6&#45;&gt;Node4 -->
<g id="edge5" class="edge">
<title>Node6&#45;&gt;Node4</title>
<path fill="none" stroke="#404040" d="M203.61,-456.26C202.53,-445.79 201.24,-433.42 199.96,-421.07"/>
<polygon fill="none" stroke="#404040" points="199.92,-420.74 195.32,-415.18 198.68,-408.8 203.28,-414.36 199.92,-420.74"/>
<text text-anchor="middle" x="219.5" y="-430" font-family="Helvetica,sans-Serif" font-size="10.00"> +type</text>
</g>
<!-- Node7 -->
<g id="node7" class="node">
<title>Node7</title>
<g id="a_node7"><a xlink:title=" ">
<polygon fill="white" stroke="black" points="249.5,-456.5 249.5,-513.5 287.5,-513.5 287.5,-456.5 249.5,-456.5"/>
<text text-anchor="middle" x="268.5" y="-501.5" font-family="Helvetica,sans-Serif" font-size="10.00">long</text>
<polyline fill="none" stroke="black" points="249.5,-494.5 287.5,-494.5 "/>
<text text-anchor="middle" x="268.5" y="-482.5" font-family="Helvetica,sans-Serif" font-size="10.00"> </text>
<polyline fill="none" stroke="black" points="249.5,-475.5 287.5,-475.5 "/>
<text text-anchor="middle" x="268.5" y="-463.5" font-family="Helvetica,sans-Serif" font-size="10.00"> </text>
</a>
</g>
</g>
<!-- Node7&#45;&gt;Node4 -->
<g id="edge6" class="edge">
<title>Node7&#45;&gt;Node4</title>
<path fill="none" stroke="#404040" d="M255.92,-456.31C251.35,-446.86 245.97,-436.32 240.5,-427 238.94,-424.35 237.32,-421.66 235.64,-418.97"/>
<polygon fill="none" stroke="#404040" points="235.47,-418.7 228.87,-415.79 229.01,-408.58 235.61,-411.49 235.47,-418.7"/>
<text text-anchor="middle" x="262" y="-430" font-family="Helvetica,sans-Serif" font-size="10.00"> +size</text>
</g>
</g>
</svg>
