<?xml version="1.0" encoding="UTF-8" standalone="no"?>
<!DOCTYPE svg PUBLIC "-//W3C//DTD SVG 1.1//EN"
 "http://www.w3.org/Graphics/SVG/1.1/DTD/svg11.dtd">
<!-- Generated by graphviz version 2.43.0 (0)
 -->
<!-- Title: EMC_TRAJ_STAT_MSG Pages: 1 -->
<svg width="149pt" height="612pt"
 viewBox="0.00 0.00 149.00 612.00" xmlns="http://www.w3.org/2000/svg" xmlns:xlink="http://www.w3.org/1999/xlink">
<g id="graph0" class="graph" transform="scale(1 1) rotate(0) translate(4 608)">
<title>EMC_TRAJ_STAT_MSG</title>
<polygon fill="white" stroke="transparent" points="-4,4 -4,-608 145,-608 145,4 -4,4"/>
<!-- Node1 -->
<g id="node1" class="node">
<title>Node1</title>
<g id="a_node1"><a xlink:title=" ">
<polygon fill="#bfbfbf" stroke="black" points="0,-215.5 0,-283.5 141,-283.5 141,-215.5 0,-215.5"/>
<text text-anchor="middle" x="70.5" y="-271.5" font-family="Helvetica,sans-Serif" font-size="10.00">EMC_TRAJ_STAT_MSG</text>
<polyline fill="none" stroke="black" points="0,-264.5 141,-264.5 "/>
<text text-anchor="middle" x="70.5" y="-252.5" font-family="Helvetica,sans-Serif" font-size="10.00"> </text>
<polyline fill="none" stroke="black" points="0,-245.5 141,-245.5 "/>
<text text-anchor="start" x="8" y="-233.5" font-family="Helvetica,sans-Serif" font-size="10.00">+ EMC_TRAJ_STAT_MSG()</text>
<text text-anchor="start" x="8" y="-222.5" font-family="Helvetica,sans-Serif" font-size="10.00">+ update()</text>
</a>
</g>
</g>
<!-- Node4 -->
<g id="node4" class="node">
<title>Node4</title>
<g id="a_node4"><a xlink:href="classEMC__TRAJ__STAT.html" target="_top" xlink:title=" ">
<polygon fill="white" stroke="black" points="14,-0.5 14,-178.5 127,-178.5 127,-0.5 14,-0.5"/>
<text text-anchor="middle" x="70.5" y="-166.5" font-family="Helvetica,sans-Serif" font-size="10.00">EMC_TRAJ_STAT</text>
<polyline fill="none" stroke="black" points="14,-159.5 127,-159.5 "/>
<text text-anchor="start" x="22" y="-147.5" font-family="Helvetica,sans-Serif" font-size="10.00">+ linearUnits</text>
<text text-anchor="start" x="22" y="-136.5" font-family="Helvetica,sans-Serif" font-size="10.00">+ angularUnits</text>
<text text-anchor="start" x="22" y="-125.5" font-family="Helvetica,sans-Serif" font-size="10.00">+ cycleTime</text>
<text text-anchor="start" x="22" y="-114.5" font-family="Helvetica,sans-Serif" font-size="10.00">+ joints</text>
<text text-anchor="start" x="22" y="-103.5" font-family="Helvetica,sans-Serif" font-size="10.00">+ spindles</text>
<text text-anchor="start" x="22" y="-92.5" font-family="Helvetica,sans-Serif" font-size="10.00">+ axis_mask</text>
<text text-anchor="start" x="22" y="-81.5" font-family="Helvetica,sans-Serif" font-size="10.00">+ mode</text>
<text text-anchor="start" x="22" y="-70.5" font-family="Helvetica,sans-Serif" font-size="10.00">+ enabled</text>
<text text-anchor="start" x="22" y="-59.5" font-family="Helvetica,sans-Serif" font-size="10.00">+ inpos</text>
<text text-anchor="start" x="22" y="-48.5" font-family="Helvetica,sans-Serif" font-size="10.00">+ queue</text>
<text text-anchor="start" x="22" y="-37.5" font-family="Helvetica,sans-Serif" font-size="10.00">and 25 more...</text>
<polyline fill="none" stroke="black" points="14,-30.5 127,-30.5 "/>
<text text-anchor="start" x="22" y="-18.5" font-family="Helvetica,sans-Serif" font-size="10.00">+ EMC_TRAJ_STAT()</text>
<text text-anchor="start" x="22" y="-7.5" font-family="Helvetica,sans-Serif" font-size="10.00">+ update()</text>
</a>
</g>
</g>
<!-- Node1&#45;&gt;Node4 -->
<g id="edge3" class="edge">
<title>Node1&#45;&gt;Node4</title>
<path fill="none" stroke="midnightblue" d="M70.5,-205.19C70.5,-196.83 70.5,-187.8 70.5,-178.59"/>
<polygon fill="none" stroke="midnightblue" points="67,-205.38 70.5,-215.38 74,-205.38 67,-205.38"/>
</g>
<!-- Node2 -->
<g id="node2" class="node">
<title>Node2</title>
<g id="a_node2"><a xlink:href="classRCS__STAT__MSG.html" target="_top" xlink:title=" ">
<polygon fill="white" stroke="black" points="7.5,-320.5 7.5,-443.5 133.5,-443.5 133.5,-320.5 7.5,-320.5"/>
<text text-anchor="middle" x="70.5" y="-431.5" font-family="Helvetica,sans-Serif" font-size="10.00">RCS_STAT_MSG</text>
<polyline fill="none" stroke="black" points="7.5,-424.5 133.5,-424.5 "/>
<text text-anchor="start" x="15.5" y="-412.5" font-family="Helvetica,sans-Serif" font-size="10.00">+ command_type</text>
<text text-anchor="start" x="15.5" y="-401.5" font-family="Helvetica,sans-Serif" font-size="10.00">+ echo_serial_number</text>
<text text-anchor="start" x="15.5" y="-390.5" font-family="Helvetica,sans-Serif" font-size="10.00">+ status</text>
<text text-anchor="start" x="15.5" y="-379.5" font-family="Helvetica,sans-Serif" font-size="10.00">+ state</text>
<text text-anchor="start" x="15.5" y="-368.5" font-family="Helvetica,sans-Serif" font-size="10.00">+ line</text>
<text text-anchor="start" x="15.5" y="-357.5" font-family="Helvetica,sans-Serif" font-size="10.00">+ source_line</text>
<text text-anchor="start" x="15.5" y="-346.5" font-family="Helvetica,sans-Serif" font-size="10.00">+ source_file</text>
<polyline fill="none" stroke="black" points="7.5,-339.5 133.5,-339.5 "/>
<text text-anchor="start" x="15.5" y="-327.5" font-family="Helvetica,sans-Serif" font-size="10.00">+ RCS_STAT_MSG()</text>
</a>
</g>
</g>
<!-- Node2&#45;&gt;Node1 -->
<g id="edge1" class="edge">
<title>Node2&#45;&gt;Node1</title>
<path fill="none" stroke="midnightblue" d="M70.5,-310.24C70.5,-300.97 70.5,-291.84 70.5,-283.62"/>
<polygon fill="none" stroke="midnightblue" points="67,-310.33 70.5,-320.33 74,-310.33 67,-310.33"/>
</g>
<!-- Node3 -->
<g id="node3" class="node">
<title>Node3</title>
<g id="a_node3"><a xlink:href="classNMLmsg.html" target="_top" xlink:title=" ">
<polygon fill="white" stroke="black" points="8,-480.5 8,-603.5 133,-603.5 133,-480.5 8,-480.5"/>
<text text-anchor="middle" x="70.5" y="-591.5" font-family="Helvetica,sans-Serif" font-size="10.00">NMLmsg</text>
<polyline fill="none" stroke="black" points="8,-584.5 133,-584.5 "/>
<text text-anchor="start" x="16" y="-572.5" font-family="Helvetica,sans-Serif" font-size="10.00">+ type</text>
<text text-anchor="start" x="16" y="-561.5" font-family="Helvetica,sans-Serif" font-size="10.00">+ size</text>
<text text-anchor="start" x="16" y="-550.5" font-family="Helvetica,sans-Serif" font-size="10.00">+ automatically_clear</text>
<polyline fill="none" stroke="black" points="8,-543.5 133,-543.5 "/>
<text text-anchor="start" x="16" y="-531.5" font-family="Helvetica,sans-Serif" font-size="10.00">+ clear()</text>
<text text-anchor="start" x="16" y="-520.5" font-family="Helvetica,sans-Serif" font-size="10.00">+ update()</text>
<text text-anchor="start" x="16" y="-509.5" font-family="Helvetica,sans-Serif" font-size="10.00"># NMLmsg()</text>
<text text-anchor="start" x="16" y="-498.5" font-family="Helvetica,sans-Serif" font-size="10.00"># NMLmsg()</text>
<text text-anchor="start" x="16" y="-487.5" font-family="Helvetica,sans-Serif" font-size="10.00"># NMLmsg()</text>
</a>
</g>
</g>
<!-- Node3&#45;&gt;Node2 -->
<g id="edge2" class="edge">
<title>Node3&#45;&gt;Node2</title>
<path fill="none" stroke="midnightblue" d="M70.5,-470.12C70.5,-461.31 70.5,-452.37 70.5,-443.73"/>
<polygon fill="none" stroke="midnightblue" points="67,-470.36 70.5,-480.36 74,-470.36 67,-470.36"/>
</g>
</g>
</svg>
