<?xml version="1.0" encoding="UTF-8" standalone="no"?>
<!DOCTYPE svg PUBLIC "-//W3C//DTD SVG 1.1//EN"
 "http://www.w3.org/Graphics/SVG/1.1/DTD/svg11.dtd">
<!-- Generated by graphviz version 2.43.0 (0)
 -->
<!-- Title: EMC_JOINT_SET_FERROR Pages: 1 -->
<!--zoomable 542 -->
<svg id="main" version="1.1" xmlns="http://www.w3.org/2000/svg" xmlns:xlink="http://www.w3.org/1999/xlink" xml:space="preserve" onload="init(evt)">
<style type="text/css"><![CDATA[
.edge:hover path { stroke: red; }
.edge:hover polygon { stroke: red; fill: red; }
]]></style>
<script type="text/javascript"><![CDATA[
var edges = document.getElementsByTagName('g');
if (edges && edges.length) {
  for (var i=0;i<edges.length;i++) {
    if (edges[i].id.substr(0,4)=='edge') {
      edges[i].setAttribute('class','edge');
    }
  }
}
]]></script>
        <defs>
                <circle id="rim" cx="0" cy="0" r="7"/>
                <circle id="rim2" cx="0" cy="0" r="3.5"/>
                <g id="zoomPlus">
                        <use xlink:href="#rim" fill="#404040">
                                <set attributeName="fill" to="#808080" begin="zoomplus.mouseover" end="zoomplus.mouseout"/>
                        </use>
                        <path d="M-4,0h8M0,-4v8" fill="none" stroke="white" stroke-width="1.5" pointer-events="none"/>
                </g>
                <g id="zoomMin">
                        <use xlink:href="#rim" fill="#404040">
                                <set attributeName="fill" to="#808080" begin="zoomminus.mouseover" end="zoomminus.mouseout"/>
                        </use>
                        <path d="M-4,0h8" fill="none" stroke="white" stroke-width="1.5" pointer-events="none"/>
                </g>
                <g id="dirArrow">
                        <path fill="none" stroke="white" stroke-width="1.5" d="M0,-3.0v7 M-2.5,-0.5L0,-3.0L2.5,-0.5"/>
                </g>
               <g id="resetDef">
                       <use xlink:href="#rim2" fill="#404040">
                               <set attributeName="fill" to="#808080" begin="reset.mouseover" end="reset.mouseout"/>
                       </use>
               </g>
        </defs>

<script type="text/javascript">
var viewWidth = 364;
var viewHeight = 542;
var sectionId = 'dynsection-1';
</script>
<script xlink:href="svgpan.js"/>
<svg id="graph" class="graph">
<g id="viewport">
<title>EMC_JOINT_SET_FERROR</title>
<polygon fill="white" stroke="transparent" points="-4,4 -4,-538 360,-538 360,4 -4,4"/>
<!-- Node1 -->
<g id="node1" class="node">
<title>Node1</title>
<g id="a_node1"><a xlink:title=" ">
<polygon fill="#bfbfbf" stroke="black" points="52,-0.5 52,-68.5 210,-68.5 210,-0.5 52,-0.5"/>
<text text-anchor="middle" x="131" y="-56.5" font-family="Helvetica,sans-Serif" font-size="10.00">EMC_JOINT_SET_FERROR</text>
<polyline fill="none" stroke="black" points="52,-49.5 210,-49.5 "/>
<text text-anchor="middle" x="131" y="-37.5" font-family="Helvetica,sans-Serif" font-size="10.00"> </text>
<polyline fill="none" stroke="black" points="52,-30.5 210,-30.5 "/>
<text text-anchor="start" x="60" y="-18.5" font-family="Helvetica,sans-Serif" font-size="10.00">+ EMC_JOINT_SET_FERROR()</text>
<text text-anchor="start" x="60" y="-7.5" font-family="Helvetica,sans-Serif" font-size="10.00">+ update()</text>
</a>
</g>
</g>
<!-- Node2 -->
<g id="node2" class="node">
<title>Node2</title>
<g id="a_node2"><a xlink:href="classEMC__JOINT__CMD__MSG.html" target="_top" xlink:title=" ">
<polygon fill="white" stroke="black" points="0,-116.5 0,-184.5 146,-184.5 146,-116.5 0,-116.5"/>
<text text-anchor="middle" x="73" y="-172.5" font-family="Helvetica,sans-Serif" font-size="10.00">EMC_JOINT_CMD_MSG</text>
<polyline fill="none" stroke="black" points="0,-165.5 146,-165.5 "/>
<text text-anchor="middle" x="73" y="-153.5" font-family="Helvetica,sans-Serif" font-size="10.00"> </text>
<polyline fill="none" stroke="black" points="0,-146.5 146,-146.5 "/>
<text text-anchor="start" x="8" y="-134.5" font-family="Helvetica,sans-Serif" font-size="10.00">+ EMC_JOINT_CMD_MSG()</text>
<text text-anchor="start" x="8" y="-123.5" font-family="Helvetica,sans-Serif" font-size="10.00">+ update()</text>
</a>
</g>
</g>
<!-- Node2&#45;&gt;Node1 -->
<g id="edge1" class="edge">
<title>Node2&#45;&gt;Node1</title>
<path fill="none" stroke="midnightblue" d="M94.53,-107.18C101.01,-94.45 108.02,-80.67 114.15,-68.62"/>
<polygon fill="none" stroke="midnightblue" points="91.35,-105.72 89.93,-116.22 97.59,-108.89 91.35,-105.72"/>
</g>
<!-- Node3 -->
<g id="node3" class="node">
<title>Node3</title>
<g id="a_node3"><a xlink:href="classRCS__CMD__MSG.html" target="_top" xlink:title=" ">
<polygon fill="white" stroke="black" points="89.5,-222.5 89.5,-279.5 200.5,-279.5 200.5,-222.5 89.5,-222.5"/>
<text text-anchor="middle" x="145" y="-267.5" font-family="Helvetica,sans-Serif" font-size="10.00">RCS_CMD_MSG</text>
<polyline fill="none" stroke="black" points="89.5,-260.5 200.5,-260.5 "/>
<text text-anchor="middle" x="145" y="-248.5" font-family="Helvetica,sans-Serif" font-size="10.00"> </text>
<polyline fill="none" stroke="black" points="89.5,-241.5 200.5,-241.5 "/>
<text text-anchor="start" x="97.5" y="-229.5" font-family="Helvetica,sans-Serif" font-size="10.00">+ RCS_CMD_MSG()</text>
</a>
</g>
</g>
<!-- Node3&#45;&gt;Node2 -->
<g id="edge2" class="edge">
<title>Node3&#45;&gt;Node2</title>
<path fill="none" stroke="midnightblue" d="M118.73,-214.06C111.69,-204.42 104.1,-194.05 97.18,-184.58"/>
<polygon fill="none" stroke="midnightblue" points="116.03,-216.29 124.75,-222.3 121.68,-212.16 116.03,-216.29"/>
</g>
<!-- Node4 -->
<g id="node4" class="node">
<title>Node4</title>
<g id="a_node4"><a xlink:href="classNMLmsg.html" target="_top" xlink:title=" ">
<polygon fill="white" stroke="black" points="223,-327.5 223,-428.5 301,-428.5 301,-327.5 223,-327.5"/>
<text text-anchor="middle" x="262" y="-416.5" font-family="Helvetica,sans-Serif" font-size="10.00">NMLmsg</text>
<polyline fill="none" stroke="black" points="223,-409.5 301,-409.5 "/>
<text text-anchor="middle" x="262" y="-397.5" font-family="Helvetica,sans-Serif" font-size="10.00"> </text>
<polyline fill="none" stroke="black" points="223,-390.5 301,-390.5 "/>
<text text-anchor="start" x="231" y="-378.5" font-family="Helvetica,sans-Serif" font-size="10.00">+ clear()</text>
<text text-anchor="start" x="231" y="-367.5" font-family="Helvetica,sans-Serif" font-size="10.00">+ update()</text>
<text text-anchor="start" x="231" y="-356.5" font-family="Helvetica,sans-Serif" font-size="10.00"># NMLmsg()</text>
<text text-anchor="start" x="231" y="-345.5" font-family="Helvetica,sans-Serif" font-size="10.00"># NMLmsg()</text>
<text text-anchor="start" x="231" y="-334.5" font-family="Helvetica,sans-Serif" font-size="10.00"># NMLmsg()</text>
</a>
</g>
</g>
<!-- Node4&#45;&gt;Node3 -->
<g id="edge3" class="edge">
<title>Node4&#45;&gt;Node3</title>
<path fill="none" stroke="midnightblue" d="M215.78,-327.62C200.46,-311.25 183.96,-293.63 170.76,-279.52"/>
<polygon fill="none" stroke="midnightblue" points="213.33,-330.12 222.72,-335.03 218.44,-325.34 213.33,-330.12"/>
</g>
<!-- Node5 -->
<g id="node5" class="node">
<title>Node5</title>
<g id="a_node5"><a xlink:title=" ">
<polygon fill="white" stroke="black" points="95.5,-476.5 95.5,-533.5 124.5,-533.5 124.5,-476.5 95.5,-476.5"/>
<text text-anchor="middle" x="110" y="-521.5" font-family="Helvetica,sans-Serif" font-size="10.00">int</text>
<polyline fill="none" stroke="black" points="95.5,-514.5 124.5,-514.5 "/>
<text text-anchor="middle" x="110" y="-502.5" font-family="Helvetica,sans-Serif" font-size="10.00"> </text>
<polyline fill="none" stroke="black" points="95.5,-495.5 124.5,-495.5 "/>
<text text-anchor="middle" x="110" y="-483.5" font-family="Helvetica,sans-Serif" font-size="10.00"> </text>
</a>
</g>
</g>
<!-- Node5&#45;&gt;Node2 -->
<g id="edge8" class="edge">
<title>Node5&#45;&gt;Node2</title>
<path fill="none" stroke="#404040" d="M105.61,-476.49C99.03,-434.32 86.69,-351.1 80,-280 77.41,-252.44 75.69,-221.46 74.6,-196.82"/>
<polygon fill="none" stroke="#404040" points="74.59,-196.56 70.34,-190.73 74.09,-184.57 78.33,-190.39 74.59,-196.56"/>
<text text-anchor="middle" x="100" y="-301" font-family="Helvetica,sans-Serif" font-size="10.00"> +joint</text>
</g>
<!-- Node5&#45;&gt;Node3 -->
<g id="edge7" class="edge">
<title>Node5&#45;&gt;Node3</title>
<path fill="none" stroke="#404040" d="M113.02,-476.35C116.93,-441.47 124.16,-379.68 132,-327 133.71,-315.48 135.79,-303.01 137.77,-291.6"/>
<polygon fill="none" stroke="#404040" points="137.78,-291.55 134.88,-284.94 139.87,-279.73 142.76,-286.33 137.78,-291.55"/>
<text text-anchor="middle" x="173" y="-375.5" font-family="Helvetica,sans-Serif" font-size="10.00"> +serial_number</text>
</g>
<!-- Node5&#45;&gt;Node4 -->
<g id="edge4" class="edge">
<title>Node5&#45;&gt;Node4</title>
<path fill="none" stroke="#404040" d="M124.52,-481.29C132.7,-469.87 143.72,-456.48 156,-447 171.43,-435.09 179.24,-438.95 196,-429 201.64,-425.65 207.37,-421.91 212.97,-418.02"/>
<polygon fill="none" stroke="#404040" points="213.12,-417.91 215.67,-411.16 222.87,-410.91 220.33,-417.66 213.12,-417.91"/>
<text text-anchor="middle" x="210.5" y="-450" font-family="Helvetica,sans-Serif" font-size="10.00"> +automatically_clear</text>
</g>
<!-- Node6 -->
<g id="node6" class="node">
<title>Node6</title>
<g id="a_node6"><a xlink:title=" ">
<polygon fill="white" stroke="black" points="250,-476.5 250,-533.5 300,-533.5 300,-476.5 250,-476.5"/>
<text text-anchor="middle" x="275" y="-521.5" font-family="Helvetica,sans-Serif" font-size="10.00">int32_t</text>
<polyline fill="none" stroke="black" points="250,-514.5 300,-514.5 "/>
<text text-anchor="middle" x="275" y="-502.5" font-family="Helvetica,sans-Serif" font-size="10.00"> </text>
<polyline fill="none" stroke="black" points="250,-495.5 300,-495.5 "/>
<text text-anchor="middle" x="275" y="-483.5" font-family="Helvetica,sans-Serif" font-size="10.00"> </text>
</a>
</g>
</g>
<!-- Node6&#45;&gt;Node4 -->
<g id="edge5" class="edge">
<title>Node6&#45;&gt;Node4</title>
<path fill="none" stroke="#404040" d="M272.11,-476.26C271.03,-465.79 269.74,-453.42 268.46,-441.07"/>
<polygon fill="none" stroke="#404040" points="268.42,-440.74 263.82,-435.18 267.18,-428.8 271.78,-434.36 268.42,-440.74"/>
<text text-anchor="middle" x="287" y="-450" font-family="Helvetica,sans-Serif" font-size="10.00"> +type</text>
</g>
<!-- Node7 -->
<g id="node7" class="node">
<title>Node7</title>
<g id="a_node7"><a xlink:title=" ">
<polygon fill="white" stroke="black" points="318,-476.5 318,-533.5 356,-533.5 356,-476.5 318,-476.5"/>
<text text-anchor="middle" x="337" y="-521.5" font-family="Helvetica,sans-Serif" font-size="10.00">long</text>
<polyline fill="none" stroke="black" points="318,-514.5 356,-514.5 "/>
<text text-anchor="middle" x="337" y="-502.5" font-family="Helvetica,sans-Serif" font-size="10.00"> </text>
<polyline fill="none" stroke="black" points="318,-495.5 356,-495.5 "/>
<text text-anchor="middle" x="337" y="-483.5" font-family="Helvetica,sans-Serif" font-size="10.00"> </text>
</a>
</g>
</g>
<!-- Node7&#45;&gt;Node4 -->
<g id="edge6" class="edge">
<title>Node7&#45;&gt;Node4</title>
<path fill="none" stroke="#404040" d="M323.81,-476.38C319.07,-466.92 313.53,-456.37 308,-447 306.45,-444.37 304.83,-441.7 303.18,-439.02"/>
<polygon fill="none" stroke="#404040" points="303.05,-438.82 296.46,-435.89 296.63,-428.68 303.22,-431.61 303.05,-438.82"/>
<text text-anchor="middle" x="329.5" y="-450" font-family="Helvetica,sans-Serif" font-size="10.00"> +size</text>
</g>
<!-- Node8 -->
<g id="node8" class="node">
<title>Node8</title>
<g id="a_node8"><a xlink:title=" ">
<polygon fill="white" stroke="black" points="164,-122 164,-179 214,-179 214,-122 164,-122"/>
<text text-anchor="middle" x="189" y="-167" font-family="Helvetica,sans-Serif" font-size="10.00">double</text>
<polyline fill="none" stroke="black" points="164,-160 214,-160 "/>
<text text-anchor="middle" x="189" y="-148" font-family="Helvetica,sans-Serif" font-size="10.00"> </text>
<polyline fill="none" stroke="black" points="164,-141 214,-141 "/>
<text text-anchor="middle" x="189" y="-129" font-family="Helvetica,sans-Serif" font-size="10.00"> </text>
</a>
</g>
</g>
<!-- Node8&#45;&gt;Node1 -->
<g id="edge9" class="edge">
<title>Node8&#45;&gt;Node1</title>
<path fill="none" stroke="#404040" d="M174.96,-121.9C168.51,-109.22 160.69,-93.85 153.45,-79.62"/>
<polygon fill="none" stroke="#404040" points="153.24,-79.22 146.96,-75.68 147.8,-68.52 154.09,-72.06 153.24,-79.22"/>
<text text-anchor="middle" x="180.5" y="-90" font-family="Helvetica,sans-Serif" font-size="10.00"> +ferror</text>
</g>
</g>
</svg>
        <g id="navigator" transform="translate(0 0)" fill="#404254">
                <rect fill="#f2f5e9" fill-opacity="0.5" stroke="#606060" stroke-width=".5" x="0" y="0" width="60" height="60"/>
                <use id="zoomplus" xlink:href="#zoomPlus" x="17" y="9" onmousedown="handleZoom(evt,'in')"/>
                <use id="zoomminus" xlink:href="#zoomMin" x="42" y="9" onmousedown="handleZoom(evt,'out')"/>
                <use id="reset" xlink:href="#resetDef" x="30" y="36" onmousedown="handleReset()"/>
                <g id="arrowUp" xlink:href="#dirArrow" transform="translate(30 24)" onmousedown="handlePan(0,-1)">
                  <use xlink:href="#rim" fill="#404040">
                        <set attributeName="fill" to="#808080" begin="arrowUp.mouseover" end="arrowUp.mouseout"/>
                  </use>
                  <path fill="none" stroke="white" stroke-width="1.5" d="M0,-3.0v7 M-2.5,-0.5L0,-3.0L2.5,-0.5"/>
                </g>
                <g id="arrowRight" xlink:href="#dirArrow" transform="rotate(90) translate(36 -43)" onmousedown="handlePan(1,0)">
                  <use xlink:href="#rim" fill="#404040">
                        <set attributeName="fill" to="#808080" begin="arrowRight.mouseover" end="arrowRight.mouseout"/>
                  </use>
                  <path fill="none" stroke="white" stroke-width="1.5" d="M0,-3.0v7 M-2.5,-0.5L0,-3.0L2.5,-0.5"/>
                </g>
                <g id="arrowDown" xlink:href="#dirArrow" transform="rotate(180) translate(-30 -48)" onmousedown="handlePan(0,1)">
                  <use xlink:href="#rim" fill="#404040">
                        <set attributeName="fill" to="#808080" begin="arrowDown.mouseover" end="arrowDown.mouseout"/>
                  </use>
                  <path fill="none" stroke="white" stroke-width="1.5" d="M0,-3.0v7 M-2.5,-0.5L0,-3.0L2.5,-0.5"/>
                </g>
                <g id="arrowLeft" xlink:href="#dirArrow" transform="rotate(270) translate(-36 17)" onmousedown="handlePan(-1,0)">
                  <use xlink:href="#rim" fill="#404040">
                        <set attributeName="fill" to="#808080" begin="arrowLeft.mouseover" end="arrowLeft.mouseout"/>
                  </use>
                  <path fill="none" stroke="white" stroke-width="1.5" d="M0,-3.0v7 M-2.5,-0.5L0,-3.0L2.5,-0.5"/>
                </g>
        </g>
        <svg viewBox="0 0 15 15" width="100%" height="30px" preserveAspectRatio="xMaxYMin meet">
         <g id="arrow_out" transform="scale(0.3 0.3)">
          <a xlink:href="classEMC__JOINT__SET__FERROR__coll__graph_org.svg" target="_base">
           <rect id="button" ry="5" rx="5" y="6" x="6" height="38" width="38"
                fill="#f2f5e9" fill-opacity="0.5" stroke="#606060" stroke-width="1.0"/>
           <path id="arrow"
             d="M 11.500037,31.436501 C 11.940474,20.09759 22.043105,11.32322 32.158766,21.979434 L 37.068811,17.246167 C 37.068811,17.246167 37.088388,32 37.088388,32 L 22.160133,31.978069 C 22.160133,31.978069 26.997745,27.140456 26.997745,27.140456 C 18.528582,18.264221 13.291696,25.230495 11.500037,31.436501 z"
             style="fill:#404040;"/>
          </a>
         </g>
        </svg>
</svg>
