<?xml version="1.0" encoding="UTF-8" standalone="no"?>
<!DOCTYPE svg PUBLIC "-//W3C//DTD SVG 1.1//EN"
 "http://www.w3.org/Graphics/SVG/1.1/DTD/svg11.dtd">
<!-- Generated by graphviz version 2.43.0 (0)
 -->
<!-- Title: EMC_SPINDLE_BRAKE_RELEASE Pages: 1 -->
<svg width="394pt" height="543pt"
 viewBox="0.00 0.00 394.00 543.00" xmlns="http://www.w3.org/2000/svg" xmlns:xlink="http://www.w3.org/1999/xlink">
<g id="graph0" class="graph" transform="scale(1 1) rotate(0) translate(4 539)">
<title>EMC_SPINDLE_BRAKE_RELEASE</title>
<polygon fill="white" stroke="transparent" points="-4,4 -4,-539 390,-539 390,4 -4,4"/>
<!-- Node1 -->
<g id="node1" class="node">
<title>Node1</title>
<g id="a_node1"><a xlink:title=" ">
<polygon fill="#bfbfbf" stroke="black" points="0,-0.5 0,-68.5 190,-68.5 190,-0.5 0,-0.5"/>
<text text-anchor="middle" x="95" y="-56.5" font-family="Helvetica,sans-Serif" font-size="10.00">EMC_SPINDLE_BRAKE_RELEASE</text>
<polyline fill="none" stroke="black" points="0,-49.5 190,-49.5 "/>
<text text-anchor="middle" x="95" y="-37.5" font-family="Helvetica,sans-Serif" font-size="10.00"> </text>
<polyline fill="none" stroke="black" points="0,-30.5 190,-30.5 "/>
<text text-anchor="start" x="8" y="-18.5" font-family="Helvetica,sans-Serif" font-size="10.00">+ EMC_SPINDLE_BRAKE_RELEASE()</text>
<text text-anchor="start" x="8" y="-7.5" font-family="Helvetica,sans-Serif" font-size="10.00">+ update()</text>
</a>
</g>
</g>
<!-- Node2 -->
<g id="node2" class="node">
<title>Node2</title>
<g id="a_node2"><a xlink:href="classEMC__SPINDLE__CMD__MSG.html" target="_top" xlink:title=" ">
<polygon fill="white" stroke="black" points="90,-106.5 90,-174.5 250,-174.5 250,-106.5 90,-106.5"/>
<text text-anchor="middle" x="170" y="-162.5" font-family="Helvetica,sans-Serif" font-size="10.00">EMC_SPINDLE_CMD_MSG</text>
<polyline fill="none" stroke="black" points="90,-155.5 250,-155.5 "/>
<text text-anchor="middle" x="170" y="-143.5" font-family="Helvetica,sans-Serif" font-size="10.00"> </text>
<polyline fill="none" stroke="black" points="90,-136.5 250,-136.5 "/>
<text text-anchor="start" x="98" y="-124.5" font-family="Helvetica,sans-Serif" font-size="10.00">+ EMC_SPINDLE_CMD_MSG()</text>
<text text-anchor="start" x="98" y="-113.5" font-family="Helvetica,sans-Serif" font-size="10.00">+ update()</text>
</a>
</g>
</g>
<!-- Node2&#45;&gt;Node1 -->
<g id="edge1" class="edge">
<title>Node2&#45;&gt;Node1</title>
<path fill="none" stroke="midnightblue" d="M140.03,-97.94C133.03,-88.24 125.67,-78.02 118.97,-68.73"/>
<polygon fill="none" stroke="midnightblue" points="137.38,-100.24 146.06,-106.31 143.05,-96.15 137.38,-100.24"/>
</g>
<!-- Node3 -->
<g id="node3" class="node">
<title>Node3</title>
<g id="a_node3"><a xlink:href="classRCS__CMD__MSG.html" target="_top" xlink:title=" ">
<polygon fill="white" stroke="black" points="165.5,-212.5 165.5,-269.5 276.5,-269.5 276.5,-212.5 165.5,-212.5"/>
<text text-anchor="middle" x="221" y="-257.5" font-family="Helvetica,sans-Serif" font-size="10.00">RCS_CMD_MSG</text>
<polyline fill="none" stroke="black" points="165.5,-250.5 276.5,-250.5 "/>
<text text-anchor="middle" x="221" y="-238.5" font-family="Helvetica,sans-Serif" font-size="10.00"> </text>
<polyline fill="none" stroke="black" points="165.5,-231.5 276.5,-231.5 "/>
<text text-anchor="start" x="173.5" y="-219.5" font-family="Helvetica,sans-Serif" font-size="10.00">+ RCS_CMD_MSG()</text>
</a>
</g>
</g>
<!-- Node3&#45;&gt;Node2 -->
<g id="edge2" class="edge">
<title>Node3&#45;&gt;Node2</title>
<path fill="none" stroke="midnightblue" d="M201.94,-203.18C197.08,-193.8 191.88,-183.77 187.13,-174.58"/>
<polygon fill="none" stroke="midnightblue" points="198.95,-205.03 206.66,-212.3 205.17,-201.81 198.95,-205.03"/>
</g>
<!-- Node4 -->
<g id="node4" class="node">
<title>Node4</title>
<g id="a_node4"><a xlink:href="classNMLmsg.html" target="_top" xlink:title=" ">
<polygon fill="white" stroke="black" points="299,-317.5 299,-418.5 377,-418.5 377,-317.5 299,-317.5"/>
<text text-anchor="middle" x="338" y="-406.5" font-family="Helvetica,sans-Serif" font-size="10.00">NMLmsg</text>
<polyline fill="none" stroke="black" points="299,-399.5 377,-399.5 "/>
<text text-anchor="middle" x="338" y="-387.5" font-family="Helvetica,sans-Serif" font-size="10.00"> </text>
<polyline fill="none" stroke="black" points="299,-380.5 377,-380.5 "/>
<text text-anchor="start" x="307" y="-368.5" font-family="Helvetica,sans-Serif" font-size="10.00">+ clear()</text>
<text text-anchor="start" x="307" y="-357.5" font-family="Helvetica,sans-Serif" font-size="10.00">+ update()</text>
<text text-anchor="start" x="307" y="-346.5" font-family="Helvetica,sans-Serif" font-size="10.00"># NMLmsg()</text>
<text text-anchor="start" x="307" y="-335.5" font-family="Helvetica,sans-Serif" font-size="10.00"># NMLmsg()</text>
<text text-anchor="start" x="307" y="-324.5" font-family="Helvetica,sans-Serif" font-size="10.00"># NMLmsg()</text>
</a>
</g>
</g>
<!-- Node4&#45;&gt;Node3 -->
<g id="edge3" class="edge">
<title>Node4&#45;&gt;Node3</title>
<path fill="none" stroke="midnightblue" d="M291.78,-317.62C276.46,-301.25 259.96,-283.63 246.76,-269.52"/>
<polygon fill="none" stroke="midnightblue" points="289.33,-320.12 298.72,-325.03 294.44,-315.34 289.33,-320.12"/>
</g>
<!-- Node5 -->
<g id="node5" class="node">
<title>Node5</title>
<g id="a_node5"><a xlink:title=" ">
<polygon fill="white" stroke="black" points="153.5,-477.5 153.5,-534.5 182.5,-534.5 182.5,-477.5 153.5,-477.5"/>
<text text-anchor="middle" x="168" y="-522.5" font-family="Helvetica,sans-Serif" font-size="10.00">int</text>
<polyline fill="none" stroke="black" points="153.5,-515.5 182.5,-515.5 "/>
<text text-anchor="middle" x="168" y="-503.5" font-family="Helvetica,sans-Serif" font-size="10.00"> </text>
<polyline fill="none" stroke="black" points="153.5,-496.5 182.5,-496.5 "/>
<text text-anchor="middle" x="168" y="-484.5" font-family="Helvetica,sans-Serif" font-size="10.00"> </text>
</a>
</g>
</g>
<!-- Node5&#45;&gt;Node1 -->
<g id="edge8" class="edge">
<title>Node5&#45;&gt;Node1</title>
<path fill="none" stroke="#404040" d="M153.26,-495.76C124.14,-476.22 62,-427.67 62,-369 62,-369 62,-369 62,-139.5 62,-119.45 67.64,-98.21 74.25,-80.19"/>
<polygon fill="none" stroke="#404040" points="74.32,-80.02 72.78,-72.98 78.69,-68.85 80.23,-75.89 74.32,-80.02"/>
<text text-anchor="middle" x="85.5" y="-238.5" font-family="Helvetica,sans-Serif" font-size="10.00"> +spindle</text>
</g>
<!-- Node5&#45;&gt;Node2 -->
<g id="edge7" class="edge">
<title>Node5&#45;&gt;Node2</title>
<path fill="none" stroke="#404040" d="M164.33,-477.46C157.97,-425.45 146.43,-309.28 156,-212 156.81,-203.74 158.15,-195.01 159.68,-186.62"/>
<polygon fill="none" stroke="#404040" points="159.72,-186.43 156.95,-179.77 162.03,-174.65 164.8,-181.31 159.72,-186.43"/>
<text text-anchor="middle" x="176.5" y="-291" font-family="Helvetica,sans-Serif" font-size="10.00"> +spindle</text>
</g>
<!-- Node5&#45;&gt;Node3 -->
<g id="edge6" class="edge">
<title>Node5&#45;&gt;Node3</title>
<path fill="none" stroke="#404040" d="M173.57,-477.35C183.02,-430.49 202.19,-335.32 213.05,-281.46"/>
<polygon fill="none" stroke="#404040" points="213.05,-281.44 210.32,-274.76 215.42,-269.67 218.16,-276.34 213.05,-281.44"/>
<text text-anchor="middle" x="247" y="-365.5" font-family="Helvetica,sans-Serif" font-size="10.00"> +serial_number</text>
</g>
<!-- Node5&#45;&gt;Node4 -->
<g id="edge4" class="edge">
<title>Node5&#45;&gt;Node4</title>
<path fill="none" stroke="#404040" d="M182.58,-489.45C199.29,-471.87 225.93,-444.71 238,-437 256.85,-424.96 266.06,-430.9 285,-419 286.33,-418.17 287.65,-417.3 288.96,-416.4"/>
<polygon fill="none" stroke="#404040" points="289.25,-416.18 291.65,-409.38 298.85,-408.98 296.45,-415.78 289.25,-416.18"/>
<text text-anchor="middle" x="292.5" y="-451" font-family="Helvetica,sans-Serif" font-size="10.00"> +automatically_clear</text>
<text text-anchor="middle" x="292.5" y="-440" font-family="Helvetica,sans-Serif" font-size="10.00">+type</text>
</g>
<!-- Node6 -->
<g id="node6" class="node">
<title>Node6</title>
<g id="a_node6"><a xlink:title=" ">
<polygon fill="white" stroke="black" points="345,-477.5 345,-534.5 383,-534.5 383,-477.5 345,-477.5"/>
<text text-anchor="middle" x="364" y="-522.5" font-family="Helvetica,sans-Serif" font-size="10.00">long</text>
<polyline fill="none" stroke="black" points="345,-515.5 383,-515.5 "/>
<text text-anchor="middle" x="364" y="-503.5" font-family="Helvetica,sans-Serif" font-size="10.00"> </text>
<polyline fill="none" stroke="black" points="345,-496.5 383,-496.5 "/>
<text text-anchor="middle" x="364" y="-484.5" font-family="Helvetica,sans-Serif" font-size="10.00"> </text>
</a>
</g>
</g>
<!-- Node6&#45;&gt;Node4 -->
<g id="edge5" class="edge">
<title>Node6&#45;&gt;Node4</title>
<path fill="none" stroke="#404040" d="M358.74,-477.48C356.15,-463.93 352.91,-447 349.77,-430.58"/>
<polygon fill="none" stroke="#404040" points="349.77,-430.55 344.71,-425.41 347.51,-418.76 352.57,-423.91 349.77,-430.55"/>
<text text-anchor="middle" x="370.5" y="-445.5" font-family="Helvetica,sans-Serif" font-size="10.00"> +size</text>
</g>
</g>
</svg>
