<?xml version="1.0" encoding="UTF-8" standalone="no"?>
<!DOCTYPE svg PUBLIC "-//W3C//DTD SVG 1.1//EN"
 "http://www.w3.org/Graphics/SVG/1.1/DTD/svg11.dtd">
<!-- Generated by graphviz version 2.43.0 (0)
 -->
<!-- Title: EMC_SYSTEM_CMD Pages: 1 -->
<svg width="138pt" height="331pt"
 viewBox="0.00 0.00 138.00 331.00" xmlns="http://www.w3.org/2000/svg" xmlns:xlink="http://www.w3.org/1999/xlink">
<g id="graph0" class="graph" transform="scale(1 1) rotate(0) translate(4 327)">
<title>EMC_SYSTEM_CMD</title>
<polygon fill="white" stroke="transparent" points="-4,4 -4,-327 134,-327 134,4 -4,4"/>
<!-- Node1 -->
<g id="node1" class="node">
<title>Node1</title>
<g id="a_node1"><a xlink:title=" ">
<polygon fill="#bfbfbf" stroke="black" points="0,-0.5 0,-68.5 130,-68.5 130,-0.5 0,-0.5"/>
<text text-anchor="middle" x="65" y="-56.5" font-family="Helvetica,sans-Serif" font-size="10.00">EMC_SYSTEM_CMD</text>
<polyline fill="none" stroke="black" points="0,-49.5 130,-49.5 "/>
<text text-anchor="start" x="8" y="-37.5" font-family="Helvetica,sans-Serif" font-size="10.00">+ string</text>
<polyline fill="none" stroke="black" points="0,-30.5 130,-30.5 "/>
<text text-anchor="start" x="8" y="-18.5" font-family="Helvetica,sans-Serif" font-size="10.00">+ EMC_SYSTEM_CMD()</text>
<text text-anchor="start" x="8" y="-7.5" font-family="Helvetica,sans-Serif" font-size="10.00">+ update()</text>
</a>
</g>
</g>
<!-- Node2 -->
<g id="node2" class="node">
<title>Node2</title>
<g id="a_node2"><a xlink:href="classRCS__CMD__MSG.html" target="_top" xlink:title=" ">
<polygon fill="white" stroke="black" points="9.5,-105.5 9.5,-162.5 120.5,-162.5 120.5,-105.5 9.5,-105.5"/>
<text text-anchor="middle" x="65" y="-150.5" font-family="Helvetica,sans-Serif" font-size="10.00">RCS_CMD_MSG</text>
<polyline fill="none" stroke="black" points="9.5,-143.5 120.5,-143.5 "/>
<text text-anchor="start" x="17.5" y="-131.5" font-family="Helvetica,sans-Serif" font-size="10.00">+ serial_number</text>
<polyline fill="none" stroke="black" points="9.5,-124.5 120.5,-124.5 "/>
<text text-anchor="start" x="17.5" y="-112.5" font-family="Helvetica,sans-Serif" font-size="10.00">+ RCS_CMD_MSG()</text>
</a>
</g>
</g>
<!-- Node2&#45;&gt;Node1 -->
<g id="edge1" class="edge">
<title>Node2&#45;&gt;Node1</title>
<path fill="none" stroke="midnightblue" d="M65,-95.06C65,-86.39 65,-77.24 65,-68.79"/>
<polygon fill="none" stroke="midnightblue" points="61.5,-95.32 65,-105.32 68.5,-95.32 61.5,-95.32"/>
</g>
<!-- Node3 -->
<g id="node3" class="node">
<title>Node3</title>
<g id="a_node3"><a xlink:href="classNMLmsg.html" target="_top" xlink:title=" ">
<polygon fill="white" stroke="black" points="2.5,-199.5 2.5,-322.5 127.5,-322.5 127.5,-199.5 2.5,-199.5"/>
<text text-anchor="middle" x="65" y="-310.5" font-family="Helvetica,sans-Serif" font-size="10.00">NMLmsg</text>
<polyline fill="none" stroke="black" points="2.5,-303.5 127.5,-303.5 "/>
<text text-anchor="start" x="10.5" y="-291.5" font-family="Helvetica,sans-Serif" font-size="10.00">+ type</text>
<text text-anchor="start" x="10.5" y="-280.5" font-family="Helvetica,sans-Serif" font-size="10.00">+ size</text>
<text text-anchor="start" x="10.5" y="-269.5" font-family="Helvetica,sans-Serif" font-size="10.00">+ automatically_clear</text>
<polyline fill="none" stroke="black" points="2.5,-262.5 127.5,-262.5 "/>
<text text-anchor="start" x="10.5" y="-250.5" font-family="Helvetica,sans-Serif" font-size="10.00">+ clear()</text>
<text text-anchor="start" x="10.5" y="-239.5" font-family="Helvetica,sans-Serif" font-size="10.00">+ update()</text>
<text text-anchor="start" x="10.5" y="-228.5" font-family="Helvetica,sans-Serif" font-size="10.00"># NMLmsg()</text>
<text text-anchor="start" x="10.5" y="-217.5" font-family="Helvetica,sans-Serif" font-size="10.00"># NMLmsg()</text>
<text text-anchor="start" x="10.5" y="-206.5" font-family="Helvetica,sans-Serif" font-size="10.00"># NMLmsg()</text>
</a>
</g>
</g>
<!-- Node3&#45;&gt;Node2 -->
<g id="edge2" class="edge">
<title>Node3&#45;&gt;Node2</title>
<path fill="none" stroke="midnightblue" d="M65,-189.14C65,-179.8 65,-170.71 65,-162.74"/>
<polygon fill="none" stroke="midnightblue" points="61.5,-189.33 65,-199.33 68.5,-189.33 61.5,-189.33"/>
</g>
</g>
</svg>
