<?xml version="1.0" encoding="UTF-8" standalone="no"?>
<!DOCTYPE svg PUBLIC "-//W3C//DTD SVG 1.1//EN"
 "http://www.w3.org/Graphics/SVG/1.1/DTD/svg11.dtd">
<!-- Generated by graphviz version 2.43.0 (0)
 -->
<!-- Title: EMC_JOINT_STAT Pages: 1 -->
<!--zoomable 783 -->
<svg id="main" version="1.1" xmlns="http://www.w3.org/2000/svg" xmlns:xlink="http://www.w3.org/1999/xlink" xml:space="preserve" onload="init(evt)">
<style type="text/css"><![CDATA[
.edge:hover path { stroke: red; }
.edge:hover polygon { stroke: red; fill: red; }
]]></style>
<script type="text/javascript"><![CDATA[
var edges = document.getElementsByTagName('g');
if (edges && edges.length) {
  for (var i=0;i<edges.length;i++) {
    if (edges[i].id.substr(0,4)=='edge') {
      edges[i].setAttribute('class','edge');
    }
  }
}
]]></script>
        <defs>
                <circle id="rim" cx="0" cy="0" r="7"/>
                <circle id="rim2" cx="0" cy="0" r="3.5"/>
                <g id="zoomPlus">
                        <use xlink:href="#rim" fill="#404040">
                                <set attributeName="fill" to="#808080" begin="zoomplus.mouseover" end="zoomplus.mouseout"/>
                        </use>
                        <path d="M-4,0h8M0,-4v8" fill="none" stroke="white" stroke-width="1.5" pointer-events="none"/>
                </g>
                <g id="zoomMin">
                        <use xlink:href="#rim" fill="#404040">
                                <set attributeName="fill" to="#808080" begin="zoomminus.mouseover" end="zoomminus.mouseout"/>
                        </use>
                        <path d="M-4,0h8" fill="none" stroke="white" stroke-width="1.5" pointer-events="none"/>
                </g>
                <g id="dirArrow">
                        <path fill="none" stroke="white" stroke-width="1.5" d="M0,-3.0v7 M-2.5,-0.5L0,-3.0L2.5,-0.5"/>
                </g>
               <g id="resetDef">
                       <use xlink:href="#rim2" fill="#404040">
                               <set attributeName="fill" to="#808080" begin="reset.mouseover" end="reset.mouseout"/>
                       </use>
               </g>
        </defs>

<script type="text/javascript">
var viewWidth = 510;
var viewHeight = 783;
var sectionId = 'dynsection-1';
</script>
<script xlink:href="svgpan.js"/>
<svg id="graph" class="graph">
<g id="viewport">
<title>EMC_JOINT_STAT</title>
<polygon fill="white" stroke="transparent" points="-4,4 -4,-779 506,-779 506,4 -4,4"/>
<!-- Node1 -->
<g id="node1" class="node">
<title>Node1</title>
<g id="a_node1"><a xlink:title=" ">
<polygon fill="#bfbfbf" stroke="black" points="97,-0.5 97,-79.5 215,-79.5 215,-0.5 97,-0.5"/>
<text text-anchor="middle" x="156" y="-67.5" font-family="Helvetica,sans-Serif" font-size="10.00">EMC_JOINT_STAT</text>
<polyline fill="none" stroke="black" points="97,-60.5 215,-60.5 "/>
<text text-anchor="start" x="105" y="-48.5" font-family="Helvetica,sans-Serif" font-size="10.00">+ velocity</text>
<text text-anchor="start" x="105" y="-37.5" font-family="Helvetica,sans-Serif" font-size="10.00">+ overrideLimits</text>
<polyline fill="none" stroke="black" points="97,-30.5 215,-30.5 "/>
<text text-anchor="start" x="105" y="-18.5" font-family="Helvetica,sans-Serif" font-size="10.00">+ EMC_JOINT_STAT()</text>
<text text-anchor="start" x="105" y="-7.5" font-family="Helvetica,sans-Serif" font-size="10.00">+ update()</text>
</a>
</g>
</g>
<!-- Node2 -->
<g id="node2" class="node">
<title>Node2</title>
<g id="a_node2"><a xlink:href="classEMC__JOINT__STAT__MSG.html" target="_top" xlink:title=" ">
<polygon fill="white" stroke="black" points="83,-237.5 83,-305.5 229,-305.5 229,-237.5 83,-237.5"/>
<text text-anchor="middle" x="156" y="-293.5" font-family="Helvetica,sans-Serif" font-size="10.00">EMC_JOINT_STAT_MSG</text>
<polyline fill="none" stroke="black" points="83,-286.5 229,-286.5 "/>
<text text-anchor="middle" x="156" y="-274.5" font-family="Helvetica,sans-Serif" font-size="10.00"> </text>
<polyline fill="none" stroke="black" points="83,-267.5 229,-267.5 "/>
<text text-anchor="start" x="91" y="-255.5" font-family="Helvetica,sans-Serif" font-size="10.00">+ EMC_JOINT_STAT_MSG()</text>
<text text-anchor="start" x="91" y="-244.5" font-family="Helvetica,sans-Serif" font-size="10.00">+ update()</text>
</a>
</g>
</g>
<!-- Node2&#45;&gt;Node1 -->
<g id="edge1" class="edge">
<title>Node2&#45;&gt;Node1</title>
<path fill="none" stroke="midnightblue" d="M156,-227.09C156,-184.64 156,-120.58 156,-79.79"/>
<polygon fill="none" stroke="midnightblue" points="152.5,-227.13 156,-237.13 159.5,-227.13 152.5,-227.13"/>
</g>
<!-- Node3 -->
<g id="node3" class="node">
<title>Node3</title>
<g id="a_node3"><a xlink:href="classRCS__STAT__MSG.html" target="_top" xlink:title=" ">
<polygon fill="white" stroke="black" points="100.5,-463.5 100.5,-520.5 211.5,-520.5 211.5,-463.5 100.5,-463.5"/>
<text text-anchor="middle" x="156" y="-508.5" font-family="Helvetica,sans-Serif" font-size="10.00">RCS_STAT_MSG</text>
<polyline fill="none" stroke="black" points="100.5,-501.5 211.5,-501.5 "/>
<text text-anchor="middle" x="156" y="-489.5" font-family="Helvetica,sans-Serif" font-size="10.00"> </text>
<polyline fill="none" stroke="black" points="100.5,-482.5 211.5,-482.5 "/>
<text text-anchor="start" x="108.5" y="-470.5" font-family="Helvetica,sans-Serif" font-size="10.00">+ RCS_STAT_MSG()</text>
</a>
</g>
</g>
<!-- Node3&#45;&gt;Node2 -->
<g id="edge2" class="edge">
<title>Node3&#45;&gt;Node2</title>
<path fill="none" stroke="midnightblue" d="M156,-453.31C156,-411.7 156,-345.35 156,-305.65"/>
<polygon fill="none" stroke="midnightblue" points="152.5,-453.33 156,-463.33 159.5,-453.33 152.5,-453.33"/>
</g>
<!-- Node4 -->
<g id="node4" class="node">
<title>Node4</title>
<g id="a_node4"><a xlink:href="classNMLmsg.html" target="_top" xlink:title=" ">
<polygon fill="white" stroke="black" points="220,-568.5 220,-669.5 298,-669.5 298,-568.5 220,-568.5"/>
<text text-anchor="middle" x="259" y="-657.5" font-family="Helvetica,sans-Serif" font-size="10.00">NMLmsg</text>
<polyline fill="none" stroke="black" points="220,-650.5 298,-650.5 "/>
<text text-anchor="middle" x="259" y="-638.5" font-family="Helvetica,sans-Serif" font-size="10.00"> </text>
<polyline fill="none" stroke="black" points="220,-631.5 298,-631.5 "/>
<text text-anchor="start" x="228" y="-619.5" font-family="Helvetica,sans-Serif" font-size="10.00">+ clear()</text>
<text text-anchor="start" x="228" y="-608.5" font-family="Helvetica,sans-Serif" font-size="10.00">+ update()</text>
<text text-anchor="start" x="228" y="-597.5" font-family="Helvetica,sans-Serif" font-size="10.00"># NMLmsg()</text>
<text text-anchor="start" x="228" y="-586.5" font-family="Helvetica,sans-Serif" font-size="10.00"># NMLmsg()</text>
<text text-anchor="start" x="228" y="-575.5" font-family="Helvetica,sans-Serif" font-size="10.00"># NMLmsg()</text>
</a>
</g>
</g>
<!-- Node4&#45;&gt;Node3 -->
<g id="edge3" class="edge">
<title>Node4&#45;&gt;Node3</title>
<path fill="none" stroke="midnightblue" d="M213.19,-562.4C201.24,-547.9 188.88,-532.9 178.72,-520.57"/>
<polygon fill="none" stroke="midnightblue" points="210.71,-564.89 219.77,-570.39 216.11,-560.44 210.71,-564.89"/>
</g>
<!-- Node5 -->
<g id="node5" class="node">
<title>Node5</title>
<g id="a_node5"><a xlink:title=" ">
<polygon fill="white" stroke="black" points="367.5,-717.5 367.5,-774.5 396.5,-774.5 396.5,-717.5 367.5,-717.5"/>
<text text-anchor="middle" x="382" y="-762.5" font-family="Helvetica,sans-Serif" font-size="10.00">int</text>
<polyline fill="none" stroke="black" points="367.5,-755.5 396.5,-755.5 "/>
<text text-anchor="middle" x="382" y="-743.5" font-family="Helvetica,sans-Serif" font-size="10.00"> </text>
<polyline fill="none" stroke="black" points="367.5,-736.5 396.5,-736.5 "/>
<text text-anchor="middle" x="382" y="-724.5" font-family="Helvetica,sans-Serif" font-size="10.00"> </text>
</a>
</g>
</g>
<!-- Node5&#45;&gt;Node2 -->
<g id="edge10" class="edge">
<title>Node5&#45;&gt;Node2</title>
<path fill="none" stroke="#404040" d="M396.83,-738.67C419.27,-728.16 461.03,-704.79 478,-670 497.87,-629.25 496.24,-609.5 478,-568 426.72,-451.33 304.12,-360.56 225.86,-311.92"/>
<polygon fill="none" stroke="#404040" points="225.83,-311.89 218.62,-312.17 215.6,-305.62 222.81,-305.35 225.83,-311.89"/>
<text text-anchor="middle" x="485" y="-542" font-family="Helvetica,sans-Serif" font-size="10.00"> +joint</text>
</g>
<!-- Node5&#45;&gt;Node3 -->
<g id="edge8" class="edge">
<title>Node5&#45;&gt;Node3</title>
<path fill="none" stroke="#404040" d="M377.11,-717.36C368.98,-679.05 349.2,-609.81 307,-568 283.5,-544.72 251.33,-527.38 222.72,-515.27"/>
<polygon fill="none" stroke="#404040" points="222.65,-515.24 215.59,-516.69 211.54,-510.72 218.6,-509.28 222.65,-515.24"/>
<text text-anchor="middle" x="419" y="-638.5" font-family="Helvetica,sans-Serif" font-size="10.00"> +echo_serial_number</text>
<text text-anchor="middle" x="419" y="-627.5" font-family="Helvetica,sans-Serif" font-size="10.00">+line</text>
<text text-anchor="middle" x="419" y="-616.5" font-family="Helvetica,sans-Serif" font-size="10.00">+source_line</text>
<text text-anchor="middle" x="419" y="-605.5" font-family="Helvetica,sans-Serif" font-size="10.00">+state</text>
<text text-anchor="middle" x="419" y="-594.5" font-family="Helvetica,sans-Serif" font-size="10.00">+status</text>
</g>
<!-- Node5&#45;&gt;Node4 -->
<g id="edge4" class="edge">
<title>Node5&#45;&gt;Node4</title>
<path fill="none" stroke="#404040" d="M367.46,-744.56C340.66,-742.86 283.95,-734.97 259,-699 255.38,-693.78 253.07,-687.86 251.71,-681.67"/>
<polygon fill="none" stroke="#404040" points="251.69,-681.45 246.97,-676 250.19,-669.54 254.91,-675 251.69,-681.45"/>
<text text-anchor="middle" x="313.5" y="-691" font-family="Helvetica,sans-Serif" font-size="10.00"> +automatically_clear</text>
</g>
<!-- Node6 -->
<g id="node6" class="node">
<title>Node6</title>
<g id="a_node6"><a xlink:title=" ">
<polygon fill="white" stroke="black" points="103,-717.5 103,-774.5 153,-774.5 153,-717.5 103,-717.5"/>
<text text-anchor="middle" x="128" y="-762.5" font-family="Helvetica,sans-Serif" font-size="10.00">int32_t</text>
<polyline fill="none" stroke="black" points="103,-755.5 153,-755.5 "/>
<text text-anchor="middle" x="128" y="-743.5" font-family="Helvetica,sans-Serif" font-size="10.00"> </text>
<polyline fill="none" stroke="black" points="103,-736.5 153,-736.5 "/>
<text text-anchor="middle" x="128" y="-724.5" font-family="Helvetica,sans-Serif" font-size="10.00"> </text>
</a>
</g>
</g>
<!-- Node6&#45;&gt;Node3 -->
<g id="edge7" class="edge">
<title>Node6&#45;&gt;Node3</title>
<path fill="none" stroke="#404040" d="M123.27,-717.35C118.15,-682.22 112.09,-619.89 123,-568 125.59,-555.68 130.33,-542.91 135.43,-531.48"/>
<polygon fill="none" stroke="#404040" points="135.46,-531.42 134.4,-524.29 140.58,-520.57 141.64,-527.7 135.46,-531.42"/>
<text text-anchor="middle" x="167" y="-616.5" font-family="Helvetica,sans-Serif" font-size="10.00"> +command_type</text>
</g>
<!-- Node6&#45;&gt;Node4 -->
<g id="edge5" class="edge">
<title>Node6&#45;&gt;Node4</title>
<path fill="none" stroke="#404040" d="M141.58,-717.27C147.64,-707.05 155.56,-696.02 165,-688 180.17,-675.11 189.41,-680.99 206,-670 207.31,-669.14 208.61,-668.24 209.91,-667.31"/>
<polygon fill="none" stroke="#404040" points="210.2,-667.08 212.51,-660.25 219.71,-659.75 217.4,-666.59 210.2,-667.08"/>
<text text-anchor="middle" x="182" y="-691" font-family="Helvetica,sans-Serif" font-size="10.00"> +type</text>
</g>
<!-- Node7 -->
<g id="node7" class="node">
<title>Node7</title>
<g id="a_node7"><a xlink:title=" ">
<polygon fill="white" stroke="black" points="185,-717.5 185,-774.5 223,-774.5 223,-717.5 185,-717.5"/>
<text text-anchor="middle" x="204" y="-762.5" font-family="Helvetica,sans-Serif" font-size="10.00">long</text>
<polyline fill="none" stroke="black" points="185,-755.5 223,-755.5 "/>
<text text-anchor="middle" x="204" y="-743.5" font-family="Helvetica,sans-Serif" font-size="10.00"> </text>
<polyline fill="none" stroke="black" points="185,-736.5 223,-736.5 "/>
<text text-anchor="middle" x="204" y="-724.5" font-family="Helvetica,sans-Serif" font-size="10.00"> </text>
</a>
</g>
</g>
<!-- Node7&#45;&gt;Node4 -->
<g id="edge6" class="edge">
<title>Node7&#45;&gt;Node4</title>
<path fill="none" stroke="#404040" d="M200.93,-717.39C200.79,-707.84 201.69,-697.22 205,-688 207.08,-682.21 209.87,-676.53 213.09,-671.08"/>
<polygon fill="none" stroke="#404040" points="213.17,-670.96 213.1,-663.75 219.74,-660.92 219.8,-668.13 213.17,-670.96"/>
<text text-anchor="middle" x="220.5" y="-691" font-family="Helvetica,sans-Serif" font-size="10.00"> +size</text>
</g>
<!-- Node8 -->
<g id="node8" class="node">
<title>Node8</title>
<g id="a_node8"><a xlink:title=" ">
<polygon fill="white" stroke="black" points="0,-590.5 0,-647.5 38,-647.5 38,-590.5 0,-590.5"/>
<text text-anchor="middle" x="19" y="-635.5" font-family="Helvetica,sans-Serif" font-size="10.00">char</text>
<polyline fill="none" stroke="black" points="0,-628.5 38,-628.5 "/>
<text text-anchor="middle" x="19" y="-616.5" font-family="Helvetica,sans-Serif" font-size="10.00"> </text>
<polyline fill="none" stroke="black" points="0,-609.5 38,-609.5 "/>
<text text-anchor="middle" x="19" y="-597.5" font-family="Helvetica,sans-Serif" font-size="10.00"> </text>
</a>
</g>
</g>
<!-- Node8&#45;&gt;Node1 -->
<g id="edge11" class="edge">
<title>Node8&#45;&gt;Node1</title>
<path fill="none" stroke="#404040" d="M20.44,-590.21C24.29,-526.57 37.16,-365.83 74,-237 88.68,-185.68 112.96,-129.75 131.31,-90.82"/>
<polygon fill="none" stroke="#404040" points="131.39,-90.64 130.36,-83.51 136.55,-79.81 137.58,-86.94 131.39,-90.64"/>
<text text-anchor="middle" x="92.5" y="-437" font-family="Helvetica,sans-Serif" font-size="10.00"> +enabled</text>
<text text-anchor="middle" x="92.5" y="-426" font-family="Helvetica,sans-Serif" font-size="10.00">+fault</text>
<text text-anchor="middle" x="92.5" y="-415" font-family="Helvetica,sans-Serif" font-size="10.00">+homed</text>
<text text-anchor="middle" x="92.5" y="-404" font-family="Helvetica,sans-Serif" font-size="10.00">+homing</text>
<text text-anchor="middle" x="92.5" y="-393" font-family="Helvetica,sans-Serif" font-size="10.00">+inpos</text>
<text text-anchor="middle" x="92.5" y="-382" font-family="Helvetica,sans-Serif" font-size="10.00">+jointType</text>
<text text-anchor="middle" x="92.5" y="-371" font-family="Helvetica,sans-Serif" font-size="10.00">+maxHardLimit</text>
<text text-anchor="middle" x="92.5" y="-360" font-family="Helvetica,sans-Serif" font-size="10.00">+maxSoftLimit</text>
<text text-anchor="middle" x="92.5" y="-349" font-family="Helvetica,sans-Serif" font-size="10.00">+minHardLimit</text>
<text text-anchor="middle" x="92.5" y="-338" font-family="Helvetica,sans-Serif" font-size="10.00">+minSoftLimit</text>
<text text-anchor="middle" x="92.5" y="-327" font-family="Helvetica,sans-Serif" font-size="10.00">...</text>
</g>
<!-- Node8&#45;&gt;Node3 -->
<g id="edge9" class="edge">
<title>Node8&#45;&gt;Node3</title>
<path fill="none" stroke="#404040" d="M18.62,-590.25C19.81,-573.63 23.95,-553.06 36,-539 49.53,-523.21 69.11,-512.82 88.54,-505.99"/>
<polygon fill="none" stroke="#404040" points="88.8,-505.91 93.31,-500.28 100.24,-502.28 95.73,-507.9 88.8,-505.91"/>
<text text-anchor="middle" x="68" y="-542" font-family="Helvetica,sans-Serif" font-size="10.00"> +source_file</text>
</g>
<!-- Node9 -->
<g id="node9" class="node">
<title>Node9</title>
<g id="a_node9"><a xlink:title=" ">
<polygon fill="white" stroke="black" points="247,-243 247,-300 297,-300 297,-243 247,-243"/>
<text text-anchor="middle" x="272" y="-288" font-family="Helvetica,sans-Serif" font-size="10.00">double</text>
<polyline fill="none" stroke="black" points="247,-281 297,-281 "/>
<text text-anchor="middle" x="272" y="-269" font-family="Helvetica,sans-Serif" font-size="10.00"> </text>
<polyline fill="none" stroke="black" points="247,-262 297,-262 "/>
<text text-anchor="middle" x="272" y="-250" font-family="Helvetica,sans-Serif" font-size="10.00"> </text>
</a>
</g>
</g>
<!-- Node9&#45;&gt;Node1 -->
<g id="edge12" class="edge">
<title>Node9&#45;&gt;Node1</title>
<path fill="none" stroke="#404040" d="M258.01,-242.82C238.98,-205.18 204.64,-137.23 181.1,-90.66"/>
<polygon fill="none" stroke="#404040" points="181.07,-90.6 174.8,-87.05 175.66,-79.89 181.94,-83.44 181.07,-90.6"/>
<text text-anchor="middle" x="290" y="-211" font-family="Helvetica,sans-Serif" font-size="10.00"> +backlash</text>
<text text-anchor="middle" x="290" y="-200" font-family="Helvetica,sans-Serif" font-size="10.00">+ferrorCurrent</text>
<text text-anchor="middle" x="290" y="-189" font-family="Helvetica,sans-Serif" font-size="10.00">+ferrorHighMark</text>
<text text-anchor="middle" x="290" y="-178" font-family="Helvetica,sans-Serif" font-size="10.00">+input</text>
<text text-anchor="middle" x="290" y="-167" font-family="Helvetica,sans-Serif" font-size="10.00">+maxFerror</text>
<text text-anchor="middle" x="290" y="-156" font-family="Helvetica,sans-Serif" font-size="10.00">+maxPositionLimit</text>
<text text-anchor="middle" x="290" y="-145" font-family="Helvetica,sans-Serif" font-size="10.00">+minFerror</text>
<text text-anchor="middle" x="290" y="-134" font-family="Helvetica,sans-Serif" font-size="10.00">+minPositionLimit</text>
<text text-anchor="middle" x="290" y="-123" font-family="Helvetica,sans-Serif" font-size="10.00">+output</text>
<text text-anchor="middle" x="290" y="-112" font-family="Helvetica,sans-Serif" font-size="10.00">+units</text>
<text text-anchor="middle" x="290" y="-101" font-family="Helvetica,sans-Serif" font-size="10.00">...</text>
</g>
</g>
</svg>
        <g id="navigator" transform="translate(0 0)" fill="#404254">
                <rect fill="#f2f5e9" fill-opacity="0.5" stroke="#606060" stroke-width=".5" x="0" y="0" width="60" height="60"/>
                <use id="zoomplus" xlink:href="#zoomPlus" x="17" y="9" onmousedown="handleZoom(evt,'in')"/>
                <use id="zoomminus" xlink:href="#zoomMin" x="42" y="9" onmousedown="handleZoom(evt,'out')"/>
                <use id="reset" xlink:href="#resetDef" x="30" y="36" onmousedown="handleReset()"/>
                <g id="arrowUp" xlink:href="#dirArrow" transform="translate(30 24)" onmousedown="handlePan(0,-1)">
                  <use xlink:href="#rim" fill="#404040">
                        <set attributeName="fill" to="#808080" begin="arrowUp.mouseover" end="arrowUp.mouseout"/>
                  </use>
                  <path fill="none" stroke="white" stroke-width="1.5" d="M0,-3.0v7 M-2.5,-0.5L0,-3.0L2.5,-0.5"/>
                </g>
                <g id="arrowRight" xlink:href="#dirArrow" transform="rotate(90) translate(36 -43)" onmousedown="handlePan(1,0)">
                  <use xlink:href="#rim" fill="#404040">
                        <set attributeName="fill" to="#808080" begin="arrowRight.mouseover" end="arrowRight.mouseout"/>
                  </use>
                  <path fill="none" stroke="white" stroke-width="1.5" d="M0,-3.0v7 M-2.5,-0.5L0,-3.0L2.5,-0.5"/>
                </g>
                <g id="arrowDown" xlink:href="#dirArrow" transform="rotate(180) translate(-30 -48)" onmousedown="handlePan(0,1)">
                  <use xlink:href="#rim" fill="#404040">
                        <set attributeName="fill" to="#808080" begin="arrowDown.mouseover" end="arrowDown.mouseout"/>
                  </use>
                  <path fill="none" stroke="white" stroke-width="1.5" d="M0,-3.0v7 M-2.5,-0.5L0,-3.0L2.5,-0.5"/>
                </g>
                <g id="arrowLeft" xlink:href="#dirArrow" transform="rotate(270) translate(-36 17)" onmousedown="handlePan(-1,0)">
                  <use xlink:href="#rim" fill="#404040">
                        <set attributeName="fill" to="#808080" begin="arrowLeft.mouseover" end="arrowLeft.mouseout"/>
                  </use>
                  <path fill="none" stroke="white" stroke-width="1.5" d="M0,-3.0v7 M-2.5,-0.5L0,-3.0L2.5,-0.5"/>
                </g>
        </g>
        <svg viewBox="0 0 15 15" width="100%" height="30px" preserveAspectRatio="xMaxYMin meet">
         <g id="arrow_out" transform="scale(0.3 0.3)">
          <a xlink:href="classEMC__JOINT__STAT__coll__graph_org.svg" target="_base">
           <rect id="button" ry="5" rx="5" y="6" x="6" height="38" width="38"
                fill="#f2f5e9" fill-opacity="0.5" stroke="#606060" stroke-width="1.0"/>
           <path id="arrow"
             d="M 11.500037,31.436501 C 11.940474,20.09759 22.043105,11.32322 32.158766,21.979434 L 37.068811,17.246167 C 37.068811,17.246167 37.088388,32 37.088388,32 L 22.160133,31.978069 C 22.160133,31.978069 26.997745,27.140456 26.997745,27.140456 C 18.528582,18.264221 13.291696,25.230495 11.500037,31.436501 z"
             style="fill:#404040;"/>
          </a>
         </g>
        </svg>
</svg>
