<?xml version="1.0" encoding="UTF-8" standalone="no"?>
<!DOCTYPE svg PUBLIC "-//W3C//DTD SVG 1.1//EN"
 "http://www.w3.org/Graphics/SVG/1.1/DTD/svg11.dtd">
<!-- Generated by graphviz version 2.43.0 (0)
 -->
<!-- Title: EMC_TRAJ_SET_TELEOP_ENABLE Pages: 1 -->
<!--zoomable 608 -->
<svg id="main" version="1.1" xmlns="http://www.w3.org/2000/svg" xmlns:xlink="http://www.w3.org/1999/xlink" xml:space="preserve" onload="init(evt)">
<style type="text/css"><![CDATA[
.edge:hover path { stroke: red; }
.edge:hover polygon { stroke: red; fill: red; }
]]></style>
<script type="text/javascript"><![CDATA[
var edges = document.getElementsByTagName('g');
if (edges && edges.length) {
  for (var i=0;i<edges.length;i++) {
    if (edges[i].id.substr(0,4)=='edge') {
      edges[i].setAttribute('class','edge');
    }
  }
}
]]></script>
        <defs>
                <circle id="rim" cx="0" cy="0" r="7"/>
                <circle id="rim2" cx="0" cy="0" r="3.5"/>
                <g id="zoomPlus">
                        <use xlink:href="#rim" fill="#404040">
                                <set attributeName="fill" to="#808080" begin="zoomplus.mouseover" end="zoomplus.mouseout"/>
                        </use>
                        <path d="M-4,0h8M0,-4v8" fill="none" stroke="white" stroke-width="1.5" pointer-events="none"/>
                </g>
                <g id="zoomMin">
                        <use xlink:href="#rim" fill="#404040">
                                <set attributeName="fill" to="#808080" begin="zoomminus.mouseover" end="zoomminus.mouseout"/>
                        </use>
                        <path d="M-4,0h8" fill="none" stroke="white" stroke-width="1.5" pointer-events="none"/>
                </g>
                <g id="dirArrow">
                        <path fill="none" stroke="white" stroke-width="1.5" d="M0,-3.0v7 M-2.5,-0.5L0,-3.0L2.5,-0.5"/>
                </g>
               <g id="resetDef">
                       <use xlink:href="#rim2" fill="#404040">
                               <set attributeName="fill" to="#808080" begin="reset.mouseover" end="reset.mouseout"/>
                       </use>
               </g>
        </defs>

<script type="text/javascript">
var viewWidth = 597;
var viewHeight = 608;
var sectionId = 'dynsection-1';
</script>
<script xlink:href="svgpan.js"/>
<svg id="graph" class="graph">
<g id="viewport">
<title>EMC_TRAJ_SET_TELEOP_ENABLE</title>
<polygon fill="white" stroke="transparent" points="-4,4 -4,-604 593,-604 593,4 -4,4"/>
<!-- Node1 -->
<g id="node1" class="node">
<title>Node1</title>
<g id="a_node1"><a xlink:title=" ">
<polygon fill="#bfbfbf" stroke="black" points="220.5,-0.5 220.5,-90.5 363.5,-90.5 363.5,-0.5 220.5,-0.5"/>
<text text-anchor="start" x="228.5" y="-78.5" font-family="Helvetica,sans-Serif" font-size="10.00">EMC_TRAJ_SET_TELEOP</text>
<text text-anchor="middle" x="292" y="-67.5" font-family="Helvetica,sans-Serif" font-size="10.00">_ENABLE</text>
<polyline fill="none" stroke="black" points="220.5,-60.5 363.5,-60.5 "/>
<text text-anchor="middle" x="292" y="-48.5" font-family="Helvetica,sans-Serif" font-size="10.00"> </text>
<polyline fill="none" stroke="black" points="220.5,-41.5 363.5,-41.5 "/>
<text text-anchor="start" x="228.5" y="-29.5" font-family="Helvetica,sans-Serif" font-size="10.00">+ EMC_TRAJ_SET_TELEOP</text>
<text text-anchor="start" x="228.5" y="-18.5" font-family="Helvetica,sans-Serif" font-size="10.00">_ENABLE()</text>
<text text-anchor="start" x="228.5" y="-7.5" font-family="Helvetica,sans-Serif" font-size="10.00">+ update()</text>
</a>
</g>
</g>
<!-- Node2 -->
<g id="node2" class="node">
<title>Node2</title>
<g id="a_node2"><a xlink:href="classEMC__TRAJ__CMD__MSG.html" target="_top" xlink:title=" ">
<polygon fill="white" stroke="black" points="301.5,-128.5 301.5,-196.5 442.5,-196.5 442.5,-128.5 301.5,-128.5"/>
<text text-anchor="middle" x="372" y="-184.5" font-family="Helvetica,sans-Serif" font-size="10.00">EMC_TRAJ_CMD_MSG</text>
<polyline fill="none" stroke="black" points="301.5,-177.5 442.5,-177.5 "/>
<text text-anchor="middle" x="372" y="-165.5" font-family="Helvetica,sans-Serif" font-size="10.00"> </text>
<polyline fill="none" stroke="black" points="301.5,-158.5 442.5,-158.5 "/>
<text text-anchor="start" x="309.5" y="-146.5" font-family="Helvetica,sans-Serif" font-size="10.00">+ EMC_TRAJ_CMD_MSG()</text>
<text text-anchor="start" x="309.5" y="-135.5" font-family="Helvetica,sans-Serif" font-size="10.00">+ update()</text>
</a>
</g>
</g>
<!-- Node2&#45;&gt;Node1 -->
<g id="edge1" class="edge">
<title>Node2&#45;&gt;Node1</title>
<path fill="none" stroke="midnightblue" d="M342.99,-119.79C336.43,-110.37 329.45,-100.34 322.83,-90.82"/>
<polygon fill="none" stroke="midnightblue" points="340.28,-122.03 348.86,-128.24 346.02,-118.03 340.28,-122.03"/>
</g>
<!-- Node3 -->
<g id="node3" class="node">
<title>Node3</title>
<g id="a_node3"><a xlink:href="classRCS__CMD__MSG.html" target="_top" xlink:title=" ">
<polygon fill="white" stroke="black" points="441.5,-261 441.5,-318 552.5,-318 552.5,-261 441.5,-261"/>
<text text-anchor="middle" x="497" y="-306" font-family="Helvetica,sans-Serif" font-size="10.00">RCS_CMD_MSG</text>
<polyline fill="none" stroke="black" points="441.5,-299 552.5,-299 "/>
<text text-anchor="middle" x="497" y="-287" font-family="Helvetica,sans-Serif" font-size="10.00"> </text>
<polyline fill="none" stroke="black" points="441.5,-280 552.5,-280 "/>
<text text-anchor="start" x="449.5" y="-268" font-family="Helvetica,sans-Serif" font-size="10.00">+ RCS_CMD_MSG()</text>
</a>
</g>
</g>
<!-- Node3&#45;&gt;Node2 -->
<g id="edge2" class="edge">
<title>Node3&#45;&gt;Node2</title>
<path fill="none" stroke="midnightblue" d="M461.92,-253.42C444.24,-235.74 422.89,-214.39 405.44,-196.94"/>
<polygon fill="none" stroke="midnightblue" points="459.71,-256.16 469.26,-260.76 464.66,-251.21 459.71,-256.16"/>
</g>
<!-- Node4 -->
<g id="node4" class="node">
<title>Node4</title>
<g id="a_node4"><a xlink:href="classNMLmsg.html" target="_top" xlink:title=" ">
<polygon fill="white" stroke="black" points="502,-382.5 502,-483.5 580,-483.5 580,-382.5 502,-382.5"/>
<text text-anchor="middle" x="541" y="-471.5" font-family="Helvetica,sans-Serif" font-size="10.00">NMLmsg</text>
<polyline fill="none" stroke="black" points="502,-464.5 580,-464.5 "/>
<text text-anchor="middle" x="541" y="-452.5" font-family="Helvetica,sans-Serif" font-size="10.00"> </text>
<polyline fill="none" stroke="black" points="502,-445.5 580,-445.5 "/>
<text text-anchor="start" x="510" y="-433.5" font-family="Helvetica,sans-Serif" font-size="10.00">+ clear()</text>
<text text-anchor="start" x="510" y="-422.5" font-family="Helvetica,sans-Serif" font-size="10.00">+ update()</text>
<text text-anchor="start" x="510" y="-411.5" font-family="Helvetica,sans-Serif" font-size="10.00"># NMLmsg()</text>
<text text-anchor="start" x="510" y="-400.5" font-family="Helvetica,sans-Serif" font-size="10.00"># NMLmsg()</text>
<text text-anchor="start" x="510" y="-389.5" font-family="Helvetica,sans-Serif" font-size="10.00"># NMLmsg()</text>
</a>
</g>
</g>
<!-- Node4&#45;&gt;Node3 -->
<g id="edge3" class="edge">
<title>Node4&#45;&gt;Node3</title>
<path fill="none" stroke="midnightblue" d="M522.46,-372.39C516.61,-353.55 510.41,-333.63 505.6,-318.15"/>
<polygon fill="none" stroke="midnightblue" points="519.18,-373.6 525.49,-382.11 525.86,-371.52 519.18,-373.6"/>
</g>
<!-- Node5 -->
<g id="node5" class="node">
<title>Node5</title>
<g id="a_node5"><a xlink:title=" ">
<polygon fill="white" stroke="black" points="315.5,-542.5 315.5,-599.5 344.5,-599.5 344.5,-542.5 315.5,-542.5"/>
<text text-anchor="middle" x="330" y="-587.5" font-family="Helvetica,sans-Serif" font-size="10.00">int</text>
<polyline fill="none" stroke="black" points="315.5,-580.5 344.5,-580.5 "/>
<text text-anchor="middle" x="330" y="-568.5" font-family="Helvetica,sans-Serif" font-size="10.00"> </text>
<polyline fill="none" stroke="black" points="315.5,-561.5 344.5,-561.5 "/>
<text text-anchor="middle" x="330" y="-549.5" font-family="Helvetica,sans-Serif" font-size="10.00"> </text>
</a>
</g>
</g>
<!-- Node5&#45;&gt;Node1 -->
<g id="edge13" class="edge">
<title>Node5&#45;&gt;Node1</title>
<path fill="none" stroke="#404040" d="M315.43,-554.67C294.39,-530.85 258,-482.62 258,-434 258,-434 258,-434 258,-161.5 258,-141.68 262.7,-120.7 268.61,-102.16"/>
<polygon fill="none" stroke="#404040" points="268.65,-102.03 266.8,-95.06 272.52,-90.67 274.37,-97.64 268.65,-102.03"/>
<text text-anchor="middle" x="280.5" y="-287" font-family="Helvetica,sans-Serif" font-size="10.00"> +enable</text>
</g>
<!-- Node5&#45;&gt;Node3 -->
<g id="edge6" class="edge">
<title>Node5&#45;&gt;Node3</title>
<path fill="none" stroke="#404040" d="M344.55,-543.68C353.57,-526.87 365.1,-504.45 374,-484 393.24,-439.78 385.74,-423.08 411,-382 423.43,-361.79 440.83,-342.22 456.74,-326.41"/>
<polygon fill="none" stroke="#404040" points="456.76,-326.38 458.29,-319.33 465.38,-318.03 463.86,-325.07 456.76,-326.38"/>
<text text-anchor="middle" x="452" y="-430.5" font-family="Helvetica,sans-Serif" font-size="10.00"> +serial_number</text>
</g>
<!-- Node5&#45;&gt;Node4 -->
<g id="edge4" class="edge">
<title>Node5&#45;&gt;Node4</title>
<path fill="none" stroke="#404040" d="M344.51,-562.86C361.4,-554.33 389.94,-539.31 413,-524 426.19,-515.25 427.23,-509.81 441,-502 460.46,-490.97 469.06,-495.9 488,-484 489.33,-483.17 490.65,-482.3 491.96,-481.4"/>
<polygon fill="none" stroke="#404040" points="492.25,-481.18 494.65,-474.38 501.85,-473.98 499.45,-480.78 492.25,-481.18"/>
<text text-anchor="middle" x="495.5" y="-516" font-family="Helvetica,sans-Serif" font-size="10.00"> +automatically_clear</text>
<text text-anchor="middle" x="495.5" y="-505" font-family="Helvetica,sans-Serif" font-size="10.00">+type</text>
</g>
<!-- Node8 -->
<g id="node8" class="node">
<title>Node8</title>
<g id="a_node8"><a xlink:href="structstate__tag__t.html" target="_top" xlink:title=" ">
<polygon fill="white" stroke="black" points="115.5,-404.5 115.5,-461.5 186.5,-461.5 186.5,-404.5 115.5,-404.5"/>
<text text-anchor="middle" x="151" y="-449.5" font-family="Helvetica,sans-Serif" font-size="10.00">state_tag_t</text>
<polyline fill="none" stroke="black" points="115.5,-442.5 186.5,-442.5 "/>
<text text-anchor="middle" x="151" y="-430.5" font-family="Helvetica,sans-Serif" font-size="10.00"> </text>
<polyline fill="none" stroke="black" points="115.5,-423.5 186.5,-423.5 "/>
<text text-anchor="middle" x="151" y="-411.5" font-family="Helvetica,sans-Serif" font-size="10.00"> </text>
</a>
</g>
</g>
<!-- Node5&#45;&gt;Node8 -->
<g id="edge10" class="edge">
<title>Node5&#45;&gt;Node8</title>
<path fill="none" stroke="#404040" d="M315.46,-567.79C290.58,-563.38 239.33,-551.44 206,-524 189.45,-510.38 176.54,-490.4 167.4,-472.73"/>
<polygon fill="none" stroke="#404040" points="167.33,-472.6 161.11,-468.96 162.06,-461.81 168.29,-465.45 167.33,-472.6"/>
<text text-anchor="middle" x="225" y="-510.5" font-family="Helvetica,sans-Serif" font-size="10.00"> +fields</text>
</g>
<!-- Node6 -->
<g id="node6" class="node">
<title>Node6</title>
<g id="a_node6"><a xlink:title=" ">
<polygon fill="white" stroke="black" points="548,-542.5 548,-599.5 586,-599.5 586,-542.5 548,-542.5"/>
<text text-anchor="middle" x="567" y="-587.5" font-family="Helvetica,sans-Serif" font-size="10.00">long</text>
<polyline fill="none" stroke="black" points="548,-580.5 586,-580.5 "/>
<text text-anchor="middle" x="567" y="-568.5" font-family="Helvetica,sans-Serif" font-size="10.00"> </text>
<polyline fill="none" stroke="black" points="548,-561.5 586,-561.5 "/>
<text text-anchor="middle" x="567" y="-549.5" font-family="Helvetica,sans-Serif" font-size="10.00"> </text>
</a>
</g>
</g>
<!-- Node6&#45;&gt;Node4 -->
<g id="edge5" class="edge">
<title>Node6&#45;&gt;Node4</title>
<path fill="none" stroke="#404040" d="M561.74,-542.48C559.15,-528.93 555.91,-512 552.77,-495.58"/>
<polygon fill="none" stroke="#404040" points="552.77,-495.55 547.71,-490.41 550.51,-483.76 555.57,-488.91 552.77,-495.55"/>
<text text-anchor="middle" x="573.5" y="-510.5" font-family="Helvetica,sans-Serif" font-size="10.00"> +size</text>
</g>
<!-- Node7 -->
<g id="node7" class="node">
<title>Node7</title>
<g id="a_node7"><a xlink:href="structStateTag.html" target="_top" xlink:title=" ">
<polygon fill="white" stroke="black" points="321,-244.5 321,-334.5 423,-334.5 423,-244.5 321,-244.5"/>
<text text-anchor="middle" x="372" y="-322.5" font-family="Helvetica,sans-Serif" font-size="10.00">StateTag</text>
<polyline fill="none" stroke="black" points="321,-315.5 423,-315.5 "/>
<text text-anchor="middle" x="372" y="-303.5" font-family="Helvetica,sans-Serif" font-size="10.00"> </text>
<polyline fill="none" stroke="black" points="321,-296.5 423,-296.5 "/>
<text text-anchor="start" x="329" y="-284.5" font-family="Helvetica,sans-Serif" font-size="10.00">+ StateTag()</text>
<text text-anchor="start" x="329" y="-273.5" font-family="Helvetica,sans-Serif" font-size="10.00">+ StateTag()</text>
<text text-anchor="start" x="329" y="-262.5" font-family="Helvetica,sans-Serif" font-size="10.00">+ is_valid()</text>
<text text-anchor="start" x="329" y="-251.5" font-family="Helvetica,sans-Serif" font-size="10.00">+ get_state_tag()</text>
</a>
</g>
</g>
<!-- Node7&#45;&gt;Node2 -->
<g id="edge7" class="edge">
<title>Node7&#45;&gt;Node2</title>
<path fill="none" stroke="#404040" d="M372,-244.43C372,-232.87 372,-220.38 372,-208.76"/>
<polygon fill="none" stroke="#404040" points="372,-208.57 368,-202.57 372,-196.57 376,-202.57 372,-208.57"/>
<text text-anchor="middle" x="386" y="-218" font-family="Helvetica,sans-Serif" font-size="10.00"> +tag</text>
</g>
<!-- Node8&#45;&gt;Node7 -->
<g id="edge8" class="edge">
<title>Node8&#45;&gt;Node7</title>
<path fill="none" stroke="midnightblue" d="M195.13,-405.27C226.55,-386.07 269.65,-359.38 307,-335 311.47,-332.08 316.08,-329.02 320.69,-325.93"/>
<polygon fill="none" stroke="midnightblue" points="193.31,-402.28 186.6,-410.48 196.96,-408.26 193.31,-402.28"/>
</g>
<!-- Node9 -->
<g id="node9" class="node">
<title>Node9</title>
<g id="a_node9"><a xlink:title=" ">
<polygon fill="white" stroke="black" points="0,-542.5 0,-599.5 38,-599.5 38,-542.5 0,-542.5"/>
<text text-anchor="middle" x="19" y="-587.5" font-family="Helvetica,sans-Serif" font-size="10.00">float</text>
<polyline fill="none" stroke="black" points="0,-580.5 38,-580.5 "/>
<text text-anchor="middle" x="19" y="-568.5" font-family="Helvetica,sans-Serif" font-size="10.00"> </text>
<polyline fill="none" stroke="black" points="0,-561.5 38,-561.5 "/>
<text text-anchor="middle" x="19" y="-549.5" font-family="Helvetica,sans-Serif" font-size="10.00"> </text>
</a>
</g>
</g>
<!-- Node9&#45;&gt;Node8 -->
<g id="edge9" class="edge">
<title>Node9&#45;&gt;Node8</title>
<path fill="none" stroke="#404040" d="M20.96,-542.39C23.06,-529.12 27.34,-513.61 36,-502 53.1,-479.07 80.41,-462.45 104.13,-451.39"/>
<polygon fill="none" stroke="#404040" points="104.45,-451.25 108.32,-445.16 115.42,-446.4 111.55,-452.48 104.45,-451.25"/>
<text text-anchor="middle" x="68.5" y="-510.5" font-family="Helvetica,sans-Serif" font-size="10.00"> +fields_float</text>
</g>
<!-- Node10 -->
<g id="node10" class="node">
<title>Node10</title>
<g id="a_node10"><a xlink:title=" ">
<polygon fill="white" stroke="black" points="76.5,-542.5 76.5,-599.5 137.5,-599.5 137.5,-542.5 76.5,-542.5"/>
<text text-anchor="middle" x="107" y="-587.5" font-family="Helvetica,sans-Serif" font-size="10.00">unsigned</text>
<polyline fill="none" stroke="black" points="76.5,-580.5 137.5,-580.5 "/>
<text text-anchor="middle" x="107" y="-568.5" font-family="Helvetica,sans-Serif" font-size="10.00"> </text>
<polyline fill="none" stroke="black" points="76.5,-561.5 137.5,-561.5 "/>
<text text-anchor="middle" x="107" y="-549.5" font-family="Helvetica,sans-Serif" font-size="10.00"> </text>
</a>
</g>
</g>
<!-- Node10&#45;&gt;Node8 -->
<g id="edge11" class="edge">
<title>Node10&#45;&gt;Node8</title>
<path fill="none" stroke="#404040" d="M104.04,-542.35C103.54,-529.8 104.16,-514.9 108,-502 111.1,-491.59 116.28,-481.23 121.99,-471.86"/>
<polygon fill="none" stroke="#404040" points="122.04,-471.79 121.96,-464.58 128.59,-461.73 128.67,-468.95 122.04,-471.79"/>
<text text-anchor="middle" x="145.5" y="-510.5" font-family="Helvetica,sans-Serif" font-size="10.00"> +packed_flags</text>
</g>
<!-- Node11 -->
<g id="node11" class="node">
<title>Node11</title>
<g id="a_node11"><a xlink:title=" ">
<polygon fill="white" stroke="black" points="286.5,-404.5 286.5,-461.5 365.5,-461.5 365.5,-404.5 286.5,-404.5"/>
<text text-anchor="middle" x="326" y="-449.5" font-family="Helvetica,sans-Serif" font-size="10.00">bitset&lt; 64 &gt;</text>
<polyline fill="none" stroke="black" points="286.5,-442.5 365.5,-442.5 "/>
<text text-anchor="middle" x="326" y="-430.5" font-family="Helvetica,sans-Serif" font-size="10.00"> </text>
<polyline fill="none" stroke="black" points="286.5,-423.5 365.5,-423.5 "/>
<text text-anchor="middle" x="326" y="-411.5" font-family="Helvetica,sans-Serif" font-size="10.00"> </text>
</a>
</g>
</g>
<!-- Node11&#45;&gt;Node7 -->
<g id="edge12" class="edge">
<title>Node11&#45;&gt;Node7</title>
<path fill="none" stroke="#404040" d="M334.98,-404.38C340.36,-387.84 347.39,-366.22 353.87,-346.26"/>
<polygon fill="none" stroke="#404040" points="353.9,-346.17 351.95,-339.22 357.61,-334.75 359.56,-341.7 353.9,-346.17"/>
<text text-anchor="middle" x="368.5" y="-356" font-family="Helvetica,sans-Serif" font-size="10.00"> +flags</text>
</g>
</g>
</svg>
        <g id="navigator" transform="translate(0 0)" fill="#404254">
                <rect fill="#f2f5e9" fill-opacity="0.5" stroke="#606060" stroke-width=".5" x="0" y="0" width="60" height="60"/>
                <use id="zoomplus" xlink:href="#zoomPlus" x="17" y="9" onmousedown="handleZoom(evt,'in')"/>
                <use id="zoomminus" xlink:href="#zoomMin" x="42" y="9" onmousedown="handleZoom(evt,'out')"/>
                <use id="reset" xlink:href="#resetDef" x="30" y="36" onmousedown="handleReset()"/>
                <g id="arrowUp" xlink:href="#dirArrow" transform="translate(30 24)" onmousedown="handlePan(0,-1)">
                  <use xlink:href="#rim" fill="#404040">
                        <set attributeName="fill" to="#808080" begin="arrowUp.mouseover" end="arrowUp.mouseout"/>
                  </use>
                  <path fill="none" stroke="white" stroke-width="1.5" d="M0,-3.0v7 M-2.5,-0.5L0,-3.0L2.5,-0.5"/>
                </g>
                <g id="arrowRight" xlink:href="#dirArrow" transform="rotate(90) translate(36 -43)" onmousedown="handlePan(1,0)">
                  <use xlink:href="#rim" fill="#404040">
                        <set attributeName="fill" to="#808080" begin="arrowRight.mouseover" end="arrowRight.mouseout"/>
                  </use>
                  <path fill="none" stroke="white" stroke-width="1.5" d="M0,-3.0v7 M-2.5,-0.5L0,-3.0L2.5,-0.5"/>
                </g>
                <g id="arrowDown" xlink:href="#dirArrow" transform="rotate(180) translate(-30 -48)" onmousedown="handlePan(0,1)">
                  <use xlink:href="#rim" fill="#404040">
                        <set attributeName="fill" to="#808080" begin="arrowDown.mouseover" end="arrowDown.mouseout"/>
                  </use>
                  <path fill="none" stroke="white" stroke-width="1.5" d="M0,-3.0v7 M-2.5,-0.5L0,-3.0L2.5,-0.5"/>
                </g>
                <g id="arrowLeft" xlink:href="#dirArrow" transform="rotate(270) translate(-36 17)" onmousedown="handlePan(-1,0)">
                  <use xlink:href="#rim" fill="#404040">
                        <set attributeName="fill" to="#808080" begin="arrowLeft.mouseover" end="arrowLeft.mouseout"/>
                  </use>
                  <path fill="none" stroke="white" stroke-width="1.5" d="M0,-3.0v7 M-2.5,-0.5L0,-3.0L2.5,-0.5"/>
                </g>
        </g>
        <svg viewBox="0 0 15 15" width="100%" height="30px" preserveAspectRatio="xMaxYMin meet">
         <g id="arrow_out" transform="scale(0.3 0.3)">
          <a xlink:href="classEMC__TRAJ__SET__TELEOP__ENABLE__coll__graph_org.svg" target="_base">
           <rect id="button" ry="5" rx="5" y="6" x="6" height="38" width="38"
                fill="#f2f5e9" fill-opacity="0.5" stroke="#606060" stroke-width="1.0"/>
           <path id="arrow"
             d="M 11.500037,31.436501 C 11.940474,20.09759 22.043105,11.32322 32.158766,21.979434 L 37.068811,17.246167 C 37.068811,17.246167 37.088388,32 37.088388,32 L 22.160133,31.978069 C 22.160133,31.978069 26.997745,27.140456 26.997745,27.140456 C 18.528582,18.264221 13.291696,25.230495 11.500037,31.436501 z"
             style="fill:#404040;"/>
          </a>
         </g>
        </svg>
</svg>
