<?xml version="1.0" encoding="UTF-8" standalone="no"?>
<!DOCTYPE svg PUBLIC "-//W3C//DTD SVG 1.1//EN"
 "http://www.w3.org/Graphics/SVG/1.1/DTD/svg11.dtd">
<!-- Generated by graphviz version 2.43.0 (0)
 -->
<!-- Title: EMC_JOG_STOP Pages: 1 -->
<svg width="396pt" height="543pt"
 viewBox="0.00 0.00 395.50 543.00" xmlns="http://www.w3.org/2000/svg" xmlns:xlink="http://www.w3.org/1999/xlink">
<g id="graph0" class="graph" transform="scale(1 1) rotate(0) translate(4 539)">
<title>EMC_JOG_STOP</title>
<polygon fill="white" stroke="transparent" points="-4,4 -4,-539 391.5,-539 391.5,4 -4,4"/>
<!-- Node1 -->
<g id="node1" class="node">
<title>Node1</title>
<g id="a_node1"><a xlink:title=" ">
<polygon fill="#bfbfbf" stroke="black" points="0,-0.5 0,-68.5 111,-68.5 111,-0.5 0,-0.5"/>
<text text-anchor="middle" x="55.5" y="-56.5" font-family="Helvetica,sans-Serif" font-size="10.00">EMC_JOG_STOP</text>
<polyline fill="none" stroke="black" points="0,-49.5 111,-49.5 "/>
<text text-anchor="middle" x="55.5" y="-37.5" font-family="Helvetica,sans-Serif" font-size="10.00"> </text>
<polyline fill="none" stroke="black" points="0,-30.5 111,-30.5 "/>
<text text-anchor="start" x="8" y="-18.5" font-family="Helvetica,sans-Serif" font-size="10.00">+ EMC_JOG_STOP()</text>
<text text-anchor="start" x="8" y="-7.5" font-family="Helvetica,sans-Serif" font-size="10.00">+ update()</text>
</a>
</g>
</g>
<!-- Node2 -->
<g id="node2" class="node">
<title>Node2</title>
<g id="a_node2"><a xlink:href="classEMC__JOG__CMD__MSG.html" target="_top" xlink:title=" ">
<polygon fill="white" stroke="black" points="54,-106.5 54,-174.5 191,-174.5 191,-106.5 54,-106.5"/>
<text text-anchor="middle" x="122.5" y="-162.5" font-family="Helvetica,sans-Serif" font-size="10.00">EMC_JOG_CMD_MSG</text>
<polyline fill="none" stroke="black" points="54,-155.5 191,-155.5 "/>
<text text-anchor="middle" x="122.5" y="-143.5" font-family="Helvetica,sans-Serif" font-size="10.00"> </text>
<polyline fill="none" stroke="black" points="54,-136.5 191,-136.5 "/>
<text text-anchor="start" x="62" y="-124.5" font-family="Helvetica,sans-Serif" font-size="10.00">+ EMC_JOG_CMD_MSG()</text>
<text text-anchor="start" x="62" y="-113.5" font-family="Helvetica,sans-Serif" font-size="10.00">+ update()</text>
</a>
</g>
</g>
<!-- Node2&#45;&gt;Node1 -->
<g id="edge1" class="edge">
<title>Node2&#45;&gt;Node1</title>
<path fill="none" stroke="midnightblue" d="M95.54,-97.65C89.34,-88.03 82.83,-77.93 76.91,-68.73"/>
<polygon fill="none" stroke="midnightblue" points="92.76,-99.8 101.12,-106.31 98.64,-96.01 92.76,-99.8"/>
</g>
<!-- Node3 -->
<g id="node3" class="node">
<title>Node3</title>
<g id="a_node3"><a xlink:href="classRCS__CMD__MSG.html" target="_top" xlink:title=" ">
<polygon fill="white" stroke="black" points="145,-212.5 145,-269.5 256,-269.5 256,-212.5 145,-212.5"/>
<text text-anchor="middle" x="200.5" y="-257.5" font-family="Helvetica,sans-Serif" font-size="10.00">RCS_CMD_MSG</text>
<polyline fill="none" stroke="black" points="145,-250.5 256,-250.5 "/>
<text text-anchor="middle" x="200.5" y="-238.5" font-family="Helvetica,sans-Serif" font-size="10.00"> </text>
<polyline fill="none" stroke="black" points="145,-231.5 256,-231.5 "/>
<text text-anchor="start" x="153" y="-219.5" font-family="Helvetica,sans-Serif" font-size="10.00">+ RCS_CMD_MSG()</text>
</a>
</g>
</g>
<!-- Node3&#45;&gt;Node2 -->
<g id="edge2" class="edge">
<title>Node3&#45;&gt;Node2</title>
<path fill="none" stroke="midnightblue" d="M172.27,-204.35C164.58,-194.63 156.27,-184.15 148.69,-174.58"/>
<polygon fill="none" stroke="midnightblue" points="169.61,-206.63 178.57,-212.3 175.1,-202.29 169.61,-206.63"/>
</g>
<!-- Node4 -->
<g id="node4" class="node">
<title>Node4</title>
<g id="a_node4"><a xlink:href="classNMLmsg.html" target="_top" xlink:title=" ">
<polygon fill="white" stroke="black" points="300.5,-317.5 300.5,-418.5 378.5,-418.5 378.5,-317.5 300.5,-317.5"/>
<text text-anchor="middle" x="339.5" y="-406.5" font-family="Helvetica,sans-Serif" font-size="10.00">NMLmsg</text>
<polyline fill="none" stroke="black" points="300.5,-399.5 378.5,-399.5 "/>
<text text-anchor="middle" x="339.5" y="-387.5" font-family="Helvetica,sans-Serif" font-size="10.00"> </text>
<polyline fill="none" stroke="black" points="300.5,-380.5 378.5,-380.5 "/>
<text text-anchor="start" x="308.5" y="-368.5" font-family="Helvetica,sans-Serif" font-size="10.00">+ clear()</text>
<text text-anchor="start" x="308.5" y="-357.5" font-family="Helvetica,sans-Serif" font-size="10.00">+ update()</text>
<text text-anchor="start" x="308.5" y="-346.5" font-family="Helvetica,sans-Serif" font-size="10.00"># NMLmsg()</text>
<text text-anchor="start" x="308.5" y="-335.5" font-family="Helvetica,sans-Serif" font-size="10.00"># NMLmsg()</text>
<text text-anchor="start" x="308.5" y="-324.5" font-family="Helvetica,sans-Serif" font-size="10.00"># NMLmsg()</text>
</a>
</g>
</g>
<!-- Node4&#45;&gt;Node3 -->
<g id="edge3" class="edge">
<title>Node4&#45;&gt;Node3</title>
<path fill="none" stroke="midnightblue" d="M292.92,-322.86C290.76,-320.87 288.61,-318.91 286.5,-317 269.04,-301.16 249.23,-283.84 233.03,-269.84"/>
<polygon fill="none" stroke="midnightblue" points="290.58,-325.47 300.3,-329.69 295.34,-320.33 290.58,-325.47"/>
</g>
<!-- Node5 -->
<g id="node5" class="node">
<title>Node5</title>
<g id="a_node5"><a xlink:title=" ">
<polygon fill="white" stroke="black" points="142,-477.5 142,-534.5 171,-534.5 171,-477.5 142,-477.5"/>
<text text-anchor="middle" x="156.5" y="-522.5" font-family="Helvetica,sans-Serif" font-size="10.00">int</text>
<polyline fill="none" stroke="black" points="142,-515.5 171,-515.5 "/>
<text text-anchor="middle" x="156.5" y="-503.5" font-family="Helvetica,sans-Serif" font-size="10.00"> </text>
<polyline fill="none" stroke="black" points="142,-496.5 171,-496.5 "/>
<text text-anchor="middle" x="156.5" y="-484.5" font-family="Helvetica,sans-Serif" font-size="10.00"> </text>
</a>
</g>
</g>
<!-- Node5&#45;&gt;Node1 -->
<g id="edge8" class="edge">
<title>Node5&#45;&gt;Node1</title>
<path fill="none" stroke="#404040" d="M141.98,-498.48C107.87,-482.07 25.5,-435.55 25.5,-369 25.5,-369 25.5,-369 25.5,-139.5 25.5,-119.46 30.71,-98.07 36.78,-79.93"/>
<polygon fill="none" stroke="#404040" points="36.82,-79.83 35.07,-72.83 40.85,-68.53 42.6,-75.52 36.82,-79.83"/>
<text text-anchor="middle" x="54.5" y="-238.5" font-family="Helvetica,sans-Serif" font-size="10.00"> +jjogmode</text>
</g>
<!-- Node5&#45;&gt;Node2 -->
<g id="edge7" class="edge">
<title>Node5&#45;&gt;Node2</title>
<path fill="none" stroke="#404040" d="M146.82,-477.25C133.5,-436.31 111.38,-357.1 113.5,-288 114.54,-254.05 116.94,-215.75 119,-186.82"/>
<polygon fill="none" stroke="#404040" points="119.01,-186.61 115.46,-180.33 119.88,-174.64 123.44,-180.91 119.01,-186.61"/>
<text text-anchor="middle" x="150.5" y="-291" font-family="Helvetica,sans-Serif" font-size="10.00"> +joint_or_axis</text>
</g>
<!-- Node5&#45;&gt;Node3 -->
<g id="edge6" class="edge">
<title>Node5&#45;&gt;Node3</title>
<path fill="none" stroke="#404040" d="M161.13,-477.35C168.95,-430.59 184.82,-335.72 193.84,-281.8"/>
<polygon fill="none" stroke="#404040" points="193.89,-281.51 190.94,-274.93 195.87,-269.67 198.83,-276.25 193.89,-281.51"/>
<text text-anchor="middle" x="229.5" y="-365.5" font-family="Helvetica,sans-Serif" font-size="10.00"> +serial_number</text>
</g>
<!-- Node5&#45;&gt;Node4 -->
<g id="edge4" class="edge">
<title>Node5&#45;&gt;Node4</title>
<path fill="none" stroke="#404040" d="M171.25,-492.71C194.09,-473.71 235.77,-439.16 239.5,-437 258.84,-425.77 267.56,-430.9 286.5,-419 287.83,-418.17 289.15,-417.3 290.46,-416.4"/>
<polygon fill="none" stroke="#404040" points="290.75,-416.18 293.15,-409.38 300.35,-408.98 297.95,-415.78 290.75,-416.18"/>
<text text-anchor="middle" x="294" y="-451" font-family="Helvetica,sans-Serif" font-size="10.00"> +automatically_clear</text>
<text text-anchor="middle" x="294" y="-440" font-family="Helvetica,sans-Serif" font-size="10.00">+type</text>
</g>
<!-- Node6 -->
<g id="node6" class="node">
<title>Node6</title>
<g id="a_node6"><a xlink:title=" ">
<polygon fill="white" stroke="black" points="346.5,-477.5 346.5,-534.5 384.5,-534.5 384.5,-477.5 346.5,-477.5"/>
<text text-anchor="middle" x="365.5" y="-522.5" font-family="Helvetica,sans-Serif" font-size="10.00">long</text>
<polyline fill="none" stroke="black" points="346.5,-515.5 384.5,-515.5 "/>
<text text-anchor="middle" x="365.5" y="-503.5" font-family="Helvetica,sans-Serif" font-size="10.00"> </text>
<polyline fill="none" stroke="black" points="346.5,-496.5 384.5,-496.5 "/>
<text text-anchor="middle" x="365.5" y="-484.5" font-family="Helvetica,sans-Serif" font-size="10.00"> </text>
</a>
</g>
</g>
<!-- Node6&#45;&gt;Node4 -->
<g id="edge5" class="edge">
<title>Node6&#45;&gt;Node4</title>
<path fill="none" stroke="#404040" d="M360.24,-477.48C357.65,-463.93 354.41,-447 351.27,-430.58"/>
<polygon fill="none" stroke="#404040" points="351.27,-430.55 346.21,-425.41 349.01,-418.76 354.07,-423.91 351.27,-430.55"/>
<text text-anchor="middle" x="372" y="-445.5" font-family="Helvetica,sans-Serif" font-size="10.00"> +size</text>
</g>
</g>
</svg>
