<?xml version="1.0" encoding="UTF-8" standalone="no"?>
<!DOCTYPE svg PUBLIC "-//W3C//DTD SVG 1.1//EN"
 "http://www.w3.org/Graphics/SVG/1.1/DTD/svg11.dtd">
<!-- Generated by graphviz version 2.43.0 (0)
 -->
<!-- Title: EMC_TRAJ_SET_ROTATION Pages: 1 -->
<svg width="481pt" height="596pt"
 viewBox="0.00 0.00 481.00 596.00" xmlns="http://www.w3.org/2000/svg" xmlns:xlink="http://www.w3.org/1999/xlink">
<g id="graph0" class="graph" transform="scale(1 1) rotate(0) translate(4 592)">
<title>EMC_TRAJ_SET_ROTATION</title>
<polygon fill="white" stroke="transparent" points="-4,4 -4,-592 477,-592 477,4 -4,4"/>
<!-- Node1 -->
<g id="node1" class="node">
<title>Node1</title>
<g id="a_node1"><a xlink:title=" ">
<polygon fill="#bfbfbf" stroke="black" points="239.5,-0.5 239.5,-68.5 402.5,-68.5 402.5,-0.5 239.5,-0.5"/>
<text text-anchor="middle" x="321" y="-56.5" font-family="Helvetica,sans-Serif" font-size="10.00">EMC_TRAJ_SET_ROTATION</text>
<polyline fill="none" stroke="black" points="239.5,-49.5 402.5,-49.5 "/>
<text text-anchor="middle" x="321" y="-37.5" font-family="Helvetica,sans-Serif" font-size="10.00"> </text>
<polyline fill="none" stroke="black" points="239.5,-30.5 402.5,-30.5 "/>
<text text-anchor="start" x="247.5" y="-18.5" font-family="Helvetica,sans-Serif" font-size="10.00">+ EMC_TRAJ_SET_ROTATION()</text>
<text text-anchor="start" x="247.5" y="-7.5" font-family="Helvetica,sans-Serif" font-size="10.00">+ update()</text>
</a>
</g>
</g>
<!-- Node2 -->
<g id="node2" class="node">
<title>Node2</title>
<g id="a_node2"><a xlink:href="classEMC__TRAJ__CMD__MSG.html" target="_top" xlink:title=" ">
<polygon fill="white" stroke="black" points="193.5,-116.5 193.5,-184.5 334.5,-184.5 334.5,-116.5 193.5,-116.5"/>
<text text-anchor="middle" x="264" y="-172.5" font-family="Helvetica,sans-Serif" font-size="10.00">EMC_TRAJ_CMD_MSG</text>
<polyline fill="none" stroke="black" points="193.5,-165.5 334.5,-165.5 "/>
<text text-anchor="middle" x="264" y="-153.5" font-family="Helvetica,sans-Serif" font-size="10.00"> </text>
<polyline fill="none" stroke="black" points="193.5,-146.5 334.5,-146.5 "/>
<text text-anchor="start" x="201.5" y="-134.5" font-family="Helvetica,sans-Serif" font-size="10.00">+ EMC_TRAJ_CMD_MSG()</text>
<text text-anchor="start" x="201.5" y="-123.5" font-family="Helvetica,sans-Serif" font-size="10.00">+ update()</text>
</a>
</g>
</g>
<!-- Node2&#45;&gt;Node1 -->
<g id="edge1" class="edge">
<title>Node2&#45;&gt;Node1</title>
<path fill="none" stroke="midnightblue" d="M285.16,-107.18C291.53,-94.45 298.42,-80.67 304.44,-68.62"/>
<polygon fill="none" stroke="midnightblue" points="281.98,-105.71 280.64,-116.22 288.24,-108.84 281.98,-105.71"/>
</g>
<!-- Node3 -->
<g id="node3" class="node">
<title>Node3</title>
<g id="a_node3"><a xlink:href="classRCS__CMD__MSG.html" target="_top" xlink:title=" ">
<polygon fill="white" stroke="black" points="141.5,-249 141.5,-306 252.5,-306 252.5,-249 141.5,-249"/>
<text text-anchor="middle" x="197" y="-294" font-family="Helvetica,sans-Serif" font-size="10.00">RCS_CMD_MSG</text>
<polyline fill="none" stroke="black" points="141.5,-287 252.5,-287 "/>
<text text-anchor="middle" x="197" y="-275" font-family="Helvetica,sans-Serif" font-size="10.00"> </text>
<polyline fill="none" stroke="black" points="141.5,-268 252.5,-268 "/>
<text text-anchor="start" x="149.5" y="-256" font-family="Helvetica,sans-Serif" font-size="10.00">+ RCS_CMD_MSG()</text>
</a>
</g>
</g>
<!-- Node3&#45;&gt;Node2 -->
<g id="edge2" class="edge">
<title>Node3&#45;&gt;Node2</title>
<path fill="none" stroke="midnightblue" d="M216.82,-239.52C226.1,-222.22 237.05,-201.77 246.08,-184.94"/>
<polygon fill="none" stroke="midnightblue" points="213.51,-238.29 211.87,-248.76 219.68,-241.6 213.51,-238.29"/>
</g>
<!-- Node4 -->
<g id="node4" class="node">
<title>Node4</title>
<g id="a_node4"><a xlink:href="classNMLmsg.html" target="_top" xlink:title=" ">
<polygon fill="white" stroke="black" points="34,-370.5 34,-471.5 112,-471.5 112,-370.5 34,-370.5"/>
<text text-anchor="middle" x="73" y="-459.5" font-family="Helvetica,sans-Serif" font-size="10.00">NMLmsg</text>
<polyline fill="none" stroke="black" points="34,-452.5 112,-452.5 "/>
<text text-anchor="middle" x="73" y="-440.5" font-family="Helvetica,sans-Serif" font-size="10.00"> </text>
<polyline fill="none" stroke="black" points="34,-433.5 112,-433.5 "/>
<text text-anchor="start" x="42" y="-421.5" font-family="Helvetica,sans-Serif" font-size="10.00">+ clear()</text>
<text text-anchor="start" x="42" y="-410.5" font-family="Helvetica,sans-Serif" font-size="10.00">+ update()</text>
<text text-anchor="start" x="42" y="-399.5" font-family="Helvetica,sans-Serif" font-size="10.00"># NMLmsg()</text>
<text text-anchor="start" x="42" y="-388.5" font-family="Helvetica,sans-Serif" font-size="10.00"># NMLmsg()</text>
<text text-anchor="start" x="42" y="-377.5" font-family="Helvetica,sans-Serif" font-size="10.00"># NMLmsg()</text>
</a>
</g>
</g>
<!-- Node4&#45;&gt;Node3 -->
<g id="edge3" class="edge">
<title>Node4&#45;&gt;Node3</title>
<path fill="none" stroke="midnightblue" d="M118.87,-367.66C137.16,-346.78 157.47,-323.61 172.8,-306.12"/>
<polygon fill="none" stroke="midnightblue" points="116.19,-365.4 112.23,-375.23 121.46,-370.01 116.19,-365.4"/>
</g>
<!-- Node5 -->
<g id="node5" class="node">
<title>Node5</title>
<g id="a_node5"><a xlink:title=" ">
<polygon fill="white" stroke="black" points="182.5,-530.5 182.5,-587.5 211.5,-587.5 211.5,-530.5 182.5,-530.5"/>
<text text-anchor="middle" x="197" y="-575.5" font-family="Helvetica,sans-Serif" font-size="10.00">int</text>
<polyline fill="none" stroke="black" points="182.5,-568.5 211.5,-568.5 "/>
<text text-anchor="middle" x="197" y="-556.5" font-family="Helvetica,sans-Serif" font-size="10.00"> </text>
<polyline fill="none" stroke="black" points="182.5,-549.5 211.5,-549.5 "/>
<text text-anchor="middle" x="197" y="-537.5" font-family="Helvetica,sans-Serif" font-size="10.00"> </text>
</a>
</g>
</g>
<!-- Node5&#45;&gt;Node3 -->
<g id="edge6" class="edge">
<title>Node5&#45;&gt;Node3</title>
<path fill="none" stroke="#404040" d="M197,-530.44C197,-480.76 197,-376.03 197,-318.48"/>
<polygon fill="none" stroke="#404040" points="197,-318.27 193,-312.27 197,-306.27 201,-312.27 197,-318.27"/>
<text text-anchor="middle" x="238" y="-418.5" font-family="Helvetica,sans-Serif" font-size="10.00"> +serial_number</text>
</g>
<!-- Node5&#45;&gt;Node4 -->
<g id="edge4" class="edge">
<title>Node5&#45;&gt;Node4</title>
<path fill="none" stroke="#404040" d="M182.5,-557.53C155.76,-555.79 99.15,-547.83 74,-512 68.26,-503.82 65.32,-494.1 64.15,-484.13"/>
<polygon fill="none" stroke="#404040" points="64.14,-483.91 59.84,-478.13 63.52,-471.93 67.83,-477.72 64.14,-483.91"/>
<text text-anchor="middle" x="128.5" y="-504" font-family="Helvetica,sans-Serif" font-size="10.00"> +automatically_clear</text>
<text text-anchor="middle" x="128.5" y="-493" font-family="Helvetica,sans-Serif" font-size="10.00">+type</text>
</g>
<!-- Node8 -->
<g id="node8" class="node">
<title>Node8</title>
<g id="a_node8"><a xlink:href="structstate__tag__t.html" target="_top" xlink:title=" ">
<polygon fill="white" stroke="black" points="297.5,-392.5 297.5,-449.5 368.5,-449.5 368.5,-392.5 297.5,-392.5"/>
<text text-anchor="middle" x="333" y="-437.5" font-family="Helvetica,sans-Serif" font-size="10.00">state_tag_t</text>
<polyline fill="none" stroke="black" points="297.5,-430.5 368.5,-430.5 "/>
<text text-anchor="middle" x="333" y="-418.5" font-family="Helvetica,sans-Serif" font-size="10.00"> </text>
<polyline fill="none" stroke="black" points="297.5,-411.5 368.5,-411.5 "/>
<text text-anchor="middle" x="333" y="-399.5" font-family="Helvetica,sans-Serif" font-size="10.00"> </text>
</a>
</g>
</g>
<!-- Node5&#45;&gt;Node8 -->
<g id="edge10" class="edge">
<title>Node5&#45;&gt;Node8</title>
<path fill="none" stroke="#404040" d="M211.55,-543.45C231.71,-523.29 268.8,-486.2 296.7,-458.3"/>
<polygon fill="none" stroke="#404040" points="296.92,-458.08 298.34,-451.01 305.41,-449.59 303.99,-456.66 296.92,-458.08"/>
<text text-anchor="middle" x="284" y="-498.5" font-family="Helvetica,sans-Serif" font-size="10.00"> +fields</text>
</g>
<!-- Node6 -->
<g id="node6" class="node">
<title>Node6</title>
<g id="a_node6"><a xlink:title=" ">
<polygon fill="white" stroke="black" points="0,-530.5 0,-587.5 38,-587.5 38,-530.5 0,-530.5"/>
<text text-anchor="middle" x="19" y="-575.5" font-family="Helvetica,sans-Serif" font-size="10.00">long</text>
<polyline fill="none" stroke="black" points="0,-568.5 38,-568.5 "/>
<text text-anchor="middle" x="19" y="-556.5" font-family="Helvetica,sans-Serif" font-size="10.00"> </text>
<polyline fill="none" stroke="black" points="0,-549.5 38,-549.5 "/>
<text text-anchor="middle" x="19" y="-537.5" font-family="Helvetica,sans-Serif" font-size="10.00"> </text>
</a>
</g>
</g>
<!-- Node6&#45;&gt;Node4 -->
<g id="edge5" class="edge">
<title>Node6&#45;&gt;Node4</title>
<path fill="none" stroke="#404040" d="M15.47,-530.49C14.83,-517.83 15.49,-502.81 20,-490 21.92,-484.55 24.46,-479.2 27.4,-474.04"/>
<polygon fill="none" stroke="#404040" points="27.49,-473.89 27.32,-466.68 33.91,-463.75 34.08,-470.96 27.49,-473.89"/>
<text text-anchor="middle" x="35.5" y="-498.5" font-family="Helvetica,sans-Serif" font-size="10.00"> +size</text>
</g>
<!-- Node7 -->
<g id="node7" class="node">
<title>Node7</title>
<g id="a_node7"><a xlink:href="structStateTag.html" target="_top" xlink:title=" ">
<polygon fill="white" stroke="black" points="282,-232.5 282,-322.5 384,-322.5 384,-232.5 282,-232.5"/>
<text text-anchor="middle" x="333" y="-310.5" font-family="Helvetica,sans-Serif" font-size="10.00">StateTag</text>
<polyline fill="none" stroke="black" points="282,-303.5 384,-303.5 "/>
<text text-anchor="middle" x="333" y="-291.5" font-family="Helvetica,sans-Serif" font-size="10.00"> </text>
<polyline fill="none" stroke="black" points="282,-284.5 384,-284.5 "/>
<text text-anchor="start" x="290" y="-272.5" font-family="Helvetica,sans-Serif" font-size="10.00">+ StateTag()</text>
<text text-anchor="start" x="290" y="-261.5" font-family="Helvetica,sans-Serif" font-size="10.00">+ StateTag()</text>
<text text-anchor="start" x="290" y="-250.5" font-family="Helvetica,sans-Serif" font-size="10.00">+ is_valid()</text>
<text text-anchor="start" x="290" y="-239.5" font-family="Helvetica,sans-Serif" font-size="10.00">+ get_state_tag()</text>
</a>
</g>
</g>
<!-- Node7&#45;&gt;Node2 -->
<g id="edge7" class="edge">
<title>Node7&#45;&gt;Node2</title>
<path fill="none" stroke="#404040" d="M308.67,-232.43C302.02,-220.38 294.81,-207.32 288.17,-195.28"/>
<polygon fill="none" stroke="#404040" points="288.05,-195.07 281.65,-191.75 282.25,-184.57 288.65,-187.89 288.05,-195.07"/>
<text text-anchor="middle" x="313" y="-206" font-family="Helvetica,sans-Serif" font-size="10.00"> +tag</text>
</g>
<!-- Node8&#45;&gt;Node7 -->
<g id="edge8" class="edge">
<title>Node8&#45;&gt;Node7</title>
<path fill="none" stroke="midnightblue" d="M333,-382.36C333,-364.04 333,-341.89 333,-322.75"/>
<polygon fill="none" stroke="midnightblue" points="329.5,-382.38 333,-392.38 336.5,-382.38 329.5,-382.38"/>
</g>
<!-- Node9 -->
<g id="node9" class="node">
<title>Node9</title>
<g id="a_node9"><a xlink:title=" ">
<polygon fill="white" stroke="black" points="304,-530.5 304,-587.5 342,-587.5 342,-530.5 304,-530.5"/>
<text text-anchor="middle" x="323" y="-575.5" font-family="Helvetica,sans-Serif" font-size="10.00">float</text>
<polyline fill="none" stroke="black" points="304,-568.5 342,-568.5 "/>
<text text-anchor="middle" x="323" y="-556.5" font-family="Helvetica,sans-Serif" font-size="10.00"> </text>
<polyline fill="none" stroke="black" points="304,-549.5 342,-549.5 "/>
<text text-anchor="middle" x="323" y="-537.5" font-family="Helvetica,sans-Serif" font-size="10.00"> </text>
</a>
</g>
</g>
<!-- Node9&#45;&gt;Node8 -->
<g id="edge9" class="edge">
<title>Node9&#45;&gt;Node8</title>
<path fill="none" stroke="#404040" d="M322.68,-530.18C322.72,-517.85 323.03,-503.19 324,-490 324.67,-480.85 325.75,-471.06 326.94,-461.83"/>
<polygon fill="none" stroke="#404040" points="326.97,-461.61 323.81,-455.12 328.59,-449.72 331.74,-456.2 326.97,-461.61"/>
<text text-anchor="middle" x="356.5" y="-498.5" font-family="Helvetica,sans-Serif" font-size="10.00"> +fields_float</text>
</g>
<!-- Node10 -->
<g id="node10" class="node">
<title>Node10</title>
<g id="a_node10"><a xlink:title=" ">
<polygon fill="white" stroke="black" points="380.5,-530.5 380.5,-587.5 441.5,-587.5 441.5,-530.5 380.5,-530.5"/>
<text text-anchor="middle" x="411" y="-575.5" font-family="Helvetica,sans-Serif" font-size="10.00">unsigned</text>
<polyline fill="none" stroke="black" points="380.5,-568.5 441.5,-568.5 "/>
<text text-anchor="middle" x="411" y="-556.5" font-family="Helvetica,sans-Serif" font-size="10.00"> </text>
<polyline fill="none" stroke="black" points="380.5,-549.5 441.5,-549.5 "/>
<text text-anchor="middle" x="411" y="-537.5" font-family="Helvetica,sans-Serif" font-size="10.00"> </text>
</a>
</g>
</g>
<!-- Node10&#45;&gt;Node8 -->
<g id="edge11" class="edge">
<title>Node10&#45;&gt;Node8</title>
<path fill="none" stroke="#404040" d="M404.57,-530.23C400.99,-517.51 395.85,-502.52 389,-490 383.11,-479.23 375.4,-468.54 367.61,-458.92"/>
<polygon fill="none" stroke="#404040" points="367.57,-458.88 360.65,-456.87 359.84,-449.7 366.77,-451.72 367.57,-458.88"/>
<text text-anchor="middle" x="435.5" y="-498.5" font-family="Helvetica,sans-Serif" font-size="10.00"> +packed_flags</text>
</g>
<!-- Node11 -->
<g id="node11" class="node">
<title>Node11</title>
<g id="a_node11"><a xlink:title=" ">
<polygon fill="white" stroke="black" points="386.5,-392.5 386.5,-449.5 465.5,-449.5 465.5,-392.5 386.5,-392.5"/>
<text text-anchor="middle" x="426" y="-437.5" font-family="Helvetica,sans-Serif" font-size="10.00">bitset&lt; 64 &gt;</text>
<polyline fill="none" stroke="black" points="386.5,-430.5 465.5,-430.5 "/>
<text text-anchor="middle" x="426" y="-418.5" font-family="Helvetica,sans-Serif" font-size="10.00"> </text>
<polyline fill="none" stroke="black" points="386.5,-411.5 465.5,-411.5 "/>
<text text-anchor="middle" x="426" y="-399.5" font-family="Helvetica,sans-Serif" font-size="10.00"> </text>
</a>
</g>
</g>
<!-- Node11&#45;&gt;Node7 -->
<g id="edge12" class="edge">
<title>Node11&#45;&gt;Node7</title>
<path fill="none" stroke="#404040" d="M407.85,-392.38C396.72,-375.46 382.1,-353.2 368.73,-332.86"/>
<polygon fill="none" stroke="#404040" points="368.68,-332.78 362.04,-329.97 362.09,-322.75 368.72,-325.57 368.68,-332.78"/>
<text text-anchor="middle" x="396.5" y="-344" font-family="Helvetica,sans-Serif" font-size="10.00"> +flags</text>
</g>
<!-- Node12 -->
<g id="node12" class="node">
<title>Node12</title>
<g id="a_node12"><a xlink:title=" ">
<polygon fill="white" stroke="black" points="353,-122 353,-179 403,-179 403,-122 353,-122"/>
<text text-anchor="middle" x="378" y="-167" font-family="Helvetica,sans-Serif" font-size="10.00">double</text>
<polyline fill="none" stroke="black" points="353,-160 403,-160 "/>
<text text-anchor="middle" x="378" y="-148" font-family="Helvetica,sans-Serif" font-size="10.00"> </text>
<polyline fill="none" stroke="black" points="353,-141 403,-141 "/>
<text text-anchor="middle" x="378" y="-129" font-family="Helvetica,sans-Serif" font-size="10.00"> </text>
</a>
</g>
</g>
<!-- Node12&#45;&gt;Node1 -->
<g id="edge13" class="edge">
<title>Node12&#45;&gt;Node1</title>
<path fill="none" stroke="#404040" d="M364.2,-121.9C357.86,-109.22 350.18,-93.85 343.06,-79.62"/>
<polygon fill="none" stroke="#404040" points="342.88,-79.25 336.62,-75.68 337.51,-68.52 343.77,-72.1 342.88,-79.25"/>
<text text-anchor="middle" x="376" y="-90" font-family="Helvetica,sans-Serif" font-size="10.00"> +rotation</text>
</g>
</g>
</svg>
