<?xml version="1.0" encoding="UTF-8" standalone="no"?>
<!DOCTYPE svg PUBLIC "-//W3C//DTD SVG 1.1//EN"
 "http://www.w3.org/Graphics/SVG/1.1/DTD/svg11.dtd">
<!-- Generated by graphviz version 2.43.0 (0)
 -->
<!-- Title: LinkedList Pages: 1 -->
<svg width="699pt" height="474pt"
 viewBox="0.00 0.00 699.09 474.00" xmlns="http://www.w3.org/2000/svg" xmlns:xlink="http://www.w3.org/1999/xlink">
<g id="graph0" class="graph" transform="scale(1 1) rotate(0) translate(4 470)">
<title>LinkedList</title>
<polygon fill="white" stroke="transparent" points="-4,4 -4,-470 695.09,-470 695.09,4 -4,4"/>
<!-- Node1 -->
<g id="node1" class="node">
<title>Node1</title>
<g id="a_node1"><a xlink:title=" ">
<polygon fill="#bfbfbf" stroke="black" points="235.09,-0.5 235.09,-200.5 372.09,-200.5 372.09,-0.5 235.09,-0.5"/>
<text text-anchor="middle" x="303.59" y="-188.5" font-family="Helvetica,sans-Serif" font-size="10.00">LinkedList</text>
<polyline fill="none" stroke="black" points="235.09,-181.5 372.09,-181.5 "/>
<text text-anchor="middle" x="303.59" y="-169.5" font-family="Helvetica,sans-Serif" font-size="10.00"> </text>
<polyline fill="none" stroke="black" points="235.09,-162.5 372.09,-162.5 "/>
<text text-anchor="start" x="243.09" y="-150.5" font-family="Helvetica,sans-Serif" font-size="10.00">+ get_current_id()</text>
<text text-anchor="start" x="243.09" y="-139.5" font-family="Helvetica,sans-Serif" font-size="10.00">+ set_list_sizing_mode()</text>
<text text-anchor="start" x="243.09" y="-128.5" font-family="Helvetica,sans-Serif" font-size="10.00">+ set_max_list_size()</text>
<text text-anchor="start" x="243.09" y="-117.5" font-family="Helvetica,sans-Serif" font-size="10.00">+ retrieve_head()</text>
<text text-anchor="start" x="243.09" y="-106.5" font-family="Helvetica,sans-Serif" font-size="10.00">+ retrieve_tail()</text>
<text text-anchor="start" x="243.09" y="-95.5" font-family="Helvetica,sans-Serif" font-size="10.00">+ store_at_head()</text>
<text text-anchor="start" x="243.09" y="-84.5" font-family="Helvetica,sans-Serif" font-size="10.00">+ store_at_tail()</text>
<text text-anchor="start" x="243.09" y="-73.5" font-family="Helvetica,sans-Serif" font-size="10.00">+ store_after_current</text>
<text text-anchor="start" x="243.09" y="-62.5" font-family="Helvetica,sans-Serif" font-size="10.00">_node()</text>
<text text-anchor="start" x="243.09" y="-51.5" font-family="Helvetica,sans-Serif" font-size="10.00">+ store_before_current</text>
<text text-anchor="start" x="243.09" y="-40.5" font-family="Helvetica,sans-Serif" font-size="10.00">_node()</text>
<text text-anchor="start" x="243.09" y="-29.5" font-family="Helvetica,sans-Serif" font-size="10.00">+ get_newest_id()</text>
<text text-anchor="start" x="243.09" y="-18.5" font-family="Helvetica,sans-Serif" font-size="10.00">and 15 more...</text>
<text text-anchor="start" x="243.09" y="-7.5" font-family="Helvetica,sans-Serif" font-size="10.00">&#45; LinkedList()</text>
</a>
</g>
</g>
<!-- Node2 -->
<g id="node2" class="node">
<title>Node2</title>
<g id="a_node2"><a xlink:href="classLinkedListNode.html" target="_top" xlink:title=" ">
<polygon fill="white" stroke="black" points="244.59,-281.5 244.59,-349.5 362.59,-349.5 362.59,-281.5 244.59,-281.5"/>
<text text-anchor="middle" x="303.59" y="-337.5" font-family="Helvetica,sans-Serif" font-size="10.00">LinkedListNode</text>
<polyline fill="none" stroke="black" points="244.59,-330.5 362.59,-330.5 "/>
<text text-anchor="middle" x="303.59" y="-318.5" font-family="Helvetica,sans-Serif" font-size="10.00"> </text>
<polyline fill="none" stroke="black" points="244.59,-311.5 362.59,-311.5 "/>
<text text-anchor="start" x="252.59" y="-299.5" font-family="Helvetica,sans-Serif" font-size="10.00">+ LinkedListNode()</text>
<text text-anchor="start" x="252.59" y="-288.5" font-family="Helvetica,sans-Serif" font-size="10.00">+ ~LinkedListNode()</text>
</a>
</g>
</g>
<!-- Node2&#45;&gt;Node1 -->
<g id="edge1" class="edge">
<title>Node2&#45;&gt;Node1</title>
<path fill="none" stroke="#404040" d="M303.59,-281.22C303.59,-262.52 303.59,-237.98 303.59,-213.06"/>
<polygon fill="none" stroke="#404040" points="303.59,-212.83 299.59,-206.83 303.59,-200.83 307.59,-206.83 303.59,-212.83"/>
<text text-anchor="middle" x="341.59" y="-255" font-family="Helvetica,sans-Serif" font-size="10.00"> #current_node</text>
<text text-anchor="middle" x="341.59" y="-244" font-family="Helvetica,sans-Serif" font-size="10.00">#extra_node</text>
<text text-anchor="middle" x="341.59" y="-233" font-family="Helvetica,sans-Serif" font-size="10.00">#head</text>
<text text-anchor="middle" x="341.59" y="-222" font-family="Helvetica,sans-Serif" font-size="10.00">#tail</text>
</g>
<!-- Node2&#45;&gt;Node2 -->
<g id="edge5" class="edge">
<title>Node2&#45;&gt;Node2</title>
<path fill="none" stroke="#404040" d="M362.67,-326.44C373.22,-325.02 380.59,-321.37 380.59,-315.5 380.59,-312.2 378.26,-309.6 374.34,-307.7"/>
<polygon fill="none" stroke="#404040" points="374.25,-307.68 367.42,-309.98 362.67,-304.56 369.5,-302.26 374.25,-307.68"/>
<text text-anchor="middle" x="396.09" y="-318.5" font-family="Helvetica,sans-Serif" font-size="10.00"> +last</text>
<text text-anchor="middle" x="396.09" y="-307.5" font-family="Helvetica,sans-Serif" font-size="10.00">+next</text>
</g>
<!-- Node3 -->
<g id="node3" class="node">
<title>Node3</title>
<g id="a_node3"><a xlink:title=" ">
<polygon fill="white" stroke="black" points="9.59,-408.5 9.59,-465.5 55.59,-465.5 55.59,-408.5 9.59,-408.5"/>
<text text-anchor="middle" x="32.59" y="-453.5" font-family="Helvetica,sans-Serif" font-size="10.00">void *</text>
<polyline fill="none" stroke="black" points="9.59,-446.5 55.59,-446.5 "/>
<text text-anchor="middle" x="32.59" y="-434.5" font-family="Helvetica,sans-Serif" font-size="10.00"> </text>
<polyline fill="none" stroke="black" points="9.59,-427.5 55.59,-427.5 "/>
<text text-anchor="middle" x="32.59" y="-415.5" font-family="Helvetica,sans-Serif" font-size="10.00"> </text>
</a>
</g>
</g>
<!-- Node3&#45;&gt;Node1 -->
<g id="edge9" class="edge">
<title>Node3&#45;&gt;Node1</title>
<path fill="none" stroke="#404040" d="M19.2,-408.34C5.52,-375.78 -10.81,-321.06 11.59,-281 56.5,-200.68 153.7,-151.9 223.63,-125.86"/>
<polygon fill="none" stroke="#404040" points="223.76,-125.81 228.04,-120.01 235.04,-121.72 230.77,-127.53 223.76,-125.81"/>
<text text-anchor="middle" x="64.59" y="-318.5" font-family="Helvetica,sans-Serif" font-size="10.00"> +last_data_retrieved</text>
<text text-anchor="middle" x="64.59" y="-307.5" font-family="Helvetica,sans-Serif" font-size="10.00">+last_data_stored</text>
</g>
<!-- Node3&#45;&gt;Node2 -->
<g id="edge2" class="edge">
<title>Node3&#45;&gt;Node2</title>
<path fill="none" stroke="#404040" d="M55.67,-422.53C81.88,-407.66 126.24,-383.74 166.59,-368 194.12,-357.26 202.85,-360.19 230.59,-350 231.45,-349.68 232.31,-349.36 233.18,-349.04"/>
<polygon fill="none" stroke="#404040" points="233.39,-348.95 237.5,-343.02 244.55,-344.53 240.45,-350.46 233.39,-348.95"/>
<text text-anchor="middle" x="183.59" y="-376.5" font-family="Helvetica,sans-Serif" font-size="10.00"> +data</text>
</g>
<!-- Node4 -->
<g id="node4" class="node">
<title>Node4</title>
<g id="a_node4"><a xlink:title=" ">
<polygon fill="white" stroke="black" points="113.09,-408.5 113.09,-465.5 158.09,-465.5 158.09,-408.5 113.09,-408.5"/>
<text text-anchor="middle" x="135.59" y="-453.5" font-family="Helvetica,sans-Serif" font-size="10.00">size_t</text>
<polyline fill="none" stroke="black" points="113.09,-446.5 158.09,-446.5 "/>
<text text-anchor="middle" x="135.59" y="-434.5" font-family="Helvetica,sans-Serif" font-size="10.00"> </text>
<polyline fill="none" stroke="black" points="113.09,-427.5 158.09,-427.5 "/>
<text text-anchor="middle" x="135.59" y="-415.5" font-family="Helvetica,sans-Serif" font-size="10.00"> </text>
</a>
</g>
</g>
<!-- Node4&#45;&gt;Node1 -->
<g id="edge8" class="edge">
<title>Node4&#45;&gt;Node1</title>
<path fill="none" stroke="#404040" d="M128.46,-408.24C121.68,-376.28 114.78,-322.84 131.59,-281 150.79,-233.21 189.47,-190.97 225.29,-159.49"/>
<polygon fill="none" stroke="#404040" points="225.7,-159.13 227.65,-152.19 234.81,-151.31 232.86,-158.25 225.7,-159.13"/>
<text text-anchor="middle" x="183.59" y="-318.5" font-family="Helvetica,sans-Serif" font-size="10.00"> +last_size_retrieved</text>
<text text-anchor="middle" x="183.59" y="-307.5" font-family="Helvetica,sans-Serif" font-size="10.00">+last_size_stored</text>
</g>
<!-- Node4&#45;&gt;Node2 -->
<g id="edge3" class="edge">
<title>Node4&#45;&gt;Node2</title>
<path fill="none" stroke="#404040" d="M158.25,-419.88C180.86,-403.8 216.51,-378.44 246.84,-356.87"/>
<polygon fill="none" stroke="#404040" points="247.12,-356.67 249.69,-349.93 256.9,-349.71 254.33,-356.45 247.12,-356.67"/>
<text text-anchor="middle" x="246.09" y="-376.5" font-family="Helvetica,sans-Serif" font-size="10.00"> +size</text>
</g>
<!-- Node5 -->
<g id="node5" class="node">
<title>Node5</title>
<g id="a_node5"><a xlink:title=" ">
<polygon fill="white" stroke="black" points="382.09,-408.5 382.09,-465.5 411.09,-465.5 411.09,-408.5 382.09,-408.5"/>
<text text-anchor="middle" x="396.59" y="-453.5" font-family="Helvetica,sans-Serif" font-size="10.00">int</text>
<polyline fill="none" stroke="black" points="382.09,-446.5 411.09,-446.5 "/>
<text text-anchor="middle" x="396.59" y="-434.5" font-family="Helvetica,sans-Serif" font-size="10.00"> </text>
<polyline fill="none" stroke="black" points="382.09,-427.5 411.09,-427.5 "/>
<text text-anchor="middle" x="396.59" y="-415.5" font-family="Helvetica,sans-Serif" font-size="10.00"> </text>
</a>
</g>
</g>
<!-- Node5&#45;&gt;Node1 -->
<g id="edge6" class="edge">
<title>Node5&#45;&gt;Node1</title>
<path fill="none" stroke="#404040" d="M407.76,-408.44C418.86,-377.13 432.64,-324.71 420.59,-281 412.13,-250.31 396.25,-220.09 378.86,-193.44"/>
<polygon fill="none" stroke="#404040" points="378.82,-193.38 372.16,-190.62 372.14,-183.41 378.8,-186.17 378.82,-193.38"/>
<text text-anchor="middle" x="482.59" y="-340.5" font-family="Helvetica,sans-Serif" font-size="10.00"> #next_node_id</text>
<text text-anchor="start" x="425.59" y="-329.5" font-family="Helvetica,sans-Serif" font-size="10.00">+delete_data_not</text>
<text text-anchor="middle" x="482.59" y="-318.5" font-family="Helvetica,sans-Serif" font-size="10.00">_copied</text>
<text text-anchor="middle" x="482.59" y="-307.5" font-family="Helvetica,sans-Serif" font-size="10.00">+last_copied_retrieved</text>
<text text-anchor="middle" x="482.59" y="-296.5" font-family="Helvetica,sans-Serif" font-size="10.00">+list_size</text>
<text text-anchor="middle" x="482.59" y="-285.5" font-family="Helvetica,sans-Serif" font-size="10.00">+max_list_size</text>
</g>
<!-- Node5&#45;&gt;Node2 -->
<g id="edge4" class="edge">
<title>Node5&#45;&gt;Node2</title>
<path fill="none" stroke="#404040" d="M382.06,-417.33C370.03,-401.87 352.47,-379.31 337.01,-359.44"/>
<polygon fill="none" stroke="#404040" points="336.99,-359.42 330.15,-357.14 329.62,-349.95 336.46,-352.22 336.99,-359.42"/>
<text text-anchor="middle" x="380.59" y="-382" font-family="Helvetica,sans-Serif" font-size="10.00"> +copied</text>
<text text-anchor="middle" x="380.59" y="-371" font-family="Helvetica,sans-Serif" font-size="10.00">+id</text>
</g>
<!-- Node6 -->
<g id="node6" class="node">
<title>Node6</title>
<g id="a_node6"><a xlink:title=" ">
<polygon fill="white" stroke="black" points="580.09,-287 580.09,-344 691.09,-344 691.09,-287 580.09,-287"/>
<text text-anchor="middle" x="635.59" y="-332" font-family="Helvetica,sans-Serif" font-size="10.00">LIST_SIZING_MODE</text>
<polyline fill="none" stroke="black" points="580.09,-325 691.09,-325 "/>
<text text-anchor="middle" x="635.59" y="-313" font-family="Helvetica,sans-Serif" font-size="10.00"> </text>
<polyline fill="none" stroke="black" points="580.09,-306 691.09,-306 "/>
<text text-anchor="middle" x="635.59" y="-294" font-family="Helvetica,sans-Serif" font-size="10.00"> </text>
</a>
</g>
</g>
<!-- Node6&#45;&gt;Node1 -->
<g id="edge7" class="edge">
<title>Node6&#45;&gt;Node1</title>
<path fill="none" stroke="#404040" d="M592.53,-286.87C539.48,-252.84 448.34,-194.37 382.58,-152.18"/>
<polygon fill="none" stroke="#404040" points="382.36,-152.04 375.15,-152.16 372.26,-145.56 379.47,-145.43 382.36,-152.04"/>
<text text-anchor="middle" x="582.09" y="-238.5" font-family="Helvetica,sans-Serif" font-size="10.00"> +sizing_mode</text>
</g>
</g>
</svg>
