<?xml version="1.0" encoding="UTF-8" standalone="no"?>
<!DOCTYPE svg PUBLIC "-//W3C//DTD SVG 1.1//EN"
 "http://www.w3.org/Graphics/SVG/1.1/DTD/svg11.dtd">
<!-- Generated by graphviz version 2.43.0 (0)
 -->
<!-- Title: EMC_JOG_CMD_MSG Pages: 1 -->
<!--zoomable 458 -->
<svg id="main" version="1.1" xmlns="http://www.w3.org/2000/svg" xmlns:xlink="http://www.w3.org/1999/xlink" xml:space="preserve" onload="init(evt)">
<style type="text/css"><![CDATA[
.edge:hover path { stroke: red; }
.edge:hover polygon { stroke: red; fill: red; }
]]></style>
<script type="text/javascript"><![CDATA[
var edges = document.getElementsByTagName('g');
if (edges && edges.length) {
  for (var i=0;i<edges.length;i++) {
    if (edges[i].id.substr(0,4)=='edge') {
      edges[i].setAttribute('class','edge');
    }
  }
}
]]></script>
        <defs>
                <circle id="rim" cx="0" cy="0" r="7"/>
                <circle id="rim2" cx="0" cy="0" r="3.5"/>
                <g id="zoomPlus">
                        <use xlink:href="#rim" fill="#404040">
                                <set attributeName="fill" to="#808080" begin="zoomplus.mouseover" end="zoomplus.mouseout"/>
                        </use>
                        <path d="M-4,0h8M0,-4v8" fill="none" stroke="white" stroke-width="1.5" pointer-events="none"/>
                </g>
                <g id="zoomMin">
                        <use xlink:href="#rim" fill="#404040">
                                <set attributeName="fill" to="#808080" begin="zoomminus.mouseover" end="zoomminus.mouseout"/>
                        </use>
                        <path d="M-4,0h8" fill="none" stroke="white" stroke-width="1.5" pointer-events="none"/>
                </g>
                <g id="dirArrow">
                        <path fill="none" stroke="white" stroke-width="1.5" d="M0,-3.0v7 M-2.5,-0.5L0,-3.0L2.5,-0.5"/>
                </g>
               <g id="resetDef">
                       <use xlink:href="#rim2" fill="#404040">
                               <set attributeName="fill" to="#808080" begin="reset.mouseover" end="reset.mouseout"/>
                       </use>
               </g>
        </defs>

<script type="text/javascript">
var viewWidth = 502;
var viewHeight = 458;
var sectionId = 'dynsection-0';
</script>
<script xlink:href="svgpan.js"/>
<svg id="graph" class="graph">
<g id="viewport">
<title>EMC_JOG_CMD_MSG</title>
<polygon fill="white" stroke="transparent" points="-4,4 -4,-454 498,-454 498,4 -4,4"/>
<!-- Node1 -->
<g id="node1" class="node">
<title>Node1</title>
<g id="a_node1"><a xlink:title=" ">
<polygon fill="#bfbfbf" stroke="black" points="176,-127.5 176,-195.5 313,-195.5 313,-127.5 176,-127.5"/>
<text text-anchor="middle" x="244.5" y="-183.5" font-family="Helvetica,sans-Serif" font-size="10.00">EMC_JOG_CMD_MSG</text>
<polyline fill="none" stroke="black" points="176,-176.5 313,-176.5 "/>
<text text-anchor="start" x="184" y="-164.5" font-family="Helvetica,sans-Serif" font-size="10.00">+ joint_or_axis</text>
<polyline fill="none" stroke="black" points="176,-157.5 313,-157.5 "/>
<text text-anchor="start" x="184" y="-145.5" font-family="Helvetica,sans-Serif" font-size="10.00">+ EMC_JOG_CMD_MSG()</text>
<text text-anchor="start" x="184" y="-134.5" font-family="Helvetica,sans-Serif" font-size="10.00">+ update()</text>
</a>
</g>
</g>
<!-- Node4 -->
<g id="node4" class="node">
<title>Node4</title>
<g id="a_node4"><a xlink:href="classEMC__JOG__ABS.html" target="_top" xlink:title=" ">
<polygon fill="white" stroke="black" points="0,-0.5 0,-90.5 105,-90.5 105,-0.5 0,-0.5"/>
<text text-anchor="middle" x="52.5" y="-78.5" font-family="Helvetica,sans-Serif" font-size="10.00">EMC_JOG_ABS</text>
<polyline fill="none" stroke="black" points="0,-71.5 105,-71.5 "/>
<text text-anchor="start" x="8" y="-59.5" font-family="Helvetica,sans-Serif" font-size="10.00">+ pos</text>
<text text-anchor="start" x="8" y="-48.5" font-family="Helvetica,sans-Serif" font-size="10.00">+ vel</text>
<text text-anchor="start" x="8" y="-37.5" font-family="Helvetica,sans-Serif" font-size="10.00">+ jjogmode</text>
<polyline fill="none" stroke="black" points="0,-30.5 105,-30.5 "/>
<text text-anchor="start" x="8" y="-18.5" font-family="Helvetica,sans-Serif" font-size="10.00">+ EMC_JOG_ABS()</text>
<text text-anchor="start" x="8" y="-7.5" font-family="Helvetica,sans-Serif" font-size="10.00">+ update()</text>
</a>
</g>
</g>
<!-- Node1&#45;&gt;Node4 -->
<g id="edge3" class="edge">
<title>Node1&#45;&gt;Node4</title>
<path fill="none" stroke="midnightblue" d="M168.88,-122.74C150.47,-112.9 131.04,-101.97 113.5,-91 110.72,-89.26 107.9,-87.44 105.08,-85.56"/>
<polygon fill="none" stroke="midnightblue" points="167.35,-125.89 177.83,-127.47 170.63,-119.7 167.35,-125.89"/>
</g>
<!-- Node5 -->
<g id="node5" class="node">
<title>Node5</title>
<g id="a_node5"><a xlink:href="classEMC__JOG__CONT.html" target="_top" xlink:title=" ">
<polygon fill="white" stroke="black" points="123,-6 123,-85 236,-85 236,-6 123,-6"/>
<text text-anchor="middle" x="179.5" y="-73" font-family="Helvetica,sans-Serif" font-size="10.00">EMC_JOG_CONT</text>
<polyline fill="none" stroke="black" points="123,-66 236,-66 "/>
<text text-anchor="start" x="131" y="-54" font-family="Helvetica,sans-Serif" font-size="10.00">+ vel</text>
<text text-anchor="start" x="131" y="-43" font-family="Helvetica,sans-Serif" font-size="10.00">+ jjogmode</text>
<polyline fill="none" stroke="black" points="123,-36 236,-36 "/>
<text text-anchor="start" x="131" y="-24" font-family="Helvetica,sans-Serif" font-size="10.00">+ EMC_JOG_CONT()</text>
<text text-anchor="start" x="131" y="-13" font-family="Helvetica,sans-Serif" font-size="10.00">+ update()</text>
</a>
</g>
</g>
<!-- Node1&#45;&gt;Node5 -->
<g id="edge4" class="edge">
<title>Node1&#45;&gt;Node5</title>
<path fill="none" stroke="midnightblue" d="M220.46,-118.34C214.28,-107.5 207.67,-95.9 201.59,-85.25"/>
<polygon fill="none" stroke="midnightblue" points="217.53,-120.27 225.52,-127.22 223.61,-116.8 217.53,-120.27"/>
</g>
<!-- Node6 -->
<g id="node6" class="node">
<title>Node6</title>
<g id="a_node6"><a xlink:href="classEMC__JOG__INCR.html" target="_top" xlink:title=" ">
<polygon fill="white" stroke="black" points="254.5,-0.5 254.5,-90.5 364.5,-90.5 364.5,-0.5 254.5,-0.5"/>
<text text-anchor="middle" x="309.5" y="-78.5" font-family="Helvetica,sans-Serif" font-size="10.00">EMC_JOG_INCR</text>
<polyline fill="none" stroke="black" points="254.5,-71.5 364.5,-71.5 "/>
<text text-anchor="start" x="262.5" y="-59.5" font-family="Helvetica,sans-Serif" font-size="10.00">+ incr</text>
<text text-anchor="start" x="262.5" y="-48.5" font-family="Helvetica,sans-Serif" font-size="10.00">+ vel</text>
<text text-anchor="start" x="262.5" y="-37.5" font-family="Helvetica,sans-Serif" font-size="10.00">+ jjogmode</text>
<polyline fill="none" stroke="black" points="254.5,-30.5 364.5,-30.5 "/>
<text text-anchor="start" x="262.5" y="-18.5" font-family="Helvetica,sans-Serif" font-size="10.00">+ EMC_JOG_INCR()</text>
<text text-anchor="start" x="262.5" y="-7.5" font-family="Helvetica,sans-Serif" font-size="10.00">+ update()</text>
</a>
</g>
</g>
<!-- Node1&#45;&gt;Node6 -->
<g id="edge5" class="edge">
<title>Node1&#45;&gt;Node6</title>
<path fill="none" stroke="midnightblue" d="M268.51,-118.39C273.67,-109.34 279.13,-99.76 284.33,-90.64"/>
<polygon fill="none" stroke="midnightblue" points="265.39,-116.8 263.48,-127.22 271.47,-120.27 265.39,-116.8"/>
</g>
<!-- Node7 -->
<g id="node7" class="node">
<title>Node7</title>
<g id="a_node7"><a xlink:href="classEMC__JOG__STOP.html" target="_top" xlink:title=" ">
<polygon fill="white" stroke="black" points="383,-11.5 383,-79.5 494,-79.5 494,-11.5 383,-11.5"/>
<text text-anchor="middle" x="438.5" y="-67.5" font-family="Helvetica,sans-Serif" font-size="10.00">EMC_JOG_STOP</text>
<polyline fill="none" stroke="black" points="383,-60.5 494,-60.5 "/>
<text text-anchor="start" x="391" y="-48.5" font-family="Helvetica,sans-Serif" font-size="10.00">+ jjogmode</text>
<polyline fill="none" stroke="black" points="383,-41.5 494,-41.5 "/>
<text text-anchor="start" x="391" y="-29.5" font-family="Helvetica,sans-Serif" font-size="10.00">+ EMC_JOG_STOP()</text>
<text text-anchor="start" x="391" y="-18.5" font-family="Helvetica,sans-Serif" font-size="10.00">+ update()</text>
</a>
</g>
</g>
<!-- Node1&#45;&gt;Node7 -->
<g id="edge6" class="edge">
<title>Node1&#45;&gt;Node7</title>
<path fill="none" stroke="midnightblue" d="M318.12,-122.58C336.43,-112.67 355.86,-101.75 373.5,-91 379.34,-87.44 385.38,-83.58 391.31,-79.66"/>
<polygon fill="none" stroke="midnightblue" points="316.38,-119.54 309.23,-127.35 319.7,-125.7 316.38,-119.54"/>
</g>
<!-- Node2 -->
<g id="node2" class="node">
<title>Node2</title>
<g id="a_node2"><a xlink:href="classRCS__CMD__MSG.html" target="_top" xlink:title=" ">
<polygon fill="white" stroke="black" points="189,-232.5 189,-289.5 300,-289.5 300,-232.5 189,-232.5"/>
<text text-anchor="middle" x="244.5" y="-277.5" font-family="Helvetica,sans-Serif" font-size="10.00">RCS_CMD_MSG</text>
<polyline fill="none" stroke="black" points="189,-270.5 300,-270.5 "/>
<text text-anchor="start" x="197" y="-258.5" font-family="Helvetica,sans-Serif" font-size="10.00">+ serial_number</text>
<polyline fill="none" stroke="black" points="189,-251.5 300,-251.5 "/>
<text text-anchor="start" x="197" y="-239.5" font-family="Helvetica,sans-Serif" font-size="10.00">+ RCS_CMD_MSG()</text>
</a>
</g>
</g>
<!-- Node2&#45;&gt;Node1 -->
<g id="edge1" class="edge">
<title>Node2&#45;&gt;Node1</title>
<path fill="none" stroke="midnightblue" d="M244.5,-222.06C244.5,-213.39 244.5,-204.24 244.5,-195.79"/>
<polygon fill="none" stroke="midnightblue" points="241,-222.32 244.5,-232.32 248,-222.32 241,-222.32"/>
</g>
<!-- Node3 -->
<g id="node3" class="node">
<title>Node3</title>
<g id="a_node3"><a xlink:href="classNMLmsg.html" target="_top" xlink:title=" ">
<polygon fill="white" stroke="black" points="182,-326.5 182,-449.5 307,-449.5 307,-326.5 182,-326.5"/>
<text text-anchor="middle" x="244.5" y="-437.5" font-family="Helvetica,sans-Serif" font-size="10.00">NMLmsg</text>
<polyline fill="none" stroke="black" points="182,-430.5 307,-430.5 "/>
<text text-anchor="start" x="190" y="-418.5" font-family="Helvetica,sans-Serif" font-size="10.00">+ type</text>
<text text-anchor="start" x="190" y="-407.5" font-family="Helvetica,sans-Serif" font-size="10.00">+ size</text>
<text text-anchor="start" x="190" y="-396.5" font-family="Helvetica,sans-Serif" font-size="10.00">+ automatically_clear</text>
<polyline fill="none" stroke="black" points="182,-389.5 307,-389.5 "/>
<text text-anchor="start" x="190" y="-377.5" font-family="Helvetica,sans-Serif" font-size="10.00">+ clear()</text>
<text text-anchor="start" x="190" y="-366.5" font-family="Helvetica,sans-Serif" font-size="10.00">+ update()</text>
<text text-anchor="start" x="190" y="-355.5" font-family="Helvetica,sans-Serif" font-size="10.00"># NMLmsg()</text>
<text text-anchor="start" x="190" y="-344.5" font-family="Helvetica,sans-Serif" font-size="10.00"># NMLmsg()</text>
<text text-anchor="start" x="190" y="-333.5" font-family="Helvetica,sans-Serif" font-size="10.00"># NMLmsg()</text>
</a>
</g>
</g>
<!-- Node3&#45;&gt;Node2 -->
<g id="edge2" class="edge">
<title>Node3&#45;&gt;Node2</title>
<path fill="none" stroke="midnightblue" d="M244.5,-316.14C244.5,-306.8 244.5,-297.71 244.5,-289.74"/>
<polygon fill="none" stroke="midnightblue" points="241,-316.33 244.5,-326.33 248,-316.33 241,-316.33"/>
</g>
</g>
</svg>
        <g id="navigator" transform="translate(0 0)" fill="#404254">
                <rect fill="#f2f5e9" fill-opacity="0.5" stroke="#606060" stroke-width=".5" x="0" y="0" width="60" height="60"/>
                <use id="zoomplus" xlink:href="#zoomPlus" x="17" y="9" onmousedown="handleZoom(evt,'in')"/>
                <use id="zoomminus" xlink:href="#zoomMin" x="42" y="9" onmousedown="handleZoom(evt,'out')"/>
                <use id="reset" xlink:href="#resetDef" x="30" y="36" onmousedown="handleReset()"/>
                <g id="arrowUp" xlink:href="#dirArrow" transform="translate(30 24)" onmousedown="handlePan(0,-1)">
                  <use xlink:href="#rim" fill="#404040">
                        <set attributeName="fill" to="#808080" begin="arrowUp.mouseover" end="arrowUp.mouseout"/>
                  </use>
                  <path fill="none" stroke="white" stroke-width="1.5" d="M0,-3.0v7 M-2.5,-0.5L0,-3.0L2.5,-0.5"/>
                </g>
                <g id="arrowRight" xlink:href="#dirArrow" transform="rotate(90) translate(36 -43)" onmousedown="handlePan(1,0)">
                  <use xlink:href="#rim" fill="#404040">
                        <set attributeName="fill" to="#808080" begin="arrowRight.mouseover" end="arrowRight.mouseout"/>
                  </use>
                  <path fill="none" stroke="white" stroke-width="1.5" d="M0,-3.0v7 M-2.5,-0.5L0,-3.0L2.5,-0.5"/>
                </g>
                <g id="arrowDown" xlink:href="#dirArrow" transform="rotate(180) translate(-30 -48)" onmousedown="handlePan(0,1)">
                  <use xlink:href="#rim" fill="#404040">
                        <set attributeName="fill" to="#808080" begin="arrowDown.mouseover" end="arrowDown.mouseout"/>
                  </use>
                  <path fill="none" stroke="white" stroke-width="1.5" d="M0,-3.0v7 M-2.5,-0.5L0,-3.0L2.5,-0.5"/>
                </g>
                <g id="arrowLeft" xlink:href="#dirArrow" transform="rotate(270) translate(-36 17)" onmousedown="handlePan(-1,0)">
                  <use xlink:href="#rim" fill="#404040">
                        <set attributeName="fill" to="#808080" begin="arrowLeft.mouseover" end="arrowLeft.mouseout"/>
                  </use>
                  <path fill="none" stroke="white" stroke-width="1.5" d="M0,-3.0v7 M-2.5,-0.5L0,-3.0L2.5,-0.5"/>
                </g>
        </g>
        <svg viewBox="0 0 15 15" width="100%" height="30px" preserveAspectRatio="xMaxYMin meet">
         <g id="arrow_out" transform="scale(0.3 0.3)">
          <a xlink:href="classEMC__JOG__CMD__MSG__inherit__graph_org.svg" target="_base">
           <rect id="button" ry="5" rx="5" y="6" x="6" height="38" width="38"
                fill="#f2f5e9" fill-opacity="0.5" stroke="#606060" stroke-width="1.0"/>
           <path id="arrow"
             d="M 11.500037,31.436501 C 11.940474,20.09759 22.043105,11.32322 32.158766,21.979434 L 37.068811,17.246167 C 37.068811,17.246167 37.088388,32 37.088388,32 L 22.160133,31.978069 C 22.160133,31.978069 26.997745,27.140456 26.997745,27.140456 C 18.528582,18.264221 13.291696,25.230495 11.500037,31.436501 z"
             style="fill:#404040;"/>
          </a>
         </g>
        </svg>
</svg>
