<?xml version="1.0" encoding="UTF-8" standalone="no"?>
<!DOCTYPE svg PUBLIC "-//W3C//DTD SVG 1.1//EN"
 "http://www.w3.org/Graphics/SVG/1.1/DTD/svg11.dtd">
<!-- Generated by graphviz version 2.43.0 (0)
 -->
<!-- Title: EMC_TRAJ_SET_SPINDLESYNC Pages: 1 -->
<svg width="189pt" height="458pt"
 viewBox="0.00 0.00 189.00 458.00" xmlns="http://www.w3.org/2000/svg" xmlns:xlink="http://www.w3.org/1999/xlink">
<g id="graph0" class="graph" transform="scale(1 1) rotate(0) translate(4 454)">
<title>EMC_TRAJ_SET_SPINDLESYNC</title>
<polygon fill="white" stroke="transparent" points="-4,4 -4,-454 185,-454 185,4 -4,4"/>
<!-- Node1 -->
<g id="node1" class="node">
<title>Node1</title>
<g id="a_node1"><a xlink:title=" ">
<polygon fill="#bfbfbf" stroke="black" points="0,-0.5 0,-90.5 181,-90.5 181,-0.5 0,-0.5"/>
<text text-anchor="middle" x="90.5" y="-78.5" font-family="Helvetica,sans-Serif" font-size="10.00">EMC_TRAJ_SET_SPINDLESYNC</text>
<polyline fill="none" stroke="black" points="0,-71.5 181,-71.5 "/>
<text text-anchor="start" x="8" y="-59.5" font-family="Helvetica,sans-Serif" font-size="10.00">+ spindle</text>
<text text-anchor="start" x="8" y="-48.5" font-family="Helvetica,sans-Serif" font-size="10.00">+ feed_per_revolution</text>
<text text-anchor="start" x="8" y="-37.5" font-family="Helvetica,sans-Serif" font-size="10.00">+ velocity_mode</text>
<polyline fill="none" stroke="black" points="0,-30.5 181,-30.5 "/>
<text text-anchor="start" x="8" y="-18.5" font-family="Helvetica,sans-Serif" font-size="10.00">+ EMC_TRAJ_SET_SPINDLESYNC()</text>
<text text-anchor="start" x="8" y="-7.5" font-family="Helvetica,sans-Serif" font-size="10.00">+ update()</text>
</a>
</g>
</g>
<!-- Node2 -->
<g id="node2" class="node">
<title>Node2</title>
<g id="a_node2"><a xlink:href="classEMC__TRAJ__CMD__MSG.html" target="_top" xlink:title=" ">
<polygon fill="white" stroke="black" points="20,-127.5 20,-195.5 161,-195.5 161,-127.5 20,-127.5"/>
<text text-anchor="middle" x="90.5" y="-183.5" font-family="Helvetica,sans-Serif" font-size="10.00">EMC_TRAJ_CMD_MSG</text>
<polyline fill="none" stroke="black" points="20,-176.5 161,-176.5 "/>
<text text-anchor="start" x="28" y="-164.5" font-family="Helvetica,sans-Serif" font-size="10.00">+ tag</text>
<polyline fill="none" stroke="black" points="20,-157.5 161,-157.5 "/>
<text text-anchor="start" x="28" y="-145.5" font-family="Helvetica,sans-Serif" font-size="10.00">+ EMC_TRAJ_CMD_MSG()</text>
<text text-anchor="start" x="28" y="-134.5" font-family="Helvetica,sans-Serif" font-size="10.00">+ update()</text>
</a>
</g>
</g>
<!-- Node2&#45;&gt;Node1 -->
<g id="edge1" class="edge">
<title>Node2&#45;&gt;Node1</title>
<path fill="none" stroke="midnightblue" d="M90.5,-116.97C90.5,-108.35 90.5,-99.28 90.5,-90.64"/>
<polygon fill="none" stroke="midnightblue" points="87,-117.22 90.5,-127.22 94,-117.22 87,-117.22"/>
</g>
<!-- Node3 -->
<g id="node3" class="node">
<title>Node3</title>
<g id="a_node3"><a xlink:href="classRCS__CMD__MSG.html" target="_top" xlink:title=" ">
<polygon fill="white" stroke="black" points="35,-232.5 35,-289.5 146,-289.5 146,-232.5 35,-232.5"/>
<text text-anchor="middle" x="90.5" y="-277.5" font-family="Helvetica,sans-Serif" font-size="10.00">RCS_CMD_MSG</text>
<polyline fill="none" stroke="black" points="35,-270.5 146,-270.5 "/>
<text text-anchor="start" x="43" y="-258.5" font-family="Helvetica,sans-Serif" font-size="10.00">+ serial_number</text>
<polyline fill="none" stroke="black" points="35,-251.5 146,-251.5 "/>
<text text-anchor="start" x="43" y="-239.5" font-family="Helvetica,sans-Serif" font-size="10.00">+ RCS_CMD_MSG()</text>
</a>
</g>
</g>
<!-- Node3&#45;&gt;Node2 -->
<g id="edge2" class="edge">
<title>Node3&#45;&gt;Node2</title>
<path fill="none" stroke="midnightblue" d="M90.5,-222.06C90.5,-213.39 90.5,-204.24 90.5,-195.79"/>
<polygon fill="none" stroke="midnightblue" points="87,-222.32 90.5,-232.32 94,-222.32 87,-222.32"/>
</g>
<!-- Node4 -->
<g id="node4" class="node">
<title>Node4</title>
<g id="a_node4"><a xlink:href="classNMLmsg.html" target="_top" xlink:title=" ">
<polygon fill="white" stroke="black" points="28,-326.5 28,-449.5 153,-449.5 153,-326.5 28,-326.5"/>
<text text-anchor="middle" x="90.5" y="-437.5" font-family="Helvetica,sans-Serif" font-size="10.00">NMLmsg</text>
<polyline fill="none" stroke="black" points="28,-430.5 153,-430.5 "/>
<text text-anchor="start" x="36" y="-418.5" font-family="Helvetica,sans-Serif" font-size="10.00">+ type</text>
<text text-anchor="start" x="36" y="-407.5" font-family="Helvetica,sans-Serif" font-size="10.00">+ size</text>
<text text-anchor="start" x="36" y="-396.5" font-family="Helvetica,sans-Serif" font-size="10.00">+ automatically_clear</text>
<polyline fill="none" stroke="black" points="28,-389.5 153,-389.5 "/>
<text text-anchor="start" x="36" y="-377.5" font-family="Helvetica,sans-Serif" font-size="10.00">+ clear()</text>
<text text-anchor="start" x="36" y="-366.5" font-family="Helvetica,sans-Serif" font-size="10.00">+ update()</text>
<text text-anchor="start" x="36" y="-355.5" font-family="Helvetica,sans-Serif" font-size="10.00"># NMLmsg()</text>
<text text-anchor="start" x="36" y="-344.5" font-family="Helvetica,sans-Serif" font-size="10.00"># NMLmsg()</text>
<text text-anchor="start" x="36" y="-333.5" font-family="Helvetica,sans-Serif" font-size="10.00"># NMLmsg()</text>
</a>
</g>
</g>
<!-- Node4&#45;&gt;Node3 -->
<g id="edge3" class="edge">
<title>Node4&#45;&gt;Node3</title>
<path fill="none" stroke="midnightblue" d="M90.5,-316.14C90.5,-306.8 90.5,-297.71 90.5,-289.74"/>
<polygon fill="none" stroke="midnightblue" points="87,-316.33 90.5,-326.33 94,-316.33 87,-316.33"/>
</g>
</g>
</svg>
