<?xml version="1.0" encoding="UTF-8" standalone="no"?>
<!DOCTYPE svg PUBLIC "-//W3C//DTD SVG 1.1//EN"
 "http://www.w3.org/Graphics/SVG/1.1/DTD/svg11.dtd">
<!-- Generated by graphviz version 2.43.0 (0)
 -->
<!-- Title: EMC_TASK_STAT_MSG Pages: 1 -->
<svg width="420pt" height="436pt"
 viewBox="0.00 0.00 420.31 436.00" xmlns="http://www.w3.org/2000/svg" xmlns:xlink="http://www.w3.org/1999/xlink">
<g id="graph0" class="graph" transform="scale(1 1) rotate(0) translate(4 432)">
<title>EMC_TASK_STAT_MSG</title>
<polygon fill="white" stroke="transparent" points="-4,4 -4,-432 416.31,-432 416.31,4 -4,4"/>
<!-- Node1 -->
<g id="node1" class="node">
<title>Node1</title>
<g id="a_node1"><a xlink:title=" ">
<polygon fill="#bfbfbf" stroke="black" points="221.81,-0.5 221.81,-68.5 364.81,-68.5 364.81,-0.5 221.81,-0.5"/>
<text text-anchor="middle" x="293.31" y="-56.5" font-family="Helvetica,sans-Serif" font-size="10.00">EMC_TASK_STAT_MSG</text>
<polyline fill="none" stroke="black" points="221.81,-49.5 364.81,-49.5 "/>
<text text-anchor="middle" x="293.31" y="-37.5" font-family="Helvetica,sans-Serif" font-size="10.00"> </text>
<polyline fill="none" stroke="black" points="221.81,-30.5 364.81,-30.5 "/>
<text text-anchor="start" x="229.81" y="-18.5" font-family="Helvetica,sans-Serif" font-size="10.00">+ EMC_TASK_STAT_MSG()</text>
<text text-anchor="start" x="229.81" y="-7.5" font-family="Helvetica,sans-Serif" font-size="10.00">+ update()</text>
</a>
</g>
</g>
<!-- Node2 -->
<g id="node2" class="node">
<title>Node2</title>
<g id="a_node2"><a xlink:href="classRCS__STAT__MSG.html" target="_top" xlink:title=" ">
<polygon fill="white" stroke="black" points="186.81,-116.5 186.81,-173.5 297.81,-173.5 297.81,-116.5 186.81,-116.5"/>
<text text-anchor="middle" x="242.31" y="-161.5" font-family="Helvetica,sans-Serif" font-size="10.00">RCS_STAT_MSG</text>
<polyline fill="none" stroke="black" points="186.81,-154.5 297.81,-154.5 "/>
<text text-anchor="middle" x="242.31" y="-142.5" font-family="Helvetica,sans-Serif" font-size="10.00"> </text>
<polyline fill="none" stroke="black" points="186.81,-135.5 297.81,-135.5 "/>
<text text-anchor="start" x="194.81" y="-123.5" font-family="Helvetica,sans-Serif" font-size="10.00">+ RCS_STAT_MSG()</text>
</a>
</g>
</g>
<!-- Node2&#45;&gt;Node1 -->
<g id="edge1" class="edge">
<title>Node2&#45;&gt;Node1</title>
<path fill="none" stroke="midnightblue" d="M259.66,-107.09C265.53,-94.59 272.06,-80.7 277.79,-68.52"/>
<polygon fill="none" stroke="midnightblue" points="256.4,-105.8 255.31,-116.34 262.73,-108.78 256.4,-105.8"/>
</g>
<!-- Node3 -->
<g id="node3" class="node">
<title>Node3</title>
<g id="a_node3"><a xlink:href="classNMLmsg.html" target="_top" xlink:title=" ">
<polygon fill="white" stroke="black" points="141.31,-221.5 141.31,-322.5 219.31,-322.5 219.31,-221.5 141.31,-221.5"/>
<text text-anchor="middle" x="180.31" y="-310.5" font-family="Helvetica,sans-Serif" font-size="10.00">NMLmsg</text>
<polyline fill="none" stroke="black" points="141.31,-303.5 219.31,-303.5 "/>
<text text-anchor="middle" x="180.31" y="-291.5" font-family="Helvetica,sans-Serif" font-size="10.00"> </text>
<polyline fill="none" stroke="black" points="141.31,-284.5 219.31,-284.5 "/>
<text text-anchor="start" x="149.31" y="-272.5" font-family="Helvetica,sans-Serif" font-size="10.00">+ clear()</text>
<text text-anchor="start" x="149.31" y="-261.5" font-family="Helvetica,sans-Serif" font-size="10.00">+ update()</text>
<text text-anchor="start" x="149.31" y="-250.5" font-family="Helvetica,sans-Serif" font-size="10.00"># NMLmsg()</text>
<text text-anchor="start" x="149.31" y="-239.5" font-family="Helvetica,sans-Serif" font-size="10.00"># NMLmsg()</text>
<text text-anchor="start" x="149.31" y="-228.5" font-family="Helvetica,sans-Serif" font-size="10.00"># NMLmsg()</text>
</a>
</g>
</g>
<!-- Node3&#45;&gt;Node2 -->
<g id="edge2" class="edge">
<title>Node3&#45;&gt;Node2</title>
<path fill="none" stroke="midnightblue" d="M209.56,-212.03C216.2,-198.63 222.96,-185.02 228.59,-173.66"/>
<polygon fill="none" stroke="midnightblue" points="206.3,-210.72 204.99,-221.24 212.57,-213.83 206.3,-210.72"/>
</g>
<!-- Node4 -->
<g id="node4" class="node">
<title>Node4</title>
<g id="a_node4"><a xlink:title=" ">
<polygon fill="white" stroke="black" points="2.81,-370.5 2.81,-427.5 31.81,-427.5 31.81,-370.5 2.81,-370.5"/>
<text text-anchor="middle" x="17.31" y="-415.5" font-family="Helvetica,sans-Serif" font-size="10.00">int</text>
<polyline fill="none" stroke="black" points="2.81,-408.5 31.81,-408.5 "/>
<text text-anchor="middle" x="17.31" y="-396.5" font-family="Helvetica,sans-Serif" font-size="10.00"> </text>
<polyline fill="none" stroke="black" points="2.81,-389.5 31.81,-389.5 "/>
<text text-anchor="middle" x="17.31" y="-377.5" font-family="Helvetica,sans-Serif" font-size="10.00"> </text>
</a>
</g>
</g>
<!-- Node4&#45;&gt;Node2 -->
<g id="edge7" class="edge">
<title>Node4&#45;&gt;Node2</title>
<path fill="none" stroke="#404040" d="M9.22,-370.35C-0.01,-332.65 -9.98,-264.8 22.31,-221 57.15,-173.74 123.45,-155.97 174.2,-149.44"/>
<polygon fill="none" stroke="#404040" points="174.49,-149.41 180,-144.75 186.41,-148.04 180.9,-152.7 174.49,-149.41"/>
<text text-anchor="middle" x="77.31" y="-291.5" font-family="Helvetica,sans-Serif" font-size="10.00"> +echo_serial_number</text>
<text text-anchor="middle" x="77.31" y="-280.5" font-family="Helvetica,sans-Serif" font-size="10.00">+line</text>
<text text-anchor="middle" x="77.31" y="-269.5" font-family="Helvetica,sans-Serif" font-size="10.00">+source_line</text>
<text text-anchor="middle" x="77.31" y="-258.5" font-family="Helvetica,sans-Serif" font-size="10.00">+state</text>
<text text-anchor="middle" x="77.31" y="-247.5" font-family="Helvetica,sans-Serif" font-size="10.00">+status</text>
</g>
<!-- Node4&#45;&gt;Node3 -->
<g id="edge3" class="edge">
<title>Node4&#45;&gt;Node3</title>
<path fill="none" stroke="#404040" d="M29.54,-370.22C35.39,-359.75 43.32,-348.55 53.31,-341 75.86,-323.96 89.08,-335.74 114.31,-323 119.86,-320.2 125.42,-316.91 130.83,-313.39"/>
<polygon fill="none" stroke="#404040" points="131.11,-313.19 133.78,-306.5 141,-306.39 138.32,-313.08 131.11,-313.19"/>
<text text-anchor="middle" x="107.81" y="-344" font-family="Helvetica,sans-Serif" font-size="10.00"> +automatically_clear</text>
</g>
<!-- Node5 -->
<g id="node5" class="node">
<title>Node5</title>
<g id="a_node5"><a xlink:title=" ">
<polygon fill="white" stroke="black" points="222.31,-370.5 222.31,-427.5 272.31,-427.5 272.31,-370.5 222.31,-370.5"/>
<text text-anchor="middle" x="247.31" y="-415.5" font-family="Helvetica,sans-Serif" font-size="10.00">int32_t</text>
<polyline fill="none" stroke="black" points="222.31,-408.5 272.31,-408.5 "/>
<text text-anchor="middle" x="247.31" y="-396.5" font-family="Helvetica,sans-Serif" font-size="10.00"> </text>
<polyline fill="none" stroke="black" points="222.31,-389.5 272.31,-389.5 "/>
<text text-anchor="middle" x="247.31" y="-377.5" font-family="Helvetica,sans-Serif" font-size="10.00"> </text>
</a>
</g>
</g>
<!-- Node5&#45;&gt;Node2 -->
<g id="edge6" class="edge">
<title>Node5&#45;&gt;Node2</title>
<path fill="none" stroke="#404040" d="M252.21,-370.35C253.08,-364.32 253.86,-357.96 254.31,-352 254.68,-347.13 254.46,-345.89 254.31,-341 252.66,-287.28 248.45,-225.34 245.49,-185.95"/>
<polygon fill="none" stroke="#404040" points="245.47,-185.71 241.02,-180.03 244.55,-173.75 249,-179.42 245.47,-185.71"/>
<text text-anchor="middle" x="298.31" y="-269.5" font-family="Helvetica,sans-Serif" font-size="10.00"> +command_type</text>
</g>
<!-- Node5&#45;&gt;Node3 -->
<g id="edge4" class="edge">
<title>Node5&#45;&gt;Node3</title>
<path fill="none" stroke="#404040" d="M230.75,-370.43C227.23,-364.4 223.59,-358.01 220.31,-352 217,-345.95 213.63,-339.59 210.31,-333.23"/>
<polygon fill="none" stroke="#404040" points="210.31,-333.22 204,-329.72 204.8,-322.55 211.11,-326.05 210.31,-333.22"/>
<text text-anchor="middle" x="237.31" y="-344" font-family="Helvetica,sans-Serif" font-size="10.00"> +type</text>
</g>
<!-- Node6 -->
<g id="node6" class="node">
<title>Node6</title>
<g id="a_node6"><a xlink:title=" ">
<polygon fill="white" stroke="black" points="146.31,-370.5 146.31,-427.5 184.31,-427.5 184.31,-370.5 146.31,-370.5"/>
<text text-anchor="middle" x="165.31" y="-415.5" font-family="Helvetica,sans-Serif" font-size="10.00">long</text>
<polyline fill="none" stroke="black" points="146.31,-408.5 184.31,-408.5 "/>
<text text-anchor="middle" x="165.31" y="-396.5" font-family="Helvetica,sans-Serif" font-size="10.00"> </text>
<polyline fill="none" stroke="black" points="146.31,-389.5 184.31,-389.5 "/>
<text text-anchor="middle" x="165.31" y="-377.5" font-family="Helvetica,sans-Serif" font-size="10.00"> </text>
</a>
</g>
</g>
<!-- Node6&#45;&gt;Node3 -->
<g id="edge5" class="edge">
<title>Node6&#45;&gt;Node3</title>
<path fill="none" stroke="#404040" d="M164.76,-370.39C164.85,-361.04 165.25,-350.54 166.31,-341 166.55,-338.85 166.82,-336.66 167.12,-334.46"/>
<polygon fill="none" stroke="#404040" points="167.12,-334.45 164.11,-327.9 168.99,-322.6 172.01,-329.14 167.12,-334.45"/>
<text text-anchor="middle" x="181.81" y="-344" font-family="Helvetica,sans-Serif" font-size="10.00"> +size</text>
</g>
<!-- Node7 -->
<g id="node7" class="node">
<title>Node7</title>
<g id="a_node7"><a xlink:title=" ">
<polygon fill="white" stroke="black" points="374.31,-243.5 374.31,-300.5 412.31,-300.5 412.31,-243.5 374.31,-243.5"/>
<text text-anchor="middle" x="393.31" y="-288.5" font-family="Helvetica,sans-Serif" font-size="10.00">char</text>
<polyline fill="none" stroke="black" points="374.31,-281.5 412.31,-281.5 "/>
<text text-anchor="middle" x="393.31" y="-269.5" font-family="Helvetica,sans-Serif" font-size="10.00"> </text>
<polyline fill="none" stroke="black" points="374.31,-262.5 412.31,-262.5 "/>
<text text-anchor="middle" x="393.31" y="-250.5" font-family="Helvetica,sans-Serif" font-size="10.00"> </text>
</a>
</g>
</g>
<!-- Node7&#45;&gt;Node2 -->
<g id="edge8" class="edge">
<title>Node7&#45;&gt;Node2</title>
<path fill="none" stroke="#404040" d="M378.1,-243.47C373.04,-235.69 366.98,-227.56 360.31,-221 344.53,-205.49 325.04,-191.52 306.47,-179.96"/>
<polygon fill="none" stroke="#404040" points="306.25,-179.83 299.04,-180.14 295.98,-173.62 303.18,-173.3 306.25,-179.83"/>
<text text-anchor="middle" x="368.31" y="-195" font-family="Helvetica,sans-Serif" font-size="10.00"> +source_file</text>
</g>
<!-- Node8 -->
<g id="node8" class="node">
<title>Node8</title>
<g id="a_node8"><a xlink:title=" ">
<polygon fill="white" stroke="black" points="316.31,-116.5 316.31,-173.5 372.31,-173.5 372.31,-116.5 316.31,-116.5"/>
<text text-anchor="middle" x="344.31" y="-161.5" font-family="Helvetica,sans-Serif" font-size="10.00">uint32_t</text>
<polyline fill="none" stroke="black" points="316.31,-154.5 372.31,-154.5 "/>
<text text-anchor="middle" x="344.31" y="-142.5" font-family="Helvetica,sans-Serif" font-size="10.00"> </text>
<polyline fill="none" stroke="black" points="316.31,-135.5 372.31,-135.5 "/>
<text text-anchor="middle" x="344.31" y="-123.5" font-family="Helvetica,sans-Serif" font-size="10.00"> </text>
</a>
</g>
</g>
<!-- Node8&#45;&gt;Node1 -->
<g id="edge9" class="edge">
<title>Node8&#45;&gt;Node1</title>
<path fill="none" stroke="#404040" d="M331.31,-116.34C326.06,-105.19 319.89,-92.04 314.05,-79.63"/>
<polygon fill="none" stroke="#404040" points="313.93,-79.38 307.76,-75.65 308.83,-68.52 315,-72.25 313.93,-79.38"/>
<text text-anchor="middle" x="350.81" y="-90" font-family="Helvetica,sans-Serif" font-size="10.00"> +heartbeat</text>
</g>
</g>
</svg>
