<?xml version="1.0" encoding="UTF-8" standalone="no"?>
<!DOCTYPE svg PUBLIC "-//W3C//DTD SVG 1.1//EN"
 "http://www.w3.org/Graphics/SVG/1.1/DTD/svg11.dtd">
<!-- Generated by graphviz version 2.43.0 (0)
 -->
<!-- Title: EMC_TOOL_PREPARE Pages: 1 -->
<svg width="337pt" height="522pt"
 viewBox="0.00 0.00 336.50 522.00" xmlns="http://www.w3.org/2000/svg" xmlns:xlink="http://www.w3.org/1999/xlink">
<g id="graph0" class="graph" transform="scale(1 1) rotate(0) translate(4 518)">
<title>EMC_TOOL_PREPARE</title>
<polygon fill="white" stroke="transparent" points="-4,4 -4,-518 332.5,-518 332.5,4 -4,4"/>
<!-- Node1 -->
<g id="node1" class="node">
<title>Node1</title>
<g id="a_node1"><a xlink:title=" ">
<polygon fill="#bfbfbf" stroke="black" points="0,-0.5 0,-68.5 137,-68.5 137,-0.5 0,-0.5"/>
<text text-anchor="middle" x="68.5" y="-56.5" font-family="Helvetica,sans-Serif" font-size="10.00">EMC_TOOL_PREPARE</text>
<polyline fill="none" stroke="black" points="0,-49.5 137,-49.5 "/>
<text text-anchor="middle" x="68.5" y="-37.5" font-family="Helvetica,sans-Serif" font-size="10.00"> </text>
<polyline fill="none" stroke="black" points="0,-30.5 137,-30.5 "/>
<text text-anchor="start" x="8" y="-18.5" font-family="Helvetica,sans-Serif" font-size="10.00">+ EMC_TOOL_PREPARE()</text>
<text text-anchor="start" x="8" y="-7.5" font-family="Helvetica,sans-Serif" font-size="10.00">+ update()</text>
</a>
</g>
</g>
<!-- Node2 -->
<g id="node2" class="node">
<title>Node2</title>
<g id="a_node2"><a xlink:href="classEMC__TOOL__CMD__MSG.html" target="_top" xlink:title=" ">
<polygon fill="white" stroke="black" points="67,-106.5 67,-174.5 212,-174.5 212,-106.5 67,-106.5"/>
<text text-anchor="middle" x="139.5" y="-162.5" font-family="Helvetica,sans-Serif" font-size="10.00">EMC_TOOL_CMD_MSG</text>
<polyline fill="none" stroke="black" points="67,-155.5 212,-155.5 "/>
<text text-anchor="middle" x="139.5" y="-143.5" font-family="Helvetica,sans-Serif" font-size="10.00"> </text>
<polyline fill="none" stroke="black" points="67,-136.5 212,-136.5 "/>
<text text-anchor="start" x="75" y="-124.5" font-family="Helvetica,sans-Serif" font-size="10.00">+ EMC_TOOL_CMD_MSG()</text>
<text text-anchor="start" x="75" y="-113.5" font-family="Helvetica,sans-Serif" font-size="10.00">+ update()</text>
</a>
</g>
</g>
<!-- Node2&#45;&gt;Node1 -->
<g id="edge1" class="edge">
<title>Node2&#45;&gt;Node1</title>
<path fill="none" stroke="midnightblue" d="M111.13,-97.94C104.5,-88.24 97.53,-78.02 91.19,-68.73"/>
<polygon fill="none" stroke="midnightblue" points="108.31,-100.02 116.84,-106.31 114.09,-96.08 108.31,-100.02"/>
</g>
<!-- Node3 -->
<g id="node3" class="node">
<title>Node3</title>
<g id="a_node3"><a xlink:href="classRCS__CMD__MSG.html" target="_top" xlink:title=" ">
<polygon fill="white" stroke="black" points="86,-212.5 86,-269.5 197,-269.5 197,-212.5 86,-212.5"/>
<text text-anchor="middle" x="141.5" y="-257.5" font-family="Helvetica,sans-Serif" font-size="10.00">RCS_CMD_MSG</text>
<polyline fill="none" stroke="black" points="86,-250.5 197,-250.5 "/>
<text text-anchor="middle" x="141.5" y="-238.5" font-family="Helvetica,sans-Serif" font-size="10.00"> </text>
<polyline fill="none" stroke="black" points="86,-231.5 197,-231.5 "/>
<text text-anchor="start" x="94" y="-219.5" font-family="Helvetica,sans-Serif" font-size="10.00">+ RCS_CMD_MSG()</text>
</a>
</g>
</g>
<!-- Node3&#45;&gt;Node2 -->
<g id="edge2" class="edge">
<title>Node3&#45;&gt;Node2</title>
<path fill="none" stroke="midnightblue" d="M140.73,-202.3C140.55,-193.17 140.35,-183.48 140.17,-174.58"/>
<polygon fill="none" stroke="midnightblue" points="137.24,-202.37 140.94,-212.3 144.23,-202.23 137.24,-202.37"/>
</g>
<!-- Node4 -->
<g id="node4" class="node">
<title>Node4</title>
<g id="a_node4"><a xlink:href="classNMLmsg.html" target="_top" xlink:title=" ">
<polygon fill="white" stroke="black" points="195.5,-307.5 195.5,-408.5 273.5,-408.5 273.5,-307.5 195.5,-307.5"/>
<text text-anchor="middle" x="234.5" y="-396.5" font-family="Helvetica,sans-Serif" font-size="10.00">NMLmsg</text>
<polyline fill="none" stroke="black" points="195.5,-389.5 273.5,-389.5 "/>
<text text-anchor="middle" x="234.5" y="-377.5" font-family="Helvetica,sans-Serif" font-size="10.00"> </text>
<polyline fill="none" stroke="black" points="195.5,-370.5 273.5,-370.5 "/>
<text text-anchor="start" x="203.5" y="-358.5" font-family="Helvetica,sans-Serif" font-size="10.00">+ clear()</text>
<text text-anchor="start" x="203.5" y="-347.5" font-family="Helvetica,sans-Serif" font-size="10.00">+ update()</text>
<text text-anchor="start" x="203.5" y="-336.5" font-family="Helvetica,sans-Serif" font-size="10.00"># NMLmsg()</text>
<text text-anchor="start" x="203.5" y="-325.5" font-family="Helvetica,sans-Serif" font-size="10.00"># NMLmsg()</text>
<text text-anchor="start" x="203.5" y="-314.5" font-family="Helvetica,sans-Serif" font-size="10.00"># NMLmsg()</text>
</a>
</g>
</g>
<!-- Node4&#45;&gt;Node3 -->
<g id="edge3" class="edge">
<title>Node4&#45;&gt;Node3</title>
<path fill="none" stroke="midnightblue" d="M189,-300.74C180.28,-289.95 171.51,-279.11 163.92,-269.72"/>
<polygon fill="none" stroke="midnightblue" points="186.32,-302.99 195.33,-308.56 191.76,-298.59 186.32,-302.99"/>
</g>
<!-- Node5 -->
<g id="node5" class="node">
<title>Node5</title>
<g id="a_node5"><a xlink:title=" ">
<polygon fill="white" stroke="black" points="68,-456.5 68,-513.5 97,-513.5 97,-456.5 68,-456.5"/>
<text text-anchor="middle" x="82.5" y="-501.5" font-family="Helvetica,sans-Serif" font-size="10.00">int</text>
<polyline fill="none" stroke="black" points="68,-494.5 97,-494.5 "/>
<text text-anchor="middle" x="82.5" y="-482.5" font-family="Helvetica,sans-Serif" font-size="10.00"> </text>
<polyline fill="none" stroke="black" points="68,-475.5 97,-475.5 "/>
<text text-anchor="middle" x="82.5" y="-463.5" font-family="Helvetica,sans-Serif" font-size="10.00"> </text>
</a>
</g>
</g>
<!-- Node5&#45;&gt;Node1 -->
<g id="edge8" class="edge">
<title>Node5&#45;&gt;Node1</title>
<path fill="none" stroke="#404040" d="M67.95,-460.06C54.47,-435.58 36.5,-396 36.5,-359 36.5,-359 36.5,-359 36.5,-139.5 36.5,-119.51 41.97,-98.28 48.38,-80.24"/>
<polygon fill="none" stroke="#404040" points="48.43,-80.12 46.82,-73.09 52.69,-68.9 54.3,-75.93 48.43,-80.12"/>
<text text-anchor="middle" x="52" y="-238.5" font-family="Helvetica,sans-Serif" font-size="10.00"> +tool</text>
</g>
<!-- Node5&#45;&gt;Node3 -->
<g id="edge7" class="edge">
<title>Node5&#45;&gt;Node3</title>
<path fill="none" stroke="#404040" d="M82.61,-456.28C83.51,-420.8 87.62,-357.84 104.5,-307 107.52,-297.9 111.88,-288.65 116.55,-280.08"/>
<polygon fill="none" stroke="#404040" points="116.56,-280.06 116.09,-272.86 122.55,-269.66 123.02,-276.86 116.56,-280.06"/>
<text text-anchor="middle" x="145.5" y="-355.5" font-family="Helvetica,sans-Serif" font-size="10.00"> +serial_number</text>
</g>
<!-- Node5&#45;&gt;Node4 -->
<g id="edge4" class="edge">
<title>Node5&#45;&gt;Node4</title>
<path fill="none" stroke="#404040" d="M97.06,-461.91C105.48,-450.39 116.9,-436.71 129.5,-427 144.62,-415.34 152.13,-418.82 168.5,-409 174.12,-405.63 179.84,-401.87 185.44,-397.97"/>
<polygon fill="none" stroke="#404040" points="185.59,-397.85 188.13,-391.1 195.33,-390.85 192.8,-397.6 185.59,-397.85"/>
<text text-anchor="middle" x="184" y="-430" font-family="Helvetica,sans-Serif" font-size="10.00"> +automatically_clear</text>
</g>
<!-- Node6 -->
<g id="node6" class="node">
<title>Node6</title>
<g id="a_node6"><a xlink:title=" ">
<polygon fill="white" stroke="black" points="222.5,-456.5 222.5,-513.5 272.5,-513.5 272.5,-456.5 222.5,-456.5"/>
<text text-anchor="middle" x="247.5" y="-501.5" font-family="Helvetica,sans-Serif" font-size="10.00">int32_t</text>
<polyline fill="none" stroke="black" points="222.5,-494.5 272.5,-494.5 "/>
<text text-anchor="middle" x="247.5" y="-482.5" font-family="Helvetica,sans-Serif" font-size="10.00"> </text>
<polyline fill="none" stroke="black" points="222.5,-475.5 272.5,-475.5 "/>
<text text-anchor="middle" x="247.5" y="-463.5" font-family="Helvetica,sans-Serif" font-size="10.00"> </text>
</a>
</g>
</g>
<!-- Node6&#45;&gt;Node4 -->
<g id="edge5" class="edge">
<title>Node6&#45;&gt;Node4</title>
<path fill="none" stroke="#404040" d="M244.61,-456.26C243.53,-445.79 242.24,-433.42 240.96,-421.07"/>
<polygon fill="none" stroke="#404040" points="240.92,-420.74 236.32,-415.18 239.68,-408.8 244.28,-414.36 240.92,-420.74"/>
<text text-anchor="middle" x="260.5" y="-430" font-family="Helvetica,sans-Serif" font-size="10.00"> +type</text>
</g>
<!-- Node7 -->
<g id="node7" class="node">
<title>Node7</title>
<g id="a_node7"><a xlink:title=" ">
<polygon fill="white" stroke="black" points="290.5,-456.5 290.5,-513.5 328.5,-513.5 328.5,-456.5 290.5,-456.5"/>
<text text-anchor="middle" x="309.5" y="-501.5" font-family="Helvetica,sans-Serif" font-size="10.00">long</text>
<polyline fill="none" stroke="black" points="290.5,-494.5 328.5,-494.5 "/>
<text text-anchor="middle" x="309.5" y="-482.5" font-family="Helvetica,sans-Serif" font-size="10.00"> </text>
<polyline fill="none" stroke="black" points="290.5,-475.5 328.5,-475.5 "/>
<text text-anchor="middle" x="309.5" y="-463.5" font-family="Helvetica,sans-Serif" font-size="10.00"> </text>
</a>
</g>
</g>
<!-- Node7&#45;&gt;Node4 -->
<g id="edge6" class="edge">
<title>Node7&#45;&gt;Node4</title>
<path fill="none" stroke="#404040" d="M296.92,-456.31C292.35,-446.86 286.97,-436.32 281.5,-427 279.94,-424.35 278.32,-421.66 276.64,-418.97"/>
<polygon fill="none" stroke="#404040" points="276.47,-418.7 269.87,-415.79 270.01,-408.58 276.61,-411.49 276.47,-418.7"/>
<text text-anchor="middle" x="303" y="-430" font-family="Helvetica,sans-Serif" font-size="10.00"> +size</text>
</g>
</g>
</svg>
