<?xml version="1.0" encoding="UTF-8" standalone="no"?>
<!DOCTYPE svg PUBLIC "-//W3C//DTD SVG 1.1//EN"
 "http://www.w3.org/Graphics/SVG/1.1/DTD/svg11.dtd">
<!-- Generated by graphviz version 2.43.0 (0)
 -->
<!-- Title: EMC_TRAJ_LINEAR_MOVE Pages: 1 -->
<svg width="168pt" height="502pt"
 viewBox="0.00 0.00 168.00 502.00" xmlns="http://www.w3.org/2000/svg" xmlns:xlink="http://www.w3.org/1999/xlink">
<g id="graph0" class="graph" transform="scale(1 1) rotate(0) translate(4 498)">
<title>EMC_TRAJ_LINEAR_MOVE</title>
<polygon fill="white" stroke="transparent" points="-4,4 -4,-498 164,-498 164,4 -4,4"/>
<!-- Node1 -->
<g id="node1" class="node">
<title>Node1</title>
<g id="a_node1"><a xlink:title=" ">
<polygon fill="#bfbfbf" stroke="black" points="0,-0.5 0,-134.5 160,-134.5 160,-0.5 0,-0.5"/>
<text text-anchor="middle" x="80" y="-122.5" font-family="Helvetica,sans-Serif" font-size="10.00">EMC_TRAJ_LINEAR_MOVE</text>
<polyline fill="none" stroke="black" points="0,-115.5 160,-115.5 "/>
<text text-anchor="start" x="8" y="-103.5" font-family="Helvetica,sans-Serif" font-size="10.00">+ type</text>
<text text-anchor="start" x="8" y="-92.5" font-family="Helvetica,sans-Serif" font-size="10.00">+ end</text>
<text text-anchor="start" x="8" y="-81.5" font-family="Helvetica,sans-Serif" font-size="10.00">+ vel</text>
<text text-anchor="start" x="8" y="-70.5" font-family="Helvetica,sans-Serif" font-size="10.00">+ ini_maxvel</text>
<text text-anchor="start" x="8" y="-59.5" font-family="Helvetica,sans-Serif" font-size="10.00">+ acc</text>
<text text-anchor="start" x="8" y="-48.5" font-family="Helvetica,sans-Serif" font-size="10.00">+ feed_mode</text>
<text text-anchor="start" x="8" y="-37.5" font-family="Helvetica,sans-Serif" font-size="10.00">+ indexer_jnum</text>
<polyline fill="none" stroke="black" points="0,-30.5 160,-30.5 "/>
<text text-anchor="start" x="8" y="-18.5" font-family="Helvetica,sans-Serif" font-size="10.00">+ EMC_TRAJ_LINEAR_MOVE()</text>
<text text-anchor="start" x="8" y="-7.5" font-family="Helvetica,sans-Serif" font-size="10.00">+ update()</text>
</a>
</g>
</g>
<!-- Node2 -->
<g id="node2" class="node">
<title>Node2</title>
<g id="a_node2"><a xlink:href="classEMC__TRAJ__CMD__MSG.html" target="_top" xlink:title=" ">
<polygon fill="white" stroke="black" points="9.5,-171.5 9.5,-239.5 150.5,-239.5 150.5,-171.5 9.5,-171.5"/>
<text text-anchor="middle" x="80" y="-227.5" font-family="Helvetica,sans-Serif" font-size="10.00">EMC_TRAJ_CMD_MSG</text>
<polyline fill="none" stroke="black" points="9.5,-220.5 150.5,-220.5 "/>
<text text-anchor="start" x="17.5" y="-208.5" font-family="Helvetica,sans-Serif" font-size="10.00">+ tag</text>
<polyline fill="none" stroke="black" points="9.5,-201.5 150.5,-201.5 "/>
<text text-anchor="start" x="17.5" y="-189.5" font-family="Helvetica,sans-Serif" font-size="10.00">+ EMC_TRAJ_CMD_MSG()</text>
<text text-anchor="start" x="17.5" y="-178.5" font-family="Helvetica,sans-Serif" font-size="10.00">+ update()</text>
</a>
</g>
</g>
<!-- Node2&#45;&gt;Node1 -->
<g id="edge1" class="edge">
<title>Node2&#45;&gt;Node1</title>
<path fill="none" stroke="midnightblue" d="M80,-160.96C80,-152.57 80,-143.6 80,-134.68"/>
<polygon fill="none" stroke="midnightblue" points="76.5,-161.23 80,-171.23 83.5,-161.23 76.5,-161.23"/>
</g>
<!-- Node3 -->
<g id="node3" class="node">
<title>Node3</title>
<g id="a_node3"><a xlink:href="classRCS__CMD__MSG.html" target="_top" xlink:title=" ">
<polygon fill="white" stroke="black" points="24.5,-276.5 24.5,-333.5 135.5,-333.5 135.5,-276.5 24.5,-276.5"/>
<text text-anchor="middle" x="80" y="-321.5" font-family="Helvetica,sans-Serif" font-size="10.00">RCS_CMD_MSG</text>
<polyline fill="none" stroke="black" points="24.5,-314.5 135.5,-314.5 "/>
<text text-anchor="start" x="32.5" y="-302.5" font-family="Helvetica,sans-Serif" font-size="10.00">+ serial_number</text>
<polyline fill="none" stroke="black" points="24.5,-295.5 135.5,-295.5 "/>
<text text-anchor="start" x="32.5" y="-283.5" font-family="Helvetica,sans-Serif" font-size="10.00">+ RCS_CMD_MSG()</text>
</a>
</g>
</g>
<!-- Node3&#45;&gt;Node2 -->
<g id="edge2" class="edge">
<title>Node3&#45;&gt;Node2</title>
<path fill="none" stroke="midnightblue" d="M80,-266.06C80,-257.39 80,-248.24 80,-239.79"/>
<polygon fill="none" stroke="midnightblue" points="76.5,-266.32 80,-276.32 83.5,-266.32 76.5,-266.32"/>
</g>
<!-- Node4 -->
<g id="node4" class="node">
<title>Node4</title>
<g id="a_node4"><a xlink:href="classNMLmsg.html" target="_top" xlink:title=" ">
<polygon fill="white" stroke="black" points="17.5,-370.5 17.5,-493.5 142.5,-493.5 142.5,-370.5 17.5,-370.5"/>
<text text-anchor="middle" x="80" y="-481.5" font-family="Helvetica,sans-Serif" font-size="10.00">NMLmsg</text>
<polyline fill="none" stroke="black" points="17.5,-474.5 142.5,-474.5 "/>
<text text-anchor="start" x="25.5" y="-462.5" font-family="Helvetica,sans-Serif" font-size="10.00">+ type</text>
<text text-anchor="start" x="25.5" y="-451.5" font-family="Helvetica,sans-Serif" font-size="10.00">+ size</text>
<text text-anchor="start" x="25.5" y="-440.5" font-family="Helvetica,sans-Serif" font-size="10.00">+ automatically_clear</text>
<polyline fill="none" stroke="black" points="17.5,-433.5 142.5,-433.5 "/>
<text text-anchor="start" x="25.5" y="-421.5" font-family="Helvetica,sans-Serif" font-size="10.00">+ clear()</text>
<text text-anchor="start" x="25.5" y="-410.5" font-family="Helvetica,sans-Serif" font-size="10.00">+ update()</text>
<text text-anchor="start" x="25.5" y="-399.5" font-family="Helvetica,sans-Serif" font-size="10.00"># NMLmsg()</text>
<text text-anchor="start" x="25.5" y="-388.5" font-family="Helvetica,sans-Serif" font-size="10.00"># NMLmsg()</text>
<text text-anchor="start" x="25.5" y="-377.5" font-family="Helvetica,sans-Serif" font-size="10.00"># NMLmsg()</text>
</a>
</g>
</g>
<!-- Node4&#45;&gt;Node3 -->
<g id="edge3" class="edge">
<title>Node4&#45;&gt;Node3</title>
<path fill="none" stroke="midnightblue" d="M80,-360.14C80,-350.8 80,-341.71 80,-333.74"/>
<polygon fill="none" stroke="midnightblue" points="76.5,-360.33 80,-370.33 83.5,-360.33 76.5,-360.33"/>
</g>
</g>
</svg>
