<?xml version="1.0" encoding="UTF-8" standalone="no"?>
<!DOCTYPE svg PUBLIC "-//W3C//DTD SVG 1.1//EN"
 "http://www.w3.org/Graphics/SVG/1.1/DTD/svg11.dtd">
<!-- Generated by graphviz version 2.43.0 (0)
 -->
<!-- Title: EMC_TASK_SET_STATE Pages: 1 -->
<svg width="338pt" height="532pt"
 viewBox="0.00 0.00 338.00 532.00" xmlns="http://www.w3.org/2000/svg" xmlns:xlink="http://www.w3.org/1999/xlink">
<g id="graph0" class="graph" transform="scale(1 1) rotate(0) translate(4 528)">
<title>EMC_TASK_SET_STATE</title>
<polygon fill="white" stroke="transparent" points="-4,4 -4,-528 334,-528 334,4 -4,4"/>
<!-- Node1 -->
<g id="node1" class="node">
<title>Node1</title>
<g id="a_node1"><a xlink:title=" ">
<polygon fill="#bfbfbf" stroke="black" points="86,-0.5 86,-68.5 231,-68.5 231,-0.5 86,-0.5"/>
<text text-anchor="middle" x="158.5" y="-56.5" font-family="Helvetica,sans-Serif" font-size="10.00">EMC_TASK_SET_STATE</text>
<polyline fill="none" stroke="black" points="86,-49.5 231,-49.5 "/>
<text text-anchor="middle" x="158.5" y="-37.5" font-family="Helvetica,sans-Serif" font-size="10.00"> </text>
<polyline fill="none" stroke="black" points="86,-30.5 231,-30.5 "/>
<text text-anchor="start" x="94" y="-18.5" font-family="Helvetica,sans-Serif" font-size="10.00">+ EMC_TASK_SET_STATE()</text>
<text text-anchor="start" x="94" y="-7.5" font-family="Helvetica,sans-Serif" font-size="10.00">+ update()</text>
</a>
</g>
</g>
<!-- Node2 -->
<g id="node2" class="node">
<title>Node2</title>
<g id="a_node2"><a xlink:href="classEMC__TASK__CMD__MSG.html" target="_top" xlink:title=" ">
<polygon fill="white" stroke="black" points="0,-116.5 0,-184.5 143,-184.5 143,-116.5 0,-116.5"/>
<text text-anchor="middle" x="71.5" y="-172.5" font-family="Helvetica,sans-Serif" font-size="10.00">EMC_TASK_CMD_MSG</text>
<polyline fill="none" stroke="black" points="0,-165.5 143,-165.5 "/>
<text text-anchor="middle" x="71.5" y="-153.5" font-family="Helvetica,sans-Serif" font-size="10.00"> </text>
<polyline fill="none" stroke="black" points="0,-146.5 143,-146.5 "/>
<text text-anchor="start" x="8" y="-134.5" font-family="Helvetica,sans-Serif" font-size="10.00">+ EMC_TASK_CMD_MSG()</text>
<text text-anchor="start" x="8" y="-123.5" font-family="Helvetica,sans-Serif" font-size="10.00">+ update()</text>
</a>
</g>
</g>
<!-- Node2&#45;&gt;Node1 -->
<g id="edge1" class="edge">
<title>Node2&#45;&gt;Node1</title>
<path fill="none" stroke="midnightblue" d="M103.24,-107.92C113.11,-94.98 123.85,-80.9 133.22,-68.62"/>
<polygon fill="none" stroke="midnightblue" points="100.18,-106.15 96.9,-116.22 105.75,-110.39 100.18,-106.15"/>
</g>
<!-- Node3 -->
<g id="node3" class="node">
<title>Node3</title>
<g id="a_node3"><a xlink:href="classRCS__CMD__MSG.html" target="_top" xlink:title=" ">
<polygon fill="white" stroke="black" points="16,-222.5 16,-279.5 127,-279.5 127,-222.5 16,-222.5"/>
<text text-anchor="middle" x="71.5" y="-267.5" font-family="Helvetica,sans-Serif" font-size="10.00">RCS_CMD_MSG</text>
<polyline fill="none" stroke="black" points="16,-260.5 127,-260.5 "/>
<text text-anchor="middle" x="71.5" y="-248.5" font-family="Helvetica,sans-Serif" font-size="10.00"> </text>
<polyline fill="none" stroke="black" points="16,-241.5 127,-241.5 "/>
<text text-anchor="start" x="24" y="-229.5" font-family="Helvetica,sans-Serif" font-size="10.00">+ RCS_CMD_MSG()</text>
</a>
</g>
</g>
<!-- Node3&#45;&gt;Node2 -->
<g id="edge2" class="edge">
<title>Node3&#45;&gt;Node2</title>
<path fill="none" stroke="midnightblue" d="M71.5,-212.01C71.5,-202.96 71.5,-193.38 71.5,-184.58"/>
<polygon fill="none" stroke="midnightblue" points="68,-212.3 71.5,-222.3 75,-212.3 68,-212.3"/>
</g>
<!-- Node4 -->
<g id="node4" class="node">
<title>Node4</title>
<g id="a_node4"><a xlink:href="classNMLmsg.html" target="_top" xlink:title=" ">
<polygon fill="white" stroke="black" points="172.5,-317.5 172.5,-418.5 250.5,-418.5 250.5,-317.5 172.5,-317.5"/>
<text text-anchor="middle" x="211.5" y="-406.5" font-family="Helvetica,sans-Serif" font-size="10.00">NMLmsg</text>
<polyline fill="none" stroke="black" points="172.5,-399.5 250.5,-399.5 "/>
<text text-anchor="middle" x="211.5" y="-387.5" font-family="Helvetica,sans-Serif" font-size="10.00"> </text>
<polyline fill="none" stroke="black" points="172.5,-380.5 250.5,-380.5 "/>
<text text-anchor="start" x="180.5" y="-368.5" font-family="Helvetica,sans-Serif" font-size="10.00">+ clear()</text>
<text text-anchor="start" x="180.5" y="-357.5" font-family="Helvetica,sans-Serif" font-size="10.00">+ update()</text>
<text text-anchor="start" x="180.5" y="-346.5" font-family="Helvetica,sans-Serif" font-size="10.00"># NMLmsg()</text>
<text text-anchor="start" x="180.5" y="-335.5" font-family="Helvetica,sans-Serif" font-size="10.00"># NMLmsg()</text>
<text text-anchor="start" x="180.5" y="-324.5" font-family="Helvetica,sans-Serif" font-size="10.00"># NMLmsg()</text>
</a>
</g>
</g>
<!-- Node4&#45;&gt;Node3 -->
<g id="edge3" class="edge">
<title>Node4&#45;&gt;Node3</title>
<path fill="none" stroke="midnightblue" d="M164.31,-328.23C144.98,-312.36 123.04,-294.34 105.35,-279.81"/>
<polygon fill="none" stroke="midnightblue" points="162.18,-331.02 172.13,-334.66 166.62,-325.61 162.18,-331.02"/>
</g>
<!-- Node5 -->
<g id="node5" class="node">
<title>Node5</title>
<g id="a_node5"><a xlink:title=" ">
<polygon fill="white" stroke="black" points="62,-466.5 62,-523.5 91,-523.5 91,-466.5 62,-466.5"/>
<text text-anchor="middle" x="76.5" y="-511.5" font-family="Helvetica,sans-Serif" font-size="10.00">int</text>
<polyline fill="none" stroke="black" points="62,-504.5 91,-504.5 "/>
<text text-anchor="middle" x="76.5" y="-492.5" font-family="Helvetica,sans-Serif" font-size="10.00"> </text>
<polyline fill="none" stroke="black" points="62,-485.5 91,-485.5 "/>
<text text-anchor="middle" x="76.5" y="-473.5" font-family="Helvetica,sans-Serif" font-size="10.00"> </text>
</a>
</g>
</g>
<!-- Node5&#45;&gt;Node3 -->
<g id="edge7" class="edge">
<title>Node5&#45;&gt;Node3</title>
<path fill="none" stroke="#404040" d="M75.93,-466.24C75.04,-423.41 73.34,-341.04 72.32,-291.85"/>
<polygon fill="none" stroke="#404040" points="72.32,-291.81 68.2,-285.89 72.07,-279.81 76.2,-285.72 72.32,-291.81"/>
<text text-anchor="middle" x="116.5" y="-365.5" font-family="Helvetica,sans-Serif" font-size="10.00"> +serial_number</text>
</g>
<!-- Node5&#45;&gt;Node4 -->
<g id="edge4" class="edge">
<title>Node5&#45;&gt;Node4</title>
<path fill="none" stroke="#404040" d="M86.06,-466.3C90.67,-456.08 97.06,-445.04 105.5,-437 119.61,-423.55 128.74,-428.95 145.5,-419 151.14,-415.65 156.87,-411.91 162.47,-408.02"/>
<polygon fill="none" stroke="#404040" points="162.62,-407.91 165.17,-401.16 172.37,-400.91 169.83,-407.66 162.62,-407.91"/>
<text text-anchor="middle" x="160" y="-440" font-family="Helvetica,sans-Serif" font-size="10.00"> +automatically_clear</text>
</g>
<!-- Node6 -->
<g id="node6" class="node">
<title>Node6</title>
<g id="a_node6"><a xlink:title=" ">
<polygon fill="white" stroke="black" points="199.5,-466.5 199.5,-523.5 249.5,-523.5 249.5,-466.5 199.5,-466.5"/>
<text text-anchor="middle" x="224.5" y="-511.5" font-family="Helvetica,sans-Serif" font-size="10.00">int32_t</text>
<polyline fill="none" stroke="black" points="199.5,-504.5 249.5,-504.5 "/>
<text text-anchor="middle" x="224.5" y="-492.5" font-family="Helvetica,sans-Serif" font-size="10.00"> </text>
<polyline fill="none" stroke="black" points="199.5,-485.5 249.5,-485.5 "/>
<text text-anchor="middle" x="224.5" y="-473.5" font-family="Helvetica,sans-Serif" font-size="10.00"> </text>
</a>
</g>
</g>
<!-- Node6&#45;&gt;Node4 -->
<g id="edge5" class="edge">
<title>Node6&#45;&gt;Node4</title>
<path fill="none" stroke="#404040" d="M221.61,-466.26C220.53,-455.79 219.24,-443.42 217.96,-431.07"/>
<polygon fill="none" stroke="#404040" points="217.92,-430.74 213.32,-425.18 216.68,-418.8 221.28,-424.36 217.92,-430.74"/>
<text text-anchor="middle" x="236.5" y="-440" font-family="Helvetica,sans-Serif" font-size="10.00"> +type</text>
</g>
<!-- Node7 -->
<g id="node7" class="node">
<title>Node7</title>
<g id="a_node7"><a xlink:title=" ">
<polygon fill="white" stroke="black" points="267.5,-466.5 267.5,-523.5 305.5,-523.5 305.5,-466.5 267.5,-466.5"/>
<text text-anchor="middle" x="286.5" y="-511.5" font-family="Helvetica,sans-Serif" font-size="10.00">long</text>
<polyline fill="none" stroke="black" points="267.5,-504.5 305.5,-504.5 "/>
<text text-anchor="middle" x="286.5" y="-492.5" font-family="Helvetica,sans-Serif" font-size="10.00"> </text>
<polyline fill="none" stroke="black" points="267.5,-485.5 305.5,-485.5 "/>
<text text-anchor="middle" x="286.5" y="-473.5" font-family="Helvetica,sans-Serif" font-size="10.00"> </text>
</a>
</g>
</g>
<!-- Node7&#45;&gt;Node4 -->
<g id="edge6" class="edge">
<title>Node7&#45;&gt;Node4</title>
<path fill="none" stroke="#404040" d="M273.31,-466.38C268.57,-456.92 263.03,-446.37 257.5,-437 255.95,-434.37 254.33,-431.7 252.68,-429.02"/>
<polygon fill="none" stroke="#404040" points="252.55,-428.82 245.96,-425.89 246.13,-418.68 252.72,-421.61 252.55,-428.82"/>
<text text-anchor="middle" x="279" y="-440" font-family="Helvetica,sans-Serif" font-size="10.00"> +size</text>
</g>
<!-- Node8 -->
<g id="node8" class="node">
<title>Node8</title>
<g id="a_node8"><a xlink:title=" ">
<polygon fill="white" stroke="black" points="161,-122 161,-179 330,-179 330,-122 161,-122"/>
<text text-anchor="middle" x="245.5" y="-167" font-family="Helvetica,sans-Serif" font-size="10.00">enum EMC_TASK_STATE_ENUM</text>
<polyline fill="none" stroke="black" points="161,-160 330,-160 "/>
<text text-anchor="middle" x="245.5" y="-148" font-family="Helvetica,sans-Serif" font-size="10.00"> </text>
<polyline fill="none" stroke="black" points="161,-141 330,-141 "/>
<text text-anchor="middle" x="245.5" y="-129" font-family="Helvetica,sans-Serif" font-size="10.00"> </text>
</a>
</g>
</g>
<!-- Node8&#45;&gt;Node1 -->
<g id="edge8" class="edge">
<title>Node8&#45;&gt;Node1</title>
<path fill="none" stroke="#404040" d="M224.44,-121.9C214.47,-108.84 202.33,-92.94 191.21,-78.36"/>
<polygon fill="none" stroke="#404040" points="190.98,-78.06 184.16,-75.72 183.7,-68.52 190.52,-70.86 190.98,-78.06"/>
<text text-anchor="middle" x="224" y="-90" font-family="Helvetica,sans-Serif" font-size="10.00"> +state</text>
</g>
</g>
</svg>
