<?xml version="1.0" encoding="UTF-8" standalone="no"?>
<!DOCTYPE svg PUBLIC "-//W3C//DTD SVG 1.1//EN"
 "http://www.w3.org/Graphics/SVG/1.1/DTD/svg11.dtd">
<!-- Generated by graphviz version 2.43.0 (0)
 -->
<!-- Title: EMC_AUX_ESTOP_RESET Pages: 1 -->
<svg width="288pt" height="522pt"
 viewBox="0.00 0.00 288.00 522.00" xmlns="http://www.w3.org/2000/svg" xmlns:xlink="http://www.w3.org/1999/xlink">
<g id="graph0" class="graph" transform="scale(1 1) rotate(0) translate(4 518)">
<title>EMC_AUX_ESTOP_RESET</title>
<polygon fill="white" stroke="transparent" points="-4,4 -4,-518 284,-518 284,4 -4,4"/>
<!-- Node1 -->
<g id="node1" class="node">
<title>Node1</title>
<g id="a_node1"><a xlink:title=" ">
<polygon fill="#bfbfbf" stroke="black" points="0,-0.5 0,-68.5 156,-68.5 156,-0.5 0,-0.5"/>
<text text-anchor="middle" x="78" y="-56.5" font-family="Helvetica,sans-Serif" font-size="10.00">EMC_AUX_ESTOP_RESET</text>
<polyline fill="none" stroke="black" points="0,-49.5 156,-49.5 "/>
<text text-anchor="middle" x="78" y="-37.5" font-family="Helvetica,sans-Serif" font-size="10.00"> </text>
<polyline fill="none" stroke="black" points="0,-30.5 156,-30.5 "/>
<text text-anchor="start" x="8" y="-18.5" font-family="Helvetica,sans-Serif" font-size="10.00">+ EMC_AUX_ESTOP_RESET()</text>
<text text-anchor="start" x="8" y="-7.5" font-family="Helvetica,sans-Serif" font-size="10.00">+ update()</text>
</a>
</g>
</g>
<!-- Node2 -->
<g id="node2" class="node">
<title>Node2</title>
<g id="a_node2"><a xlink:href="classEMC__AUX__CMD__MSG.html" target="_top" xlink:title=" ">
<polygon fill="white" stroke="black" points="8,-106.5 8,-174.5 148,-174.5 148,-106.5 8,-106.5"/>
<text text-anchor="middle" x="78" y="-162.5" font-family="Helvetica,sans-Serif" font-size="10.00">EMC_AUX_CMD_MSG</text>
<polyline fill="none" stroke="black" points="8,-155.5 148,-155.5 "/>
<text text-anchor="middle" x="78" y="-143.5" font-family="Helvetica,sans-Serif" font-size="10.00"> </text>
<polyline fill="none" stroke="black" points="8,-136.5 148,-136.5 "/>
<text text-anchor="start" x="16" y="-124.5" font-family="Helvetica,sans-Serif" font-size="10.00">+ EMC_AUX_CMD_MSG()</text>
<text text-anchor="start" x="16" y="-113.5" font-family="Helvetica,sans-Serif" font-size="10.00">+ update()</text>
</a>
</g>
</g>
<!-- Node2&#45;&gt;Node1 -->
<g id="edge1" class="edge">
<title>Node2&#45;&gt;Node1</title>
<path fill="none" stroke="midnightblue" d="M78,-96.17C78,-87 78,-77.46 78,-68.73"/>
<polygon fill="none" stroke="midnightblue" points="74.5,-96.31 78,-106.31 81.5,-96.31 74.5,-96.31"/>
</g>
<!-- Node3 -->
<g id="node3" class="node">
<title>Node3</title>
<g id="a_node3"><a xlink:href="classRCS__CMD__MSG.html" target="_top" xlink:title=" ">
<polygon fill="white" stroke="black" points="22.5,-212.5 22.5,-269.5 133.5,-269.5 133.5,-212.5 22.5,-212.5"/>
<text text-anchor="middle" x="78" y="-257.5" font-family="Helvetica,sans-Serif" font-size="10.00">RCS_CMD_MSG</text>
<polyline fill="none" stroke="black" points="22.5,-250.5 133.5,-250.5 "/>
<text text-anchor="middle" x="78" y="-238.5" font-family="Helvetica,sans-Serif" font-size="10.00"> </text>
<polyline fill="none" stroke="black" points="22.5,-231.5 133.5,-231.5 "/>
<text text-anchor="start" x="30.5" y="-219.5" font-family="Helvetica,sans-Serif" font-size="10.00">+ RCS_CMD_MSG()</text>
</a>
</g>
</g>
<!-- Node3&#45;&gt;Node2 -->
<g id="edge2" class="edge">
<title>Node3&#45;&gt;Node2</title>
<path fill="none" stroke="midnightblue" d="M78,-202.01C78,-192.96 78,-183.38 78,-174.58"/>
<polygon fill="none" stroke="midnightblue" points="74.5,-202.3 78,-212.3 81.5,-202.3 74.5,-202.3"/>
</g>
<!-- Node4 -->
<g id="node4" class="node">
<title>Node4</title>
<g id="a_node4"><a xlink:href="classNMLmsg.html" target="_top" xlink:title=" ">
<polygon fill="white" stroke="black" points="147,-307.5 147,-408.5 225,-408.5 225,-307.5 147,-307.5"/>
<text text-anchor="middle" x="186" y="-396.5" font-family="Helvetica,sans-Serif" font-size="10.00">NMLmsg</text>
<polyline fill="none" stroke="black" points="147,-389.5 225,-389.5 "/>
<text text-anchor="middle" x="186" y="-377.5" font-family="Helvetica,sans-Serif" font-size="10.00"> </text>
<polyline fill="none" stroke="black" points="147,-370.5 225,-370.5 "/>
<text text-anchor="start" x="155" y="-358.5" font-family="Helvetica,sans-Serif" font-size="10.00">+ clear()</text>
<text text-anchor="start" x="155" y="-347.5" font-family="Helvetica,sans-Serif" font-size="10.00">+ update()</text>
<text text-anchor="start" x="155" y="-336.5" font-family="Helvetica,sans-Serif" font-size="10.00"># NMLmsg()</text>
<text text-anchor="start" x="155" y="-325.5" font-family="Helvetica,sans-Serif" font-size="10.00"># NMLmsg()</text>
<text text-anchor="start" x="155" y="-314.5" font-family="Helvetica,sans-Serif" font-size="10.00"># NMLmsg()</text>
</a>
</g>
</g>
<!-- Node4&#45;&gt;Node3 -->
<g id="edge3" class="edge">
<title>Node4&#45;&gt;Node3</title>
<path fill="none" stroke="midnightblue" d="M139.6,-307.59C127.39,-294.6 114.66,-281.04 103.96,-269.64"/>
<polygon fill="none" stroke="midnightblue" points="137.31,-310.26 146.7,-315.16 142.41,-305.47 137.31,-310.26"/>
</g>
<!-- Node5 -->
<g id="node5" class="node">
<title>Node5</title>
<g id="a_node5"><a xlink:title=" ">
<polygon fill="white" stroke="black" points="36.5,-456.5 36.5,-513.5 65.5,-513.5 65.5,-456.5 36.5,-456.5"/>
<text text-anchor="middle" x="51" y="-501.5" font-family="Helvetica,sans-Serif" font-size="10.00">int</text>
<polyline fill="none" stroke="black" points="36.5,-494.5 65.5,-494.5 "/>
<text text-anchor="middle" x="51" y="-482.5" font-family="Helvetica,sans-Serif" font-size="10.00"> </text>
<polyline fill="none" stroke="black" points="36.5,-475.5 65.5,-475.5 "/>
<text text-anchor="middle" x="51" y="-463.5" font-family="Helvetica,sans-Serif" font-size="10.00"> </text>
</a>
</g>
</g>
<!-- Node5&#45;&gt;Node3 -->
<g id="edge7" class="edge">
<title>Node5&#45;&gt;Node3</title>
<path fill="none" stroke="#404040" d="M49.26,-456.45C47.63,-421.42 46.65,-359.2 56,-307 57.53,-298.47 59.96,-289.54 62.67,-281.13"/>
<polygon fill="none" stroke="#404040" points="62.7,-281.02 60.87,-274.05 66.6,-269.67 68.44,-276.65 62.7,-281.02"/>
<text text-anchor="middle" x="97" y="-355.5" font-family="Helvetica,sans-Serif" font-size="10.00"> +serial_number</text>
</g>
<!-- Node5&#45;&gt;Node4 -->
<g id="edge4" class="edge">
<title>Node5&#45;&gt;Node4</title>
<path fill="none" stroke="#404040" d="M61.11,-456.34C65.91,-446.13 72.48,-435.08 81,-427 94.85,-413.86 103.63,-418.82 120,-409 125.62,-405.63 131.34,-401.87 136.94,-397.97"/>
<polygon fill="none" stroke="#404040" points="137.09,-397.85 139.63,-391.1 146.83,-390.85 144.3,-397.6 137.09,-397.85"/>
<text text-anchor="middle" x="135.5" y="-430" font-family="Helvetica,sans-Serif" font-size="10.00"> +automatically_clear</text>
</g>
<!-- Node6 -->
<g id="node6" class="node">
<title>Node6</title>
<g id="a_node6"><a xlink:title=" ">
<polygon fill="white" stroke="black" points="174,-456.5 174,-513.5 224,-513.5 224,-456.5 174,-456.5"/>
<text text-anchor="middle" x="199" y="-501.5" font-family="Helvetica,sans-Serif" font-size="10.00">int32_t</text>
<polyline fill="none" stroke="black" points="174,-494.5 224,-494.5 "/>
<text text-anchor="middle" x="199" y="-482.5" font-family="Helvetica,sans-Serif" font-size="10.00"> </text>
<polyline fill="none" stroke="black" points="174,-475.5 224,-475.5 "/>
<text text-anchor="middle" x="199" y="-463.5" font-family="Helvetica,sans-Serif" font-size="10.00"> </text>
</a>
</g>
</g>
<!-- Node6&#45;&gt;Node4 -->
<g id="edge5" class="edge">
<title>Node6&#45;&gt;Node4</title>
<path fill="none" stroke="#404040" d="M196.11,-456.26C195.03,-445.79 193.74,-433.42 192.46,-421.07"/>
<polygon fill="none" stroke="#404040" points="192.42,-420.74 187.82,-415.18 191.18,-408.8 195.78,-414.36 192.42,-420.74"/>
<text text-anchor="middle" x="212" y="-430" font-family="Helvetica,sans-Serif" font-size="10.00"> +type</text>
</g>
<!-- Node7 -->
<g id="node7" class="node">
<title>Node7</title>
<g id="a_node7"><a xlink:title=" ">
<polygon fill="white" stroke="black" points="242,-456.5 242,-513.5 280,-513.5 280,-456.5 242,-456.5"/>
<text text-anchor="middle" x="261" y="-501.5" font-family="Helvetica,sans-Serif" font-size="10.00">long</text>
<polyline fill="none" stroke="black" points="242,-494.5 280,-494.5 "/>
<text text-anchor="middle" x="261" y="-482.5" font-family="Helvetica,sans-Serif" font-size="10.00"> </text>
<polyline fill="none" stroke="black" points="242,-475.5 280,-475.5 "/>
<text text-anchor="middle" x="261" y="-463.5" font-family="Helvetica,sans-Serif" font-size="10.00"> </text>
</a>
</g>
</g>
<!-- Node7&#45;&gt;Node4 -->
<g id="edge6" class="edge">
<title>Node7&#45;&gt;Node4</title>
<path fill="none" stroke="#404040" d="M248.42,-456.31C243.85,-446.86 238.47,-436.32 233,-427 231.44,-424.35 229.82,-421.66 228.14,-418.97"/>
<polygon fill="none" stroke="#404040" points="227.97,-418.7 221.37,-415.79 221.51,-408.58 228.11,-411.49 227.97,-418.7"/>
<text text-anchor="middle" x="254.5" y="-430" font-family="Helvetica,sans-Serif" font-size="10.00"> +size</text>
</g>
</g>
</svg>
