<?xml version="1.0" encoding="UTF-8" standalone="no"?>
<!DOCTYPE svg PUBLIC "-//W3C//DTD SVG 1.1//EN"
 "http://www.w3.org/Graphics/SVG/1.1/DTD/svg11.dtd">
<!-- Generated by graphviz version 2.43.0 (0)
 -->
<!-- Title: EMC_TRAJ_LINEAR_MOVE Pages: 1 -->
<svg width="751pt" height="629pt"
 viewBox="0.00 0.00 751.00 629.00" xmlns="http://www.w3.org/2000/svg" xmlns:xlink="http://www.w3.org/1999/xlink">
<g id="graph0" class="graph" transform="scale(1 1) rotate(0) translate(4 625)">
<title>EMC_TRAJ_LINEAR_MOVE</title>
<polygon fill="white" stroke="transparent" points="-4,4 -4,-625 747,-625 747,4 -4,4"/>
<!-- Node1 -->
<g id="node1" class="node">
<title>Node1</title>
<g id="a_node1"><a xlink:title=" ">
<polygon fill="#bfbfbf" stroke="black" points="406,-0.5 406,-68.5 566,-68.5 566,-0.5 406,-0.5"/>
<text text-anchor="middle" x="486" y="-56.5" font-family="Helvetica,sans-Serif" font-size="10.00">EMC_TRAJ_LINEAR_MOVE</text>
<polyline fill="none" stroke="black" points="406,-49.5 566,-49.5 "/>
<text text-anchor="middle" x="486" y="-37.5" font-family="Helvetica,sans-Serif" font-size="10.00"> </text>
<polyline fill="none" stroke="black" points="406,-30.5 566,-30.5 "/>
<text text-anchor="start" x="414" y="-18.5" font-family="Helvetica,sans-Serif" font-size="10.00">+ EMC_TRAJ_LINEAR_MOVE()</text>
<text text-anchor="start" x="414" y="-7.5" font-family="Helvetica,sans-Serif" font-size="10.00">+ update()</text>
</a>
</g>
</g>
<!-- Node2 -->
<g id="node2" class="node">
<title>Node2</title>
<g id="a_node2"><a xlink:href="classEMC__TRAJ__CMD__MSG.html" target="_top" xlink:title=" ">
<polygon fill="white" stroke="black" points="205.5,-116.5 205.5,-184.5 346.5,-184.5 346.5,-116.5 205.5,-116.5"/>
<text text-anchor="middle" x="276" y="-172.5" font-family="Helvetica,sans-Serif" font-size="10.00">EMC_TRAJ_CMD_MSG</text>
<polyline fill="none" stroke="black" points="205.5,-165.5 346.5,-165.5 "/>
<text text-anchor="middle" x="276" y="-153.5" font-family="Helvetica,sans-Serif" font-size="10.00"> </text>
<polyline fill="none" stroke="black" points="205.5,-146.5 346.5,-146.5 "/>
<text text-anchor="start" x="213.5" y="-134.5" font-family="Helvetica,sans-Serif" font-size="10.00">+ EMC_TRAJ_CMD_MSG()</text>
<text text-anchor="start" x="213.5" y="-123.5" font-family="Helvetica,sans-Serif" font-size="10.00">+ update()</text>
</a>
</g>
</g>
<!-- Node2&#45;&gt;Node1 -->
<g id="edge1" class="edge">
<title>Node2&#45;&gt;Node1</title>
<path fill="none" stroke="midnightblue" d="M325.14,-110.26C336.56,-102.03 348.92,-93.79 361,-87 375.11,-79.06 390.7,-71.66 405.94,-65.08"/>
<polygon fill="none" stroke="midnightblue" points="323,-107.49 317.01,-116.23 327.14,-113.14 323,-107.49"/>
</g>
<!-- Node3 -->
<g id="node3" class="node">
<title>Node3</title>
<g id="a_node3"><a xlink:href="classRCS__CMD__MSG.html" target="_top" xlink:title=" ">
<polygon fill="white" stroke="black" points="209.5,-271 209.5,-328 320.5,-328 320.5,-271 209.5,-271"/>
<text text-anchor="middle" x="265" y="-316" font-family="Helvetica,sans-Serif" font-size="10.00">RCS_CMD_MSG</text>
<polyline fill="none" stroke="black" points="209.5,-309 320.5,-309 "/>
<text text-anchor="middle" x="265" y="-297" font-family="Helvetica,sans-Serif" font-size="10.00"> </text>
<polyline fill="none" stroke="black" points="209.5,-290 320.5,-290 "/>
<text text-anchor="start" x="217.5" y="-278" font-family="Helvetica,sans-Serif" font-size="10.00">+ RCS_CMD_MSG()</text>
</a>
</g>
</g>
<!-- Node3&#45;&gt;Node2 -->
<g id="edge2" class="edge">
<title>Node3&#45;&gt;Node2</title>
<path fill="none" stroke="midnightblue" d="M267.82,-260.88C269.58,-237.35 271.82,-207.33 273.52,-184.69"/>
<polygon fill="none" stroke="midnightblue" points="264.33,-260.62 267.07,-270.85 271.31,-261.14 264.33,-260.62"/>
</g>
<!-- Node4 -->
<g id="node4" class="node">
<title>Node4</title>
<g id="a_node4"><a xlink:href="classNMLmsg.html" target="_top" xlink:title=" ">
<polygon fill="white" stroke="black" points="75,-414.5 75,-515.5 153,-515.5 153,-414.5 75,-414.5"/>
<text text-anchor="middle" x="114" y="-503.5" font-family="Helvetica,sans-Serif" font-size="10.00">NMLmsg</text>
<polyline fill="none" stroke="black" points="75,-496.5 153,-496.5 "/>
<text text-anchor="middle" x="114" y="-484.5" font-family="Helvetica,sans-Serif" font-size="10.00"> </text>
<polyline fill="none" stroke="black" points="75,-477.5 153,-477.5 "/>
<text text-anchor="start" x="83" y="-465.5" font-family="Helvetica,sans-Serif" font-size="10.00">+ clear()</text>
<text text-anchor="start" x="83" y="-454.5" font-family="Helvetica,sans-Serif" font-size="10.00">+ update()</text>
<text text-anchor="start" x="83" y="-443.5" font-family="Helvetica,sans-Serif" font-size="10.00"># NMLmsg()</text>
<text text-anchor="start" x="83" y="-432.5" font-family="Helvetica,sans-Serif" font-size="10.00"># NMLmsg()</text>
<text text-anchor="start" x="83" y="-421.5" font-family="Helvetica,sans-Serif" font-size="10.00"># NMLmsg()</text>
</a>
</g>
</g>
<!-- Node4&#45;&gt;Node3 -->
<g id="edge3" class="edge">
<title>Node4&#45;&gt;Node3</title>
<path fill="none" stroke="midnightblue" d="M160.1,-414.08C186.07,-385.96 217.55,-351.88 239.2,-328.43"/>
<polygon fill="none" stroke="midnightblue" points="157.49,-411.75 153.28,-421.47 162.64,-416.5 157.49,-411.75"/>
</g>
<!-- Node5 -->
<g id="node5" class="node">
<title>Node5</title>
<g id="a_node5"><a xlink:title=" ">
<polygon fill="white" stroke="black" points="305.5,-563.5 305.5,-620.5 334.5,-620.5 334.5,-563.5 305.5,-563.5"/>
<text text-anchor="middle" x="320" y="-608.5" font-family="Helvetica,sans-Serif" font-size="10.00">int</text>
<polyline fill="none" stroke="black" points="305.5,-601.5 334.5,-601.5 "/>
<text text-anchor="middle" x="320" y="-589.5" font-family="Helvetica,sans-Serif" font-size="10.00"> </text>
<polyline fill="none" stroke="black" points="305.5,-582.5 334.5,-582.5 "/>
<text text-anchor="middle" x="320" y="-570.5" font-family="Helvetica,sans-Serif" font-size="10.00"> </text>
</a>
</g>
</g>
<!-- Node5&#45;&gt;Node1 -->
<g id="edge14" class="edge">
<title>Node5&#45;&gt;Node1</title>
<path fill="none" stroke="#404040" d="M334.74,-571.39C351.03,-547.71 375,-506.07 375,-466 375,-466 375,-466 375,-149.5 375,-119.76 394.63,-94.87 417.39,-76.01"/>
<polygon fill="none" stroke="#404040" points="417.47,-75.95 419.73,-69.1 426.93,-68.56 424.66,-75.41 417.47,-75.95"/>
<text text-anchor="middle" x="412.5" y="-308" font-family="Helvetica,sans-Serif" font-size="10.00"> +feed_mode</text>
<text text-anchor="middle" x="412.5" y="-297" font-family="Helvetica,sans-Serif" font-size="10.00">+indexer_jnum</text>
<text text-anchor="middle" x="412.5" y="-286" font-family="Helvetica,sans-Serif" font-size="10.00">+type</text>
</g>
<!-- Node5&#45;&gt;Node3 -->
<g id="edge7" class="edge">
<title>Node5&#45;&gt;Node3</title>
<path fill="none" stroke="#404040" d="M305.33,-570.1C296.01,-555.63 284.67,-535.52 279,-516 261.73,-456.52 260.92,-384.07 262.52,-340.16"/>
<polygon fill="none" stroke="#404040" points="262.52,-340.01 258.79,-333.85 263.05,-328.03 266.78,-334.2 262.52,-340.01"/>
<text text-anchor="middle" x="320" y="-462.5" font-family="Helvetica,sans-Serif" font-size="10.00"> +serial_number</text>
</g>
<!-- Node5&#45;&gt;Node4 -->
<g id="edge4" class="edge">
<title>Node5&#45;&gt;Node4</title>
<path fill="none" stroke="#404040" d="M305.43,-591.54C272.06,-591.98 189.31,-588.33 142,-545 136.37,-539.84 131.87,-533.47 128.27,-526.61"/>
<polygon fill="none" stroke="#404040" points="128.22,-526.49 122.12,-522.64 123.33,-515.53 129.43,-519.38 128.22,-526.49"/>
<text text-anchor="middle" x="196.5" y="-537" font-family="Helvetica,sans-Serif" font-size="10.00"> +automatically_clear</text>
</g>
<!-- Node9 -->
<g id="node9" class="node">
<title>Node9</title>
<g id="a_node9"><a xlink:href="structstate__tag__t.html" target="_top" xlink:title=" ">
<polygon fill="white" stroke="black" points="500.5,-436.5 500.5,-493.5 571.5,-493.5 571.5,-436.5 500.5,-436.5"/>
<text text-anchor="middle" x="536" y="-481.5" font-family="Helvetica,sans-Serif" font-size="10.00">state_tag_t</text>
<polyline fill="none" stroke="black" points="500.5,-474.5 571.5,-474.5 "/>
<text text-anchor="middle" x="536" y="-462.5" font-family="Helvetica,sans-Serif" font-size="10.00"> </text>
<polyline fill="none" stroke="black" points="500.5,-455.5 571.5,-455.5 "/>
<text text-anchor="middle" x="536" y="-443.5" font-family="Helvetica,sans-Serif" font-size="10.00"> </text>
</a>
</g>
</g>
<!-- Node5&#45;&gt;Node9 -->
<g id="edge11" class="edge">
<title>Node5&#45;&gt;Node9</title>
<path fill="none" stroke="#404040" d="M334.81,-586.84C365.88,-577.65 439.23,-553.4 491,-516 496.44,-512.07 501.71,-507.38 506.61,-502.47"/>
<polygon fill="none" stroke="#404040" points="506.78,-502.29 507.96,-495.17 514.98,-493.52 513.8,-500.64 506.78,-502.29"/>
<text text-anchor="middle" x="480" y="-537" font-family="Helvetica,sans-Serif" font-size="10.00"> +fields</text>
</g>
<!-- Node6 -->
<g id="node6" class="node">
<title>Node6</title>
<g id="a_node6"><a xlink:title=" ">
<polygon fill="white" stroke="black" points="0,-563.5 0,-620.5 50,-620.5 50,-563.5 0,-563.5"/>
<text text-anchor="middle" x="25" y="-608.5" font-family="Helvetica,sans-Serif" font-size="10.00">int32_t</text>
<polyline fill="none" stroke="black" points="0,-601.5 50,-601.5 "/>
<text text-anchor="middle" x="25" y="-589.5" font-family="Helvetica,sans-Serif" font-size="10.00"> </text>
<polyline fill="none" stroke="black" points="0,-582.5 50,-582.5 "/>
<text text-anchor="middle" x="25" y="-570.5" font-family="Helvetica,sans-Serif" font-size="10.00"> </text>
</a>
</g>
</g>
<!-- Node6&#45;&gt;Node4 -->
<g id="edge5" class="edge">
<title>Node6&#45;&gt;Node4</title>
<path fill="none" stroke="#404040" d="M34.31,-563.3C38.16,-553.64 43.11,-542.98 49,-534 54.17,-526.13 60.3,-518.35 66.71,-511.03"/>
<polygon fill="none" stroke="#404040" points="66.83,-510.89 67.92,-503.76 74.92,-502.02 73.83,-509.15 66.83,-510.89"/>
<text text-anchor="middle" x="66" y="-537" font-family="Helvetica,sans-Serif" font-size="10.00"> +type</text>
</g>
<!-- Node7 -->
<g id="node7" class="node">
<title>Node7</title>
<g id="a_node7"><a xlink:title=" ">
<polygon fill="white" stroke="black" points="68,-563.5 68,-620.5 106,-620.5 106,-563.5 68,-563.5"/>
<text text-anchor="middle" x="87" y="-608.5" font-family="Helvetica,sans-Serif" font-size="10.00">long</text>
<polyline fill="none" stroke="black" points="68,-601.5 106,-601.5 "/>
<text text-anchor="middle" x="87" y="-589.5" font-family="Helvetica,sans-Serif" font-size="10.00"> </text>
<polyline fill="none" stroke="black" points="68,-582.5 106,-582.5 "/>
<text text-anchor="middle" x="87" y="-570.5" font-family="Helvetica,sans-Serif" font-size="10.00"> </text>
</a>
</g>
</g>
<!-- Node7&#45;&gt;Node4 -->
<g id="edge6" class="edge">
<title>Node7&#45;&gt;Node4</title>
<path fill="none" stroke="#404040" d="M85.56,-563.26C85.59,-553.89 86.17,-543.43 88,-534 88.44,-531.72 88.95,-529.42 89.52,-527.11"/>
<polygon fill="none" stroke="#404040" points="89.53,-527.1 87.32,-520.23 92.8,-515.55 95.01,-522.42 89.53,-527.1"/>
<text text-anchor="middle" x="103.5" y="-537" font-family="Helvetica,sans-Serif" font-size="10.00"> +size</text>
</g>
<!-- Node8 -->
<g id="node8" class="node">
<title>Node8</title>
<g id="a_node8"><a xlink:href="structStateTag.html" target="_top" xlink:title=" ">
<polygon fill="white" stroke="black" points="468,-254.5 468,-344.5 570,-344.5 570,-254.5 468,-254.5"/>
<text text-anchor="middle" x="519" y="-332.5" font-family="Helvetica,sans-Serif" font-size="10.00">StateTag</text>
<polyline fill="none" stroke="black" points="468,-325.5 570,-325.5 "/>
<text text-anchor="middle" x="519" y="-313.5" font-family="Helvetica,sans-Serif" font-size="10.00"> </text>
<polyline fill="none" stroke="black" points="468,-306.5 570,-306.5 "/>
<text text-anchor="start" x="476" y="-294.5" font-family="Helvetica,sans-Serif" font-size="10.00">+ StateTag()</text>
<text text-anchor="start" x="476" y="-283.5" font-family="Helvetica,sans-Serif" font-size="10.00">+ StateTag()</text>
<text text-anchor="start" x="476" y="-272.5" font-family="Helvetica,sans-Serif" font-size="10.00">+ is_valid()</text>
<text text-anchor="start" x="476" y="-261.5" font-family="Helvetica,sans-Serif" font-size="10.00">+ get_state_tag()</text>
</a>
</g>
</g>
<!-- Node8&#45;&gt;Node2 -->
<g id="edge8" class="edge">
<title>Node8&#45;&gt;Node2</title>
<path fill="none" stroke="#404040" d="M467.8,-262.9C463.16,-259.85 458.51,-256.84 454,-254 419.13,-232.07 379.5,-209.07 346.49,-190.42"/>
<polygon fill="none" stroke="#404040" points="346.48,-190.41 339.29,-190.95 336.02,-184.52 343.21,-183.98 346.48,-190.41"/>
<text text-anchor="middle" x="435" y="-217" font-family="Helvetica,sans-Serif" font-size="10.00"> +tag</text>
</g>
<!-- Node9&#45;&gt;Node8 -->
<g id="edge9" class="edge">
<title>Node9&#45;&gt;Node8</title>
<path fill="none" stroke="midnightblue" d="M532.05,-426.01C529.53,-401.73 526.24,-370.14 523.6,-344.73"/>
<polygon fill="none" stroke="midnightblue" points="528.6,-426.68 533.12,-436.26 535.56,-425.96 528.6,-426.68"/>
</g>
<!-- Node10 -->
<g id="node10" class="node">
<title>Node10</title>
<g id="a_node10"><a xlink:title=" ">
<polygon fill="white" stroke="black" points="500,-563.5 500,-620.5 538,-620.5 538,-563.5 500,-563.5"/>
<text text-anchor="middle" x="519" y="-608.5" font-family="Helvetica,sans-Serif" font-size="10.00">float</text>
<polyline fill="none" stroke="black" points="500,-601.5 538,-601.5 "/>
<text text-anchor="middle" x="519" y="-589.5" font-family="Helvetica,sans-Serif" font-size="10.00"> </text>
<polyline fill="none" stroke="black" points="500,-582.5 538,-582.5 "/>
<text text-anchor="middle" x="519" y="-570.5" font-family="Helvetica,sans-Serif" font-size="10.00"> </text>
</a>
</g>
</g>
<!-- Node10&#45;&gt;Node9 -->
<g id="edge10" class="edge">
<title>Node10&#45;&gt;Node9</title>
<path fill="none" stroke="#404040" d="M518.3,-563.37C518.38,-554.02 518.81,-543.53 520,-534 521.17,-524.63 523.11,-514.67 525.24,-505.34"/>
<polygon fill="none" stroke="#404040" points="525.27,-505.21 522.8,-498.43 528.11,-493.55 530.58,-500.32 525.27,-505.21"/>
<text text-anchor="middle" x="552.5" y="-537" font-family="Helvetica,sans-Serif" font-size="10.00"> +fields_float</text>
</g>
<!-- Node11 -->
<g id="node11" class="node">
<title>Node11</title>
<g id="a_node11"><a xlink:title=" ">
<polygon fill="white" stroke="black" points="576.5,-563.5 576.5,-620.5 637.5,-620.5 637.5,-563.5 576.5,-563.5"/>
<text text-anchor="middle" x="607" y="-608.5" font-family="Helvetica,sans-Serif" font-size="10.00">unsigned</text>
<polyline fill="none" stroke="black" points="576.5,-601.5 637.5,-601.5 "/>
<text text-anchor="middle" x="607" y="-589.5" font-family="Helvetica,sans-Serif" font-size="10.00"> </text>
<polyline fill="none" stroke="black" points="576.5,-582.5 637.5,-582.5 "/>
<text text-anchor="middle" x="607" y="-570.5" font-family="Helvetica,sans-Serif" font-size="10.00"> </text>
</a>
</g>
</g>
<!-- Node11&#45;&gt;Node9 -->
<g id="edge12" class="edge">
<title>Node11&#45;&gt;Node9</title>
<path fill="none" stroke="#404040" d="M597.97,-563.4C594.42,-553.85 590,-543.23 585,-534 579.45,-523.76 572.58,-513.27 565.76,-503.7"/>
<polygon fill="none" stroke="#404040" points="565.54,-503.4 558.77,-500.92 558.44,-493.72 565.22,-496.19 565.54,-503.4"/>
<text text-anchor="middle" x="628.5" y="-537" font-family="Helvetica,sans-Serif" font-size="10.00"> +packed_flags</text>
</g>
<!-- Node12 -->
<g id="node12" class="node">
<title>Node12</title>
<g id="a_node12"><a xlink:title=" ">
<polygon fill="white" stroke="black" points="403.5,-436.5 403.5,-493.5 482.5,-493.5 482.5,-436.5 403.5,-436.5"/>
<text text-anchor="middle" x="443" y="-481.5" font-family="Helvetica,sans-Serif" font-size="10.00">bitset&lt; 64 &gt;</text>
<polyline fill="none" stroke="black" points="403.5,-474.5 482.5,-474.5 "/>
<text text-anchor="middle" x="443" y="-462.5" font-family="Helvetica,sans-Serif" font-size="10.00"> </text>
<polyline fill="none" stroke="black" points="403.5,-455.5 482.5,-455.5 "/>
<text text-anchor="middle" x="443" y="-443.5" font-family="Helvetica,sans-Serif" font-size="10.00"> </text>
</a>
</g>
</g>
<!-- Node12&#45;&gt;Node8 -->
<g id="edge13" class="edge">
<title>Node12&#45;&gt;Node8</title>
<path fill="none" stroke="#404040" d="M454.49,-436.36C463.11,-415.94 475.38,-387.55 487,-363 488.14,-360.58 489.33,-358.12 490.53,-355.64"/>
<polygon fill="none" stroke="#404040" points="490.61,-355.48 489.69,-348.32 495.93,-344.72 496.86,-351.87 490.61,-355.48"/>
<text text-anchor="middle" x="504.5" y="-377" font-family="Helvetica,sans-Serif" font-size="10.00"> +flags</text>
</g>
<!-- Node13 -->
<g id="node13" class="node">
<title>Node13</title>
<g id="a_node13"><a xlink:href="structEmcPose.html" target="_top" xlink:title=" ">
<polygon fill="white" stroke="black" points="653.5,-122 653.5,-179 714.5,-179 714.5,-122 653.5,-122"/>
<text text-anchor="middle" x="684" y="-167" font-family="Helvetica,sans-Serif" font-size="10.00">EmcPose</text>
<polyline fill="none" stroke="black" points="653.5,-160 714.5,-160 "/>
<text text-anchor="middle" x="684" y="-148" font-family="Helvetica,sans-Serif" font-size="10.00"> </text>
<polyline fill="none" stroke="black" points="653.5,-141 714.5,-141 "/>
<text text-anchor="middle" x="684" y="-129" font-family="Helvetica,sans-Serif" font-size="10.00"> </text>
</a>
</g>
</g>
<!-- Node13&#45;&gt;Node1 -->
<g id="edge15" class="edge">
<title>Node13&#45;&gt;Node1</title>
<path fill="none" stroke="#404040" d="M656.61,-121.96C643.83,-110.13 627.93,-96.8 612,-87 601.14,-80.32 589.25,-74.16 577.26,-68.61"/>
<polygon fill="none" stroke="#404040" points="577.2,-68.58 570.09,-69.79 566.24,-63.68 573.35,-62.48 577.2,-68.58"/>
<text text-anchor="middle" x="643" y="-90" font-family="Helvetica,sans-Serif" font-size="10.00"> +end</text>
</g>
<!-- Node14 -->
<g id="node14" class="node">
<title>Node14</title>
<g id="a_node14"><a xlink:href="structPmCartesian.html" target="_top" xlink:title=" ">
<polygon fill="white" stroke="black" points="626.5,-271 626.5,-328 705.5,-328 705.5,-271 626.5,-271"/>
<text text-anchor="middle" x="666" y="-316" font-family="Helvetica,sans-Serif" font-size="10.00">PmCartesian</text>
<polyline fill="none" stroke="black" points="626.5,-309 705.5,-309 "/>
<text text-anchor="middle" x="666" y="-297" font-family="Helvetica,sans-Serif" font-size="10.00"> </text>
<polyline fill="none" stroke="black" points="626.5,-290 705.5,-290 "/>
<text text-anchor="middle" x="666" y="-278" font-family="Helvetica,sans-Serif" font-size="10.00"> </text>
</a>
</g>
</g>
<!-- Node14&#45;&gt;Node13 -->
<g id="edge16" class="edge">
<title>Node14&#45;&gt;Node13</title>
<path fill="none" stroke="#404040" d="M669.39,-270.85C672.14,-248.37 676.06,-216.35 679.15,-191.14"/>
<polygon fill="none" stroke="#404040" points="679.17,-190.94 675.93,-184.49 680.63,-179.03 683.87,-185.47 679.17,-190.94"/>
<text text-anchor="middle" x="693.5" y="-217" font-family="Helvetica,sans-Serif" font-size="10.00"> +tran</text>
</g>
<!-- Node15 -->
<g id="node15" class="node">
<title>Node15</title>
<g id="a_node15"><a xlink:title=" ">
<polygon fill="white" stroke="black" points="641,-436.5 641,-493.5 691,-493.5 691,-436.5 641,-436.5"/>
<text text-anchor="middle" x="666" y="-481.5" font-family="Helvetica,sans-Serif" font-size="10.00">double</text>
<polyline fill="none" stroke="black" points="641,-474.5 691,-474.5 "/>
<text text-anchor="middle" x="666" y="-462.5" font-family="Helvetica,sans-Serif" font-size="10.00"> </text>
<polyline fill="none" stroke="black" points="641,-455.5 691,-455.5 "/>
<text text-anchor="middle" x="666" y="-443.5" font-family="Helvetica,sans-Serif" font-size="10.00"> </text>
</a>
</g>
</g>
<!-- Node15&#45;&gt;Node1 -->
<g id="edge19" class="edge">
<title>Node15&#45;&gt;Node1</title>
<path fill="none" stroke="#404040" d="M654.68,-436.45C638.16,-396.28 606.43,-319.31 579,-254 553.65,-193.63 523.96,-124.08 505.07,-79.97"/>
<polygon fill="none" stroke="#404040" points="505.01,-79.8 498.97,-75.86 500.28,-68.77 506.32,-72.71 505.01,-79.8"/>
<text text-anchor="middle" x="603.5" y="-228" font-family="Helvetica,sans-Serif" font-size="10.00"> +acc</text>
<text text-anchor="middle" x="603.5" y="-217" font-family="Helvetica,sans-Serif" font-size="10.00">+ini_maxvel</text>
<text text-anchor="middle" x="603.5" y="-206" font-family="Helvetica,sans-Serif" font-size="10.00">+vel</text>
</g>
<!-- Node15&#45;&gt;Node13 -->
<g id="edge18" class="edge">
<title>Node15&#45;&gt;Node13</title>
<path fill="none" stroke="#404040" d="M680.83,-436.09C692.45,-412.55 707.68,-377.58 714,-345 726.02,-283.04 729.6,-263.89 713,-203 711.81,-198.63 710.17,-194.25 708.27,-189.97"/>
<polygon fill="none" stroke="#404040" points="708.15,-189.73 701.88,-186.17 702.76,-179.01 709.03,-182.58 708.15,-189.73"/>
<text text-anchor="middle" x="734" y="-324.5" font-family="Helvetica,sans-Serif" font-size="10.00"> +a</text>
<text text-anchor="middle" x="734" y="-313.5" font-family="Helvetica,sans-Serif" font-size="10.00">+b</text>
<text text-anchor="middle" x="734" y="-302.5" font-family="Helvetica,sans-Serif" font-size="10.00">+c</text>
<text text-anchor="middle" x="734" y="-291.5" font-family="Helvetica,sans-Serif" font-size="10.00">+u</text>
<text text-anchor="middle" x="734" y="-280.5" font-family="Helvetica,sans-Serif" font-size="10.00">+v</text>
<text text-anchor="middle" x="734" y="-269.5" font-family="Helvetica,sans-Serif" font-size="10.00">+w</text>
</g>
<!-- Node15&#45;&gt;Node14 -->
<g id="edge17" class="edge">
<title>Node15&#45;&gt;Node14</title>
<path fill="none" stroke="#404040" d="M666,-436.26C666,-409.88 666,-369.9 666,-340.15"/>
<polygon fill="none" stroke="#404040" points="666,-340.1 662,-334.1 666,-328.1 670,-334.1 666,-340.1"/>
<text text-anchor="middle" x="675" y="-388" font-family="Helvetica,sans-Serif" font-size="10.00"> +x</text>
<text text-anchor="middle" x="675" y="-377" font-family="Helvetica,sans-Serif" font-size="10.00">+y</text>
<text text-anchor="middle" x="675" y="-366" font-family="Helvetica,sans-Serif" font-size="10.00">+z</text>
</g>
</g>
</svg>
