<?xml version="1.0" encoding="UTF-8" standalone="no"?>
<!DOCTYPE svg PUBLIC "-//W3C//DTD SVG 1.1//EN"
 "http://www.w3.org/Graphics/SVG/1.1/DTD/svg11.dtd">
<!-- Generated by graphviz version 2.43.0 (0)
 -->
<!-- Title: EMC_SYSTEM_CMD Pages: 1 -->
<svg width="238pt" height="437pt"
 viewBox="0.00 0.00 237.50 437.00" xmlns="http://www.w3.org/2000/svg" xmlns:xlink="http://www.w3.org/1999/xlink">
<g id="graph0" class="graph" transform="scale(1 1) rotate(0) translate(4 433)">
<title>EMC_SYSTEM_CMD</title>
<polygon fill="white" stroke="transparent" points="-4,4 -4,-433 233.5,-433 233.5,4 -4,4"/>
<!-- Node1 -->
<g id="node1" class="node">
<title>Node1</title>
<g id="a_node1"><a xlink:title=" ">
<polygon fill="#bfbfbf" stroke="black" points="36.5,-0.5 36.5,-68.5 166.5,-68.5 166.5,-0.5 36.5,-0.5"/>
<text text-anchor="middle" x="101.5" y="-56.5" font-family="Helvetica,sans-Serif" font-size="10.00">EMC_SYSTEM_CMD</text>
<polyline fill="none" stroke="black" points="36.5,-49.5 166.5,-49.5 "/>
<text text-anchor="middle" x="101.5" y="-37.5" font-family="Helvetica,sans-Serif" font-size="10.00"> </text>
<polyline fill="none" stroke="black" points="36.5,-30.5 166.5,-30.5 "/>
<text text-anchor="start" x="44.5" y="-18.5" font-family="Helvetica,sans-Serif" font-size="10.00">+ EMC_SYSTEM_CMD()</text>
<text text-anchor="start" x="44.5" y="-7.5" font-family="Helvetica,sans-Serif" font-size="10.00">+ update()</text>
</a>
</g>
</g>
<!-- Node2 -->
<g id="node2" class="node">
<title>Node2</title>
<g id="a_node2"><a xlink:href="classRCS__CMD__MSG.html" target="_top" xlink:title=" ">
<polygon fill="white" stroke="black" points="0,-116.5 0,-173.5 111,-173.5 111,-116.5 0,-116.5"/>
<text text-anchor="middle" x="55.5" y="-161.5" font-family="Helvetica,sans-Serif" font-size="10.00">RCS_CMD_MSG</text>
<polyline fill="none" stroke="black" points="0,-154.5 111,-154.5 "/>
<text text-anchor="middle" x="55.5" y="-142.5" font-family="Helvetica,sans-Serif" font-size="10.00"> </text>
<polyline fill="none" stroke="black" points="0,-135.5 111,-135.5 "/>
<text text-anchor="start" x="8" y="-123.5" font-family="Helvetica,sans-Serif" font-size="10.00">+ RCS_CMD_MSG()</text>
</a>
</g>
</g>
<!-- Node2&#45;&gt;Node1 -->
<g id="edge1" class="edge">
<title>Node2&#45;&gt;Node1</title>
<path fill="none" stroke="midnightblue" d="M71.15,-107.09C76.45,-94.59 82.34,-80.7 87.5,-68.52"/>
<polygon fill="none" stroke="midnightblue" points="67.91,-105.77 67.23,-116.34 74.35,-108.5 67.91,-105.77"/>
</g>
<!-- Node3 -->
<g id="node3" class="node">
<title>Node3</title>
<g id="a_node3"><a xlink:href="classNMLmsg.html" target="_top" xlink:title=" ">
<polygon fill="white" stroke="black" points="143.5,-211.5 143.5,-312.5 221.5,-312.5 221.5,-211.5 143.5,-211.5"/>
<text text-anchor="middle" x="182.5" y="-300.5" font-family="Helvetica,sans-Serif" font-size="10.00">NMLmsg</text>
<polyline fill="none" stroke="black" points="143.5,-293.5 221.5,-293.5 "/>
<text text-anchor="middle" x="182.5" y="-281.5" font-family="Helvetica,sans-Serif" font-size="10.00"> </text>
<polyline fill="none" stroke="black" points="143.5,-274.5 221.5,-274.5 "/>
<text text-anchor="start" x="151.5" y="-262.5" font-family="Helvetica,sans-Serif" font-size="10.00">+ clear()</text>
<text text-anchor="start" x="151.5" y="-251.5" font-family="Helvetica,sans-Serif" font-size="10.00">+ update()</text>
<text text-anchor="start" x="151.5" y="-240.5" font-family="Helvetica,sans-Serif" font-size="10.00"># NMLmsg()</text>
<text text-anchor="start" x="151.5" y="-229.5" font-family="Helvetica,sans-Serif" font-size="10.00"># NMLmsg()</text>
<text text-anchor="start" x="151.5" y="-218.5" font-family="Helvetica,sans-Serif" font-size="10.00"># NMLmsg()</text>
</a>
</g>
</g>
<!-- Node3&#45;&gt;Node2 -->
<g id="edge2" class="edge">
<title>Node3&#45;&gt;Node2</title>
<path fill="none" stroke="midnightblue" d="M135.91,-216.87C133.75,-214.88 131.6,-212.92 129.5,-211 115.84,-198.57 100.54,-185.06 87.41,-173.59"/>
<polygon fill="none" stroke="midnightblue" points="133.57,-219.48 143.28,-223.71 138.33,-214.34 133.57,-219.48"/>
</g>
<!-- Node4 -->
<g id="node4" class="node">
<title>Node4</title>
<g id="a_node4"><a xlink:title=" ">
<polygon fill="white" stroke="black" points="46,-371.5 46,-428.5 75,-428.5 75,-371.5 46,-371.5"/>
<text text-anchor="middle" x="60.5" y="-416.5" font-family="Helvetica,sans-Serif" font-size="10.00">int</text>
<polyline fill="none" stroke="black" points="46,-409.5 75,-409.5 "/>
<text text-anchor="middle" x="60.5" y="-397.5" font-family="Helvetica,sans-Serif" font-size="10.00"> </text>
<polyline fill="none" stroke="black" points="46,-390.5 75,-390.5 "/>
<text text-anchor="middle" x="60.5" y="-378.5" font-family="Helvetica,sans-Serif" font-size="10.00"> </text>
</a>
</g>
</g>
<!-- Node4&#45;&gt;Node2 -->
<g id="edge5" class="edge">
<title>Node4&#45;&gt;Node2</title>
<path fill="none" stroke="#404040" d="M57.25,-371.16C55.45,-354.35 53.4,-332.47 52.5,-313 50.4,-267.72 51.45,-256.32 52.5,-211 52.69,-202.83 53.01,-194.08 53.37,-185.73"/>
<polygon fill="none" stroke="#404040" points="53.39,-185.49 49.67,-179.31 53.95,-173.51 57.66,-179.69 53.39,-185.49"/>
<text text-anchor="middle" x="93.5" y="-259.5" font-family="Helvetica,sans-Serif" font-size="10.00"> +serial_number</text>
</g>
<!-- Node4&#45;&gt;Node3 -->
<g id="edge3" class="edge">
<title>Node4&#45;&gt;Node3</title>
<path fill="none" stroke="#404040" d="M63.78,-371.3C66.69,-357.68 72.17,-341.89 82.5,-331 97.89,-314.77 110.56,-324.9 129.5,-313 130.83,-312.17 132.15,-311.3 133.46,-310.4"/>
<polygon fill="none" stroke="#404040" points="133.75,-310.18 136.15,-303.38 143.35,-302.98 140.95,-309.78 133.75,-310.18"/>
<text text-anchor="middle" x="137" y="-345" font-family="Helvetica,sans-Serif" font-size="10.00"> +automatically_clear</text>
<text text-anchor="middle" x="137" y="-334" font-family="Helvetica,sans-Serif" font-size="10.00">+type</text>
</g>
<!-- Node5 -->
<g id="node5" class="node">
<title>Node5</title>
<g id="a_node5"><a xlink:title=" ">
<polygon fill="white" stroke="black" points="189.5,-371.5 189.5,-428.5 227.5,-428.5 227.5,-371.5 189.5,-371.5"/>
<text text-anchor="middle" x="208.5" y="-416.5" font-family="Helvetica,sans-Serif" font-size="10.00">long</text>
<polyline fill="none" stroke="black" points="189.5,-409.5 227.5,-409.5 "/>
<text text-anchor="middle" x="208.5" y="-397.5" font-family="Helvetica,sans-Serif" font-size="10.00"> </text>
<polyline fill="none" stroke="black" points="189.5,-390.5 227.5,-390.5 "/>
<text text-anchor="middle" x="208.5" y="-378.5" font-family="Helvetica,sans-Serif" font-size="10.00"> </text>
</a>
</g>
</g>
<!-- Node5&#45;&gt;Node3 -->
<g id="edge4" class="edge">
<title>Node5&#45;&gt;Node3</title>
<path fill="none" stroke="#404040" d="M203.24,-371.48C200.65,-357.93 197.41,-341 194.27,-324.58"/>
<polygon fill="none" stroke="#404040" points="194.27,-324.55 189.21,-319.41 192.01,-312.76 197.07,-317.91 194.27,-324.55"/>
<text text-anchor="middle" x="214" y="-339.5" font-family="Helvetica,sans-Serif" font-size="10.00"> +size</text>
</g>
<!-- Node6 -->
<g id="node6" class="node">
<title>Node6</title>
<g id="a_node6"><a xlink:title=" ">
<polygon fill="white" stroke="black" points="129.5,-116.5 129.5,-173.5 167.5,-173.5 167.5,-116.5 129.5,-116.5"/>
<text text-anchor="middle" x="148.5" y="-161.5" font-family="Helvetica,sans-Serif" font-size="10.00">char</text>
<polyline fill="none" stroke="black" points="129.5,-154.5 167.5,-154.5 "/>
<text text-anchor="middle" x="148.5" y="-142.5" font-family="Helvetica,sans-Serif" font-size="10.00"> </text>
<polyline fill="none" stroke="black" points="129.5,-135.5 167.5,-135.5 "/>
<text text-anchor="middle" x="148.5" y="-123.5" font-family="Helvetica,sans-Serif" font-size="10.00"> </text>
</a>
</g>
</g>
<!-- Node6&#45;&gt;Node1 -->
<g id="edge6" class="edge">
<title>Node6&#45;&gt;Node1</title>
<path fill="none" stroke="#404040" d="M136.52,-116.34C131.69,-105.19 125.99,-92.04 120.62,-79.63"/>
<polygon fill="none" stroke="#404040" points="120.57,-79.53 114.52,-75.61 115.8,-68.52 121.86,-72.43 120.57,-79.53"/>
<text text-anchor="middle" x="147.5" y="-90" font-family="Helvetica,sans-Serif" font-size="10.00"> +string</text>
</g>
</g>
</svg>
