<?xml version="1.0" encoding="UTF-8" standalone="no"?>
<!DOCTYPE svg PUBLIC "-//W3C//DTD SVG 1.1//EN"
 "http://www.w3.org/Graphics/SVG/1.1/DTD/svg11.dtd">
<!-- Generated by graphviz version 2.43.0 (0)
 -->
<!-- Title: EMC_AUX_STAT Pages: 1 -->
<svg width="331pt" height="543pt"
 viewBox="0.00 0.00 331.00 543.00" xmlns="http://www.w3.org/2000/svg" xmlns:xlink="http://www.w3.org/1999/xlink">
<g id="graph0" class="graph" transform="scale(1 1) rotate(0) translate(4 539)">
<title>EMC_AUX_STAT</title>
<polygon fill="white" stroke="transparent" points="-4,4 -4,-539 327,-539 327,4 -4,4"/>
<!-- Node1 -->
<g id="node1" class="node">
<title>Node1</title>
<g id="a_node1"><a xlink:title=" ">
<polygon fill="#bfbfbf" stroke="black" points="0,-0.5 0,-68.5 112,-68.5 112,-0.5 0,-0.5"/>
<text text-anchor="middle" x="56" y="-56.5" font-family="Helvetica,sans-Serif" font-size="10.00">EMC_AUX_STAT</text>
<polyline fill="none" stroke="black" points="0,-49.5 112,-49.5 "/>
<text text-anchor="middle" x="56" y="-37.5" font-family="Helvetica,sans-Serif" font-size="10.00"> </text>
<polyline fill="none" stroke="black" points="0,-30.5 112,-30.5 "/>
<text text-anchor="start" x="8" y="-18.5" font-family="Helvetica,sans-Serif" font-size="10.00">+ EMC_AUX_STAT()</text>
<text text-anchor="start" x="8" y="-7.5" font-family="Helvetica,sans-Serif" font-size="10.00">+ update()</text>
</a>
</g>
</g>
<!-- Node2 -->
<g id="node2" class="node">
<title>Node2</title>
<g id="a_node2"><a xlink:href="classEMC__AUX__STAT__MSG.html" target="_top" xlink:title=" ">
<polygon fill="white" stroke="black" points="77,-106.5 77,-174.5 217,-174.5 217,-106.5 77,-106.5"/>
<text text-anchor="middle" x="147" y="-162.5" font-family="Helvetica,sans-Serif" font-size="10.00">EMC_AUX_STAT_MSG</text>
<polyline fill="none" stroke="black" points="77,-155.5 217,-155.5 "/>
<text text-anchor="middle" x="147" y="-143.5" font-family="Helvetica,sans-Serif" font-size="10.00"> </text>
<polyline fill="none" stroke="black" points="77,-136.5 217,-136.5 "/>
<text text-anchor="start" x="85" y="-124.5" font-family="Helvetica,sans-Serif" font-size="10.00">+ EMC_AUX_STAT_MSG()</text>
<text text-anchor="start" x="85" y="-113.5" font-family="Helvetica,sans-Serif" font-size="10.00">+ update()</text>
</a>
</g>
</g>
<!-- Node2&#45;&gt;Node1 -->
<g id="edge1" class="edge">
<title>Node2&#45;&gt;Node1</title>
<path fill="none" stroke="midnightblue" d="M111.15,-98.53C102.51,-88.65 93.37,-78.21 85.08,-68.73"/>
<polygon fill="none" stroke="midnightblue" points="108.74,-101.09 117.96,-106.31 114.01,-96.48 108.74,-101.09"/>
</g>
<!-- Node3 -->
<g id="node3" class="node">
<title>Node3</title>
<g id="a_node3"><a xlink:href="classRCS__STAT__MSG.html" target="_top" xlink:title=" ">
<polygon fill="white" stroke="black" points="123.5,-212.5 123.5,-269.5 234.5,-269.5 234.5,-212.5 123.5,-212.5"/>
<text text-anchor="middle" x="179" y="-257.5" font-family="Helvetica,sans-Serif" font-size="10.00">RCS_STAT_MSG</text>
<polyline fill="none" stroke="black" points="123.5,-250.5 234.5,-250.5 "/>
<text text-anchor="middle" x="179" y="-238.5" font-family="Helvetica,sans-Serif" font-size="10.00"> </text>
<polyline fill="none" stroke="black" points="123.5,-231.5 234.5,-231.5 "/>
<text text-anchor="start" x="131.5" y="-219.5" font-family="Helvetica,sans-Serif" font-size="10.00">+ RCS_STAT_MSG()</text>
</a>
</g>
</g>
<!-- Node3&#45;&gt;Node2 -->
<g id="edge2" class="edge">
<title>Node3&#45;&gt;Node2</title>
<path fill="none" stroke="midnightblue" d="M166.85,-202.6C163.85,-193.38 160.67,-183.57 157.75,-174.58"/>
<polygon fill="none" stroke="midnightblue" points="163.58,-203.87 170,-212.3 170.24,-201.71 163.58,-203.87"/>
</g>
<!-- Node4 -->
<g id="node4" class="node">
<title>Node4</title>
<g id="a_node4"><a xlink:href="classNMLmsg.html" target="_top" xlink:title=" ">
<polygon fill="white" stroke="black" points="189,-317.5 189,-418.5 267,-418.5 267,-317.5 189,-317.5"/>
<text text-anchor="middle" x="228" y="-406.5" font-family="Helvetica,sans-Serif" font-size="10.00">NMLmsg</text>
<polyline fill="none" stroke="black" points="189,-399.5 267,-399.5 "/>
<text text-anchor="middle" x="228" y="-387.5" font-family="Helvetica,sans-Serif" font-size="10.00"> </text>
<polyline fill="none" stroke="black" points="189,-380.5 267,-380.5 "/>
<text text-anchor="start" x="197" y="-368.5" font-family="Helvetica,sans-Serif" font-size="10.00">+ clear()</text>
<text text-anchor="start" x="197" y="-357.5" font-family="Helvetica,sans-Serif" font-size="10.00">+ update()</text>
<text text-anchor="start" x="197" y="-346.5" font-family="Helvetica,sans-Serif" font-size="10.00"># NMLmsg()</text>
<text text-anchor="start" x="197" y="-335.5" font-family="Helvetica,sans-Serif" font-size="10.00"># NMLmsg()</text>
<text text-anchor="start" x="197" y="-324.5" font-family="Helvetica,sans-Serif" font-size="10.00"># NMLmsg()</text>
</a>
</g>
</g>
<!-- Node4&#45;&gt;Node3 -->
<g id="edge3" class="edge">
<title>Node4&#45;&gt;Node3</title>
<path fill="none" stroke="midnightblue" d="M204.73,-307.64C199.53,-294.37 194.25,-280.91 189.84,-269.66"/>
<polygon fill="none" stroke="midnightblue" points="201.58,-309.2 208.49,-317.24 208.1,-306.65 201.58,-309.2"/>
</g>
<!-- Node5 -->
<g id="node5" class="node">
<title>Node5</title>
<g id="a_node5"><a xlink:title=" ">
<polygon fill="white" stroke="black" points="49.5,-477.5 49.5,-534.5 78.5,-534.5 78.5,-477.5 49.5,-477.5"/>
<text text-anchor="middle" x="64" y="-522.5" font-family="Helvetica,sans-Serif" font-size="10.00">int</text>
<polyline fill="none" stroke="black" points="49.5,-515.5 78.5,-515.5 "/>
<text text-anchor="middle" x="64" y="-503.5" font-family="Helvetica,sans-Serif" font-size="10.00"> </text>
<polyline fill="none" stroke="black" points="49.5,-496.5 78.5,-496.5 "/>
<text text-anchor="middle" x="64" y="-484.5" font-family="Helvetica,sans-Serif" font-size="10.00"> </text>
</a>
</g>
</g>
<!-- Node5&#45;&gt;Node1 -->
<g id="edge8" class="edge">
<title>Node5&#45;&gt;Node1</title>
<path fill="none" stroke="#404040" d="M49.45,-478.79C35.97,-452.04 18,-408.88 18,-369 18,-369 18,-369 18,-139.5 18,-119.06 24.55,-97.66 32.22,-79.62"/>
<polygon fill="none" stroke="#404040" points="32.27,-79.51 31.1,-72.4 37.22,-68.58 38.39,-75.7 32.27,-79.51"/>
<text text-anchor="middle" x="37.5" y="-238.5" font-family="Helvetica,sans-Serif" font-size="10.00"> +estop</text>
</g>
<!-- Node5&#45;&gt;Node3 -->
<g id="edge6" class="edge">
<title>Node5&#45;&gt;Node3</title>
<path fill="none" stroke="#404040" d="M58.21,-477.48C51.61,-438.97 45.04,-368 73,-317 82.29,-300.05 97.24,-286.05 113.03,-274.91"/>
<polygon fill="none" stroke="#404040" points="113.46,-274.63 116.25,-267.98 123.47,-268.01 120.67,-274.65 113.46,-274.63"/>
<text text-anchor="middle" x="126.5" y="-393" font-family="Helvetica,sans-Serif" font-size="10.00"> +command_type</text>
<text text-anchor="middle" x="126.5" y="-382" font-family="Helvetica,sans-Serif" font-size="10.00">+echo_serial_number</text>
<text text-anchor="middle" x="126.5" y="-371" font-family="Helvetica,sans-Serif" font-size="10.00">+line</text>
<text text-anchor="middle" x="126.5" y="-360" font-family="Helvetica,sans-Serif" font-size="10.00">+source_line</text>
<text text-anchor="middle" x="126.5" y="-349" font-family="Helvetica,sans-Serif" font-size="10.00">+state</text>
<text text-anchor="middle" x="126.5" y="-338" font-family="Helvetica,sans-Serif" font-size="10.00">+status</text>
</g>
<!-- Node5&#45;&gt;Node4 -->
<g id="edge4" class="edge">
<title>Node5&#45;&gt;Node4</title>
<path fill="none" stroke="#404040" d="M78.71,-478.47C87.78,-464.32 100.62,-447.68 116,-437 138.52,-421.36 151.29,-432.77 175,-419 176.32,-418.23 177.64,-417.42 178.95,-416.58"/>
<polygon fill="none" stroke="#404040" points="178.99,-416.55 181.54,-409.81 188.75,-409.57 186.2,-416.31 178.99,-416.55"/>
<text text-anchor="middle" x="170.5" y="-451" font-family="Helvetica,sans-Serif" font-size="10.00"> +automatically_clear</text>
<text text-anchor="middle" x="170.5" y="-440" font-family="Helvetica,sans-Serif" font-size="10.00">+type</text>
</g>
<!-- Node6 -->
<g id="node6" class="node">
<title>Node6</title>
<g id="a_node6"><a xlink:title=" ">
<polygon fill="white" stroke="black" points="210,-477.5 210,-534.5 248,-534.5 248,-477.5 210,-477.5"/>
<text text-anchor="middle" x="229" y="-522.5" font-family="Helvetica,sans-Serif" font-size="10.00">long</text>
<polyline fill="none" stroke="black" points="210,-515.5 248,-515.5 "/>
<text text-anchor="middle" x="229" y="-503.5" font-family="Helvetica,sans-Serif" font-size="10.00"> </text>
<polyline fill="none" stroke="black" points="210,-496.5 248,-496.5 "/>
<text text-anchor="middle" x="229" y="-484.5" font-family="Helvetica,sans-Serif" font-size="10.00"> </text>
</a>
</g>
</g>
<!-- Node6&#45;&gt;Node4 -->
<g id="edge5" class="edge">
<title>Node6&#45;&gt;Node4</title>
<path fill="none" stroke="#404040" d="M228.8,-477.48C228.7,-464.06 228.58,-447.33 228.46,-431.06"/>
<polygon fill="none" stroke="#404040" points="228.45,-430.76 224.41,-424.79 228.37,-418.76 232.41,-424.73 228.45,-430.76"/>
<text text-anchor="middle" x="244.5" y="-445.5" font-family="Helvetica,sans-Serif" font-size="10.00"> +size</text>
</g>
<!-- Node7 -->
<g id="node7" class="node">
<title>Node7</title>
<g id="a_node7"><a xlink:title=" ">
<polygon fill="white" stroke="black" points="285,-339.5 285,-396.5 323,-396.5 323,-339.5 285,-339.5"/>
<text text-anchor="middle" x="304" y="-384.5" font-family="Helvetica,sans-Serif" font-size="10.00">char</text>
<polyline fill="none" stroke="black" points="285,-377.5 323,-377.5 "/>
<text text-anchor="middle" x="304" y="-365.5" font-family="Helvetica,sans-Serif" font-size="10.00"> </text>
<polyline fill="none" stroke="black" points="285,-358.5 323,-358.5 "/>
<text text-anchor="middle" x="304" y="-346.5" font-family="Helvetica,sans-Serif" font-size="10.00"> </text>
</a>
</g>
</g>
<!-- Node7&#45;&gt;Node3 -->
<g id="edge7" class="edge">
<title>Node7&#45;&gt;Node3</title>
<path fill="none" stroke="#404040" d="M291.18,-339.49C286.93,-331.79 281.78,-323.71 276,-317 263.34,-302.32 247.42,-288.6 232.15,-277"/>
<polygon fill="none" stroke="#404040" points="231.91,-276.83 224.71,-276.48 222.26,-269.7 229.46,-270.05 231.91,-276.83"/>
<text text-anchor="middle" x="290" y="-291" font-family="Helvetica,sans-Serif" font-size="10.00"> +source_file</text>
</g>
</g>
</svg>
