<?xml version="1.0" encoding="UTF-8" standalone="no"?>
<!DOCTYPE svg PUBLIC "-//W3C//DTD SVG 1.1//EN"
 "http://www.w3.org/Graphics/SVG/1.1/DTD/svg11.dtd">
<!-- Generated by graphviz version 2.43.0 (0)
 -->
<!-- Title: EMC_AXIS_STAT Pages: 1 -->
<!--zoomable 564 -->
<svg id="main" version="1.1" xmlns="http://www.w3.org/2000/svg" xmlns:xlink="http://www.w3.org/1999/xlink" xml:space="preserve" onload="init(evt)">
<style type="text/css"><![CDATA[
.edge:hover path { stroke: red; }
.edge:hover polygon { stroke: red; fill: red; }
]]></style>
<script type="text/javascript"><![CDATA[
var edges = document.getElementsByTagName('g');
if (edges && edges.length) {
  for (var i=0;i<edges.length;i++) {
    if (edges[i].id.substr(0,4)=='edge') {
      edges[i].setAttribute('class','edge');
    }
  }
}
]]></script>
        <defs>
                <circle id="rim" cx="0" cy="0" r="7"/>
                <circle id="rim2" cx="0" cy="0" r="3.5"/>
                <g id="zoomPlus">
                        <use xlink:href="#rim" fill="#404040">
                                <set attributeName="fill" to="#808080" begin="zoomplus.mouseover" end="zoomplus.mouseout"/>
                        </use>
                        <path d="M-4,0h8M0,-4v8" fill="none" stroke="white" stroke-width="1.5" pointer-events="none"/>
                </g>
                <g id="zoomMin">
                        <use xlink:href="#rim" fill="#404040">
                                <set attributeName="fill" to="#808080" begin="zoomminus.mouseover" end="zoomminus.mouseout"/>
                        </use>
                        <path d="M-4,0h8" fill="none" stroke="white" stroke-width="1.5" pointer-events="none"/>
                </g>
                <g id="dirArrow">
                        <path fill="none" stroke="white" stroke-width="1.5" d="M0,-3.0v7 M-2.5,-0.5L0,-3.0L2.5,-0.5"/>
                </g>
               <g id="resetDef">
                       <use xlink:href="#rim2" fill="#404040">
                               <set attributeName="fill" to="#808080" begin="reset.mouseover" end="reset.mouseout"/>
                       </use>
               </g>
        </defs>

<script type="text/javascript">
var viewWidth = 494;
var viewHeight = 564;
var sectionId = 'dynsection-1';
</script>
<script xlink:href="svgpan.js"/>
<svg id="graph" class="graph">
<g id="viewport">
<title>EMC_AXIS_STAT</title>
<polygon fill="white" stroke="transparent" points="-4,4 -4,-560 489.5,-560 489.5,4 -4,4"/>
<!-- Node1 -->
<g id="node1" class="node">
<title>Node1</title>
<g id="a_node1"><a xlink:title=" ">
<polygon fill="#bfbfbf" stroke="black" points="71,-0.5 71,-68.5 184,-68.5 184,-0.5 71,-0.5"/>
<text text-anchor="middle" x="127.5" y="-56.5" font-family="Helvetica,sans-Serif" font-size="10.00">EMC_AXIS_STAT</text>
<polyline fill="none" stroke="black" points="71,-49.5 184,-49.5 "/>
<text text-anchor="middle" x="127.5" y="-37.5" font-family="Helvetica,sans-Serif" font-size="10.00"> </text>
<polyline fill="none" stroke="black" points="71,-30.5 184,-30.5 "/>
<text text-anchor="start" x="79" y="-18.5" font-family="Helvetica,sans-Serif" font-size="10.00">+ EMC_AXIS_STAT()</text>
<text text-anchor="start" x="79" y="-7.5" font-family="Helvetica,sans-Serif" font-size="10.00">+ update()</text>
</a>
</g>
</g>
<!-- Node2 -->
<g id="node2" class="node">
<title>Node2</title>
<g id="a_node2"><a xlink:href="classEMC__AXIS__STAT__MSG.html" target="_top" xlink:title=" ">
<polygon fill="white" stroke="black" points="0,-138.5 0,-206.5 141,-206.5 141,-138.5 0,-138.5"/>
<text text-anchor="middle" x="70.5" y="-194.5" font-family="Helvetica,sans-Serif" font-size="10.00">EMC_AXIS_STAT_MSG</text>
<polyline fill="none" stroke="black" points="0,-187.5 141,-187.5 "/>
<text text-anchor="middle" x="70.5" y="-175.5" font-family="Helvetica,sans-Serif" font-size="10.00"> </text>
<polyline fill="none" stroke="black" points="0,-168.5 141,-168.5 "/>
<text text-anchor="start" x="8" y="-156.5" font-family="Helvetica,sans-Serif" font-size="10.00">+ EMC_AXIS_STAT_MSG()</text>
<text text-anchor="start" x="8" y="-145.5" font-family="Helvetica,sans-Serif" font-size="10.00">+ update()</text>
</a>
</g>
</g>
<!-- Node2&#45;&gt;Node1 -->
<g id="edge1" class="edge">
<title>Node2&#45;&gt;Node1</title>
<path fill="none" stroke="midnightblue" d="M88.42,-128.75C96.51,-109.43 105.94,-86.95 113.5,-68.9"/>
<polygon fill="none" stroke="midnightblue" points="85.08,-127.66 84.44,-138.23 91.54,-130.36 85.08,-127.66"/>
</g>
<!-- Node3 -->
<g id="node3" class="node">
<title>Node3</title>
<g id="a_node3"><a xlink:href="classRCS__STAT__MSG.html" target="_top" xlink:title=" ">
<polygon fill="white" stroke="black" points="217,-244.5 217,-301.5 328,-301.5 328,-244.5 217,-244.5"/>
<text text-anchor="middle" x="272.5" y="-289.5" font-family="Helvetica,sans-Serif" font-size="10.00">RCS_STAT_MSG</text>
<polyline fill="none" stroke="black" points="217,-282.5 328,-282.5 "/>
<text text-anchor="middle" x="272.5" y="-270.5" font-family="Helvetica,sans-Serif" font-size="10.00"> </text>
<polyline fill="none" stroke="black" points="217,-263.5 328,-263.5 "/>
<text text-anchor="start" x="225" y="-251.5" font-family="Helvetica,sans-Serif" font-size="10.00">+ RCS_STAT_MSG()</text>
</a>
</g>
</g>
<!-- Node3&#45;&gt;Node2 -->
<g id="edge2" class="edge">
<title>Node3&#45;&gt;Node2</title>
<path fill="none" stroke="midnightblue" d="M207.76,-240.43C185.58,-229.61 160.69,-217.48 138.27,-206.55"/>
<polygon fill="none" stroke="midnightblue" points="206.25,-243.59 216.77,-244.82 209.31,-237.29 206.25,-243.59"/>
</g>
<!-- Node4 -->
<g id="node4" class="node">
<title>Node4</title>
<g id="a_node4"><a xlink:href="classNMLmsg.html" target="_top" xlink:title=" ">
<polygon fill="white" stroke="black" points="233.5,-349.5 233.5,-450.5 311.5,-450.5 311.5,-349.5 233.5,-349.5"/>
<text text-anchor="middle" x="272.5" y="-438.5" font-family="Helvetica,sans-Serif" font-size="10.00">NMLmsg</text>
<polyline fill="none" stroke="black" points="233.5,-431.5 311.5,-431.5 "/>
<text text-anchor="middle" x="272.5" y="-419.5" font-family="Helvetica,sans-Serif" font-size="10.00"> </text>
<polyline fill="none" stroke="black" points="233.5,-412.5 311.5,-412.5 "/>
<text text-anchor="start" x="241.5" y="-400.5" font-family="Helvetica,sans-Serif" font-size="10.00">+ clear()</text>
<text text-anchor="start" x="241.5" y="-389.5" font-family="Helvetica,sans-Serif" font-size="10.00">+ update()</text>
<text text-anchor="start" x="241.5" y="-378.5" font-family="Helvetica,sans-Serif" font-size="10.00"># NMLmsg()</text>
<text text-anchor="start" x="241.5" y="-367.5" font-family="Helvetica,sans-Serif" font-size="10.00"># NMLmsg()</text>
<text text-anchor="start" x="241.5" y="-356.5" font-family="Helvetica,sans-Serif" font-size="10.00"># NMLmsg()</text>
</a>
</g>
</g>
<!-- Node4&#45;&gt;Node3 -->
<g id="edge3" class="edge">
<title>Node4&#45;&gt;Node3</title>
<path fill="none" stroke="midnightblue" d="M272.5,-338.87C272.5,-325.85 272.5,-312.69 272.5,-301.66"/>
<polygon fill="none" stroke="midnightblue" points="269,-339.24 272.5,-349.24 276,-339.24 269,-339.24"/>
</g>
<!-- Node5 -->
<g id="node5" class="node">
<title>Node5</title>
<g id="a_node5"><a xlink:title=" ">
<polygon fill="white" stroke="black" points="91,-498.5 91,-555.5 120,-555.5 120,-498.5 91,-498.5"/>
<text text-anchor="middle" x="105.5" y="-543.5" font-family="Helvetica,sans-Serif" font-size="10.00">int</text>
<polyline fill="none" stroke="black" points="91,-536.5 120,-536.5 "/>
<text text-anchor="middle" x="105.5" y="-524.5" font-family="Helvetica,sans-Serif" font-size="10.00"> </text>
<polyline fill="none" stroke="black" points="91,-517.5 120,-517.5 "/>
<text text-anchor="middle" x="105.5" y="-505.5" font-family="Helvetica,sans-Serif" font-size="10.00"> </text>
</a>
</g>
</g>
<!-- Node5&#45;&gt;Node2 -->
<g id="edge10" class="edge">
<title>Node5&#45;&gt;Node2</title>
<path fill="none" stroke="#404040" d="M95.18,-498.07C93.35,-492.17 91.65,-485.94 90.5,-480 88.03,-467.32 89.36,-463.89 88.5,-451 83.03,-369.22 76.9,-273.86 73.39,-218.9"/>
<polygon fill="none" stroke="#404040" points="73.38,-218.8 69.01,-213.06 72.62,-206.82 76.99,-212.55 73.38,-218.8"/>
<text text-anchor="middle" x="97.5" y="-323" font-family="Helvetica,sans-Serif" font-size="10.00"> +axis</text>
</g>
<!-- Node5&#45;&gt;Node3 -->
<g id="edge8" class="edge">
<title>Node5&#45;&gt;Node3</title>
<path fill="none" stroke="#404040" d="M98.83,-498.46C91.48,-461.18 84.32,-394.15 114.5,-349 135.18,-318.06 172.27,-299.56 205.32,-288.67"/>
<polygon fill="none" stroke="#404040" points="205.34,-288.67 209.89,-283.08 216.8,-285.13 212.25,-290.72 205.34,-288.67"/>
<text text-anchor="middle" x="169.5" y="-419.5" font-family="Helvetica,sans-Serif" font-size="10.00"> +echo_serial_number</text>
<text text-anchor="middle" x="169.5" y="-408.5" font-family="Helvetica,sans-Serif" font-size="10.00">+line</text>
<text text-anchor="middle" x="169.5" y="-397.5" font-family="Helvetica,sans-Serif" font-size="10.00">+source_line</text>
<text text-anchor="middle" x="169.5" y="-386.5" font-family="Helvetica,sans-Serif" font-size="10.00">+state</text>
<text text-anchor="middle" x="169.5" y="-375.5" font-family="Helvetica,sans-Serif" font-size="10.00">+status</text>
</g>
<!-- Node5&#45;&gt;Node4 -->
<g id="edge4" class="edge">
<title>Node5&#45;&gt;Node4</title>
<path fill="none" stroke="#404040" d="M120.01,-506.03C129.88,-493.75 143.95,-478.58 159.5,-469 183.21,-454.4 195.39,-464.93 219.5,-451 220.82,-450.23 222.14,-449.43 223.45,-448.59"/>
<polygon fill="none" stroke="#404040" points="223.5,-448.56 226.06,-441.82 233.27,-441.59 230.7,-448.33 223.5,-448.56"/>
<text text-anchor="middle" x="214" y="-472" font-family="Helvetica,sans-Serif" font-size="10.00"> +automatically_clear</text>
</g>
<!-- Node6 -->
<g id="node6" class="node">
<title>Node6</title>
<g id="a_node6"><a xlink:title=" ">
<polygon fill="white" stroke="black" points="348.5,-498.5 348.5,-555.5 398.5,-555.5 398.5,-498.5 348.5,-498.5"/>
<text text-anchor="middle" x="373.5" y="-543.5" font-family="Helvetica,sans-Serif" font-size="10.00">int32_t</text>
<polyline fill="none" stroke="black" points="348.5,-536.5 398.5,-536.5 "/>
<text text-anchor="middle" x="373.5" y="-524.5" font-family="Helvetica,sans-Serif" font-size="10.00"> </text>
<polyline fill="none" stroke="black" points="348.5,-517.5 398.5,-517.5 "/>
<text text-anchor="middle" x="373.5" y="-505.5" font-family="Helvetica,sans-Serif" font-size="10.00"> </text>
</a>
</g>
</g>
<!-- Node6&#45;&gt;Node3 -->
<g id="edge7" class="edge">
<title>Node6&#45;&gt;Node3</title>
<path fill="none" stroke="#404040" d="M382.91,-498.34C395.43,-456.1 412.12,-374.7 376.5,-320 367.74,-306.55 354.06,-297.01 339.47,-290.24"/>
<polygon fill="none" stroke="#404040" points="339.29,-290.17 332.22,-291.58 328.2,-285.59 335.27,-284.18 339.29,-290.17"/>
<text text-anchor="middle" x="441.5" y="-397.5" font-family="Helvetica,sans-Serif" font-size="10.00"> +command_type</text>
</g>
<!-- Node6&#45;&gt;Node4 -->
<g id="edge5" class="edge">
<title>Node6&#45;&gt;Node4</title>
<path fill="none" stroke="#404040" d="M351.08,-498.26C341.64,-486.57 330.28,-472.5 319.16,-458.75"/>
<polygon fill="none" stroke="#404040" points="319.07,-458.64 312.19,-456.49 311.53,-449.31 318.41,-451.46 319.07,-458.64"/>
<text text-anchor="middle" x="351.5" y="-472" font-family="Helvetica,sans-Serif" font-size="10.00"> +type</text>
</g>
<!-- Node7 -->
<g id="node7" class="node">
<title>Node7</title>
<g id="a_node7"><a xlink:title=" ">
<polygon fill="white" stroke="black" points="253.5,-498.5 253.5,-555.5 291.5,-555.5 291.5,-498.5 253.5,-498.5"/>
<text text-anchor="middle" x="272.5" y="-543.5" font-family="Helvetica,sans-Serif" font-size="10.00">long</text>
<polyline fill="none" stroke="black" points="253.5,-536.5 291.5,-536.5 "/>
<text text-anchor="middle" x="272.5" y="-524.5" font-family="Helvetica,sans-Serif" font-size="10.00"> </text>
<polyline fill="none" stroke="black" points="253.5,-517.5 291.5,-517.5 "/>
<text text-anchor="middle" x="272.5" y="-505.5" font-family="Helvetica,sans-Serif" font-size="10.00"> </text>
</a>
</g>
</g>
<!-- Node7&#45;&gt;Node4 -->
<g id="edge6" class="edge">
<title>Node7&#45;&gt;Node4</title>
<path fill="none" stroke="#404040" d="M272.5,-498.26C272.5,-487.79 272.5,-475.42 272.5,-463.07"/>
<polygon fill="none" stroke="#404040" points="272.5,-462.8 268.5,-456.8 272.5,-450.8 276.5,-456.8 272.5,-462.8"/>
<text text-anchor="middle" x="288" y="-472" font-family="Helvetica,sans-Serif" font-size="10.00"> +size</text>
</g>
<!-- Node8 -->
<g id="node8" class="node">
<title>Node8</title>
<g id="a_node8"><a xlink:title=" ">
<polygon fill="white" stroke="black" points="329.5,-371.5 329.5,-428.5 367.5,-428.5 367.5,-371.5 329.5,-371.5"/>
<text text-anchor="middle" x="348.5" y="-416.5" font-family="Helvetica,sans-Serif" font-size="10.00">char</text>
<polyline fill="none" stroke="black" points="329.5,-409.5 367.5,-409.5 "/>
<text text-anchor="middle" x="348.5" y="-397.5" font-family="Helvetica,sans-Serif" font-size="10.00"> </text>
<polyline fill="none" stroke="black" points="329.5,-390.5 367.5,-390.5 "/>
<text text-anchor="middle" x="348.5" y="-378.5" font-family="Helvetica,sans-Serif" font-size="10.00"> </text>
</a>
</g>
</g>
<!-- Node8&#45;&gt;Node3 -->
<g id="edge9" class="edge">
<title>Node8&#45;&gt;Node3</title>
<path fill="none" stroke="#404040" d="M333.38,-371.32C329.29,-364.02 324.8,-356.17 320.5,-349 313.2,-336.82 304.96,-323.72 297.39,-311.93"/>
<polygon fill="none" stroke="#404040" points="297.19,-311.62 290.57,-308.75 290.67,-301.54 297.29,-304.41 297.19,-311.62"/>
<text text-anchor="middle" x="340.5" y="-323" font-family="Helvetica,sans-Serif" font-size="10.00"> +source_file</text>
</g>
<!-- Node9 -->
<g id="node9" class="node">
<title>Node9</title>
<g id="a_node9"><a xlink:title=" ">
<polygon fill="white" stroke="black" points="159.5,-144 159.5,-201 209.5,-201 209.5,-144 159.5,-144"/>
<text text-anchor="middle" x="184.5" y="-189" font-family="Helvetica,sans-Serif" font-size="10.00">double</text>
<polyline fill="none" stroke="black" points="159.5,-182 209.5,-182 "/>
<text text-anchor="middle" x="184.5" y="-170" font-family="Helvetica,sans-Serif" font-size="10.00"> </text>
<polyline fill="none" stroke="black" points="159.5,-163 209.5,-163 "/>
<text text-anchor="middle" x="184.5" y="-151" font-family="Helvetica,sans-Serif" font-size="10.00"> </text>
</a>
</g>
</g>
<!-- Node9&#45;&gt;Node1 -->
<g id="edge11" class="edge">
<title>Node9&#45;&gt;Node1</title>
<path fill="none" stroke="#404040" d="M172.97,-143.98C165.28,-125.64 155.01,-101.13 146.17,-80.05"/>
<polygon fill="none" stroke="#404040" points="146.07,-79.81 140.06,-75.83 141.43,-68.75 147.44,-72.74 146.07,-79.81"/>
<text text-anchor="middle" x="211" y="-112" font-family="Helvetica,sans-Serif" font-size="10.00"> +maxPositionLimit</text>
<text text-anchor="middle" x="211" y="-101" font-family="Helvetica,sans-Serif" font-size="10.00">+minPositionLimit</text>
<text text-anchor="middle" x="211" y="-90" font-family="Helvetica,sans-Serif" font-size="10.00">+velocity</text>
</g>
</g>
</svg>
        <g id="navigator" transform="translate(0 0)" fill="#404254">
                <rect fill="#f2f5e9" fill-opacity="0.5" stroke="#606060" stroke-width=".5" x="0" y="0" width="60" height="60"/>
                <use id="zoomplus" xlink:href="#zoomPlus" x="17" y="9" onmousedown="handleZoom(evt,'in')"/>
                <use id="zoomminus" xlink:href="#zoomMin" x="42" y="9" onmousedown="handleZoom(evt,'out')"/>
                <use id="reset" xlink:href="#resetDef" x="30" y="36" onmousedown="handleReset()"/>
                <g id="arrowUp" xlink:href="#dirArrow" transform="translate(30 24)" onmousedown="handlePan(0,-1)">
                  <use xlink:href="#rim" fill="#404040">
                        <set attributeName="fill" to="#808080" begin="arrowUp.mouseover" end="arrowUp.mouseout"/>
                  </use>
                  <path fill="none" stroke="white" stroke-width="1.5" d="M0,-3.0v7 M-2.5,-0.5L0,-3.0L2.5,-0.5"/>
                </g>
                <g id="arrowRight" xlink:href="#dirArrow" transform="rotate(90) translate(36 -43)" onmousedown="handlePan(1,0)">
                  <use xlink:href="#rim" fill="#404040">
                        <set attributeName="fill" to="#808080" begin="arrowRight.mouseover" end="arrowRight.mouseout"/>
                  </use>
                  <path fill="none" stroke="white" stroke-width="1.5" d="M0,-3.0v7 M-2.5,-0.5L0,-3.0L2.5,-0.5"/>
                </g>
                <g id="arrowDown" xlink:href="#dirArrow" transform="rotate(180) translate(-30 -48)" onmousedown="handlePan(0,1)">
                  <use xlink:href="#rim" fill="#404040">
                        <set attributeName="fill" to="#808080" begin="arrowDown.mouseover" end="arrowDown.mouseout"/>
                  </use>
                  <path fill="none" stroke="white" stroke-width="1.5" d="M0,-3.0v7 M-2.5,-0.5L0,-3.0L2.5,-0.5"/>
                </g>
                <g id="arrowLeft" xlink:href="#dirArrow" transform="rotate(270) translate(-36 17)" onmousedown="handlePan(-1,0)">
                  <use xlink:href="#rim" fill="#404040">
                        <set attributeName="fill" to="#808080" begin="arrowLeft.mouseover" end="arrowLeft.mouseout"/>
                  </use>
                  <path fill="none" stroke="white" stroke-width="1.5" d="M0,-3.0v7 M-2.5,-0.5L0,-3.0L2.5,-0.5"/>
                </g>
        </g>
        <svg viewBox="0 0 15 15" width="100%" height="30px" preserveAspectRatio="xMaxYMin meet">
         <g id="arrow_out" transform="scale(0.3 0.3)">
          <a xlink:href="classEMC__AXIS__STAT__coll__graph_org.svg" target="_base">
           <rect id="button" ry="5" rx="5" y="6" x="6" height="38" width="38"
                fill="#f2f5e9" fill-opacity="0.5" stroke="#606060" stroke-width="1.0"/>
           <path id="arrow"
             d="M 11.500037,31.436501 C 11.940474,20.09759 22.043105,11.32322 32.158766,21.979434 L 37.068811,17.246167 C 37.068811,17.246167 37.088388,32 37.088388,32 L 22.160133,31.978069 C 22.160133,31.978069 26.997745,27.140456 26.997745,27.140456 C 18.528582,18.264221 13.291696,25.230495 11.500037,31.436501 z"
             style="fill:#404040;"/>
          </a>
         </g>
        </svg>
</svg>
