<?xml version="1.0" encoding="UTF-8" standalone="no"?>
<!DOCTYPE svg PUBLIC "-//W3C//DTD SVG 1.1//EN"
 "http://www.w3.org/Graphics/SVG/1.1/DTD/svg11.dtd">
<!-- Generated by graphviz version 2.43.0 (0)
 -->
<!-- Title: EMC_TRAJ_SET_AXES Pages: 1 -->
<svg width="656pt" height="575pt"
 viewBox="0.00 0.00 656.00 575.00" xmlns="http://www.w3.org/2000/svg" xmlns:xlink="http://www.w3.org/1999/xlink">
<g id="graph0" class="graph" transform="scale(1 1) rotate(0) translate(4 571)">
<title>EMC_TRAJ_SET_AXES</title>
<polygon fill="white" stroke="transparent" points="-4,4 -4,-571 652,-571 652,4 -4,4"/>
<!-- Node1 -->
<g id="node1" class="node">
<title>Node1</title>
<g id="a_node1"><a xlink:title=" ">
<polygon fill="#bfbfbf" stroke="black" points="220.5,-0.5 220.5,-68.5 359.5,-68.5 359.5,-0.5 220.5,-0.5"/>
<text text-anchor="middle" x="290" y="-56.5" font-family="Helvetica,sans-Serif" font-size="10.00">EMC_TRAJ_SET_AXES</text>
<polyline fill="none" stroke="black" points="220.5,-49.5 359.5,-49.5 "/>
<text text-anchor="middle" x="290" y="-37.5" font-family="Helvetica,sans-Serif" font-size="10.00"> </text>
<polyline fill="none" stroke="black" points="220.5,-30.5 359.5,-30.5 "/>
<text text-anchor="start" x="228.5" y="-18.5" font-family="Helvetica,sans-Serif" font-size="10.00">+ EMC_TRAJ_SET_AXES()</text>
<text text-anchor="start" x="228.5" y="-7.5" font-family="Helvetica,sans-Serif" font-size="10.00">+ update()</text>
</a>
</g>
</g>
<!-- Node2 -->
<g id="node2" class="node">
<title>Node2</title>
<g id="a_node2"><a xlink:href="classEMC__TRAJ__CMD__MSG.html" target="_top" xlink:title=" ">
<polygon fill="white" stroke="black" points="290.5,-106.5 290.5,-174.5 431.5,-174.5 431.5,-106.5 290.5,-106.5"/>
<text text-anchor="middle" x="361" y="-162.5" font-family="Helvetica,sans-Serif" font-size="10.00">EMC_TRAJ_CMD_MSG</text>
<polyline fill="none" stroke="black" points="290.5,-155.5 431.5,-155.5 "/>
<text text-anchor="middle" x="361" y="-143.5" font-family="Helvetica,sans-Serif" font-size="10.00"> </text>
<polyline fill="none" stroke="black" points="290.5,-136.5 431.5,-136.5 "/>
<text text-anchor="start" x="298.5" y="-124.5" font-family="Helvetica,sans-Serif" font-size="10.00">+ EMC_TRAJ_CMD_MSG()</text>
<text text-anchor="start" x="298.5" y="-113.5" font-family="Helvetica,sans-Serif" font-size="10.00">+ update()</text>
</a>
</g>
</g>
<!-- Node2&#45;&gt;Node1 -->
<g id="edge1" class="edge">
<title>Node2&#45;&gt;Node1</title>
<path fill="none" stroke="midnightblue" d="M332.63,-97.94C326,-88.24 319.03,-78.02 312.69,-68.73"/>
<polygon fill="none" stroke="midnightblue" points="329.81,-100.02 338.34,-106.31 335.59,-96.08 329.81,-100.02"/>
</g>
<!-- Node3 -->
<g id="node3" class="node">
<title>Node3</title>
<g id="a_node3"><a xlink:href="classRCS__CMD__MSG.html" target="_top" xlink:title=" ">
<polygon fill="white" stroke="black" points="430.5,-239 430.5,-296 541.5,-296 541.5,-239 430.5,-239"/>
<text text-anchor="middle" x="486" y="-284" font-family="Helvetica,sans-Serif" font-size="10.00">RCS_CMD_MSG</text>
<polyline fill="none" stroke="black" points="430.5,-277 541.5,-277 "/>
<text text-anchor="middle" x="486" y="-265" font-family="Helvetica,sans-Serif" font-size="10.00"> </text>
<polyline fill="none" stroke="black" points="430.5,-258 541.5,-258 "/>
<text text-anchor="start" x="438.5" y="-246" font-family="Helvetica,sans-Serif" font-size="10.00">+ RCS_CMD_MSG()</text>
</a>
</g>
</g>
<!-- Node3&#45;&gt;Node2 -->
<g id="edge2" class="edge">
<title>Node3&#45;&gt;Node2</title>
<path fill="none" stroke="midnightblue" d="M450.92,-231.42C433.24,-213.74 411.89,-192.39 394.44,-174.94"/>
<polygon fill="none" stroke="midnightblue" points="448.71,-234.16 458.26,-238.76 453.66,-229.21 448.71,-234.16"/>
</g>
<!-- Node4 -->
<g id="node4" class="node">
<title>Node4</title>
<g id="a_node4"><a xlink:href="classNMLmsg.html" target="_top" xlink:title=" ">
<polygon fill="white" stroke="black" points="515,-360.5 515,-461.5 593,-461.5 593,-360.5 515,-360.5"/>
<text text-anchor="middle" x="554" y="-449.5" font-family="Helvetica,sans-Serif" font-size="10.00">NMLmsg</text>
<polyline fill="none" stroke="black" points="515,-442.5 593,-442.5 "/>
<text text-anchor="middle" x="554" y="-430.5" font-family="Helvetica,sans-Serif" font-size="10.00"> </text>
<polyline fill="none" stroke="black" points="515,-423.5 593,-423.5 "/>
<text text-anchor="start" x="523" y="-411.5" font-family="Helvetica,sans-Serif" font-size="10.00">+ clear()</text>
<text text-anchor="start" x="523" y="-400.5" font-family="Helvetica,sans-Serif" font-size="10.00">+ update()</text>
<text text-anchor="start" x="523" y="-389.5" font-family="Helvetica,sans-Serif" font-size="10.00"># NMLmsg()</text>
<text text-anchor="start" x="523" y="-378.5" font-family="Helvetica,sans-Serif" font-size="10.00"># NMLmsg()</text>
<text text-anchor="start" x="523" y="-367.5" font-family="Helvetica,sans-Serif" font-size="10.00"># NMLmsg()</text>
</a>
</g>
</g>
<!-- Node4&#45;&gt;Node3 -->
<g id="edge3" class="edge">
<title>Node4&#45;&gt;Node3</title>
<path fill="none" stroke="midnightblue" d="M525.6,-350.91C516.48,-331.92 506.79,-311.77 499.29,-296.15"/>
<polygon fill="none" stroke="midnightblue" points="522.54,-352.62 530.03,-360.11 528.85,-349.58 522.54,-352.62"/>
</g>
<!-- Node5 -->
<g id="node5" class="node">
<title>Node5</title>
<g id="a_node5"><a xlink:title=" ">
<polygon fill="white" stroke="black" points="315.5,-509.5 315.5,-566.5 344.5,-566.5 344.5,-509.5 315.5,-509.5"/>
<text text-anchor="middle" x="330" y="-554.5" font-family="Helvetica,sans-Serif" font-size="10.00">int</text>
<polyline fill="none" stroke="black" points="315.5,-547.5 344.5,-547.5 "/>
<text text-anchor="middle" x="330" y="-535.5" font-family="Helvetica,sans-Serif" font-size="10.00"> </text>
<polyline fill="none" stroke="black" points="315.5,-528.5 344.5,-528.5 "/>
<text text-anchor="middle" x="330" y="-516.5" font-family="Helvetica,sans-Serif" font-size="10.00"> </text>
</a>
</g>
</g>
<!-- Node5&#45;&gt;Node1 -->
<g id="edge14" class="edge">
<title>Node5&#45;&gt;Node1</title>
<path fill="none" stroke="#404040" d="M315.43,-523.13C294.39,-501.53 258,-457.58 258,-412 258,-412 258,-412 258,-139.5 258,-119.51 263.47,-98.28 269.88,-80.24"/>
<polygon fill="none" stroke="#404040" points="269.93,-80.12 268.32,-73.09 274.19,-68.9 275.8,-75.93 269.93,-80.12"/>
<text text-anchor="middle" x="275" y="-265" font-family="Helvetica,sans-Serif" font-size="10.00"> +axes</text>
</g>
<!-- Node5&#45;&gt;Node3 -->
<g id="edge7" class="edge">
<title>Node5&#45;&gt;Node3</title>
<path fill="none" stroke="#404040" d="M344.53,-513.28C353.34,-498.65 364.64,-479.42 374,-462 397.9,-417.53 398.67,-403.67 424,-360 434.5,-341.89 447.32,-322.6 458.56,-306.42"/>
<polygon fill="none" stroke="#404040" points="458.79,-306.1 458.96,-298.89 465.68,-296.28 465.51,-303.49 458.79,-306.1"/>
<text text-anchor="middle" x="465" y="-408.5" font-family="Helvetica,sans-Serif" font-size="10.00"> +serial_number</text>
</g>
<!-- Node5&#45;&gt;Node4 -->
<g id="edge4" class="edge">
<title>Node5&#45;&gt;Node4</title>
<path fill="none" stroke="#404040" d="M344.62,-529.91C367.04,-519.07 411.27,-497.74 449,-480 466.28,-471.88 471.63,-471.82 488,-462 493.62,-458.63 499.34,-454.87 504.94,-450.97"/>
<polygon fill="none" stroke="#404040" points="505.09,-450.85 507.63,-444.1 514.83,-443.85 512.3,-450.6 505.09,-450.85"/>
<text text-anchor="middle" x="503.5" y="-483" font-family="Helvetica,sans-Serif" font-size="10.00"> +automatically_clear</text>
</g>
<!-- Node9 -->
<g id="node9" class="node">
<title>Node9</title>
<g id="a_node9"><a xlink:href="structstate__tag__t.html" target="_top" xlink:title=" ">
<polygon fill="white" stroke="black" points="115.5,-382.5 115.5,-439.5 186.5,-439.5 186.5,-382.5 115.5,-382.5"/>
<text text-anchor="middle" x="151" y="-427.5" font-family="Helvetica,sans-Serif" font-size="10.00">state_tag_t</text>
<polyline fill="none" stroke="black" points="115.5,-420.5 186.5,-420.5 "/>
<text text-anchor="middle" x="151" y="-408.5" font-family="Helvetica,sans-Serif" font-size="10.00"> </text>
<polyline fill="none" stroke="black" points="115.5,-401.5 186.5,-401.5 "/>
<text text-anchor="middle" x="151" y="-389.5" font-family="Helvetica,sans-Serif" font-size="10.00"> </text>
</a>
</g>
</g>
<!-- Node5&#45;&gt;Node9 -->
<g id="edge11" class="edge">
<title>Node5&#45;&gt;Node9</title>
<path fill="none" stroke="#404040" d="M315.23,-534.51C290.46,-529.72 239.95,-517.29 206,-491 192,-480.16 180.16,-464.75 171.1,-450.42"/>
<polygon fill="none" stroke="#404040" points="170.88,-450.06 164.37,-446.96 164.72,-439.76 171.23,-442.86 170.88,-450.06"/>
<text text-anchor="middle" x="225" y="-483" font-family="Helvetica,sans-Serif" font-size="10.00"> +fields</text>
</g>
<!-- Node6 -->
<g id="node6" class="node">
<title>Node6</title>
<g id="a_node6"><a xlink:title=" ">
<polygon fill="white" stroke="black" points="542,-509.5 542,-566.5 592,-566.5 592,-509.5 542,-509.5"/>
<text text-anchor="middle" x="567" y="-554.5" font-family="Helvetica,sans-Serif" font-size="10.00">int32_t</text>
<polyline fill="none" stroke="black" points="542,-547.5 592,-547.5 "/>
<text text-anchor="middle" x="567" y="-535.5" font-family="Helvetica,sans-Serif" font-size="10.00"> </text>
<polyline fill="none" stroke="black" points="542,-528.5 592,-528.5 "/>
<text text-anchor="middle" x="567" y="-516.5" font-family="Helvetica,sans-Serif" font-size="10.00"> </text>
</a>
</g>
</g>
<!-- Node6&#45;&gt;Node4 -->
<g id="edge5" class="edge">
<title>Node6&#45;&gt;Node4</title>
<path fill="none" stroke="#404040" d="M564.11,-509.26C563.03,-498.79 561.74,-486.42 560.46,-474.07"/>
<polygon fill="none" stroke="#404040" points="560.42,-473.74 555.82,-468.18 559.18,-461.8 563.78,-467.36 560.42,-473.74"/>
<text text-anchor="middle" x="580" y="-483" font-family="Helvetica,sans-Serif" font-size="10.00"> +type</text>
</g>
<!-- Node7 -->
<g id="node7" class="node">
<title>Node7</title>
<g id="a_node7"><a xlink:title=" ">
<polygon fill="white" stroke="black" points="610,-509.5 610,-566.5 648,-566.5 648,-509.5 610,-509.5"/>
<text text-anchor="middle" x="629" y="-554.5" font-family="Helvetica,sans-Serif" font-size="10.00">long</text>
<polyline fill="none" stroke="black" points="610,-547.5 648,-547.5 "/>
<text text-anchor="middle" x="629" y="-535.5" font-family="Helvetica,sans-Serif" font-size="10.00"> </text>
<polyline fill="none" stroke="black" points="610,-528.5 648,-528.5 "/>
<text text-anchor="middle" x="629" y="-516.5" font-family="Helvetica,sans-Serif" font-size="10.00"> </text>
</a>
</g>
</g>
<!-- Node7&#45;&gt;Node4 -->
<g id="edge6" class="edge">
<title>Node7&#45;&gt;Node4</title>
<path fill="none" stroke="#404040" d="M616.42,-509.31C611.85,-499.86 606.47,-489.32 601,-480 599.44,-477.35 597.82,-474.66 596.14,-471.97"/>
<polygon fill="none" stroke="#404040" points="595.97,-471.7 589.37,-468.79 589.51,-461.58 596.11,-464.49 595.97,-471.7"/>
<text text-anchor="middle" x="622.5" y="-483" font-family="Helvetica,sans-Serif" font-size="10.00"> +size</text>
</g>
<!-- Node8 -->
<g id="node8" class="node">
<title>Node8</title>
<g id="a_node8"><a xlink:href="structStateTag.html" target="_top" xlink:title=" ">
<polygon fill="white" stroke="black" points="310,-222.5 310,-312.5 412,-312.5 412,-222.5 310,-222.5"/>
<text text-anchor="middle" x="361" y="-300.5" font-family="Helvetica,sans-Serif" font-size="10.00">StateTag</text>
<polyline fill="none" stroke="black" points="310,-293.5 412,-293.5 "/>
<text text-anchor="middle" x="361" y="-281.5" font-family="Helvetica,sans-Serif" font-size="10.00"> </text>
<polyline fill="none" stroke="black" points="310,-274.5 412,-274.5 "/>
<text text-anchor="start" x="318" y="-262.5" font-family="Helvetica,sans-Serif" font-size="10.00">+ StateTag()</text>
<text text-anchor="start" x="318" y="-251.5" font-family="Helvetica,sans-Serif" font-size="10.00">+ StateTag()</text>
<text text-anchor="start" x="318" y="-240.5" font-family="Helvetica,sans-Serif" font-size="10.00">+ is_valid()</text>
<text text-anchor="start" x="318" y="-229.5" font-family="Helvetica,sans-Serif" font-size="10.00">+ get_state_tag()</text>
</a>
</g>
</g>
<!-- Node8&#45;&gt;Node2 -->
<g id="edge8" class="edge">
<title>Node8&#45;&gt;Node2</title>
<path fill="none" stroke="#404040" d="M361,-222.43C361,-210.87 361,-198.38 361,-186.76"/>
<polygon fill="none" stroke="#404040" points="361,-186.57 357,-180.57 361,-174.57 365,-180.57 361,-186.57"/>
<text text-anchor="middle" x="375" y="-196" font-family="Helvetica,sans-Serif" font-size="10.00"> +tag</text>
</g>
<!-- Node9&#45;&gt;Node8 -->
<g id="edge9" class="edge">
<title>Node9&#45;&gt;Node8</title>
<path fill="none" stroke="midnightblue" d="M195.13,-380.65C223.91,-361.48 262.24,-335.84 296,-313 300.53,-309.93 305.23,-306.74 309.94,-303.53"/>
<polygon fill="none" stroke="midnightblue" points="192.91,-377.93 186.53,-386.39 196.79,-383.76 192.91,-377.93"/>
</g>
<!-- Node10 -->
<g id="node10" class="node">
<title>Node10</title>
<g id="a_node10"><a xlink:title=" ">
<polygon fill="white" stroke="black" points="0,-509.5 0,-566.5 38,-566.5 38,-509.5 0,-509.5"/>
<text text-anchor="middle" x="19" y="-554.5" font-family="Helvetica,sans-Serif" font-size="10.00">float</text>
<polyline fill="none" stroke="black" points="0,-547.5 38,-547.5 "/>
<text text-anchor="middle" x="19" y="-535.5" font-family="Helvetica,sans-Serif" font-size="10.00"> </text>
<polyline fill="none" stroke="black" points="0,-528.5 38,-528.5 "/>
<text text-anchor="middle" x="19" y="-516.5" font-family="Helvetica,sans-Serif" font-size="10.00"> </text>
</a>
</g>
</g>
<!-- Node10&#45;&gt;Node9 -->
<g id="edge10" class="edge">
<title>Node10&#45;&gt;Node9</title>
<path fill="none" stroke="#404040" d="M23.5,-509.24C26.16,-499.25 30.37,-488.38 37,-480 54.45,-457.95 81.17,-441.47 104.35,-430.26"/>
<polygon fill="none" stroke="#404040" points="104.49,-430.19 108.27,-424.05 115.39,-425.18 111.62,-431.32 104.49,-430.19"/>
<text text-anchor="middle" x="69.5" y="-483" font-family="Helvetica,sans-Serif" font-size="10.00"> +fields_float</text>
</g>
<!-- Node11 -->
<g id="node11" class="node">
<title>Node11</title>
<g id="a_node11"><a xlink:title=" ">
<polygon fill="white" stroke="black" points="76.5,-509.5 76.5,-566.5 137.5,-566.5 137.5,-509.5 76.5,-509.5"/>
<text text-anchor="middle" x="107" y="-554.5" font-family="Helvetica,sans-Serif" font-size="10.00">unsigned</text>
<polyline fill="none" stroke="black" points="76.5,-547.5 137.5,-547.5 "/>
<text text-anchor="middle" x="107" y="-535.5" font-family="Helvetica,sans-Serif" font-size="10.00"> </text>
<polyline fill="none" stroke="black" points="76.5,-528.5 137.5,-528.5 "/>
<text text-anchor="middle" x="107" y="-516.5" font-family="Helvetica,sans-Serif" font-size="10.00"> </text>
</a>
</g>
</g>
<!-- Node11&#45;&gt;Node9 -->
<g id="edge12" class="edge">
<title>Node11&#45;&gt;Node9</title>
<path fill="none" stroke="#404040" d="M104.5,-509.28C104.42,-499.82 105.22,-489.29 108,-480 111.11,-469.6 116.3,-459.24 122.02,-449.86"/>
<polygon fill="none" stroke="#404040" points="122.06,-449.8 121.98,-442.58 128.61,-439.74 128.69,-446.95 122.06,-449.8"/>
<text text-anchor="middle" x="145.5" y="-483" font-family="Helvetica,sans-Serif" font-size="10.00"> +packed_flags</text>
</g>
<!-- Node12 -->
<g id="node12" class="node">
<title>Node12</title>
<g id="a_node12"><a xlink:title=" ">
<polygon fill="white" stroke="black" points="286.5,-382.5 286.5,-439.5 365.5,-439.5 365.5,-382.5 286.5,-382.5"/>
<text text-anchor="middle" x="326" y="-427.5" font-family="Helvetica,sans-Serif" font-size="10.00">bitset&lt; 64 &gt;</text>
<polyline fill="none" stroke="black" points="286.5,-420.5 365.5,-420.5 "/>
<text text-anchor="middle" x="326" y="-408.5" font-family="Helvetica,sans-Serif" font-size="10.00"> </text>
<polyline fill="none" stroke="black" points="286.5,-401.5 365.5,-401.5 "/>
<text text-anchor="middle" x="326" y="-389.5" font-family="Helvetica,sans-Serif" font-size="10.00"> </text>
</a>
</g>
</g>
<!-- Node12&#45;&gt;Node8 -->
<g id="edge13" class="edge">
<title>Node12&#45;&gt;Node8</title>
<path fill="none" stroke="#404040" d="M332.83,-382.38C336.9,-365.92 342.22,-344.42 347.14,-324.54"/>
<polygon fill="none" stroke="#404040" points="347.17,-324.4 344.73,-317.62 350.05,-312.75 352.5,-319.54 347.17,-324.4"/>
<text text-anchor="middle" x="362.5" y="-334" font-family="Helvetica,sans-Serif" font-size="10.00"> +flags</text>
</g>
</g>
</svg>
