<?xml version="1.0" encoding="UTF-8" standalone="no"?>
<!DOCTYPE svg PUBLIC "-//W3C//DTD SVG 1.1//EN"
 "http://www.w3.org/Graphics/SVG/1.1/DTD/svg11.dtd">
<!-- Generated by graphviz version 2.43.0 (0)
 -->
<!-- Title: EMC_TASK_PLAN_FORWARD Pages: 1 -->
<svg width="182pt" height="425pt"
 viewBox="0.00 0.00 182.00 425.00" xmlns="http://www.w3.org/2000/svg" xmlns:xlink="http://www.w3.org/1999/xlink">
<g id="graph0" class="graph" transform="scale(1 1) rotate(0) translate(4 421)">
<title>EMC_TASK_PLAN_FORWARD</title>
<polygon fill="white" stroke="transparent" points="-4,4 -4,-421 178,-421 178,4 -4,4"/>
<!-- Node1 -->
<g id="node1" class="node">
<title>Node1</title>
<g id="a_node1"><a xlink:title=" ">
<polygon fill="#bfbfbf" stroke="black" points="0,-0.5 0,-57.5 174,-57.5 174,-0.5 0,-0.5"/>
<text text-anchor="middle" x="87" y="-45.5" font-family="Helvetica,sans-Serif" font-size="10.00">EMC_TASK_PLAN_FORWARD</text>
<polyline fill="none" stroke="black" points="0,-38.5 174,-38.5 "/>
<text text-anchor="middle" x="87" y="-26.5" font-family="Helvetica,sans-Serif" font-size="10.00"> </text>
<polyline fill="none" stroke="black" points="0,-19.5 174,-19.5 "/>
<text text-anchor="start" x="8" y="-7.5" font-family="Helvetica,sans-Serif" font-size="10.00">+ EMC_TASK_PLAN_FORWARD()</text>
</a>
</g>
</g>
<!-- Node2 -->
<g id="node2" class="node">
<title>Node2</title>
<g id="a_node2"><a xlink:href="classEMC__TASK__CMD__MSG.html" target="_top" xlink:title=" ">
<polygon fill="white" stroke="black" points="15.5,-94.5 15.5,-162.5 158.5,-162.5 158.5,-94.5 15.5,-94.5"/>
<text text-anchor="middle" x="87" y="-150.5" font-family="Helvetica,sans-Serif" font-size="10.00">EMC_TASK_CMD_MSG</text>
<polyline fill="none" stroke="black" points="15.5,-143.5 158.5,-143.5 "/>
<text text-anchor="middle" x="87" y="-131.5" font-family="Helvetica,sans-Serif" font-size="10.00"> </text>
<polyline fill="none" stroke="black" points="15.5,-124.5 158.5,-124.5 "/>
<text text-anchor="start" x="23.5" y="-112.5" font-family="Helvetica,sans-Serif" font-size="10.00">+ EMC_TASK_CMD_MSG()</text>
<text text-anchor="start" x="23.5" y="-101.5" font-family="Helvetica,sans-Serif" font-size="10.00">+ update()</text>
</a>
</g>
</g>
<!-- Node2&#45;&gt;Node1 -->
<g id="edge1" class="edge">
<title>Node2&#45;&gt;Node1</title>
<path fill="none" stroke="midnightblue" d="M87,-84.45C87,-75.4 87,-66.09 87,-57.78"/>
<polygon fill="none" stroke="midnightblue" points="83.5,-84.49 87,-94.49 90.5,-84.49 83.5,-84.49"/>
</g>
<!-- Node3 -->
<g id="node3" class="node">
<title>Node3</title>
<g id="a_node3"><a xlink:href="classRCS__CMD__MSG.html" target="_top" xlink:title=" ">
<polygon fill="white" stroke="black" points="31.5,-199.5 31.5,-256.5 142.5,-256.5 142.5,-199.5 31.5,-199.5"/>
<text text-anchor="middle" x="87" y="-244.5" font-family="Helvetica,sans-Serif" font-size="10.00">RCS_CMD_MSG</text>
<polyline fill="none" stroke="black" points="31.5,-237.5 142.5,-237.5 "/>
<text text-anchor="start" x="39.5" y="-225.5" font-family="Helvetica,sans-Serif" font-size="10.00">+ serial_number</text>
<polyline fill="none" stroke="black" points="31.5,-218.5 142.5,-218.5 "/>
<text text-anchor="start" x="39.5" y="-206.5" font-family="Helvetica,sans-Serif" font-size="10.00">+ RCS_CMD_MSG()</text>
</a>
</g>
</g>
<!-- Node3&#45;&gt;Node2 -->
<g id="edge2" class="edge">
<title>Node3&#45;&gt;Node2</title>
<path fill="none" stroke="midnightblue" d="M87,-189.06C87,-180.39 87,-171.24 87,-162.79"/>
<polygon fill="none" stroke="midnightblue" points="83.5,-189.32 87,-199.32 90.5,-189.32 83.5,-189.32"/>
</g>
<!-- Node4 -->
<g id="node4" class="node">
<title>Node4</title>
<g id="a_node4"><a xlink:href="classNMLmsg.html" target="_top" xlink:title=" ">
<polygon fill="white" stroke="black" points="24.5,-293.5 24.5,-416.5 149.5,-416.5 149.5,-293.5 24.5,-293.5"/>
<text text-anchor="middle" x="87" y="-404.5" font-family="Helvetica,sans-Serif" font-size="10.00">NMLmsg</text>
<polyline fill="none" stroke="black" points="24.5,-397.5 149.5,-397.5 "/>
<text text-anchor="start" x="32.5" y="-385.5" font-family="Helvetica,sans-Serif" font-size="10.00">+ type</text>
<text text-anchor="start" x="32.5" y="-374.5" font-family="Helvetica,sans-Serif" font-size="10.00">+ size</text>
<text text-anchor="start" x="32.5" y="-363.5" font-family="Helvetica,sans-Serif" font-size="10.00">+ automatically_clear</text>
<polyline fill="none" stroke="black" points="24.5,-356.5 149.5,-356.5 "/>
<text text-anchor="start" x="32.5" y="-344.5" font-family="Helvetica,sans-Serif" font-size="10.00">+ clear()</text>
<text text-anchor="start" x="32.5" y="-333.5" font-family="Helvetica,sans-Serif" font-size="10.00">+ update()</text>
<text text-anchor="start" x="32.5" y="-322.5" font-family="Helvetica,sans-Serif" font-size="10.00"># NMLmsg()</text>
<text text-anchor="start" x="32.5" y="-311.5" font-family="Helvetica,sans-Serif" font-size="10.00"># NMLmsg()</text>
<text text-anchor="start" x="32.5" y="-300.5" font-family="Helvetica,sans-Serif" font-size="10.00"># NMLmsg()</text>
</a>
</g>
</g>
<!-- Node4&#45;&gt;Node3 -->
<g id="edge3" class="edge">
<title>Node4&#45;&gt;Node3</title>
<path fill="none" stroke="midnightblue" d="M87,-283.14C87,-273.8 87,-264.71 87,-256.74"/>
<polygon fill="none" stroke="midnightblue" points="83.5,-283.33 87,-293.33 90.5,-283.33 83.5,-283.33"/>
</g>
</g>
</svg>
