<?xml version="1.0" encoding="UTF-8" standalone="no"?>
<!DOCTYPE svg PUBLIC "-//W3C//DTD SVG 1.1//EN"
 "http://www.w3.org/Graphics/SVG/1.1/DTD/svg11.dtd">
<!-- Generated by graphviz version 2.43.0 (0)
 -->
<!-- Title: EMC_TASK_PLAN_OPTIONAL_STOP Pages: 1 -->
<svg width="247pt" height="544pt"
 viewBox="0.00 0.00 246.50 544.00" xmlns="http://www.w3.org/2000/svg" xmlns:xlink="http://www.w3.org/1999/xlink">
<g id="graph0" class="graph" transform="scale(1 1) rotate(0) translate(4 540)">
<title>EMC_TASK_PLAN_OPTIONAL_STOP</title>
<polygon fill="white" stroke="transparent" points="-4,4 -4,-540 242.5,-540 242.5,4 -4,4"/>
<!-- Node1 -->
<g id="node1" class="node">
<title>Node1</title>
<g id="a_node1"><a xlink:title=" ">
<polygon fill="#bfbfbf" stroke="black" points="0,-0.5 0,-79.5 185,-79.5 185,-0.5 0,-0.5"/>
<text text-anchor="middle" x="92.5" y="-67.5" font-family="Helvetica,sans-Serif" font-size="10.00">EMC_TASK_PLAN_OPTIONAL_STOP</text>
<polyline fill="none" stroke="black" points="0,-60.5 185,-60.5 "/>
<text text-anchor="middle" x="92.5" y="-48.5" font-family="Helvetica,sans-Serif" font-size="10.00"> </text>
<polyline fill="none" stroke="black" points="0,-41.5 185,-41.5 "/>
<text text-anchor="start" x="8" y="-29.5" font-family="Helvetica,sans-Serif" font-size="10.00">+ EMC_TASK_PLAN_OPTIONAL</text>
<text text-anchor="start" x="8" y="-18.5" font-family="Helvetica,sans-Serif" font-size="10.00">_STOP()</text>
<text text-anchor="start" x="8" y="-7.5" font-family="Helvetica,sans-Serif" font-size="10.00">+ update()</text>
</a>
</g>
</g>
<!-- Node2 -->
<g id="node2" class="node">
<title>Node2</title>
<g id="a_node2"><a xlink:href="classEMC__TASK__CMD__MSG.html" target="_top" xlink:title=" ">
<polygon fill="white" stroke="black" points="21,-117.5 21,-185.5 164,-185.5 164,-117.5 21,-117.5"/>
<text text-anchor="middle" x="92.5" y="-173.5" font-family="Helvetica,sans-Serif" font-size="10.00">EMC_TASK_CMD_MSG</text>
<polyline fill="none" stroke="black" points="21,-166.5 164,-166.5 "/>
<text text-anchor="middle" x="92.5" y="-154.5" font-family="Helvetica,sans-Serif" font-size="10.00"> </text>
<polyline fill="none" stroke="black" points="21,-147.5 164,-147.5 "/>
<text text-anchor="start" x="29" y="-135.5" font-family="Helvetica,sans-Serif" font-size="10.00">+ EMC_TASK_CMD_MSG()</text>
<text text-anchor="start" x="29" y="-124.5" font-family="Helvetica,sans-Serif" font-size="10.00">+ update()</text>
</a>
</g>
</g>
<!-- Node2&#45;&gt;Node1 -->
<g id="edge1" class="edge">
<title>Node2&#45;&gt;Node1</title>
<path fill="none" stroke="midnightblue" d="M92.5,-107.34C92.5,-98.25 92.5,-88.72 92.5,-79.81"/>
<polygon fill="none" stroke="midnightblue" points="89,-107.35 92.5,-117.35 96,-107.35 89,-107.35"/>
</g>
<!-- Node3 -->
<g id="node3" class="node">
<title>Node3</title>
<g id="a_node3"><a xlink:href="classRCS__CMD__MSG.html" target="_top" xlink:title=" ">
<polygon fill="white" stroke="black" points="37,-223.5 37,-280.5 148,-280.5 148,-223.5 37,-223.5"/>
<text text-anchor="middle" x="92.5" y="-268.5" font-family="Helvetica,sans-Serif" font-size="10.00">RCS_CMD_MSG</text>
<polyline fill="none" stroke="black" points="37,-261.5 148,-261.5 "/>
<text text-anchor="middle" x="92.5" y="-249.5" font-family="Helvetica,sans-Serif" font-size="10.00"> </text>
<polyline fill="none" stroke="black" points="37,-242.5 148,-242.5 "/>
<text text-anchor="start" x="45" y="-230.5" font-family="Helvetica,sans-Serif" font-size="10.00">+ RCS_CMD_MSG()</text>
</a>
</g>
</g>
<!-- Node3&#45;&gt;Node2 -->
<g id="edge2" class="edge">
<title>Node3&#45;&gt;Node2</title>
<path fill="none" stroke="midnightblue" d="M92.5,-213.01C92.5,-203.96 92.5,-194.38 92.5,-185.58"/>
<polygon fill="none" stroke="midnightblue" points="89,-213.3 92.5,-223.3 96,-213.3 89,-213.3"/>
</g>
<!-- Node4 -->
<g id="node4" class="node">
<title>Node4</title>
<g id="a_node4"><a xlink:href="classNMLmsg.html" target="_top" xlink:title=" ">
<polygon fill="white" stroke="black" points="151.5,-318.5 151.5,-419.5 229.5,-419.5 229.5,-318.5 151.5,-318.5"/>
<text text-anchor="middle" x="190.5" y="-407.5" font-family="Helvetica,sans-Serif" font-size="10.00">NMLmsg</text>
<polyline fill="none" stroke="black" points="151.5,-400.5 229.5,-400.5 "/>
<text text-anchor="middle" x="190.5" y="-388.5" font-family="Helvetica,sans-Serif" font-size="10.00"> </text>
<polyline fill="none" stroke="black" points="151.5,-381.5 229.5,-381.5 "/>
<text text-anchor="start" x="159.5" y="-369.5" font-family="Helvetica,sans-Serif" font-size="10.00">+ clear()</text>
<text text-anchor="start" x="159.5" y="-358.5" font-family="Helvetica,sans-Serif" font-size="10.00">+ update()</text>
<text text-anchor="start" x="159.5" y="-347.5" font-family="Helvetica,sans-Serif" font-size="10.00"># NMLmsg()</text>
<text text-anchor="start" x="159.5" y="-336.5" font-family="Helvetica,sans-Serif" font-size="10.00"># NMLmsg()</text>
<text text-anchor="start" x="159.5" y="-325.5" font-family="Helvetica,sans-Serif" font-size="10.00"># NMLmsg()</text>
</a>
</g>
</g>
<!-- Node4&#45;&gt;Node3 -->
<g id="edge3" class="edge">
<title>Node4&#45;&gt;Node3</title>
<path fill="none" stroke="midnightblue" d="M144.98,-314.58C135.01,-302.88 124.84,-290.95 116.14,-280.75"/>
<polygon fill="none" stroke="midnightblue" points="142.34,-316.88 151.49,-322.22 147.66,-312.34 142.34,-316.88"/>
</g>
<!-- Node5 -->
<g id="node5" class="node">
<title>Node5</title>
<g id="a_node5"><a xlink:title=" ">
<polygon fill="white" stroke="black" points="54,-478.5 54,-535.5 83,-535.5 83,-478.5 54,-478.5"/>
<text text-anchor="middle" x="68.5" y="-523.5" font-family="Helvetica,sans-Serif" font-size="10.00">int</text>
<polyline fill="none" stroke="black" points="54,-516.5 83,-516.5 "/>
<text text-anchor="middle" x="68.5" y="-504.5" font-family="Helvetica,sans-Serif" font-size="10.00"> </text>
<polyline fill="none" stroke="black" points="54,-497.5 83,-497.5 "/>
<text text-anchor="middle" x="68.5" y="-485.5" font-family="Helvetica,sans-Serif" font-size="10.00"> </text>
</a>
</g>
</g>
<!-- Node5&#45;&gt;Node3 -->
<g id="edge6" class="edge">
<title>Node5&#45;&gt;Node3</title>
<path fill="none" stroke="#404040" d="M62.77,-478.49C56.08,-441.47 47.5,-373.84 60.5,-318 62.56,-309.16 66,-300.13 69.88,-291.73"/>
<polygon fill="none" stroke="#404040" points="70.01,-291.48 69.1,-284.33 75.36,-280.74 76.26,-287.89 70.01,-291.48"/>
<text text-anchor="middle" x="101.5" y="-366.5" font-family="Helvetica,sans-Serif" font-size="10.00"> +serial_number</text>
</g>
<!-- Node5&#45;&gt;Node4 -->
<g id="edge4" class="edge">
<title>Node5&#45;&gt;Node4</title>
<path fill="none" stroke="#404040" d="M71.78,-478.3C74.69,-464.68 80.17,-448.89 90.5,-438 105.89,-421.77 118.56,-431.9 137.5,-420 138.83,-419.17 140.15,-418.3 141.46,-417.4"/>
<polygon fill="none" stroke="#404040" points="141.75,-417.18 144.15,-410.38 151.35,-409.98 148.95,-416.78 141.75,-417.18"/>
<text text-anchor="middle" x="145" y="-452" font-family="Helvetica,sans-Serif" font-size="10.00"> +automatically_clear</text>
<text text-anchor="middle" x="145" y="-441" font-family="Helvetica,sans-Serif" font-size="10.00">+type</text>
</g>
<!-- Node6 -->
<g id="node6" class="node">
<title>Node6</title>
<g id="a_node6"><a xlink:title=" ">
<polygon fill="white" stroke="black" points="197.5,-478.5 197.5,-535.5 235.5,-535.5 235.5,-478.5 197.5,-478.5"/>
<text text-anchor="middle" x="216.5" y="-523.5" font-family="Helvetica,sans-Serif" font-size="10.00">long</text>
<polyline fill="none" stroke="black" points="197.5,-516.5 235.5,-516.5 "/>
<text text-anchor="middle" x="216.5" y="-504.5" font-family="Helvetica,sans-Serif" font-size="10.00"> </text>
<polyline fill="none" stroke="black" points="197.5,-497.5 235.5,-497.5 "/>
<text text-anchor="middle" x="216.5" y="-485.5" font-family="Helvetica,sans-Serif" font-size="10.00"> </text>
</a>
</g>
</g>
<!-- Node6&#45;&gt;Node4 -->
<g id="edge5" class="edge">
<title>Node6&#45;&gt;Node4</title>
<path fill="none" stroke="#404040" d="M211.24,-478.48C208.65,-464.93 205.41,-448 202.27,-431.58"/>
<polygon fill="none" stroke="#404040" points="202.27,-431.55 197.21,-426.41 200.01,-419.76 205.07,-424.91 202.27,-431.55"/>
<text text-anchor="middle" x="223" y="-446.5" font-family="Helvetica,sans-Serif" font-size="10.00"> +size</text>
</g>
</g>
</svg>
