<?xml version="1.0" encoding="UTF-8" standalone="no"?>
<!DOCTYPE svg PUBLIC "-//W3C//DTD SVG 1.1//EN"
 "http://www.w3.org/Graphics/SVG/1.1/DTD/svg11.dtd">
<!-- Generated by graphviz version 2.43.0 (0)
 -->
<!-- Title: EMC_TRAJ_SET_SO_ENABLE Pages: 1 -->
<svg width="508pt" height="596pt"
 viewBox="0.00 0.00 508.00 596.00" xmlns="http://www.w3.org/2000/svg" xmlns:xlink="http://www.w3.org/1999/xlink">
<g id="graph0" class="graph" transform="scale(1 1) rotate(0) translate(4 592)">
<title>EMC_TRAJ_SET_SO_ENABLE</title>
<polygon fill="white" stroke="transparent" points="-4,4 -4,-592 504,-592 504,4 -4,4"/>
<!-- Node1 -->
<g id="node1" class="node">
<title>Node1</title>
<g id="a_node1"><a xlink:title=" ">
<polygon fill="#bfbfbf" stroke="black" points="54,-0.5 54,-68.5 224,-68.5 224,-0.5 54,-0.5"/>
<text text-anchor="middle" x="139" y="-56.5" font-family="Helvetica,sans-Serif" font-size="10.00">EMC_TRAJ_SET_SO_ENABLE</text>
<polyline fill="none" stroke="black" points="54,-49.5 224,-49.5 "/>
<text text-anchor="middle" x="139" y="-37.5" font-family="Helvetica,sans-Serif" font-size="10.00"> </text>
<polyline fill="none" stroke="black" points="54,-30.5 224,-30.5 "/>
<text text-anchor="start" x="62" y="-18.5" font-family="Helvetica,sans-Serif" font-size="10.00">+ EMC_TRAJ_SET_SO_ENABLE()</text>
<text text-anchor="start" x="62" y="-7.5" font-family="Helvetica,sans-Serif" font-size="10.00">+ update()</text>
</a>
</g>
</g>
<!-- Node2 -->
<g id="node2" class="node">
<title>Node2</title>
<g id="a_node2"><a xlink:href="classEMC__TRAJ__CMD__MSG.html" target="_top" xlink:title=" ">
<polygon fill="white" stroke="black" points="68.5,-116.5 68.5,-184.5 209.5,-184.5 209.5,-116.5 68.5,-116.5"/>
<text text-anchor="middle" x="139" y="-172.5" font-family="Helvetica,sans-Serif" font-size="10.00">EMC_TRAJ_CMD_MSG</text>
<polyline fill="none" stroke="black" points="68.5,-165.5 209.5,-165.5 "/>
<text text-anchor="middle" x="139" y="-153.5" font-family="Helvetica,sans-Serif" font-size="10.00"> </text>
<polyline fill="none" stroke="black" points="68.5,-146.5 209.5,-146.5 "/>
<text text-anchor="start" x="76.5" y="-134.5" font-family="Helvetica,sans-Serif" font-size="10.00">+ EMC_TRAJ_CMD_MSG()</text>
<text text-anchor="start" x="76.5" y="-123.5" font-family="Helvetica,sans-Serif" font-size="10.00">+ update()</text>
</a>
</g>
</g>
<!-- Node2&#45;&gt;Node1 -->
<g id="edge1" class="edge">
<title>Node2&#45;&gt;Node1</title>
<path fill="none" stroke="midnightblue" d="M139,-106.06C139,-93.64 139,-80.32 139,-68.62"/>
<polygon fill="none" stroke="midnightblue" points="135.5,-106.22 139,-116.22 142.5,-106.22 135.5,-106.22"/>
</g>
<!-- Node3 -->
<g id="node3" class="node">
<title>Node3</title>
<g id="a_node3"><a xlink:href="classRCS__CMD__MSG.html" target="_top" xlink:title=" ">
<polygon fill="white" stroke="black" points="83.5,-249 83.5,-306 194.5,-306 194.5,-249 83.5,-249"/>
<text text-anchor="middle" x="139" y="-294" font-family="Helvetica,sans-Serif" font-size="10.00">RCS_CMD_MSG</text>
<polyline fill="none" stroke="black" points="83.5,-287 194.5,-287 "/>
<text text-anchor="middle" x="139" y="-275" font-family="Helvetica,sans-Serif" font-size="10.00"> </text>
<polyline fill="none" stroke="black" points="83.5,-268 194.5,-268 "/>
<text text-anchor="start" x="91.5" y="-256" font-family="Helvetica,sans-Serif" font-size="10.00">+ RCS_CMD_MSG()</text>
</a>
</g>
</g>
<!-- Node3&#45;&gt;Node2 -->
<g id="edge2" class="edge">
<title>Node3&#45;&gt;Node2</title>
<path fill="none" stroke="midnightblue" d="M139,-238.55C139,-221.46 139,-201.46 139,-184.94"/>
<polygon fill="none" stroke="midnightblue" points="135.5,-238.76 139,-248.76 142.5,-238.76 135.5,-238.76"/>
</g>
<!-- Node4 -->
<g id="node4" class="node">
<title>Node4</title>
<g id="a_node4"><a xlink:href="classNMLmsg.html" target="_top" xlink:title=" ">
<polygon fill="white" stroke="black" points="146,-370.5 146,-471.5 224,-471.5 224,-370.5 146,-370.5"/>
<text text-anchor="middle" x="185" y="-459.5" font-family="Helvetica,sans-Serif" font-size="10.00">NMLmsg</text>
<polyline fill="none" stroke="black" points="146,-452.5 224,-452.5 "/>
<text text-anchor="middle" x="185" y="-440.5" font-family="Helvetica,sans-Serif" font-size="10.00"> </text>
<polyline fill="none" stroke="black" points="146,-433.5 224,-433.5 "/>
<text text-anchor="start" x="154" y="-421.5" font-family="Helvetica,sans-Serif" font-size="10.00">+ clear()</text>
<text text-anchor="start" x="154" y="-410.5" font-family="Helvetica,sans-Serif" font-size="10.00">+ update()</text>
<text text-anchor="start" x="154" y="-399.5" font-family="Helvetica,sans-Serif" font-size="10.00"># NMLmsg()</text>
<text text-anchor="start" x="154" y="-388.5" font-family="Helvetica,sans-Serif" font-size="10.00"># NMLmsg()</text>
<text text-anchor="start" x="154" y="-377.5" font-family="Helvetica,sans-Serif" font-size="10.00"># NMLmsg()</text>
</a>
</g>
</g>
<!-- Node4&#45;&gt;Node3 -->
<g id="edge3" class="edge">
<title>Node4&#45;&gt;Node3</title>
<path fill="none" stroke="midnightblue" d="M165.62,-360.39C159.5,-341.55 153.02,-321.63 147.99,-306.15"/>
<polygon fill="none" stroke="midnightblue" points="162.36,-361.68 168.78,-370.11 169.02,-359.52 162.36,-361.68"/>
</g>
<!-- Node5 -->
<g id="node5" class="node">
<title>Node5</title>
<g id="a_node5"><a xlink:title=" ">
<polygon fill="white" stroke="black" points="48.5,-530.5 48.5,-587.5 77.5,-587.5 77.5,-530.5 48.5,-530.5"/>
<text text-anchor="middle" x="63" y="-575.5" font-family="Helvetica,sans-Serif" font-size="10.00">int</text>
<polyline fill="none" stroke="black" points="48.5,-568.5 77.5,-568.5 "/>
<text text-anchor="middle" x="63" y="-556.5" font-family="Helvetica,sans-Serif" font-size="10.00"> </text>
<polyline fill="none" stroke="black" points="48.5,-549.5 77.5,-549.5 "/>
<text text-anchor="middle" x="63" y="-537.5" font-family="Helvetica,sans-Serif" font-size="10.00"> </text>
</a>
</g>
</g>
<!-- Node5&#45;&gt;Node1 -->
<g id="edge13" class="edge">
<title>Node5&#45;&gt;Node1</title>
<path fill="none" stroke="#404040" d="M48.39,-539.87C29.78,-514.9 0,-467.8 0,-422 0,-422 0,-422 0,-149.5 0,-117.81 21.86,-93.33 48.25,-75.32"/>
<polygon fill="none" stroke="#404040" points="48.44,-75.2 51.34,-68.59 58.55,-68.73 55.65,-75.33 48.44,-75.2"/>
<text text-anchor="middle" x="23.5" y="-275" font-family="Helvetica,sans-Serif" font-size="10.00"> +spindle</text>
</g>
<!-- Node5&#45;&gt;Node3 -->
<g id="edge6" class="edge">
<title>Node5&#45;&gt;Node3</title>
<path fill="none" stroke="#404040" d="M55.11,-530.41C45.81,-492.74 34.08,-423.73 55,-370 63.18,-349 78.67,-329.9 94.15,-314.65"/>
<polygon fill="none" stroke="#404040" points="94.47,-314.35 96.1,-307.32 103.21,-306.13 101.58,-313.15 94.47,-314.35"/>
<text text-anchor="middle" x="96" y="-418.5" font-family="Helvetica,sans-Serif" font-size="10.00"> +serial_number</text>
</g>
<!-- Node5&#45;&gt;Node4 -->
<g id="edge4" class="edge">
<title>Node5&#45;&gt;Node4</title>
<path fill="none" stroke="#404040" d="M63.9,-530.27C65.72,-516.65 70.06,-500.86 80,-490 96.51,-471.96 111.08,-484.67 132,-472 133.34,-471.19 134.67,-470.34 136,-469.46"/>
<polygon fill="none" stroke="#404040" points="136.28,-469.25 138.75,-462.47 145.95,-462.14 143.49,-468.92 136.28,-469.25"/>
<text text-anchor="middle" x="134.5" y="-504" font-family="Helvetica,sans-Serif" font-size="10.00"> +automatically_clear</text>
<text text-anchor="middle" x="134.5" y="-493" font-family="Helvetica,sans-Serif" font-size="10.00">+type</text>
</g>
<!-- Node8 -->
<g id="node8" class="node">
<title>Node8</title>
<g id="a_node8"><a xlink:href="structstate__tag__t.html" target="_top" xlink:title=" ">
<polygon fill="white" stroke="black" points="339.5,-392.5 339.5,-449.5 410.5,-449.5 410.5,-392.5 339.5,-392.5"/>
<text text-anchor="middle" x="375" y="-437.5" font-family="Helvetica,sans-Serif" font-size="10.00">state_tag_t</text>
<polyline fill="none" stroke="black" points="339.5,-430.5 410.5,-430.5 "/>
<text text-anchor="middle" x="375" y="-418.5" font-family="Helvetica,sans-Serif" font-size="10.00"> </text>
<polyline fill="none" stroke="black" points="339.5,-411.5 410.5,-411.5 "/>
<text text-anchor="middle" x="375" y="-399.5" font-family="Helvetica,sans-Serif" font-size="10.00"> </text>
</a>
</g>
</g>
<!-- Node5&#45;&gt;Node8 -->
<g id="edge10" class="edge">
<title>Node5&#45;&gt;Node8</title>
<path fill="none" stroke="#404040" d="M77.72,-555.17C102.45,-549.88 153.16,-536.74 189,-512 199.63,-504.66 196.67,-496.22 208,-490 256.44,-463.42 282.44,-498.35 331,-472 337.32,-468.57 343.16,-463.86 348.38,-458.7"/>
<polygon fill="none" stroke="#404040" points="348.49,-458.58 349.57,-451.45 356.57,-449.71 355.49,-456.84 348.49,-458.58"/>
<text text-anchor="middle" x="227" y="-498.5" font-family="Helvetica,sans-Serif" font-size="10.00"> +fields</text>
</g>
<!-- Node6 -->
<g id="node6" class="node">
<title>Node6</title>
<g id="a_node6"><a xlink:title=" ">
<polygon fill="white" stroke="black" points="253,-530.5 253,-587.5 291,-587.5 291,-530.5 253,-530.5"/>
<text text-anchor="middle" x="272" y="-575.5" font-family="Helvetica,sans-Serif" font-size="10.00">long</text>
<polyline fill="none" stroke="black" points="253,-568.5 291,-568.5 "/>
<text text-anchor="middle" x="272" y="-556.5" font-family="Helvetica,sans-Serif" font-size="10.00"> </text>
<polyline fill="none" stroke="black" points="253,-549.5 291,-549.5 "/>
<text text-anchor="middle" x="272" y="-537.5" font-family="Helvetica,sans-Serif" font-size="10.00"> </text>
</a>
</g>
</g>
<!-- Node6&#45;&gt;Node4 -->
<g id="edge5" class="edge">
<title>Node6&#45;&gt;Node4</title>
<path fill="none" stroke="#404040" d="M266.07,-530.32C262.58,-517.48 257.37,-502.36 250,-490 249.13,-488.55 242.04,-480.93 232.82,-471.28"/>
<polygon fill="none" stroke="#404040" points="232.6,-471.04 225.56,-469.48 224.29,-462.39 231.33,-463.95 232.6,-471.04"/>
<text text-anchor="middle" x="274.5" y="-498.5" font-family="Helvetica,sans-Serif" font-size="10.00"> +size</text>
</g>
<!-- Node7 -->
<g id="node7" class="node">
<title>Node7</title>
<g id="a_node7"><a xlink:href="structStateTag.html" target="_top" xlink:title=" ">
<polygon fill="white" stroke="black" points="231,-232.5 231,-322.5 333,-322.5 333,-232.5 231,-232.5"/>
<text text-anchor="middle" x="282" y="-310.5" font-family="Helvetica,sans-Serif" font-size="10.00">StateTag</text>
<polyline fill="none" stroke="black" points="231,-303.5 333,-303.5 "/>
<text text-anchor="middle" x="282" y="-291.5" font-family="Helvetica,sans-Serif" font-size="10.00"> </text>
<polyline fill="none" stroke="black" points="231,-284.5 333,-284.5 "/>
<text text-anchor="start" x="239" y="-272.5" font-family="Helvetica,sans-Serif" font-size="10.00">+ StateTag()</text>
<text text-anchor="start" x="239" y="-261.5" font-family="Helvetica,sans-Serif" font-size="10.00">+ StateTag()</text>
<text text-anchor="start" x="239" y="-250.5" font-family="Helvetica,sans-Serif" font-size="10.00">+ is_valid()</text>
<text text-anchor="start" x="239" y="-239.5" font-family="Helvetica,sans-Serif" font-size="10.00">+ get_state_tag()</text>
</a>
</g>
</g>
<!-- Node7&#45;&gt;Node2 -->
<g id="edge7" class="edge">
<title>Node7&#45;&gt;Node2</title>
<path fill="none" stroke="#404040" d="M231.58,-232.43C216.81,-219.51 200.71,-205.45 186.15,-192.71"/>
<polygon fill="none" stroke="#404040" points="185.86,-192.46 178.71,-191.53 176.83,-184.57 183.98,-185.5 185.86,-192.46"/>
<text text-anchor="middle" x="224" y="-206" font-family="Helvetica,sans-Serif" font-size="10.00"> +tag</text>
</g>
<!-- Node8&#45;&gt;Node7 -->
<g id="edge8" class="edge">
<title>Node8&#45;&gt;Node7</title>
<path fill="none" stroke="midnightblue" d="M351.27,-383.89C339.03,-365.28 324.01,-342.42 311.09,-322.75"/>
<polygon fill="none" stroke="midnightblue" points="348.43,-385.95 356.85,-392.38 354.28,-382.1 348.43,-385.95"/>
</g>
<!-- Node9 -->
<g id="node9" class="node">
<title>Node9</title>
<g id="a_node9"><a xlink:title=" ">
<polygon fill="white" stroke="black" points="332,-530.5 332,-587.5 370,-587.5 370,-530.5 332,-530.5"/>
<text text-anchor="middle" x="351" y="-575.5" font-family="Helvetica,sans-Serif" font-size="10.00">float</text>
<polyline fill="none" stroke="black" points="332,-568.5 370,-568.5 "/>
<text text-anchor="middle" x="351" y="-556.5" font-family="Helvetica,sans-Serif" font-size="10.00"> </text>
<polyline fill="none" stroke="black" points="332,-549.5 370,-549.5 "/>
<text text-anchor="middle" x="351" y="-537.5" font-family="Helvetica,sans-Serif" font-size="10.00"> </text>
</a>
</g>
</g>
<!-- Node9&#45;&gt;Node8 -->
<g id="edge9" class="edge">
<title>Node9&#45;&gt;Node8</title>
<path fill="none" stroke="#404040" d="M349.47,-530.36C349.28,-517.94 349.74,-503.15 352,-490 353.65,-480.41 356.43,-470.35 359.5,-461"/>
<polygon fill="none" stroke="#404040" points="359.52,-460.94 357.72,-453.96 363.48,-449.61 365.28,-456.6 359.52,-460.94"/>
<text text-anchor="middle" x="384.5" y="-498.5" font-family="Helvetica,sans-Serif" font-size="10.00"> +fields_float</text>
</g>
<!-- Node10 -->
<g id="node10" class="node">
<title>Node10</title>
<g id="a_node10"><a xlink:title=" ">
<polygon fill="white" stroke="black" points="408.5,-530.5 408.5,-587.5 469.5,-587.5 469.5,-530.5 408.5,-530.5"/>
<text text-anchor="middle" x="439" y="-575.5" font-family="Helvetica,sans-Serif" font-size="10.00">unsigned</text>
<polyline fill="none" stroke="black" points="408.5,-568.5 469.5,-568.5 "/>
<text text-anchor="middle" x="439" y="-556.5" font-family="Helvetica,sans-Serif" font-size="10.00"> </text>
<polyline fill="none" stroke="black" points="408.5,-549.5 469.5,-549.5 "/>
<text text-anchor="middle" x="439" y="-537.5" font-family="Helvetica,sans-Serif" font-size="10.00"> </text>
</a>
</g>
</g>
<!-- Node10&#45;&gt;Node8 -->
<g id="edge11" class="edge">
<title>Node10&#45;&gt;Node8</title>
<path fill="none" stroke="#404040" d="M431.68,-530.3C427.95,-517.73 422.94,-502.84 417,-490 412.35,-479.93 406.5,-469.53 400.67,-459.97"/>
<polygon fill="none" stroke="#404040" points="400.54,-459.76 393.96,-456.81 394.15,-449.61 400.73,-452.55 400.54,-459.76"/>
<text text-anchor="middle" x="462.5" y="-498.5" font-family="Helvetica,sans-Serif" font-size="10.00"> +packed_flags</text>
</g>
<!-- Node11 -->
<g id="node11" class="node">
<title>Node11</title>
<g id="a_node11"><a xlink:title=" ">
<polygon fill="white" stroke="black" points="242.5,-392.5 242.5,-449.5 321.5,-449.5 321.5,-392.5 242.5,-392.5"/>
<text text-anchor="middle" x="282" y="-437.5" font-family="Helvetica,sans-Serif" font-size="10.00">bitset&lt; 64 &gt;</text>
<polyline fill="none" stroke="black" points="242.5,-430.5 321.5,-430.5 "/>
<text text-anchor="middle" x="282" y="-418.5" font-family="Helvetica,sans-Serif" font-size="10.00"> </text>
<polyline fill="none" stroke="black" points="242.5,-411.5 321.5,-411.5 "/>
<text text-anchor="middle" x="282" y="-399.5" font-family="Helvetica,sans-Serif" font-size="10.00"> </text>
</a>
</g>
</g>
<!-- Node11&#45;&gt;Node7 -->
<g id="edge12" class="edge">
<title>Node11&#45;&gt;Node7</title>
<path fill="none" stroke="#404040" d="M282,-392.38C282,-376 282,-354.62 282,-334.82"/>
<polygon fill="none" stroke="#404040" points="282,-334.75 278,-328.75 282,-322.75 286,-328.75 282,-334.75"/>
<text text-anchor="middle" x="299.5" y="-344" font-family="Helvetica,sans-Serif" font-size="10.00"> +flags</text>
</g>
<!-- Node12 -->
<g id="node12" class="node">
<title>Node12</title>
<g id="a_node12"><a xlink:title=" ">
<polygon fill="white" stroke="black" points="228,-122 228,-179 266,-179 266,-122 228,-122"/>
<text text-anchor="middle" x="247" y="-167" font-family="Helvetica,sans-Serif" font-size="10.00">char</text>
<polyline fill="none" stroke="black" points="228,-160 266,-160 "/>
<text text-anchor="middle" x="247" y="-148" font-family="Helvetica,sans-Serif" font-size="10.00"> </text>
<polyline fill="none" stroke="black" points="228,-141 266,-141 "/>
<text text-anchor="middle" x="247" y="-129" font-family="Helvetica,sans-Serif" font-size="10.00"> </text>
</a>
</g>
</g>
<!-- Node12&#45;&gt;Node1 -->
<g id="edge14" class="edge">
<title>Node12&#45;&gt;Node1</title>
<path fill="none" stroke="#404040" d="M227.98,-126.21C225.02,-122.75 221.96,-119.25 219,-116 207.25,-103.11 194.06,-89.51 181.83,-77.23"/>
<polygon fill="none" stroke="#404040" points="181.63,-77.03 174.56,-75.63 173.13,-68.56 180.21,-69.96 181.63,-77.03"/>
<text text-anchor="middle" x="222" y="-90" font-family="Helvetica,sans-Serif" font-size="10.00"> +mode</text>
</g>
</g>
</svg>
