<?xml version="1.0" encoding="UTF-8" standalone="no"?>
<!DOCTYPE svg PUBLIC "-//W3C//DTD SVG 1.1//EN"
 "http://www.w3.org/Graphics/SVG/1.1/DTD/svg11.dtd">
<!-- Generated by graphviz version 2.43.0 (0)
 -->
<!-- Title: EMC_MOTION_ABORT Pages: 1 -->
<!--zoomable 522 -->
<svg id="main" version="1.1" xmlns="http://www.w3.org/2000/svg" xmlns:xlink="http://www.w3.org/1999/xlink" xml:space="preserve" onload="init(evt)">
<style type="text/css"><![CDATA[
.edge:hover path { stroke: red; }
.edge:hover polygon { stroke: red; fill: red; }
]]></style>
<script type="text/javascript"><![CDATA[
var edges = document.getElementsByTagName('g');
if (edges && edges.length) {
  for (var i=0;i<edges.length;i++) {
    if (edges[i].id.substr(0,4)=='edge') {
      edges[i].setAttribute('class','edge');
    }
  }
}
]]></script>
        <defs>
                <circle id="rim" cx="0" cy="0" r="7"/>
                <circle id="rim2" cx="0" cy="0" r="3.5"/>
                <g id="zoomPlus">
                        <use xlink:href="#rim" fill="#404040">
                                <set attributeName="fill" to="#808080" begin="zoomplus.mouseover" end="zoomplus.mouseout"/>
                        </use>
                        <path d="M-4,0h8M0,-4v8" fill="none" stroke="white" stroke-width="1.5" pointer-events="none"/>
                </g>
                <g id="zoomMin">
                        <use xlink:href="#rim" fill="#404040">
                                <set attributeName="fill" to="#808080" begin="zoomminus.mouseover" end="zoomminus.mouseout"/>
                        </use>
                        <path d="M-4,0h8" fill="none" stroke="white" stroke-width="1.5" pointer-events="none"/>
                </g>
                <g id="dirArrow">
                        <path fill="none" stroke="white" stroke-width="1.5" d="M0,-3.0v7 M-2.5,-0.5L0,-3.0L2.5,-0.5"/>
                </g>
               <g id="resetDef">
                       <use xlink:href="#rim2" fill="#404040">
                               <set attributeName="fill" to="#808080" begin="reset.mouseover" end="reset.mouseout"/>
                       </use>
               </g>
        </defs>

<script type="text/javascript">
var viewWidth = 290;
var viewHeight = 522;
var sectionId = 'dynsection-1';
</script>
<script xlink:href="svgpan.js"/>
<svg id="graph" class="graph">
<g id="viewport">
<title>EMC_MOTION_ABORT</title>
<polygon fill="white" stroke="transparent" points="-4,4 -4,-518 285.5,-518 285.5,4 -4,4"/>
<!-- Node1 -->
<g id="node1" class="node">
<title>Node1</title>
<g id="a_node1"><a xlink:title=" ">
<polygon fill="#bfbfbf" stroke="black" points="9,-0.5 9,-68.5 150,-68.5 150,-0.5 9,-0.5"/>
<text text-anchor="middle" x="79.5" y="-56.5" font-family="Helvetica,sans-Serif" font-size="10.00">EMC_MOTION_ABORT</text>
<polyline fill="none" stroke="black" points="9,-49.5 150,-49.5 "/>
<text text-anchor="middle" x="79.5" y="-37.5" font-family="Helvetica,sans-Serif" font-size="10.00"> </text>
<polyline fill="none" stroke="black" points="9,-30.5 150,-30.5 "/>
<text text-anchor="start" x="17" y="-18.5" font-family="Helvetica,sans-Serif" font-size="10.00">+ EMC_MOTION_ABORT()</text>
<text text-anchor="start" x="17" y="-7.5" font-family="Helvetica,sans-Serif" font-size="10.00">+ update()</text>
</a>
</g>
</g>
<!-- Node2 -->
<g id="node2" class="node">
<title>Node2</title>
<g id="a_node2"><a xlink:href="classEMC__MOTION__CMD__MSG.html" target="_top" xlink:title=" ">
<polygon fill="white" stroke="black" points="0,-106.5 0,-174.5 159,-174.5 159,-106.5 0,-106.5"/>
<text text-anchor="middle" x="79.5" y="-162.5" font-family="Helvetica,sans-Serif" font-size="10.00">EMC_MOTION_CMD_MSG</text>
<polyline fill="none" stroke="black" points="0,-155.5 159,-155.5 "/>
<text text-anchor="middle" x="79.5" y="-143.5" font-family="Helvetica,sans-Serif" font-size="10.00"> </text>
<polyline fill="none" stroke="black" points="0,-136.5 159,-136.5 "/>
<text text-anchor="start" x="8" y="-124.5" font-family="Helvetica,sans-Serif" font-size="10.00">+ EMC_MOTION_CMD_MSG()</text>
<text text-anchor="start" x="8" y="-113.5" font-family="Helvetica,sans-Serif" font-size="10.00">+ update()</text>
</a>
</g>
</g>
<!-- Node2&#45;&gt;Node1 -->
<g id="edge1" class="edge">
<title>Node2&#45;&gt;Node1</title>
<path fill="none" stroke="midnightblue" d="M79.5,-96.17C79.5,-87 79.5,-77.46 79.5,-68.73"/>
<polygon fill="none" stroke="midnightblue" points="76,-96.31 79.5,-106.31 83,-96.31 76,-96.31"/>
</g>
<!-- Node3 -->
<g id="node3" class="node">
<title>Node3</title>
<g id="a_node3"><a xlink:href="classRCS__CMD__MSG.html" target="_top" xlink:title=" ">
<polygon fill="white" stroke="black" points="24,-212.5 24,-269.5 135,-269.5 135,-212.5 24,-212.5"/>
<text text-anchor="middle" x="79.5" y="-257.5" font-family="Helvetica,sans-Serif" font-size="10.00">RCS_CMD_MSG</text>
<polyline fill="none" stroke="black" points="24,-250.5 135,-250.5 "/>
<text text-anchor="middle" x="79.5" y="-238.5" font-family="Helvetica,sans-Serif" font-size="10.00"> </text>
<polyline fill="none" stroke="black" points="24,-231.5 135,-231.5 "/>
<text text-anchor="start" x="32" y="-219.5" font-family="Helvetica,sans-Serif" font-size="10.00">+ RCS_CMD_MSG()</text>
</a>
</g>
</g>
<!-- Node3&#45;&gt;Node2 -->
<g id="edge2" class="edge">
<title>Node3&#45;&gt;Node2</title>
<path fill="none" stroke="midnightblue" d="M79.5,-202.01C79.5,-192.96 79.5,-183.38 79.5,-174.58"/>
<polygon fill="none" stroke="midnightblue" points="76,-202.3 79.5,-212.3 83,-202.3 76,-202.3"/>
</g>
<!-- Node4 -->
<g id="node4" class="node">
<title>Node4</title>
<g id="a_node4"><a xlink:href="classNMLmsg.html" target="_top" xlink:title=" ">
<polygon fill="white" stroke="black" points="148.5,-307.5 148.5,-408.5 226.5,-408.5 226.5,-307.5 148.5,-307.5"/>
<text text-anchor="middle" x="187.5" y="-396.5" font-family="Helvetica,sans-Serif" font-size="10.00">NMLmsg</text>
<polyline fill="none" stroke="black" points="148.5,-389.5 226.5,-389.5 "/>
<text text-anchor="middle" x="187.5" y="-377.5" font-family="Helvetica,sans-Serif" font-size="10.00"> </text>
<polyline fill="none" stroke="black" points="148.5,-370.5 226.5,-370.5 "/>
<text text-anchor="start" x="156.5" y="-358.5" font-family="Helvetica,sans-Serif" font-size="10.00">+ clear()</text>
<text text-anchor="start" x="156.5" y="-347.5" font-family="Helvetica,sans-Serif" font-size="10.00">+ update()</text>
<text text-anchor="start" x="156.5" y="-336.5" font-family="Helvetica,sans-Serif" font-size="10.00"># NMLmsg()</text>
<text text-anchor="start" x="156.5" y="-325.5" font-family="Helvetica,sans-Serif" font-size="10.00"># NMLmsg()</text>
<text text-anchor="start" x="156.5" y="-314.5" font-family="Helvetica,sans-Serif" font-size="10.00"># NMLmsg()</text>
</a>
</g>
</g>
<!-- Node4&#45;&gt;Node3 -->
<g id="edge3" class="edge">
<title>Node4&#45;&gt;Node3</title>
<path fill="none" stroke="midnightblue" d="M141.1,-307.59C128.89,-294.6 116.16,-281.04 105.46,-269.64"/>
<polygon fill="none" stroke="midnightblue" points="138.81,-310.26 148.2,-315.16 143.91,-305.47 138.81,-310.26"/>
</g>
<!-- Node5 -->
<g id="node5" class="node">
<title>Node5</title>
<g id="a_node5"><a xlink:title=" ">
<polygon fill="white" stroke="black" points="38,-456.5 38,-513.5 67,-513.5 67,-456.5 38,-456.5"/>
<text text-anchor="middle" x="52.5" y="-501.5" font-family="Helvetica,sans-Serif" font-size="10.00">int</text>
<polyline fill="none" stroke="black" points="38,-494.5 67,-494.5 "/>
<text text-anchor="middle" x="52.5" y="-482.5" font-family="Helvetica,sans-Serif" font-size="10.00"> </text>
<polyline fill="none" stroke="black" points="38,-475.5 67,-475.5 "/>
<text text-anchor="middle" x="52.5" y="-463.5" font-family="Helvetica,sans-Serif" font-size="10.00"> </text>
</a>
</g>
</g>
<!-- Node5&#45;&gt;Node3 -->
<g id="edge7" class="edge">
<title>Node5&#45;&gt;Node3</title>
<path fill="none" stroke="#404040" d="M50.76,-456.45C49.13,-421.42 48.15,-359.2 57.5,-307 59.03,-298.47 61.46,-289.54 64.17,-281.13"/>
<polygon fill="none" stroke="#404040" points="64.2,-281.02 62.37,-274.05 68.1,-269.67 69.94,-276.65 64.2,-281.02"/>
<text text-anchor="middle" x="98.5" y="-355.5" font-family="Helvetica,sans-Serif" font-size="10.00"> +serial_number</text>
</g>
<!-- Node5&#45;&gt;Node4 -->
<g id="edge4" class="edge">
<title>Node5&#45;&gt;Node4</title>
<path fill="none" stroke="#404040" d="M62.61,-456.34C67.41,-446.13 73.98,-435.08 82.5,-427 96.35,-413.86 105.13,-418.82 121.5,-409 127.12,-405.63 132.84,-401.87 138.44,-397.97"/>
<polygon fill="none" stroke="#404040" points="138.59,-397.85 141.13,-391.1 148.33,-390.85 145.8,-397.6 138.59,-397.85"/>
<text text-anchor="middle" x="137" y="-430" font-family="Helvetica,sans-Serif" font-size="10.00"> +automatically_clear</text>
</g>
<!-- Node6 -->
<g id="node6" class="node">
<title>Node6</title>
<g id="a_node6"><a xlink:title=" ">
<polygon fill="white" stroke="black" points="175.5,-456.5 175.5,-513.5 225.5,-513.5 225.5,-456.5 175.5,-456.5"/>
<text text-anchor="middle" x="200.5" y="-501.5" font-family="Helvetica,sans-Serif" font-size="10.00">int32_t</text>
<polyline fill="none" stroke="black" points="175.5,-494.5 225.5,-494.5 "/>
<text text-anchor="middle" x="200.5" y="-482.5" font-family="Helvetica,sans-Serif" font-size="10.00"> </text>
<polyline fill="none" stroke="black" points="175.5,-475.5 225.5,-475.5 "/>
<text text-anchor="middle" x="200.5" y="-463.5" font-family="Helvetica,sans-Serif" font-size="10.00"> </text>
</a>
</g>
</g>
<!-- Node6&#45;&gt;Node4 -->
<g id="edge5" class="edge">
<title>Node6&#45;&gt;Node4</title>
<path fill="none" stroke="#404040" d="M197.61,-456.26C196.53,-445.79 195.24,-433.42 193.96,-421.07"/>
<polygon fill="none" stroke="#404040" points="193.92,-420.74 189.32,-415.18 192.68,-408.8 197.28,-414.36 193.92,-420.74"/>
<text text-anchor="middle" x="213.5" y="-430" font-family="Helvetica,sans-Serif" font-size="10.00"> +type</text>
</g>
<!-- Node7 -->
<g id="node7" class="node">
<title>Node7</title>
<g id="a_node7"><a xlink:title=" ">
<polygon fill="white" stroke="black" points="243.5,-456.5 243.5,-513.5 281.5,-513.5 281.5,-456.5 243.5,-456.5"/>
<text text-anchor="middle" x="262.5" y="-501.5" font-family="Helvetica,sans-Serif" font-size="10.00">long</text>
<polyline fill="none" stroke="black" points="243.5,-494.5 281.5,-494.5 "/>
<text text-anchor="middle" x="262.5" y="-482.5" font-family="Helvetica,sans-Serif" font-size="10.00"> </text>
<polyline fill="none" stroke="black" points="243.5,-475.5 281.5,-475.5 "/>
<text text-anchor="middle" x="262.5" y="-463.5" font-family="Helvetica,sans-Serif" font-size="10.00"> </text>
</a>
</g>
</g>
<!-- Node7&#45;&gt;Node4 -->
<g id="edge6" class="edge">
<title>Node7&#45;&gt;Node4</title>
<path fill="none" stroke="#404040" d="M249.92,-456.31C245.35,-446.86 239.97,-436.32 234.5,-427 232.94,-424.35 231.32,-421.66 229.64,-418.97"/>
<polygon fill="none" stroke="#404040" points="229.47,-418.7 222.87,-415.79 223.01,-408.58 229.61,-411.49 229.47,-418.7"/>
<text text-anchor="middle" x="256" y="-430" font-family="Helvetica,sans-Serif" font-size="10.00"> +size</text>
</g>
</g>
</svg>
        <g id="navigator" transform="translate(0 0)" fill="#404254">
                <rect fill="#f2f5e9" fill-opacity="0.5" stroke="#606060" stroke-width=".5" x="0" y="0" width="60" height="60"/>
                <use id="zoomplus" xlink:href="#zoomPlus" x="17" y="9" onmousedown="handleZoom(evt,'in')"/>
                <use id="zoomminus" xlink:href="#zoomMin" x="42" y="9" onmousedown="handleZoom(evt,'out')"/>
                <use id="reset" xlink:href="#resetDef" x="30" y="36" onmousedown="handleReset()"/>
                <g id="arrowUp" xlink:href="#dirArrow" transform="translate(30 24)" onmousedown="handlePan(0,-1)">
                  <use xlink:href="#rim" fill="#404040">
                        <set attributeName="fill" to="#808080" begin="arrowUp.mouseover" end="arrowUp.mouseout"/>
                  </use>
                  <path fill="none" stroke="white" stroke-width="1.5" d="M0,-3.0v7 M-2.5,-0.5L0,-3.0L2.5,-0.5"/>
                </g>
                <g id="arrowRight" xlink:href="#dirArrow" transform="rotate(90) translate(36 -43)" onmousedown="handlePan(1,0)">
                  <use xlink:href="#rim" fill="#404040">
                        <set attributeName="fill" to="#808080" begin="arrowRight.mouseover" end="arrowRight.mouseout"/>
                  </use>
                  <path fill="none" stroke="white" stroke-width="1.5" d="M0,-3.0v7 M-2.5,-0.5L0,-3.0L2.5,-0.5"/>
                </g>
                <g id="arrowDown" xlink:href="#dirArrow" transform="rotate(180) translate(-30 -48)" onmousedown="handlePan(0,1)">
                  <use xlink:href="#rim" fill="#404040">
                        <set attributeName="fill" to="#808080" begin="arrowDown.mouseover" end="arrowDown.mouseout"/>
                  </use>
                  <path fill="none" stroke="white" stroke-width="1.5" d="M0,-3.0v7 M-2.5,-0.5L0,-3.0L2.5,-0.5"/>
                </g>
                <g id="arrowLeft" xlink:href="#dirArrow" transform="rotate(270) translate(-36 17)" onmousedown="handlePan(-1,0)">
                  <use xlink:href="#rim" fill="#404040">
                        <set attributeName="fill" to="#808080" begin="arrowLeft.mouseover" end="arrowLeft.mouseout"/>
                  </use>
                  <path fill="none" stroke="white" stroke-width="1.5" d="M0,-3.0v7 M-2.5,-0.5L0,-3.0L2.5,-0.5"/>
                </g>
        </g>
        <svg viewBox="0 0 15 15" width="100%" height="30px" preserveAspectRatio="xMaxYMin meet">
         <g id="arrow_out" transform="scale(0.3 0.3)">
          <a xlink:href="classEMC__MOTION__ABORT__coll__graph_org.svg" target="_base">
           <rect id="button" ry="5" rx="5" y="6" x="6" height="38" width="38"
                fill="#f2f5e9" fill-opacity="0.5" stroke="#606060" stroke-width="1.0"/>
           <path id="arrow"
             d="M 11.500037,31.436501 C 11.940474,20.09759 22.043105,11.32322 32.158766,21.979434 L 37.068811,17.246167 C 37.068811,17.246167 37.088388,32 37.088388,32 L 22.160133,31.978069 C 22.160133,31.978069 26.997745,27.140456 26.997745,27.140456 C 18.528582,18.264221 13.291696,25.230495 11.500037,31.436501 z"
             style="fill:#404040;"/>
          </a>
         </g>
        </svg>
</svg>
