<?xml version="1.0" encoding="UTF-8" standalone="no"?>
<!DOCTYPE svg PUBLIC "-//W3C//DTD SVG 1.1//EN"
 "http://www.w3.org/Graphics/SVG/1.1/DTD/svg11.dtd">
<!-- Generated by graphviz version 2.43.0 (0)
 -->
<!-- Title: RCS_SHAREDMEM Pages: 1 -->
<svg width="306pt" height="353pt"
 viewBox="0.00 0.00 306.00 353.00" xmlns="http://www.w3.org/2000/svg" xmlns:xlink="http://www.w3.org/1999/xlink">
<g id="graph0" class="graph" transform="scale(1 1) rotate(0) translate(4 349)">
<title>RCS_SHAREDMEM</title>
<polygon fill="white" stroke="transparent" points="-4,4 -4,-349 302,-349 302,4 -4,4"/>
<!-- Node1 -->
<g id="node1" class="node">
<title>Node1</title>
<g id="a_node1"><a xlink:title=" ">
<polygon fill="#bfbfbf" stroke="black" points="15.5,-0.5 15.5,-90.5 148.5,-90.5 148.5,-0.5 15.5,-0.5"/>
<text text-anchor="middle" x="82" y="-78.5" font-family="Helvetica,sans-Serif" font-size="10.00">RCS_SHAREDMEM</text>
<polyline fill="none" stroke="black" points="15.5,-71.5 148.5,-71.5 "/>
<text text-anchor="middle" x="82" y="-59.5" font-family="Helvetica,sans-Serif" font-size="10.00"> </text>
<polyline fill="none" stroke="black" points="15.5,-52.5 148.5,-52.5 "/>
<text text-anchor="start" x="23.5" y="-40.5" font-family="Helvetica,sans-Serif" font-size="10.00">+ RCS_SHAREDMEM()</text>
<text text-anchor="start" x="23.5" y="-29.5" font-family="Helvetica,sans-Serif" font-size="10.00">+ ~RCS_SHAREDMEM()</text>
<text text-anchor="start" x="23.5" y="-18.5" font-family="Helvetica,sans-Serif" font-size="10.00">+ nattch()</text>
<text text-anchor="start" x="23.5" y="-7.5" font-family="Helvetica,sans-Serif" font-size="10.00">&#45; RCS_SHAREDMEM()</text>
</a>
</g>
</g>
<!-- Node2 -->
<g id="node2" class="node">
<title>Node2</title>
<g id="a_node2"><a xlink:title=" ">
<polygon fill="white" stroke="black" points="77.5,-287.5 77.5,-344.5 106.5,-344.5 106.5,-287.5 77.5,-287.5"/>
<text text-anchor="middle" x="92" y="-332.5" font-family="Helvetica,sans-Serif" font-size="10.00">int</text>
<polyline fill="none" stroke="black" points="77.5,-325.5 106.5,-325.5 "/>
<text text-anchor="middle" x="92" y="-313.5" font-family="Helvetica,sans-Serif" font-size="10.00"> </text>
<polyline fill="none" stroke="black" points="77.5,-306.5 106.5,-306.5 "/>
<text text-anchor="middle" x="92" y="-294.5" font-family="Helvetica,sans-Serif" font-size="10.00"> </text>
</a>
</g>
</g>
<!-- Node2&#45;&gt;Node1 -->
<g id="edge1" class="edge">
<title>Node2&#45;&gt;Node1</title>
<path fill="none" stroke="#404040" d="M90.97,-287.28C89.36,-244.05 86.22,-159.71 84.11,-103.22"/>
<polygon fill="none" stroke="#404040" points="84.1,-102.91 79.88,-97.06 83.65,-90.91 87.87,-96.76 84.1,-102.91"/>
<text text-anchor="middle" x="126" y="-175.5" font-family="Helvetica,sans-Serif" font-size="10.00"> +create_errno</text>
<text text-anchor="middle" x="126" y="-164.5" font-family="Helvetica,sans-Serif" font-size="10.00">+created</text>
<text text-anchor="middle" x="126" y="-153.5" font-family="Helvetica,sans-Serif" font-size="10.00">+delete_totally</text>
</g>
<!-- Node4 -->
<g id="node4" class="node">
<title>Node4</title>
<g id="a_node4"><a xlink:href="structshm__t.html" target="_top" xlink:title=" ">
<polygon fill="white" stroke="black" points="176.5,-138.5 176.5,-195.5 223.5,-195.5 223.5,-138.5 176.5,-138.5"/>
<text text-anchor="middle" x="200" y="-183.5" font-family="Helvetica,sans-Serif" font-size="10.00">shm_t</text>
<polyline fill="none" stroke="black" points="176.5,-176.5 223.5,-176.5 "/>
<text text-anchor="middle" x="200" y="-164.5" font-family="Helvetica,sans-Serif" font-size="10.00"> </text>
<polyline fill="none" stroke="black" points="176.5,-157.5 223.5,-157.5 "/>
<text text-anchor="middle" x="200" y="-145.5" font-family="Helvetica,sans-Serif" font-size="10.00"> </text>
</a>
</g>
</g>
<!-- Node2&#45;&gt;Node4 -->
<g id="edge4" class="edge">
<title>Node2&#45;&gt;Node4</title>
<path fill="none" stroke="#404040" d="M96.57,-287.42C101.41,-265.42 110.96,-234.94 129,-214 139.91,-201.34 147.91,-204.98 162,-196 163.32,-195.16 164.66,-194.29 166,-193.39"/>
<polygon fill="none" stroke="#404040" points="166.37,-193.13 169.01,-186.42 176.22,-186.28 173.58,-192.99 166.37,-193.13"/>
<text text-anchor="middle" x="164" y="-261" font-family="Helvetica,sans-Serif" font-size="10.00"> +count</text>
<text text-anchor="middle" x="164" y="-250" font-family="Helvetica,sans-Serif" font-size="10.00">+create_errno</text>
<text text-anchor="middle" x="164" y="-239" font-family="Helvetica,sans-Serif" font-size="10.00">+created</text>
<text text-anchor="middle" x="164" y="-228" font-family="Helvetica,sans-Serif" font-size="10.00">+id</text>
<text text-anchor="middle" x="164" y="-217" font-family="Helvetica,sans-Serif" font-size="10.00">+key</text>
</g>
<!-- Node3 -->
<g id="node3" class="node">
<title>Node3</title>
<g id="a_node3"><a xlink:title=" ">
<polygon fill="white" stroke="black" points="0,-287.5 0,-344.5 46,-344.5 46,-287.5 0,-287.5"/>
<text text-anchor="middle" x="23" y="-332.5" font-family="Helvetica,sans-Serif" font-size="10.00">void *</text>
<polyline fill="none" stroke="black" points="0,-325.5 46,-325.5 "/>
<text text-anchor="middle" x="23" y="-313.5" font-family="Helvetica,sans-Serif" font-size="10.00"> </text>
<polyline fill="none" stroke="black" points="0,-306.5 46,-306.5 "/>
<text text-anchor="middle" x="23" y="-294.5" font-family="Helvetica,sans-Serif" font-size="10.00"> </text>
</a>
</g>
</g>
<!-- Node3&#45;&gt;Node1 -->
<g id="edge2" class="edge">
<title>Node3&#45;&gt;Node1</title>
<path fill="none" stroke="#404040" d="M22.83,-287.41C23.07,-267.02 24.19,-238.64 28,-214 33.92,-175.68 47.25,-134.19 59.18,-102.08"/>
<polygon fill="none" stroke="#404040" points="59.24,-101.93 57.62,-94.9 63.49,-90.71 65.1,-97.73 59.24,-101.93"/>
<text text-anchor="middle" x="64" y="-164.5" font-family="Helvetica,sans-Serif" font-size="10.00"> +addr</text>
</g>
<!-- Node3&#45;&gt;Node4 -->
<g id="edge5" class="edge">
<title>Node3&#45;&gt;Node4</title>
<path fill="none" stroke="#404040" d="M26.85,-287.07C31.56,-263.94 41.84,-232.04 64,-214 98.34,-186.04 121.36,-213.58 162,-196 163.4,-195.4 164.79,-194.73 166.17,-194.02"/>
<polygon fill="none" stroke="#404040" points="166.19,-194.01 169.27,-187.49 176.48,-187.83 173.4,-194.35 166.19,-194.01"/>
<text text-anchor="middle" x="81" y="-239" font-family="Helvetica,sans-Serif" font-size="10.00"> +addr</text>
</g>
<!-- Node4&#45;&gt;Node1 -->
<g id="edge3" class="edge">
<title>Node4&#45;&gt;Node1</title>
<path fill="none" stroke="#404040" d="M176.4,-142.1C164.26,-129.81 148.94,-114.29 134.2,-99.36"/>
<polygon fill="none" stroke="#404040" points="134.04,-99.2 126.98,-97.74 125.61,-90.66 132.67,-92.12 134.04,-99.2"/>
<text text-anchor="middle" x="166" y="-112" font-family="Helvetica,sans-Serif" font-size="10.00"> &#45;shm</text>
</g>
<!-- Node5 -->
<g id="node5" class="node">
<title>Node5</title>
<g id="a_node5"><a xlink:title=" ">
<polygon fill="white" stroke="black" points="248.5,-287.5 248.5,-344.5 293.5,-344.5 293.5,-287.5 248.5,-287.5"/>
<text text-anchor="middle" x="271" y="-332.5" font-family="Helvetica,sans-Serif" font-size="10.00">size_t</text>
<polyline fill="none" stroke="black" points="248.5,-325.5 293.5,-325.5 "/>
<text text-anchor="middle" x="271" y="-313.5" font-family="Helvetica,sans-Serif" font-size="10.00"> </text>
<polyline fill="none" stroke="black" points="248.5,-306.5 293.5,-306.5 "/>
<text text-anchor="middle" x="271" y="-294.5" font-family="Helvetica,sans-Serif" font-size="10.00"> </text>
</a>
</g>
</g>
<!-- Node5&#45;&gt;Node4 -->
<g id="edge6" class="edge">
<title>Node5&#45;&gt;Node4</title>
<path fill="none" stroke="#404040" d="M269.42,-287.27C267.19,-266.03 261.83,-236.64 249,-214 244.79,-206.57 238.97,-199.62 232.82,-193.49"/>
<polygon fill="none" stroke="#404040" points="232.55,-193.25 225.43,-192.14 223.71,-185.14 230.84,-186.25 232.55,-193.25"/>
<text text-anchor="middle" x="282.5" y="-239" font-family="Helvetica,sans-Serif" font-size="10.00"> +size</text>
</g>
<!-- Node6 -->
<g id="node6" class="node">
<title>Node6</title>
<g id="a_node6"><a xlink:title=" ">
<polygon fill="white" stroke="black" points="189,-287.5 189,-344.5 227,-344.5 227,-287.5 189,-287.5"/>
<text text-anchor="middle" x="208" y="-332.5" font-family="Helvetica,sans-Serif" font-size="10.00">char</text>
<polyline fill="none" stroke="black" points="189,-325.5 227,-325.5 "/>
<text text-anchor="middle" x="208" y="-313.5" font-family="Helvetica,sans-Serif" font-size="10.00"> </text>
<polyline fill="none" stroke="black" points="189,-306.5 227,-306.5 "/>
<text text-anchor="middle" x="208" y="-294.5" font-family="Helvetica,sans-Serif" font-size="10.00"> </text>
</a>
</g>
</g>
<!-- Node6&#45;&gt;Node4 -->
<g id="edge7" class="edge">
<title>Node6&#45;&gt;Node4</title>
<path fill="none" stroke="#404040" d="M206.5,-287.35C205.27,-264.87 203.53,-232.85 202.16,-207.64"/>
<polygon fill="none" stroke="#404040" points="202.15,-207.51 197.83,-201.73 201.5,-195.53 205.82,-201.3 202.15,-207.51"/>
<text text-anchor="middle" x="226" y="-239" font-family="Helvetica,sans-Serif" font-size="10.00"> +name</text>
</g>
</g>
</svg>
