<?xml version="1.0" encoding="UTF-8" standalone="no"?>
<!DOCTYPE svg PUBLIC "-//W3C//DTD SVG 1.1//EN"
 "http://www.w3.org/Graphics/SVG/1.1/DTD/svg11.dtd">
<!-- Generated by graphviz version 2.43.0 (0)
 -->
<!-- Title: EMC_TOOL_SET_NUMBER Pages: 1 -->
<svg width="290pt" height="533pt"
 viewBox="0.00 0.00 289.50 533.00" xmlns="http://www.w3.org/2000/svg" xmlns:xlink="http://www.w3.org/1999/xlink">
<g id="graph0" class="graph" transform="scale(1 1) rotate(0) translate(4 529)">
<title>EMC_TOOL_SET_NUMBER</title>
<polygon fill="white" stroke="transparent" points="-4,4 -4,-529 285.5,-529 285.5,4 -4,4"/>
<!-- Node1 -->
<g id="node1" class="node">
<title>Node1</title>
<g id="a_node1"><a xlink:title=" ">
<polygon fill="#bfbfbf" stroke="black" points="0,-0.5 0,-68.5 161,-68.5 161,-0.5 0,-0.5"/>
<text text-anchor="middle" x="80.5" y="-56.5" font-family="Helvetica,sans-Serif" font-size="10.00">EMC_TOOL_SET_NUMBER</text>
<polyline fill="none" stroke="black" points="0,-49.5 161,-49.5 "/>
<text text-anchor="middle" x="80.5" y="-37.5" font-family="Helvetica,sans-Serif" font-size="10.00"> </text>
<polyline fill="none" stroke="black" points="0,-30.5 161,-30.5 "/>
<text text-anchor="start" x="8" y="-18.5" font-family="Helvetica,sans-Serif" font-size="10.00">+ EMC_TOOL_SET_NUMBER()</text>
<text text-anchor="start" x="8" y="-7.5" font-family="Helvetica,sans-Serif" font-size="10.00">+ update()</text>
</a>
</g>
</g>
<!-- Node2 -->
<g id="node2" class="node">
<title>Node2</title>
<g id="a_node2"><a xlink:href="classEMC__TOOL__CMD__MSG.html" target="_top" xlink:title=" ">
<polygon fill="white" stroke="black" points="79,-106.5 79,-174.5 224,-174.5 224,-106.5 79,-106.5"/>
<text text-anchor="middle" x="151.5" y="-162.5" font-family="Helvetica,sans-Serif" font-size="10.00">EMC_TOOL_CMD_MSG</text>
<polyline fill="none" stroke="black" points="79,-155.5 224,-155.5 "/>
<text text-anchor="middle" x="151.5" y="-143.5" font-family="Helvetica,sans-Serif" font-size="10.00"> </text>
<polyline fill="none" stroke="black" points="79,-136.5 224,-136.5 "/>
<text text-anchor="start" x="87" y="-124.5" font-family="Helvetica,sans-Serif" font-size="10.00">+ EMC_TOOL_CMD_MSG()</text>
<text text-anchor="start" x="87" y="-113.5" font-family="Helvetica,sans-Serif" font-size="10.00">+ update()</text>
</a>
</g>
</g>
<!-- Node2&#45;&gt;Node1 -->
<g id="edge1" class="edge">
<title>Node2&#45;&gt;Node1</title>
<path fill="none" stroke="midnightblue" d="M123.13,-97.94C116.5,-88.24 109.53,-78.02 103.19,-68.73"/>
<polygon fill="none" stroke="midnightblue" points="120.31,-100.02 128.84,-106.31 126.09,-96.08 120.31,-100.02"/>
</g>
<!-- Node3 -->
<g id="node3" class="node">
<title>Node3</title>
<g id="a_node3"><a xlink:href="classRCS__CMD__MSG.html" target="_top" xlink:title=" ">
<polygon fill="white" stroke="black" points="98,-212.5 98,-269.5 209,-269.5 209,-212.5 98,-212.5"/>
<text text-anchor="middle" x="153.5" y="-257.5" font-family="Helvetica,sans-Serif" font-size="10.00">RCS_CMD_MSG</text>
<polyline fill="none" stroke="black" points="98,-250.5 209,-250.5 "/>
<text text-anchor="middle" x="153.5" y="-238.5" font-family="Helvetica,sans-Serif" font-size="10.00"> </text>
<polyline fill="none" stroke="black" points="98,-231.5 209,-231.5 "/>
<text text-anchor="start" x="106" y="-219.5" font-family="Helvetica,sans-Serif" font-size="10.00">+ RCS_CMD_MSG()</text>
</a>
</g>
</g>
<!-- Node3&#45;&gt;Node2 -->
<g id="edge2" class="edge">
<title>Node3&#45;&gt;Node2</title>
<path fill="none" stroke="midnightblue" d="M152.73,-202.3C152.55,-193.17 152.35,-183.48 152.17,-174.58"/>
<polygon fill="none" stroke="midnightblue" points="149.24,-202.37 152.94,-212.3 156.23,-202.23 149.24,-202.37"/>
</g>
<!-- Node4 -->
<g id="node4" class="node">
<title>Node4</title>
<g id="a_node4"><a xlink:href="classNMLmsg.html" target="_top" xlink:title=" ">
<polygon fill="white" stroke="black" points="194.5,-307.5 194.5,-408.5 272.5,-408.5 272.5,-307.5 194.5,-307.5"/>
<text text-anchor="middle" x="233.5" y="-396.5" font-family="Helvetica,sans-Serif" font-size="10.00">NMLmsg</text>
<polyline fill="none" stroke="black" points="194.5,-389.5 272.5,-389.5 "/>
<text text-anchor="middle" x="233.5" y="-377.5" font-family="Helvetica,sans-Serif" font-size="10.00"> </text>
<polyline fill="none" stroke="black" points="194.5,-370.5 272.5,-370.5 "/>
<text text-anchor="start" x="202.5" y="-358.5" font-family="Helvetica,sans-Serif" font-size="10.00">+ clear()</text>
<text text-anchor="start" x="202.5" y="-347.5" font-family="Helvetica,sans-Serif" font-size="10.00">+ update()</text>
<text text-anchor="start" x="202.5" y="-336.5" font-family="Helvetica,sans-Serif" font-size="10.00"># NMLmsg()</text>
<text text-anchor="start" x="202.5" y="-325.5" font-family="Helvetica,sans-Serif" font-size="10.00"># NMLmsg()</text>
<text text-anchor="start" x="202.5" y="-314.5" font-family="Helvetica,sans-Serif" font-size="10.00"># NMLmsg()</text>
</a>
</g>
</g>
<!-- Node4&#45;&gt;Node3 -->
<g id="edge3" class="edge">
<title>Node4&#45;&gt;Node3</title>
<path fill="none" stroke="midnightblue" d="M192.97,-298.73C185.92,-288.6 178.89,-278.5 172.76,-269.68"/>
<polygon fill="none" stroke="midnightblue" points="190.29,-301.02 198.88,-307.23 196.04,-297.02 190.29,-301.02"/>
</g>
<!-- Node5 -->
<g id="node5" class="node">
<title>Node5</title>
<g id="a_node5"><a xlink:title=" ">
<polygon fill="white" stroke="black" points="80,-467.5 80,-524.5 109,-524.5 109,-467.5 80,-467.5"/>
<text text-anchor="middle" x="94.5" y="-512.5" font-family="Helvetica,sans-Serif" font-size="10.00">int</text>
<polyline fill="none" stroke="black" points="80,-505.5 109,-505.5 "/>
<text text-anchor="middle" x="94.5" y="-493.5" font-family="Helvetica,sans-Serif" font-size="10.00"> </text>
<polyline fill="none" stroke="black" points="80,-486.5 109,-486.5 "/>
<text text-anchor="middle" x="94.5" y="-474.5" font-family="Helvetica,sans-Serif" font-size="10.00"> </text>
</a>
</g>
</g>
<!-- Node5&#45;&gt;Node1 -->
<g id="edge7" class="edge">
<title>Node5&#45;&gt;Node1</title>
<path fill="none" stroke="#404040" d="M79.95,-468.79C66.47,-442.04 48.5,-398.88 48.5,-359 48.5,-359 48.5,-359 48.5,-139.5 48.5,-119.51 53.97,-98.28 60.38,-80.24"/>
<polygon fill="none" stroke="#404040" points="60.43,-80.12 58.82,-73.09 64.69,-68.9 66.3,-75.93 60.43,-80.12"/>
<text text-anchor="middle" x="64" y="-238.5" font-family="Helvetica,sans-Serif" font-size="10.00"> +tool</text>
</g>
<!-- Node5&#45;&gt;Node3 -->
<g id="edge6" class="edge">
<title>Node5&#45;&gt;Node3</title>
<path fill="none" stroke="#404040" d="M90.78,-467.21C86.86,-429.6 83.68,-360.99 103.5,-307 107.06,-297.3 112.62,-287.87 118.76,-279.34"/>
<polygon fill="none" stroke="#404040" points="118.82,-279.28 119.32,-272.08 126.16,-269.78 125.65,-276.98 118.82,-279.28"/>
<text text-anchor="middle" x="144.5" y="-355.5" font-family="Helvetica,sans-Serif" font-size="10.00"> +serial_number</text>
</g>
<!-- Node5&#45;&gt;Node4 -->
<g id="edge4" class="edge">
<title>Node5&#45;&gt;Node4</title>
<path fill="none" stroke="#404040" d="M105,-467.49C111.44,-453.75 120.89,-437.8 133.5,-427 150.49,-412.46 161.56,-420.9 180.5,-409 181.83,-408.17 183.15,-407.3 184.46,-406.4"/>
<polygon fill="none" stroke="#404040" points="184.75,-406.18 187.15,-399.38 194.35,-398.98 191.95,-405.78 184.75,-406.18"/>
<text text-anchor="middle" x="188" y="-441" font-family="Helvetica,sans-Serif" font-size="10.00"> +automatically_clear</text>
<text text-anchor="middle" x="188" y="-430" font-family="Helvetica,sans-Serif" font-size="10.00">+type</text>
</g>
<!-- Node6 -->
<g id="node6" class="node">
<title>Node6</title>
<g id="a_node6"><a xlink:title=" ">
<polygon fill="white" stroke="black" points="240.5,-467.5 240.5,-524.5 278.5,-524.5 278.5,-467.5 240.5,-467.5"/>
<text text-anchor="middle" x="259.5" y="-512.5" font-family="Helvetica,sans-Serif" font-size="10.00">long</text>
<polyline fill="none" stroke="black" points="240.5,-505.5 278.5,-505.5 "/>
<text text-anchor="middle" x="259.5" y="-493.5" font-family="Helvetica,sans-Serif" font-size="10.00"> </text>
<polyline fill="none" stroke="black" points="240.5,-486.5 278.5,-486.5 "/>
<text text-anchor="middle" x="259.5" y="-474.5" font-family="Helvetica,sans-Serif" font-size="10.00"> </text>
</a>
</g>
</g>
<!-- Node6&#45;&gt;Node4 -->
<g id="edge5" class="edge">
<title>Node6&#45;&gt;Node4</title>
<path fill="none" stroke="#404040" d="M254.24,-467.48C251.65,-453.93 248.41,-437 245.27,-420.58"/>
<polygon fill="none" stroke="#404040" points="245.27,-420.55 240.21,-415.41 243.01,-408.76 248.07,-413.91 245.27,-420.55"/>
<text text-anchor="middle" x="266" y="-435.5" font-family="Helvetica,sans-Serif" font-size="10.00"> +size</text>
</g>
</g>
</svg>
