<?xml version="1.0" encoding="UTF-8" standalone="no"?>
<!DOCTYPE svg PUBLIC "-//W3C//DTD SVG 1.1//EN"
 "http://www.w3.org/Graphics/SVG/1.1/DTD/svg11.dtd">
<!-- Generated by graphviz version 2.43.0 (0)
 -->
<!-- Title: EMC_TRAJ_SET_G5X Pages: 1 -->
<svg width="722pt" height="618pt"
 viewBox="0.00 0.00 721.50 618.00" xmlns="http://www.w3.org/2000/svg" xmlns:xlink="http://www.w3.org/1999/xlink">
<g id="graph0" class="graph" transform="scale(1 1) rotate(0) translate(4 614)">
<title>EMC_TRAJ_SET_G5X</title>
<polygon fill="white" stroke="transparent" points="-4,4 -4,-614 717.5,-614 717.5,4 -4,4"/>
<!-- Node1 -->
<g id="node1" class="node">
<title>Node1</title>
<g id="a_node1"><a xlink:title=" ">
<polygon fill="#bfbfbf" stroke="black" points="395.5,-0.5 395.5,-68.5 529.5,-68.5 529.5,-0.5 395.5,-0.5"/>
<text text-anchor="middle" x="462.5" y="-56.5" font-family="Helvetica,sans-Serif" font-size="10.00">EMC_TRAJ_SET_G5X</text>
<polyline fill="none" stroke="black" points="395.5,-49.5 529.5,-49.5 "/>
<text text-anchor="middle" x="462.5" y="-37.5" font-family="Helvetica,sans-Serif" font-size="10.00"> </text>
<polyline fill="none" stroke="black" points="395.5,-30.5 529.5,-30.5 "/>
<text text-anchor="start" x="403.5" y="-18.5" font-family="Helvetica,sans-Serif" font-size="10.00">+ EMC_TRAJ_SET_G5X()</text>
<text text-anchor="start" x="403.5" y="-7.5" font-family="Helvetica,sans-Serif" font-size="10.00">+ update()</text>
</a>
</g>
</g>
<!-- Node2 -->
<g id="node2" class="node">
<title>Node2</title>
<g id="a_node2"><a xlink:href="classEMC__TRAJ__CMD__MSG.html" target="_top" xlink:title=" ">
<polygon fill="white" stroke="black" points="392,-116.5 392,-184.5 533,-184.5 533,-116.5 392,-116.5"/>
<text text-anchor="middle" x="462.5" y="-172.5" font-family="Helvetica,sans-Serif" font-size="10.00">EMC_TRAJ_CMD_MSG</text>
<polyline fill="none" stroke="black" points="392,-165.5 533,-165.5 "/>
<text text-anchor="middle" x="462.5" y="-153.5" font-family="Helvetica,sans-Serif" font-size="10.00"> </text>
<polyline fill="none" stroke="black" points="392,-146.5 533,-146.5 "/>
<text text-anchor="start" x="400" y="-134.5" font-family="Helvetica,sans-Serif" font-size="10.00">+ EMC_TRAJ_CMD_MSG()</text>
<text text-anchor="start" x="400" y="-123.5" font-family="Helvetica,sans-Serif" font-size="10.00">+ update()</text>
</a>
</g>
</g>
<!-- Node2&#45;&gt;Node1 -->
<g id="edge1" class="edge">
<title>Node2&#45;&gt;Node1</title>
<path fill="none" stroke="midnightblue" d="M462.5,-106.06C462.5,-93.64 462.5,-80.32 462.5,-68.62"/>
<polygon fill="none" stroke="midnightblue" points="459,-106.22 462.5,-116.22 466,-106.22 459,-106.22"/>
</g>
<!-- Node3 -->
<g id="node3" class="node">
<title>Node3</title>
<g id="a_node3"><a xlink:href="classRCS__CMD__MSG.html" target="_top" xlink:title=" ">
<polygon fill="white" stroke="black" points="470,-249 470,-306 581,-306 581,-249 470,-249"/>
<text text-anchor="middle" x="525.5" y="-294" font-family="Helvetica,sans-Serif" font-size="10.00">RCS_CMD_MSG</text>
<polyline fill="none" stroke="black" points="470,-287 581,-287 "/>
<text text-anchor="middle" x="525.5" y="-275" font-family="Helvetica,sans-Serif" font-size="10.00"> </text>
<polyline fill="none" stroke="black" points="470,-268 581,-268 "/>
<text text-anchor="start" x="478" y="-256" font-family="Helvetica,sans-Serif" font-size="10.00">+ RCS_CMD_MSG()</text>
</a>
</g>
</g>
<!-- Node3&#45;&gt;Node2 -->
<g id="edge2" class="edge">
<title>Node3&#45;&gt;Node2</title>
<path fill="none" stroke="midnightblue" d="M506.86,-239.52C498.14,-222.22 487.84,-201.77 479.35,-184.94"/>
<polygon fill="none" stroke="midnightblue" points="503.89,-241.4 511.52,-248.76 510.14,-238.25 503.89,-241.4"/>
</g>
<!-- Node4 -->
<g id="node4" class="node">
<title>Node4</title>
<g id="a_node4"><a xlink:href="classNMLmsg.html" target="_top" xlink:title=" ">
<polygon fill="white" stroke="black" points="513.5,-392.5 513.5,-493.5 591.5,-493.5 591.5,-392.5 513.5,-392.5"/>
<text text-anchor="middle" x="552.5" y="-481.5" font-family="Helvetica,sans-Serif" font-size="10.00">NMLmsg</text>
<polyline fill="none" stroke="black" points="513.5,-474.5 591.5,-474.5 "/>
<text text-anchor="middle" x="552.5" y="-462.5" font-family="Helvetica,sans-Serif" font-size="10.00"> </text>
<polyline fill="none" stroke="black" points="513.5,-455.5 591.5,-455.5 "/>
<text text-anchor="start" x="521.5" y="-443.5" font-family="Helvetica,sans-Serif" font-size="10.00">+ clear()</text>
<text text-anchor="start" x="521.5" y="-432.5" font-family="Helvetica,sans-Serif" font-size="10.00">+ update()</text>
<text text-anchor="start" x="521.5" y="-421.5" font-family="Helvetica,sans-Serif" font-size="10.00"># NMLmsg()</text>
<text text-anchor="start" x="521.5" y="-410.5" font-family="Helvetica,sans-Serif" font-size="10.00"># NMLmsg()</text>
<text text-anchor="start" x="521.5" y="-399.5" font-family="Helvetica,sans-Serif" font-size="10.00"># NMLmsg()</text>
</a>
</g>
</g>
<!-- Node4&#45;&gt;Node3 -->
<g id="edge3" class="edge">
<title>Node4&#45;&gt;Node3</title>
<path fill="none" stroke="midnightblue" d="M542.58,-381.93C538.3,-356.03 533.51,-326.99 530.09,-306.29"/>
<polygon fill="none" stroke="midnightblue" points="539.17,-382.76 544.25,-392.06 546.08,-381.62 539.17,-382.76"/>
</g>
<!-- Node5 -->
<g id="node5" class="node">
<title>Node5</title>
<g id="a_node5"><a xlink:title=" ">
<polygon fill="white" stroke="black" points="327,-552.5 327,-609.5 356,-609.5 356,-552.5 327,-552.5"/>
<text text-anchor="middle" x="341.5" y="-597.5" font-family="Helvetica,sans-Serif" font-size="10.00">int</text>
<polyline fill="none" stroke="black" points="327,-590.5 356,-590.5 "/>
<text text-anchor="middle" x="341.5" y="-578.5" font-family="Helvetica,sans-Serif" font-size="10.00"> </text>
<polyline fill="none" stroke="black" points="327,-571.5 356,-571.5 "/>
<text text-anchor="middle" x="341.5" y="-559.5" font-family="Helvetica,sans-Serif" font-size="10.00"> </text>
</a>
</g>
</g>
<!-- Node5&#45;&gt;Node1 -->
<g id="edge13" class="edge">
<title>Node5&#45;&gt;Node1</title>
<path fill="none" stroke="#404040" d="M326.93,-564.67C305.89,-540.85 269.5,-492.62 269.5,-444 269.5,-444 269.5,-444 269.5,-149.5 269.5,-93.69 330.06,-64.64 383.34,-49.87"/>
<polygon fill="none" stroke="#404040" points="383.66,-49.79 388.45,-44.41 395.27,-46.76 390.47,-52.15 383.66,-49.79"/>
<text text-anchor="middle" x="300.5" y="-275" font-family="Helvetica,sans-Serif" font-size="10.00"> +g5x_index</text>
</g>
<!-- Node5&#45;&gt;Node3 -->
<g id="edge6" class="edge">
<title>Node5&#45;&gt;Node3</title>
<path fill="none" stroke="#404040" d="M356.05,-553.68C365.07,-536.87 376.6,-514.45 385.5,-494 404.74,-449.78 397.6,-433.3 422.5,-392 439.69,-363.49 464.68,-335.73 485.74,-314.8"/>
<polygon fill="none" stroke="#404040" points="485.9,-314.65 487.4,-307.6 494.49,-306.27 492.99,-313.32 485.9,-314.65"/>
<text text-anchor="middle" x="463.5" y="-440.5" font-family="Helvetica,sans-Serif" font-size="10.00"> +serial_number</text>
</g>
<!-- Node5&#45;&gt;Node4 -->
<g id="edge4" class="edge">
<title>Node5&#45;&gt;Node4</title>
<path fill="none" stroke="#404040" d="M356.01,-572.86C372.9,-564.33 401.44,-549.31 424.5,-534 437.69,-525.25 438.73,-519.81 452.5,-512 471.96,-500.97 480.56,-505.9 499.5,-494 500.83,-493.17 502.15,-492.3 503.46,-491.4"/>
<polygon fill="none" stroke="#404040" points="503.75,-491.18 506.15,-484.38 513.35,-483.98 510.95,-490.78 503.75,-491.18"/>
<text text-anchor="middle" x="507" y="-526" font-family="Helvetica,sans-Serif" font-size="10.00"> +automatically_clear</text>
<text text-anchor="middle" x="507" y="-515" font-family="Helvetica,sans-Serif" font-size="10.00">+type</text>
</g>
<!-- Node8 -->
<g id="node8" class="node">
<title>Node8</title>
<g id="a_node8"><a xlink:href="structstate__tag__t.html" target="_top" xlink:title=" ">
<polygon fill="white" stroke="black" points="132,-414.5 132,-471.5 203,-471.5 203,-414.5 132,-414.5"/>
<text text-anchor="middle" x="167.5" y="-459.5" font-family="Helvetica,sans-Serif" font-size="10.00">state_tag_t</text>
<polyline fill="none" stroke="black" points="132,-452.5 203,-452.5 "/>
<text text-anchor="middle" x="167.5" y="-440.5" font-family="Helvetica,sans-Serif" font-size="10.00"> </text>
<polyline fill="none" stroke="black" points="132,-433.5 203,-433.5 "/>
<text text-anchor="middle" x="167.5" y="-421.5" font-family="Helvetica,sans-Serif" font-size="10.00"> </text>
</a>
</g>
</g>
<!-- Node5&#45;&gt;Node8 -->
<g id="edge10" class="edge">
<title>Node5&#45;&gt;Node8</title>
<path fill="none" stroke="#404040" d="M326.83,-577.94C301.77,-573.75 250.25,-562.12 217.5,-534 201.7,-520.44 189.93,-500.58 181.79,-482.97"/>
<polygon fill="none" stroke="#404040" points="181.73,-482.82 175.67,-478.91 176.96,-471.81 183.01,-475.73 181.73,-482.82"/>
<text text-anchor="middle" x="236.5" y="-520.5" font-family="Helvetica,sans-Serif" font-size="10.00"> +fields</text>
</g>
<!-- Node6 -->
<g id="node6" class="node">
<title>Node6</title>
<g id="a_node6"><a xlink:title=" ">
<polygon fill="white" stroke="black" points="559.5,-552.5 559.5,-609.5 597.5,-609.5 597.5,-552.5 559.5,-552.5"/>
<text text-anchor="middle" x="578.5" y="-597.5" font-family="Helvetica,sans-Serif" font-size="10.00">long</text>
<polyline fill="none" stroke="black" points="559.5,-590.5 597.5,-590.5 "/>
<text text-anchor="middle" x="578.5" y="-578.5" font-family="Helvetica,sans-Serif" font-size="10.00"> </text>
<polyline fill="none" stroke="black" points="559.5,-571.5 597.5,-571.5 "/>
<text text-anchor="middle" x="578.5" y="-559.5" font-family="Helvetica,sans-Serif" font-size="10.00"> </text>
</a>
</g>
</g>
<!-- Node6&#45;&gt;Node4 -->
<g id="edge5" class="edge">
<title>Node6&#45;&gt;Node4</title>
<path fill="none" stroke="#404040" d="M573.24,-552.48C570.65,-538.93 567.41,-522 564.27,-505.58"/>
<polygon fill="none" stroke="#404040" points="564.27,-505.55 559.21,-500.41 562.01,-493.76 567.07,-498.91 564.27,-505.55"/>
<text text-anchor="middle" x="585" y="-520.5" font-family="Helvetica,sans-Serif" font-size="10.00"> +size</text>
</g>
<!-- Node7 -->
<g id="node7" class="node">
<title>Node7</title>
<g id="a_node7"><a xlink:href="structStateTag.html" target="_top" xlink:title=" ">
<polygon fill="white" stroke="black" points="349.5,-232.5 349.5,-322.5 451.5,-322.5 451.5,-232.5 349.5,-232.5"/>
<text text-anchor="middle" x="400.5" y="-310.5" font-family="Helvetica,sans-Serif" font-size="10.00">StateTag</text>
<polyline fill="none" stroke="black" points="349.5,-303.5 451.5,-303.5 "/>
<text text-anchor="middle" x="400.5" y="-291.5" font-family="Helvetica,sans-Serif" font-size="10.00"> </text>
<polyline fill="none" stroke="black" points="349.5,-284.5 451.5,-284.5 "/>
<text text-anchor="start" x="357.5" y="-272.5" font-family="Helvetica,sans-Serif" font-size="10.00">+ StateTag()</text>
<text text-anchor="start" x="357.5" y="-261.5" font-family="Helvetica,sans-Serif" font-size="10.00">+ StateTag()</text>
<text text-anchor="start" x="357.5" y="-250.5" font-family="Helvetica,sans-Serif" font-size="10.00">+ is_valid()</text>
<text text-anchor="start" x="357.5" y="-239.5" font-family="Helvetica,sans-Serif" font-size="10.00">+ get_state_tag()</text>
</a>
</g>
</g>
<!-- Node7&#45;&gt;Node2 -->
<g id="edge7" class="edge">
<title>Node7&#45;&gt;Node2</title>
<path fill="none" stroke="#404040" d="M422.36,-232.43C428.28,-220.5 434.68,-207.58 440.6,-195.65"/>
<polygon fill="none" stroke="#404040" points="440.77,-195.32 439.85,-188.16 446.1,-184.57 447.02,-191.72 440.77,-195.32"/>
<text text-anchor="middle" x="449.5" y="-206" font-family="Helvetica,sans-Serif" font-size="10.00"> +tag</text>
</g>
<!-- Node8&#45;&gt;Node7 -->
<g id="edge8" class="edge">
<title>Node8&#45;&gt;Node7</title>
<path fill="none" stroke="midnightblue" d="M211.71,-410.98C250.9,-383.48 308.14,-343.31 349.31,-314.42"/>
<polygon fill="none" stroke="midnightblue" points="209.32,-408.38 203.14,-416.99 213.34,-414.11 209.32,-408.38"/>
</g>
<!-- Node9 -->
<g id="node9" class="node">
<title>Node9</title>
<g id="a_node9"><a xlink:title=" ">
<polygon fill="white" stroke="black" points="109.5,-552.5 109.5,-609.5 147.5,-609.5 147.5,-552.5 109.5,-552.5"/>
<text text-anchor="middle" x="128.5" y="-597.5" font-family="Helvetica,sans-Serif" font-size="10.00">float</text>
<polyline fill="none" stroke="black" points="109.5,-590.5 147.5,-590.5 "/>
<text text-anchor="middle" x="128.5" y="-578.5" font-family="Helvetica,sans-Serif" font-size="10.00"> </text>
<polyline fill="none" stroke="black" points="109.5,-571.5 147.5,-571.5 "/>
<text text-anchor="middle" x="128.5" y="-559.5" font-family="Helvetica,sans-Serif" font-size="10.00"> </text>
</a>
</g>
</g>
<!-- Node9&#45;&gt;Node8 -->
<g id="edge9" class="edge">
<title>Node9&#45;&gt;Node8</title>
<path fill="none" stroke="#404040" d="M125.86,-552.44C125.43,-539.91 126.01,-525 129.5,-512 132.22,-501.86 136.79,-491.62 141.83,-482.27"/>
<polygon fill="none" stroke="#404040" points="141.89,-482.16 141.42,-474.96 147.88,-471.76 148.35,-478.95 141.89,-482.16"/>
<text text-anchor="middle" x="162" y="-520.5" font-family="Helvetica,sans-Serif" font-size="10.00"> +fields_float</text>
</g>
<!-- Node10 -->
<g id="node10" class="node">
<title>Node10</title>
<g id="a_node10"><a xlink:title=" ">
<polygon fill="white" stroke="black" points="0,-552.5 0,-609.5 61,-609.5 61,-552.5 0,-552.5"/>
<text text-anchor="middle" x="30.5" y="-597.5" font-family="Helvetica,sans-Serif" font-size="10.00">unsigned</text>
<polyline fill="none" stroke="black" points="0,-590.5 61,-590.5 "/>
<text text-anchor="middle" x="30.5" y="-578.5" font-family="Helvetica,sans-Serif" font-size="10.00"> </text>
<polyline fill="none" stroke="black" points="0,-571.5 61,-571.5 "/>
<text text-anchor="middle" x="30.5" y="-559.5" font-family="Helvetica,sans-Serif" font-size="10.00"> </text>
</a>
</g>
</g>
<!-- Node10&#45;&gt;Node8 -->
<g id="edge11" class="edge">
<title>Node10&#45;&gt;Node8</title>
<path fill="none" stroke="#404040" d="M32.36,-552.32C34.45,-539.03 38.74,-523.53 47.5,-512 65.85,-487.87 95.4,-470.97 120.59,-460.06"/>
<polygon fill="none" stroke="#404040" points="120.69,-460.02 124.72,-454.04 131.79,-455.46 127.76,-461.44 120.69,-460.02"/>
<text text-anchor="middle" x="85" y="-520.5" font-family="Helvetica,sans-Serif" font-size="10.00"> +packed_flags</text>
</g>
<!-- Node11 -->
<g id="node11" class="node">
<title>Node11</title>
<g id="a_node11"><a xlink:title=" ">
<polygon fill="white" stroke="black" points="298,-414.5 298,-471.5 377,-471.5 377,-414.5 298,-414.5"/>
<text text-anchor="middle" x="337.5" y="-459.5" font-family="Helvetica,sans-Serif" font-size="10.00">bitset&lt; 64 &gt;</text>
<polyline fill="none" stroke="black" points="298,-452.5 377,-452.5 "/>
<text text-anchor="middle" x="337.5" y="-440.5" font-family="Helvetica,sans-Serif" font-size="10.00"> </text>
<polyline fill="none" stroke="black" points="298,-433.5 377,-433.5 "/>
<text text-anchor="middle" x="337.5" y="-421.5" font-family="Helvetica,sans-Serif" font-size="10.00"> </text>
</a>
</g>
</g>
<!-- Node11&#45;&gt;Node7 -->
<g id="edge12" class="edge">
<title>Node11&#45;&gt;Node7</title>
<path fill="none" stroke="#404040" d="M342.84,-414.36C347.32,-393.69 354.59,-364.99 364.5,-341 365.53,-338.51 366.64,-335.99 367.81,-333.48"/>
<polygon fill="none" stroke="#404040" points="367.93,-333.25 367.02,-326.09 373.27,-322.5 374.18,-329.66 367.93,-333.25"/>
<text text-anchor="middle" x="382" y="-355" font-family="Helvetica,sans-Serif" font-size="10.00"> +flags</text>
</g>
<!-- Node12 -->
<g id="node12" class="node">
<title>Node12</title>
<g id="a_node12"><a xlink:href="structEmcPose.html" target="_top" xlink:title=" ">
<polygon fill="white" stroke="black" points="608,-122 608,-179 669,-179 669,-122 608,-122"/>
<text text-anchor="middle" x="638.5" y="-167" font-family="Helvetica,sans-Serif" font-size="10.00">EmcPose</text>
<polyline fill="none" stroke="black" points="608,-160 669,-160 "/>
<text text-anchor="middle" x="638.5" y="-148" font-family="Helvetica,sans-Serif" font-size="10.00"> </text>
<polyline fill="none" stroke="black" points="608,-141 669,-141 "/>
<text text-anchor="middle" x="638.5" y="-129" font-family="Helvetica,sans-Serif" font-size="10.00"> </text>
</a>
</g>
</g>
<!-- Node12&#45;&gt;Node1 -->
<g id="edge14" class="edge">
<title>Node12&#45;&gt;Node1</title>
<path fill="none" stroke="#404040" d="M607.84,-129.64C584.69,-114.64 552.15,-93.57 523.73,-75.16"/>
<polygon fill="none" stroke="#404040" points="523.54,-75.04 516.33,-75.13 513.47,-68.51 520.68,-68.42 523.54,-75.04"/>
<text text-anchor="middle" x="576.5" y="-90" font-family="Helvetica,sans-Serif" font-size="10.00"> +origin</text>
</g>
<!-- Node13 -->
<g id="node13" class="node">
<title>Node13</title>
<g id="a_node13"><a xlink:href="structPmCartesian.html" target="_top" xlink:title=" ">
<polygon fill="white" stroke="black" points="599,-249 599,-306 678,-306 678,-249 599,-249"/>
<text text-anchor="middle" x="638.5" y="-294" font-family="Helvetica,sans-Serif" font-size="10.00">PmCartesian</text>
<polyline fill="none" stroke="black" points="599,-287 678,-287 "/>
<text text-anchor="middle" x="638.5" y="-275" font-family="Helvetica,sans-Serif" font-size="10.00"> </text>
<polyline fill="none" stroke="black" points="599,-268 678,-268 "/>
<text text-anchor="middle" x="638.5" y="-256" font-family="Helvetica,sans-Serif" font-size="10.00"> </text>
</a>
</g>
</g>
<!-- Node13&#45;&gt;Node12 -->
<g id="edge15" class="edge">
<title>Node13&#45;&gt;Node12</title>
<path fill="none" stroke="#404040" d="M638.5,-248.76C638.5,-231.85 638.5,-209.96 638.5,-191.23"/>
<polygon fill="none" stroke="#404040" points="638.5,-191.16 634.5,-185.16 638.5,-179.16 642.5,-185.16 638.5,-191.16"/>
<text text-anchor="middle" x="654" y="-206" font-family="Helvetica,sans-Serif" font-size="10.00"> +tran</text>
</g>
<!-- Node14 -->
<g id="node14" class="node">
<title>Node14</title>
<g id="a_node14"><a xlink:title=" ">
<polygon fill="white" stroke="black" points="662.5,-414.5 662.5,-471.5 712.5,-471.5 712.5,-414.5 662.5,-414.5"/>
<text text-anchor="middle" x="687.5" y="-459.5" font-family="Helvetica,sans-Serif" font-size="10.00">double</text>
<polyline fill="none" stroke="black" points="662.5,-452.5 712.5,-452.5 "/>
<text text-anchor="middle" x="687.5" y="-440.5" font-family="Helvetica,sans-Serif" font-size="10.00"> </text>
<polyline fill="none" stroke="black" points="662.5,-433.5 712.5,-433.5 "/>
<text text-anchor="middle" x="687.5" y="-421.5" font-family="Helvetica,sans-Serif" font-size="10.00"> </text>
</a>
</g>
</g>
<!-- Node14&#45;&gt;Node12 -->
<g id="edge17" class="edge">
<title>Node14&#45;&gt;Node12</title>
<path fill="none" stroke="#404040" d="M690.99,-414.42C695.32,-373.89 700.52,-296.11 686.5,-232 683.21,-216.97 675.81,-202.07 667.78,-189.24"/>
<polygon fill="none" stroke="#404040" points="667.61,-188.99 660.95,-186.21 660.96,-179 667.61,-181.78 667.61,-188.99"/>
<text text-anchor="middle" x="704.5" y="-302.5" font-family="Helvetica,sans-Serif" font-size="10.00"> +a</text>
<text text-anchor="middle" x="704.5" y="-291.5" font-family="Helvetica,sans-Serif" font-size="10.00">+b</text>
<text text-anchor="middle" x="704.5" y="-280.5" font-family="Helvetica,sans-Serif" font-size="10.00">+c</text>
<text text-anchor="middle" x="704.5" y="-269.5" font-family="Helvetica,sans-Serif" font-size="10.00">+u</text>
<text text-anchor="middle" x="704.5" y="-258.5" font-family="Helvetica,sans-Serif" font-size="10.00">+v</text>
<text text-anchor="middle" x="704.5" y="-247.5" font-family="Helvetica,sans-Serif" font-size="10.00">+w</text>
</g>
<!-- Node14&#45;&gt;Node13 -->
<g id="edge16" class="edge">
<title>Node14&#45;&gt;Node13</title>
<path fill="none" stroke="#404040" d="M679.19,-414.26C671.24,-387.76 659.19,-347.54 650.26,-317.75"/>
<polygon fill="none" stroke="#404040" points="650.22,-317.59 644.66,-312.99 646.77,-306.1 652.33,-310.7 650.22,-317.59"/>
<text text-anchor="middle" x="674.5" y="-366" font-family="Helvetica,sans-Serif" font-size="10.00"> +x</text>
<text text-anchor="middle" x="674.5" y="-355" font-family="Helvetica,sans-Serif" font-size="10.00">+y</text>
<text text-anchor="middle" x="674.5" y="-344" font-family="Helvetica,sans-Serif" font-size="10.00">+z</text>
</g>
</g>
</svg>
