<?xml version="1.0" encoding="UTF-8" standalone="no"?>
<!DOCTYPE svg PUBLIC "-//W3C//DTD SVG 1.1//EN"
 "http://www.w3.org/Graphics/SVG/1.1/DTD/svg11.dtd">
<!-- Generated by graphviz version 2.43.0 (0)
 -->
<!-- Title: EMC_TRAJ_CMD_MSG Pages: 1 -->
<svg width="481pt" height="480pt"
 viewBox="0.00 0.00 481.00 480.00" xmlns="http://www.w3.org/2000/svg" xmlns:xlink="http://www.w3.org/1999/xlink">
<g id="graph0" class="graph" transform="scale(1 1) rotate(0) translate(4 476)">
<title>EMC_TRAJ_CMD_MSG</title>
<polygon fill="white" stroke="transparent" points="-4,4 -4,-476 477,-476 477,4 -4,4"/>
<!-- Node1 -->
<g id="node1" class="node">
<title>Node1</title>
<g id="a_node1"><a xlink:title=" ">
<polygon fill="#bfbfbf" stroke="black" points="193.5,-0.5 193.5,-68.5 334.5,-68.5 334.5,-0.5 193.5,-0.5"/>
<text text-anchor="middle" x="264" y="-56.5" font-family="Helvetica,sans-Serif" font-size="10.00">EMC_TRAJ_CMD_MSG</text>
<polyline fill="none" stroke="black" points="193.5,-49.5 334.5,-49.5 "/>
<text text-anchor="middle" x="264" y="-37.5" font-family="Helvetica,sans-Serif" font-size="10.00"> </text>
<polyline fill="none" stroke="black" points="193.5,-30.5 334.5,-30.5 "/>
<text text-anchor="start" x="201.5" y="-18.5" font-family="Helvetica,sans-Serif" font-size="10.00">+ EMC_TRAJ_CMD_MSG()</text>
<text text-anchor="start" x="201.5" y="-7.5" font-family="Helvetica,sans-Serif" font-size="10.00">+ update()</text>
</a>
</g>
</g>
<!-- Node2 -->
<g id="node2" class="node">
<title>Node2</title>
<g id="a_node2"><a xlink:href="classRCS__CMD__MSG.html" target="_top" xlink:title=" ">
<polygon fill="white" stroke="black" points="141.5,-133 141.5,-190 252.5,-190 252.5,-133 141.5,-133"/>
<text text-anchor="middle" x="197" y="-178" font-family="Helvetica,sans-Serif" font-size="10.00">RCS_CMD_MSG</text>
<polyline fill="none" stroke="black" points="141.5,-171 252.5,-171 "/>
<text text-anchor="middle" x="197" y="-159" font-family="Helvetica,sans-Serif" font-size="10.00"> </text>
<polyline fill="none" stroke="black" points="141.5,-152 252.5,-152 "/>
<text text-anchor="start" x="149.5" y="-140" font-family="Helvetica,sans-Serif" font-size="10.00">+ RCS_CMD_MSG()</text>
</a>
</g>
</g>
<!-- Node2&#45;&gt;Node1 -->
<g id="edge1" class="edge">
<title>Node2&#45;&gt;Node1</title>
<path fill="none" stroke="midnightblue" d="M216.82,-123.52C226.1,-106.22 237.05,-85.77 246.08,-68.94"/>
<polygon fill="none" stroke="midnightblue" points="213.51,-122.29 211.87,-132.76 219.68,-125.6 213.51,-122.29"/>
</g>
<!-- Node3 -->
<g id="node3" class="node">
<title>Node3</title>
<g id="a_node3"><a xlink:href="classNMLmsg.html" target="_top" xlink:title=" ">
<polygon fill="white" stroke="black" points="34,-254.5 34,-355.5 112,-355.5 112,-254.5 34,-254.5"/>
<text text-anchor="middle" x="73" y="-343.5" font-family="Helvetica,sans-Serif" font-size="10.00">NMLmsg</text>
<polyline fill="none" stroke="black" points="34,-336.5 112,-336.5 "/>
<text text-anchor="middle" x="73" y="-324.5" font-family="Helvetica,sans-Serif" font-size="10.00"> </text>
<polyline fill="none" stroke="black" points="34,-317.5 112,-317.5 "/>
<text text-anchor="start" x="42" y="-305.5" font-family="Helvetica,sans-Serif" font-size="10.00">+ clear()</text>
<text text-anchor="start" x="42" y="-294.5" font-family="Helvetica,sans-Serif" font-size="10.00">+ update()</text>
<text text-anchor="start" x="42" y="-283.5" font-family="Helvetica,sans-Serif" font-size="10.00"># NMLmsg()</text>
<text text-anchor="start" x="42" y="-272.5" font-family="Helvetica,sans-Serif" font-size="10.00"># NMLmsg()</text>
<text text-anchor="start" x="42" y="-261.5" font-family="Helvetica,sans-Serif" font-size="10.00"># NMLmsg()</text>
</a>
</g>
</g>
<!-- Node3&#45;&gt;Node2 -->
<g id="edge2" class="edge">
<title>Node3&#45;&gt;Node2</title>
<path fill="none" stroke="midnightblue" d="M118.87,-251.66C137.16,-230.78 157.47,-207.61 172.8,-190.12"/>
<polygon fill="none" stroke="midnightblue" points="116.19,-249.4 112.23,-259.23 121.46,-254.01 116.19,-249.4"/>
</g>
<!-- Node4 -->
<g id="node4" class="node">
<title>Node4</title>
<g id="a_node4"><a xlink:title=" ">
<polygon fill="white" stroke="black" points="182.5,-414.5 182.5,-471.5 211.5,-471.5 211.5,-414.5 182.5,-414.5"/>
<text text-anchor="middle" x="197" y="-459.5" font-family="Helvetica,sans-Serif" font-size="10.00">int</text>
<polyline fill="none" stroke="black" points="182.5,-452.5 211.5,-452.5 "/>
<text text-anchor="middle" x="197" y="-440.5" font-family="Helvetica,sans-Serif" font-size="10.00"> </text>
<polyline fill="none" stroke="black" points="182.5,-433.5 211.5,-433.5 "/>
<text text-anchor="middle" x="197" y="-421.5" font-family="Helvetica,sans-Serif" font-size="10.00"> </text>
</a>
</g>
</g>
<!-- Node4&#45;&gt;Node2 -->
<g id="edge5" class="edge">
<title>Node4&#45;&gt;Node2</title>
<path fill="none" stroke="#404040" d="M197,-414.44C197,-364.76 197,-260.03 197,-202.48"/>
<polygon fill="none" stroke="#404040" points="197,-202.27 193,-196.27 197,-190.27 201,-196.27 197,-202.27"/>
<text text-anchor="middle" x="238" y="-302.5" font-family="Helvetica,sans-Serif" font-size="10.00"> +serial_number</text>
</g>
<!-- Node4&#45;&gt;Node3 -->
<g id="edge3" class="edge">
<title>Node4&#45;&gt;Node3</title>
<path fill="none" stroke="#404040" d="M182.5,-441.53C155.76,-439.79 99.15,-431.83 74,-396 68.26,-387.82 65.32,-378.1 64.15,-368.13"/>
<polygon fill="none" stroke="#404040" points="64.14,-367.91 59.84,-362.13 63.52,-355.93 67.83,-361.72 64.14,-367.91"/>
<text text-anchor="middle" x="128.5" y="-388" font-family="Helvetica,sans-Serif" font-size="10.00"> +automatically_clear</text>
<text text-anchor="middle" x="128.5" y="-377" font-family="Helvetica,sans-Serif" font-size="10.00">+type</text>
</g>
<!-- Node7 -->
<g id="node7" class="node">
<title>Node7</title>
<g id="a_node7"><a xlink:href="structstate__tag__t.html" target="_top" xlink:title=" ">
<polygon fill="white" stroke="black" points="297.5,-276.5 297.5,-333.5 368.5,-333.5 368.5,-276.5 297.5,-276.5"/>
<text text-anchor="middle" x="333" y="-321.5" font-family="Helvetica,sans-Serif" font-size="10.00">state_tag_t</text>
<polyline fill="none" stroke="black" points="297.5,-314.5 368.5,-314.5 "/>
<text text-anchor="middle" x="333" y="-302.5" font-family="Helvetica,sans-Serif" font-size="10.00"> </text>
<polyline fill="none" stroke="black" points="297.5,-295.5 368.5,-295.5 "/>
<text text-anchor="middle" x="333" y="-283.5" font-family="Helvetica,sans-Serif" font-size="10.00"> </text>
</a>
</g>
</g>
<!-- Node4&#45;&gt;Node7 -->
<g id="edge9" class="edge">
<title>Node4&#45;&gt;Node7</title>
<path fill="none" stroke="#404040" d="M211.55,-427.45C231.71,-407.29 268.8,-370.2 296.7,-342.3"/>
<polygon fill="none" stroke="#404040" points="296.92,-342.08 298.34,-335.01 305.41,-333.59 303.99,-340.66 296.92,-342.08"/>
<text text-anchor="middle" x="284" y="-382.5" font-family="Helvetica,sans-Serif" font-size="10.00"> +fields</text>
</g>
<!-- Node5 -->
<g id="node5" class="node">
<title>Node5</title>
<g id="a_node5"><a xlink:title=" ">
<polygon fill="white" stroke="black" points="0,-414.5 0,-471.5 38,-471.5 38,-414.5 0,-414.5"/>
<text text-anchor="middle" x="19" y="-459.5" font-family="Helvetica,sans-Serif" font-size="10.00">long</text>
<polyline fill="none" stroke="black" points="0,-452.5 38,-452.5 "/>
<text text-anchor="middle" x="19" y="-440.5" font-family="Helvetica,sans-Serif" font-size="10.00"> </text>
<polyline fill="none" stroke="black" points="0,-433.5 38,-433.5 "/>
<text text-anchor="middle" x="19" y="-421.5" font-family="Helvetica,sans-Serif" font-size="10.00"> </text>
</a>
</g>
</g>
<!-- Node5&#45;&gt;Node3 -->
<g id="edge4" class="edge">
<title>Node5&#45;&gt;Node3</title>
<path fill="none" stroke="#404040" d="M15.47,-414.49C14.83,-401.83 15.49,-386.81 20,-374 21.92,-368.55 24.46,-363.2 27.4,-358.04"/>
<polygon fill="none" stroke="#404040" points="27.49,-357.89 27.32,-350.68 33.91,-347.75 34.08,-354.96 27.49,-357.89"/>
<text text-anchor="middle" x="35.5" y="-382.5" font-family="Helvetica,sans-Serif" font-size="10.00"> +size</text>
</g>
<!-- Node6 -->
<g id="node6" class="node">
<title>Node6</title>
<g id="a_node6"><a xlink:href="structStateTag.html" target="_top" xlink:title=" ">
<polygon fill="white" stroke="black" points="282,-116.5 282,-206.5 384,-206.5 384,-116.5 282,-116.5"/>
<text text-anchor="middle" x="333" y="-194.5" font-family="Helvetica,sans-Serif" font-size="10.00">StateTag</text>
<polyline fill="none" stroke="black" points="282,-187.5 384,-187.5 "/>
<text text-anchor="middle" x="333" y="-175.5" font-family="Helvetica,sans-Serif" font-size="10.00"> </text>
<polyline fill="none" stroke="black" points="282,-168.5 384,-168.5 "/>
<text text-anchor="start" x="290" y="-156.5" font-family="Helvetica,sans-Serif" font-size="10.00">+ StateTag()</text>
<text text-anchor="start" x="290" y="-145.5" font-family="Helvetica,sans-Serif" font-size="10.00">+ StateTag()</text>
<text text-anchor="start" x="290" y="-134.5" font-family="Helvetica,sans-Serif" font-size="10.00">+ is_valid()</text>
<text text-anchor="start" x="290" y="-123.5" font-family="Helvetica,sans-Serif" font-size="10.00">+ get_state_tag()</text>
</a>
</g>
</g>
<!-- Node6&#45;&gt;Node1 -->
<g id="edge6" class="edge">
<title>Node6&#45;&gt;Node1</title>
<path fill="none" stroke="#404040" d="M308.67,-116.43C302.02,-104.38 294.81,-91.32 288.17,-79.28"/>
<polygon fill="none" stroke="#404040" points="288.05,-79.07 281.65,-75.75 282.25,-68.57 288.65,-71.89 288.05,-79.07"/>
<text text-anchor="middle" x="312" y="-90" font-family="Helvetica,sans-Serif" font-size="10.00"> +tag</text>
</g>
<!-- Node7&#45;&gt;Node6 -->
<g id="edge7" class="edge">
<title>Node7&#45;&gt;Node6</title>
<path fill="none" stroke="midnightblue" d="M333,-266.36C333,-248.04 333,-225.89 333,-206.75"/>
<polygon fill="none" stroke="midnightblue" points="329.5,-266.38 333,-276.38 336.5,-266.38 329.5,-266.38"/>
</g>
<!-- Node8 -->
<g id="node8" class="node">
<title>Node8</title>
<g id="a_node8"><a xlink:title=" ">
<polygon fill="white" stroke="black" points="304,-414.5 304,-471.5 342,-471.5 342,-414.5 304,-414.5"/>
<text text-anchor="middle" x="323" y="-459.5" font-family="Helvetica,sans-Serif" font-size="10.00">float</text>
<polyline fill="none" stroke="black" points="304,-452.5 342,-452.5 "/>
<text text-anchor="middle" x="323" y="-440.5" font-family="Helvetica,sans-Serif" font-size="10.00"> </text>
<polyline fill="none" stroke="black" points="304,-433.5 342,-433.5 "/>
<text text-anchor="middle" x="323" y="-421.5" font-family="Helvetica,sans-Serif" font-size="10.00"> </text>
</a>
</g>
</g>
<!-- Node8&#45;&gt;Node7 -->
<g id="edge8" class="edge">
<title>Node8&#45;&gt;Node7</title>
<path fill="none" stroke="#404040" d="M322.68,-414.18C322.72,-401.85 323.03,-387.19 324,-374 324.67,-364.85 325.75,-355.06 326.94,-345.83"/>
<polygon fill="none" stroke="#404040" points="326.97,-345.61 323.81,-339.12 328.59,-333.72 331.74,-340.2 326.97,-345.61"/>
<text text-anchor="middle" x="356.5" y="-382.5" font-family="Helvetica,sans-Serif" font-size="10.00"> +fields_float</text>
</g>
<!-- Node9 -->
<g id="node9" class="node">
<title>Node9</title>
<g id="a_node9"><a xlink:title=" ">
<polygon fill="white" stroke="black" points="380.5,-414.5 380.5,-471.5 441.5,-471.5 441.5,-414.5 380.5,-414.5"/>
<text text-anchor="middle" x="411" y="-459.5" font-family="Helvetica,sans-Serif" font-size="10.00">unsigned</text>
<polyline fill="none" stroke="black" points="380.5,-452.5 441.5,-452.5 "/>
<text text-anchor="middle" x="411" y="-440.5" font-family="Helvetica,sans-Serif" font-size="10.00"> </text>
<polyline fill="none" stroke="black" points="380.5,-433.5 441.5,-433.5 "/>
<text text-anchor="middle" x="411" y="-421.5" font-family="Helvetica,sans-Serif" font-size="10.00"> </text>
</a>
</g>
</g>
<!-- Node9&#45;&gt;Node7 -->
<g id="edge10" class="edge">
<title>Node9&#45;&gt;Node7</title>
<path fill="none" stroke="#404040" d="M404.57,-414.23C400.99,-401.51 395.85,-386.52 389,-374 383.11,-363.23 375.4,-352.54 367.61,-342.92"/>
<polygon fill="none" stroke="#404040" points="367.57,-342.88 360.65,-340.87 359.84,-333.7 366.77,-335.72 367.57,-342.88"/>
<text text-anchor="middle" x="435.5" y="-382.5" font-family="Helvetica,sans-Serif" font-size="10.00"> +packed_flags</text>
</g>
<!-- Node10 -->
<g id="node10" class="node">
<title>Node10</title>
<g id="a_node10"><a xlink:title=" ">
<polygon fill="white" stroke="black" points="386.5,-276.5 386.5,-333.5 465.5,-333.5 465.5,-276.5 386.5,-276.5"/>
<text text-anchor="middle" x="426" y="-321.5" font-family="Helvetica,sans-Serif" font-size="10.00">bitset&lt; 64 &gt;</text>
<polyline fill="none" stroke="black" points="386.5,-314.5 465.5,-314.5 "/>
<text text-anchor="middle" x="426" y="-302.5" font-family="Helvetica,sans-Serif" font-size="10.00"> </text>
<polyline fill="none" stroke="black" points="386.5,-295.5 465.5,-295.5 "/>
<text text-anchor="middle" x="426" y="-283.5" font-family="Helvetica,sans-Serif" font-size="10.00"> </text>
</a>
</g>
</g>
<!-- Node10&#45;&gt;Node6 -->
<g id="edge11" class="edge">
<title>Node10&#45;&gt;Node6</title>
<path fill="none" stroke="#404040" d="M407.85,-276.38C396.72,-259.46 382.1,-237.2 368.73,-216.86"/>
<polygon fill="none" stroke="#404040" points="368.68,-216.78 362.04,-213.97 362.09,-206.75 368.72,-209.57 368.68,-216.78"/>
<text text-anchor="middle" x="396.5" y="-228" font-family="Helvetica,sans-Serif" font-size="10.00"> +flags</text>
</g>
</g>
</svg>
