<?xml version="1.0" encoding="UTF-8" standalone="no"?>
<!DOCTYPE svg PUBLIC "-//W3C//DTD SVG 1.1//EN"
 "http://www.w3.org/Graphics/SVG/1.1/DTD/svg11.dtd">
<!-- Generated by graphviz version 2.43.0 (0)
 -->
<!-- Title: EMC_JOINT_LOAD_COMP Pages: 1 -->
<svg width="365pt" height="542pt"
 viewBox="0.00 0.00 365.00 542.00" xmlns="http://www.w3.org/2000/svg" xmlns:xlink="http://www.w3.org/1999/xlink">
<g id="graph0" class="graph" transform="scale(1 1) rotate(0) translate(4 538)">
<title>EMC_JOINT_LOAD_COMP</title>
<polygon fill="white" stroke="transparent" points="-4,4 -4,-538 361,-538 361,4 -4,4"/>
<!-- Node1 -->
<g id="node1" class="node">
<title>Node1</title>
<g id="a_node1"><a xlink:title=" ">
<polygon fill="#bfbfbf" stroke="black" points="23,-0.5 23,-68.5 179,-68.5 179,-0.5 23,-0.5"/>
<text text-anchor="middle" x="101" y="-56.5" font-family="Helvetica,sans-Serif" font-size="10.00">EMC_JOINT_LOAD_COMP</text>
<polyline fill="none" stroke="black" points="23,-49.5 179,-49.5 "/>
<text text-anchor="middle" x="101" y="-37.5" font-family="Helvetica,sans-Serif" font-size="10.00"> </text>
<polyline fill="none" stroke="black" points="23,-30.5 179,-30.5 "/>
<text text-anchor="start" x="31" y="-18.5" font-family="Helvetica,sans-Serif" font-size="10.00">+ EMC_JOINT_LOAD_COMP()</text>
<text text-anchor="start" x="31" y="-7.5" font-family="Helvetica,sans-Serif" font-size="10.00">+ update()</text>
</a>
</g>
</g>
<!-- Node2 -->
<g id="node2" class="node">
<title>Node2</title>
<g id="a_node2"><a xlink:href="classEMC__JOINT__CMD__MSG.html" target="_top" xlink:title=" ">
<polygon fill="white" stroke="black" points="28,-116.5 28,-184.5 174,-184.5 174,-116.5 28,-116.5"/>
<text text-anchor="middle" x="101" y="-172.5" font-family="Helvetica,sans-Serif" font-size="10.00">EMC_JOINT_CMD_MSG</text>
<polyline fill="none" stroke="black" points="28,-165.5 174,-165.5 "/>
<text text-anchor="middle" x="101" y="-153.5" font-family="Helvetica,sans-Serif" font-size="10.00"> </text>
<polyline fill="none" stroke="black" points="28,-146.5 174,-146.5 "/>
<text text-anchor="start" x="36" y="-134.5" font-family="Helvetica,sans-Serif" font-size="10.00">+ EMC_JOINT_CMD_MSG()</text>
<text text-anchor="start" x="36" y="-123.5" font-family="Helvetica,sans-Serif" font-size="10.00">+ update()</text>
</a>
</g>
</g>
<!-- Node2&#45;&gt;Node1 -->
<g id="edge1" class="edge">
<title>Node2&#45;&gt;Node1</title>
<path fill="none" stroke="midnightblue" d="M101,-106.06C101,-93.64 101,-80.32 101,-68.62"/>
<polygon fill="none" stroke="midnightblue" points="97.5,-106.22 101,-116.22 104.5,-106.22 97.5,-106.22"/>
</g>
<!-- Node3 -->
<g id="node3" class="node">
<title>Node3</title>
<g id="a_node3"><a xlink:href="classRCS__CMD__MSG.html" target="_top" xlink:title=" ">
<polygon fill="white" stroke="black" points="90.5,-222.5 90.5,-279.5 201.5,-279.5 201.5,-222.5 90.5,-222.5"/>
<text text-anchor="middle" x="146" y="-267.5" font-family="Helvetica,sans-Serif" font-size="10.00">RCS_CMD_MSG</text>
<polyline fill="none" stroke="black" points="90.5,-260.5 201.5,-260.5 "/>
<text text-anchor="middle" x="146" y="-248.5" font-family="Helvetica,sans-Serif" font-size="10.00"> </text>
<polyline fill="none" stroke="black" points="90.5,-241.5 201.5,-241.5 "/>
<text text-anchor="start" x="98.5" y="-229.5" font-family="Helvetica,sans-Serif" font-size="10.00">+ RCS_CMD_MSG()</text>
</a>
</g>
</g>
<!-- Node3&#45;&gt;Node2 -->
<g id="edge2" class="edge">
<title>Node3&#45;&gt;Node2</title>
<path fill="none" stroke="midnightblue" d="M129.18,-213.18C124.89,-203.8 120.31,-193.77 116.11,-184.58"/>
<polygon fill="none" stroke="midnightblue" points="126.01,-214.66 133.35,-222.3 132.37,-211.75 126.01,-214.66"/>
</g>
<!-- Node4 -->
<g id="node4" class="node">
<title>Node4</title>
<g id="a_node4"><a xlink:href="classNMLmsg.html" target="_top" xlink:title=" ">
<polygon fill="white" stroke="black" points="224,-327.5 224,-428.5 302,-428.5 302,-327.5 224,-327.5"/>
<text text-anchor="middle" x="263" y="-416.5" font-family="Helvetica,sans-Serif" font-size="10.00">NMLmsg</text>
<polyline fill="none" stroke="black" points="224,-409.5 302,-409.5 "/>
<text text-anchor="middle" x="263" y="-397.5" font-family="Helvetica,sans-Serif" font-size="10.00"> </text>
<polyline fill="none" stroke="black" points="224,-390.5 302,-390.5 "/>
<text text-anchor="start" x="232" y="-378.5" font-family="Helvetica,sans-Serif" font-size="10.00">+ clear()</text>
<text text-anchor="start" x="232" y="-367.5" font-family="Helvetica,sans-Serif" font-size="10.00">+ update()</text>
<text text-anchor="start" x="232" y="-356.5" font-family="Helvetica,sans-Serif" font-size="10.00"># NMLmsg()</text>
<text text-anchor="start" x="232" y="-345.5" font-family="Helvetica,sans-Serif" font-size="10.00"># NMLmsg()</text>
<text text-anchor="start" x="232" y="-334.5" font-family="Helvetica,sans-Serif" font-size="10.00"># NMLmsg()</text>
</a>
</g>
</g>
<!-- Node4&#45;&gt;Node3 -->
<g id="edge3" class="edge">
<title>Node4&#45;&gt;Node3</title>
<path fill="none" stroke="midnightblue" d="M216.78,-327.62C201.46,-311.25 184.96,-293.63 171.76,-279.52"/>
<polygon fill="none" stroke="midnightblue" points="214.33,-330.12 223.72,-335.03 219.44,-325.34 214.33,-330.12"/>
</g>
<!-- Node5 -->
<g id="node5" class="node">
<title>Node5</title>
<g id="a_node5"><a xlink:title=" ">
<polygon fill="white" stroke="black" points="72.5,-476.5 72.5,-533.5 101.5,-533.5 101.5,-476.5 72.5,-476.5"/>
<text text-anchor="middle" x="87" y="-521.5" font-family="Helvetica,sans-Serif" font-size="10.00">int</text>
<polyline fill="none" stroke="black" points="72.5,-514.5 101.5,-514.5 "/>
<text text-anchor="middle" x="87" y="-502.5" font-family="Helvetica,sans-Serif" font-size="10.00"> </text>
<polyline fill="none" stroke="black" points="72.5,-495.5 101.5,-495.5 "/>
<text text-anchor="middle" x="87" y="-483.5" font-family="Helvetica,sans-Serif" font-size="10.00"> </text>
</a>
</g>
</g>
<!-- Node5&#45;&gt;Node1 -->
<g id="edge10" class="edge">
<title>Node5&#45;&gt;Node1</title>
<path fill="none" stroke="#404040" d="M72.24,-493.06C47.42,-473.29 0,-428.97 0,-379 0,-379 0,-379 0,-149.5 0,-120.58 18.44,-95.56 39.56,-76.39"/>
<polygon fill="none" stroke="#404040" points="39.61,-76.34 41.57,-69.4 48.72,-68.54 46.77,-75.48 39.61,-76.34"/>
<text text-anchor="middle" x="17" y="-248.5" font-family="Helvetica,sans-Serif" font-size="10.00"> +type</text>
</g>
<!-- Node5&#45;&gt;Node2 -->
<g id="edge8" class="edge">
<title>Node5&#45;&gt;Node2</title>
<path fill="none" stroke="#404040" d="M83.5,-476.21C77.75,-425.44 68.15,-314.4 81,-222 82.17,-213.61 84.08,-204.81 86.27,-196.38"/>
<polygon fill="none" stroke="#404040" points="86.28,-196.36 84.04,-189.5 89.51,-184.8 91.75,-191.66 86.28,-196.36"/>
<text text-anchor="middle" x="92" y="-301" font-family="Helvetica,sans-Serif" font-size="10.00"> +joint</text>
</g>
<!-- Node5&#45;&gt;Node3 -->
<g id="edge7" class="edge">
<title>Node5&#45;&gt;Node3</title>
<path fill="none" stroke="#404040" d="M93.54,-476.07C104.04,-431.2 124.71,-342.91 136.73,-291.57"/>
<polygon fill="none" stroke="#404040" points="136.79,-291.36 134.26,-284.6 139.52,-279.67 142.05,-286.43 136.79,-291.36"/>
<text text-anchor="middle" x="170" y="-375.5" font-family="Helvetica,sans-Serif" font-size="10.00"> +serial_number</text>
</g>
<!-- Node5&#45;&gt;Node4 -->
<g id="edge4" class="edge">
<title>Node5&#45;&gt;Node4</title>
<path fill="none" stroke="#404040" d="M101.7,-490.1C115.3,-477.73 136.46,-459.68 157,-447 173.59,-436.76 180.24,-438.95 197,-429 202.64,-425.65 208.37,-421.91 213.97,-418.02"/>
<polygon fill="none" stroke="#404040" points="214.12,-417.91 216.67,-411.16 223.87,-410.91 221.33,-417.66 214.12,-417.91"/>
<text text-anchor="middle" x="211.5" y="-450" font-family="Helvetica,sans-Serif" font-size="10.00"> +automatically_clear</text>
</g>
<!-- Node6 -->
<g id="node6" class="node">
<title>Node6</title>
<g id="a_node6"><a xlink:title=" ">
<polygon fill="white" stroke="black" points="251,-476.5 251,-533.5 301,-533.5 301,-476.5 251,-476.5"/>
<text text-anchor="middle" x="276" y="-521.5" font-family="Helvetica,sans-Serif" font-size="10.00">int32_t</text>
<polyline fill="none" stroke="black" points="251,-514.5 301,-514.5 "/>
<text text-anchor="middle" x="276" y="-502.5" font-family="Helvetica,sans-Serif" font-size="10.00"> </text>
<polyline fill="none" stroke="black" points="251,-495.5 301,-495.5 "/>
<text text-anchor="middle" x="276" y="-483.5" font-family="Helvetica,sans-Serif" font-size="10.00"> </text>
</a>
</g>
</g>
<!-- Node6&#45;&gt;Node4 -->
<g id="edge5" class="edge">
<title>Node6&#45;&gt;Node4</title>
<path fill="none" stroke="#404040" d="M273.11,-476.26C272.03,-465.79 270.74,-453.42 269.46,-441.07"/>
<polygon fill="none" stroke="#404040" points="269.42,-440.74 264.82,-435.18 268.18,-428.8 272.78,-434.36 269.42,-440.74"/>
<text text-anchor="middle" x="288" y="-450" font-family="Helvetica,sans-Serif" font-size="10.00"> +type</text>
</g>
<!-- Node7 -->
<g id="node7" class="node">
<title>Node7</title>
<g id="a_node7"><a xlink:title=" ">
<polygon fill="white" stroke="black" points="319,-476.5 319,-533.5 357,-533.5 357,-476.5 319,-476.5"/>
<text text-anchor="middle" x="338" y="-521.5" font-family="Helvetica,sans-Serif" font-size="10.00">long</text>
<polyline fill="none" stroke="black" points="319,-514.5 357,-514.5 "/>
<text text-anchor="middle" x="338" y="-502.5" font-family="Helvetica,sans-Serif" font-size="10.00"> </text>
<polyline fill="none" stroke="black" points="319,-495.5 357,-495.5 "/>
<text text-anchor="middle" x="338" y="-483.5" font-family="Helvetica,sans-Serif" font-size="10.00"> </text>
</a>
</g>
</g>
<!-- Node7&#45;&gt;Node4 -->
<g id="edge6" class="edge">
<title>Node7&#45;&gt;Node4</title>
<path fill="none" stroke="#404040" d="M324.81,-476.38C320.07,-466.92 314.53,-456.37 309,-447 307.45,-444.37 305.83,-441.7 304.18,-439.02"/>
<polygon fill="none" stroke="#404040" points="304.05,-438.82 297.46,-435.89 297.63,-428.68 304.22,-431.61 304.05,-438.82"/>
<text text-anchor="middle" x="330.5" y="-450" font-family="Helvetica,sans-Serif" font-size="10.00"> +size</text>
</g>
<!-- Node8 -->
<g id="node8" class="node">
<title>Node8</title>
<g id="a_node8"><a xlink:title=" ">
<polygon fill="white" stroke="black" points="192,-122 192,-179 230,-179 230,-122 192,-122"/>
<text text-anchor="middle" x="211" y="-167" font-family="Helvetica,sans-Serif" font-size="10.00">char</text>
<polyline fill="none" stroke="black" points="192,-160 230,-160 "/>
<text text-anchor="middle" x="211" y="-148" font-family="Helvetica,sans-Serif" font-size="10.00"> </text>
<polyline fill="none" stroke="black" points="192,-141 230,-141 "/>
<text text-anchor="middle" x="211" y="-129" font-family="Helvetica,sans-Serif" font-size="10.00"> </text>
</a>
</g>
</g>
<!-- Node8&#45;&gt;Node1 -->
<g id="edge9" class="edge">
<title>Node8&#45;&gt;Node1</title>
<path fill="none" stroke="#404040" d="M191.71,-125.82C188.84,-122.48 185.88,-119.12 183,-116 171.13,-103.14 157.77,-89.65 145.33,-77.46"/>
<polygon fill="none" stroke="#404040" points="145.07,-77.21 137.98,-75.89 136.47,-68.84 143.56,-70.16 145.07,-77.21"/>
<text text-anchor="middle" x="178.5" y="-90" font-family="Helvetica,sans-Serif" font-size="10.00"> +file</text>
</g>
</g>
</svg>
