<?xml version="1.0" encoding="UTF-8" standalone="no"?>
<!DOCTYPE svg PUBLIC "-//W3C//DTD SVG 1.1//EN"
 "http://www.w3.org/Graphics/SVG/1.1/DTD/svg11.dtd">
<!-- Generated by graphviz version 2.43.0 (0)
 -->
<!-- Title: EMC_TRAJ_SET_TELEOP_ENABLE Pages: 1 -->
<svg width="656pt" height="597pt"
 viewBox="0.00 0.00 656.00 597.00" xmlns="http://www.w3.org/2000/svg" xmlns:xlink="http://www.w3.org/1999/xlink">
<g id="graph0" class="graph" transform="scale(1 1) rotate(0) translate(4 593)">
<title>EMC_TRAJ_SET_TELEOP_ENABLE</title>
<polygon fill="white" stroke="transparent" points="-4,4 -4,-593 652,-593 652,4 -4,4"/>
<!-- Node1 -->
<g id="node1" class="node">
<title>Node1</title>
<g id="a_node1"><a xlink:title=" ">
<polygon fill="#bfbfbf" stroke="black" points="220.5,-0.5 220.5,-90.5 363.5,-90.5 363.5,-0.5 220.5,-0.5"/>
<text text-anchor="start" x="228.5" y="-78.5" font-family="Helvetica,sans-Serif" font-size="10.00">EMC_TRAJ_SET_TELEOP</text>
<text text-anchor="middle" x="292" y="-67.5" font-family="Helvetica,sans-Serif" font-size="10.00">_ENABLE</text>
<polyline fill="none" stroke="black" points="220.5,-60.5 363.5,-60.5 "/>
<text text-anchor="middle" x="292" y="-48.5" font-family="Helvetica,sans-Serif" font-size="10.00"> </text>
<polyline fill="none" stroke="black" points="220.5,-41.5 363.5,-41.5 "/>
<text text-anchor="start" x="228.5" y="-29.5" font-family="Helvetica,sans-Serif" font-size="10.00">+ EMC_TRAJ_SET_TELEOP</text>
<text text-anchor="start" x="228.5" y="-18.5" font-family="Helvetica,sans-Serif" font-size="10.00">_ENABLE()</text>
<text text-anchor="start" x="228.5" y="-7.5" font-family="Helvetica,sans-Serif" font-size="10.00">+ update()</text>
</a>
</g>
</g>
<!-- Node2 -->
<g id="node2" class="node">
<title>Node2</title>
<g id="a_node2"><a xlink:href="classEMC__TRAJ__CMD__MSG.html" target="_top" xlink:title=" ">
<polygon fill="white" stroke="black" points="301.5,-128.5 301.5,-196.5 442.5,-196.5 442.5,-128.5 301.5,-128.5"/>
<text text-anchor="middle" x="372" y="-184.5" font-family="Helvetica,sans-Serif" font-size="10.00">EMC_TRAJ_CMD_MSG</text>
<polyline fill="none" stroke="black" points="301.5,-177.5 442.5,-177.5 "/>
<text text-anchor="middle" x="372" y="-165.5" font-family="Helvetica,sans-Serif" font-size="10.00"> </text>
<polyline fill="none" stroke="black" points="301.5,-158.5 442.5,-158.5 "/>
<text text-anchor="start" x="309.5" y="-146.5" font-family="Helvetica,sans-Serif" font-size="10.00">+ EMC_TRAJ_CMD_MSG()</text>
<text text-anchor="start" x="309.5" y="-135.5" font-family="Helvetica,sans-Serif" font-size="10.00">+ update()</text>
</a>
</g>
</g>
<!-- Node2&#45;&gt;Node1 -->
<g id="edge1" class="edge">
<title>Node2&#45;&gt;Node1</title>
<path fill="none" stroke="midnightblue" d="M342.99,-119.79C336.43,-110.37 329.45,-100.34 322.83,-90.82"/>
<polygon fill="none" stroke="midnightblue" points="340.28,-122.03 348.86,-128.24 346.02,-118.03 340.28,-122.03"/>
</g>
<!-- Node3 -->
<g id="node3" class="node">
<title>Node3</title>
<g id="a_node3"><a xlink:href="classRCS__CMD__MSG.html" target="_top" xlink:title=" ">
<polygon fill="white" stroke="black" points="441.5,-261 441.5,-318 552.5,-318 552.5,-261 441.5,-261"/>
<text text-anchor="middle" x="497" y="-306" font-family="Helvetica,sans-Serif" font-size="10.00">RCS_CMD_MSG</text>
<polyline fill="none" stroke="black" points="441.5,-299 552.5,-299 "/>
<text text-anchor="middle" x="497" y="-287" font-family="Helvetica,sans-Serif" font-size="10.00"> </text>
<polyline fill="none" stroke="black" points="441.5,-280 552.5,-280 "/>
<text text-anchor="start" x="449.5" y="-268" font-family="Helvetica,sans-Serif" font-size="10.00">+ RCS_CMD_MSG()</text>
</a>
</g>
</g>
<!-- Node3&#45;&gt;Node2 -->
<g id="edge2" class="edge">
<title>Node3&#45;&gt;Node2</title>
<path fill="none" stroke="midnightblue" d="M461.92,-253.42C444.24,-235.74 422.89,-214.39 405.44,-196.94"/>
<polygon fill="none" stroke="midnightblue" points="459.71,-256.16 469.26,-260.76 464.66,-251.21 459.71,-256.16"/>
</g>
<!-- Node4 -->
<g id="node4" class="node">
<title>Node4</title>
<g id="a_node4"><a xlink:href="classNMLmsg.html" target="_top" xlink:title=" ">
<polygon fill="white" stroke="black" points="515,-382.5 515,-483.5 593,-483.5 593,-382.5 515,-382.5"/>
<text text-anchor="middle" x="554" y="-471.5" font-family="Helvetica,sans-Serif" font-size="10.00">NMLmsg</text>
<polyline fill="none" stroke="black" points="515,-464.5 593,-464.5 "/>
<text text-anchor="middle" x="554" y="-452.5" font-family="Helvetica,sans-Serif" font-size="10.00"> </text>
<polyline fill="none" stroke="black" points="515,-445.5 593,-445.5 "/>
<text text-anchor="start" x="523" y="-433.5" font-family="Helvetica,sans-Serif" font-size="10.00">+ clear()</text>
<text text-anchor="start" x="523" y="-422.5" font-family="Helvetica,sans-Serif" font-size="10.00">+ update()</text>
<text text-anchor="start" x="523" y="-411.5" font-family="Helvetica,sans-Serif" font-size="10.00"># NMLmsg()</text>
<text text-anchor="start" x="523" y="-400.5" font-family="Helvetica,sans-Serif" font-size="10.00"># NMLmsg()</text>
<text text-anchor="start" x="523" y="-389.5" font-family="Helvetica,sans-Serif" font-size="10.00"># NMLmsg()</text>
</a>
</g>
</g>
<!-- Node4&#45;&gt;Node3 -->
<g id="edge3" class="edge">
<title>Node4&#45;&gt;Node3</title>
<path fill="none" stroke="midnightblue" d="M530.09,-372.65C522.47,-353.73 514.4,-333.7 508.14,-318.15"/>
<polygon fill="none" stroke="midnightblue" points="526.92,-374.14 533.9,-382.11 533.41,-371.53 526.92,-374.14"/>
</g>
<!-- Node5 -->
<g id="node5" class="node">
<title>Node5</title>
<g id="a_node5"><a xlink:title=" ">
<polygon fill="white" stroke="black" points="315.5,-531.5 315.5,-588.5 344.5,-588.5 344.5,-531.5 315.5,-531.5"/>
<text text-anchor="middle" x="330" y="-576.5" font-family="Helvetica,sans-Serif" font-size="10.00">int</text>
<polyline fill="none" stroke="black" points="315.5,-569.5 344.5,-569.5 "/>
<text text-anchor="middle" x="330" y="-557.5" font-family="Helvetica,sans-Serif" font-size="10.00"> </text>
<polyline fill="none" stroke="black" points="315.5,-550.5 344.5,-550.5 "/>
<text text-anchor="middle" x="330" y="-538.5" font-family="Helvetica,sans-Serif" font-size="10.00"> </text>
</a>
</g>
</g>
<!-- Node5&#45;&gt;Node1 -->
<g id="edge14" class="edge">
<title>Node5&#45;&gt;Node1</title>
<path fill="none" stroke="#404040" d="M315.43,-545.13C294.39,-523.53 258,-479.58 258,-434 258,-434 258,-434 258,-161.5 258,-141.68 262.7,-120.7 268.61,-102.16"/>
<polygon fill="none" stroke="#404040" points="268.65,-102.03 266.8,-95.06 272.52,-90.67 274.37,-97.64 268.65,-102.03"/>
<text text-anchor="middle" x="280.5" y="-287" font-family="Helvetica,sans-Serif" font-size="10.00"> +enable</text>
</g>
<!-- Node5&#45;&gt;Node3 -->
<g id="edge7" class="edge">
<title>Node5&#45;&gt;Node3</title>
<path fill="none" stroke="#404040" d="M344.53,-535.28C353.34,-520.65 364.64,-501.42 374,-484 397.9,-439.53 396.99,-424.65 424,-382 435.89,-363.23 450.93,-343.81 464.27,-327.71"/>
<polygon fill="none" stroke="#404040" points="464.59,-327.34 465.39,-320.17 472.31,-318.16 471.51,-325.32 464.59,-327.34"/>
<text text-anchor="middle" x="465" y="-430.5" font-family="Helvetica,sans-Serif" font-size="10.00"> +serial_number</text>
</g>
<!-- Node5&#45;&gt;Node4 -->
<g id="edge4" class="edge">
<title>Node5&#45;&gt;Node4</title>
<path fill="none" stroke="#404040" d="M344.62,-551.91C367.04,-541.07 411.27,-519.74 449,-502 466.28,-493.88 471.63,-493.82 488,-484 493.62,-480.63 499.34,-476.87 504.94,-472.97"/>
<polygon fill="none" stroke="#404040" points="505.09,-472.85 507.63,-466.1 514.83,-465.85 512.3,-472.6 505.09,-472.85"/>
<text text-anchor="middle" x="503.5" y="-505" font-family="Helvetica,sans-Serif" font-size="10.00"> +automatically_clear</text>
</g>
<!-- Node9 -->
<g id="node9" class="node">
<title>Node9</title>
<g id="a_node9"><a xlink:href="structstate__tag__t.html" target="_top" xlink:title=" ">
<polygon fill="white" stroke="black" points="115.5,-404.5 115.5,-461.5 186.5,-461.5 186.5,-404.5 115.5,-404.5"/>
<text text-anchor="middle" x="151" y="-449.5" font-family="Helvetica,sans-Serif" font-size="10.00">state_tag_t</text>
<polyline fill="none" stroke="black" points="115.5,-442.5 186.5,-442.5 "/>
<text text-anchor="middle" x="151" y="-430.5" font-family="Helvetica,sans-Serif" font-size="10.00"> </text>
<polyline fill="none" stroke="black" points="115.5,-423.5 186.5,-423.5 "/>
<text text-anchor="middle" x="151" y="-411.5" font-family="Helvetica,sans-Serif" font-size="10.00"> </text>
</a>
</g>
</g>
<!-- Node5&#45;&gt;Node9 -->
<g id="edge11" class="edge">
<title>Node5&#45;&gt;Node9</title>
<path fill="none" stroke="#404040" d="M315.23,-556.51C290.46,-551.72 239.95,-539.29 206,-513 192,-502.16 180.16,-486.75 171.1,-472.42"/>
<polygon fill="none" stroke="#404040" points="170.88,-472.06 164.37,-468.96 164.72,-461.76 171.23,-464.86 170.88,-472.06"/>
<text text-anchor="middle" x="225" y="-505" font-family="Helvetica,sans-Serif" font-size="10.00"> +fields</text>
</g>
<!-- Node6 -->
<g id="node6" class="node">
<title>Node6</title>
<g id="a_node6"><a xlink:title=" ">
<polygon fill="white" stroke="black" points="542,-531.5 542,-588.5 592,-588.5 592,-531.5 542,-531.5"/>
<text text-anchor="middle" x="567" y="-576.5" font-family="Helvetica,sans-Serif" font-size="10.00">int32_t</text>
<polyline fill="none" stroke="black" points="542,-569.5 592,-569.5 "/>
<text text-anchor="middle" x="567" y="-557.5" font-family="Helvetica,sans-Serif" font-size="10.00"> </text>
<polyline fill="none" stroke="black" points="542,-550.5 592,-550.5 "/>
<text text-anchor="middle" x="567" y="-538.5" font-family="Helvetica,sans-Serif" font-size="10.00"> </text>
</a>
</g>
</g>
<!-- Node6&#45;&gt;Node4 -->
<g id="edge5" class="edge">
<title>Node6&#45;&gt;Node4</title>
<path fill="none" stroke="#404040" d="M564.11,-531.26C563.03,-520.79 561.74,-508.42 560.46,-496.07"/>
<polygon fill="none" stroke="#404040" points="560.42,-495.74 555.82,-490.18 559.18,-483.8 563.78,-489.36 560.42,-495.74"/>
<text text-anchor="middle" x="580" y="-505" font-family="Helvetica,sans-Serif" font-size="10.00"> +type</text>
</g>
<!-- Node7 -->
<g id="node7" class="node">
<title>Node7</title>
<g id="a_node7"><a xlink:title=" ">
<polygon fill="white" stroke="black" points="610,-531.5 610,-588.5 648,-588.5 648,-531.5 610,-531.5"/>
<text text-anchor="middle" x="629" y="-576.5" font-family="Helvetica,sans-Serif" font-size="10.00">long</text>
<polyline fill="none" stroke="black" points="610,-569.5 648,-569.5 "/>
<text text-anchor="middle" x="629" y="-557.5" font-family="Helvetica,sans-Serif" font-size="10.00"> </text>
<polyline fill="none" stroke="black" points="610,-550.5 648,-550.5 "/>
<text text-anchor="middle" x="629" y="-538.5" font-family="Helvetica,sans-Serif" font-size="10.00"> </text>
</a>
</g>
</g>
<!-- Node7&#45;&gt;Node4 -->
<g id="edge6" class="edge">
<title>Node7&#45;&gt;Node4</title>
<path fill="none" stroke="#404040" d="M616.42,-531.31C611.85,-521.86 606.47,-511.32 601,-502 599.44,-499.35 597.82,-496.66 596.14,-493.97"/>
<polygon fill="none" stroke="#404040" points="595.97,-493.7 589.37,-490.79 589.51,-483.58 596.11,-486.49 595.97,-493.7"/>
<text text-anchor="middle" x="622.5" y="-505" font-family="Helvetica,sans-Serif" font-size="10.00"> +size</text>
</g>
<!-- Node8 -->
<g id="node8" class="node">
<title>Node8</title>
<g id="a_node8"><a xlink:href="structStateTag.html" target="_top" xlink:title=" ">
<polygon fill="white" stroke="black" points="321,-244.5 321,-334.5 423,-334.5 423,-244.5 321,-244.5"/>
<text text-anchor="middle" x="372" y="-322.5" font-family="Helvetica,sans-Serif" font-size="10.00">StateTag</text>
<polyline fill="none" stroke="black" points="321,-315.5 423,-315.5 "/>
<text text-anchor="middle" x="372" y="-303.5" font-family="Helvetica,sans-Serif" font-size="10.00"> </text>
<polyline fill="none" stroke="black" points="321,-296.5 423,-296.5 "/>
<text text-anchor="start" x="329" y="-284.5" font-family="Helvetica,sans-Serif" font-size="10.00">+ StateTag()</text>
<text text-anchor="start" x="329" y="-273.5" font-family="Helvetica,sans-Serif" font-size="10.00">+ StateTag()</text>
<text text-anchor="start" x="329" y="-262.5" font-family="Helvetica,sans-Serif" font-size="10.00">+ is_valid()</text>
<text text-anchor="start" x="329" y="-251.5" font-family="Helvetica,sans-Serif" font-size="10.00">+ get_state_tag()</text>
</a>
</g>
</g>
<!-- Node8&#45;&gt;Node2 -->
<g id="edge8" class="edge">
<title>Node8&#45;&gt;Node2</title>
<path fill="none" stroke="#404040" d="M372,-244.43C372,-232.87 372,-220.38 372,-208.76"/>
<polygon fill="none" stroke="#404040" points="372,-208.57 368,-202.57 372,-196.57 376,-202.57 372,-208.57"/>
<text text-anchor="middle" x="386" y="-218" font-family="Helvetica,sans-Serif" font-size="10.00"> +tag</text>
</g>
<!-- Node9&#45;&gt;Node8 -->
<g id="edge9" class="edge">
<title>Node9&#45;&gt;Node8</title>
<path fill="none" stroke="midnightblue" d="M195.13,-405.27C226.55,-386.07 269.65,-359.38 307,-335 311.47,-332.08 316.08,-329.02 320.69,-325.93"/>
<polygon fill="none" stroke="midnightblue" points="193.31,-402.28 186.6,-410.48 196.96,-408.26 193.31,-402.28"/>
</g>
<!-- Node10 -->
<g id="node10" class="node">
<title>Node10</title>
<g id="a_node10"><a xlink:title=" ">
<polygon fill="white" stroke="black" points="0,-531.5 0,-588.5 38,-588.5 38,-531.5 0,-531.5"/>
<text text-anchor="middle" x="19" y="-576.5" font-family="Helvetica,sans-Serif" font-size="10.00">float</text>
<polyline fill="none" stroke="black" points="0,-569.5 38,-569.5 "/>
<text text-anchor="middle" x="19" y="-557.5" font-family="Helvetica,sans-Serif" font-size="10.00"> </text>
<polyline fill="none" stroke="black" points="0,-550.5 38,-550.5 "/>
<text text-anchor="middle" x="19" y="-538.5" font-family="Helvetica,sans-Serif" font-size="10.00"> </text>
</a>
</g>
</g>
<!-- Node10&#45;&gt;Node9 -->
<g id="edge10" class="edge">
<title>Node10&#45;&gt;Node9</title>
<path fill="none" stroke="#404040" d="M23.5,-531.24C26.16,-521.25 30.37,-510.38 37,-502 54.45,-479.95 81.17,-463.47 104.35,-452.26"/>
<polygon fill="none" stroke="#404040" points="104.49,-452.19 108.27,-446.05 115.39,-447.18 111.62,-453.32 104.49,-452.19"/>
<text text-anchor="middle" x="69.5" y="-505" font-family="Helvetica,sans-Serif" font-size="10.00"> +fields_float</text>
</g>
<!-- Node11 -->
<g id="node11" class="node">
<title>Node11</title>
<g id="a_node11"><a xlink:title=" ">
<polygon fill="white" stroke="black" points="76.5,-531.5 76.5,-588.5 137.5,-588.5 137.5,-531.5 76.5,-531.5"/>
<text text-anchor="middle" x="107" y="-576.5" font-family="Helvetica,sans-Serif" font-size="10.00">unsigned</text>
<polyline fill="none" stroke="black" points="76.5,-569.5 137.5,-569.5 "/>
<text text-anchor="middle" x="107" y="-557.5" font-family="Helvetica,sans-Serif" font-size="10.00"> </text>
<polyline fill="none" stroke="black" points="76.5,-550.5 137.5,-550.5 "/>
<text text-anchor="middle" x="107" y="-538.5" font-family="Helvetica,sans-Serif" font-size="10.00"> </text>
</a>
</g>
</g>
<!-- Node11&#45;&gt;Node9 -->
<g id="edge12" class="edge">
<title>Node11&#45;&gt;Node9</title>
<path fill="none" stroke="#404040" d="M104.5,-531.28C104.42,-521.82 105.22,-511.29 108,-502 111.11,-491.6 116.3,-481.24 122.02,-471.86"/>
<polygon fill="none" stroke="#404040" points="122.06,-471.8 121.98,-464.58 128.61,-461.74 128.69,-468.95 122.06,-471.8"/>
<text text-anchor="middle" x="145.5" y="-505" font-family="Helvetica,sans-Serif" font-size="10.00"> +packed_flags</text>
</g>
<!-- Node12 -->
<g id="node12" class="node">
<title>Node12</title>
<g id="a_node12"><a xlink:title=" ">
<polygon fill="white" stroke="black" points="286.5,-404.5 286.5,-461.5 365.5,-461.5 365.5,-404.5 286.5,-404.5"/>
<text text-anchor="middle" x="326" y="-449.5" font-family="Helvetica,sans-Serif" font-size="10.00">bitset&lt; 64 &gt;</text>
<polyline fill="none" stroke="black" points="286.5,-442.5 365.5,-442.5 "/>
<text text-anchor="middle" x="326" y="-430.5" font-family="Helvetica,sans-Serif" font-size="10.00"> </text>
<polyline fill="none" stroke="black" points="286.5,-423.5 365.5,-423.5 "/>
<text text-anchor="middle" x="326" y="-411.5" font-family="Helvetica,sans-Serif" font-size="10.00"> </text>
</a>
</g>
</g>
<!-- Node12&#45;&gt;Node8 -->
<g id="edge13" class="edge">
<title>Node12&#45;&gt;Node8</title>
<path fill="none" stroke="#404040" d="M334.98,-404.38C340.36,-387.84 347.39,-366.22 353.87,-346.26"/>
<polygon fill="none" stroke="#404040" points="353.9,-346.17 351.95,-339.22 357.61,-334.75 359.56,-341.7 353.9,-346.17"/>
<text text-anchor="middle" x="368.5" y="-356" font-family="Helvetica,sans-Serif" font-size="10.00"> +flags</text>
</g>
</g>
</svg>
