<?xml version="1.0" encoding="UTF-8" standalone="no"?>
<!DOCTYPE svg PUBLIC "-//W3C//DTD SVG 1.1//EN"
 "http://www.w3.org/Graphics/SVG/1.1/DTD/svg11.dtd">
<!-- Generated by graphviz version 2.43.0 (0)
 -->
<!-- Title: EMC_TASK_PLAN_STEP Pages: 1 -->
<svg width="284pt" height="522pt"
 viewBox="0.00 0.00 284.00 522.00" xmlns="http://www.w3.org/2000/svg" xmlns:xlink="http://www.w3.org/1999/xlink">
<g id="graph0" class="graph" transform="scale(1 1) rotate(0) translate(4 518)">
<title>EMC_TASK_PLAN_STEP</title>
<polygon fill="white" stroke="transparent" points="-4,4 -4,-518 280,-518 280,4 -4,4"/>
<!-- Node1 -->
<g id="node1" class="node">
<title>Node1</title>
<g id="a_node1"><a xlink:title=" ">
<polygon fill="#bfbfbf" stroke="black" points="0,-0.5 0,-68.5 148,-68.5 148,-0.5 0,-0.5"/>
<text text-anchor="middle" x="74" y="-56.5" font-family="Helvetica,sans-Serif" font-size="10.00">EMC_TASK_PLAN_STEP</text>
<polyline fill="none" stroke="black" points="0,-49.5 148,-49.5 "/>
<text text-anchor="middle" x="74" y="-37.5" font-family="Helvetica,sans-Serif" font-size="10.00"> </text>
<polyline fill="none" stroke="black" points="0,-30.5 148,-30.5 "/>
<text text-anchor="start" x="8" y="-18.5" font-family="Helvetica,sans-Serif" font-size="10.00">+ EMC_TASK_PLAN_STEP()</text>
<text text-anchor="start" x="8" y="-7.5" font-family="Helvetica,sans-Serif" font-size="10.00">+ update()</text>
</a>
</g>
</g>
<!-- Node2 -->
<g id="node2" class="node">
<title>Node2</title>
<g id="a_node2"><a xlink:href="classEMC__TASK__CMD__MSG.html" target="_top" xlink:title=" ">
<polygon fill="white" stroke="black" points="2.5,-106.5 2.5,-174.5 145.5,-174.5 145.5,-106.5 2.5,-106.5"/>
<text text-anchor="middle" x="74" y="-162.5" font-family="Helvetica,sans-Serif" font-size="10.00">EMC_TASK_CMD_MSG</text>
<polyline fill="none" stroke="black" points="2.5,-155.5 145.5,-155.5 "/>
<text text-anchor="middle" x="74" y="-143.5" font-family="Helvetica,sans-Serif" font-size="10.00"> </text>
<polyline fill="none" stroke="black" points="2.5,-136.5 145.5,-136.5 "/>
<text text-anchor="start" x="10.5" y="-124.5" font-family="Helvetica,sans-Serif" font-size="10.00">+ EMC_TASK_CMD_MSG()</text>
<text text-anchor="start" x="10.5" y="-113.5" font-family="Helvetica,sans-Serif" font-size="10.00">+ update()</text>
</a>
</g>
</g>
<!-- Node2&#45;&gt;Node1 -->
<g id="edge1" class="edge">
<title>Node2&#45;&gt;Node1</title>
<path fill="none" stroke="midnightblue" d="M74,-96.17C74,-87 74,-77.46 74,-68.73"/>
<polygon fill="none" stroke="midnightblue" points="70.5,-96.31 74,-106.31 77.5,-96.31 70.5,-96.31"/>
</g>
<!-- Node3 -->
<g id="node3" class="node">
<title>Node3</title>
<g id="a_node3"><a xlink:href="classRCS__CMD__MSG.html" target="_top" xlink:title=" ">
<polygon fill="white" stroke="black" points="18.5,-212.5 18.5,-269.5 129.5,-269.5 129.5,-212.5 18.5,-212.5"/>
<text text-anchor="middle" x="74" y="-257.5" font-family="Helvetica,sans-Serif" font-size="10.00">RCS_CMD_MSG</text>
<polyline fill="none" stroke="black" points="18.5,-250.5 129.5,-250.5 "/>
<text text-anchor="middle" x="74" y="-238.5" font-family="Helvetica,sans-Serif" font-size="10.00"> </text>
<polyline fill="none" stroke="black" points="18.5,-231.5 129.5,-231.5 "/>
<text text-anchor="start" x="26.5" y="-219.5" font-family="Helvetica,sans-Serif" font-size="10.00">+ RCS_CMD_MSG()</text>
</a>
</g>
</g>
<!-- Node3&#45;&gt;Node2 -->
<g id="edge2" class="edge">
<title>Node3&#45;&gt;Node2</title>
<path fill="none" stroke="midnightblue" d="M74,-202.01C74,-192.96 74,-183.38 74,-174.58"/>
<polygon fill="none" stroke="midnightblue" points="70.5,-202.3 74,-212.3 77.5,-202.3 70.5,-202.3"/>
</g>
<!-- Node4 -->
<g id="node4" class="node">
<title>Node4</title>
<g id="a_node4"><a xlink:href="classNMLmsg.html" target="_top" xlink:title=" ">
<polygon fill="white" stroke="black" points="143,-307.5 143,-408.5 221,-408.5 221,-307.5 143,-307.5"/>
<text text-anchor="middle" x="182" y="-396.5" font-family="Helvetica,sans-Serif" font-size="10.00">NMLmsg</text>
<polyline fill="none" stroke="black" points="143,-389.5 221,-389.5 "/>
<text text-anchor="middle" x="182" y="-377.5" font-family="Helvetica,sans-Serif" font-size="10.00"> </text>
<polyline fill="none" stroke="black" points="143,-370.5 221,-370.5 "/>
<text text-anchor="start" x="151" y="-358.5" font-family="Helvetica,sans-Serif" font-size="10.00">+ clear()</text>
<text text-anchor="start" x="151" y="-347.5" font-family="Helvetica,sans-Serif" font-size="10.00">+ update()</text>
<text text-anchor="start" x="151" y="-336.5" font-family="Helvetica,sans-Serif" font-size="10.00"># NMLmsg()</text>
<text text-anchor="start" x="151" y="-325.5" font-family="Helvetica,sans-Serif" font-size="10.00"># NMLmsg()</text>
<text text-anchor="start" x="151" y="-314.5" font-family="Helvetica,sans-Serif" font-size="10.00"># NMLmsg()</text>
</a>
</g>
</g>
<!-- Node4&#45;&gt;Node3 -->
<g id="edge3" class="edge">
<title>Node4&#45;&gt;Node3</title>
<path fill="none" stroke="midnightblue" d="M135.6,-307.59C123.39,-294.6 110.66,-281.04 99.96,-269.64"/>
<polygon fill="none" stroke="midnightblue" points="133.31,-310.26 142.7,-315.16 138.41,-305.47 133.31,-310.26"/>
</g>
<!-- Node5 -->
<g id="node5" class="node">
<title>Node5</title>
<g id="a_node5"><a xlink:title=" ">
<polygon fill="white" stroke="black" points="32.5,-456.5 32.5,-513.5 61.5,-513.5 61.5,-456.5 32.5,-456.5"/>
<text text-anchor="middle" x="47" y="-501.5" font-family="Helvetica,sans-Serif" font-size="10.00">int</text>
<polyline fill="none" stroke="black" points="32.5,-494.5 61.5,-494.5 "/>
<text text-anchor="middle" x="47" y="-482.5" font-family="Helvetica,sans-Serif" font-size="10.00"> </text>
<polyline fill="none" stroke="black" points="32.5,-475.5 61.5,-475.5 "/>
<text text-anchor="middle" x="47" y="-463.5" font-family="Helvetica,sans-Serif" font-size="10.00"> </text>
</a>
</g>
</g>
<!-- Node5&#45;&gt;Node3 -->
<g id="edge7" class="edge">
<title>Node5&#45;&gt;Node3</title>
<path fill="none" stroke="#404040" d="M45.26,-456.45C43.63,-421.42 42.65,-359.2 52,-307 53.53,-298.47 55.96,-289.54 58.67,-281.13"/>
<polygon fill="none" stroke="#404040" points="58.7,-281.02 56.87,-274.05 62.6,-269.67 64.44,-276.65 58.7,-281.02"/>
<text text-anchor="middle" x="93" y="-355.5" font-family="Helvetica,sans-Serif" font-size="10.00"> +serial_number</text>
</g>
<!-- Node5&#45;&gt;Node4 -->
<g id="edge4" class="edge">
<title>Node5&#45;&gt;Node4</title>
<path fill="none" stroke="#404040" d="M57.11,-456.34C61.91,-446.13 68.48,-435.08 77,-427 90.85,-413.86 99.63,-418.82 116,-409 121.62,-405.63 127.34,-401.87 132.94,-397.97"/>
<polygon fill="none" stroke="#404040" points="133.09,-397.85 135.63,-391.1 142.83,-390.85 140.3,-397.6 133.09,-397.85"/>
<text text-anchor="middle" x="131.5" y="-430" font-family="Helvetica,sans-Serif" font-size="10.00"> +automatically_clear</text>
</g>
<!-- Node6 -->
<g id="node6" class="node">
<title>Node6</title>
<g id="a_node6"><a xlink:title=" ">
<polygon fill="white" stroke="black" points="170,-456.5 170,-513.5 220,-513.5 220,-456.5 170,-456.5"/>
<text text-anchor="middle" x="195" y="-501.5" font-family="Helvetica,sans-Serif" font-size="10.00">int32_t</text>
<polyline fill="none" stroke="black" points="170,-494.5 220,-494.5 "/>
<text text-anchor="middle" x="195" y="-482.5" font-family="Helvetica,sans-Serif" font-size="10.00"> </text>
<polyline fill="none" stroke="black" points="170,-475.5 220,-475.5 "/>
<text text-anchor="middle" x="195" y="-463.5" font-family="Helvetica,sans-Serif" font-size="10.00"> </text>
</a>
</g>
</g>
<!-- Node6&#45;&gt;Node4 -->
<g id="edge5" class="edge">
<title>Node6&#45;&gt;Node4</title>
<path fill="none" stroke="#404040" d="M192.11,-456.26C191.03,-445.79 189.74,-433.42 188.46,-421.07"/>
<polygon fill="none" stroke="#404040" points="188.42,-420.74 183.82,-415.18 187.18,-408.8 191.78,-414.36 188.42,-420.74"/>
<text text-anchor="middle" x="208" y="-430" font-family="Helvetica,sans-Serif" font-size="10.00"> +type</text>
</g>
<!-- Node7 -->
<g id="node7" class="node">
<title>Node7</title>
<g id="a_node7"><a xlink:title=" ">
<polygon fill="white" stroke="black" points="238,-456.5 238,-513.5 276,-513.5 276,-456.5 238,-456.5"/>
<text text-anchor="middle" x="257" y="-501.5" font-family="Helvetica,sans-Serif" font-size="10.00">long</text>
<polyline fill="none" stroke="black" points="238,-494.5 276,-494.5 "/>
<text text-anchor="middle" x="257" y="-482.5" font-family="Helvetica,sans-Serif" font-size="10.00"> </text>
<polyline fill="none" stroke="black" points="238,-475.5 276,-475.5 "/>
<text text-anchor="middle" x="257" y="-463.5" font-family="Helvetica,sans-Serif" font-size="10.00"> </text>
</a>
</g>
</g>
<!-- Node7&#45;&gt;Node4 -->
<g id="edge6" class="edge">
<title>Node7&#45;&gt;Node4</title>
<path fill="none" stroke="#404040" d="M244.42,-456.31C239.85,-446.86 234.47,-436.32 229,-427 227.44,-424.35 225.82,-421.66 224.14,-418.97"/>
<polygon fill="none" stroke="#404040" points="223.97,-418.7 217.37,-415.79 217.51,-408.58 224.11,-411.49 223.97,-418.7"/>
<text text-anchor="middle" x="250.5" y="-430" font-family="Helvetica,sans-Serif" font-size="10.00"> +size</text>
</g>
</g>
</svg>
