<?xml version="1.0" encoding="UTF-8" standalone="no"?>
<!DOCTYPE svg PUBLIC "-//W3C//DTD SVG 1.1//EN"
 "http://www.w3.org/Graphics/SVG/1.1/DTD/svg11.dtd">
<!-- Generated by graphviz version 2.43.0 (0)
 -->
<!-- Title: EMC_TRAJ_SET_SPINDLESYNC Pages: 1 -->
<svg width="662pt" height="585pt"
 viewBox="0.00 0.00 662.00 585.00" xmlns="http://www.w3.org/2000/svg" xmlns:xlink="http://www.w3.org/1999/xlink">
<g id="graph0" class="graph" transform="scale(1 1) rotate(0) translate(4 581)">
<title>EMC_TRAJ_SET_SPINDLESYNC</title>
<polygon fill="white" stroke="transparent" points="-4,4 -4,-581 658,-581 658,4 -4,4"/>
<!-- Node1 -->
<g id="node1" class="node">
<title>Node1</title>
<g id="a_node1"><a xlink:title=" ">
<polygon fill="#bfbfbf" stroke="black" points="328.5,-0.5 328.5,-68.5 509.5,-68.5 509.5,-0.5 328.5,-0.5"/>
<text text-anchor="middle" x="419" y="-56.5" font-family="Helvetica,sans-Serif" font-size="10.00">EMC_TRAJ_SET_SPINDLESYNC</text>
<polyline fill="none" stroke="black" points="328.5,-49.5 509.5,-49.5 "/>
<text text-anchor="middle" x="419" y="-37.5" font-family="Helvetica,sans-Serif" font-size="10.00"> </text>
<polyline fill="none" stroke="black" points="328.5,-30.5 509.5,-30.5 "/>
<text text-anchor="start" x="336.5" y="-18.5" font-family="Helvetica,sans-Serif" font-size="10.00">+ EMC_TRAJ_SET_SPINDLESYNC()</text>
<text text-anchor="start" x="336.5" y="-7.5" font-family="Helvetica,sans-Serif" font-size="10.00">+ update()</text>
</a>
</g>
</g>
<!-- Node2 -->
<g id="node2" class="node">
<title>Node2</title>
<g id="a_node2"><a xlink:href="classEMC__TRAJ__CMD__MSG.html" target="_top" xlink:title=" ">
<polygon fill="white" stroke="black" points="303.5,-116.5 303.5,-184.5 444.5,-184.5 444.5,-116.5 303.5,-116.5"/>
<text text-anchor="middle" x="374" y="-172.5" font-family="Helvetica,sans-Serif" font-size="10.00">EMC_TRAJ_CMD_MSG</text>
<polyline fill="none" stroke="black" points="303.5,-165.5 444.5,-165.5 "/>
<text text-anchor="middle" x="374" y="-153.5" font-family="Helvetica,sans-Serif" font-size="10.00"> </text>
<polyline fill="none" stroke="black" points="303.5,-146.5 444.5,-146.5 "/>
<text text-anchor="start" x="311.5" y="-134.5" font-family="Helvetica,sans-Serif" font-size="10.00">+ EMC_TRAJ_CMD_MSG()</text>
<text text-anchor="start" x="311.5" y="-123.5" font-family="Helvetica,sans-Serif" font-size="10.00">+ update()</text>
</a>
</g>
</g>
<!-- Node2&#45;&gt;Node1 -->
<g id="edge1" class="edge">
<title>Node2&#45;&gt;Node1</title>
<path fill="none" stroke="midnightblue" d="M390.85,-106.8C395.84,-94.18 401.22,-80.55 405.92,-68.62"/>
<polygon fill="none" stroke="midnightblue" points="387.55,-105.63 387.14,-116.22 394.06,-108.2 387.55,-105.63"/>
</g>
<!-- Node3 -->
<g id="node3" class="node">
<title>Node3</title>
<g id="a_node3"><a xlink:href="classRCS__CMD__MSG.html" target="_top" xlink:title=" ">
<polygon fill="white" stroke="black" points="443.5,-249 443.5,-306 554.5,-306 554.5,-249 443.5,-249"/>
<text text-anchor="middle" x="499" y="-294" font-family="Helvetica,sans-Serif" font-size="10.00">RCS_CMD_MSG</text>
<polyline fill="none" stroke="black" points="443.5,-287 554.5,-287 "/>
<text text-anchor="middle" x="499" y="-275" font-family="Helvetica,sans-Serif" font-size="10.00"> </text>
<polyline fill="none" stroke="black" points="443.5,-268 554.5,-268 "/>
<text text-anchor="start" x="451.5" y="-256" font-family="Helvetica,sans-Serif" font-size="10.00">+ RCS_CMD_MSG()</text>
</a>
</g>
</g>
<!-- Node3&#45;&gt;Node2 -->
<g id="edge2" class="edge">
<title>Node3&#45;&gt;Node2</title>
<path fill="none" stroke="midnightblue" d="M463.92,-241.42C446.24,-223.74 424.89,-202.39 407.44,-184.94"/>
<polygon fill="none" stroke="midnightblue" points="461.71,-244.16 471.26,-248.76 466.66,-239.21 461.71,-244.16"/>
</g>
<!-- Node4 -->
<g id="node4" class="node">
<title>Node4</title>
<g id="a_node4"><a xlink:href="classNMLmsg.html" target="_top" xlink:title=" ">
<polygon fill="white" stroke="black" points="515,-370.5 515,-471.5 593,-471.5 593,-370.5 515,-370.5"/>
<text text-anchor="middle" x="554" y="-459.5" font-family="Helvetica,sans-Serif" font-size="10.00">NMLmsg</text>
<polyline fill="none" stroke="black" points="515,-452.5 593,-452.5 "/>
<text text-anchor="middle" x="554" y="-440.5" font-family="Helvetica,sans-Serif" font-size="10.00"> </text>
<polyline fill="none" stroke="black" points="515,-433.5 593,-433.5 "/>
<text text-anchor="start" x="523" y="-421.5" font-family="Helvetica,sans-Serif" font-size="10.00">+ clear()</text>
<text text-anchor="start" x="523" y="-410.5" font-family="Helvetica,sans-Serif" font-size="10.00">+ update()</text>
<text text-anchor="start" x="523" y="-399.5" font-family="Helvetica,sans-Serif" font-size="10.00"># NMLmsg()</text>
<text text-anchor="start" x="523" y="-388.5" font-family="Helvetica,sans-Serif" font-size="10.00"># NMLmsg()</text>
<text text-anchor="start" x="523" y="-377.5" font-family="Helvetica,sans-Serif" font-size="10.00"># NMLmsg()</text>
</a>
</g>
</g>
<!-- Node4&#45;&gt;Node3 -->
<g id="edge3" class="edge">
<title>Node4&#45;&gt;Node3</title>
<path fill="none" stroke="midnightblue" d="M530.93,-360.65C523.58,-341.73 515.79,-321.7 509.75,-306.15"/>
<polygon fill="none" stroke="midnightblue" points="527.72,-362.06 534.61,-370.11 534.25,-359.52 527.72,-362.06"/>
</g>
<!-- Node5 -->
<g id="node5" class="node">
<title>Node5</title>
<g id="a_node5"><a xlink:title=" ">
<polygon fill="white" stroke="black" points="315.5,-519.5 315.5,-576.5 344.5,-576.5 344.5,-519.5 315.5,-519.5"/>
<text text-anchor="middle" x="330" y="-564.5" font-family="Helvetica,sans-Serif" font-size="10.00">int</text>
<polyline fill="none" stroke="black" points="315.5,-557.5 344.5,-557.5 "/>
<text text-anchor="middle" x="330" y="-545.5" font-family="Helvetica,sans-Serif" font-size="10.00"> </text>
<polyline fill="none" stroke="black" points="315.5,-538.5 344.5,-538.5 "/>
<text text-anchor="middle" x="330" y="-526.5" font-family="Helvetica,sans-Serif" font-size="10.00"> </text>
</a>
</g>
</g>
<!-- Node5&#45;&gt;Node1 -->
<g id="edge14" class="edge">
<title>Node5&#45;&gt;Node1</title>
<path fill="none" stroke="#404040" d="M315.43,-533.13C294.39,-511.53 258,-467.58 258,-422 258,-422 258,-422 258,-149.5 258,-113.5 285.15,-87.84 317.14,-70.1"/>
<polygon fill="none" stroke="#404040" points="317.5,-69.92 320.98,-63.6 328.15,-64.39 324.67,-70.7 317.5,-69.92"/>
<text text-anchor="middle" x="281.5" y="-275" font-family="Helvetica,sans-Serif" font-size="10.00"> +spindle</text>
</g>
<!-- Node5&#45;&gt;Node3 -->
<g id="edge7" class="edge">
<title>Node5&#45;&gt;Node3</title>
<path fill="none" stroke="#404040" d="M344.53,-523.28C353.34,-508.65 364.64,-489.42 374,-472 397.9,-427.53 396.7,-412.47 424,-370 436.25,-350.93 451.88,-331.3 465.69,-315.14"/>
<polygon fill="none" stroke="#404040" points="465.71,-315.12 466.62,-307.96 473.57,-306.05 472.66,-313.21 465.71,-315.12"/>
<text text-anchor="middle" x="465" y="-418.5" font-family="Helvetica,sans-Serif" font-size="10.00"> +serial_number</text>
</g>
<!-- Node5&#45;&gt;Node4 -->
<g id="edge4" class="edge">
<title>Node5&#45;&gt;Node4</title>
<path fill="none" stroke="#404040" d="M344.84,-539.67C367.15,-528.69 410.68,-507.41 448,-490 465.67,-481.76 471.24,-481.95 488,-472 493.64,-468.65 499.37,-464.91 504.97,-461.02"/>
<polygon fill="none" stroke="#404040" points="505.12,-460.91 507.67,-454.16 514.87,-453.91 512.33,-460.66 505.12,-460.91"/>
<text text-anchor="middle" x="502.5" y="-493" font-family="Helvetica,sans-Serif" font-size="10.00"> +automatically_clear</text>
</g>
<!-- Node9 -->
<g id="node9" class="node">
<title>Node9</title>
<g id="a_node9"><a xlink:href="structstate__tag__t.html" target="_top" xlink:title=" ">
<polygon fill="white" stroke="black" points="115.5,-392.5 115.5,-449.5 186.5,-449.5 186.5,-392.5 115.5,-392.5"/>
<text text-anchor="middle" x="151" y="-437.5" font-family="Helvetica,sans-Serif" font-size="10.00">state_tag_t</text>
<polyline fill="none" stroke="black" points="115.5,-430.5 186.5,-430.5 "/>
<text text-anchor="middle" x="151" y="-418.5" font-family="Helvetica,sans-Serif" font-size="10.00"> </text>
<polyline fill="none" stroke="black" points="115.5,-411.5 186.5,-411.5 "/>
<text text-anchor="middle" x="151" y="-399.5" font-family="Helvetica,sans-Serif" font-size="10.00"> </text>
</a>
</g>
</g>
<!-- Node5&#45;&gt;Node9 -->
<g id="edge11" class="edge">
<title>Node5&#45;&gt;Node9</title>
<path fill="none" stroke="#404040" d="M315.23,-544.51C290.46,-539.72 239.95,-527.29 206,-501 192,-490.16 180.16,-474.75 171.1,-460.42"/>
<polygon fill="none" stroke="#404040" points="170.88,-460.06 164.37,-456.96 164.72,-449.76 171.23,-452.86 170.88,-460.06"/>
<text text-anchor="middle" x="225" y="-493" font-family="Helvetica,sans-Serif" font-size="10.00"> +fields</text>
</g>
<!-- Node6 -->
<g id="node6" class="node">
<title>Node6</title>
<g id="a_node6"><a xlink:title=" ">
<polygon fill="white" stroke="black" points="542,-519.5 542,-576.5 592,-576.5 592,-519.5 542,-519.5"/>
<text text-anchor="middle" x="567" y="-564.5" font-family="Helvetica,sans-Serif" font-size="10.00">int32_t</text>
<polyline fill="none" stroke="black" points="542,-557.5 592,-557.5 "/>
<text text-anchor="middle" x="567" y="-545.5" font-family="Helvetica,sans-Serif" font-size="10.00"> </text>
<polyline fill="none" stroke="black" points="542,-538.5 592,-538.5 "/>
<text text-anchor="middle" x="567" y="-526.5" font-family="Helvetica,sans-Serif" font-size="10.00"> </text>
</a>
</g>
</g>
<!-- Node6&#45;&gt;Node4 -->
<g id="edge5" class="edge">
<title>Node6&#45;&gt;Node4</title>
<path fill="none" stroke="#404040" d="M564.11,-519.26C563.03,-508.79 561.74,-496.42 560.46,-484.07"/>
<polygon fill="none" stroke="#404040" points="560.42,-483.74 555.82,-478.18 559.18,-471.8 563.78,-477.36 560.42,-483.74"/>
<text text-anchor="middle" x="579" y="-493" font-family="Helvetica,sans-Serif" font-size="10.00"> +type</text>
</g>
<!-- Node7 -->
<g id="node7" class="node">
<title>Node7</title>
<g id="a_node7"><a xlink:title=" ">
<polygon fill="white" stroke="black" points="610,-519.5 610,-576.5 648,-576.5 648,-519.5 610,-519.5"/>
<text text-anchor="middle" x="629" y="-564.5" font-family="Helvetica,sans-Serif" font-size="10.00">long</text>
<polyline fill="none" stroke="black" points="610,-557.5 648,-557.5 "/>
<text text-anchor="middle" x="629" y="-545.5" font-family="Helvetica,sans-Serif" font-size="10.00"> </text>
<polyline fill="none" stroke="black" points="610,-538.5 648,-538.5 "/>
<text text-anchor="middle" x="629" y="-526.5" font-family="Helvetica,sans-Serif" font-size="10.00"> </text>
</a>
</g>
</g>
<!-- Node7&#45;&gt;Node4 -->
<g id="edge6" class="edge">
<title>Node7&#45;&gt;Node4</title>
<path fill="none" stroke="#404040" d="M615.81,-519.38C611.07,-509.92 605.53,-499.37 600,-490 598.45,-487.37 596.83,-484.7 595.18,-482.02"/>
<polygon fill="none" stroke="#404040" points="595.05,-481.82 588.46,-478.89 588.63,-471.68 595.22,-474.61 595.05,-481.82"/>
<text text-anchor="middle" x="621.5" y="-493" font-family="Helvetica,sans-Serif" font-size="10.00"> +size</text>
</g>
<!-- Node8 -->
<g id="node8" class="node">
<title>Node8</title>
<g id="a_node8"><a xlink:href="structStateTag.html" target="_top" xlink:title=" ">
<polygon fill="white" stroke="black" points="323,-232.5 323,-322.5 425,-322.5 425,-232.5 323,-232.5"/>
<text text-anchor="middle" x="374" y="-310.5" font-family="Helvetica,sans-Serif" font-size="10.00">StateTag</text>
<polyline fill="none" stroke="black" points="323,-303.5 425,-303.5 "/>
<text text-anchor="middle" x="374" y="-291.5" font-family="Helvetica,sans-Serif" font-size="10.00"> </text>
<polyline fill="none" stroke="black" points="323,-284.5 425,-284.5 "/>
<text text-anchor="start" x="331" y="-272.5" font-family="Helvetica,sans-Serif" font-size="10.00">+ StateTag()</text>
<text text-anchor="start" x="331" y="-261.5" font-family="Helvetica,sans-Serif" font-size="10.00">+ StateTag()</text>
<text text-anchor="start" x="331" y="-250.5" font-family="Helvetica,sans-Serif" font-size="10.00">+ is_valid()</text>
<text text-anchor="start" x="331" y="-239.5" font-family="Helvetica,sans-Serif" font-size="10.00">+ get_state_tag()</text>
</a>
</g>
</g>
<!-- Node8&#45;&gt;Node2 -->
<g id="edge8" class="edge">
<title>Node8&#45;&gt;Node2</title>
<path fill="none" stroke="#404040" d="M374,-232.43C374,-220.87 374,-208.38 374,-196.76"/>
<polygon fill="none" stroke="#404040" points="374,-196.57 370,-190.57 374,-184.57 378,-190.57 374,-196.57"/>
<text text-anchor="middle" x="388" y="-206" font-family="Helvetica,sans-Serif" font-size="10.00"> +tag</text>
</g>
<!-- Node9&#45;&gt;Node8 -->
<g id="edge9" class="edge">
<title>Node9&#45;&gt;Node8</title>
<path fill="none" stroke="midnightblue" d="M195.43,-393.53C227.29,-374.35 271.11,-347.58 309,-323 313.47,-320.1 318.09,-317.05 322.71,-313.96"/>
<polygon fill="none" stroke="midnightblue" points="193.54,-390.58 186.77,-398.73 197.14,-396.58 193.54,-390.58"/>
</g>
<!-- Node10 -->
<g id="node10" class="node">
<title>Node10</title>
<g id="a_node10"><a xlink:title=" ">
<polygon fill="white" stroke="black" points="0,-519.5 0,-576.5 38,-576.5 38,-519.5 0,-519.5"/>
<text text-anchor="middle" x="19" y="-564.5" font-family="Helvetica,sans-Serif" font-size="10.00">float</text>
<polyline fill="none" stroke="black" points="0,-557.5 38,-557.5 "/>
<text text-anchor="middle" x="19" y="-545.5" font-family="Helvetica,sans-Serif" font-size="10.00"> </text>
<polyline fill="none" stroke="black" points="0,-538.5 38,-538.5 "/>
<text text-anchor="middle" x="19" y="-526.5" font-family="Helvetica,sans-Serif" font-size="10.00"> </text>
</a>
</g>
</g>
<!-- Node10&#45;&gt;Node9 -->
<g id="edge10" class="edge">
<title>Node10&#45;&gt;Node9</title>
<path fill="none" stroke="#404040" d="M23.5,-519.24C26.16,-509.25 30.37,-498.38 37,-490 54.45,-467.95 81.17,-451.47 104.35,-440.26"/>
<polygon fill="none" stroke="#404040" points="104.49,-440.19 108.27,-434.05 115.39,-435.18 111.62,-441.32 104.49,-440.19"/>
<text text-anchor="middle" x="69.5" y="-493" font-family="Helvetica,sans-Serif" font-size="10.00"> +fields_float</text>
</g>
<!-- Node11 -->
<g id="node11" class="node">
<title>Node11</title>
<g id="a_node11"><a xlink:title=" ">
<polygon fill="white" stroke="black" points="76.5,-519.5 76.5,-576.5 137.5,-576.5 137.5,-519.5 76.5,-519.5"/>
<text text-anchor="middle" x="107" y="-564.5" font-family="Helvetica,sans-Serif" font-size="10.00">unsigned</text>
<polyline fill="none" stroke="black" points="76.5,-557.5 137.5,-557.5 "/>
<text text-anchor="middle" x="107" y="-545.5" font-family="Helvetica,sans-Serif" font-size="10.00"> </text>
<polyline fill="none" stroke="black" points="76.5,-538.5 137.5,-538.5 "/>
<text text-anchor="middle" x="107" y="-526.5" font-family="Helvetica,sans-Serif" font-size="10.00"> </text>
</a>
</g>
</g>
<!-- Node11&#45;&gt;Node9 -->
<g id="edge12" class="edge">
<title>Node11&#45;&gt;Node9</title>
<path fill="none" stroke="#404040" d="M104.5,-519.28C104.42,-509.82 105.22,-499.29 108,-490 111.11,-479.6 116.3,-469.24 122.02,-459.86"/>
<polygon fill="none" stroke="#404040" points="122.06,-459.8 121.98,-452.58 128.61,-449.74 128.69,-456.95 122.06,-459.8"/>
<text text-anchor="middle" x="145.5" y="-493" font-family="Helvetica,sans-Serif" font-size="10.00"> +packed_flags</text>
</g>
<!-- Node12 -->
<g id="node12" class="node">
<title>Node12</title>
<g id="a_node12"><a xlink:title=" ">
<polygon fill="white" stroke="black" points="286.5,-392.5 286.5,-449.5 365.5,-449.5 365.5,-392.5 286.5,-392.5"/>
<text text-anchor="middle" x="326" y="-437.5" font-family="Helvetica,sans-Serif" font-size="10.00">bitset&lt; 64 &gt;</text>
<polyline fill="none" stroke="black" points="286.5,-430.5 365.5,-430.5 "/>
<text text-anchor="middle" x="326" y="-418.5" font-family="Helvetica,sans-Serif" font-size="10.00"> </text>
<polyline fill="none" stroke="black" points="286.5,-411.5 365.5,-411.5 "/>
<text text-anchor="middle" x="326" y="-399.5" font-family="Helvetica,sans-Serif" font-size="10.00"> </text>
</a>
</g>
</g>
<!-- Node12&#45;&gt;Node8 -->
<g id="edge13" class="edge">
<title>Node12&#45;&gt;Node8</title>
<path fill="none" stroke="#404040" d="M335.37,-392.38C340.98,-375.84 348.31,-354.22 355.08,-334.26"/>
<polygon fill="none" stroke="#404040" points="355.13,-334.12 353.27,-327.15 358.99,-322.75 360.85,-329.72 355.13,-334.12"/>
<text text-anchor="middle" x="369.5" y="-344" font-family="Helvetica,sans-Serif" font-size="10.00"> +flags</text>
</g>
<!-- Node13 -->
<g id="node13" class="node">
<title>Node13</title>
<g id="a_node13"><a xlink:title=" ">
<polygon fill="white" stroke="black" points="463,-122 463,-179 513,-179 513,-122 463,-122"/>
<text text-anchor="middle" x="488" y="-167" font-family="Helvetica,sans-Serif" font-size="10.00">double</text>
<polyline fill="none" stroke="black" points="463,-160 513,-160 "/>
<text text-anchor="middle" x="488" y="-148" font-family="Helvetica,sans-Serif" font-size="10.00"> </text>
<polyline fill="none" stroke="black" points="463,-141 513,-141 "/>
<text text-anchor="middle" x="488" y="-129" font-family="Helvetica,sans-Serif" font-size="10.00"> </text>
</a>
</g>
</g>
<!-- Node13&#45;&gt;Node1 -->
<g id="edge15" class="edge">
<title>Node13&#45;&gt;Node1</title>
<path fill="none" stroke="#404040" d="M469.27,-121.94C464.2,-114.26 458.79,-105.87 454,-98 450.31,-91.94 446.53,-85.49 442.88,-79.1"/>
<polygon fill="none" stroke="#404040" points="442.8,-78.97 436.37,-75.71 436.9,-68.52 443.34,-71.78 442.8,-78.97"/>
<text text-anchor="middle" x="508.5" y="-90" font-family="Helvetica,sans-Serif" font-size="10.00"> +feed_per_revolution</text>
</g>
<!-- Node14 -->
<g id="node14" class="node">
<title>Node14</title>
<g id="a_node14"><a xlink:title=" ">
<polygon fill="white" stroke="black" points="566,-122 566,-179 604,-179 604,-122 566,-122"/>
<text text-anchor="middle" x="585" y="-167" font-family="Helvetica,sans-Serif" font-size="10.00">bool</text>
<polyline fill="none" stroke="black" points="566,-160 604,-160 "/>
<text text-anchor="middle" x="585" y="-148" font-family="Helvetica,sans-Serif" font-size="10.00"> </text>
<polyline fill="none" stroke="black" points="566,-141 604,-141 "/>
<text text-anchor="middle" x="585" y="-129" font-family="Helvetica,sans-Serif" font-size="10.00"> </text>
</a>
</g>
</g>
<!-- Node14&#45;&gt;Node1 -->
<g id="edge16" class="edge">
<title>Node14&#45;&gt;Node1</title>
<path fill="none" stroke="#404040" d="M580.74,-121.72C577.62,-109.71 572.25,-96.3 563,-87 551.25,-75.19 536.6,-66.07 521.19,-59.04"/>
<polygon fill="none" stroke="#404040" points="520.92,-58.93 513.84,-60.29 509.86,-54.28 516.94,-52.91 520.92,-58.93"/>
<text text-anchor="middle" x="612" y="-90" font-family="Helvetica,sans-Serif" font-size="10.00"> +velocity_mode</text>
</g>
</g>
</svg>
