<?xml version="1.0" encoding="UTF-8" standalone="no"?>
<!DOCTYPE svg PUBLIC "-//W3C//DTD SVG 1.1//EN"
 "http://www.w3.org/Graphics/SVG/1.1/DTD/svg11.dtd">
<!-- Generated by graphviz version 2.43.0 (0)
 -->
<!-- Title: EMC_LUBE_STAT Pages: 1 -->
<svg width="333pt" height="543pt"
 viewBox="0.00 0.00 333.00 543.00" xmlns="http://www.w3.org/2000/svg" xmlns:xlink="http://www.w3.org/1999/xlink">
<g id="graph0" class="graph" transform="scale(1 1) rotate(0) translate(4 539)">
<title>EMC_LUBE_STAT</title>
<polygon fill="white" stroke="transparent" points="-4,4 -4,-539 329,-539 329,4 -4,4"/>
<!-- Node1 -->
<g id="node1" class="node">
<title>Node1</title>
<g id="a_node1"><a xlink:title=" ">
<polygon fill="#bfbfbf" stroke="black" points="0,-0.5 0,-68.5 116,-68.5 116,-0.5 0,-0.5"/>
<text text-anchor="middle" x="58" y="-56.5" font-family="Helvetica,sans-Serif" font-size="10.00">EMC_LUBE_STAT</text>
<polyline fill="none" stroke="black" points="0,-49.5 116,-49.5 "/>
<text text-anchor="middle" x="58" y="-37.5" font-family="Helvetica,sans-Serif" font-size="10.00"> </text>
<polyline fill="none" stroke="black" points="0,-30.5 116,-30.5 "/>
<text text-anchor="start" x="8" y="-18.5" font-family="Helvetica,sans-Serif" font-size="10.00">+ EMC_LUBE_STAT()</text>
<text text-anchor="start" x="8" y="-7.5" font-family="Helvetica,sans-Serif" font-size="10.00">+ update()</text>
</a>
</g>
</g>
<!-- Node2 -->
<g id="node2" class="node">
<title>Node2</title>
<g id="a_node2"><a xlink:href="classEMC__LUBE__STAT__MSG.html" target="_top" xlink:title=" ">
<polygon fill="white" stroke="black" points="78,-106.5 78,-174.5 222,-174.5 222,-106.5 78,-106.5"/>
<text text-anchor="middle" x="150" y="-162.5" font-family="Helvetica,sans-Serif" font-size="10.00">EMC_LUBE_STAT_MSG</text>
<polyline fill="none" stroke="black" points="78,-155.5 222,-155.5 "/>
<text text-anchor="middle" x="150" y="-143.5" font-family="Helvetica,sans-Serif" font-size="10.00"> </text>
<polyline fill="none" stroke="black" points="78,-136.5 222,-136.5 "/>
<text text-anchor="start" x="86" y="-124.5" font-family="Helvetica,sans-Serif" font-size="10.00">+ EMC_LUBE_STAT_MSG()</text>
<text text-anchor="start" x="86" y="-113.5" font-family="Helvetica,sans-Serif" font-size="10.00">+ update()</text>
</a>
</g>
</g>
<!-- Node2&#45;&gt;Node1 -->
<g id="edge1" class="edge">
<title>Node2&#45;&gt;Node1</title>
<path fill="none" stroke="midnightblue" d="M113.76,-98.53C105.02,-88.65 95.78,-78.21 87.4,-68.73"/>
<polygon fill="none" stroke="midnightblue" points="111.39,-101.14 120.64,-106.31 116.63,-96.5 111.39,-101.14"/>
</g>
<!-- Node3 -->
<g id="node3" class="node">
<title>Node3</title>
<g id="a_node3"><a xlink:href="classRCS__STAT__MSG.html" target="_top" xlink:title=" ">
<polygon fill="white" stroke="black" points="124.5,-212.5 124.5,-269.5 235.5,-269.5 235.5,-212.5 124.5,-212.5"/>
<text text-anchor="middle" x="180" y="-257.5" font-family="Helvetica,sans-Serif" font-size="10.00">RCS_STAT_MSG</text>
<polyline fill="none" stroke="black" points="124.5,-250.5 235.5,-250.5 "/>
<text text-anchor="middle" x="180" y="-238.5" font-family="Helvetica,sans-Serif" font-size="10.00"> </text>
<polyline fill="none" stroke="black" points="124.5,-231.5 235.5,-231.5 "/>
<text text-anchor="start" x="132.5" y="-219.5" font-family="Helvetica,sans-Serif" font-size="10.00">+ RCS_STAT_MSG()</text>
</a>
</g>
</g>
<!-- Node3&#45;&gt;Node2 -->
<g id="edge2" class="edge">
<title>Node3&#45;&gt;Node2</title>
<path fill="none" stroke="midnightblue" d="M168.61,-202.6C165.8,-193.38 162.81,-183.57 160.07,-174.58"/>
<polygon fill="none" stroke="midnightblue" points="165.3,-203.75 171.56,-212.3 172,-201.71 165.3,-203.75"/>
</g>
<!-- Node4 -->
<g id="node4" class="node">
<title>Node4</title>
<g id="a_node4"><a xlink:href="classNMLmsg.html" target="_top" xlink:title=" ">
<polygon fill="white" stroke="black" points="191,-317.5 191,-418.5 269,-418.5 269,-317.5 191,-317.5"/>
<text text-anchor="middle" x="230" y="-406.5" font-family="Helvetica,sans-Serif" font-size="10.00">NMLmsg</text>
<polyline fill="none" stroke="black" points="191,-399.5 269,-399.5 "/>
<text text-anchor="middle" x="230" y="-387.5" font-family="Helvetica,sans-Serif" font-size="10.00"> </text>
<polyline fill="none" stroke="black" points="191,-380.5 269,-380.5 "/>
<text text-anchor="start" x="199" y="-368.5" font-family="Helvetica,sans-Serif" font-size="10.00">+ clear()</text>
<text text-anchor="start" x="199" y="-357.5" font-family="Helvetica,sans-Serif" font-size="10.00">+ update()</text>
<text text-anchor="start" x="199" y="-346.5" font-family="Helvetica,sans-Serif" font-size="10.00"># NMLmsg()</text>
<text text-anchor="start" x="199" y="-335.5" font-family="Helvetica,sans-Serif" font-size="10.00"># NMLmsg()</text>
<text text-anchor="start" x="199" y="-324.5" font-family="Helvetica,sans-Serif" font-size="10.00"># NMLmsg()</text>
</a>
</g>
</g>
<!-- Node4&#45;&gt;Node3 -->
<g id="edge3" class="edge">
<title>Node4&#45;&gt;Node3</title>
<path fill="none" stroke="midnightblue" d="M206.26,-307.64C200.95,-294.37 195.56,-280.91 191.06,-269.66"/>
<polygon fill="none" stroke="midnightblue" points="203.13,-309.25 210.1,-317.24 209.63,-306.65 203.13,-309.25"/>
</g>
<!-- Node5 -->
<g id="node5" class="node">
<title>Node5</title>
<g id="a_node5"><a xlink:title=" ">
<polygon fill="white" stroke="black" points="51.5,-477.5 51.5,-534.5 80.5,-534.5 80.5,-477.5 51.5,-477.5"/>
<text text-anchor="middle" x="66" y="-522.5" font-family="Helvetica,sans-Serif" font-size="10.00">int</text>
<polyline fill="none" stroke="black" points="51.5,-515.5 80.5,-515.5 "/>
<text text-anchor="middle" x="66" y="-503.5" font-family="Helvetica,sans-Serif" font-size="10.00"> </text>
<polyline fill="none" stroke="black" points="51.5,-496.5 80.5,-496.5 "/>
<text text-anchor="middle" x="66" y="-484.5" font-family="Helvetica,sans-Serif" font-size="10.00"> </text>
</a>
</g>
</g>
<!-- Node5&#45;&gt;Node1 -->
<g id="edge8" class="edge">
<title>Node5&#45;&gt;Node1</title>
<path fill="none" stroke="#404040" d="M51.45,-478.79C37.97,-452.04 20,-408.88 20,-369 20,-369 20,-369 20,-139.5 20,-119.06 26.55,-97.66 34.22,-79.62"/>
<polygon fill="none" stroke="#404040" points="34.27,-79.51 33.1,-72.4 39.22,-68.58 40.39,-75.7 34.27,-79.51"/>
<text text-anchor="middle" x="38" y="-244" font-family="Helvetica,sans-Serif" font-size="10.00"> +level</text>
<text text-anchor="middle" x="38" y="-233" font-family="Helvetica,sans-Serif" font-size="10.00">+on</text>
</g>
<!-- Node5&#45;&gt;Node3 -->
<g id="edge6" class="edge">
<title>Node5&#45;&gt;Node3</title>
<path fill="none" stroke="#404040" d="M60.24,-477.5C53.68,-439.01 47.16,-368.07 75,-317 84.11,-300.3 98.72,-286.43 114.19,-275.35"/>
<polygon fill="none" stroke="#404040" points="114.47,-275.16 117.22,-268.49 124.43,-268.46 121.68,-275.13 114.47,-275.16"/>
<text text-anchor="middle" x="128.5" y="-393" font-family="Helvetica,sans-Serif" font-size="10.00"> +command_type</text>
<text text-anchor="middle" x="128.5" y="-382" font-family="Helvetica,sans-Serif" font-size="10.00">+echo_serial_number</text>
<text text-anchor="middle" x="128.5" y="-371" font-family="Helvetica,sans-Serif" font-size="10.00">+line</text>
<text text-anchor="middle" x="128.5" y="-360" font-family="Helvetica,sans-Serif" font-size="10.00">+source_line</text>
<text text-anchor="middle" x="128.5" y="-349" font-family="Helvetica,sans-Serif" font-size="10.00">+state</text>
<text text-anchor="middle" x="128.5" y="-338" font-family="Helvetica,sans-Serif" font-size="10.00">+status</text>
</g>
<!-- Node5&#45;&gt;Node4 -->
<g id="edge4" class="edge">
<title>Node5&#45;&gt;Node4</title>
<path fill="none" stroke="#404040" d="M80.71,-478.47C89.78,-464.32 102.62,-447.68 118,-437 140.52,-421.36 153.29,-432.77 177,-419 178.32,-418.23 179.64,-417.42 180.95,-416.58"/>
<polygon fill="none" stroke="#404040" points="180.99,-416.55 183.54,-409.81 190.75,-409.57 188.2,-416.31 180.99,-416.55"/>
<text text-anchor="middle" x="172.5" y="-451" font-family="Helvetica,sans-Serif" font-size="10.00"> +automatically_clear</text>
<text text-anchor="middle" x="172.5" y="-440" font-family="Helvetica,sans-Serif" font-size="10.00">+type</text>
</g>
<!-- Node6 -->
<g id="node6" class="node">
<title>Node6</title>
<g id="a_node6"><a xlink:title=" ">
<polygon fill="white" stroke="black" points="212,-477.5 212,-534.5 250,-534.5 250,-477.5 212,-477.5"/>
<text text-anchor="middle" x="231" y="-522.5" font-family="Helvetica,sans-Serif" font-size="10.00">long</text>
<polyline fill="none" stroke="black" points="212,-515.5 250,-515.5 "/>
<text text-anchor="middle" x="231" y="-503.5" font-family="Helvetica,sans-Serif" font-size="10.00"> </text>
<polyline fill="none" stroke="black" points="212,-496.5 250,-496.5 "/>
<text text-anchor="middle" x="231" y="-484.5" font-family="Helvetica,sans-Serif" font-size="10.00"> </text>
</a>
</g>
</g>
<!-- Node6&#45;&gt;Node4 -->
<g id="edge5" class="edge">
<title>Node6&#45;&gt;Node4</title>
<path fill="none" stroke="#404040" d="M230.8,-477.48C230.7,-464.06 230.58,-447.33 230.46,-431.06"/>
<polygon fill="none" stroke="#404040" points="230.45,-430.76 226.41,-424.79 230.37,-418.76 234.41,-424.73 230.45,-430.76"/>
<text text-anchor="middle" x="246.5" y="-445.5" font-family="Helvetica,sans-Serif" font-size="10.00"> +size</text>
</g>
<!-- Node7 -->
<g id="node7" class="node">
<title>Node7</title>
<g id="a_node7"><a xlink:title=" ">
<polygon fill="white" stroke="black" points="287,-339.5 287,-396.5 325,-396.5 325,-339.5 287,-339.5"/>
<text text-anchor="middle" x="306" y="-384.5" font-family="Helvetica,sans-Serif" font-size="10.00">char</text>
<polyline fill="none" stroke="black" points="287,-377.5 325,-377.5 "/>
<text text-anchor="middle" x="306" y="-365.5" font-family="Helvetica,sans-Serif" font-size="10.00"> </text>
<polyline fill="none" stroke="black" points="287,-358.5 325,-358.5 "/>
<text text-anchor="middle" x="306" y="-346.5" font-family="Helvetica,sans-Serif" font-size="10.00"> </text>
</a>
</g>
</g>
<!-- Node7&#45;&gt;Node3 -->
<g id="edge7" class="edge">
<title>Node7&#45;&gt;Node3</title>
<path fill="none" stroke="#404040" d="M293.2,-339.47C288.95,-331.77 283.8,-323.69 278,-317 265.22,-302.26 249.14,-288.51 233.71,-276.92"/>
<polygon fill="none" stroke="#404040" points="233.41,-276.7 226.21,-276.4 223.72,-269.63 230.92,-269.93 233.41,-276.7"/>
<text text-anchor="middle" x="292" y="-291" font-family="Helvetica,sans-Serif" font-size="10.00"> +source_file</text>
</g>
</g>
</svg>
