<?xml version="1.0" encoding="UTF-8" standalone="no"?>
<!DOCTYPE svg PUBLIC "-//W3C//DTD SVG 1.1//EN"
 "http://www.w3.org/Graphics/SVG/1.1/DTD/svg11.dtd">
<!-- Generated by graphviz version 2.43.0 (0)
 -->
<!-- Title: EMC_TRAJ_SET_MOTION_ID Pages: 1 -->
<svg width="656pt" height="575pt"
 viewBox="0.00 0.00 656.00 575.00" xmlns="http://www.w3.org/2000/svg" xmlns:xlink="http://www.w3.org/1999/xlink">
<g id="graph0" class="graph" transform="scale(1 1) rotate(0) translate(4 571)">
<title>EMC_TRAJ_SET_MOTION_ID</title>
<polygon fill="white" stroke="transparent" points="-4,4 -4,-571 652,-571 652,4 -4,4"/>
<!-- Node1 -->
<g id="node1" class="node">
<title>Node1</title>
<g id="a_node1"><a xlink:title=" ">
<polygon fill="#bfbfbf" stroke="black" points="204,-0.5 204,-68.5 374,-68.5 374,-0.5 204,-0.5"/>
<text text-anchor="middle" x="289" y="-56.5" font-family="Helvetica,sans-Serif" font-size="10.00">EMC_TRAJ_SET_MOTION_ID</text>
<polyline fill="none" stroke="black" points="204,-49.5 374,-49.5 "/>
<text text-anchor="middle" x="289" y="-37.5" font-family="Helvetica,sans-Serif" font-size="10.00"> </text>
<polyline fill="none" stroke="black" points="204,-30.5 374,-30.5 "/>
<text text-anchor="start" x="212" y="-18.5" font-family="Helvetica,sans-Serif" font-size="10.00">+ EMC_TRAJ_SET_MOTION_ID()</text>
<text text-anchor="start" x="212" y="-7.5" font-family="Helvetica,sans-Serif" font-size="10.00">+ update()</text>
</a>
</g>
</g>
<!-- Node2 -->
<g id="node2" class="node">
<title>Node2</title>
<g id="a_node2"><a xlink:href="classEMC__TRAJ__CMD__MSG.html" target="_top" xlink:title=" ">
<polygon fill="white" stroke="black" points="286.5,-106.5 286.5,-174.5 427.5,-174.5 427.5,-106.5 286.5,-106.5"/>
<text text-anchor="middle" x="357" y="-162.5" font-family="Helvetica,sans-Serif" font-size="10.00">EMC_TRAJ_CMD_MSG</text>
<polyline fill="none" stroke="black" points="286.5,-155.5 427.5,-155.5 "/>
<text text-anchor="middle" x="357" y="-143.5" font-family="Helvetica,sans-Serif" font-size="10.00"> </text>
<polyline fill="none" stroke="black" points="286.5,-136.5 427.5,-136.5 "/>
<text text-anchor="start" x="294.5" y="-124.5" font-family="Helvetica,sans-Serif" font-size="10.00">+ EMC_TRAJ_CMD_MSG()</text>
<text text-anchor="start" x="294.5" y="-113.5" font-family="Helvetica,sans-Serif" font-size="10.00">+ update()</text>
</a>
</g>
</g>
<!-- Node2&#45;&gt;Node1 -->
<g id="edge1" class="edge">
<title>Node2&#45;&gt;Node1</title>
<path fill="none" stroke="midnightblue" d="M329.64,-97.65C323.35,-88.03 316.74,-77.93 310.73,-68.73"/>
<polygon fill="none" stroke="midnightblue" points="326.9,-99.85 335.3,-106.31 332.75,-96.02 326.9,-99.85"/>
</g>
<!-- Node3 -->
<g id="node3" class="node">
<title>Node3</title>
<g id="a_node3"><a xlink:href="classRCS__CMD__MSG.html" target="_top" xlink:title=" ">
<polygon fill="white" stroke="black" points="417.5,-239 417.5,-296 528.5,-296 528.5,-239 417.5,-239"/>
<text text-anchor="middle" x="473" y="-284" font-family="Helvetica,sans-Serif" font-size="10.00">RCS_CMD_MSG</text>
<polyline fill="none" stroke="black" points="417.5,-277 528.5,-277 "/>
<text text-anchor="middle" x="473" y="-265" font-family="Helvetica,sans-Serif" font-size="10.00"> </text>
<polyline fill="none" stroke="black" points="417.5,-258 528.5,-258 "/>
<text text-anchor="start" x="425.5" y="-246" font-family="Helvetica,sans-Serif" font-size="10.00">+ RCS_CMD_MSG()</text>
</a>
</g>
</g>
<!-- Node3&#45;&gt;Node2 -->
<g id="edge2" class="edge">
<title>Node3&#45;&gt;Node2</title>
<path fill="none" stroke="midnightblue" d="M440.45,-231.42C424.04,-213.74 404.23,-192.39 388.03,-174.94"/>
<polygon fill="none" stroke="midnightblue" points="437.89,-233.81 447.26,-238.76 443.02,-229.05 437.89,-233.81"/>
</g>
<!-- Node4 -->
<g id="node4" class="node">
<title>Node4</title>
<g id="a_node4"><a xlink:href="classNMLmsg.html" target="_top" xlink:title=" ">
<polygon fill="white" stroke="black" points="515,-360.5 515,-461.5 593,-461.5 593,-360.5 515,-360.5"/>
<text text-anchor="middle" x="554" y="-449.5" font-family="Helvetica,sans-Serif" font-size="10.00">NMLmsg</text>
<polyline fill="none" stroke="black" points="515,-442.5 593,-442.5 "/>
<text text-anchor="middle" x="554" y="-430.5" font-family="Helvetica,sans-Serif" font-size="10.00"> </text>
<polyline fill="none" stroke="black" points="515,-423.5 593,-423.5 "/>
<text text-anchor="start" x="523" y="-411.5" font-family="Helvetica,sans-Serif" font-size="10.00">+ clear()</text>
<text text-anchor="start" x="523" y="-400.5" font-family="Helvetica,sans-Serif" font-size="10.00">+ update()</text>
<text text-anchor="start" x="523" y="-389.5" font-family="Helvetica,sans-Serif" font-size="10.00"># NMLmsg()</text>
<text text-anchor="start" x="523" y="-378.5" font-family="Helvetica,sans-Serif" font-size="10.00"># NMLmsg()</text>
<text text-anchor="start" x="523" y="-367.5" font-family="Helvetica,sans-Serif" font-size="10.00"># NMLmsg()</text>
</a>
</g>
</g>
<!-- Node4&#45;&gt;Node3 -->
<g id="edge3" class="edge">
<title>Node4&#45;&gt;Node3</title>
<path fill="none" stroke="midnightblue" d="M520.47,-351.42C509.51,-332.28 497.85,-311.91 488.83,-296.15"/>
<polygon fill="none" stroke="midnightblue" points="517.44,-353.17 525.44,-360.11 523.51,-349.69 517.44,-353.17"/>
</g>
<!-- Node5 -->
<g id="node5" class="node">
<title>Node5</title>
<g id="a_node5"><a xlink:title=" ">
<polygon fill="white" stroke="black" points="315.5,-509.5 315.5,-566.5 344.5,-566.5 344.5,-509.5 315.5,-509.5"/>
<text text-anchor="middle" x="330" y="-554.5" font-family="Helvetica,sans-Serif" font-size="10.00">int</text>
<polyline fill="none" stroke="black" points="315.5,-547.5 344.5,-547.5 "/>
<text text-anchor="middle" x="330" y="-535.5" font-family="Helvetica,sans-Serif" font-size="10.00"> </text>
<polyline fill="none" stroke="black" points="315.5,-528.5 344.5,-528.5 "/>
<text text-anchor="middle" x="330" y="-516.5" font-family="Helvetica,sans-Serif" font-size="10.00"> </text>
</a>
</g>
</g>
<!-- Node5&#45;&gt;Node1 -->
<g id="edge14" class="edge">
<title>Node5&#45;&gt;Node1</title>
<path fill="none" stroke="#404040" d="M315.43,-523.13C294.39,-501.53 258,-457.58 258,-412 258,-412 258,-412 258,-139.5 258,-119.56 263.3,-98.34 269.51,-80.3"/>
<polygon fill="none" stroke="#404040" points="269.54,-80.21 267.86,-73.2 273.68,-68.95 275.37,-75.96 269.54,-80.21"/>
<text text-anchor="middle" x="268.5" y="-265" font-family="Helvetica,sans-Serif" font-size="10.00"> +id</text>
</g>
<!-- Node5&#45;&gt;Node3 -->
<g id="edge7" class="edge">
<title>Node5&#45;&gt;Node3</title>
<path fill="none" stroke="#404040" d="M344.53,-513.28C353.34,-498.65 364.64,-479.42 374,-462 397.9,-417.53 400.97,-404.93 424,-360 432.95,-342.54 443.15,-323.38 451.92,-307.13"/>
<polygon fill="none" stroke="#404040" points="452.02,-306.95 451.35,-299.77 457.73,-296.4 458.39,-303.58 452.02,-306.95"/>
<text text-anchor="middle" x="465" y="-408.5" font-family="Helvetica,sans-Serif" font-size="10.00"> +serial_number</text>
</g>
<!-- Node5&#45;&gt;Node4 -->
<g id="edge4" class="edge">
<title>Node5&#45;&gt;Node4</title>
<path fill="none" stroke="#404040" d="M344.62,-529.91C367.04,-519.07 411.27,-497.74 449,-480 466.28,-471.88 471.63,-471.82 488,-462 493.62,-458.63 499.34,-454.87 504.94,-450.97"/>
<polygon fill="none" stroke="#404040" points="505.09,-450.85 507.63,-444.1 514.83,-443.85 512.3,-450.6 505.09,-450.85"/>
<text text-anchor="middle" x="503.5" y="-483" font-family="Helvetica,sans-Serif" font-size="10.00"> +automatically_clear</text>
</g>
<!-- Node9 -->
<g id="node9" class="node">
<title>Node9</title>
<g id="a_node9"><a xlink:href="structstate__tag__t.html" target="_top" xlink:title=" ">
<polygon fill="white" stroke="black" points="115.5,-382.5 115.5,-439.5 186.5,-439.5 186.5,-382.5 115.5,-382.5"/>
<text text-anchor="middle" x="151" y="-427.5" font-family="Helvetica,sans-Serif" font-size="10.00">state_tag_t</text>
<polyline fill="none" stroke="black" points="115.5,-420.5 186.5,-420.5 "/>
<text text-anchor="middle" x="151" y="-408.5" font-family="Helvetica,sans-Serif" font-size="10.00"> </text>
<polyline fill="none" stroke="black" points="115.5,-401.5 186.5,-401.5 "/>
<text text-anchor="middle" x="151" y="-389.5" font-family="Helvetica,sans-Serif" font-size="10.00"> </text>
</a>
</g>
</g>
<!-- Node5&#45;&gt;Node9 -->
<g id="edge11" class="edge">
<title>Node5&#45;&gt;Node9</title>
<path fill="none" stroke="#404040" d="M315.23,-534.51C290.46,-529.72 239.95,-517.29 206,-491 192,-480.16 180.16,-464.75 171.1,-450.42"/>
<polygon fill="none" stroke="#404040" points="170.88,-450.06 164.37,-446.96 164.72,-439.76 171.23,-442.86 170.88,-450.06"/>
<text text-anchor="middle" x="225" y="-483" font-family="Helvetica,sans-Serif" font-size="10.00"> +fields</text>
</g>
<!-- Node6 -->
<g id="node6" class="node">
<title>Node6</title>
<g id="a_node6"><a xlink:title=" ">
<polygon fill="white" stroke="black" points="542,-509.5 542,-566.5 592,-566.5 592,-509.5 542,-509.5"/>
<text text-anchor="middle" x="567" y="-554.5" font-family="Helvetica,sans-Serif" font-size="10.00">int32_t</text>
<polyline fill="none" stroke="black" points="542,-547.5 592,-547.5 "/>
<text text-anchor="middle" x="567" y="-535.5" font-family="Helvetica,sans-Serif" font-size="10.00"> </text>
<polyline fill="none" stroke="black" points="542,-528.5 592,-528.5 "/>
<text text-anchor="middle" x="567" y="-516.5" font-family="Helvetica,sans-Serif" font-size="10.00"> </text>
</a>
</g>
</g>
<!-- Node6&#45;&gt;Node4 -->
<g id="edge5" class="edge">
<title>Node6&#45;&gt;Node4</title>
<path fill="none" stroke="#404040" d="M564.11,-509.26C563.03,-498.79 561.74,-486.42 560.46,-474.07"/>
<polygon fill="none" stroke="#404040" points="560.42,-473.74 555.82,-468.18 559.18,-461.8 563.78,-467.36 560.42,-473.74"/>
<text text-anchor="middle" x="580" y="-483" font-family="Helvetica,sans-Serif" font-size="10.00"> +type</text>
</g>
<!-- Node7 -->
<g id="node7" class="node">
<title>Node7</title>
<g id="a_node7"><a xlink:title=" ">
<polygon fill="white" stroke="black" points="610,-509.5 610,-566.5 648,-566.5 648,-509.5 610,-509.5"/>
<text text-anchor="middle" x="629" y="-554.5" font-family="Helvetica,sans-Serif" font-size="10.00">long</text>
<polyline fill="none" stroke="black" points="610,-547.5 648,-547.5 "/>
<text text-anchor="middle" x="629" y="-535.5" font-family="Helvetica,sans-Serif" font-size="10.00"> </text>
<polyline fill="none" stroke="black" points="610,-528.5 648,-528.5 "/>
<text text-anchor="middle" x="629" y="-516.5" font-family="Helvetica,sans-Serif" font-size="10.00"> </text>
</a>
</g>
</g>
<!-- Node7&#45;&gt;Node4 -->
<g id="edge6" class="edge">
<title>Node7&#45;&gt;Node4</title>
<path fill="none" stroke="#404040" d="M616.42,-509.31C611.85,-499.86 606.47,-489.32 601,-480 599.44,-477.35 597.82,-474.66 596.14,-471.97"/>
<polygon fill="none" stroke="#404040" points="595.97,-471.7 589.37,-468.79 589.51,-461.58 596.11,-464.49 595.97,-471.7"/>
<text text-anchor="middle" x="622.5" y="-483" font-family="Helvetica,sans-Serif" font-size="10.00"> +size</text>
</g>
<!-- Node8 -->
<g id="node8" class="node">
<title>Node8</title>
<g id="a_node8"><a xlink:href="structStateTag.html" target="_top" xlink:title=" ">
<polygon fill="white" stroke="black" points="297,-222.5 297,-312.5 399,-312.5 399,-222.5 297,-222.5"/>
<text text-anchor="middle" x="348" y="-300.5" font-family="Helvetica,sans-Serif" font-size="10.00">StateTag</text>
<polyline fill="none" stroke="black" points="297,-293.5 399,-293.5 "/>
<text text-anchor="middle" x="348" y="-281.5" font-family="Helvetica,sans-Serif" font-size="10.00"> </text>
<polyline fill="none" stroke="black" points="297,-274.5 399,-274.5 "/>
<text text-anchor="start" x="305" y="-262.5" font-family="Helvetica,sans-Serif" font-size="10.00">+ StateTag()</text>
<text text-anchor="start" x="305" y="-251.5" font-family="Helvetica,sans-Serif" font-size="10.00">+ StateTag()</text>
<text text-anchor="start" x="305" y="-240.5" font-family="Helvetica,sans-Serif" font-size="10.00">+ is_valid()</text>
<text text-anchor="start" x="305" y="-229.5" font-family="Helvetica,sans-Serif" font-size="10.00">+ get_state_tag()</text>
</a>
</g>
</g>
<!-- Node8&#45;&gt;Node2 -->
<g id="edge8" class="edge">
<title>Node8&#45;&gt;Node2</title>
<path fill="none" stroke="#404040" d="M351.17,-222.43C352.01,-210.87 352.9,-198.38 353.74,-186.76"/>
<polygon fill="none" stroke="#404040" points="353.76,-186.54 350.2,-180.26 354.62,-174.57 358.18,-180.84 353.76,-186.54"/>
<text text-anchor="middle" x="368" y="-196" font-family="Helvetica,sans-Serif" font-size="10.00"> +tag</text>
</g>
<!-- Node9&#45;&gt;Node8 -->
<g id="edge9" class="edge">
<title>Node9&#45;&gt;Node8</title>
<path fill="none" stroke="midnightblue" d="M194.89,-378.48C225,-356.85 265.06,-328.07 296.65,-305.38"/>
<polygon fill="none" stroke="midnightblue" points="192.76,-375.7 186.68,-384.38 196.84,-381.38 192.76,-375.7"/>
</g>
<!-- Node10 -->
<g id="node10" class="node">
<title>Node10</title>
<g id="a_node10"><a xlink:title=" ">
<polygon fill="white" stroke="black" points="0,-509.5 0,-566.5 38,-566.5 38,-509.5 0,-509.5"/>
<text text-anchor="middle" x="19" y="-554.5" font-family="Helvetica,sans-Serif" font-size="10.00">float</text>
<polyline fill="none" stroke="black" points="0,-547.5 38,-547.5 "/>
<text text-anchor="middle" x="19" y="-535.5" font-family="Helvetica,sans-Serif" font-size="10.00"> </text>
<polyline fill="none" stroke="black" points="0,-528.5 38,-528.5 "/>
<text text-anchor="middle" x="19" y="-516.5" font-family="Helvetica,sans-Serif" font-size="10.00"> </text>
</a>
</g>
</g>
<!-- Node10&#45;&gt;Node9 -->
<g id="edge10" class="edge">
<title>Node10&#45;&gt;Node9</title>
<path fill="none" stroke="#404040" d="M23.5,-509.24C26.16,-499.25 30.37,-488.38 37,-480 54.45,-457.95 81.17,-441.47 104.35,-430.26"/>
<polygon fill="none" stroke="#404040" points="104.49,-430.19 108.27,-424.05 115.39,-425.18 111.62,-431.32 104.49,-430.19"/>
<text text-anchor="middle" x="69.5" y="-483" font-family="Helvetica,sans-Serif" font-size="10.00"> +fields_float</text>
</g>
<!-- Node11 -->
<g id="node11" class="node">
<title>Node11</title>
<g id="a_node11"><a xlink:title=" ">
<polygon fill="white" stroke="black" points="76.5,-509.5 76.5,-566.5 137.5,-566.5 137.5,-509.5 76.5,-509.5"/>
<text text-anchor="middle" x="107" y="-554.5" font-family="Helvetica,sans-Serif" font-size="10.00">unsigned</text>
<polyline fill="none" stroke="black" points="76.5,-547.5 137.5,-547.5 "/>
<text text-anchor="middle" x="107" y="-535.5" font-family="Helvetica,sans-Serif" font-size="10.00"> </text>
<polyline fill="none" stroke="black" points="76.5,-528.5 137.5,-528.5 "/>
<text text-anchor="middle" x="107" y="-516.5" font-family="Helvetica,sans-Serif" font-size="10.00"> </text>
</a>
</g>
</g>
<!-- Node11&#45;&gt;Node9 -->
<g id="edge12" class="edge">
<title>Node11&#45;&gt;Node9</title>
<path fill="none" stroke="#404040" d="M104.5,-509.28C104.42,-499.82 105.22,-489.29 108,-480 111.11,-469.6 116.3,-459.24 122.02,-449.86"/>
<polygon fill="none" stroke="#404040" points="122.06,-449.8 121.98,-442.58 128.61,-439.74 128.69,-446.95 122.06,-449.8"/>
<text text-anchor="middle" x="145.5" y="-483" font-family="Helvetica,sans-Serif" font-size="10.00"> +packed_flags</text>
</g>
<!-- Node12 -->
<g id="node12" class="node">
<title>Node12</title>
<g id="a_node12"><a xlink:title=" ">
<polygon fill="white" stroke="black" points="286.5,-382.5 286.5,-439.5 365.5,-439.5 365.5,-382.5 286.5,-382.5"/>
<text text-anchor="middle" x="326" y="-427.5" font-family="Helvetica,sans-Serif" font-size="10.00">bitset&lt; 64 &gt;</text>
<polyline fill="none" stroke="black" points="286.5,-420.5 365.5,-420.5 "/>
<text text-anchor="middle" x="326" y="-408.5" font-family="Helvetica,sans-Serif" font-size="10.00"> </text>
<polyline fill="none" stroke="black" points="286.5,-401.5 365.5,-401.5 "/>
<text text-anchor="middle" x="326" y="-389.5" font-family="Helvetica,sans-Serif" font-size="10.00"> </text>
</a>
</g>
</g>
<!-- Node12&#45;&gt;Node8 -->
<g id="edge13" class="edge">
<title>Node12&#45;&gt;Node8</title>
<path fill="none" stroke="#404040" d="M330.29,-382.38C332.84,-366 336.16,-344.62 339.24,-324.82"/>
<polygon fill="none" stroke="#404040" points="339.28,-324.61 336.25,-318.07 341.12,-312.75 344.15,-319.3 339.28,-324.61"/>
<text text-anchor="middle" x="355.5" y="-334" font-family="Helvetica,sans-Serif" font-size="10.00"> +flags</text>
</g>
</g>
</svg>
