<?xml version="1.0" encoding="UTF-8" standalone="no"?>
<!DOCTYPE svg PUBLIC "-//W3C//DTD SVG 1.1//EN"
 "http://www.w3.org/Graphics/SVG/1.1/DTD/svg11.dtd">
<!-- Generated by graphviz version 2.43.0 (0)
 -->
<!-- Title: EMC_MOTION_CMD_MSG Pages: 1 -->
<svg width="290pt" height="416pt"
 viewBox="0.00 0.00 289.50 416.00" xmlns="http://www.w3.org/2000/svg" xmlns:xlink="http://www.w3.org/1999/xlink">
<g id="graph0" class="graph" transform="scale(1 1) rotate(0) translate(4 412)">
<title>EMC_MOTION_CMD_MSG</title>
<polygon fill="white" stroke="transparent" points="-4,4 -4,-412 285.5,-412 285.5,4 -4,4"/>
<!-- Node1 -->
<g id="node1" class="node">
<title>Node1</title>
<g id="a_node1"><a xlink:title=" ">
<polygon fill="#bfbfbf" stroke="black" points="0,-0.5 0,-68.5 159,-68.5 159,-0.5 0,-0.5"/>
<text text-anchor="middle" x="79.5" y="-56.5" font-family="Helvetica,sans-Serif" font-size="10.00">EMC_MOTION_CMD_MSG</text>
<polyline fill="none" stroke="black" points="0,-49.5 159,-49.5 "/>
<text text-anchor="middle" x="79.5" y="-37.5" font-family="Helvetica,sans-Serif" font-size="10.00"> </text>
<polyline fill="none" stroke="black" points="0,-30.5 159,-30.5 "/>
<text text-anchor="start" x="8" y="-18.5" font-family="Helvetica,sans-Serif" font-size="10.00">+ EMC_MOTION_CMD_MSG()</text>
<text text-anchor="start" x="8" y="-7.5" font-family="Helvetica,sans-Serif" font-size="10.00">+ update()</text>
</a>
</g>
</g>
<!-- Node2 -->
<g id="node2" class="node">
<title>Node2</title>
<g id="a_node2"><a xlink:href="classRCS__CMD__MSG.html" target="_top" xlink:title=" ">
<polygon fill="white" stroke="black" points="24,-106.5 24,-163.5 135,-163.5 135,-106.5 24,-106.5"/>
<text text-anchor="middle" x="79.5" y="-151.5" font-family="Helvetica,sans-Serif" font-size="10.00">RCS_CMD_MSG</text>
<polyline fill="none" stroke="black" points="24,-144.5 135,-144.5 "/>
<text text-anchor="middle" x="79.5" y="-132.5" font-family="Helvetica,sans-Serif" font-size="10.00"> </text>
<polyline fill="none" stroke="black" points="24,-125.5 135,-125.5 "/>
<text text-anchor="start" x="32" y="-113.5" font-family="Helvetica,sans-Serif" font-size="10.00">+ RCS_CMD_MSG()</text>
</a>
</g>
</g>
<!-- Node2&#45;&gt;Node1 -->
<g id="edge1" class="edge">
<title>Node2&#45;&gt;Node1</title>
<path fill="none" stroke="midnightblue" d="M79.5,-96.01C79.5,-86.96 79.5,-77.38 79.5,-68.58"/>
<polygon fill="none" stroke="midnightblue" points="76,-96.3 79.5,-106.3 83,-96.3 76,-96.3"/>
</g>
<!-- Node3 -->
<g id="node3" class="node">
<title>Node3</title>
<g id="a_node3"><a xlink:href="classNMLmsg.html" target="_top" xlink:title=" ">
<polygon fill="white" stroke="black" points="148.5,-201.5 148.5,-302.5 226.5,-302.5 226.5,-201.5 148.5,-201.5"/>
<text text-anchor="middle" x="187.5" y="-290.5" font-family="Helvetica,sans-Serif" font-size="10.00">NMLmsg</text>
<polyline fill="none" stroke="black" points="148.5,-283.5 226.5,-283.5 "/>
<text text-anchor="middle" x="187.5" y="-271.5" font-family="Helvetica,sans-Serif" font-size="10.00"> </text>
<polyline fill="none" stroke="black" points="148.5,-264.5 226.5,-264.5 "/>
<text text-anchor="start" x="156.5" y="-252.5" font-family="Helvetica,sans-Serif" font-size="10.00">+ clear()</text>
<text text-anchor="start" x="156.5" y="-241.5" font-family="Helvetica,sans-Serif" font-size="10.00">+ update()</text>
<text text-anchor="start" x="156.5" y="-230.5" font-family="Helvetica,sans-Serif" font-size="10.00"># NMLmsg()</text>
<text text-anchor="start" x="156.5" y="-219.5" font-family="Helvetica,sans-Serif" font-size="10.00"># NMLmsg()</text>
<text text-anchor="start" x="156.5" y="-208.5" font-family="Helvetica,sans-Serif" font-size="10.00"># NMLmsg()</text>
</a>
</g>
</g>
<!-- Node3&#45;&gt;Node2 -->
<g id="edge2" class="edge">
<title>Node3&#45;&gt;Node2</title>
<path fill="none" stroke="midnightblue" d="M141.1,-201.59C128.89,-188.6 116.16,-175.04 105.46,-163.64"/>
<polygon fill="none" stroke="midnightblue" points="138.81,-204.26 148.2,-209.16 143.91,-199.47 138.81,-204.26"/>
</g>
<!-- Node4 -->
<g id="node4" class="node">
<title>Node4</title>
<g id="a_node4"><a xlink:title=" ">
<polygon fill="white" stroke="black" points="38,-350.5 38,-407.5 67,-407.5 67,-350.5 38,-350.5"/>
<text text-anchor="middle" x="52.5" y="-395.5" font-family="Helvetica,sans-Serif" font-size="10.00">int</text>
<polyline fill="none" stroke="black" points="38,-388.5 67,-388.5 "/>
<text text-anchor="middle" x="52.5" y="-376.5" font-family="Helvetica,sans-Serif" font-size="10.00"> </text>
<polyline fill="none" stroke="black" points="38,-369.5 67,-369.5 "/>
<text text-anchor="middle" x="52.5" y="-357.5" font-family="Helvetica,sans-Serif" font-size="10.00"> </text>
</a>
</g>
</g>
<!-- Node4&#45;&gt;Node2 -->
<g id="edge6" class="edge">
<title>Node4&#45;&gt;Node2</title>
<path fill="none" stroke="#404040" d="M50.76,-350.45C49.13,-315.42 48.15,-253.2 57.5,-201 59.03,-192.47 61.46,-183.54 64.17,-175.13"/>
<polygon fill="none" stroke="#404040" points="64.2,-175.02 62.37,-168.05 68.1,-163.67 69.94,-170.65 64.2,-175.02"/>
<text text-anchor="middle" x="98.5" y="-249.5" font-family="Helvetica,sans-Serif" font-size="10.00"> +serial_number</text>
</g>
<!-- Node4&#45;&gt;Node3 -->
<g id="edge3" class="edge">
<title>Node4&#45;&gt;Node3</title>
<path fill="none" stroke="#404040" d="M62.61,-350.34C67.41,-340.13 73.98,-329.08 82.5,-321 96.35,-307.86 105.13,-312.82 121.5,-303 127.12,-299.63 132.84,-295.87 138.44,-291.97"/>
<polygon fill="none" stroke="#404040" points="138.59,-291.85 141.13,-285.1 148.33,-284.85 145.8,-291.6 138.59,-291.85"/>
<text text-anchor="middle" x="137" y="-324" font-family="Helvetica,sans-Serif" font-size="10.00"> +automatically_clear</text>
</g>
<!-- Node5 -->
<g id="node5" class="node">
<title>Node5</title>
<g id="a_node5"><a xlink:title=" ">
<polygon fill="white" stroke="black" points="175.5,-350.5 175.5,-407.5 225.5,-407.5 225.5,-350.5 175.5,-350.5"/>
<text text-anchor="middle" x="200.5" y="-395.5" font-family="Helvetica,sans-Serif" font-size="10.00">int32_t</text>
<polyline fill="none" stroke="black" points="175.5,-388.5 225.5,-388.5 "/>
<text text-anchor="middle" x="200.5" y="-376.5" font-family="Helvetica,sans-Serif" font-size="10.00"> </text>
<polyline fill="none" stroke="black" points="175.5,-369.5 225.5,-369.5 "/>
<text text-anchor="middle" x="200.5" y="-357.5" font-family="Helvetica,sans-Serif" font-size="10.00"> </text>
</a>
</g>
</g>
<!-- Node5&#45;&gt;Node3 -->
<g id="edge4" class="edge">
<title>Node5&#45;&gt;Node3</title>
<path fill="none" stroke="#404040" d="M197.61,-350.26C196.53,-339.79 195.24,-327.42 193.96,-315.07"/>
<polygon fill="none" stroke="#404040" points="193.92,-314.74 189.32,-309.18 192.68,-302.8 197.28,-308.36 193.92,-314.74"/>
<text text-anchor="middle" x="213.5" y="-324" font-family="Helvetica,sans-Serif" font-size="10.00"> +type</text>
</g>
<!-- Node6 -->
<g id="node6" class="node">
<title>Node6</title>
<g id="a_node6"><a xlink:title=" ">
<polygon fill="white" stroke="black" points="243.5,-350.5 243.5,-407.5 281.5,-407.5 281.5,-350.5 243.5,-350.5"/>
<text text-anchor="middle" x="262.5" y="-395.5" font-family="Helvetica,sans-Serif" font-size="10.00">long</text>
<polyline fill="none" stroke="black" points="243.5,-388.5 281.5,-388.5 "/>
<text text-anchor="middle" x="262.5" y="-376.5" font-family="Helvetica,sans-Serif" font-size="10.00"> </text>
<polyline fill="none" stroke="black" points="243.5,-369.5 281.5,-369.5 "/>
<text text-anchor="middle" x="262.5" y="-357.5" font-family="Helvetica,sans-Serif" font-size="10.00"> </text>
</a>
</g>
</g>
<!-- Node6&#45;&gt;Node3 -->
<g id="edge5" class="edge">
<title>Node6&#45;&gt;Node3</title>
<path fill="none" stroke="#404040" d="M249.92,-350.31C245.35,-340.86 239.97,-330.32 234.5,-321 232.94,-318.35 231.32,-315.66 229.64,-312.97"/>
<polygon fill="none" stroke="#404040" points="229.47,-312.7 222.87,-309.79 223.01,-302.58 229.61,-305.49 229.47,-312.7"/>
<text text-anchor="middle" x="256" y="-324" font-family="Helvetica,sans-Serif" font-size="10.00"> +size</text>
</g>
</g>
</svg>
