<?xml version="1.0" encoding="UTF-8" standalone="no"?>
<!DOCTYPE svg PUBLIC "-//W3C//DTD SVG 1.1//EN"
 "http://www.w3.org/Graphics/SVG/1.1/DTD/svg11.dtd">
<!-- Generated by graphviz version 2.43.0 (0)
 -->
<!-- Title: EMC_COOLANT_CMD_MSG Pages: 1 -->
<svg width="238pt" height="427pt"
 viewBox="0.00 0.00 237.50 427.00" xmlns="http://www.w3.org/2000/svg" xmlns:xlink="http://www.w3.org/1999/xlink">
<g id="graph0" class="graph" transform="scale(1 1) rotate(0) translate(4 423)">
<title>EMC_COOLANT_CMD_MSG</title>
<polygon fill="white" stroke="transparent" points="-4,4 -4,-423 233.5,-423 233.5,4 -4,4"/>
<!-- Node1 -->
<g id="node1" class="node">
<title>Node1</title>
<g id="a_node1"><a xlink:title=" ">
<polygon fill="#bfbfbf" stroke="black" points="0,-0.5 0,-68.5 167,-68.5 167,-0.5 0,-0.5"/>
<text text-anchor="middle" x="83.5" y="-56.5" font-family="Helvetica,sans-Serif" font-size="10.00">EMC_COOLANT_CMD_MSG</text>
<polyline fill="none" stroke="black" points="0,-49.5 167,-49.5 "/>
<text text-anchor="middle" x="83.5" y="-37.5" font-family="Helvetica,sans-Serif" font-size="10.00"> </text>
<polyline fill="none" stroke="black" points="0,-30.5 167,-30.5 "/>
<text text-anchor="start" x="8" y="-18.5" font-family="Helvetica,sans-Serif" font-size="10.00">+ EMC_COOLANT_CMD_MSG()</text>
<text text-anchor="start" x="8" y="-7.5" font-family="Helvetica,sans-Serif" font-size="10.00">+ update()</text>
</a>
</g>
</g>
<!-- Node2 -->
<g id="node2" class="node">
<title>Node2</title>
<g id="a_node2"><a xlink:href="classRCS__CMD__MSG.html" target="_top" xlink:title=" ">
<polygon fill="white" stroke="black" points="28,-106.5 28,-163.5 139,-163.5 139,-106.5 28,-106.5"/>
<text text-anchor="middle" x="83.5" y="-151.5" font-family="Helvetica,sans-Serif" font-size="10.00">RCS_CMD_MSG</text>
<polyline fill="none" stroke="black" points="28,-144.5 139,-144.5 "/>
<text text-anchor="middle" x="83.5" y="-132.5" font-family="Helvetica,sans-Serif" font-size="10.00"> </text>
<polyline fill="none" stroke="black" points="28,-125.5 139,-125.5 "/>
<text text-anchor="start" x="36" y="-113.5" font-family="Helvetica,sans-Serif" font-size="10.00">+ RCS_CMD_MSG()</text>
</a>
</g>
</g>
<!-- Node2&#45;&gt;Node1 -->
<g id="edge1" class="edge">
<title>Node2&#45;&gt;Node1</title>
<path fill="none" stroke="midnightblue" d="M83.5,-96.01C83.5,-86.96 83.5,-77.38 83.5,-68.58"/>
<polygon fill="none" stroke="midnightblue" points="80,-96.3 83.5,-106.3 87,-96.3 80,-96.3"/>
</g>
<!-- Node3 -->
<g id="node3" class="node">
<title>Node3</title>
<g id="a_node3"><a xlink:href="classNMLmsg.html" target="_top" xlink:title=" ">
<polygon fill="white" stroke="black" points="142.5,-201.5 142.5,-302.5 220.5,-302.5 220.5,-201.5 142.5,-201.5"/>
<text text-anchor="middle" x="181.5" y="-290.5" font-family="Helvetica,sans-Serif" font-size="10.00">NMLmsg</text>
<polyline fill="none" stroke="black" points="142.5,-283.5 220.5,-283.5 "/>
<text text-anchor="middle" x="181.5" y="-271.5" font-family="Helvetica,sans-Serif" font-size="10.00"> </text>
<polyline fill="none" stroke="black" points="142.5,-264.5 220.5,-264.5 "/>
<text text-anchor="start" x="150.5" y="-252.5" font-family="Helvetica,sans-Serif" font-size="10.00">+ clear()</text>
<text text-anchor="start" x="150.5" y="-241.5" font-family="Helvetica,sans-Serif" font-size="10.00">+ update()</text>
<text text-anchor="start" x="150.5" y="-230.5" font-family="Helvetica,sans-Serif" font-size="10.00"># NMLmsg()</text>
<text text-anchor="start" x="150.5" y="-219.5" font-family="Helvetica,sans-Serif" font-size="10.00"># NMLmsg()</text>
<text text-anchor="start" x="150.5" y="-208.5" font-family="Helvetica,sans-Serif" font-size="10.00"># NMLmsg()</text>
</a>
</g>
</g>
<!-- Node3&#45;&gt;Node2 -->
<g id="edge2" class="edge">
<title>Node3&#45;&gt;Node2</title>
<path fill="none" stroke="midnightblue" d="M135.98,-197.58C126.01,-185.88 115.84,-173.95 107.14,-163.75"/>
<polygon fill="none" stroke="midnightblue" points="133.34,-199.88 142.49,-205.22 138.66,-195.34 133.34,-199.88"/>
</g>
<!-- Node4 -->
<g id="node4" class="node">
<title>Node4</title>
<g id="a_node4"><a xlink:title=" ">
<polygon fill="white" stroke="black" points="45,-361.5 45,-418.5 74,-418.5 74,-361.5 45,-361.5"/>
<text text-anchor="middle" x="59.5" y="-406.5" font-family="Helvetica,sans-Serif" font-size="10.00">int</text>
<polyline fill="none" stroke="black" points="45,-399.5 74,-399.5 "/>
<text text-anchor="middle" x="59.5" y="-387.5" font-family="Helvetica,sans-Serif" font-size="10.00"> </text>
<polyline fill="none" stroke="black" points="45,-380.5 74,-380.5 "/>
<text text-anchor="middle" x="59.5" y="-368.5" font-family="Helvetica,sans-Serif" font-size="10.00"> </text>
</a>
</g>
</g>
<!-- Node4&#45;&gt;Node2 -->
<g id="edge5" class="edge">
<title>Node4&#45;&gt;Node2</title>
<path fill="none" stroke="#404040" d="M53.77,-361.49C47.08,-324.47 38.5,-256.84 51.5,-201 53.56,-192.16 57,-183.13 60.88,-174.73"/>
<polygon fill="none" stroke="#404040" points="61.01,-174.48 60.1,-167.33 66.36,-163.74 67.26,-170.89 61.01,-174.48"/>
<text text-anchor="middle" x="92.5" y="-249.5" font-family="Helvetica,sans-Serif" font-size="10.00"> +serial_number</text>
</g>
<!-- Node4&#45;&gt;Node3 -->
<g id="edge3" class="edge">
<title>Node4&#45;&gt;Node3</title>
<path fill="none" stroke="#404040" d="M62.78,-361.3C65.69,-347.68 71.17,-331.89 81.5,-321 96.89,-304.77 109.56,-314.9 128.5,-303 129.83,-302.17 131.15,-301.3 132.46,-300.4"/>
<polygon fill="none" stroke="#404040" points="132.75,-300.18 135.15,-293.38 142.35,-292.98 139.95,-299.78 132.75,-300.18"/>
<text text-anchor="middle" x="136" y="-335" font-family="Helvetica,sans-Serif" font-size="10.00"> +automatically_clear</text>
<text text-anchor="middle" x="136" y="-324" font-family="Helvetica,sans-Serif" font-size="10.00">+type</text>
</g>
<!-- Node5 -->
<g id="node5" class="node">
<title>Node5</title>
<g id="a_node5"><a xlink:title=" ">
<polygon fill="white" stroke="black" points="188.5,-361.5 188.5,-418.5 226.5,-418.5 226.5,-361.5 188.5,-361.5"/>
<text text-anchor="middle" x="207.5" y="-406.5" font-family="Helvetica,sans-Serif" font-size="10.00">long</text>
<polyline fill="none" stroke="black" points="188.5,-399.5 226.5,-399.5 "/>
<text text-anchor="middle" x="207.5" y="-387.5" font-family="Helvetica,sans-Serif" font-size="10.00"> </text>
<polyline fill="none" stroke="black" points="188.5,-380.5 226.5,-380.5 "/>
<text text-anchor="middle" x="207.5" y="-368.5" font-family="Helvetica,sans-Serif" font-size="10.00"> </text>
</a>
</g>
</g>
<!-- Node5&#45;&gt;Node3 -->
<g id="edge4" class="edge">
<title>Node5&#45;&gt;Node3</title>
<path fill="none" stroke="#404040" d="M202.24,-361.48C199.65,-347.93 196.41,-331 193.27,-314.58"/>
<polygon fill="none" stroke="#404040" points="193.27,-314.55 188.21,-309.41 191.01,-302.76 196.07,-307.91 193.27,-314.55"/>
<text text-anchor="middle" x="214" y="-329.5" font-family="Helvetica,sans-Serif" font-size="10.00"> +size</text>
</g>
</g>
</svg>
