<?xml version="1.0" encoding="UTF-8" standalone="no"?>
<!DOCTYPE svg PUBLIC "-//W3C//DTD SVG 1.1//EN"
 "http://www.w3.org/Graphics/SVG/1.1/DTD/svg11.dtd">
<!-- Generated by graphviz version 2.43.0 (0)
 -->
<!-- Title: EMC_SPINDLE_CMD_MSG Pages: 1 -->
<svg width="1736pt" height="491pt"
 viewBox="0.00 0.00 1736.00 491.00" xmlns="http://www.w3.org/2000/svg" xmlns:xlink="http://www.w3.org/1999/xlink">
<g id="graph0" class="graph" transform="scale(1 1) rotate(0) translate(4 487)">
<title>EMC_SPINDLE_CMD_MSG</title>
<polygon fill="white" stroke="transparent" points="-4,4 -4,-487 1732,-487 1732,4 -4,4"/>
<!-- Node1 -->
<g id="node1" class="node">
<title>Node1</title>
<g id="a_node1"><a xlink:title=" ">
<polygon fill="#bfbfbf" stroke="black" points="853,-160.5 853,-228.5 1013,-228.5 1013,-160.5 853,-160.5"/>
<text text-anchor="middle" x="933" y="-216.5" font-family="Helvetica,sans-Serif" font-size="10.00">EMC_SPINDLE_CMD_MSG</text>
<polyline fill="none" stroke="black" points="853,-209.5 1013,-209.5 "/>
<text text-anchor="start" x="861" y="-197.5" font-family="Helvetica,sans-Serif" font-size="10.00">+ spindle</text>
<polyline fill="none" stroke="black" points="853,-190.5 1013,-190.5 "/>
<text text-anchor="start" x="861" y="-178.5" font-family="Helvetica,sans-Serif" font-size="10.00">+ EMC_SPINDLE_CMD_MSG()</text>
<text text-anchor="start" x="861" y="-167.5" font-family="Helvetica,sans-Serif" font-size="10.00">+ update()</text>
</a>
</g>
</g>
<!-- Node4 -->
<g id="node4" class="node">
<title>Node4</title>
<g id="a_node4"><a xlink:href="classEMC__SPINDLE__BRAKE__ENGAGE.html" target="_top" xlink:title=" ">
<polygon fill="white" stroke="black" points="0,-28 0,-96 188,-96 188,-28 0,-28"/>
<text text-anchor="middle" x="94" y="-84" font-family="Helvetica,sans-Serif" font-size="10.00">EMC_SPINDLE_BRAKE_ENGAGE</text>
<polyline fill="none" stroke="black" points="0,-77 188,-77 "/>
<text text-anchor="start" x="8" y="-65" font-family="Helvetica,sans-Serif" font-size="10.00">+ spindle</text>
<polyline fill="none" stroke="black" points="0,-58 188,-58 "/>
<text text-anchor="start" x="8" y="-46" font-family="Helvetica,sans-Serif" font-size="10.00">+ EMC_SPINDLE_BRAKE_ENGAGE()</text>
<text text-anchor="start" x="8" y="-35" font-family="Helvetica,sans-Serif" font-size="10.00">+ update()</text>
</a>
</g>
</g>
<!-- Node1&#45;&gt;Node4 -->
<g id="edge3" class="edge">
<title>Node1&#45;&gt;Node4</title>
<path fill="none" stroke="midnightblue" d="M842.76,-189.91C673.5,-182.37 314.82,-162.31 197,-124 177.14,-117.54 157,-106.75 139.86,-96.03"/>
<polygon fill="none" stroke="midnightblue" points="842.75,-193.41 852.9,-190.36 843.06,-186.42 842.75,-193.41"/>
</g>
<!-- Node5 -->
<g id="node5" class="node">
<title>Node5</title>
<g id="a_node5"><a xlink:href="classEMC__SPINDLE__BRAKE__RELEASE.html" target="_top" xlink:title=" ">
<polygon fill="white" stroke="black" points="206,-28 206,-96 396,-96 396,-28 206,-28"/>
<text text-anchor="middle" x="301" y="-84" font-family="Helvetica,sans-Serif" font-size="10.00">EMC_SPINDLE_BRAKE_RELEASE</text>
<polyline fill="none" stroke="black" points="206,-77 396,-77 "/>
<text text-anchor="start" x="214" y="-65" font-family="Helvetica,sans-Serif" font-size="10.00">+ spindle</text>
<polyline fill="none" stroke="black" points="206,-58 396,-58 "/>
<text text-anchor="start" x="214" y="-46" font-family="Helvetica,sans-Serif" font-size="10.00">+ EMC_SPINDLE_BRAKE_RELEASE()</text>
<text text-anchor="start" x="214" y="-35" font-family="Helvetica,sans-Serif" font-size="10.00">+ update()</text>
</a>
</g>
</g>
<!-- Node1&#45;&gt;Node5 -->
<g id="edge4" class="edge">
<title>Node1&#45;&gt;Node5</title>
<path fill="none" stroke="midnightblue" d="M842.8,-192.46C735.66,-188.78 552.83,-174.75 405,-124 385.4,-117.27 365.41,-106.62 348.25,-96.1"/>
<polygon fill="none" stroke="midnightblue" points="842.82,-195.96 852.93,-192.78 843.05,-188.96 842.82,-195.96"/>
</g>
<!-- Node6 -->
<g id="node6" class="node">
<title>Node6</title>
<g id="a_node6"><a xlink:href="classEMC__SPINDLE__CONSTANT.html" target="_top" xlink:title=" ">
<polygon fill="white" stroke="black" points="414,-22.5 414,-101.5 576,-101.5 576,-22.5 414,-22.5"/>
<text text-anchor="middle" x="495" y="-89.5" font-family="Helvetica,sans-Serif" font-size="10.00">EMC_SPINDLE_CONSTANT</text>
<polyline fill="none" stroke="black" points="414,-82.5 576,-82.5 "/>
<text text-anchor="start" x="422" y="-70.5" font-family="Helvetica,sans-Serif" font-size="10.00">+ spindle</text>
<text text-anchor="start" x="422" y="-59.5" font-family="Helvetica,sans-Serif" font-size="10.00">+ speed</text>
<polyline fill="none" stroke="black" points="414,-52.5 576,-52.5 "/>
<text text-anchor="start" x="422" y="-40.5" font-family="Helvetica,sans-Serif" font-size="10.00">+ EMC_SPINDLE_CONSTANT()</text>
<text text-anchor="start" x="422" y="-29.5" font-family="Helvetica,sans-Serif" font-size="10.00">+ update()</text>
</a>
</g>
</g>
<!-- Node1&#45;&gt;Node6 -->
<g id="edge5" class="edge">
<title>Node1&#45;&gt;Node6</title>
<path fill="none" stroke="midnightblue" d="M843.02,-185.46C771,-176.71 668.59,-158.99 585,-124 571.07,-118.17 557.06,-110.03 544.37,-101.59"/>
<polygon fill="none" stroke="midnightblue" points="842.63,-188.94 852.97,-186.64 843.45,-181.99 842.63,-188.94"/>
</g>
<!-- Node7 -->
<g id="node7" class="node">
<title>Node7</title>
<g id="a_node7"><a xlink:href="classEMC__SPINDLE__DECREASE.html" target="_top" xlink:title=" ">
<polygon fill="white" stroke="black" points="594.5,-22.5 594.5,-101.5 755.5,-101.5 755.5,-22.5 594.5,-22.5"/>
<text text-anchor="middle" x="675" y="-89.5" font-family="Helvetica,sans-Serif" font-size="10.00">EMC_SPINDLE_DECREASE</text>
<polyline fill="none" stroke="black" points="594.5,-82.5 755.5,-82.5 "/>
<text text-anchor="start" x="602.5" y="-70.5" font-family="Helvetica,sans-Serif" font-size="10.00">+ spindle</text>
<text text-anchor="start" x="602.5" y="-59.5" font-family="Helvetica,sans-Serif" font-size="10.00">+ speed</text>
<polyline fill="none" stroke="black" points="594.5,-52.5 755.5,-52.5 "/>
<text text-anchor="start" x="602.5" y="-40.5" font-family="Helvetica,sans-Serif" font-size="10.00">+ EMC_SPINDLE_DECREASE()</text>
<text text-anchor="start" x="602.5" y="-29.5" font-family="Helvetica,sans-Serif" font-size="10.00">+ update()</text>
</a>
</g>
</g>
<!-- Node1&#45;&gt;Node7 -->
<g id="edge6" class="edge">
<title>Node1&#45;&gt;Node7</title>
<path fill="none" stroke="midnightblue" d="M843.43,-160.39C817.61,-149.79 789.75,-137.33 765,-124 752.7,-117.38 739.99,-109.49 728.14,-101.61"/>
<polygon fill="none" stroke="midnightblue" points="842.25,-163.69 852.84,-164.2 844.88,-157.2 842.25,-163.69"/>
</g>
<!-- Node8 -->
<g id="node8" class="node">
<title>Node8</title>
<g id="a_node8"><a xlink:href="classEMC__SPINDLE__INCREASE.html" target="_top" xlink:title=" ">
<polygon fill="white" stroke="black" points="774,-22.5 774,-101.5 932,-101.5 932,-22.5 774,-22.5"/>
<text text-anchor="middle" x="853" y="-89.5" font-family="Helvetica,sans-Serif" font-size="10.00">EMC_SPINDLE_INCREASE</text>
<polyline fill="none" stroke="black" points="774,-82.5 932,-82.5 "/>
<text text-anchor="start" x="782" y="-70.5" font-family="Helvetica,sans-Serif" font-size="10.00">+ spindle</text>
<text text-anchor="start" x="782" y="-59.5" font-family="Helvetica,sans-Serif" font-size="10.00">+ speed</text>
<polyline fill="none" stroke="black" points="774,-52.5 932,-52.5 "/>
<text text-anchor="start" x="782" y="-40.5" font-family="Helvetica,sans-Serif" font-size="10.00">+ EMC_SPINDLE_INCREASE()</text>
<text text-anchor="start" x="782" y="-29.5" font-family="Helvetica,sans-Serif" font-size="10.00">+ update()</text>
</a>
</g>
</g>
<!-- Node1&#45;&gt;Node8 -->
<g id="edge7" class="edge">
<title>Node1&#45;&gt;Node8</title>
<path fill="none" stroke="midnightblue" d="M907.31,-151.6C897.51,-135.6 886.38,-117.45 876.76,-101.77"/>
<polygon fill="none" stroke="midnightblue" points="904.4,-153.54 912.61,-160.23 910.36,-149.88 904.4,-153.54"/>
</g>
<!-- Node9 -->
<g id="node9" class="node">
<title>Node9</title>
<g id="a_node9"><a xlink:href="classEMC__SPINDLE__OFF.html" target="_top" xlink:title=" ">
<polygon fill="white" stroke="black" points="950,-28 950,-96 1078,-96 1078,-28 950,-28"/>
<text text-anchor="middle" x="1014" y="-84" font-family="Helvetica,sans-Serif" font-size="10.00">EMC_SPINDLE_OFF</text>
<polyline fill="none" stroke="black" points="950,-77 1078,-77 "/>
<text text-anchor="start" x="958" y="-65" font-family="Helvetica,sans-Serif" font-size="10.00">+ spindle</text>
<polyline fill="none" stroke="black" points="950,-58 1078,-58 "/>
<text text-anchor="start" x="958" y="-46" font-family="Helvetica,sans-Serif" font-size="10.00">+ EMC_SPINDLE_OFF()</text>
<text text-anchor="start" x="958" y="-35" font-family="Helvetica,sans-Serif" font-size="10.00">+ update()</text>
</a>
</g>
</g>
<!-- Node1&#45;&gt;Node9 -->
<g id="edge8" class="edge">
<title>Node1&#45;&gt;Node9</title>
<path fill="none" stroke="midnightblue" d="M958.96,-151.67C970.1,-133.73 982.92,-113.07 993.39,-96.21"/>
<polygon fill="none" stroke="midnightblue" points="955.95,-149.89 953.65,-160.23 961.9,-153.58 955.95,-149.89"/>
</g>
<!-- Node10 -->
<g id="node10" class="node">
<title>Node10</title>
<g id="a_node10"><a xlink:href="classEMC__SPINDLE__ON.html" target="_top" xlink:title=" ">
<polygon fill="white" stroke="black" points="1096,-0.5 1096,-123.5 1220,-123.5 1220,-0.5 1096,-0.5"/>
<text text-anchor="middle" x="1158" y="-111.5" font-family="Helvetica,sans-Serif" font-size="10.00">EMC_SPINDLE_ON</text>
<polyline fill="none" stroke="black" points="1096,-104.5 1220,-104.5 "/>
<text text-anchor="start" x="1104" y="-92.5" font-family="Helvetica,sans-Serif" font-size="10.00">+ spindle</text>
<text text-anchor="start" x="1104" y="-81.5" font-family="Helvetica,sans-Serif" font-size="10.00">+ speed</text>
<text text-anchor="start" x="1104" y="-70.5" font-family="Helvetica,sans-Serif" font-size="10.00">+ factor</text>
<text text-anchor="start" x="1104" y="-59.5" font-family="Helvetica,sans-Serif" font-size="10.00">+ xoffset</text>
<text text-anchor="start" x="1104" y="-48.5" font-family="Helvetica,sans-Serif" font-size="10.00">+ wait_for_spindle_at</text>
<text text-anchor="start" x="1104" y="-37.5" font-family="Helvetica,sans-Serif" font-size="10.00">_speed</text>
<polyline fill="none" stroke="black" points="1096,-30.5 1220,-30.5 "/>
<text text-anchor="start" x="1104" y="-18.5" font-family="Helvetica,sans-Serif" font-size="10.00">+ EMC_SPINDLE_ON()</text>
<text text-anchor="start" x="1104" y="-7.5" font-family="Helvetica,sans-Serif" font-size="10.00">+ update()</text>
</a>
</g>
</g>
<!-- Node1&#45;&gt;Node10 -->
<g id="edge9" class="edge">
<title>Node1&#45;&gt;Node10</title>
<path fill="none" stroke="midnightblue" d="M1022.46,-158.33C1044.21,-148.38 1066.97,-136.75 1087,-124 1089.88,-122.17 1092.76,-120.23 1095.63,-118.2"/>
<polygon fill="none" stroke="midnightblue" points="1020.89,-155.2 1013.2,-162.49 1023.76,-161.59 1020.89,-155.2"/>
</g>
<!-- Node11 -->
<g id="node11" class="node">
<title>Node11</title>
<g id="a_node11"><a xlink:href="classEMC__SPINDLE__ORIENT.html" target="_top" xlink:title=" ">
<polygon fill="white" stroke="black" points="1238,-17 1238,-107 1384,-107 1384,-17 1238,-17"/>
<text text-anchor="middle" x="1311" y="-95" font-family="Helvetica,sans-Serif" font-size="10.00">EMC_SPINDLE_ORIENT</text>
<polyline fill="none" stroke="black" points="1238,-88 1384,-88 "/>
<text text-anchor="start" x="1246" y="-76" font-family="Helvetica,sans-Serif" font-size="10.00">+ spindle</text>
<text text-anchor="start" x="1246" y="-65" font-family="Helvetica,sans-Serif" font-size="10.00">+ orientation</text>
<text text-anchor="start" x="1246" y="-54" font-family="Helvetica,sans-Serif" font-size="10.00">+ mode</text>
<polyline fill="none" stroke="black" points="1238,-47 1384,-47 "/>
<text text-anchor="start" x="1246" y="-35" font-family="Helvetica,sans-Serif" font-size="10.00">+ EMC_SPINDLE_ORIENT()</text>
<text text-anchor="start" x="1246" y="-24" font-family="Helvetica,sans-Serif" font-size="10.00">+ update()</text>
</a>
</g>
</g>
<!-- Node1&#45;&gt;Node11 -->
<g id="edge10" class="edge">
<title>Node1&#45;&gt;Node11</title>
<path fill="none" stroke="midnightblue" d="M1023.06,-182.14C1083.4,-172.21 1163.48,-154.46 1229,-124 1238.98,-119.36 1248.93,-113.39 1258.29,-107.01"/>
<polygon fill="none" stroke="midnightblue" points="1022.5,-178.69 1013.18,-183.73 1023.61,-185.6 1022.5,-178.69"/>
</g>
<!-- Node12 -->
<g id="node12" class="node">
<title>Node12</title>
<g id="a_node12"><a xlink:href="classEMC__SPINDLE__SPEED.html" target="_top" xlink:title=" ">
<polygon fill="white" stroke="black" points="1402,-11.5 1402,-112.5 1542,-112.5 1542,-11.5 1402,-11.5"/>
<text text-anchor="middle" x="1472" y="-100.5" font-family="Helvetica,sans-Serif" font-size="10.00">EMC_SPINDLE_SPEED</text>
<polyline fill="none" stroke="black" points="1402,-93.5 1542,-93.5 "/>
<text text-anchor="start" x="1410" y="-81.5" font-family="Helvetica,sans-Serif" font-size="10.00">+ spindle</text>
<text text-anchor="start" x="1410" y="-70.5" font-family="Helvetica,sans-Serif" font-size="10.00">+ speed</text>
<text text-anchor="start" x="1410" y="-59.5" font-family="Helvetica,sans-Serif" font-size="10.00">+ factor</text>
<text text-anchor="start" x="1410" y="-48.5" font-family="Helvetica,sans-Serif" font-size="10.00">+ xoffset</text>
<polyline fill="none" stroke="black" points="1402,-41.5 1542,-41.5 "/>
<text text-anchor="start" x="1410" y="-29.5" font-family="Helvetica,sans-Serif" font-size="10.00">+ EMC_SPINDLE_SPEED()</text>
<text text-anchor="start" x="1410" y="-18.5" font-family="Helvetica,sans-Serif" font-size="10.00">+ update()</text>
</a>
</g>
</g>
<!-- Node1&#45;&gt;Node12 -->
<g id="edge11" class="edge">
<title>Node1&#45;&gt;Node12</title>
<path fill="none" stroke="midnightblue" d="M1023.4,-193.11C1118.89,-189.72 1272.07,-175.66 1393,-124 1400.17,-120.94 1407.26,-117.07 1414.08,-112.76"/>
<polygon fill="none" stroke="midnightblue" points="1023.08,-189.62 1013.2,-193.44 1023.31,-196.62 1023.08,-189.62"/>
</g>
<!-- Node13 -->
<g id="node13" class="node">
<title>Node13</title>
<g id="a_node13"><a xlink:href="classEMC__SPINDLE__WAIT__ORIENT__COMPLETE.html" target="_top" xlink:title=" ">
<polygon fill="white" stroke="black" points="1560,-11.5 1560,-112.5 1728,-112.5 1728,-11.5 1560,-11.5"/>
<text text-anchor="start" x="1568" y="-100.5" font-family="Helvetica,sans-Serif" font-size="10.00">EMC_SPINDLE_WAIT_ORIENT</text>
<text text-anchor="middle" x="1644" y="-89.5" font-family="Helvetica,sans-Serif" font-size="10.00">_COMPLETE</text>
<polyline fill="none" stroke="black" points="1560,-82.5 1728,-82.5 "/>
<text text-anchor="start" x="1568" y="-70.5" font-family="Helvetica,sans-Serif" font-size="10.00">+ spindle</text>
<text text-anchor="start" x="1568" y="-59.5" font-family="Helvetica,sans-Serif" font-size="10.00">+ timeout</text>
<polyline fill="none" stroke="black" points="1560,-52.5 1728,-52.5 "/>
<text text-anchor="start" x="1568" y="-40.5" font-family="Helvetica,sans-Serif" font-size="10.00">+ EMC_SPINDLE_WAIT_ORIENT</text>
<text text-anchor="start" x="1568" y="-29.5" font-family="Helvetica,sans-Serif" font-size="10.00">_COMPLETE()</text>
<text text-anchor="start" x="1568" y="-18.5" font-family="Helvetica,sans-Serif" font-size="10.00">+ update()</text>
</a>
</g>
</g>
<!-- Node1&#45;&gt;Node13 -->
<g id="edge12" class="edge">
<title>Node1&#45;&gt;Node13</title>
<path fill="none" stroke="midnightblue" d="M1023.63,-188.49C1171.14,-179.47 1456.22,-158.2 1551,-124 1559.45,-120.95 1567.89,-117 1576.06,-112.57"/>
<polygon fill="none" stroke="midnightblue" points="1023.02,-185.02 1013.25,-189.12 1023.44,-192.01 1023.02,-185.02"/>
</g>
<!-- Node2 -->
<g id="node2" class="node">
<title>Node2</title>
<g id="a_node2"><a xlink:href="classRCS__CMD__MSG.html" target="_top" xlink:title=" ">
<polygon fill="white" stroke="black" points="877.5,-265.5 877.5,-322.5 988.5,-322.5 988.5,-265.5 877.5,-265.5"/>
<text text-anchor="middle" x="933" y="-310.5" font-family="Helvetica,sans-Serif" font-size="10.00">RCS_CMD_MSG</text>
<polyline fill="none" stroke="black" points="877.5,-303.5 988.5,-303.5 "/>
<text text-anchor="start" x="885.5" y="-291.5" font-family="Helvetica,sans-Serif" font-size="10.00">+ serial_number</text>
<polyline fill="none" stroke="black" points="877.5,-284.5 988.5,-284.5 "/>
<text text-anchor="start" x="885.5" y="-272.5" font-family="Helvetica,sans-Serif" font-size="10.00">+ RCS_CMD_MSG()</text>
</a>
</g>
</g>
<!-- Node2&#45;&gt;Node1 -->
<g id="edge1" class="edge">
<title>Node2&#45;&gt;Node1</title>
<path fill="none" stroke="midnightblue" d="M933,-255.06C933,-246.39 933,-237.24 933,-228.79"/>
<polygon fill="none" stroke="midnightblue" points="929.5,-255.32 933,-265.32 936.5,-255.32 929.5,-255.32"/>
</g>
<!-- Node3 -->
<g id="node3" class="node">
<title>Node3</title>
<g id="a_node3"><a xlink:href="classNMLmsg.html" target="_top" xlink:title=" ">
<polygon fill="white" stroke="black" points="870.5,-359.5 870.5,-482.5 995.5,-482.5 995.5,-359.5 870.5,-359.5"/>
<text text-anchor="middle" x="933" y="-470.5" font-family="Helvetica,sans-Serif" font-size="10.00">NMLmsg</text>
<polyline fill="none" stroke="black" points="870.5,-463.5 995.5,-463.5 "/>
<text text-anchor="start" x="878.5" y="-451.5" font-family="Helvetica,sans-Serif" font-size="10.00">+ type</text>
<text text-anchor="start" x="878.5" y="-440.5" font-family="Helvetica,sans-Serif" font-size="10.00">+ size</text>
<text text-anchor="start" x="878.5" y="-429.5" font-family="Helvetica,sans-Serif" font-size="10.00">+ automatically_clear</text>
<polyline fill="none" stroke="black" points="870.5,-422.5 995.5,-422.5 "/>
<text text-anchor="start" x="878.5" y="-410.5" font-family="Helvetica,sans-Serif" font-size="10.00">+ clear()</text>
<text text-anchor="start" x="878.5" y="-399.5" font-family="Helvetica,sans-Serif" font-size="10.00">+ update()</text>
<text text-anchor="start" x="878.5" y="-388.5" font-family="Helvetica,sans-Serif" font-size="10.00"># NMLmsg()</text>
<text text-anchor="start" x="878.5" y="-377.5" font-family="Helvetica,sans-Serif" font-size="10.00"># NMLmsg()</text>
<text text-anchor="start" x="878.5" y="-366.5" font-family="Helvetica,sans-Serif" font-size="10.00"># NMLmsg()</text>
</a>
</g>
</g>
<!-- Node3&#45;&gt;Node2 -->
<g id="edge2" class="edge">
<title>Node3&#45;&gt;Node2</title>
<path fill="none" stroke="midnightblue" d="M933,-349.14C933,-339.8 933,-330.71 933,-322.74"/>
<polygon fill="none" stroke="midnightblue" points="929.5,-349.33 933,-359.33 936.5,-349.33 929.5,-349.33"/>
</g>
</g>
</svg>
