<?xml version="1.0" encoding="UTF-8" standalone="no"?>
<!DOCTYPE svg PUBLIC "-//W3C//DTD SVG 1.1//EN"
 "http://www.w3.org/Graphics/SVG/1.1/DTD/svg11.dtd">
<!-- Generated by graphviz version 2.43.0 (0)
 -->
<!-- Title: EMC_JOG_STOP Pages: 1 -->
<svg width="455pt" height="532pt"
 viewBox="0.00 0.00 454.50 532.00" xmlns="http://www.w3.org/2000/svg" xmlns:xlink="http://www.w3.org/1999/xlink">
<g id="graph0" class="graph" transform="scale(1 1) rotate(0) translate(4 528)">
<title>EMC_JOG_STOP</title>
<polygon fill="white" stroke="transparent" points="-4,4 -4,-528 450.5,-528 450.5,4 -4,4"/>
<!-- Node1 -->
<g id="node1" class="node">
<title>Node1</title>
<g id="a_node1"><a xlink:title=" ">
<polygon fill="#bfbfbf" stroke="black" points="0,-0.5 0,-68.5 111,-68.5 111,-0.5 0,-0.5"/>
<text text-anchor="middle" x="55.5" y="-56.5" font-family="Helvetica,sans-Serif" font-size="10.00">EMC_JOG_STOP</text>
<polyline fill="none" stroke="black" points="0,-49.5 111,-49.5 "/>
<text text-anchor="middle" x="55.5" y="-37.5" font-family="Helvetica,sans-Serif" font-size="10.00"> </text>
<polyline fill="none" stroke="black" points="0,-30.5 111,-30.5 "/>
<text text-anchor="start" x="8" y="-18.5" font-family="Helvetica,sans-Serif" font-size="10.00">+ EMC_JOG_STOP()</text>
<text text-anchor="start" x="8" y="-7.5" font-family="Helvetica,sans-Serif" font-size="10.00">+ update()</text>
</a>
</g>
</g>
<!-- Node2 -->
<g id="node2" class="node">
<title>Node2</title>
<g id="a_node2"><a xlink:href="classEMC__JOG__CMD__MSG.html" target="_top" xlink:title=" ">
<polygon fill="white" stroke="black" points="54,-106.5 54,-174.5 191,-174.5 191,-106.5 54,-106.5"/>
<text text-anchor="middle" x="122.5" y="-162.5" font-family="Helvetica,sans-Serif" font-size="10.00">EMC_JOG_CMD_MSG</text>
<polyline fill="none" stroke="black" points="54,-155.5 191,-155.5 "/>
<text text-anchor="middle" x="122.5" y="-143.5" font-family="Helvetica,sans-Serif" font-size="10.00"> </text>
<polyline fill="none" stroke="black" points="54,-136.5 191,-136.5 "/>
<text text-anchor="start" x="62" y="-124.5" font-family="Helvetica,sans-Serif" font-size="10.00">+ EMC_JOG_CMD_MSG()</text>
<text text-anchor="start" x="62" y="-113.5" font-family="Helvetica,sans-Serif" font-size="10.00">+ update()</text>
</a>
</g>
</g>
<!-- Node2&#45;&gt;Node1 -->
<g id="edge1" class="edge">
<title>Node2&#45;&gt;Node1</title>
<path fill="none" stroke="midnightblue" d="M95.54,-97.65C89.34,-88.03 82.83,-77.93 76.91,-68.73"/>
<polygon fill="none" stroke="midnightblue" points="92.76,-99.8 101.12,-106.31 98.64,-96.01 92.76,-99.8"/>
</g>
<!-- Node3 -->
<g id="node3" class="node">
<title>Node3</title>
<g id="a_node3"><a xlink:href="classRCS__CMD__MSG.html" target="_top" xlink:title=" ">
<polygon fill="white" stroke="black" points="145,-212.5 145,-269.5 256,-269.5 256,-212.5 145,-212.5"/>
<text text-anchor="middle" x="200.5" y="-257.5" font-family="Helvetica,sans-Serif" font-size="10.00">RCS_CMD_MSG</text>
<polyline fill="none" stroke="black" points="145,-250.5 256,-250.5 "/>
<text text-anchor="middle" x="200.5" y="-238.5" font-family="Helvetica,sans-Serif" font-size="10.00"> </text>
<polyline fill="none" stroke="black" points="145,-231.5 256,-231.5 "/>
<text text-anchor="start" x="153" y="-219.5" font-family="Helvetica,sans-Serif" font-size="10.00">+ RCS_CMD_MSG()</text>
</a>
</g>
</g>
<!-- Node3&#45;&gt;Node2 -->
<g id="edge2" class="edge">
<title>Node3&#45;&gt;Node2</title>
<path fill="none" stroke="midnightblue" d="M172.27,-204.35C164.58,-194.63 156.27,-184.15 148.69,-174.58"/>
<polygon fill="none" stroke="midnightblue" points="169.61,-206.63 178.57,-212.3 175.1,-202.29 169.61,-206.63"/>
</g>
<!-- Node4 -->
<g id="node4" class="node">
<title>Node4</title>
<g id="a_node4"><a xlink:href="classNMLmsg.html" target="_top" xlink:title=" ">
<polygon fill="white" stroke="black" points="313.5,-317.5 313.5,-418.5 391.5,-418.5 391.5,-317.5 313.5,-317.5"/>
<text text-anchor="middle" x="352.5" y="-406.5" font-family="Helvetica,sans-Serif" font-size="10.00">NMLmsg</text>
<polyline fill="none" stroke="black" points="313.5,-399.5 391.5,-399.5 "/>
<text text-anchor="middle" x="352.5" y="-387.5" font-family="Helvetica,sans-Serif" font-size="10.00"> </text>
<polyline fill="none" stroke="black" points="313.5,-380.5 391.5,-380.5 "/>
<text text-anchor="start" x="321.5" y="-368.5" font-family="Helvetica,sans-Serif" font-size="10.00">+ clear()</text>
<text text-anchor="start" x="321.5" y="-357.5" font-family="Helvetica,sans-Serif" font-size="10.00">+ update()</text>
<text text-anchor="start" x="321.5" y="-346.5" font-family="Helvetica,sans-Serif" font-size="10.00"># NMLmsg()</text>
<text text-anchor="start" x="321.5" y="-335.5" font-family="Helvetica,sans-Serif" font-size="10.00"># NMLmsg()</text>
<text text-anchor="start" x="321.5" y="-324.5" font-family="Helvetica,sans-Serif" font-size="10.00"># NMLmsg()</text>
</a>
</g>
</g>
<!-- Node4&#45;&gt;Node3 -->
<g id="edge3" class="edge">
<title>Node4&#45;&gt;Node3</title>
<path fill="none" stroke="midnightblue" d="M305.38,-328.25C282.3,-309.27 255.04,-286.85 234.1,-269.63"/>
<polygon fill="none" stroke="midnightblue" points="303.41,-331.16 313.36,-334.81 307.86,-325.75 303.41,-331.16"/>
</g>
<!-- Node5 -->
<g id="node5" class="node">
<title>Node5</title>
<g id="a_node5"><a xlink:title=" ">
<polygon fill="white" stroke="black" points="142,-466.5 142,-523.5 171,-523.5 171,-466.5 142,-466.5"/>
<text text-anchor="middle" x="156.5" y="-511.5" font-family="Helvetica,sans-Serif" font-size="10.00">int</text>
<polyline fill="none" stroke="black" points="142,-504.5 171,-504.5 "/>
<text text-anchor="middle" x="156.5" y="-492.5" font-family="Helvetica,sans-Serif" font-size="10.00"> </text>
<polyline fill="none" stroke="black" points="142,-485.5 171,-485.5 "/>
<text text-anchor="middle" x="156.5" y="-473.5" font-family="Helvetica,sans-Serif" font-size="10.00"> </text>
</a>
</g>
</g>
<!-- Node5&#45;&gt;Node1 -->
<g id="edge9" class="edge">
<title>Node5&#45;&gt;Node1</title>
<path fill="none" stroke="#404040" d="M141.98,-488.35C107.87,-474.02 25.5,-432.81 25.5,-369 25.5,-369 25.5,-369 25.5,-139.5 25.5,-119.46 30.71,-98.07 36.78,-79.93"/>
<polygon fill="none" stroke="#404040" points="36.82,-79.83 35.07,-72.83 40.85,-68.53 42.6,-75.52 36.82,-79.83"/>
<text text-anchor="middle" x="54.5" y="-238.5" font-family="Helvetica,sans-Serif" font-size="10.00"> +jjogmode</text>
</g>
<!-- Node5&#45;&gt;Node2 -->
<g id="edge8" class="edge">
<title>Node5&#45;&gt;Node2</title>
<path fill="none" stroke="#404040" d="M146.4,-466.38C133.07,-427.2 111.51,-353 113.5,-288 114.54,-254.05 116.94,-215.75 119,-186.82"/>
<polygon fill="none" stroke="#404040" points="119.01,-186.61 115.46,-180.33 119.88,-174.64 123.44,-180.91 119.01,-186.61"/>
<text text-anchor="middle" x="150.5" y="-291" font-family="Helvetica,sans-Serif" font-size="10.00"> +joint_or_axis</text>
</g>
<!-- Node5&#45;&gt;Node3 -->
<g id="edge7" class="edge">
<title>Node5&#45;&gt;Node3</title>
<path fill="none" stroke="#404040" d="M161.38,-466.07C169.21,-421.2 184.63,-332.91 193.59,-281.57"/>
<polygon fill="none" stroke="#404040" points="193.6,-281.49 190.7,-274.89 195.67,-269.67 198.58,-276.27 193.6,-281.49"/>
<text text-anchor="middle" x="228.5" y="-365.5" font-family="Helvetica,sans-Serif" font-size="10.00"> +serial_number</text>
</g>
<!-- Node5&#45;&gt;Node4 -->
<g id="edge4" class="edge">
<title>Node5&#45;&gt;Node4</title>
<path fill="none" stroke="#404040" d="M171.29,-483.92C189.01,-472.03 219.79,-451.99 247.5,-437 264.29,-427.91 270.13,-428.82 286.5,-419 292.12,-415.63 297.84,-411.87 303.44,-407.97"/>
<polygon fill="none" stroke="#404040" points="303.59,-407.85 306.13,-401.1 313.33,-400.85 310.8,-407.6 303.59,-407.85"/>
<text text-anchor="middle" x="302" y="-440" font-family="Helvetica,sans-Serif" font-size="10.00"> +automatically_clear</text>
</g>
<!-- Node6 -->
<g id="node6" class="node">
<title>Node6</title>
<g id="a_node6"><a xlink:title=" ">
<polygon fill="white" stroke="black" points="340.5,-466.5 340.5,-523.5 390.5,-523.5 390.5,-466.5 340.5,-466.5"/>
<text text-anchor="middle" x="365.5" y="-511.5" font-family="Helvetica,sans-Serif" font-size="10.00">int32_t</text>
<polyline fill="none" stroke="black" points="340.5,-504.5 390.5,-504.5 "/>
<text text-anchor="middle" x="365.5" y="-492.5" font-family="Helvetica,sans-Serif" font-size="10.00"> </text>
<polyline fill="none" stroke="black" points="340.5,-485.5 390.5,-485.5 "/>
<text text-anchor="middle" x="365.5" y="-473.5" font-family="Helvetica,sans-Serif" font-size="10.00"> </text>
</a>
</g>
</g>
<!-- Node6&#45;&gt;Node4 -->
<g id="edge5" class="edge">
<title>Node6&#45;&gt;Node4</title>
<path fill="none" stroke="#404040" d="M362.61,-466.26C361.53,-455.79 360.24,-443.42 358.96,-431.07"/>
<polygon fill="none" stroke="#404040" points="358.92,-430.74 354.32,-425.18 357.68,-418.8 362.28,-424.36 358.92,-430.74"/>
<text text-anchor="middle" x="378.5" y="-440" font-family="Helvetica,sans-Serif" font-size="10.00"> +type</text>
</g>
<!-- Node7 -->
<g id="node7" class="node">
<title>Node7</title>
<g id="a_node7"><a xlink:title=" ">
<polygon fill="white" stroke="black" points="408.5,-466.5 408.5,-523.5 446.5,-523.5 446.5,-466.5 408.5,-466.5"/>
<text text-anchor="middle" x="427.5" y="-511.5" font-family="Helvetica,sans-Serif" font-size="10.00">long</text>
<polyline fill="none" stroke="black" points="408.5,-504.5 446.5,-504.5 "/>
<text text-anchor="middle" x="427.5" y="-492.5" font-family="Helvetica,sans-Serif" font-size="10.00"> </text>
<polyline fill="none" stroke="black" points="408.5,-485.5 446.5,-485.5 "/>
<text text-anchor="middle" x="427.5" y="-473.5" font-family="Helvetica,sans-Serif" font-size="10.00"> </text>
</a>
</g>
</g>
<!-- Node7&#45;&gt;Node4 -->
<g id="edge6" class="edge">
<title>Node7&#45;&gt;Node4</title>
<path fill="none" stroke="#404040" d="M414.92,-466.31C410.35,-456.86 404.97,-446.32 399.5,-437 397.94,-434.35 396.32,-431.66 394.64,-428.97"/>
<polygon fill="none" stroke="#404040" points="394.47,-428.7 387.87,-425.79 388.01,-418.58 394.61,-421.49 394.47,-428.7"/>
<text text-anchor="middle" x="421" y="-440" font-family="Helvetica,sans-Serif" font-size="10.00"> +size</text>
</g>
</g>
</svg>
