<?xml version="1.0" encoding="UTF-8" standalone="no"?>
<!DOCTYPE svg PUBLIC "-//W3C//DTD SVG 1.1//EN"
 "http://www.w3.org/Graphics/SVG/1.1/DTD/svg11.dtd">
<!-- Generated by graphviz version 2.43.0 (0)
 -->
<!-- Title: EMC_TASK_HALT Pages: 1 -->
<svg width="226pt" height="533pt"
 viewBox="0.00 0.00 225.50 533.00" xmlns="http://www.w3.org/2000/svg" xmlns:xlink="http://www.w3.org/1999/xlink">
<g id="graph0" class="graph" transform="scale(1 1) rotate(0) translate(4 529)">
<title>EMC_TASK_HALT</title>
<polygon fill="white" stroke="transparent" points="-4,4 -4,-529 221.5,-529 221.5,4 -4,4"/>
<!-- Node1 -->
<g id="node1" class="node">
<title>Node1</title>
<g id="a_node1"><a xlink:title=" ">
<polygon fill="#bfbfbf" stroke="black" points="13,-0.5 13,-68.5 130,-68.5 130,-0.5 13,-0.5"/>
<text text-anchor="middle" x="71.5" y="-56.5" font-family="Helvetica,sans-Serif" font-size="10.00">EMC_TASK_HALT</text>
<polyline fill="none" stroke="black" points="13,-49.5 130,-49.5 "/>
<text text-anchor="middle" x="71.5" y="-37.5" font-family="Helvetica,sans-Serif" font-size="10.00"> </text>
<polyline fill="none" stroke="black" points="13,-30.5 130,-30.5 "/>
<text text-anchor="start" x="21" y="-18.5" font-family="Helvetica,sans-Serif" font-size="10.00">+ EMC_TASK_HALT()</text>
<text text-anchor="start" x="21" y="-7.5" font-family="Helvetica,sans-Serif" font-size="10.00">+ update()</text>
</a>
</g>
</g>
<!-- Node2 -->
<g id="node2" class="node">
<title>Node2</title>
<g id="a_node2"><a xlink:href="classEMC__TASK__CMD__MSG.html" target="_top" xlink:title=" ">
<polygon fill="white" stroke="black" points="0,-106.5 0,-174.5 143,-174.5 143,-106.5 0,-106.5"/>
<text text-anchor="middle" x="71.5" y="-162.5" font-family="Helvetica,sans-Serif" font-size="10.00">EMC_TASK_CMD_MSG</text>
<polyline fill="none" stroke="black" points="0,-155.5 143,-155.5 "/>
<text text-anchor="middle" x="71.5" y="-143.5" font-family="Helvetica,sans-Serif" font-size="10.00"> </text>
<polyline fill="none" stroke="black" points="0,-136.5 143,-136.5 "/>
<text text-anchor="start" x="8" y="-124.5" font-family="Helvetica,sans-Serif" font-size="10.00">+ EMC_TASK_CMD_MSG()</text>
<text text-anchor="start" x="8" y="-113.5" font-family="Helvetica,sans-Serif" font-size="10.00">+ update()</text>
</a>
</g>
</g>
<!-- Node2&#45;&gt;Node1 -->
<g id="edge1" class="edge">
<title>Node2&#45;&gt;Node1</title>
<path fill="none" stroke="midnightblue" d="M71.5,-96.17C71.5,-87 71.5,-77.46 71.5,-68.73"/>
<polygon fill="none" stroke="midnightblue" points="68,-96.31 71.5,-106.31 75,-96.31 68,-96.31"/>
</g>
<!-- Node3 -->
<g id="node3" class="node">
<title>Node3</title>
<g id="a_node3"><a xlink:href="classRCS__CMD__MSG.html" target="_top" xlink:title=" ">
<polygon fill="white" stroke="black" points="16,-212.5 16,-269.5 127,-269.5 127,-212.5 16,-212.5"/>
<text text-anchor="middle" x="71.5" y="-257.5" font-family="Helvetica,sans-Serif" font-size="10.00">RCS_CMD_MSG</text>
<polyline fill="none" stroke="black" points="16,-250.5 127,-250.5 "/>
<text text-anchor="middle" x="71.5" y="-238.5" font-family="Helvetica,sans-Serif" font-size="10.00"> </text>
<polyline fill="none" stroke="black" points="16,-231.5 127,-231.5 "/>
<text text-anchor="start" x="24" y="-219.5" font-family="Helvetica,sans-Serif" font-size="10.00">+ RCS_CMD_MSG()</text>
</a>
</g>
</g>
<!-- Node3&#45;&gt;Node2 -->
<g id="edge2" class="edge">
<title>Node3&#45;&gt;Node2</title>
<path fill="none" stroke="midnightblue" d="M71.5,-202.01C71.5,-192.96 71.5,-183.38 71.5,-174.58"/>
<polygon fill="none" stroke="midnightblue" points="68,-202.3 71.5,-212.3 75,-202.3 68,-202.3"/>
</g>
<!-- Node4 -->
<g id="node4" class="node">
<title>Node4</title>
<g id="a_node4"><a xlink:href="classNMLmsg.html" target="_top" xlink:title=" ">
<polygon fill="white" stroke="black" points="130.5,-307.5 130.5,-408.5 208.5,-408.5 208.5,-307.5 130.5,-307.5"/>
<text text-anchor="middle" x="169.5" y="-396.5" font-family="Helvetica,sans-Serif" font-size="10.00">NMLmsg</text>
<polyline fill="none" stroke="black" points="130.5,-389.5 208.5,-389.5 "/>
<text text-anchor="middle" x="169.5" y="-377.5" font-family="Helvetica,sans-Serif" font-size="10.00"> </text>
<polyline fill="none" stroke="black" points="130.5,-370.5 208.5,-370.5 "/>
<text text-anchor="start" x="138.5" y="-358.5" font-family="Helvetica,sans-Serif" font-size="10.00">+ clear()</text>
<text text-anchor="start" x="138.5" y="-347.5" font-family="Helvetica,sans-Serif" font-size="10.00">+ update()</text>
<text text-anchor="start" x="138.5" y="-336.5" font-family="Helvetica,sans-Serif" font-size="10.00"># NMLmsg()</text>
<text text-anchor="start" x="138.5" y="-325.5" font-family="Helvetica,sans-Serif" font-size="10.00"># NMLmsg()</text>
<text text-anchor="start" x="138.5" y="-314.5" font-family="Helvetica,sans-Serif" font-size="10.00"># NMLmsg()</text>
</a>
</g>
</g>
<!-- Node4&#45;&gt;Node3 -->
<g id="edge3" class="edge">
<title>Node4&#45;&gt;Node3</title>
<path fill="none" stroke="midnightblue" d="M123.98,-303.58C114.01,-291.88 103.84,-279.95 95.14,-269.75"/>
<polygon fill="none" stroke="midnightblue" points="121.34,-305.88 130.49,-311.22 126.66,-301.34 121.34,-305.88"/>
</g>
<!-- Node5 -->
<g id="node5" class="node">
<title>Node5</title>
<g id="a_node5"><a xlink:title=" ">
<polygon fill="white" stroke="black" points="33,-467.5 33,-524.5 62,-524.5 62,-467.5 33,-467.5"/>
<text text-anchor="middle" x="47.5" y="-512.5" font-family="Helvetica,sans-Serif" font-size="10.00">int</text>
<polyline fill="none" stroke="black" points="33,-505.5 62,-505.5 "/>
<text text-anchor="middle" x="47.5" y="-493.5" font-family="Helvetica,sans-Serif" font-size="10.00"> </text>
<polyline fill="none" stroke="black" points="33,-486.5 62,-486.5 "/>
<text text-anchor="middle" x="47.5" y="-474.5" font-family="Helvetica,sans-Serif" font-size="10.00"> </text>
</a>
</g>
</g>
<!-- Node5&#45;&gt;Node3 -->
<g id="edge6" class="edge">
<title>Node5&#45;&gt;Node3</title>
<path fill="none" stroke="#404040" d="M41.77,-467.49C35.08,-430.47 26.5,-362.84 39.5,-307 41.56,-298.16 45,-289.13 48.88,-280.73"/>
<polygon fill="none" stroke="#404040" points="49.01,-280.48 48.1,-273.33 54.36,-269.74 55.26,-276.89 49.01,-280.48"/>
<text text-anchor="middle" x="80.5" y="-355.5" font-family="Helvetica,sans-Serif" font-size="10.00"> +serial_number</text>
</g>
<!-- Node5&#45;&gt;Node4 -->
<g id="edge4" class="edge">
<title>Node5&#45;&gt;Node4</title>
<path fill="none" stroke="#404040" d="M50.78,-467.3C53.69,-453.68 59.17,-437.89 69.5,-427 84.89,-410.77 97.56,-420.9 116.5,-409 117.83,-408.17 119.15,-407.3 120.46,-406.4"/>
<polygon fill="none" stroke="#404040" points="120.75,-406.18 123.15,-399.38 130.35,-398.98 127.95,-405.78 120.75,-406.18"/>
<text text-anchor="middle" x="124" y="-441" font-family="Helvetica,sans-Serif" font-size="10.00"> +automatically_clear</text>
<text text-anchor="middle" x="124" y="-430" font-family="Helvetica,sans-Serif" font-size="10.00">+type</text>
</g>
<!-- Node6 -->
<g id="node6" class="node">
<title>Node6</title>
<g id="a_node6"><a xlink:title=" ">
<polygon fill="white" stroke="black" points="176.5,-467.5 176.5,-524.5 214.5,-524.5 214.5,-467.5 176.5,-467.5"/>
<text text-anchor="middle" x="195.5" y="-512.5" font-family="Helvetica,sans-Serif" font-size="10.00">long</text>
<polyline fill="none" stroke="black" points="176.5,-505.5 214.5,-505.5 "/>
<text text-anchor="middle" x="195.5" y="-493.5" font-family="Helvetica,sans-Serif" font-size="10.00"> </text>
<polyline fill="none" stroke="black" points="176.5,-486.5 214.5,-486.5 "/>
<text text-anchor="middle" x="195.5" y="-474.5" font-family="Helvetica,sans-Serif" font-size="10.00"> </text>
</a>
</g>
</g>
<!-- Node6&#45;&gt;Node4 -->
<g id="edge5" class="edge">
<title>Node6&#45;&gt;Node4</title>
<path fill="none" stroke="#404040" d="M190.24,-467.48C187.65,-453.93 184.41,-437 181.27,-420.58"/>
<polygon fill="none" stroke="#404040" points="181.27,-420.55 176.21,-415.41 179.01,-408.76 184.07,-413.91 181.27,-420.55"/>
<text text-anchor="middle" x="202" y="-435.5" font-family="Helvetica,sans-Serif" font-size="10.00"> +size</text>
</g>
</g>
</svg>
