<?xml version="1.0" encoding="UTF-8" standalone="no"?>
<!DOCTYPE svg PUBLIC "-//W3C//DTD SVG 1.1//EN"
 "http://www.w3.org/Graphics/SVG/1.1/DTD/svg11.dtd">
<!-- Generated by graphviz version 2.43.0 (0)
 -->
<!-- Title: EMC_IO_SET_CYCLE_TIME Pages: 1 -->
<svg width="169pt" height="436pt"
 viewBox="0.00 0.00 169.00 436.00" xmlns="http://www.w3.org/2000/svg" xmlns:xlink="http://www.w3.org/1999/xlink">
<g id="graph0" class="graph" transform="scale(1 1) rotate(0) translate(4 432)">
<title>EMC_IO_SET_CYCLE_TIME</title>
<polygon fill="white" stroke="transparent" points="-4,4 -4,-432 165,-432 165,4 -4,4"/>
<!-- Node1 -->
<g id="node1" class="node">
<title>Node1</title>
<g id="a_node1"><a xlink:title=" ">
<polygon fill="#bfbfbf" stroke="black" points="0,-0.5 0,-68.5 161,-68.5 161,-0.5 0,-0.5"/>
<text text-anchor="middle" x="80.5" y="-56.5" font-family="Helvetica,sans-Serif" font-size="10.00">EMC_IO_SET_CYCLE_TIME</text>
<polyline fill="none" stroke="black" points="0,-49.5 161,-49.5 "/>
<text text-anchor="start" x="8" y="-37.5" font-family="Helvetica,sans-Serif" font-size="10.00">+ cycleTime</text>
<polyline fill="none" stroke="black" points="0,-30.5 161,-30.5 "/>
<text text-anchor="start" x="8" y="-18.5" font-family="Helvetica,sans-Serif" font-size="10.00">+ EMC_IO_SET_CYCLE_TIME()</text>
<text text-anchor="start" x="8" y="-7.5" font-family="Helvetica,sans-Serif" font-size="10.00">+ update()</text>
</a>
</g>
</g>
<!-- Node2 -->
<g id="node2" class="node">
<title>Node2</title>
<g id="a_node2"><a xlink:href="classEMC__IO__CMD__MSG.html" target="_top" xlink:title=" ">
<polygon fill="white" stroke="black" points="16,-105.5 16,-173.5 145,-173.5 145,-105.5 16,-105.5"/>
<text text-anchor="middle" x="80.5" y="-161.5" font-family="Helvetica,sans-Serif" font-size="10.00">EMC_IO_CMD_MSG</text>
<polyline fill="none" stroke="black" points="16,-154.5 145,-154.5 "/>
<text text-anchor="middle" x="80.5" y="-142.5" font-family="Helvetica,sans-Serif" font-size="10.00"> </text>
<polyline fill="none" stroke="black" points="16,-135.5 145,-135.5 "/>
<text text-anchor="start" x="24" y="-123.5" font-family="Helvetica,sans-Serif" font-size="10.00">+ EMC_IO_CMD_MSG()</text>
<text text-anchor="start" x="24" y="-112.5" font-family="Helvetica,sans-Serif" font-size="10.00">+ update()</text>
</a>
</g>
</g>
<!-- Node2&#45;&gt;Node1 -->
<g id="edge1" class="edge">
<title>Node2&#45;&gt;Node1</title>
<path fill="none" stroke="midnightblue" d="M80.5,-95.14C80.5,-86.26 80.5,-77.04 80.5,-68.59"/>
<polygon fill="none" stroke="midnightblue" points="77,-95.34 80.5,-105.34 84,-95.34 77,-95.34"/>
</g>
<!-- Node3 -->
<g id="node3" class="node">
<title>Node3</title>
<g id="a_node3"><a xlink:href="classRCS__CMD__MSG.html" target="_top" xlink:title=" ">
<polygon fill="white" stroke="black" points="25,-210.5 25,-267.5 136,-267.5 136,-210.5 25,-210.5"/>
<text text-anchor="middle" x="80.5" y="-255.5" font-family="Helvetica,sans-Serif" font-size="10.00">RCS_CMD_MSG</text>
<polyline fill="none" stroke="black" points="25,-248.5 136,-248.5 "/>
<text text-anchor="start" x="33" y="-236.5" font-family="Helvetica,sans-Serif" font-size="10.00">+ serial_number</text>
<polyline fill="none" stroke="black" points="25,-229.5 136,-229.5 "/>
<text text-anchor="start" x="33" y="-217.5" font-family="Helvetica,sans-Serif" font-size="10.00">+ RCS_CMD_MSG()</text>
</a>
</g>
</g>
<!-- Node3&#45;&gt;Node2 -->
<g id="edge2" class="edge">
<title>Node3&#45;&gt;Node2</title>
<path fill="none" stroke="midnightblue" d="M80.5,-200.06C80.5,-191.39 80.5,-182.24 80.5,-173.79"/>
<polygon fill="none" stroke="midnightblue" points="77,-200.32 80.5,-210.32 84,-200.32 77,-200.32"/>
</g>
<!-- Node4 -->
<g id="node4" class="node">
<title>Node4</title>
<g id="a_node4"><a xlink:href="classNMLmsg.html" target="_top" xlink:title=" ">
<polygon fill="white" stroke="black" points="18,-304.5 18,-427.5 143,-427.5 143,-304.5 18,-304.5"/>
<text text-anchor="middle" x="80.5" y="-415.5" font-family="Helvetica,sans-Serif" font-size="10.00">NMLmsg</text>
<polyline fill="none" stroke="black" points="18,-408.5 143,-408.5 "/>
<text text-anchor="start" x="26" y="-396.5" font-family="Helvetica,sans-Serif" font-size="10.00">+ type</text>
<text text-anchor="start" x="26" y="-385.5" font-family="Helvetica,sans-Serif" font-size="10.00">+ size</text>
<text text-anchor="start" x="26" y="-374.5" font-family="Helvetica,sans-Serif" font-size="10.00">+ automatically_clear</text>
<polyline fill="none" stroke="black" points="18,-367.5 143,-367.5 "/>
<text text-anchor="start" x="26" y="-355.5" font-family="Helvetica,sans-Serif" font-size="10.00">+ clear()</text>
<text text-anchor="start" x="26" y="-344.5" font-family="Helvetica,sans-Serif" font-size="10.00">+ update()</text>
<text text-anchor="start" x="26" y="-333.5" font-family="Helvetica,sans-Serif" font-size="10.00"># NMLmsg()</text>
<text text-anchor="start" x="26" y="-322.5" font-family="Helvetica,sans-Serif" font-size="10.00"># NMLmsg()</text>
<text text-anchor="start" x="26" y="-311.5" font-family="Helvetica,sans-Serif" font-size="10.00"># NMLmsg()</text>
</a>
</g>
</g>
<!-- Node4&#45;&gt;Node3 -->
<g id="edge3" class="edge">
<title>Node4&#45;&gt;Node3</title>
<path fill="none" stroke="midnightblue" d="M80.5,-294.14C80.5,-284.8 80.5,-275.71 80.5,-267.74"/>
<polygon fill="none" stroke="midnightblue" points="77,-294.33 80.5,-304.33 84,-294.33 77,-294.33"/>
</g>
</g>
</svg>
