<?xml version="1.0" encoding="UTF-8" standalone="no"?>
<!DOCTYPE svg PUBLIC "-//W3C//DTD SVG 1.1//EN"
 "http://www.w3.org/Graphics/SVG/1.1/DTD/svg11.dtd">
<!-- Generated by graphviz version 2.43.0 (0)
 -->
<!-- Title: EMC_TASK_PLAN_OPTIONAL_STOP Pages: 1 -->
<svg width="303pt" height="533pt"
 viewBox="0.00 0.00 302.50 533.00" xmlns="http://www.w3.org/2000/svg" xmlns:xlink="http://www.w3.org/1999/xlink">
<g id="graph0" class="graph" transform="scale(1 1) rotate(0) translate(4 529)">
<title>EMC_TASK_PLAN_OPTIONAL_STOP</title>
<polygon fill="white" stroke="transparent" points="-4,4 -4,-529 298.5,-529 298.5,4 -4,4"/>
<!-- Node1 -->
<g id="node1" class="node">
<title>Node1</title>
<g id="a_node1"><a xlink:title=" ">
<polygon fill="#bfbfbf" stroke="black" points="0,-0.5 0,-79.5 185,-79.5 185,-0.5 0,-0.5"/>
<text text-anchor="middle" x="92.5" y="-67.5" font-family="Helvetica,sans-Serif" font-size="10.00">EMC_TASK_PLAN_OPTIONAL_STOP</text>
<polyline fill="none" stroke="black" points="0,-60.5 185,-60.5 "/>
<text text-anchor="middle" x="92.5" y="-48.5" font-family="Helvetica,sans-Serif" font-size="10.00"> </text>
<polyline fill="none" stroke="black" points="0,-41.5 185,-41.5 "/>
<text text-anchor="start" x="8" y="-29.5" font-family="Helvetica,sans-Serif" font-size="10.00">+ EMC_TASK_PLAN_OPTIONAL</text>
<text text-anchor="start" x="8" y="-18.5" font-family="Helvetica,sans-Serif" font-size="10.00">_STOP()</text>
<text text-anchor="start" x="8" y="-7.5" font-family="Helvetica,sans-Serif" font-size="10.00">+ update()</text>
</a>
</g>
</g>
<!-- Node2 -->
<g id="node2" class="node">
<title>Node2</title>
<g id="a_node2"><a xlink:href="classEMC__TASK__CMD__MSG.html" target="_top" xlink:title=" ">
<polygon fill="white" stroke="black" points="21,-117.5 21,-185.5 164,-185.5 164,-117.5 21,-117.5"/>
<text text-anchor="middle" x="92.5" y="-173.5" font-family="Helvetica,sans-Serif" font-size="10.00">EMC_TASK_CMD_MSG</text>
<polyline fill="none" stroke="black" points="21,-166.5 164,-166.5 "/>
<text text-anchor="middle" x="92.5" y="-154.5" font-family="Helvetica,sans-Serif" font-size="10.00"> </text>
<polyline fill="none" stroke="black" points="21,-147.5 164,-147.5 "/>
<text text-anchor="start" x="29" y="-135.5" font-family="Helvetica,sans-Serif" font-size="10.00">+ EMC_TASK_CMD_MSG()</text>
<text text-anchor="start" x="29" y="-124.5" font-family="Helvetica,sans-Serif" font-size="10.00">+ update()</text>
</a>
</g>
</g>
<!-- Node2&#45;&gt;Node1 -->
<g id="edge1" class="edge">
<title>Node2&#45;&gt;Node1</title>
<path fill="none" stroke="midnightblue" d="M92.5,-107.34C92.5,-98.25 92.5,-88.72 92.5,-79.81"/>
<polygon fill="none" stroke="midnightblue" points="89,-107.35 92.5,-117.35 96,-107.35 89,-107.35"/>
</g>
<!-- Node3 -->
<g id="node3" class="node">
<title>Node3</title>
<g id="a_node3"><a xlink:href="classRCS__CMD__MSG.html" target="_top" xlink:title=" ">
<polygon fill="white" stroke="black" points="37,-223.5 37,-280.5 148,-280.5 148,-223.5 37,-223.5"/>
<text text-anchor="middle" x="92.5" y="-268.5" font-family="Helvetica,sans-Serif" font-size="10.00">RCS_CMD_MSG</text>
<polyline fill="none" stroke="black" points="37,-261.5 148,-261.5 "/>
<text text-anchor="middle" x="92.5" y="-249.5" font-family="Helvetica,sans-Serif" font-size="10.00"> </text>
<polyline fill="none" stroke="black" points="37,-242.5 148,-242.5 "/>
<text text-anchor="start" x="45" y="-230.5" font-family="Helvetica,sans-Serif" font-size="10.00">+ RCS_CMD_MSG()</text>
</a>
</g>
</g>
<!-- Node3&#45;&gt;Node2 -->
<g id="edge2" class="edge">
<title>Node3&#45;&gt;Node2</title>
<path fill="none" stroke="midnightblue" d="M92.5,-213.01C92.5,-203.96 92.5,-194.38 92.5,-185.58"/>
<polygon fill="none" stroke="midnightblue" points="89,-213.3 92.5,-223.3 96,-213.3 89,-213.3"/>
</g>
<!-- Node4 -->
<g id="node4" class="node">
<title>Node4</title>
<g id="a_node4"><a xlink:href="classNMLmsg.html" target="_top" xlink:title=" ">
<polygon fill="white" stroke="black" points="161.5,-318.5 161.5,-419.5 239.5,-419.5 239.5,-318.5 161.5,-318.5"/>
<text text-anchor="middle" x="200.5" y="-407.5" font-family="Helvetica,sans-Serif" font-size="10.00">NMLmsg</text>
<polyline fill="none" stroke="black" points="161.5,-400.5 239.5,-400.5 "/>
<text text-anchor="middle" x="200.5" y="-388.5" font-family="Helvetica,sans-Serif" font-size="10.00"> </text>
<polyline fill="none" stroke="black" points="161.5,-381.5 239.5,-381.5 "/>
<text text-anchor="start" x="169.5" y="-369.5" font-family="Helvetica,sans-Serif" font-size="10.00">+ clear()</text>
<text text-anchor="start" x="169.5" y="-358.5" font-family="Helvetica,sans-Serif" font-size="10.00">+ update()</text>
<text text-anchor="start" x="169.5" y="-347.5" font-family="Helvetica,sans-Serif" font-size="10.00"># NMLmsg()</text>
<text text-anchor="start" x="169.5" y="-336.5" font-family="Helvetica,sans-Serif" font-size="10.00"># NMLmsg()</text>
<text text-anchor="start" x="169.5" y="-325.5" font-family="Helvetica,sans-Serif" font-size="10.00"># NMLmsg()</text>
</a>
</g>
</g>
<!-- Node4&#45;&gt;Node3 -->
<g id="edge3" class="edge">
<title>Node4&#45;&gt;Node3</title>
<path fill="none" stroke="midnightblue" d="M154.1,-318.59C141.89,-305.6 129.16,-292.04 118.46,-280.64"/>
<polygon fill="none" stroke="midnightblue" points="151.81,-321.26 161.2,-326.16 156.91,-316.47 151.81,-321.26"/>
</g>
<!-- Node5 -->
<g id="node5" class="node">
<title>Node5</title>
<g id="a_node5"><a xlink:title=" ">
<polygon fill="white" stroke="black" points="51,-467.5 51,-524.5 80,-524.5 80,-467.5 51,-467.5"/>
<text text-anchor="middle" x="65.5" y="-512.5" font-family="Helvetica,sans-Serif" font-size="10.00">int</text>
<polyline fill="none" stroke="black" points="51,-505.5 80,-505.5 "/>
<text text-anchor="middle" x="65.5" y="-493.5" font-family="Helvetica,sans-Serif" font-size="10.00"> </text>
<polyline fill="none" stroke="black" points="51,-486.5 80,-486.5 "/>
<text text-anchor="middle" x="65.5" y="-474.5" font-family="Helvetica,sans-Serif" font-size="10.00"> </text>
</a>
</g>
</g>
<!-- Node5&#45;&gt;Node3 -->
<g id="edge7" class="edge">
<title>Node5&#45;&gt;Node3</title>
<path fill="none" stroke="#404040" d="M63.76,-467.45C62.13,-432.42 61.15,-370.2 70.5,-318 72.03,-309.47 74.46,-300.54 77.17,-292.13"/>
<polygon fill="none" stroke="#404040" points="77.2,-292.02 75.37,-285.05 81.1,-280.67 82.94,-287.65 77.2,-292.02"/>
<text text-anchor="middle" x="111.5" y="-366.5" font-family="Helvetica,sans-Serif" font-size="10.00"> +serial_number</text>
</g>
<!-- Node5&#45;&gt;Node4 -->
<g id="edge4" class="edge">
<title>Node5&#45;&gt;Node4</title>
<path fill="none" stroke="#404040" d="M75.61,-467.34C80.41,-457.13 86.98,-446.08 95.5,-438 109.35,-424.86 118.13,-429.82 134.5,-420 140.12,-416.63 145.84,-412.87 151.44,-408.97"/>
<polygon fill="none" stroke="#404040" points="151.59,-408.85 154.13,-402.1 161.33,-401.85 158.8,-408.6 151.59,-408.85"/>
<text text-anchor="middle" x="150" y="-441" font-family="Helvetica,sans-Serif" font-size="10.00"> +automatically_clear</text>
</g>
<!-- Node6 -->
<g id="node6" class="node">
<title>Node6</title>
<g id="a_node6"><a xlink:title=" ">
<polygon fill="white" stroke="black" points="188.5,-467.5 188.5,-524.5 238.5,-524.5 238.5,-467.5 188.5,-467.5"/>
<text text-anchor="middle" x="213.5" y="-512.5" font-family="Helvetica,sans-Serif" font-size="10.00">int32_t</text>
<polyline fill="none" stroke="black" points="188.5,-505.5 238.5,-505.5 "/>
<text text-anchor="middle" x="213.5" y="-493.5" font-family="Helvetica,sans-Serif" font-size="10.00"> </text>
<polyline fill="none" stroke="black" points="188.5,-486.5 238.5,-486.5 "/>
<text text-anchor="middle" x="213.5" y="-474.5" font-family="Helvetica,sans-Serif" font-size="10.00"> </text>
</a>
</g>
</g>
<!-- Node6&#45;&gt;Node4 -->
<g id="edge5" class="edge">
<title>Node6&#45;&gt;Node4</title>
<path fill="none" stroke="#404040" d="M210.61,-467.26C209.53,-456.79 208.24,-444.42 206.96,-432.07"/>
<polygon fill="none" stroke="#404040" points="206.92,-431.74 202.32,-426.18 205.68,-419.8 210.28,-425.36 206.92,-431.74"/>
<text text-anchor="middle" x="226.5" y="-441" font-family="Helvetica,sans-Serif" font-size="10.00"> +type</text>
</g>
<!-- Node7 -->
<g id="node7" class="node">
<title>Node7</title>
<g id="a_node7"><a xlink:title=" ">
<polygon fill="white" stroke="black" points="256.5,-467.5 256.5,-524.5 294.5,-524.5 294.5,-467.5 256.5,-467.5"/>
<text text-anchor="middle" x="275.5" y="-512.5" font-family="Helvetica,sans-Serif" font-size="10.00">long</text>
<polyline fill="none" stroke="black" points="256.5,-505.5 294.5,-505.5 "/>
<text text-anchor="middle" x="275.5" y="-493.5" font-family="Helvetica,sans-Serif" font-size="10.00"> </text>
<polyline fill="none" stroke="black" points="256.5,-486.5 294.5,-486.5 "/>
<text text-anchor="middle" x="275.5" y="-474.5" font-family="Helvetica,sans-Serif" font-size="10.00"> </text>
</a>
</g>
</g>
<!-- Node7&#45;&gt;Node4 -->
<g id="edge6" class="edge">
<title>Node7&#45;&gt;Node4</title>
<path fill="none" stroke="#404040" d="M262.92,-467.31C258.35,-457.86 252.97,-447.32 247.5,-438 245.94,-435.35 244.32,-432.66 242.64,-429.97"/>
<polygon fill="none" stroke="#404040" points="242.47,-429.7 235.87,-426.79 236.01,-419.58 242.61,-422.49 242.47,-429.7"/>
<text text-anchor="middle" x="269" y="-441" font-family="Helvetica,sans-Serif" font-size="10.00"> +size</text>
</g>
</g>
</svg>
