<?xml version="1.0" encoding="UTF-8" standalone="no"?>
<!DOCTYPE svg PUBLIC "-//W3C//DTD SVG 1.1//EN"
 "http://www.w3.org/Graphics/SVG/1.1/DTD/svg11.dtd">
<!-- Generated by graphviz version 2.43.0 (0)
 -->
<!-- Title: RCS_GENERIC_CMD Pages: 1 -->
<svg width="293pt" height="437pt"
 viewBox="0.00 0.00 293.00 437.00" xmlns="http://www.w3.org/2000/svg" xmlns:xlink="http://www.w3.org/1999/xlink">
<g id="graph0" class="graph" transform="scale(1 1) rotate(0) translate(4 433)">
<title>RCS_GENERIC_CMD</title>
<polygon fill="white" stroke="transparent" points="-4,4 -4,-433 289,-433 289,4 -4,4"/>
<!-- Node1 -->
<g id="node1" class="node">
<title>Node1</title>
<g id="a_node1"><a xlink:title=" ">
<polygon fill="#bfbfbf" stroke="black" points="0,-0.5 0,-68.5 132,-68.5 132,-0.5 0,-0.5"/>
<text text-anchor="middle" x="66" y="-56.5" font-family="Helvetica,sans-Serif" font-size="10.00">RCS_GENERIC_CMD</text>
<polyline fill="none" stroke="black" points="0,-49.5 132,-49.5 "/>
<text text-anchor="middle" x="66" y="-37.5" font-family="Helvetica,sans-Serif" font-size="10.00"> </text>
<polyline fill="none" stroke="black" points="0,-30.5 132,-30.5 "/>
<text text-anchor="start" x="8" y="-18.5" font-family="Helvetica,sans-Serif" font-size="10.00">+ RCS_GENERIC_CMD()</text>
<text text-anchor="start" x="8" y="-7.5" font-family="Helvetica,sans-Serif" font-size="10.00">+ update()</text>
</a>
</g>
</g>
<!-- Node2 -->
<g id="node2" class="node">
<title>Node2</title>
<g id="a_node2"><a xlink:href="classRCS__CMD__MSG.html" target="_top" xlink:title=" ">
<polygon fill="white" stroke="black" points="67.5,-106.5 67.5,-163.5 178.5,-163.5 178.5,-106.5 67.5,-106.5"/>
<text text-anchor="middle" x="123" y="-151.5" font-family="Helvetica,sans-Serif" font-size="10.00">RCS_CMD_MSG</text>
<polyline fill="none" stroke="black" points="67.5,-144.5 178.5,-144.5 "/>
<text text-anchor="middle" x="123" y="-132.5" font-family="Helvetica,sans-Serif" font-size="10.00"> </text>
<polyline fill="none" stroke="black" points="67.5,-125.5 178.5,-125.5 "/>
<text text-anchor="start" x="75.5" y="-113.5" font-family="Helvetica,sans-Serif" font-size="10.00">+ RCS_CMD_MSG()</text>
</a>
</g>
</g>
<!-- Node2&#45;&gt;Node1 -->
<g id="edge1" class="edge">
<title>Node2&#45;&gt;Node1</title>
<path fill="none" stroke="midnightblue" d="M101.86,-97.48C96.38,-88.01 90.51,-77.86 85.14,-68.58"/>
<polygon fill="none" stroke="midnightblue" points="98.93,-99.4 106.97,-106.3 104.99,-95.89 98.93,-99.4"/>
</g>
<!-- Node3 -->
<g id="node3" class="node">
<title>Node3</title>
<g id="a_node3"><a xlink:href="classNMLmsg.html" target="_top" xlink:title=" ">
<polygon fill="white" stroke="black" points="198,-211.5 198,-312.5 276,-312.5 276,-211.5 198,-211.5"/>
<text text-anchor="middle" x="237" y="-300.5" font-family="Helvetica,sans-Serif" font-size="10.00">NMLmsg</text>
<polyline fill="none" stroke="black" points="198,-293.5 276,-293.5 "/>
<text text-anchor="middle" x="237" y="-281.5" font-family="Helvetica,sans-Serif" font-size="10.00"> </text>
<polyline fill="none" stroke="black" points="198,-274.5 276,-274.5 "/>
<text text-anchor="start" x="206" y="-262.5" font-family="Helvetica,sans-Serif" font-size="10.00">+ clear()</text>
<text text-anchor="start" x="206" y="-251.5" font-family="Helvetica,sans-Serif" font-size="10.00">+ update()</text>
<text text-anchor="start" x="206" y="-240.5" font-family="Helvetica,sans-Serif" font-size="10.00"># NMLmsg()</text>
<text text-anchor="start" x="206" y="-229.5" font-family="Helvetica,sans-Serif" font-size="10.00"># NMLmsg()</text>
<text text-anchor="start" x="206" y="-218.5" font-family="Helvetica,sans-Serif" font-size="10.00"># NMLmsg()</text>
</a>
</g>
</g>
<!-- Node3&#45;&gt;Node2 -->
<g id="edge2" class="edge">
<title>Node3&#45;&gt;Node2</title>
<path fill="none" stroke="midnightblue" d="M190.75,-210.29C176.28,-194.42 160.84,-177.49 148.36,-163.81"/>
<polygon fill="none" stroke="midnightblue" points="188.44,-212.95 197.77,-217.98 193.62,-208.23 188.44,-212.95"/>
</g>
<!-- Node4 -->
<g id="node4" class="node">
<title>Node4</title>
<g id="a_node4"><a xlink:title=" ">
<polygon fill="white" stroke="black" points="83.5,-371.5 83.5,-428.5 112.5,-428.5 112.5,-371.5 83.5,-371.5"/>
<text text-anchor="middle" x="98" y="-416.5" font-family="Helvetica,sans-Serif" font-size="10.00">int</text>
<polyline fill="none" stroke="black" points="83.5,-409.5 112.5,-409.5 "/>
<text text-anchor="middle" x="98" y="-397.5" font-family="Helvetica,sans-Serif" font-size="10.00"> </text>
<polyline fill="none" stroke="black" points="83.5,-390.5 112.5,-390.5 "/>
<text text-anchor="middle" x="98" y="-378.5" font-family="Helvetica,sans-Serif" font-size="10.00"> </text>
</a>
</g>
</g>
<!-- Node4&#45;&gt;Node1 -->
<g id="edge6" class="edge">
<title>Node4&#45;&gt;Node1</title>
<path fill="none" stroke="#404040" d="M90.6,-371.27C77.59,-319.42 52.45,-204.16 58,-106 58.46,-97.82 59.22,-89.13 60.1,-80.75"/>
<polygon fill="none" stroke="#404040" points="60.1,-80.71 56.8,-74.3 61.44,-68.79 64.75,-75.19 60.1,-80.71"/>
<text text-anchor="middle" x="82" y="-185" font-family="Helvetica,sans-Serif" font-size="10.00"> +gen_id</text>
</g>
<!-- Node4&#45;&gt;Node2 -->
<g id="edge5" class="edge">
<title>Node4&#45;&gt;Node2</title>
<path fill="none" stroke="#404040" d="M97.92,-371.48C98.14,-334.74 99.64,-267.71 107,-211 108.51,-199.36 110.88,-186.85 113.33,-175.45"/>
<polygon fill="none" stroke="#404040" points="113.36,-175.3 110.77,-168.57 115.99,-163.6 118.58,-170.33 113.36,-175.3"/>
<text text-anchor="middle" x="148" y="-259.5" font-family="Helvetica,sans-Serif" font-size="10.00"> +serial_number</text>
</g>
<!-- Node4&#45;&gt;Node3 -->
<g id="edge3" class="edge">
<title>Node4&#45;&gt;Node3</title>
<path fill="none" stroke="#404040" d="M108.5,-371.49C114.94,-357.75 124.39,-341.8 137,-331 153.99,-316.46 165.06,-324.9 184,-313 185.33,-312.17 186.65,-311.3 187.96,-310.4"/>
<polygon fill="none" stroke="#404040" points="188.25,-310.18 190.65,-303.38 197.85,-302.98 195.45,-309.78 188.25,-310.18"/>
<text text-anchor="middle" x="191.5" y="-345" font-family="Helvetica,sans-Serif" font-size="10.00"> +automatically_clear</text>
<text text-anchor="middle" x="191.5" y="-334" font-family="Helvetica,sans-Serif" font-size="10.00">+type</text>
</g>
<!-- Node5 -->
<g id="node5" class="node">
<title>Node5</title>
<g id="a_node5"><a xlink:title=" ">
<polygon fill="white" stroke="black" points="244,-371.5 244,-428.5 282,-428.5 282,-371.5 244,-371.5"/>
<text text-anchor="middle" x="263" y="-416.5" font-family="Helvetica,sans-Serif" font-size="10.00">long</text>
<polyline fill="none" stroke="black" points="244,-409.5 282,-409.5 "/>
<text text-anchor="middle" x="263" y="-397.5" font-family="Helvetica,sans-Serif" font-size="10.00"> </text>
<polyline fill="none" stroke="black" points="244,-390.5 282,-390.5 "/>
<text text-anchor="middle" x="263" y="-378.5" font-family="Helvetica,sans-Serif" font-size="10.00"> </text>
</a>
</g>
</g>
<!-- Node5&#45;&gt;Node3 -->
<g id="edge4" class="edge">
<title>Node5&#45;&gt;Node3</title>
<path fill="none" stroke="#404040" d="M257.74,-371.48C255.15,-357.93 251.91,-341 248.77,-324.58"/>
<polygon fill="none" stroke="#404040" points="248.77,-324.55 243.71,-319.41 246.51,-312.76 251.57,-317.91 248.77,-324.55"/>
<text text-anchor="middle" x="269.5" y="-339.5" font-family="Helvetica,sans-Serif" font-size="10.00"> +size</text>
</g>
</g>
</svg>
