<?xml version="1.0" encoding="UTF-8" standalone="no"?>
<!DOCTYPE svg PUBLIC "-//W3C//DTD SVG 1.1//EN"
 "http://www.w3.org/Graphics/SVG/1.1/DTD/svg11.dtd">
<!-- Generated by graphviz version 2.43.0 (0)
 -->
<!-- Title: EMC_TRAJ_SET_RAPID_SCALE Pages: 1 -->
<svg width="545pt" height="607pt"
 viewBox="0.00 0.00 545.00 607.00" xmlns="http://www.w3.org/2000/svg" xmlns:xlink="http://www.w3.org/1999/xlink">
<g id="graph0" class="graph" transform="scale(1 1) rotate(0) translate(4 603)">
<title>EMC_TRAJ_SET_RAPID_SCALE</title>
<polygon fill="white" stroke="transparent" points="-4,4 -4,-603 541,-603 541,4 -4,4"/>
<!-- Node1 -->
<g id="node1" class="node">
<title>Node1</title>
<g id="a_node1"><a xlink:title=" ">
<polygon fill="#bfbfbf" stroke="black" points="321,-0.5 321,-90.5 457,-90.5 457,-0.5 321,-0.5"/>
<text text-anchor="start" x="329" y="-78.5" font-family="Helvetica,sans-Serif" font-size="10.00">EMC_TRAJ_SET_RAPID</text>
<text text-anchor="middle" x="389" y="-67.5" font-family="Helvetica,sans-Serif" font-size="10.00">_SCALE</text>
<polyline fill="none" stroke="black" points="321,-60.5 457,-60.5 "/>
<text text-anchor="middle" x="389" y="-48.5" font-family="Helvetica,sans-Serif" font-size="10.00"> </text>
<polyline fill="none" stroke="black" points="321,-41.5 457,-41.5 "/>
<text text-anchor="start" x="329" y="-29.5" font-family="Helvetica,sans-Serif" font-size="10.00">+ EMC_TRAJ_SET_RAPID</text>
<text text-anchor="start" x="329" y="-18.5" font-family="Helvetica,sans-Serif" font-size="10.00">_SCALE()</text>
<text text-anchor="start" x="329" y="-7.5" font-family="Helvetica,sans-Serif" font-size="10.00">+ update()</text>
</a>
</g>
</g>
<!-- Node2 -->
<g id="node2" class="node">
<title>Node2</title>
<g id="a_node2"><a xlink:href="classEMC__TRAJ__CMD__MSG.html" target="_top" xlink:title=" ">
<polygon fill="white" stroke="black" points="261.5,-138.5 261.5,-206.5 402.5,-206.5 402.5,-138.5 261.5,-138.5"/>
<text text-anchor="middle" x="332" y="-194.5" font-family="Helvetica,sans-Serif" font-size="10.00">EMC_TRAJ_CMD_MSG</text>
<polyline fill="none" stroke="black" points="261.5,-187.5 402.5,-187.5 "/>
<text text-anchor="middle" x="332" y="-175.5" font-family="Helvetica,sans-Serif" font-size="10.00"> </text>
<polyline fill="none" stroke="black" points="261.5,-168.5 402.5,-168.5 "/>
<text text-anchor="start" x="269.5" y="-156.5" font-family="Helvetica,sans-Serif" font-size="10.00">+ EMC_TRAJ_CMD_MSG()</text>
<text text-anchor="start" x="269.5" y="-145.5" font-family="Helvetica,sans-Serif" font-size="10.00">+ update()</text>
</a>
</g>
</g>
<!-- Node2&#45;&gt;Node1 -->
<g id="edge1" class="edge">
<title>Node2&#45;&gt;Node1</title>
<path fill="none" stroke="midnightblue" d="M351.32,-129.12C356.97,-116.73 363.16,-103.16 368.86,-90.66"/>
<polygon fill="none" stroke="midnightblue" points="348.09,-127.78 347.13,-138.33 354.46,-130.68 348.09,-127.78"/>
</g>
<!-- Node3 -->
<g id="node3" class="node">
<title>Node3</title>
<g id="a_node3"><a xlink:href="classRCS__CMD__MSG.html" target="_top" xlink:title=" ">
<polygon fill="white" stroke="black" points="209.5,-271 209.5,-328 320.5,-328 320.5,-271 209.5,-271"/>
<text text-anchor="middle" x="265" y="-316" font-family="Helvetica,sans-Serif" font-size="10.00">RCS_CMD_MSG</text>
<polyline fill="none" stroke="black" points="209.5,-309 320.5,-309 "/>
<text text-anchor="middle" x="265" y="-297" font-family="Helvetica,sans-Serif" font-size="10.00"> </text>
<polyline fill="none" stroke="black" points="209.5,-290 320.5,-290 "/>
<text text-anchor="start" x="217.5" y="-278" font-family="Helvetica,sans-Serif" font-size="10.00">+ RCS_CMD_MSG()</text>
</a>
</g>
</g>
<!-- Node3&#45;&gt;Node2 -->
<g id="edge2" class="edge">
<title>Node3&#45;&gt;Node2</title>
<path fill="none" stroke="midnightblue" d="M284.82,-261.52C294.1,-244.22 305.05,-223.77 314.08,-206.94"/>
<polygon fill="none" stroke="midnightblue" points="281.51,-260.29 279.87,-270.76 287.68,-263.6 281.51,-260.29"/>
</g>
<!-- Node4 -->
<g id="node4" class="node">
<title>Node4</title>
<g id="a_node4"><a xlink:href="classNMLmsg.html" target="_top" xlink:title=" ">
<polygon fill="white" stroke="black" points="75,-392.5 75,-493.5 153,-493.5 153,-392.5 75,-392.5"/>
<text text-anchor="middle" x="114" y="-481.5" font-family="Helvetica,sans-Serif" font-size="10.00">NMLmsg</text>
<polyline fill="none" stroke="black" points="75,-474.5 153,-474.5 "/>
<text text-anchor="middle" x="114" y="-462.5" font-family="Helvetica,sans-Serif" font-size="10.00"> </text>
<polyline fill="none" stroke="black" points="75,-455.5 153,-455.5 "/>
<text text-anchor="start" x="83" y="-443.5" font-family="Helvetica,sans-Serif" font-size="10.00">+ clear()</text>
<text text-anchor="start" x="83" y="-432.5" font-family="Helvetica,sans-Serif" font-size="10.00">+ update()</text>
<text text-anchor="start" x="83" y="-421.5" font-family="Helvetica,sans-Serif" font-size="10.00"># NMLmsg()</text>
<text text-anchor="start" x="83" y="-410.5" font-family="Helvetica,sans-Serif" font-size="10.00"># NMLmsg()</text>
<text text-anchor="start" x="83" y="-399.5" font-family="Helvetica,sans-Serif" font-size="10.00"># NMLmsg()</text>
</a>
</g>
</g>
<!-- Node4&#45;&gt;Node3 -->
<g id="edge3" class="edge">
<title>Node4&#45;&gt;Node3</title>
<path fill="none" stroke="midnightblue" d="M160.68,-398.25C185.08,-375.39 214.19,-348.11 235.46,-328.18"/>
<polygon fill="none" stroke="midnightblue" points="158.18,-395.8 153.28,-405.19 162.97,-400.91 158.18,-395.8"/>
</g>
<!-- Node5 -->
<g id="node5" class="node">
<title>Node5</title>
<g id="a_node5"><a xlink:title=" ">
<polygon fill="white" stroke="black" points="250.5,-541.5 250.5,-598.5 279.5,-598.5 279.5,-541.5 250.5,-541.5"/>
<text text-anchor="middle" x="265" y="-586.5" font-family="Helvetica,sans-Serif" font-size="10.00">int</text>
<polyline fill="none" stroke="black" points="250.5,-579.5 279.5,-579.5 "/>
<text text-anchor="middle" x="265" y="-567.5" font-family="Helvetica,sans-Serif" font-size="10.00"> </text>
<polyline fill="none" stroke="black" points="250.5,-560.5 279.5,-560.5 "/>
<text text-anchor="middle" x="265" y="-548.5" font-family="Helvetica,sans-Serif" font-size="10.00"> </text>
</a>
</g>
</g>
<!-- Node5&#45;&gt;Node3 -->
<g id="edge7" class="edge">
<title>Node5&#45;&gt;Node3</title>
<path fill="none" stroke="#404040" d="M265,-541.28C265,-493.42 265,-395.16 265,-340.11"/>
<polygon fill="none" stroke="#404040" points="265,-340.07 261,-334.07 265,-328.07 269,-334.07 265,-340.07"/>
<text text-anchor="middle" x="306" y="-440.5" font-family="Helvetica,sans-Serif" font-size="10.00"> +serial_number</text>
</g>
<!-- Node5&#45;&gt;Node4 -->
<g id="edge4" class="edge">
<title>Node5&#45;&gt;Node4</title>
<path fill="none" stroke="#404040" d="M250.34,-567.51C224.85,-564.16 172.2,-553.73 142,-523 136.9,-517.81 132.73,-511.64 129.31,-505.07"/>
<polygon fill="none" stroke="#404040" points="129.14,-504.68 123.04,-500.84 124.25,-493.73 130.35,-497.57 129.14,-504.68"/>
<text text-anchor="middle" x="196.5" y="-515" font-family="Helvetica,sans-Serif" font-size="10.00"> +automatically_clear</text>
</g>
<!-- Node9 -->
<g id="node9" class="node">
<title>Node9</title>
<g id="a_node9"><a xlink:href="structstate__tag__t.html" target="_top" xlink:title=" ">
<polygon fill="white" stroke="black" points="365.5,-414.5 365.5,-471.5 436.5,-471.5 436.5,-414.5 365.5,-414.5"/>
<text text-anchor="middle" x="401" y="-459.5" font-family="Helvetica,sans-Serif" font-size="10.00">state_tag_t</text>
<polyline fill="none" stroke="black" points="365.5,-452.5 436.5,-452.5 "/>
<text text-anchor="middle" x="401" y="-440.5" font-family="Helvetica,sans-Serif" font-size="10.00"> </text>
<polyline fill="none" stroke="black" points="365.5,-433.5 436.5,-433.5 "/>
<text text-anchor="middle" x="401" y="-421.5" font-family="Helvetica,sans-Serif" font-size="10.00"> </text>
</a>
</g>
</g>
<!-- Node5&#45;&gt;Node9 -->
<g id="edge11" class="edge">
<title>Node5&#45;&gt;Node9</title>
<path fill="none" stroke="#404040" d="M279.57,-556.82C296.89,-542.22 326.53,-516.85 351,-494 355.77,-489.55 360.71,-484.79 365.55,-480.05"/>
<polygon fill="none" stroke="#404040" points="365.56,-480.03 367.01,-472.97 374.08,-471.59 372.64,-478.65 365.56,-480.03"/>
<text text-anchor="middle" x="350" y="-515" font-family="Helvetica,sans-Serif" font-size="10.00"> +fields</text>
</g>
<!-- Node6 -->
<g id="node6" class="node">
<title>Node6</title>
<g id="a_node6"><a xlink:title=" ">
<polygon fill="white" stroke="black" points="0,-541.5 0,-598.5 50,-598.5 50,-541.5 0,-541.5"/>
<text text-anchor="middle" x="25" y="-586.5" font-family="Helvetica,sans-Serif" font-size="10.00">int32_t</text>
<polyline fill="none" stroke="black" points="0,-579.5 50,-579.5 "/>
<text text-anchor="middle" x="25" y="-567.5" font-family="Helvetica,sans-Serif" font-size="10.00"> </text>
<polyline fill="none" stroke="black" points="0,-560.5 50,-560.5 "/>
<text text-anchor="middle" x="25" y="-548.5" font-family="Helvetica,sans-Serif" font-size="10.00"> </text>
</a>
</g>
</g>
<!-- Node6&#45;&gt;Node4 -->
<g id="edge5" class="edge">
<title>Node6&#45;&gt;Node4</title>
<path fill="none" stroke="#404040" d="M34.31,-541.3C38.16,-531.64 43.11,-520.98 49,-512 54.17,-504.13 60.3,-496.35 66.71,-489.03"/>
<polygon fill="none" stroke="#404040" points="66.83,-488.89 67.92,-481.76 74.92,-480.02 73.83,-487.15 66.83,-488.89"/>
<text text-anchor="middle" x="66" y="-515" font-family="Helvetica,sans-Serif" font-size="10.00"> +type</text>
</g>
<!-- Node7 -->
<g id="node7" class="node">
<title>Node7</title>
<g id="a_node7"><a xlink:title=" ">
<polygon fill="white" stroke="black" points="68,-541.5 68,-598.5 106,-598.5 106,-541.5 68,-541.5"/>
<text text-anchor="middle" x="87" y="-586.5" font-family="Helvetica,sans-Serif" font-size="10.00">long</text>
<polyline fill="none" stroke="black" points="68,-579.5 106,-579.5 "/>
<text text-anchor="middle" x="87" y="-567.5" font-family="Helvetica,sans-Serif" font-size="10.00"> </text>
<polyline fill="none" stroke="black" points="68,-560.5 106,-560.5 "/>
<text text-anchor="middle" x="87" y="-548.5" font-family="Helvetica,sans-Serif" font-size="10.00"> </text>
</a>
</g>
</g>
<!-- Node7&#45;&gt;Node4 -->
<g id="edge6" class="edge">
<title>Node7&#45;&gt;Node4</title>
<path fill="none" stroke="#404040" d="M85.56,-541.26C85.59,-531.89 86.17,-521.43 88,-512 88.44,-509.72 88.95,-507.42 89.52,-505.11"/>
<polygon fill="none" stroke="#404040" points="89.53,-505.1 87.32,-498.23 92.8,-493.55 95.01,-500.42 89.53,-505.1"/>
<text text-anchor="middle" x="103.5" y="-515" font-family="Helvetica,sans-Serif" font-size="10.00"> +size</text>
</g>
<!-- Node8 -->
<g id="node8" class="node">
<title>Node8</title>
<g id="a_node8"><a xlink:href="structStateTag.html" target="_top" xlink:title=" ">
<polygon fill="white" stroke="black" points="350,-254.5 350,-344.5 452,-344.5 452,-254.5 350,-254.5"/>
<text text-anchor="middle" x="401" y="-332.5" font-family="Helvetica,sans-Serif" font-size="10.00">StateTag</text>
<polyline fill="none" stroke="black" points="350,-325.5 452,-325.5 "/>
<text text-anchor="middle" x="401" y="-313.5" font-family="Helvetica,sans-Serif" font-size="10.00"> </text>
<polyline fill="none" stroke="black" points="350,-306.5 452,-306.5 "/>
<text text-anchor="start" x="358" y="-294.5" font-family="Helvetica,sans-Serif" font-size="10.00">+ StateTag()</text>
<text text-anchor="start" x="358" y="-283.5" font-family="Helvetica,sans-Serif" font-size="10.00">+ StateTag()</text>
<text text-anchor="start" x="358" y="-272.5" font-family="Helvetica,sans-Serif" font-size="10.00">+ is_valid()</text>
<text text-anchor="start" x="358" y="-261.5" font-family="Helvetica,sans-Serif" font-size="10.00">+ get_state_tag()</text>
</a>
</g>
</g>
<!-- Node8&#45;&gt;Node2 -->
<g id="edge8" class="edge">
<title>Node8&#45;&gt;Node2</title>
<path fill="none" stroke="#404040" d="M376.67,-254.43C370.02,-242.38 362.81,-229.32 356.17,-217.28"/>
<polygon fill="none" stroke="#404040" points="356.05,-217.07 349.65,-213.75 350.25,-206.57 356.65,-209.89 356.05,-217.07"/>
<text text-anchor="middle" x="381" y="-228" font-family="Helvetica,sans-Serif" font-size="10.00"> +tag</text>
</g>
<!-- Node9&#45;&gt;Node8 -->
<g id="edge9" class="edge">
<title>Node9&#45;&gt;Node8</title>
<path fill="none" stroke="midnightblue" d="M401,-404.36C401,-386.04 401,-363.89 401,-344.75"/>
<polygon fill="none" stroke="midnightblue" points="397.5,-404.38 401,-414.38 404.5,-404.38 397.5,-404.38"/>
</g>
<!-- Node10 -->
<g id="node10" class="node">
<title>Node10</title>
<g id="a_node10"><a xlink:title=" ">
<polygon fill="white" stroke="black" points="372,-541.5 372,-598.5 410,-598.5 410,-541.5 372,-541.5"/>
<text text-anchor="middle" x="391" y="-586.5" font-family="Helvetica,sans-Serif" font-size="10.00">float</text>
<polyline fill="none" stroke="black" points="372,-579.5 410,-579.5 "/>
<text text-anchor="middle" x="391" y="-567.5" font-family="Helvetica,sans-Serif" font-size="10.00"> </text>
<polyline fill="none" stroke="black" points="372,-560.5 410,-560.5 "/>
<text text-anchor="middle" x="391" y="-548.5" font-family="Helvetica,sans-Serif" font-size="10.00"> </text>
</a>
</g>
</g>
<!-- Node10&#45;&gt;Node9 -->
<g id="edge10" class="edge">
<title>Node10&#45;&gt;Node9</title>
<path fill="none" stroke="#404040" d="M390.85,-541.43C390.97,-532.08 391.28,-521.57 392,-512 392.68,-502.86 393.77,-493.06 394.95,-483.83"/>
<polygon fill="none" stroke="#404040" points="394.99,-483.61 391.83,-477.12 396.6,-471.72 399.76,-478.2 394.99,-483.61"/>
<text text-anchor="middle" x="424.5" y="-515" font-family="Helvetica,sans-Serif" font-size="10.00"> +fields_float</text>
</g>
<!-- Node11 -->
<g id="node11" class="node">
<title>Node11</title>
<g id="a_node11"><a xlink:title=" ">
<polygon fill="white" stroke="black" points="448.5,-541.5 448.5,-598.5 509.5,-598.5 509.5,-541.5 448.5,-541.5"/>
<text text-anchor="middle" x="479" y="-586.5" font-family="Helvetica,sans-Serif" font-size="10.00">unsigned</text>
<polyline fill="none" stroke="black" points="448.5,-579.5 509.5,-579.5 "/>
<text text-anchor="middle" x="479" y="-567.5" font-family="Helvetica,sans-Serif" font-size="10.00"> </text>
<polyline fill="none" stroke="black" points="448.5,-560.5 509.5,-560.5 "/>
<text text-anchor="middle" x="479" y="-548.5" font-family="Helvetica,sans-Serif" font-size="10.00"> </text>
</a>
</g>
</g>
<!-- Node11&#45;&gt;Node9 -->
<g id="edge12" class="edge">
<title>Node11&#45;&gt;Node9</title>
<path fill="none" stroke="#404040" d="M470.3,-541.21C466.79,-531.65 462.3,-521.07 457,-512 450.75,-501.3 442.85,-490.57 434.97,-480.89"/>
<polygon fill="none" stroke="#404040" points="434.88,-480.79 427.96,-478.77 427.16,-471.6 434.08,-473.62 434.88,-480.79"/>
<text text-anchor="middle" x="499.5" y="-515" font-family="Helvetica,sans-Serif" font-size="10.00"> +packed_flags</text>
</g>
<!-- Node12 -->
<g id="node12" class="node">
<title>Node12</title>
<g id="a_node12"><a xlink:title=" ">
<polygon fill="white" stroke="black" points="454.5,-414.5 454.5,-471.5 533.5,-471.5 533.5,-414.5 454.5,-414.5"/>
<text text-anchor="middle" x="494" y="-459.5" font-family="Helvetica,sans-Serif" font-size="10.00">bitset&lt; 64 &gt;</text>
<polyline fill="none" stroke="black" points="454.5,-452.5 533.5,-452.5 "/>
<text text-anchor="middle" x="494" y="-440.5" font-family="Helvetica,sans-Serif" font-size="10.00"> </text>
<polyline fill="none" stroke="black" points="454.5,-433.5 533.5,-433.5 "/>
<text text-anchor="middle" x="494" y="-421.5" font-family="Helvetica,sans-Serif" font-size="10.00"> </text>
</a>
</g>
</g>
<!-- Node12&#45;&gt;Node8 -->
<g id="edge13" class="edge">
<title>Node12&#45;&gt;Node8</title>
<path fill="none" stroke="#404040" d="M475.85,-414.38C464.72,-397.46 450.1,-375.2 436.73,-354.86"/>
<polygon fill="none" stroke="#404040" points="436.68,-354.78 430.04,-351.97 430.09,-344.75 436.72,-347.57 436.68,-354.78"/>
<text text-anchor="middle" x="464.5" y="-366" font-family="Helvetica,sans-Serif" font-size="10.00"> +flags</text>
</g>
<!-- Node13 -->
<g id="node13" class="node">
<title>Node13</title>
<g id="a_node13"><a xlink:title=" ">
<polygon fill="white" stroke="black" points="421,-144 421,-201 471,-201 471,-144 421,-144"/>
<text text-anchor="middle" x="446" y="-189" font-family="Helvetica,sans-Serif" font-size="10.00">double</text>
<polyline fill="none" stroke="black" points="421,-182 471,-182 "/>
<text text-anchor="middle" x="446" y="-170" font-family="Helvetica,sans-Serif" font-size="10.00"> </text>
<polyline fill="none" stroke="black" points="421,-163 471,-163 "/>
<text text-anchor="middle" x="446" y="-151" font-family="Helvetica,sans-Serif" font-size="10.00"> </text>
</a>
</g>
</g>
<!-- Node13&#45;&gt;Node1 -->
<g id="edge14" class="edge">
<title>Node13&#45;&gt;Node1</title>
<path fill="none" stroke="#404040" d="M433.35,-143.76C427.7,-131.38 420.84,-116.33 414.22,-101.81"/>
<polygon fill="none" stroke="#404040" points="414.21,-101.77 408.08,-97.98 409.23,-90.86 415.36,-94.66 414.21,-101.77"/>
<text text-anchor="middle" x="438.5" y="-112" font-family="Helvetica,sans-Serif" font-size="10.00"> +scale</text>
</g>
</g>
</svg>
