<?xml version="1.0" encoding="UTF-8" standalone="no"?>
<!DOCTYPE svg PUBLIC "-//W3C//DTD SVG 1.1//EN"
 "http://www.w3.org/Graphics/SVG/1.1/DTD/svg11.dtd">
<!-- Generated by graphviz version 2.43.0 (0)
 -->
<!-- Title: EMC_JOINT_DEACTIVATE Pages: 1 -->
<!--zoomable 543 -->
<svg id="main" version="1.1" xmlns="http://www.w3.org/2000/svg" xmlns:xlink="http://www.w3.org/1999/xlink" xml:space="preserve" onload="init(evt)">
<style type="text/css"><![CDATA[
.edge:hover path { stroke: red; }
.edge:hover polygon { stroke: red; fill: red; }
]]></style>
<script type="text/javascript"><![CDATA[
var edges = document.getElementsByTagName('g');
if (edges && edges.length) {
  for (var i=0;i<edges.length;i++) {
    if (edges[i].id.substr(0,4)=='edge') {
      edges[i].setAttribute('class','edge');
    }
  }
}
]]></script>
        <defs>
                <circle id="rim" cx="0" cy="0" r="7"/>
                <circle id="rim2" cx="0" cy="0" r="3.5"/>
                <g id="zoomPlus">
                        <use xlink:href="#rim" fill="#404040">
                                <set attributeName="fill" to="#808080" begin="zoomplus.mouseover" end="zoomplus.mouseout"/>
                        </use>
                        <path d="M-4,0h8M0,-4v8" fill="none" stroke="white" stroke-width="1.5" pointer-events="none"/>
                </g>
                <g id="zoomMin">
                        <use xlink:href="#rim" fill="#404040">
                                <set attributeName="fill" to="#808080" begin="zoomminus.mouseover" end="zoomminus.mouseout"/>
                        </use>
                        <path d="M-4,0h8" fill="none" stroke="white" stroke-width="1.5" pointer-events="none"/>
                </g>
                <g id="dirArrow">
                        <path fill="none" stroke="white" stroke-width="1.5" d="M0,-3.0v7 M-2.5,-0.5L0,-3.0L2.5,-0.5"/>
                </g>
               <g id="resetDef">
                       <use xlink:href="#rim2" fill="#404040">
                               <set attributeName="fill" to="#808080" begin="reset.mouseover" end="reset.mouseout"/>
                       </use>
               </g>
        </defs>

<script type="text/javascript">
var viewWidth = 295;
var viewHeight = 543;
var sectionId = 'dynsection-1';
</script>
<script xlink:href="svgpan.js"/>
<svg id="graph" class="graph">
<g id="viewport">
<title>EMC_JOINT_DEACTIVATE</title>
<polygon fill="white" stroke="transparent" points="-4,4 -4,-539 290.5,-539 290.5,4 -4,4"/>
<!-- Node1 -->
<g id="node1" class="node">
<title>Node1</title>
<g id="a_node1"><a xlink:title=" ">
<polygon fill="#bfbfbf" stroke="black" points="0,-0.5 0,-68.5 155,-68.5 155,-0.5 0,-0.5"/>
<text text-anchor="middle" x="77.5" y="-56.5" font-family="Helvetica,sans-Serif" font-size="10.00">EMC_JOINT_DEACTIVATE</text>
<polyline fill="none" stroke="black" points="0,-49.5 155,-49.5 "/>
<text text-anchor="middle" x="77.5" y="-37.5" font-family="Helvetica,sans-Serif" font-size="10.00"> </text>
<polyline fill="none" stroke="black" points="0,-30.5 155,-30.5 "/>
<text text-anchor="start" x="8" y="-18.5" font-family="Helvetica,sans-Serif" font-size="10.00">+ EMC_JOINT_DEACTIVATE()</text>
<text text-anchor="start" x="8" y="-7.5" font-family="Helvetica,sans-Serif" font-size="10.00">+ update()</text>
</a>
</g>
</g>
<!-- Node2 -->
<g id="node2" class="node">
<title>Node2</title>
<g id="a_node2"><a xlink:href="classEMC__JOINT__CMD__MSG.html" target="_top" xlink:title=" ">
<polygon fill="white" stroke="black" points="4.5,-106.5 4.5,-174.5 150.5,-174.5 150.5,-106.5 4.5,-106.5"/>
<text text-anchor="middle" x="77.5" y="-162.5" font-family="Helvetica,sans-Serif" font-size="10.00">EMC_JOINT_CMD_MSG</text>
<polyline fill="none" stroke="black" points="4.5,-155.5 150.5,-155.5 "/>
<text text-anchor="middle" x="77.5" y="-143.5" font-family="Helvetica,sans-Serif" font-size="10.00"> </text>
<polyline fill="none" stroke="black" points="4.5,-136.5 150.5,-136.5 "/>
<text text-anchor="start" x="12.5" y="-124.5" font-family="Helvetica,sans-Serif" font-size="10.00">+ EMC_JOINT_CMD_MSG()</text>
<text text-anchor="start" x="12.5" y="-113.5" font-family="Helvetica,sans-Serif" font-size="10.00">+ update()</text>
</a>
</g>
</g>
<!-- Node2&#45;&gt;Node1 -->
<g id="edge1" class="edge">
<title>Node2&#45;&gt;Node1</title>
<path fill="none" stroke="midnightblue" d="M77.5,-96.17C77.5,-87 77.5,-77.46 77.5,-68.73"/>
<polygon fill="none" stroke="midnightblue" points="74,-96.31 77.5,-106.31 81,-96.31 74,-96.31"/>
</g>
<!-- Node3 -->
<g id="node3" class="node">
<title>Node3</title>
<g id="a_node3"><a xlink:href="classRCS__CMD__MSG.html" target="_top" xlink:title=" ">
<polygon fill="white" stroke="black" points="79,-212.5 79,-269.5 190,-269.5 190,-212.5 79,-212.5"/>
<text text-anchor="middle" x="134.5" y="-257.5" font-family="Helvetica,sans-Serif" font-size="10.00">RCS_CMD_MSG</text>
<polyline fill="none" stroke="black" points="79,-250.5 190,-250.5 "/>
<text text-anchor="middle" x="134.5" y="-238.5" font-family="Helvetica,sans-Serif" font-size="10.00"> </text>
<polyline fill="none" stroke="black" points="79,-231.5 190,-231.5 "/>
<text text-anchor="start" x="87" y="-219.5" font-family="Helvetica,sans-Serif" font-size="10.00">+ RCS_CMD_MSG()</text>
</a>
</g>
</g>
<!-- Node3&#45;&gt;Node2 -->
<g id="edge2" class="edge">
<title>Node3&#45;&gt;Node2</title>
<path fill="none" stroke="midnightblue" d="M113.36,-203.48C107.88,-194.01 102.01,-183.86 96.64,-174.58"/>
<polygon fill="none" stroke="midnightblue" points="110.43,-205.4 118.47,-212.3 116.49,-201.89 110.43,-205.4"/>
</g>
<!-- Node4 -->
<g id="node4" class="node">
<title>Node4</title>
<g id="a_node4"><a xlink:href="classNMLmsg.html" target="_top" xlink:title=" ">
<polygon fill="white" stroke="black" points="199.5,-317.5 199.5,-418.5 277.5,-418.5 277.5,-317.5 199.5,-317.5"/>
<text text-anchor="middle" x="238.5" y="-406.5" font-family="Helvetica,sans-Serif" font-size="10.00">NMLmsg</text>
<polyline fill="none" stroke="black" points="199.5,-399.5 277.5,-399.5 "/>
<text text-anchor="middle" x="238.5" y="-387.5" font-family="Helvetica,sans-Serif" font-size="10.00"> </text>
<polyline fill="none" stroke="black" points="199.5,-380.5 277.5,-380.5 "/>
<text text-anchor="start" x="207.5" y="-368.5" font-family="Helvetica,sans-Serif" font-size="10.00">+ clear()</text>
<text text-anchor="start" x="207.5" y="-357.5" font-family="Helvetica,sans-Serif" font-size="10.00">+ update()</text>
<text text-anchor="start" x="207.5" y="-346.5" font-family="Helvetica,sans-Serif" font-size="10.00"># NMLmsg()</text>
<text text-anchor="start" x="207.5" y="-335.5" font-family="Helvetica,sans-Serif" font-size="10.00"># NMLmsg()</text>
<text text-anchor="start" x="207.5" y="-324.5" font-family="Helvetica,sans-Serif" font-size="10.00"># NMLmsg()</text>
</a>
</g>
</g>
<!-- Node4&#45;&gt;Node3 -->
<g id="edge3" class="edge">
<title>Node4&#45;&gt;Node3</title>
<path fill="none" stroke="midnightblue" d="M192.75,-312.01C180.52,-297.31 167.82,-282.05 157.41,-269.54"/>
<polygon fill="none" stroke="midnightblue" points="190.39,-314.65 199.48,-320.1 195.77,-310.17 190.39,-314.65"/>
</g>
<!-- Node5 -->
<g id="node5" class="node">
<title>Node5</title>
<g id="a_node5"><a xlink:title=" ">
<polygon fill="white" stroke="black" points="85,-477.5 85,-534.5 114,-534.5 114,-477.5 85,-477.5"/>
<text text-anchor="middle" x="99.5" y="-522.5" font-family="Helvetica,sans-Serif" font-size="10.00">int</text>
<polyline fill="none" stroke="black" points="85,-515.5 114,-515.5 "/>
<text text-anchor="middle" x="99.5" y="-503.5" font-family="Helvetica,sans-Serif" font-size="10.00"> </text>
<polyline fill="none" stroke="black" points="85,-496.5 114,-496.5 "/>
<text text-anchor="middle" x="99.5" y="-484.5" font-family="Helvetica,sans-Serif" font-size="10.00"> </text>
</a>
</g>
</g>
<!-- Node5&#45;&gt;Node2 -->
<g id="edge7" class="edge">
<title>Node5&#45;&gt;Node2</title>
<path fill="none" stroke="#404040" d="M93.69,-477.19C83.5,-425.22 63.97,-309.77 69.5,-212 69.96,-203.82 70.72,-195.13 71.6,-186.75"/>
<polygon fill="none" stroke="#404040" points="71.6,-186.71 68.3,-180.3 72.94,-174.79 76.25,-181.19 71.6,-186.71"/>
<text text-anchor="middle" x="87.5" y="-291" font-family="Helvetica,sans-Serif" font-size="10.00"> +joint</text>
</g>
<!-- Node5&#45;&gt;Node3 -->
<g id="edge6" class="edge">
<title>Node5&#45;&gt;Node3</title>
<path fill="none" stroke="#404040" d="M98.38,-477.31C97.43,-440.38 97.66,-373.15 108.5,-317 110.81,-305.05 114.62,-292.42 118.62,-281"/>
<polygon fill="none" stroke="#404040" points="118.66,-280.88 116.98,-273.87 122.8,-269.61 124.49,-276.63 118.66,-280.88"/>
<text text-anchor="middle" x="149.5" y="-365.5" font-family="Helvetica,sans-Serif" font-size="10.00"> +serial_number</text>
</g>
<!-- Node5&#45;&gt;Node4 -->
<g id="edge4" class="edge">
<title>Node5&#45;&gt;Node4</title>
<path fill="none" stroke="#404040" d="M110,-477.49C116.44,-463.75 125.89,-447.8 138.5,-437 155.49,-422.46 166.56,-430.9 185.5,-419 186.83,-418.17 188.15,-417.3 189.46,-416.4"/>
<polygon fill="none" stroke="#404040" points="189.75,-416.18 192.15,-409.38 199.35,-408.98 196.95,-415.78 189.75,-416.18"/>
<text text-anchor="middle" x="193" y="-451" font-family="Helvetica,sans-Serif" font-size="10.00"> +automatically_clear</text>
<text text-anchor="middle" x="193" y="-440" font-family="Helvetica,sans-Serif" font-size="10.00">+type</text>
</g>
<!-- Node6 -->
<g id="node6" class="node">
<title>Node6</title>
<g id="a_node6"><a xlink:title=" ">
<polygon fill="white" stroke="black" points="245.5,-477.5 245.5,-534.5 283.5,-534.5 283.5,-477.5 245.5,-477.5"/>
<text text-anchor="middle" x="264.5" y="-522.5" font-family="Helvetica,sans-Serif" font-size="10.00">long</text>
<polyline fill="none" stroke="black" points="245.5,-515.5 283.5,-515.5 "/>
<text text-anchor="middle" x="264.5" y="-503.5" font-family="Helvetica,sans-Serif" font-size="10.00"> </text>
<polyline fill="none" stroke="black" points="245.5,-496.5 283.5,-496.5 "/>
<text text-anchor="middle" x="264.5" y="-484.5" font-family="Helvetica,sans-Serif" font-size="10.00"> </text>
</a>
</g>
</g>
<!-- Node6&#45;&gt;Node4 -->
<g id="edge5" class="edge">
<title>Node6&#45;&gt;Node4</title>
<path fill="none" stroke="#404040" d="M259.24,-477.48C256.65,-463.93 253.41,-447 250.27,-430.58"/>
<polygon fill="none" stroke="#404040" points="250.27,-430.55 245.21,-425.41 248.01,-418.76 253.07,-423.91 250.27,-430.55"/>
<text text-anchor="middle" x="271" y="-445.5" font-family="Helvetica,sans-Serif" font-size="10.00"> +size</text>
</g>
</g>
</svg>
        <g id="navigator" transform="translate(0 0)" fill="#404254">
                <rect fill="#f2f5e9" fill-opacity="0.5" stroke="#606060" stroke-width=".5" x="0" y="0" width="60" height="60"/>
                <use id="zoomplus" xlink:href="#zoomPlus" x="17" y="9" onmousedown="handleZoom(evt,'in')"/>
                <use id="zoomminus" xlink:href="#zoomMin" x="42" y="9" onmousedown="handleZoom(evt,'out')"/>
                <use id="reset" xlink:href="#resetDef" x="30" y="36" onmousedown="handleReset()"/>
                <g id="arrowUp" xlink:href="#dirArrow" transform="translate(30 24)" onmousedown="handlePan(0,-1)">
                  <use xlink:href="#rim" fill="#404040">
                        <set attributeName="fill" to="#808080" begin="arrowUp.mouseover" end="arrowUp.mouseout"/>
                  </use>
                  <path fill="none" stroke="white" stroke-width="1.5" d="M0,-3.0v7 M-2.5,-0.5L0,-3.0L2.5,-0.5"/>
                </g>
                <g id="arrowRight" xlink:href="#dirArrow" transform="rotate(90) translate(36 -43)" onmousedown="handlePan(1,0)">
                  <use xlink:href="#rim" fill="#404040">
                        <set attributeName="fill" to="#808080" begin="arrowRight.mouseover" end="arrowRight.mouseout"/>
                  </use>
                  <path fill="none" stroke="white" stroke-width="1.5" d="M0,-3.0v7 M-2.5,-0.5L0,-3.0L2.5,-0.5"/>
                </g>
                <g id="arrowDown" xlink:href="#dirArrow" transform="rotate(180) translate(-30 -48)" onmousedown="handlePan(0,1)">
                  <use xlink:href="#rim" fill="#404040">
                        <set attributeName="fill" to="#808080" begin="arrowDown.mouseover" end="arrowDown.mouseout"/>
                  </use>
                  <path fill="none" stroke="white" stroke-width="1.5" d="M0,-3.0v7 M-2.5,-0.5L0,-3.0L2.5,-0.5"/>
                </g>
                <g id="arrowLeft" xlink:href="#dirArrow" transform="rotate(270) translate(-36 17)" onmousedown="handlePan(-1,0)">
                  <use xlink:href="#rim" fill="#404040">
                        <set attributeName="fill" to="#808080" begin="arrowLeft.mouseover" end="arrowLeft.mouseout"/>
                  </use>
                  <path fill="none" stroke="white" stroke-width="1.5" d="M0,-3.0v7 M-2.5,-0.5L0,-3.0L2.5,-0.5"/>
                </g>
        </g>
        <svg viewBox="0 0 15 15" width="100%" height="30px" preserveAspectRatio="xMaxYMin meet">
         <g id="arrow_out" transform="scale(0.3 0.3)">
          <a xlink:href="classEMC__JOINT__DEACTIVATE__coll__graph_org.svg" target="_base">
           <rect id="button" ry="5" rx="5" y="6" x="6" height="38" width="38"
                fill="#f2f5e9" fill-opacity="0.5" stroke="#606060" stroke-width="1.0"/>
           <path id="arrow"
             d="M 11.500037,31.436501 C 11.940474,20.09759 22.043105,11.32322 32.158766,21.979434 L 37.068811,17.246167 C 37.068811,17.246167 37.088388,32 37.088388,32 L 22.160133,31.978069 C 22.160133,31.978069 26.997745,27.140456 26.997745,27.140456 C 18.528582,18.264221 13.291696,25.230495 11.500037,31.436501 z"
             style="fill:#404040;"/>
          </a>
         </g>
        </svg>
</svg>
