<?xml version="1.0" encoding="UTF-8" standalone="no"?>
<!DOCTYPE svg PUBLIC "-//W3C//DTD SVG 1.1//EN"
 "http://www.w3.org/Graphics/SVG/1.1/DTD/svg11.dtd">
<!-- Generated by graphviz version 2.43.0 (0)
 -->
<!-- Title: EMC_JOINT_ABORT Pages: 1 -->
<svg width="349pt" height="532pt"
 viewBox="0.00 0.00 349.00 532.00" xmlns="http://www.w3.org/2000/svg" xmlns:xlink="http://www.w3.org/1999/xlink">
<g id="graph0" class="graph" transform="scale(1 1) rotate(0) translate(4 528)">
<title>EMC_JOINT_ABORT</title>
<polygon fill="white" stroke="transparent" points="-4,4 -4,-528 345,-528 345,4 -4,4"/>
<!-- Node1 -->
<g id="node1" class="node">
<title>Node1</title>
<g id="a_node1"><a xlink:title=" ">
<polygon fill="#bfbfbf" stroke="black" points="9,-0.5 9,-68.5 137,-68.5 137,-0.5 9,-0.5"/>
<text text-anchor="middle" x="73" y="-56.5" font-family="Helvetica,sans-Serif" font-size="10.00">EMC_JOINT_ABORT</text>
<polyline fill="none" stroke="black" points="9,-49.5 137,-49.5 "/>
<text text-anchor="middle" x="73" y="-37.5" font-family="Helvetica,sans-Serif" font-size="10.00"> </text>
<polyline fill="none" stroke="black" points="9,-30.5 137,-30.5 "/>
<text text-anchor="start" x="17" y="-18.5" font-family="Helvetica,sans-Serif" font-size="10.00">+ EMC_JOINT_ABORT()</text>
<text text-anchor="start" x="17" y="-7.5" font-family="Helvetica,sans-Serif" font-size="10.00">+ update()</text>
</a>
</g>
</g>
<!-- Node2 -->
<g id="node2" class="node">
<title>Node2</title>
<g id="a_node2"><a xlink:href="classEMC__JOINT__CMD__MSG.html" target="_top" xlink:title=" ">
<polygon fill="white" stroke="black" points="0,-106.5 0,-174.5 146,-174.5 146,-106.5 0,-106.5"/>
<text text-anchor="middle" x="73" y="-162.5" font-family="Helvetica,sans-Serif" font-size="10.00">EMC_JOINT_CMD_MSG</text>
<polyline fill="none" stroke="black" points="0,-155.5 146,-155.5 "/>
<text text-anchor="middle" x="73" y="-143.5" font-family="Helvetica,sans-Serif" font-size="10.00"> </text>
<polyline fill="none" stroke="black" points="0,-136.5 146,-136.5 "/>
<text text-anchor="start" x="8" y="-124.5" font-family="Helvetica,sans-Serif" font-size="10.00">+ EMC_JOINT_CMD_MSG()</text>
<text text-anchor="start" x="8" y="-113.5" font-family="Helvetica,sans-Serif" font-size="10.00">+ update()</text>
</a>
</g>
</g>
<!-- Node2&#45;&gt;Node1 -->
<g id="edge1" class="edge">
<title>Node2&#45;&gt;Node1</title>
<path fill="none" stroke="midnightblue" d="M73,-96.17C73,-87 73,-77.46 73,-68.73"/>
<polygon fill="none" stroke="midnightblue" points="69.5,-96.31 73,-106.31 76.5,-96.31 69.5,-96.31"/>
</g>
<!-- Node3 -->
<g id="node3" class="node">
<title>Node3</title>
<g id="a_node3"><a xlink:href="classRCS__CMD__MSG.html" target="_top" xlink:title=" ">
<polygon fill="white" stroke="black" points="74.5,-212.5 74.5,-269.5 185.5,-269.5 185.5,-212.5 74.5,-212.5"/>
<text text-anchor="middle" x="130" y="-257.5" font-family="Helvetica,sans-Serif" font-size="10.00">RCS_CMD_MSG</text>
<polyline fill="none" stroke="black" points="74.5,-250.5 185.5,-250.5 "/>
<text text-anchor="middle" x="130" y="-238.5" font-family="Helvetica,sans-Serif" font-size="10.00"> </text>
<polyline fill="none" stroke="black" points="74.5,-231.5 185.5,-231.5 "/>
<text text-anchor="start" x="82.5" y="-219.5" font-family="Helvetica,sans-Serif" font-size="10.00">+ RCS_CMD_MSG()</text>
</a>
</g>
</g>
<!-- Node3&#45;&gt;Node2 -->
<g id="edge2" class="edge">
<title>Node3&#45;&gt;Node2</title>
<path fill="none" stroke="midnightblue" d="M108.86,-203.48C103.38,-194.01 97.51,-183.86 92.14,-174.58"/>
<polygon fill="none" stroke="midnightblue" points="105.93,-205.4 113.97,-212.3 111.99,-201.89 105.93,-205.4"/>
</g>
<!-- Node4 -->
<g id="node4" class="node">
<title>Node4</title>
<g id="a_node4"><a xlink:href="classNMLmsg.html" target="_top" xlink:title=" ">
<polygon fill="white" stroke="black" points="208,-317.5 208,-418.5 286,-418.5 286,-317.5 208,-317.5"/>
<text text-anchor="middle" x="247" y="-406.5" font-family="Helvetica,sans-Serif" font-size="10.00">NMLmsg</text>
<polyline fill="none" stroke="black" points="208,-399.5 286,-399.5 "/>
<text text-anchor="middle" x="247" y="-387.5" font-family="Helvetica,sans-Serif" font-size="10.00"> </text>
<polyline fill="none" stroke="black" points="208,-380.5 286,-380.5 "/>
<text text-anchor="start" x="216" y="-368.5" font-family="Helvetica,sans-Serif" font-size="10.00">+ clear()</text>
<text text-anchor="start" x="216" y="-357.5" font-family="Helvetica,sans-Serif" font-size="10.00">+ update()</text>
<text text-anchor="start" x="216" y="-346.5" font-family="Helvetica,sans-Serif" font-size="10.00"># NMLmsg()</text>
<text text-anchor="start" x="216" y="-335.5" font-family="Helvetica,sans-Serif" font-size="10.00"># NMLmsg()</text>
<text text-anchor="start" x="216" y="-324.5" font-family="Helvetica,sans-Serif" font-size="10.00"># NMLmsg()</text>
</a>
</g>
</g>
<!-- Node4&#45;&gt;Node3 -->
<g id="edge3" class="edge">
<title>Node4&#45;&gt;Node3</title>
<path fill="none" stroke="midnightblue" d="M200.78,-317.62C185.46,-301.25 168.96,-283.63 155.76,-269.52"/>
<polygon fill="none" stroke="midnightblue" points="198.33,-320.12 207.72,-325.03 203.44,-315.34 198.33,-320.12"/>
</g>
<!-- Node5 -->
<g id="node5" class="node">
<title>Node5</title>
<g id="a_node5"><a xlink:title=" ">
<polygon fill="white" stroke="black" points="80.5,-466.5 80.5,-523.5 109.5,-523.5 109.5,-466.5 80.5,-466.5"/>
<text text-anchor="middle" x="95" y="-511.5" font-family="Helvetica,sans-Serif" font-size="10.00">int</text>
<polyline fill="none" stroke="black" points="80.5,-504.5 109.5,-504.5 "/>
<text text-anchor="middle" x="95" y="-492.5" font-family="Helvetica,sans-Serif" font-size="10.00"> </text>
<polyline fill="none" stroke="black" points="80.5,-485.5 109.5,-485.5 "/>
<text text-anchor="middle" x="95" y="-473.5" font-family="Helvetica,sans-Serif" font-size="10.00"> </text>
</a>
</g>
</g>
<!-- Node5&#45;&gt;Node2 -->
<g id="edge8" class="edge">
<title>Node5&#45;&gt;Node2</title>
<path fill="none" stroke="#404040" d="M89.07,-466.45C78.9,-416.07 59.7,-305.64 65,-212 65.46,-203.82 66.22,-195.13 67.1,-186.75"/>
<polygon fill="none" stroke="#404040" points="67.1,-186.71 63.8,-180.3 68.44,-174.79 71.75,-181.19 67.1,-186.71"/>
<text text-anchor="middle" x="83" y="-291" font-family="Helvetica,sans-Serif" font-size="10.00"> +joint</text>
</g>
<!-- Node5&#45;&gt;Node3 -->
<g id="edge7" class="edge">
<title>Node5&#45;&gt;Node3</title>
<path fill="none" stroke="#404040" d="M98.02,-466.35C101.93,-431.47 109.16,-369.68 117,-317 118.71,-305.48 120.79,-293.01 122.77,-281.6"/>
<polygon fill="none" stroke="#404040" points="122.78,-281.55 119.88,-274.94 124.87,-269.73 127.76,-276.33 122.78,-281.55"/>
<text text-anchor="middle" x="158" y="-365.5" font-family="Helvetica,sans-Serif" font-size="10.00"> +serial_number</text>
</g>
<!-- Node5&#45;&gt;Node4 -->
<g id="edge4" class="edge">
<title>Node5&#45;&gt;Node4</title>
<path fill="none" stroke="#404040" d="M109.56,-471.91C117.98,-460.39 129.4,-446.71 142,-437 157.12,-425.34 164.63,-428.82 181,-419 186.62,-415.63 192.34,-411.87 197.94,-407.97"/>
<polygon fill="none" stroke="#404040" points="198.09,-407.85 200.63,-401.1 207.83,-400.85 205.3,-407.6 198.09,-407.85"/>
<text text-anchor="middle" x="196.5" y="-440" font-family="Helvetica,sans-Serif" font-size="10.00"> +automatically_clear</text>
</g>
<!-- Node6 -->
<g id="node6" class="node">
<title>Node6</title>
<g id="a_node6"><a xlink:title=" ">
<polygon fill="white" stroke="black" points="235,-466.5 235,-523.5 285,-523.5 285,-466.5 235,-466.5"/>
<text text-anchor="middle" x="260" y="-511.5" font-family="Helvetica,sans-Serif" font-size="10.00">int32_t</text>
<polyline fill="none" stroke="black" points="235,-504.5 285,-504.5 "/>
<text text-anchor="middle" x="260" y="-492.5" font-family="Helvetica,sans-Serif" font-size="10.00"> </text>
<polyline fill="none" stroke="black" points="235,-485.5 285,-485.5 "/>
<text text-anchor="middle" x="260" y="-473.5" font-family="Helvetica,sans-Serif" font-size="10.00"> </text>
</a>
</g>
</g>
<!-- Node6&#45;&gt;Node4 -->
<g id="edge5" class="edge">
<title>Node6&#45;&gt;Node4</title>
<path fill="none" stroke="#404040" d="M257.11,-466.26C256.03,-455.79 254.74,-443.42 253.46,-431.07"/>
<polygon fill="none" stroke="#404040" points="253.42,-430.74 248.82,-425.18 252.18,-418.8 256.78,-424.36 253.42,-430.74"/>
<text text-anchor="middle" x="273" y="-440" font-family="Helvetica,sans-Serif" font-size="10.00"> +type</text>
</g>
<!-- Node7 -->
<g id="node7" class="node">
<title>Node7</title>
<g id="a_node7"><a xlink:title=" ">
<polygon fill="white" stroke="black" points="303,-466.5 303,-523.5 341,-523.5 341,-466.5 303,-466.5"/>
<text text-anchor="middle" x="322" y="-511.5" font-family="Helvetica,sans-Serif" font-size="10.00">long</text>
<polyline fill="none" stroke="black" points="303,-504.5 341,-504.5 "/>
<text text-anchor="middle" x="322" y="-492.5" font-family="Helvetica,sans-Serif" font-size="10.00"> </text>
<polyline fill="none" stroke="black" points="303,-485.5 341,-485.5 "/>
<text text-anchor="middle" x="322" y="-473.5" font-family="Helvetica,sans-Serif" font-size="10.00"> </text>
</a>
</g>
</g>
<!-- Node7&#45;&gt;Node4 -->
<g id="edge6" class="edge">
<title>Node7&#45;&gt;Node4</title>
<path fill="none" stroke="#404040" d="M309.42,-466.31C304.85,-456.86 299.47,-446.32 294,-437 292.44,-434.35 290.82,-431.66 289.14,-428.97"/>
<polygon fill="none" stroke="#404040" points="288.97,-428.7 282.37,-425.79 282.51,-418.58 289.11,-421.49 288.97,-428.7"/>
<text text-anchor="middle" x="315.5" y="-440" font-family="Helvetica,sans-Serif" font-size="10.00"> +size</text>
</g>
</g>
</svg>
