<?xml version="1.0" encoding="UTF-8" standalone="no"?>
<!DOCTYPE svg PUBLIC "-//W3C//DTD SVG 1.1//EN"
 "http://www.w3.org/Graphics/SVG/1.1/DTD/svg11.dtd">
<!-- Generated by graphviz version 2.43.0 (0)
 -->
<!-- Title: EMC_INIT Pages: 1 -->
<svg width="267pt" height="522pt"
 viewBox="0.00 0.00 266.50 522.00" xmlns="http://www.w3.org/2000/svg" xmlns:xlink="http://www.w3.org/1999/xlink">
<g id="graph0" class="graph" transform="scale(1 1) rotate(0) translate(4 518)">
<title>EMC_INIT</title>
<polygon fill="white" stroke="transparent" points="-4,4 -4,-518 262.5,-518 262.5,4 -4,4"/>
<!-- Node1 -->
<g id="node1" class="node">
<title>Node1</title>
<g id="a_node1"><a xlink:title=" ">
<polygon fill="#bfbfbf" stroke="black" points="15.5,-0.5 15.5,-68.5 97.5,-68.5 97.5,-0.5 15.5,-0.5"/>
<text text-anchor="middle" x="56.5" y="-56.5" font-family="Helvetica,sans-Serif" font-size="10.00">EMC_INIT</text>
<polyline fill="none" stroke="black" points="15.5,-49.5 97.5,-49.5 "/>
<text text-anchor="middle" x="56.5" y="-37.5" font-family="Helvetica,sans-Serif" font-size="10.00"> </text>
<polyline fill="none" stroke="black" points="15.5,-30.5 97.5,-30.5 "/>
<text text-anchor="start" x="23.5" y="-18.5" font-family="Helvetica,sans-Serif" font-size="10.00">+ EMC_INIT()</text>
<text text-anchor="start" x="23.5" y="-7.5" font-family="Helvetica,sans-Serif" font-size="10.00">+ update()</text>
</a>
</g>
</g>
<!-- Node2 -->
<g id="node2" class="node">
<title>Node2</title>
<g id="a_node2"><a xlink:href="classEMC__CMD__MSG.html" target="_top" xlink:title=" ">
<polygon fill="white" stroke="black" points="0,-106.5 0,-174.5 113,-174.5 113,-106.5 0,-106.5"/>
<text text-anchor="middle" x="56.5" y="-162.5" font-family="Helvetica,sans-Serif" font-size="10.00">EMC_CMD_MSG</text>
<polyline fill="none" stroke="black" points="0,-155.5 113,-155.5 "/>
<text text-anchor="middle" x="56.5" y="-143.5" font-family="Helvetica,sans-Serif" font-size="10.00"> </text>
<polyline fill="none" stroke="black" points="0,-136.5 113,-136.5 "/>
<text text-anchor="start" x="8" y="-124.5" font-family="Helvetica,sans-Serif" font-size="10.00">+ EMC_CMD_MSG()</text>
<text text-anchor="start" x="8" y="-113.5" font-family="Helvetica,sans-Serif" font-size="10.00">+ update()</text>
</a>
</g>
</g>
<!-- Node2&#45;&gt;Node1 -->
<g id="edge1" class="edge">
<title>Node2&#45;&gt;Node1</title>
<path fill="none" stroke="midnightblue" d="M56.5,-96.17C56.5,-87 56.5,-77.46 56.5,-68.73"/>
<polygon fill="none" stroke="midnightblue" points="53,-96.31 56.5,-106.31 60,-96.31 53,-96.31"/>
</g>
<!-- Node3 -->
<g id="node3" class="node">
<title>Node3</title>
<g id="a_node3"><a xlink:href="classRCS__CMD__MSG.html" target="_top" xlink:title=" ">
<polygon fill="white" stroke="black" points="1,-212.5 1,-269.5 112,-269.5 112,-212.5 1,-212.5"/>
<text text-anchor="middle" x="56.5" y="-257.5" font-family="Helvetica,sans-Serif" font-size="10.00">RCS_CMD_MSG</text>
<polyline fill="none" stroke="black" points="1,-250.5 112,-250.5 "/>
<text text-anchor="middle" x="56.5" y="-238.5" font-family="Helvetica,sans-Serif" font-size="10.00"> </text>
<polyline fill="none" stroke="black" points="1,-231.5 112,-231.5 "/>
<text text-anchor="start" x="9" y="-219.5" font-family="Helvetica,sans-Serif" font-size="10.00">+ RCS_CMD_MSG()</text>
</a>
</g>
</g>
<!-- Node3&#45;&gt;Node2 -->
<g id="edge2" class="edge">
<title>Node3&#45;&gt;Node2</title>
<path fill="none" stroke="midnightblue" d="M56.5,-202.01C56.5,-192.96 56.5,-183.38 56.5,-174.58"/>
<polygon fill="none" stroke="midnightblue" points="53,-202.3 56.5,-212.3 60,-202.3 53,-202.3"/>
</g>
<!-- Node4 -->
<g id="node4" class="node">
<title>Node4</title>
<g id="a_node4"><a xlink:href="classNMLmsg.html" target="_top" xlink:title=" ">
<polygon fill="white" stroke="black" points="125.5,-307.5 125.5,-408.5 203.5,-408.5 203.5,-307.5 125.5,-307.5"/>
<text text-anchor="middle" x="164.5" y="-396.5" font-family="Helvetica,sans-Serif" font-size="10.00">NMLmsg</text>
<polyline fill="none" stroke="black" points="125.5,-389.5 203.5,-389.5 "/>
<text text-anchor="middle" x="164.5" y="-377.5" font-family="Helvetica,sans-Serif" font-size="10.00"> </text>
<polyline fill="none" stroke="black" points="125.5,-370.5 203.5,-370.5 "/>
<text text-anchor="start" x="133.5" y="-358.5" font-family="Helvetica,sans-Serif" font-size="10.00">+ clear()</text>
<text text-anchor="start" x="133.5" y="-347.5" font-family="Helvetica,sans-Serif" font-size="10.00">+ update()</text>
<text text-anchor="start" x="133.5" y="-336.5" font-family="Helvetica,sans-Serif" font-size="10.00"># NMLmsg()</text>
<text text-anchor="start" x="133.5" y="-325.5" font-family="Helvetica,sans-Serif" font-size="10.00"># NMLmsg()</text>
<text text-anchor="start" x="133.5" y="-314.5" font-family="Helvetica,sans-Serif" font-size="10.00"># NMLmsg()</text>
</a>
</g>
</g>
<!-- Node4&#45;&gt;Node3 -->
<g id="edge3" class="edge">
<title>Node4&#45;&gt;Node3</title>
<path fill="none" stroke="midnightblue" d="M118.1,-307.59C105.89,-294.6 93.16,-281.04 82.46,-269.64"/>
<polygon fill="none" stroke="midnightblue" points="115.81,-310.26 125.2,-315.16 120.91,-305.47 115.81,-310.26"/>
</g>
<!-- Node5 -->
<g id="node5" class="node">
<title>Node5</title>
<g id="a_node5"><a xlink:title=" ">
<polygon fill="white" stroke="black" points="15,-456.5 15,-513.5 44,-513.5 44,-456.5 15,-456.5"/>
<text text-anchor="middle" x="29.5" y="-501.5" font-family="Helvetica,sans-Serif" font-size="10.00">int</text>
<polyline fill="none" stroke="black" points="15,-494.5 44,-494.5 "/>
<text text-anchor="middle" x="29.5" y="-482.5" font-family="Helvetica,sans-Serif" font-size="10.00"> </text>
<polyline fill="none" stroke="black" points="15,-475.5 44,-475.5 "/>
<text text-anchor="middle" x="29.5" y="-463.5" font-family="Helvetica,sans-Serif" font-size="10.00"> </text>
</a>
</g>
</g>
<!-- Node5&#45;&gt;Node3 -->
<g id="edge7" class="edge">
<title>Node5&#45;&gt;Node3</title>
<path fill="none" stroke="#404040" d="M27.76,-456.45C26.13,-421.42 25.15,-359.2 34.5,-307 36.03,-298.47 38.46,-289.54 41.17,-281.13"/>
<polygon fill="none" stroke="#404040" points="41.2,-281.02 39.37,-274.05 45.1,-269.67 46.94,-276.65 41.2,-281.02"/>
<text text-anchor="middle" x="75.5" y="-355.5" font-family="Helvetica,sans-Serif" font-size="10.00"> +serial_number</text>
</g>
<!-- Node5&#45;&gt;Node4 -->
<g id="edge4" class="edge">
<title>Node5&#45;&gt;Node4</title>
<path fill="none" stroke="#404040" d="M39.61,-456.34C44.41,-446.13 50.98,-435.08 59.5,-427 73.35,-413.86 82.13,-418.82 98.5,-409 104.12,-405.63 109.84,-401.87 115.44,-397.97"/>
<polygon fill="none" stroke="#404040" points="115.59,-397.85 118.13,-391.1 125.33,-390.85 122.8,-397.6 115.59,-397.85"/>
<text text-anchor="middle" x="114" y="-430" font-family="Helvetica,sans-Serif" font-size="10.00"> +automatically_clear</text>
</g>
<!-- Node6 -->
<g id="node6" class="node">
<title>Node6</title>
<g id="a_node6"><a xlink:title=" ">
<polygon fill="white" stroke="black" points="152.5,-456.5 152.5,-513.5 202.5,-513.5 202.5,-456.5 152.5,-456.5"/>
<text text-anchor="middle" x="177.5" y="-501.5" font-family="Helvetica,sans-Serif" font-size="10.00">int32_t</text>
<polyline fill="none" stroke="black" points="152.5,-494.5 202.5,-494.5 "/>
<text text-anchor="middle" x="177.5" y="-482.5" font-family="Helvetica,sans-Serif" font-size="10.00"> </text>
<polyline fill="none" stroke="black" points="152.5,-475.5 202.5,-475.5 "/>
<text text-anchor="middle" x="177.5" y="-463.5" font-family="Helvetica,sans-Serif" font-size="10.00"> </text>
</a>
</g>
</g>
<!-- Node6&#45;&gt;Node4 -->
<g id="edge5" class="edge">
<title>Node6&#45;&gt;Node4</title>
<path fill="none" stroke="#404040" d="M174.61,-456.26C173.53,-445.79 172.24,-433.42 170.96,-421.07"/>
<polygon fill="none" stroke="#404040" points="170.92,-420.74 166.32,-415.18 169.68,-408.8 174.28,-414.36 170.92,-420.74"/>
<text text-anchor="middle" x="190.5" y="-430" font-family="Helvetica,sans-Serif" font-size="10.00"> +type</text>
</g>
<!-- Node7 -->
<g id="node7" class="node">
<title>Node7</title>
<g id="a_node7"><a xlink:title=" ">
<polygon fill="white" stroke="black" points="220.5,-456.5 220.5,-513.5 258.5,-513.5 258.5,-456.5 220.5,-456.5"/>
<text text-anchor="middle" x="239.5" y="-501.5" font-family="Helvetica,sans-Serif" font-size="10.00">long</text>
<polyline fill="none" stroke="black" points="220.5,-494.5 258.5,-494.5 "/>
<text text-anchor="middle" x="239.5" y="-482.5" font-family="Helvetica,sans-Serif" font-size="10.00"> </text>
<polyline fill="none" stroke="black" points="220.5,-475.5 258.5,-475.5 "/>
<text text-anchor="middle" x="239.5" y="-463.5" font-family="Helvetica,sans-Serif" font-size="10.00"> </text>
</a>
</g>
</g>
<!-- Node7&#45;&gt;Node4 -->
<g id="edge6" class="edge">
<title>Node7&#45;&gt;Node4</title>
<path fill="none" stroke="#404040" d="M226.92,-456.31C222.35,-446.86 216.97,-436.32 211.5,-427 209.94,-424.35 208.32,-421.66 206.64,-418.97"/>
<polygon fill="none" stroke="#404040" points="206.47,-418.7 199.87,-415.79 200.01,-408.58 206.61,-411.49 206.47,-418.7"/>
<text text-anchor="middle" x="233" y="-430" font-family="Helvetica,sans-Serif" font-size="10.00"> +size</text>
</g>
</g>
</svg>
