<?xml version="1.0" encoding="UTF-8" standalone="no"?>
<!DOCTYPE svg PUBLIC "-//W3C//DTD SVG 1.1//EN"
 "http://www.w3.org/Graphics/SVG/1.1/DTD/svg11.dtd">
<!-- Generated by graphviz version 2.43.0 (0)
 -->
<!-- Title: EMC_AXIS_STAT_MSG Pages: 1 -->
<svg width="447pt" height="426pt"
 viewBox="0.00 0.00 446.50 426.00" xmlns="http://www.w3.org/2000/svg" xmlns:xlink="http://www.w3.org/1999/xlink">
<g id="graph0" class="graph" transform="scale(1 1) rotate(0) translate(4 422)">
<title>EMC_AXIS_STAT_MSG</title>
<polygon fill="white" stroke="transparent" points="-4,4 -4,-422 442.5,-422 442.5,4 -4,4"/>
<!-- Node1 -->
<g id="node1" class="node">
<title>Node1</title>
<g id="a_node1"><a xlink:title=" ">
<polygon fill="#bfbfbf" stroke="black" points="0,-0.5 0,-68.5 141,-68.5 141,-0.5 0,-0.5"/>
<text text-anchor="middle" x="70.5" y="-56.5" font-family="Helvetica,sans-Serif" font-size="10.00">EMC_AXIS_STAT_MSG</text>
<polyline fill="none" stroke="black" points="0,-49.5 141,-49.5 "/>
<text text-anchor="middle" x="70.5" y="-37.5" font-family="Helvetica,sans-Serif" font-size="10.00"> </text>
<polyline fill="none" stroke="black" points="0,-30.5 141,-30.5 "/>
<text text-anchor="start" x="8" y="-18.5" font-family="Helvetica,sans-Serif" font-size="10.00">+ EMC_AXIS_STAT_MSG()</text>
<text text-anchor="start" x="8" y="-7.5" font-family="Helvetica,sans-Serif" font-size="10.00">+ update()</text>
</a>
</g>
</g>
<!-- Node2 -->
<g id="node2" class="node">
<title>Node2</title>
<g id="a_node2"><a xlink:href="classRCS__STAT__MSG.html" target="_top" xlink:title=" ">
<polygon fill="white" stroke="black" points="170,-106.5 170,-163.5 281,-163.5 281,-106.5 170,-106.5"/>
<text text-anchor="middle" x="225.5" y="-151.5" font-family="Helvetica,sans-Serif" font-size="10.00">RCS_STAT_MSG</text>
<polyline fill="none" stroke="black" points="170,-144.5 281,-144.5 "/>
<text text-anchor="middle" x="225.5" y="-132.5" font-family="Helvetica,sans-Serif" font-size="10.00"> </text>
<polyline fill="none" stroke="black" points="170,-125.5 281,-125.5 "/>
<text text-anchor="start" x="178" y="-113.5" font-family="Helvetica,sans-Serif" font-size="10.00">+ RCS_STAT_MSG()</text>
</a>
</g>
</g>
<!-- Node2&#45;&gt;Node1 -->
<g id="edge1" class="edge">
<title>Node2&#45;&gt;Node1</title>
<path fill="none" stroke="midnightblue" d="M173.05,-100.67C156.76,-90.32 138.82,-78.91 122.55,-68.58"/>
<polygon fill="none" stroke="midnightblue" points="171.59,-103.89 181.91,-106.3 175.35,-97.98 171.59,-103.89"/>
</g>
<!-- Node3 -->
<g id="node3" class="node">
<title>Node3</title>
<g id="a_node3"><a xlink:href="classNMLmsg.html" target="_top" xlink:title=" ">
<polygon fill="white" stroke="black" points="186.5,-211.5 186.5,-312.5 264.5,-312.5 264.5,-211.5 186.5,-211.5"/>
<text text-anchor="middle" x="225.5" y="-300.5" font-family="Helvetica,sans-Serif" font-size="10.00">NMLmsg</text>
<polyline fill="none" stroke="black" points="186.5,-293.5 264.5,-293.5 "/>
<text text-anchor="middle" x="225.5" y="-281.5" font-family="Helvetica,sans-Serif" font-size="10.00"> </text>
<polyline fill="none" stroke="black" points="186.5,-274.5 264.5,-274.5 "/>
<text text-anchor="start" x="194.5" y="-262.5" font-family="Helvetica,sans-Serif" font-size="10.00">+ clear()</text>
<text text-anchor="start" x="194.5" y="-251.5" font-family="Helvetica,sans-Serif" font-size="10.00">+ update()</text>
<text text-anchor="start" x="194.5" y="-240.5" font-family="Helvetica,sans-Serif" font-size="10.00"># NMLmsg()</text>
<text text-anchor="start" x="194.5" y="-229.5" font-family="Helvetica,sans-Serif" font-size="10.00"># NMLmsg()</text>
<text text-anchor="start" x="194.5" y="-218.5" font-family="Helvetica,sans-Serif" font-size="10.00"># NMLmsg()</text>
</a>
</g>
</g>
<!-- Node3&#45;&gt;Node2 -->
<g id="edge2" class="edge">
<title>Node3&#45;&gt;Node2</title>
<path fill="none" stroke="midnightblue" d="M225.5,-200.87C225.5,-187.85 225.5,-174.69 225.5,-163.66"/>
<polygon fill="none" stroke="midnightblue" points="222,-201.24 225.5,-211.24 229,-201.24 222,-201.24"/>
</g>
<!-- Node4 -->
<g id="node4" class="node">
<title>Node4</title>
<g id="a_node4"><a xlink:title=" ">
<polygon fill="white" stroke="black" points="44,-360.5 44,-417.5 73,-417.5 73,-360.5 44,-360.5"/>
<text text-anchor="middle" x="58.5" y="-405.5" font-family="Helvetica,sans-Serif" font-size="10.00">int</text>
<polyline fill="none" stroke="black" points="44,-398.5 73,-398.5 "/>
<text text-anchor="middle" x="58.5" y="-386.5" font-family="Helvetica,sans-Serif" font-size="10.00"> </text>
<polyline fill="none" stroke="black" points="44,-379.5 73,-379.5 "/>
<text text-anchor="middle" x="58.5" y="-367.5" font-family="Helvetica,sans-Serif" font-size="10.00"> </text>
</a>
</g>
</g>
<!-- Node4&#45;&gt;Node1 -->
<g id="edge9" class="edge">
<title>Node4&#45;&gt;Node1</title>
<path fill="none" stroke="#404040" d="M48.18,-360.07C46.35,-354.17 44.65,-347.94 43.5,-342 41.03,-329.32 41.94,-325.91 41.5,-313 39.94,-267.69 37.79,-256.18 41.5,-211 45.17,-166.26 54.02,-115.74 60.99,-80.44"/>
<polygon fill="none" stroke="#404040" points="61,-80.38 58.26,-73.71 63.36,-68.62 66.1,-75.29 61,-80.38"/>
<text text-anchor="middle" x="60.5" y="-185" font-family="Helvetica,sans-Serif" font-size="10.00"> +axis</text>
</g>
<!-- Node4&#45;&gt;Node2 -->
<g id="edge7" class="edge">
<title>Node4&#45;&gt;Node2</title>
<path fill="none" stroke="#404040" d="M51.83,-360.46C44.48,-323.18 37.32,-256.15 67.5,-211 88.18,-180.06 125.27,-161.56 158.32,-150.67"/>
<polygon fill="none" stroke="#404040" points="158.34,-150.67 162.89,-145.08 169.8,-147.13 165.25,-152.72 158.34,-150.67"/>
<text text-anchor="middle" x="122.5" y="-281.5" font-family="Helvetica,sans-Serif" font-size="10.00"> +echo_serial_number</text>
<text text-anchor="middle" x="122.5" y="-270.5" font-family="Helvetica,sans-Serif" font-size="10.00">+line</text>
<text text-anchor="middle" x="122.5" y="-259.5" font-family="Helvetica,sans-Serif" font-size="10.00">+source_line</text>
<text text-anchor="middle" x="122.5" y="-248.5" font-family="Helvetica,sans-Serif" font-size="10.00">+state</text>
<text text-anchor="middle" x="122.5" y="-237.5" font-family="Helvetica,sans-Serif" font-size="10.00">+status</text>
</g>
<!-- Node4&#45;&gt;Node3 -->
<g id="edge3" class="edge">
<title>Node4&#45;&gt;Node3</title>
<path fill="none" stroke="#404040" d="M73.01,-368.03C82.88,-355.75 96.95,-340.58 112.5,-331 136.21,-316.4 148.39,-326.93 172.5,-313 173.82,-312.23 175.14,-311.43 176.45,-310.59"/>
<polygon fill="none" stroke="#404040" points="176.5,-310.56 179.06,-303.82 186.27,-303.59 183.7,-310.33 176.5,-310.56"/>
<text text-anchor="middle" x="167" y="-334" font-family="Helvetica,sans-Serif" font-size="10.00"> +automatically_clear</text>
</g>
<!-- Node5 -->
<g id="node5" class="node">
<title>Node5</title>
<g id="a_node5"><a xlink:title=" ">
<polygon fill="white" stroke="black" points="301.5,-360.5 301.5,-417.5 351.5,-417.5 351.5,-360.5 301.5,-360.5"/>
<text text-anchor="middle" x="326.5" y="-405.5" font-family="Helvetica,sans-Serif" font-size="10.00">int32_t</text>
<polyline fill="none" stroke="black" points="301.5,-398.5 351.5,-398.5 "/>
<text text-anchor="middle" x="326.5" y="-386.5" font-family="Helvetica,sans-Serif" font-size="10.00"> </text>
<polyline fill="none" stroke="black" points="301.5,-379.5 351.5,-379.5 "/>
<text text-anchor="middle" x="326.5" y="-367.5" font-family="Helvetica,sans-Serif" font-size="10.00"> </text>
</a>
</g>
</g>
<!-- Node5&#45;&gt;Node2 -->
<g id="edge6" class="edge">
<title>Node5&#45;&gt;Node2</title>
<path fill="none" stroke="#404040" d="M335.91,-360.34C348.43,-318.1 365.12,-236.7 329.5,-182 320.74,-168.55 307.06,-159.01 292.47,-152.24"/>
<polygon fill="none" stroke="#404040" points="292.29,-152.17 285.22,-153.58 281.2,-147.59 288.27,-146.18 292.29,-152.17"/>
<text text-anchor="middle" x="394.5" y="-259.5" font-family="Helvetica,sans-Serif" font-size="10.00"> +command_type</text>
</g>
<!-- Node5&#45;&gt;Node3 -->
<g id="edge4" class="edge">
<title>Node5&#45;&gt;Node3</title>
<path fill="none" stroke="#404040" d="M304.08,-360.26C294.64,-348.57 283.28,-334.5 272.16,-320.75"/>
<polygon fill="none" stroke="#404040" points="272.07,-320.64 265.19,-318.49 264.53,-311.31 271.41,-313.46 272.07,-320.64"/>
<text text-anchor="middle" x="304.5" y="-334" font-family="Helvetica,sans-Serif" font-size="10.00"> +type</text>
</g>
<!-- Node6 -->
<g id="node6" class="node">
<title>Node6</title>
<g id="a_node6"><a xlink:title=" ">
<polygon fill="white" stroke="black" points="206.5,-360.5 206.5,-417.5 244.5,-417.5 244.5,-360.5 206.5,-360.5"/>
<text text-anchor="middle" x="225.5" y="-405.5" font-family="Helvetica,sans-Serif" font-size="10.00">long</text>
<polyline fill="none" stroke="black" points="206.5,-398.5 244.5,-398.5 "/>
<text text-anchor="middle" x="225.5" y="-386.5" font-family="Helvetica,sans-Serif" font-size="10.00"> </text>
<polyline fill="none" stroke="black" points="206.5,-379.5 244.5,-379.5 "/>
<text text-anchor="middle" x="225.5" y="-367.5" font-family="Helvetica,sans-Serif" font-size="10.00"> </text>
</a>
</g>
</g>
<!-- Node6&#45;&gt;Node3 -->
<g id="edge5" class="edge">
<title>Node6&#45;&gt;Node3</title>
<path fill="none" stroke="#404040" d="M225.5,-360.26C225.5,-349.79 225.5,-337.42 225.5,-325.07"/>
<polygon fill="none" stroke="#404040" points="225.5,-324.8 221.5,-318.8 225.5,-312.8 229.5,-318.8 225.5,-324.8"/>
<text text-anchor="middle" x="241" y="-334" font-family="Helvetica,sans-Serif" font-size="10.00"> +size</text>
</g>
<!-- Node7 -->
<g id="node7" class="node">
<title>Node7</title>
<g id="a_node7"><a xlink:title=" ">
<polygon fill="white" stroke="black" points="282.5,-233.5 282.5,-290.5 320.5,-290.5 320.5,-233.5 282.5,-233.5"/>
<text text-anchor="middle" x="301.5" y="-278.5" font-family="Helvetica,sans-Serif" font-size="10.00">char</text>
<polyline fill="none" stroke="black" points="282.5,-271.5 320.5,-271.5 "/>
<text text-anchor="middle" x="301.5" y="-259.5" font-family="Helvetica,sans-Serif" font-size="10.00"> </text>
<polyline fill="none" stroke="black" points="282.5,-252.5 320.5,-252.5 "/>
<text text-anchor="middle" x="301.5" y="-240.5" font-family="Helvetica,sans-Serif" font-size="10.00"> </text>
</a>
</g>
</g>
<!-- Node7&#45;&gt;Node2 -->
<g id="edge8" class="edge">
<title>Node7&#45;&gt;Node2</title>
<path fill="none" stroke="#404040" d="M286.38,-233.32C282.29,-226.02 277.8,-218.17 273.5,-211 266.2,-198.82 257.96,-185.72 250.39,-173.93"/>
<polygon fill="none" stroke="#404040" points="250.19,-173.62 243.57,-170.75 243.67,-163.54 250.29,-166.41 250.19,-173.62"/>
<text text-anchor="middle" x="293.5" y="-185" font-family="Helvetica,sans-Serif" font-size="10.00"> +source_file</text>
</g>
</g>
</svg>
