<?xml version="1.0" encoding="UTF-8" standalone="no"?>
<!DOCTYPE svg PUBLIC "-//W3C//DTD SVG 1.1//EN"
 "http://www.w3.org/Graphics/SVG/1.1/DTD/svg11.dtd">
<!-- Generated by graphviz version 2.43.0 (0)
 -->
<!-- Title: EMC_TRAJ_SET_RAPID_SCALE Pages: 1 -->
<svg width="481pt" height="618pt"
 viewBox="0.00 0.00 481.00 618.00" xmlns="http://www.w3.org/2000/svg" xmlns:xlink="http://www.w3.org/1999/xlink">
<g id="graph0" class="graph" transform="scale(1 1) rotate(0) translate(4 614)">
<title>EMC_TRAJ_SET_RAPID_SCALE</title>
<polygon fill="white" stroke="transparent" points="-4,4 -4,-614 477,-614 477,4 -4,4"/>
<!-- Node1 -->
<g id="node1" class="node">
<title>Node1</title>
<g id="a_node1"><a xlink:title=" ">
<polygon fill="#bfbfbf" stroke="black" points="253,-0.5 253,-90.5 389,-90.5 389,-0.5 253,-0.5"/>
<text text-anchor="start" x="261" y="-78.5" font-family="Helvetica,sans-Serif" font-size="10.00">EMC_TRAJ_SET_RAPID</text>
<text text-anchor="middle" x="321" y="-67.5" font-family="Helvetica,sans-Serif" font-size="10.00">_SCALE</text>
<polyline fill="none" stroke="black" points="253,-60.5 389,-60.5 "/>
<text text-anchor="middle" x="321" y="-48.5" font-family="Helvetica,sans-Serif" font-size="10.00"> </text>
<polyline fill="none" stroke="black" points="253,-41.5 389,-41.5 "/>
<text text-anchor="start" x="261" y="-29.5" font-family="Helvetica,sans-Serif" font-size="10.00">+ EMC_TRAJ_SET_RAPID</text>
<text text-anchor="start" x="261" y="-18.5" font-family="Helvetica,sans-Serif" font-size="10.00">_SCALE()</text>
<text text-anchor="start" x="261" y="-7.5" font-family="Helvetica,sans-Serif" font-size="10.00">+ update()</text>
</a>
</g>
</g>
<!-- Node2 -->
<g id="node2" class="node">
<title>Node2</title>
<g id="a_node2"><a xlink:href="classEMC__TRAJ__CMD__MSG.html" target="_top" xlink:title=" ">
<polygon fill="white" stroke="black" points="193.5,-138.5 193.5,-206.5 334.5,-206.5 334.5,-138.5 193.5,-138.5"/>
<text text-anchor="middle" x="264" y="-194.5" font-family="Helvetica,sans-Serif" font-size="10.00">EMC_TRAJ_CMD_MSG</text>
<polyline fill="none" stroke="black" points="193.5,-187.5 334.5,-187.5 "/>
<text text-anchor="middle" x="264" y="-175.5" font-family="Helvetica,sans-Serif" font-size="10.00"> </text>
<polyline fill="none" stroke="black" points="193.5,-168.5 334.5,-168.5 "/>
<text text-anchor="start" x="201.5" y="-156.5" font-family="Helvetica,sans-Serif" font-size="10.00">+ EMC_TRAJ_CMD_MSG()</text>
<text text-anchor="start" x="201.5" y="-145.5" font-family="Helvetica,sans-Serif" font-size="10.00">+ update()</text>
</a>
</g>
</g>
<!-- Node2&#45;&gt;Node1 -->
<g id="edge1" class="edge">
<title>Node2&#45;&gt;Node1</title>
<path fill="none" stroke="midnightblue" d="M283.32,-129.12C288.97,-116.73 295.16,-103.16 300.86,-90.66"/>
<polygon fill="none" stroke="midnightblue" points="280.09,-127.78 279.13,-138.33 286.46,-130.68 280.09,-127.78"/>
</g>
<!-- Node3 -->
<g id="node3" class="node">
<title>Node3</title>
<g id="a_node3"><a xlink:href="classRCS__CMD__MSG.html" target="_top" xlink:title=" ">
<polygon fill="white" stroke="black" points="141.5,-271 141.5,-328 252.5,-328 252.5,-271 141.5,-271"/>
<text text-anchor="middle" x="197" y="-316" font-family="Helvetica,sans-Serif" font-size="10.00">RCS_CMD_MSG</text>
<polyline fill="none" stroke="black" points="141.5,-309 252.5,-309 "/>
<text text-anchor="middle" x="197" y="-297" font-family="Helvetica,sans-Serif" font-size="10.00"> </text>
<polyline fill="none" stroke="black" points="141.5,-290 252.5,-290 "/>
<text text-anchor="start" x="149.5" y="-278" font-family="Helvetica,sans-Serif" font-size="10.00">+ RCS_CMD_MSG()</text>
</a>
</g>
</g>
<!-- Node3&#45;&gt;Node2 -->
<g id="edge2" class="edge">
<title>Node3&#45;&gt;Node2</title>
<path fill="none" stroke="midnightblue" d="M216.82,-261.52C226.1,-244.22 237.05,-223.77 246.08,-206.94"/>
<polygon fill="none" stroke="midnightblue" points="213.51,-260.29 211.87,-270.76 219.68,-263.6 213.51,-260.29"/>
</g>
<!-- Node4 -->
<g id="node4" class="node">
<title>Node4</title>
<g id="a_node4"><a xlink:href="classNMLmsg.html" target="_top" xlink:title=" ">
<polygon fill="white" stroke="black" points="34,-392.5 34,-493.5 112,-493.5 112,-392.5 34,-392.5"/>
<text text-anchor="middle" x="73" y="-481.5" font-family="Helvetica,sans-Serif" font-size="10.00">NMLmsg</text>
<polyline fill="none" stroke="black" points="34,-474.5 112,-474.5 "/>
<text text-anchor="middle" x="73" y="-462.5" font-family="Helvetica,sans-Serif" font-size="10.00"> </text>
<polyline fill="none" stroke="black" points="34,-455.5 112,-455.5 "/>
<text text-anchor="start" x="42" y="-443.5" font-family="Helvetica,sans-Serif" font-size="10.00">+ clear()</text>
<text text-anchor="start" x="42" y="-432.5" font-family="Helvetica,sans-Serif" font-size="10.00">+ update()</text>
<text text-anchor="start" x="42" y="-421.5" font-family="Helvetica,sans-Serif" font-size="10.00"># NMLmsg()</text>
<text text-anchor="start" x="42" y="-410.5" font-family="Helvetica,sans-Serif" font-size="10.00"># NMLmsg()</text>
<text text-anchor="start" x="42" y="-399.5" font-family="Helvetica,sans-Serif" font-size="10.00"># NMLmsg()</text>
</a>
</g>
</g>
<!-- Node4&#45;&gt;Node3 -->
<g id="edge3" class="edge">
<title>Node4&#45;&gt;Node3</title>
<path fill="none" stroke="midnightblue" d="M118.87,-389.66C137.16,-368.78 157.47,-345.61 172.8,-328.12"/>
<polygon fill="none" stroke="midnightblue" points="116.19,-387.4 112.23,-397.23 121.46,-392.01 116.19,-387.4"/>
</g>
<!-- Node5 -->
<g id="node5" class="node">
<title>Node5</title>
<g id="a_node5"><a xlink:title=" ">
<polygon fill="white" stroke="black" points="182.5,-552.5 182.5,-609.5 211.5,-609.5 211.5,-552.5 182.5,-552.5"/>
<text text-anchor="middle" x="197" y="-597.5" font-family="Helvetica,sans-Serif" font-size="10.00">int</text>
<polyline fill="none" stroke="black" points="182.5,-590.5 211.5,-590.5 "/>
<text text-anchor="middle" x="197" y="-578.5" font-family="Helvetica,sans-Serif" font-size="10.00"> </text>
<polyline fill="none" stroke="black" points="182.5,-571.5 211.5,-571.5 "/>
<text text-anchor="middle" x="197" y="-559.5" font-family="Helvetica,sans-Serif" font-size="10.00"> </text>
</a>
</g>
</g>
<!-- Node5&#45;&gt;Node3 -->
<g id="edge6" class="edge">
<title>Node5&#45;&gt;Node3</title>
<path fill="none" stroke="#404040" d="M197,-552.44C197,-502.76 197,-398.03 197,-340.48"/>
<polygon fill="none" stroke="#404040" points="197,-340.27 193,-334.27 197,-328.27 201,-334.27 197,-340.27"/>
<text text-anchor="middle" x="238" y="-440.5" font-family="Helvetica,sans-Serif" font-size="10.00"> +serial_number</text>
</g>
<!-- Node5&#45;&gt;Node4 -->
<g id="edge4" class="edge">
<title>Node5&#45;&gt;Node4</title>
<path fill="none" stroke="#404040" d="M182.5,-579.53C155.76,-577.79 99.15,-569.83 74,-534 68.26,-525.82 65.32,-516.1 64.15,-506.13"/>
<polygon fill="none" stroke="#404040" points="64.14,-505.91 59.84,-500.13 63.52,-493.93 67.83,-499.72 64.14,-505.91"/>
<text text-anchor="middle" x="128.5" y="-526" font-family="Helvetica,sans-Serif" font-size="10.00"> +automatically_clear</text>
<text text-anchor="middle" x="128.5" y="-515" font-family="Helvetica,sans-Serif" font-size="10.00">+type</text>
</g>
<!-- Node8 -->
<g id="node8" class="node">
<title>Node8</title>
<g id="a_node8"><a xlink:href="structstate__tag__t.html" target="_top" xlink:title=" ">
<polygon fill="white" stroke="black" points="297.5,-414.5 297.5,-471.5 368.5,-471.5 368.5,-414.5 297.5,-414.5"/>
<text text-anchor="middle" x="333" y="-459.5" font-family="Helvetica,sans-Serif" font-size="10.00">state_tag_t</text>
<polyline fill="none" stroke="black" points="297.5,-452.5 368.5,-452.5 "/>
<text text-anchor="middle" x="333" y="-440.5" font-family="Helvetica,sans-Serif" font-size="10.00"> </text>
<polyline fill="none" stroke="black" points="297.5,-433.5 368.5,-433.5 "/>
<text text-anchor="middle" x="333" y="-421.5" font-family="Helvetica,sans-Serif" font-size="10.00"> </text>
</a>
</g>
</g>
<!-- Node5&#45;&gt;Node8 -->
<g id="edge10" class="edge">
<title>Node5&#45;&gt;Node8</title>
<path fill="none" stroke="#404040" d="M211.55,-565.45C231.71,-545.29 268.8,-508.2 296.7,-480.3"/>
<polygon fill="none" stroke="#404040" points="296.92,-480.08 298.34,-473.01 305.41,-471.59 303.99,-478.66 296.92,-480.08"/>
<text text-anchor="middle" x="284" y="-520.5" font-family="Helvetica,sans-Serif" font-size="10.00"> +fields</text>
</g>
<!-- Node6 -->
<g id="node6" class="node">
<title>Node6</title>
<g id="a_node6"><a xlink:title=" ">
<polygon fill="white" stroke="black" points="0,-552.5 0,-609.5 38,-609.5 38,-552.5 0,-552.5"/>
<text text-anchor="middle" x="19" y="-597.5" font-family="Helvetica,sans-Serif" font-size="10.00">long</text>
<polyline fill="none" stroke="black" points="0,-590.5 38,-590.5 "/>
<text text-anchor="middle" x="19" y="-578.5" font-family="Helvetica,sans-Serif" font-size="10.00"> </text>
<polyline fill="none" stroke="black" points="0,-571.5 38,-571.5 "/>
<text text-anchor="middle" x="19" y="-559.5" font-family="Helvetica,sans-Serif" font-size="10.00"> </text>
</a>
</g>
</g>
<!-- Node6&#45;&gt;Node4 -->
<g id="edge5" class="edge">
<title>Node6&#45;&gt;Node4</title>
<path fill="none" stroke="#404040" d="M15.47,-552.49C14.83,-539.83 15.49,-524.81 20,-512 21.92,-506.55 24.46,-501.2 27.4,-496.04"/>
<polygon fill="none" stroke="#404040" points="27.49,-495.89 27.32,-488.68 33.91,-485.75 34.08,-492.96 27.49,-495.89"/>
<text text-anchor="middle" x="35.5" y="-520.5" font-family="Helvetica,sans-Serif" font-size="10.00"> +size</text>
</g>
<!-- Node7 -->
<g id="node7" class="node">
<title>Node7</title>
<g id="a_node7"><a xlink:href="structStateTag.html" target="_top" xlink:title=" ">
<polygon fill="white" stroke="black" points="282,-254.5 282,-344.5 384,-344.5 384,-254.5 282,-254.5"/>
<text text-anchor="middle" x="333" y="-332.5" font-family="Helvetica,sans-Serif" font-size="10.00">StateTag</text>
<polyline fill="none" stroke="black" points="282,-325.5 384,-325.5 "/>
<text text-anchor="middle" x="333" y="-313.5" font-family="Helvetica,sans-Serif" font-size="10.00"> </text>
<polyline fill="none" stroke="black" points="282,-306.5 384,-306.5 "/>
<text text-anchor="start" x="290" y="-294.5" font-family="Helvetica,sans-Serif" font-size="10.00">+ StateTag()</text>
<text text-anchor="start" x="290" y="-283.5" font-family="Helvetica,sans-Serif" font-size="10.00">+ StateTag()</text>
<text text-anchor="start" x="290" y="-272.5" font-family="Helvetica,sans-Serif" font-size="10.00">+ is_valid()</text>
<text text-anchor="start" x="290" y="-261.5" font-family="Helvetica,sans-Serif" font-size="10.00">+ get_state_tag()</text>
</a>
</g>
</g>
<!-- Node7&#45;&gt;Node2 -->
<g id="edge7" class="edge">
<title>Node7&#45;&gt;Node2</title>
<path fill="none" stroke="#404040" d="M308.67,-254.43C302.02,-242.38 294.81,-229.32 288.17,-217.28"/>
<polygon fill="none" stroke="#404040" points="288.05,-217.07 281.65,-213.75 282.25,-206.57 288.65,-209.89 288.05,-217.07"/>
<text text-anchor="middle" x="313" y="-228" font-family="Helvetica,sans-Serif" font-size="10.00"> +tag</text>
</g>
<!-- Node8&#45;&gt;Node7 -->
<g id="edge8" class="edge">
<title>Node8&#45;&gt;Node7</title>
<path fill="none" stroke="midnightblue" d="M333,-404.36C333,-386.04 333,-363.89 333,-344.75"/>
<polygon fill="none" stroke="midnightblue" points="329.5,-404.38 333,-414.38 336.5,-404.38 329.5,-404.38"/>
</g>
<!-- Node9 -->
<g id="node9" class="node">
<title>Node9</title>
<g id="a_node9"><a xlink:title=" ">
<polygon fill="white" stroke="black" points="304,-552.5 304,-609.5 342,-609.5 342,-552.5 304,-552.5"/>
<text text-anchor="middle" x="323" y="-597.5" font-family="Helvetica,sans-Serif" font-size="10.00">float</text>
<polyline fill="none" stroke="black" points="304,-590.5 342,-590.5 "/>
<text text-anchor="middle" x="323" y="-578.5" font-family="Helvetica,sans-Serif" font-size="10.00"> </text>
<polyline fill="none" stroke="black" points="304,-571.5 342,-571.5 "/>
<text text-anchor="middle" x="323" y="-559.5" font-family="Helvetica,sans-Serif" font-size="10.00"> </text>
</a>
</g>
</g>
<!-- Node9&#45;&gt;Node8 -->
<g id="edge9" class="edge">
<title>Node9&#45;&gt;Node8</title>
<path fill="none" stroke="#404040" d="M322.68,-552.18C322.72,-539.85 323.03,-525.19 324,-512 324.67,-502.85 325.75,-493.06 326.94,-483.83"/>
<polygon fill="none" stroke="#404040" points="326.97,-483.61 323.81,-477.12 328.59,-471.72 331.74,-478.2 326.97,-483.61"/>
<text text-anchor="middle" x="356.5" y="-520.5" font-family="Helvetica,sans-Serif" font-size="10.00"> +fields_float</text>
</g>
<!-- Node10 -->
<g id="node10" class="node">
<title>Node10</title>
<g id="a_node10"><a xlink:title=" ">
<polygon fill="white" stroke="black" points="380.5,-552.5 380.5,-609.5 441.5,-609.5 441.5,-552.5 380.5,-552.5"/>
<text text-anchor="middle" x="411" y="-597.5" font-family="Helvetica,sans-Serif" font-size="10.00">unsigned</text>
<polyline fill="none" stroke="black" points="380.5,-590.5 441.5,-590.5 "/>
<text text-anchor="middle" x="411" y="-578.5" font-family="Helvetica,sans-Serif" font-size="10.00"> </text>
<polyline fill="none" stroke="black" points="380.5,-571.5 441.5,-571.5 "/>
<text text-anchor="middle" x="411" y="-559.5" font-family="Helvetica,sans-Serif" font-size="10.00"> </text>
</a>
</g>
</g>
<!-- Node10&#45;&gt;Node8 -->
<g id="edge11" class="edge">
<title>Node10&#45;&gt;Node8</title>
<path fill="none" stroke="#404040" d="M404.57,-552.23C400.99,-539.51 395.85,-524.52 389,-512 383.11,-501.23 375.4,-490.54 367.61,-480.92"/>
<polygon fill="none" stroke="#404040" points="367.57,-480.88 360.65,-478.87 359.84,-471.7 366.77,-473.72 367.57,-480.88"/>
<text text-anchor="middle" x="435.5" y="-520.5" font-family="Helvetica,sans-Serif" font-size="10.00"> +packed_flags</text>
</g>
<!-- Node11 -->
<g id="node11" class="node">
<title>Node11</title>
<g id="a_node11"><a xlink:title=" ">
<polygon fill="white" stroke="black" points="386.5,-414.5 386.5,-471.5 465.5,-471.5 465.5,-414.5 386.5,-414.5"/>
<text text-anchor="middle" x="426" y="-459.5" font-family="Helvetica,sans-Serif" font-size="10.00">bitset&lt; 64 &gt;</text>
<polyline fill="none" stroke="black" points="386.5,-452.5 465.5,-452.5 "/>
<text text-anchor="middle" x="426" y="-440.5" font-family="Helvetica,sans-Serif" font-size="10.00"> </text>
<polyline fill="none" stroke="black" points="386.5,-433.5 465.5,-433.5 "/>
<text text-anchor="middle" x="426" y="-421.5" font-family="Helvetica,sans-Serif" font-size="10.00"> </text>
</a>
</g>
</g>
<!-- Node11&#45;&gt;Node7 -->
<g id="edge12" class="edge">
<title>Node11&#45;&gt;Node7</title>
<path fill="none" stroke="#404040" d="M407.85,-414.38C396.72,-397.46 382.1,-375.2 368.73,-354.86"/>
<polygon fill="none" stroke="#404040" points="368.68,-354.78 362.04,-351.97 362.09,-344.75 368.72,-347.57 368.68,-354.78"/>
<text text-anchor="middle" x="396.5" y="-366" font-family="Helvetica,sans-Serif" font-size="10.00"> +flags</text>
</g>
<!-- Node12 -->
<g id="node12" class="node">
<title>Node12</title>
<g id="a_node12"><a xlink:title=" ">
<polygon fill="white" stroke="black" points="353,-144 353,-201 403,-201 403,-144 353,-144"/>
<text text-anchor="middle" x="378" y="-189" font-family="Helvetica,sans-Serif" font-size="10.00">double</text>
<polyline fill="none" stroke="black" points="353,-182 403,-182 "/>
<text text-anchor="middle" x="378" y="-170" font-family="Helvetica,sans-Serif" font-size="10.00"> </text>
<polyline fill="none" stroke="black" points="353,-163 403,-163 "/>
<text text-anchor="middle" x="378" y="-151" font-family="Helvetica,sans-Serif" font-size="10.00"> </text>
</a>
</g>
</g>
<!-- Node12&#45;&gt;Node1 -->
<g id="edge13" class="edge">
<title>Node12&#45;&gt;Node1</title>
<path fill="none" stroke="#404040" d="M365.35,-143.76C359.7,-131.38 352.84,-116.33 346.22,-101.81"/>
<polygon fill="none" stroke="#404040" points="346.21,-101.77 340.08,-97.98 341.23,-90.86 347.36,-94.66 346.21,-101.77"/>
<text text-anchor="middle" x="370.5" y="-112" font-family="Helvetica,sans-Serif" font-size="10.00"> +scale</text>
</g>
</g>
</svg>
