<?xml version="1.0" encoding="UTF-8" standalone="no"?>
<!DOCTYPE svg PUBLIC "-//W3C//DTD SVG 1.1//EN"
 "http://www.w3.org/Graphics/SVG/1.1/DTD/svg11.dtd">
<!-- Generated by graphviz version 2.43.0 (0)
 -->
<!-- Title: EMC_LUBE_OFF Pages: 1 -->
<svg width="282pt" height="522pt"
 viewBox="0.00 0.00 282.00 522.00" xmlns="http://www.w3.org/2000/svg" xmlns:xlink="http://www.w3.org/1999/xlink">
<g id="graph0" class="graph" transform="scale(1 1) rotate(0) translate(4 518)">
<title>EMC_LUBE_OFF</title>
<polygon fill="white" stroke="transparent" points="-4,4 -4,-518 278,-518 278,4 -4,4"/>
<!-- Node1 -->
<g id="node1" class="node">
<title>Node1</title>
<g id="a_node1"><a xlink:title=" ">
<polygon fill="#bfbfbf" stroke="black" points="15.5,-0.5 15.5,-68.5 128.5,-68.5 128.5,-0.5 15.5,-0.5"/>
<text text-anchor="middle" x="72" y="-56.5" font-family="Helvetica,sans-Serif" font-size="10.00">EMC_LUBE_OFF</text>
<polyline fill="none" stroke="black" points="15.5,-49.5 128.5,-49.5 "/>
<text text-anchor="middle" x="72" y="-37.5" font-family="Helvetica,sans-Serif" font-size="10.00"> </text>
<polyline fill="none" stroke="black" points="15.5,-30.5 128.5,-30.5 "/>
<text text-anchor="start" x="23.5" y="-18.5" font-family="Helvetica,sans-Serif" font-size="10.00">+ EMC_LUBE_OFF()</text>
<text text-anchor="start" x="23.5" y="-7.5" font-family="Helvetica,sans-Serif" font-size="10.00">+ update()</text>
</a>
</g>
</g>
<!-- Node2 -->
<g id="node2" class="node">
<title>Node2</title>
<g id="a_node2"><a xlink:href="classEMC__LUBE__CMD__MSG.html" target="_top" xlink:title=" ">
<polygon fill="white" stroke="black" points="0,-106.5 0,-174.5 144,-174.5 144,-106.5 0,-106.5"/>
<text text-anchor="middle" x="72" y="-162.5" font-family="Helvetica,sans-Serif" font-size="10.00">EMC_LUBE_CMD_MSG</text>
<polyline fill="none" stroke="black" points="0,-155.5 144,-155.5 "/>
<text text-anchor="middle" x="72" y="-143.5" font-family="Helvetica,sans-Serif" font-size="10.00"> </text>
<polyline fill="none" stroke="black" points="0,-136.5 144,-136.5 "/>
<text text-anchor="start" x="8" y="-124.5" font-family="Helvetica,sans-Serif" font-size="10.00">+ EMC_LUBE_CMD_MSG()</text>
<text text-anchor="start" x="8" y="-113.5" font-family="Helvetica,sans-Serif" font-size="10.00">+ update()</text>
</a>
</g>
</g>
<!-- Node2&#45;&gt;Node1 -->
<g id="edge1" class="edge">
<title>Node2&#45;&gt;Node1</title>
<path fill="none" stroke="midnightblue" d="M72,-96.17C72,-87 72,-77.46 72,-68.73"/>
<polygon fill="none" stroke="midnightblue" points="68.5,-96.31 72,-106.31 75.5,-96.31 68.5,-96.31"/>
</g>
<!-- Node3 -->
<g id="node3" class="node">
<title>Node3</title>
<g id="a_node3"><a xlink:href="classRCS__CMD__MSG.html" target="_top" xlink:title=" ">
<polygon fill="white" stroke="black" points="16.5,-212.5 16.5,-269.5 127.5,-269.5 127.5,-212.5 16.5,-212.5"/>
<text text-anchor="middle" x="72" y="-257.5" font-family="Helvetica,sans-Serif" font-size="10.00">RCS_CMD_MSG</text>
<polyline fill="none" stroke="black" points="16.5,-250.5 127.5,-250.5 "/>
<text text-anchor="middle" x="72" y="-238.5" font-family="Helvetica,sans-Serif" font-size="10.00"> </text>
<polyline fill="none" stroke="black" points="16.5,-231.5 127.5,-231.5 "/>
<text text-anchor="start" x="24.5" y="-219.5" font-family="Helvetica,sans-Serif" font-size="10.00">+ RCS_CMD_MSG()</text>
</a>
</g>
</g>
<!-- Node3&#45;&gt;Node2 -->
<g id="edge2" class="edge">
<title>Node3&#45;&gt;Node2</title>
<path fill="none" stroke="midnightblue" d="M72,-202.01C72,-192.96 72,-183.38 72,-174.58"/>
<polygon fill="none" stroke="midnightblue" points="68.5,-202.3 72,-212.3 75.5,-202.3 68.5,-202.3"/>
</g>
<!-- Node4 -->
<g id="node4" class="node">
<title>Node4</title>
<g id="a_node4"><a xlink:href="classNMLmsg.html" target="_top" xlink:title=" ">
<polygon fill="white" stroke="black" points="141,-307.5 141,-408.5 219,-408.5 219,-307.5 141,-307.5"/>
<text text-anchor="middle" x="180" y="-396.5" font-family="Helvetica,sans-Serif" font-size="10.00">NMLmsg</text>
<polyline fill="none" stroke="black" points="141,-389.5 219,-389.5 "/>
<text text-anchor="middle" x="180" y="-377.5" font-family="Helvetica,sans-Serif" font-size="10.00"> </text>
<polyline fill="none" stroke="black" points="141,-370.5 219,-370.5 "/>
<text text-anchor="start" x="149" y="-358.5" font-family="Helvetica,sans-Serif" font-size="10.00">+ clear()</text>
<text text-anchor="start" x="149" y="-347.5" font-family="Helvetica,sans-Serif" font-size="10.00">+ update()</text>
<text text-anchor="start" x="149" y="-336.5" font-family="Helvetica,sans-Serif" font-size="10.00"># NMLmsg()</text>
<text text-anchor="start" x="149" y="-325.5" font-family="Helvetica,sans-Serif" font-size="10.00"># NMLmsg()</text>
<text text-anchor="start" x="149" y="-314.5" font-family="Helvetica,sans-Serif" font-size="10.00"># NMLmsg()</text>
</a>
</g>
</g>
<!-- Node4&#45;&gt;Node3 -->
<g id="edge3" class="edge">
<title>Node4&#45;&gt;Node3</title>
<path fill="none" stroke="midnightblue" d="M133.6,-307.59C121.39,-294.6 108.66,-281.04 97.96,-269.64"/>
<polygon fill="none" stroke="midnightblue" points="131.31,-310.26 140.7,-315.16 136.41,-305.47 131.31,-310.26"/>
</g>
<!-- Node5 -->
<g id="node5" class="node">
<title>Node5</title>
<g id="a_node5"><a xlink:title=" ">
<polygon fill="white" stroke="black" points="30.5,-456.5 30.5,-513.5 59.5,-513.5 59.5,-456.5 30.5,-456.5"/>
<text text-anchor="middle" x="45" y="-501.5" font-family="Helvetica,sans-Serif" font-size="10.00">int</text>
<polyline fill="none" stroke="black" points="30.5,-494.5 59.5,-494.5 "/>
<text text-anchor="middle" x="45" y="-482.5" font-family="Helvetica,sans-Serif" font-size="10.00"> </text>
<polyline fill="none" stroke="black" points="30.5,-475.5 59.5,-475.5 "/>
<text text-anchor="middle" x="45" y="-463.5" font-family="Helvetica,sans-Serif" font-size="10.00"> </text>
</a>
</g>
</g>
<!-- Node5&#45;&gt;Node3 -->
<g id="edge7" class="edge">
<title>Node5&#45;&gt;Node3</title>
<path fill="none" stroke="#404040" d="M43.26,-456.45C41.63,-421.42 40.65,-359.2 50,-307 51.53,-298.47 53.96,-289.54 56.67,-281.13"/>
<polygon fill="none" stroke="#404040" points="56.7,-281.02 54.87,-274.05 60.6,-269.67 62.44,-276.65 56.7,-281.02"/>
<text text-anchor="middle" x="91" y="-355.5" font-family="Helvetica,sans-Serif" font-size="10.00"> +serial_number</text>
</g>
<!-- Node5&#45;&gt;Node4 -->
<g id="edge4" class="edge">
<title>Node5&#45;&gt;Node4</title>
<path fill="none" stroke="#404040" d="M55.11,-456.34C59.91,-446.13 66.48,-435.08 75,-427 88.85,-413.86 97.63,-418.82 114,-409 119.62,-405.63 125.34,-401.87 130.94,-397.97"/>
<polygon fill="none" stroke="#404040" points="131.09,-397.85 133.63,-391.1 140.83,-390.85 138.3,-397.6 131.09,-397.85"/>
<text text-anchor="middle" x="129.5" y="-430" font-family="Helvetica,sans-Serif" font-size="10.00"> +automatically_clear</text>
</g>
<!-- Node6 -->
<g id="node6" class="node">
<title>Node6</title>
<g id="a_node6"><a xlink:title=" ">
<polygon fill="white" stroke="black" points="168,-456.5 168,-513.5 218,-513.5 218,-456.5 168,-456.5"/>
<text text-anchor="middle" x="193" y="-501.5" font-family="Helvetica,sans-Serif" font-size="10.00">int32_t</text>
<polyline fill="none" stroke="black" points="168,-494.5 218,-494.5 "/>
<text text-anchor="middle" x="193" y="-482.5" font-family="Helvetica,sans-Serif" font-size="10.00"> </text>
<polyline fill="none" stroke="black" points="168,-475.5 218,-475.5 "/>
<text text-anchor="middle" x="193" y="-463.5" font-family="Helvetica,sans-Serif" font-size="10.00"> </text>
</a>
</g>
</g>
<!-- Node6&#45;&gt;Node4 -->
<g id="edge5" class="edge">
<title>Node6&#45;&gt;Node4</title>
<path fill="none" stroke="#404040" d="M190.11,-456.26C189.03,-445.79 187.74,-433.42 186.46,-421.07"/>
<polygon fill="none" stroke="#404040" points="186.42,-420.74 181.82,-415.18 185.18,-408.8 189.78,-414.36 186.42,-420.74"/>
<text text-anchor="middle" x="206" y="-430" font-family="Helvetica,sans-Serif" font-size="10.00"> +type</text>
</g>
<!-- Node7 -->
<g id="node7" class="node">
<title>Node7</title>
<g id="a_node7"><a xlink:title=" ">
<polygon fill="white" stroke="black" points="236,-456.5 236,-513.5 274,-513.5 274,-456.5 236,-456.5"/>
<text text-anchor="middle" x="255" y="-501.5" font-family="Helvetica,sans-Serif" font-size="10.00">long</text>
<polyline fill="none" stroke="black" points="236,-494.5 274,-494.5 "/>
<text text-anchor="middle" x="255" y="-482.5" font-family="Helvetica,sans-Serif" font-size="10.00"> </text>
<polyline fill="none" stroke="black" points="236,-475.5 274,-475.5 "/>
<text text-anchor="middle" x="255" y="-463.5" font-family="Helvetica,sans-Serif" font-size="10.00"> </text>
</a>
</g>
</g>
<!-- Node7&#45;&gt;Node4 -->
<g id="edge6" class="edge">
<title>Node7&#45;&gt;Node4</title>
<path fill="none" stroke="#404040" d="M242.42,-456.31C237.85,-446.86 232.47,-436.32 227,-427 225.44,-424.35 223.82,-421.66 222.14,-418.97"/>
<polygon fill="none" stroke="#404040" points="221.97,-418.7 215.37,-415.79 215.51,-408.58 222.11,-411.49 221.97,-418.7"/>
<text text-anchor="middle" x="248.5" y="-430" font-family="Helvetica,sans-Serif" font-size="10.00"> +size</text>
</g>
</g>
</svg>
