<?xml version="1.0" encoding="UTF-8" standalone="no"?>
<!DOCTYPE svg PUBLIC "-//W3C//DTD SVG 1.1//EN"
 "http://www.w3.org/Graphics/SVG/1.1/DTD/svg11.dtd">
<!-- Generated by graphviz version 2.43.0 (0)
 -->
<!-- Title: EMC_COOLANT_FLOOD_ON Pages: 1 -->
<svg width="239pt" height="533pt"
 viewBox="0.00 0.00 239.00 533.00" xmlns="http://www.w3.org/2000/svg" xmlns:xlink="http://www.w3.org/1999/xlink">
<g id="graph0" class="graph" transform="scale(1 1) rotate(0) translate(4 529)">
<title>EMC_COOLANT_FLOOD_ON</title>
<polygon fill="white" stroke="transparent" points="-4,4 -4,-529 235,-529 235,4 -4,4"/>
<!-- Node1 -->
<g id="node1" class="node">
<title>Node1</title>
<g id="a_node1"><a xlink:title=" ">
<polygon fill="#bfbfbf" stroke="black" points="0,-0.5 0,-68.5 170,-68.5 170,-0.5 0,-0.5"/>
<text text-anchor="middle" x="85" y="-56.5" font-family="Helvetica,sans-Serif" font-size="10.00">EMC_COOLANT_FLOOD_ON</text>
<polyline fill="none" stroke="black" points="0,-49.5 170,-49.5 "/>
<text text-anchor="middle" x="85" y="-37.5" font-family="Helvetica,sans-Serif" font-size="10.00"> </text>
<polyline fill="none" stroke="black" points="0,-30.5 170,-30.5 "/>
<text text-anchor="start" x="8" y="-18.5" font-family="Helvetica,sans-Serif" font-size="10.00">+ EMC_COOLANT_FLOOD_ON()</text>
<text text-anchor="start" x="8" y="-7.5" font-family="Helvetica,sans-Serif" font-size="10.00">+ update()</text>
</a>
</g>
</g>
<!-- Node2 -->
<g id="node2" class="node">
<title>Node2</title>
<g id="a_node2"><a xlink:href="classEMC__COOLANT__CMD__MSG.html" target="_top" xlink:title=" ">
<polygon fill="white" stroke="black" points="1.5,-106.5 1.5,-174.5 168.5,-174.5 168.5,-106.5 1.5,-106.5"/>
<text text-anchor="middle" x="85" y="-162.5" font-family="Helvetica,sans-Serif" font-size="10.00">EMC_COOLANT_CMD_MSG</text>
<polyline fill="none" stroke="black" points="1.5,-155.5 168.5,-155.5 "/>
<text text-anchor="middle" x="85" y="-143.5" font-family="Helvetica,sans-Serif" font-size="10.00"> </text>
<polyline fill="none" stroke="black" points="1.5,-136.5 168.5,-136.5 "/>
<text text-anchor="start" x="9.5" y="-124.5" font-family="Helvetica,sans-Serif" font-size="10.00">+ EMC_COOLANT_CMD_MSG()</text>
<text text-anchor="start" x="9.5" y="-113.5" font-family="Helvetica,sans-Serif" font-size="10.00">+ update()</text>
</a>
</g>
</g>
<!-- Node2&#45;&gt;Node1 -->
<g id="edge1" class="edge">
<title>Node2&#45;&gt;Node1</title>
<path fill="none" stroke="midnightblue" d="M85,-96.17C85,-87 85,-77.46 85,-68.73"/>
<polygon fill="none" stroke="midnightblue" points="81.5,-96.31 85,-106.31 88.5,-96.31 81.5,-96.31"/>
</g>
<!-- Node3 -->
<g id="node3" class="node">
<title>Node3</title>
<g id="a_node3"><a xlink:href="classRCS__CMD__MSG.html" target="_top" xlink:title=" ">
<polygon fill="white" stroke="black" points="29.5,-212.5 29.5,-269.5 140.5,-269.5 140.5,-212.5 29.5,-212.5"/>
<text text-anchor="middle" x="85" y="-257.5" font-family="Helvetica,sans-Serif" font-size="10.00">RCS_CMD_MSG</text>
<polyline fill="none" stroke="black" points="29.5,-250.5 140.5,-250.5 "/>
<text text-anchor="middle" x="85" y="-238.5" font-family="Helvetica,sans-Serif" font-size="10.00"> </text>
<polyline fill="none" stroke="black" points="29.5,-231.5 140.5,-231.5 "/>
<text text-anchor="start" x="37.5" y="-219.5" font-family="Helvetica,sans-Serif" font-size="10.00">+ RCS_CMD_MSG()</text>
</a>
</g>
</g>
<!-- Node3&#45;&gt;Node2 -->
<g id="edge2" class="edge">
<title>Node3&#45;&gt;Node2</title>
<path fill="none" stroke="midnightblue" d="M85,-202.01C85,-192.96 85,-183.38 85,-174.58"/>
<polygon fill="none" stroke="midnightblue" points="81.5,-202.3 85,-212.3 88.5,-202.3 81.5,-202.3"/>
</g>
<!-- Node4 -->
<g id="node4" class="node">
<title>Node4</title>
<g id="a_node4"><a xlink:href="classNMLmsg.html" target="_top" xlink:title=" ">
<polygon fill="white" stroke="black" points="144,-307.5 144,-408.5 222,-408.5 222,-307.5 144,-307.5"/>
<text text-anchor="middle" x="183" y="-396.5" font-family="Helvetica,sans-Serif" font-size="10.00">NMLmsg</text>
<polyline fill="none" stroke="black" points="144,-389.5 222,-389.5 "/>
<text text-anchor="middle" x="183" y="-377.5" font-family="Helvetica,sans-Serif" font-size="10.00"> </text>
<polyline fill="none" stroke="black" points="144,-370.5 222,-370.5 "/>
<text text-anchor="start" x="152" y="-358.5" font-family="Helvetica,sans-Serif" font-size="10.00">+ clear()</text>
<text text-anchor="start" x="152" y="-347.5" font-family="Helvetica,sans-Serif" font-size="10.00">+ update()</text>
<text text-anchor="start" x="152" y="-336.5" font-family="Helvetica,sans-Serif" font-size="10.00"># NMLmsg()</text>
<text text-anchor="start" x="152" y="-325.5" font-family="Helvetica,sans-Serif" font-size="10.00"># NMLmsg()</text>
<text text-anchor="start" x="152" y="-314.5" font-family="Helvetica,sans-Serif" font-size="10.00"># NMLmsg()</text>
</a>
</g>
</g>
<!-- Node4&#45;&gt;Node3 -->
<g id="edge3" class="edge">
<title>Node4&#45;&gt;Node3</title>
<path fill="none" stroke="midnightblue" d="M137.48,-303.58C127.51,-291.88 117.34,-279.95 108.64,-269.75"/>
<polygon fill="none" stroke="midnightblue" points="134.84,-305.88 143.99,-311.22 140.16,-301.34 134.84,-305.88"/>
</g>
<!-- Node5 -->
<g id="node5" class="node">
<title>Node5</title>
<g id="a_node5"><a xlink:title=" ">
<polygon fill="white" stroke="black" points="46.5,-467.5 46.5,-524.5 75.5,-524.5 75.5,-467.5 46.5,-467.5"/>
<text text-anchor="middle" x="61" y="-512.5" font-family="Helvetica,sans-Serif" font-size="10.00">int</text>
<polyline fill="none" stroke="black" points="46.5,-505.5 75.5,-505.5 "/>
<text text-anchor="middle" x="61" y="-493.5" font-family="Helvetica,sans-Serif" font-size="10.00"> </text>
<polyline fill="none" stroke="black" points="46.5,-486.5 75.5,-486.5 "/>
<text text-anchor="middle" x="61" y="-474.5" font-family="Helvetica,sans-Serif" font-size="10.00"> </text>
</a>
</g>
</g>
<!-- Node5&#45;&gt;Node3 -->
<g id="edge6" class="edge">
<title>Node5&#45;&gt;Node3</title>
<path fill="none" stroke="#404040" d="M55.27,-467.49C48.58,-430.47 40,-362.84 53,-307 55.06,-298.16 58.5,-289.13 62.38,-280.73"/>
<polygon fill="none" stroke="#404040" points="62.51,-280.48 61.6,-273.33 67.86,-269.74 68.76,-276.89 62.51,-280.48"/>
<text text-anchor="middle" x="94" y="-355.5" font-family="Helvetica,sans-Serif" font-size="10.00"> +serial_number</text>
</g>
<!-- Node5&#45;&gt;Node4 -->
<g id="edge4" class="edge">
<title>Node5&#45;&gt;Node4</title>
<path fill="none" stroke="#404040" d="M64.28,-467.3C67.19,-453.68 72.67,-437.89 83,-427 98.39,-410.77 111.06,-420.9 130,-409 131.33,-408.17 132.65,-407.3 133.96,-406.4"/>
<polygon fill="none" stroke="#404040" points="134.25,-406.18 136.65,-399.38 143.85,-398.98 141.45,-405.78 134.25,-406.18"/>
<text text-anchor="middle" x="137.5" y="-441" font-family="Helvetica,sans-Serif" font-size="10.00"> +automatically_clear</text>
<text text-anchor="middle" x="137.5" y="-430" font-family="Helvetica,sans-Serif" font-size="10.00">+type</text>
</g>
<!-- Node6 -->
<g id="node6" class="node">
<title>Node6</title>
<g id="a_node6"><a xlink:title=" ">
<polygon fill="white" stroke="black" points="190,-467.5 190,-524.5 228,-524.5 228,-467.5 190,-467.5"/>
<text text-anchor="middle" x="209" y="-512.5" font-family="Helvetica,sans-Serif" font-size="10.00">long</text>
<polyline fill="none" stroke="black" points="190,-505.5 228,-505.5 "/>
<text text-anchor="middle" x="209" y="-493.5" font-family="Helvetica,sans-Serif" font-size="10.00"> </text>
<polyline fill="none" stroke="black" points="190,-486.5 228,-486.5 "/>
<text text-anchor="middle" x="209" y="-474.5" font-family="Helvetica,sans-Serif" font-size="10.00"> </text>
</a>
</g>
</g>
<!-- Node6&#45;&gt;Node4 -->
<g id="edge5" class="edge">
<title>Node6&#45;&gt;Node4</title>
<path fill="none" stroke="#404040" d="M203.74,-467.48C201.15,-453.93 197.91,-437 194.77,-420.58"/>
<polygon fill="none" stroke="#404040" points="194.77,-420.55 189.71,-415.41 192.51,-408.76 197.57,-413.91 194.77,-420.55"/>
<text text-anchor="middle" x="215.5" y="-435.5" font-family="Helvetica,sans-Serif" font-size="10.00"> +size</text>
</g>
</g>
</svg>
