<?xml version="1.0" encoding="UTF-8" standalone="no"?>
<!DOCTYPE svg PUBLIC "-//W3C//DTD SVG 1.1//EN"
 "http://www.w3.org/Graphics/SVG/1.1/DTD/svg11.dtd">
<!-- Generated by graphviz version 2.43.0 (0)
 -->
<!-- Title: EMC_SPINDLE_CMD_MSG Pages: 1 -->
<svg width="369pt" height="426pt"
 viewBox="0.00 0.00 369.00 426.00" xmlns="http://www.w3.org/2000/svg" xmlns:xlink="http://www.w3.org/1999/xlink">
<g id="graph0" class="graph" transform="scale(1 1) rotate(0) translate(4 422)">
<title>EMC_SPINDLE_CMD_MSG</title>
<polygon fill="white" stroke="transparent" points="-4,4 -4,-422 365,-422 365,4 -4,4"/>
<!-- Node1 -->
<g id="node1" class="node">
<title>Node1</title>
<g id="a_node1"><a xlink:title=" ">
<polygon fill="#bfbfbf" stroke="black" points="0,-0.5 0,-68.5 160,-68.5 160,-0.5 0,-0.5"/>
<text text-anchor="middle" x="80" y="-56.5" font-family="Helvetica,sans-Serif" font-size="10.00">EMC_SPINDLE_CMD_MSG</text>
<polyline fill="none" stroke="black" points="0,-49.5 160,-49.5 "/>
<text text-anchor="middle" x="80" y="-37.5" font-family="Helvetica,sans-Serif" font-size="10.00"> </text>
<polyline fill="none" stroke="black" points="0,-30.5 160,-30.5 "/>
<text text-anchor="start" x="8" y="-18.5" font-family="Helvetica,sans-Serif" font-size="10.00">+ EMC_SPINDLE_CMD_MSG()</text>
<text text-anchor="start" x="8" y="-7.5" font-family="Helvetica,sans-Serif" font-size="10.00">+ update()</text>
</a>
</g>
</g>
<!-- Node2 -->
<g id="node2" class="node">
<title>Node2</title>
<g id="a_node2"><a xlink:href="classRCS__CMD__MSG.html" target="_top" xlink:title=" ">
<polygon fill="white" stroke="black" points="81.5,-106.5 81.5,-163.5 192.5,-163.5 192.5,-106.5 81.5,-106.5"/>
<text text-anchor="middle" x="137" y="-151.5" font-family="Helvetica,sans-Serif" font-size="10.00">RCS_CMD_MSG</text>
<polyline fill="none" stroke="black" points="81.5,-144.5 192.5,-144.5 "/>
<text text-anchor="middle" x="137" y="-132.5" font-family="Helvetica,sans-Serif" font-size="10.00"> </text>
<polyline fill="none" stroke="black" points="81.5,-125.5 192.5,-125.5 "/>
<text text-anchor="start" x="89.5" y="-113.5" font-family="Helvetica,sans-Serif" font-size="10.00">+ RCS_CMD_MSG()</text>
</a>
</g>
</g>
<!-- Node2&#45;&gt;Node1 -->
<g id="edge1" class="edge">
<title>Node2&#45;&gt;Node1</title>
<path fill="none" stroke="midnightblue" d="M115.86,-97.48C110.38,-88.01 104.51,-77.86 99.14,-68.58"/>
<polygon fill="none" stroke="midnightblue" points="112.93,-99.4 120.97,-106.3 118.99,-95.89 112.93,-99.4"/>
</g>
<!-- Node3 -->
<g id="node3" class="node">
<title>Node3</title>
<g id="a_node3"><a xlink:href="classNMLmsg.html" target="_top" xlink:title=" ">
<polygon fill="white" stroke="black" points="228,-211.5 228,-312.5 306,-312.5 306,-211.5 228,-211.5"/>
<text text-anchor="middle" x="267" y="-300.5" font-family="Helvetica,sans-Serif" font-size="10.00">NMLmsg</text>
<polyline fill="none" stroke="black" points="228,-293.5 306,-293.5 "/>
<text text-anchor="middle" x="267" y="-281.5" font-family="Helvetica,sans-Serif" font-size="10.00"> </text>
<polyline fill="none" stroke="black" points="228,-274.5 306,-274.5 "/>
<text text-anchor="start" x="236" y="-262.5" font-family="Helvetica,sans-Serif" font-size="10.00">+ clear()</text>
<text text-anchor="start" x="236" y="-251.5" font-family="Helvetica,sans-Serif" font-size="10.00">+ update()</text>
<text text-anchor="start" x="236" y="-240.5" font-family="Helvetica,sans-Serif" font-size="10.00"># NMLmsg()</text>
<text text-anchor="start" x="236" y="-229.5" font-family="Helvetica,sans-Serif" font-size="10.00"># NMLmsg()</text>
<text text-anchor="start" x="236" y="-218.5" font-family="Helvetica,sans-Serif" font-size="10.00"># NMLmsg()</text>
</a>
</g>
</g>
<!-- Node3&#45;&gt;Node2 -->
<g id="edge2" class="edge">
<title>Node3&#45;&gt;Node2</title>
<path fill="none" stroke="midnightblue" d="M220.31,-216.11C202.04,-198.54 181.67,-178.95 165.64,-163.54"/>
<polygon fill="none" stroke="midnightblue" points="218.36,-219.09 228,-223.5 223.21,-214.04 218.36,-219.09"/>
</g>
<!-- Node4 -->
<g id="node4" class="node">
<title>Node4</title>
<g id="a_node4"><a xlink:title=" ">
<polygon fill="white" stroke="black" points="100.5,-360.5 100.5,-417.5 129.5,-417.5 129.5,-360.5 100.5,-360.5"/>
<text text-anchor="middle" x="115" y="-405.5" font-family="Helvetica,sans-Serif" font-size="10.00">int</text>
<polyline fill="none" stroke="black" points="100.5,-398.5 129.5,-398.5 "/>
<text text-anchor="middle" x="115" y="-386.5" font-family="Helvetica,sans-Serif" font-size="10.00"> </text>
<polyline fill="none" stroke="black" points="100.5,-379.5 129.5,-379.5 "/>
<text text-anchor="middle" x="115" y="-367.5" font-family="Helvetica,sans-Serif" font-size="10.00"> </text>
</a>
</g>
</g>
<!-- Node4&#45;&gt;Node1 -->
<g id="edge7" class="edge">
<title>Node4&#45;&gt;Node1</title>
<path fill="none" stroke="#404040" d="M107.92,-360.31C97.58,-318.24 78.81,-235.55 72,-164 69.56,-138.34 70.54,-131.74 72,-106 72.46,-97.82 73.22,-89.13 74.1,-80.75"/>
<polygon fill="none" stroke="#404040" points="74.1,-80.71 70.8,-74.3 75.44,-68.79 78.75,-75.19 74.1,-80.71"/>
<text text-anchor="middle" x="99.5" y="-185" font-family="Helvetica,sans-Serif" font-size="10.00"> +spindle</text>
</g>
<!-- Node4&#45;&gt;Node2 -->
<g id="edge6" class="edge">
<title>Node4&#45;&gt;Node2</title>
<path fill="none" stroke="#404040" d="M117.44,-360.07C121.35,-315.3 129.03,-227.29 133.52,-175.9"/>
<polygon fill="none" stroke="#404040" points="133.54,-175.63 130.08,-169.3 134.58,-163.67 138.05,-170 133.54,-175.63"/>
<text text-anchor="middle" x="172" y="-259.5" font-family="Helvetica,sans-Serif" font-size="10.00"> +serial_number</text>
</g>
<!-- Node4&#45;&gt;Node3 -->
<g id="edge3" class="edge">
<title>Node4&#45;&gt;Node3</title>
<path fill="none" stroke="#404040" d="M129.56,-365.91C137.98,-354.39 149.4,-340.71 162,-331 177.12,-319.34 184.63,-322.82 201,-313 206.62,-309.63 212.34,-305.87 217.94,-301.97"/>
<polygon fill="none" stroke="#404040" points="218.09,-301.85 220.63,-295.1 227.83,-294.85 225.3,-301.6 218.09,-301.85"/>
<text text-anchor="middle" x="216.5" y="-334" font-family="Helvetica,sans-Serif" font-size="10.00"> +automatically_clear</text>
</g>
<!-- Node5 -->
<g id="node5" class="node">
<title>Node5</title>
<g id="a_node5"><a xlink:title=" ">
<polygon fill="white" stroke="black" points="255,-360.5 255,-417.5 305,-417.5 305,-360.5 255,-360.5"/>
<text text-anchor="middle" x="280" y="-405.5" font-family="Helvetica,sans-Serif" font-size="10.00">int32_t</text>
<polyline fill="none" stroke="black" points="255,-398.5 305,-398.5 "/>
<text text-anchor="middle" x="280" y="-386.5" font-family="Helvetica,sans-Serif" font-size="10.00"> </text>
<polyline fill="none" stroke="black" points="255,-379.5 305,-379.5 "/>
<text text-anchor="middle" x="280" y="-367.5" font-family="Helvetica,sans-Serif" font-size="10.00"> </text>
</a>
</g>
</g>
<!-- Node5&#45;&gt;Node3 -->
<g id="edge4" class="edge">
<title>Node5&#45;&gt;Node3</title>
<path fill="none" stroke="#404040" d="M277.11,-360.26C276.03,-349.79 274.74,-337.42 273.46,-325.07"/>
<polygon fill="none" stroke="#404040" points="273.42,-324.74 268.82,-319.18 272.18,-312.8 276.78,-318.36 273.42,-324.74"/>
<text text-anchor="middle" x="293" y="-334" font-family="Helvetica,sans-Serif" font-size="10.00"> +type</text>
</g>
<!-- Node6 -->
<g id="node6" class="node">
<title>Node6</title>
<g id="a_node6"><a xlink:title=" ">
<polygon fill="white" stroke="black" points="323,-360.5 323,-417.5 361,-417.5 361,-360.5 323,-360.5"/>
<text text-anchor="middle" x="342" y="-405.5" font-family="Helvetica,sans-Serif" font-size="10.00">long</text>
<polyline fill="none" stroke="black" points="323,-398.5 361,-398.5 "/>
<text text-anchor="middle" x="342" y="-386.5" font-family="Helvetica,sans-Serif" font-size="10.00"> </text>
<polyline fill="none" stroke="black" points="323,-379.5 361,-379.5 "/>
<text text-anchor="middle" x="342" y="-367.5" font-family="Helvetica,sans-Serif" font-size="10.00"> </text>
</a>
</g>
</g>
<!-- Node6&#45;&gt;Node3 -->
<g id="edge5" class="edge">
<title>Node6&#45;&gt;Node3</title>
<path fill="none" stroke="#404040" d="M329.42,-360.31C324.85,-350.86 319.47,-340.32 314,-331 312.44,-328.35 310.82,-325.66 309.14,-322.97"/>
<polygon fill="none" stroke="#404040" points="308.97,-322.7 302.37,-319.79 302.51,-312.58 309.11,-315.49 308.97,-322.7"/>
<text text-anchor="middle" x="335.5" y="-334" font-family="Helvetica,sans-Serif" font-size="10.00"> +size</text>
</g>
</g>
</svg>
