<?xml version="1.0" encoding="UTF-8" standalone="no"?>
<!DOCTYPE svg PUBLIC "-//W3C//DTD SVG 1.1//EN"
 "http://www.w3.org/Graphics/SVG/1.1/DTD/svg11.dtd">
<!-- Generated by graphviz version 2.43.0 (0)
 -->
<!-- Title: EMC_TRAJ_SET_HOME Pages: 1 -->
<svg width="656pt" height="607pt"
 viewBox="0.00 0.00 655.50 607.00" xmlns="http://www.w3.org/2000/svg" xmlns:xlink="http://www.w3.org/1999/xlink">
<g id="graph0" class="graph" transform="scale(1 1) rotate(0) translate(4 603)">
<title>EMC_TRAJ_SET_HOME</title>
<polygon fill="white" stroke="transparent" points="-4,4 -4,-603 651.5,-603 651.5,4 -4,4"/>
<!-- Node1 -->
<g id="node1" class="node">
<title>Node1</title>
<g id="a_node1"><a xlink:title=" ">
<polygon fill="#bfbfbf" stroke="black" points="394.5,-0.5 394.5,-68.5 537.5,-68.5 537.5,-0.5 394.5,-0.5"/>
<text text-anchor="middle" x="466" y="-56.5" font-family="Helvetica,sans-Serif" font-size="10.00">EMC_TRAJ_SET_HOME</text>
<polyline fill="none" stroke="black" points="394.5,-49.5 537.5,-49.5 "/>
<text text-anchor="middle" x="466" y="-37.5" font-family="Helvetica,sans-Serif" font-size="10.00"> </text>
<polyline fill="none" stroke="black" points="394.5,-30.5 537.5,-30.5 "/>
<text text-anchor="start" x="402.5" y="-18.5" font-family="Helvetica,sans-Serif" font-size="10.00">+ EMC_TRAJ_SET_HOME()</text>
<text text-anchor="start" x="402.5" y="-7.5" font-family="Helvetica,sans-Serif" font-size="10.00">+ update()</text>
</a>
</g>
</g>
<!-- Node2 -->
<g id="node2" class="node">
<title>Node2</title>
<g id="a_node2"><a xlink:href="classEMC__TRAJ__CMD__MSG.html" target="_top" xlink:title=" ">
<polygon fill="white" stroke="black" points="336.5,-116.5 336.5,-184.5 477.5,-184.5 477.5,-116.5 336.5,-116.5"/>
<text text-anchor="middle" x="407" y="-172.5" font-family="Helvetica,sans-Serif" font-size="10.00">EMC_TRAJ_CMD_MSG</text>
<polyline fill="none" stroke="black" points="336.5,-165.5 477.5,-165.5 "/>
<text text-anchor="middle" x="407" y="-153.5" font-family="Helvetica,sans-Serif" font-size="10.00"> </text>
<polyline fill="none" stroke="black" points="336.5,-146.5 477.5,-146.5 "/>
<text text-anchor="start" x="344.5" y="-134.5" font-family="Helvetica,sans-Serif" font-size="10.00">+ EMC_TRAJ_CMD_MSG()</text>
<text text-anchor="start" x="344.5" y="-123.5" font-family="Helvetica,sans-Serif" font-size="10.00">+ update()</text>
</a>
</g>
</g>
<!-- Node2&#45;&gt;Node1 -->
<g id="edge1" class="edge">
<title>Node2&#45;&gt;Node1</title>
<path fill="none" stroke="midnightblue" d="M428.9,-107.18C435.49,-94.45 442.62,-80.67 448.86,-68.62"/>
<polygon fill="none" stroke="midnightblue" points="425.71,-105.73 424.22,-116.22 431.93,-108.95 425.71,-105.73"/>
</g>
<!-- Node3 -->
<g id="node3" class="node">
<title>Node3</title>
<g id="a_node3"><a xlink:href="classRCS__CMD__MSG.html" target="_top" xlink:title=" ">
<polygon fill="white" stroke="black" points="209.5,-249 209.5,-306 320.5,-306 320.5,-249 209.5,-249"/>
<text text-anchor="middle" x="265" y="-294" font-family="Helvetica,sans-Serif" font-size="10.00">RCS_CMD_MSG</text>
<polyline fill="none" stroke="black" points="209.5,-287 320.5,-287 "/>
<text text-anchor="middle" x="265" y="-275" font-family="Helvetica,sans-Serif" font-size="10.00"> </text>
<polyline fill="none" stroke="black" points="209.5,-268 320.5,-268 "/>
<text text-anchor="start" x="217.5" y="-256" font-family="Helvetica,sans-Serif" font-size="10.00">+ RCS_CMD_MSG()</text>
</a>
</g>
</g>
<!-- Node3&#45;&gt;Node2 -->
<g id="edge2" class="edge">
<title>Node3&#45;&gt;Node2</title>
<path fill="none" stroke="midnightblue" d="M304.07,-242.11C324.4,-224.21 349.14,-202.43 369.27,-184.71"/>
<polygon fill="none" stroke="midnightblue" points="301.71,-239.52 296.51,-248.76 306.33,-244.78 301.71,-239.52"/>
</g>
<!-- Node4 -->
<g id="node4" class="node">
<title>Node4</title>
<g id="a_node4"><a xlink:href="classNMLmsg.html" target="_top" xlink:title=" ">
<polygon fill="white" stroke="black" points="75,-392.5 75,-493.5 153,-493.5 153,-392.5 75,-392.5"/>
<text text-anchor="middle" x="114" y="-481.5" font-family="Helvetica,sans-Serif" font-size="10.00">NMLmsg</text>
<polyline fill="none" stroke="black" points="75,-474.5 153,-474.5 "/>
<text text-anchor="middle" x="114" y="-462.5" font-family="Helvetica,sans-Serif" font-size="10.00"> </text>
<polyline fill="none" stroke="black" points="75,-455.5 153,-455.5 "/>
<text text-anchor="start" x="83" y="-443.5" font-family="Helvetica,sans-Serif" font-size="10.00">+ clear()</text>
<text text-anchor="start" x="83" y="-432.5" font-family="Helvetica,sans-Serif" font-size="10.00">+ update()</text>
<text text-anchor="start" x="83" y="-421.5" font-family="Helvetica,sans-Serif" font-size="10.00"># NMLmsg()</text>
<text text-anchor="start" x="83" y="-410.5" font-family="Helvetica,sans-Serif" font-size="10.00"># NMLmsg()</text>
<text text-anchor="start" x="83" y="-399.5" font-family="Helvetica,sans-Serif" font-size="10.00"># NMLmsg()</text>
</a>
</g>
</g>
<!-- Node4&#45;&gt;Node3 -->
<g id="edge3" class="edge">
<title>Node4&#45;&gt;Node3</title>
<path fill="none" stroke="midnightblue" d="M160.1,-392.08C186.07,-363.96 217.55,-329.88 239.2,-306.43"/>
<polygon fill="none" stroke="midnightblue" points="157.49,-389.75 153.28,-399.47 162.64,-394.5 157.49,-389.75"/>
</g>
<!-- Node5 -->
<g id="node5" class="node">
<title>Node5</title>
<g id="a_node5"><a xlink:title=" ">
<polygon fill="white" stroke="black" points="250.5,-541.5 250.5,-598.5 279.5,-598.5 279.5,-541.5 250.5,-541.5"/>
<text text-anchor="middle" x="265" y="-586.5" font-family="Helvetica,sans-Serif" font-size="10.00">int</text>
<polyline fill="none" stroke="black" points="250.5,-579.5 279.5,-579.5 "/>
<text text-anchor="middle" x="265" y="-567.5" font-family="Helvetica,sans-Serif" font-size="10.00"> </text>
<polyline fill="none" stroke="black" points="250.5,-560.5 279.5,-560.5 "/>
<text text-anchor="middle" x="265" y="-548.5" font-family="Helvetica,sans-Serif" font-size="10.00"> </text>
</a>
</g>
</g>
<!-- Node5&#45;&gt;Node3 -->
<g id="edge7" class="edge">
<title>Node5&#45;&gt;Node3</title>
<path fill="none" stroke="#404040" d="M265,-541.41C265,-489.82 265,-378.56 265,-318.65"/>
<polygon fill="none" stroke="#404040" points="265,-318.33 261,-312.33 265,-306.33 269,-312.33 265,-318.33"/>
<text text-anchor="middle" x="306" y="-440.5" font-family="Helvetica,sans-Serif" font-size="10.00"> +serial_number</text>
</g>
<!-- Node5&#45;&gt;Node4 -->
<g id="edge4" class="edge">
<title>Node5&#45;&gt;Node4</title>
<path fill="none" stroke="#404040" d="M250.34,-567.51C224.85,-564.16 172.2,-553.73 142,-523 136.9,-517.81 132.73,-511.64 129.31,-505.07"/>
<polygon fill="none" stroke="#404040" points="129.14,-504.68 123.04,-500.84 124.25,-493.73 130.35,-497.57 129.14,-504.68"/>
<text text-anchor="middle" x="196.5" y="-515" font-family="Helvetica,sans-Serif" font-size="10.00"> +automatically_clear</text>
</g>
<!-- Node9 -->
<g id="node9" class="node">
<title>Node9</title>
<g id="a_node9"><a xlink:href="structstate__tag__t.html" target="_top" xlink:title=" ">
<polygon fill="white" stroke="black" points="365.5,-414.5 365.5,-471.5 436.5,-471.5 436.5,-414.5 365.5,-414.5"/>
<text text-anchor="middle" x="401" y="-459.5" font-family="Helvetica,sans-Serif" font-size="10.00">state_tag_t</text>
<polyline fill="none" stroke="black" points="365.5,-452.5 436.5,-452.5 "/>
<text text-anchor="middle" x="401" y="-440.5" font-family="Helvetica,sans-Serif" font-size="10.00"> </text>
<polyline fill="none" stroke="black" points="365.5,-433.5 436.5,-433.5 "/>
<text text-anchor="middle" x="401" y="-421.5" font-family="Helvetica,sans-Serif" font-size="10.00"> </text>
</a>
</g>
</g>
<!-- Node5&#45;&gt;Node9 -->
<g id="edge11" class="edge">
<title>Node5&#45;&gt;Node9</title>
<path fill="none" stroke="#404040" d="M279.57,-556.82C296.89,-542.22 326.53,-516.85 351,-494 355.77,-489.55 360.71,-484.79 365.55,-480.05"/>
<polygon fill="none" stroke="#404040" points="365.56,-480.03 367.01,-472.97 374.08,-471.59 372.64,-478.65 365.56,-480.03"/>
<text text-anchor="middle" x="350" y="-515" font-family="Helvetica,sans-Serif" font-size="10.00"> +fields</text>
</g>
<!-- Node6 -->
<g id="node6" class="node">
<title>Node6</title>
<g id="a_node6"><a xlink:title=" ">
<polygon fill="white" stroke="black" points="0,-541.5 0,-598.5 50,-598.5 50,-541.5 0,-541.5"/>
<text text-anchor="middle" x="25" y="-586.5" font-family="Helvetica,sans-Serif" font-size="10.00">int32_t</text>
<polyline fill="none" stroke="black" points="0,-579.5 50,-579.5 "/>
<text text-anchor="middle" x="25" y="-567.5" font-family="Helvetica,sans-Serif" font-size="10.00"> </text>
<polyline fill="none" stroke="black" points="0,-560.5 50,-560.5 "/>
<text text-anchor="middle" x="25" y="-548.5" font-family="Helvetica,sans-Serif" font-size="10.00"> </text>
</a>
</g>
</g>
<!-- Node6&#45;&gt;Node4 -->
<g id="edge5" class="edge">
<title>Node6&#45;&gt;Node4</title>
<path fill="none" stroke="#404040" d="M34.31,-541.3C38.16,-531.64 43.11,-520.98 49,-512 54.17,-504.13 60.3,-496.35 66.71,-489.03"/>
<polygon fill="none" stroke="#404040" points="66.83,-488.89 67.92,-481.76 74.92,-480.02 73.83,-487.15 66.83,-488.89"/>
<text text-anchor="middle" x="66" y="-515" font-family="Helvetica,sans-Serif" font-size="10.00"> +type</text>
</g>
<!-- Node7 -->
<g id="node7" class="node">
<title>Node7</title>
<g id="a_node7"><a xlink:title=" ">
<polygon fill="white" stroke="black" points="68,-541.5 68,-598.5 106,-598.5 106,-541.5 68,-541.5"/>
<text text-anchor="middle" x="87" y="-586.5" font-family="Helvetica,sans-Serif" font-size="10.00">long</text>
<polyline fill="none" stroke="black" points="68,-579.5 106,-579.5 "/>
<text text-anchor="middle" x="87" y="-567.5" font-family="Helvetica,sans-Serif" font-size="10.00"> </text>
<polyline fill="none" stroke="black" points="68,-560.5 106,-560.5 "/>
<text text-anchor="middle" x="87" y="-548.5" font-family="Helvetica,sans-Serif" font-size="10.00"> </text>
</a>
</g>
</g>
<!-- Node7&#45;&gt;Node4 -->
<g id="edge6" class="edge">
<title>Node7&#45;&gt;Node4</title>
<path fill="none" stroke="#404040" d="M85.56,-541.26C85.59,-531.89 86.17,-521.43 88,-512 88.44,-509.72 88.95,-507.42 89.52,-505.11"/>
<polygon fill="none" stroke="#404040" points="89.53,-505.1 87.32,-498.23 92.8,-493.55 95.01,-500.42 89.53,-505.1"/>
<text text-anchor="middle" x="103.5" y="-515" font-family="Helvetica,sans-Serif" font-size="10.00"> +size</text>
</g>
<!-- Node8 -->
<g id="node8" class="node">
<title>Node8</title>
<g id="a_node8"><a xlink:href="structStateTag.html" target="_top" xlink:title=" ">
<polygon fill="white" stroke="black" points="356,-232.5 356,-322.5 458,-322.5 458,-232.5 356,-232.5"/>
<text text-anchor="middle" x="407" y="-310.5" font-family="Helvetica,sans-Serif" font-size="10.00">StateTag</text>
<polyline fill="none" stroke="black" points="356,-303.5 458,-303.5 "/>
<text text-anchor="middle" x="407" y="-291.5" font-family="Helvetica,sans-Serif" font-size="10.00"> </text>
<polyline fill="none" stroke="black" points="356,-284.5 458,-284.5 "/>
<text text-anchor="start" x="364" y="-272.5" font-family="Helvetica,sans-Serif" font-size="10.00">+ StateTag()</text>
<text text-anchor="start" x="364" y="-261.5" font-family="Helvetica,sans-Serif" font-size="10.00">+ StateTag()</text>
<text text-anchor="start" x="364" y="-250.5" font-family="Helvetica,sans-Serif" font-size="10.00">+ is_valid()</text>
<text text-anchor="start" x="364" y="-239.5" font-family="Helvetica,sans-Serif" font-size="10.00">+ get_state_tag()</text>
</a>
</g>
</g>
<!-- Node8&#45;&gt;Node2 -->
<g id="edge8" class="edge">
<title>Node8&#45;&gt;Node2</title>
<path fill="none" stroke="#404040" d="M407,-232.43C407,-220.87 407,-208.38 407,-196.76"/>
<polygon fill="none" stroke="#404040" points="407,-196.57 403,-190.57 407,-184.57 411,-190.57 407,-196.57"/>
<text text-anchor="middle" x="421" y="-206" font-family="Helvetica,sans-Serif" font-size="10.00"> +tag</text>
</g>
<!-- Node9&#45;&gt;Node8 -->
<g id="edge9" class="edge">
<title>Node9&#45;&gt;Node8</title>
<path fill="none" stroke="midnightblue" d="M402.39,-404.01C403.29,-379.73 404.44,-348.14 405.38,-322.73"/>
<polygon fill="none" stroke="midnightblue" points="398.89,-404.14 402.02,-414.26 405.88,-404.4 398.89,-404.14"/>
</g>
<!-- Node10 -->
<g id="node10" class="node">
<title>Node10</title>
<g id="a_node10"><a xlink:title=" ">
<polygon fill="white" stroke="black" points="372,-541.5 372,-598.5 410,-598.5 410,-541.5 372,-541.5"/>
<text text-anchor="middle" x="391" y="-586.5" font-family="Helvetica,sans-Serif" font-size="10.00">float</text>
<polyline fill="none" stroke="black" points="372,-579.5 410,-579.5 "/>
<text text-anchor="middle" x="391" y="-567.5" font-family="Helvetica,sans-Serif" font-size="10.00"> </text>
<polyline fill="none" stroke="black" points="372,-560.5 410,-560.5 "/>
<text text-anchor="middle" x="391" y="-548.5" font-family="Helvetica,sans-Serif" font-size="10.00"> </text>
</a>
</g>
</g>
<!-- Node10&#45;&gt;Node9 -->
<g id="edge10" class="edge">
<title>Node10&#45;&gt;Node9</title>
<path fill="none" stroke="#404040" d="M390.85,-541.43C390.97,-532.08 391.28,-521.57 392,-512 392.68,-502.86 393.77,-493.06 394.95,-483.83"/>
<polygon fill="none" stroke="#404040" points="394.99,-483.61 391.83,-477.12 396.6,-471.72 399.76,-478.2 394.99,-483.61"/>
<text text-anchor="middle" x="424.5" y="-515" font-family="Helvetica,sans-Serif" font-size="10.00"> +fields_float</text>
</g>
<!-- Node11 -->
<g id="node11" class="node">
<title>Node11</title>
<g id="a_node11"><a xlink:title=" ">
<polygon fill="white" stroke="black" points="448.5,-541.5 448.5,-598.5 509.5,-598.5 509.5,-541.5 448.5,-541.5"/>
<text text-anchor="middle" x="479" y="-586.5" font-family="Helvetica,sans-Serif" font-size="10.00">unsigned</text>
<polyline fill="none" stroke="black" points="448.5,-579.5 509.5,-579.5 "/>
<text text-anchor="middle" x="479" y="-567.5" font-family="Helvetica,sans-Serif" font-size="10.00"> </text>
<polyline fill="none" stroke="black" points="448.5,-560.5 509.5,-560.5 "/>
<text text-anchor="middle" x="479" y="-548.5" font-family="Helvetica,sans-Serif" font-size="10.00"> </text>
</a>
</g>
</g>
<!-- Node11&#45;&gt;Node9 -->
<g id="edge12" class="edge">
<title>Node11&#45;&gt;Node9</title>
<path fill="none" stroke="#404040" d="M470.3,-541.21C466.79,-531.65 462.3,-521.07 457,-512 453.07,-505.26 443.38,-493.1 433.14,-480.91"/>
<polygon fill="none" stroke="#404040" points="433.06,-480.81 426.13,-478.82 425.3,-471.66 432.23,-473.65 433.06,-480.81"/>
<text text-anchor="middle" x="500.5" y="-515" font-family="Helvetica,sans-Serif" font-size="10.00"> +packed_flags</text>
</g>
<!-- Node12 -->
<g id="node12" class="node">
<title>Node12</title>
<g id="a_node12"><a xlink:title=" ">
<polygon fill="white" stroke="black" points="454.5,-414.5 454.5,-471.5 533.5,-471.5 533.5,-414.5 454.5,-414.5"/>
<text text-anchor="middle" x="494" y="-459.5" font-family="Helvetica,sans-Serif" font-size="10.00">bitset&lt; 64 &gt;</text>
<polyline fill="none" stroke="black" points="454.5,-452.5 533.5,-452.5 "/>
<text text-anchor="middle" x="494" y="-440.5" font-family="Helvetica,sans-Serif" font-size="10.00"> </text>
<polyline fill="none" stroke="black" points="454.5,-433.5 533.5,-433.5 "/>
<text text-anchor="middle" x="494" y="-421.5" font-family="Helvetica,sans-Serif" font-size="10.00"> </text>
</a>
</g>
</g>
<!-- Node12&#45;&gt;Node8 -->
<g id="edge13" class="edge">
<title>Node12&#45;&gt;Node8</title>
<path fill="none" stroke="#404040" d="M479.24,-414.26C467.52,-392.24 450.77,-360.76 436.35,-333.65"/>
<polygon fill="none" stroke="#404040" points="436.17,-333.33 429.82,-329.91 430.54,-322.73 436.89,-326.15 436.17,-333.33"/>
<text text-anchor="middle" x="473.5" y="-355" font-family="Helvetica,sans-Serif" font-size="10.00"> +flags</text>
</g>
<!-- Node13 -->
<g id="node13" class="node">
<title>Node13</title>
<g id="a_node13"><a xlink:href="structEmcPose.html" target="_top" xlink:title=" ">
<polygon fill="white" stroke="black" points="501.5,-122 501.5,-179 562.5,-179 562.5,-122 501.5,-122"/>
<text text-anchor="middle" x="532" y="-167" font-family="Helvetica,sans-Serif" font-size="10.00">EmcPose</text>
<polyline fill="none" stroke="black" points="501.5,-160 562.5,-160 "/>
<text text-anchor="middle" x="532" y="-148" font-family="Helvetica,sans-Serif" font-size="10.00"> </text>
<polyline fill="none" stroke="black" points="501.5,-141 562.5,-141 "/>
<text text-anchor="middle" x="532" y="-129" font-family="Helvetica,sans-Serif" font-size="10.00"> </text>
</a>
</g>
</g>
<!-- Node13&#45;&gt;Node1 -->
<g id="edge14" class="edge">
<title>Node13&#45;&gt;Node1</title>
<path fill="none" stroke="#404040" d="M516.02,-121.9C508.61,-109.09 499.61,-93.55 491.3,-79.2"/>
<polygon fill="none" stroke="#404040" points="491.13,-78.91 484.66,-75.72 485.12,-68.52 491.59,-71.71 491.13,-78.91"/>
<text text-anchor="middle" x="521" y="-90" font-family="Helvetica,sans-Serif" font-size="10.00"> +home</text>
</g>
<!-- Node14 -->
<g id="node14" class="node">
<title>Node14</title>
<g id="a_node14"><a xlink:href="structPmCartesian.html" target="_top" xlink:title=" ">
<polygon fill="white" stroke="black" points="568.5,-249 568.5,-306 647.5,-306 647.5,-249 568.5,-249"/>
<text text-anchor="middle" x="608" y="-294" font-family="Helvetica,sans-Serif" font-size="10.00">PmCartesian</text>
<polyline fill="none" stroke="black" points="568.5,-287 647.5,-287 "/>
<text text-anchor="middle" x="608" y="-275" font-family="Helvetica,sans-Serif" font-size="10.00"> </text>
<polyline fill="none" stroke="black" points="568.5,-268 647.5,-268 "/>
<text text-anchor="middle" x="608" y="-256" font-family="Helvetica,sans-Serif" font-size="10.00"> </text>
</a>
</g>
</g>
<!-- Node14&#45;&gt;Node13 -->
<g id="edge15" class="edge">
<title>Node14&#45;&gt;Node13</title>
<path fill="none" stroke="#404040" d="M591.13,-248.76C580.56,-231.36 566.78,-208.7 555.18,-189.62"/>
<polygon fill="none" stroke="#404040" points="555.05,-189.42 548.52,-186.37 548.82,-179.16 555.35,-182.21 555.05,-189.42"/>
<text text-anchor="middle" x="585.5" y="-206" font-family="Helvetica,sans-Serif" font-size="10.00"> +tran</text>
</g>
<!-- Node15 -->
<g id="node15" class="node">
<title>Node15</title>
<g id="a_node15"><a xlink:title=" ">
<polygon fill="white" stroke="black" points="567,-414.5 567,-471.5 617,-471.5 617,-414.5 567,-414.5"/>
<text text-anchor="middle" x="592" y="-459.5" font-family="Helvetica,sans-Serif" font-size="10.00">double</text>
<polyline fill="none" stroke="black" points="567,-452.5 617,-452.5 "/>
<text text-anchor="middle" x="592" y="-440.5" font-family="Helvetica,sans-Serif" font-size="10.00"> </text>
<polyline fill="none" stroke="black" points="567,-433.5 617,-433.5 "/>
<text text-anchor="middle" x="592" y="-421.5" font-family="Helvetica,sans-Serif" font-size="10.00"> </text>
</a>
</g>
</g>
<!-- Node15&#45;&gt;Node13 -->
<g id="edge17" class="edge">
<title>Node15&#45;&gt;Node13</title>
<path fill="none" stroke="#404040" d="M577.05,-414.06C565.25,-390.5 549.55,-355.53 542,-323 531.73,-278.75 530.14,-226.46 530.54,-191.35"/>
<polygon fill="none" stroke="#404040" points="530.54,-191.23 526.65,-185.16 530.76,-179.23 534.65,-185.31 530.54,-191.23"/>
<text text-anchor="middle" x="551" y="-302.5" font-family="Helvetica,sans-Serif" font-size="10.00"> +a</text>
<text text-anchor="middle" x="551" y="-291.5" font-family="Helvetica,sans-Serif" font-size="10.00">+b</text>
<text text-anchor="middle" x="551" y="-280.5" font-family="Helvetica,sans-Serif" font-size="10.00">+c</text>
<text text-anchor="middle" x="551" y="-269.5" font-family="Helvetica,sans-Serif" font-size="10.00">+u</text>
<text text-anchor="middle" x="551" y="-258.5" font-family="Helvetica,sans-Serif" font-size="10.00">+v</text>
<text text-anchor="middle" x="551" y="-247.5" font-family="Helvetica,sans-Serif" font-size="10.00">+w</text>
</g>
<!-- Node15&#45;&gt;Node14 -->
<g id="edge16" class="edge">
<title>Node15&#45;&gt;Node14</title>
<path fill="none" stroke="#404040" d="M594.71,-414.26C597.3,-387.88 601.21,-347.9 604.12,-318.15"/>
<polygon fill="none" stroke="#404040" points="604.13,-318.04 600.73,-311.68 605.3,-306.1 608.7,-312.46 604.13,-318.04"/>
<text text-anchor="middle" x="610" y="-366" font-family="Helvetica,sans-Serif" font-size="10.00"> +x</text>
<text text-anchor="middle" x="610" y="-355" font-family="Helvetica,sans-Serif" font-size="10.00">+y</text>
<text text-anchor="middle" x="610" y="-344" font-family="Helvetica,sans-Serif" font-size="10.00">+z</text>
</g>
</g>
</svg>
