<?xml version="1.0" encoding="UTF-8" standalone="no"?>
<!DOCTYPE svg PUBLIC "-//W3C//DTD SVG 1.1//EN"
 "http://www.w3.org/Graphics/SVG/1.1/DTD/svg11.dtd">
<!-- Generated by graphviz version 2.43.0 (0)
 -->
<!-- Title: EMC_SPINDLE_DECREASE Pages: 1 -->
<svg width="169pt" height="447pt"
 viewBox="0.00 0.00 169.00 447.00" xmlns="http://www.w3.org/2000/svg" xmlns:xlink="http://www.w3.org/1999/xlink">
<g id="graph0" class="graph" transform="scale(1 1) rotate(0) translate(4 443)">
<title>EMC_SPINDLE_DECREASE</title>
<polygon fill="white" stroke="transparent" points="-4,4 -4,-443 165,-443 165,4 -4,4"/>
<!-- Node1 -->
<g id="node1" class="node">
<title>Node1</title>
<g id="a_node1"><a xlink:title=" ">
<polygon fill="#bfbfbf" stroke="black" points="0,-0.5 0,-79.5 161,-79.5 161,-0.5 0,-0.5"/>
<text text-anchor="middle" x="80.5" y="-67.5" font-family="Helvetica,sans-Serif" font-size="10.00">EMC_SPINDLE_DECREASE</text>
<polyline fill="none" stroke="black" points="0,-60.5 161,-60.5 "/>
<text text-anchor="start" x="8" y="-48.5" font-family="Helvetica,sans-Serif" font-size="10.00">+ spindle</text>
<text text-anchor="start" x="8" y="-37.5" font-family="Helvetica,sans-Serif" font-size="10.00">+ speed</text>
<polyline fill="none" stroke="black" points="0,-30.5 161,-30.5 "/>
<text text-anchor="start" x="8" y="-18.5" font-family="Helvetica,sans-Serif" font-size="10.00">+ EMC_SPINDLE_DECREASE()</text>
<text text-anchor="start" x="8" y="-7.5" font-family="Helvetica,sans-Serif" font-size="10.00">+ update()</text>
</a>
</g>
</g>
<!-- Node2 -->
<g id="node2" class="node">
<title>Node2</title>
<g id="a_node2"><a xlink:href="classEMC__SPINDLE__CMD__MSG.html" target="_top" xlink:title=" ">
<polygon fill="white" stroke="black" points="0.5,-116.5 0.5,-184.5 160.5,-184.5 160.5,-116.5 0.5,-116.5"/>
<text text-anchor="middle" x="80.5" y="-172.5" font-family="Helvetica,sans-Serif" font-size="10.00">EMC_SPINDLE_CMD_MSG</text>
<polyline fill="none" stroke="black" points="0.5,-165.5 160.5,-165.5 "/>
<text text-anchor="start" x="8.5" y="-153.5" font-family="Helvetica,sans-Serif" font-size="10.00">+ spindle</text>
<polyline fill="none" stroke="black" points="0.5,-146.5 160.5,-146.5 "/>
<text text-anchor="start" x="8.5" y="-134.5" font-family="Helvetica,sans-Serif" font-size="10.00">+ EMC_SPINDLE_CMD_MSG()</text>
<text text-anchor="start" x="8.5" y="-123.5" font-family="Helvetica,sans-Serif" font-size="10.00">+ update()</text>
</a>
</g>
</g>
<!-- Node2&#45;&gt;Node1 -->
<g id="edge1" class="edge">
<title>Node2&#45;&gt;Node1</title>
<path fill="none" stroke="midnightblue" d="M80.5,-106.27C80.5,-97.48 80.5,-88.28 80.5,-79.65"/>
<polygon fill="none" stroke="midnightblue" points="77,-106.36 80.5,-116.36 84,-106.36 77,-106.36"/>
</g>
<!-- Node3 -->
<g id="node3" class="node">
<title>Node3</title>
<g id="a_node3"><a xlink:href="classRCS__CMD__MSG.html" target="_top" xlink:title=" ">
<polygon fill="white" stroke="black" points="25,-221.5 25,-278.5 136,-278.5 136,-221.5 25,-221.5"/>
<text text-anchor="middle" x="80.5" y="-266.5" font-family="Helvetica,sans-Serif" font-size="10.00">RCS_CMD_MSG</text>
<polyline fill="none" stroke="black" points="25,-259.5 136,-259.5 "/>
<text text-anchor="start" x="33" y="-247.5" font-family="Helvetica,sans-Serif" font-size="10.00">+ serial_number</text>
<polyline fill="none" stroke="black" points="25,-240.5 136,-240.5 "/>
<text text-anchor="start" x="33" y="-228.5" font-family="Helvetica,sans-Serif" font-size="10.00">+ RCS_CMD_MSG()</text>
</a>
</g>
</g>
<!-- Node3&#45;&gt;Node2 -->
<g id="edge2" class="edge">
<title>Node3&#45;&gt;Node2</title>
<path fill="none" stroke="midnightblue" d="M80.5,-211.06C80.5,-202.39 80.5,-193.24 80.5,-184.79"/>
<polygon fill="none" stroke="midnightblue" points="77,-211.32 80.5,-221.32 84,-211.32 77,-211.32"/>
</g>
<!-- Node4 -->
<g id="node4" class="node">
<title>Node4</title>
<g id="a_node4"><a xlink:href="classNMLmsg.html" target="_top" xlink:title=" ">
<polygon fill="white" stroke="black" points="18,-315.5 18,-438.5 143,-438.5 143,-315.5 18,-315.5"/>
<text text-anchor="middle" x="80.5" y="-426.5" font-family="Helvetica,sans-Serif" font-size="10.00">NMLmsg</text>
<polyline fill="none" stroke="black" points="18,-419.5 143,-419.5 "/>
<text text-anchor="start" x="26" y="-407.5" font-family="Helvetica,sans-Serif" font-size="10.00">+ type</text>
<text text-anchor="start" x="26" y="-396.5" font-family="Helvetica,sans-Serif" font-size="10.00">+ size</text>
<text text-anchor="start" x="26" y="-385.5" font-family="Helvetica,sans-Serif" font-size="10.00">+ automatically_clear</text>
<polyline fill="none" stroke="black" points="18,-378.5 143,-378.5 "/>
<text text-anchor="start" x="26" y="-366.5" font-family="Helvetica,sans-Serif" font-size="10.00">+ clear()</text>
<text text-anchor="start" x="26" y="-355.5" font-family="Helvetica,sans-Serif" font-size="10.00">+ update()</text>
<text text-anchor="start" x="26" y="-344.5" font-family="Helvetica,sans-Serif" font-size="10.00"># NMLmsg()</text>
<text text-anchor="start" x="26" y="-333.5" font-family="Helvetica,sans-Serif" font-size="10.00"># NMLmsg()</text>
<text text-anchor="start" x="26" y="-322.5" font-family="Helvetica,sans-Serif" font-size="10.00"># NMLmsg()</text>
</a>
</g>
</g>
<!-- Node4&#45;&gt;Node3 -->
<g id="edge3" class="edge">
<title>Node4&#45;&gt;Node3</title>
<path fill="none" stroke="midnightblue" d="M80.5,-305.14C80.5,-295.8 80.5,-286.71 80.5,-278.74"/>
<polygon fill="none" stroke="midnightblue" points="77,-305.33 80.5,-315.33 84,-305.33 77,-305.33"/>
</g>
</g>
</svg>
