<?xml version="1.0" encoding="UTF-8" standalone="no"?>
<!DOCTYPE svg PUBLIC "-//W3C//DTD SVG 1.1//EN"
 "http://www.w3.org/Graphics/SVG/1.1/DTD/svg11.dtd">
<!-- Generated by graphviz version 2.43.0 (0)
 -->
<!-- Title: EMC_TOOL_LOAD_TOOL_TABLE Pages: 1 -->
<svg width="255pt" height="565pt"
 viewBox="0.00 0.00 254.50 565.00" xmlns="http://www.w3.org/2000/svg" xmlns:xlink="http://www.w3.org/1999/xlink">
<g id="graph0" class="graph" transform="scale(1 1) rotate(0) translate(4 561)">
<title>EMC_TOOL_LOAD_TOOL_TABLE</title>
<polygon fill="white" stroke="transparent" points="-4,4 -4,-561 250.5,-561 250.5,4 -4,4"/>
<!-- Node1 -->
<g id="node1" class="node">
<title>Node1</title>
<g id="a_node1"><a xlink:title=" ">
<polygon fill="#bfbfbf" stroke="black" points="55,-0.5 55,-90.5 200,-90.5 200,-0.5 55,-0.5"/>
<text text-anchor="start" x="63" y="-78.5" font-family="Helvetica,sans-Serif" font-size="10.00">EMC_TOOL_LOAD_TOOL</text>
<text text-anchor="middle" x="127.5" y="-67.5" font-family="Helvetica,sans-Serif" font-size="10.00">_TABLE</text>
<polyline fill="none" stroke="black" points="55,-60.5 200,-60.5 "/>
<text text-anchor="middle" x="127.5" y="-48.5" font-family="Helvetica,sans-Serif" font-size="10.00"> </text>
<polyline fill="none" stroke="black" points="55,-41.5 200,-41.5 "/>
<text text-anchor="start" x="63" y="-29.5" font-family="Helvetica,sans-Serif" font-size="10.00">+ EMC_TOOL_LOAD_TOOL</text>
<text text-anchor="start" x="63" y="-18.5" font-family="Helvetica,sans-Serif" font-size="10.00">_TABLE()</text>
<text text-anchor="start" x="63" y="-7.5" font-family="Helvetica,sans-Serif" font-size="10.00">+ update()</text>
</a>
</g>
</g>
<!-- Node2 -->
<g id="node2" class="node">
<title>Node2</title>
<g id="a_node2"><a xlink:href="classEMC__TOOL__CMD__MSG.html" target="_top" xlink:title=" ">
<polygon fill="white" stroke="black" points="0,-138.5 0,-206.5 145,-206.5 145,-138.5 0,-138.5"/>
<text text-anchor="middle" x="72.5" y="-194.5" font-family="Helvetica,sans-Serif" font-size="10.00">EMC_TOOL_CMD_MSG</text>
<polyline fill="none" stroke="black" points="0,-187.5 145,-187.5 "/>
<text text-anchor="middle" x="72.5" y="-175.5" font-family="Helvetica,sans-Serif" font-size="10.00"> </text>
<polyline fill="none" stroke="black" points="0,-168.5 145,-168.5 "/>
<text text-anchor="start" x="8" y="-156.5" font-family="Helvetica,sans-Serif" font-size="10.00">+ EMC_TOOL_CMD_MSG()</text>
<text text-anchor="start" x="8" y="-145.5" font-family="Helvetica,sans-Serif" font-size="10.00">+ update()</text>
</a>
</g>
</g>
<!-- Node2&#45;&gt;Node1 -->
<g id="edge1" class="edge">
<title>Node2&#45;&gt;Node1</title>
<path fill="none" stroke="midnightblue" d="M91.15,-129.12C96.6,-116.73 102.57,-103.16 108.07,-90.66"/>
<polygon fill="none" stroke="midnightblue" points="87.92,-127.77 87.09,-138.33 94.33,-130.59 87.92,-127.77"/>
</g>
<!-- Node3 -->
<g id="node3" class="node">
<title>Node3</title>
<g id="a_node3"><a xlink:href="classRCS__CMD__MSG.html" target="_top" xlink:title=" ">
<polygon fill="white" stroke="black" points="17,-244.5 17,-301.5 128,-301.5 128,-244.5 17,-244.5"/>
<text text-anchor="middle" x="72.5" y="-289.5" font-family="Helvetica,sans-Serif" font-size="10.00">RCS_CMD_MSG</text>
<polyline fill="none" stroke="black" points="17,-282.5 128,-282.5 "/>
<text text-anchor="middle" x="72.5" y="-270.5" font-family="Helvetica,sans-Serif" font-size="10.00"> </text>
<polyline fill="none" stroke="black" points="17,-263.5 128,-263.5 "/>
<text text-anchor="start" x="25" y="-251.5" font-family="Helvetica,sans-Serif" font-size="10.00">+ RCS_CMD_MSG()</text>
</a>
</g>
</g>
<!-- Node3&#45;&gt;Node2 -->
<g id="edge2" class="edge">
<title>Node3&#45;&gt;Node2</title>
<path fill="none" stroke="midnightblue" d="M72.5,-234.01C72.5,-224.96 72.5,-215.38 72.5,-206.58"/>
<polygon fill="none" stroke="midnightblue" points="69,-234.3 72.5,-244.3 76,-234.3 69,-234.3"/>
</g>
<!-- Node4 -->
<g id="node4" class="node">
<title>Node4</title>
<g id="a_node4"><a xlink:href="classNMLmsg.html" target="_top" xlink:title=" ">
<polygon fill="white" stroke="black" points="160.5,-339.5 160.5,-440.5 238.5,-440.5 238.5,-339.5 160.5,-339.5"/>
<text text-anchor="middle" x="199.5" y="-428.5" font-family="Helvetica,sans-Serif" font-size="10.00">NMLmsg</text>
<polyline fill="none" stroke="black" points="160.5,-421.5 238.5,-421.5 "/>
<text text-anchor="middle" x="199.5" y="-409.5" font-family="Helvetica,sans-Serif" font-size="10.00"> </text>
<polyline fill="none" stroke="black" points="160.5,-402.5 238.5,-402.5 "/>
<text text-anchor="start" x="168.5" y="-390.5" font-family="Helvetica,sans-Serif" font-size="10.00">+ clear()</text>
<text text-anchor="start" x="168.5" y="-379.5" font-family="Helvetica,sans-Serif" font-size="10.00">+ update()</text>
<text text-anchor="start" x="168.5" y="-368.5" font-family="Helvetica,sans-Serif" font-size="10.00"># NMLmsg()</text>
<text text-anchor="start" x="168.5" y="-357.5" font-family="Helvetica,sans-Serif" font-size="10.00"># NMLmsg()</text>
<text text-anchor="start" x="168.5" y="-346.5" font-family="Helvetica,sans-Serif" font-size="10.00"># NMLmsg()</text>
</a>
</g>
</g>
<!-- Node4&#45;&gt;Node3 -->
<g id="edge3" class="edge">
<title>Node4&#45;&gt;Node3</title>
<path fill="none" stroke="midnightblue" d="M152.91,-344.87C150.75,-342.88 148.6,-340.92 146.5,-339 132.84,-326.57 117.54,-313.06 104.41,-301.59"/>
<polygon fill="none" stroke="midnightblue" points="150.57,-347.48 160.28,-351.71 155.33,-342.34 150.57,-347.48"/>
</g>
<!-- Node5 -->
<g id="node5" class="node">
<title>Node5</title>
<g id="a_node5"><a xlink:title=" ">
<polygon fill="white" stroke="black" points="63,-499.5 63,-556.5 92,-556.5 92,-499.5 63,-499.5"/>
<text text-anchor="middle" x="77.5" y="-544.5" font-family="Helvetica,sans-Serif" font-size="10.00">int</text>
<polyline fill="none" stroke="black" points="63,-537.5 92,-537.5 "/>
<text text-anchor="middle" x="77.5" y="-525.5" font-family="Helvetica,sans-Serif" font-size="10.00"> </text>
<polyline fill="none" stroke="black" points="63,-518.5 92,-518.5 "/>
<text text-anchor="middle" x="77.5" y="-506.5" font-family="Helvetica,sans-Serif" font-size="10.00"> </text>
</a>
</g>
</g>
<!-- Node5&#45;&gt;Node3 -->
<g id="edge6" class="edge">
<title>Node5&#45;&gt;Node3</title>
<path fill="none" stroke="#404040" d="M74.25,-499.16C72.45,-482.35 70.4,-460.47 69.5,-441 67.4,-395.72 68.45,-384.32 69.5,-339 69.69,-330.83 70.01,-322.08 70.37,-313.73"/>
<polygon fill="none" stroke="#404040" points="70.39,-313.49 66.67,-307.31 70.95,-301.51 74.66,-307.69 70.39,-313.49"/>
<text text-anchor="middle" x="110.5" y="-387.5" font-family="Helvetica,sans-Serif" font-size="10.00"> +serial_number</text>
</g>
<!-- Node5&#45;&gt;Node4 -->
<g id="edge4" class="edge">
<title>Node5&#45;&gt;Node4</title>
<path fill="none" stroke="#404040" d="M80.78,-499.3C83.69,-485.68 89.17,-469.89 99.5,-459 114.89,-442.77 127.56,-452.9 146.5,-441 147.83,-440.17 149.15,-439.3 150.46,-438.4"/>
<polygon fill="none" stroke="#404040" points="150.75,-438.18 153.15,-431.38 160.35,-430.98 157.95,-437.78 150.75,-438.18"/>
<text text-anchor="middle" x="154" y="-473" font-family="Helvetica,sans-Serif" font-size="10.00"> +automatically_clear</text>
<text text-anchor="middle" x="154" y="-462" font-family="Helvetica,sans-Serif" font-size="10.00">+type</text>
</g>
<!-- Node6 -->
<g id="node6" class="node">
<title>Node6</title>
<g id="a_node6"><a xlink:title=" ">
<polygon fill="white" stroke="black" points="206.5,-499.5 206.5,-556.5 244.5,-556.5 244.5,-499.5 206.5,-499.5"/>
<text text-anchor="middle" x="225.5" y="-544.5" font-family="Helvetica,sans-Serif" font-size="10.00">long</text>
<polyline fill="none" stroke="black" points="206.5,-537.5 244.5,-537.5 "/>
<text text-anchor="middle" x="225.5" y="-525.5" font-family="Helvetica,sans-Serif" font-size="10.00"> </text>
<polyline fill="none" stroke="black" points="206.5,-518.5 244.5,-518.5 "/>
<text text-anchor="middle" x="225.5" y="-506.5" font-family="Helvetica,sans-Serif" font-size="10.00"> </text>
</a>
</g>
</g>
<!-- Node6&#45;&gt;Node4 -->
<g id="edge5" class="edge">
<title>Node6&#45;&gt;Node4</title>
<path fill="none" stroke="#404040" d="M220.24,-499.48C217.65,-485.93 214.41,-469 211.27,-452.58"/>
<polygon fill="none" stroke="#404040" points="211.27,-452.55 206.21,-447.41 209.01,-440.76 214.07,-445.91 211.27,-452.55"/>
<text text-anchor="middle" x="231" y="-467.5" font-family="Helvetica,sans-Serif" font-size="10.00"> +size</text>
</g>
<!-- Node7 -->
<g id="node7" class="node">
<title>Node7</title>
<g id="a_node7"><a xlink:title=" ">
<polygon fill="white" stroke="black" points="163.5,-144 163.5,-201 201.5,-201 201.5,-144 163.5,-144"/>
<text text-anchor="middle" x="182.5" y="-189" font-family="Helvetica,sans-Serif" font-size="10.00">char</text>
<polyline fill="none" stroke="black" points="163.5,-182 201.5,-182 "/>
<text text-anchor="middle" x="182.5" y="-170" font-family="Helvetica,sans-Serif" font-size="10.00"> </text>
<polyline fill="none" stroke="black" points="163.5,-163 201.5,-163 "/>
<text text-anchor="middle" x="182.5" y="-151" font-family="Helvetica,sans-Serif" font-size="10.00"> </text>
</a>
</g>
</g>
<!-- Node7&#45;&gt;Node1 -->
<g id="edge7" class="edge">
<title>Node7&#45;&gt;Node1</title>
<path fill="none" stroke="#404040" d="M170.29,-143.76C164.9,-131.5 158.35,-116.62 152.02,-102.23"/>
<polygon fill="none" stroke="#404040" points="151.85,-101.84 145.77,-97.96 147.02,-90.86 153.09,-94.74 151.85,-101.84"/>
<text text-anchor="middle" x="171" y="-112" font-family="Helvetica,sans-Serif" font-size="10.00"> +file</text>
</g>
</g>
</svg>
