<?xml version="1.0" encoding="UTF-8" standalone="no"?>
<!DOCTYPE svg PUBLIC "-//W3C//DTD SVG 1.1//EN"
 "http://www.w3.org/Graphics/SVG/1.1/DTD/svg11.dtd">
<!-- Generated by graphviz version 2.43.0 (0)
 -->
<!-- Title: EMC_SPINDLE_STAT Pages: 1 -->
<svg width="440pt" height="605pt"
 viewBox="0.00 0.00 440.00 605.00" xmlns="http://www.w3.org/2000/svg" xmlns:xlink="http://www.w3.org/1999/xlink">
<g id="graph0" class="graph" transform="scale(1 1) rotate(0) translate(4 601)">
<title>EMC_SPINDLE_STAT</title>
<polygon fill="white" stroke="transparent" points="-4,4 -4,-601 436,-601 436,4 -4,4"/>
<!-- Node1 -->
<g id="node1" class="node">
<title>Node1</title>
<g id="a_node1"><a xlink:title=" ">
<polygon fill="#bfbfbf" stroke="black" points="146,-0.5 146,-68.5 278,-68.5 278,-0.5 146,-0.5"/>
<text text-anchor="middle" x="212" y="-56.5" font-family="Helvetica,sans-Serif" font-size="10.00">EMC_SPINDLE_STAT</text>
<polyline fill="none" stroke="black" points="146,-49.5 278,-49.5 "/>
<text text-anchor="middle" x="212" y="-37.5" font-family="Helvetica,sans-Serif" font-size="10.00"> </text>
<polyline fill="none" stroke="black" points="146,-30.5 278,-30.5 "/>
<text text-anchor="start" x="154" y="-18.5" font-family="Helvetica,sans-Serif" font-size="10.00">+ EMC_SPINDLE_STAT()</text>
<text text-anchor="start" x="154" y="-7.5" font-family="Helvetica,sans-Serif" font-size="10.00">+ update()</text>
</a>
</g>
</g>
<!-- Node2 -->
<g id="node2" class="node">
<title>Node2</title>
<g id="a_node2"><a xlink:href="classEMC__SPINDLE__STAT__MSG.html" target="_top" xlink:title=" ">
<polygon fill="white" stroke="black" points="61,-149.5 61,-217.5 221,-217.5 221,-149.5 61,-149.5"/>
<text text-anchor="middle" x="141" y="-205.5" font-family="Helvetica,sans-Serif" font-size="10.00">EMC_SPINDLE_STAT_MSG</text>
<polyline fill="none" stroke="black" points="61,-198.5 221,-198.5 "/>
<text text-anchor="middle" x="141" y="-186.5" font-family="Helvetica,sans-Serif" font-size="10.00"> </text>
<polyline fill="none" stroke="black" points="61,-179.5 221,-179.5 "/>
<text text-anchor="start" x="69" y="-167.5" font-family="Helvetica,sans-Serif" font-size="10.00">+ EMC_SPINDLE_STAT_MSG()</text>
<text text-anchor="start" x="69" y="-156.5" font-family="Helvetica,sans-Serif" font-size="10.00">+ update()</text>
</a>
</g>
</g>
<!-- Node2&#45;&gt;Node1 -->
<g id="edge1" class="edge">
<title>Node2&#45;&gt;Node1</title>
<path fill="none" stroke="midnightblue" d="M161.49,-140.07C172.45,-117.38 185.75,-89.84 195.95,-68.72"/>
<polygon fill="none" stroke="midnightblue" points="158.31,-138.62 157.11,-149.14 164.61,-141.66 158.31,-138.62"/>
</g>
<!-- Node3 -->
<g id="node3" class="node">
<title>Node3</title>
<g id="a_node3"><a xlink:href="classRCS__STAT__MSG.html" target="_top" xlink:title=" ">
<polygon fill="white" stroke="black" points="119.5,-265 119.5,-322 230.5,-322 230.5,-265 119.5,-265"/>
<text text-anchor="middle" x="175" y="-310" font-family="Helvetica,sans-Serif" font-size="10.00">RCS_STAT_MSG</text>
<polyline fill="none" stroke="black" points="119.5,-303 230.5,-303 "/>
<text text-anchor="middle" x="175" y="-291" font-family="Helvetica,sans-Serif" font-size="10.00"> </text>
<polyline fill="none" stroke="black" points="119.5,-284 230.5,-284 "/>
<text text-anchor="start" x="127.5" y="-272" font-family="Helvetica,sans-Serif" font-size="10.00">+ RCS_STAT_MSG()</text>
</a>
</g>
</g>
<!-- Node3&#45;&gt;Node2 -->
<g id="edge2" class="edge">
<title>Node3&#45;&gt;Node2</title>
<path fill="none" stroke="midnightblue" d="M163.23,-255.12C159.41,-242.97 155.19,-229.58 151.47,-217.76"/>
<polygon fill="none" stroke="midnightblue" points="159.99,-256.48 166.33,-264.97 166.67,-254.38 159.99,-256.48"/>
</g>
<!-- Node4 -->
<g id="node4" class="node">
<title>Node4</title>
<g id="a_node4"><a xlink:href="classNMLmsg.html" target="_top" xlink:title=" ">
<polygon fill="white" stroke="black" points="171,-379.5 171,-480.5 249,-480.5 249,-379.5 171,-379.5"/>
<text text-anchor="middle" x="210" y="-468.5" font-family="Helvetica,sans-Serif" font-size="10.00">NMLmsg</text>
<polyline fill="none" stroke="black" points="171,-461.5 249,-461.5 "/>
<text text-anchor="middle" x="210" y="-449.5" font-family="Helvetica,sans-Serif" font-size="10.00"> </text>
<polyline fill="none" stroke="black" points="171,-442.5 249,-442.5 "/>
<text text-anchor="start" x="179" y="-430.5" font-family="Helvetica,sans-Serif" font-size="10.00">+ clear()</text>
<text text-anchor="start" x="179" y="-419.5" font-family="Helvetica,sans-Serif" font-size="10.00">+ update()</text>
<text text-anchor="start" x="179" y="-408.5" font-family="Helvetica,sans-Serif" font-size="10.00"># NMLmsg()</text>
<text text-anchor="start" x="179" y="-397.5" font-family="Helvetica,sans-Serif" font-size="10.00"># NMLmsg()</text>
<text text-anchor="start" x="179" y="-386.5" font-family="Helvetica,sans-Serif" font-size="10.00"># NMLmsg()</text>
</a>
</g>
</g>
<!-- Node4&#45;&gt;Node3 -->
<g id="edge3" class="edge">
<title>Node4&#45;&gt;Node3</title>
<path fill="none" stroke="midnightblue" d="M194.44,-369.2C190.17,-352.79 185.74,-335.78 182.19,-322.15"/>
<polygon fill="none" stroke="midnightblue" points="191.16,-370.5 197.07,-379.3 197.94,-368.74 191.16,-370.5"/>
</g>
<!-- Node5 -->
<g id="node5" class="node">
<title>Node5</title>
<g id="a_node5"><a xlink:title=" ">
<polygon fill="white" stroke="black" points="31.5,-539.5 31.5,-596.5 60.5,-596.5 60.5,-539.5 31.5,-539.5"/>
<text text-anchor="middle" x="46" y="-584.5" font-family="Helvetica,sans-Serif" font-size="10.00">int</text>
<polyline fill="none" stroke="black" points="31.5,-577.5 60.5,-577.5 "/>
<text text-anchor="middle" x="46" y="-565.5" font-family="Helvetica,sans-Serif" font-size="10.00"> </text>
<polyline fill="none" stroke="black" points="31.5,-558.5 60.5,-558.5 "/>
<text text-anchor="middle" x="46" y="-546.5" font-family="Helvetica,sans-Serif" font-size="10.00"> </text>
</a>
</g>
</g>
<!-- Node5&#45;&gt;Node1 -->
<g id="edge9" class="edge">
<title>Node5&#45;&gt;Node1</title>
<path fill="none" stroke="#404040" d="M31.45,-540.79C17.97,-514.04 0,-470.88 0,-431 0,-431 0,-431 0,-182.5 0,-114.86 73.77,-75.87 134.28,-55.26"/>
<polygon fill="none" stroke="#404040" points="134.39,-55.23 138.85,-49.57 145.79,-51.51 141.33,-57.17 134.39,-55.23"/>
<text text-anchor="middle" x="33.5" y="-324" font-family="Helvetica,sans-Serif" font-size="10.00"> +brake</text>
<text text-anchor="middle" x="33.5" y="-313" font-family="Helvetica,sans-Serif" font-size="10.00">+direction</text>
<text text-anchor="middle" x="33.5" y="-302" font-family="Helvetica,sans-Serif" font-size="10.00">+enabled</text>
<text text-anchor="middle" x="33.5" y="-291" font-family="Helvetica,sans-Serif" font-size="10.00">+increasing</text>
<text text-anchor="middle" x="33.5" y="-280" font-family="Helvetica,sans-Serif" font-size="10.00">+orient_fault</text>
<text text-anchor="middle" x="33.5" y="-269" font-family="Helvetica,sans-Serif" font-size="10.00">+orient_state</text>
<text text-anchor="middle" x="33.5" y="-258" font-family="Helvetica,sans-Serif" font-size="10.00">+state</text>
</g>
<!-- Node5&#45;&gt;Node3 -->
<g id="edge6" class="edge">
<title>Node5&#45;&gt;Node3</title>
<path fill="none" stroke="#404040" d="M40.19,-539.47C33.58,-500.95 26.98,-429.97 55,-379 67.18,-356.84 87.95,-339.16 108.82,-325.82"/>
<polygon fill="none" stroke="#404040" points="109.1,-325.65 112.16,-319.12 119.36,-319.43 116.3,-325.96 109.1,-325.65"/>
<text text-anchor="middle" x="108.5" y="-455" font-family="Helvetica,sans-Serif" font-size="10.00"> +command_type</text>
<text text-anchor="middle" x="108.5" y="-444" font-family="Helvetica,sans-Serif" font-size="10.00">+echo_serial_number</text>
<text text-anchor="middle" x="108.5" y="-433" font-family="Helvetica,sans-Serif" font-size="10.00">+line</text>
<text text-anchor="middle" x="108.5" y="-422" font-family="Helvetica,sans-Serif" font-size="10.00">+source_line</text>
<text text-anchor="middle" x="108.5" y="-411" font-family="Helvetica,sans-Serif" font-size="10.00">+state</text>
<text text-anchor="middle" x="108.5" y="-400" font-family="Helvetica,sans-Serif" font-size="10.00">+status</text>
</g>
<!-- Node5&#45;&gt;Node4 -->
<g id="edge4" class="edge">
<title>Node5&#45;&gt;Node4</title>
<path fill="none" stroke="#404040" d="M60.51,-540.1C69.36,-526.02 81.87,-509.56 97,-499 119.83,-483.07 132.89,-494.93 157,-481 158.32,-480.23 159.64,-479.43 160.95,-478.59"/>
<polygon fill="none" stroke="#404040" points="161,-478.56 163.56,-471.82 170.77,-471.59 168.2,-478.33 161,-478.56"/>
<text text-anchor="middle" x="151.5" y="-513" font-family="Helvetica,sans-Serif" font-size="10.00"> +automatically_clear</text>
<text text-anchor="middle" x="151.5" y="-502" font-family="Helvetica,sans-Serif" font-size="10.00">+type</text>
</g>
<!-- Node6 -->
<g id="node6" class="node">
<title>Node6</title>
<g id="a_node6"><a xlink:title=" ">
<polygon fill="white" stroke="black" points="192,-539.5 192,-596.5 230,-596.5 230,-539.5 192,-539.5"/>
<text text-anchor="middle" x="211" y="-584.5" font-family="Helvetica,sans-Serif" font-size="10.00">long</text>
<polyline fill="none" stroke="black" points="192,-577.5 230,-577.5 "/>
<text text-anchor="middle" x="211" y="-565.5" font-family="Helvetica,sans-Serif" font-size="10.00"> </text>
<polyline fill="none" stroke="black" points="192,-558.5 230,-558.5 "/>
<text text-anchor="middle" x="211" y="-546.5" font-family="Helvetica,sans-Serif" font-size="10.00"> </text>
</a>
</g>
</g>
<!-- Node6&#45;&gt;Node4 -->
<g id="edge5" class="edge">
<title>Node6&#45;&gt;Node4</title>
<path fill="none" stroke="#404040" d="M210.8,-539.48C210.7,-526.06 210.58,-509.33 210.46,-493.06"/>
<polygon fill="none" stroke="#404040" points="210.45,-492.76 206.41,-486.79 210.37,-480.76 214.41,-486.73 210.45,-492.76"/>
<text text-anchor="middle" x="225.5" y="-507.5" font-family="Helvetica,sans-Serif" font-size="10.00"> +size</text>
</g>
<!-- Node7 -->
<g id="node7" class="node">
<title>Node7</title>
<g id="a_node7"><a xlink:title=" ">
<polygon fill="white" stroke="black" points="267,-401.5 267,-458.5 305,-458.5 305,-401.5 267,-401.5"/>
<text text-anchor="middle" x="286" y="-446.5" font-family="Helvetica,sans-Serif" font-size="10.00">char</text>
<polyline fill="none" stroke="black" points="267,-439.5 305,-439.5 "/>
<text text-anchor="middle" x="286" y="-427.5" font-family="Helvetica,sans-Serif" font-size="10.00"> </text>
<polyline fill="none" stroke="black" points="267,-420.5 305,-420.5 "/>
<text text-anchor="middle" x="286" y="-408.5" font-family="Helvetica,sans-Serif" font-size="10.00"> </text>
</a>
</g>
</g>
<!-- Node7&#45;&gt;Node3 -->
<g id="edge7" class="edge">
<title>Node7&#45;&gt;Node3</title>
<path fill="none" stroke="#404040" d="M272.29,-401.45C268.09,-393.92 263.19,-385.92 258,-379 245.23,-361.97 229.21,-344.9 214.67,-330.6"/>
<polygon fill="none" stroke="#404040" points="214.48,-330.41 207.38,-329.13 205.84,-322.08 212.94,-323.37 214.48,-330.41"/>
<text text-anchor="middle" x="273" y="-353" font-family="Helvetica,sans-Serif" font-size="10.00"> +source_file</text>
</g>
<!-- Node8 -->
<g id="node8" class="node">
<title>Node8</title>
<g id="a_node8"><a xlink:title=" ">
<polygon fill="white" stroke="black" points="239,-155 239,-212 289,-212 289,-155 239,-155"/>
<text text-anchor="middle" x="264" y="-200" font-family="Helvetica,sans-Serif" font-size="10.00">double</text>
<polyline fill="none" stroke="black" points="239,-193 289,-193 "/>
<text text-anchor="middle" x="264" y="-181" font-family="Helvetica,sans-Serif" font-size="10.00"> </text>
<polyline fill="none" stroke="black" points="239,-174 289,-174 "/>
<text text-anchor="middle" x="264" y="-162" font-family="Helvetica,sans-Serif" font-size="10.00"> </text>
</a>
</g>
</g>
<!-- Node8&#45;&gt;Node1 -->
<g id="edge8" class="edge">
<title>Node8&#45;&gt;Node1</title>
<path fill="none" stroke="#404040" d="M252.96,-154.79C249.98,-147.11 246.8,-138.76 244,-131 238.08,-114.62 231.92,-96.53 226.61,-80.54"/>
<polygon fill="none" stroke="#404040" points="226.49,-80.18 220.81,-75.73 222.73,-68.78 228.4,-73.22 226.49,-80.18"/>
<text text-anchor="middle" x="284" y="-123" font-family="Helvetica,sans-Serif" font-size="10.00"> +css_factor</text>
<text text-anchor="middle" x="284" y="-112" font-family="Helvetica,sans-Serif" font-size="10.00">+css_maximum</text>
<text text-anchor="middle" x="284" y="-101" font-family="Helvetica,sans-Serif" font-size="10.00">+speed</text>
<text text-anchor="middle" x="284" y="-90" font-family="Helvetica,sans-Serif" font-size="10.00">+spindle_scale</text>
</g>
<!-- Node9 -->
<g id="node9" class="node">
<title>Node9</title>
<g id="a_node9"><a xlink:title=" ">
<polygon fill="white" stroke="black" points="327,-155 327,-212 365,-212 365,-155 327,-155"/>
<text text-anchor="middle" x="346" y="-200" font-family="Helvetica,sans-Serif" font-size="10.00">bool</text>
<polyline fill="none" stroke="black" points="327,-193 365,-193 "/>
<text text-anchor="middle" x="346" y="-181" font-family="Helvetica,sans-Serif" font-size="10.00"> </text>
<polyline fill="none" stroke="black" points="327,-174 365,-174 "/>
<text text-anchor="middle" x="346" y="-162" font-family="Helvetica,sans-Serif" font-size="10.00"> </text>
</a>
</g>
</g>
<!-- Node9&#45;&gt;Node1 -->
<g id="edge10" class="edge">
<title>Node9&#45;&gt;Node1</title>
<path fill="none" stroke="#404040" d="M345.96,-155C344.56,-134.23 339.57,-106.13 324,-87 314.71,-75.59 302.34,-66.59 289.2,-59.54"/>
<polygon fill="none" stroke="#404040" points="288.81,-59.34 281.66,-60.29 278.04,-54.05 285.19,-53.11 288.81,-59.34"/>
<text text-anchor="middle" x="387" y="-117.5" font-family="Helvetica,sans-Serif" font-size="10.00"> +homed</text>
<text text-anchor="start" x="342" y="-106.5" font-family="Helvetica,sans-Serif" font-size="10.00">+spindle_override</text>
<text text-anchor="middle" x="387" y="-95.5" font-family="Helvetica,sans-Serif" font-size="10.00">_enabled</text>
</g>
</g>
</svg>
