<?xml version="1.0" encoding="UTF-8" standalone="no"?>
<!DOCTYPE svg PUBLIC "-//W3C//DTD SVG 1.1//EN"
 "http://www.w3.org/Graphics/SVG/1.1/DTD/svg11.dtd">
<!-- Generated by graphviz version 2.43.0 (0)
 -->
<!-- Title: EMC_JOG_CONT Pages: 1 -->
<svg width="429pt" height="542pt"
 viewBox="0.00 0.00 429.00 542.00" xmlns="http://www.w3.org/2000/svg" xmlns:xlink="http://www.w3.org/1999/xlink">
<g id="graph0" class="graph" transform="scale(1 1) rotate(0) translate(4 538)">
<title>EMC_JOG_CONT</title>
<polygon fill="white" stroke="transparent" points="-4,4 -4,-538 425,-538 425,4 -4,4"/>
<!-- Node1 -->
<g id="node1" class="node">
<title>Node1</title>
<g id="a_node1"><a xlink:title=" ">
<polygon fill="#bfbfbf" stroke="black" points="40.5,-0.5 40.5,-68.5 153.5,-68.5 153.5,-0.5 40.5,-0.5"/>
<text text-anchor="middle" x="97" y="-56.5" font-family="Helvetica,sans-Serif" font-size="10.00">EMC_JOG_CONT</text>
<polyline fill="none" stroke="black" points="40.5,-49.5 153.5,-49.5 "/>
<text text-anchor="middle" x="97" y="-37.5" font-family="Helvetica,sans-Serif" font-size="10.00"> </text>
<polyline fill="none" stroke="black" points="40.5,-30.5 153.5,-30.5 "/>
<text text-anchor="start" x="48.5" y="-18.5" font-family="Helvetica,sans-Serif" font-size="10.00">+ EMC_JOG_CONT()</text>
<text text-anchor="start" x="48.5" y="-7.5" font-family="Helvetica,sans-Serif" font-size="10.00">+ update()</text>
</a>
</g>
</g>
<!-- Node2 -->
<g id="node2" class="node">
<title>Node2</title>
<g id="a_node2"><a xlink:href="classEMC__JOG__CMD__MSG.html" target="_top" xlink:title=" ">
<polygon fill="white" stroke="black" points="28.5,-116.5 28.5,-184.5 165.5,-184.5 165.5,-116.5 28.5,-116.5"/>
<text text-anchor="middle" x="97" y="-172.5" font-family="Helvetica,sans-Serif" font-size="10.00">EMC_JOG_CMD_MSG</text>
<polyline fill="none" stroke="black" points="28.5,-165.5 165.5,-165.5 "/>
<text text-anchor="middle" x="97" y="-153.5" font-family="Helvetica,sans-Serif" font-size="10.00"> </text>
<polyline fill="none" stroke="black" points="28.5,-146.5 165.5,-146.5 "/>
<text text-anchor="start" x="36.5" y="-134.5" font-family="Helvetica,sans-Serif" font-size="10.00">+ EMC_JOG_CMD_MSG()</text>
<text text-anchor="start" x="36.5" y="-123.5" font-family="Helvetica,sans-Serif" font-size="10.00">+ update()</text>
</a>
</g>
</g>
<!-- Node2&#45;&gt;Node1 -->
<g id="edge1" class="edge">
<title>Node2&#45;&gt;Node1</title>
<path fill="none" stroke="midnightblue" d="M97,-106.06C97,-93.64 97,-80.32 97,-68.62"/>
<polygon fill="none" stroke="midnightblue" points="93.5,-106.22 97,-116.22 100.5,-106.22 93.5,-106.22"/>
</g>
<!-- Node3 -->
<g id="node3" class="node">
<title>Node3</title>
<g id="a_node3"><a xlink:href="classRCS__CMD__MSG.html" target="_top" xlink:title=" ">
<polygon fill="white" stroke="black" points="119.5,-222.5 119.5,-279.5 230.5,-279.5 230.5,-222.5 119.5,-222.5"/>
<text text-anchor="middle" x="175" y="-267.5" font-family="Helvetica,sans-Serif" font-size="10.00">RCS_CMD_MSG</text>
<polyline fill="none" stroke="black" points="119.5,-260.5 230.5,-260.5 "/>
<text text-anchor="middle" x="175" y="-248.5" font-family="Helvetica,sans-Serif" font-size="10.00"> </text>
<polyline fill="none" stroke="black" points="119.5,-241.5 230.5,-241.5 "/>
<text text-anchor="start" x="127.5" y="-229.5" font-family="Helvetica,sans-Serif" font-size="10.00">+ RCS_CMD_MSG()</text>
</a>
</g>
</g>
<!-- Node3&#45;&gt;Node2 -->
<g id="edge2" class="edge">
<title>Node3&#45;&gt;Node2</title>
<path fill="none" stroke="midnightblue" d="M146.77,-214.35C139.08,-204.63 130.77,-194.15 123.19,-184.58"/>
<polygon fill="none" stroke="midnightblue" points="144.11,-216.63 153.07,-222.3 149.6,-212.29 144.11,-216.63"/>
</g>
<!-- Node4 -->
<g id="node4" class="node">
<title>Node4</title>
<g id="a_node4"><a xlink:href="classNMLmsg.html" target="_top" xlink:title=" ">
<polygon fill="white" stroke="black" points="288,-327.5 288,-428.5 366,-428.5 366,-327.5 288,-327.5"/>
<text text-anchor="middle" x="327" y="-416.5" font-family="Helvetica,sans-Serif" font-size="10.00">NMLmsg</text>
<polyline fill="none" stroke="black" points="288,-409.5 366,-409.5 "/>
<text text-anchor="middle" x="327" y="-397.5" font-family="Helvetica,sans-Serif" font-size="10.00"> </text>
<polyline fill="none" stroke="black" points="288,-390.5 366,-390.5 "/>
<text text-anchor="start" x="296" y="-378.5" font-family="Helvetica,sans-Serif" font-size="10.00">+ clear()</text>
<text text-anchor="start" x="296" y="-367.5" font-family="Helvetica,sans-Serif" font-size="10.00">+ update()</text>
<text text-anchor="start" x="296" y="-356.5" font-family="Helvetica,sans-Serif" font-size="10.00"># NMLmsg()</text>
<text text-anchor="start" x="296" y="-345.5" font-family="Helvetica,sans-Serif" font-size="10.00"># NMLmsg()</text>
<text text-anchor="start" x="296" y="-334.5" font-family="Helvetica,sans-Serif" font-size="10.00"># NMLmsg()</text>
</a>
</g>
</g>
<!-- Node4&#45;&gt;Node3 -->
<g id="edge3" class="edge">
<title>Node4&#45;&gt;Node3</title>
<path fill="none" stroke="midnightblue" d="M279.88,-338.25C256.8,-319.27 229.54,-296.85 208.6,-279.63"/>
<polygon fill="none" stroke="midnightblue" points="277.91,-341.16 287.86,-344.81 282.36,-335.75 277.91,-341.16"/>
</g>
<!-- Node5 -->
<g id="node5" class="node">
<title>Node5</title>
<g id="a_node5"><a xlink:title=" ">
<polygon fill="white" stroke="black" points="116.5,-476.5 116.5,-533.5 145.5,-533.5 145.5,-476.5 116.5,-476.5"/>
<text text-anchor="middle" x="131" y="-521.5" font-family="Helvetica,sans-Serif" font-size="10.00">int</text>
<polyline fill="none" stroke="black" points="116.5,-514.5 145.5,-514.5 "/>
<text text-anchor="middle" x="131" y="-502.5" font-family="Helvetica,sans-Serif" font-size="10.00"> </text>
<polyline fill="none" stroke="black" points="116.5,-495.5 145.5,-495.5 "/>
<text text-anchor="middle" x="131" y="-483.5" font-family="Helvetica,sans-Serif" font-size="10.00"> </text>
</a>
</g>
</g>
<!-- Node5&#45;&gt;Node1 -->
<g id="edge10" class="edge">
<title>Node5&#45;&gt;Node1</title>
<path fill="none" stroke="#404040" d="M116.48,-498.35C82.37,-484.02 0,-442.81 0,-379 0,-379 0,-379 0,-149.5 0,-120.98 17.83,-95.96 38.2,-76.68"/>
<polygon fill="none" stroke="#404040" points="38.41,-76.49 40.22,-69.51 47.36,-68.51 45.55,-75.48 38.41,-76.49"/>
<text text-anchor="middle" x="29" y="-248.5" font-family="Helvetica,sans-Serif" font-size="10.00"> +jjogmode</text>
</g>
<!-- Node5&#45;&gt;Node2 -->
<g id="edge8" class="edge">
<title>Node5&#45;&gt;Node2</title>
<path fill="none" stroke="#404040" d="M120.62,-476.4C106.92,-437.24 84.78,-363.06 87,-298 88.16,-264.04 90.82,-225.74 93.11,-196.81"/>
<polygon fill="none" stroke="#404040" points="93.12,-196.59 89.62,-190.29 94.09,-184.63 97.6,-190.93 93.12,-196.59"/>
<text text-anchor="middle" x="124" y="-301" font-family="Helvetica,sans-Serif" font-size="10.00"> +joint_or_axis</text>
</g>
<!-- Node5&#45;&gt;Node3 -->
<g id="edge7" class="edge">
<title>Node5&#45;&gt;Node3</title>
<path fill="none" stroke="#404040" d="M135.88,-476.07C143.71,-431.2 159.13,-342.91 168.09,-291.57"/>
<polygon fill="none" stroke="#404040" points="168.1,-291.49 165.2,-284.89 170.17,-279.67 173.08,-286.27 168.1,-291.49"/>
<text text-anchor="middle" x="202" y="-375.5" font-family="Helvetica,sans-Serif" font-size="10.00"> +serial_number</text>
</g>
<!-- Node5&#45;&gt;Node4 -->
<g id="edge4" class="edge">
<title>Node5&#45;&gt;Node4</title>
<path fill="none" stroke="#404040" d="M145.58,-493.86C163.07,-481.91 193.48,-461.81 221,-447 238.17,-437.76 244.24,-438.95 261,-429 266.64,-425.65 272.37,-421.91 277.97,-418.02"/>
<polygon fill="none" stroke="#404040" points="278.12,-417.91 280.67,-411.16 287.87,-410.91 285.33,-417.66 278.12,-417.91"/>
<text text-anchor="middle" x="275.5" y="-450" font-family="Helvetica,sans-Serif" font-size="10.00"> +automatically_clear</text>
</g>
<!-- Node6 -->
<g id="node6" class="node">
<title>Node6</title>
<g id="a_node6"><a xlink:title=" ">
<polygon fill="white" stroke="black" points="315,-476.5 315,-533.5 365,-533.5 365,-476.5 315,-476.5"/>
<text text-anchor="middle" x="340" y="-521.5" font-family="Helvetica,sans-Serif" font-size="10.00">int32_t</text>
<polyline fill="none" stroke="black" points="315,-514.5 365,-514.5 "/>
<text text-anchor="middle" x="340" y="-502.5" font-family="Helvetica,sans-Serif" font-size="10.00"> </text>
<polyline fill="none" stroke="black" points="315,-495.5 365,-495.5 "/>
<text text-anchor="middle" x="340" y="-483.5" font-family="Helvetica,sans-Serif" font-size="10.00"> </text>
</a>
</g>
</g>
<!-- Node6&#45;&gt;Node4 -->
<g id="edge5" class="edge">
<title>Node6&#45;&gt;Node4</title>
<path fill="none" stroke="#404040" d="M337.11,-476.26C336.03,-465.79 334.74,-453.42 333.46,-441.07"/>
<polygon fill="none" stroke="#404040" points="333.42,-440.74 328.82,-435.18 332.18,-428.8 336.78,-434.36 333.42,-440.74"/>
<text text-anchor="middle" x="352" y="-450" font-family="Helvetica,sans-Serif" font-size="10.00"> +type</text>
</g>
<!-- Node7 -->
<g id="node7" class="node">
<title>Node7</title>
<g id="a_node7"><a xlink:title=" ">
<polygon fill="white" stroke="black" points="383,-476.5 383,-533.5 421,-533.5 421,-476.5 383,-476.5"/>
<text text-anchor="middle" x="402" y="-521.5" font-family="Helvetica,sans-Serif" font-size="10.00">long</text>
<polyline fill="none" stroke="black" points="383,-514.5 421,-514.5 "/>
<text text-anchor="middle" x="402" y="-502.5" font-family="Helvetica,sans-Serif" font-size="10.00"> </text>
<polyline fill="none" stroke="black" points="383,-495.5 421,-495.5 "/>
<text text-anchor="middle" x="402" y="-483.5" font-family="Helvetica,sans-Serif" font-size="10.00"> </text>
</a>
</g>
</g>
<!-- Node7&#45;&gt;Node4 -->
<g id="edge6" class="edge">
<title>Node7&#45;&gt;Node4</title>
<path fill="none" stroke="#404040" d="M388.81,-476.38C384.07,-466.92 378.53,-456.37 373,-447 371.45,-444.37 369.83,-441.7 368.18,-439.02"/>
<polygon fill="none" stroke="#404040" points="368.05,-438.82 361.46,-435.89 361.63,-428.68 368.22,-431.61 368.05,-438.82"/>
<text text-anchor="middle" x="394.5" y="-450" font-family="Helvetica,sans-Serif" font-size="10.00"> +size</text>
</g>
<!-- Node8 -->
<g id="node8" class="node">
<title>Node8</title>
<g id="a_node8"><a xlink:title=" ">
<polygon fill="white" stroke="black" points="184,-122 184,-179 234,-179 234,-122 184,-122"/>
<text text-anchor="middle" x="209" y="-167" font-family="Helvetica,sans-Serif" font-size="10.00">double</text>
<polyline fill="none" stroke="black" points="184,-160 234,-160 "/>
<text text-anchor="middle" x="209" y="-148" font-family="Helvetica,sans-Serif" font-size="10.00"> </text>
<polyline fill="none" stroke="black" points="184,-141 234,-141 "/>
<text text-anchor="middle" x="209" y="-129" font-family="Helvetica,sans-Serif" font-size="10.00"> </text>
</a>
</g>
</g>
<!-- Node8&#45;&gt;Node1 -->
<g id="edge9" class="edge">
<title>Node8&#45;&gt;Node1</title>
<path fill="none" stroke="#404040" d="M183.87,-123.92C170.49,-110.31 153.71,-93.22 138.47,-77.71"/>
<polygon fill="none" stroke="#404040" points="138.12,-77.35 131.06,-75.88 129.71,-68.79 136.77,-70.27 138.12,-77.35"/>
<text text-anchor="middle" x="169.5" y="-90" font-family="Helvetica,sans-Serif" font-size="10.00"> +vel</text>
</g>
</g>
</svg>
