<?xml version="1.0" encoding="UTF-8" standalone="no"?>
<!DOCTYPE svg PUBLIC "-//W3C//DTD SVG 1.1//EN"
 "http://www.w3.org/Graphics/SVG/1.1/DTD/svg11.dtd">
<!-- Generated by graphviz version 2.43.0 (0)
 -->
<!-- Title: EMC_TRAJ_SET_SPINDLE_SCALE Pages: 1 -->
<svg width="508pt" height="618pt"
 viewBox="0.00 0.00 508.00 618.00" xmlns="http://www.w3.org/2000/svg" xmlns:xlink="http://www.w3.org/1999/xlink">
<g id="graph0" class="graph" transform="scale(1 1) rotate(0) translate(4 614)">
<title>EMC_TRAJ_SET_SPINDLE_SCALE</title>
<polygon fill="white" stroke="transparent" points="-4,4 -4,-614 504,-614 504,4 -4,4"/>
<!-- Node1 -->
<g id="node1" class="node">
<title>Node1</title>
<g id="a_node1"><a xlink:title=" ">
<polygon fill="#bfbfbf" stroke="black" points="65.5,-0.5 65.5,-90.5 212.5,-90.5 212.5,-0.5 65.5,-0.5"/>
<text text-anchor="start" x="73.5" y="-78.5" font-family="Helvetica,sans-Serif" font-size="10.00">EMC_TRAJ_SET_SPINDLE</text>
<text text-anchor="middle" x="139" y="-67.5" font-family="Helvetica,sans-Serif" font-size="10.00">_SCALE</text>
<polyline fill="none" stroke="black" points="65.5,-60.5 212.5,-60.5 "/>
<text text-anchor="middle" x="139" y="-48.5" font-family="Helvetica,sans-Serif" font-size="10.00"> </text>
<polyline fill="none" stroke="black" points="65.5,-41.5 212.5,-41.5 "/>
<text text-anchor="start" x="73.5" y="-29.5" font-family="Helvetica,sans-Serif" font-size="10.00">+ EMC_TRAJ_SET_SPINDLE</text>
<text text-anchor="start" x="73.5" y="-18.5" font-family="Helvetica,sans-Serif" font-size="10.00">_SCALE()</text>
<text text-anchor="start" x="73.5" y="-7.5" font-family="Helvetica,sans-Serif" font-size="10.00">+ update()</text>
</a>
</g>
</g>
<!-- Node2 -->
<g id="node2" class="node">
<title>Node2</title>
<g id="a_node2"><a xlink:href="classEMC__TRAJ__CMD__MSG.html" target="_top" xlink:title=" ">
<polygon fill="white" stroke="black" points="68.5,-138.5 68.5,-206.5 209.5,-206.5 209.5,-138.5 68.5,-138.5"/>
<text text-anchor="middle" x="139" y="-194.5" font-family="Helvetica,sans-Serif" font-size="10.00">EMC_TRAJ_CMD_MSG</text>
<polyline fill="none" stroke="black" points="68.5,-187.5 209.5,-187.5 "/>
<text text-anchor="middle" x="139" y="-175.5" font-family="Helvetica,sans-Serif" font-size="10.00"> </text>
<polyline fill="none" stroke="black" points="68.5,-168.5 209.5,-168.5 "/>
<text text-anchor="start" x="76.5" y="-156.5" font-family="Helvetica,sans-Serif" font-size="10.00">+ EMC_TRAJ_CMD_MSG()</text>
<text text-anchor="start" x="76.5" y="-145.5" font-family="Helvetica,sans-Serif" font-size="10.00">+ update()</text>
</a>
</g>
</g>
<!-- Node2&#45;&gt;Node1 -->
<g id="edge1" class="edge">
<title>Node2&#45;&gt;Node1</title>
<path fill="none" stroke="midnightblue" d="M139,-128.03C139,-115.93 139,-102.79 139,-90.66"/>
<polygon fill="none" stroke="midnightblue" points="135.5,-128.33 139,-138.33 142.5,-128.33 135.5,-128.33"/>
</g>
<!-- Node3 -->
<g id="node3" class="node">
<title>Node3</title>
<g id="a_node3"><a xlink:href="classRCS__CMD__MSG.html" target="_top" xlink:title=" ">
<polygon fill="white" stroke="black" points="83.5,-271 83.5,-328 194.5,-328 194.5,-271 83.5,-271"/>
<text text-anchor="middle" x="139" y="-316" font-family="Helvetica,sans-Serif" font-size="10.00">RCS_CMD_MSG</text>
<polyline fill="none" stroke="black" points="83.5,-309 194.5,-309 "/>
<text text-anchor="middle" x="139" y="-297" font-family="Helvetica,sans-Serif" font-size="10.00"> </text>
<polyline fill="none" stroke="black" points="83.5,-290 194.5,-290 "/>
<text text-anchor="start" x="91.5" y="-278" font-family="Helvetica,sans-Serif" font-size="10.00">+ RCS_CMD_MSG()</text>
</a>
</g>
</g>
<!-- Node3&#45;&gt;Node2 -->
<g id="edge2" class="edge">
<title>Node3&#45;&gt;Node2</title>
<path fill="none" stroke="midnightblue" d="M139,-260.55C139,-243.46 139,-223.46 139,-206.94"/>
<polygon fill="none" stroke="midnightblue" points="135.5,-260.76 139,-270.76 142.5,-260.76 135.5,-260.76"/>
</g>
<!-- Node4 -->
<g id="node4" class="node">
<title>Node4</title>
<g id="a_node4"><a xlink:href="classNMLmsg.html" target="_top" xlink:title=" ">
<polygon fill="white" stroke="black" points="146,-392.5 146,-493.5 224,-493.5 224,-392.5 146,-392.5"/>
<text text-anchor="middle" x="185" y="-481.5" font-family="Helvetica,sans-Serif" font-size="10.00">NMLmsg</text>
<polyline fill="none" stroke="black" points="146,-474.5 224,-474.5 "/>
<text text-anchor="middle" x="185" y="-462.5" font-family="Helvetica,sans-Serif" font-size="10.00"> </text>
<polyline fill="none" stroke="black" points="146,-455.5 224,-455.5 "/>
<text text-anchor="start" x="154" y="-443.5" font-family="Helvetica,sans-Serif" font-size="10.00">+ clear()</text>
<text text-anchor="start" x="154" y="-432.5" font-family="Helvetica,sans-Serif" font-size="10.00">+ update()</text>
<text text-anchor="start" x="154" y="-421.5" font-family="Helvetica,sans-Serif" font-size="10.00"># NMLmsg()</text>
<text text-anchor="start" x="154" y="-410.5" font-family="Helvetica,sans-Serif" font-size="10.00"># NMLmsg()</text>
<text text-anchor="start" x="154" y="-399.5" font-family="Helvetica,sans-Serif" font-size="10.00"># NMLmsg()</text>
</a>
</g>
</g>
<!-- Node4&#45;&gt;Node3 -->
<g id="edge3" class="edge">
<title>Node4&#45;&gt;Node3</title>
<path fill="none" stroke="midnightblue" d="M165.62,-382.39C159.5,-363.55 153.02,-343.63 147.99,-328.15"/>
<polygon fill="none" stroke="midnightblue" points="162.36,-383.68 168.78,-392.11 169.02,-381.52 162.36,-383.68"/>
</g>
<!-- Node5 -->
<g id="node5" class="node">
<title>Node5</title>
<g id="a_node5"><a xlink:title=" ">
<polygon fill="white" stroke="black" points="48.5,-552.5 48.5,-609.5 77.5,-609.5 77.5,-552.5 48.5,-552.5"/>
<text text-anchor="middle" x="63" y="-597.5" font-family="Helvetica,sans-Serif" font-size="10.00">int</text>
<polyline fill="none" stroke="black" points="48.5,-590.5 77.5,-590.5 "/>
<text text-anchor="middle" x="63" y="-578.5" font-family="Helvetica,sans-Serif" font-size="10.00"> </text>
<polyline fill="none" stroke="black" points="48.5,-571.5 77.5,-571.5 "/>
<text text-anchor="middle" x="63" y="-559.5" font-family="Helvetica,sans-Serif" font-size="10.00"> </text>
</a>
</g>
</g>
<!-- Node5&#45;&gt;Node1 -->
<g id="edge13" class="edge">
<title>Node5&#45;&gt;Node1</title>
<path fill="none" stroke="#404040" d="M48.39,-561.87C29.78,-536.9 0,-489.8 0,-444 0,-444 0,-444 0,-171.5 0,-135.64 25.9,-107.44 55.34,-86.98"/>
<polygon fill="none" stroke="#404040" points="55.41,-86.94 58.22,-80.3 65.43,-80.34 62.62,-86.98 55.41,-86.94"/>
<text text-anchor="middle" x="23.5" y="-297" font-family="Helvetica,sans-Serif" font-size="10.00"> +spindle</text>
</g>
<!-- Node5&#45;&gt;Node3 -->
<g id="edge6" class="edge">
<title>Node5&#45;&gt;Node3</title>
<path fill="none" stroke="#404040" d="M55.11,-552.41C45.81,-514.74 34.08,-445.73 55,-392 63.18,-371 78.67,-351.9 94.15,-336.65"/>
<polygon fill="none" stroke="#404040" points="94.47,-336.35 96.1,-329.32 103.21,-328.13 101.58,-335.15 94.47,-336.35"/>
<text text-anchor="middle" x="96" y="-440.5" font-family="Helvetica,sans-Serif" font-size="10.00"> +serial_number</text>
</g>
<!-- Node5&#45;&gt;Node4 -->
<g id="edge4" class="edge">
<title>Node5&#45;&gt;Node4</title>
<path fill="none" stroke="#404040" d="M63.9,-552.27C65.72,-538.65 70.06,-522.86 80,-512 96.51,-493.96 111.08,-506.67 132,-494 133.34,-493.19 134.67,-492.34 136,-491.46"/>
<polygon fill="none" stroke="#404040" points="136.28,-491.25 138.75,-484.47 145.95,-484.14 143.49,-490.92 136.28,-491.25"/>
<text text-anchor="middle" x="134.5" y="-526" font-family="Helvetica,sans-Serif" font-size="10.00"> +automatically_clear</text>
<text text-anchor="middle" x="134.5" y="-515" font-family="Helvetica,sans-Serif" font-size="10.00">+type</text>
</g>
<!-- Node8 -->
<g id="node8" class="node">
<title>Node8</title>
<g id="a_node8"><a xlink:href="structstate__tag__t.html" target="_top" xlink:title=" ">
<polygon fill="white" stroke="black" points="339.5,-414.5 339.5,-471.5 410.5,-471.5 410.5,-414.5 339.5,-414.5"/>
<text text-anchor="middle" x="375" y="-459.5" font-family="Helvetica,sans-Serif" font-size="10.00">state_tag_t</text>
<polyline fill="none" stroke="black" points="339.5,-452.5 410.5,-452.5 "/>
<text text-anchor="middle" x="375" y="-440.5" font-family="Helvetica,sans-Serif" font-size="10.00"> </text>
<polyline fill="none" stroke="black" points="339.5,-433.5 410.5,-433.5 "/>
<text text-anchor="middle" x="375" y="-421.5" font-family="Helvetica,sans-Serif" font-size="10.00"> </text>
</a>
</g>
</g>
<!-- Node5&#45;&gt;Node8 -->
<g id="edge10" class="edge">
<title>Node5&#45;&gt;Node8</title>
<path fill="none" stroke="#404040" d="M77.72,-577.17C102.45,-571.88 153.16,-558.74 189,-534 199.63,-526.66 196.67,-518.22 208,-512 256.44,-485.42 282.44,-520.35 331,-494 337.32,-490.57 343.16,-485.86 348.38,-480.7"/>
<polygon fill="none" stroke="#404040" points="348.49,-480.58 349.57,-473.45 356.57,-471.71 355.49,-478.84 348.49,-480.58"/>
<text text-anchor="middle" x="227" y="-520.5" font-family="Helvetica,sans-Serif" font-size="10.00"> +fields</text>
</g>
<!-- Node6 -->
<g id="node6" class="node">
<title>Node6</title>
<g id="a_node6"><a xlink:title=" ">
<polygon fill="white" stroke="black" points="253,-552.5 253,-609.5 291,-609.5 291,-552.5 253,-552.5"/>
<text text-anchor="middle" x="272" y="-597.5" font-family="Helvetica,sans-Serif" font-size="10.00">long</text>
<polyline fill="none" stroke="black" points="253,-590.5 291,-590.5 "/>
<text text-anchor="middle" x="272" y="-578.5" font-family="Helvetica,sans-Serif" font-size="10.00"> </text>
<polyline fill="none" stroke="black" points="253,-571.5 291,-571.5 "/>
<text text-anchor="middle" x="272" y="-559.5" font-family="Helvetica,sans-Serif" font-size="10.00"> </text>
</a>
</g>
</g>
<!-- Node6&#45;&gt;Node4 -->
<g id="edge5" class="edge">
<title>Node6&#45;&gt;Node4</title>
<path fill="none" stroke="#404040" d="M266.07,-552.32C262.58,-539.48 257.37,-524.36 250,-512 249.13,-510.55 242.04,-502.93 232.82,-493.28"/>
<polygon fill="none" stroke="#404040" points="232.6,-493.04 225.56,-491.48 224.29,-484.39 231.33,-485.95 232.6,-493.04"/>
<text text-anchor="middle" x="274.5" y="-520.5" font-family="Helvetica,sans-Serif" font-size="10.00"> +size</text>
</g>
<!-- Node7 -->
<g id="node7" class="node">
<title>Node7</title>
<g id="a_node7"><a xlink:href="structStateTag.html" target="_top" xlink:title=" ">
<polygon fill="white" stroke="black" points="231,-254.5 231,-344.5 333,-344.5 333,-254.5 231,-254.5"/>
<text text-anchor="middle" x="282" y="-332.5" font-family="Helvetica,sans-Serif" font-size="10.00">StateTag</text>
<polyline fill="none" stroke="black" points="231,-325.5 333,-325.5 "/>
<text text-anchor="middle" x="282" y="-313.5" font-family="Helvetica,sans-Serif" font-size="10.00"> </text>
<polyline fill="none" stroke="black" points="231,-306.5 333,-306.5 "/>
<text text-anchor="start" x="239" y="-294.5" font-family="Helvetica,sans-Serif" font-size="10.00">+ StateTag()</text>
<text text-anchor="start" x="239" y="-283.5" font-family="Helvetica,sans-Serif" font-size="10.00">+ StateTag()</text>
<text text-anchor="start" x="239" y="-272.5" font-family="Helvetica,sans-Serif" font-size="10.00">+ is_valid()</text>
<text text-anchor="start" x="239" y="-261.5" font-family="Helvetica,sans-Serif" font-size="10.00">+ get_state_tag()</text>
</a>
</g>
</g>
<!-- Node7&#45;&gt;Node2 -->
<g id="edge7" class="edge">
<title>Node7&#45;&gt;Node2</title>
<path fill="none" stroke="#404040" d="M231.58,-254.43C216.81,-241.51 200.71,-227.45 186.15,-214.71"/>
<polygon fill="none" stroke="#404040" points="185.86,-214.46 178.71,-213.53 176.83,-206.57 183.98,-207.5 185.86,-214.46"/>
<text text-anchor="middle" x="224" y="-228" font-family="Helvetica,sans-Serif" font-size="10.00"> +tag</text>
</g>
<!-- Node8&#45;&gt;Node7 -->
<g id="edge8" class="edge">
<title>Node8&#45;&gt;Node7</title>
<path fill="none" stroke="midnightblue" d="M351.27,-405.89C339.03,-387.28 324.01,-364.42 311.09,-344.75"/>
<polygon fill="none" stroke="midnightblue" points="348.43,-407.95 356.85,-414.38 354.28,-404.1 348.43,-407.95"/>
</g>
<!-- Node9 -->
<g id="node9" class="node">
<title>Node9</title>
<g id="a_node9"><a xlink:title=" ">
<polygon fill="white" stroke="black" points="332,-552.5 332,-609.5 370,-609.5 370,-552.5 332,-552.5"/>
<text text-anchor="middle" x="351" y="-597.5" font-family="Helvetica,sans-Serif" font-size="10.00">float</text>
<polyline fill="none" stroke="black" points="332,-590.5 370,-590.5 "/>
<text text-anchor="middle" x="351" y="-578.5" font-family="Helvetica,sans-Serif" font-size="10.00"> </text>
<polyline fill="none" stroke="black" points="332,-571.5 370,-571.5 "/>
<text text-anchor="middle" x="351" y="-559.5" font-family="Helvetica,sans-Serif" font-size="10.00"> </text>
</a>
</g>
</g>
<!-- Node9&#45;&gt;Node8 -->
<g id="edge9" class="edge">
<title>Node9&#45;&gt;Node8</title>
<path fill="none" stroke="#404040" d="M349.47,-552.36C349.28,-539.94 349.74,-525.15 352,-512 353.65,-502.41 356.43,-492.35 359.5,-483"/>
<polygon fill="none" stroke="#404040" points="359.52,-482.94 357.72,-475.96 363.48,-471.61 365.28,-478.6 359.52,-482.94"/>
<text text-anchor="middle" x="384.5" y="-520.5" font-family="Helvetica,sans-Serif" font-size="10.00"> +fields_float</text>
</g>
<!-- Node10 -->
<g id="node10" class="node">
<title>Node10</title>
<g id="a_node10"><a xlink:title=" ">
<polygon fill="white" stroke="black" points="408.5,-552.5 408.5,-609.5 469.5,-609.5 469.5,-552.5 408.5,-552.5"/>
<text text-anchor="middle" x="439" y="-597.5" font-family="Helvetica,sans-Serif" font-size="10.00">unsigned</text>
<polyline fill="none" stroke="black" points="408.5,-590.5 469.5,-590.5 "/>
<text text-anchor="middle" x="439" y="-578.5" font-family="Helvetica,sans-Serif" font-size="10.00"> </text>
<polyline fill="none" stroke="black" points="408.5,-571.5 469.5,-571.5 "/>
<text text-anchor="middle" x="439" y="-559.5" font-family="Helvetica,sans-Serif" font-size="10.00"> </text>
</a>
</g>
</g>
<!-- Node10&#45;&gt;Node8 -->
<g id="edge11" class="edge">
<title>Node10&#45;&gt;Node8</title>
<path fill="none" stroke="#404040" d="M431.68,-552.3C427.95,-539.73 422.94,-524.84 417,-512 412.35,-501.93 406.5,-491.53 400.67,-481.97"/>
<polygon fill="none" stroke="#404040" points="400.54,-481.76 393.96,-478.81 394.15,-471.61 400.73,-474.55 400.54,-481.76"/>
<text text-anchor="middle" x="462.5" y="-520.5" font-family="Helvetica,sans-Serif" font-size="10.00"> +packed_flags</text>
</g>
<!-- Node11 -->
<g id="node11" class="node">
<title>Node11</title>
<g id="a_node11"><a xlink:title=" ">
<polygon fill="white" stroke="black" points="242.5,-414.5 242.5,-471.5 321.5,-471.5 321.5,-414.5 242.5,-414.5"/>
<text text-anchor="middle" x="282" y="-459.5" font-family="Helvetica,sans-Serif" font-size="10.00">bitset&lt; 64 &gt;</text>
<polyline fill="none" stroke="black" points="242.5,-452.5 321.5,-452.5 "/>
<text text-anchor="middle" x="282" y="-440.5" font-family="Helvetica,sans-Serif" font-size="10.00"> </text>
<polyline fill="none" stroke="black" points="242.5,-433.5 321.5,-433.5 "/>
<text text-anchor="middle" x="282" y="-421.5" font-family="Helvetica,sans-Serif" font-size="10.00"> </text>
</a>
</g>
</g>
<!-- Node11&#45;&gt;Node7 -->
<g id="edge12" class="edge">
<title>Node11&#45;&gt;Node7</title>
<path fill="none" stroke="#404040" d="M282,-414.38C282,-398 282,-376.62 282,-356.82"/>
<polygon fill="none" stroke="#404040" points="282,-356.75 278,-350.75 282,-344.75 286,-350.75 282,-356.75"/>
<text text-anchor="middle" x="299.5" y="-366" font-family="Helvetica,sans-Serif" font-size="10.00"> +flags</text>
</g>
<!-- Node12 -->
<g id="node12" class="node">
<title>Node12</title>
<g id="a_node12"><a xlink:title=" ">
<polygon fill="white" stroke="black" points="228,-144 228,-201 278,-201 278,-144 228,-144"/>
<text text-anchor="middle" x="253" y="-189" font-family="Helvetica,sans-Serif" font-size="10.00">double</text>
<polyline fill="none" stroke="black" points="228,-182 278,-182 "/>
<text text-anchor="middle" x="253" y="-170" font-family="Helvetica,sans-Serif" font-size="10.00"> </text>
<polyline fill="none" stroke="black" points="228,-163 278,-163 "/>
<text text-anchor="middle" x="253" y="-151" font-family="Helvetica,sans-Serif" font-size="10.00"> </text>
</a>
</g>
</g>
<!-- Node12&#45;&gt;Node1 -->
<g id="edge14" class="edge">
<title>Node12&#45;&gt;Node1</title>
<path fill="none" stroke="#404040" d="M227.98,-144.07C216.04,-130.97 201.32,-114.84 187.32,-99.49"/>
<polygon fill="none" stroke="#404040" points="187.28,-99.44 180.28,-97.7 179.19,-90.57 186.19,-92.31 187.28,-99.44"/>
<text text-anchor="middle" x="220.5" y="-112" font-family="Helvetica,sans-Serif" font-size="10.00"> +scale</text>
</g>
</g>
</svg>
