<?xml version="1.0" encoding="UTF-8" standalone="no"?>
<!DOCTYPE svg PUBLIC "-//W3C//DTD SVG 1.1//EN"
 "http://www.w3.org/Graphics/SVG/1.1/DTD/svg11.dtd">
<!-- Generated by graphviz version 2.43.0 (0)
 -->
<!-- Title: EMC_AUX_CMD_MSG Pages: 1 -->
<svg width="653pt" height="469pt"
 viewBox="0.00 0.00 653.00 469.00" xmlns="http://www.w3.org/2000/svg" xmlns:xlink="http://www.w3.org/1999/xlink">
<g id="graph0" class="graph" transform="scale(1 1) rotate(0) translate(4 465)">
<title>EMC_AUX_CMD_MSG</title>
<polygon fill="white" stroke="transparent" points="-4,4 -4,-465 649,-465 649,4 -4,4"/>
<!-- Node1 -->
<g id="node1" class="node">
<title>Node1</title>
<g id="a_node1"><a xlink:title=" ">
<polygon fill="#bfbfbf" stroke="black" points="246.5,-138.5 246.5,-206.5 386.5,-206.5 386.5,-138.5 246.5,-138.5"/>
<text text-anchor="middle" x="316.5" y="-194.5" font-family="Helvetica,sans-Serif" font-size="10.00">EMC_AUX_CMD_MSG</text>
<polyline fill="none" stroke="black" points="246.5,-187.5 386.5,-187.5 "/>
<text text-anchor="middle" x="316.5" y="-175.5" font-family="Helvetica,sans-Serif" font-size="10.00"> </text>
<polyline fill="none" stroke="black" points="246.5,-168.5 386.5,-168.5 "/>
<text text-anchor="start" x="254.5" y="-156.5" font-family="Helvetica,sans-Serif" font-size="10.00">+ EMC_AUX_CMD_MSG()</text>
<text text-anchor="start" x="254.5" y="-145.5" font-family="Helvetica,sans-Serif" font-size="10.00">+ update()</text>
</a>
</g>
</g>
<!-- Node4 -->
<g id="node4" class="node">
<title>Node4</title>
<g id="a_node4"><a xlink:href="classEMC__AUX__ESTOP__OFF.html" target="_top" xlink:title=" ">
<polygon fill="white" stroke="black" points="0,-17 0,-85 145,-85 145,-17 0,-17"/>
<text text-anchor="middle" x="72.5" y="-73" font-family="Helvetica,sans-Serif" font-size="10.00">EMC_AUX_ESTOP_OFF</text>
<polyline fill="none" stroke="black" points="0,-66 145,-66 "/>
<text text-anchor="middle" x="72.5" y="-54" font-family="Helvetica,sans-Serif" font-size="10.00"> </text>
<polyline fill="none" stroke="black" points="0,-47 145,-47 "/>
<text text-anchor="start" x="8" y="-35" font-family="Helvetica,sans-Serif" font-size="10.00">+ EMC_AUX_ESTOP_OFF()</text>
<text text-anchor="start" x="8" y="-24" font-family="Helvetica,sans-Serif" font-size="10.00">+ update()</text>
</a>
</g>
</g>
<!-- Node1&#45;&gt;Node4 -->
<g id="edge3" class="edge">
<title>Node1&#45;&gt;Node4</title>
<path fill="none" stroke="midnightblue" d="M236.86,-139.99C210.29,-128.78 180.77,-115.56 154.5,-102 144.57,-96.88 134.22,-91.01 124.36,-85.14"/>
<polygon fill="none" stroke="midnightblue" points="235.54,-143.24 246.12,-143.87 238.25,-136.78 235.54,-143.24"/>
</g>
<!-- Node5 -->
<g id="node5" class="node">
<title>Node5</title>
<g id="a_node5"><a xlink:href="classEMC__AUX__ESTOP__ON.html" target="_top" xlink:title=" ">
<polygon fill="white" stroke="black" points="163.5,-17 163.5,-85 303.5,-85 303.5,-17 163.5,-17"/>
<text text-anchor="middle" x="233.5" y="-73" font-family="Helvetica,sans-Serif" font-size="10.00">EMC_AUX_ESTOP_ON</text>
<polyline fill="none" stroke="black" points="163.5,-66 303.5,-66 "/>
<text text-anchor="middle" x="233.5" y="-54" font-family="Helvetica,sans-Serif" font-size="10.00"> </text>
<polyline fill="none" stroke="black" points="163.5,-47 303.5,-47 "/>
<text text-anchor="start" x="171.5" y="-35" font-family="Helvetica,sans-Serif" font-size="10.00">+ EMC_AUX_ESTOP_ON()</text>
<text text-anchor="start" x="171.5" y="-24" font-family="Helvetica,sans-Serif" font-size="10.00">+ update()</text>
</a>
</g>
</g>
<!-- Node1&#45;&gt;Node5 -->
<g id="edge4" class="edge">
<title>Node1&#45;&gt;Node5</title>
<path fill="none" stroke="midnightblue" d="M287.54,-129.81C277.38,-115.17 266.11,-98.94 256.5,-85.11"/>
<polygon fill="none" stroke="midnightblue" points="284.8,-132 293.38,-138.21 290.55,-128 284.8,-132"/>
</g>
<!-- Node6 -->
<g id="node6" class="node">
<title>Node6</title>
<g id="a_node6"><a xlink:href="classEMC__AUX__ESTOP__RESET.html" target="_top" xlink:title=" ">
<polygon fill="white" stroke="black" points="321.5,-17 321.5,-85 477.5,-85 477.5,-17 321.5,-17"/>
<text text-anchor="middle" x="399.5" y="-73" font-family="Helvetica,sans-Serif" font-size="10.00">EMC_AUX_ESTOP_RESET</text>
<polyline fill="none" stroke="black" points="321.5,-66 477.5,-66 "/>
<text text-anchor="middle" x="399.5" y="-54" font-family="Helvetica,sans-Serif" font-size="10.00"> </text>
<polyline fill="none" stroke="black" points="321.5,-47 477.5,-47 "/>
<text text-anchor="start" x="329.5" y="-35" font-family="Helvetica,sans-Serif" font-size="10.00">+ EMC_AUX_ESTOP_RESET()</text>
<text text-anchor="start" x="329.5" y="-24" font-family="Helvetica,sans-Serif" font-size="10.00">+ update()</text>
</a>
</g>
</g>
<!-- Node1&#45;&gt;Node6 -->
<g id="edge5" class="edge">
<title>Node1&#45;&gt;Node6</title>
<path fill="none" stroke="midnightblue" d="M345.46,-129.81C355.62,-115.17 366.89,-98.94 376.5,-85.11"/>
<polygon fill="none" stroke="midnightblue" points="342.45,-128 339.62,-138.21 348.2,-132 342.45,-128"/>
</g>
<!-- Node7 -->
<g id="node7" class="node">
<title>Node7</title>
<g id="a_node7"><a xlink:href="classEMC__AUX__INPUT__WAIT.html" target="_top" xlink:title=" ">
<polygon fill="white" stroke="black" points="496,-0.5 496,-101.5 645,-101.5 645,-0.5 496,-0.5"/>
<text text-anchor="middle" x="570.5" y="-89.5" font-family="Helvetica,sans-Serif" font-size="10.00">EMC_AUX_INPUT_WAIT</text>
<polyline fill="none" stroke="black" points="496,-82.5 645,-82.5 "/>
<text text-anchor="start" x="504" y="-70.5" font-family="Helvetica,sans-Serif" font-size="10.00">+ index</text>
<text text-anchor="start" x="504" y="-59.5" font-family="Helvetica,sans-Serif" font-size="10.00">+ input_type</text>
<text text-anchor="start" x="504" y="-48.5" font-family="Helvetica,sans-Serif" font-size="10.00">+ wait_type</text>
<text text-anchor="start" x="504" y="-37.5" font-family="Helvetica,sans-Serif" font-size="10.00">+ timeout</text>
<polyline fill="none" stroke="black" points="496,-30.5 645,-30.5 "/>
<text text-anchor="start" x="504" y="-18.5" font-family="Helvetica,sans-Serif" font-size="10.00">+ EMC_AUX_INPUT_WAIT()</text>
<text text-anchor="start" x="504" y="-7.5" font-family="Helvetica,sans-Serif" font-size="10.00">+ update()</text>
</a>
</g>
</g>
<!-- Node1&#45;&gt;Node7 -->
<g id="edge6" class="edge">
<title>Node1&#45;&gt;Node7</title>
<path fill="none" stroke="midnightblue" d="M396.24,-141.75C425.09,-130.24 457.66,-116.38 486.5,-102 489.54,-100.49 492.61,-98.9 495.7,-97.27"/>
<polygon fill="none" stroke="midnightblue" points="394.62,-138.62 386.6,-145.56 397.19,-145.13 394.62,-138.62"/>
</g>
<!-- Node2 -->
<g id="node2" class="node">
<title>Node2</title>
<g id="a_node2"><a xlink:href="classRCS__CMD__MSG.html" target="_top" xlink:title=" ">
<polygon fill="white" stroke="black" points="261,-243.5 261,-300.5 372,-300.5 372,-243.5 261,-243.5"/>
<text text-anchor="middle" x="316.5" y="-288.5" font-family="Helvetica,sans-Serif" font-size="10.00">RCS_CMD_MSG</text>
<polyline fill="none" stroke="black" points="261,-281.5 372,-281.5 "/>
<text text-anchor="start" x="269" y="-269.5" font-family="Helvetica,sans-Serif" font-size="10.00">+ serial_number</text>
<polyline fill="none" stroke="black" points="261,-262.5 372,-262.5 "/>
<text text-anchor="start" x="269" y="-250.5" font-family="Helvetica,sans-Serif" font-size="10.00">+ RCS_CMD_MSG()</text>
</a>
</g>
</g>
<!-- Node2&#45;&gt;Node1 -->
<g id="edge1" class="edge">
<title>Node2&#45;&gt;Node1</title>
<path fill="none" stroke="midnightblue" d="M316.5,-233.06C316.5,-224.39 316.5,-215.24 316.5,-206.79"/>
<polygon fill="none" stroke="midnightblue" points="313,-233.32 316.5,-243.32 320,-233.32 313,-233.32"/>
</g>
<!-- Node3 -->
<g id="node3" class="node">
<title>Node3</title>
<g id="a_node3"><a xlink:href="classNMLmsg.html" target="_top" xlink:title=" ">
<polygon fill="white" stroke="black" points="254,-337.5 254,-460.5 379,-460.5 379,-337.5 254,-337.5"/>
<text text-anchor="middle" x="316.5" y="-448.5" font-family="Helvetica,sans-Serif" font-size="10.00">NMLmsg</text>
<polyline fill="none" stroke="black" points="254,-441.5 379,-441.5 "/>
<text text-anchor="start" x="262" y="-429.5" font-family="Helvetica,sans-Serif" font-size="10.00">+ type</text>
<text text-anchor="start" x="262" y="-418.5" font-family="Helvetica,sans-Serif" font-size="10.00">+ size</text>
<text text-anchor="start" x="262" y="-407.5" font-family="Helvetica,sans-Serif" font-size="10.00">+ automatically_clear</text>
<polyline fill="none" stroke="black" points="254,-400.5 379,-400.5 "/>
<text text-anchor="start" x="262" y="-388.5" font-family="Helvetica,sans-Serif" font-size="10.00">+ clear()</text>
<text text-anchor="start" x="262" y="-377.5" font-family="Helvetica,sans-Serif" font-size="10.00">+ update()</text>
<text text-anchor="start" x="262" y="-366.5" font-family="Helvetica,sans-Serif" font-size="10.00"># NMLmsg()</text>
<text text-anchor="start" x="262" y="-355.5" font-family="Helvetica,sans-Serif" font-size="10.00"># NMLmsg()</text>
<text text-anchor="start" x="262" y="-344.5" font-family="Helvetica,sans-Serif" font-size="10.00"># NMLmsg()</text>
</a>
</g>
</g>
<!-- Node3&#45;&gt;Node2 -->
<g id="edge2" class="edge">
<title>Node3&#45;&gt;Node2</title>
<path fill="none" stroke="midnightblue" d="M316.5,-327.14C316.5,-317.8 316.5,-308.71 316.5,-300.74"/>
<polygon fill="none" stroke="midnightblue" points="313,-327.33 316.5,-337.33 320,-327.33 313,-327.33"/>
</g>
</g>
</svg>
