<?xml version="1.0" encoding="UTF-8" standalone="no"?>
<!DOCTYPE svg PUBLIC "-//W3C//DTD SVG 1.1//EN"
 "http://www.w3.org/Graphics/SVG/1.1/DTD/svg11.dtd">
<!-- Generated by graphviz version 2.43.0 (0)
 -->
<!-- Title: EMC_IO_SET_CYCLE_TIME Pages: 1 -->
<svg width="247pt" height="543pt"
 viewBox="0.00 0.00 246.50 543.00" xmlns="http://www.w3.org/2000/svg" xmlns:xlink="http://www.w3.org/1999/xlink">
<g id="graph0" class="graph" transform="scale(1 1) rotate(0) translate(4 539)">
<title>EMC_IO_SET_CYCLE_TIME</title>
<polygon fill="white" stroke="transparent" points="-4,4 -4,-539 242.5,-539 242.5,4 -4,4"/>
<!-- Node1 -->
<g id="node1" class="node">
<title>Node1</title>
<g id="a_node1"><a xlink:title=" ">
<polygon fill="#bfbfbf" stroke="black" points="38,-0.5 38,-68.5 199,-68.5 199,-0.5 38,-0.5"/>
<text text-anchor="middle" x="118.5" y="-56.5" font-family="Helvetica,sans-Serif" font-size="10.00">EMC_IO_SET_CYCLE_TIME</text>
<polyline fill="none" stroke="black" points="38,-49.5 199,-49.5 "/>
<text text-anchor="middle" x="118.5" y="-37.5" font-family="Helvetica,sans-Serif" font-size="10.00"> </text>
<polyline fill="none" stroke="black" points="38,-30.5 199,-30.5 "/>
<text text-anchor="start" x="46" y="-18.5" font-family="Helvetica,sans-Serif" font-size="10.00">+ EMC_IO_SET_CYCLE_TIME()</text>
<text text-anchor="start" x="46" y="-7.5" font-family="Helvetica,sans-Serif" font-size="10.00">+ update()</text>
</a>
</g>
</g>
<!-- Node2 -->
<g id="node2" class="node">
<title>Node2</title>
<g id="a_node2"><a xlink:href="classEMC__IO__CMD__MSG.html" target="_top" xlink:title=" ">
<polygon fill="white" stroke="black" points="0,-116.5 0,-184.5 129,-184.5 129,-116.5 0,-116.5"/>
<text text-anchor="middle" x="64.5" y="-172.5" font-family="Helvetica,sans-Serif" font-size="10.00">EMC_IO_CMD_MSG</text>
<polyline fill="none" stroke="black" points="0,-165.5 129,-165.5 "/>
<text text-anchor="middle" x="64.5" y="-153.5" font-family="Helvetica,sans-Serif" font-size="10.00"> </text>
<polyline fill="none" stroke="black" points="0,-146.5 129,-146.5 "/>
<text text-anchor="start" x="8" y="-134.5" font-family="Helvetica,sans-Serif" font-size="10.00">+ EMC_IO_CMD_MSG()</text>
<text text-anchor="start" x="8" y="-123.5" font-family="Helvetica,sans-Serif" font-size="10.00">+ update()</text>
</a>
</g>
</g>
<!-- Node2&#45;&gt;Node1 -->
<g id="edge1" class="edge">
<title>Node2&#45;&gt;Node1</title>
<path fill="none" stroke="midnightblue" d="M84.55,-107.18C90.58,-94.45 97.11,-80.67 102.81,-68.62"/>
<polygon fill="none" stroke="midnightblue" points="81.38,-105.68 80.26,-116.22 87.71,-108.68 81.38,-105.68"/>
</g>
<!-- Node3 -->
<g id="node3" class="node">
<title>Node3</title>
<g id="a_node3"><a xlink:href="classRCS__CMD__MSG.html" target="_top" xlink:title=" ">
<polygon fill="white" stroke="black" points="9,-222.5 9,-279.5 120,-279.5 120,-222.5 9,-222.5"/>
<text text-anchor="middle" x="64.5" y="-267.5" font-family="Helvetica,sans-Serif" font-size="10.00">RCS_CMD_MSG</text>
<polyline fill="none" stroke="black" points="9,-260.5 120,-260.5 "/>
<text text-anchor="middle" x="64.5" y="-248.5" font-family="Helvetica,sans-Serif" font-size="10.00"> </text>
<polyline fill="none" stroke="black" points="9,-241.5 120,-241.5 "/>
<text text-anchor="start" x="17" y="-229.5" font-family="Helvetica,sans-Serif" font-size="10.00">+ RCS_CMD_MSG()</text>
</a>
</g>
</g>
<!-- Node3&#45;&gt;Node2 -->
<g id="edge2" class="edge">
<title>Node3&#45;&gt;Node2</title>
<path fill="none" stroke="midnightblue" d="M64.5,-212.01C64.5,-202.96 64.5,-193.38 64.5,-184.58"/>
<polygon fill="none" stroke="midnightblue" points="61,-212.3 64.5,-222.3 68,-212.3 61,-212.3"/>
</g>
<!-- Node4 -->
<g id="node4" class="node">
<title>Node4</title>
<g id="a_node4"><a xlink:href="classNMLmsg.html" target="_top" xlink:title=" ">
<polygon fill="white" stroke="black" points="152.5,-317.5 152.5,-418.5 230.5,-418.5 230.5,-317.5 152.5,-317.5"/>
<text text-anchor="middle" x="191.5" y="-406.5" font-family="Helvetica,sans-Serif" font-size="10.00">NMLmsg</text>
<polyline fill="none" stroke="black" points="152.5,-399.5 230.5,-399.5 "/>
<text text-anchor="middle" x="191.5" y="-387.5" font-family="Helvetica,sans-Serif" font-size="10.00"> </text>
<polyline fill="none" stroke="black" points="152.5,-380.5 230.5,-380.5 "/>
<text text-anchor="start" x="160.5" y="-368.5" font-family="Helvetica,sans-Serif" font-size="10.00">+ clear()</text>
<text text-anchor="start" x="160.5" y="-357.5" font-family="Helvetica,sans-Serif" font-size="10.00">+ update()</text>
<text text-anchor="start" x="160.5" y="-346.5" font-family="Helvetica,sans-Serif" font-size="10.00"># NMLmsg()</text>
<text text-anchor="start" x="160.5" y="-335.5" font-family="Helvetica,sans-Serif" font-size="10.00"># NMLmsg()</text>
<text text-anchor="start" x="160.5" y="-324.5" font-family="Helvetica,sans-Serif" font-size="10.00"># NMLmsg()</text>
</a>
</g>
</g>
<!-- Node4&#45;&gt;Node3 -->
<g id="edge3" class="edge">
<title>Node4&#45;&gt;Node3</title>
<path fill="none" stroke="midnightblue" d="M144.91,-322.87C142.75,-320.88 140.6,-318.92 138.5,-317 124.84,-304.57 109.54,-291.06 96.41,-279.59"/>
<polygon fill="none" stroke="midnightblue" points="142.57,-325.48 152.28,-329.71 147.33,-320.34 142.57,-325.48"/>
</g>
<!-- Node5 -->
<g id="node5" class="node">
<title>Node5</title>
<g id="a_node5"><a xlink:title=" ">
<polygon fill="white" stroke="black" points="55,-477.5 55,-534.5 84,-534.5 84,-477.5 55,-477.5"/>
<text text-anchor="middle" x="69.5" y="-522.5" font-family="Helvetica,sans-Serif" font-size="10.00">int</text>
<polyline fill="none" stroke="black" points="55,-515.5 84,-515.5 "/>
<text text-anchor="middle" x="69.5" y="-503.5" font-family="Helvetica,sans-Serif" font-size="10.00"> </text>
<polyline fill="none" stroke="black" points="55,-496.5 84,-496.5 "/>
<text text-anchor="middle" x="69.5" y="-484.5" font-family="Helvetica,sans-Serif" font-size="10.00"> </text>
</a>
</g>
</g>
<!-- Node5&#45;&gt;Node3 -->
<g id="edge6" class="edge">
<title>Node5&#45;&gt;Node3</title>
<path fill="none" stroke="#404040" d="M66.25,-477.16C64.45,-460.35 62.4,-438.47 61.5,-419 59.4,-373.72 60.45,-362.32 61.5,-317 61.69,-308.83 62.01,-300.08 62.37,-291.73"/>
<polygon fill="none" stroke="#404040" points="62.39,-291.49 58.67,-285.31 62.95,-279.51 66.66,-285.69 62.39,-291.49"/>
<text text-anchor="middle" x="102.5" y="-365.5" font-family="Helvetica,sans-Serif" font-size="10.00"> +serial_number</text>
</g>
<!-- Node5&#45;&gt;Node4 -->
<g id="edge4" class="edge">
<title>Node5&#45;&gt;Node4</title>
<path fill="none" stroke="#404040" d="M72.78,-477.3C75.69,-463.68 81.17,-447.89 91.5,-437 106.89,-420.77 119.56,-430.9 138.5,-419 139.83,-418.17 141.15,-417.3 142.46,-416.4"/>
<polygon fill="none" stroke="#404040" points="142.75,-416.18 145.15,-409.38 152.35,-408.98 149.95,-415.78 142.75,-416.18"/>
<text text-anchor="middle" x="146" y="-451" font-family="Helvetica,sans-Serif" font-size="10.00"> +automatically_clear</text>
<text text-anchor="middle" x="146" y="-440" font-family="Helvetica,sans-Serif" font-size="10.00">+type</text>
</g>
<!-- Node6 -->
<g id="node6" class="node">
<title>Node6</title>
<g id="a_node6"><a xlink:title=" ">
<polygon fill="white" stroke="black" points="198.5,-477.5 198.5,-534.5 236.5,-534.5 236.5,-477.5 198.5,-477.5"/>
<text text-anchor="middle" x="217.5" y="-522.5" font-family="Helvetica,sans-Serif" font-size="10.00">long</text>
<polyline fill="none" stroke="black" points="198.5,-515.5 236.5,-515.5 "/>
<text text-anchor="middle" x="217.5" y="-503.5" font-family="Helvetica,sans-Serif" font-size="10.00"> </text>
<polyline fill="none" stroke="black" points="198.5,-496.5 236.5,-496.5 "/>
<text text-anchor="middle" x="217.5" y="-484.5" font-family="Helvetica,sans-Serif" font-size="10.00"> </text>
</a>
</g>
</g>
<!-- Node6&#45;&gt;Node4 -->
<g id="edge5" class="edge">
<title>Node6&#45;&gt;Node4</title>
<path fill="none" stroke="#404040" d="M212.24,-477.48C209.65,-463.93 206.41,-447 203.27,-430.58"/>
<polygon fill="none" stroke="#404040" points="203.27,-430.55 198.21,-425.41 201.01,-418.76 206.07,-423.91 203.27,-430.55"/>
<text text-anchor="middle" x="223" y="-445.5" font-family="Helvetica,sans-Serif" font-size="10.00"> +size</text>
</g>
<!-- Node7 -->
<g id="node7" class="node">
<title>Node7</title>
<g id="a_node7"><a xlink:title=" ">
<polygon fill="white" stroke="black" points="147.5,-122 147.5,-179 197.5,-179 197.5,-122 147.5,-122"/>
<text text-anchor="middle" x="172.5" y="-167" font-family="Helvetica,sans-Serif" font-size="10.00">double</text>
<polyline fill="none" stroke="black" points="147.5,-160 197.5,-160 "/>
<text text-anchor="middle" x="172.5" y="-148" font-family="Helvetica,sans-Serif" font-size="10.00"> </text>
<polyline fill="none" stroke="black" points="147.5,-141 197.5,-141 "/>
<text text-anchor="middle" x="172.5" y="-129" font-family="Helvetica,sans-Serif" font-size="10.00"> </text>
</a>
</g>
</g>
<!-- Node7&#45;&gt;Node1 -->
<g id="edge7" class="edge">
<title>Node7&#45;&gt;Node1</title>
<path fill="none" stroke="#404040" d="M159.43,-121.9C153.42,-109.22 146.14,-93.85 139.4,-79.62"/>
<polygon fill="none" stroke="#404040" points="139.28,-79.37 133.1,-75.66 134.14,-68.52 140.33,-72.23 139.28,-79.37"/>
<text text-anchor="middle" x="177.5" y="-90" font-family="Helvetica,sans-Serif" font-size="10.00"> +cycleTime</text>
</g>
</g>
</svg>
