<?xml version="1.0" encoding="UTF-8" standalone="no"?>
<!DOCTYPE svg PUBLIC "-//W3C//DTD SVG 1.1//EN"
 "http://www.w3.org/Graphics/SVG/1.1/DTD/svg11.dtd">
<!-- Generated by graphviz version 2.43.0 (0)
 -->
<!-- Title: EMC_IO_HALT Pages: 1 -->
<svg width="219pt" height="533pt"
 viewBox="0.00 0.00 218.50 533.00" xmlns="http://www.w3.org/2000/svg" xmlns:xlink="http://www.w3.org/1999/xlink">
<g id="graph0" class="graph" transform="scale(1 1) rotate(0) translate(4 529)">
<title>EMC_IO_HALT</title>
<polygon fill="white" stroke="transparent" points="-4,4 -4,-529 214.5,-529 214.5,4 -4,4"/>
<!-- Node1 -->
<g id="node1" class="node">
<title>Node1</title>
<g id="a_node1"><a xlink:title=" ">
<polygon fill="#bfbfbf" stroke="black" points="13,-0.5 13,-68.5 116,-68.5 116,-0.5 13,-0.5"/>
<text text-anchor="middle" x="64.5" y="-56.5" font-family="Helvetica,sans-Serif" font-size="10.00">EMC_IO_HALT</text>
<polyline fill="none" stroke="black" points="13,-49.5 116,-49.5 "/>
<text text-anchor="middle" x="64.5" y="-37.5" font-family="Helvetica,sans-Serif" font-size="10.00"> </text>
<polyline fill="none" stroke="black" points="13,-30.5 116,-30.5 "/>
<text text-anchor="start" x="21" y="-18.5" font-family="Helvetica,sans-Serif" font-size="10.00">+ EMC_IO_HALT()</text>
<text text-anchor="start" x="21" y="-7.5" font-family="Helvetica,sans-Serif" font-size="10.00">+ update()</text>
</a>
</g>
</g>
<!-- Node2 -->
<g id="node2" class="node">
<title>Node2</title>
<g id="a_node2"><a xlink:href="classEMC__IO__CMD__MSG.html" target="_top" xlink:title=" ">
<polygon fill="white" stroke="black" points="0,-106.5 0,-174.5 129,-174.5 129,-106.5 0,-106.5"/>
<text text-anchor="middle" x="64.5" y="-162.5" font-family="Helvetica,sans-Serif" font-size="10.00">EMC_IO_CMD_MSG</text>
<polyline fill="none" stroke="black" points="0,-155.5 129,-155.5 "/>
<text text-anchor="middle" x="64.5" y="-143.5" font-family="Helvetica,sans-Serif" font-size="10.00"> </text>
<polyline fill="none" stroke="black" points="0,-136.5 129,-136.5 "/>
<text text-anchor="start" x="8" y="-124.5" font-family="Helvetica,sans-Serif" font-size="10.00">+ EMC_IO_CMD_MSG()</text>
<text text-anchor="start" x="8" y="-113.5" font-family="Helvetica,sans-Serif" font-size="10.00">+ update()</text>
</a>
</g>
</g>
<!-- Node2&#45;&gt;Node1 -->
<g id="edge1" class="edge">
<title>Node2&#45;&gt;Node1</title>
<path fill="none" stroke="midnightblue" d="M64.5,-96.17C64.5,-87 64.5,-77.46 64.5,-68.73"/>
<polygon fill="none" stroke="midnightblue" points="61,-96.31 64.5,-106.31 68,-96.31 61,-96.31"/>
</g>
<!-- Node3 -->
<g id="node3" class="node">
<title>Node3</title>
<g id="a_node3"><a xlink:href="classRCS__CMD__MSG.html" target="_top" xlink:title=" ">
<polygon fill="white" stroke="black" points="9,-212.5 9,-269.5 120,-269.5 120,-212.5 9,-212.5"/>
<text text-anchor="middle" x="64.5" y="-257.5" font-family="Helvetica,sans-Serif" font-size="10.00">RCS_CMD_MSG</text>
<polyline fill="none" stroke="black" points="9,-250.5 120,-250.5 "/>
<text text-anchor="middle" x="64.5" y="-238.5" font-family="Helvetica,sans-Serif" font-size="10.00"> </text>
<polyline fill="none" stroke="black" points="9,-231.5 120,-231.5 "/>
<text text-anchor="start" x="17" y="-219.5" font-family="Helvetica,sans-Serif" font-size="10.00">+ RCS_CMD_MSG()</text>
</a>
</g>
</g>
<!-- Node3&#45;&gt;Node2 -->
<g id="edge2" class="edge">
<title>Node3&#45;&gt;Node2</title>
<path fill="none" stroke="midnightblue" d="M64.5,-202.01C64.5,-192.96 64.5,-183.38 64.5,-174.58"/>
<polygon fill="none" stroke="midnightblue" points="61,-202.3 64.5,-212.3 68,-202.3 61,-202.3"/>
</g>
<!-- Node4 -->
<g id="node4" class="node">
<title>Node4</title>
<g id="a_node4"><a xlink:href="classNMLmsg.html" target="_top" xlink:title=" ">
<polygon fill="white" stroke="black" points="123.5,-307.5 123.5,-408.5 201.5,-408.5 201.5,-307.5 123.5,-307.5"/>
<text text-anchor="middle" x="162.5" y="-396.5" font-family="Helvetica,sans-Serif" font-size="10.00">NMLmsg</text>
<polyline fill="none" stroke="black" points="123.5,-389.5 201.5,-389.5 "/>
<text text-anchor="middle" x="162.5" y="-377.5" font-family="Helvetica,sans-Serif" font-size="10.00"> </text>
<polyline fill="none" stroke="black" points="123.5,-370.5 201.5,-370.5 "/>
<text text-anchor="start" x="131.5" y="-358.5" font-family="Helvetica,sans-Serif" font-size="10.00">+ clear()</text>
<text text-anchor="start" x="131.5" y="-347.5" font-family="Helvetica,sans-Serif" font-size="10.00">+ update()</text>
<text text-anchor="start" x="131.5" y="-336.5" font-family="Helvetica,sans-Serif" font-size="10.00"># NMLmsg()</text>
<text text-anchor="start" x="131.5" y="-325.5" font-family="Helvetica,sans-Serif" font-size="10.00"># NMLmsg()</text>
<text text-anchor="start" x="131.5" y="-314.5" font-family="Helvetica,sans-Serif" font-size="10.00"># NMLmsg()</text>
</a>
</g>
</g>
<!-- Node4&#45;&gt;Node3 -->
<g id="edge3" class="edge">
<title>Node4&#45;&gt;Node3</title>
<path fill="none" stroke="midnightblue" d="M116.98,-303.58C107.01,-291.88 96.84,-279.95 88.14,-269.75"/>
<polygon fill="none" stroke="midnightblue" points="114.34,-305.88 123.49,-311.22 119.66,-301.34 114.34,-305.88"/>
</g>
<!-- Node5 -->
<g id="node5" class="node">
<title>Node5</title>
<g id="a_node5"><a xlink:title=" ">
<polygon fill="white" stroke="black" points="26,-467.5 26,-524.5 55,-524.5 55,-467.5 26,-467.5"/>
<text text-anchor="middle" x="40.5" y="-512.5" font-family="Helvetica,sans-Serif" font-size="10.00">int</text>
<polyline fill="none" stroke="black" points="26,-505.5 55,-505.5 "/>
<text text-anchor="middle" x="40.5" y="-493.5" font-family="Helvetica,sans-Serif" font-size="10.00"> </text>
<polyline fill="none" stroke="black" points="26,-486.5 55,-486.5 "/>
<text text-anchor="middle" x="40.5" y="-474.5" font-family="Helvetica,sans-Serif" font-size="10.00"> </text>
</a>
</g>
</g>
<!-- Node5&#45;&gt;Node3 -->
<g id="edge6" class="edge">
<title>Node5&#45;&gt;Node3</title>
<path fill="none" stroke="#404040" d="M34.77,-467.49C28.08,-430.47 19.5,-362.84 32.5,-307 34.56,-298.16 38,-289.13 41.88,-280.73"/>
<polygon fill="none" stroke="#404040" points="42.01,-280.48 41.1,-273.33 47.36,-269.74 48.26,-276.89 42.01,-280.48"/>
<text text-anchor="middle" x="73.5" y="-355.5" font-family="Helvetica,sans-Serif" font-size="10.00"> +serial_number</text>
</g>
<!-- Node5&#45;&gt;Node4 -->
<g id="edge4" class="edge">
<title>Node5&#45;&gt;Node4</title>
<path fill="none" stroke="#404040" d="M43.78,-467.3C46.69,-453.68 52.17,-437.89 62.5,-427 77.89,-410.77 90.56,-420.9 109.5,-409 110.83,-408.17 112.15,-407.3 113.46,-406.4"/>
<polygon fill="none" stroke="#404040" points="113.75,-406.18 116.15,-399.38 123.35,-398.98 120.95,-405.78 113.75,-406.18"/>
<text text-anchor="middle" x="117" y="-441" font-family="Helvetica,sans-Serif" font-size="10.00"> +automatically_clear</text>
<text text-anchor="middle" x="117" y="-430" font-family="Helvetica,sans-Serif" font-size="10.00">+type</text>
</g>
<!-- Node6 -->
<g id="node6" class="node">
<title>Node6</title>
<g id="a_node6"><a xlink:title=" ">
<polygon fill="white" stroke="black" points="169.5,-467.5 169.5,-524.5 207.5,-524.5 207.5,-467.5 169.5,-467.5"/>
<text text-anchor="middle" x="188.5" y="-512.5" font-family="Helvetica,sans-Serif" font-size="10.00">long</text>
<polyline fill="none" stroke="black" points="169.5,-505.5 207.5,-505.5 "/>
<text text-anchor="middle" x="188.5" y="-493.5" font-family="Helvetica,sans-Serif" font-size="10.00"> </text>
<polyline fill="none" stroke="black" points="169.5,-486.5 207.5,-486.5 "/>
<text text-anchor="middle" x="188.5" y="-474.5" font-family="Helvetica,sans-Serif" font-size="10.00"> </text>
</a>
</g>
</g>
<!-- Node6&#45;&gt;Node4 -->
<g id="edge5" class="edge">
<title>Node6&#45;&gt;Node4</title>
<path fill="none" stroke="#404040" d="M183.24,-467.48C180.65,-453.93 177.41,-437 174.27,-420.58"/>
<polygon fill="none" stroke="#404040" points="174.27,-420.55 169.21,-415.41 172.01,-408.76 177.07,-413.91 174.27,-420.55"/>
<text text-anchor="middle" x="195" y="-435.5" font-family="Helvetica,sans-Serif" font-size="10.00"> +size</text>
</g>
</g>
</svg>
