<?xml version="1.0" encoding="UTF-8" standalone="no"?>
<!DOCTYPE svg PUBLIC "-//W3C//DTD SVG 1.1//EN"
 "http://www.w3.org/Graphics/SVG/1.1/DTD/svg11.dtd">
<!-- Generated by graphviz version 2.43.0 (0)
 -->
<!-- Title: EMC_TASK_PLAN_SET_BLOCK_DELETE Pages: 1 -->
<svg width="181pt" height="458pt"
 viewBox="0.00 0.00 181.00 458.00" xmlns="http://www.w3.org/2000/svg" xmlns:xlink="http://www.w3.org/1999/xlink">
<g id="graph0" class="graph" transform="scale(1 1) rotate(0) translate(4 454)">
<title>EMC_TASK_PLAN_SET_BLOCK_DELETE</title>
<polygon fill="white" stroke="transparent" points="-4,4 -4,-454 177,-454 177,4 -4,4"/>
<!-- Node1 -->
<g id="node1" class="node">
<title>Node1</title>
<g id="a_node1"><a xlink:title=" ">
<polygon fill="#bfbfbf" stroke="black" points="0,-0.5 0,-90.5 173,-90.5 173,-0.5 0,-0.5"/>
<text text-anchor="start" x="8" y="-78.5" font-family="Helvetica,sans-Serif" font-size="10.00">EMC_TASK_PLAN_SET_BLOCK</text>
<text text-anchor="middle" x="86.5" y="-67.5" font-family="Helvetica,sans-Serif" font-size="10.00">_DELETE</text>
<polyline fill="none" stroke="black" points="0,-60.5 173,-60.5 "/>
<text text-anchor="start" x="8" y="-48.5" font-family="Helvetica,sans-Serif" font-size="10.00">+ state</text>
<polyline fill="none" stroke="black" points="0,-41.5 173,-41.5 "/>
<text text-anchor="start" x="8" y="-29.5" font-family="Helvetica,sans-Serif" font-size="10.00">+ EMC_TASK_PLAN_SET_BLOCK</text>
<text text-anchor="start" x="8" y="-18.5" font-family="Helvetica,sans-Serif" font-size="10.00">_DELETE()</text>
<text text-anchor="start" x="8" y="-7.5" font-family="Helvetica,sans-Serif" font-size="10.00">+ update()</text>
</a>
</g>
</g>
<!-- Node2 -->
<g id="node2" class="node">
<title>Node2</title>
<g id="a_node2"><a xlink:href="classEMC__TASK__CMD__MSG.html" target="_top" xlink:title=" ">
<polygon fill="white" stroke="black" points="15,-127.5 15,-195.5 158,-195.5 158,-127.5 15,-127.5"/>
<text text-anchor="middle" x="86.5" y="-183.5" font-family="Helvetica,sans-Serif" font-size="10.00">EMC_TASK_CMD_MSG</text>
<polyline fill="none" stroke="black" points="15,-176.5 158,-176.5 "/>
<text text-anchor="middle" x="86.5" y="-164.5" font-family="Helvetica,sans-Serif" font-size="10.00"> </text>
<polyline fill="none" stroke="black" points="15,-157.5 158,-157.5 "/>
<text text-anchor="start" x="23" y="-145.5" font-family="Helvetica,sans-Serif" font-size="10.00">+ EMC_TASK_CMD_MSG()</text>
<text text-anchor="start" x="23" y="-134.5" font-family="Helvetica,sans-Serif" font-size="10.00">+ update()</text>
</a>
</g>
</g>
<!-- Node2&#45;&gt;Node1 -->
<g id="edge1" class="edge">
<title>Node2&#45;&gt;Node1</title>
<path fill="none" stroke="midnightblue" d="M86.5,-116.97C86.5,-108.35 86.5,-99.28 86.5,-90.64"/>
<polygon fill="none" stroke="midnightblue" points="83,-117.22 86.5,-127.22 90,-117.22 83,-117.22"/>
</g>
<!-- Node3 -->
<g id="node3" class="node">
<title>Node3</title>
<g id="a_node3"><a xlink:href="classRCS__CMD__MSG.html" target="_top" xlink:title=" ">
<polygon fill="white" stroke="black" points="31,-232.5 31,-289.5 142,-289.5 142,-232.5 31,-232.5"/>
<text text-anchor="middle" x="86.5" y="-277.5" font-family="Helvetica,sans-Serif" font-size="10.00">RCS_CMD_MSG</text>
<polyline fill="none" stroke="black" points="31,-270.5 142,-270.5 "/>
<text text-anchor="start" x="39" y="-258.5" font-family="Helvetica,sans-Serif" font-size="10.00">+ serial_number</text>
<polyline fill="none" stroke="black" points="31,-251.5 142,-251.5 "/>
<text text-anchor="start" x="39" y="-239.5" font-family="Helvetica,sans-Serif" font-size="10.00">+ RCS_CMD_MSG()</text>
</a>
</g>
</g>
<!-- Node3&#45;&gt;Node2 -->
<g id="edge2" class="edge">
<title>Node3&#45;&gt;Node2</title>
<path fill="none" stroke="midnightblue" d="M86.5,-222.06C86.5,-213.39 86.5,-204.24 86.5,-195.79"/>
<polygon fill="none" stroke="midnightblue" points="83,-222.32 86.5,-232.32 90,-222.32 83,-222.32"/>
</g>
<!-- Node4 -->
<g id="node4" class="node">
<title>Node4</title>
<g id="a_node4"><a xlink:href="classNMLmsg.html" target="_top" xlink:title=" ">
<polygon fill="white" stroke="black" points="24,-326.5 24,-449.5 149,-449.5 149,-326.5 24,-326.5"/>
<text text-anchor="middle" x="86.5" y="-437.5" font-family="Helvetica,sans-Serif" font-size="10.00">NMLmsg</text>
<polyline fill="none" stroke="black" points="24,-430.5 149,-430.5 "/>
<text text-anchor="start" x="32" y="-418.5" font-family="Helvetica,sans-Serif" font-size="10.00">+ type</text>
<text text-anchor="start" x="32" y="-407.5" font-family="Helvetica,sans-Serif" font-size="10.00">+ size</text>
<text text-anchor="start" x="32" y="-396.5" font-family="Helvetica,sans-Serif" font-size="10.00">+ automatically_clear</text>
<polyline fill="none" stroke="black" points="24,-389.5 149,-389.5 "/>
<text text-anchor="start" x="32" y="-377.5" font-family="Helvetica,sans-Serif" font-size="10.00">+ clear()</text>
<text text-anchor="start" x="32" y="-366.5" font-family="Helvetica,sans-Serif" font-size="10.00">+ update()</text>
<text text-anchor="start" x="32" y="-355.5" font-family="Helvetica,sans-Serif" font-size="10.00"># NMLmsg()</text>
<text text-anchor="start" x="32" y="-344.5" font-family="Helvetica,sans-Serif" font-size="10.00"># NMLmsg()</text>
<text text-anchor="start" x="32" y="-333.5" font-family="Helvetica,sans-Serif" font-size="10.00"># NMLmsg()</text>
</a>
</g>
</g>
<!-- Node4&#45;&gt;Node3 -->
<g id="edge3" class="edge">
<title>Node4&#45;&gt;Node3</title>
<path fill="none" stroke="midnightblue" d="M86.5,-316.14C86.5,-306.8 86.5,-297.71 86.5,-289.74"/>
<polygon fill="none" stroke="midnightblue" points="83,-316.33 86.5,-326.33 90,-316.33 83,-316.33"/>
</g>
</g>
</svg>
