<?xml version="1.0" encoding="UTF-8" standalone="no"?>
<!DOCTYPE svg PUBLIC "-//W3C//DTD SVG 1.1//EN"
 "http://www.w3.org/Graphics/SVG/1.1/DTD/svg11.dtd">
<!-- Generated by graphviz version 2.43.0 (0)
 -->
<!-- Title: EMC_CMD_MSG Pages: 1 -->
<svg width="648pt" height="447pt"
 viewBox="0.00 0.00 647.50 447.00" xmlns="http://www.w3.org/2000/svg" xmlns:xlink="http://www.w3.org/1999/xlink">
<g id="graph0" class="graph" transform="scale(1 1) rotate(0) translate(4 443)">
<title>EMC_CMD_MSG</title>
<polygon fill="white" stroke="transparent" points="-4,4 -4,-443 643.5,-443 643.5,4 -4,4"/>
<!-- Node1 -->
<g id="node1" class="node">
<title>Node1</title>
<g id="a_node1"><a xlink:title=" ">
<polygon fill="#bfbfbf" stroke="black" points="277,-116.5 277,-184.5 390,-184.5 390,-116.5 277,-116.5"/>
<text text-anchor="middle" x="333.5" y="-172.5" font-family="Helvetica,sans-Serif" font-size="10.00">EMC_CMD_MSG</text>
<polyline fill="none" stroke="black" points="277,-165.5 390,-165.5 "/>
<text text-anchor="middle" x="333.5" y="-153.5" font-family="Helvetica,sans-Serif" font-size="10.00"> </text>
<polyline fill="none" stroke="black" points="277,-146.5 390,-146.5 "/>
<text text-anchor="start" x="285" y="-134.5" font-family="Helvetica,sans-Serif" font-size="10.00">+ EMC_CMD_MSG()</text>
<text text-anchor="start" x="285" y="-123.5" font-family="Helvetica,sans-Serif" font-size="10.00">+ update()</text>
</a>
</g>
</g>
<!-- Node4 -->
<g id="node4" class="node">
<title>Node4</title>
<g id="a_node4"><a xlink:href="classEMC__ABORT.html" target="_top" xlink:title=" ">
<polygon fill="white" stroke="black" points="0,-6 0,-74 95,-74 95,-6 0,-6"/>
<text text-anchor="middle" x="47.5" y="-62" font-family="Helvetica,sans-Serif" font-size="10.00">EMC_ABORT</text>
<polyline fill="none" stroke="black" points="0,-55 95,-55 "/>
<text text-anchor="middle" x="47.5" y="-43" font-family="Helvetica,sans-Serif" font-size="10.00"> </text>
<polyline fill="none" stroke="black" points="0,-36 95,-36 "/>
<text text-anchor="start" x="8" y="-24" font-family="Helvetica,sans-Serif" font-size="10.00">+ EMC_ABORT()</text>
<text text-anchor="start" x="8" y="-13" font-family="Helvetica,sans-Serif" font-size="10.00">+ update()</text>
</a>
</g>
</g>
<!-- Node1&#45;&gt;Node4 -->
<g id="edge3" class="edge">
<title>Node1&#45;&gt;Node4</title>
<path fill="none" stroke="midnightblue" d="M267.04,-135.31C219.96,-123.86 156.08,-105.46 103.5,-80 99.87,-78.24 96.22,-76.27 92.62,-74.16"/>
<polygon fill="none" stroke="midnightblue" points="266.28,-138.72 276.82,-137.64 267.91,-131.92 266.28,-138.72"/>
</g>
<!-- Node5 -->
<g id="node5" class="node">
<title>Node5</title>
<g id="a_node5"><a xlink:href="classEMC__EXEC__PLUGIN__CALL.html" target="_top" xlink:title=" ">
<polygon fill="white" stroke="black" points="113,-0.5 113,-79.5 272,-79.5 272,-0.5 113,-0.5"/>
<text text-anchor="middle" x="192.5" y="-67.5" font-family="Helvetica,sans-Serif" font-size="10.00">EMC_EXEC_PLUGIN_CALL</text>
<polyline fill="none" stroke="black" points="113,-60.5 272,-60.5 "/>
<text text-anchor="start" x="121" y="-48.5" font-family="Helvetica,sans-Serif" font-size="10.00">+ len</text>
<text text-anchor="start" x="121" y="-37.5" font-family="Helvetica,sans-Serif" font-size="10.00">+ call</text>
<polyline fill="none" stroke="black" points="113,-30.5 272,-30.5 "/>
<text text-anchor="start" x="121" y="-18.5" font-family="Helvetica,sans-Serif" font-size="10.00">+ EMC_EXEC_PLUGIN_CALL()</text>
<text text-anchor="start" x="121" y="-7.5" font-family="Helvetica,sans-Serif" font-size="10.00">+ update()</text>
</a>
</g>
</g>
<!-- Node1&#45;&gt;Node5 -->
<g id="edge4" class="edge">
<title>Node1&#45;&gt;Node5</title>
<path fill="none" stroke="midnightblue" d="M282.5,-110.26C269.55,-100.29 255.64,-89.59 242.73,-79.65"/>
<polygon fill="none" stroke="midnightblue" points="280.37,-113.03 290.43,-116.36 284.64,-107.48 280.37,-113.03"/>
</g>
<!-- Node6 -->
<g id="node6" class="node">
<title>Node6</title>
<g id="a_node6"><a xlink:href="classEMC__HALT.html" target="_top" xlink:title=" ">
<polygon fill="white" stroke="black" points="290,-6 290,-74 377,-74 377,-6 290,-6"/>
<text text-anchor="middle" x="333.5" y="-62" font-family="Helvetica,sans-Serif" font-size="10.00">EMC_HALT</text>
<polyline fill="none" stroke="black" points="290,-55 377,-55 "/>
<text text-anchor="middle" x="333.5" y="-43" font-family="Helvetica,sans-Serif" font-size="10.00"> </text>
<polyline fill="none" stroke="black" points="290,-36 377,-36 "/>
<text text-anchor="start" x="298" y="-24" font-family="Helvetica,sans-Serif" font-size="10.00">+ EMC_HALT()</text>
<text text-anchor="start" x="298" y="-13" font-family="Helvetica,sans-Serif" font-size="10.00">+ update()</text>
</a>
</g>
</g>
<!-- Node1&#45;&gt;Node6 -->
<g id="edge5" class="edge">
<title>Node1&#45;&gt;Node6</title>
<path fill="none" stroke="midnightblue" d="M333.5,-106.04C333.5,-95.47 333.5,-84.33 333.5,-74.31"/>
<polygon fill="none" stroke="midnightblue" points="330,-106.36 333.5,-116.36 337,-106.36 330,-106.36"/>
</g>
<!-- Node7 -->
<g id="node7" class="node">
<title>Node7</title>
<g id="a_node7"><a xlink:href="classEMC__INIT.html" target="_top" xlink:title=" ">
<polygon fill="white" stroke="black" points="395.5,-6 395.5,-74 477.5,-74 477.5,-6 395.5,-6"/>
<text text-anchor="middle" x="436.5" y="-62" font-family="Helvetica,sans-Serif" font-size="10.00">EMC_INIT</text>
<polyline fill="none" stroke="black" points="395.5,-55 477.5,-55 "/>
<text text-anchor="middle" x="436.5" y="-43" font-family="Helvetica,sans-Serif" font-size="10.00"> </text>
<polyline fill="none" stroke="black" points="395.5,-36 477.5,-36 "/>
<text text-anchor="start" x="403.5" y="-24" font-family="Helvetica,sans-Serif" font-size="10.00">+ EMC_INIT()</text>
<text text-anchor="start" x="403.5" y="-13" font-family="Helvetica,sans-Serif" font-size="10.00">+ update()</text>
</a>
</g>
</g>
<!-- Node1&#45;&gt;Node7 -->
<g id="edge6" class="edge">
<title>Node1&#45;&gt;Node7</title>
<path fill="none" stroke="midnightblue" d="M371.95,-109C382.8,-97.57 394.48,-85.27 404.87,-74.31"/>
<polygon fill="none" stroke="midnightblue" points="369.31,-106.69 364.96,-116.36 374.39,-111.51 369.31,-106.69"/>
</g>
<!-- Node8 -->
<g id="node8" class="node">
<title>Node8</title>
<g id="a_node8"><a xlink:href="classEMC__IO__PLUGIN__CALL.html" target="_top" xlink:title=" ">
<polygon fill="white" stroke="black" points="495.5,-0.5 495.5,-79.5 639.5,-79.5 639.5,-0.5 495.5,-0.5"/>
<text text-anchor="middle" x="567.5" y="-67.5" font-family="Helvetica,sans-Serif" font-size="10.00">EMC_IO_PLUGIN_CALL</text>
<polyline fill="none" stroke="black" points="495.5,-60.5 639.5,-60.5 "/>
<text text-anchor="start" x="503.5" y="-48.5" font-family="Helvetica,sans-Serif" font-size="10.00">+ len</text>
<text text-anchor="start" x="503.5" y="-37.5" font-family="Helvetica,sans-Serif" font-size="10.00">+ call</text>
<polyline fill="none" stroke="black" points="495.5,-30.5 639.5,-30.5 "/>
<text text-anchor="start" x="503.5" y="-18.5" font-family="Helvetica,sans-Serif" font-size="10.00">+ EMC_IO_PLUGIN_CALL()</text>
<text text-anchor="start" x="503.5" y="-7.5" font-family="Helvetica,sans-Serif" font-size="10.00">+ update()</text>
</a>
</g>
</g>
<!-- Node1&#45;&gt;Node8 -->
<g id="edge7" class="edge">
<title>Node1&#45;&gt;Node8</title>
<path fill="none" stroke="midnightblue" d="M399.66,-119.83C426.65,-107.63 458.13,-93.27 486.5,-80 489.33,-78.68 492.21,-77.32 495.11,-75.95"/>
<polygon fill="none" stroke="midnightblue" points="397.99,-116.75 390.31,-124.06 400.87,-123.13 397.99,-116.75"/>
</g>
<!-- Node2 -->
<g id="node2" class="node">
<title>Node2</title>
<g id="a_node2"><a xlink:href="classRCS__CMD__MSG.html" target="_top" xlink:title=" ">
<polygon fill="white" stroke="black" points="278,-221.5 278,-278.5 389,-278.5 389,-221.5 278,-221.5"/>
<text text-anchor="middle" x="333.5" y="-266.5" font-family="Helvetica,sans-Serif" font-size="10.00">RCS_CMD_MSG</text>
<polyline fill="none" stroke="black" points="278,-259.5 389,-259.5 "/>
<text text-anchor="start" x="286" y="-247.5" font-family="Helvetica,sans-Serif" font-size="10.00">+ serial_number</text>
<polyline fill="none" stroke="black" points="278,-240.5 389,-240.5 "/>
<text text-anchor="start" x="286" y="-228.5" font-family="Helvetica,sans-Serif" font-size="10.00">+ RCS_CMD_MSG()</text>
</a>
</g>
</g>
<!-- Node2&#45;&gt;Node1 -->
<g id="edge1" class="edge">
<title>Node2&#45;&gt;Node1</title>
<path fill="none" stroke="midnightblue" d="M333.5,-211.06C333.5,-202.39 333.5,-193.24 333.5,-184.79"/>
<polygon fill="none" stroke="midnightblue" points="330,-211.32 333.5,-221.32 337,-211.32 330,-211.32"/>
</g>
<!-- Node3 -->
<g id="node3" class="node">
<title>Node3</title>
<g id="a_node3"><a xlink:href="classNMLmsg.html" target="_top" xlink:title=" ">
<polygon fill="white" stroke="black" points="271,-315.5 271,-438.5 396,-438.5 396,-315.5 271,-315.5"/>
<text text-anchor="middle" x="333.5" y="-426.5" font-family="Helvetica,sans-Serif" font-size="10.00">NMLmsg</text>
<polyline fill="none" stroke="black" points="271,-419.5 396,-419.5 "/>
<text text-anchor="start" x="279" y="-407.5" font-family="Helvetica,sans-Serif" font-size="10.00">+ type</text>
<text text-anchor="start" x="279" y="-396.5" font-family="Helvetica,sans-Serif" font-size="10.00">+ size</text>
<text text-anchor="start" x="279" y="-385.5" font-family="Helvetica,sans-Serif" font-size="10.00">+ automatically_clear</text>
<polyline fill="none" stroke="black" points="271,-378.5 396,-378.5 "/>
<text text-anchor="start" x="279" y="-366.5" font-family="Helvetica,sans-Serif" font-size="10.00">+ clear()</text>
<text text-anchor="start" x="279" y="-355.5" font-family="Helvetica,sans-Serif" font-size="10.00">+ update()</text>
<text text-anchor="start" x="279" y="-344.5" font-family="Helvetica,sans-Serif" font-size="10.00"># NMLmsg()</text>
<text text-anchor="start" x="279" y="-333.5" font-family="Helvetica,sans-Serif" font-size="10.00"># NMLmsg()</text>
<text text-anchor="start" x="279" y="-322.5" font-family="Helvetica,sans-Serif" font-size="10.00"># NMLmsg()</text>
</a>
</g>
</g>
<!-- Node3&#45;&gt;Node2 -->
<g id="edge2" class="edge">
<title>Node3&#45;&gt;Node2</title>
<path fill="none" stroke="midnightblue" d="M333.5,-305.14C333.5,-295.8 333.5,-286.71 333.5,-278.74"/>
<polygon fill="none" stroke="midnightblue" points="330,-305.33 333.5,-315.33 337,-305.33 330,-305.33"/>
</g>
</g>
</svg>
