<?xml version="1.0" encoding="UTF-8" standalone="no"?>
<!DOCTYPE svg PUBLIC "-//W3C//DTD SVG 1.1//EN"
 "http://www.w3.org/Graphics/SVG/1.1/DTD/svg11.dtd">
<!-- Generated by graphviz version 2.43.0 (0)
 -->
<!-- Title: EMC_SET_DEBUG Pages: 1 -->
<svg width="286pt" height="437pt"
 viewBox="0.00 0.00 285.50 437.00" xmlns="http://www.w3.org/2000/svg" xmlns:xlink="http://www.w3.org/1999/xlink">
<g id="graph0" class="graph" transform="scale(1 1) rotate(0) translate(4 433)">
<title>EMC_SET_DEBUG</title>
<polygon fill="white" stroke="transparent" points="-4,4 -4,-433 281.5,-433 281.5,4 -4,4"/>
<!-- Node1 -->
<g id="node1" class="node">
<title>Node1</title>
<g id="a_node1"><a xlink:title=" ">
<polygon fill="#bfbfbf" stroke="black" points="0,-0.5 0,-68.5 121,-68.5 121,-0.5 0,-0.5"/>
<text text-anchor="middle" x="60.5" y="-56.5" font-family="Helvetica,sans-Serif" font-size="10.00">EMC_SET_DEBUG</text>
<polyline fill="none" stroke="black" points="0,-49.5 121,-49.5 "/>
<text text-anchor="middle" x="60.5" y="-37.5" font-family="Helvetica,sans-Serif" font-size="10.00"> </text>
<polyline fill="none" stroke="black" points="0,-30.5 121,-30.5 "/>
<text text-anchor="start" x="8" y="-18.5" font-family="Helvetica,sans-Serif" font-size="10.00">+ EMC_SET_DEBUG()</text>
<text text-anchor="start" x="8" y="-7.5" font-family="Helvetica,sans-Serif" font-size="10.00">+ update()</text>
</a>
</g>
</g>
<!-- Node2 -->
<g id="node2" class="node">
<title>Node2</title>
<g id="a_node2"><a xlink:href="classRCS__CMD__MSG.html" target="_top" xlink:title=" ">
<polygon fill="white" stroke="black" points="62,-106.5 62,-163.5 173,-163.5 173,-106.5 62,-106.5"/>
<text text-anchor="middle" x="117.5" y="-151.5" font-family="Helvetica,sans-Serif" font-size="10.00">RCS_CMD_MSG</text>
<polyline fill="none" stroke="black" points="62,-144.5 173,-144.5 "/>
<text text-anchor="middle" x="117.5" y="-132.5" font-family="Helvetica,sans-Serif" font-size="10.00"> </text>
<polyline fill="none" stroke="black" points="62,-125.5 173,-125.5 "/>
<text text-anchor="start" x="70" y="-113.5" font-family="Helvetica,sans-Serif" font-size="10.00">+ RCS_CMD_MSG()</text>
</a>
</g>
</g>
<!-- Node2&#45;&gt;Node1 -->
<g id="edge1" class="edge">
<title>Node2&#45;&gt;Node1</title>
<path fill="none" stroke="midnightblue" d="M96.36,-97.48C90.88,-88.01 85.01,-77.86 79.64,-68.58"/>
<polygon fill="none" stroke="midnightblue" points="93.43,-99.4 101.47,-106.3 99.49,-95.89 93.43,-99.4"/>
</g>
<!-- Node3 -->
<g id="node3" class="node">
<title>Node3</title>
<g id="a_node3"><a xlink:href="classNMLmsg.html" target="_top" xlink:title=" ">
<polygon fill="white" stroke="black" points="190.5,-211.5 190.5,-312.5 268.5,-312.5 268.5,-211.5 190.5,-211.5"/>
<text text-anchor="middle" x="229.5" y="-300.5" font-family="Helvetica,sans-Serif" font-size="10.00">NMLmsg</text>
<polyline fill="none" stroke="black" points="190.5,-293.5 268.5,-293.5 "/>
<text text-anchor="middle" x="229.5" y="-281.5" font-family="Helvetica,sans-Serif" font-size="10.00"> </text>
<polyline fill="none" stroke="black" points="190.5,-274.5 268.5,-274.5 "/>
<text text-anchor="start" x="198.5" y="-262.5" font-family="Helvetica,sans-Serif" font-size="10.00">+ clear()</text>
<text text-anchor="start" x="198.5" y="-251.5" font-family="Helvetica,sans-Serif" font-size="10.00">+ update()</text>
<text text-anchor="start" x="198.5" y="-240.5" font-family="Helvetica,sans-Serif" font-size="10.00"># NMLmsg()</text>
<text text-anchor="start" x="198.5" y="-229.5" font-family="Helvetica,sans-Serif" font-size="10.00"># NMLmsg()</text>
<text text-anchor="start" x="198.5" y="-218.5" font-family="Helvetica,sans-Serif" font-size="10.00"># NMLmsg()</text>
</a>
</g>
</g>
<!-- Node3&#45;&gt;Node2 -->
<g id="edge2" class="edge">
<title>Node3&#45;&gt;Node2</title>
<path fill="none" stroke="midnightblue" d="M183.52,-209.68C169.48,-194.01 154.56,-177.36 142.47,-163.87"/>
<polygon fill="none" stroke="midnightblue" points="181.05,-212.17 190.33,-217.28 186.26,-207.5 181.05,-212.17"/>
</g>
<!-- Node4 -->
<g id="node4" class="node">
<title>Node4</title>
<g id="a_node4"><a xlink:title=" ">
<polygon fill="white" stroke="black" points="76,-371.5 76,-428.5 105,-428.5 105,-371.5 76,-371.5"/>
<text text-anchor="middle" x="90.5" y="-416.5" font-family="Helvetica,sans-Serif" font-size="10.00">int</text>
<polyline fill="none" stroke="black" points="76,-409.5 105,-409.5 "/>
<text text-anchor="middle" x="90.5" y="-397.5" font-family="Helvetica,sans-Serif" font-size="10.00"> </text>
<polyline fill="none" stroke="black" points="76,-390.5 105,-390.5 "/>
<text text-anchor="middle" x="90.5" y="-378.5" font-family="Helvetica,sans-Serif" font-size="10.00"> </text>
</a>
</g>
</g>
<!-- Node4&#45;&gt;Node1 -->
<g id="edge6" class="edge">
<title>Node4&#45;&gt;Node1</title>
<path fill="none" stroke="#404040" d="M83.42,-371.25C70.97,-319.37 46.95,-204.07 52.5,-106 52.96,-97.82 53.72,-89.13 54.6,-80.75"/>
<polygon fill="none" stroke="#404040" points="54.6,-80.71 51.3,-74.3 55.94,-68.79 59.25,-75.19 54.6,-80.71"/>
<text text-anchor="middle" x="75.5" y="-185" font-family="Helvetica,sans-Serif" font-size="10.00"> +debug</text>
</g>
<!-- Node4&#45;&gt;Node2 -->
<g id="edge5" class="edge">
<title>Node4&#45;&gt;Node2</title>
<path fill="none" stroke="#404040" d="M90.21,-371.45C90.18,-334.68 91.42,-267.61 99.5,-211 101.17,-199.32 103.82,-186.79 106.58,-175.39"/>
<polygon fill="none" stroke="#404040" points="106.63,-175.18 104.23,-168.38 109.58,-163.54 111.98,-170.34 106.63,-175.18"/>
<text text-anchor="middle" x="140.5" y="-259.5" font-family="Helvetica,sans-Serif" font-size="10.00"> +serial_number</text>
</g>
<!-- Node4&#45;&gt;Node3 -->
<g id="edge3" class="edge">
<title>Node4&#45;&gt;Node3</title>
<path fill="none" stroke="#404040" d="M101,-371.49C107.44,-357.75 116.89,-341.8 129.5,-331 146.49,-316.46 157.56,-324.9 176.5,-313 177.83,-312.17 179.15,-311.3 180.46,-310.4"/>
<polygon fill="none" stroke="#404040" points="180.75,-310.18 183.15,-303.38 190.35,-302.98 187.95,-309.78 180.75,-310.18"/>
<text text-anchor="middle" x="184" y="-345" font-family="Helvetica,sans-Serif" font-size="10.00"> +automatically_clear</text>
<text text-anchor="middle" x="184" y="-334" font-family="Helvetica,sans-Serif" font-size="10.00">+type</text>
</g>
<!-- Node5 -->
<g id="node5" class="node">
<title>Node5</title>
<g id="a_node5"><a xlink:title=" ">
<polygon fill="white" stroke="black" points="236.5,-371.5 236.5,-428.5 274.5,-428.5 274.5,-371.5 236.5,-371.5"/>
<text text-anchor="middle" x="255.5" y="-416.5" font-family="Helvetica,sans-Serif" font-size="10.00">long</text>
<polyline fill="none" stroke="black" points="236.5,-409.5 274.5,-409.5 "/>
<text text-anchor="middle" x="255.5" y="-397.5" font-family="Helvetica,sans-Serif" font-size="10.00"> </text>
<polyline fill="none" stroke="black" points="236.5,-390.5 274.5,-390.5 "/>
<text text-anchor="middle" x="255.5" y="-378.5" font-family="Helvetica,sans-Serif" font-size="10.00"> </text>
</a>
</g>
</g>
<!-- Node5&#45;&gt;Node3 -->
<g id="edge4" class="edge">
<title>Node5&#45;&gt;Node3</title>
<path fill="none" stroke="#404040" d="M250.24,-371.48C247.65,-357.93 244.41,-341 241.27,-324.58"/>
<polygon fill="none" stroke="#404040" points="241.27,-324.55 236.21,-319.41 239.01,-312.76 244.07,-317.91 241.27,-324.55"/>
<text text-anchor="middle" x="262" y="-339.5" font-family="Helvetica,sans-Serif" font-size="10.00"> +size</text>
</g>
</g>
</svg>
