<?xml version="1.0" encoding="UTF-8" standalone="no"?>
<!DOCTYPE svg PUBLIC "-//W3C//DTD SVG 1.1//EN"
 "http://www.w3.org/Graphics/SVG/1.1/DTD/svg11.dtd">
<!-- Generated by graphviz version 2.43.0 (0)
 -->
<!-- Title: EMC_JOINT_SET_HOMING_PARAMS Pages: 1 -->
<svg width="429pt" height="649pt"
 viewBox="0.00 0.00 429.00 649.00" xmlns="http://www.w3.org/2000/svg" xmlns:xlink="http://www.w3.org/1999/xlink">
<g id="graph0" class="graph" transform="scale(1 1) rotate(0) translate(4 645)">
<title>EMC_JOINT_SET_HOMING_PARAMS</title>
<polygon fill="white" stroke="transparent" points="-4,4 -4,-645 425,-645 425,4 -4,4"/>
<!-- Node1 -->
<g id="node1" class="node">
<title>Node1</title>
<g id="a_node1"><a xlink:title=" ">
<polygon fill="#bfbfbf" stroke="black" points="50,-0.5 50,-90.5 202,-90.5 202,-0.5 50,-0.5"/>
<text text-anchor="start" x="58" y="-78.5" font-family="Helvetica,sans-Serif" font-size="10.00">EMC_JOINT_SET_HOMING</text>
<text text-anchor="middle" x="126" y="-67.5" font-family="Helvetica,sans-Serif" font-size="10.00">_PARAMS</text>
<polyline fill="none" stroke="black" points="50,-60.5 202,-60.5 "/>
<text text-anchor="middle" x="126" y="-48.5" font-family="Helvetica,sans-Serif" font-size="10.00"> </text>
<polyline fill="none" stroke="black" points="50,-41.5 202,-41.5 "/>
<text text-anchor="start" x="58" y="-29.5" font-family="Helvetica,sans-Serif" font-size="10.00">+ EMC_JOINT_SET_HOMING</text>
<text text-anchor="start" x="58" y="-18.5" font-family="Helvetica,sans-Serif" font-size="10.00">_PARAMS()</text>
<text text-anchor="start" x="58" y="-7.5" font-family="Helvetica,sans-Serif" font-size="10.00">+ update()</text>
</a>
</g>
</g>
<!-- Node2 -->
<g id="node2" class="node">
<title>Node2</title>
<g id="a_node2"><a xlink:href="classEMC__JOINT__CMD__MSG.html" target="_top" xlink:title=" ">
<polygon fill="white" stroke="black" points="53,-182.5 53,-250.5 199,-250.5 199,-182.5 53,-182.5"/>
<text text-anchor="middle" x="126" y="-238.5" font-family="Helvetica,sans-Serif" font-size="10.00">EMC_JOINT_CMD_MSG</text>
<polyline fill="none" stroke="black" points="53,-231.5 199,-231.5 "/>
<text text-anchor="middle" x="126" y="-219.5" font-family="Helvetica,sans-Serif" font-size="10.00"> </text>
<polyline fill="none" stroke="black" points="53,-212.5 199,-212.5 "/>
<text text-anchor="start" x="61" y="-200.5" font-family="Helvetica,sans-Serif" font-size="10.00">+ EMC_JOINT_CMD_MSG()</text>
<text text-anchor="start" x="61" y="-189.5" font-family="Helvetica,sans-Serif" font-size="10.00">+ update()</text>
</a>
</g>
</g>
<!-- Node2&#45;&gt;Node1 -->
<g id="edge1" class="edge">
<title>Node2&#45;&gt;Node1</title>
<path fill="none" stroke="midnightblue" d="M126,-171.84C126,-146.91 126,-115.73 126,-90.71"/>
<polygon fill="none" stroke="midnightblue" points="122.5,-172.11 126,-182.11 129.5,-172.11 122.5,-172.11"/>
</g>
<!-- Node3 -->
<g id="node3" class="node">
<title>Node3</title>
<g id="a_node3"><a xlink:href="classRCS__CMD__MSG.html" target="_top" xlink:title=" ">
<polygon fill="white" stroke="black" points="154.5,-309 154.5,-366 265.5,-366 265.5,-309 154.5,-309"/>
<text text-anchor="middle" x="210" y="-354" font-family="Helvetica,sans-Serif" font-size="10.00">RCS_CMD_MSG</text>
<polyline fill="none" stroke="black" points="154.5,-347 265.5,-347 "/>
<text text-anchor="middle" x="210" y="-335" font-family="Helvetica,sans-Serif" font-size="10.00"> </text>
<polyline fill="none" stroke="black" points="154.5,-328 265.5,-328 "/>
<text text-anchor="start" x="162.5" y="-316" font-family="Helvetica,sans-Serif" font-size="10.00">+ RCS_CMD_MSG()</text>
</a>
</g>
</g>
<!-- Node3&#45;&gt;Node2 -->
<g id="edge2" class="edge">
<title>Node3&#45;&gt;Node2</title>
<path fill="none" stroke="midnightblue" d="M184.55,-300.45C173.43,-284.69 160.47,-266.33 149.57,-250.89"/>
<polygon fill="none" stroke="midnightblue" points="181.89,-302.75 190.52,-308.9 187.61,-298.71 181.89,-302.75"/>
</g>
<!-- Node4 -->
<g id="node4" class="node">
<title>Node4</title>
<g id="a_node4"><a xlink:href="classNMLmsg.html" target="_top" xlink:title=" ">
<polygon fill="white" stroke="black" points="288,-434.5 288,-535.5 366,-535.5 366,-434.5 288,-434.5"/>
<text text-anchor="middle" x="327" y="-523.5" font-family="Helvetica,sans-Serif" font-size="10.00">NMLmsg</text>
<polyline fill="none" stroke="black" points="288,-516.5 366,-516.5 "/>
<text text-anchor="middle" x="327" y="-504.5" font-family="Helvetica,sans-Serif" font-size="10.00"> </text>
<polyline fill="none" stroke="black" points="288,-497.5 366,-497.5 "/>
<text text-anchor="start" x="296" y="-485.5" font-family="Helvetica,sans-Serif" font-size="10.00">+ clear()</text>
<text text-anchor="start" x="296" y="-474.5" font-family="Helvetica,sans-Serif" font-size="10.00">+ update()</text>
<text text-anchor="start" x="296" y="-463.5" font-family="Helvetica,sans-Serif" font-size="10.00"># NMLmsg()</text>
<text text-anchor="start" x="296" y="-452.5" font-family="Helvetica,sans-Serif" font-size="10.00"># NMLmsg()</text>
<text text-anchor="start" x="296" y="-441.5" font-family="Helvetica,sans-Serif" font-size="10.00"># NMLmsg()</text>
</a>
</g>
</g>
<!-- Node4&#45;&gt;Node3 -->
<g id="edge3" class="edge">
<title>Node4&#45;&gt;Node3</title>
<path fill="none" stroke="midnightblue" d="M281.35,-427.22C264.5,-406.28 246.16,-383.47 232.3,-366.23"/>
<polygon fill="none" stroke="midnightblue" points="278.72,-429.55 287.72,-435.15 284.18,-425.16 278.72,-429.55"/>
</g>
<!-- Node5 -->
<g id="node5" class="node">
<title>Node5</title>
<g id="a_node5"><a xlink:title=" ">
<polygon fill="white" stroke="black" points="136.5,-583.5 136.5,-640.5 165.5,-640.5 165.5,-583.5 136.5,-583.5"/>
<text text-anchor="middle" x="151" y="-628.5" font-family="Helvetica,sans-Serif" font-size="10.00">int</text>
<polyline fill="none" stroke="black" points="136.5,-621.5 165.5,-621.5 "/>
<text text-anchor="middle" x="151" y="-609.5" font-family="Helvetica,sans-Serif" font-size="10.00"> </text>
<polyline fill="none" stroke="black" points="136.5,-602.5 165.5,-602.5 "/>
<text text-anchor="middle" x="151" y="-590.5" font-family="Helvetica,sans-Serif" font-size="10.00"> </text>
</a>
</g>
</g>
<!-- Node5&#45;&gt;Node1 -->
<g id="edge10" class="edge">
<title>Node5&#45;&gt;Node1</title>
<path fill="none" stroke="#404040" d="M136.25,-606.67C98.25,-594.51 0,-556.28 0,-486 0,-486 0,-486 0,-215.5 0,-170.37 29.24,-129.5 59.55,-99.26"/>
<polygon fill="none" stroke="#404040" points="59.88,-98.94 61.43,-91.9 68.53,-90.62 66.98,-97.66 59.88,-98.94"/>
<text text-anchor="middle" x="49" y="-379" font-family="Helvetica,sans-Serif" font-size="10.00"> +absolute_encoder</text>
<text text-anchor="start" x="0" y="-368" font-family="Helvetica,sans-Serif" font-size="10.00">+encoder_does_not</text>
<text text-anchor="middle" x="49" y="-357" font-family="Helvetica,sans-Serif" font-size="10.00">_reset</text>
<text text-anchor="middle" x="49" y="-346" font-family="Helvetica,sans-Serif" font-size="10.00">+home_sequence</text>
<text text-anchor="middle" x="49" y="-335" font-family="Helvetica,sans-Serif" font-size="10.00">+ignore_limits</text>
<text text-anchor="middle" x="49" y="-324" font-family="Helvetica,sans-Serif" font-size="10.00">+is_shared</text>
<text text-anchor="middle" x="49" y="-313" font-family="Helvetica,sans-Serif" font-size="10.00">+locking_indexer</text>
<text text-anchor="middle" x="49" y="-302" font-family="Helvetica,sans-Serif" font-size="10.00">+use_index</text>
<text text-anchor="middle" x="49" y="-291" font-family="Helvetica,sans-Serif" font-size="10.00">+volatile_home</text>
</g>
<!-- Node5&#45;&gt;Node2 -->
<g id="edge8" class="edge">
<title>Node5&#45;&gt;Node2</title>
<path fill="none" stroke="#404040" d="M149.24,-583.33C144.99,-516.34 134.1,-344.92 128.88,-262.75"/>
<polygon fill="none" stroke="#404040" points="128.86,-262.57 124.49,-256.84 128.1,-250.6 132.48,-256.33 128.86,-262.57"/>
<text text-anchor="middle" x="156" y="-408" font-family="Helvetica,sans-Serif" font-size="10.00"> +joint</text>
</g>
<!-- Node5&#45;&gt;Node3 -->
<g id="edge7" class="edge">
<title>Node5&#45;&gt;Node3</title>
<path fill="none" stroke="#404040" d="M156.98,-583.37C167.5,-534.82 189.32,-434.03 201.43,-378.08"/>
<polygon fill="none" stroke="#404040" points="201.46,-377.93 198.82,-371.22 204,-366.2 206.64,-372.91 201.46,-377.93"/>
<text text-anchor="middle" x="230" y="-482.5" font-family="Helvetica,sans-Serif" font-size="10.00"> +serial_number</text>
</g>
<!-- Node5&#45;&gt;Node4 -->
<g id="edge4" class="edge">
<title>Node5&#45;&gt;Node4</title>
<path fill="none" stroke="#404040" d="M165.7,-597.1C179.3,-584.73 200.46,-566.68 221,-554 237.59,-543.76 244.24,-545.95 261,-536 266.64,-532.65 272.37,-528.91 277.97,-525.02"/>
<polygon fill="none" stroke="#404040" points="278.12,-524.91 280.67,-518.16 287.87,-517.91 285.33,-524.66 278.12,-524.91"/>
<text text-anchor="middle" x="275.5" y="-557" font-family="Helvetica,sans-Serif" font-size="10.00"> +automatically_clear</text>
</g>
<!-- Node6 -->
<g id="node6" class="node">
<title>Node6</title>
<g id="a_node6"><a xlink:title=" ">
<polygon fill="white" stroke="black" points="315,-583.5 315,-640.5 365,-640.5 365,-583.5 315,-583.5"/>
<text text-anchor="middle" x="340" y="-628.5" font-family="Helvetica,sans-Serif" font-size="10.00">int32_t</text>
<polyline fill="none" stroke="black" points="315,-621.5 365,-621.5 "/>
<text text-anchor="middle" x="340" y="-609.5" font-family="Helvetica,sans-Serif" font-size="10.00"> </text>
<polyline fill="none" stroke="black" points="315,-602.5 365,-602.5 "/>
<text text-anchor="middle" x="340" y="-590.5" font-family="Helvetica,sans-Serif" font-size="10.00"> </text>
</a>
</g>
</g>
<!-- Node6&#45;&gt;Node4 -->
<g id="edge5" class="edge">
<title>Node6&#45;&gt;Node4</title>
<path fill="none" stroke="#404040" d="M337.11,-583.26C336.03,-572.79 334.74,-560.42 333.46,-548.07"/>
<polygon fill="none" stroke="#404040" points="333.42,-547.74 328.82,-542.18 332.18,-535.8 336.78,-541.36 333.42,-547.74"/>
<text text-anchor="middle" x="352" y="-557" font-family="Helvetica,sans-Serif" font-size="10.00"> +type</text>
</g>
<!-- Node7 -->
<g id="node7" class="node">
<title>Node7</title>
<g id="a_node7"><a xlink:title=" ">
<polygon fill="white" stroke="black" points="383,-583.5 383,-640.5 421,-640.5 421,-583.5 383,-583.5"/>
<text text-anchor="middle" x="402" y="-628.5" font-family="Helvetica,sans-Serif" font-size="10.00">long</text>
<polyline fill="none" stroke="black" points="383,-621.5 421,-621.5 "/>
<text text-anchor="middle" x="402" y="-609.5" font-family="Helvetica,sans-Serif" font-size="10.00"> </text>
<polyline fill="none" stroke="black" points="383,-602.5 421,-602.5 "/>
<text text-anchor="middle" x="402" y="-590.5" font-family="Helvetica,sans-Serif" font-size="10.00"> </text>
</a>
</g>
</g>
<!-- Node7&#45;&gt;Node4 -->
<g id="edge6" class="edge">
<title>Node7&#45;&gt;Node4</title>
<path fill="none" stroke="#404040" d="M388.81,-583.38C384.07,-573.92 378.53,-563.37 373,-554 371.45,-551.37 369.83,-548.7 368.18,-546.02"/>
<polygon fill="none" stroke="#404040" points="368.05,-545.82 361.46,-542.89 361.63,-535.68 368.22,-538.61 368.05,-545.82"/>
<text text-anchor="middle" x="394.5" y="-557" font-family="Helvetica,sans-Serif" font-size="10.00"> +size</text>
</g>
<!-- Node8 -->
<g id="node8" class="node">
<title>Node8</title>
<g id="a_node8"><a xlink:title=" ">
<polygon fill="white" stroke="black" points="217,-188 217,-245 267,-245 267,-188 217,-188"/>
<text text-anchor="middle" x="242" y="-233" font-family="Helvetica,sans-Serif" font-size="10.00">double</text>
<polyline fill="none" stroke="black" points="217,-226 267,-226 "/>
<text text-anchor="middle" x="242" y="-214" font-family="Helvetica,sans-Serif" font-size="10.00"> </text>
<polyline fill="none" stroke="black" points="217,-207 267,-207 "/>
<text text-anchor="middle" x="242" y="-195" font-family="Helvetica,sans-Serif" font-size="10.00"> </text>
</a>
</g>
</g>
<!-- Node8&#45;&gt;Node1 -->
<g id="edge9" class="edge">
<title>Node8&#45;&gt;Node1</title>
<path fill="none" stroke="#404040" d="M223.1,-187.97C206.91,-164.38 183.1,-129.69 163.11,-100.57"/>
<polygon fill="none" stroke="#404040" points="163.01,-100.42 156.32,-97.74 156.22,-90.53 162.91,-93.21 163.01,-100.42"/>
<text text-anchor="middle" x="245.5" y="-156" font-family="Helvetica,sans-Serif" font-size="10.00"> +home</text>
<text text-anchor="middle" x="245.5" y="-145" font-family="Helvetica,sans-Serif" font-size="10.00">+home_final_vel</text>
<text text-anchor="middle" x="245.5" y="-134" font-family="Helvetica,sans-Serif" font-size="10.00">+latch_vel</text>
<text text-anchor="middle" x="245.5" y="-123" font-family="Helvetica,sans-Serif" font-size="10.00">+offset</text>
<text text-anchor="middle" x="245.5" y="-112" font-family="Helvetica,sans-Serif" font-size="10.00">+search_vel</text>
</g>
</g>
</svg>
