<?xml version="1.0" encoding="UTF-8" standalone="no"?>
<!DOCTYPE svg PUBLIC "-//W3C//DTD SVG 1.1//EN"
 "http://www.w3.org/Graphics/SVG/1.1/DTD/svg11.dtd">
<!-- Generated by graphviz version 2.43.0 (0)
 -->
<!-- Title: EMC_TASK_INIT Pages: 1 -->
<svg width="282pt" height="522pt"
 viewBox="0.00 0.00 281.50 522.00" xmlns="http://www.w3.org/2000/svg" xmlns:xlink="http://www.w3.org/1999/xlink">
<g id="graph0" class="graph" transform="scale(1 1) rotate(0) translate(4 518)">
<title>EMC_TASK_INIT</title>
<polygon fill="white" stroke="transparent" points="-4,4 -4,-518 277.5,-518 277.5,4 -4,4"/>
<!-- Node1 -->
<g id="node1" class="node">
<title>Node1</title>
<g id="a_node1"><a xlink:title=" ">
<polygon fill="#bfbfbf" stroke="black" points="15.5,-0.5 15.5,-68.5 127.5,-68.5 127.5,-0.5 15.5,-0.5"/>
<text text-anchor="middle" x="71.5" y="-56.5" font-family="Helvetica,sans-Serif" font-size="10.00">EMC_TASK_INIT</text>
<polyline fill="none" stroke="black" points="15.5,-49.5 127.5,-49.5 "/>
<text text-anchor="middle" x="71.5" y="-37.5" font-family="Helvetica,sans-Serif" font-size="10.00"> </text>
<polyline fill="none" stroke="black" points="15.5,-30.5 127.5,-30.5 "/>
<text text-anchor="start" x="23.5" y="-18.5" font-family="Helvetica,sans-Serif" font-size="10.00">+ EMC_TASK_INIT()</text>
<text text-anchor="start" x="23.5" y="-7.5" font-family="Helvetica,sans-Serif" font-size="10.00">+ update()</text>
</a>
</g>
</g>
<!-- Node2 -->
<g id="node2" class="node">
<title>Node2</title>
<g id="a_node2"><a xlink:href="classEMC__TASK__CMD__MSG.html" target="_top" xlink:title=" ">
<polygon fill="white" stroke="black" points="0,-106.5 0,-174.5 143,-174.5 143,-106.5 0,-106.5"/>
<text text-anchor="middle" x="71.5" y="-162.5" font-family="Helvetica,sans-Serif" font-size="10.00">EMC_TASK_CMD_MSG</text>
<polyline fill="none" stroke="black" points="0,-155.5 143,-155.5 "/>
<text text-anchor="middle" x="71.5" y="-143.5" font-family="Helvetica,sans-Serif" font-size="10.00"> </text>
<polyline fill="none" stroke="black" points="0,-136.5 143,-136.5 "/>
<text text-anchor="start" x="8" y="-124.5" font-family="Helvetica,sans-Serif" font-size="10.00">+ EMC_TASK_CMD_MSG()</text>
<text text-anchor="start" x="8" y="-113.5" font-family="Helvetica,sans-Serif" font-size="10.00">+ update()</text>
</a>
</g>
</g>
<!-- Node2&#45;&gt;Node1 -->
<g id="edge1" class="edge">
<title>Node2&#45;&gt;Node1</title>
<path fill="none" stroke="midnightblue" d="M71.5,-96.17C71.5,-87 71.5,-77.46 71.5,-68.73"/>
<polygon fill="none" stroke="midnightblue" points="68,-96.31 71.5,-106.31 75,-96.31 68,-96.31"/>
</g>
<!-- Node3 -->
<g id="node3" class="node">
<title>Node3</title>
<g id="a_node3"><a xlink:href="classRCS__CMD__MSG.html" target="_top" xlink:title=" ">
<polygon fill="white" stroke="black" points="16,-212.5 16,-269.5 127,-269.5 127,-212.5 16,-212.5"/>
<text text-anchor="middle" x="71.5" y="-257.5" font-family="Helvetica,sans-Serif" font-size="10.00">RCS_CMD_MSG</text>
<polyline fill="none" stroke="black" points="16,-250.5 127,-250.5 "/>
<text text-anchor="middle" x="71.5" y="-238.5" font-family="Helvetica,sans-Serif" font-size="10.00"> </text>
<polyline fill="none" stroke="black" points="16,-231.5 127,-231.5 "/>
<text text-anchor="start" x="24" y="-219.5" font-family="Helvetica,sans-Serif" font-size="10.00">+ RCS_CMD_MSG()</text>
</a>
</g>
</g>
<!-- Node3&#45;&gt;Node2 -->
<g id="edge2" class="edge">
<title>Node3&#45;&gt;Node2</title>
<path fill="none" stroke="midnightblue" d="M71.5,-202.01C71.5,-192.96 71.5,-183.38 71.5,-174.58"/>
<polygon fill="none" stroke="midnightblue" points="68,-202.3 71.5,-212.3 75,-202.3 68,-202.3"/>
</g>
<!-- Node4 -->
<g id="node4" class="node">
<title>Node4</title>
<g id="a_node4"><a xlink:href="classNMLmsg.html" target="_top" xlink:title=" ">
<polygon fill="white" stroke="black" points="140.5,-307.5 140.5,-408.5 218.5,-408.5 218.5,-307.5 140.5,-307.5"/>
<text text-anchor="middle" x="179.5" y="-396.5" font-family="Helvetica,sans-Serif" font-size="10.00">NMLmsg</text>
<polyline fill="none" stroke="black" points="140.5,-389.5 218.5,-389.5 "/>
<text text-anchor="middle" x="179.5" y="-377.5" font-family="Helvetica,sans-Serif" font-size="10.00"> </text>
<polyline fill="none" stroke="black" points="140.5,-370.5 218.5,-370.5 "/>
<text text-anchor="start" x="148.5" y="-358.5" font-family="Helvetica,sans-Serif" font-size="10.00">+ clear()</text>
<text text-anchor="start" x="148.5" y="-347.5" font-family="Helvetica,sans-Serif" font-size="10.00">+ update()</text>
<text text-anchor="start" x="148.5" y="-336.5" font-family="Helvetica,sans-Serif" font-size="10.00"># NMLmsg()</text>
<text text-anchor="start" x="148.5" y="-325.5" font-family="Helvetica,sans-Serif" font-size="10.00"># NMLmsg()</text>
<text text-anchor="start" x="148.5" y="-314.5" font-family="Helvetica,sans-Serif" font-size="10.00"># NMLmsg()</text>
</a>
</g>
</g>
<!-- Node4&#45;&gt;Node3 -->
<g id="edge3" class="edge">
<title>Node4&#45;&gt;Node3</title>
<path fill="none" stroke="midnightblue" d="M133.1,-307.59C120.89,-294.6 108.16,-281.04 97.46,-269.64"/>
<polygon fill="none" stroke="midnightblue" points="130.81,-310.26 140.2,-315.16 135.91,-305.47 130.81,-310.26"/>
</g>
<!-- Node5 -->
<g id="node5" class="node">
<title>Node5</title>
<g id="a_node5"><a xlink:title=" ">
<polygon fill="white" stroke="black" points="30,-456.5 30,-513.5 59,-513.5 59,-456.5 30,-456.5"/>
<text text-anchor="middle" x="44.5" y="-501.5" font-family="Helvetica,sans-Serif" font-size="10.00">int</text>
<polyline fill="none" stroke="black" points="30,-494.5 59,-494.5 "/>
<text text-anchor="middle" x="44.5" y="-482.5" font-family="Helvetica,sans-Serif" font-size="10.00"> </text>
<polyline fill="none" stroke="black" points="30,-475.5 59,-475.5 "/>
<text text-anchor="middle" x="44.5" y="-463.5" font-family="Helvetica,sans-Serif" font-size="10.00"> </text>
</a>
</g>
</g>
<!-- Node5&#45;&gt;Node3 -->
<g id="edge7" class="edge">
<title>Node5&#45;&gt;Node3</title>
<path fill="none" stroke="#404040" d="M42.76,-456.45C41.13,-421.42 40.15,-359.2 49.5,-307 51.03,-298.47 53.46,-289.54 56.17,-281.13"/>
<polygon fill="none" stroke="#404040" points="56.2,-281.02 54.37,-274.05 60.1,-269.67 61.94,-276.65 56.2,-281.02"/>
<text text-anchor="middle" x="90.5" y="-355.5" font-family="Helvetica,sans-Serif" font-size="10.00"> +serial_number</text>
</g>
<!-- Node5&#45;&gt;Node4 -->
<g id="edge4" class="edge">
<title>Node5&#45;&gt;Node4</title>
<path fill="none" stroke="#404040" d="M54.61,-456.34C59.41,-446.13 65.98,-435.08 74.5,-427 88.35,-413.86 97.13,-418.82 113.5,-409 119.12,-405.63 124.84,-401.87 130.44,-397.97"/>
<polygon fill="none" stroke="#404040" points="130.59,-397.85 133.13,-391.1 140.33,-390.85 137.8,-397.6 130.59,-397.85"/>
<text text-anchor="middle" x="129" y="-430" font-family="Helvetica,sans-Serif" font-size="10.00"> +automatically_clear</text>
</g>
<!-- Node6 -->
<g id="node6" class="node">
<title>Node6</title>
<g id="a_node6"><a xlink:title=" ">
<polygon fill="white" stroke="black" points="167.5,-456.5 167.5,-513.5 217.5,-513.5 217.5,-456.5 167.5,-456.5"/>
<text text-anchor="middle" x="192.5" y="-501.5" font-family="Helvetica,sans-Serif" font-size="10.00">int32_t</text>
<polyline fill="none" stroke="black" points="167.5,-494.5 217.5,-494.5 "/>
<text text-anchor="middle" x="192.5" y="-482.5" font-family="Helvetica,sans-Serif" font-size="10.00"> </text>
<polyline fill="none" stroke="black" points="167.5,-475.5 217.5,-475.5 "/>
<text text-anchor="middle" x="192.5" y="-463.5" font-family="Helvetica,sans-Serif" font-size="10.00"> </text>
</a>
</g>
</g>
<!-- Node6&#45;&gt;Node4 -->
<g id="edge5" class="edge">
<title>Node6&#45;&gt;Node4</title>
<path fill="none" stroke="#404040" d="M189.61,-456.26C188.53,-445.79 187.24,-433.42 185.96,-421.07"/>
<polygon fill="none" stroke="#404040" points="185.92,-420.74 181.32,-415.18 184.68,-408.8 189.28,-414.36 185.92,-420.74"/>
<text text-anchor="middle" x="205.5" y="-430" font-family="Helvetica,sans-Serif" font-size="10.00"> +type</text>
</g>
<!-- Node7 -->
<g id="node7" class="node">
<title>Node7</title>
<g id="a_node7"><a xlink:title=" ">
<polygon fill="white" stroke="black" points="235.5,-456.5 235.5,-513.5 273.5,-513.5 273.5,-456.5 235.5,-456.5"/>
<text text-anchor="middle" x="254.5" y="-501.5" font-family="Helvetica,sans-Serif" font-size="10.00">long</text>
<polyline fill="none" stroke="black" points="235.5,-494.5 273.5,-494.5 "/>
<text text-anchor="middle" x="254.5" y="-482.5" font-family="Helvetica,sans-Serif" font-size="10.00"> </text>
<polyline fill="none" stroke="black" points="235.5,-475.5 273.5,-475.5 "/>
<text text-anchor="middle" x="254.5" y="-463.5" font-family="Helvetica,sans-Serif" font-size="10.00"> </text>
</a>
</g>
</g>
<!-- Node7&#45;&gt;Node4 -->
<g id="edge6" class="edge">
<title>Node7&#45;&gt;Node4</title>
<path fill="none" stroke="#404040" d="M241.92,-456.31C237.35,-446.86 231.97,-436.32 226.5,-427 224.94,-424.35 223.32,-421.66 221.64,-418.97"/>
<polygon fill="none" stroke="#404040" points="221.47,-418.7 214.87,-415.79 215.01,-408.58 221.61,-411.49 221.47,-418.7"/>
<text text-anchor="middle" x="248" y="-430" font-family="Helvetica,sans-Serif" font-size="10.00"> +size</text>
</g>
</g>
</svg>
