<?xml version="1.0" encoding="UTF-8" standalone="no"?>
<!DOCTYPE svg PUBLIC "-//W3C//DTD SVG 1.1//EN"
 "http://www.w3.org/Graphics/SVG/1.1/DTD/svg11.dtd">
<!-- Generated by graphviz version 2.43.0 (0)
 -->
<!-- Title: EMC_SPINDLE_OFF Pages: 1 -->
<svg width="422pt" height="532pt"
 viewBox="0.00 0.00 422.00 532.00" xmlns="http://www.w3.org/2000/svg" xmlns:xlink="http://www.w3.org/1999/xlink">
<g id="graph0" class="graph" transform="scale(1 1) rotate(0) translate(4 528)">
<title>EMC_SPINDLE_OFF</title>
<polygon fill="white" stroke="transparent" points="-4,4 -4,-528 418,-528 418,4 -4,4"/>
<!-- Node1 -->
<g id="node1" class="node">
<title>Node1</title>
<g id="a_node1"><a xlink:title=" ">
<polygon fill="#bfbfbf" stroke="black" points="0,-0.5 0,-68.5 128,-68.5 128,-0.5 0,-0.5"/>
<text text-anchor="middle" x="64" y="-56.5" font-family="Helvetica,sans-Serif" font-size="10.00">EMC_SPINDLE_OFF</text>
<polyline fill="none" stroke="black" points="0,-49.5 128,-49.5 "/>
<text text-anchor="middle" x="64" y="-37.5" font-family="Helvetica,sans-Serif" font-size="10.00"> </text>
<polyline fill="none" stroke="black" points="0,-30.5 128,-30.5 "/>
<text text-anchor="start" x="8" y="-18.5" font-family="Helvetica,sans-Serif" font-size="10.00">+ EMC_SPINDLE_OFF()</text>
<text text-anchor="start" x="8" y="-7.5" font-family="Helvetica,sans-Serif" font-size="10.00">+ update()</text>
</a>
</g>
</g>
<!-- Node2 -->
<g id="node2" class="node">
<title>Node2</title>
<g id="a_node2"><a xlink:href="classEMC__SPINDLE__CMD__MSG.html" target="_top" xlink:title=" ">
<polygon fill="white" stroke="black" points="59,-106.5 59,-174.5 219,-174.5 219,-106.5 59,-106.5"/>
<text text-anchor="middle" x="139" y="-162.5" font-family="Helvetica,sans-Serif" font-size="10.00">EMC_SPINDLE_CMD_MSG</text>
<polyline fill="none" stroke="black" points="59,-155.5 219,-155.5 "/>
<text text-anchor="middle" x="139" y="-143.5" font-family="Helvetica,sans-Serif" font-size="10.00"> </text>
<polyline fill="none" stroke="black" points="59,-136.5 219,-136.5 "/>
<text text-anchor="start" x="67" y="-124.5" font-family="Helvetica,sans-Serif" font-size="10.00">+ EMC_SPINDLE_CMD_MSG()</text>
<text text-anchor="start" x="67" y="-113.5" font-family="Helvetica,sans-Serif" font-size="10.00">+ update()</text>
</a>
</g>
</g>
<!-- Node2&#45;&gt;Node1 -->
<g id="edge1" class="edge">
<title>Node2&#45;&gt;Node1</title>
<path fill="none" stroke="midnightblue" d="M109.03,-97.94C102.03,-88.24 94.67,-78.02 87.97,-68.73"/>
<polygon fill="none" stroke="midnightblue" points="106.38,-100.24 115.06,-106.31 112.05,-96.15 106.38,-100.24"/>
</g>
<!-- Node3 -->
<g id="node3" class="node">
<title>Node3</title>
<g id="a_node3"><a xlink:href="classRCS__CMD__MSG.html" target="_top" xlink:title=" ">
<polygon fill="white" stroke="black" points="134.5,-212.5 134.5,-269.5 245.5,-269.5 245.5,-212.5 134.5,-212.5"/>
<text text-anchor="middle" x="190" y="-257.5" font-family="Helvetica,sans-Serif" font-size="10.00">RCS_CMD_MSG</text>
<polyline fill="none" stroke="black" points="134.5,-250.5 245.5,-250.5 "/>
<text text-anchor="middle" x="190" y="-238.5" font-family="Helvetica,sans-Serif" font-size="10.00"> </text>
<polyline fill="none" stroke="black" points="134.5,-231.5 245.5,-231.5 "/>
<text text-anchor="start" x="142.5" y="-219.5" font-family="Helvetica,sans-Serif" font-size="10.00">+ RCS_CMD_MSG()</text>
</a>
</g>
</g>
<!-- Node3&#45;&gt;Node2 -->
<g id="edge2" class="edge">
<title>Node3&#45;&gt;Node2</title>
<path fill="none" stroke="midnightblue" d="M170.94,-203.18C166.08,-193.8 160.88,-183.77 156.13,-174.58"/>
<polygon fill="none" stroke="midnightblue" points="167.95,-205.03 175.66,-212.3 174.17,-201.81 167.95,-205.03"/>
</g>
<!-- Node4 -->
<g id="node4" class="node">
<title>Node4</title>
<g id="a_node4"><a xlink:href="classNMLmsg.html" target="_top" xlink:title=" ">
<polygon fill="white" stroke="black" points="281,-317.5 281,-418.5 359,-418.5 359,-317.5 281,-317.5"/>
<text text-anchor="middle" x="320" y="-406.5" font-family="Helvetica,sans-Serif" font-size="10.00">NMLmsg</text>
<polyline fill="none" stroke="black" points="281,-399.5 359,-399.5 "/>
<text text-anchor="middle" x="320" y="-387.5" font-family="Helvetica,sans-Serif" font-size="10.00"> </text>
<polyline fill="none" stroke="black" points="281,-380.5 359,-380.5 "/>
<text text-anchor="start" x="289" y="-368.5" font-family="Helvetica,sans-Serif" font-size="10.00">+ clear()</text>
<text text-anchor="start" x="289" y="-357.5" font-family="Helvetica,sans-Serif" font-size="10.00">+ update()</text>
<text text-anchor="start" x="289" y="-346.5" font-family="Helvetica,sans-Serif" font-size="10.00"># NMLmsg()</text>
<text text-anchor="start" x="289" y="-335.5" font-family="Helvetica,sans-Serif" font-size="10.00"># NMLmsg()</text>
<text text-anchor="start" x="289" y="-324.5" font-family="Helvetica,sans-Serif" font-size="10.00"># NMLmsg()</text>
</a>
</g>
</g>
<!-- Node4&#45;&gt;Node3 -->
<g id="edge3" class="edge">
<title>Node4&#45;&gt;Node3</title>
<path fill="none" stroke="midnightblue" d="M273.31,-322.11C255.04,-304.54 234.67,-284.95 218.64,-269.54"/>
<polygon fill="none" stroke="midnightblue" points="271.36,-325.09 281,-329.5 276.21,-320.04 271.36,-325.09"/>
</g>
<!-- Node5 -->
<g id="node5" class="node">
<title>Node5</title>
<g id="a_node5"><a xlink:title=" ">
<polygon fill="white" stroke="black" points="122.5,-466.5 122.5,-523.5 151.5,-523.5 151.5,-466.5 122.5,-466.5"/>
<text text-anchor="middle" x="137" y="-511.5" font-family="Helvetica,sans-Serif" font-size="10.00">int</text>
<polyline fill="none" stroke="black" points="122.5,-504.5 151.5,-504.5 "/>
<text text-anchor="middle" x="137" y="-492.5" font-family="Helvetica,sans-Serif" font-size="10.00"> </text>
<polyline fill="none" stroke="black" points="122.5,-485.5 151.5,-485.5 "/>
<text text-anchor="middle" x="137" y="-473.5" font-family="Helvetica,sans-Serif" font-size="10.00"> </text>
</a>
</g>
</g>
<!-- Node5&#45;&gt;Node1 -->
<g id="edge9" class="edge">
<title>Node5&#45;&gt;Node1</title>
<path fill="none" stroke="#404040" d="M122.26,-485.81C93.14,-468.41 31,-424.77 31,-369 31,-369 31,-369 31,-139.5 31,-119.45 36.64,-98.21 43.25,-80.19"/>
<polygon fill="none" stroke="#404040" points="43.32,-80.02 41.78,-72.98 47.69,-68.85 49.23,-75.89 43.32,-80.02"/>
<text text-anchor="middle" x="54.5" y="-238.5" font-family="Helvetica,sans-Serif" font-size="10.00"> +spindle</text>
</g>
<!-- Node5&#45;&gt;Node2 -->
<g id="edge8" class="edge">
<title>Node5&#45;&gt;Node2</title>
<path fill="none" stroke="#404040" d="M133.25,-466.31C126.97,-415.7 115.86,-304.9 125,-212 125.81,-203.74 127.15,-195.01 128.68,-186.62"/>
<polygon fill="none" stroke="#404040" points="128.72,-186.43 125.95,-179.77 131.03,-174.65 133.8,-181.31 128.72,-186.43"/>
<text text-anchor="middle" x="145.5" y="-291" font-family="Helvetica,sans-Serif" font-size="10.00"> +spindle</text>
</g>
<!-- Node5&#45;&gt;Node3 -->
<g id="edge7" class="edge">
<title>Node5&#45;&gt;Node3</title>
<path fill="none" stroke="#404040" d="M142.87,-466.07C152.31,-421.2 170.88,-332.91 181.68,-281.57"/>
<polygon fill="none" stroke="#404040" points="181.71,-281.42 179.03,-274.72 184.18,-269.67 186.86,-276.37 181.71,-281.42"/>
<text text-anchor="middle" x="215" y="-365.5" font-family="Helvetica,sans-Serif" font-size="10.00"> +serial_number</text>
</g>
<!-- Node5&#45;&gt;Node4 -->
<g id="edge4" class="edge">
<title>Node5&#45;&gt;Node4</title>
<path fill="none" stroke="#404040" d="M151.64,-481.93C166.88,-469.71 191.73,-450.69 215,-437 231.45,-427.32 237.63,-428.82 254,-419 259.62,-415.63 265.34,-411.87 270.94,-407.97"/>
<polygon fill="none" stroke="#404040" points="271.09,-407.85 273.63,-401.1 280.83,-400.85 278.3,-407.6 271.09,-407.85"/>
<text text-anchor="middle" x="269.5" y="-440" font-family="Helvetica,sans-Serif" font-size="10.00"> +automatically_clear</text>
</g>
<!-- Node6 -->
<g id="node6" class="node">
<title>Node6</title>
<g id="a_node6"><a xlink:title=" ">
<polygon fill="white" stroke="black" points="308,-466.5 308,-523.5 358,-523.5 358,-466.5 308,-466.5"/>
<text text-anchor="middle" x="333" y="-511.5" font-family="Helvetica,sans-Serif" font-size="10.00">int32_t</text>
<polyline fill="none" stroke="black" points="308,-504.5 358,-504.5 "/>
<text text-anchor="middle" x="333" y="-492.5" font-family="Helvetica,sans-Serif" font-size="10.00"> </text>
<polyline fill="none" stroke="black" points="308,-485.5 358,-485.5 "/>
<text text-anchor="middle" x="333" y="-473.5" font-family="Helvetica,sans-Serif" font-size="10.00"> </text>
</a>
</g>
</g>
<!-- Node6&#45;&gt;Node4 -->
<g id="edge5" class="edge">
<title>Node6&#45;&gt;Node4</title>
<path fill="none" stroke="#404040" d="M330.11,-466.26C329.03,-455.79 327.74,-443.42 326.46,-431.07"/>
<polygon fill="none" stroke="#404040" points="326.42,-430.74 321.82,-425.18 325.18,-418.8 329.78,-424.36 326.42,-430.74"/>
<text text-anchor="middle" x="346" y="-440" font-family="Helvetica,sans-Serif" font-size="10.00"> +type</text>
</g>
<!-- Node7 -->
<g id="node7" class="node">
<title>Node7</title>
<g id="a_node7"><a xlink:title=" ">
<polygon fill="white" stroke="black" points="376,-466.5 376,-523.5 414,-523.5 414,-466.5 376,-466.5"/>
<text text-anchor="middle" x="395" y="-511.5" font-family="Helvetica,sans-Serif" font-size="10.00">long</text>
<polyline fill="none" stroke="black" points="376,-504.5 414,-504.5 "/>
<text text-anchor="middle" x="395" y="-492.5" font-family="Helvetica,sans-Serif" font-size="10.00"> </text>
<polyline fill="none" stroke="black" points="376,-485.5 414,-485.5 "/>
<text text-anchor="middle" x="395" y="-473.5" font-family="Helvetica,sans-Serif" font-size="10.00"> </text>
</a>
</g>
</g>
<!-- Node7&#45;&gt;Node4 -->
<g id="edge6" class="edge">
<title>Node7&#45;&gt;Node4</title>
<path fill="none" stroke="#404040" d="M382.42,-466.31C377.85,-456.86 372.47,-446.32 367,-437 365.44,-434.35 363.82,-431.66 362.14,-428.97"/>
<polygon fill="none" stroke="#404040" points="361.97,-428.7 355.37,-425.79 355.51,-418.58 362.11,-421.49 361.97,-428.7"/>
<text text-anchor="middle" x="388.5" y="-440" font-family="Helvetica,sans-Serif" font-size="10.00"> +size</text>
</g>
</g>
</svg>
