<?xml version="1.0" encoding="UTF-8" standalone="no"?>
<!DOCTYPE svg PUBLIC "-//W3C//DTD SVG 1.1//EN"
 "http://www.w3.org/Graphics/SVG/1.1/DTD/svg11.dtd">
<!-- Generated by graphviz version 2.43.0 (0)
 -->
<!-- Title: EMC_INIT Pages: 1 -->
<svg width="211pt" height="533pt"
 viewBox="0.00 0.00 210.50 533.00" xmlns="http://www.w3.org/2000/svg" xmlns:xlink="http://www.w3.org/1999/xlink">
<g id="graph0" class="graph" transform="scale(1 1) rotate(0) translate(4 529)">
<title>EMC_INIT</title>
<polygon fill="white" stroke="transparent" points="-4,4 -4,-529 206.5,-529 206.5,4 -4,4"/>
<!-- Node1 -->
<g id="node1" class="node">
<title>Node1</title>
<g id="a_node1"><a xlink:title=" ">
<polygon fill="#bfbfbf" stroke="black" points="15.5,-0.5 15.5,-68.5 97.5,-68.5 97.5,-0.5 15.5,-0.5"/>
<text text-anchor="middle" x="56.5" y="-56.5" font-family="Helvetica,sans-Serif" font-size="10.00">EMC_INIT</text>
<polyline fill="none" stroke="black" points="15.5,-49.5 97.5,-49.5 "/>
<text text-anchor="middle" x="56.5" y="-37.5" font-family="Helvetica,sans-Serif" font-size="10.00"> </text>
<polyline fill="none" stroke="black" points="15.5,-30.5 97.5,-30.5 "/>
<text text-anchor="start" x="23.5" y="-18.5" font-family="Helvetica,sans-Serif" font-size="10.00">+ EMC_INIT()</text>
<text text-anchor="start" x="23.5" y="-7.5" font-family="Helvetica,sans-Serif" font-size="10.00">+ update()</text>
</a>
</g>
</g>
<!-- Node2 -->
<g id="node2" class="node">
<title>Node2</title>
<g id="a_node2"><a xlink:href="classEMC__CMD__MSG.html" target="_top" xlink:title=" ">
<polygon fill="white" stroke="black" points="0,-106.5 0,-174.5 113,-174.5 113,-106.5 0,-106.5"/>
<text text-anchor="middle" x="56.5" y="-162.5" font-family="Helvetica,sans-Serif" font-size="10.00">EMC_CMD_MSG</text>
<polyline fill="none" stroke="black" points="0,-155.5 113,-155.5 "/>
<text text-anchor="middle" x="56.5" y="-143.5" font-family="Helvetica,sans-Serif" font-size="10.00"> </text>
<polyline fill="none" stroke="black" points="0,-136.5 113,-136.5 "/>
<text text-anchor="start" x="8" y="-124.5" font-family="Helvetica,sans-Serif" font-size="10.00">+ EMC_CMD_MSG()</text>
<text text-anchor="start" x="8" y="-113.5" font-family="Helvetica,sans-Serif" font-size="10.00">+ update()</text>
</a>
</g>
</g>
<!-- Node2&#45;&gt;Node1 -->
<g id="edge1" class="edge">
<title>Node2&#45;&gt;Node1</title>
<path fill="none" stroke="midnightblue" d="M56.5,-96.17C56.5,-87 56.5,-77.46 56.5,-68.73"/>
<polygon fill="none" stroke="midnightblue" points="53,-96.31 56.5,-106.31 60,-96.31 53,-96.31"/>
</g>
<!-- Node3 -->
<g id="node3" class="node">
<title>Node3</title>
<g id="a_node3"><a xlink:href="classRCS__CMD__MSG.html" target="_top" xlink:title=" ">
<polygon fill="white" stroke="black" points="1,-212.5 1,-269.5 112,-269.5 112,-212.5 1,-212.5"/>
<text text-anchor="middle" x="56.5" y="-257.5" font-family="Helvetica,sans-Serif" font-size="10.00">RCS_CMD_MSG</text>
<polyline fill="none" stroke="black" points="1,-250.5 112,-250.5 "/>
<text text-anchor="middle" x="56.5" y="-238.5" font-family="Helvetica,sans-Serif" font-size="10.00"> </text>
<polyline fill="none" stroke="black" points="1,-231.5 112,-231.5 "/>
<text text-anchor="start" x="9" y="-219.5" font-family="Helvetica,sans-Serif" font-size="10.00">+ RCS_CMD_MSG()</text>
</a>
</g>
</g>
<!-- Node3&#45;&gt;Node2 -->
<g id="edge2" class="edge">
<title>Node3&#45;&gt;Node2</title>
<path fill="none" stroke="midnightblue" d="M56.5,-202.01C56.5,-192.96 56.5,-183.38 56.5,-174.58"/>
<polygon fill="none" stroke="midnightblue" points="53,-202.3 56.5,-212.3 60,-202.3 53,-202.3"/>
</g>
<!-- Node4 -->
<g id="node4" class="node">
<title>Node4</title>
<g id="a_node4"><a xlink:href="classNMLmsg.html" target="_top" xlink:title=" ">
<polygon fill="white" stroke="black" points="115.5,-307.5 115.5,-408.5 193.5,-408.5 193.5,-307.5 115.5,-307.5"/>
<text text-anchor="middle" x="154.5" y="-396.5" font-family="Helvetica,sans-Serif" font-size="10.00">NMLmsg</text>
<polyline fill="none" stroke="black" points="115.5,-389.5 193.5,-389.5 "/>
<text text-anchor="middle" x="154.5" y="-377.5" font-family="Helvetica,sans-Serif" font-size="10.00"> </text>
<polyline fill="none" stroke="black" points="115.5,-370.5 193.5,-370.5 "/>
<text text-anchor="start" x="123.5" y="-358.5" font-family="Helvetica,sans-Serif" font-size="10.00">+ clear()</text>
<text text-anchor="start" x="123.5" y="-347.5" font-family="Helvetica,sans-Serif" font-size="10.00">+ update()</text>
<text text-anchor="start" x="123.5" y="-336.5" font-family="Helvetica,sans-Serif" font-size="10.00"># NMLmsg()</text>
<text text-anchor="start" x="123.5" y="-325.5" font-family="Helvetica,sans-Serif" font-size="10.00"># NMLmsg()</text>
<text text-anchor="start" x="123.5" y="-314.5" font-family="Helvetica,sans-Serif" font-size="10.00"># NMLmsg()</text>
</a>
</g>
</g>
<!-- Node4&#45;&gt;Node3 -->
<g id="edge3" class="edge">
<title>Node4&#45;&gt;Node3</title>
<path fill="none" stroke="midnightblue" d="M108.98,-303.58C99.01,-291.88 88.84,-279.95 80.14,-269.75"/>
<polygon fill="none" stroke="midnightblue" points="106.34,-305.88 115.49,-311.22 111.66,-301.34 106.34,-305.88"/>
</g>
<!-- Node5 -->
<g id="node5" class="node">
<title>Node5</title>
<g id="a_node5"><a xlink:title=" ">
<polygon fill="white" stroke="black" points="18,-467.5 18,-524.5 47,-524.5 47,-467.5 18,-467.5"/>
<text text-anchor="middle" x="32.5" y="-512.5" font-family="Helvetica,sans-Serif" font-size="10.00">int</text>
<polyline fill="none" stroke="black" points="18,-505.5 47,-505.5 "/>
<text text-anchor="middle" x="32.5" y="-493.5" font-family="Helvetica,sans-Serif" font-size="10.00"> </text>
<polyline fill="none" stroke="black" points="18,-486.5 47,-486.5 "/>
<text text-anchor="middle" x="32.5" y="-474.5" font-family="Helvetica,sans-Serif" font-size="10.00"> </text>
</a>
</g>
</g>
<!-- Node5&#45;&gt;Node3 -->
<g id="edge6" class="edge">
<title>Node5&#45;&gt;Node3</title>
<path fill="none" stroke="#404040" d="M26.77,-467.49C20.08,-430.47 11.5,-362.84 24.5,-307 26.56,-298.16 30,-289.13 33.88,-280.73"/>
<polygon fill="none" stroke="#404040" points="34.01,-280.48 33.1,-273.33 39.36,-269.74 40.26,-276.89 34.01,-280.48"/>
<text text-anchor="middle" x="65.5" y="-355.5" font-family="Helvetica,sans-Serif" font-size="10.00"> +serial_number</text>
</g>
<!-- Node5&#45;&gt;Node4 -->
<g id="edge4" class="edge">
<title>Node5&#45;&gt;Node4</title>
<path fill="none" stroke="#404040" d="M35.78,-467.3C38.69,-453.68 44.17,-437.89 54.5,-427 69.89,-410.77 82.56,-420.9 101.5,-409 102.83,-408.17 104.15,-407.3 105.46,-406.4"/>
<polygon fill="none" stroke="#404040" points="105.75,-406.18 108.15,-399.38 115.35,-398.98 112.95,-405.78 105.75,-406.18"/>
<text text-anchor="middle" x="109" y="-441" font-family="Helvetica,sans-Serif" font-size="10.00"> +automatically_clear</text>
<text text-anchor="middle" x="109" y="-430" font-family="Helvetica,sans-Serif" font-size="10.00">+type</text>
</g>
<!-- Node6 -->
<g id="node6" class="node">
<title>Node6</title>
<g id="a_node6"><a xlink:title=" ">
<polygon fill="white" stroke="black" points="161.5,-467.5 161.5,-524.5 199.5,-524.5 199.5,-467.5 161.5,-467.5"/>
<text text-anchor="middle" x="180.5" y="-512.5" font-family="Helvetica,sans-Serif" font-size="10.00">long</text>
<polyline fill="none" stroke="black" points="161.5,-505.5 199.5,-505.5 "/>
<text text-anchor="middle" x="180.5" y="-493.5" font-family="Helvetica,sans-Serif" font-size="10.00"> </text>
<polyline fill="none" stroke="black" points="161.5,-486.5 199.5,-486.5 "/>
<text text-anchor="middle" x="180.5" y="-474.5" font-family="Helvetica,sans-Serif" font-size="10.00"> </text>
</a>
</g>
</g>
<!-- Node6&#45;&gt;Node4 -->
<g id="edge5" class="edge">
<title>Node6&#45;&gt;Node4</title>
<path fill="none" stroke="#404040" d="M175.24,-467.48C172.65,-453.93 169.41,-437 166.27,-420.58"/>
<polygon fill="none" stroke="#404040" points="166.27,-420.55 161.21,-415.41 164.01,-408.76 169.07,-413.91 166.27,-420.55"/>
<text text-anchor="middle" x="187" y="-435.5" font-family="Helvetica,sans-Serif" font-size="10.00"> +size</text>
</g>
</g>
</svg>
