<?xml version="1.0" encoding="UTF-8" standalone="no"?>
<!DOCTYPE svg PUBLIC "-//W3C//DTD SVG 1.1//EN"
 "http://www.w3.org/Graphics/SVG/1.1/DTD/svg11.dtd">
<!-- Generated by graphviz version 2.43.0 (0)
 -->
<!-- Title: EMC_LUBE_CMD_MSG Pages: 1 -->
<svg width="248pt" height="436pt"
 viewBox="0.00 0.00 247.50 436.00" xmlns="http://www.w3.org/2000/svg" xmlns:xlink="http://www.w3.org/1999/xlink">
<g id="graph0" class="graph" transform="scale(1 1) rotate(0) translate(4 432)">
<title>EMC_LUBE_CMD_MSG</title>
<polygon fill="white" stroke="transparent" points="-4,4 -4,-432 243.5,-432 243.5,4 -4,4"/>
<!-- Node1 -->
<g id="node1" class="node">
<title>Node1</title>
<g id="a_node1"><a xlink:title=" ">
<polygon fill="#bfbfbf" stroke="black" points="48.5,-105.5 48.5,-173.5 192.5,-173.5 192.5,-105.5 48.5,-105.5"/>
<text text-anchor="middle" x="120.5" y="-161.5" font-family="Helvetica,sans-Serif" font-size="10.00">EMC_LUBE_CMD_MSG</text>
<polyline fill="none" stroke="black" points="48.5,-154.5 192.5,-154.5 "/>
<text text-anchor="middle" x="120.5" y="-142.5" font-family="Helvetica,sans-Serif" font-size="10.00"> </text>
<polyline fill="none" stroke="black" points="48.5,-135.5 192.5,-135.5 "/>
<text text-anchor="start" x="56.5" y="-123.5" font-family="Helvetica,sans-Serif" font-size="10.00">+ EMC_LUBE_CMD_MSG()</text>
<text text-anchor="start" x="56.5" y="-112.5" font-family="Helvetica,sans-Serif" font-size="10.00">+ update()</text>
</a>
</g>
</g>
<!-- Node4 -->
<g id="node4" class="node">
<title>Node4</title>
<g id="a_node4"><a xlink:href="classEMC__LUBE__OFF.html" target="_top" xlink:title=" ">
<polygon fill="white" stroke="black" points="0,-0.5 0,-68.5 113,-68.5 113,-0.5 0,-0.5"/>
<text text-anchor="middle" x="56.5" y="-56.5" font-family="Helvetica,sans-Serif" font-size="10.00">EMC_LUBE_OFF</text>
<polyline fill="none" stroke="black" points="0,-49.5 113,-49.5 "/>
<text text-anchor="middle" x="56.5" y="-37.5" font-family="Helvetica,sans-Serif" font-size="10.00"> </text>
<polyline fill="none" stroke="black" points="0,-30.5 113,-30.5 "/>
<text text-anchor="start" x="8" y="-18.5" font-family="Helvetica,sans-Serif" font-size="10.00">+ EMC_LUBE_OFF()</text>
<text text-anchor="start" x="8" y="-7.5" font-family="Helvetica,sans-Serif" font-size="10.00">+ update()</text>
</a>
</g>
</g>
<!-- Node1&#45;&gt;Node4 -->
<g id="edge3" class="edge">
<title>Node1&#45;&gt;Node4</title>
<path fill="none" stroke="midnightblue" d="M94.45,-96.58C88.66,-87.26 82.6,-77.5 77.06,-68.59"/>
<polygon fill="none" stroke="midnightblue" points="91.65,-98.7 99.9,-105.34 97.59,-95 91.65,-98.7"/>
</g>
<!-- Node5 -->
<g id="node5" class="node">
<title>Node5</title>
<g id="a_node5"><a xlink:href="classEMC__LUBE__ON.html" target="_top" xlink:title=" ">
<polygon fill="white" stroke="black" points="131.5,-0.5 131.5,-68.5 239.5,-68.5 239.5,-0.5 131.5,-0.5"/>
<text text-anchor="middle" x="185.5" y="-56.5" font-family="Helvetica,sans-Serif" font-size="10.00">EMC_LUBE_ON</text>
<polyline fill="none" stroke="black" points="131.5,-49.5 239.5,-49.5 "/>
<text text-anchor="middle" x="185.5" y="-37.5" font-family="Helvetica,sans-Serif" font-size="10.00"> </text>
<polyline fill="none" stroke="black" points="131.5,-30.5 239.5,-30.5 "/>
<text text-anchor="start" x="139.5" y="-18.5" font-family="Helvetica,sans-Serif" font-size="10.00">+ EMC_LUBE_ON()</text>
<text text-anchor="start" x="139.5" y="-7.5" font-family="Helvetica,sans-Serif" font-size="10.00">+ update()</text>
</a>
</g>
</g>
<!-- Node1&#45;&gt;Node5 -->
<g id="edge4" class="edge">
<title>Node1&#45;&gt;Node5</title>
<path fill="none" stroke="midnightblue" d="M146.77,-96.87C152.71,-87.46 158.93,-77.6 164.62,-68.59"/>
<polygon fill="none" stroke="midnightblue" points="143.8,-95.02 141.42,-105.34 149.72,-98.75 143.8,-95.02"/>
</g>
<!-- Node2 -->
<g id="node2" class="node">
<title>Node2</title>
<g id="a_node2"><a xlink:href="classRCS__CMD__MSG.html" target="_top" xlink:title=" ">
<polygon fill="white" stroke="black" points="65,-210.5 65,-267.5 176,-267.5 176,-210.5 65,-210.5"/>
<text text-anchor="middle" x="120.5" y="-255.5" font-family="Helvetica,sans-Serif" font-size="10.00">RCS_CMD_MSG</text>
<polyline fill="none" stroke="black" points="65,-248.5 176,-248.5 "/>
<text text-anchor="start" x="73" y="-236.5" font-family="Helvetica,sans-Serif" font-size="10.00">+ serial_number</text>
<polyline fill="none" stroke="black" points="65,-229.5 176,-229.5 "/>
<text text-anchor="start" x="73" y="-217.5" font-family="Helvetica,sans-Serif" font-size="10.00">+ RCS_CMD_MSG()</text>
</a>
</g>
</g>
<!-- Node2&#45;&gt;Node1 -->
<g id="edge1" class="edge">
<title>Node2&#45;&gt;Node1</title>
<path fill="none" stroke="midnightblue" d="M120.5,-200.06C120.5,-191.39 120.5,-182.24 120.5,-173.79"/>
<polygon fill="none" stroke="midnightblue" points="117,-200.32 120.5,-210.32 124,-200.32 117,-200.32"/>
</g>
<!-- Node3 -->
<g id="node3" class="node">
<title>Node3</title>
<g id="a_node3"><a xlink:href="classNMLmsg.html" target="_top" xlink:title=" ">
<polygon fill="white" stroke="black" points="58,-304.5 58,-427.5 183,-427.5 183,-304.5 58,-304.5"/>
<text text-anchor="middle" x="120.5" y="-415.5" font-family="Helvetica,sans-Serif" font-size="10.00">NMLmsg</text>
<polyline fill="none" stroke="black" points="58,-408.5 183,-408.5 "/>
<text text-anchor="start" x="66" y="-396.5" font-family="Helvetica,sans-Serif" font-size="10.00">+ type</text>
<text text-anchor="start" x="66" y="-385.5" font-family="Helvetica,sans-Serif" font-size="10.00">+ size</text>
<text text-anchor="start" x="66" y="-374.5" font-family="Helvetica,sans-Serif" font-size="10.00">+ automatically_clear</text>
<polyline fill="none" stroke="black" points="58,-367.5 183,-367.5 "/>
<text text-anchor="start" x="66" y="-355.5" font-family="Helvetica,sans-Serif" font-size="10.00">+ clear()</text>
<text text-anchor="start" x="66" y="-344.5" font-family="Helvetica,sans-Serif" font-size="10.00">+ update()</text>
<text text-anchor="start" x="66" y="-333.5" font-family="Helvetica,sans-Serif" font-size="10.00"># NMLmsg()</text>
<text text-anchor="start" x="66" y="-322.5" font-family="Helvetica,sans-Serif" font-size="10.00"># NMLmsg()</text>
<text text-anchor="start" x="66" y="-311.5" font-family="Helvetica,sans-Serif" font-size="10.00"># NMLmsg()</text>
</a>
</g>
</g>
<!-- Node3&#45;&gt;Node2 -->
<g id="edge2" class="edge">
<title>Node3&#45;&gt;Node2</title>
<path fill="none" stroke="midnightblue" d="M120.5,-294.14C120.5,-284.8 120.5,-275.71 120.5,-267.74"/>
<polygon fill="none" stroke="midnightblue" points="117,-294.33 120.5,-304.33 124,-294.33 117,-294.33"/>
</g>
</g>
</svg>
