<?xml version="1.0" encoding="UTF-8" standalone="no"?>
<!DOCTYPE svg PUBLIC "-//W3C//DTD SVG 1.1//EN"
 "http://www.w3.org/Graphics/SVG/1.1/DTD/svg11.dtd">
<!-- Generated by graphviz version 2.43.0 (0)
 -->
<!-- Title: EMC_TRAJ_CLEAR_PROBE_TRIPPED_FLAG Pages: 1 -->
<!--zoomable 597 -->
<svg id="main" version="1.1" xmlns="http://www.w3.org/2000/svg" xmlns:xlink="http://www.w3.org/1999/xlink" xml:space="preserve" onload="init(evt)">
<style type="text/css"><![CDATA[
.edge:hover path { stroke: red; }
.edge:hover polygon { stroke: red; fill: red; }
]]></style>
<script type="text/javascript"><![CDATA[
var edges = document.getElementsByTagName('g');
if (edges && edges.length) {
  for (var i=0;i<edges.length;i++) {
    if (edges[i].id.substr(0,4)=='edge') {
      edges[i].setAttribute('class','edge');
    }
  }
}
]]></script>
        <defs>
                <circle id="rim" cx="0" cy="0" r="7"/>
                <circle id="rim2" cx="0" cy="0" r="3.5"/>
                <g id="zoomPlus">
                        <use xlink:href="#rim" fill="#404040">
                                <set attributeName="fill" to="#808080" begin="zoomplus.mouseover" end="zoomplus.mouseout"/>
                        </use>
                        <path d="M-4,0h8M0,-4v8" fill="none" stroke="white" stroke-width="1.5" pointer-events="none"/>
                </g>
                <g id="zoomMin">
                        <use xlink:href="#rim" fill="#404040">
                                <set attributeName="fill" to="#808080" begin="zoomminus.mouseover" end="zoomminus.mouseout"/>
                        </use>
                        <path d="M-4,0h8" fill="none" stroke="white" stroke-width="1.5" pointer-events="none"/>
                </g>
                <g id="dirArrow">
                        <path fill="none" stroke="white" stroke-width="1.5" d="M0,-3.0v7 M-2.5,-0.5L0,-3.0L2.5,-0.5"/>
                </g>
               <g id="resetDef">
                       <use xlink:href="#rim2" fill="#404040">
                               <set attributeName="fill" to="#808080" begin="reset.mouseover" end="reset.mouseout"/>
                       </use>
               </g>
        </defs>

<script type="text/javascript">
var viewWidth = 545;
var viewHeight = 597;
var sectionId = 'dynsection-1';
</script>
<script xlink:href="svgpan.js"/>
<svg id="graph" class="graph">
<g id="viewport">
<title>EMC_TRAJ_CLEAR_PROBE_TRIPPED_FLAG</title>
<polygon fill="white" stroke="transparent" points="-4,4 -4,-593 541,-593 541,4 -4,4"/>
<!-- Node1 -->
<g id="node1" class="node">
<title>Node1</title>
<g id="a_node1"><a xlink:title=" ">
<polygon fill="#bfbfbf" stroke="black" points="256,-0.5 256,-90.5 408,-90.5 408,-0.5 256,-0.5"/>
<text text-anchor="start" x="264" y="-78.5" font-family="Helvetica,sans-Serif" font-size="10.00">EMC_TRAJ_CLEAR_PROBE</text>
<text text-anchor="middle" x="332" y="-67.5" font-family="Helvetica,sans-Serif" font-size="10.00">_TRIPPED_FLAG</text>
<polyline fill="none" stroke="black" points="256,-60.5 408,-60.5 "/>
<text text-anchor="middle" x="332" y="-48.5" font-family="Helvetica,sans-Serif" font-size="10.00"> </text>
<polyline fill="none" stroke="black" points="256,-41.5 408,-41.5 "/>
<text text-anchor="start" x="264" y="-29.5" font-family="Helvetica,sans-Serif" font-size="10.00">+ EMC_TRAJ_CLEAR_PROBE</text>
<text text-anchor="start" x="264" y="-18.5" font-family="Helvetica,sans-Serif" font-size="10.00">_TRIPPED_FLAG()</text>
<text text-anchor="start" x="264" y="-7.5" font-family="Helvetica,sans-Serif" font-size="10.00">+ update()</text>
</a>
</g>
</g>
<!-- Node2 -->
<g id="node2" class="node">
<title>Node2</title>
<g id="a_node2"><a xlink:href="classEMC__TRAJ__CMD__MSG.html" target="_top" xlink:title=" ">
<polygon fill="white" stroke="black" points="261.5,-128.5 261.5,-196.5 402.5,-196.5 402.5,-128.5 261.5,-128.5"/>
<text text-anchor="middle" x="332" y="-184.5" font-family="Helvetica,sans-Serif" font-size="10.00">EMC_TRAJ_CMD_MSG</text>
<polyline fill="none" stroke="black" points="261.5,-177.5 402.5,-177.5 "/>
<text text-anchor="middle" x="332" y="-165.5" font-family="Helvetica,sans-Serif" font-size="10.00"> </text>
<polyline fill="none" stroke="black" points="261.5,-158.5 402.5,-158.5 "/>
<text text-anchor="start" x="269.5" y="-146.5" font-family="Helvetica,sans-Serif" font-size="10.00">+ EMC_TRAJ_CMD_MSG()</text>
<text text-anchor="start" x="269.5" y="-135.5" font-family="Helvetica,sans-Serif" font-size="10.00">+ update()</text>
</a>
</g>
</g>
<!-- Node2&#45;&gt;Node1 -->
<g id="edge1" class="edge">
<title>Node2&#45;&gt;Node1</title>
<path fill="none" stroke="midnightblue" d="M332,-118.05C332,-109.15 332,-99.76 332,-90.82"/>
<polygon fill="none" stroke="midnightblue" points="328.5,-118.24 332,-128.24 335.5,-118.24 328.5,-118.24"/>
</g>
<!-- Node3 -->
<g id="node3" class="node">
<title>Node3</title>
<g id="a_node3"><a xlink:href="classRCS__CMD__MSG.html" target="_top" xlink:title=" ">
<polygon fill="white" stroke="black" points="209.5,-261 209.5,-318 320.5,-318 320.5,-261 209.5,-261"/>
<text text-anchor="middle" x="265" y="-306" font-family="Helvetica,sans-Serif" font-size="10.00">RCS_CMD_MSG</text>
<polyline fill="none" stroke="black" points="209.5,-299 320.5,-299 "/>
<text text-anchor="middle" x="265" y="-287" font-family="Helvetica,sans-Serif" font-size="10.00"> </text>
<polyline fill="none" stroke="black" points="209.5,-280 320.5,-280 "/>
<text text-anchor="start" x="217.5" y="-268" font-family="Helvetica,sans-Serif" font-size="10.00">+ RCS_CMD_MSG()</text>
</a>
</g>
</g>
<!-- Node3&#45;&gt;Node2 -->
<g id="edge2" class="edge">
<title>Node3&#45;&gt;Node2</title>
<path fill="none" stroke="midnightblue" d="M284.82,-251.52C294.1,-234.22 305.05,-213.77 314.08,-196.94"/>
<polygon fill="none" stroke="midnightblue" points="281.51,-250.29 279.87,-260.76 287.68,-253.6 281.51,-250.29"/>
</g>
<!-- Node4 -->
<g id="node4" class="node">
<title>Node4</title>
<g id="a_node4"><a xlink:href="classNMLmsg.html" target="_top" xlink:title=" ">
<polygon fill="white" stroke="black" points="75,-382.5 75,-483.5 153,-483.5 153,-382.5 75,-382.5"/>
<text text-anchor="middle" x="114" y="-471.5" font-family="Helvetica,sans-Serif" font-size="10.00">NMLmsg</text>
<polyline fill="none" stroke="black" points="75,-464.5 153,-464.5 "/>
<text text-anchor="middle" x="114" y="-452.5" font-family="Helvetica,sans-Serif" font-size="10.00"> </text>
<polyline fill="none" stroke="black" points="75,-445.5 153,-445.5 "/>
<text text-anchor="start" x="83" y="-433.5" font-family="Helvetica,sans-Serif" font-size="10.00">+ clear()</text>
<text text-anchor="start" x="83" y="-422.5" font-family="Helvetica,sans-Serif" font-size="10.00">+ update()</text>
<text text-anchor="start" x="83" y="-411.5" font-family="Helvetica,sans-Serif" font-size="10.00"># NMLmsg()</text>
<text text-anchor="start" x="83" y="-400.5" font-family="Helvetica,sans-Serif" font-size="10.00"># NMLmsg()</text>
<text text-anchor="start" x="83" y="-389.5" font-family="Helvetica,sans-Serif" font-size="10.00"># NMLmsg()</text>
</a>
</g>
</g>
<!-- Node4&#45;&gt;Node3 -->
<g id="edge3" class="edge">
<title>Node4&#45;&gt;Node3</title>
<path fill="none" stroke="midnightblue" d="M160.68,-388.25C185.08,-365.39 214.19,-338.11 235.46,-318.18"/>
<polygon fill="none" stroke="midnightblue" points="158.18,-385.8 153.28,-395.19 162.97,-390.91 158.18,-385.8"/>
</g>
<!-- Node5 -->
<g id="node5" class="node">
<title>Node5</title>
<g id="a_node5"><a xlink:title=" ">
<polygon fill="white" stroke="black" points="250.5,-531.5 250.5,-588.5 279.5,-588.5 279.5,-531.5 250.5,-531.5"/>
<text text-anchor="middle" x="265" y="-576.5" font-family="Helvetica,sans-Serif" font-size="10.00">int</text>
<polyline fill="none" stroke="black" points="250.5,-569.5 279.5,-569.5 "/>
<text text-anchor="middle" x="265" y="-557.5" font-family="Helvetica,sans-Serif" font-size="10.00"> </text>
<polyline fill="none" stroke="black" points="250.5,-550.5 279.5,-550.5 "/>
<text text-anchor="middle" x="265" y="-538.5" font-family="Helvetica,sans-Serif" font-size="10.00"> </text>
</a>
</g>
</g>
<!-- Node5&#45;&gt;Node3 -->
<g id="edge7" class="edge">
<title>Node5&#45;&gt;Node3</title>
<path fill="none" stroke="#404040" d="M265,-531.28C265,-483.42 265,-385.16 265,-330.11"/>
<polygon fill="none" stroke="#404040" points="265,-330.07 261,-324.07 265,-318.07 269,-324.07 265,-330.07"/>
<text text-anchor="middle" x="306" y="-430.5" font-family="Helvetica,sans-Serif" font-size="10.00"> +serial_number</text>
</g>
<!-- Node5&#45;&gt;Node4 -->
<g id="edge4" class="edge">
<title>Node5&#45;&gt;Node4</title>
<path fill="none" stroke="#404040" d="M250.34,-557.51C224.85,-554.16 172.2,-543.73 142,-513 136.9,-507.81 132.73,-501.64 129.31,-495.07"/>
<polygon fill="none" stroke="#404040" points="129.14,-494.68 123.04,-490.84 124.25,-483.73 130.35,-487.57 129.14,-494.68"/>
<text text-anchor="middle" x="196.5" y="-505" font-family="Helvetica,sans-Serif" font-size="10.00"> +automatically_clear</text>
</g>
<!-- Node9 -->
<g id="node9" class="node">
<title>Node9</title>
<g id="a_node9"><a xlink:href="structstate__tag__t.html" target="_top" xlink:title=" ">
<polygon fill="white" stroke="black" points="365.5,-404.5 365.5,-461.5 436.5,-461.5 436.5,-404.5 365.5,-404.5"/>
<text text-anchor="middle" x="401" y="-449.5" font-family="Helvetica,sans-Serif" font-size="10.00">state_tag_t</text>
<polyline fill="none" stroke="black" points="365.5,-442.5 436.5,-442.5 "/>
<text text-anchor="middle" x="401" y="-430.5" font-family="Helvetica,sans-Serif" font-size="10.00"> </text>
<polyline fill="none" stroke="black" points="365.5,-423.5 436.5,-423.5 "/>
<text text-anchor="middle" x="401" y="-411.5" font-family="Helvetica,sans-Serif" font-size="10.00"> </text>
</a>
</g>
</g>
<!-- Node5&#45;&gt;Node9 -->
<g id="edge11" class="edge">
<title>Node5&#45;&gt;Node9</title>
<path fill="none" stroke="#404040" d="M279.57,-546.82C296.89,-532.22 326.53,-506.85 351,-484 355.77,-479.55 360.71,-474.79 365.55,-470.05"/>
<polygon fill="none" stroke="#404040" points="365.56,-470.03 367.01,-462.97 374.08,-461.59 372.64,-468.65 365.56,-470.03"/>
<text text-anchor="middle" x="349" y="-505" font-family="Helvetica,sans-Serif" font-size="10.00"> +fields</text>
</g>
<!-- Node6 -->
<g id="node6" class="node">
<title>Node6</title>
<g id="a_node6"><a xlink:title=" ">
<polygon fill="white" stroke="black" points="0,-531.5 0,-588.5 50,-588.5 50,-531.5 0,-531.5"/>
<text text-anchor="middle" x="25" y="-576.5" font-family="Helvetica,sans-Serif" font-size="10.00">int32_t</text>
<polyline fill="none" stroke="black" points="0,-569.5 50,-569.5 "/>
<text text-anchor="middle" x="25" y="-557.5" font-family="Helvetica,sans-Serif" font-size="10.00"> </text>
<polyline fill="none" stroke="black" points="0,-550.5 50,-550.5 "/>
<text text-anchor="middle" x="25" y="-538.5" font-family="Helvetica,sans-Serif" font-size="10.00"> </text>
</a>
</g>
</g>
<!-- Node6&#45;&gt;Node4 -->
<g id="edge5" class="edge">
<title>Node6&#45;&gt;Node4</title>
<path fill="none" stroke="#404040" d="M33.73,-531.26C37.4,-521.6 42.18,-510.94 48,-502 53.3,-493.86 59.67,-485.85 66.33,-478.35"/>
<polygon fill="none" stroke="#404040" points="66.7,-477.95 67.85,-470.83 74.86,-469.16 73.71,-476.27 66.7,-477.95"/>
<text text-anchor="middle" x="65" y="-505" font-family="Helvetica,sans-Serif" font-size="10.00"> +type</text>
</g>
<!-- Node7 -->
<g id="node7" class="node">
<title>Node7</title>
<g id="a_node7"><a xlink:title=" ">
<polygon fill="white" stroke="black" points="68,-531.5 68,-588.5 106,-588.5 106,-531.5 68,-531.5"/>
<text text-anchor="middle" x="87" y="-576.5" font-family="Helvetica,sans-Serif" font-size="10.00">long</text>
<polyline fill="none" stroke="black" points="68,-569.5 106,-569.5 "/>
<text text-anchor="middle" x="87" y="-557.5" font-family="Helvetica,sans-Serif" font-size="10.00"> </text>
<polyline fill="none" stroke="black" points="68,-550.5 106,-550.5 "/>
<text text-anchor="middle" x="87" y="-538.5" font-family="Helvetica,sans-Serif" font-size="10.00"> </text>
</a>
</g>
</g>
<!-- Node7&#45;&gt;Node4 -->
<g id="edge6" class="edge">
<title>Node7&#45;&gt;Node4</title>
<path fill="none" stroke="#404040" d="M85.56,-531.26C85.59,-521.89 86.17,-511.43 88,-502 88.44,-499.72 88.95,-497.42 89.52,-495.11"/>
<polygon fill="none" stroke="#404040" points="89.53,-495.1 87.32,-488.23 92.8,-483.55 95.01,-490.42 89.53,-495.1"/>
<text text-anchor="middle" x="103.5" y="-505" font-family="Helvetica,sans-Serif" font-size="10.00"> +size</text>
</g>
<!-- Node8 -->
<g id="node8" class="node">
<title>Node8</title>
<g id="a_node8"><a xlink:href="structStateTag.html" target="_top" xlink:title=" ">
<polygon fill="white" stroke="black" points="350,-244.5 350,-334.5 452,-334.5 452,-244.5 350,-244.5"/>
<text text-anchor="middle" x="401" y="-322.5" font-family="Helvetica,sans-Serif" font-size="10.00">StateTag</text>
<polyline fill="none" stroke="black" points="350,-315.5 452,-315.5 "/>
<text text-anchor="middle" x="401" y="-303.5" font-family="Helvetica,sans-Serif" font-size="10.00"> </text>
<polyline fill="none" stroke="black" points="350,-296.5 452,-296.5 "/>
<text text-anchor="start" x="358" y="-284.5" font-family="Helvetica,sans-Serif" font-size="10.00">+ StateTag()</text>
<text text-anchor="start" x="358" y="-273.5" font-family="Helvetica,sans-Serif" font-size="10.00">+ StateTag()</text>
<text text-anchor="start" x="358" y="-262.5" font-family="Helvetica,sans-Serif" font-size="10.00">+ is_valid()</text>
<text text-anchor="start" x="358" y="-251.5" font-family="Helvetica,sans-Serif" font-size="10.00">+ get_state_tag()</text>
</a>
</g>
</g>
<!-- Node8&#45;&gt;Node2 -->
<g id="edge8" class="edge">
<title>Node8&#45;&gt;Node2</title>
<path fill="none" stroke="#404040" d="M376.67,-244.43C370.02,-232.38 362.81,-219.32 356.17,-207.28"/>
<polygon fill="none" stroke="#404040" points="356.05,-207.07 349.65,-203.75 350.25,-196.57 356.65,-199.89 356.05,-207.07"/>
<text text-anchor="middle" x="380" y="-218" font-family="Helvetica,sans-Serif" font-size="10.00"> +tag</text>
</g>
<!-- Node9&#45;&gt;Node8 -->
<g id="edge9" class="edge">
<title>Node9&#45;&gt;Node8</title>
<path fill="none" stroke="midnightblue" d="M401,-394.36C401,-376.04 401,-353.89 401,-334.75"/>
<polygon fill="none" stroke="midnightblue" points="397.5,-394.38 401,-404.38 404.5,-394.38 397.5,-394.38"/>
</g>
<!-- Node10 -->
<g id="node10" class="node">
<title>Node10</title>
<g id="a_node10"><a xlink:title=" ">
<polygon fill="white" stroke="black" points="372,-531.5 372,-588.5 410,-588.5 410,-531.5 372,-531.5"/>
<text text-anchor="middle" x="391" y="-576.5" font-family="Helvetica,sans-Serif" font-size="10.00">float</text>
<polyline fill="none" stroke="black" points="372,-569.5 410,-569.5 "/>
<text text-anchor="middle" x="391" y="-557.5" font-family="Helvetica,sans-Serif" font-size="10.00"> </text>
<polyline fill="none" stroke="black" points="372,-550.5 410,-550.5 "/>
<text text-anchor="middle" x="391" y="-538.5" font-family="Helvetica,sans-Serif" font-size="10.00"> </text>
</a>
</g>
</g>
<!-- Node10&#45;&gt;Node9 -->
<g id="edge10" class="edge">
<title>Node10&#45;&gt;Node9</title>
<path fill="none" stroke="#404040" d="M390.85,-531.43C390.97,-522.08 391.28,-511.57 392,-502 392.68,-492.86 393.77,-483.06 394.95,-473.83"/>
<polygon fill="none" stroke="#404040" points="394.99,-473.61 391.83,-467.12 396.6,-461.72 399.76,-468.2 394.99,-473.61"/>
<text text-anchor="middle" x="424.5" y="-505" font-family="Helvetica,sans-Serif" font-size="10.00"> +fields_float</text>
</g>
<!-- Node11 -->
<g id="node11" class="node">
<title>Node11</title>
<g id="a_node11"><a xlink:title=" ">
<polygon fill="white" stroke="black" points="448.5,-531.5 448.5,-588.5 509.5,-588.5 509.5,-531.5 448.5,-531.5"/>
<text text-anchor="middle" x="479" y="-576.5" font-family="Helvetica,sans-Serif" font-size="10.00">unsigned</text>
<polyline fill="none" stroke="black" points="448.5,-569.5 509.5,-569.5 "/>
<text text-anchor="middle" x="479" y="-557.5" font-family="Helvetica,sans-Serif" font-size="10.00"> </text>
<polyline fill="none" stroke="black" points="448.5,-550.5 509.5,-550.5 "/>
<text text-anchor="middle" x="479" y="-538.5" font-family="Helvetica,sans-Serif" font-size="10.00"> </text>
</a>
</g>
</g>
<!-- Node11&#45;&gt;Node9 -->
<g id="edge12" class="edge">
<title>Node11&#45;&gt;Node9</title>
<path fill="none" stroke="#404040" d="M470.3,-531.21C466.79,-521.65 462.3,-511.07 457,-502 450.75,-491.3 442.85,-480.57 434.97,-470.89"/>
<polygon fill="none" stroke="#404040" points="434.88,-470.79 427.96,-468.77 427.16,-461.6 434.08,-463.62 434.88,-470.79"/>
<text text-anchor="middle" x="499.5" y="-505" font-family="Helvetica,sans-Serif" font-size="10.00"> +packed_flags</text>
</g>
<!-- Node12 -->
<g id="node12" class="node">
<title>Node12</title>
<g id="a_node12"><a xlink:title=" ">
<polygon fill="white" stroke="black" points="454.5,-404.5 454.5,-461.5 533.5,-461.5 533.5,-404.5 454.5,-404.5"/>
<text text-anchor="middle" x="494" y="-449.5" font-family="Helvetica,sans-Serif" font-size="10.00">bitset&lt; 64 &gt;</text>
<polyline fill="none" stroke="black" points="454.5,-442.5 533.5,-442.5 "/>
<text text-anchor="middle" x="494" y="-430.5" font-family="Helvetica,sans-Serif" font-size="10.00"> </text>
<polyline fill="none" stroke="black" points="454.5,-423.5 533.5,-423.5 "/>
<text text-anchor="middle" x="494" y="-411.5" font-family="Helvetica,sans-Serif" font-size="10.00"> </text>
</a>
</g>
</g>
<!-- Node12&#45;&gt;Node8 -->
<g id="edge13" class="edge">
<title>Node12&#45;&gt;Node8</title>
<path fill="none" stroke="#404040" d="M475.85,-404.38C464.72,-387.46 450.1,-365.2 436.73,-344.86"/>
<polygon fill="none" stroke="#404040" points="436.68,-344.78 430.04,-341.97 430.09,-334.75 436.72,-337.57 436.68,-344.78"/>
<text text-anchor="middle" x="464.5" y="-356" font-family="Helvetica,sans-Serif" font-size="10.00"> +flags</text>
</g>
</g>
</svg>
        <g id="navigator" transform="translate(0 0)" fill="#404254">
                <rect fill="#f2f5e9" fill-opacity="0.5" stroke="#606060" stroke-width=".5" x="0" y="0" width="60" height="60"/>
                <use id="zoomplus" xlink:href="#zoomPlus" x="17" y="9" onmousedown="handleZoom(evt,'in')"/>
                <use id="zoomminus" xlink:href="#zoomMin" x="42" y="9" onmousedown="handleZoom(evt,'out')"/>
                <use id="reset" xlink:href="#resetDef" x="30" y="36" onmousedown="handleReset()"/>
                <g id="arrowUp" xlink:href="#dirArrow" transform="translate(30 24)" onmousedown="handlePan(0,-1)">
                  <use xlink:href="#rim" fill="#404040">
                        <set attributeName="fill" to="#808080" begin="arrowUp.mouseover" end="arrowUp.mouseout"/>
                  </use>
                  <path fill="none" stroke="white" stroke-width="1.5" d="M0,-3.0v7 M-2.5,-0.5L0,-3.0L2.5,-0.5"/>
                </g>
                <g id="arrowRight" xlink:href="#dirArrow" transform="rotate(90) translate(36 -43)" onmousedown="handlePan(1,0)">
                  <use xlink:href="#rim" fill="#404040">
                        <set attributeName="fill" to="#808080" begin="arrowRight.mouseover" end="arrowRight.mouseout"/>
                  </use>
                  <path fill="none" stroke="white" stroke-width="1.5" d="M0,-3.0v7 M-2.5,-0.5L0,-3.0L2.5,-0.5"/>
                </g>
                <g id="arrowDown" xlink:href="#dirArrow" transform="rotate(180) translate(-30 -48)" onmousedown="handlePan(0,1)">
                  <use xlink:href="#rim" fill="#404040">
                        <set attributeName="fill" to="#808080" begin="arrowDown.mouseover" end="arrowDown.mouseout"/>
                  </use>
                  <path fill="none" stroke="white" stroke-width="1.5" d="M0,-3.0v7 M-2.5,-0.5L0,-3.0L2.5,-0.5"/>
                </g>
                <g id="arrowLeft" xlink:href="#dirArrow" transform="rotate(270) translate(-36 17)" onmousedown="handlePan(-1,0)">
                  <use xlink:href="#rim" fill="#404040">
                        <set attributeName="fill" to="#808080" begin="arrowLeft.mouseover" end="arrowLeft.mouseout"/>
                  </use>
                  <path fill="none" stroke="white" stroke-width="1.5" d="M0,-3.0v7 M-2.5,-0.5L0,-3.0L2.5,-0.5"/>
                </g>
        </g>
        <svg viewBox="0 0 15 15" width="100%" height="30px" preserveAspectRatio="xMaxYMin meet">
         <g id="arrow_out" transform="scale(0.3 0.3)">
          <a xlink:href="classEMC__TRAJ__CLEAR__PROBE__TRIPPED__FLAG__coll__graph_org.svg" target="_base">
           <rect id="button" ry="5" rx="5" y="6" x="6" height="38" width="38"
                fill="#f2f5e9" fill-opacity="0.5" stroke="#606060" stroke-width="1.0"/>
           <path id="arrow"
             d="M 11.500037,31.436501 C 11.940474,20.09759 22.043105,11.32322 32.158766,21.979434 L 37.068811,17.246167 C 37.068811,17.246167 37.088388,32 37.088388,32 L 22.160133,31.978069 C 22.160133,31.978069 26.997745,27.140456 26.997745,27.140456 C 18.528582,18.264221 13.291696,25.230495 11.500037,31.436501 z"
             style="fill:#404040;"/>
          </a>
         </g>
        </svg>
</svg>
