<?xml version="1.0" encoding="UTF-8" standalone="no"?>
<!DOCTYPE svg PUBLIC "-//W3C//DTD SVG 1.1//EN"
 "http://www.w3.org/Graphics/SVG/1.1/DTD/svg11.dtd">
<!-- Generated by graphviz version 2.43.0 (0)
 -->
<!-- Title: EMC_TOOL_CMD_MSG Pages: 1 -->
<svg width="1556pt" height="502pt"
 viewBox="0.00 0.00 1555.50 502.00" xmlns="http://www.w3.org/2000/svg" xmlns:xlink="http://www.w3.org/1999/xlink">
<g id="graph0" class="graph" transform="scale(1 1) rotate(0) translate(4 498)">
<title>EMC_TOOL_CMD_MSG</title>
<polygon fill="white" stroke="transparent" points="-4,4 -4,-498 1551.5,-498 1551.5,4 -4,4"/>
<!-- Node1 -->
<g id="node1" class="node">
<title>Node1</title>
<g id="a_node1"><a xlink:title=" ">
<polygon fill="#bfbfbf" stroke="black" points="631,-171.5 631,-239.5 776,-239.5 776,-171.5 631,-171.5"/>
<text text-anchor="middle" x="703.5" y="-227.5" font-family="Helvetica,sans-Serif" font-size="10.00">EMC_TOOL_CMD_MSG</text>
<polyline fill="none" stroke="black" points="631,-220.5 776,-220.5 "/>
<text text-anchor="middle" x="703.5" y="-208.5" font-family="Helvetica,sans-Serif" font-size="10.00"> </text>
<polyline fill="none" stroke="black" points="631,-201.5 776,-201.5 "/>
<text text-anchor="start" x="639" y="-189.5" font-family="Helvetica,sans-Serif" font-size="10.00">+ EMC_TOOL_CMD_MSG()</text>
<text text-anchor="start" x="639" y="-178.5" font-family="Helvetica,sans-Serif" font-size="10.00">+ update()</text>
</a>
</g>
</g>
<!-- Node4 -->
<g id="node4" class="node">
<title>Node4</title>
<g id="a_node4"><a xlink:href="classEMC__TOOL__ABORT.html" target="_top" xlink:title=" ">
<polygon fill="white" stroke="black" points="0,-33.5 0,-101.5 127,-101.5 127,-33.5 0,-33.5"/>
<text text-anchor="middle" x="63.5" y="-89.5" font-family="Helvetica,sans-Serif" font-size="10.00">EMC_TOOL_ABORT</text>
<polyline fill="none" stroke="black" points="0,-82.5 127,-82.5 "/>
<text text-anchor="start" x="8" y="-70.5" font-family="Helvetica,sans-Serif" font-size="10.00">+ reason</text>
<polyline fill="none" stroke="black" points="0,-63.5 127,-63.5 "/>
<text text-anchor="start" x="8" y="-51.5" font-family="Helvetica,sans-Serif" font-size="10.00">+ EMC_TOOL_ABORT()</text>
<text text-anchor="start" x="8" y="-40.5" font-family="Helvetica,sans-Serif" font-size="10.00">+ update()</text>
</a>
</g>
</g>
<!-- Node1&#45;&gt;Node4 -->
<g id="edge3" class="edge">
<title>Node1&#45;&gt;Node4</title>
<path fill="none" stroke="midnightblue" d="M620.6,-200.6C484.37,-193.15 219.84,-174.06 135.5,-135 118.82,-127.28 103.4,-114.23 91.15,-101.74"/>
<polygon fill="none" stroke="midnightblue" points="620.8,-204.11 630.98,-201.16 621.18,-197.12 620.8,-204.11"/>
</g>
<!-- Node5 -->
<g id="node5" class="node">
<title>Node5</title>
<g id="a_node5"><a xlink:href="classEMC__TOOL__HALT.html" target="_top" xlink:title=" ">
<polygon fill="white" stroke="black" points="145,-33.5 145,-101.5 264,-101.5 264,-33.5 145,-33.5"/>
<text text-anchor="middle" x="204.5" y="-89.5" font-family="Helvetica,sans-Serif" font-size="10.00">EMC_TOOL_HALT</text>
<polyline fill="none" stroke="black" points="145,-82.5 264,-82.5 "/>
<text text-anchor="middle" x="204.5" y="-70.5" font-family="Helvetica,sans-Serif" font-size="10.00"> </text>
<polyline fill="none" stroke="black" points="145,-63.5 264,-63.5 "/>
<text text-anchor="start" x="153" y="-51.5" font-family="Helvetica,sans-Serif" font-size="10.00">+ EMC_TOOL_HALT()</text>
<text text-anchor="start" x="153" y="-40.5" font-family="Helvetica,sans-Serif" font-size="10.00">+ update()</text>
</a>
</g>
</g>
<!-- Node1&#45;&gt;Node5 -->
<g id="edge4" class="edge">
<title>Node1&#45;&gt;Node5</title>
<path fill="none" stroke="midnightblue" d="M620.67,-197.15C513.08,-186.58 332,-165 272.5,-135 256.72,-127.04 242.26,-114.12 230.76,-101.77"/>
<polygon fill="none" stroke="midnightblue" points="620.55,-200.65 630.84,-198.14 621.23,-193.69 620.55,-200.65"/>
</g>
<!-- Node6 -->
<g id="node6" class="node">
<title>Node6</title>
<g id="a_node6"><a xlink:href="classEMC__TOOL__INIT.html" target="_top" xlink:title=" ">
<polygon fill="white" stroke="black" points="282,-33.5 282,-101.5 395,-101.5 395,-33.5 282,-33.5"/>
<text text-anchor="middle" x="338.5" y="-89.5" font-family="Helvetica,sans-Serif" font-size="10.00">EMC_TOOL_INIT</text>
<polyline fill="none" stroke="black" points="282,-82.5 395,-82.5 "/>
<text text-anchor="middle" x="338.5" y="-70.5" font-family="Helvetica,sans-Serif" font-size="10.00"> </text>
<polyline fill="none" stroke="black" points="282,-63.5 395,-63.5 "/>
<text text-anchor="start" x="290" y="-51.5" font-family="Helvetica,sans-Serif" font-size="10.00">+ EMC_TOOL_INIT()</text>
<text text-anchor="start" x="290" y="-40.5" font-family="Helvetica,sans-Serif" font-size="10.00">+ update()</text>
</a>
</g>
</g>
<!-- Node1&#45;&gt;Node6 -->
<g id="edge5" class="edge">
<title>Node1&#45;&gt;Node6</title>
<path fill="none" stroke="midnightblue" d="M620.61,-197.97C557.69,-190.12 470.82,-172.85 403.5,-135 388.58,-126.61 374.88,-113.77 363.93,-101.6"/>
<polygon fill="none" stroke="midnightblue" points="620.54,-201.49 630.89,-199.2 621.37,-194.54 620.54,-201.49"/>
</g>
<!-- Node7 -->
<g id="node7" class="node">
<title>Node7</title>
<g id="a_node7"><a xlink:href="classEMC__TOOL__LOAD.html" target="_top" xlink:title=" ">
<polygon fill="white" stroke="black" points="413,-33.5 413,-101.5 534,-101.5 534,-33.5 413,-33.5"/>
<text text-anchor="middle" x="473.5" y="-89.5" font-family="Helvetica,sans-Serif" font-size="10.00">EMC_TOOL_LOAD</text>
<polyline fill="none" stroke="black" points="413,-82.5 534,-82.5 "/>
<text text-anchor="middle" x="473.5" y="-70.5" font-family="Helvetica,sans-Serif" font-size="10.00"> </text>
<polyline fill="none" stroke="black" points="413,-63.5 534,-63.5 "/>
<text text-anchor="start" x="421" y="-51.5" font-family="Helvetica,sans-Serif" font-size="10.00">+ EMC_TOOL_LOAD()</text>
<text text-anchor="start" x="421" y="-40.5" font-family="Helvetica,sans-Serif" font-size="10.00">+ update()</text>
</a>
</g>
</g>
<!-- Node1&#45;&gt;Node7 -->
<g id="edge6" class="edge">
<title>Node1&#45;&gt;Node7</title>
<path fill="none" stroke="midnightblue" d="M621.37,-175.73C595.13,-164.81 566.65,-151.07 542.5,-135 528.37,-125.6 514.55,-113.13 503.03,-101.53"/>
<polygon fill="none" stroke="midnightblue" points="620.35,-179.09 630.93,-179.62 622.99,-172.6 620.35,-179.09"/>
</g>
<!-- Node8 -->
<g id="node8" class="node">
<title>Node8</title>
<g id="a_node8"><a xlink:href="classEMC__TOOL__LOAD__TOOL__TABLE.html" target="_top" xlink:title=" ">
<polygon fill="white" stroke="black" points="552,-22.5 552,-112.5 697,-112.5 697,-22.5 552,-22.5"/>
<text text-anchor="start" x="560" y="-100.5" font-family="Helvetica,sans-Serif" font-size="10.00">EMC_TOOL_LOAD_TOOL</text>
<text text-anchor="middle" x="624.5" y="-89.5" font-family="Helvetica,sans-Serif" font-size="10.00">_TABLE</text>
<polyline fill="none" stroke="black" points="552,-82.5 697,-82.5 "/>
<text text-anchor="start" x="560" y="-70.5" font-family="Helvetica,sans-Serif" font-size="10.00">+ file</text>
<polyline fill="none" stroke="black" points="552,-63.5 697,-63.5 "/>
<text text-anchor="start" x="560" y="-51.5" font-family="Helvetica,sans-Serif" font-size="10.00">+ EMC_TOOL_LOAD_TOOL</text>
<text text-anchor="start" x="560" y="-40.5" font-family="Helvetica,sans-Serif" font-size="10.00">_TABLE()</text>
<text text-anchor="start" x="560" y="-29.5" font-family="Helvetica,sans-Serif" font-size="10.00">+ update()</text>
</a>
</g>
</g>
<!-- Node1&#45;&gt;Node8 -->
<g id="edge7" class="edge">
<title>Node1&#45;&gt;Node8</title>
<path fill="none" stroke="midnightblue" d="M678.96,-162.25C669.82,-146.52 659.43,-128.63 650.19,-112.73"/>
<polygon fill="none" stroke="midnightblue" points="676.13,-164.34 684.17,-171.23 682.18,-160.83 676.13,-164.34"/>
</g>
<!-- Node9 -->
<g id="node9" class="node">
<title>Node9</title>
<g id="a_node9"><a xlink:href="classEMC__TOOL__PREPARE.html" target="_top" xlink:title=" ">
<polygon fill="white" stroke="black" points="715,-33.5 715,-101.5 852,-101.5 852,-33.5 715,-33.5"/>
<text text-anchor="middle" x="783.5" y="-89.5" font-family="Helvetica,sans-Serif" font-size="10.00">EMC_TOOL_PREPARE</text>
<polyline fill="none" stroke="black" points="715,-82.5 852,-82.5 "/>
<text text-anchor="start" x="723" y="-70.5" font-family="Helvetica,sans-Serif" font-size="10.00">+ tool</text>
<polyline fill="none" stroke="black" points="715,-63.5 852,-63.5 "/>
<text text-anchor="start" x="723" y="-51.5" font-family="Helvetica,sans-Serif" font-size="10.00">+ EMC_TOOL_PREPARE()</text>
<text text-anchor="start" x="723" y="-40.5" font-family="Helvetica,sans-Serif" font-size="10.00">+ update()</text>
</a>
</g>
</g>
<!-- Node1&#45;&gt;Node9 -->
<g id="edge8" class="edge">
<title>Node1&#45;&gt;Node9</title>
<path fill="none" stroke="midnightblue" d="M728.18,-162.54C739.65,-143.05 753.09,-120.19 763.85,-101.9"/>
<polygon fill="none" stroke="midnightblue" points="725.12,-160.84 723.07,-171.23 731.16,-164.39 725.12,-160.84"/>
</g>
<!-- Node10 -->
<g id="node10" class="node">
<title>Node10</title>
<g id="a_node10"><a xlink:href="classEMC__TOOL__SET__NUMBER.html" target="_top" xlink:title=" ">
<polygon fill="white" stroke="black" points="870,-33.5 870,-101.5 1031,-101.5 1031,-33.5 870,-33.5"/>
<text text-anchor="middle" x="950.5" y="-89.5" font-family="Helvetica,sans-Serif" font-size="10.00">EMC_TOOL_SET_NUMBER</text>
<polyline fill="none" stroke="black" points="870,-82.5 1031,-82.5 "/>
<text text-anchor="start" x="878" y="-70.5" font-family="Helvetica,sans-Serif" font-size="10.00">+ tool</text>
<polyline fill="none" stroke="black" points="870,-63.5 1031,-63.5 "/>
<text text-anchor="start" x="878" y="-51.5" font-family="Helvetica,sans-Serif" font-size="10.00">+ EMC_TOOL_SET_NUMBER()</text>
<text text-anchor="start" x="878" y="-40.5" font-family="Helvetica,sans-Serif" font-size="10.00">+ update()</text>
</a>
</g>
</g>
<!-- Node1&#45;&gt;Node10 -->
<g id="edge9" class="edge">
<title>Node1&#45;&gt;Node10</title>
<path fill="none" stroke="midnightblue" d="M785.81,-172.5C810.71,-161.71 837.74,-148.86 861.5,-135 878.16,-125.28 895.39,-113.01 910.19,-101.66"/>
<polygon fill="none" stroke="midnightblue" points="784.2,-169.38 776.38,-176.53 786.95,-175.82 784.2,-169.38"/>
</g>
<!-- Node11 -->
<g id="node11" class="node">
<title>Node11</title>
<g id="a_node11"><a xlink:href="classEMC__TOOL__SET__OFFSET.html" target="_top" xlink:title=" ">
<polygon fill="white" stroke="black" points="1049.5,-0.5 1049.5,-134.5 1203.5,-134.5 1203.5,-0.5 1049.5,-0.5"/>
<text text-anchor="middle" x="1126.5" y="-122.5" font-family="Helvetica,sans-Serif" font-size="10.00">EMC_TOOL_SET_OFFSET</text>
<polyline fill="none" stroke="black" points="1049.5,-115.5 1203.5,-115.5 "/>
<text text-anchor="start" x="1057.5" y="-103.5" font-family="Helvetica,sans-Serif" font-size="10.00">+ pocket</text>
<text text-anchor="start" x="1057.5" y="-92.5" font-family="Helvetica,sans-Serif" font-size="10.00">+ toolno</text>
<text text-anchor="start" x="1057.5" y="-81.5" font-family="Helvetica,sans-Serif" font-size="10.00">+ offset</text>
<text text-anchor="start" x="1057.5" y="-70.5" font-family="Helvetica,sans-Serif" font-size="10.00">+ diameter</text>
<text text-anchor="start" x="1057.5" y="-59.5" font-family="Helvetica,sans-Serif" font-size="10.00">+ frontangle</text>
<text text-anchor="start" x="1057.5" y="-48.5" font-family="Helvetica,sans-Serif" font-size="10.00">+ backangle</text>
<text text-anchor="start" x="1057.5" y="-37.5" font-family="Helvetica,sans-Serif" font-size="10.00">+ orientation</text>
<polyline fill="none" stroke="black" points="1049.5,-30.5 1203.5,-30.5 "/>
<text text-anchor="start" x="1057.5" y="-18.5" font-family="Helvetica,sans-Serif" font-size="10.00">+ EMC_TOOL_SET_OFFSET()</text>
<text text-anchor="start" x="1057.5" y="-7.5" font-family="Helvetica,sans-Serif" font-size="10.00">+ update()</text>
</a>
</g>
</g>
<!-- Node1&#45;&gt;Node11 -->
<g id="edge10" class="edge">
<title>Node1&#45;&gt;Node11</title>
<path fill="none" stroke="midnightblue" d="M786.28,-197.96C856.57,-189.99 958.76,-172.57 1040.5,-135 1043.5,-133.62 1046.49,-132.12 1049.47,-130.52"/>
<polygon fill="none" stroke="midnightblue" points="785.7,-194.5 776.14,-199.07 786.46,-201.46 785.7,-194.5"/>
</g>
<!-- Node12 -->
<g id="node12" class="node">
<title>Node12</title>
<g id="a_node12"><a xlink:href="classEMC__TOOL__START__CHANGE.html" target="_top" xlink:title=" ">
<polygon fill="white" stroke="black" points="1222,-33.5 1222,-101.5 1393,-101.5 1393,-33.5 1222,-33.5"/>
<text text-anchor="middle" x="1307.5" y="-89.5" font-family="Helvetica,sans-Serif" font-size="10.00">EMC_TOOL_START_CHANGE</text>
<polyline fill="none" stroke="black" points="1222,-82.5 1393,-82.5 "/>
<text text-anchor="middle" x="1307.5" y="-70.5" font-family="Helvetica,sans-Serif" font-size="10.00"> </text>
<polyline fill="none" stroke="black" points="1222,-63.5 1393,-63.5 "/>
<text text-anchor="start" x="1230" y="-51.5" font-family="Helvetica,sans-Serif" font-size="10.00">+ EMC_TOOL_START_CHANGE()</text>
<text text-anchor="start" x="1230" y="-40.5" font-family="Helvetica,sans-Serif" font-size="10.00">+ update()</text>
</a>
</g>
</g>
<!-- Node1&#45;&gt;Node12 -->
<g id="edge11" class="edge">
<title>Node1&#45;&gt;Node12</title>
<path fill="none" stroke="midnightblue" d="M786.2,-205.02C889.45,-203.05 1069.84,-190.86 1212.5,-135 1232.75,-127.07 1252.82,-114 1269.26,-101.53"/>
<polygon fill="none" stroke="midnightblue" points="786.09,-201.52 776.15,-205.19 786.2,-208.52 786.09,-201.52"/>
</g>
<!-- Node13 -->
<g id="node13" class="node">
<title>Node13</title>
<g id="a_node13"><a xlink:href="classEMC__TOOL__UNLOAD.html" target="_top" xlink:title=" ">
<polygon fill="white" stroke="black" points="1411.5,-33.5 1411.5,-101.5 1547.5,-101.5 1547.5,-33.5 1411.5,-33.5"/>
<text text-anchor="middle" x="1479.5" y="-89.5" font-family="Helvetica,sans-Serif" font-size="10.00">EMC_TOOL_UNLOAD</text>
<polyline fill="none" stroke="black" points="1411.5,-82.5 1547.5,-82.5 "/>
<text text-anchor="middle" x="1479.5" y="-70.5" font-family="Helvetica,sans-Serif" font-size="10.00"> </text>
<polyline fill="none" stroke="black" points="1411.5,-63.5 1547.5,-63.5 "/>
<text text-anchor="start" x="1419.5" y="-51.5" font-family="Helvetica,sans-Serif" font-size="10.00">+ EMC_TOOL_UNLOAD()</text>
<text text-anchor="start" x="1419.5" y="-40.5" font-family="Helvetica,sans-Serif" font-size="10.00">+ update()</text>
</a>
</g>
</g>
<!-- Node1&#45;&gt;Node13 -->
<g id="edge12" class="edge">
<title>Node1&#45;&gt;Node13</title>
<path fill="none" stroke="midnightblue" d="M786.32,-202.5C946.72,-197.61 1293.54,-181.8 1402.5,-135 1420.19,-127.4 1436.78,-114.22 1449.99,-101.58"/>
<polygon fill="none" stroke="midnightblue" points="785.92,-199.01 776.03,-202.8 786.13,-206 785.92,-199.01"/>
</g>
<!-- Node2 -->
<g id="node2" class="node">
<title>Node2</title>
<g id="a_node2"><a xlink:href="classRCS__CMD__MSG.html" target="_top" xlink:title=" ">
<polygon fill="white" stroke="black" points="648,-276.5 648,-333.5 759,-333.5 759,-276.5 648,-276.5"/>
<text text-anchor="middle" x="703.5" y="-321.5" font-family="Helvetica,sans-Serif" font-size="10.00">RCS_CMD_MSG</text>
<polyline fill="none" stroke="black" points="648,-314.5 759,-314.5 "/>
<text text-anchor="start" x="656" y="-302.5" font-family="Helvetica,sans-Serif" font-size="10.00">+ serial_number</text>
<polyline fill="none" stroke="black" points="648,-295.5 759,-295.5 "/>
<text text-anchor="start" x="656" y="-283.5" font-family="Helvetica,sans-Serif" font-size="10.00">+ RCS_CMD_MSG()</text>
</a>
</g>
</g>
<!-- Node2&#45;&gt;Node1 -->
<g id="edge1" class="edge">
<title>Node2&#45;&gt;Node1</title>
<path fill="none" stroke="midnightblue" d="M703.5,-266.06C703.5,-257.39 703.5,-248.24 703.5,-239.79"/>
<polygon fill="none" stroke="midnightblue" points="700,-266.32 703.5,-276.32 707,-266.32 700,-266.32"/>
</g>
<!-- Node3 -->
<g id="node3" class="node">
<title>Node3</title>
<g id="a_node3"><a xlink:href="classNMLmsg.html" target="_top" xlink:title=" ">
<polygon fill="white" stroke="black" points="641,-370.5 641,-493.5 766,-493.5 766,-370.5 641,-370.5"/>
<text text-anchor="middle" x="703.5" y="-481.5" font-family="Helvetica,sans-Serif" font-size="10.00">NMLmsg</text>
<polyline fill="none" stroke="black" points="641,-474.5 766,-474.5 "/>
<text text-anchor="start" x="649" y="-462.5" font-family="Helvetica,sans-Serif" font-size="10.00">+ type</text>
<text text-anchor="start" x="649" y="-451.5" font-family="Helvetica,sans-Serif" font-size="10.00">+ size</text>
<text text-anchor="start" x="649" y="-440.5" font-family="Helvetica,sans-Serif" font-size="10.00">+ automatically_clear</text>
<polyline fill="none" stroke="black" points="641,-433.5 766,-433.5 "/>
<text text-anchor="start" x="649" y="-421.5" font-family="Helvetica,sans-Serif" font-size="10.00">+ clear()</text>
<text text-anchor="start" x="649" y="-410.5" font-family="Helvetica,sans-Serif" font-size="10.00">+ update()</text>
<text text-anchor="start" x="649" y="-399.5" font-family="Helvetica,sans-Serif" font-size="10.00"># NMLmsg()</text>
<text text-anchor="start" x="649" y="-388.5" font-family="Helvetica,sans-Serif" font-size="10.00"># NMLmsg()</text>
<text text-anchor="start" x="649" y="-377.5" font-family="Helvetica,sans-Serif" font-size="10.00"># NMLmsg()</text>
</a>
</g>
</g>
<!-- Node3&#45;&gt;Node2 -->
<g id="edge2" class="edge">
<title>Node3&#45;&gt;Node2</title>
<path fill="none" stroke="midnightblue" d="M703.5,-360.14C703.5,-350.8 703.5,-341.71 703.5,-333.74"/>
<polygon fill="none" stroke="midnightblue" points="700,-360.33 703.5,-370.33 707,-360.33 700,-360.33"/>
</g>
</g>
</svg>
