<?xml version="1.0" encoding="UTF-8" standalone="no"?>
<!DOCTYPE svg PUBLIC "-//W3C//DTD SVG 1.1//EN"
 "http://www.w3.org/Graphics/SVG/1.1/DTD/svg11.dtd">
<!-- Generated by graphviz version 2.43.0 (0)
 -->
<!-- Title: CMS_USER Pages: 1 -->
<svg width="511pt" height="804pt"
 viewBox="0.00 0.00 511.00 804.00" xmlns="http://www.w3.org/2000/svg" xmlns:xlink="http://www.w3.org/1999/xlink">
<g id="graph0" class="graph" transform="scale(1 1) rotate(0) translate(4 800)">
<title>CMS_USER</title>
<polygon fill="white" stroke="transparent" points="-4,4 -4,-800 507,-800 507,4 -4,4"/>
<!-- Node1 -->
<g id="node1" class="node">
<title>Node1</title>
<g id="a_node1"><a xlink:title=" ">
<polygon fill="#bfbfbf" stroke="black" points="145,-738.5 145,-795.5 215,-795.5 215,-738.5 145,-738.5"/>
<text text-anchor="middle" x="180" y="-783.5" font-family="Helvetica,sans-Serif" font-size="10.00">CMS_USER</text>
<polyline fill="none" stroke="black" points="145,-776.5 215,-776.5 "/>
<text text-anchor="start" x="153" y="-764.5" font-family="Helvetica,sans-Serif" font-size="10.00">+ cms</text>
<polyline fill="none" stroke="black" points="145,-757.5 215,-757.5 "/>
<text text-anchor="middle" x="180" y="-745.5" font-family="Helvetica,sans-Serif" font-size="10.00"> </text>
</a>
</g>
</g>
<!-- Node2 -->
<g id="node2" class="node">
<title>Node2</title>
<g id="a_node2"><a xlink:href="classCMS__SERVER__LOCAL__PORT.html" target="_top" xlink:title=" ">
<polygon fill="white" stroke="black" points="0,-336.5 0,-558.5 176,-558.5 176,-336.5 0,-336.5"/>
<text text-anchor="middle" x="88" y="-546.5" font-family="Helvetica,sans-Serif" font-size="10.00">CMS_SERVER_LOCAL_PORT</text>
<polyline fill="none" stroke="black" points="0,-539.5 176,-539.5 "/>
<text text-anchor="start" x="8" y="-527.5" font-family="Helvetica,sans-Serif" font-size="10.00">+ local_channel_reused</text>
<text text-anchor="start" x="8" y="-516.5" font-family="Helvetica,sans-Serif" font-size="10.00"># buffer_number</text>
<text text-anchor="start" x="8" y="-505.5" font-family="Helvetica,sans-Serif" font-size="10.00"># list_id</text>
<text text-anchor="start" x="8" y="-494.5" font-family="Helvetica,sans-Serif" font-size="10.00"># orig_info</text>
<text text-anchor="start" x="8" y="-483.5" font-family="Helvetica,sans-Serif" font-size="10.00"># read_reply</text>
<text text-anchor="start" x="8" y="-472.5" font-family="Helvetica,sans-Serif" font-size="10.00"># write_reply</text>
<text text-anchor="start" x="8" y="-461.5" font-family="Helvetica,sans-Serif" font-size="10.00"># namereply</text>
<text text-anchor="start" x="8" y="-450.5" font-family="Helvetica,sans-Serif" font-size="10.00"># get_diag_info_reply</text>
<polyline fill="none" stroke="black" points="0,-443.5 176,-443.5 "/>
<text text-anchor="start" x="8" y="-431.5" font-family="Helvetica,sans-Serif" font-size="10.00">+ CMS_SERVER_LOCAL_PORT()</text>
<text text-anchor="start" x="8" y="-420.5" font-family="Helvetica,sans-Serif" font-size="10.00">+ ~CMS_SERVER_LOCAL_PORT()</text>
<text text-anchor="start" x="8" y="-409.5" font-family="Helvetica,sans-Serif" font-size="10.00"># reader()</text>
<text text-anchor="start" x="8" y="-398.5" font-family="Helvetica,sans-Serif" font-size="10.00"># blocking_read()</text>
<text text-anchor="start" x="8" y="-387.5" font-family="Helvetica,sans-Serif" font-size="10.00"># writer()</text>
<text text-anchor="start" x="8" y="-376.5" font-family="Helvetica,sans-Serif" font-size="10.00"># set_diag_info()</text>
<text text-anchor="start" x="8" y="-365.5" font-family="Helvetica,sans-Serif" font-size="10.00"># get_diag_info()</text>
<text text-anchor="start" x="8" y="-354.5" font-family="Helvetica,sans-Serif" font-size="10.00"># get_msg_count()</text>
<text text-anchor="start" x="8" y="-343.5" font-family="Helvetica,sans-Serif" font-size="10.00"># reset_diag_info()</text>
</a>
</g>
</g>
<!-- Node1&#45;&gt;Node2 -->
<g id="edge1" class="edge">
<title>Node1&#45;&gt;Node2</title>
<path fill="none" stroke="midnightblue" d="M169.18,-728.67C157.13,-687.07 137.07,-617.84 119.91,-558.61"/>
<polygon fill="none" stroke="midnightblue" points="165.85,-729.75 172,-738.38 172.58,-727.8 165.85,-729.75"/>
</g>
<!-- Node4 -->
<g id="node4" class="node">
<title>Node4</title>
<g id="a_node4"><a xlink:href="classNML.html" target="_top" xlink:title=" ">
<polygon fill="white" stroke="black" points="194.5,-193.5 194.5,-701.5 349.5,-701.5 349.5,-193.5 194.5,-193.5"/>
<text text-anchor="middle" x="272" y="-689.5" font-family="Helvetica,sans-Serif" font-size="10.00">NML</text>
<polyline fill="none" stroke="black" points="194.5,-682.5 349.5,-682.5 "/>
<text text-anchor="start" x="202.5" y="-670.5" font-family="Helvetica,sans-Serif" font-size="10.00">+ format_chain</text>
<text text-anchor="start" x="202.5" y="-659.5" font-family="Helvetica,sans-Serif" font-size="10.00">+ channel_list_id</text>
<text text-anchor="start" x="202.5" y="-648.5" font-family="Helvetica,sans-Serif" font-size="10.00">+ error_type</text>
<text text-anchor="start" x="202.5" y="-637.5" font-family="Helvetica,sans-Serif" font-size="10.00">+ phantom_read</text>
<text text-anchor="start" x="202.5" y="-626.5" font-family="Helvetica,sans-Serif" font-size="10.00">+ phantom_peek</text>
<text text-anchor="start" x="202.5" y="-615.5" font-family="Helvetica,sans-Serif" font-size="10.00">+ phantom_write</text>
<text text-anchor="start" x="202.5" y="-604.5" font-family="Helvetica,sans-Serif" font-size="10.00">+ phantom_write_if_read</text>
<text text-anchor="start" x="202.5" y="-593.5" font-family="Helvetica,sans-Serif" font-size="10.00">+ phantom_check_if_read</text>
<text text-anchor="start" x="202.5" y="-582.5" font-family="Helvetica,sans-Serif" font-size="10.00">+ phantom_clear</text>
<text text-anchor="start" x="202.5" y="-571.5" font-family="Helvetica,sans-Serif" font-size="10.00">+ ignore_format_chain</text>
<text text-anchor="start" x="202.5" y="-560.5" font-family="Helvetica,sans-Serif" font-size="10.00">+ queue_length</text>
<text text-anchor="start" x="202.5" y="-549.5" font-family="Helvetica,sans-Serif" font-size="10.00">+ channel_type</text>
<text text-anchor="start" x="202.5" y="-538.5" font-family="Helvetica,sans-Serif" font-size="10.00">+ forced_type</text>
<text text-anchor="start" x="202.5" y="-527.5" font-family="Helvetica,sans-Serif" font-size="10.00"># fast_mode</text>
<text text-anchor="start" x="202.5" y="-516.5" font-family="Helvetica,sans-Serif" font-size="10.00"># cms_status</text>
<text text-anchor="start" x="202.5" y="-505.5" font-family="Helvetica,sans-Serif" font-size="10.00"># cms_inbuffer_header_size</text>
<text text-anchor="start" x="202.5" y="-494.5" font-family="Helvetica,sans-Serif" font-size="10.00"># info_printed</text>
<text text-anchor="start" x="202.5" y="-483.5" font-family="Helvetica,sans-Serif" font-size="10.00"># already_deleted</text>
<text text-anchor="start" x="202.5" y="-472.5" font-family="Helvetica,sans-Serif" font-size="10.00"># bufname</text>
<text text-anchor="start" x="202.5" y="-461.5" font-family="Helvetica,sans-Serif" font-size="10.00"># procname</text>
<text text-anchor="start" x="202.5" y="-450.5" font-family="Helvetica,sans-Serif" font-size="10.00"># cfgfilename</text>
<text text-anchor="start" x="202.5" y="-439.5" font-family="Helvetica,sans-Serif" font-size="10.00"># blocking_read_poll</text>
<text text-anchor="start" x="202.5" y="-428.5" font-family="Helvetica,sans-Serif" font-size="10.00">_interval</text>
<text text-anchor="start" x="202.5" y="-417.5" font-family="Helvetica,sans-Serif" font-size="10.00"># cms_for_msg_string</text>
<text text-anchor="start" x="202.5" y="-406.5" font-family="Helvetica,sans-Serif" font-size="10.00">_conversions</text>
<text text-anchor="start" x="202.5" y="-395.5" font-family="Helvetica,sans-Serif" font-size="10.00"># registered_with_server</text>
<polyline fill="none" stroke="black" points="194.5,-388.5 349.5,-388.5 "/>
<text text-anchor="start" x="202.5" y="-376.5" font-family="Helvetica,sans-Serif" font-size="10.00">+ operator new()</text>
<text text-anchor="start" x="202.5" y="-365.5" font-family="Helvetica,sans-Serif" font-size="10.00">+ operator delete()</text>
<text text-anchor="start" x="202.5" y="-354.5" font-family="Helvetica,sans-Serif" font-size="10.00">+ register_with_server()</text>
<text text-anchor="start" x="202.5" y="-343.5" font-family="Helvetica,sans-Serif" font-size="10.00">+ add_to_channel_list()</text>
<text text-anchor="start" x="202.5" y="-332.5" font-family="Helvetica,sans-Serif" font-size="10.00">+ get_address()</text>
<text text-anchor="start" x="202.5" y="-321.5" font-family="Helvetica,sans-Serif" font-size="10.00">+ delete_channel()</text>
<text text-anchor="start" x="202.5" y="-310.5" font-family="Helvetica,sans-Serif" font-size="10.00">+ read()</text>
<text text-anchor="start" x="202.5" y="-299.5" font-family="Helvetica,sans-Serif" font-size="10.00">+ blocking_read()</text>
<text text-anchor="start" x="202.5" y="-288.5" font-family="Helvetica,sans-Serif" font-size="10.00">+ peek()</text>
<text text-anchor="start" x="202.5" y="-277.5" font-family="Helvetica,sans-Serif" font-size="10.00">+ read()</text>
<text text-anchor="start" x="202.5" y="-266.5" font-family="Helvetica,sans-Serif" font-size="10.00">and 38 more...</text>
<text text-anchor="start" x="202.5" y="-255.5" font-family="Helvetica,sans-Serif" font-size="10.00"># run_format_chain()</text>
<text text-anchor="start" x="202.5" y="-244.5" font-family="Helvetica,sans-Serif" font-size="10.00"># format_input()</text>
<text text-anchor="start" x="202.5" y="-233.5" font-family="Helvetica,sans-Serif" font-size="10.00"># format_output()</text>
<text text-anchor="start" x="202.5" y="-222.5" font-family="Helvetica,sans-Serif" font-size="10.00"># NML()</text>
<text text-anchor="start" x="202.5" y="-211.5" font-family="Helvetica,sans-Serif" font-size="10.00"># reconstruct()</text>
<text text-anchor="start" x="202.5" y="-200.5" font-family="Helvetica,sans-Serif" font-size="10.00"># NML()</text>
</a>
</g>
</g>
<!-- Node1&#45;&gt;Node4 -->
<g id="edge3" class="edge">
<title>Node1&#45;&gt;Node4</title>
<path fill="none" stroke="midnightblue" d="M190.81,-728.71C193.15,-720.61 195.8,-711.47 198.67,-701.57"/>
<polygon fill="none" stroke="midnightblue" points="187.42,-727.8 188,-738.38 194.15,-729.75 187.42,-727.8"/>
</g>
<!-- Node3 -->
<g id="node3" class="node">
<title>Node3</title>
<g id="a_node3"><a xlink:href="classNML__SERVER__LOCAL__PORT.html" target="_top" xlink:title=" ">
<polygon fill="white" stroke="black" points="0,-0.5 0,-156.5 176,-156.5 176,-0.5 0,-0.5"/>
<text text-anchor="middle" x="88" y="-144.5" font-family="Helvetica,sans-Serif" font-size="10.00">NML_SERVER_LOCAL_PORT</text>
<polyline fill="none" stroke="black" points="0,-137.5 176,-137.5 "/>
<text text-anchor="start" x="8" y="-125.5" font-family="Helvetica,sans-Serif" font-size="10.00"># nml</text>
<text text-anchor="start" x="8" y="-114.5" font-family="Helvetica,sans-Serif" font-size="10.00"># batch_list_id</text>
<polyline fill="none" stroke="black" points="0,-107.5 176,-107.5 "/>
<text text-anchor="start" x="8" y="-95.5" font-family="Helvetica,sans-Serif" font-size="10.00">+ NML_SERVER_LOCAL_PORT()</text>
<text text-anchor="start" x="8" y="-84.5" font-family="Helvetica,sans-Serif" font-size="10.00">+ ~NML_SERVER_LOCAL_PORT()</text>
<text text-anchor="start" x="8" y="-73.5" font-family="Helvetica,sans-Serif" font-size="10.00"># reader()</text>
<text text-anchor="start" x="8" y="-62.5" font-family="Helvetica,sans-Serif" font-size="10.00"># blocking_read()</text>
<text text-anchor="start" x="8" y="-51.5" font-family="Helvetica,sans-Serif" font-size="10.00"># writer()</text>
<text text-anchor="start" x="8" y="-40.5" font-family="Helvetica,sans-Serif" font-size="10.00"># set_diag_info()</text>
<text text-anchor="start" x="8" y="-29.5" font-family="Helvetica,sans-Serif" font-size="10.00"># get_diag_info()</text>
<text text-anchor="start" x="8" y="-18.5" font-family="Helvetica,sans-Serif" font-size="10.00"># get_msg_count()</text>
<text text-anchor="start" x="8" y="-7.5" font-family="Helvetica,sans-Serif" font-size="10.00"># reset_diag_info()</text>
</a>
</g>
</g>
<!-- Node2&#45;&gt;Node3 -->
<g id="edge2" class="edge">
<title>Node2&#45;&gt;Node3</title>
<path fill="none" stroke="midnightblue" d="M88,-326.09C88,-270.33 88,-205.72 88,-156.63"/>
<polygon fill="none" stroke="midnightblue" points="84.5,-326.39 88,-336.39 91.5,-326.39 84.5,-326.39"/>
</g>
<!-- Node5 -->
<g id="node5" class="node">
<title>Node5</title>
<g id="a_node5"><a xlink:href="classRCS__CMD__CHANNEL.html" target="_top" xlink:title=" ">
<polygon fill="white" stroke="black" points="197,-33.5 197,-123.5 341,-123.5 341,-33.5 197,-33.5"/>
<text text-anchor="middle" x="269" y="-111.5" font-family="Helvetica,sans-Serif" font-size="10.00">RCS_CMD_CHANNEL</text>
<polyline fill="none" stroke="black" points="197,-104.5 341,-104.5 "/>
<text text-anchor="middle" x="269" y="-92.5" font-family="Helvetica,sans-Serif" font-size="10.00"> </text>
<polyline fill="none" stroke="black" points="197,-85.5 341,-85.5 "/>
<text text-anchor="start" x="205" y="-73.5" font-family="Helvetica,sans-Serif" font-size="10.00">+ RCS_CMD_CHANNEL()</text>
<text text-anchor="start" x="205" y="-62.5" font-family="Helvetica,sans-Serif" font-size="10.00">+ ~RCS_CMD_CHANNEL()</text>
<text text-anchor="start" x="205" y="-51.5" font-family="Helvetica,sans-Serif" font-size="10.00">+ get_address()</text>
<text text-anchor="start" x="205" y="-40.5" font-family="Helvetica,sans-Serif" font-size="10.00">+ write()</text>
</a>
</g>
</g>
<!-- Node4&#45;&gt;Node5 -->
<g id="edge4" class="edge">
<title>Node4&#45;&gt;Node5</title>
<path fill="none" stroke="midnightblue" d="M269.85,-183.27C269.66,-160.82 269.5,-140.35 269.36,-123.63"/>
<polygon fill="none" stroke="midnightblue" points="266.35,-183.39 269.93,-193.36 273.35,-183.33 266.35,-183.39"/>
</g>
<!-- Node6 -->
<g id="node6" class="node">
<title>Node6</title>
<g id="a_node6"><a xlink:href="classRCS__STAT__CHANNEL.html" target="_top" xlink:title=" ">
<polygon fill="white" stroke="black" points="359,-39 359,-118 503,-118 503,-39 359,-39"/>
<text text-anchor="middle" x="431" y="-106" font-family="Helvetica,sans-Serif" font-size="10.00">RCS_STAT_CHANNEL</text>
<polyline fill="none" stroke="black" points="359,-99 503,-99 "/>
<text text-anchor="middle" x="431" y="-87" font-family="Helvetica,sans-Serif" font-size="10.00"> </text>
<polyline fill="none" stroke="black" points="359,-80 503,-80 "/>
<text text-anchor="start" x="367" y="-68" font-family="Helvetica,sans-Serif" font-size="10.00">+ RCS_STAT_CHANNEL()</text>
<text text-anchor="start" x="367" y="-57" font-family="Helvetica,sans-Serif" font-size="10.00">+ ~RCS_STAT_CHANNEL()</text>
<text text-anchor="start" x="367" y="-46" font-family="Helvetica,sans-Serif" font-size="10.00">+ get_address()</text>
</a>
</g>
</g>
<!-- Node4&#45;&gt;Node6 -->
<g id="edge5" class="edge">
<title>Node4&#45;&gt;Node6</title>
<path fill="none" stroke="midnightblue" d="M353.52,-258.33C376.57,-205.14 399.39,-152.46 414.23,-118.21"/>
<polygon fill="none" stroke="midnightblue" points="350.28,-257 349.52,-267.57 356.71,-259.78 350.28,-257"/>
</g>
</g>
</svg>
