<?xml version="1.0" encoding="UTF-8" standalone="no"?>
<!DOCTYPE svg PUBLIC "-//W3C//DTD SVG 1.1//EN"
 "http://www.w3.org/Graphics/SVG/1.1/DTD/svg11.dtd">
<!-- Generated by graphviz version 2.43.0 (0)
 -->
<!-- Title: EMC_TASK_PLAN_READ Pages: 1 -->
<svg width="286pt" height="522pt"
 viewBox="0.00 0.00 285.50 522.00" xmlns="http://www.w3.org/2000/svg" xmlns:xlink="http://www.w3.org/1999/xlink">
<g id="graph0" class="graph" transform="scale(1 1) rotate(0) translate(4 518)">
<title>EMC_TASK_PLAN_READ</title>
<polygon fill="white" stroke="transparent" points="-4,4 -4,-518 281.5,-518 281.5,4 -4,4"/>
<!-- Node1 -->
<g id="node1" class="node">
<title>Node1</title>
<g id="a_node1"><a xlink:title=" ">
<polygon fill="#bfbfbf" stroke="black" points="0,-0.5 0,-68.5 151,-68.5 151,-0.5 0,-0.5"/>
<text text-anchor="middle" x="75.5" y="-56.5" font-family="Helvetica,sans-Serif" font-size="10.00">EMC_TASK_PLAN_READ</text>
<polyline fill="none" stroke="black" points="0,-49.5 151,-49.5 "/>
<text text-anchor="middle" x="75.5" y="-37.5" font-family="Helvetica,sans-Serif" font-size="10.00"> </text>
<polyline fill="none" stroke="black" points="0,-30.5 151,-30.5 "/>
<text text-anchor="start" x="8" y="-18.5" font-family="Helvetica,sans-Serif" font-size="10.00">+ EMC_TASK_PLAN_READ()</text>
<text text-anchor="start" x="8" y="-7.5" font-family="Helvetica,sans-Serif" font-size="10.00">+ update()</text>
</a>
</g>
</g>
<!-- Node2 -->
<g id="node2" class="node">
<title>Node2</title>
<g id="a_node2"><a xlink:href="classEMC__TASK__CMD__MSG.html" target="_top" xlink:title=" ">
<polygon fill="white" stroke="black" points="4,-106.5 4,-174.5 147,-174.5 147,-106.5 4,-106.5"/>
<text text-anchor="middle" x="75.5" y="-162.5" font-family="Helvetica,sans-Serif" font-size="10.00">EMC_TASK_CMD_MSG</text>
<polyline fill="none" stroke="black" points="4,-155.5 147,-155.5 "/>
<text text-anchor="middle" x="75.5" y="-143.5" font-family="Helvetica,sans-Serif" font-size="10.00"> </text>
<polyline fill="none" stroke="black" points="4,-136.5 147,-136.5 "/>
<text text-anchor="start" x="12" y="-124.5" font-family="Helvetica,sans-Serif" font-size="10.00">+ EMC_TASK_CMD_MSG()</text>
<text text-anchor="start" x="12" y="-113.5" font-family="Helvetica,sans-Serif" font-size="10.00">+ update()</text>
</a>
</g>
</g>
<!-- Node2&#45;&gt;Node1 -->
<g id="edge1" class="edge">
<title>Node2&#45;&gt;Node1</title>
<path fill="none" stroke="midnightblue" d="M75.5,-96.17C75.5,-87 75.5,-77.46 75.5,-68.73"/>
<polygon fill="none" stroke="midnightblue" points="72,-96.31 75.5,-106.31 79,-96.31 72,-96.31"/>
</g>
<!-- Node3 -->
<g id="node3" class="node">
<title>Node3</title>
<g id="a_node3"><a xlink:href="classRCS__CMD__MSG.html" target="_top" xlink:title=" ">
<polygon fill="white" stroke="black" points="20,-212.5 20,-269.5 131,-269.5 131,-212.5 20,-212.5"/>
<text text-anchor="middle" x="75.5" y="-257.5" font-family="Helvetica,sans-Serif" font-size="10.00">RCS_CMD_MSG</text>
<polyline fill="none" stroke="black" points="20,-250.5 131,-250.5 "/>
<text text-anchor="middle" x="75.5" y="-238.5" font-family="Helvetica,sans-Serif" font-size="10.00"> </text>
<polyline fill="none" stroke="black" points="20,-231.5 131,-231.5 "/>
<text text-anchor="start" x="28" y="-219.5" font-family="Helvetica,sans-Serif" font-size="10.00">+ RCS_CMD_MSG()</text>
</a>
</g>
</g>
<!-- Node3&#45;&gt;Node2 -->
<g id="edge2" class="edge">
<title>Node3&#45;&gt;Node2</title>
<path fill="none" stroke="midnightblue" d="M75.5,-202.01C75.5,-192.96 75.5,-183.38 75.5,-174.58"/>
<polygon fill="none" stroke="midnightblue" points="72,-202.3 75.5,-212.3 79,-202.3 72,-202.3"/>
</g>
<!-- Node4 -->
<g id="node4" class="node">
<title>Node4</title>
<g id="a_node4"><a xlink:href="classNMLmsg.html" target="_top" xlink:title=" ">
<polygon fill="white" stroke="black" points="144.5,-307.5 144.5,-408.5 222.5,-408.5 222.5,-307.5 144.5,-307.5"/>
<text text-anchor="middle" x="183.5" y="-396.5" font-family="Helvetica,sans-Serif" font-size="10.00">NMLmsg</text>
<polyline fill="none" stroke="black" points="144.5,-389.5 222.5,-389.5 "/>
<text text-anchor="middle" x="183.5" y="-377.5" font-family="Helvetica,sans-Serif" font-size="10.00"> </text>
<polyline fill="none" stroke="black" points="144.5,-370.5 222.5,-370.5 "/>
<text text-anchor="start" x="152.5" y="-358.5" font-family="Helvetica,sans-Serif" font-size="10.00">+ clear()</text>
<text text-anchor="start" x="152.5" y="-347.5" font-family="Helvetica,sans-Serif" font-size="10.00">+ update()</text>
<text text-anchor="start" x="152.5" y="-336.5" font-family="Helvetica,sans-Serif" font-size="10.00"># NMLmsg()</text>
<text text-anchor="start" x="152.5" y="-325.5" font-family="Helvetica,sans-Serif" font-size="10.00"># NMLmsg()</text>
<text text-anchor="start" x="152.5" y="-314.5" font-family="Helvetica,sans-Serif" font-size="10.00"># NMLmsg()</text>
</a>
</g>
</g>
<!-- Node4&#45;&gt;Node3 -->
<g id="edge3" class="edge">
<title>Node4&#45;&gt;Node3</title>
<path fill="none" stroke="midnightblue" d="M137.1,-307.59C124.89,-294.6 112.16,-281.04 101.46,-269.64"/>
<polygon fill="none" stroke="midnightblue" points="134.81,-310.26 144.2,-315.16 139.91,-305.47 134.81,-310.26"/>
</g>
<!-- Node5 -->
<g id="node5" class="node">
<title>Node5</title>
<g id="a_node5"><a xlink:title=" ">
<polygon fill="white" stroke="black" points="34,-456.5 34,-513.5 63,-513.5 63,-456.5 34,-456.5"/>
<text text-anchor="middle" x="48.5" y="-501.5" font-family="Helvetica,sans-Serif" font-size="10.00">int</text>
<polyline fill="none" stroke="black" points="34,-494.5 63,-494.5 "/>
<text text-anchor="middle" x="48.5" y="-482.5" font-family="Helvetica,sans-Serif" font-size="10.00"> </text>
<polyline fill="none" stroke="black" points="34,-475.5 63,-475.5 "/>
<text text-anchor="middle" x="48.5" y="-463.5" font-family="Helvetica,sans-Serif" font-size="10.00"> </text>
</a>
</g>
</g>
<!-- Node5&#45;&gt;Node3 -->
<g id="edge7" class="edge">
<title>Node5&#45;&gt;Node3</title>
<path fill="none" stroke="#404040" d="M46.76,-456.45C45.13,-421.42 44.15,-359.2 53.5,-307 55.03,-298.47 57.46,-289.54 60.17,-281.13"/>
<polygon fill="none" stroke="#404040" points="60.2,-281.02 58.37,-274.05 64.1,-269.67 65.94,-276.65 60.2,-281.02"/>
<text text-anchor="middle" x="94.5" y="-355.5" font-family="Helvetica,sans-Serif" font-size="10.00"> +serial_number</text>
</g>
<!-- Node5&#45;&gt;Node4 -->
<g id="edge4" class="edge">
<title>Node5&#45;&gt;Node4</title>
<path fill="none" stroke="#404040" d="M58.61,-456.34C63.41,-446.13 69.98,-435.08 78.5,-427 92.35,-413.86 101.13,-418.82 117.5,-409 123.12,-405.63 128.84,-401.87 134.44,-397.97"/>
<polygon fill="none" stroke="#404040" points="134.59,-397.85 137.13,-391.1 144.33,-390.85 141.8,-397.6 134.59,-397.85"/>
<text text-anchor="middle" x="133" y="-430" font-family="Helvetica,sans-Serif" font-size="10.00"> +automatically_clear</text>
</g>
<!-- Node6 -->
<g id="node6" class="node">
<title>Node6</title>
<g id="a_node6"><a xlink:title=" ">
<polygon fill="white" stroke="black" points="171.5,-456.5 171.5,-513.5 221.5,-513.5 221.5,-456.5 171.5,-456.5"/>
<text text-anchor="middle" x="196.5" y="-501.5" font-family="Helvetica,sans-Serif" font-size="10.00">int32_t</text>
<polyline fill="none" stroke="black" points="171.5,-494.5 221.5,-494.5 "/>
<text text-anchor="middle" x="196.5" y="-482.5" font-family="Helvetica,sans-Serif" font-size="10.00"> </text>
<polyline fill="none" stroke="black" points="171.5,-475.5 221.5,-475.5 "/>
<text text-anchor="middle" x="196.5" y="-463.5" font-family="Helvetica,sans-Serif" font-size="10.00"> </text>
</a>
</g>
</g>
<!-- Node6&#45;&gt;Node4 -->
<g id="edge5" class="edge">
<title>Node6&#45;&gt;Node4</title>
<path fill="none" stroke="#404040" d="M193.61,-456.26C192.53,-445.79 191.24,-433.42 189.96,-421.07"/>
<polygon fill="none" stroke="#404040" points="189.92,-420.74 185.32,-415.18 188.68,-408.8 193.28,-414.36 189.92,-420.74"/>
<text text-anchor="middle" x="209.5" y="-430" font-family="Helvetica,sans-Serif" font-size="10.00"> +type</text>
</g>
<!-- Node7 -->
<g id="node7" class="node">
<title>Node7</title>
<g id="a_node7"><a xlink:title=" ">
<polygon fill="white" stroke="black" points="239.5,-456.5 239.5,-513.5 277.5,-513.5 277.5,-456.5 239.5,-456.5"/>
<text text-anchor="middle" x="258.5" y="-501.5" font-family="Helvetica,sans-Serif" font-size="10.00">long</text>
<polyline fill="none" stroke="black" points="239.5,-494.5 277.5,-494.5 "/>
<text text-anchor="middle" x="258.5" y="-482.5" font-family="Helvetica,sans-Serif" font-size="10.00"> </text>
<polyline fill="none" stroke="black" points="239.5,-475.5 277.5,-475.5 "/>
<text text-anchor="middle" x="258.5" y="-463.5" font-family="Helvetica,sans-Serif" font-size="10.00"> </text>
</a>
</g>
</g>
<!-- Node7&#45;&gt;Node4 -->
<g id="edge6" class="edge">
<title>Node7&#45;&gt;Node4</title>
<path fill="none" stroke="#404040" d="M245.92,-456.31C241.35,-446.86 235.97,-436.32 230.5,-427 228.94,-424.35 227.32,-421.66 225.64,-418.97"/>
<polygon fill="none" stroke="#404040" points="225.47,-418.7 218.87,-415.79 219.01,-408.58 225.61,-411.49 225.47,-418.7"/>
<text text-anchor="middle" x="252" y="-430" font-family="Helvetica,sans-Serif" font-size="10.00"> +size</text>
</g>
</g>
</svg>
