<?xml version="1.0" encoding="UTF-8" standalone="no"?>
<!DOCTYPE svg PUBLIC "-//W3C//DTD SVG 1.1//EN"
 "http://www.w3.org/Graphics/SVG/1.1/DTD/svg11.dtd">
<!-- Generated by graphviz version 2.43.0 (0)
 -->
<!-- Title: EMC_JOG_CONT Pages: 1 -->
<!--zoomable 553 -->
<svg id="main" version="1.1" xmlns="http://www.w3.org/2000/svg" xmlns:xlink="http://www.w3.org/1999/xlink" xml:space="preserve" onload="init(evt)">
<style type="text/css"><![CDATA[
.edge:hover path { stroke: red; }
.edge:hover polygon { stroke: red; fill: red; }
]]></style>
<script type="text/javascript"><![CDATA[
var edges = document.getElementsByTagName('g');
if (edges && edges.length) {
  for (var i=0;i<edges.length;i++) {
    if (edges[i].id.substr(0,4)=='edge') {
      edges[i].setAttribute('class','edge');
    }
  }
}
]]></script>
        <defs>
                <circle id="rim" cx="0" cy="0" r="7"/>
                <circle id="rim2" cx="0" cy="0" r="3.5"/>
                <g id="zoomPlus">
                        <use xlink:href="#rim" fill="#404040">
                                <set attributeName="fill" to="#808080" begin="zoomplus.mouseover" end="zoomplus.mouseout"/>
                        </use>
                        <path d="M-4,0h8M0,-4v8" fill="none" stroke="white" stroke-width="1.5" pointer-events="none"/>
                </g>
                <g id="zoomMin">
                        <use xlink:href="#rim" fill="#404040">
                                <set attributeName="fill" to="#808080" begin="zoomminus.mouseover" end="zoomminus.mouseout"/>
                        </use>
                        <path d="M-4,0h8" fill="none" stroke="white" stroke-width="1.5" pointer-events="none"/>
                </g>
                <g id="dirArrow">
                        <path fill="none" stroke="white" stroke-width="1.5" d="M0,-3.0v7 M-2.5,-0.5L0,-3.0L2.5,-0.5"/>
                </g>
               <g id="resetDef">
                       <use xlink:href="#rim2" fill="#404040">
                               <set attributeName="fill" to="#808080" begin="reset.mouseover" end="reset.mouseout"/>
                       </use>
               </g>
        </defs>

<script type="text/javascript">
var viewWidth = 369;
var viewHeight = 553;
var sectionId = 'dynsection-1';
</script>
<script xlink:href="svgpan.js"/>
<svg id="graph" class="graph">
<g id="viewport">
<title>EMC_JOG_CONT</title>
<polygon fill="white" stroke="transparent" points="-4,4 -4,-549 365,-549 365,4 -4,4"/>
<!-- Node1 -->
<g id="node1" class="node">
<title>Node1</title>
<g id="a_node1"><a xlink:title=" ">
<polygon fill="#bfbfbf" stroke="black" points="40.5,-0.5 40.5,-68.5 153.5,-68.5 153.5,-0.5 40.5,-0.5"/>
<text text-anchor="middle" x="97" y="-56.5" font-family="Helvetica,sans-Serif" font-size="10.00">EMC_JOG_CONT</text>
<polyline fill="none" stroke="black" points="40.5,-49.5 153.5,-49.5 "/>
<text text-anchor="middle" x="97" y="-37.5" font-family="Helvetica,sans-Serif" font-size="10.00"> </text>
<polyline fill="none" stroke="black" points="40.5,-30.5 153.5,-30.5 "/>
<text text-anchor="start" x="48.5" y="-18.5" font-family="Helvetica,sans-Serif" font-size="10.00">+ EMC_JOG_CONT()</text>
<text text-anchor="start" x="48.5" y="-7.5" font-family="Helvetica,sans-Serif" font-size="10.00">+ update()</text>
</a>
</g>
</g>
<!-- Node2 -->
<g id="node2" class="node">
<title>Node2</title>
<g id="a_node2"><a xlink:href="classEMC__JOG__CMD__MSG.html" target="_top" xlink:title=" ">
<polygon fill="white" stroke="black" points="28.5,-116.5 28.5,-184.5 165.5,-184.5 165.5,-116.5 28.5,-116.5"/>
<text text-anchor="middle" x="97" y="-172.5" font-family="Helvetica,sans-Serif" font-size="10.00">EMC_JOG_CMD_MSG</text>
<polyline fill="none" stroke="black" points="28.5,-165.5 165.5,-165.5 "/>
<text text-anchor="middle" x="97" y="-153.5" font-family="Helvetica,sans-Serif" font-size="10.00"> </text>
<polyline fill="none" stroke="black" points="28.5,-146.5 165.5,-146.5 "/>
<text text-anchor="start" x="36.5" y="-134.5" font-family="Helvetica,sans-Serif" font-size="10.00">+ EMC_JOG_CMD_MSG()</text>
<text text-anchor="start" x="36.5" y="-123.5" font-family="Helvetica,sans-Serif" font-size="10.00">+ update()</text>
</a>
</g>
</g>
<!-- Node2&#45;&gt;Node1 -->
<g id="edge1" class="edge">
<title>Node2&#45;&gt;Node1</title>
<path fill="none" stroke="midnightblue" d="M97,-106.06C97,-93.64 97,-80.32 97,-68.62"/>
<polygon fill="none" stroke="midnightblue" points="93.5,-106.22 97,-116.22 100.5,-106.22 93.5,-106.22"/>
</g>
<!-- Node3 -->
<g id="node3" class="node">
<title>Node3</title>
<g id="a_node3"><a xlink:href="classRCS__CMD__MSG.html" target="_top" xlink:title=" ">
<polygon fill="white" stroke="black" points="119.5,-222.5 119.5,-279.5 230.5,-279.5 230.5,-222.5 119.5,-222.5"/>
<text text-anchor="middle" x="175" y="-267.5" font-family="Helvetica,sans-Serif" font-size="10.00">RCS_CMD_MSG</text>
<polyline fill="none" stroke="black" points="119.5,-260.5 230.5,-260.5 "/>
<text text-anchor="middle" x="175" y="-248.5" font-family="Helvetica,sans-Serif" font-size="10.00"> </text>
<polyline fill="none" stroke="black" points="119.5,-241.5 230.5,-241.5 "/>
<text text-anchor="start" x="127.5" y="-229.5" font-family="Helvetica,sans-Serif" font-size="10.00">+ RCS_CMD_MSG()</text>
</a>
</g>
</g>
<!-- Node3&#45;&gt;Node2 -->
<g id="edge2" class="edge">
<title>Node3&#45;&gt;Node2</title>
<path fill="none" stroke="midnightblue" d="M146.77,-214.35C139.08,-204.63 130.77,-194.15 123.19,-184.58"/>
<polygon fill="none" stroke="midnightblue" points="144.11,-216.63 153.07,-222.3 149.6,-212.29 144.11,-216.63"/>
</g>
<!-- Node4 -->
<g id="node4" class="node">
<title>Node4</title>
<g id="a_node4"><a xlink:href="classNMLmsg.html" target="_top" xlink:title=" ">
<polygon fill="white" stroke="black" points="275,-327.5 275,-428.5 353,-428.5 353,-327.5 275,-327.5"/>
<text text-anchor="middle" x="314" y="-416.5" font-family="Helvetica,sans-Serif" font-size="10.00">NMLmsg</text>
<polyline fill="none" stroke="black" points="275,-409.5 353,-409.5 "/>
<text text-anchor="middle" x="314" y="-397.5" font-family="Helvetica,sans-Serif" font-size="10.00"> </text>
<polyline fill="none" stroke="black" points="275,-390.5 353,-390.5 "/>
<text text-anchor="start" x="283" y="-378.5" font-family="Helvetica,sans-Serif" font-size="10.00">+ clear()</text>
<text text-anchor="start" x="283" y="-367.5" font-family="Helvetica,sans-Serif" font-size="10.00">+ update()</text>
<text text-anchor="start" x="283" y="-356.5" font-family="Helvetica,sans-Serif" font-size="10.00"># NMLmsg()</text>
<text text-anchor="start" x="283" y="-345.5" font-family="Helvetica,sans-Serif" font-size="10.00"># NMLmsg()</text>
<text text-anchor="start" x="283" y="-334.5" font-family="Helvetica,sans-Serif" font-size="10.00"># NMLmsg()</text>
</a>
</g>
</g>
<!-- Node4&#45;&gt;Node3 -->
<g id="edge3" class="edge">
<title>Node4&#45;&gt;Node3</title>
<path fill="none" stroke="midnightblue" d="M267.42,-332.86C265.26,-330.87 263.11,-328.91 261,-327 243.54,-311.16 223.73,-293.84 207.53,-279.84"/>
<polygon fill="none" stroke="midnightblue" points="265.08,-335.47 274.8,-339.69 269.84,-330.33 265.08,-335.47"/>
</g>
<!-- Node5 -->
<g id="node5" class="node">
<title>Node5</title>
<g id="a_node5"><a xlink:title=" ">
<polygon fill="white" stroke="black" points="116.5,-487.5 116.5,-544.5 145.5,-544.5 145.5,-487.5 116.5,-487.5"/>
<text text-anchor="middle" x="131" y="-532.5" font-family="Helvetica,sans-Serif" font-size="10.00">int</text>
<polyline fill="none" stroke="black" points="116.5,-525.5 145.5,-525.5 "/>
<text text-anchor="middle" x="131" y="-513.5" font-family="Helvetica,sans-Serif" font-size="10.00"> </text>
<polyline fill="none" stroke="black" points="116.5,-506.5 145.5,-506.5 "/>
<text text-anchor="middle" x="131" y="-494.5" font-family="Helvetica,sans-Serif" font-size="10.00"> </text>
</a>
</g>
</g>
<!-- Node5&#45;&gt;Node1 -->
<g id="edge9" class="edge">
<title>Node5&#45;&gt;Node1</title>
<path fill="none" stroke="#404040" d="M116.48,-508.48C82.37,-492.07 0,-445.55 0,-379 0,-379 0,-379 0,-149.5 0,-120.98 17.83,-95.96 38.2,-76.68"/>
<polygon fill="none" stroke="#404040" points="38.41,-76.49 40.22,-69.51 47.36,-68.51 45.55,-75.48 38.41,-76.49"/>
<text text-anchor="middle" x="29" y="-248.5" font-family="Helvetica,sans-Serif" font-size="10.00"> +jjogmode</text>
</g>
<!-- Node5&#45;&gt;Node2 -->
<g id="edge7" class="edge">
<title>Node5&#45;&gt;Node2</title>
<path fill="none" stroke="#404040" d="M121.05,-487.26C107.35,-446.34 84.64,-367.15 87,-298 88.16,-264.04 90.82,-225.74 93.11,-196.81"/>
<polygon fill="none" stroke="#404040" points="93.12,-196.59 89.62,-190.29 94.09,-184.63 97.6,-190.93 93.12,-196.59"/>
<text text-anchor="middle" x="124" y="-301" font-family="Helvetica,sans-Serif" font-size="10.00"> +joint_or_axis</text>
</g>
<!-- Node5&#45;&gt;Node3 -->
<g id="edge6" class="edge">
<title>Node5&#45;&gt;Node3</title>
<path fill="none" stroke="#404040" d="M135.63,-487.35C143.45,-440.59 159.32,-345.72 168.34,-291.8"/>
<polygon fill="none" stroke="#404040" points="168.39,-291.51 165.44,-284.93 170.37,-279.67 173.33,-286.25 168.39,-291.51"/>
<text text-anchor="middle" x="203" y="-375.5" font-family="Helvetica,sans-Serif" font-size="10.00"> +serial_number</text>
</g>
<!-- Node5&#45;&gt;Node4 -->
<g id="edge4" class="edge">
<title>Node5&#45;&gt;Node4</title>
<path fill="none" stroke="#404040" d="M145.75,-502.71C168.59,-483.71 210.27,-449.16 214,-447 233.34,-435.77 242.06,-440.9 261,-429 262.33,-428.17 263.65,-427.3 264.96,-426.4"/>
<polygon fill="none" stroke="#404040" points="265.25,-426.18 267.65,-419.38 274.85,-418.98 272.45,-425.78 265.25,-426.18"/>
<text text-anchor="middle" x="268.5" y="-461" font-family="Helvetica,sans-Serif" font-size="10.00"> +automatically_clear</text>
<text text-anchor="middle" x="268.5" y="-450" font-family="Helvetica,sans-Serif" font-size="10.00">+type</text>
</g>
<!-- Node6 -->
<g id="node6" class="node">
<title>Node6</title>
<g id="a_node6"><a xlink:title=" ">
<polygon fill="white" stroke="black" points="321,-487.5 321,-544.5 359,-544.5 359,-487.5 321,-487.5"/>
<text text-anchor="middle" x="340" y="-532.5" font-family="Helvetica,sans-Serif" font-size="10.00">long</text>
<polyline fill="none" stroke="black" points="321,-525.5 359,-525.5 "/>
<text text-anchor="middle" x="340" y="-513.5" font-family="Helvetica,sans-Serif" font-size="10.00"> </text>
<polyline fill="none" stroke="black" points="321,-506.5 359,-506.5 "/>
<text text-anchor="middle" x="340" y="-494.5" font-family="Helvetica,sans-Serif" font-size="10.00"> </text>
</a>
</g>
</g>
<!-- Node6&#45;&gt;Node4 -->
<g id="edge5" class="edge">
<title>Node6&#45;&gt;Node4</title>
<path fill="none" stroke="#404040" d="M334.74,-487.48C332.15,-473.93 328.91,-457 325.77,-440.58"/>
<polygon fill="none" stroke="#404040" points="325.77,-440.55 320.71,-435.41 323.51,-428.76 328.57,-433.91 325.77,-440.55"/>
<text text-anchor="middle" x="345.5" y="-455.5" font-family="Helvetica,sans-Serif" font-size="10.00"> +size</text>
</g>
<!-- Node7 -->
<g id="node7" class="node">
<title>Node7</title>
<g id="a_node7"><a xlink:title=" ">
<polygon fill="white" stroke="black" points="184,-122 184,-179 234,-179 234,-122 184,-122"/>
<text text-anchor="middle" x="209" y="-167" font-family="Helvetica,sans-Serif" font-size="10.00">double</text>
<polyline fill="none" stroke="black" points="184,-160 234,-160 "/>
<text text-anchor="middle" x="209" y="-148" font-family="Helvetica,sans-Serif" font-size="10.00"> </text>
<polyline fill="none" stroke="black" points="184,-141 234,-141 "/>
<text text-anchor="middle" x="209" y="-129" font-family="Helvetica,sans-Serif" font-size="10.00"> </text>
</a>
</g>
</g>
<!-- Node7&#45;&gt;Node1 -->
<g id="edge8" class="edge">
<title>Node7&#45;&gt;Node1</title>
<path fill="none" stroke="#404040" d="M183.87,-123.92C170.49,-110.31 153.71,-93.22 138.47,-77.71"/>
<polygon fill="none" stroke="#404040" points="138.12,-77.35 131.06,-75.88 129.71,-68.79 136.77,-70.27 138.12,-77.35"/>
<text text-anchor="middle" x="169.5" y="-90" font-family="Helvetica,sans-Serif" font-size="10.00"> +vel</text>
</g>
</g>
</svg>
        <g id="navigator" transform="translate(0 0)" fill="#404254">
                <rect fill="#f2f5e9" fill-opacity="0.5" stroke="#606060" stroke-width=".5" x="0" y="0" width="60" height="60"/>
                <use id="zoomplus" xlink:href="#zoomPlus" x="17" y="9" onmousedown="handleZoom(evt,'in')"/>
                <use id="zoomminus" xlink:href="#zoomMin" x="42" y="9" onmousedown="handleZoom(evt,'out')"/>
                <use id="reset" xlink:href="#resetDef" x="30" y="36" onmousedown="handleReset()"/>
                <g id="arrowUp" xlink:href="#dirArrow" transform="translate(30 24)" onmousedown="handlePan(0,-1)">
                  <use xlink:href="#rim" fill="#404040">
                        <set attributeName="fill" to="#808080" begin="arrowUp.mouseover" end="arrowUp.mouseout"/>
                  </use>
                  <path fill="none" stroke="white" stroke-width="1.5" d="M0,-3.0v7 M-2.5,-0.5L0,-3.0L2.5,-0.5"/>
                </g>
                <g id="arrowRight" xlink:href="#dirArrow" transform="rotate(90) translate(36 -43)" onmousedown="handlePan(1,0)">
                  <use xlink:href="#rim" fill="#404040">
                        <set attributeName="fill" to="#808080" begin="arrowRight.mouseover" end="arrowRight.mouseout"/>
                  </use>
                  <path fill="none" stroke="white" stroke-width="1.5" d="M0,-3.0v7 M-2.5,-0.5L0,-3.0L2.5,-0.5"/>
                </g>
                <g id="arrowDown" xlink:href="#dirArrow" transform="rotate(180) translate(-30 -48)" onmousedown="handlePan(0,1)">
                  <use xlink:href="#rim" fill="#404040">
                        <set attributeName="fill" to="#808080" begin="arrowDown.mouseover" end="arrowDown.mouseout"/>
                  </use>
                  <path fill="none" stroke="white" stroke-width="1.5" d="M0,-3.0v7 M-2.5,-0.5L0,-3.0L2.5,-0.5"/>
                </g>
                <g id="arrowLeft" xlink:href="#dirArrow" transform="rotate(270) translate(-36 17)" onmousedown="handlePan(-1,0)">
                  <use xlink:href="#rim" fill="#404040">
                        <set attributeName="fill" to="#808080" begin="arrowLeft.mouseover" end="arrowLeft.mouseout"/>
                  </use>
                  <path fill="none" stroke="white" stroke-width="1.5" d="M0,-3.0v7 M-2.5,-0.5L0,-3.0L2.5,-0.5"/>
                </g>
        </g>
        <svg viewBox="0 0 15 15" width="100%" height="30px" preserveAspectRatio="xMaxYMin meet">
         <g id="arrow_out" transform="scale(0.3 0.3)">
          <a xlink:href="classEMC__JOG__CONT__coll__graph_org.svg" target="_base">
           <rect id="button" ry="5" rx="5" y="6" x="6" height="38" width="38"
                fill="#f2f5e9" fill-opacity="0.5" stroke="#606060" stroke-width="1.0"/>
           <path id="arrow"
             d="M 11.500037,31.436501 C 11.940474,20.09759 22.043105,11.32322 32.158766,21.979434 L 37.068811,17.246167 C 37.068811,17.246167 37.088388,32 37.088388,32 L 22.160133,31.978069 C 22.160133,31.978069 26.997745,27.140456 26.997745,27.140456 C 18.528582,18.264221 13.291696,25.230495 11.500037,31.436501 z"
             style="fill:#404040;"/>
          </a>
         </g>
        </svg>
</svg>
