<?xml version="1.0" encoding="UTF-8" standalone="no"?>
<!DOCTYPE svg PUBLIC "-//W3C//DTD SVG 1.1//EN"
 "http://www.w3.org/Graphics/SVG/1.1/DTD/svg11.dtd">
<!-- Generated by graphviz version 2.43.0 (0)
 -->
<!-- Title: EMC_TOOL_STAT Pages: 1 -->
<svg width="734pt" height="607pt"
 viewBox="0.00 0.00 734.00 607.00" xmlns="http://www.w3.org/2000/svg" xmlns:xlink="http://www.w3.org/1999/xlink">
<g id="graph0" class="graph" transform="scale(1 1) rotate(0) translate(4 603)">
<title>EMC_TOOL_STAT</title>
<polygon fill="white" stroke="transparent" points="-4,4 -4,-603 730,-603 730,4 -4,4"/>
<!-- Node1 -->
<g id="node1" class="node">
<title>Node1</title>
<g id="a_node1"><a xlink:title=" ">
<polygon fill="#bfbfbf" stroke="black" points="329.5,-0.5 329.5,-79.5 446.5,-79.5 446.5,-0.5 329.5,-0.5"/>
<text text-anchor="middle" x="388" y="-67.5" font-family="Helvetica,sans-Serif" font-size="10.00">EMC_TOOL_STAT</text>
<polyline fill="none" stroke="black" points="329.5,-60.5 446.5,-60.5 "/>
<text text-anchor="middle" x="388" y="-48.5" font-family="Helvetica,sans-Serif" font-size="10.00"> </text>
<polyline fill="none" stroke="black" points="329.5,-41.5 446.5,-41.5 "/>
<text text-anchor="start" x="337.5" y="-29.5" font-family="Helvetica,sans-Serif" font-size="10.00">+ EMC_TOOL_STAT()</text>
<text text-anchor="start" x="337.5" y="-18.5" font-family="Helvetica,sans-Serif" font-size="10.00">+ update()</text>
<text text-anchor="start" x="337.5" y="-7.5" font-family="Helvetica,sans-Serif" font-size="10.00">+ operator=()</text>
</a>
</g>
</g>
<!-- Node2 -->
<g id="node2" class="node">
<title>Node2</title>
<g id="a_node2"><a xlink:href="classEMC__TOOL__STAT__MSG.html" target="_top" xlink:title=" ">
<polygon fill="white" stroke="black" points="192.5,-127.5 192.5,-195.5 337.5,-195.5 337.5,-127.5 192.5,-127.5"/>
<text text-anchor="middle" x="265" y="-183.5" font-family="Helvetica,sans-Serif" font-size="10.00">EMC_TOOL_STAT_MSG</text>
<polyline fill="none" stroke="black" points="192.5,-176.5 337.5,-176.5 "/>
<text text-anchor="middle" x="265" y="-164.5" font-family="Helvetica,sans-Serif" font-size="10.00"> </text>
<polyline fill="none" stroke="black" points="192.5,-157.5 337.5,-157.5 "/>
<text text-anchor="start" x="200.5" y="-145.5" font-family="Helvetica,sans-Serif" font-size="10.00">+ EMC_TOOL_STAT_MSG()</text>
<text text-anchor="start" x="200.5" y="-134.5" font-family="Helvetica,sans-Serif" font-size="10.00">+ update()</text>
</a>
</g>
</g>
<!-- Node2&#45;&gt;Node1 -->
<g id="edge1" class="edge">
<title>Node2&#45;&gt;Node1</title>
<path fill="none" stroke="midnightblue" d="M306.58,-120.11C320.04,-107.02 334.94,-92.55 348.27,-79.6"/>
<polygon fill="none" stroke="midnightblue" points="304,-117.73 299.26,-127.21 308.87,-122.75 304,-117.73"/>
</g>
<!-- Node3 -->
<g id="node3" class="node">
<title>Node3</title>
<g id="a_node3"><a xlink:href="classRCS__STAT__MSG.html" target="_top" xlink:title=" ">
<polygon fill="white" stroke="black" points="152.5,-243.5 152.5,-300.5 263.5,-300.5 263.5,-243.5 152.5,-243.5"/>
<text text-anchor="middle" x="208" y="-288.5" font-family="Helvetica,sans-Serif" font-size="10.00">RCS_STAT_MSG</text>
<polyline fill="none" stroke="black" points="152.5,-281.5 263.5,-281.5 "/>
<text text-anchor="middle" x="208" y="-269.5" font-family="Helvetica,sans-Serif" font-size="10.00"> </text>
<polyline fill="none" stroke="black" points="152.5,-262.5 263.5,-262.5 "/>
<text text-anchor="start" x="160.5" y="-250.5" font-family="Helvetica,sans-Serif" font-size="10.00">+ RCS_STAT_MSG()</text>
</a>
</g>
</g>
<!-- Node3&#45;&gt;Node2 -->
<g id="edge2" class="edge">
<title>Node3&#45;&gt;Node2</title>
<path fill="none" stroke="midnightblue" d="M227.2,-234.46C233.82,-221.86 241.19,-207.82 247.65,-195.52"/>
<polygon fill="none" stroke="midnightblue" points="224.08,-232.86 222.53,-243.34 230.28,-236.12 224.08,-232.86"/>
</g>
<!-- Node4 -->
<g id="node4" class="node">
<title>Node4</title>
<g id="a_node4"><a xlink:href="classNMLmsg.html" target="_top" xlink:title=" ">
<polygon fill="white" stroke="black" points="34,-370.5 34,-471.5 112,-471.5 112,-370.5 34,-370.5"/>
<text text-anchor="middle" x="73" y="-459.5" font-family="Helvetica,sans-Serif" font-size="10.00">NMLmsg</text>
<polyline fill="none" stroke="black" points="34,-452.5 112,-452.5 "/>
<text text-anchor="middle" x="73" y="-440.5" font-family="Helvetica,sans-Serif" font-size="10.00"> </text>
<polyline fill="none" stroke="black" points="34,-433.5 112,-433.5 "/>
<text text-anchor="start" x="42" y="-421.5" font-family="Helvetica,sans-Serif" font-size="10.00">+ clear()</text>
<text text-anchor="start" x="42" y="-410.5" font-family="Helvetica,sans-Serif" font-size="10.00">+ update()</text>
<text text-anchor="start" x="42" y="-399.5" font-family="Helvetica,sans-Serif" font-size="10.00"># NMLmsg()</text>
<text text-anchor="start" x="42" y="-388.5" font-family="Helvetica,sans-Serif" font-size="10.00"># NMLmsg()</text>
<text text-anchor="start" x="42" y="-377.5" font-family="Helvetica,sans-Serif" font-size="10.00"># NMLmsg()</text>
</a>
</g>
</g>
<!-- Node4&#45;&gt;Node3 -->
<g id="edge3" class="edge">
<title>Node4&#45;&gt;Node3</title>
<path fill="none" stroke="midnightblue" d="M118.85,-370.08C140.18,-346.85 164.74,-320.11 182.67,-300.58"/>
<polygon fill="none" stroke="midnightblue" points="116.23,-367.75 112.05,-377.48 121.39,-372.48 116.23,-367.75"/>
</g>
<!-- Node5 -->
<g id="node5" class="node">
<title>Node5</title>
<g id="a_node5"><a xlink:title=" ">
<polygon fill="white" stroke="black" points="277.5,-541.5 277.5,-598.5 306.5,-598.5 306.5,-541.5 277.5,-541.5"/>
<text text-anchor="middle" x="292" y="-586.5" font-family="Helvetica,sans-Serif" font-size="10.00">int</text>
<polyline fill="none" stroke="black" points="277.5,-579.5 306.5,-579.5 "/>
<text text-anchor="middle" x="292" y="-567.5" font-family="Helvetica,sans-Serif" font-size="10.00"> </text>
<polyline fill="none" stroke="black" points="277.5,-560.5 306.5,-560.5 "/>
<text text-anchor="middle" x="292" y="-548.5" font-family="Helvetica,sans-Serif" font-size="10.00"> </text>
</a>
</g>
</g>
<!-- Node5&#45;&gt;Node1 -->
<g id="edge8" class="edge">
<title>Node5&#45;&gt;Node1</title>
<path fill="none" stroke="#404040" d="M306.58,-557.36C333.44,-534.51 388,-480.83 388,-422 388,-422 388,-422 388,-160.5 388,-137.95 388,-113.02 388,-91.78"/>
<polygon fill="none" stroke="#404040" points="388,-91.75 384,-85.75 388,-79.75 392,-85.75 388,-91.75"/>
<text text-anchor="middle" x="430.5" y="-280.5" font-family="Helvetica,sans-Serif" font-size="10.00"> +pocketPrepped</text>
<text text-anchor="middle" x="430.5" y="-269.5" font-family="Helvetica,sans-Serif" font-size="10.00">+toolFromPocket</text>
<text text-anchor="middle" x="430.5" y="-258.5" font-family="Helvetica,sans-Serif" font-size="10.00">+toolInSpindle</text>
</g>
<!-- Node5&#45;&gt;Node3 -->
<g id="edge6" class="edge">
<title>Node5&#45;&gt;Node3</title>
<path fill="none" stroke="#404040" d="M277.22,-558.18C256.64,-542.08 220.29,-509.66 206,-472 186.17,-419.75 192.2,-354.07 199.33,-312.8"/>
<polygon fill="none" stroke="#404040" points="199.36,-312.62 196.52,-305.99 201.55,-300.82 204.39,-307.45 199.36,-312.62"/>
<text text-anchor="middle" x="259.5" y="-446" font-family="Helvetica,sans-Serif" font-size="10.00"> +command_type</text>
<text text-anchor="middle" x="259.5" y="-435" font-family="Helvetica,sans-Serif" font-size="10.00">+echo_serial_number</text>
<text text-anchor="middle" x="259.5" y="-424" font-family="Helvetica,sans-Serif" font-size="10.00">+line</text>
<text text-anchor="middle" x="259.5" y="-413" font-family="Helvetica,sans-Serif" font-size="10.00">+source_line</text>
<text text-anchor="middle" x="259.5" y="-402" font-family="Helvetica,sans-Serif" font-size="10.00">+state</text>
<text text-anchor="middle" x="259.5" y="-391" font-family="Helvetica,sans-Serif" font-size="10.00">+status</text>
</g>
<!-- Node5&#45;&gt;Node4 -->
<g id="edge4" class="edge">
<title>Node5&#45;&gt;Node4</title>
<path fill="none" stroke="#404040" d="M277.2,-568.2C232.43,-565.45 99.98,-554.72 74,-523 65.06,-512.09 61.64,-498.06 61.15,-483.96"/>
<polygon fill="none" stroke="#404040" points="61.16,-483.61 57.29,-477.53 61.42,-471.62 65.29,-477.7 61.16,-483.61"/>
<text text-anchor="middle" x="128.5" y="-509.5" font-family="Helvetica,sans-Serif" font-size="10.00"> +automatically_clear</text>
<text text-anchor="middle" x="128.5" y="-498.5" font-family="Helvetica,sans-Serif" font-size="10.00">+type</text>
</g>
<!-- Node8 -->
<g id="node8" class="node">
<title>Node8</title>
<g id="a_node8"><a xlink:href="structCANON__TOOL__TABLE.html" target="_top" xlink:title=" ">
<polygon fill="white" stroke="black" points="474.5,-133 474.5,-190 593.5,-190 593.5,-133 474.5,-133"/>
<text text-anchor="middle" x="534" y="-178" font-family="Helvetica,sans-Serif" font-size="10.00">CANON_TOOL_TABLE</text>
<polyline fill="none" stroke="black" points="474.5,-171 593.5,-171 "/>
<text text-anchor="middle" x="534" y="-159" font-family="Helvetica,sans-Serif" font-size="10.00"> </text>
<polyline fill="none" stroke="black" points="474.5,-152 593.5,-152 "/>
<text text-anchor="middle" x="534" y="-140" font-family="Helvetica,sans-Serif" font-size="10.00"> </text>
</a>
</g>
</g>
<!-- Node5&#45;&gt;Node8 -->
<g id="edge10" class="edge">
<title>Node5&#45;&gt;Node8</title>
<path fill="none" stroke="#404040" d="M306.58,-566.74C329.88,-562.38 375.54,-550.68 402,-523 489.98,-430.96 520.16,-275.55 529.81,-202.59"/>
<polygon fill="none" stroke="#404040" points="529.85,-202.28 526.62,-195.83 531.33,-190.37 534.56,-196.82 529.85,-202.28"/>
<text text-anchor="middle" x="537.5" y="-344" font-family="Helvetica,sans-Serif" font-size="10.00"> +orientation</text>
<text text-anchor="middle" x="537.5" y="-333" font-family="Helvetica,sans-Serif" font-size="10.00">+pocketno</text>
<text text-anchor="middle" x="537.5" y="-322" font-family="Helvetica,sans-Serif" font-size="10.00">+toolno</text>
</g>
<!-- Node6 -->
<g id="node6" class="node">
<title>Node6</title>
<g id="a_node6"><a xlink:title=" ">
<polygon fill="white" stroke="black" points="0,-541.5 0,-598.5 38,-598.5 38,-541.5 0,-541.5"/>
<text text-anchor="middle" x="19" y="-586.5" font-family="Helvetica,sans-Serif" font-size="10.00">long</text>
<polyline fill="none" stroke="black" points="0,-579.5 38,-579.5 "/>
<text text-anchor="middle" x="19" y="-567.5" font-family="Helvetica,sans-Serif" font-size="10.00"> </text>
<polyline fill="none" stroke="black" points="0,-560.5 38,-560.5 "/>
<text text-anchor="middle" x="19" y="-548.5" font-family="Helvetica,sans-Serif" font-size="10.00"> </text>
</a>
</g>
</g>
<!-- Node6&#45;&gt;Node4 -->
<g id="edge5" class="edge">
<title>Node6&#45;&gt;Node4</title>
<path fill="none" stroke="#404040" d="M15.09,-541.19C13.95,-525.7 14.28,-506.31 20,-490 21.91,-484.55 24.45,-479.2 27.39,-474.04"/>
<polygon fill="none" stroke="#404040" points="27.48,-473.89 27.31,-466.68 33.89,-463.74 34.07,-470.95 27.48,-473.89"/>
<text text-anchor="middle" x="35.5" y="-504" font-family="Helvetica,sans-Serif" font-size="10.00"> +size</text>
</g>
<!-- Node7 -->
<g id="node7" class="node">
<title>Node7</title>
<g id="a_node7"><a xlink:title=" ">
<polygon fill="white" stroke="black" points="322,-392.5 322,-449.5 360,-449.5 360,-392.5 322,-392.5"/>
<text text-anchor="middle" x="341" y="-437.5" font-family="Helvetica,sans-Serif" font-size="10.00">char</text>
<polyline fill="none" stroke="black" points="322,-430.5 360,-430.5 "/>
<text text-anchor="middle" x="341" y="-418.5" font-family="Helvetica,sans-Serif" font-size="10.00"> </text>
<polyline fill="none" stroke="black" points="322,-411.5 360,-411.5 "/>
<text text-anchor="middle" x="341" y="-399.5" font-family="Helvetica,sans-Serif" font-size="10.00"> </text>
</a>
</g>
</g>
<!-- Node7&#45;&gt;Node3 -->
<g id="edge7" class="edge">
<title>Node7&#45;&gt;Node3</title>
<path fill="none" stroke="#404040" d="M324.22,-392.25C319.3,-384.79 313.71,-376.89 308,-370 290.1,-348.39 267.88,-326.45 248.94,-308.91"/>
<polygon fill="none" stroke="#404040" points="248.79,-308.78 241.67,-307.68 239.94,-300.68 247.07,-301.77 248.79,-308.78"/>
<text text-anchor="middle" x="322" y="-333" font-family="Helvetica,sans-Serif" font-size="10.00"> +source_file</text>
</g>
<!-- Node8&#45;&gt;Node1 -->
<g id="edge9" class="edge">
<title>Node8&#45;&gt;Node1</title>
<path fill="none" stroke="#404040" d="M500.14,-132.78C483.64,-119.28 463.34,-102.67 444.58,-87.31"/>
<polygon fill="none" stroke="#404040" points="444.51,-87.25 437.34,-86.55 435.23,-79.65 442.4,-80.36 444.51,-87.25"/>
<text text-anchor="middle" x="515" y="-101" font-family="Helvetica,sans-Serif" font-size="10.00"> +toolTableCurrent</text>
</g>
<!-- Node9 -->
<g id="node9" class="node">
<title>Node9</title>
<g id="a_node9"><a xlink:href="structEmcPose.html" target="_top" xlink:title=" ">
<polygon fill="white" stroke="black" points="558.5,-243.5 558.5,-300.5 619.5,-300.5 619.5,-243.5 558.5,-243.5"/>
<text text-anchor="middle" x="589" y="-288.5" font-family="Helvetica,sans-Serif" font-size="10.00">EmcPose</text>
<polyline fill="none" stroke="black" points="558.5,-281.5 619.5,-281.5 "/>
<text text-anchor="middle" x="589" y="-269.5" font-family="Helvetica,sans-Serif" font-size="10.00"> </text>
<polyline fill="none" stroke="black" points="558.5,-262.5 619.5,-262.5 "/>
<text text-anchor="middle" x="589" y="-250.5" font-family="Helvetica,sans-Serif" font-size="10.00"> </text>
</a>
</g>
</g>
<!-- Node9&#45;&gt;Node8 -->
<g id="edge11" class="edge">
<title>Node9&#45;&gt;Node8</title>
<path fill="none" stroke="#404040" d="M574.98,-243.34C568.45,-230.46 560.57,-214.92 553.48,-200.92"/>
<polygon fill="none" stroke="#404040" points="553.42,-200.81 547.14,-197.27 548,-190.11 554.28,-193.65 553.42,-200.81"/>
<text text-anchor="middle" x="584" y="-217" font-family="Helvetica,sans-Serif" font-size="10.00"> +offset</text>
</g>
<!-- Node10 -->
<g id="node10" class="node">
<title>Node10</title>
<g id="a_node10"><a xlink:href="structPmCartesian.html" target="_top" xlink:title=" ">
<polygon fill="white" stroke="black" points="529.5,-392.5 529.5,-449.5 608.5,-449.5 608.5,-392.5 529.5,-392.5"/>
<text text-anchor="middle" x="569" y="-437.5" font-family="Helvetica,sans-Serif" font-size="10.00">PmCartesian</text>
<polyline fill="none" stroke="black" points="529.5,-430.5 608.5,-430.5 "/>
<text text-anchor="middle" x="569" y="-418.5" font-family="Helvetica,sans-Serif" font-size="10.00"> </text>
<polyline fill="none" stroke="black" points="529.5,-411.5 608.5,-411.5 "/>
<text text-anchor="middle" x="569" y="-399.5" font-family="Helvetica,sans-Serif" font-size="10.00"> </text>
</a>
</g>
</g>
<!-- Node10&#45;&gt;Node9 -->
<g id="edge12" class="edge">
<title>Node10&#45;&gt;Node9</title>
<path fill="none" stroke="#404040" d="M572.76,-392.35C575.82,-369.87 580.18,-337.85 583.61,-312.64"/>
<polygon fill="none" stroke="#404040" points="583.64,-312.42 580.48,-305.93 585.26,-300.53 588.41,-307.01 583.64,-312.42"/>
<text text-anchor="middle" x="597.5" y="-333" font-family="Helvetica,sans-Serif" font-size="10.00"> +tran</text>
</g>
<!-- Node11 -->
<g id="node11" class="node">
<title>Node11</title>
<g id="a_node11"><a xlink:title=" ">
<polygon fill="white" stroke="black" points="620,-541.5 620,-598.5 670,-598.5 670,-541.5 620,-541.5"/>
<text text-anchor="middle" x="645" y="-586.5" font-family="Helvetica,sans-Serif" font-size="10.00">double</text>
<polyline fill="none" stroke="black" points="620,-579.5 670,-579.5 "/>
<text text-anchor="middle" x="645" y="-567.5" font-family="Helvetica,sans-Serif" font-size="10.00"> </text>
<polyline fill="none" stroke="black" points="620,-560.5 670,-560.5 "/>
<text text-anchor="middle" x="645" y="-548.5" font-family="Helvetica,sans-Serif" font-size="10.00"> </text>
</a>
</g>
</g>
<!-- Node11&#45;&gt;Node8 -->
<g id="edge15" class="edge">
<title>Node11&#45;&gt;Node8</title>
<path fill="none" stroke="#404040" d="M654.25,-541.48C656.03,-535.44 657.73,-529.05 659,-523 663.67,-500.66 663.66,-494.78 665,-472 671.03,-369.15 673.95,-335.7 629,-243 620.49,-225.45 606.18,-210.27 591.21,-197.97"/>
<polygon fill="none" stroke="#404040" points="590.81,-197.66 583.62,-197.14 581.33,-190.31 588.52,-190.82 590.81,-197.66"/>
<text text-anchor="middle" x="695.5" y="-344" font-family="Helvetica,sans-Serif" font-size="10.00"> +backangle</text>
<text text-anchor="middle" x="695.5" y="-333" font-family="Helvetica,sans-Serif" font-size="10.00">+diameter</text>
<text text-anchor="middle" x="695.5" y="-322" font-family="Helvetica,sans-Serif" font-size="10.00">+frontangle</text>
</g>
<!-- Node11&#45;&gt;Node9 -->
<g id="edge14" class="edge">
<title>Node11&#45;&gt;Node9</title>
<path fill="none" stroke="#404040" d="M645.75,-541.15C646.17,-494.06 643.4,-396.29 617,-319 616.14,-316.48 615.13,-313.96 614,-311.46"/>
<polygon fill="none" stroke="#404040" points="613.99,-311.43 607.69,-307.92 608.51,-300.75 614.81,-304.27 613.99,-311.43"/>
<text text-anchor="middle" x="652" y="-446" font-family="Helvetica,sans-Serif" font-size="10.00"> +a</text>
<text text-anchor="middle" x="652" y="-435" font-family="Helvetica,sans-Serif" font-size="10.00">+b</text>
<text text-anchor="middle" x="652" y="-424" font-family="Helvetica,sans-Serif" font-size="10.00">+c</text>
<text text-anchor="middle" x="652" y="-413" font-family="Helvetica,sans-Serif" font-size="10.00">+u</text>
<text text-anchor="middle" x="652" y="-402" font-family="Helvetica,sans-Serif" font-size="10.00">+v</text>
<text text-anchor="middle" x="652" y="-391" font-family="Helvetica,sans-Serif" font-size="10.00">+w</text>
</g>
<!-- Node11&#45;&gt;Node10 -->
<g id="edge13" class="edge">
<title>Node11&#45;&gt;Node10</title>
<path fill="none" stroke="#404040" d="M624.46,-541.35C620.44,-535.43 616.42,-529.12 613,-523 601.96,-503.23 591.71,-480.13 583.9,-461.02"/>
<polygon fill="none" stroke="#404040" points="583.82,-460.84 577.88,-456.76 579.36,-449.71 585.3,-453.79 583.82,-460.84"/>
<text text-anchor="middle" x="622" y="-515" font-family="Helvetica,sans-Serif" font-size="10.00"> +x</text>
<text text-anchor="middle" x="622" y="-504" font-family="Helvetica,sans-Serif" font-size="10.00">+y</text>
<text text-anchor="middle" x="622" y="-493" font-family="Helvetica,sans-Serif" font-size="10.00">+z</text>
</g>
</g>
</svg>
