<?xml version="1.0" encoding="UTF-8" standalone="no"?>
<!DOCTYPE svg PUBLIC "-//W3C//DTD SVG 1.1//EN"
 "http://www.w3.org/Graphics/SVG/1.1/DTD/svg11.dtd">
<!-- Generated by graphviz version 2.43.0 (0)
 -->
<!-- Title: EMC_SPINDLE_WAIT_ORIENT_COMPLETE Pages: 1 -->
<svg width="176pt" height="469pt"
 viewBox="0.00 0.00 176.00 469.00" xmlns="http://www.w3.org/2000/svg" xmlns:xlink="http://www.w3.org/1999/xlink">
<g id="graph0" class="graph" transform="scale(1 1) rotate(0) translate(4 465)">
<title>EMC_SPINDLE_WAIT_ORIENT_COMPLETE</title>
<polygon fill="white" stroke="transparent" points="-4,4 -4,-465 172,-465 172,4 -4,4"/>
<!-- Node1 -->
<g id="node1" class="node">
<title>Node1</title>
<g id="a_node1"><a xlink:title=" ">
<polygon fill="#bfbfbf" stroke="black" points="0,-0.5 0,-101.5 168,-101.5 168,-0.5 0,-0.5"/>
<text text-anchor="start" x="8" y="-89.5" font-family="Helvetica,sans-Serif" font-size="10.00">EMC_SPINDLE_WAIT_ORIENT</text>
<text text-anchor="middle" x="84" y="-78.5" font-family="Helvetica,sans-Serif" font-size="10.00">_COMPLETE</text>
<polyline fill="none" stroke="black" points="0,-71.5 168,-71.5 "/>
<text text-anchor="start" x="8" y="-59.5" font-family="Helvetica,sans-Serif" font-size="10.00">+ spindle</text>
<text text-anchor="start" x="8" y="-48.5" font-family="Helvetica,sans-Serif" font-size="10.00">+ timeout</text>
<polyline fill="none" stroke="black" points="0,-41.5 168,-41.5 "/>
<text text-anchor="start" x="8" y="-29.5" font-family="Helvetica,sans-Serif" font-size="10.00">+ EMC_SPINDLE_WAIT_ORIENT</text>
<text text-anchor="start" x="8" y="-18.5" font-family="Helvetica,sans-Serif" font-size="10.00">_COMPLETE()</text>
<text text-anchor="start" x="8" y="-7.5" font-family="Helvetica,sans-Serif" font-size="10.00">+ update()</text>
</a>
</g>
</g>
<!-- Node2 -->
<g id="node2" class="node">
<title>Node2</title>
<g id="a_node2"><a xlink:href="classEMC__SPINDLE__CMD__MSG.html" target="_top" xlink:title=" ">
<polygon fill="white" stroke="black" points="4,-138.5 4,-206.5 164,-206.5 164,-138.5 4,-138.5"/>
<text text-anchor="middle" x="84" y="-194.5" font-family="Helvetica,sans-Serif" font-size="10.00">EMC_SPINDLE_CMD_MSG</text>
<polyline fill="none" stroke="black" points="4,-187.5 164,-187.5 "/>
<text text-anchor="start" x="12" y="-175.5" font-family="Helvetica,sans-Serif" font-size="10.00">+ spindle</text>
<polyline fill="none" stroke="black" points="4,-168.5 164,-168.5 "/>
<text text-anchor="start" x="12" y="-156.5" font-family="Helvetica,sans-Serif" font-size="10.00">+ EMC_SPINDLE_CMD_MSG()</text>
<text text-anchor="start" x="12" y="-145.5" font-family="Helvetica,sans-Serif" font-size="10.00">+ update()</text>
</a>
</g>
</g>
<!-- Node2&#45;&gt;Node1 -->
<g id="edge1" class="edge">
<title>Node2&#45;&gt;Node1</title>
<path fill="none" stroke="midnightblue" d="M84,-128.05C84,-119.47 84,-110.41 84,-101.65"/>
<polygon fill="none" stroke="midnightblue" points="80.5,-128.21 84,-138.21 87.5,-128.21 80.5,-128.21"/>
</g>
<!-- Node3 -->
<g id="node3" class="node">
<title>Node3</title>
<g id="a_node3"><a xlink:href="classRCS__CMD__MSG.html" target="_top" xlink:title=" ">
<polygon fill="white" stroke="black" points="28.5,-243.5 28.5,-300.5 139.5,-300.5 139.5,-243.5 28.5,-243.5"/>
<text text-anchor="middle" x="84" y="-288.5" font-family="Helvetica,sans-Serif" font-size="10.00">RCS_CMD_MSG</text>
<polyline fill="none" stroke="black" points="28.5,-281.5 139.5,-281.5 "/>
<text text-anchor="start" x="36.5" y="-269.5" font-family="Helvetica,sans-Serif" font-size="10.00">+ serial_number</text>
<polyline fill="none" stroke="black" points="28.5,-262.5 139.5,-262.5 "/>
<text text-anchor="start" x="36.5" y="-250.5" font-family="Helvetica,sans-Serif" font-size="10.00">+ RCS_CMD_MSG()</text>
</a>
</g>
</g>
<!-- Node3&#45;&gt;Node2 -->
<g id="edge2" class="edge">
<title>Node3&#45;&gt;Node2</title>
<path fill="none" stroke="midnightblue" d="M84,-233.06C84,-224.39 84,-215.24 84,-206.79"/>
<polygon fill="none" stroke="midnightblue" points="80.5,-233.32 84,-243.32 87.5,-233.32 80.5,-233.32"/>
</g>
<!-- Node4 -->
<g id="node4" class="node">
<title>Node4</title>
<g id="a_node4"><a xlink:href="classNMLmsg.html" target="_top" xlink:title=" ">
<polygon fill="white" stroke="black" points="21.5,-337.5 21.5,-460.5 146.5,-460.5 146.5,-337.5 21.5,-337.5"/>
<text text-anchor="middle" x="84" y="-448.5" font-family="Helvetica,sans-Serif" font-size="10.00">NMLmsg</text>
<polyline fill="none" stroke="black" points="21.5,-441.5 146.5,-441.5 "/>
<text text-anchor="start" x="29.5" y="-429.5" font-family="Helvetica,sans-Serif" font-size="10.00">+ type</text>
<text text-anchor="start" x="29.5" y="-418.5" font-family="Helvetica,sans-Serif" font-size="10.00">+ size</text>
<text text-anchor="start" x="29.5" y="-407.5" font-family="Helvetica,sans-Serif" font-size="10.00">+ automatically_clear</text>
<polyline fill="none" stroke="black" points="21.5,-400.5 146.5,-400.5 "/>
<text text-anchor="start" x="29.5" y="-388.5" font-family="Helvetica,sans-Serif" font-size="10.00">+ clear()</text>
<text text-anchor="start" x="29.5" y="-377.5" font-family="Helvetica,sans-Serif" font-size="10.00">+ update()</text>
<text text-anchor="start" x="29.5" y="-366.5" font-family="Helvetica,sans-Serif" font-size="10.00"># NMLmsg()</text>
<text text-anchor="start" x="29.5" y="-355.5" font-family="Helvetica,sans-Serif" font-size="10.00"># NMLmsg()</text>
<text text-anchor="start" x="29.5" y="-344.5" font-family="Helvetica,sans-Serif" font-size="10.00"># NMLmsg()</text>
</a>
</g>
</g>
<!-- Node4&#45;&gt;Node3 -->
<g id="edge3" class="edge">
<title>Node4&#45;&gt;Node3</title>
<path fill="none" stroke="midnightblue" d="M84,-327.14C84,-317.8 84,-308.71 84,-300.74"/>
<polygon fill="none" stroke="midnightblue" points="80.5,-327.33 84,-337.33 87.5,-327.33 80.5,-327.33"/>
</g>
</g>
</svg>
