<?xml version="1.0" encoding="UTF-8" standalone="no"?>
<!DOCTYPE svg PUBLIC "-//W3C//DTD SVG 1.1//EN"
 "http://www.w3.org/Graphics/SVG/1.1/DTD/svg11.dtd">
<!-- Generated by graphviz version 2.43.0 (0)
 -->
<!-- Title: EMC_TASK_CMD_MSG Pages: 1 -->
<svg width="226pt" height="427pt"
 viewBox="0.00 0.00 225.50 427.00" xmlns="http://www.w3.org/2000/svg" xmlns:xlink="http://www.w3.org/1999/xlink">
<g id="graph0" class="graph" transform="scale(1 1) rotate(0) translate(4 423)">
<title>EMC_TASK_CMD_MSG</title>
<polygon fill="white" stroke="transparent" points="-4,4 -4,-423 221.5,-423 221.5,4 -4,4"/>
<!-- Node1 -->
<g id="node1" class="node">
<title>Node1</title>
<g id="a_node1"><a xlink:title=" ">
<polygon fill="#bfbfbf" stroke="black" points="0,-0.5 0,-68.5 143,-68.5 143,-0.5 0,-0.5"/>
<text text-anchor="middle" x="71.5" y="-56.5" font-family="Helvetica,sans-Serif" font-size="10.00">EMC_TASK_CMD_MSG</text>
<polyline fill="none" stroke="black" points="0,-49.5 143,-49.5 "/>
<text text-anchor="middle" x="71.5" y="-37.5" font-family="Helvetica,sans-Serif" font-size="10.00"> </text>
<polyline fill="none" stroke="black" points="0,-30.5 143,-30.5 "/>
<text text-anchor="start" x="8" y="-18.5" font-family="Helvetica,sans-Serif" font-size="10.00">+ EMC_TASK_CMD_MSG()</text>
<text text-anchor="start" x="8" y="-7.5" font-family="Helvetica,sans-Serif" font-size="10.00">+ update()</text>
</a>
</g>
</g>
<!-- Node2 -->
<g id="node2" class="node">
<title>Node2</title>
<g id="a_node2"><a xlink:href="classRCS__CMD__MSG.html" target="_top" xlink:title=" ">
<polygon fill="white" stroke="black" points="16,-106.5 16,-163.5 127,-163.5 127,-106.5 16,-106.5"/>
<text text-anchor="middle" x="71.5" y="-151.5" font-family="Helvetica,sans-Serif" font-size="10.00">RCS_CMD_MSG</text>
<polyline fill="none" stroke="black" points="16,-144.5 127,-144.5 "/>
<text text-anchor="middle" x="71.5" y="-132.5" font-family="Helvetica,sans-Serif" font-size="10.00"> </text>
<polyline fill="none" stroke="black" points="16,-125.5 127,-125.5 "/>
<text text-anchor="start" x="24" y="-113.5" font-family="Helvetica,sans-Serif" font-size="10.00">+ RCS_CMD_MSG()</text>
</a>
</g>
</g>
<!-- Node2&#45;&gt;Node1 -->
<g id="edge1" class="edge">
<title>Node2&#45;&gt;Node1</title>
<path fill="none" stroke="midnightblue" d="M71.5,-96.01C71.5,-86.96 71.5,-77.38 71.5,-68.58"/>
<polygon fill="none" stroke="midnightblue" points="68,-96.3 71.5,-106.3 75,-96.3 68,-96.3"/>
</g>
<!-- Node3 -->
<g id="node3" class="node">
<title>Node3</title>
<g id="a_node3"><a xlink:href="classNMLmsg.html" target="_top" xlink:title=" ">
<polygon fill="white" stroke="black" points="130.5,-201.5 130.5,-302.5 208.5,-302.5 208.5,-201.5 130.5,-201.5"/>
<text text-anchor="middle" x="169.5" y="-290.5" font-family="Helvetica,sans-Serif" font-size="10.00">NMLmsg</text>
<polyline fill="none" stroke="black" points="130.5,-283.5 208.5,-283.5 "/>
<text text-anchor="middle" x="169.5" y="-271.5" font-family="Helvetica,sans-Serif" font-size="10.00"> </text>
<polyline fill="none" stroke="black" points="130.5,-264.5 208.5,-264.5 "/>
<text text-anchor="start" x="138.5" y="-252.5" font-family="Helvetica,sans-Serif" font-size="10.00">+ clear()</text>
<text text-anchor="start" x="138.5" y="-241.5" font-family="Helvetica,sans-Serif" font-size="10.00">+ update()</text>
<text text-anchor="start" x="138.5" y="-230.5" font-family="Helvetica,sans-Serif" font-size="10.00"># NMLmsg()</text>
<text text-anchor="start" x="138.5" y="-219.5" font-family="Helvetica,sans-Serif" font-size="10.00"># NMLmsg()</text>
<text text-anchor="start" x="138.5" y="-208.5" font-family="Helvetica,sans-Serif" font-size="10.00"># NMLmsg()</text>
</a>
</g>
</g>
<!-- Node3&#45;&gt;Node2 -->
<g id="edge2" class="edge">
<title>Node3&#45;&gt;Node2</title>
<path fill="none" stroke="midnightblue" d="M123.98,-197.58C114.01,-185.88 103.84,-173.95 95.14,-163.75"/>
<polygon fill="none" stroke="midnightblue" points="121.34,-199.88 130.49,-205.22 126.66,-195.34 121.34,-199.88"/>
</g>
<!-- Node4 -->
<g id="node4" class="node">
<title>Node4</title>
<g id="a_node4"><a xlink:title=" ">
<polygon fill="white" stroke="black" points="33,-361.5 33,-418.5 62,-418.5 62,-361.5 33,-361.5"/>
<text text-anchor="middle" x="47.5" y="-406.5" font-family="Helvetica,sans-Serif" font-size="10.00">int</text>
<polyline fill="none" stroke="black" points="33,-399.5 62,-399.5 "/>
<text text-anchor="middle" x="47.5" y="-387.5" font-family="Helvetica,sans-Serif" font-size="10.00"> </text>
<polyline fill="none" stroke="black" points="33,-380.5 62,-380.5 "/>
<text text-anchor="middle" x="47.5" y="-368.5" font-family="Helvetica,sans-Serif" font-size="10.00"> </text>
</a>
</g>
</g>
<!-- Node4&#45;&gt;Node2 -->
<g id="edge5" class="edge">
<title>Node4&#45;&gt;Node2</title>
<path fill="none" stroke="#404040" d="M41.77,-361.49C35.08,-324.47 26.5,-256.84 39.5,-201 41.56,-192.16 45,-183.13 48.88,-174.73"/>
<polygon fill="none" stroke="#404040" points="49.01,-174.48 48.1,-167.33 54.36,-163.74 55.26,-170.89 49.01,-174.48"/>
<text text-anchor="middle" x="80.5" y="-249.5" font-family="Helvetica,sans-Serif" font-size="10.00"> +serial_number</text>
</g>
<!-- Node4&#45;&gt;Node3 -->
<g id="edge3" class="edge">
<title>Node4&#45;&gt;Node3</title>
<path fill="none" stroke="#404040" d="M50.78,-361.3C53.69,-347.68 59.17,-331.89 69.5,-321 84.89,-304.77 97.56,-314.9 116.5,-303 117.83,-302.17 119.15,-301.3 120.46,-300.4"/>
<polygon fill="none" stroke="#404040" points="120.75,-300.18 123.15,-293.38 130.35,-292.98 127.95,-299.78 120.75,-300.18"/>
<text text-anchor="middle" x="124" y="-335" font-family="Helvetica,sans-Serif" font-size="10.00"> +automatically_clear</text>
<text text-anchor="middle" x="124" y="-324" font-family="Helvetica,sans-Serif" font-size="10.00">+type</text>
</g>
<!-- Node5 -->
<g id="node5" class="node">
<title>Node5</title>
<g id="a_node5"><a xlink:title=" ">
<polygon fill="white" stroke="black" points="176.5,-361.5 176.5,-418.5 214.5,-418.5 214.5,-361.5 176.5,-361.5"/>
<text text-anchor="middle" x="195.5" y="-406.5" font-family="Helvetica,sans-Serif" font-size="10.00">long</text>
<polyline fill="none" stroke="black" points="176.5,-399.5 214.5,-399.5 "/>
<text text-anchor="middle" x="195.5" y="-387.5" font-family="Helvetica,sans-Serif" font-size="10.00"> </text>
<polyline fill="none" stroke="black" points="176.5,-380.5 214.5,-380.5 "/>
<text text-anchor="middle" x="195.5" y="-368.5" font-family="Helvetica,sans-Serif" font-size="10.00"> </text>
</a>
</g>
</g>
<!-- Node5&#45;&gt;Node3 -->
<g id="edge4" class="edge">
<title>Node5&#45;&gt;Node3</title>
<path fill="none" stroke="#404040" d="M190.24,-361.48C187.65,-347.93 184.41,-331 181.27,-314.58"/>
<polygon fill="none" stroke="#404040" points="181.27,-314.55 176.21,-309.41 179.01,-302.76 184.07,-307.91 181.27,-314.55"/>
<text text-anchor="middle" x="202" y="-329.5" font-family="Helvetica,sans-Serif" font-size="10.00"> +size</text>
</g>
</g>
</svg>
