<?xml version="1.0" encoding="UTF-8" standalone="no"?>
<!DOCTYPE svg PUBLIC "-//W3C//DTD SVG 1.1//EN"
 "http://www.w3.org/Graphics/SVG/1.1/DTD/svg11.dtd">
<!-- Generated by graphviz version 2.43.0 (0)
 -->
<!-- Title: EMC_SPINDLE_ORIENT Pages: 1 -->
<svg width="388pt" height="542pt"
 viewBox="0.00 0.00 388.00 542.00" xmlns="http://www.w3.org/2000/svg" xmlns:xlink="http://www.w3.org/1999/xlink">
<g id="graph0" class="graph" transform="scale(1 1) rotate(0) translate(4 538)">
<title>EMC_SPINDLE_ORIENT</title>
<polygon fill="white" stroke="transparent" points="-4,4 -4,-538 384,-538 384,4 -4,4"/>
<!-- Node1 -->
<g id="node1" class="node">
<title>Node1</title>
<g id="a_node1"><a xlink:title=" ">
<polygon fill="#bfbfbf" stroke="black" points="35,-0.5 35,-68.5 181,-68.5 181,-0.5 35,-0.5"/>
<text text-anchor="middle" x="108" y="-56.5" font-family="Helvetica,sans-Serif" font-size="10.00">EMC_SPINDLE_ORIENT</text>
<polyline fill="none" stroke="black" points="35,-49.5 181,-49.5 "/>
<text text-anchor="middle" x="108" y="-37.5" font-family="Helvetica,sans-Serif" font-size="10.00"> </text>
<polyline fill="none" stroke="black" points="35,-30.5 181,-30.5 "/>
<text text-anchor="start" x="43" y="-18.5" font-family="Helvetica,sans-Serif" font-size="10.00">+ EMC_SPINDLE_ORIENT()</text>
<text text-anchor="start" x="43" y="-7.5" font-family="Helvetica,sans-Serif" font-size="10.00">+ update()</text>
</a>
</g>
</g>
<!-- Node2 -->
<g id="node2" class="node">
<title>Node2</title>
<g id="a_node2"><a xlink:href="classEMC__SPINDLE__CMD__MSG.html" target="_top" xlink:title=" ">
<polygon fill="white" stroke="black" points="28,-116.5 28,-184.5 188,-184.5 188,-116.5 28,-116.5"/>
<text text-anchor="middle" x="108" y="-172.5" font-family="Helvetica,sans-Serif" font-size="10.00">EMC_SPINDLE_CMD_MSG</text>
<polyline fill="none" stroke="black" points="28,-165.5 188,-165.5 "/>
<text text-anchor="middle" x="108" y="-153.5" font-family="Helvetica,sans-Serif" font-size="10.00"> </text>
<polyline fill="none" stroke="black" points="28,-146.5 188,-146.5 "/>
<text text-anchor="start" x="36" y="-134.5" font-family="Helvetica,sans-Serif" font-size="10.00">+ EMC_SPINDLE_CMD_MSG()</text>
<text text-anchor="start" x="36" y="-123.5" font-family="Helvetica,sans-Serif" font-size="10.00">+ update()</text>
</a>
</g>
</g>
<!-- Node2&#45;&gt;Node1 -->
<g id="edge1" class="edge">
<title>Node2&#45;&gt;Node1</title>
<path fill="none" stroke="midnightblue" d="M108,-106.06C108,-93.64 108,-80.32 108,-68.62"/>
<polygon fill="none" stroke="midnightblue" points="104.5,-106.22 108,-116.22 111.5,-106.22 104.5,-106.22"/>
</g>
<!-- Node3 -->
<g id="node3" class="node">
<title>Node3</title>
<g id="a_node3"><a xlink:href="classRCS__CMD__MSG.html" target="_top" xlink:title=" ">
<polygon fill="white" stroke="black" points="100.5,-222.5 100.5,-279.5 211.5,-279.5 211.5,-222.5 100.5,-222.5"/>
<text text-anchor="middle" x="156" y="-267.5" font-family="Helvetica,sans-Serif" font-size="10.00">RCS_CMD_MSG</text>
<polyline fill="none" stroke="black" points="100.5,-260.5 211.5,-260.5 "/>
<text text-anchor="middle" x="156" y="-248.5" font-family="Helvetica,sans-Serif" font-size="10.00"> </text>
<polyline fill="none" stroke="black" points="100.5,-241.5 211.5,-241.5 "/>
<text text-anchor="start" x="108.5" y="-229.5" font-family="Helvetica,sans-Serif" font-size="10.00">+ RCS_CMD_MSG()</text>
</a>
</g>
</g>
<!-- Node3&#45;&gt;Node2 -->
<g id="edge2" class="edge">
<title>Node3&#45;&gt;Node2</title>
<path fill="none" stroke="midnightblue" d="M138.06,-213.18C133.48,-203.8 128.6,-193.77 124.12,-184.58"/>
<polygon fill="none" stroke="midnightblue" points="134.97,-214.84 142.5,-222.3 141.27,-211.78 134.97,-214.84"/>
</g>
<!-- Node4 -->
<g id="node4" class="node">
<title>Node4</title>
<g id="a_node4"><a xlink:href="classNMLmsg.html" target="_top" xlink:title=" ">
<polygon fill="white" stroke="black" points="247,-327.5 247,-428.5 325,-428.5 325,-327.5 247,-327.5"/>
<text text-anchor="middle" x="286" y="-416.5" font-family="Helvetica,sans-Serif" font-size="10.00">NMLmsg</text>
<polyline fill="none" stroke="black" points="247,-409.5 325,-409.5 "/>
<text text-anchor="middle" x="286" y="-397.5" font-family="Helvetica,sans-Serif" font-size="10.00"> </text>
<polyline fill="none" stroke="black" points="247,-390.5 325,-390.5 "/>
<text text-anchor="start" x="255" y="-378.5" font-family="Helvetica,sans-Serif" font-size="10.00">+ clear()</text>
<text text-anchor="start" x="255" y="-367.5" font-family="Helvetica,sans-Serif" font-size="10.00">+ update()</text>
<text text-anchor="start" x="255" y="-356.5" font-family="Helvetica,sans-Serif" font-size="10.00"># NMLmsg()</text>
<text text-anchor="start" x="255" y="-345.5" font-family="Helvetica,sans-Serif" font-size="10.00"># NMLmsg()</text>
<text text-anchor="start" x="255" y="-334.5" font-family="Helvetica,sans-Serif" font-size="10.00"># NMLmsg()</text>
</a>
</g>
</g>
<!-- Node4&#45;&gt;Node3 -->
<g id="edge3" class="edge">
<title>Node4&#45;&gt;Node3</title>
<path fill="none" stroke="midnightblue" d="M239.31,-332.11C221.04,-314.54 200.67,-294.95 184.64,-279.54"/>
<polygon fill="none" stroke="midnightblue" points="237.36,-335.09 247,-339.5 242.21,-330.04 237.36,-335.09"/>
</g>
<!-- Node5 -->
<g id="node5" class="node">
<title>Node5</title>
<g id="a_node5"><a xlink:title=" ">
<polygon fill="white" stroke="black" points="88.5,-476.5 88.5,-533.5 117.5,-533.5 117.5,-476.5 88.5,-476.5"/>
<text text-anchor="middle" x="103" y="-521.5" font-family="Helvetica,sans-Serif" font-size="10.00">int</text>
<polyline fill="none" stroke="black" points="88.5,-514.5 117.5,-514.5 "/>
<text text-anchor="middle" x="103" y="-502.5" font-family="Helvetica,sans-Serif" font-size="10.00"> </text>
<polyline fill="none" stroke="black" points="88.5,-495.5 117.5,-495.5 "/>
<text text-anchor="middle" x="103" y="-483.5" font-family="Helvetica,sans-Serif" font-size="10.00"> </text>
</a>
</g>
</g>
<!-- Node5&#45;&gt;Node1 -->
<g id="edge9" class="edge">
<title>Node5&#45;&gt;Node1</title>
<path fill="none" stroke="#404040" d="M88.24,-495.43C59.76,-477.66 0,-433.83 0,-379 0,-379 0,-379 0,-149.5 0,-120.16 19.09,-95.34 41.22,-76.43"/>
<polygon fill="none" stroke="#404040" points="41.49,-76.21 43.66,-69.33 50.84,-68.68 48.67,-75.56 41.49,-76.21"/>
<text text-anchor="middle" x="22" y="-254" font-family="Helvetica,sans-Serif" font-size="10.00"> +mode</text>
<text text-anchor="middle" x="22" y="-243" font-family="Helvetica,sans-Serif" font-size="10.00">+spindle</text>
</g>
<!-- Node5&#45;&gt;Node2 -->
<g id="edge8" class="edge">
<title>Node5&#45;&gt;Node2</title>
<path fill="none" stroke="#404040" d="M98.88,-476.27C92.01,-425.59 79.98,-314.7 91,-222 92,-213.59 93.65,-204.73 95.54,-196.23"/>
<polygon fill="none" stroke="#404040" points="95.54,-196.23 93.04,-189.47 98.32,-184.56 100.82,-191.32 95.54,-196.23"/>
<text text-anchor="middle" x="110.5" y="-301" font-family="Helvetica,sans-Serif" font-size="10.00"> +spindle</text>
</g>
<!-- Node5&#45;&gt;Node3 -->
<g id="edge7" class="edge">
<title>Node5&#45;&gt;Node3</title>
<path fill="none" stroke="#404040" d="M108.87,-476.07C118.31,-431.2 136.88,-342.91 147.68,-291.57"/>
<polygon fill="none" stroke="#404040" points="147.71,-291.42 145.03,-284.72 150.18,-279.67 152.86,-286.37 147.71,-291.42"/>
<text text-anchor="middle" x="181" y="-375.5" font-family="Helvetica,sans-Serif" font-size="10.00"> +serial_number</text>
</g>
<!-- Node5&#45;&gt;Node4 -->
<g id="edge4" class="edge">
<title>Node5&#45;&gt;Node4</title>
<path fill="none" stroke="#404040" d="M117.68,-491.64C132.7,-479.36 157.04,-460.45 180,-447 196.82,-437.14 203.24,-438.95 220,-429 225.64,-425.65 231.37,-421.91 236.97,-418.02"/>
<polygon fill="none" stroke="#404040" points="237.12,-417.91 239.67,-411.16 246.87,-410.91 244.33,-417.66 237.12,-417.91"/>
<text text-anchor="middle" x="234.5" y="-450" font-family="Helvetica,sans-Serif" font-size="10.00"> +automatically_clear</text>
</g>
<!-- Node6 -->
<g id="node6" class="node">
<title>Node6</title>
<g id="a_node6"><a xlink:title=" ">
<polygon fill="white" stroke="black" points="274,-476.5 274,-533.5 324,-533.5 324,-476.5 274,-476.5"/>
<text text-anchor="middle" x="299" y="-521.5" font-family="Helvetica,sans-Serif" font-size="10.00">int32_t</text>
<polyline fill="none" stroke="black" points="274,-514.5 324,-514.5 "/>
<text text-anchor="middle" x="299" y="-502.5" font-family="Helvetica,sans-Serif" font-size="10.00"> </text>
<polyline fill="none" stroke="black" points="274,-495.5 324,-495.5 "/>
<text text-anchor="middle" x="299" y="-483.5" font-family="Helvetica,sans-Serif" font-size="10.00"> </text>
</a>
</g>
</g>
<!-- Node6&#45;&gt;Node4 -->
<g id="edge5" class="edge">
<title>Node6&#45;&gt;Node4</title>
<path fill="none" stroke="#404040" d="M296.11,-476.26C295.03,-465.79 293.74,-453.42 292.46,-441.07"/>
<polygon fill="none" stroke="#404040" points="292.42,-440.74 287.82,-435.18 291.18,-428.8 295.78,-434.36 292.42,-440.74"/>
<text text-anchor="middle" x="311" y="-450" font-family="Helvetica,sans-Serif" font-size="10.00"> +type</text>
</g>
<!-- Node7 -->
<g id="node7" class="node">
<title>Node7</title>
<g id="a_node7"><a xlink:title=" ">
<polygon fill="white" stroke="black" points="342,-476.5 342,-533.5 380,-533.5 380,-476.5 342,-476.5"/>
<text text-anchor="middle" x="361" y="-521.5" font-family="Helvetica,sans-Serif" font-size="10.00">long</text>
<polyline fill="none" stroke="black" points="342,-514.5 380,-514.5 "/>
<text text-anchor="middle" x="361" y="-502.5" font-family="Helvetica,sans-Serif" font-size="10.00"> </text>
<polyline fill="none" stroke="black" points="342,-495.5 380,-495.5 "/>
<text text-anchor="middle" x="361" y="-483.5" font-family="Helvetica,sans-Serif" font-size="10.00"> </text>
</a>
</g>
</g>
<!-- Node7&#45;&gt;Node4 -->
<g id="edge6" class="edge">
<title>Node7&#45;&gt;Node4</title>
<path fill="none" stroke="#404040" d="M347.81,-476.38C343.07,-466.92 337.53,-456.37 332,-447 330.45,-444.37 328.83,-441.7 327.18,-439.02"/>
<polygon fill="none" stroke="#404040" points="327.05,-438.82 320.46,-435.89 320.63,-428.68 327.22,-431.61 327.05,-438.82"/>
<text text-anchor="middle" x="353.5" y="-450" font-family="Helvetica,sans-Serif" font-size="10.00"> +size</text>
</g>
<!-- Node8 -->
<g id="node8" class="node">
<title>Node8</title>
<g id="a_node8"><a xlink:title=" ">
<polygon fill="white" stroke="black" points="206,-122 206,-179 256,-179 256,-122 206,-122"/>
<text text-anchor="middle" x="231" y="-167" font-family="Helvetica,sans-Serif" font-size="10.00">double</text>
<polyline fill="none" stroke="black" points="206,-160 256,-160 "/>
<text text-anchor="middle" x="231" y="-148" font-family="Helvetica,sans-Serif" font-size="10.00"> </text>
<polyline fill="none" stroke="black" points="206,-141 256,-141 "/>
<text text-anchor="middle" x="231" y="-129" font-family="Helvetica,sans-Serif" font-size="10.00"> </text>
</a>
</g>
</g>
<!-- Node8&#45;&gt;Node1 -->
<g id="edge10" class="edge">
<title>Node8&#45;&gt;Node1</title>
<path fill="none" stroke="#404040" d="M205.87,-124.5C202.9,-121.61 199.89,-118.73 197,-116 183.46,-103.22 168.53,-89.55 154.82,-77.17"/>
<polygon fill="none" stroke="#404040" points="154.48,-76.86 147.35,-75.82 145.56,-68.83 152.7,-69.88 154.48,-76.86"/>
<text text-anchor="middle" x="207.5" y="-90" font-family="Helvetica,sans-Serif" font-size="10.00"> +orientation</text>
</g>
</g>
</svg>
