<?xml version="1.0" encoding="UTF-8" standalone="no"?>
<!DOCTYPE svg PUBLIC "-//W3C//DTD SVG 1.1//EN"
 "http://www.w3.org/Graphics/SVG/1.1/DTD/svg11.dtd">
<!-- Generated by graphviz version 2.43.0 (0)
 -->
<!-- Title: EMC_SET_DEBUG Pages: 1 -->
<svg width="345pt" height="426pt"
 viewBox="0.00 0.00 344.50 426.00" xmlns="http://www.w3.org/2000/svg" xmlns:xlink="http://www.w3.org/1999/xlink">
<g id="graph0" class="graph" transform="scale(1 1) rotate(0) translate(4 422)">
<title>EMC_SET_DEBUG</title>
<polygon fill="white" stroke="transparent" points="-4,4 -4,-422 340.5,-422 340.5,4 -4,4"/>
<!-- Node1 -->
<g id="node1" class="node">
<title>Node1</title>
<g id="a_node1"><a xlink:title=" ">
<polygon fill="#bfbfbf" stroke="black" points="0,-0.5 0,-68.5 121,-68.5 121,-0.5 0,-0.5"/>
<text text-anchor="middle" x="60.5" y="-56.5" font-family="Helvetica,sans-Serif" font-size="10.00">EMC_SET_DEBUG</text>
<polyline fill="none" stroke="black" points="0,-49.5 121,-49.5 "/>
<text text-anchor="middle" x="60.5" y="-37.5" font-family="Helvetica,sans-Serif" font-size="10.00"> </text>
<polyline fill="none" stroke="black" points="0,-30.5 121,-30.5 "/>
<text text-anchor="start" x="8" y="-18.5" font-family="Helvetica,sans-Serif" font-size="10.00">+ EMC_SET_DEBUG()</text>
<text text-anchor="start" x="8" y="-7.5" font-family="Helvetica,sans-Serif" font-size="10.00">+ update()</text>
</a>
</g>
</g>
<!-- Node2 -->
<g id="node2" class="node">
<title>Node2</title>
<g id="a_node2"><a xlink:href="classRCS__CMD__MSG.html" target="_top" xlink:title=" ">
<polygon fill="white" stroke="black" points="62,-106.5 62,-163.5 173,-163.5 173,-106.5 62,-106.5"/>
<text text-anchor="middle" x="117.5" y="-151.5" font-family="Helvetica,sans-Serif" font-size="10.00">RCS_CMD_MSG</text>
<polyline fill="none" stroke="black" points="62,-144.5 173,-144.5 "/>
<text text-anchor="middle" x="117.5" y="-132.5" font-family="Helvetica,sans-Serif" font-size="10.00"> </text>
<polyline fill="none" stroke="black" points="62,-125.5 173,-125.5 "/>
<text text-anchor="start" x="70" y="-113.5" font-family="Helvetica,sans-Serif" font-size="10.00">+ RCS_CMD_MSG()</text>
</a>
</g>
</g>
<!-- Node2&#45;&gt;Node1 -->
<g id="edge1" class="edge">
<title>Node2&#45;&gt;Node1</title>
<path fill="none" stroke="midnightblue" d="M96.36,-97.48C90.88,-88.01 85.01,-77.86 79.64,-68.58"/>
<polygon fill="none" stroke="midnightblue" points="93.43,-99.4 101.47,-106.3 99.49,-95.89 93.43,-99.4"/>
</g>
<!-- Node3 -->
<g id="node3" class="node">
<title>Node3</title>
<g id="a_node3"><a xlink:href="classNMLmsg.html" target="_top" xlink:title=" ">
<polygon fill="white" stroke="black" points="203.5,-211.5 203.5,-312.5 281.5,-312.5 281.5,-211.5 203.5,-211.5"/>
<text text-anchor="middle" x="242.5" y="-300.5" font-family="Helvetica,sans-Serif" font-size="10.00">NMLmsg</text>
<polyline fill="none" stroke="black" points="203.5,-293.5 281.5,-293.5 "/>
<text text-anchor="middle" x="242.5" y="-281.5" font-family="Helvetica,sans-Serif" font-size="10.00"> </text>
<polyline fill="none" stroke="black" points="203.5,-274.5 281.5,-274.5 "/>
<text text-anchor="start" x="211.5" y="-262.5" font-family="Helvetica,sans-Serif" font-size="10.00">+ clear()</text>
<text text-anchor="start" x="211.5" y="-251.5" font-family="Helvetica,sans-Serif" font-size="10.00">+ update()</text>
<text text-anchor="start" x="211.5" y="-240.5" font-family="Helvetica,sans-Serif" font-size="10.00"># NMLmsg()</text>
<text text-anchor="start" x="211.5" y="-229.5" font-family="Helvetica,sans-Serif" font-size="10.00"># NMLmsg()</text>
<text text-anchor="start" x="211.5" y="-218.5" font-family="Helvetica,sans-Serif" font-size="10.00"># NMLmsg()</text>
</a>
</g>
</g>
<!-- Node3&#45;&gt;Node2 -->
<g id="edge2" class="edge">
<title>Node3&#45;&gt;Node2</title>
<path fill="none" stroke="midnightblue" d="M196.06,-214.56C178.92,-197.42 160.04,-178.54 145.08,-163.58"/>
<polygon fill="none" stroke="midnightblue" points="193.75,-217.2 203.29,-221.79 198.7,-212.25 193.75,-217.2"/>
</g>
<!-- Node4 -->
<g id="node4" class="node">
<title>Node4</title>
<g id="a_node4"><a xlink:title=" ">
<polygon fill="white" stroke="black" points="76,-360.5 76,-417.5 105,-417.5 105,-360.5 76,-360.5"/>
<text text-anchor="middle" x="90.5" y="-405.5" font-family="Helvetica,sans-Serif" font-size="10.00">int</text>
<polyline fill="none" stroke="black" points="76,-398.5 105,-398.5 "/>
<text text-anchor="middle" x="90.5" y="-386.5" font-family="Helvetica,sans-Serif" font-size="10.00"> </text>
<polyline fill="none" stroke="black" points="76,-379.5 105,-379.5 "/>
<text text-anchor="middle" x="90.5" y="-367.5" font-family="Helvetica,sans-Serif" font-size="10.00"> </text>
</a>
</g>
</g>
<!-- Node4&#45;&gt;Node1 -->
<g id="edge7" class="edge">
<title>Node4&#45;&gt;Node1</title>
<path fill="none" stroke="#404040" d="M83.17,-360.12C70.7,-309.66 47.2,-199.71 52.5,-106 52.96,-97.82 53.72,-89.13 54.6,-80.75"/>
<polygon fill="none" stroke="#404040" points="54.6,-80.71 51.3,-74.3 55.94,-68.79 59.25,-75.19 54.6,-80.71"/>
<text text-anchor="middle" x="75.5" y="-185" font-family="Helvetica,sans-Serif" font-size="10.00"> +debug</text>
</g>
<!-- Node4&#45;&gt;Node2 -->
<g id="edge6" class="edge">
<title>Node4&#45;&gt;Node2</title>
<path fill="none" stroke="#404040" d="M93.49,-360.07C98.29,-315.3 107.72,-227.29 113.23,-175.9"/>
<polygon fill="none" stroke="#404040" points="113.26,-175.6 109.92,-169.21 114.54,-163.67 117.87,-170.06 113.26,-175.6"/>
<text text-anchor="middle" x="150.5" y="-259.5" font-family="Helvetica,sans-Serif" font-size="10.00"> +serial_number</text>
</g>
<!-- Node4&#45;&gt;Node3 -->
<g id="edge3" class="edge">
<title>Node4&#45;&gt;Node3</title>
<path fill="none" stroke="#404040" d="M105.06,-365.91C113.48,-354.39 124.9,-340.71 137.5,-331 152.62,-319.34 160.13,-322.82 176.5,-313 182.12,-309.63 187.84,-305.87 193.44,-301.97"/>
<polygon fill="none" stroke="#404040" points="193.59,-301.85 196.13,-295.1 203.33,-294.85 200.8,-301.6 193.59,-301.85"/>
<text text-anchor="middle" x="192" y="-334" font-family="Helvetica,sans-Serif" font-size="10.00"> +automatically_clear</text>
</g>
<!-- Node5 -->
<g id="node5" class="node">
<title>Node5</title>
<g id="a_node5"><a xlink:title=" ">
<polygon fill="white" stroke="black" points="230.5,-360.5 230.5,-417.5 280.5,-417.5 280.5,-360.5 230.5,-360.5"/>
<text text-anchor="middle" x="255.5" y="-405.5" font-family="Helvetica,sans-Serif" font-size="10.00">int32_t</text>
<polyline fill="none" stroke="black" points="230.5,-398.5 280.5,-398.5 "/>
<text text-anchor="middle" x="255.5" y="-386.5" font-family="Helvetica,sans-Serif" font-size="10.00"> </text>
<polyline fill="none" stroke="black" points="230.5,-379.5 280.5,-379.5 "/>
<text text-anchor="middle" x="255.5" y="-367.5" font-family="Helvetica,sans-Serif" font-size="10.00"> </text>
</a>
</g>
</g>
<!-- Node5&#45;&gt;Node3 -->
<g id="edge4" class="edge">
<title>Node5&#45;&gt;Node3</title>
<path fill="none" stroke="#404040" d="M252.61,-360.26C251.53,-349.79 250.24,-337.42 248.96,-325.07"/>
<polygon fill="none" stroke="#404040" points="248.92,-324.74 244.32,-319.18 247.68,-312.8 252.28,-318.36 248.92,-324.74"/>
<text text-anchor="middle" x="268.5" y="-334" font-family="Helvetica,sans-Serif" font-size="10.00"> +type</text>
</g>
<!-- Node6 -->
<g id="node6" class="node">
<title>Node6</title>
<g id="a_node6"><a xlink:title=" ">
<polygon fill="white" stroke="black" points="298.5,-360.5 298.5,-417.5 336.5,-417.5 336.5,-360.5 298.5,-360.5"/>
<text text-anchor="middle" x="317.5" y="-405.5" font-family="Helvetica,sans-Serif" font-size="10.00">long</text>
<polyline fill="none" stroke="black" points="298.5,-398.5 336.5,-398.5 "/>
<text text-anchor="middle" x="317.5" y="-386.5" font-family="Helvetica,sans-Serif" font-size="10.00"> </text>
<polyline fill="none" stroke="black" points="298.5,-379.5 336.5,-379.5 "/>
<text text-anchor="middle" x="317.5" y="-367.5" font-family="Helvetica,sans-Serif" font-size="10.00"> </text>
</a>
</g>
</g>
<!-- Node6&#45;&gt;Node3 -->
<g id="edge5" class="edge">
<title>Node6&#45;&gt;Node3</title>
<path fill="none" stroke="#404040" d="M304.92,-360.31C300.35,-350.86 294.97,-340.32 289.5,-331 287.94,-328.35 286.32,-325.66 284.64,-322.97"/>
<polygon fill="none" stroke="#404040" points="284.47,-322.7 277.87,-319.79 278.01,-312.58 284.61,-315.49 284.47,-322.7"/>
<text text-anchor="middle" x="311" y="-334" font-family="Helvetica,sans-Serif" font-size="10.00"> +size</text>
</g>
</g>
</svg>
