<?xml version="1.0" encoding="UTF-8" standalone="no"?>
<!DOCTYPE svg PUBLIC "-//W3C//DTD SVG 1.1//EN"
 "http://www.w3.org/Graphics/SVG/1.1/DTD/svg11.dtd">
<!-- Generated by graphviz version 2.43.0 (0)
 -->
<!-- Title: EMC_SPINDLE_BRAKE_ENGAGE Pages: 1 -->
<svg width="452pt" height="532pt"
 viewBox="0.00 0.00 452.00 532.00" xmlns="http://www.w3.org/2000/svg" xmlns:xlink="http://www.w3.org/1999/xlink">
<g id="graph0" class="graph" transform="scale(1 1) rotate(0) translate(4 528)">
<title>EMC_SPINDLE_BRAKE_ENGAGE</title>
<polygon fill="white" stroke="transparent" points="-4,4 -4,-528 448,-528 448,4 -4,4"/>
<!-- Node1 -->
<g id="node1" class="node">
<title>Node1</title>
<g id="a_node1"><a xlink:title=" ">
<polygon fill="#bfbfbf" stroke="black" points="0,-0.5 0,-68.5 188,-68.5 188,-0.5 0,-0.5"/>
<text text-anchor="middle" x="94" y="-56.5" font-family="Helvetica,sans-Serif" font-size="10.00">EMC_SPINDLE_BRAKE_ENGAGE</text>
<polyline fill="none" stroke="black" points="0,-49.5 188,-49.5 "/>
<text text-anchor="middle" x="94" y="-37.5" font-family="Helvetica,sans-Serif" font-size="10.00"> </text>
<polyline fill="none" stroke="black" points="0,-30.5 188,-30.5 "/>
<text text-anchor="start" x="8" y="-18.5" font-family="Helvetica,sans-Serif" font-size="10.00">+ EMC_SPINDLE_BRAKE_ENGAGE()</text>
<text text-anchor="start" x="8" y="-7.5" font-family="Helvetica,sans-Serif" font-size="10.00">+ update()</text>
</a>
</g>
</g>
<!-- Node2 -->
<g id="node2" class="node">
<title>Node2</title>
<g id="a_node2"><a xlink:href="classEMC__SPINDLE__CMD__MSG.html" target="_top" xlink:title=" ">
<polygon fill="white" stroke="black" points="89,-106.5 89,-174.5 249,-174.5 249,-106.5 89,-106.5"/>
<text text-anchor="middle" x="169" y="-162.5" font-family="Helvetica,sans-Serif" font-size="10.00">EMC_SPINDLE_CMD_MSG</text>
<polyline fill="none" stroke="black" points="89,-155.5 249,-155.5 "/>
<text text-anchor="middle" x="169" y="-143.5" font-family="Helvetica,sans-Serif" font-size="10.00"> </text>
<polyline fill="none" stroke="black" points="89,-136.5 249,-136.5 "/>
<text text-anchor="start" x="97" y="-124.5" font-family="Helvetica,sans-Serif" font-size="10.00">+ EMC_SPINDLE_CMD_MSG()</text>
<text text-anchor="start" x="97" y="-113.5" font-family="Helvetica,sans-Serif" font-size="10.00">+ update()</text>
</a>
</g>
</g>
<!-- Node2&#45;&gt;Node1 -->
<g id="edge1" class="edge">
<title>Node2&#45;&gt;Node1</title>
<path fill="none" stroke="midnightblue" d="M139.03,-97.94C132.03,-88.24 124.67,-78.02 117.97,-68.73"/>
<polygon fill="none" stroke="midnightblue" points="136.38,-100.24 145.06,-106.31 142.05,-96.15 136.38,-100.24"/>
</g>
<!-- Node3 -->
<g id="node3" class="node">
<title>Node3</title>
<g id="a_node3"><a xlink:href="classRCS__CMD__MSG.html" target="_top" xlink:title=" ">
<polygon fill="white" stroke="black" points="164.5,-212.5 164.5,-269.5 275.5,-269.5 275.5,-212.5 164.5,-212.5"/>
<text text-anchor="middle" x="220" y="-257.5" font-family="Helvetica,sans-Serif" font-size="10.00">RCS_CMD_MSG</text>
<polyline fill="none" stroke="black" points="164.5,-250.5 275.5,-250.5 "/>
<text text-anchor="middle" x="220" y="-238.5" font-family="Helvetica,sans-Serif" font-size="10.00"> </text>
<polyline fill="none" stroke="black" points="164.5,-231.5 275.5,-231.5 "/>
<text text-anchor="start" x="172.5" y="-219.5" font-family="Helvetica,sans-Serif" font-size="10.00">+ RCS_CMD_MSG()</text>
</a>
</g>
</g>
<!-- Node3&#45;&gt;Node2 -->
<g id="edge2" class="edge">
<title>Node3&#45;&gt;Node2</title>
<path fill="none" stroke="midnightblue" d="M200.94,-203.18C196.08,-193.8 190.88,-183.77 186.13,-174.58"/>
<polygon fill="none" stroke="midnightblue" points="197.95,-205.03 205.66,-212.3 204.17,-201.81 197.95,-205.03"/>
</g>
<!-- Node4 -->
<g id="node4" class="node">
<title>Node4</title>
<g id="a_node4"><a xlink:href="classNMLmsg.html" target="_top" xlink:title=" ">
<polygon fill="white" stroke="black" points="311,-317.5 311,-418.5 389,-418.5 389,-317.5 311,-317.5"/>
<text text-anchor="middle" x="350" y="-406.5" font-family="Helvetica,sans-Serif" font-size="10.00">NMLmsg</text>
<polyline fill="none" stroke="black" points="311,-399.5 389,-399.5 "/>
<text text-anchor="middle" x="350" y="-387.5" font-family="Helvetica,sans-Serif" font-size="10.00"> </text>
<polyline fill="none" stroke="black" points="311,-380.5 389,-380.5 "/>
<text text-anchor="start" x="319" y="-368.5" font-family="Helvetica,sans-Serif" font-size="10.00">+ clear()</text>
<text text-anchor="start" x="319" y="-357.5" font-family="Helvetica,sans-Serif" font-size="10.00">+ update()</text>
<text text-anchor="start" x="319" y="-346.5" font-family="Helvetica,sans-Serif" font-size="10.00"># NMLmsg()</text>
<text text-anchor="start" x="319" y="-335.5" font-family="Helvetica,sans-Serif" font-size="10.00"># NMLmsg()</text>
<text text-anchor="start" x="319" y="-324.5" font-family="Helvetica,sans-Serif" font-size="10.00"># NMLmsg()</text>
</a>
</g>
</g>
<!-- Node4&#45;&gt;Node3 -->
<g id="edge3" class="edge">
<title>Node4&#45;&gt;Node3</title>
<path fill="none" stroke="midnightblue" d="M303.31,-322.11C285.04,-304.54 264.67,-284.95 248.64,-269.54"/>
<polygon fill="none" stroke="midnightblue" points="301.36,-325.09 311,-329.5 306.21,-320.04 301.36,-325.09"/>
</g>
<!-- Node5 -->
<g id="node5" class="node">
<title>Node5</title>
<g id="a_node5"><a xlink:title=" ">
<polygon fill="white" stroke="black" points="152.5,-466.5 152.5,-523.5 181.5,-523.5 181.5,-466.5 152.5,-466.5"/>
<text text-anchor="middle" x="167" y="-511.5" font-family="Helvetica,sans-Serif" font-size="10.00">int</text>
<polyline fill="none" stroke="black" points="152.5,-504.5 181.5,-504.5 "/>
<text text-anchor="middle" x="167" y="-492.5" font-family="Helvetica,sans-Serif" font-size="10.00"> </text>
<polyline fill="none" stroke="black" points="152.5,-485.5 181.5,-485.5 "/>
<text text-anchor="middle" x="167" y="-473.5" font-family="Helvetica,sans-Serif" font-size="10.00"> </text>
</a>
</g>
</g>
<!-- Node5&#45;&gt;Node1 -->
<g id="edge9" class="edge">
<title>Node5&#45;&gt;Node1</title>
<path fill="none" stroke="#404040" d="M152.26,-485.81C123.14,-468.41 61,-424.77 61,-369 61,-369 61,-369 61,-139.5 61,-119.45 66.64,-98.21 73.25,-80.19"/>
<polygon fill="none" stroke="#404040" points="73.32,-80.02 71.78,-72.98 77.69,-68.85 79.23,-75.89 73.32,-80.02"/>
<text text-anchor="middle" x="84.5" y="-238.5" font-family="Helvetica,sans-Serif" font-size="10.00"> +spindle</text>
</g>
<!-- Node5&#45;&gt;Node2 -->
<g id="edge8" class="edge">
<title>Node5&#45;&gt;Node2</title>
<path fill="none" stroke="#404040" d="M163.25,-466.31C156.97,-415.7 145.86,-304.9 155,-212 155.81,-203.74 157.15,-195.01 158.68,-186.62"/>
<polygon fill="none" stroke="#404040" points="158.72,-186.43 155.95,-179.77 161.03,-174.65 163.8,-181.31 158.72,-186.43"/>
<text text-anchor="middle" x="175.5" y="-291" font-family="Helvetica,sans-Serif" font-size="10.00"> +spindle</text>
</g>
<!-- Node5&#45;&gt;Node3 -->
<g id="edge7" class="edge">
<title>Node5&#45;&gt;Node3</title>
<path fill="none" stroke="#404040" d="M172.87,-466.07C182.31,-421.2 200.88,-332.91 211.68,-281.57"/>
<polygon fill="none" stroke="#404040" points="211.71,-281.42 209.03,-274.72 214.18,-269.67 216.86,-276.37 211.71,-281.42"/>
<text text-anchor="middle" x="245" y="-365.5" font-family="Helvetica,sans-Serif" font-size="10.00"> +serial_number</text>
</g>
<!-- Node5&#45;&gt;Node4 -->
<g id="edge4" class="edge">
<title>Node5&#45;&gt;Node4</title>
<path fill="none" stroke="#404040" d="M181.64,-481.93C196.88,-469.71 221.73,-450.69 245,-437 261.45,-427.32 267.63,-428.82 284,-419 289.62,-415.63 295.34,-411.87 300.94,-407.97"/>
<polygon fill="none" stroke="#404040" points="301.09,-407.85 303.63,-401.1 310.83,-400.85 308.3,-407.6 301.09,-407.85"/>
<text text-anchor="middle" x="299.5" y="-440" font-family="Helvetica,sans-Serif" font-size="10.00"> +automatically_clear</text>
</g>
<!-- Node6 -->
<g id="node6" class="node">
<title>Node6</title>
<g id="a_node6"><a xlink:title=" ">
<polygon fill="white" stroke="black" points="338,-466.5 338,-523.5 388,-523.5 388,-466.5 338,-466.5"/>
<text text-anchor="middle" x="363" y="-511.5" font-family="Helvetica,sans-Serif" font-size="10.00">int32_t</text>
<polyline fill="none" stroke="black" points="338,-504.5 388,-504.5 "/>
<text text-anchor="middle" x="363" y="-492.5" font-family="Helvetica,sans-Serif" font-size="10.00"> </text>
<polyline fill="none" stroke="black" points="338,-485.5 388,-485.5 "/>
<text text-anchor="middle" x="363" y="-473.5" font-family="Helvetica,sans-Serif" font-size="10.00"> </text>
</a>
</g>
</g>
<!-- Node6&#45;&gt;Node4 -->
<g id="edge5" class="edge">
<title>Node6&#45;&gt;Node4</title>
<path fill="none" stroke="#404040" d="M360.11,-466.26C359.03,-455.79 357.74,-443.42 356.46,-431.07"/>
<polygon fill="none" stroke="#404040" points="356.42,-430.74 351.82,-425.18 355.18,-418.8 359.78,-424.36 356.42,-430.74"/>
<text text-anchor="middle" x="376" y="-440" font-family="Helvetica,sans-Serif" font-size="10.00"> +type</text>
</g>
<!-- Node7 -->
<g id="node7" class="node">
<title>Node7</title>
<g id="a_node7"><a xlink:title=" ">
<polygon fill="white" stroke="black" points="406,-466.5 406,-523.5 444,-523.5 444,-466.5 406,-466.5"/>
<text text-anchor="middle" x="425" y="-511.5" font-family="Helvetica,sans-Serif" font-size="10.00">long</text>
<polyline fill="none" stroke="black" points="406,-504.5 444,-504.5 "/>
<text text-anchor="middle" x="425" y="-492.5" font-family="Helvetica,sans-Serif" font-size="10.00"> </text>
<polyline fill="none" stroke="black" points="406,-485.5 444,-485.5 "/>
<text text-anchor="middle" x="425" y="-473.5" font-family="Helvetica,sans-Serif" font-size="10.00"> </text>
</a>
</g>
</g>
<!-- Node7&#45;&gt;Node4 -->
<g id="edge6" class="edge">
<title>Node7&#45;&gt;Node4</title>
<path fill="none" stroke="#404040" d="M412.42,-466.31C407.85,-456.86 402.47,-446.32 397,-437 395.44,-434.35 393.82,-431.66 392.14,-428.97"/>
<polygon fill="none" stroke="#404040" points="391.97,-428.7 385.37,-425.79 385.51,-418.58 392.11,-421.49 391.97,-428.7"/>
<text text-anchor="middle" x="418.5" y="-440" font-family="Helvetica,sans-Serif" font-size="10.00"> +size</text>
</g>
</g>
</svg>
