<?xml version="1.0" encoding="UTF-8" standalone="no"?>
<!DOCTYPE svg PUBLIC "-//W3C//DTD SVG 1.1//EN"
 "http://www.w3.org/Graphics/SVG/1.1/DTD/svg11.dtd">
<!-- Generated by graphviz version 2.43.0 (0)
 -->
<!-- Title: EMC_COOLANT_CMD_MSG Pages: 1 -->
<svg width="294pt" height="416pt"
 viewBox="0.00 0.00 293.50 416.00" xmlns="http://www.w3.org/2000/svg" xmlns:xlink="http://www.w3.org/1999/xlink">
<g id="graph0" class="graph" transform="scale(1 1) rotate(0) translate(4 412)">
<title>EMC_COOLANT_CMD_MSG</title>
<polygon fill="white" stroke="transparent" points="-4,4 -4,-412 289.5,-412 289.5,4 -4,4"/>
<!-- Node1 -->
<g id="node1" class="node">
<title>Node1</title>
<g id="a_node1"><a xlink:title=" ">
<polygon fill="#bfbfbf" stroke="black" points="0,-0.5 0,-68.5 167,-68.5 167,-0.5 0,-0.5"/>
<text text-anchor="middle" x="83.5" y="-56.5" font-family="Helvetica,sans-Serif" font-size="10.00">EMC_COOLANT_CMD_MSG</text>
<polyline fill="none" stroke="black" points="0,-49.5 167,-49.5 "/>
<text text-anchor="middle" x="83.5" y="-37.5" font-family="Helvetica,sans-Serif" font-size="10.00"> </text>
<polyline fill="none" stroke="black" points="0,-30.5 167,-30.5 "/>
<text text-anchor="start" x="8" y="-18.5" font-family="Helvetica,sans-Serif" font-size="10.00">+ EMC_COOLANT_CMD_MSG()</text>
<text text-anchor="start" x="8" y="-7.5" font-family="Helvetica,sans-Serif" font-size="10.00">+ update()</text>
</a>
</g>
</g>
<!-- Node2 -->
<g id="node2" class="node">
<title>Node2</title>
<g id="a_node2"><a xlink:href="classRCS__CMD__MSG.html" target="_top" xlink:title=" ">
<polygon fill="white" stroke="black" points="28,-106.5 28,-163.5 139,-163.5 139,-106.5 28,-106.5"/>
<text text-anchor="middle" x="83.5" y="-151.5" font-family="Helvetica,sans-Serif" font-size="10.00">RCS_CMD_MSG</text>
<polyline fill="none" stroke="black" points="28,-144.5 139,-144.5 "/>
<text text-anchor="middle" x="83.5" y="-132.5" font-family="Helvetica,sans-Serif" font-size="10.00"> </text>
<polyline fill="none" stroke="black" points="28,-125.5 139,-125.5 "/>
<text text-anchor="start" x="36" y="-113.5" font-family="Helvetica,sans-Serif" font-size="10.00">+ RCS_CMD_MSG()</text>
</a>
</g>
</g>
<!-- Node2&#45;&gt;Node1 -->
<g id="edge1" class="edge">
<title>Node2&#45;&gt;Node1</title>
<path fill="none" stroke="midnightblue" d="M83.5,-96.01C83.5,-86.96 83.5,-77.38 83.5,-68.58"/>
<polygon fill="none" stroke="midnightblue" points="80,-96.3 83.5,-106.3 87,-96.3 80,-96.3"/>
</g>
<!-- Node3 -->
<g id="node3" class="node">
<title>Node3</title>
<g id="a_node3"><a xlink:href="classNMLmsg.html" target="_top" xlink:title=" ">
<polygon fill="white" stroke="black" points="152.5,-201.5 152.5,-302.5 230.5,-302.5 230.5,-201.5 152.5,-201.5"/>
<text text-anchor="middle" x="191.5" y="-290.5" font-family="Helvetica,sans-Serif" font-size="10.00">NMLmsg</text>
<polyline fill="none" stroke="black" points="152.5,-283.5 230.5,-283.5 "/>
<text text-anchor="middle" x="191.5" y="-271.5" font-family="Helvetica,sans-Serif" font-size="10.00"> </text>
<polyline fill="none" stroke="black" points="152.5,-264.5 230.5,-264.5 "/>
<text text-anchor="start" x="160.5" y="-252.5" font-family="Helvetica,sans-Serif" font-size="10.00">+ clear()</text>
<text text-anchor="start" x="160.5" y="-241.5" font-family="Helvetica,sans-Serif" font-size="10.00">+ update()</text>
<text text-anchor="start" x="160.5" y="-230.5" font-family="Helvetica,sans-Serif" font-size="10.00"># NMLmsg()</text>
<text text-anchor="start" x="160.5" y="-219.5" font-family="Helvetica,sans-Serif" font-size="10.00"># NMLmsg()</text>
<text text-anchor="start" x="160.5" y="-208.5" font-family="Helvetica,sans-Serif" font-size="10.00"># NMLmsg()</text>
</a>
</g>
</g>
<!-- Node3&#45;&gt;Node2 -->
<g id="edge2" class="edge">
<title>Node3&#45;&gt;Node2</title>
<path fill="none" stroke="midnightblue" d="M145.1,-201.59C132.89,-188.6 120.16,-175.04 109.46,-163.64"/>
<polygon fill="none" stroke="midnightblue" points="142.81,-204.26 152.2,-209.16 147.91,-199.47 142.81,-204.26"/>
</g>
<!-- Node4 -->
<g id="node4" class="node">
<title>Node4</title>
<g id="a_node4"><a xlink:title=" ">
<polygon fill="white" stroke="black" points="42,-350.5 42,-407.5 71,-407.5 71,-350.5 42,-350.5"/>
<text text-anchor="middle" x="56.5" y="-395.5" font-family="Helvetica,sans-Serif" font-size="10.00">int</text>
<polyline fill="none" stroke="black" points="42,-388.5 71,-388.5 "/>
<text text-anchor="middle" x="56.5" y="-376.5" font-family="Helvetica,sans-Serif" font-size="10.00"> </text>
<polyline fill="none" stroke="black" points="42,-369.5 71,-369.5 "/>
<text text-anchor="middle" x="56.5" y="-357.5" font-family="Helvetica,sans-Serif" font-size="10.00"> </text>
</a>
</g>
</g>
<!-- Node4&#45;&gt;Node2 -->
<g id="edge6" class="edge">
<title>Node4&#45;&gt;Node2</title>
<path fill="none" stroke="#404040" d="M54.76,-350.45C53.13,-315.42 52.15,-253.2 61.5,-201 63.03,-192.47 65.46,-183.54 68.17,-175.13"/>
<polygon fill="none" stroke="#404040" points="68.2,-175.02 66.37,-168.05 72.1,-163.67 73.94,-170.65 68.2,-175.02"/>
<text text-anchor="middle" x="102.5" y="-249.5" font-family="Helvetica,sans-Serif" font-size="10.00"> +serial_number</text>
</g>
<!-- Node4&#45;&gt;Node3 -->
<g id="edge3" class="edge">
<title>Node4&#45;&gt;Node3</title>
<path fill="none" stroke="#404040" d="M66.61,-350.34C71.41,-340.13 77.98,-329.08 86.5,-321 100.35,-307.86 109.13,-312.82 125.5,-303 131.12,-299.63 136.84,-295.87 142.44,-291.97"/>
<polygon fill="none" stroke="#404040" points="142.59,-291.85 145.13,-285.1 152.33,-284.85 149.8,-291.6 142.59,-291.85"/>
<text text-anchor="middle" x="141" y="-324" font-family="Helvetica,sans-Serif" font-size="10.00"> +automatically_clear</text>
</g>
<!-- Node5 -->
<g id="node5" class="node">
<title>Node5</title>
<g id="a_node5"><a xlink:title=" ">
<polygon fill="white" stroke="black" points="179.5,-350.5 179.5,-407.5 229.5,-407.5 229.5,-350.5 179.5,-350.5"/>
<text text-anchor="middle" x="204.5" y="-395.5" font-family="Helvetica,sans-Serif" font-size="10.00">int32_t</text>
<polyline fill="none" stroke="black" points="179.5,-388.5 229.5,-388.5 "/>
<text text-anchor="middle" x="204.5" y="-376.5" font-family="Helvetica,sans-Serif" font-size="10.00"> </text>
<polyline fill="none" stroke="black" points="179.5,-369.5 229.5,-369.5 "/>
<text text-anchor="middle" x="204.5" y="-357.5" font-family="Helvetica,sans-Serif" font-size="10.00"> </text>
</a>
</g>
</g>
<!-- Node5&#45;&gt;Node3 -->
<g id="edge4" class="edge">
<title>Node5&#45;&gt;Node3</title>
<path fill="none" stroke="#404040" d="M201.61,-350.26C200.53,-339.79 199.24,-327.42 197.96,-315.07"/>
<polygon fill="none" stroke="#404040" points="197.92,-314.74 193.32,-309.18 196.68,-302.8 201.28,-308.36 197.92,-314.74"/>
<text text-anchor="middle" x="217.5" y="-324" font-family="Helvetica,sans-Serif" font-size="10.00"> +type</text>
</g>
<!-- Node6 -->
<g id="node6" class="node">
<title>Node6</title>
<g id="a_node6"><a xlink:title=" ">
<polygon fill="white" stroke="black" points="247.5,-350.5 247.5,-407.5 285.5,-407.5 285.5,-350.5 247.5,-350.5"/>
<text text-anchor="middle" x="266.5" y="-395.5" font-family="Helvetica,sans-Serif" font-size="10.00">long</text>
<polyline fill="none" stroke="black" points="247.5,-388.5 285.5,-388.5 "/>
<text text-anchor="middle" x="266.5" y="-376.5" font-family="Helvetica,sans-Serif" font-size="10.00"> </text>
<polyline fill="none" stroke="black" points="247.5,-369.5 285.5,-369.5 "/>
<text text-anchor="middle" x="266.5" y="-357.5" font-family="Helvetica,sans-Serif" font-size="10.00"> </text>
</a>
</g>
</g>
<!-- Node6&#45;&gt;Node3 -->
<g id="edge5" class="edge">
<title>Node6&#45;&gt;Node3</title>
<path fill="none" stroke="#404040" d="M253.92,-350.31C249.35,-340.86 243.97,-330.32 238.5,-321 236.94,-318.35 235.32,-315.66 233.64,-312.97"/>
<polygon fill="none" stroke="#404040" points="233.47,-312.7 226.87,-309.79 227.01,-302.58 233.61,-305.49 233.47,-312.7"/>
<text text-anchor="middle" x="260" y="-324" font-family="Helvetica,sans-Serif" font-size="10.00"> +size</text>
</g>
</g>
</svg>
