<?xml version="1.0" encoding="UTF-8" standalone="no"?>
<!DOCTYPE svg PUBLIC "-//W3C//DTD SVG 1.1//EN"
 "http://www.w3.org/Graphics/SVG/1.1/DTD/svg11.dtd">
<!-- Generated by graphviz version 2.43.0 (0)
 -->
<!-- Title: EMC_COOLANT_CMD_MSG Pages: 1 -->
<svg width="730pt" height="436pt"
 viewBox="0.00 0.00 730.00 436.00" xmlns="http://www.w3.org/2000/svg" xmlns:xlink="http://www.w3.org/1999/xlink">
<g id="graph0" class="graph" transform="scale(1 1) rotate(0) translate(4 432)">
<title>EMC_COOLANT_CMD_MSG</title>
<polygon fill="white" stroke="transparent" points="-4,4 -4,-432 726,-432 726,4 -4,4"/>
<!-- Node1 -->
<g id="node1" class="node">
<title>Node1</title>
<g id="a_node1"><a xlink:title=" ">
<polygon fill="#bfbfbf" stroke="black" points="285.5,-105.5 285.5,-173.5 452.5,-173.5 452.5,-105.5 285.5,-105.5"/>
<text text-anchor="middle" x="369" y="-161.5" font-family="Helvetica,sans-Serif" font-size="10.00">EMC_COOLANT_CMD_MSG</text>
<polyline fill="none" stroke="black" points="285.5,-154.5 452.5,-154.5 "/>
<text text-anchor="middle" x="369" y="-142.5" font-family="Helvetica,sans-Serif" font-size="10.00"> </text>
<polyline fill="none" stroke="black" points="285.5,-135.5 452.5,-135.5 "/>
<text text-anchor="start" x="293.5" y="-123.5" font-family="Helvetica,sans-Serif" font-size="10.00">+ EMC_COOLANT_CMD_MSG()</text>
<text text-anchor="start" x="293.5" y="-112.5" font-family="Helvetica,sans-Serif" font-size="10.00">+ update()</text>
</a>
</g>
</g>
<!-- Node4 -->
<g id="node4" class="node">
<title>Node4</title>
<g id="a_node4"><a xlink:href="classEMC__COOLANT__FLOOD__OFF.html" target="_top" xlink:title=" ">
<polygon fill="white" stroke="black" points="0,-0.5 0,-68.5 174,-68.5 174,-0.5 0,-0.5"/>
<text text-anchor="middle" x="87" y="-56.5" font-family="Helvetica,sans-Serif" font-size="10.00">EMC_COOLANT_FLOOD_OFF</text>
<polyline fill="none" stroke="black" points="0,-49.5 174,-49.5 "/>
<text text-anchor="middle" x="87" y="-37.5" font-family="Helvetica,sans-Serif" font-size="10.00"> </text>
<polyline fill="none" stroke="black" points="0,-30.5 174,-30.5 "/>
<text text-anchor="start" x="8" y="-18.5" font-family="Helvetica,sans-Serif" font-size="10.00">+ EMC_COOLANT_FLOOD_OFF()</text>
<text text-anchor="start" x="8" y="-7.5" font-family="Helvetica,sans-Serif" font-size="10.00">+ update()</text>
</a>
</g>
</g>
<!-- Node1&#45;&gt;Node4 -->
<g id="edge3" class="edge">
<title>Node1&#45;&gt;Node4</title>
<path fill="none" stroke="midnightblue" d="M275.62,-104.39C243.01,-92.48 206.55,-79.16 174.44,-67.44"/>
<polygon fill="none" stroke="midnightblue" points="274.56,-107.73 285.15,-107.88 276.96,-101.16 274.56,-107.73"/>
</g>
<!-- Node5 -->
<g id="node5" class="node">
<title>Node5</title>
<g id="a_node5"><a xlink:href="classEMC__COOLANT__FLOOD__ON.html" target="_top" xlink:title=" ">
<polygon fill="white" stroke="black" points="192,-0.5 192,-68.5 362,-68.5 362,-0.5 192,-0.5"/>
<text text-anchor="middle" x="277" y="-56.5" font-family="Helvetica,sans-Serif" font-size="10.00">EMC_COOLANT_FLOOD_ON</text>
<polyline fill="none" stroke="black" points="192,-49.5 362,-49.5 "/>
<text text-anchor="middle" x="277" y="-37.5" font-family="Helvetica,sans-Serif" font-size="10.00"> </text>
<polyline fill="none" stroke="black" points="192,-30.5 362,-30.5 "/>
<text text-anchor="start" x="200" y="-18.5" font-family="Helvetica,sans-Serif" font-size="10.00">+ EMC_COOLANT_FLOOD_ON()</text>
<text text-anchor="start" x="200" y="-7.5" font-family="Helvetica,sans-Serif" font-size="10.00">+ update()</text>
</a>
</g>
</g>
<!-- Node1&#45;&gt;Node5 -->
<g id="edge4" class="edge">
<title>Node1&#45;&gt;Node5</title>
<path fill="none" stroke="midnightblue" d="M332.59,-97.73C323.95,-88.07 314.85,-77.87 306.56,-68.59"/>
<polygon fill="none" stroke="midnightblue" points="330.11,-100.22 339.38,-105.34 335.33,-95.55 330.11,-100.22"/>
</g>
<!-- Node6 -->
<g id="node6" class="node">
<title>Node6</title>
<g id="a_node6"><a xlink:href="classEMC__COOLANT__MIST__OFF.html" target="_top" xlink:title=" ">
<polygon fill="white" stroke="black" points="380,-0.5 380,-68.5 544,-68.5 544,-0.5 380,-0.5"/>
<text text-anchor="middle" x="462" y="-56.5" font-family="Helvetica,sans-Serif" font-size="10.00">EMC_COOLANT_MIST_OFF</text>
<polyline fill="none" stroke="black" points="380,-49.5 544,-49.5 "/>
<text text-anchor="middle" x="462" y="-37.5" font-family="Helvetica,sans-Serif" font-size="10.00"> </text>
<polyline fill="none" stroke="black" points="380,-30.5 544,-30.5 "/>
<text text-anchor="start" x="388" y="-18.5" font-family="Helvetica,sans-Serif" font-size="10.00">+ EMC_COOLANT_MIST_OFF()</text>
<text text-anchor="start" x="388" y="-7.5" font-family="Helvetica,sans-Serif" font-size="10.00">+ update()</text>
</a>
</g>
</g>
<!-- Node1&#45;&gt;Node6 -->
<g id="edge5" class="edge">
<title>Node1&#45;&gt;Node6</title>
<path fill="none" stroke="midnightblue" d="M405.81,-97.73C414.54,-88.07 423.74,-77.87 432.12,-68.59"/>
<polygon fill="none" stroke="midnightblue" points="403.04,-95.58 398.94,-105.34 408.24,-100.27 403.04,-95.58"/>
</g>
<!-- Node7 -->
<g id="node7" class="node">
<title>Node7</title>
<g id="a_node7"><a xlink:href="classEMC__COOLANT__MIST__ON.html" target="_top" xlink:title=" ">
<polygon fill="white" stroke="black" points="562,-0.5 562,-68.5 722,-68.5 722,-0.5 562,-0.5"/>
<text text-anchor="middle" x="642" y="-56.5" font-family="Helvetica,sans-Serif" font-size="10.00">EMC_COOLANT_MIST_ON</text>
<polyline fill="none" stroke="black" points="562,-49.5 722,-49.5 "/>
<text text-anchor="middle" x="642" y="-37.5" font-family="Helvetica,sans-Serif" font-size="10.00"> </text>
<polyline fill="none" stroke="black" points="562,-30.5 722,-30.5 "/>
<text text-anchor="start" x="570" y="-18.5" font-family="Helvetica,sans-Serif" font-size="10.00">+ EMC_COOLANT_MIST_ON()</text>
<text text-anchor="start" x="570" y="-7.5" font-family="Helvetica,sans-Serif" font-size="10.00">+ update()</text>
</a>
</g>
</g>
<!-- Node1&#45;&gt;Node7 -->
<g id="edge6" class="edge">
<title>Node1&#45;&gt;Node7</title>
<path fill="none" stroke="midnightblue" d="M462.22,-103.33C494.54,-91.13 530.48,-77.58 561.67,-65.81"/>
<polygon fill="none" stroke="midnightblue" points="460.89,-100.09 452.76,-106.9 463.36,-106.64 460.89,-100.09"/>
</g>
<!-- Node2 -->
<g id="node2" class="node">
<title>Node2</title>
<g id="a_node2"><a xlink:href="classRCS__CMD__MSG.html" target="_top" xlink:title=" ">
<polygon fill="white" stroke="black" points="313.5,-210.5 313.5,-267.5 424.5,-267.5 424.5,-210.5 313.5,-210.5"/>
<text text-anchor="middle" x="369" y="-255.5" font-family="Helvetica,sans-Serif" font-size="10.00">RCS_CMD_MSG</text>
<polyline fill="none" stroke="black" points="313.5,-248.5 424.5,-248.5 "/>
<text text-anchor="start" x="321.5" y="-236.5" font-family="Helvetica,sans-Serif" font-size="10.00">+ serial_number</text>
<polyline fill="none" stroke="black" points="313.5,-229.5 424.5,-229.5 "/>
<text text-anchor="start" x="321.5" y="-217.5" font-family="Helvetica,sans-Serif" font-size="10.00">+ RCS_CMD_MSG()</text>
</a>
</g>
</g>
<!-- Node2&#45;&gt;Node1 -->
<g id="edge1" class="edge">
<title>Node2&#45;&gt;Node1</title>
<path fill="none" stroke="midnightblue" d="M369,-200.06C369,-191.39 369,-182.24 369,-173.79"/>
<polygon fill="none" stroke="midnightblue" points="365.5,-200.32 369,-210.32 372.5,-200.32 365.5,-200.32"/>
</g>
<!-- Node3 -->
<g id="node3" class="node">
<title>Node3</title>
<g id="a_node3"><a xlink:href="classNMLmsg.html" target="_top" xlink:title=" ">
<polygon fill="white" stroke="black" points="306.5,-304.5 306.5,-427.5 431.5,-427.5 431.5,-304.5 306.5,-304.5"/>
<text text-anchor="middle" x="369" y="-415.5" font-family="Helvetica,sans-Serif" font-size="10.00">NMLmsg</text>
<polyline fill="none" stroke="black" points="306.5,-408.5 431.5,-408.5 "/>
<text text-anchor="start" x="314.5" y="-396.5" font-family="Helvetica,sans-Serif" font-size="10.00">+ type</text>
<text text-anchor="start" x="314.5" y="-385.5" font-family="Helvetica,sans-Serif" font-size="10.00">+ size</text>
<text text-anchor="start" x="314.5" y="-374.5" font-family="Helvetica,sans-Serif" font-size="10.00">+ automatically_clear</text>
<polyline fill="none" stroke="black" points="306.5,-367.5 431.5,-367.5 "/>
<text text-anchor="start" x="314.5" y="-355.5" font-family="Helvetica,sans-Serif" font-size="10.00">+ clear()</text>
<text text-anchor="start" x="314.5" y="-344.5" font-family="Helvetica,sans-Serif" font-size="10.00">+ update()</text>
<text text-anchor="start" x="314.5" y="-333.5" font-family="Helvetica,sans-Serif" font-size="10.00"># NMLmsg()</text>
<text text-anchor="start" x="314.5" y="-322.5" font-family="Helvetica,sans-Serif" font-size="10.00"># NMLmsg()</text>
<text text-anchor="start" x="314.5" y="-311.5" font-family="Helvetica,sans-Serif" font-size="10.00"># NMLmsg()</text>
</a>
</g>
</g>
<!-- Node3&#45;&gt;Node2 -->
<g id="edge2" class="edge">
<title>Node3&#45;&gt;Node2</title>
<path fill="none" stroke="midnightblue" d="M369,-294.14C369,-284.8 369,-275.71 369,-267.74"/>
<polygon fill="none" stroke="midnightblue" points="365.5,-294.33 369,-304.33 372.5,-294.33 365.5,-294.33"/>
</g>
</g>
</svg>
