<?xml version="1.0" encoding="UTF-8" standalone="no"?>
<!DOCTYPE svg PUBLIC "-//W3C//DTD SVG 1.1//EN"
 "http://www.w3.org/Graphics/SVG/1.1/DTD/svg11.dtd">
<!-- Generated by graphviz version 2.43.0 (0)
 -->
<!-- Title: EMC_JOINT_STAT Pages: 1 -->
<svg width="411pt" height="794pt"
 viewBox="0.00 0.00 410.68 794.00" xmlns="http://www.w3.org/2000/svg" xmlns:xlink="http://www.w3.org/1999/xlink">
<g id="graph0" class="graph" transform="scale(1 1) rotate(0) translate(4 790)">
<title>EMC_JOINT_STAT</title>
<polygon fill="white" stroke="transparent" points="-4,4 -4,-790 406.68,-790 406.68,4 -4,4"/>
<!-- Node1 -->
<g id="node1" class="node">
<title>Node1</title>
<g id="a_node1"><a xlink:title=" ">
<polygon fill="#bfbfbf" stroke="black" points="208.68,-0.5 208.68,-79.5 326.68,-79.5 326.68,-0.5 208.68,-0.5"/>
<text text-anchor="middle" x="267.68" y="-67.5" font-family="Helvetica,sans-Serif" font-size="10.00">EMC_JOINT_STAT</text>
<polyline fill="none" stroke="black" points="208.68,-60.5 326.68,-60.5 "/>
<text text-anchor="start" x="216.68" y="-48.5" font-family="Helvetica,sans-Serif" font-size="10.00">+ velocity</text>
<text text-anchor="start" x="216.68" y="-37.5" font-family="Helvetica,sans-Serif" font-size="10.00">+ overrideLimits</text>
<polyline fill="none" stroke="black" points="208.68,-30.5 326.68,-30.5 "/>
<text text-anchor="start" x="216.68" y="-18.5" font-family="Helvetica,sans-Serif" font-size="10.00">+ EMC_JOINT_STAT()</text>
<text text-anchor="start" x="216.68" y="-7.5" font-family="Helvetica,sans-Serif" font-size="10.00">+ update()</text>
</a>
</g>
</g>
<!-- Node2 -->
<g id="node2" class="node">
<title>Node2</title>
<g id="a_node2"><a xlink:href="classEMC__JOINT__STAT__MSG.html" target="_top" xlink:title=" ">
<polygon fill="white" stroke="black" points="82.68,-237.5 82.68,-305.5 228.68,-305.5 228.68,-237.5 82.68,-237.5"/>
<text text-anchor="middle" x="155.68" y="-293.5" font-family="Helvetica,sans-Serif" font-size="10.00">EMC_JOINT_STAT_MSG</text>
<polyline fill="none" stroke="black" points="82.68,-286.5 228.68,-286.5 "/>
<text text-anchor="middle" x="155.68" y="-274.5" font-family="Helvetica,sans-Serif" font-size="10.00"> </text>
<polyline fill="none" stroke="black" points="82.68,-267.5 228.68,-267.5 "/>
<text text-anchor="start" x="90.68" y="-255.5" font-family="Helvetica,sans-Serif" font-size="10.00">+ EMC_JOINT_STAT_MSG()</text>
<text text-anchor="start" x="90.68" y="-244.5" font-family="Helvetica,sans-Serif" font-size="10.00">+ update()</text>
</a>
</g>
</g>
<!-- Node2&#45;&gt;Node1 -->
<g id="edge1" class="edge">
<title>Node2&#45;&gt;Node1</title>
<path fill="none" stroke="midnightblue" d="M176.47,-227.9C197.19,-185.45 228.72,-120.84 248.75,-79.79"/>
<polygon fill="none" stroke="midnightblue" points="173.21,-226.61 171.97,-237.13 179.5,-229.68 173.21,-226.61"/>
</g>
<!-- Node3 -->
<g id="node3" class="node">
<title>Node3</title>
<g id="a_node3"><a xlink:href="classRCS__STAT__MSG.html" target="_top" xlink:title=" ">
<polygon fill="white" stroke="black" points="100.18,-463.5 100.18,-520.5 211.18,-520.5 211.18,-463.5 100.18,-463.5"/>
<text text-anchor="middle" x="155.68" y="-508.5" font-family="Helvetica,sans-Serif" font-size="10.00">RCS_STAT_MSG</text>
<polyline fill="none" stroke="black" points="100.18,-501.5 211.18,-501.5 "/>
<text text-anchor="middle" x="155.68" y="-489.5" font-family="Helvetica,sans-Serif" font-size="10.00"> </text>
<polyline fill="none" stroke="black" points="100.18,-482.5 211.18,-482.5 "/>
<text text-anchor="start" x="108.18" y="-470.5" font-family="Helvetica,sans-Serif" font-size="10.00">+ RCS_STAT_MSG()</text>
</a>
</g>
</g>
<!-- Node3&#45;&gt;Node2 -->
<g id="edge2" class="edge">
<title>Node3&#45;&gt;Node2</title>
<path fill="none" stroke="midnightblue" d="M155.68,-453.31C155.68,-411.7 155.68,-345.35 155.68,-305.65"/>
<polygon fill="none" stroke="midnightblue" points="152.18,-453.33 155.68,-463.33 159.18,-453.33 152.18,-453.33"/>
</g>
<!-- Node4 -->
<g id="node4" class="node">
<title>Node4</title>
<g id="a_node4"><a xlink:href="classNMLmsg.html" target="_top" xlink:title=" ">
<polygon fill="white" stroke="black" points="152.68,-568.5 152.68,-669.5 230.68,-669.5 230.68,-568.5 152.68,-568.5"/>
<text text-anchor="middle" x="191.68" y="-657.5" font-family="Helvetica,sans-Serif" font-size="10.00">NMLmsg</text>
<polyline fill="none" stroke="black" points="152.68,-650.5 230.68,-650.5 "/>
<text text-anchor="middle" x="191.68" y="-638.5" font-family="Helvetica,sans-Serif" font-size="10.00"> </text>
<polyline fill="none" stroke="black" points="152.68,-631.5 230.68,-631.5 "/>
<text text-anchor="start" x="160.68" y="-619.5" font-family="Helvetica,sans-Serif" font-size="10.00">+ clear()</text>
<text text-anchor="start" x="160.68" y="-608.5" font-family="Helvetica,sans-Serif" font-size="10.00">+ update()</text>
<text text-anchor="start" x="160.68" y="-597.5" font-family="Helvetica,sans-Serif" font-size="10.00"># NMLmsg()</text>
<text text-anchor="start" x="160.68" y="-586.5" font-family="Helvetica,sans-Serif" font-size="10.00"># NMLmsg()</text>
<text text-anchor="start" x="160.68" y="-575.5" font-family="Helvetica,sans-Serif" font-size="10.00"># NMLmsg()</text>
</a>
</g>
</g>
<!-- Node4&#45;&gt;Node3 -->
<g id="edge3" class="edge">
<title>Node4&#45;&gt;Node3</title>
<path fill="none" stroke="midnightblue" d="M172.17,-558.53C171.31,-555.65 170.48,-552.8 169.68,-550 166.98,-540.49 164.31,-530.01 162.05,-520.65"/>
<polygon fill="none" stroke="midnightblue" points="168.9,-559.82 175.16,-568.36 175.6,-557.78 168.9,-559.82"/>
</g>
<!-- Node5 -->
<g id="node5" class="node">
<title>Node5</title>
<g id="a_node5"><a xlink:title=" ">
<polygon fill="white" stroke="black" points="13.18,-728.5 13.18,-785.5 42.18,-785.5 42.18,-728.5 13.18,-728.5"/>
<text text-anchor="middle" x="27.68" y="-773.5" font-family="Helvetica,sans-Serif" font-size="10.00">int</text>
<polyline fill="none" stroke="black" points="13.18,-766.5 42.18,-766.5 "/>
<text text-anchor="middle" x="27.68" y="-754.5" font-family="Helvetica,sans-Serif" font-size="10.00"> </text>
<polyline fill="none" stroke="black" points="13.18,-747.5 42.18,-747.5 "/>
<text text-anchor="middle" x="27.68" y="-735.5" font-family="Helvetica,sans-Serif" font-size="10.00"> </text>
</a>
</g>
</g>
<!-- Node5&#45;&gt;Node2 -->
<g id="edge8" class="edge">
<title>Node5&#45;&gt;Node2</title>
<path fill="none" stroke="#404040" d="M17.16,-728.11C15.34,-722.21 13.7,-715.96 12.68,-710 -0.19,-635.1 -7.11,-612.38 12.68,-539 35.58,-454.1 89.71,-366.24 124.42,-315.62"/>
<polygon fill="none" stroke="#404040" points="124.46,-315.56 124.59,-308.35 131.29,-305.7 131.16,-312.91 124.46,-315.56"/>
<text text-anchor="middle" x="29.68" y="-542" font-family="Helvetica,sans-Serif" font-size="10.00"> +joint</text>
</g>
<!-- Node5&#45;&gt;Node3 -->
<g id="edge6" class="edge">
<title>Node5&#45;&gt;Node3</title>
<path fill="none" stroke="#404040" d="M21.51,-728.27C14.47,-689.5 7.37,-618.24 36.68,-568 48.73,-547.34 68.98,-531.52 89.38,-519.84"/>
<polygon fill="none" stroke="#404040" points="89.46,-519.8 92.85,-513.44 100.03,-514.12 96.64,-520.48 89.46,-519.8"/>
<text text-anchor="middle" x="90.18" y="-644" font-family="Helvetica,sans-Serif" font-size="10.00"> +command_type</text>
<text text-anchor="middle" x="90.18" y="-633" font-family="Helvetica,sans-Serif" font-size="10.00">+echo_serial_number</text>
<text text-anchor="middle" x="90.18" y="-622" font-family="Helvetica,sans-Serif" font-size="10.00">+line</text>
<text text-anchor="middle" x="90.18" y="-611" font-family="Helvetica,sans-Serif" font-size="10.00">+source_line</text>
<text text-anchor="middle" x="90.18" y="-600" font-family="Helvetica,sans-Serif" font-size="10.00">+state</text>
<text text-anchor="middle" x="90.18" y="-589" font-family="Helvetica,sans-Serif" font-size="10.00">+status</text>
</g>
<!-- Node5&#45;&gt;Node4 -->
<g id="edge4" class="edge">
<title>Node5&#45;&gt;Node4</title>
<path fill="none" stroke="#404040" d="M42.39,-729.47C51.46,-715.32 64.3,-698.68 79.68,-688 102.2,-672.36 114.97,-683.77 138.68,-670 140,-669.23 141.32,-668.42 142.63,-667.58"/>
<polygon fill="none" stroke="#404040" points="142.67,-667.55 145.23,-660.81 152.43,-660.57 149.88,-667.31 142.67,-667.55"/>
<text text-anchor="middle" x="134.18" y="-702" font-family="Helvetica,sans-Serif" font-size="10.00"> +automatically_clear</text>
<text text-anchor="middle" x="134.18" y="-691" font-family="Helvetica,sans-Serif" font-size="10.00">+type</text>
</g>
<!-- Node6 -->
<g id="node6" class="node">
<title>Node6</title>
<g id="a_node6"><a xlink:title=" ">
<polygon fill="white" stroke="black" points="173.68,-728.5 173.68,-785.5 211.68,-785.5 211.68,-728.5 173.68,-728.5"/>
<text text-anchor="middle" x="192.68" y="-773.5" font-family="Helvetica,sans-Serif" font-size="10.00">long</text>
<polyline fill="none" stroke="black" points="173.68,-766.5 211.68,-766.5 "/>
<text text-anchor="middle" x="192.68" y="-754.5" font-family="Helvetica,sans-Serif" font-size="10.00"> </text>
<polyline fill="none" stroke="black" points="173.68,-747.5 211.68,-747.5 "/>
<text text-anchor="middle" x="192.68" y="-735.5" font-family="Helvetica,sans-Serif" font-size="10.00"> </text>
</a>
</g>
</g>
<!-- Node6&#45;&gt;Node4 -->
<g id="edge5" class="edge">
<title>Node6&#45;&gt;Node4</title>
<path fill="none" stroke="#404040" d="M192.48,-728.48C192.38,-715.06 192.26,-698.33 192.14,-682.06"/>
<polygon fill="none" stroke="#404040" points="192.13,-681.76 188.09,-675.79 192.05,-669.76 196.09,-675.73 192.13,-681.76"/>
<text text-anchor="middle" x="208.18" y="-696.5" font-family="Helvetica,sans-Serif" font-size="10.00"> +size</text>
</g>
<!-- Node7 -->
<g id="node7" class="node">
<title>Node7</title>
<g id="a_node7"><a xlink:title=" ">
<polygon fill="white" stroke="black" points="248.68,-590.5 248.68,-647.5 286.68,-647.5 286.68,-590.5 248.68,-590.5"/>
<text text-anchor="middle" x="267.68" y="-635.5" font-family="Helvetica,sans-Serif" font-size="10.00">char</text>
<polyline fill="none" stroke="black" points="248.68,-628.5 286.68,-628.5 "/>
<text text-anchor="middle" x="267.68" y="-616.5" font-family="Helvetica,sans-Serif" font-size="10.00"> </text>
<polyline fill="none" stroke="black" points="248.68,-609.5 286.68,-609.5 "/>
<text text-anchor="middle" x="267.68" y="-597.5" font-family="Helvetica,sans-Serif" font-size="10.00"> </text>
</a>
</g>
</g>
<!-- Node7&#45;&gt;Node1 -->
<g id="edge9" class="edge">
<title>Node7&#45;&gt;Node1</title>
<path fill="none" stroke="#404040" d="M267.68,-590.17C267.68,-499.27 267.68,-210.18 267.68,-92.04"/>
<polygon fill="none" stroke="#404040" points="267.68,-91.83 263.68,-85.83 267.68,-79.83 271.68,-85.83 267.68,-91.83"/>
<text text-anchor="middle" x="307.18" y="-437" font-family="Helvetica,sans-Serif" font-size="10.00"> +enabled</text>
<text text-anchor="middle" x="307.18" y="-426" font-family="Helvetica,sans-Serif" font-size="10.00">+fault</text>
<text text-anchor="middle" x="307.18" y="-415" font-family="Helvetica,sans-Serif" font-size="10.00">+homed</text>
<text text-anchor="middle" x="307.18" y="-404" font-family="Helvetica,sans-Serif" font-size="10.00">+homing</text>
<text text-anchor="middle" x="307.18" y="-393" font-family="Helvetica,sans-Serif" font-size="10.00">+inpos</text>
<text text-anchor="middle" x="307.18" y="-382" font-family="Helvetica,sans-Serif" font-size="10.00">+jointType</text>
<text text-anchor="middle" x="307.18" y="-371" font-family="Helvetica,sans-Serif" font-size="10.00">+maxHardLimit</text>
<text text-anchor="middle" x="307.18" y="-360" font-family="Helvetica,sans-Serif" font-size="10.00">+maxSoftLimit</text>
<text text-anchor="middle" x="307.18" y="-349" font-family="Helvetica,sans-Serif" font-size="10.00">+minHardLimit</text>
<text text-anchor="middle" x="307.18" y="-338" font-family="Helvetica,sans-Serif" font-size="10.00">+minSoftLimit</text>
<text text-anchor="middle" x="307.18" y="-327" font-family="Helvetica,sans-Serif" font-size="10.00">...</text>
</g>
<!-- Node7&#45;&gt;Node3 -->
<g id="edge7" class="edge">
<title>Node7&#45;&gt;Node3</title>
<path fill="none" stroke="#404040" d="M256.67,-590.28C252.36,-582.22 246.74,-573.98 239.68,-568 221.66,-552.73 207.91,-565.02 189.68,-550 183.49,-544.9 178.16,-538.37 173.67,-531.55"/>
<polygon fill="none" stroke="#404040" points="173.41,-531.11 166.92,-527.98 167.31,-520.77 173.81,-523.91 173.41,-531.11"/>
<text text-anchor="middle" x="221.68" y="-542" font-family="Helvetica,sans-Serif" font-size="10.00"> +source_file</text>
</g>
<!-- Node8 -->
<g id="node8" class="node">
<title>Node8</title>
<g id="a_node8"><a xlink:title=" ">
<polygon fill="white" stroke="black" points="295.68,-243 295.68,-300 345.68,-300 345.68,-243 295.68,-243"/>
<text text-anchor="middle" x="320.68" y="-288" font-family="Helvetica,sans-Serif" font-size="10.00">double</text>
<polyline fill="none" stroke="black" points="295.68,-281 345.68,-281 "/>
<text text-anchor="middle" x="320.68" y="-269" font-family="Helvetica,sans-Serif" font-size="10.00"> </text>
<polyline fill="none" stroke="black" points="295.68,-262 345.68,-262 "/>
<text text-anchor="middle" x="320.68" y="-250" font-family="Helvetica,sans-Serif" font-size="10.00"> </text>
</a>
</g>
</g>
<!-- Node8&#45;&gt;Node1 -->
<g id="edge10" class="edge">
<title>Node8&#45;&gt;Node1</title>
<path fill="none" stroke="#404040" d="M314.62,-242.98C307.08,-208.9 293.73,-149.1 281.68,-98 281.18,-95.86 280.66,-93.68 280.13,-91.47"/>
<polygon fill="none" stroke="#404040" points="280.08,-91.27 274.79,-86.38 277.27,-79.61 282.56,-84.5 280.08,-91.27"/>
<text text-anchor="middle" x="355.68" y="-211" font-family="Helvetica,sans-Serif" font-size="10.00"> +backlash</text>
<text text-anchor="middle" x="355.68" y="-200" font-family="Helvetica,sans-Serif" font-size="10.00">+ferrorCurrent</text>
<text text-anchor="middle" x="355.68" y="-189" font-family="Helvetica,sans-Serif" font-size="10.00">+ferrorHighMark</text>
<text text-anchor="middle" x="355.68" y="-178" font-family="Helvetica,sans-Serif" font-size="10.00">+input</text>
<text text-anchor="middle" x="355.68" y="-167" font-family="Helvetica,sans-Serif" font-size="10.00">+maxFerror</text>
<text text-anchor="middle" x="355.68" y="-156" font-family="Helvetica,sans-Serif" font-size="10.00">+maxPositionLimit</text>
<text text-anchor="middle" x="355.68" y="-145" font-family="Helvetica,sans-Serif" font-size="10.00">+minFerror</text>
<text text-anchor="middle" x="355.68" y="-134" font-family="Helvetica,sans-Serif" font-size="10.00">+minPositionLimit</text>
<text text-anchor="middle" x="355.68" y="-123" font-family="Helvetica,sans-Serif" font-size="10.00">+output</text>
<text text-anchor="middle" x="355.68" y="-112" font-family="Helvetica,sans-Serif" font-size="10.00">+units</text>
<text text-anchor="middle" x="355.68" y="-101" font-family="Helvetica,sans-Serif" font-size="10.00">...</text>
</g>
</g>
</svg>
