<?xml version="1.0" encoding="UTF-8" standalone="no"?>
<!DOCTYPE svg PUBLIC "-//W3C//DTD SVG 1.1//EN"
 "http://www.w3.org/Graphics/SVG/1.1/DTD/svg11.dtd">
<!-- Generated by graphviz version 2.43.0 (0)
 -->
<!-- Title: EMC_JOINT_HALT Pages: 1 -->
<svg width="290pt" height="543pt"
 viewBox="0.00 0.00 290.00 543.00" xmlns="http://www.w3.org/2000/svg" xmlns:xlink="http://www.w3.org/1999/xlink">
<g id="graph0" class="graph" transform="scale(1 1) rotate(0) translate(4 539)">
<title>EMC_JOINT_HALT</title>
<polygon fill="white" stroke="transparent" points="-4,4 -4,-539 286,-539 286,4 -4,4"/>
<!-- Node1 -->
<g id="node1" class="node">
<title>Node1</title>
<g id="a_node1"><a xlink:title=" ">
<polygon fill="#bfbfbf" stroke="black" points="13.5,-0.5 13.5,-68.5 132.5,-68.5 132.5,-0.5 13.5,-0.5"/>
<text text-anchor="middle" x="73" y="-56.5" font-family="Helvetica,sans-Serif" font-size="10.00">EMC_JOINT_HALT</text>
<polyline fill="none" stroke="black" points="13.5,-49.5 132.5,-49.5 "/>
<text text-anchor="middle" x="73" y="-37.5" font-family="Helvetica,sans-Serif" font-size="10.00"> </text>
<polyline fill="none" stroke="black" points="13.5,-30.5 132.5,-30.5 "/>
<text text-anchor="start" x="21.5" y="-18.5" font-family="Helvetica,sans-Serif" font-size="10.00">+ EMC_JOINT_HALT()</text>
<text text-anchor="start" x="21.5" y="-7.5" font-family="Helvetica,sans-Serif" font-size="10.00">+ update()</text>
</a>
</g>
</g>
<!-- Node2 -->
<g id="node2" class="node">
<title>Node2</title>
<g id="a_node2"><a xlink:href="classEMC__JOINT__CMD__MSG.html" target="_top" xlink:title=" ">
<polygon fill="white" stroke="black" points="0,-106.5 0,-174.5 146,-174.5 146,-106.5 0,-106.5"/>
<text text-anchor="middle" x="73" y="-162.5" font-family="Helvetica,sans-Serif" font-size="10.00">EMC_JOINT_CMD_MSG</text>
<polyline fill="none" stroke="black" points="0,-155.5 146,-155.5 "/>
<text text-anchor="middle" x="73" y="-143.5" font-family="Helvetica,sans-Serif" font-size="10.00"> </text>
<polyline fill="none" stroke="black" points="0,-136.5 146,-136.5 "/>
<text text-anchor="start" x="8" y="-124.5" font-family="Helvetica,sans-Serif" font-size="10.00">+ EMC_JOINT_CMD_MSG()</text>
<text text-anchor="start" x="8" y="-113.5" font-family="Helvetica,sans-Serif" font-size="10.00">+ update()</text>
</a>
</g>
</g>
<!-- Node2&#45;&gt;Node1 -->
<g id="edge1" class="edge">
<title>Node2&#45;&gt;Node1</title>
<path fill="none" stroke="midnightblue" d="M73,-96.17C73,-87 73,-77.46 73,-68.73"/>
<polygon fill="none" stroke="midnightblue" points="69.5,-96.31 73,-106.31 76.5,-96.31 69.5,-96.31"/>
</g>
<!-- Node3 -->
<g id="node3" class="node">
<title>Node3</title>
<g id="a_node3"><a xlink:href="classRCS__CMD__MSG.html" target="_top" xlink:title=" ">
<polygon fill="white" stroke="black" points="74.5,-212.5 74.5,-269.5 185.5,-269.5 185.5,-212.5 74.5,-212.5"/>
<text text-anchor="middle" x="130" y="-257.5" font-family="Helvetica,sans-Serif" font-size="10.00">RCS_CMD_MSG</text>
<polyline fill="none" stroke="black" points="74.5,-250.5 185.5,-250.5 "/>
<text text-anchor="middle" x="130" y="-238.5" font-family="Helvetica,sans-Serif" font-size="10.00"> </text>
<polyline fill="none" stroke="black" points="74.5,-231.5 185.5,-231.5 "/>
<text text-anchor="start" x="82.5" y="-219.5" font-family="Helvetica,sans-Serif" font-size="10.00">+ RCS_CMD_MSG()</text>
</a>
</g>
</g>
<!-- Node3&#45;&gt;Node2 -->
<g id="edge2" class="edge">
<title>Node3&#45;&gt;Node2</title>
<path fill="none" stroke="midnightblue" d="M108.86,-203.48C103.38,-194.01 97.51,-183.86 92.14,-174.58"/>
<polygon fill="none" stroke="midnightblue" points="105.93,-205.4 113.97,-212.3 111.99,-201.89 105.93,-205.4"/>
</g>
<!-- Node4 -->
<g id="node4" class="node">
<title>Node4</title>
<g id="a_node4"><a xlink:href="classNMLmsg.html" target="_top" xlink:title=" ">
<polygon fill="white" stroke="black" points="195,-317.5 195,-418.5 273,-418.5 273,-317.5 195,-317.5"/>
<text text-anchor="middle" x="234" y="-406.5" font-family="Helvetica,sans-Serif" font-size="10.00">NMLmsg</text>
<polyline fill="none" stroke="black" points="195,-399.5 273,-399.5 "/>
<text text-anchor="middle" x="234" y="-387.5" font-family="Helvetica,sans-Serif" font-size="10.00"> </text>
<polyline fill="none" stroke="black" points="195,-380.5 273,-380.5 "/>
<text text-anchor="start" x="203" y="-368.5" font-family="Helvetica,sans-Serif" font-size="10.00">+ clear()</text>
<text text-anchor="start" x="203" y="-357.5" font-family="Helvetica,sans-Serif" font-size="10.00">+ update()</text>
<text text-anchor="start" x="203" y="-346.5" font-family="Helvetica,sans-Serif" font-size="10.00"># NMLmsg()</text>
<text text-anchor="start" x="203" y="-335.5" font-family="Helvetica,sans-Serif" font-size="10.00"># NMLmsg()</text>
<text text-anchor="start" x="203" y="-324.5" font-family="Helvetica,sans-Serif" font-size="10.00"># NMLmsg()</text>
</a>
</g>
</g>
<!-- Node4&#45;&gt;Node3 -->
<g id="edge3" class="edge">
<title>Node4&#45;&gt;Node3</title>
<path fill="none" stroke="midnightblue" d="M188.25,-312.01C176.02,-297.31 163.32,-282.05 152.91,-269.54"/>
<polygon fill="none" stroke="midnightblue" points="185.89,-314.65 194.98,-320.1 191.27,-310.17 185.89,-314.65"/>
</g>
<!-- Node5 -->
<g id="node5" class="node">
<title>Node5</title>
<g id="a_node5"><a xlink:title=" ">
<polygon fill="white" stroke="black" points="80.5,-477.5 80.5,-534.5 109.5,-534.5 109.5,-477.5 80.5,-477.5"/>
<text text-anchor="middle" x="95" y="-522.5" font-family="Helvetica,sans-Serif" font-size="10.00">int</text>
<polyline fill="none" stroke="black" points="80.5,-515.5 109.5,-515.5 "/>
<text text-anchor="middle" x="95" y="-503.5" font-family="Helvetica,sans-Serif" font-size="10.00"> </text>
<polyline fill="none" stroke="black" points="80.5,-496.5 109.5,-496.5 "/>
<text text-anchor="middle" x="95" y="-484.5" font-family="Helvetica,sans-Serif" font-size="10.00"> </text>
</a>
</g>
</g>
<!-- Node5&#45;&gt;Node2 -->
<g id="edge7" class="edge">
<title>Node5&#45;&gt;Node2</title>
<path fill="none" stroke="#404040" d="M89.19,-477.19C79,-425.22 59.47,-309.77 65,-212 65.46,-203.82 66.22,-195.13 67.1,-186.75"/>
<polygon fill="none" stroke="#404040" points="67.1,-186.71 63.8,-180.3 68.44,-174.79 71.75,-181.19 67.1,-186.71"/>
<text text-anchor="middle" x="83" y="-291" font-family="Helvetica,sans-Serif" font-size="10.00"> +joint</text>
</g>
<!-- Node5&#45;&gt;Node3 -->
<g id="edge6" class="edge">
<title>Node5&#45;&gt;Node3</title>
<path fill="none" stroke="#404040" d="M93.88,-477.31C92.93,-440.38 93.16,-373.15 104,-317 106.31,-305.05 110.12,-292.42 114.12,-281"/>
<polygon fill="none" stroke="#404040" points="114.16,-280.88 112.48,-273.87 118.3,-269.61 119.99,-276.63 114.16,-280.88"/>
<text text-anchor="middle" x="145" y="-365.5" font-family="Helvetica,sans-Serif" font-size="10.00"> +serial_number</text>
</g>
<!-- Node5&#45;&gt;Node4 -->
<g id="edge4" class="edge">
<title>Node5&#45;&gt;Node4</title>
<path fill="none" stroke="#404040" d="M105.5,-477.49C111.94,-463.75 121.39,-447.8 134,-437 150.99,-422.46 162.06,-430.9 181,-419 182.33,-418.17 183.65,-417.3 184.96,-416.4"/>
<polygon fill="none" stroke="#404040" points="185.25,-416.18 187.65,-409.38 194.85,-408.98 192.45,-415.78 185.25,-416.18"/>
<text text-anchor="middle" x="188.5" y="-451" font-family="Helvetica,sans-Serif" font-size="10.00"> +automatically_clear</text>
<text text-anchor="middle" x="188.5" y="-440" font-family="Helvetica,sans-Serif" font-size="10.00">+type</text>
</g>
<!-- Node6 -->
<g id="node6" class="node">
<title>Node6</title>
<g id="a_node6"><a xlink:title=" ">
<polygon fill="white" stroke="black" points="241,-477.5 241,-534.5 279,-534.5 279,-477.5 241,-477.5"/>
<text text-anchor="middle" x="260" y="-522.5" font-family="Helvetica,sans-Serif" font-size="10.00">long</text>
<polyline fill="none" stroke="black" points="241,-515.5 279,-515.5 "/>
<text text-anchor="middle" x="260" y="-503.5" font-family="Helvetica,sans-Serif" font-size="10.00"> </text>
<polyline fill="none" stroke="black" points="241,-496.5 279,-496.5 "/>
<text text-anchor="middle" x="260" y="-484.5" font-family="Helvetica,sans-Serif" font-size="10.00"> </text>
</a>
</g>
</g>
<!-- Node6&#45;&gt;Node4 -->
<g id="edge5" class="edge">
<title>Node6&#45;&gt;Node4</title>
<path fill="none" stroke="#404040" d="M254.74,-477.48C252.15,-463.93 248.91,-447 245.77,-430.58"/>
<polygon fill="none" stroke="#404040" points="245.77,-430.55 240.71,-425.41 243.51,-418.76 248.57,-423.91 245.77,-430.55"/>
<text text-anchor="middle" x="266.5" y="-445.5" font-family="Helvetica,sans-Serif" font-size="10.00"> +size</text>
</g>
</g>
</svg>
