<?xml version="1.0" encoding="UTF-8" standalone="no"?>
<!DOCTYPE svg PUBLIC "-//W3C//DTD SVG 1.1//EN"
 "http://www.w3.org/Graphics/SVG/1.1/DTD/svg11.dtd">
<!-- Generated by graphviz version 2.43.0 (0)
 -->
<!-- Title: EMC_COOLANT_STAT_MSG Pages: 1 -->
<svg width="175pt" height="513pt"
 viewBox="0.00 0.00 175.00 513.00" xmlns="http://www.w3.org/2000/svg" xmlns:xlink="http://www.w3.org/1999/xlink">
<g id="graph0" class="graph" transform="scale(1 1) rotate(0) translate(4 509)">
<title>EMC_COOLANT_STAT_MSG</title>
<polygon fill="white" stroke="transparent" points="-4,4 -4,-509 171,-509 171,4 -4,4"/>
<!-- Node1 -->
<g id="node1" class="node">
<title>Node1</title>
<g id="a_node1"><a xlink:title=" ">
<polygon fill="#bfbfbf" stroke="black" points="0,-116.5 0,-184.5 167,-184.5 167,-116.5 0,-116.5"/>
<text text-anchor="middle" x="83.5" y="-172.5" font-family="Helvetica,sans-Serif" font-size="10.00">EMC_COOLANT_STAT_MSG</text>
<polyline fill="none" stroke="black" points="0,-165.5 167,-165.5 "/>
<text text-anchor="middle" x="83.5" y="-153.5" font-family="Helvetica,sans-Serif" font-size="10.00"> </text>
<polyline fill="none" stroke="black" points="0,-146.5 167,-146.5 "/>
<text text-anchor="start" x="8" y="-134.5" font-family="Helvetica,sans-Serif" font-size="10.00">+ EMC_COOLANT_STAT_MSG()</text>
<text text-anchor="start" x="8" y="-123.5" font-family="Helvetica,sans-Serif" font-size="10.00">+ update()</text>
</a>
</g>
</g>
<!-- Node4 -->
<g id="node4" class="node">
<title>Node4</title>
<g id="a_node4"><a xlink:href="classEMC__COOLANT__STAT.html" target="_top" xlink:title=" ">
<polygon fill="white" stroke="black" points="14,-0.5 14,-79.5 153,-79.5 153,-0.5 14,-0.5"/>
<text text-anchor="middle" x="83.5" y="-67.5" font-family="Helvetica,sans-Serif" font-size="10.00">EMC_COOLANT_STAT</text>
<polyline fill="none" stroke="black" points="14,-60.5 153,-60.5 "/>
<text text-anchor="start" x="22" y="-48.5" font-family="Helvetica,sans-Serif" font-size="10.00">+ mist</text>
<text text-anchor="start" x="22" y="-37.5" font-family="Helvetica,sans-Serif" font-size="10.00">+ flood</text>
<polyline fill="none" stroke="black" points="14,-30.5 153,-30.5 "/>
<text text-anchor="start" x="22" y="-18.5" font-family="Helvetica,sans-Serif" font-size="10.00">+ EMC_COOLANT_STAT()</text>
<text text-anchor="start" x="22" y="-7.5" font-family="Helvetica,sans-Serif" font-size="10.00">+ update()</text>
</a>
</g>
</g>
<!-- Node1&#45;&gt;Node4 -->
<g id="edge3" class="edge">
<title>Node1&#45;&gt;Node4</title>
<path fill="none" stroke="midnightblue" d="M83.5,-106.27C83.5,-97.48 83.5,-88.28 83.5,-79.65"/>
<polygon fill="none" stroke="midnightblue" points="80,-106.36 83.5,-116.36 87,-106.36 80,-106.36"/>
</g>
<!-- Node2 -->
<g id="node2" class="node">
<title>Node2</title>
<g id="a_node2"><a xlink:href="classRCS__STAT__MSG.html" target="_top" xlink:title=" ">
<polygon fill="white" stroke="black" points="20.5,-221.5 20.5,-344.5 146.5,-344.5 146.5,-221.5 20.5,-221.5"/>
<text text-anchor="middle" x="83.5" y="-332.5" font-family="Helvetica,sans-Serif" font-size="10.00">RCS_STAT_MSG</text>
<polyline fill="none" stroke="black" points="20.5,-325.5 146.5,-325.5 "/>
<text text-anchor="start" x="28.5" y="-313.5" font-family="Helvetica,sans-Serif" font-size="10.00">+ command_type</text>
<text text-anchor="start" x="28.5" y="-302.5" font-family="Helvetica,sans-Serif" font-size="10.00">+ echo_serial_number</text>
<text text-anchor="start" x="28.5" y="-291.5" font-family="Helvetica,sans-Serif" font-size="10.00">+ status</text>
<text text-anchor="start" x="28.5" y="-280.5" font-family="Helvetica,sans-Serif" font-size="10.00">+ state</text>
<text text-anchor="start" x="28.5" y="-269.5" font-family="Helvetica,sans-Serif" font-size="10.00">+ line</text>
<text text-anchor="start" x="28.5" y="-258.5" font-family="Helvetica,sans-Serif" font-size="10.00">+ source_line</text>
<text text-anchor="start" x="28.5" y="-247.5" font-family="Helvetica,sans-Serif" font-size="10.00">+ source_file</text>
<polyline fill="none" stroke="black" points="20.5,-240.5 146.5,-240.5 "/>
<text text-anchor="start" x="28.5" y="-228.5" font-family="Helvetica,sans-Serif" font-size="10.00">+ RCS_STAT_MSG()</text>
</a>
</g>
</g>
<!-- Node2&#45;&gt;Node1 -->
<g id="edge1" class="edge">
<title>Node2&#45;&gt;Node1</title>
<path fill="none" stroke="midnightblue" d="M83.5,-211.24C83.5,-201.97 83.5,-192.84 83.5,-184.62"/>
<polygon fill="none" stroke="midnightblue" points="80,-211.33 83.5,-221.33 87,-211.33 80,-211.33"/>
</g>
<!-- Node3 -->
<g id="node3" class="node">
<title>Node3</title>
<g id="a_node3"><a xlink:href="classNMLmsg.html" target="_top" xlink:title=" ">
<polygon fill="white" stroke="black" points="21,-381.5 21,-504.5 146,-504.5 146,-381.5 21,-381.5"/>
<text text-anchor="middle" x="83.5" y="-492.5" font-family="Helvetica,sans-Serif" font-size="10.00">NMLmsg</text>
<polyline fill="none" stroke="black" points="21,-485.5 146,-485.5 "/>
<text text-anchor="start" x="29" y="-473.5" font-family="Helvetica,sans-Serif" font-size="10.00">+ type</text>
<text text-anchor="start" x="29" y="-462.5" font-family="Helvetica,sans-Serif" font-size="10.00">+ size</text>
<text text-anchor="start" x="29" y="-451.5" font-family="Helvetica,sans-Serif" font-size="10.00">+ automatically_clear</text>
<polyline fill="none" stroke="black" points="21,-444.5 146,-444.5 "/>
<text text-anchor="start" x="29" y="-432.5" font-family="Helvetica,sans-Serif" font-size="10.00">+ clear()</text>
<text text-anchor="start" x="29" y="-421.5" font-family="Helvetica,sans-Serif" font-size="10.00">+ update()</text>
<text text-anchor="start" x="29" y="-410.5" font-family="Helvetica,sans-Serif" font-size="10.00"># NMLmsg()</text>
<text text-anchor="start" x="29" y="-399.5" font-family="Helvetica,sans-Serif" font-size="10.00"># NMLmsg()</text>
<text text-anchor="start" x="29" y="-388.5" font-family="Helvetica,sans-Serif" font-size="10.00"># NMLmsg()</text>
</a>
</g>
</g>
<!-- Node3&#45;&gt;Node2 -->
<g id="edge2" class="edge">
<title>Node3&#45;&gt;Node2</title>
<path fill="none" stroke="midnightblue" d="M83.5,-371.12C83.5,-362.31 83.5,-353.37 83.5,-344.73"/>
<polygon fill="none" stroke="midnightblue" points="80,-371.36 83.5,-381.36 87,-371.36 80,-371.36"/>
</g>
</g>
</svg>
