<?xml version="1.0" encoding="UTF-8" standalone="no"?>
<!DOCTYPE svg PUBLIC "-//W3C//DTD SVG 1.1//EN"
 "http://www.w3.org/Graphics/SVG/1.1/DTD/svg11.dtd">
<!-- Generated by graphviz version 2.43.0 (0)
 -->
<!-- Title: EMC_TOOL_SET_OFFSET Pages: 1 -->
<svg width="431pt" height="604pt"
 viewBox="0.00 0.00 430.50 604.00" xmlns="http://www.w3.org/2000/svg" xmlns:xlink="http://www.w3.org/1999/xlink">
<g id="graph0" class="graph" transform="scale(1 1) rotate(0) translate(4 600)">
<title>EMC_TOOL_SET_OFFSET</title>
<polygon fill="white" stroke="transparent" points="-4,4 -4,-600 426.5,-600 426.5,4 -4,4"/>
<!-- Node1 -->
<g id="node1" class="node">
<title>Node1</title>
<g id="a_node1"><a xlink:title=" ">
<polygon fill="#bfbfbf" stroke="black" points="128,-0.5 128,-68.5 282,-68.5 282,-0.5 128,-0.5"/>
<text text-anchor="middle" x="205" y="-56.5" font-family="Helvetica,sans-Serif" font-size="10.00">EMC_TOOL_SET_OFFSET</text>
<polyline fill="none" stroke="black" points="128,-49.5 282,-49.5 "/>
<text text-anchor="middle" x="205" y="-37.5" font-family="Helvetica,sans-Serif" font-size="10.00"> </text>
<polyline fill="none" stroke="black" points="128,-30.5 282,-30.5 "/>
<text text-anchor="start" x="136" y="-18.5" font-family="Helvetica,sans-Serif" font-size="10.00">+ EMC_TOOL_SET_OFFSET()</text>
<text text-anchor="start" x="136" y="-7.5" font-family="Helvetica,sans-Serif" font-size="10.00">+ update()</text>
</a>
</g>
</g>
<!-- Node2 -->
<g id="node2" class="node">
<title>Node2</title>
<g id="a_node2"><a xlink:href="classEMC__TOOL__CMD__MSG.html" target="_top" xlink:title=" ">
<polygon fill="white" stroke="black" points="57.5,-116.5 57.5,-184.5 202.5,-184.5 202.5,-116.5 57.5,-116.5"/>
<text text-anchor="middle" x="130" y="-172.5" font-family="Helvetica,sans-Serif" font-size="10.00">EMC_TOOL_CMD_MSG</text>
<polyline fill="none" stroke="black" points="57.5,-165.5 202.5,-165.5 "/>
<text text-anchor="middle" x="130" y="-153.5" font-family="Helvetica,sans-Serif" font-size="10.00"> </text>
<polyline fill="none" stroke="black" points="57.5,-146.5 202.5,-146.5 "/>
<text text-anchor="start" x="65.5" y="-134.5" font-family="Helvetica,sans-Serif" font-size="10.00">+ EMC_TOOL_CMD_MSG()</text>
<text text-anchor="start" x="65.5" y="-123.5" font-family="Helvetica,sans-Serif" font-size="10.00">+ update()</text>
</a>
</g>
</g>
<!-- Node2&#45;&gt;Node1 -->
<g id="edge1" class="edge">
<title>Node2&#45;&gt;Node1</title>
<path fill="none" stroke="midnightblue" d="M157.6,-107.55C166.04,-94.71 175.21,-80.78 183.21,-68.62"/>
<polygon fill="none" stroke="midnightblue" points="154.47,-105.94 151.89,-116.22 160.31,-109.79 154.47,-105.94"/>
</g>
<!-- Node3 -->
<g id="node3" class="node">
<title>Node3</title>
<g id="a_node3"><a xlink:href="classRCS__CMD__MSG.html" target="_top" xlink:title=" ">
<polygon fill="white" stroke="black" points="83.5,-258.5 83.5,-315.5 194.5,-315.5 194.5,-258.5 83.5,-258.5"/>
<text text-anchor="middle" x="139" y="-303.5" font-family="Helvetica,sans-Serif" font-size="10.00">RCS_CMD_MSG</text>
<polyline fill="none" stroke="black" points="83.5,-296.5 194.5,-296.5 "/>
<text text-anchor="middle" x="139" y="-284.5" font-family="Helvetica,sans-Serif" font-size="10.00"> </text>
<polyline fill="none" stroke="black" points="83.5,-277.5 194.5,-277.5 "/>
<text text-anchor="start" x="91.5" y="-265.5" font-family="Helvetica,sans-Serif" font-size="10.00">+ RCS_CMD_MSG()</text>
</a>
</g>
</g>
<!-- Node3&#45;&gt;Node2 -->
<g id="edge2" class="edge">
<title>Node3&#45;&gt;Node2</title>
<path fill="none" stroke="midnightblue" d="M136.49,-248.44C135.15,-228.43 133.51,-204.03 132.22,-184.71"/>
<polygon fill="none" stroke="midnightblue" points="133,-248.71 137.16,-258.46 139.98,-248.25 133,-248.71"/>
</g>
<!-- Node4 -->
<g id="node4" class="node">
<title>Node4</title>
<g id="a_node4"><a xlink:href="classNMLmsg.html" target="_top" xlink:title=" ">
<polygon fill="white" stroke="black" points="159,-389.5 159,-490.5 237,-490.5 237,-389.5 159,-389.5"/>
<text text-anchor="middle" x="198" y="-478.5" font-family="Helvetica,sans-Serif" font-size="10.00">NMLmsg</text>
<polyline fill="none" stroke="black" points="159,-471.5 237,-471.5 "/>
<text text-anchor="middle" x="198" y="-459.5" font-family="Helvetica,sans-Serif" font-size="10.00"> </text>
<polyline fill="none" stroke="black" points="159,-452.5 237,-452.5 "/>
<text text-anchor="start" x="167" y="-440.5" font-family="Helvetica,sans-Serif" font-size="10.00">+ clear()</text>
<text text-anchor="start" x="167" y="-429.5" font-family="Helvetica,sans-Serif" font-size="10.00">+ update()</text>
<text text-anchor="start" x="167" y="-418.5" font-family="Helvetica,sans-Serif" font-size="10.00"># NMLmsg()</text>
<text text-anchor="start" x="167" y="-407.5" font-family="Helvetica,sans-Serif" font-size="10.00"># NMLmsg()</text>
<text text-anchor="start" x="167" y="-396.5" font-family="Helvetica,sans-Serif" font-size="10.00"># NMLmsg()</text>
</a>
</g>
</g>
<!-- Node4&#45;&gt;Node3 -->
<g id="edge3" class="edge">
<title>Node4&#45;&gt;Node3</title>
<path fill="none" stroke="midnightblue" d="M174.88,-379.82C166.25,-357.75 156.87,-333.73 149.86,-315.79"/>
<polygon fill="none" stroke="midnightblue" points="171.62,-381.1 178.52,-389.14 178.14,-378.55 171.62,-381.1"/>
</g>
<!-- Node5 -->
<g id="node5" class="node">
<title>Node5</title>
<g id="a_node5"><a xlink:title=" ">
<polygon fill="white" stroke="black" points="31.5,-538.5 31.5,-595.5 60.5,-595.5 60.5,-538.5 31.5,-538.5"/>
<text text-anchor="middle" x="46" y="-583.5" font-family="Helvetica,sans-Serif" font-size="10.00">int</text>
<polyline fill="none" stroke="black" points="31.5,-576.5 60.5,-576.5 "/>
<text text-anchor="middle" x="46" y="-564.5" font-family="Helvetica,sans-Serif" font-size="10.00"> </text>
<polyline fill="none" stroke="black" points="31.5,-557.5 60.5,-557.5 "/>
<text text-anchor="middle" x="46" y="-545.5" font-family="Helvetica,sans-Serif" font-size="10.00"> </text>
</a>
</g>
</g>
<!-- Node5&#45;&gt;Node1 -->
<g id="edge8" class="edge">
<title>Node5&#45;&gt;Node1</title>
<path fill="none" stroke="#404040" d="M31.45,-542.06C17.97,-517.58 0,-478 0,-441 0,-441 0,-441 0,-149.5 0,-92.76 60.73,-64.01 116.08,-49.59"/>
<polygon fill="none" stroke="#404040" points="116.13,-49.58 121.01,-44.27 127.79,-46.73 122.91,-52.04 116.13,-49.58"/>
<text text-anchor="middle" x="32.5" y="-295.5" font-family="Helvetica,sans-Serif" font-size="10.00"> +orientation</text>
<text text-anchor="middle" x="32.5" y="-284.5" font-family="Helvetica,sans-Serif" font-size="10.00">+pocket</text>
<text text-anchor="middle" x="32.5" y="-273.5" font-family="Helvetica,sans-Serif" font-size="10.00">+toolno</text>
</g>
<!-- Node5&#45;&gt;Node3 -->
<g id="edge7" class="edge">
<title>Node5&#45;&gt;Node3</title>
<path fill="none" stroke="#404040" d="M45.36,-538.32C45.43,-502.61 48.66,-439.12 68,-389 76.85,-366.05 92.03,-343.38 106.09,-325.36"/>
<polygon fill="none" stroke="#404040" points="106.22,-325.2 106.86,-318.01 113.74,-315.84 113.1,-323.03 106.22,-325.2"/>
<text text-anchor="middle" x="109" y="-437.5" font-family="Helvetica,sans-Serif" font-size="10.00"> +serial_number</text>
</g>
<!-- Node5&#45;&gt;Node4 -->
<g id="edge4" class="edge">
<title>Node5&#45;&gt;Node4</title>
<path fill="none" stroke="#404040" d="M60.56,-543.91C68.98,-532.39 80.4,-518.71 93,-509 108.12,-497.34 115.63,-500.82 132,-491 137.62,-487.63 143.34,-483.87 148.94,-479.97"/>
<polygon fill="none" stroke="#404040" points="149.09,-479.85 151.63,-473.1 158.83,-472.85 156.3,-479.6 149.09,-479.85"/>
<text text-anchor="middle" x="147.5" y="-512" font-family="Helvetica,sans-Serif" font-size="10.00"> +automatically_clear</text>
</g>
<!-- Node6 -->
<g id="node6" class="node">
<title>Node6</title>
<g id="a_node6"><a xlink:title=" ">
<polygon fill="white" stroke="black" points="186,-538.5 186,-595.5 236,-595.5 236,-538.5 186,-538.5"/>
<text text-anchor="middle" x="211" y="-583.5" font-family="Helvetica,sans-Serif" font-size="10.00">int32_t</text>
<polyline fill="none" stroke="black" points="186,-576.5 236,-576.5 "/>
<text text-anchor="middle" x="211" y="-564.5" font-family="Helvetica,sans-Serif" font-size="10.00"> </text>
<polyline fill="none" stroke="black" points="186,-557.5 236,-557.5 "/>
<text text-anchor="middle" x="211" y="-545.5" font-family="Helvetica,sans-Serif" font-size="10.00"> </text>
</a>
</g>
</g>
<!-- Node6&#45;&gt;Node4 -->
<g id="edge5" class="edge">
<title>Node6&#45;&gt;Node4</title>
<path fill="none" stroke="#404040" d="M208.11,-538.26C207.03,-527.79 205.74,-515.42 204.46,-503.07"/>
<polygon fill="none" stroke="#404040" points="204.42,-502.74 199.82,-497.18 203.18,-490.8 207.78,-496.36 204.42,-502.74"/>
<text text-anchor="middle" x="224" y="-512" font-family="Helvetica,sans-Serif" font-size="10.00"> +type</text>
</g>
<!-- Node7 -->
<g id="node7" class="node">
<title>Node7</title>
<g id="a_node7"><a xlink:title=" ">
<polygon fill="white" stroke="black" points="254,-538.5 254,-595.5 292,-595.5 292,-538.5 254,-538.5"/>
<text text-anchor="middle" x="273" y="-583.5" font-family="Helvetica,sans-Serif" font-size="10.00">long</text>
<polyline fill="none" stroke="black" points="254,-576.5 292,-576.5 "/>
<text text-anchor="middle" x="273" y="-564.5" font-family="Helvetica,sans-Serif" font-size="10.00"> </text>
<polyline fill="none" stroke="black" points="254,-557.5 292,-557.5 "/>
<text text-anchor="middle" x="273" y="-545.5" font-family="Helvetica,sans-Serif" font-size="10.00"> </text>
</a>
</g>
</g>
<!-- Node7&#45;&gt;Node4 -->
<g id="edge6" class="edge">
<title>Node7&#45;&gt;Node4</title>
<path fill="none" stroke="#404040" d="M260.42,-538.31C255.85,-528.86 250.47,-518.32 245,-509 243.44,-506.35 241.82,-503.66 240.14,-500.97"/>
<polygon fill="none" stroke="#404040" points="239.97,-500.7 233.37,-497.79 233.51,-490.58 240.11,-493.49 239.97,-500.7"/>
<text text-anchor="middle" x="266.5" y="-512" font-family="Helvetica,sans-Serif" font-size="10.00"> +size</text>
</g>
<!-- Node8 -->
<g id="node8" class="node">
<title>Node8</title>
<g id="a_node8"><a xlink:href="structEmcPose.html" target="_top" xlink:title=" ">
<polygon fill="white" stroke="black" points="276.5,-122 276.5,-179 337.5,-179 337.5,-122 276.5,-122"/>
<text text-anchor="middle" x="307" y="-167" font-family="Helvetica,sans-Serif" font-size="10.00">EmcPose</text>
<polyline fill="none" stroke="black" points="276.5,-160 337.5,-160 "/>
<text text-anchor="middle" x="307" y="-148" font-family="Helvetica,sans-Serif" font-size="10.00"> </text>
<polyline fill="none" stroke="black" points="276.5,-141 337.5,-141 "/>
<text text-anchor="middle" x="307" y="-129" font-family="Helvetica,sans-Serif" font-size="10.00"> </text>
</a>
</g>
</g>
<!-- Node8&#45;&gt;Node1 -->
<g id="edge9" class="edge">
<title>Node8&#45;&gt;Node1</title>
<path fill="none" stroke="#404040" d="M282.31,-121.9C270.4,-108.59 255.84,-92.33 242.59,-77.52"/>
<polygon fill="none" stroke="#404040" points="242.55,-77.46 235.57,-75.66 234.55,-68.52 241.53,-70.33 242.55,-77.46"/>
<text text-anchor="middle" x="280" y="-90" font-family="Helvetica,sans-Serif" font-size="10.00"> +offset</text>
</g>
<!-- Node9 -->
<g id="node9" class="node">
<title>Node9</title>
<g id="a_node9"><a xlink:href="structPmCartesian.html" target="_top" xlink:title=" ">
<polygon fill="white" stroke="black" points="343.5,-258.5 343.5,-315.5 422.5,-315.5 422.5,-258.5 343.5,-258.5"/>
<text text-anchor="middle" x="383" y="-303.5" font-family="Helvetica,sans-Serif" font-size="10.00">PmCartesian</text>
<polyline fill="none" stroke="black" points="343.5,-296.5 422.5,-296.5 "/>
<text text-anchor="middle" x="383" y="-284.5" font-family="Helvetica,sans-Serif" font-size="10.00"> </text>
<polyline fill="none" stroke="black" points="343.5,-277.5 422.5,-277.5 "/>
<text text-anchor="middle" x="383" y="-265.5" font-family="Helvetica,sans-Serif" font-size="10.00"> </text>
</a>
</g>
</g>
<!-- Node9&#45;&gt;Node8 -->
<g id="edge10" class="edge">
<title>Node9&#45;&gt;Node8</title>
<path fill="none" stroke="#404040" d="M367.44,-258.46C356.22,-238.6 340.93,-211.55 328.54,-189.62"/>
<polygon fill="none" stroke="#404040" points="328.45,-189.45 322.01,-186.2 322.54,-179.01 328.98,-182.26 328.45,-189.45"/>
<text text-anchor="middle" x="369.5" y="-217" font-family="Helvetica,sans-Serif" font-size="10.00"> +tran</text>
</g>
<!-- Node10 -->
<g id="node10" class="node">
<title>Node10</title>
<g id="a_node10"><a xlink:title=" ">
<polygon fill="white" stroke="black" points="282,-411.5 282,-468.5 332,-468.5 332,-411.5 282,-411.5"/>
<text text-anchor="middle" x="307" y="-456.5" font-family="Helvetica,sans-Serif" font-size="10.00">double</text>
<polyline fill="none" stroke="black" points="282,-449.5 332,-449.5 "/>
<text text-anchor="middle" x="307" y="-437.5" font-family="Helvetica,sans-Serif" font-size="10.00"> </text>
<polyline fill="none" stroke="black" points="282,-430.5 332,-430.5 "/>
<text text-anchor="middle" x="307" y="-418.5" font-family="Helvetica,sans-Serif" font-size="10.00"> </text>
</a>
</g>
</g>
<!-- Node10&#45;&gt;Node1 -->
<g id="edge13" class="edge">
<title>Node10&#45;&gt;Node1</title>
<path fill="none" stroke="#404040" d="M296.93,-411.41C283.07,-372.66 258.01,-299.7 242,-236 228.75,-183.27 218.08,-121.63 211.66,-80.76"/>
<polygon fill="none" stroke="#404040" points="211.64,-80.63 206.77,-75.31 209.81,-68.77 214.68,-74.09 211.64,-80.63"/>
<text text-anchor="middle" x="272.5" y="-228" font-family="Helvetica,sans-Serif" font-size="10.00"> +backangle</text>
<text text-anchor="middle" x="272.5" y="-217" font-family="Helvetica,sans-Serif" font-size="10.00">+diameter</text>
<text text-anchor="middle" x="272.5" y="-206" font-family="Helvetica,sans-Serif" font-size="10.00">+frontangle</text>
</g>
<!-- Node10&#45;&gt;Node8 -->
<g id="edge12" class="edge">
<title>Node10&#45;&gt;Node8</title>
<path fill="none" stroke="#404040" d="M307,-411.43C307,-360.37 307,-250.88 307,-191.6"/>
<polygon fill="none" stroke="#404040" points="307,-191.41 303,-185.41 307,-179.41 311,-185.41 307,-191.41"/>
<text text-anchor="middle" x="316" y="-312" font-family="Helvetica,sans-Serif" font-size="10.00"> +a</text>
<text text-anchor="middle" x="316" y="-301" font-family="Helvetica,sans-Serif" font-size="10.00">+b</text>
<text text-anchor="middle" x="316" y="-290" font-family="Helvetica,sans-Serif" font-size="10.00">+c</text>
<text text-anchor="middle" x="316" y="-279" font-family="Helvetica,sans-Serif" font-size="10.00">+u</text>
<text text-anchor="middle" x="316" y="-268" font-family="Helvetica,sans-Serif" font-size="10.00">+v</text>
<text text-anchor="middle" x="316" y="-257" font-family="Helvetica,sans-Serif" font-size="10.00">+w</text>
</g>
<!-- Node10&#45;&gt;Node9 -->
<g id="edge11" class="edge">
<title>Node10&#45;&gt;Node9</title>
<path fill="none" stroke="#404040" d="M320.94,-411.3C332.94,-387.46 350.37,-352.82 363.71,-326.32"/>
<polygon fill="none" stroke="#404040" points="363.75,-326.24 362.88,-319.08 369.15,-315.52 370.02,-322.68 363.75,-326.24"/>
<text text-anchor="middle" x="365" y="-363" font-family="Helvetica,sans-Serif" font-size="10.00"> +x</text>
<text text-anchor="middle" x="365" y="-352" font-family="Helvetica,sans-Serif" font-size="10.00">+y</text>
<text text-anchor="middle" x="365" y="-341" font-family="Helvetica,sans-Serif" font-size="10.00">+z</text>
</g>
</g>
</svg>
