<?xml version="1.0" encoding="UTF-8" standalone="no"?>
<!DOCTYPE svg PUBLIC "-//W3C//DTD SVG 1.1//EN"
 "http://www.w3.org/Graphics/SVG/1.1/DTD/svg11.dtd">
<!-- Generated by graphviz version 2.43.0 (0)
 -->
<!-- Title: EMC_TASK_PLAN_STEP Pages: 1 -->
<svg width="228pt" height="533pt"
 viewBox="0.00 0.00 228.00 533.00" xmlns="http://www.w3.org/2000/svg" xmlns:xlink="http://www.w3.org/1999/xlink">
<g id="graph0" class="graph" transform="scale(1 1) rotate(0) translate(4 529)">
<title>EMC_TASK_PLAN_STEP</title>
<polygon fill="white" stroke="transparent" points="-4,4 -4,-529 224,-529 224,4 -4,4"/>
<!-- Node1 -->
<g id="node1" class="node">
<title>Node1</title>
<g id="a_node1"><a xlink:title=" ">
<polygon fill="#bfbfbf" stroke="black" points="0,-0.5 0,-68.5 148,-68.5 148,-0.5 0,-0.5"/>
<text text-anchor="middle" x="74" y="-56.5" font-family="Helvetica,sans-Serif" font-size="10.00">EMC_TASK_PLAN_STEP</text>
<polyline fill="none" stroke="black" points="0,-49.5 148,-49.5 "/>
<text text-anchor="middle" x="74" y="-37.5" font-family="Helvetica,sans-Serif" font-size="10.00"> </text>
<polyline fill="none" stroke="black" points="0,-30.5 148,-30.5 "/>
<text text-anchor="start" x="8" y="-18.5" font-family="Helvetica,sans-Serif" font-size="10.00">+ EMC_TASK_PLAN_STEP()</text>
<text text-anchor="start" x="8" y="-7.5" font-family="Helvetica,sans-Serif" font-size="10.00">+ update()</text>
</a>
</g>
</g>
<!-- Node2 -->
<g id="node2" class="node">
<title>Node2</title>
<g id="a_node2"><a xlink:href="classEMC__TASK__CMD__MSG.html" target="_top" xlink:title=" ">
<polygon fill="white" stroke="black" points="2.5,-106.5 2.5,-174.5 145.5,-174.5 145.5,-106.5 2.5,-106.5"/>
<text text-anchor="middle" x="74" y="-162.5" font-family="Helvetica,sans-Serif" font-size="10.00">EMC_TASK_CMD_MSG</text>
<polyline fill="none" stroke="black" points="2.5,-155.5 145.5,-155.5 "/>
<text text-anchor="middle" x="74" y="-143.5" font-family="Helvetica,sans-Serif" font-size="10.00"> </text>
<polyline fill="none" stroke="black" points="2.5,-136.5 145.5,-136.5 "/>
<text text-anchor="start" x="10.5" y="-124.5" font-family="Helvetica,sans-Serif" font-size="10.00">+ EMC_TASK_CMD_MSG()</text>
<text text-anchor="start" x="10.5" y="-113.5" font-family="Helvetica,sans-Serif" font-size="10.00">+ update()</text>
</a>
</g>
</g>
<!-- Node2&#45;&gt;Node1 -->
<g id="edge1" class="edge">
<title>Node2&#45;&gt;Node1</title>
<path fill="none" stroke="midnightblue" d="M74,-96.17C74,-87 74,-77.46 74,-68.73"/>
<polygon fill="none" stroke="midnightblue" points="70.5,-96.31 74,-106.31 77.5,-96.31 70.5,-96.31"/>
</g>
<!-- Node3 -->
<g id="node3" class="node">
<title>Node3</title>
<g id="a_node3"><a xlink:href="classRCS__CMD__MSG.html" target="_top" xlink:title=" ">
<polygon fill="white" stroke="black" points="18.5,-212.5 18.5,-269.5 129.5,-269.5 129.5,-212.5 18.5,-212.5"/>
<text text-anchor="middle" x="74" y="-257.5" font-family="Helvetica,sans-Serif" font-size="10.00">RCS_CMD_MSG</text>
<polyline fill="none" stroke="black" points="18.5,-250.5 129.5,-250.5 "/>
<text text-anchor="middle" x="74" y="-238.5" font-family="Helvetica,sans-Serif" font-size="10.00"> </text>
<polyline fill="none" stroke="black" points="18.5,-231.5 129.5,-231.5 "/>
<text text-anchor="start" x="26.5" y="-219.5" font-family="Helvetica,sans-Serif" font-size="10.00">+ RCS_CMD_MSG()</text>
</a>
</g>
</g>
<!-- Node3&#45;&gt;Node2 -->
<g id="edge2" class="edge">
<title>Node3&#45;&gt;Node2</title>
<path fill="none" stroke="midnightblue" d="M74,-202.01C74,-192.96 74,-183.38 74,-174.58"/>
<polygon fill="none" stroke="midnightblue" points="70.5,-202.3 74,-212.3 77.5,-202.3 70.5,-202.3"/>
</g>
<!-- Node4 -->
<g id="node4" class="node">
<title>Node4</title>
<g id="a_node4"><a xlink:href="classNMLmsg.html" target="_top" xlink:title=" ">
<polygon fill="white" stroke="black" points="133,-307.5 133,-408.5 211,-408.5 211,-307.5 133,-307.5"/>
<text text-anchor="middle" x="172" y="-396.5" font-family="Helvetica,sans-Serif" font-size="10.00">NMLmsg</text>
<polyline fill="none" stroke="black" points="133,-389.5 211,-389.5 "/>
<text text-anchor="middle" x="172" y="-377.5" font-family="Helvetica,sans-Serif" font-size="10.00"> </text>
<polyline fill="none" stroke="black" points="133,-370.5 211,-370.5 "/>
<text text-anchor="start" x="141" y="-358.5" font-family="Helvetica,sans-Serif" font-size="10.00">+ clear()</text>
<text text-anchor="start" x="141" y="-347.5" font-family="Helvetica,sans-Serif" font-size="10.00">+ update()</text>
<text text-anchor="start" x="141" y="-336.5" font-family="Helvetica,sans-Serif" font-size="10.00"># NMLmsg()</text>
<text text-anchor="start" x="141" y="-325.5" font-family="Helvetica,sans-Serif" font-size="10.00"># NMLmsg()</text>
<text text-anchor="start" x="141" y="-314.5" font-family="Helvetica,sans-Serif" font-size="10.00"># NMLmsg()</text>
</a>
</g>
</g>
<!-- Node4&#45;&gt;Node3 -->
<g id="edge3" class="edge">
<title>Node4&#45;&gt;Node3</title>
<path fill="none" stroke="midnightblue" d="M126.48,-303.58C116.51,-291.88 106.34,-279.95 97.64,-269.75"/>
<polygon fill="none" stroke="midnightblue" points="123.84,-305.88 132.99,-311.22 129.16,-301.34 123.84,-305.88"/>
</g>
<!-- Node5 -->
<g id="node5" class="node">
<title>Node5</title>
<g id="a_node5"><a xlink:title=" ">
<polygon fill="white" stroke="black" points="35.5,-467.5 35.5,-524.5 64.5,-524.5 64.5,-467.5 35.5,-467.5"/>
<text text-anchor="middle" x="50" y="-512.5" font-family="Helvetica,sans-Serif" font-size="10.00">int</text>
<polyline fill="none" stroke="black" points="35.5,-505.5 64.5,-505.5 "/>
<text text-anchor="middle" x="50" y="-493.5" font-family="Helvetica,sans-Serif" font-size="10.00"> </text>
<polyline fill="none" stroke="black" points="35.5,-486.5 64.5,-486.5 "/>
<text text-anchor="middle" x="50" y="-474.5" font-family="Helvetica,sans-Serif" font-size="10.00"> </text>
</a>
</g>
</g>
<!-- Node5&#45;&gt;Node3 -->
<g id="edge6" class="edge">
<title>Node5&#45;&gt;Node3</title>
<path fill="none" stroke="#404040" d="M44.27,-467.49C37.58,-430.47 29,-362.84 42,-307 44.06,-298.16 47.5,-289.13 51.38,-280.73"/>
<polygon fill="none" stroke="#404040" points="51.51,-280.48 50.6,-273.33 56.86,-269.74 57.76,-276.89 51.51,-280.48"/>
<text text-anchor="middle" x="83" y="-355.5" font-family="Helvetica,sans-Serif" font-size="10.00"> +serial_number</text>
</g>
<!-- Node5&#45;&gt;Node4 -->
<g id="edge4" class="edge">
<title>Node5&#45;&gt;Node4</title>
<path fill="none" stroke="#404040" d="M53.28,-467.3C56.19,-453.68 61.67,-437.89 72,-427 87.39,-410.77 100.06,-420.9 119,-409 120.33,-408.17 121.65,-407.3 122.96,-406.4"/>
<polygon fill="none" stroke="#404040" points="123.25,-406.18 125.65,-399.38 132.85,-398.98 130.45,-405.78 123.25,-406.18"/>
<text text-anchor="middle" x="126.5" y="-441" font-family="Helvetica,sans-Serif" font-size="10.00"> +automatically_clear</text>
<text text-anchor="middle" x="126.5" y="-430" font-family="Helvetica,sans-Serif" font-size="10.00">+type</text>
</g>
<!-- Node6 -->
<g id="node6" class="node">
<title>Node6</title>
<g id="a_node6"><a xlink:title=" ">
<polygon fill="white" stroke="black" points="179,-467.5 179,-524.5 217,-524.5 217,-467.5 179,-467.5"/>
<text text-anchor="middle" x="198" y="-512.5" font-family="Helvetica,sans-Serif" font-size="10.00">long</text>
<polyline fill="none" stroke="black" points="179,-505.5 217,-505.5 "/>
<text text-anchor="middle" x="198" y="-493.5" font-family="Helvetica,sans-Serif" font-size="10.00"> </text>
<polyline fill="none" stroke="black" points="179,-486.5 217,-486.5 "/>
<text text-anchor="middle" x="198" y="-474.5" font-family="Helvetica,sans-Serif" font-size="10.00"> </text>
</a>
</g>
</g>
<!-- Node6&#45;&gt;Node4 -->
<g id="edge5" class="edge">
<title>Node6&#45;&gt;Node4</title>
<path fill="none" stroke="#404040" d="M192.74,-467.48C190.15,-453.93 186.91,-437 183.77,-420.58"/>
<polygon fill="none" stroke="#404040" points="183.77,-420.55 178.71,-415.41 181.51,-408.76 186.57,-413.91 183.77,-420.55"/>
<text text-anchor="middle" x="204.5" y="-435.5" font-family="Helvetica,sans-Serif" font-size="10.00"> +size</text>
</g>
</g>
</svg>
