<?xml version="1.0" encoding="UTF-8" standalone="no"?>
<!DOCTYPE svg PUBLIC "-//W3C//DTD SVG 1.1//EN"
 "http://www.w3.org/Graphics/SVG/1.1/DTD/svg11.dtd">
<!-- Generated by graphviz version 2.43.0 (0)
 -->
<!-- Title: EMC_COOLANT_FLOOD_OFF Pages: 1 -->
<svg width="241pt" height="533pt"
 viewBox="0.00 0.00 241.00 533.00" xmlns="http://www.w3.org/2000/svg" xmlns:xlink="http://www.w3.org/1999/xlink">
<g id="graph0" class="graph" transform="scale(1 1) rotate(0) translate(4 529)">
<title>EMC_COOLANT_FLOOD_OFF</title>
<polygon fill="white" stroke="transparent" points="-4,4 -4,-529 237,-529 237,4 -4,4"/>
<!-- Node1 -->
<g id="node1" class="node">
<title>Node1</title>
<g id="a_node1"><a xlink:title=" ">
<polygon fill="#bfbfbf" stroke="black" points="0,-0.5 0,-68.5 174,-68.5 174,-0.5 0,-0.5"/>
<text text-anchor="middle" x="87" y="-56.5" font-family="Helvetica,sans-Serif" font-size="10.00">EMC_COOLANT_FLOOD_OFF</text>
<polyline fill="none" stroke="black" points="0,-49.5 174,-49.5 "/>
<text text-anchor="middle" x="87" y="-37.5" font-family="Helvetica,sans-Serif" font-size="10.00"> </text>
<polyline fill="none" stroke="black" points="0,-30.5 174,-30.5 "/>
<text text-anchor="start" x="8" y="-18.5" font-family="Helvetica,sans-Serif" font-size="10.00">+ EMC_COOLANT_FLOOD_OFF()</text>
<text text-anchor="start" x="8" y="-7.5" font-family="Helvetica,sans-Serif" font-size="10.00">+ update()</text>
</a>
</g>
</g>
<!-- Node2 -->
<g id="node2" class="node">
<title>Node2</title>
<g id="a_node2"><a xlink:href="classEMC__COOLANT__CMD__MSG.html" target="_top" xlink:title=" ">
<polygon fill="white" stroke="black" points="3.5,-106.5 3.5,-174.5 170.5,-174.5 170.5,-106.5 3.5,-106.5"/>
<text text-anchor="middle" x="87" y="-162.5" font-family="Helvetica,sans-Serif" font-size="10.00">EMC_COOLANT_CMD_MSG</text>
<polyline fill="none" stroke="black" points="3.5,-155.5 170.5,-155.5 "/>
<text text-anchor="middle" x="87" y="-143.5" font-family="Helvetica,sans-Serif" font-size="10.00"> </text>
<polyline fill="none" stroke="black" points="3.5,-136.5 170.5,-136.5 "/>
<text text-anchor="start" x="11.5" y="-124.5" font-family="Helvetica,sans-Serif" font-size="10.00">+ EMC_COOLANT_CMD_MSG()</text>
<text text-anchor="start" x="11.5" y="-113.5" font-family="Helvetica,sans-Serif" font-size="10.00">+ update()</text>
</a>
</g>
</g>
<!-- Node2&#45;&gt;Node1 -->
<g id="edge1" class="edge">
<title>Node2&#45;&gt;Node1</title>
<path fill="none" stroke="midnightblue" d="M87,-96.17C87,-87 87,-77.46 87,-68.73"/>
<polygon fill="none" stroke="midnightblue" points="83.5,-96.31 87,-106.31 90.5,-96.31 83.5,-96.31"/>
</g>
<!-- Node3 -->
<g id="node3" class="node">
<title>Node3</title>
<g id="a_node3"><a xlink:href="classRCS__CMD__MSG.html" target="_top" xlink:title=" ">
<polygon fill="white" stroke="black" points="31.5,-212.5 31.5,-269.5 142.5,-269.5 142.5,-212.5 31.5,-212.5"/>
<text text-anchor="middle" x="87" y="-257.5" font-family="Helvetica,sans-Serif" font-size="10.00">RCS_CMD_MSG</text>
<polyline fill="none" stroke="black" points="31.5,-250.5 142.5,-250.5 "/>
<text text-anchor="middle" x="87" y="-238.5" font-family="Helvetica,sans-Serif" font-size="10.00"> </text>
<polyline fill="none" stroke="black" points="31.5,-231.5 142.5,-231.5 "/>
<text text-anchor="start" x="39.5" y="-219.5" font-family="Helvetica,sans-Serif" font-size="10.00">+ RCS_CMD_MSG()</text>
</a>
</g>
</g>
<!-- Node3&#45;&gt;Node2 -->
<g id="edge2" class="edge">
<title>Node3&#45;&gt;Node2</title>
<path fill="none" stroke="midnightblue" d="M87,-202.01C87,-192.96 87,-183.38 87,-174.58"/>
<polygon fill="none" stroke="midnightblue" points="83.5,-202.3 87,-212.3 90.5,-202.3 83.5,-202.3"/>
</g>
<!-- Node4 -->
<g id="node4" class="node">
<title>Node4</title>
<g id="a_node4"><a xlink:href="classNMLmsg.html" target="_top" xlink:title=" ">
<polygon fill="white" stroke="black" points="146,-307.5 146,-408.5 224,-408.5 224,-307.5 146,-307.5"/>
<text text-anchor="middle" x="185" y="-396.5" font-family="Helvetica,sans-Serif" font-size="10.00">NMLmsg</text>
<polyline fill="none" stroke="black" points="146,-389.5 224,-389.5 "/>
<text text-anchor="middle" x="185" y="-377.5" font-family="Helvetica,sans-Serif" font-size="10.00"> </text>
<polyline fill="none" stroke="black" points="146,-370.5 224,-370.5 "/>
<text text-anchor="start" x="154" y="-358.5" font-family="Helvetica,sans-Serif" font-size="10.00">+ clear()</text>
<text text-anchor="start" x="154" y="-347.5" font-family="Helvetica,sans-Serif" font-size="10.00">+ update()</text>
<text text-anchor="start" x="154" y="-336.5" font-family="Helvetica,sans-Serif" font-size="10.00"># NMLmsg()</text>
<text text-anchor="start" x="154" y="-325.5" font-family="Helvetica,sans-Serif" font-size="10.00"># NMLmsg()</text>
<text text-anchor="start" x="154" y="-314.5" font-family="Helvetica,sans-Serif" font-size="10.00"># NMLmsg()</text>
</a>
</g>
</g>
<!-- Node4&#45;&gt;Node3 -->
<g id="edge3" class="edge">
<title>Node4&#45;&gt;Node3</title>
<path fill="none" stroke="midnightblue" d="M139.48,-303.58C129.51,-291.88 119.34,-279.95 110.64,-269.75"/>
<polygon fill="none" stroke="midnightblue" points="136.84,-305.88 145.99,-311.22 142.16,-301.34 136.84,-305.88"/>
</g>
<!-- Node5 -->
<g id="node5" class="node">
<title>Node5</title>
<g id="a_node5"><a xlink:title=" ">
<polygon fill="white" stroke="black" points="48.5,-467.5 48.5,-524.5 77.5,-524.5 77.5,-467.5 48.5,-467.5"/>
<text text-anchor="middle" x="63" y="-512.5" font-family="Helvetica,sans-Serif" font-size="10.00">int</text>
<polyline fill="none" stroke="black" points="48.5,-505.5 77.5,-505.5 "/>
<text text-anchor="middle" x="63" y="-493.5" font-family="Helvetica,sans-Serif" font-size="10.00"> </text>
<polyline fill="none" stroke="black" points="48.5,-486.5 77.5,-486.5 "/>
<text text-anchor="middle" x="63" y="-474.5" font-family="Helvetica,sans-Serif" font-size="10.00"> </text>
</a>
</g>
</g>
<!-- Node5&#45;&gt;Node3 -->
<g id="edge6" class="edge">
<title>Node5&#45;&gt;Node3</title>
<path fill="none" stroke="#404040" d="M57.27,-467.49C50.58,-430.47 42,-362.84 55,-307 57.06,-298.16 60.5,-289.13 64.38,-280.73"/>
<polygon fill="none" stroke="#404040" points="64.51,-280.48 63.6,-273.33 69.86,-269.74 70.76,-276.89 64.51,-280.48"/>
<text text-anchor="middle" x="96" y="-355.5" font-family="Helvetica,sans-Serif" font-size="10.00"> +serial_number</text>
</g>
<!-- Node5&#45;&gt;Node4 -->
<g id="edge4" class="edge">
<title>Node5&#45;&gt;Node4</title>
<path fill="none" stroke="#404040" d="M66.28,-467.3C69.19,-453.68 74.67,-437.89 85,-427 100.39,-410.77 113.06,-420.9 132,-409 133.33,-408.17 134.65,-407.3 135.96,-406.4"/>
<polygon fill="none" stroke="#404040" points="136.25,-406.18 138.65,-399.38 145.85,-398.98 143.45,-405.78 136.25,-406.18"/>
<text text-anchor="middle" x="139.5" y="-441" font-family="Helvetica,sans-Serif" font-size="10.00"> +automatically_clear</text>
<text text-anchor="middle" x="139.5" y="-430" font-family="Helvetica,sans-Serif" font-size="10.00">+type</text>
</g>
<!-- Node6 -->
<g id="node6" class="node">
<title>Node6</title>
<g id="a_node6"><a xlink:title=" ">
<polygon fill="white" stroke="black" points="192,-467.5 192,-524.5 230,-524.5 230,-467.5 192,-467.5"/>
<text text-anchor="middle" x="211" y="-512.5" font-family="Helvetica,sans-Serif" font-size="10.00">long</text>
<polyline fill="none" stroke="black" points="192,-505.5 230,-505.5 "/>
<text text-anchor="middle" x="211" y="-493.5" font-family="Helvetica,sans-Serif" font-size="10.00"> </text>
<polyline fill="none" stroke="black" points="192,-486.5 230,-486.5 "/>
<text text-anchor="middle" x="211" y="-474.5" font-family="Helvetica,sans-Serif" font-size="10.00"> </text>
</a>
</g>
</g>
<!-- Node6&#45;&gt;Node4 -->
<g id="edge5" class="edge">
<title>Node6&#45;&gt;Node4</title>
<path fill="none" stroke="#404040" d="M205.74,-467.48C203.15,-453.93 199.91,-437 196.77,-420.58"/>
<polygon fill="none" stroke="#404040" points="196.77,-420.55 191.71,-415.41 194.51,-408.76 199.57,-413.91 196.77,-420.55"/>
<text text-anchor="middle" x="217.5" y="-435.5" font-family="Helvetica,sans-Serif" font-size="10.00"> +size</text>
</g>
</g>
</svg>
