<?xml version="1.0" encoding="UTF-8" standalone="no"?>
<!DOCTYPE svg PUBLIC "-//W3C//DTD SVG 1.1//EN"
 "http://www.w3.org/Graphics/SVG/1.1/DTD/svg11.dtd">
<!-- Generated by graphviz version 2.43.0 (0)
 -->
<!-- Title: EMC_OPERATOR_DISPLAY Pages: 1 -->
<svg width="237pt" height="447pt"
 viewBox="0.00 0.00 236.50 447.00" xmlns="http://www.w3.org/2000/svg" xmlns:xlink="http://www.w3.org/1999/xlink">
<g id="graph0" class="graph" transform="scale(1 1) rotate(0) translate(4 443)">
<title>EMC_OPERATOR_DISPLAY</title>
<polygon fill="white" stroke="transparent" points="-4,4 -4,-443 232.5,-443 232.5,4 -4,4"/>
<!-- Node1 -->
<g id="node1" class="node">
<title>Node1</title>
<g id="a_node1"><a xlink:title=" ">
<polygon fill="#bfbfbf" stroke="black" points="0,-0.5 0,-68.5 161,-68.5 161,-0.5 0,-0.5"/>
<text text-anchor="middle" x="80.5" y="-56.5" font-family="Helvetica,sans-Serif" font-size="10.00">EMC_OPERATOR_DISPLAY</text>
<polyline fill="none" stroke="black" points="0,-49.5 161,-49.5 "/>
<text text-anchor="middle" x="80.5" y="-37.5" font-family="Helvetica,sans-Serif" font-size="10.00"> </text>
<polyline fill="none" stroke="black" points="0,-30.5 161,-30.5 "/>
<text text-anchor="start" x="8" y="-18.5" font-family="Helvetica,sans-Serif" font-size="10.00">+ EMC_OPERATOR_DISPLAY()</text>
<text text-anchor="start" x="8" y="-7.5" font-family="Helvetica,sans-Serif" font-size="10.00">+ update()</text>
</a>
</g>
</g>
<!-- Node2 -->
<g id="node2" class="node">
<title>Node2</title>
<g id="a_node2"><a xlink:href="classRCS__CMD__MSG.html" target="_top" xlink:title=" ">
<polygon fill="white" stroke="black" points="25,-116.5 25,-173.5 136,-173.5 136,-116.5 25,-116.5"/>
<text text-anchor="middle" x="80.5" y="-161.5" font-family="Helvetica,sans-Serif" font-size="10.00">RCS_CMD_MSG</text>
<polyline fill="none" stroke="black" points="25,-154.5 136,-154.5 "/>
<text text-anchor="middle" x="80.5" y="-142.5" font-family="Helvetica,sans-Serif" font-size="10.00"> </text>
<polyline fill="none" stroke="black" points="25,-135.5 136,-135.5 "/>
<text text-anchor="start" x="33" y="-123.5" font-family="Helvetica,sans-Serif" font-size="10.00">+ RCS_CMD_MSG()</text>
</a>
</g>
</g>
<!-- Node2&#45;&gt;Node1 -->
<g id="edge1" class="edge">
<title>Node2&#45;&gt;Node1</title>
<path fill="none" stroke="midnightblue" d="M80.5,-105.99C80.5,-93.77 80.5,-80.35 80.5,-68.52"/>
<polygon fill="none" stroke="midnightblue" points="77,-106.34 80.5,-116.34 84,-106.34 77,-106.34"/>
</g>
<!-- Node3 -->
<g id="node3" class="node">
<title>Node3</title>
<g id="a_node3"><a xlink:href="classNMLmsg.html" target="_top" xlink:title=" ">
<polygon fill="white" stroke="black" points="142.5,-221.5 142.5,-322.5 220.5,-322.5 220.5,-221.5 142.5,-221.5"/>
<text text-anchor="middle" x="181.5" y="-310.5" font-family="Helvetica,sans-Serif" font-size="10.00">NMLmsg</text>
<polyline fill="none" stroke="black" points="142.5,-303.5 220.5,-303.5 "/>
<text text-anchor="middle" x="181.5" y="-291.5" font-family="Helvetica,sans-Serif" font-size="10.00"> </text>
<polyline fill="none" stroke="black" points="142.5,-284.5 220.5,-284.5 "/>
<text text-anchor="start" x="150.5" y="-272.5" font-family="Helvetica,sans-Serif" font-size="10.00">+ clear()</text>
<text text-anchor="start" x="150.5" y="-261.5" font-family="Helvetica,sans-Serif" font-size="10.00">+ update()</text>
<text text-anchor="start" x="150.5" y="-250.5" font-family="Helvetica,sans-Serif" font-size="10.00"># NMLmsg()</text>
<text text-anchor="start" x="150.5" y="-239.5" font-family="Helvetica,sans-Serif" font-size="10.00"># NMLmsg()</text>
<text text-anchor="start" x="150.5" y="-228.5" font-family="Helvetica,sans-Serif" font-size="10.00"># NMLmsg()</text>
</a>
</g>
</g>
<!-- Node3&#45;&gt;Node2 -->
<g id="edge2" class="edge">
<title>Node3&#45;&gt;Node2</title>
<path fill="none" stroke="midnightblue" d="M136.09,-214.79C124.53,-200.5 112.62,-185.76 102.81,-173.61"/>
<polygon fill="none" stroke="midnightblue" points="133.44,-217.09 142.45,-222.67 138.89,-212.69 133.44,-217.09"/>
</g>
<!-- Node4 -->
<g id="node4" class="node">
<title>Node4</title>
<g id="a_node4"><a xlink:title=" ">
<polygon fill="white" stroke="black" points="28,-381.5 28,-438.5 57,-438.5 57,-381.5 28,-381.5"/>
<text text-anchor="middle" x="42.5" y="-426.5" font-family="Helvetica,sans-Serif" font-size="10.00">int</text>
<polyline fill="none" stroke="black" points="28,-419.5 57,-419.5 "/>
<text text-anchor="middle" x="42.5" y="-407.5" font-family="Helvetica,sans-Serif" font-size="10.00"> </text>
<polyline fill="none" stroke="black" points="28,-400.5 57,-400.5 "/>
<text text-anchor="middle" x="42.5" y="-388.5" font-family="Helvetica,sans-Serif" font-size="10.00"> </text>
</a>
</g>
</g>
<!-- Node4&#45;&gt;Node1 -->
<g id="edge6" class="edge">
<title>Node4&#45;&gt;Node1</title>
<path fill="none" stroke="#404040" d="M32.43,-381.39C14.68,-328.29 -17.34,-208.96 15.5,-116 20.32,-102.37 28.53,-89.36 37.52,-77.92"/>
<polygon fill="none" stroke="#404040" points="37.52,-77.92 38.29,-70.75 45.2,-68.7 44.44,-75.87 37.52,-77.92"/>
<text text-anchor="middle" x="13" y="-195" font-family="Helvetica,sans-Serif" font-size="10.00"> +id</text>
</g>
<!-- Node4&#45;&gt;Node2 -->
<g id="edge5" class="edge">
<title>Node4&#45;&gt;Node2</title>
<path fill="none" stroke="#404040" d="M41.08,-381.25C39.81,-344.26 39.67,-276.95 51.5,-221 54.03,-209.04 58.22,-196.48 62.64,-185.14"/>
<polygon fill="none" stroke="#404040" points="62.73,-184.94 61.3,-177.87 67.28,-173.84 68.7,-180.9 62.73,-184.94"/>
<text text-anchor="middle" x="92.5" y="-269.5" font-family="Helvetica,sans-Serif" font-size="10.00"> +serial_number</text>
</g>
<!-- Node4&#45;&gt;Node3 -->
<g id="edge3" class="edge">
<title>Node4&#45;&gt;Node3</title>
<path fill="none" stroke="#404040" d="M53,-381.49C59.44,-367.75 68.89,-351.8 81.5,-341 98.49,-326.46 109.56,-334.9 128.5,-323 129.83,-322.17 131.15,-321.3 132.46,-320.4"/>
<polygon fill="none" stroke="#404040" points="132.75,-320.18 135.15,-313.38 142.35,-312.98 139.95,-319.78 132.75,-320.18"/>
<text text-anchor="middle" x="136" y="-355" font-family="Helvetica,sans-Serif" font-size="10.00"> +automatically_clear</text>
<text text-anchor="middle" x="136" y="-344" font-family="Helvetica,sans-Serif" font-size="10.00">+type</text>
</g>
<!-- Node5 -->
<g id="node5" class="node">
<title>Node5</title>
<g id="a_node5"><a xlink:title=" ">
<polygon fill="white" stroke="black" points="188.5,-381.5 188.5,-438.5 226.5,-438.5 226.5,-381.5 188.5,-381.5"/>
<text text-anchor="middle" x="207.5" y="-426.5" font-family="Helvetica,sans-Serif" font-size="10.00">long</text>
<polyline fill="none" stroke="black" points="188.5,-419.5 226.5,-419.5 "/>
<text text-anchor="middle" x="207.5" y="-407.5" font-family="Helvetica,sans-Serif" font-size="10.00"> </text>
<polyline fill="none" stroke="black" points="188.5,-400.5 226.5,-400.5 "/>
<text text-anchor="middle" x="207.5" y="-388.5" font-family="Helvetica,sans-Serif" font-size="10.00"> </text>
</a>
</g>
</g>
<!-- Node5&#45;&gt;Node3 -->
<g id="edge4" class="edge">
<title>Node5&#45;&gt;Node3</title>
<path fill="none" stroke="#404040" d="M202.24,-381.48C199.65,-367.93 196.41,-351 193.27,-334.58"/>
<polygon fill="none" stroke="#404040" points="193.27,-334.55 188.21,-329.41 191.01,-322.76 196.07,-327.91 193.27,-334.55"/>
<text text-anchor="middle" x="213" y="-349.5" font-family="Helvetica,sans-Serif" font-size="10.00"> +size</text>
</g>
<!-- Node6 -->
<g id="node6" class="node">
<title>Node6</title>
<g id="a_node6"><a xlink:title=" ">
<polygon fill="white" stroke="black" points="154.5,-116.5 154.5,-173.5 192.5,-173.5 192.5,-116.5 154.5,-116.5"/>
<text text-anchor="middle" x="173.5" y="-161.5" font-family="Helvetica,sans-Serif" font-size="10.00">char</text>
<polyline fill="none" stroke="black" points="154.5,-154.5 192.5,-154.5 "/>
<text text-anchor="middle" x="173.5" y="-142.5" font-family="Helvetica,sans-Serif" font-size="10.00"> </text>
<polyline fill="none" stroke="black" points="154.5,-135.5 192.5,-135.5 "/>
<text text-anchor="middle" x="173.5" y="-123.5" font-family="Helvetica,sans-Serif" font-size="10.00"> </text>
</a>
</g>
</g>
<!-- Node6&#45;&gt;Node1 -->
<g id="edge7" class="edge">
<title>Node6&#45;&gt;Node1</title>
<path fill="none" stroke="#404040" d="M154.46,-121.78C143.63,-109.15 129.71,-92.91 116.87,-77.94"/>
<polygon fill="none" stroke="#404040" points="116.87,-77.93 109.93,-75.98 109.06,-68.82 116,-70.77 116.87,-77.93"/>
<text text-anchor="middle" x="156" y="-90" font-family="Helvetica,sans-Serif" font-size="10.00"> +display</text>
</g>
</g>
</svg>
