<?xml version="1.0" encoding="UTF-8" standalone="no"?>
<!DOCTYPE svg PUBLIC "-//W3C//DTD SVG 1.1//EN"
 "http://www.w3.org/Graphics/SVG/1.1/DTD/svg11.dtd">
<!-- Generated by graphviz version 2.43.0 (0)
 -->
<!-- Title: /usr/include/linuxcnc/cms_user.hh Pages: 1 -->
<!--zoomable 240 -->
<svg id="main" version="1.1" xmlns="http://www.w3.org/2000/svg" xmlns:xlink="http://www.w3.org/1999/xlink" xml:space="preserve" onload="init(evt)">
<style type="text/css"><![CDATA[
.edge:hover path { stroke: red; }
.edge:hover polygon { stroke: red; fill: red; }
]]></style>
<script type="text/javascript"><![CDATA[
var edges = document.getElementsByTagName('g');
if (edges && edges.length) {
  for (var i=0;i<edges.length;i++) {
    if (edges[i].id.substr(0,4)=='edge') {
      edges[i].setAttribute('class','edge');
    }
  }
}
]]></script>
        <defs>
                <circle id="rim" cx="0" cy="0" r="7"/>
                <circle id="rim2" cx="0" cy="0" r="3.5"/>
                <g id="zoomPlus">
                        <use xlink:href="#rim" fill="#404040">
                                <set attributeName="fill" to="#808080" begin="zoomplus.mouseover" end="zoomplus.mouseout"/>
                        </use>
                        <path d="M-4,0h8M0,-4v8" fill="none" stroke="white" stroke-width="1.5" pointer-events="none"/>
                </g>
                <g id="zoomMin">
                        <use xlink:href="#rim" fill="#404040">
                                <set attributeName="fill" to="#808080" begin="zoomminus.mouseover" end="zoomminus.mouseout"/>
                        </use>
                        <path d="M-4,0h8" fill="none" stroke="white" stroke-width="1.5" pointer-events="none"/>
                </g>
                <g id="dirArrow">
                        <path fill="none" stroke="white" stroke-width="1.5" d="M0,-3.0v7 M-2.5,-0.5L0,-3.0L2.5,-0.5"/>
                </g>
               <g id="resetDef">
                       <use xlink:href="#rim2" fill="#404040">
                               <set attributeName="fill" to="#808080" begin="reset.mouseover" end="reset.mouseout"/>
                       </use>
               </g>
        </defs>

<script type="text/javascript">
var viewWidth = 679;
var viewHeight = 240;
var sectionId = 'dynsection-0';
</script>
<script xlink:href="svgpan.js"/>
<svg id="graph" class="graph">
<g id="viewport">
<title>/usr/include/linuxcnc/cms_user.hh</title>
<polygon fill="white" stroke="transparent" points="-4,4 -4,-236 674.93,-236 674.93,4 -4,4"/>
<!-- Node1 -->
<g id="node1" class="node">
<title>Node1</title>
<g id="a_node1"><a xlink:title=" ">
<polygon fill="#bfbfbf" stroke="black" points="286.93,-201.5 286.93,-231.5 402.93,-231.5 402.93,-201.5 286.93,-201.5"/>
<text text-anchor="start" x="294.93" y="-219.5" font-family="Helvetica,sans-Serif" font-size="10.00">/usr/include/linuxcnc</text>
<text text-anchor="middle" x="344.93" y="-208.5" font-family="Helvetica,sans-Serif" font-size="10.00">/cms_user.hh</text>
</a>
</g>
</g>
<!-- Node2 -->
<g id="node2" class="node">
<title>Node2</title>
<g id="a_node2"><a xlink:href="cms__srv_8hh.html" target="_top" xlink:title=" ">
<polygon fill="white" stroke="black" points="420.93,-134.5 420.93,-164.5 536.93,-164.5 536.93,-134.5 420.93,-134.5"/>
<text text-anchor="start" x="428.93" y="-152.5" font-family="Helvetica,sans-Serif" font-size="10.00">/usr/include/linuxcnc</text>
<text text-anchor="middle" x="478.93" y="-141.5" font-family="Helvetica,sans-Serif" font-size="10.00">/cms_srv.hh</text>
</a>
</g>
</g>
<!-- Node1&#45;&gt;Node2 -->
<g id="edge1" class="edge">
<title>Node1&#45;&gt;Node2</title>
<path fill="none" stroke="midnightblue" d="M383.08,-196.99C404.32,-186.69 430.34,-174.07 449.91,-164.58"/>
<polygon fill="midnightblue" stroke="midnightblue" points="381.47,-193.88 374,-201.4 384.53,-200.18 381.47,-193.88"/>
</g>
<!-- Node5 -->
<g id="node5" class="node">
<title>Node5</title>
<g id="a_node5"><a xlink:href="nml_8hh.html" target="_top" xlink:title=" ">
<polygon fill="white" stroke="black" points="219.93,-134.5 219.93,-164.5 335.93,-164.5 335.93,-134.5 219.93,-134.5"/>
<text text-anchor="start" x="227.93" y="-152.5" font-family="Helvetica,sans-Serif" font-size="10.00">/usr/include/linuxcnc</text>
<text text-anchor="middle" x="277.93" y="-141.5" font-family="Helvetica,sans-Serif" font-size="10.00">/nml.hh</text>
</a>
</g>
</g>
<!-- Node1&#45;&gt;Node5 -->
<g id="edge4" class="edge">
<title>Node1&#45;&gt;Node5</title>
<path fill="none" stroke="midnightblue" d="M323.09,-194.31C313.04,-184.56 301.39,-173.26 292.44,-164.58"/>
<polygon fill="midnightblue" stroke="midnightblue" points="320.77,-196.94 330.39,-201.4 325.65,-191.92 320.77,-196.94"/>
</g>
<!-- Node3 -->
<g id="node3" class="node">
<title>Node3</title>
<g id="a_node3"><a xlink:href="nml__srv_8hh.html" target="_top" xlink:title=" ">
<polygon fill="white" stroke="black" points="420.93,-67.5 420.93,-97.5 536.93,-97.5 536.93,-67.5 420.93,-67.5"/>
<text text-anchor="start" x="428.93" y="-85.5" font-family="Helvetica,sans-Serif" font-size="10.00">/usr/include/linuxcnc</text>
<text text-anchor="middle" x="478.93" y="-74.5" font-family="Helvetica,sans-Serif" font-size="10.00">/nml_srv.hh</text>
</a>
</g>
</g>
<!-- Node2&#45;&gt;Node3 -->
<g id="edge2" class="edge">
<title>Node2&#45;&gt;Node3</title>
<path fill="none" stroke="midnightblue" d="M478.93,-124.11C478.93,-115.15 478.93,-105.32 478.93,-97.58"/>
<polygon fill="midnightblue" stroke="midnightblue" points="475.43,-124.4 478.93,-134.4 482.43,-124.4 475.43,-124.4"/>
</g>
<!-- Node4 -->
<g id="node4" class="node">
<title>Node4</title>
<g id="a_node4"><a xlink:href="tcp__srv_8hh.html" target="_top" xlink:title=" ">
<polygon fill="white" stroke="black" points="554.93,-67.5 554.93,-97.5 670.93,-97.5 670.93,-67.5 554.93,-67.5"/>
<text text-anchor="start" x="562.93" y="-85.5" font-family="Helvetica,sans-Serif" font-size="10.00">/usr/include/linuxcnc</text>
<text text-anchor="middle" x="612.93" y="-74.5" font-family="Helvetica,sans-Serif" font-size="10.00">/tcp_srv.hh</text>
</a>
</g>
</g>
<!-- Node2&#45;&gt;Node4 -->
<g id="edge3" class="edge">
<title>Node2&#45;&gt;Node4</title>
<path fill="none" stroke="midnightblue" d="M517.08,-129.99C538.32,-119.69 564.34,-107.07 583.91,-97.58"/>
<polygon fill="midnightblue" stroke="midnightblue" points="515.47,-126.88 508,-134.4 518.53,-133.18 515.47,-126.88"/>
</g>
<!-- Node5&#45;&gt;Node3 -->
<g id="edge10" class="edge">
<title>Node5&#45;&gt;Node3</title>
<path fill="none" stroke="midnightblue" d="M331.34,-131.23C363.85,-120.71 404.86,-107.45 435.4,-97.58"/>
<polygon fill="midnightblue" stroke="midnightblue" points="329.98,-127.99 321.54,-134.4 332.13,-134.65 329.98,-127.99"/>
</g>
<!-- Node6 -->
<g id="node6" class="node">
<title>Node6</title>
<g id="a_node6"><a xlink:href="cmd__msg_8hh.html" target="_top" xlink:title=" ">
<polygon fill="white" stroke="black" points="152.93,-67.5 152.93,-97.5 268.93,-97.5 268.93,-67.5 152.93,-67.5"/>
<text text-anchor="start" x="160.93" y="-85.5" font-family="Helvetica,sans-Serif" font-size="10.00">/usr/include/linuxcnc</text>
<text text-anchor="middle" x="210.93" y="-74.5" font-family="Helvetica,sans-Serif" font-size="10.00">/cmd_msg.hh</text>
</a>
</g>
</g>
<!-- Node5&#45;&gt;Node6 -->
<g id="edge5" class="edge">
<title>Node5&#45;&gt;Node6</title>
<path fill="none" stroke="midnightblue" d="M256.09,-127.31C246.04,-117.56 234.39,-106.26 225.44,-97.58"/>
<polygon fill="midnightblue" stroke="midnightblue" points="253.77,-129.94 263.39,-134.4 258.65,-124.92 253.77,-129.94"/>
</g>
<!-- Node8 -->
<g id="node8" class="node">
<title>Node8</title>
<g id="a_node8"><a xlink:href="nml__mod_8hh.html" target="_top" xlink:title=" ">
<polygon fill="white" stroke="black" points="152.93,-0.5 152.93,-30.5 268.93,-30.5 268.93,-0.5 152.93,-0.5"/>
<text text-anchor="start" x="160.93" y="-18.5" font-family="Helvetica,sans-Serif" font-size="10.00">/usr/include/linuxcnc</text>
<text text-anchor="middle" x="210.93" y="-7.5" font-family="Helvetica,sans-Serif" font-size="10.00">/nml_mod.hh</text>
</a>
</g>
</g>
<!-- Node5&#45;&gt;Node8 -->
<g id="edge8" class="edge">
<title>Node5&#45;&gt;Node8</title>
<path fill="none" stroke="midnightblue" d="M209.72,-145.28C138.85,-140.34 34.84,-128.05 9.93,-98 -32.56,-46.77 79.44,-27.43 152.85,-20.37"/>
<polygon fill="midnightblue" stroke="midnightblue" points="209.71,-148.79 219.92,-145.96 210.18,-141.8 209.71,-148.79"/>
</g>
<!-- Node9 -->
<g id="node9" class="node">
<title>Node9</title>
<g id="a_node9"><a xlink:href="nml__oi_8hh.html" target="_top" xlink:title=" ">
<polygon fill="white" stroke="black" points="18.93,-67.5 18.93,-97.5 134.93,-97.5 134.93,-67.5 18.93,-67.5"/>
<text text-anchor="start" x="26.93" y="-85.5" font-family="Helvetica,sans-Serif" font-size="10.00">/usr/include/linuxcnc</text>
<text text-anchor="middle" x="76.93" y="-74.5" font-family="Helvetica,sans-Serif" font-size="10.00">/nml_oi.hh</text>
</a>
</g>
</g>
<!-- Node5&#45;&gt;Node9 -->
<g id="edge9" class="edge">
<title>Node5&#45;&gt;Node9</title>
<path fill="none" stroke="midnightblue" d="M224.52,-131.23C192,-120.71 150.99,-107.45 120.46,-97.58"/>
<polygon fill="midnightblue" stroke="midnightblue" points="223.72,-134.65 234.31,-134.4 225.87,-127.99 223.72,-134.65"/>
</g>
<!-- Node10 -->
<g id="node10" class="node">
<title>Node10</title>
<g id="a_node10"><a xlink:href="stat__msg_8hh.html" target="_top" xlink:title=" ">
<polygon fill="white" stroke="black" points="286.93,-67.5 286.93,-97.5 402.93,-97.5 402.93,-67.5 286.93,-67.5"/>
<text text-anchor="start" x="294.93" y="-85.5" font-family="Helvetica,sans-Serif" font-size="10.00">/usr/include/linuxcnc</text>
<text text-anchor="middle" x="344.93" y="-74.5" font-family="Helvetica,sans-Serif" font-size="10.00">/stat_msg.hh</text>
</a>
</g>
</g>
<!-- Node5&#45;&gt;Node10 -->
<g id="edge11" class="edge">
<title>Node5&#45;&gt;Node10</title>
<path fill="none" stroke="midnightblue" d="M299.77,-127.31C309.82,-117.56 321.47,-106.26 330.42,-97.58"/>
<polygon fill="midnightblue" stroke="midnightblue" points="297.2,-124.92 292.46,-134.4 302.08,-129.94 297.2,-124.92"/>
</g>
<!-- Node7 -->
<g id="node7" class="node">
<title>Node7</title>
<g id="a_node7"><a xlink:href="emc__nml_8hh.html" target="_top" xlink:title=" ">
<polygon fill="white" stroke="black" points="286.93,-0.5 286.93,-30.5 402.93,-30.5 402.93,-0.5 286.93,-0.5"/>
<text text-anchor="start" x="294.93" y="-18.5" font-family="Helvetica,sans-Serif" font-size="10.00">/usr/include/linuxcnc</text>
<text text-anchor="middle" x="344.93" y="-7.5" font-family="Helvetica,sans-Serif" font-size="10.00">/emc_nml.hh</text>
</a>
</g>
</g>
<!-- Node6&#45;&gt;Node7 -->
<g id="edge6" class="edge">
<title>Node6&#45;&gt;Node7</title>
<path fill="none" stroke="midnightblue" d="M249.08,-62.99C270.32,-52.69 296.34,-40.07 315.91,-30.58"/>
<polygon fill="midnightblue" stroke="midnightblue" points="247.47,-59.88 240,-67.4 250.53,-66.18 247.47,-59.88"/>
</g>
<!-- Node6&#45;&gt;Node8 -->
<g id="edge7" class="edge">
<title>Node6&#45;&gt;Node8</title>
<path fill="none" stroke="midnightblue" d="M210.93,-57.11C210.93,-48.15 210.93,-38.32 210.93,-30.58"/>
<polygon fill="midnightblue" stroke="midnightblue" points="207.43,-57.4 210.93,-67.4 214.43,-57.4 207.43,-57.4"/>
</g>
<!-- Node10&#45;&gt;Node7 -->
<g id="edge12" class="edge">
<title>Node10&#45;&gt;Node7</title>
<path fill="none" stroke="midnightblue" d="M344.93,-57.11C344.93,-48.15 344.93,-38.32 344.93,-30.58"/>
<polygon fill="midnightblue" stroke="midnightblue" points="341.43,-57.4 344.93,-67.4 348.43,-57.4 341.43,-57.4"/>
</g>
<!-- Node10&#45;&gt;Node8 -->
<g id="edge13" class="edge">
<title>Node10&#45;&gt;Node8</title>
<path fill="none" stroke="midnightblue" d="M306.77,-62.99C285.53,-52.69 259.51,-40.07 239.95,-30.58"/>
<polygon fill="midnightblue" stroke="midnightblue" points="305.33,-66.18 315.85,-67.4 308.38,-59.88 305.33,-66.18"/>
</g>
</g>
</svg>
        <g id="navigator" transform="translate(0 0)" fill="#404254">
                <rect fill="#f2f5e9" fill-opacity="0.5" stroke="#606060" stroke-width=".5" x="0" y="0" width="60" height="60"/>
                <use id="zoomplus" xlink:href="#zoomPlus" x="17" y="9" onmousedown="handleZoom(evt,'in')"/>
                <use id="zoomminus" xlink:href="#zoomMin" x="42" y="9" onmousedown="handleZoom(evt,'out')"/>
                <use id="reset" xlink:href="#resetDef" x="30" y="36" onmousedown="handleReset()"/>
                <g id="arrowUp" xlink:href="#dirArrow" transform="translate(30 24)" onmousedown="handlePan(0,-1)">
                  <use xlink:href="#rim" fill="#404040">
                        <set attributeName="fill" to="#808080" begin="arrowUp.mouseover" end="arrowUp.mouseout"/>
                  </use>
                  <path fill="none" stroke="white" stroke-width="1.5" d="M0,-3.0v7 M-2.5,-0.5L0,-3.0L2.5,-0.5"/>
                </g>
                <g id="arrowRight" xlink:href="#dirArrow" transform="rotate(90) translate(36 -43)" onmousedown="handlePan(1,0)">
                  <use xlink:href="#rim" fill="#404040">
                        <set attributeName="fill" to="#808080" begin="arrowRight.mouseover" end="arrowRight.mouseout"/>
                  </use>
                  <path fill="none" stroke="white" stroke-width="1.5" d="M0,-3.0v7 M-2.5,-0.5L0,-3.0L2.5,-0.5"/>
                </g>
                <g id="arrowDown" xlink:href="#dirArrow" transform="rotate(180) translate(-30 -48)" onmousedown="handlePan(0,1)">
                  <use xlink:href="#rim" fill="#404040">
                        <set attributeName="fill" to="#808080" begin="arrowDown.mouseover" end="arrowDown.mouseout"/>
                  </use>
                  <path fill="none" stroke="white" stroke-width="1.5" d="M0,-3.0v7 M-2.5,-0.5L0,-3.0L2.5,-0.5"/>
                </g>
                <g id="arrowLeft" xlink:href="#dirArrow" transform="rotate(270) translate(-36 17)" onmousedown="handlePan(-1,0)">
                  <use xlink:href="#rim" fill="#404040">
                        <set attributeName="fill" to="#808080" begin="arrowLeft.mouseover" end="arrowLeft.mouseout"/>
                  </use>
                  <path fill="none" stroke="white" stroke-width="1.5" d="M0,-3.0v7 M-2.5,-0.5L0,-3.0L2.5,-0.5"/>
                </g>
        </g>
        <svg viewBox="0 0 15 15" width="100%" height="30px" preserveAspectRatio="xMaxYMin meet">
         <g id="arrow_out" transform="scale(0.3 0.3)">
          <a xlink:href="cms__user_8hh__dep__incl_org.svg" target="_base">
           <rect id="button" ry="5" rx="5" y="6" x="6" height="38" width="38"
                fill="#f2f5e9" fill-opacity="0.5" stroke="#606060" stroke-width="1.0"/>
           <path id="arrow"
             d="M 11.500037,31.436501 C 11.940474,20.09759 22.043105,11.32322 32.158766,21.979434 L 37.068811,17.246167 C 37.068811,17.246167 37.088388,32 37.088388,32 L 22.160133,31.978069 C 22.160133,31.978069 26.997745,27.140456 26.997745,27.140456 C 18.528582,18.264221 13.291696,25.230495 11.500037,31.436501 z"
             style="fill:#404040;"/>
          </a>
         </g>
        </svg>
</svg>
