<?xml version="1.0" encoding="UTF-8" standalone="no"?>
<!DOCTYPE svg PUBLIC "-//W3C//DTD SVG 1.1//EN"
 "http://www.w3.org/Graphics/SVG/1.1/DTD/svg11.dtd">
<!-- Generated by graphviz version 2.43.0 (0)
 -->
<!-- Title: /home/cnc/actions&#45;runner/_work/LinuxCnc_PokeysLibComp/LinuxCnc_PokeysLibComp/pokeys_uspace Pages: 1 -->
<svg width="138pt" height="116pt"
 viewBox="0.00 0.00 137.50 116.00" xmlns="http://www.w3.org/2000/svg" xmlns:xlink="http://www.w3.org/1999/xlink">
<g id="graph0" class="graph" transform="scale(1 1) rotate(0) translate(4 112)">
<title>/home/cnc/actions&#45;runner/_work/LinuxCnc_PokeysLibComp/LinuxCnc_PokeysLibComp/pokeys_uspace</title>
<polygon fill="white" stroke="transparent" points="-4,4 -4,-112 133.5,-112 133.5,4 -4,4"/>
<!-- dir_86f4c20f3737a885b7e320516d0139bf -->
<g id="node1" class="node">
<title>dir_86f4c20f3737a885b7e320516d0139bf</title>
<g id="a_node1"><a xlink:href="dir_86f4c20f3737a885b7e320516d0139bf.html" target="_top" xlink:title="pokeys_uspace">
<polygon fill="#edf0f7" stroke="#404040" stroke-width="2" points="111,-108 20,-108 20,-72 111,-72 111,-108"/>
<text text-anchor="middle" x="65.5" y="-87.5" font-family="Helvetica,sans-Serif" font-size="10.00">pokeys_uspace</text>
</a>
</g>
</g>
<!-- dir_978ec5d2a76a72f299a5a66530651d39 -->
<g id="node2" class="node">
<title>dir_978ec5d2a76a72f299a5a66530651d39</title>
<g id="a_node2"><a xlink:href="dir_978ec5d2a76a72f299a5a66530651d39.html" target="_top" xlink:title="external">
<polygon fill="none" stroke="red" points="57,-36 0,-36 0,0 57,0 57,-36"/>
<text text-anchor="middle" x="28.5" y="-15.5" font-family="Helvetica,sans-Serif" font-size="10.00">external</text>
</a>
</g>
</g>
<!-- dir_86f4c20f3737a885b7e320516d0139bf&#45;&gt;dir_978ec5d2a76a72f299a5a66530651d39 -->
<g id="edge1" class="edge">
<title>dir_86f4c20f3737a885b7e320516d0139bf&#45;&gt;dir_978ec5d2a76a72f299a5a66530651d39</title>
<path fill="none" stroke="black" d="M56.35,-71.7C52.1,-63.64 46.94,-53.89 42.23,-44.98"/>
<polygon fill="black" stroke="black" points="45.31,-43.31 37.54,-36.1 39.12,-46.58 45.31,-43.31"/>
<g id="a_edge1&#45;headlabel"><a xlink:href="dir_000006_000001.html" target="_top" xlink:title="5">
<text text-anchor="middle" x="49.5" y="-42.66" font-family="Helvetica,sans-Serif" font-size="10.00">5</text>
</a>
</g>
</g>
<!-- dir_c4a6f9ef9d60515833db96a1f80ff998 -->
<g id="node3" class="node">
<title>dir_c4a6f9ef9d60515833db96a1f80ff998</title>
<g id="a_node3"><a xlink:href="dir_c4a6f9ef9d60515833db96a1f80ff998.html" target="_top" xlink:title="usr">
<polygon fill="none" stroke="red" points="129.5,-36 75.5,-36 75.5,0 129.5,0 129.5,-36"/>
<text text-anchor="middle" x="102.5" y="-15.5" font-family="Helvetica,sans-Serif" font-size="10.00">usr</text>
</a>
</g>
</g>
<!-- dir_86f4c20f3737a885b7e320516d0139bf&#45;&gt;dir_c4a6f9ef9d60515833db96a1f80ff998 -->
<g id="edge2" class="edge">
<title>dir_86f4c20f3737a885b7e320516d0139bf&#45;&gt;dir_c4a6f9ef9d60515833db96a1f80ff998</title>
<path fill="none" stroke="black" d="M74.65,-71.7C78.9,-63.64 84.06,-53.89 88.77,-44.98"/>
<polygon fill="black" stroke="black" points="91.88,-46.58 93.46,-36.1 85.69,-43.31 91.88,-46.58"/>
<g id="a_edge2&#45;headlabel"><a xlink:href="dir_000006_000008.html" target="_top" xlink:title="14">
<text text-anchor="middle" x="92.71" y="-48.59" font-family="Helvetica,sans-Serif" font-size="10.00">14</text>
</a>
</g>
</g>
</g>
</svg>
