<?xml version="1.0" encoding="UTF-8" standalone="no"?>
<!DOCTYPE svg PUBLIC "-//W3C//DTD SVG 1.1//EN"
 "http://www.w3.org/Graphics/SVG/1.1/DTD/svg11.dtd">
<!-- Generated by graphviz version 2.43.0 (0)
 -->
<!-- Title: check_home_sequence Pages: 1 -->
<svg width="1653pt" height="161pt"
 viewBox="0.00 0.00 1652.60 161.00" xmlns="http://www.w3.org/2000/svg" xmlns:xlink="http://www.w3.org/1999/xlink">
<g id="graph0" class="graph" transform="scale(1 1) rotate(0) translate(4 157)">
<title>check_home_sequence</title>
<polygon fill="white" stroke="transparent" points="-4,4 -4,-157 1648.6,-157 1648.6,4 -4,4"/>
<!-- IDLE -->
<g id="node1" class="node">
<title>IDLE</title>
<ellipse fill="lightblue" stroke="black" cx="209.28" cy="-18" rx="130.78" ry="18"/>
<text text-anchor="middle" x="209.28" y="-14.3" font-family="Times,serif" font-size="14.00">HOME_SEQUENCE_IDLE</text>
</g>
<!-- DO_SEQ -->
<g id="node2" class="node">
<title>DO_SEQ</title>
<ellipse fill="lightblue" stroke="black" cx="209.28" cy="-72" rx="209.06" ry="18"/>
<text text-anchor="middle" x="209.28" y="-68.3" font-family="Times,serif" font-size="14.00">HOME_SEQUENCE_DO_ONE_SEQUENCE</text>
</g>
<!-- HOMING -->
<g id="node3" class="node">
<title>HOMING</title>
<ellipse fill="lightyellow" stroke="black" cx="655.46" cy="-102" rx="68.79" ry="18"/>
<text text-anchor="middle" x="655.46" y="-98.3" font-family="Times,serif" font-size="14.00">addr.homing</text>
</g>
<!-- DO_SEQ&#45;&gt;HOMING -->
<g id="edge4" class="edge">
<title>DO_SEQ&#45;&gt;HOMING</title>
<path fill="none" stroke="black" d="M374.41,-83.09C444.32,-87.81 522.47,-93.09 578.41,-96.86"/>
<polygon fill="black" stroke="black" points="578.38,-100.37 588.59,-97.55 578.85,-93.39 578.38,-100.37"/>
<text text-anchor="middle" x="502.56" y="-98.8" font-family="Times,serif" font-size="14.00">addr.homing == 1</text>
</g>
<!-- HOMED -->
<g id="node4" class="node">
<title>HOMED</title>
<ellipse fill="lightgreen" stroke="black" cx="1107.24" cy="-59" rx="65.79" ry="18"/>
<text text-anchor="middle" x="1107.24" y="-55.3" font-family="Times,serif" font-size="14.00">addr.homed</text>
</g>
<!-- DO_SEQ&#45;&gt;HOMED -->
<g id="edge1" class="edge">
<title>DO_SEQ&#45;&gt;HOMED</title>
<path fill="none" stroke="black" d="M401.2,-64.8C460.58,-62.86 526.28,-61.02 586.56,-60 744.85,-57.32 930.31,-57.85 1031.31,-58.44"/>
<polygon fill="black" stroke="black" points="1031.4,-61.94 1041.42,-58.5 1031.44,-54.94 1031.4,-61.94"/>
<text text-anchor="middle" x="655.46" y="-63.8" font-family="Times,serif" font-size="14.00">addr.homed == 1</text>
</g>
<!-- HOMING&#45;&gt;HOMING -->
<g id="edge6" class="edge">
<title>HOMING&#45;&gt;HOMING</title>
<path fill="none" stroke="black" d="M628.74,-118.66C622.8,-128.62 631.71,-138 655.46,-138 670.67,-138 679.79,-134.15 682.83,-128.77"/>
<polygon fill="black" stroke="black" points="686.31,-128.42 682.18,-118.66 679.32,-128.87 686.31,-128.42"/>
<text text-anchor="middle" x="655.46" y="-141.8" font-family="Times,serif" font-size="14.00">get_sequence_homing(seq)</text>
</g>
<!-- HOMING&#45;&gt;HOMED -->
<g id="edge5" class="edge">
<title>HOMING&#45;&gt;HOMED</title>
<path fill="none" stroke="black" d="M710.38,-91.02C720.95,-89.13 731.97,-87.35 742.35,-86 842.25,-73.03 958.45,-65.75 1032.15,-62.1"/>
<polygon fill="black" stroke="black" points="1032.44,-65.59 1042.26,-61.61 1032.1,-58.6 1032.44,-65.59"/>
<text text-anchor="middle" x="835.85" y="-89.8" font-family="Times,serif" font-size="14.00">get_sequence_homed(seq)</text>
</g>
<!-- RESET -->
<g id="node7" class="node">
<title>RESET</title>
<ellipse fill="lightgray" stroke="black" cx="1107.24" cy="-122" rx="159.77" ry="18"/>
<text text-anchor="middle" x="1107.24" y="-118.3" font-family="Times,serif" font-size="14.00">addr.home_state = HOME_IDLE</text>
</g>
<!-- HOMING&#45;&gt;RESET -->
<g id="edge7" class="edge">
<title>HOMING&#45;&gt;RESET</title>
<path fill="none" stroke="black" d="M723.79,-104.99C782.9,-107.62 871.18,-111.55 948.03,-114.97"/>
<polygon fill="black" stroke="black" points="948.16,-118.47 958.31,-115.42 948.47,-111.48 948.16,-118.47"/>
<text text-anchor="middle" x="835.85" y="-116.8" font-family="Times,serif" font-size="14.00">no joints homing</text>
</g>
<!-- NEXT -->
<g id="node5" class="node">
<title>NEXT</title>
<ellipse fill="lightgreen" stroke="black" cx="1517.86" cy="-86" rx="126.98" ry="18"/>
<text text-anchor="middle" x="1517.86" y="-82.3" font-family="Times,serif" font-size="14.00">do_home_sequence(next)</text>
</g>
<!-- HOMED&#45;&gt;NEXT -->
<g id="edge3" class="edge">
<title>HOMED&#45;&gt;NEXT</title>
<path fill="none" stroke="black" d="M1171.19,-63.16C1229.88,-67.04 1319.1,-72.93 1392.19,-77.76"/>
<polygon fill="black" stroke="black" points="1392.19,-81.27 1402.4,-78.44 1392.65,-74.28 1392.19,-81.27"/>
<text text-anchor="middle" x="1329.12" y="-79.8" font-family="Times,serif" font-size="14.00">is_last == 0</text>
</g>
<!-- FINISHED -->
<g id="node6" class="node">
<title>FINISHED</title>
<ellipse fill="lightgreen" stroke="black" cx="1517.86" cy="-32" rx="98.58" ry="18"/>
<text text-anchor="middle" x="1517.86" y="-28.3" font-family="Times,serif" font-size="14.00">Sequence Finished</text>
</g>
<!-- HOMED&#45;&gt;FINISHED -->
<g id="edge2" class="edge">
<title>HOMED&#45;&gt;FINISHED</title>
<path fill="none" stroke="black" d="M1171.19,-54.84C1236,-50.56 1338.03,-43.82 1414.48,-38.77"/>
<polygon fill="black" stroke="black" points="1414.87,-42.25 1424.61,-38.1 1414.4,-35.26 1414.87,-42.25"/>
<text text-anchor="middle" x="1329.12" y="-50.8" font-family="Times,serif" font-size="14.00">is_last == 1</text>
</g>
</g>
</svg>
