<?xml version="1.0" encoding="UTF-8" standalone="no"?>
<!DOCTYPE svg PUBLIC "-//W3C//DTD SVG 1.1//EN"
 "http://www.w3.org/Graphics/SVG/1.1/DTD/svg11.dtd">
<!-- Generated by graphviz version 2.43.0 (0)
 -->
<!-- Title: homing_sequence_state_machine Pages: 1 -->
<svg width="1411pt" height="113pt"
 viewBox="0.00 0.00 1410.65 113.00" xmlns="http://www.w3.org/2000/svg" xmlns:xlink="http://www.w3.org/1999/xlink">
<g id="graph0" class="graph" transform="scale(1 1) rotate(0) translate(4 109)">
<title>homing_sequence_state_machine</title>
<polygon fill="white" stroke="transparent" points="-4,4 -4,-109 1406.65,-109 1406.65,4 -4,4"/>
<!-- IDLE -->
<g id="node1" class="node">
<title>IDLE</title>
<ellipse fill="none" stroke="black" cx="34.45" cy="-50" rx="34.39" ry="18"/>
<text text-anchor="middle" x="34.45" y="-46.3" font-family="Times,serif" font-size="14.00">IDLE</text>
</g>
<!-- DO_ONE_JOINT -->
<g id="node2" class="node">
<title>DO_ONE_JOINT</title>
<ellipse fill="none" stroke="black" cx="363.74" cy="-83" rx="83.69" ry="18"/>
<text text-anchor="middle" x="363.74" y="-79.3" font-family="Times,serif" font-size="14.00">DO_ONE_JOINT</text>
</g>
<!-- IDLE&#45;&gt;DO_ONE_JOINT -->
<g id="edge1" class="edge">
<title>IDLE&#45;&gt;DO_ONE_JOINT</title>
<path fill="none" stroke="black" d="M68.33,-53.32C116.74,-58.2 208.85,-67.48 277.21,-74.38"/>
<polygon fill="black" stroke="black" points="277.24,-77.9 287.54,-75.42 277.94,-70.93 277.24,-77.9"/>
<text text-anchor="middle" x="174.39" y="-75.8" font-family="Times,serif" font-size="14.00">H[*].home_state=START</text>
</g>
<!-- START -->
<g id="node4" class="node">
<title>START</title>
<ellipse fill="none" stroke="black" cx="644.18" cy="-87" rx="41.69" ry="18"/>
<text text-anchor="middle" x="644.18" y="-83.3" font-family="Times,serif" font-size="14.00">START</text>
</g>
<!-- DO_ONE_JOINT&#45;&gt;START -->
<g id="edge2" class="edge">
<title>DO_ONE_JOINT&#45;&gt;START</title>
<path fill="none" stroke="black" d="M447.52,-84.19C494.57,-84.87 551.96,-85.69 592.38,-86.27"/>
<polygon fill="black" stroke="black" points="592.48,-89.77 602.53,-86.42 592.58,-82.77 592.48,-89.77"/>
<text text-anchor="middle" x="525.08" y="-89.8" font-family="Times,serif" font-size="14.00">joints selected</text>
</g>
<!-- DO_ONE_SEQUENCE -->
<g id="node3" class="node">
<title>DO_ONE_SEQUENCE</title>
<ellipse fill="none" stroke="black" cx="1290.21" cy="-83" rx="112.38" ry="18"/>
<text text-anchor="middle" x="1290.21" y="-79.3" font-family="Times,serif" font-size="14.00">DO_ONE_SEQUENCE</text>
</g>
<!-- DO_ONE_SEQUENCE&#45;&gt;START -->
<g id="edge3" class="edge">
<title>DO_ONE_SEQUENCE&#45;&gt;START</title>
<path fill="none" stroke="black" d="M1177.65,-83.87C1171.61,-83.92 1165.61,-83.96 1159.77,-84 989.87,-85.16 788.42,-86.25 696.05,-86.74"/>
<polygon fill="black" stroke="black" points="695.85,-83.24 685.87,-86.79 695.89,-90.24 695.85,-83.24"/>
<text text-anchor="middle" x="923.77" y="-88.8" font-family="Times,serif" font-size="14.00">multiple joints selected</text>
</g>
<!-- WAIT_JOINTS -->
<g id="node6" class="node">
<title>WAIT_JOINTS</title>
<ellipse fill="none" stroke="black" cx="923.77" cy="-34" rx="73.39" ry="18"/>
<text text-anchor="middle" x="923.77" y="-30.3" font-family="Times,serif" font-size="14.00">WAIT_JOINTS</text>
</g>
<!-- START&#45;&gt;WAIT_JOINTS -->
<g id="edge4" class="edge">
<title>START&#45;&gt;WAIT_JOINTS</title>
<path fill="none" stroke="black" d="M679.12,-77.12C687.16,-74.95 695.74,-72.77 703.77,-71 752.05,-60.36 806.91,-51.09 849.64,-44.5"/>
<polygon fill="black" stroke="black" points="850.32,-47.93 859.68,-42.96 849.26,-41.01 850.32,-47.93"/>
<text text-anchor="middle" x="762.77" y="-74.8" font-family="Times,serif" font-size="14.00">homing initiated</text>
</g>
<!-- START_JOINTS -->
<g id="node5" class="node">
<title>START_JOINTS</title>
<ellipse fill="none" stroke="black" cx="1290.21" cy="-18" rx="79.89" ry="18"/>
<text text-anchor="middle" x="1290.21" y="-14.3" font-family="Times,serif" font-size="14.00">START_JOINTS</text>
</g>
<!-- START_JOINTS&#45;&gt;WAIT_JOINTS -->
<g id="edge8" class="edge">
<title>START_JOINTS&#45;&gt;WAIT_JOINTS</title>
<path fill="none" stroke="black" d="M1222.6,-8.36C1169.16,-2.21 1092.35,3.06 1025.77,-6 1009.8,-8.17 992.78,-12.2 977.36,-16.53"/>
<polygon fill="black" stroke="black" points="976.11,-13.25 967.49,-19.4 978.07,-19.97 976.11,-13.25"/>
<text text-anchor="middle" x="1092.77" y="-9.8" font-family="Times,serif" font-size="14.00">re&#45;init joints</text>
</g>
<!-- WAIT_JOINTS&#45;&gt;IDLE -->
<g id="edge5" class="edge">
<title>WAIT_JOINTS&#45;&gt;IDLE</title>
<path fill="none" stroke="black" d="M850.35,-35.31C673,-38.5 221.14,-46.65 78.96,-49.22"/>
<polygon fill="black" stroke="black" points="78.81,-45.72 68.88,-49.4 78.94,-52.72 78.81,-45.72"/>
<text text-anchor="middle" x="525.08" y="-60.8" font-family="Times,serif" font-size="14.00">all joints homed,</text>
<text text-anchor="middle" x="525.08" y="-45.8" font-family="Times,serif" font-size="14.00">last sequence</text>
</g>
<!-- WAIT_JOINTS&#45;&gt;DO_ONE_SEQUENCE -->
<g id="edge6" class="edge">
<title>WAIT_JOINTS&#45;&gt;DO_ONE_SEQUENCE</title>
<path fill="none" stroke="black" d="M988.07,-42.83C1000.56,-44.56 1013.58,-46.35 1025.77,-48 1081.05,-55.5 1142.89,-63.73 1192.75,-70.32"/>
<polygon fill="black" stroke="black" points="1192.51,-73.82 1202.88,-71.65 1193.42,-66.88 1192.51,-73.82"/>
<text text-anchor="middle" x="1092.77" y="-68.8" font-family="Times,serif" font-size="14.00">next sequence</text>
</g>
<!-- WAIT_JOINTS&#45;&gt;START_JOINTS -->
<g id="edge7" class="edge">
<title>WAIT_JOINTS&#45;&gt;START_JOINTS</title>
<path fill="none" stroke="black" d="M996.34,-30.86C1055.05,-28.28 1138.43,-24.62 1201.22,-21.86"/>
<polygon fill="black" stroke="black" points="1201.67,-25.35 1211.5,-21.41 1201.36,-18.35 1201.67,-25.35"/>
<text text-anchor="middle" x="1092.77" y="-33.8" font-family="Times,serif" font-size="14.00">state reset needed</text>
</g>
</g>
</svg>
