<?xml version="1.0" encoding="UTF-8" standalone="no"?>
<!DOCTYPE svg PUBLIC "-//W3C//DTD SVG 1.1//EN"
 "http://www.w3.org/Graphics/SVG/1.1/DTD/svg11.dtd">
<!-- Generated by graphviz version 2.43.0 (0)
 -->
<!-- Title: AxisHoming Pages: 1 -->
<!--zoomable 341 -->
<svg id="main" version="1.1" xmlns="http://www.w3.org/2000/svg" xmlns:xlink="http://www.w3.org/1999/xlink" xml:space="preserve" onload="init(evt)">
<style type="text/css"><![CDATA[
.edge:hover path { stroke: red; }
.edge:hover polygon { stroke: red; fill: red; }
]]></style>
<script type="text/javascript"><![CDATA[
var edges = document.getElementsByTagName('g');
if (edges && edges.length) {
  for (var i=0;i<edges.length;i++) {
    if (edges[i].id.substr(0,4)=='edge') {
      edges[i].setAttribute('class','edge');
    }
  }
}
]]></script>
        <defs>
                <circle id="rim" cx="0" cy="0" r="7"/>
                <circle id="rim2" cx="0" cy="0" r="3.5"/>
                <g id="zoomPlus">
                        <use xlink:href="#rim" fill="#404040">
                                <set attributeName="fill" to="#808080" begin="zoomplus.mouseover" end="zoomplus.mouseout"/>
                        </use>
                        <path d="M-4,0h8M0,-4v8" fill="none" stroke="white" stroke-width="1.5" pointer-events="none"/>
                </g>
                <g id="zoomMin">
                        <use xlink:href="#rim" fill="#404040">
                                <set attributeName="fill" to="#808080" begin="zoomminus.mouseover" end="zoomminus.mouseout"/>
                        </use>
                        <path d="M-4,0h8" fill="none" stroke="white" stroke-width="1.5" pointer-events="none"/>
                </g>
                <g id="dirArrow">
                        <path fill="none" stroke="white" stroke-width="1.5" d="M0,-3.0v7 M-2.5,-0.5L0,-3.0L2.5,-0.5"/>
                </g>
               <g id="resetDef">
                       <use xlink:href="#rim2" fill="#404040">
                               <set attributeName="fill" to="#808080" begin="reset.mouseover" end="reset.mouseout"/>
                       </use>
               </g>
        </defs>

<script type="text/javascript">
var viewWidth = 3962;
var viewHeight = 341;
</script>
<script xlink:href="svgpan.js"/>
<svg id="graph" class="graph">
<g id="viewport">
<title>AxisHoming</title>
<polygon fill="white" stroke="transparent" points="-4,4 -4,-337 3958.33,-337 3958.33,4 -4,4"/>
<g id="clust1" class="cluster">
<title>cluster_sequence</title>
<path fill="none" stroke="gray" d="M20,-199C20,-199 1235.6,-199 1235.6,-199 1241.6,-199 1247.6,-205 1247.6,-211 1247.6,-211 1247.6,-313 1247.6,-313 1247.6,-319 1241.6,-325 1235.6,-325 1235.6,-325 20,-325 20,-325 14,-325 8,-319 8,-313 8,-313 8,-211 8,-211 8,-205 14,-199 20,-199"/>
<text text-anchor="middle" x="627.8" y="-309.8" font-family="Times,serif" font-size="14.00">Homing&#45;Sequenz (global)</text>
</g>
<g id="clust2" class="cluster">
<title>cluster_axis</title>
<path fill="none" stroke="gray" d="M1007.41,-8C1007.41,-8 3934.33,-8 3934.33,-8 3940.33,-8 3946.33,-14 3946.33,-20 3946.33,-20 3946.33,-179 3946.33,-179 3946.33,-185 3940.33,-191 3934.33,-191 3934.33,-191 1007.41,-191 1007.41,-191 1001.41,-191 995.41,-185 995.41,-179 995.41,-179 995.41,-20 995.41,-20 995.41,-14 1001.41,-8 1007.41,-8"/>
<text text-anchor="middle" x="2470.87" y="-175.8" font-family="Times,serif" font-size="14.00">Achsen&#45;Zustände (PoKeys PulseEngine)</text>
</g>
<!-- seq_idle -->
<g id="node1" class="node">
<title>seq_idle</title>
<path fill="none" stroke="black" d="M226.6,-276C226.6,-276 68.6,-276 68.6,-276 62.6,-276 56.6,-270 56.6,-264 56.6,-264 56.6,-252 56.6,-252 56.6,-246 62.6,-240 68.6,-240 68.6,-240 226.6,-240 226.6,-240 232.6,-240 238.6,-246 238.6,-252 238.6,-252 238.6,-264 238.6,-264 238.6,-270 232.6,-276 226.6,-276"/>
<text text-anchor="middle" x="147.6" y="-254.3" font-family="Helvetica,sans-Serif" font-size="14.00">HOME_SEQUENCE_IDLE</text>
</g>
<!-- seq_start -->
<g id="node2" class="node">
<title>seq_start</title>
<path fill="none" stroke="black" d="M664.6,-243C664.6,-243 494.6,-243 494.6,-243 488.6,-243 482.6,-237 482.6,-231 482.6,-231 482.6,-219 482.6,-219 482.6,-213 488.6,-207 494.6,-207 494.6,-207 664.6,-207 664.6,-207 670.6,-207 676.6,-213 676.6,-219 676.6,-219 676.6,-231 676.6,-231 676.6,-237 670.6,-243 664.6,-243"/>
<text text-anchor="middle" x="579.6" y="-221.3" font-family="Helvetica,sans-Serif" font-size="14.00">HOME_SEQUENCE_START</text>
</g>
<!-- seq_idle&#45;&gt;seq_start -->
<g id="edge3" class="edge">
<title>seq_idle&#45;&gt;seq_start</title>
<path fill="none" stroke="black" d="M238.74,-251.08C306.83,-245.86 400.5,-238.67 472.25,-233.16"/>
<polygon fill="black" stroke="black" points="472.53,-236.65 482.23,-232.4 471.99,-229.67 472.53,-236.65"/>
<text text-anchor="middle" x="360.6" y="-252.8" font-family="Times,serif" font-size="14.00">Homing gestartet (Benutzer)</text>
</g>
<!-- seq_wait -->
<g id="node3" class="node">
<title>seq_wait</title>
<path fill="none" stroke="black" d="M1227.6,-259C1227.6,-259 1010.6,-259 1010.6,-259 1004.6,-259 998.6,-253 998.6,-247 998.6,-247 998.6,-235 998.6,-235 998.6,-229 1004.6,-223 1010.6,-223 1010.6,-223 1227.6,-223 1227.6,-223 1233.6,-223 1239.6,-229 1239.6,-235 1239.6,-235 1239.6,-247 1239.6,-247 1239.6,-253 1233.6,-259 1227.6,-259"/>
<text text-anchor="middle" x="1119.1" y="-237.3" font-family="Helvetica,sans-Serif" font-size="14.00">HOME_SEQUENCE_WAIT_JOINTS</text>
</g>
<!-- seq_start&#45;&gt;seq_wait -->
<g id="edge4" class="edge">
<title>seq_start&#45;&gt;seq_wait</title>
<path fill="none" stroke="black" d="M676.69,-227.86C763.6,-230.45 892.29,-234.28 988.31,-237.14"/>
<polygon fill="black" stroke="black" points="988.28,-240.64 998.38,-237.44 988.49,-233.64 988.28,-240.64"/>
<text text-anchor="middle" x="837.6" y="-239.8" font-family="Times,serif" font-size="14.00">Homing läuft (warte auf Abschluss)</text>
</g>
<!-- reset -->
<g id="node6" class="node">
<title>reset</title>
<ellipse fill="none" stroke="black" cx="1119.1" cy="-136" rx="115.88" ry="18"/>
<text text-anchor="middle" x="1119.1" y="-132.3" font-family="Helvetica,sans-Serif" font-size="14.00">axHOMING_RESETTING</text>
</g>
<!-- seq_start&#45;&gt;reset -->
<g id="edge6" class="edge">
<title>seq_start&#45;&gt;reset</title>
<path fill="none" stroke="black" d="M646.91,-206.97C671.99,-200.15 694.6,-194 694.6,-194 694.6,-194 896.68,-166.32 1021.65,-149.21"/>
<polygon fill="black" stroke="black" points="1022.2,-152.67 1031.63,-147.84 1021.25,-145.73 1022.2,-152.67"/>
<text text-anchor="middle" x="837.6" y="-212.8" font-family="Times,serif" font-size="14.00">PK_PEAxisCommand_axHOMINGSTART</text>
<text text-anchor="middle" x="837.6" y="-197.8" font-family="Times,serif" font-size="14.00">(über PoKeysCompPulseEngine_v2)</text>
</g>
<!-- seq_wait&#45;&gt;seq_idle -->
<g id="edge5" class="edge">
<title>seq_wait&#45;&gt;seq_idle</title>
<path fill="none" stroke="black" d="M998.58,-253.17C987.66,-254.28 980.6,-255 980.6,-255 980.6,-255 464.6,-268 464.6,-268 464.6,-268 256.6,-268 256.6,-268 256.6,-268 253.65,-267.73 248.74,-267.27"/>
<polygon fill="black" stroke="black" points="249.05,-263.79 238.77,-266.35 248.4,-270.76 249.05,-263.79"/>
<text text-anchor="middle" x="579.6" y="-270.8" font-family="Times,serif" font-size="14.00">Alle Achsen referenziert</text>
</g>
<!-- startS -->
<g id="node4" class="node">
<title>startS</title>
<ellipse fill="black" stroke="black" cx="17.8" cy="-258" rx="1.8" ry="1.8"/>
</g>
<!-- startS&#45;&gt;seq_idle -->
<g id="edge1" class="edge">
<title>startS&#45;&gt;seq_idle</title>
<path fill="none" stroke="black" d="M19.62,-258C22.49,-258 32.7,-258 46.17,-258"/>
<polygon fill="black" stroke="black" points="46.5,-261.5 56.5,-258 46.5,-254.5 46.5,-261.5"/>
</g>
<!-- idle -->
<g id="node5" class="node">
<title>idle</title>
<ellipse fill="none" stroke="black" cx="3860.34" cy="-58" rx="77.99" ry="18"/>
<text text-anchor="middle" x="3860.34" y="-54.3" font-family="Helvetica,sans-Serif" font-size="14.00">axREADY (Idle)</text>
</g>
<!-- backoff -->
<g id="node7" class="node">
<title>backoff</title>
<ellipse fill="none" stroke="black" cx="1560.64" cy="-82" rx="128.08" ry="18"/>
<text text-anchor="middle" x="1560.64" y="-78.3" font-family="Helvetica,sans-Serif" font-size="14.00">axHOMING_BACKING_OFF</text>
</g>
<!-- reset&#45;&gt;backoff -->
<g id="edge7" class="edge">
<title>reset&#45;&gt;backoff</title>
<path fill="none" stroke="black" stroke-dasharray="5,2" d="M1204.44,-123.73C1232.9,-119.59 1257.6,-116 1257.6,-116 1257.6,-116 1363.38,-104.09 1449.74,-94.37"/>
<polygon fill="black" stroke="black" points="1450.36,-97.82 1459.9,-93.23 1449.57,-90.87 1450.36,-97.82"/>
<text text-anchor="middle" x="1336.1" y="-119.8" font-family="Times,serif" font-size="14.00">(Home&#45;Schalter aktiv)</text>
</g>
<!-- search -->
<g id="node8" class="node">
<title>search</title>
<ellipse fill="none" stroke="black" cx="1972.52" cy="-82" rx="96.68" ry="18"/>
<text text-anchor="middle" x="1972.52" y="-78.3" font-family="Helvetica,sans-Serif" font-size="14.00">axHOMINGSEARCH</text>
</g>
<!-- reset&#45;&gt;search -->
<g id="edge8" class="edge">
<title>reset&#45;&gt;search</title>
<path fill="none" stroke="black" d="M1234.38,-134.06C1317.16,-132.65 1414.6,-131 1414.6,-131 1414.6,-131 1857.68,-101 1857.68,-101 1857.68,-101 1871.57,-98.68 1889.65,-95.66"/>
<polygon fill="black" stroke="black" points="1890.46,-99.08 1899.74,-93.98 1889.3,-92.17 1890.46,-99.08"/>
<text text-anchor="middle" x="1560.64" y="-132.8" font-family="Times,serif" font-size="14.00">(Home&#45;Schalter nicht aktiv)</text>
</g>
<!-- backoff&#45;&gt;search -->
<g id="edge9" class="edge">
<title>backoff&#45;&gt;search</title>
<path fill="none" stroke="black" d="M1688.8,-82C1745.44,-82 1811.39,-82 1865.34,-82"/>
<polygon fill="black" stroke="black" points="1865.62,-85.5 1875.62,-82 1865.62,-78.5 1865.62,-85.5"/>
<text text-anchor="middle" x="1782.18" y="-85.8" font-family="Times,serif" font-size="14.00">Schalter freigegeben</text>
</g>
<!-- search&#45;&gt;idle -->
<g id="edge13" class="edge">
<title>search&#45;&gt;idle</title>
<path fill="none" stroke="black" stroke-dasharray="5,2" d="M2063.17,-75.64C2225.47,-64.12 2551.35,-41 2551.35,-41 2551.35,-41 2852.35,-41 2852.35,-41 2852.35,-41 3764.35,-55 3764.35,-55 3764.35,-55 3767.43,-55.1 3772.49,-55.26"/>
<polygon fill="black" stroke="black" points="3772.56,-58.76 3782.66,-55.58 3772.78,-51.76 3772.56,-58.76"/>
<text text-anchor="middle" x="2701.85" y="-59.8" font-family="Times,serif" font-size="14.00">PK_PEAxisCommand_axHOMINGCANCEL</text>
<text text-anchor="middle" x="2701.85" y="-44.8" font-family="Times,serif" font-size="14.00">(Abbruch)</text>
</g>
<!-- back -->
<g id="node9" class="node">
<title>back</title>
<ellipse fill="none" stroke="black" cx="2448.85" cy="-82" rx="84.49" ry="18"/>
<text text-anchor="middle" x="2448.85" y="-78.3" font-family="Helvetica,sans-Serif" font-size="14.00">axHOMINGBACK</text>
</g>
<!-- search&#45;&gt;back -->
<g id="edge10" class="edge">
<title>search&#45;&gt;back</title>
<path fill="none" stroke="black" d="M2069.51,-82C2152.53,-82 2271.86,-82 2354.2,-82"/>
<polygon fill="black" stroke="black" points="2354.3,-85.5 2364.3,-82 2354.3,-78.5 2354.3,-85.5"/>
<text text-anchor="middle" x="2216.86" y="-85.8" font-family="Times,serif" font-size="14.00">Home&#45;Schalter gefunden (Feinfahrt)</text>
</g>
<!-- back&#45;&gt;idle -->
<g id="edge14" class="edge">
<title>back&#45;&gt;idle</title>
<path fill="none" stroke="black" stroke-dasharray="5,2" d="M2533.28,-80.58C2782.2,-76.34 3518.06,-63.81 3772,-59.49"/>
<polygon fill="black" stroke="black" points="3772.34,-62.98 3782.28,-59.31 3772.22,-55.98 3772.34,-62.98"/>
<text text-anchor="middle" x="3020.85" y="-92.8" font-family="Times,serif" font-size="14.00">PK_PEAxisCommand_axHOMINGCANCEL</text>
<text text-anchor="middle" x="3020.85" y="-77.8" font-family="Times,serif" font-size="14.00">(Abbruch)</text>
</g>
<!-- homed -->
<g id="node10" class="node">
<title>homed</title>
<ellipse fill="none" stroke="black" cx="3020.85" cy="-142" rx="90.98" ry="18"/>
<text text-anchor="middle" x="3020.85" y="-138.3" font-family="Helvetica,sans-Serif" font-size="14.00">axHOME (Homed)</text>
</g>
<!-- back&#45;&gt;homed -->
<g id="edge11" class="edge">
<title>back&#45;&gt;homed</title>
<path fill="none" stroke="black" d="M2524.96,-89.91C2629.32,-100.89 2817.94,-120.75 2929.74,-132.52"/>
<polygon fill="black" stroke="black" points="2929.67,-136.03 2939.99,-133.59 2930.41,-129.07 2929.67,-136.03"/>
<text text-anchor="middle" x="2701.85" y="-127.8" font-family="Times,serif" font-size="14.00">Referenzpunkt erreicht</text>
</g>
<!-- homed&#45;&gt;idle -->
<g id="edge12" class="edge">
<title>homed&#45;&gt;idle</title>
<path fill="none" stroke="black" d="M3105.22,-135.15C3299.18,-119.22 3764.35,-81 3764.35,-81 3764.35,-81 3778.47,-77.58 3795.83,-73.38"/>
<polygon fill="black" stroke="black" points="3796.84,-76.73 3805.73,-70.98 3795.19,-69.93 3796.84,-76.73"/>
<text text-anchor="middle" x="3476.85" y="-145.8" font-family="Times,serif" font-size="14.00">PK_PEAxisCommand_axHOMINGFINALIZE</text>
<text text-anchor="middle" x="3476.85" y="-130.8" font-family="Times,serif" font-size="14.00">(über PoKeysCompPulseEngine_v2, ausgelöst in PoKeysCompPulseEngine_base)</text>
</g>
<!-- startA -->
<g id="node11" class="node">
<title>startA</title>
<ellipse fill="black" stroke="black" cx="3020.85" cy="-18" rx="1.8" ry="1.8"/>
</g>
<!-- startA&#45;&gt;idle -->
<g id="edge2" class="edge">
<title>startA&#45;&gt;idle</title>
<path fill="none" stroke="black" d="M3022.68,-18.02C3050.57,-18.62 3764.35,-34 3764.35,-34 3764.35,-34 3779.08,-37.72 3796.94,-42.24"/>
<polygon fill="black" stroke="black" points="3796.56,-45.75 3807.12,-44.81 3798.28,-38.96 3796.56,-45.75"/>
</g>
</g>
</svg>
        <g id="navigator" transform="translate(0 0)" fill="#404254">
                <rect fill="#f2f5e9" fill-opacity="0.5" stroke="#606060" stroke-width=".5" x="0" y="0" width="60" height="60"/>
                <use id="zoomplus" xlink:href="#zoomPlus" x="17" y="9" onmousedown="handleZoom(evt,'in')"/>
                <use id="zoomminus" xlink:href="#zoomMin" x="42" y="9" onmousedown="handleZoom(evt,'out')"/>
                <use id="reset" xlink:href="#resetDef" x="30" y="36" onmousedown="handleReset()"/>
                <g id="arrowUp" xlink:href="#dirArrow" transform="translate(30 24)" onmousedown="handlePan(0,-1)">
                  <use xlink:href="#rim" fill="#404040">
                        <set attributeName="fill" to="#808080" begin="arrowUp.mouseover" end="arrowUp.mouseout"/>
                  </use>
                  <path fill="none" stroke="white" stroke-width="1.5" d="M0,-3.0v7 M-2.5,-0.5L0,-3.0L2.5,-0.5"/>
                </g>
                <g id="arrowRight" xlink:href="#dirArrow" transform="rotate(90) translate(36 -43)" onmousedown="handlePan(1,0)">
                  <use xlink:href="#rim" fill="#404040">
                        <set attributeName="fill" to="#808080" begin="arrowRight.mouseover" end="arrowRight.mouseout"/>
                  </use>
                  <path fill="none" stroke="white" stroke-width="1.5" d="M0,-3.0v7 M-2.5,-0.5L0,-3.0L2.5,-0.5"/>
                </g>
                <g id="arrowDown" xlink:href="#dirArrow" transform="rotate(180) translate(-30 -48)" onmousedown="handlePan(0,1)">
                  <use xlink:href="#rim" fill="#404040">
                        <set attributeName="fill" to="#808080" begin="arrowDown.mouseover" end="arrowDown.mouseout"/>
                  </use>
                  <path fill="none" stroke="white" stroke-width="1.5" d="M0,-3.0v7 M-2.5,-0.5L0,-3.0L2.5,-0.5"/>
                </g>
                <g id="arrowLeft" xlink:href="#dirArrow" transform="rotate(270) translate(-36 17)" onmousedown="handlePan(-1,0)">
                  <use xlink:href="#rim" fill="#404040">
                        <set attributeName="fill" to="#808080" begin="arrowLeft.mouseover" end="arrowLeft.mouseout"/>
                  </use>
                  <path fill="none" stroke="white" stroke-width="1.5" d="M0,-3.0v7 M-2.5,-0.5L0,-3.0L2.5,-0.5"/>
                </g>
        </g>
        <svg viewBox="0 0 15 15" width="100%" height="30px" preserveAspectRatio="xMaxYMin meet">
         <g id="arrow_out" transform="scale(0.3 0.3)">
          <a xlink:href="dot_inline_dotgraph_1_org.svg" target="_base">
           <rect id="button" ry="5" rx="5" y="6" x="6" height="38" width="38"
                fill="#f2f5e9" fill-opacity="0.5" stroke="#606060" stroke-width="1.0"/>
           <path id="arrow"
             d="M 11.500037,31.436501 C 11.940474,20.09759 22.043105,11.32322 32.158766,21.979434 L 37.068811,17.246167 C 37.068811,17.246167 37.088388,32 37.088388,32 L 22.160133,31.978069 C 22.160133,31.978069 26.997745,27.140456 26.997745,27.140456 C 18.528582,18.264221 13.291696,25.230495 11.500037,31.436501 z"
             style="fill:#404040;"/>
          </a>
         </g>
        </svg>
</svg>
