<?xml version="1.0" encoding="UTF-8" standalone="no"?>
<!DOCTYPE svg PUBLIC "-//W3C//DTD SVG 1.1//EN"
 "http://www.w3.org/Graphics/SVG/1.1/DTD/svg11.dtd">
<!-- Generated by graphviz version 2.43.0 (0)
 -->
<!-- Title: HomingState Pages: 1 -->
<!--zoomable 836 -->
<svg id="main" version="1.1" xmlns="http://www.w3.org/2000/svg" xmlns:xlink="http://www.w3.org/1999/xlink" xml:space="preserve" onload="init(evt)">
<style type="text/css"><![CDATA[
.edge:hover path { stroke: red; }
.edge:hover polygon { stroke: red; fill: red; }
]]></style>
<script type="text/javascript"><![CDATA[
var edges = document.getElementsByTagName('g');
if (edges && edges.length) {
  for (var i=0;i<edges.length;i++) {
    if (edges[i].id.substr(0,4)=='edge') {
      edges[i].setAttribute('class','edge');
    }
  }
}
]]></script>
        <defs>
                <circle id="rim" cx="0" cy="0" r="7"/>
                <circle id="rim2" cx="0" cy="0" r="3.5"/>
                <g id="zoomPlus">
                        <use xlink:href="#rim" fill="#404040">
                                <set attributeName="fill" to="#808080" begin="zoomplus.mouseover" end="zoomplus.mouseout"/>
                        </use>
                        <path d="M-4,0h8M0,-4v8" fill="none" stroke="white" stroke-width="1.5" pointer-events="none"/>
                </g>
                <g id="zoomMin">
                        <use xlink:href="#rim" fill="#404040">
                                <set attributeName="fill" to="#808080" begin="zoomminus.mouseover" end="zoomminus.mouseout"/>
                        </use>
                        <path d="M-4,0h8" fill="none" stroke="white" stroke-width="1.5" pointer-events="none"/>
                </g>
                <g id="dirArrow">
                        <path fill="none" stroke="white" stroke-width="1.5" d="M0,-3.0v7 M-2.5,-0.5L0,-3.0L2.5,-0.5"/>
                </g>
               <g id="resetDef">
                       <use xlink:href="#rim2" fill="#404040">
                               <set attributeName="fill" to="#808080" begin="reset.mouseover" end="reset.mouseout"/>
                       </use>
               </g>
        </defs>

<script type="text/javascript">
var viewWidth = 300;
var viewHeight = 836;
</script>
<script xlink:href="svgpan.js"/>
<svg id="graph" class="graph">
<g id="viewport">
<title>HomingState</title>
<polygon fill="white" stroke="transparent" points="-4,4 -4,-832 296,-832 296,4 -4,4"/>
<!-- axREADY -->
<g id="node1" class="node">
<title>axREADY</title>
<polygon fill="none" stroke="black" points="227.5,-828 143.5,-828 143.5,-792 227.5,-792 227.5,-828"/>
<text text-anchor="middle" x="185.5" y="-806.3" font-family="Times,serif" font-size="14.00">axREADY</text>
</g>
<!-- axHOMINGSTART -->
<g id="node2" class="node">
<title>axHOMINGSTART</title>
<polygon fill="none" stroke="black" points="258.5,-756 112.5,-756 112.5,-720 258.5,-720 258.5,-756"/>
<text text-anchor="middle" x="185.5" y="-734.3" font-family="Times,serif" font-size="14.00">axHOMINGSTART</text>
</g>
<!-- axREADY&#45;&gt;axHOMINGSTART -->
<g id="edge1" class="edge">
<title>axREADY&#45;&gt;axHOMINGSTART</title>
<path fill="none" stroke="black" d="M185.5,-791.7C185.5,-783.98 185.5,-774.71 185.5,-766.11"/>
<polygon fill="black" stroke="black" points="189,-766.1 185.5,-756.1 182,-766.1 189,-766.1"/>
</g>
<!-- axHOMINGSEARCH -->
<g id="node3" class="node">
<title>axHOMINGSEARCH</title>
<polygon fill="none" stroke="black" points="266.5,-684 104.5,-684 104.5,-648 266.5,-648 266.5,-684"/>
<text text-anchor="middle" x="185.5" y="-662.3" font-family="Times,serif" font-size="14.00">axHOMINGSEARCH</text>
</g>
<!-- axHOMINGSTART&#45;&gt;axHOMINGSEARCH -->
<g id="edge2" class="edge">
<title>axHOMINGSTART&#45;&gt;axHOMINGSEARCH</title>
<path fill="none" stroke="black" d="M185.5,-719.7C185.5,-711.98 185.5,-702.71 185.5,-694.11"/>
<polygon fill="black" stroke="black" points="189,-694.1 185.5,-684.1 182,-694.1 189,-694.1"/>
</g>
<!-- axHOMINGBACK -->
<g id="node4" class="node">
<title>axHOMINGBACK</title>
<polygon fill="none" stroke="black" points="255.5,-612 115.5,-612 115.5,-576 255.5,-576 255.5,-612"/>
<text text-anchor="middle" x="185.5" y="-590.3" font-family="Times,serif" font-size="14.00">axHOMINGBACK</text>
</g>
<!-- axHOMINGSEARCH&#45;&gt;axHOMINGBACK -->
<g id="edge3" class="edge">
<title>axHOMINGSEARCH&#45;&gt;axHOMINGBACK</title>
<path fill="none" stroke="black" d="M185.5,-647.7C185.5,-639.98 185.5,-630.71 185.5,-622.11"/>
<polygon fill="black" stroke="black" points="189,-622.1 185.5,-612.1 182,-622.1 189,-622.1"/>
</g>
<!-- axHOMING_RESETTING -->
<g id="node5" class="node">
<title>axHOMING_RESETTING</title>
<polygon fill="none" stroke="black" points="282.5,-540 88.5,-540 88.5,-504 282.5,-504 282.5,-540"/>
<text text-anchor="middle" x="185.5" y="-518.3" font-family="Times,serif" font-size="14.00">axHOMING_RESETTING</text>
</g>
<!-- axHOMINGBACK&#45;&gt;axHOMING_RESETTING -->
<g id="edge4" class="edge">
<title>axHOMINGBACK&#45;&gt;axHOMING_RESETTING</title>
<path fill="none" stroke="black" d="M185.5,-575.7C185.5,-567.98 185.5,-558.71 185.5,-550.11"/>
<polygon fill="black" stroke="black" points="189,-550.1 185.5,-540.1 182,-550.1 189,-550.1"/>
</g>
<!-- axHOMING_BACKING_OFF -->
<g id="node6" class="node">
<title>axHOMING_BACKING_OFF</title>
<polygon fill="none" stroke="black" points="292,-468 79,-468 79,-432 292,-432 292,-468"/>
<text text-anchor="middle" x="185.5" y="-446.3" font-family="Times,serif" font-size="14.00">axHOMING_BACKING_OFF</text>
</g>
<!-- axHOMING_RESETTING&#45;&gt;axHOMING_BACKING_OFF -->
<g id="edge5" class="edge">
<title>axHOMING_RESETTING&#45;&gt;axHOMING_BACKING_OFF</title>
<path fill="none" stroke="black" d="M185.5,-503.7C185.5,-495.98 185.5,-486.71 185.5,-478.11"/>
<polygon fill="black" stroke="black" points="189,-478.1 185.5,-468.1 182,-478.1 189,-478.1"/>
</g>
<!-- axHOME -->
<g id="node7" class="node">
<title>axHOME</title>
<polygon fill="none" stroke="black" points="226,-396 145,-396 145,-360 226,-360 226,-396"/>
<text text-anchor="middle" x="185.5" y="-374.3" font-family="Times,serif" font-size="14.00">axHOME</text>
</g>
<!-- axHOMING_BACKING_OFF&#45;&gt;axHOME -->
<g id="edge6" class="edge">
<title>axHOMING_BACKING_OFF&#45;&gt;axHOME</title>
<path fill="none" stroke="black" d="M185.5,-431.7C185.5,-423.98 185.5,-414.71 185.5,-406.11"/>
<polygon fill="black" stroke="black" points="189,-406.1 185.5,-396.1 182,-406.1 189,-406.1"/>
</g>
<!-- axReadyToFinalizeHoming -->
<g id="node8" class="node">
<title>axReadyToFinalizeHoming</title>
<polygon fill="none" stroke="black" points="223.5,-324 17.5,-324 17.5,-288 223.5,-288 223.5,-324"/>
<text text-anchor="middle" x="120.5" y="-302.3" font-family="Times,serif" font-size="14.00">axReadyToFinalizeHoming</text>
</g>
<!-- axHOME&#45;&gt;axReadyToFinalizeHoming -->
<g id="edge7" class="edge">
<title>axHOME&#45;&gt;axReadyToFinalizeHoming</title>
<path fill="none" stroke="black" d="M169.43,-359.7C161.56,-351.22 151.94,-340.86 143.33,-331.58"/>
<polygon fill="black" stroke="black" points="145.75,-329.05 136.38,-324.1 140.62,-333.81 145.75,-329.05"/>
</g>
<!-- axReadyToArmEncoder -->
<g id="node9" class="node">
<title>axReadyToArmEncoder</title>
<polygon fill="none" stroke="black" points="211,-252 28,-252 28,-216 211,-216 211,-252"/>
<text text-anchor="middle" x="119.5" y="-230.3" font-family="Times,serif" font-size="14.00">axReadyToArmEncoder</text>
</g>
<!-- axReadyToFinalizeHoming&#45;&gt;axReadyToArmEncoder -->
<g id="edge8" class="edge">
<title>axReadyToFinalizeHoming&#45;&gt;axReadyToArmEncoder</title>
<path fill="none" stroke="black" d="M120.25,-287.7C120.14,-279.98 120.01,-270.71 119.89,-262.11"/>
<polygon fill="black" stroke="black" points="123.39,-262.05 119.74,-252.1 116.39,-262.15 123.39,-262.05"/>
</g>
<!-- axHOMINGARMENCODER -->
<g id="node10" class="node">
<title>axHOMINGARMENCODER</title>
<polygon fill="none" stroke="black" points="220.5,-180 10.5,-180 10.5,-144 220.5,-144 220.5,-180"/>
<text text-anchor="middle" x="115.5" y="-158.3" font-family="Times,serif" font-size="14.00">axHOMINGARMENCODER</text>
</g>
<!-- axReadyToArmEncoder&#45;&gt;axHOMINGARMENCODER -->
<g id="edge9" class="edge">
<title>axReadyToArmEncoder&#45;&gt;axHOMINGARMENCODER</title>
<path fill="none" stroke="black" d="M118.51,-215.7C118.07,-207.98 117.54,-198.71 117.05,-190.11"/>
<polygon fill="black" stroke="black" points="120.54,-189.89 116.48,-180.1 113.55,-190.29 120.54,-189.89"/>
</g>
<!-- axHOMINGWaitFINALMOVE -->
<g id="node11" class="node">
<title>axHOMINGWaitFINALMOVE</title>
<polygon fill="none" stroke="black" points="223,-108 0,-108 0,-72 223,-72 223,-108"/>
<text text-anchor="middle" x="111.5" y="-86.3" font-family="Times,serif" font-size="14.00">axHOMINGWaitFINALMOVE</text>
</g>
<!-- axHOMINGARMENCODER&#45;&gt;axHOMINGWaitFINALMOVE -->
<g id="edge10" class="edge">
<title>axHOMINGARMENCODER&#45;&gt;axHOMINGWaitFINALMOVE</title>
<path fill="none" stroke="black" d="M114.51,-143.7C114.07,-135.98 113.54,-126.71 113.05,-118.11"/>
<polygon fill="black" stroke="black" points="116.54,-117.89 112.48,-108.1 109.55,-118.29 116.54,-117.89"/>
</g>
<!-- axHOMINGFINALMOVE -->
<g id="node12" class="node">
<title>axHOMINGFINALMOVE</title>
<polygon fill="none" stroke="black" points="277,-36 86,-36 86,0 277,0 277,-36"/>
<text text-anchor="middle" x="181.5" y="-14.3" font-family="Times,serif" font-size="14.00">axHOMINGFINALMOVE</text>
</g>
<!-- axHOMINGWaitFINALMOVE&#45;&gt;axHOMINGFINALMOVE -->
<g id="edge11" class="edge">
<title>axHOMINGWaitFINALMOVE&#45;&gt;axHOMINGFINALMOVE</title>
<path fill="none" stroke="black" d="M128.8,-71.7C137.36,-63.14 147.84,-52.66 157.2,-43.3"/>
<polygon fill="black" stroke="black" points="159.8,-45.65 164.4,-36.1 154.85,-40.7 159.8,-45.65"/>
</g>
<!-- axHOMINGFINALMOVE&#45;&gt;axHOME -->
<g id="edge12" class="edge">
<title>axHOMINGFINALMOVE&#45;&gt;axHOME</title>
<path fill="none" stroke="black" d="M202.3,-36.16C212.56,-45.7 224.26,-58.37 231.5,-72 250.53,-107.8 251.5,-120.46 251.5,-161 251.5,-235 251.5,-235 251.5,-235 251.5,-275.45 250.74,-287.9 232.5,-324 227.32,-334.25 219.66,-344.08 212.03,-352.43"/>
<polygon fill="black" stroke="black" points="209.49,-350.01 205.09,-359.65 214.54,-354.86 209.49,-350.01"/>
</g>
</g>
</svg>
        <g id="navigator" transform="translate(0 0)" fill="#404254">
                <rect fill="#f2f5e9" fill-opacity="0.5" stroke="#606060" stroke-width=".5" x="0" y="0" width="60" height="60"/>
                <use id="zoomplus" xlink:href="#zoomPlus" x="17" y="9" onmousedown="handleZoom(evt,'in')"/>
                <use id="zoomminus" xlink:href="#zoomMin" x="42" y="9" onmousedown="handleZoom(evt,'out')"/>
                <use id="reset" xlink:href="#resetDef" x="30" y="36" onmousedown="handleReset()"/>
                <g id="arrowUp" xlink:href="#dirArrow" transform="translate(30 24)" onmousedown="handlePan(0,-1)">
                  <use xlink:href="#rim" fill="#404040">
                        <set attributeName="fill" to="#808080" begin="arrowUp.mouseover" end="arrowUp.mouseout"/>
                  </use>
                  <path fill="none" stroke="white" stroke-width="1.5" d="M0,-3.0v7 M-2.5,-0.5L0,-3.0L2.5,-0.5"/>
                </g>
                <g id="arrowRight" xlink:href="#dirArrow" transform="rotate(90) translate(36 -43)" onmousedown="handlePan(1,0)">
                  <use xlink:href="#rim" fill="#404040">
                        <set attributeName="fill" to="#808080" begin="arrowRight.mouseover" end="arrowRight.mouseout"/>
                  </use>
                  <path fill="none" stroke="white" stroke-width="1.5" d="M0,-3.0v7 M-2.5,-0.5L0,-3.0L2.5,-0.5"/>
                </g>
                <g id="arrowDown" xlink:href="#dirArrow" transform="rotate(180) translate(-30 -48)" onmousedown="handlePan(0,1)">
                  <use xlink:href="#rim" fill="#404040">
                        <set attributeName="fill" to="#808080" begin="arrowDown.mouseover" end="arrowDown.mouseout"/>
                  </use>
                  <path fill="none" stroke="white" stroke-width="1.5" d="M0,-3.0v7 M-2.5,-0.5L0,-3.0L2.5,-0.5"/>
                </g>
                <g id="arrowLeft" xlink:href="#dirArrow" transform="rotate(270) translate(-36 17)" onmousedown="handlePan(-1,0)">
                  <use xlink:href="#rim" fill="#404040">
                        <set attributeName="fill" to="#808080" begin="arrowLeft.mouseover" end="arrowLeft.mouseout"/>
                  </use>
                  <path fill="none" stroke="white" stroke-width="1.5" d="M0,-3.0v7 M-2.5,-0.5L0,-3.0L2.5,-0.5"/>
                </g>
        </g>
        <svg viewBox="0 0 15 15" width="100%" height="30px" preserveAspectRatio="xMaxYMin meet">
         <g id="arrow_out" transform="scale(0.3 0.3)">
          <a xlink:href="dot_inline_dotgraph_6_org.svg" target="_base">
           <rect id="button" ry="5" rx="5" y="6" x="6" height="38" width="38"
                fill="#f2f5e9" fill-opacity="0.5" stroke="#606060" stroke-width="1.0"/>
           <path id="arrow"
             d="M 11.500037,31.436501 C 11.940474,20.09759 22.043105,11.32322 32.158766,21.979434 L 37.068811,17.246167 C 37.068811,17.246167 37.088388,32 37.088388,32 L 22.160133,31.978069 C 22.160133,31.978069 26.997745,27.140456 26.997745,27.140456 C 18.528582,18.264221 13.291696,25.230495 11.500037,31.436501 z"
             style="fill:#404040;"/>
          </a>
         </g>
        </svg>
</svg>
