<?xml version="1.0" encoding="UTF-8" standalone="no"?>
<!DOCTYPE svg PUBLIC "-//W3C//DTD SVG 1.1//EN"
 "http://www.w3.org/Graphics/SVG/1.1/DTD/svg11.dtd">
<!-- Generated by graphviz version 2.43.0 (0)
 -->
<!-- Title: do_home_joint Pages: 1 -->
<!--zoomable 503 -->
<svg id="main" version="1.1" xmlns="http://www.w3.org/2000/svg" xmlns:xlink="http://www.w3.org/1999/xlink" xml:space="preserve" onload="init(evt)">
<style type="text/css"><![CDATA[
.edge:hover path { stroke: red; }
.edge:hover polygon { stroke: red; fill: red; }
]]></style>
<script type="text/javascript"><![CDATA[
var edges = document.getElementsByTagName('g');
if (edges && edges.length) {
  for (var i=0;i<edges.length;i++) {
    if (edges[i].id.substr(0,4)=='edge') {
      edges[i].setAttribute('class','edge');
    }
  }
}
]]></script>
        <defs>
                <circle id="rim" cx="0" cy="0" r="7"/>
                <circle id="rim2" cx="0" cy="0" r="3.5"/>
                <g id="zoomPlus">
                        <use xlink:href="#rim" fill="#404040">
                                <set attributeName="fill" to="#808080" begin="zoomplus.mouseover" end="zoomplus.mouseout"/>
                        </use>
                        <path d="M-4,0h8M0,-4v8" fill="none" stroke="white" stroke-width="1.5" pointer-events="none"/>
                </g>
                <g id="zoomMin">
                        <use xlink:href="#rim" fill="#404040">
                                <set attributeName="fill" to="#808080" begin="zoomminus.mouseover" end="zoomminus.mouseout"/>
                        </use>
                        <path d="M-4,0h8" fill="none" stroke="white" stroke-width="1.5" pointer-events="none"/>
                </g>
                <g id="dirArrow">
                        <path fill="none" stroke="white" stroke-width="1.5" d="M0,-3.0v7 M-2.5,-0.5L0,-3.0L2.5,-0.5"/>
                </g>
               <g id="resetDef">
                       <use xlink:href="#rim2" fill="#404040">
                               <set attributeName="fill" to="#808080" begin="reset.mouseover" end="reset.mouseout"/>
                       </use>
               </g>
        </defs>

<script type="text/javascript">
var viewWidth = 871;
var viewHeight = 503;
</script>
<script xlink:href="svgpan.js"/>
<svg id="graph" class="graph">
<g id="viewport">
<title>do_home_joint</title>
<polygon fill="white" stroke="transparent" points="-4,4 -4,-499 866.92,-499 866.92,4 -4,4"/>
<!-- STOPPED -->
<g id="node1" class="node">
<title>STOPPED</title>
<polygon fill="lightyellow" stroke="black" points="206,-104 57,-104 57,-66 206,-66 206,-104"/>
<text text-anchor="middle" x="131.5" y="-88.8" font-family="Times,serif" font-size="14.00">axSTOPPED</text>
<text text-anchor="middle" x="131.5" y="-73.8" font-family="Times,serif" font-size="14.00">to HOMINGSTART</text>
</g>
<!-- SEQ_START -->
<g id="node10" class="node">
<title>SEQ_START</title>
<ellipse fill="lightblue" stroke="black" cx="647.96" cy="-57" rx="214.92" ry="26.74"/>
<text text-anchor="middle" x="647.96" y="-60.8" font-family="Times,serif" font-size="14.00">home_sequence &lt; 0</text>
<text text-anchor="middle" x="647.96" y="-45.8" font-family="Times,serif" font-size="14.00">sequence_state = DO_ONE_SEQUENCE</text>
</g>
<!-- STOPPED&#45;&gt;SEQ_START -->
<g id="edge1" class="edge">
<title>STOPPED&#45;&gt;SEQ_START</title>
<path fill="none" stroke="black" d="M206.17,-68.95C229.93,-64.48 256.47,-60.25 281,-58 328.26,-53.67 379.09,-51.79 427.39,-51.28"/>
<polygon fill="black" stroke="black" points="427.68,-54.78 437.65,-51.2 427.62,-47.78 427.68,-54.78"/>
<text text-anchor="middle" x="348" y="-61.8" font-family="Times,serif" font-size="14.00">if part of sequence</text>
</g>
<!-- SEQ_SINGLE -->
<g id="node11" class="node">
<title>SEQ_SINGLE</title>
<ellipse fill="lightblue" stroke="black" cx="647.96" cy="-150" rx="183.7" ry="26.74"/>
<text text-anchor="middle" x="647.96" y="-153.8" font-family="Times,serif" font-size="14.00">home_sequence &gt;= 0</text>
<text text-anchor="middle" x="647.96" y="-138.8" font-family="Times,serif" font-size="14.00">sequence_state = DO_ONE_JOINT</text>
</g>
<!-- STOPPED&#45;&gt;SEQ_SINGLE -->
<g id="edge3" class="edge">
<title>STOPPED&#45;&gt;SEQ_SINGLE</title>
<path fill="none" stroke="black" d="M206.29,-84.06C263.48,-84.24 344.59,-86.52 415,-96 460.71,-102.15 510.63,-113.2 552.41,-123.7"/>
<polygon fill="black" stroke="black" points="551.75,-127.14 562.3,-126.22 553.47,-120.36 551.75,-127.14"/>
<text text-anchor="middle" x="348" y="-99.8" font-family="Times,serif" font-size="14.00">otherwise</text>
</g>
<!-- READY -->
<g id="node2" class="node">
<title>READY</title>
<polygon fill="lightyellow" stroke="black" points="206,-161 57,-161 57,-123 206,-123 206,-161"/>
<text text-anchor="middle" x="131.5" y="-145.8" font-family="Times,serif" font-size="14.00">axREADY</text>
<text text-anchor="middle" x="131.5" y="-130.8" font-family="Times,serif" font-size="14.00">to HOMINGSTART</text>
</g>
<!-- READY&#45;&gt;SEQ_START -->
<g id="edge2" class="edge">
<title>READY&#45;&gt;SEQ_START</title>
<path fill="none" stroke="black" d="M206,-136.36C263.21,-131.38 344.48,-123.03 415,-111 457.74,-103.71 504.38,-93.33 544.56,-83.62"/>
<polygon fill="black" stroke="black" points="545.47,-87 554.36,-81.23 543.81,-80.2 545.47,-87"/>
<text text-anchor="middle" x="348" y="-131.8" font-family="Times,serif" font-size="14.00">if part of sequence</text>
</g>
<!-- READY&#45;&gt;SEQ_SINGLE -->
<g id="edge4" class="edge">
<title>READY&#45;&gt;SEQ_SINGLE</title>
<path fill="none" stroke="black" d="M206.12,-146.12C230,-147.28 256.62,-148.39 281,-149 337.06,-150.4 397.96,-150.95 453.7,-151.07"/>
<polygon fill="black" stroke="black" points="454.04,-154.57 464.05,-151.09 454.05,-147.57 454.04,-154.57"/>
<text text-anchor="middle" x="348" y="-153.8" font-family="Times,serif" font-size="14.00">otherwise</text>
</g>
<!-- SEARCH -->
<g id="node3" class="node">
<title>SEARCH</title>
<polygon fill="orange" stroke="black" points="212.5,-217 50.5,-217 50.5,-179 212.5,-179 212.5,-217"/>
<text text-anchor="middle" x="131.5" y="-201.8" font-family="Times,serif" font-size="14.00">axHOMINGSEARCH</text>
<text text-anchor="middle" x="131.5" y="-186.8" font-family="Times,serif" font-size="14.00">&#45;&gt; IDLE</text>
</g>
<!-- START -->
<g id="node4" class="node">
<title>START</title>
<polygon fill="orange" stroke="black" points="204.5,-273 58.5,-273 58.5,-235 204.5,-235 204.5,-273"/>
<text text-anchor="middle" x="131.5" y="-257.8" font-family="Times,serif" font-size="14.00">axHOMINGSTART</text>
<text text-anchor="middle" x="131.5" y="-242.8" font-family="Times,serif" font-size="14.00">&#45;&gt; IDLE</text>
</g>
<!-- BACK -->
<g id="node5" class="node">
<title>BACK</title>
<polygon fill="orange" stroke="black" points="201.5,-329 61.5,-329 61.5,-291 201.5,-291 201.5,-329"/>
<text text-anchor="middle" x="131.5" y="-313.8" font-family="Times,serif" font-size="14.00">axHOMINGBACK</text>
<text text-anchor="middle" x="131.5" y="-298.8" font-family="Times,serif" font-size="14.00">&#45;&gt; IDLE</text>
</g>
<!-- BACKING_OFF -->
<g id="node6" class="node">
<title>BACKING_OFF</title>
<polygon fill="orange" stroke="black" points="238,-385 25,-385 25,-347 238,-347 238,-385"/>
<text text-anchor="middle" x="131.5" y="-369.8" font-family="Times,serif" font-size="14.00">axHOMING_BACKING_OFF</text>
<text text-anchor="middle" x="131.5" y="-354.8" font-family="Times,serif" font-size="14.00">&#45;&gt; IDLE</text>
</g>
<!-- RESETTING -->
<g id="node7" class="node">
<title>RESETTING</title>
<polygon fill="orange" stroke="black" points="228.5,-441 34.5,-441 34.5,-403 228.5,-403 228.5,-441"/>
<text text-anchor="middle" x="131.5" y="-425.8" font-family="Times,serif" font-size="14.00">axHOMING_RESETTING</text>
<text text-anchor="middle" x="131.5" y="-410.8" font-family="Times,serif" font-size="14.00">&#45;&gt; IDLE</text>
</g>
<!-- HOME -->
<g id="node8" class="node">
<title>HOME</title>
<polygon fill="lightgreen" stroke="black" points="263,-38 0,-38 0,0 263,0 263,-38"/>
<text text-anchor="middle" x="131.5" y="-22.8" font-family="Times,serif" font-size="14.00">axHOME</text>
<text text-anchor="middle" x="131.5" y="-7.8" font-family="Times,serif" font-size="14.00">&#45;&gt; HOMINGFINALIZE if all homed</text>
</g>
<!-- HOME&#45;&gt;SEQ_START -->
<g id="edge5" class="edge">
<title>HOME&#45;&gt;SEQ_START</title>
<path fill="none" stroke="black" d="M263.04,-24.01C310.87,-26.23 365.43,-29.21 415,-33 434.86,-34.52 455.66,-36.34 476.29,-38.29"/>
<polygon fill="black" stroke="black" points="476.12,-41.79 486.4,-39.26 476.78,-34.82 476.12,-41.79"/>
<text text-anchor="middle" x="348" y="-36.8" font-family="Times,serif" font-size="14.00">if all homed</text>
</g>
<!-- DEFAULT -->
<g id="node9" class="node">
<title>DEFAULT</title>
<polygon fill="gray" stroke="black" points="204,-495 59,-495 59,-459 204,-459 204,-495"/>
<text text-anchor="middle" x="131.5" y="-473.3" font-family="Times,serif" font-size="14.00">default / unknown</text>
</g>
</g>
</svg>
        <g id="navigator" transform="translate(0 0)" fill="#404254">
                <rect fill="#f2f5e9" fill-opacity="0.5" stroke="#606060" stroke-width=".5" x="0" y="0" width="60" height="60"/>
                <use id="zoomplus" xlink:href="#zoomPlus" x="17" y="9" onmousedown="handleZoom(evt,'in')"/>
                <use id="zoomminus" xlink:href="#zoomMin" x="42" y="9" onmousedown="handleZoom(evt,'out')"/>
                <use id="reset" xlink:href="#resetDef" x="30" y="36" onmousedown="handleReset()"/>
                <g id="arrowUp" xlink:href="#dirArrow" transform="translate(30 24)" onmousedown="handlePan(0,-1)">
                  <use xlink:href="#rim" fill="#404040">
                        <set attributeName="fill" to="#808080" begin="arrowUp.mouseover" end="arrowUp.mouseout"/>
                  </use>
                  <path fill="none" stroke="white" stroke-width="1.5" d="M0,-3.0v7 M-2.5,-0.5L0,-3.0L2.5,-0.5"/>
                </g>
                <g id="arrowRight" xlink:href="#dirArrow" transform="rotate(90) translate(36 -43)" onmousedown="handlePan(1,0)">
                  <use xlink:href="#rim" fill="#404040">
                        <set attributeName="fill" to="#808080" begin="arrowRight.mouseover" end="arrowRight.mouseout"/>
                  </use>
                  <path fill="none" stroke="white" stroke-width="1.5" d="M0,-3.0v7 M-2.5,-0.5L0,-3.0L2.5,-0.5"/>
                </g>
                <g id="arrowDown" xlink:href="#dirArrow" transform="rotate(180) translate(-30 -48)" onmousedown="handlePan(0,1)">
                  <use xlink:href="#rim" fill="#404040">
                        <set attributeName="fill" to="#808080" begin="arrowDown.mouseover" end="arrowDown.mouseout"/>
                  </use>
                  <path fill="none" stroke="white" stroke-width="1.5" d="M0,-3.0v7 M-2.5,-0.5L0,-3.0L2.5,-0.5"/>
                </g>
                <g id="arrowLeft" xlink:href="#dirArrow" transform="rotate(270) translate(-36 17)" onmousedown="handlePan(-1,0)">
                  <use xlink:href="#rim" fill="#404040">
                        <set attributeName="fill" to="#808080" begin="arrowLeft.mouseover" end="arrowLeft.mouseout"/>
                  </use>
                  <path fill="none" stroke="white" stroke-width="1.5" d="M0,-3.0v7 M-2.5,-0.5L0,-3.0L2.5,-0.5"/>
                </g>
        </g>
        <svg viewBox="0 0 15 15" width="100%" height="30px" preserveAspectRatio="xMaxYMin meet">
         <g id="arrow_out" transform="scale(0.3 0.3)">
          <a xlink:href="dot_inline_dotgraph_4_org.svg" target="_base">
           <rect id="button" ry="5" rx="5" y="6" x="6" height="38" width="38"
                fill="#f2f5e9" fill-opacity="0.5" stroke="#606060" stroke-width="1.0"/>
           <path id="arrow"
             d="M 11.500037,31.436501 C 11.940474,20.09759 22.043105,11.32322 32.158766,21.979434 L 37.068811,17.246167 C 37.068811,17.246167 37.088388,32 37.088388,32 L 22.160133,31.978069 C 22.160133,31.978069 26.997745,27.140456 26.997745,27.140456 C 18.528582,18.264221 13.291696,25.230495 11.500037,31.436501 z"
             style="fill:#404040;"/>
          </a>
         </g>
        </svg>
</svg>
