<?xml version="1.0" encoding="UTF-8" standalone="no"?>
<!DOCTYPE svg PUBLIC "-//W3C//DTD SVG 1.1//EN"
 "http://www.w3.org/Graphics/SVG/1.1/DTD/svg11.dtd">
<!-- Generated by graphviz version 2.43.0 (0)
 -->
<!-- Title: /usr/include/linuxcnc/emcglb.h Pages: 1 -->
<svg width="340pt" height="95pt"
 viewBox="0.00 0.00 339.50 95.00" xmlns="http://www.w3.org/2000/svg" xmlns:xlink="http://www.w3.org/1999/xlink">
<g id="graph0" class="graph" transform="scale(1 1) rotate(0) translate(4 91)">
<title>/usr/include/linuxcnc/emcglb.h</title>
<polygon fill="white" stroke="transparent" points="-4,4 -4,-91 335.5,-91 335.5,4 -4,4"/>
<!-- Node1 -->
<g id="node1" class="node">
<title>Node1</title>
<g id="a_node1"><a xlink:title=" ">
<polygon fill="#bfbfbf" stroke="black" points="94,-56.5 94,-86.5 210,-86.5 210,-56.5 94,-56.5"/>
<text text-anchor="start" x="102" y="-74.5" font-family="Helvetica,sans-Serif" font-size="10.00">/usr/include/linuxcnc</text>
<text text-anchor="middle" x="152" y="-63.5" font-family="Helvetica,sans-Serif" font-size="10.00">/emcglb.h</text>
</a>
</g>
</g>
<!-- Node2 -->
<g id="node2" class="node">
<title>Node2</title>
<g id="a_node2"><a xlink:href="linuxcnc_8h.html" target="_top" xlink:title=" ">
<polygon fill="white" stroke="black" points="0,-0.5 0,-19.5 66,-19.5 66,-0.5 0,-0.5"/>
<text text-anchor="middle" x="33" y="-7.5" font-family="Helvetica,sans-Serif" font-size="10.00">linuxcnc.h</text>
</a>
</g>
</g>
<!-- Node1&#45;&gt;Node2 -->
<g id="edge1" class="edge">
<title>Node1&#45;&gt;Node2</title>
<path fill="none" stroke="midnightblue" d="M123.8,-56.4C104.28,-46.64 78.47,-33.74 59.37,-24.18"/>
<polygon fill="midnightblue" stroke="midnightblue" points="60.83,-21 50.32,-19.66 57.69,-27.26 60.83,-21"/>
</g>
<!-- Node3 -->
<g id="node3" class="node">
<title>Node3</title>
<g id="a_node3"><a xlink:title=" ">
<polygon fill="white" stroke="#bfbfbf" points="84.5,-0.5 84.5,-19.5 135.5,-19.5 135.5,-0.5 84.5,-0.5"/>
<text text-anchor="middle" x="110" y="-7.5" font-family="Helvetica,sans-Serif" font-size="10.00">math.h</text>
</a>
</g>
</g>
<!-- Node1&#45;&gt;Node3 -->
<g id="edge2" class="edge">
<title>Node1&#45;&gt;Node3</title>
<path fill="none" stroke="midnightblue" d="M142.05,-56.4C136.01,-47.84 128.26,-36.87 121.9,-27.86"/>
<polygon fill="midnightblue" stroke="midnightblue" points="124.74,-25.81 116.11,-19.66 119.02,-29.85 124.74,-25.81"/>
</g>
<!-- Node4 -->
<g id="node4" class="node">
<title>Node4</title>
<g id="a_node4"><a xlink:href="emcmotcfg_8h.html" target="_top" xlink:title=" ">
<polygon fill="white" stroke="black" points="153.5,-0.5 153.5,-19.5 234.5,-19.5 234.5,-0.5 153.5,-0.5"/>
<text text-anchor="middle" x="194" y="-7.5" font-family="Helvetica,sans-Serif" font-size="10.00">emcmotcfg.h</text>
</a>
</g>
</g>
<!-- Node1&#45;&gt;Node4 -->
<g id="edge3" class="edge">
<title>Node1&#45;&gt;Node4</title>
<path fill="none" stroke="midnightblue" d="M161.95,-56.4C167.99,-47.84 175.74,-36.87 182.1,-27.86"/>
<polygon fill="midnightblue" stroke="midnightblue" points="184.98,-29.85 187.89,-19.66 179.26,-25.81 184.98,-29.85"/>
</g>
<!-- Node5 -->
<g id="node5" class="node">
<title>Node5</title>
<g id="a_node5"><a xlink:href="debugflags_8h.html" target="_top" xlink:title=" ">
<polygon fill="white" stroke="black" points="252.5,-0.5 252.5,-19.5 331.5,-19.5 331.5,-0.5 252.5,-0.5"/>
<text text-anchor="middle" x="292" y="-7.5" font-family="Helvetica,sans-Serif" font-size="10.00">debugflags.h</text>
</a>
</g>
</g>
<!-- Node1&#45;&gt;Node5 -->
<g id="edge4" class="edge">
<title>Node1&#45;&gt;Node5</title>
<path fill="none" stroke="midnightblue" d="M185.18,-56.4C208.56,-46.46 239.61,-33.26 262.21,-23.66"/>
<polygon fill="midnightblue" stroke="midnightblue" points="263.79,-26.79 271.63,-19.66 261.06,-20.35 263.79,-26.79"/>
</g>
</g>
</svg>
