<?xml version="1.0" encoding="UTF-8" standalone="no"?>
<!DOCTYPE svg PUBLIC "-//W3C//DTD SVG 1.1//EN"
 "http://www.w3.org/Graphics/SVG/1.1/DTD/svg11.dtd">
<!-- Generated by graphviz version 2.43.0 (0)
 -->
<!-- Title: /usr/include/linuxcnc/emcpos.h Pages: 1 -->
<!--zoomable 396 -->
<svg id="main" version="1.1" xmlns="http://www.w3.org/2000/svg" xmlns:xlink="http://www.w3.org/1999/xlink" xml:space="preserve" onload="init(evt)">
<style type="text/css"><![CDATA[
.edge:hover path { stroke: red; }
.edge:hover polygon { stroke: red; fill: red; }
]]></style>
<script type="text/javascript"><![CDATA[
var edges = document.getElementsByTagName('g');
if (edges && edges.length) {
  for (var i=0;i<edges.length;i++) {
    if (edges[i].id.substr(0,4)=='edge') {
      edges[i].setAttribute('class','edge');
    }
  }
}
]]></script>
        <defs>
                <circle id="rim" cx="0" cy="0" r="7"/>
                <circle id="rim2" cx="0" cy="0" r="3.5"/>
                <g id="zoomPlus">
                        <use xlink:href="#rim" fill="#404040">
                                <set attributeName="fill" to="#808080" begin="zoomplus.mouseover" end="zoomplus.mouseout"/>
                        </use>
                        <path d="M-4,0h8M0,-4v8" fill="none" stroke="white" stroke-width="1.5" pointer-events="none"/>
                </g>
                <g id="zoomMin">
                        <use xlink:href="#rim" fill="#404040">
                                <set attributeName="fill" to="#808080" begin="zoomminus.mouseover" end="zoomminus.mouseout"/>
                        </use>
                        <path d="M-4,0h8" fill="none" stroke="white" stroke-width="1.5" pointer-events="none"/>
                </g>
                <g id="dirArrow">
                        <path fill="none" stroke="white" stroke-width="1.5" d="M0,-3.0v7 M-2.5,-0.5L0,-3.0L2.5,-0.5"/>
                </g>
               <g id="resetDef">
                       <use xlink:href="#rim2" fill="#404040">
                               <set attributeName="fill" to="#808080" begin="reset.mouseover" end="reset.mouseout"/>
                       </use>
               </g>
        </defs>

<script type="text/javascript">
var viewWidth = 1401;
var viewHeight = 396;
var sectionId = 'dynsection-1';
</script>
<script xlink:href="svgpan.js"/>
<svg id="graph" class="graph">
<g id="viewport">
<title>/usr/include/linuxcnc/emcpos.h</title>
<polygon fill="white" stroke="transparent" points="-4,4 -4,-392 1396.5,-392 1396.5,4 -4,4"/>
<!-- Node1 -->
<g id="node1" class="node">
<title>Node1</title>
<g id="a_node1"><a xlink:title=" ">
<polygon fill="#bfbfbf" stroke="black" points="368,-357.5 368,-387.5 484,-387.5 484,-357.5 368,-357.5"/>
<text text-anchor="start" x="376" y="-375.5" font-family="Helvetica,sans-Serif" font-size="10.00">/usr/include/linuxcnc</text>
<text text-anchor="middle" x="426" y="-364.5" font-family="Helvetica,sans-Serif" font-size="10.00">/emcpos.h</text>
</a>
</g>
</g>
<!-- Node2 -->
<g id="node2" class="node">
<title>Node2</title>
<g id="a_node2"><a xlink:href="canon_8hh.html" target="_top" xlink:title=" ">
<polygon fill="white" stroke="black" points="182,-156.5 182,-186.5 298,-186.5 298,-156.5 182,-156.5"/>
<text text-anchor="start" x="190" y="-174.5" font-family="Helvetica,sans-Serif" font-size="10.00">/usr/include/linuxcnc</text>
<text text-anchor="middle" x="240" y="-163.5" font-family="Helvetica,sans-Serif" font-size="10.00">/canon.hh</text>
</a>
</g>
</g>
<!-- Node1&#45;&gt;Node2 -->
<g id="edge1" class="edge">
<title>Node1&#45;&gt;Node2</title>
<path fill="none" stroke="midnightblue" d="M357.39,-369.25C281.51,-365.14 166.34,-353.57 139,-321 100.31,-274.91 177.36,-213.91 217.63,-186.68"/>
<polygon fill="midnightblue" stroke="midnightblue" points="357.66,-372.76 367.82,-369.78 358.01,-365.77 357.66,-372.76"/>
</g>
<!-- Node3 -->
<g id="node3" class="node">
<title>Node3</title>
<g id="a_node3"><a xlink:href="emc__nml_8hh.html" target="_top" xlink:title=" ">
<polygon fill="white" stroke="black" points="354,-11.5 354,-41.5 470,-41.5 470,-11.5 354,-11.5"/>
<text text-anchor="start" x="362" y="-29.5" font-family="Helvetica,sans-Serif" font-size="10.00">/usr/include/linuxcnc</text>
<text text-anchor="middle" x="412" y="-18.5" font-family="Helvetica,sans-Serif" font-size="10.00">/emc_nml.hh</text>
</a>
</g>
</g>
<!-- Node1&#45;&gt;Node3 -->
<g id="edge9" class="edge">
<title>Node1&#45;&gt;Node3</title>
<path fill="none" stroke="midnightblue" d="M437.15,-347.86C448.37,-321.89 464,-278.66 464,-239.5 464,-239.5 464,-239.5 464,-170.5 464,-120.84 435.96,-67 421.06,-41.9"/>
<polygon fill="midnightblue" stroke="midnightblue" points="433.85,-346.68 432.97,-357.24 440.24,-349.53 433.85,-346.68"/>
</g>
<!-- Node4 -->
<g id="node4" class="node">
<title>Node4</title>
<g id="a_node4"><a xlink:href="interp__internal_8hh.html" target="_top" xlink:title=" ">
<polygon fill="white" stroke="black" points="0,-89.5 0,-119.5 116,-119.5 116,-89.5 0,-89.5"/>
<text text-anchor="start" x="8" y="-107.5" font-family="Helvetica,sans-Serif" font-size="10.00">/usr/include/linuxcnc</text>
<text text-anchor="middle" x="58" y="-96.5" font-family="Helvetica,sans-Serif" font-size="10.00">/interp_internal.hh</text>
</a>
</g>
</g>
<!-- Node1&#45;&gt;Node4 -->
<g id="edge17" class="edge">
<title>Node1&#45;&gt;Node4</title>
<path fill="none" stroke="midnightblue" d="M357.83,-368.14C275.5,-362.85 143.18,-350.01 104,-321 50.8,-281.61 53.82,-251.51 39,-187 33.57,-163.35 43.31,-135.88 50.74,-119.63"/>
<polygon fill="midnightblue" stroke="midnightblue" points="357.66,-371.64 367.86,-368.76 358.09,-364.65 357.66,-371.64"/>
</g>
<!-- Node7 -->
<g id="node7" class="node">
<title>Node7</title>
<g id="a_node7"><a xlink:href="canon__position_8hh.html" target="_top" xlink:title=" ">
<polygon fill="white" stroke="black" points="234,-223.5 234,-253.5 350,-253.5 350,-223.5 234,-223.5"/>
<text text-anchor="start" x="242" y="-241.5" font-family="Helvetica,sans-Serif" font-size="10.00">/usr/include/linuxcnc</text>
<text text-anchor="middle" x="292" y="-230.5" font-family="Helvetica,sans-Serif" font-size="10.00">/canon_position.hh</text>
</a>
</g>
</g>
<!-- Node1&#45;&gt;Node7 -->
<g id="edge7" class="edge">
<title>Node1&#45;&gt;Node7</title>
<path fill="none" stroke="midnightblue" d="M425.93,-347.32C424.66,-329.63 420.3,-306.01 407,-290 392.51,-272.55 370.82,-260.95 350.16,-253.32"/>
<polygon fill="midnightblue" stroke="midnightblue" points="422.44,-347.61 426.37,-357.45 429.43,-347.31 422.44,-347.61"/>
</g>
<!-- Node8 -->
<g id="node8" class="node">
<title>Node8</title>
<g id="a_node8"><a xlink:href="emcpose_8h.html" target="_top" xlink:title=" ">
<polygon fill="white" stroke="black" points="282,-290.5 282,-320.5 398,-320.5 398,-290.5 282,-290.5"/>
<text text-anchor="start" x="290" y="-308.5" font-family="Helvetica,sans-Serif" font-size="10.00">/usr/include/linuxcnc</text>
<text text-anchor="middle" x="340" y="-297.5" font-family="Helvetica,sans-Serif" font-size="10.00">/emcpose.h</text>
</a>
</g>
</g>
<!-- Node1&#45;&gt;Node8 -->
<g id="edge10" class="edge">
<title>Node1&#45;&gt;Node8</title>
<path fill="none" stroke="midnightblue" d="M399.1,-351.17C385.95,-341.23 370.45,-329.51 358.62,-320.58"/>
<polygon fill="midnightblue" stroke="midnightblue" points="397.25,-354.16 407.34,-357.4 401.47,-348.57 397.25,-354.16"/>
</g>
<!-- Node9 -->
<g id="node9" class="node">
<title>Node9</title>
<g id="a_node9"><a xlink:href="emctool_8h.html" target="_top" xlink:title=" ">
<polygon fill="white" stroke="black" points="148,-290.5 148,-320.5 264,-320.5 264,-290.5 148,-290.5"/>
<text text-anchor="start" x="156" y="-308.5" font-family="Helvetica,sans-Serif" font-size="10.00">/usr/include/linuxcnc</text>
<text text-anchor="middle" x="206" y="-297.5" font-family="Helvetica,sans-Serif" font-size="10.00">/emctool.h</text>
</a>
</g>
</g>
<!-- Node1&#45;&gt;Node9 -->
<g id="edge11" class="edge">
<title>Node1&#45;&gt;Node9</title>
<path fill="none" stroke="midnightblue" d="M368.73,-354.58C333,-344.02 287.54,-330.59 253.76,-320.61"/>
<polygon fill="midnightblue" stroke="midnightblue" points="367.95,-358 378.53,-357.48 369.94,-351.29 367.95,-358"/>
</g>
<!-- Node10 -->
<g id="node10" class="node">
<title>Node10</title>
<g id="a_node10"><a xlink:href="interp__base_8hh.html" target="_top" xlink:title=" ">
<polygon fill="white" stroke="black" points="48,-156.5 48,-186.5 164,-186.5 164,-156.5 48,-156.5"/>
<text text-anchor="start" x="56" y="-174.5" font-family="Helvetica,sans-Serif" font-size="10.00">/usr/include/linuxcnc</text>
<text text-anchor="middle" x="106" y="-163.5" font-family="Helvetica,sans-Serif" font-size="10.00">/interp_base.hh</text>
</a>
</g>
</g>
<!-- Node1&#45;&gt;Node10 -->
<g id="edge14" class="edge">
<title>Node1&#45;&gt;Node10</title>
<path fill="none" stroke="midnightblue" d="M357.64,-369.23C278.87,-365.1 156.24,-353.48 125,-321 89.51,-284.1 97.39,-216.05 102.91,-186.65"/>
<polygon fill="midnightblue" stroke="midnightblue" points="357.81,-372.74 367.97,-369.74 358.16,-365.75 357.81,-372.74"/>
</g>
<!-- Node11 -->
<g id="node11" class="node">
<title>Node11</title>
<g id="a_node11"><a xlink:href="kinematics_8h.html" target="_top" xlink:title=" ">
<polygon fill="white" stroke="black" points="664,-290.5 664,-320.5 780,-320.5 780,-290.5 664,-290.5"/>
<text text-anchor="start" x="672" y="-308.5" font-family="Helvetica,sans-Serif" font-size="10.00">/usr/include/linuxcnc</text>
<text text-anchor="middle" x="722" y="-297.5" font-family="Helvetica,sans-Serif" font-size="10.00">/kinematics.h</text>
</a>
</g>
</g>
<!-- Node1&#45;&gt;Node11 -->
<g id="edge18" class="edge">
<title>Node1&#45;&gt;Node11</title>
<path fill="none" stroke="midnightblue" d="M494.13,-356.54C545.44,-345.27 615.02,-329.99 663.75,-319.29"/>
<polygon fill="midnightblue" stroke="midnightblue" points="493.14,-353.17 484.13,-358.74 494.64,-360.01 493.14,-353.17"/>
</g>
<!-- Node14 -->
<g id="node14" class="node">
<title>Node14</title>
<g id="a_node14"><a xlink:href="motion_8h.html" target="_top" xlink:title=" ">
<polygon fill="white" stroke="black" points="873,-89.5 873,-119.5 989,-119.5 989,-89.5 873,-89.5"/>
<text text-anchor="start" x="881" y="-107.5" font-family="Helvetica,sans-Serif" font-size="10.00">/usr/include/linuxcnc</text>
<text text-anchor="middle" x="931" y="-96.5" font-family="Helvetica,sans-Serif" font-size="10.00">/motion.h</text>
</a>
</g>
</g>
<!-- Node1&#45;&gt;Node14 -->
<g id="edge24" class="edge">
<title>Node1&#45;&gt;Node14</title>
<path fill="none" stroke="midnightblue" d="M451.15,-350.77C460.42,-342.24 470.49,-331.82 478,-321 505.12,-281.93 485.19,-254.3 521,-223 622.2,-134.56 785.99,-112.47 872.75,-107.09"/>
<polygon fill="midnightblue" stroke="midnightblue" points="448.77,-348.2 443.62,-357.46 453.42,-353.44 448.77,-348.2"/>
</g>
<!-- Node17 -->
<g id="node17" class="node">
<title>Node17</title>
<g id="a_node17"><a xlink:href="tc_8h.html" target="_top" xlink:title=" ">
<polygon fill="white" stroke="black" points="1255.5,-95 1255.5,-114 1392.5,-114 1392.5,-95 1255.5,-95"/>
<text text-anchor="middle" x="1324" y="-102" font-family="Helvetica,sans-Serif" font-size="10.00">/usr/include/linuxcnc/tc.h</text>
</a>
</g>
</g>
<!-- Node1&#45;&gt;Node17 -->
<g id="edge25" class="edge">
<title>Node1&#45;&gt;Node17</title>
<path fill="none" stroke="midnightblue" d="M494.22,-369.95C653.86,-365.83 1047.85,-352.69 1176,-321 1247.27,-303.38 1279.65,-310.12 1327,-254 1355.51,-220.21 1352.29,-199.42 1344,-156 1341.07,-140.62 1333.53,-123.95 1328.59,-114.13"/>
<polygon fill="midnightblue" stroke="midnightblue" points="493.96,-366.45 484.05,-370.21 494.14,-373.45 493.96,-366.45"/>
</g>
<!-- Node18 -->
<g id="node18" class="node">
<title>Node18</title>
<g id="a_node18"><a xlink:href="tc__types_8h.html" target="_top" xlink:title=" ">
<polygon fill="white" stroke="black" points="1051,-290.5 1051,-320.5 1167,-320.5 1167,-290.5 1051,-290.5"/>
<text text-anchor="start" x="1059" y="-308.5" font-family="Helvetica,sans-Serif" font-size="10.00">/usr/include/linuxcnc</text>
<text text-anchor="middle" x="1109" y="-297.5" font-family="Helvetica,sans-Serif" font-size="10.00">/tc_types.h</text>
</a>
</g>
</g>
<!-- Node1&#45;&gt;Node18 -->
<g id="edge26" class="edge">
<title>Node1&#45;&gt;Node18</title>
<path fill="none" stroke="midnightblue" d="M494.4,-364.99C628.83,-352.2 925.29,-323.98 1050.92,-312.03"/>
<polygon fill="midnightblue" stroke="midnightblue" points="493.86,-361.53 484.23,-365.96 494.52,-368.49 493.86,-361.53"/>
</g>
<!-- Node2&#45;&gt;Node3 -->
<g id="edge2" class="edge">
<title>Node2&#45;&gt;Node3</title>
<path fill="none" stroke="midnightblue" d="M308.3,-163.36C338.31,-156.76 371.53,-144.12 393,-120 412.51,-98.08 414.03,-61.59 413.17,-41.62"/>
<polygon fill="midnightblue" stroke="midnightblue" points="307.38,-159.98 298.27,-165.38 308.76,-166.84 307.38,-159.98"/>
</g>
<!-- Node2&#45;&gt;Node4 -->
<g id="edge3" class="edge">
<title>Node2&#45;&gt;Node4</title>
<path fill="none" stroke="midnightblue" d="M190.87,-152.96C161.56,-142.48 124.82,-129.37 97.41,-119.58"/>
<polygon fill="midnightblue" stroke="midnightblue" points="189.91,-156.33 200.51,-156.4 192.27,-149.74 189.91,-156.33"/>
</g>
<!-- Node5 -->
<g id="node5" class="node">
<title>Node5</title>
<g id="a_node5"><a xlink:href="rs274ngc_8hh.html" target="_top" xlink:title=" ">
<polygon fill="white" stroke="black" points="134,-89.5 134,-119.5 250,-119.5 250,-89.5 134,-89.5"/>
<text text-anchor="start" x="142" y="-107.5" font-family="Helvetica,sans-Serif" font-size="10.00">/usr/include/linuxcnc</text>
<text text-anchor="middle" x="192" y="-96.5" font-family="Helvetica,sans-Serif" font-size="10.00">/rs274ngc.hh</text>
</a>
</g>
</g>
<!-- Node2&#45;&gt;Node5 -->
<g id="edge4" class="edge">
<title>Node2&#45;&gt;Node5</title>
<path fill="none" stroke="midnightblue" d="M223.5,-148.16C216.5,-138.68 208.56,-127.92 202.39,-119.58"/>
<polygon fill="midnightblue" stroke="midnightblue" points="220.83,-150.43 229.58,-156.4 226.46,-146.27 220.83,-150.43"/>
</g>
<!-- Node6 -->
<g id="node6" class="node">
<title>Node6</title>
<g id="a_node6"><a xlink:href="saicanon_8hh.html" target="_top" xlink:title=" ">
<polygon fill="white" stroke="black" points="268,-89.5 268,-119.5 384,-119.5 384,-89.5 268,-89.5"/>
<text text-anchor="start" x="276" y="-107.5" font-family="Helvetica,sans-Serif" font-size="10.00">/usr/include/linuxcnc</text>
<text text-anchor="middle" x="326" y="-96.5" font-family="Helvetica,sans-Serif" font-size="10.00">/saicanon.hh</text>
</a>
</g>
</g>
<!-- Node2&#45;&gt;Node6 -->
<g id="edge6" class="edge">
<title>Node2&#45;&gt;Node6</title>
<path fill="none" stroke="midnightblue" d="M266.9,-150.17C280.05,-140.23 295.55,-128.51 307.38,-119.58"/>
<polygon fill="midnightblue" stroke="midnightblue" points="264.53,-147.57 258.66,-156.4 268.75,-153.16 264.53,-147.57"/>
</g>
<!-- Node5&#45;&gt;Node3 -->
<g id="edge5" class="edge">
<title>Node5&#45;&gt;Node3</title>
<path fill="none" stroke="midnightblue" d="M242.21,-86.15C281.29,-72.66 334.82,-54.16 371.26,-41.57"/>
<polygon fill="midnightblue" stroke="midnightblue" points="240.92,-82.9 232.61,-89.47 243.2,-89.51 240.92,-82.9"/>
</g>
<!-- Node7&#45;&gt;Node2 -->
<g id="edge8" class="edge">
<title>Node7&#45;&gt;Node2</title>
<path fill="none" stroke="midnightblue" d="M274.36,-215.45C266.72,-205.9 258,-195 251.26,-186.58"/>
<polygon fill="midnightblue" stroke="midnightblue" points="271.74,-217.77 280.72,-223.4 277.2,-213.4 271.74,-217.77"/>
</g>
<!-- Node9&#45;&gt;Node2 -->
<g id="edge12" class="edge">
<title>Node9&#45;&gt;Node2</title>
<path fill="none" stroke="midnightblue" d="M211.2,-280.51C214.82,-264.23 219.9,-242.24 225,-223 228.28,-210.62 232.46,-196.68 235.57,-186.59"/>
<polygon fill="midnightblue" stroke="midnightblue" points="207.77,-279.78 209.04,-290.3 214.61,-281.29 207.77,-279.78"/>
</g>
<!-- Node9&#45;&gt;Node7 -->
<g id="edge13" class="edge">
<title>Node9&#45;&gt;Node7</title>
<path fill="none" stroke="midnightblue" d="M232.9,-284.17C246.05,-274.23 261.55,-262.51 273.38,-253.58"/>
<polygon fill="midnightblue" stroke="midnightblue" points="230.53,-281.57 224.66,-290.4 234.75,-287.16 230.53,-281.57"/>
</g>
<!-- Node10&#45;&gt;Node4 -->
<g id="edge15" class="edge">
<title>Node10&#45;&gt;Node4</title>
<path fill="none" stroke="midnightblue" d="M89.5,-148.16C82.5,-138.68 74.56,-127.92 68.39,-119.58"/>
<polygon fill="midnightblue" stroke="midnightblue" points="86.83,-150.43 95.58,-156.4 92.46,-146.27 86.83,-150.43"/>
</g>
<!-- Node10&#45;&gt;Node5 -->
<g id="edge16" class="edge">
<title>Node10&#45;&gt;Node5</title>
<path fill="none" stroke="midnightblue" d="M132.9,-150.17C146.05,-140.23 161.55,-128.51 173.38,-119.58"/>
<polygon fill="midnightblue" stroke="midnightblue" points="130.53,-147.57 124.66,-156.4 134.75,-153.16 130.53,-147.57"/>
</g>
<!-- Node12 -->
<g id="node12" class="node">
<title>Node12</title>
<g id="a_node12"><a xlink:href="genhexkins_8h.html" target="_top" xlink:title=" ">
<polygon fill="white" stroke="black" points="530,-223.5 530,-253.5 646,-253.5 646,-223.5 530,-223.5"/>
<text text-anchor="start" x="538" y="-241.5" font-family="Helvetica,sans-Serif" font-size="10.00">/usr/include/linuxcnc</text>
<text text-anchor="middle" x="588" y="-230.5" font-family="Helvetica,sans-Serif" font-size="10.00">/genhexkins.h</text>
</a>
</g>
</g>
<!-- Node11&#45;&gt;Node12 -->
<g id="edge19" class="edge">
<title>Node11&#45;&gt;Node12</title>
<path fill="none" stroke="midnightblue" d="M683.85,-285.99C662.61,-275.69 636.59,-263.07 617.02,-253.58"/>
<polygon fill="midnightblue" stroke="midnightblue" points="682.4,-289.18 692.92,-290.4 685.45,-282.88 682.4,-289.18"/>
</g>
<!-- Node13 -->
<g id="node13" class="node">
<title>Node13</title>
<g id="a_node13"><a xlink:href="genserkins_8h.html" target="_top" xlink:title=" ">
<polygon fill="white" stroke="black" points="664,-223.5 664,-253.5 780,-253.5 780,-223.5 664,-223.5"/>
<text text-anchor="start" x="672" y="-241.5" font-family="Helvetica,sans-Serif" font-size="10.00">/usr/include/linuxcnc</text>
<text text-anchor="middle" x="722" y="-230.5" font-family="Helvetica,sans-Serif" font-size="10.00">/genserkins.h</text>
</a>
</g>
</g>
<!-- Node11&#45;&gt;Node13 -->
<g id="edge20" class="edge">
<title>Node11&#45;&gt;Node13</title>
<path fill="none" stroke="midnightblue" d="M722,-280.11C722,-271.15 722,-261.32 722,-253.58"/>
<polygon fill="midnightblue" stroke="midnightblue" points="718.5,-280.4 722,-290.4 725.5,-280.4 718.5,-280.4"/>
</g>
<!-- Node11&#45;&gt;Node14 -->
<g id="edge21" class="edge">
<title>Node11&#45;&gt;Node14</title>
<path fill="none" stroke="midnightblue" d="M790.21,-296.07C841.63,-288.2 906.08,-274.53 923,-254 955.18,-214.95 942.77,-148.65 935.19,-119.71"/>
<polygon fill="midnightblue" stroke="midnightblue" points="789.5,-292.64 780.12,-297.57 790.52,-299.57 789.5,-292.64"/>
</g>
<!-- Node16 -->
<g id="node16" class="node">
<title>Node16</title>
<g id="a_node16"><a xlink:href="switchkins_8h.html" target="_top" xlink:title=" ">
<polygon fill="white" stroke="black" points="798,-223.5 798,-253.5 914,-253.5 914,-223.5 798,-223.5"/>
<text text-anchor="start" x="806" y="-241.5" font-family="Helvetica,sans-Serif" font-size="10.00">/usr/include/linuxcnc</text>
<text text-anchor="middle" x="856" y="-230.5" font-family="Helvetica,sans-Serif" font-size="10.00">/switchkins.h</text>
</a>
</g>
</g>
<!-- Node11&#45;&gt;Node16 -->
<g id="edge23" class="edge">
<title>Node11&#45;&gt;Node16</title>
<path fill="none" stroke="midnightblue" d="M760.15,-285.99C781.39,-275.69 807.41,-263.07 826.98,-253.58"/>
<polygon fill="midnightblue" stroke="midnightblue" points="758.55,-282.88 751.08,-290.4 761.6,-289.18 758.55,-282.88"/>
</g>
<!-- Node15 -->
<g id="node15" class="node">
<title>Node15</title>
<g id="a_node15"><a xlink:href="pokeys__homecomp_8c.html" target="_top" xlink:title="HAL component for managing homing sequence and state logic using PoKeys PulseEngine v2.">
<polygon fill="white" stroke="black" points="839,-0.5 839,-52.5 1023,-52.5 1023,-0.5 839,-0.5"/>
<text text-anchor="start" x="847" y="-40.5" font-family="Helvetica,sans-Serif" font-size="10.00">/home/cnc/actions&#45;runner</text>
<text text-anchor="start" x="847" y="-29.5" font-family="Helvetica,sans-Serif" font-size="10.00">/_work/LinuxCnc_PokeysLibComp</text>
<text text-anchor="start" x="847" y="-18.5" font-family="Helvetica,sans-Serif" font-size="10.00">/LinuxCnc_PokeysLibComp/pokeys</text>
<text text-anchor="middle" x="931" y="-7.5" font-family="Helvetica,sans-Serif" font-size="10.00">_rt/pokeys_homecomp.c</text>
</a>
</g>
</g>
<!-- Node14&#45;&gt;Node15 -->
<g id="edge22" class="edge">
<title>Node14&#45;&gt;Node15</title>
<path fill="none" stroke="midnightblue" d="M931,-79.14C931,-70.63 931,-61.07 931,-52.5"/>
<polygon fill="midnightblue" stroke="midnightblue" points="927.5,-79.2 931,-89.2 934.5,-79.21 927.5,-79.2"/>
</g>
<!-- Node18&#45;&gt;Node17 -->
<g id="edge28" class="edge">
<title>Node18&#45;&gt;Node17</title>
<path fill="none" stroke="midnightblue" d="M1177.12,-295.19C1226.71,-286.95 1288.04,-273.23 1305,-254 1341.11,-213.07 1330.76,-139.36 1325.88,-114.2"/>
<polygon fill="midnightblue" stroke="midnightblue" points="1176.37,-291.76 1167.06,-296.81 1177.49,-298.67 1176.37,-291.76"/>
</g>
<!-- Node19 -->
<g id="node19" class="node">
<title>Node19</title>
<g id="a_node19"><a xlink:href="blendmath_8h.html" target="_top" xlink:title=" ">
<polygon fill="white" stroke="black" points="1180,-223.5 1180,-253.5 1296,-253.5 1296,-223.5 1180,-223.5"/>
<text text-anchor="start" x="1188" y="-241.5" font-family="Helvetica,sans-Serif" font-size="10.00">/usr/include/linuxcnc</text>
<text text-anchor="middle" x="1238" y="-230.5" font-family="Helvetica,sans-Serif" font-size="10.00">/blendmath.h</text>
</a>
</g>
</g>
<!-- Node18&#45;&gt;Node19 -->
<g id="edge27" class="edge">
<title>Node18&#45;&gt;Node19</title>
<path fill="none" stroke="midnightblue" d="M1146.01,-285.85C1166.4,-275.58 1191.31,-263.03 1210.06,-253.58"/>
<polygon fill="midnightblue" stroke="midnightblue" points="1144.35,-282.77 1136.99,-290.4 1147.5,-289.02 1144.35,-282.77"/>
</g>
<!-- Node20 -->
<g id="node20" class="node">
<title>Node20</title>
<g id="a_node20"><a xlink:href="tcq_8h.html" target="_top" xlink:title=" ">
<polygon fill="white" stroke="black" points="1008,-223.5 1008,-253.5 1124,-253.5 1124,-223.5 1008,-223.5"/>
<text text-anchor="start" x="1016" y="-241.5" font-family="Helvetica,sans-Serif" font-size="10.00">/usr/include/linuxcnc</text>
<text text-anchor="middle" x="1066" y="-230.5" font-family="Helvetica,sans-Serif" font-size="10.00">/tcq.h</text>
</a>
</g>
</g>
<!-- Node18&#45;&gt;Node20 -->
<g id="edge29" class="edge">
<title>Node18&#45;&gt;Node20</title>
<path fill="none" stroke="midnightblue" d="M1094.03,-281.87C1087.8,-272.46 1080.77,-261.83 1075.31,-253.58"/>
<polygon fill="midnightblue" stroke="midnightblue" points="1091.23,-283.99 1099.67,-290.4 1097.07,-280.12 1091.23,-283.99"/>
</g>
<!-- Node21 -->
<g id="node21" class="node">
<title>Node21</title>
<g id="a_node21"><a xlink:href="tp_8h.html" target="_top" xlink:title=" ">
<polygon fill="white" stroke="black" points="1007,-95 1007,-114 1145,-114 1145,-95 1007,-95"/>
<text text-anchor="middle" x="1076" y="-102" font-family="Helvetica,sans-Serif" font-size="10.00">/usr/include/linuxcnc/tp.h</text>
</a>
</g>
</g>
<!-- Node18&#45;&gt;Node21 -->
<g id="edge35" class="edge">
<title>Node18&#45;&gt;Node21</title>
<path fill="none" stroke="midnightblue" d="M1041.57,-287.74C1024.85,-280.23 1008.91,-269.45 999,-254 966.55,-203.4 1036.92,-137.54 1065.05,-114.18"/>
<polygon fill="midnightblue" stroke="midnightblue" points="1040.32,-291.01 1050.9,-291.58 1042.99,-284.54 1040.32,-291.01"/>
</g>
<!-- Node22 -->
<g id="node22" class="node">
<title>Node22</title>
<g id="a_node22"><a xlink:href="tp__types_8h.html" target="_top" xlink:title=" ">
<polygon fill="white" stroke="black" points="1094,-156.5 1094,-186.5 1210,-186.5 1210,-156.5 1094,-156.5"/>
<text text-anchor="start" x="1102" y="-174.5" font-family="Helvetica,sans-Serif" font-size="10.00">/usr/include/linuxcnc</text>
<text text-anchor="middle" x="1152" y="-163.5" font-family="Helvetica,sans-Serif" font-size="10.00">/tp_types.h</text>
</a>
</g>
</g>
<!-- Node18&#45;&gt;Node22 -->
<g id="edge36" class="edge">
<title>Node18&#45;&gt;Node22</title>
<path fill="none" stroke="midnightblue" d="M1121.41,-281.1C1125.5,-272.72 1129.82,-263.09 1133,-254 1141.06,-230.96 1146.72,-203.06 1149.66,-186.6"/>
<polygon fill="midnightblue" stroke="midnightblue" points="1118.16,-279.76 1116.78,-290.26 1124.41,-282.91 1118.16,-279.76"/>
</g>
<!-- Node20&#45;&gt;Node21 -->
<g id="edge30" class="edge">
<title>Node20&#45;&gt;Node21</title>
<path fill="none" stroke="midnightblue" d="M1067.83,-213.32C1070.1,-183.38 1073.85,-133.91 1075.35,-114.1"/>
<polygon fill="midnightblue" stroke="midnightblue" points="1064.34,-213.14 1067.07,-223.37 1071.32,-213.67 1064.34,-213.14"/>
</g>
<!-- Node20&#45;&gt;Node22 -->
<g id="edge31" class="edge">
<title>Node20&#45;&gt;Node22</title>
<path fill="none" stroke="midnightblue" d="M1092.9,-217.17C1106.05,-207.23 1121.55,-195.51 1133.38,-186.58"/>
<polygon fill="midnightblue" stroke="midnightblue" points="1090.53,-214.57 1084.66,-223.4 1094.75,-220.16 1090.53,-214.57"/>
</g>
<!-- Node22&#45;&gt;Node14 -->
<g id="edge32" class="edge">
<title>Node22&#45;&gt;Node14</title>
<path fill="none" stroke="midnightblue" d="M1094.47,-153.58C1058.58,-143.02 1012.91,-129.59 978.98,-119.61"/>
<polygon fill="midnightblue" stroke="midnightblue" points="1093.74,-157.01 1104.32,-156.48 1095.71,-150.3 1093.74,-157.01"/>
</g>
<!-- Node22&#45;&gt;Node17 -->
<g id="edge33" class="edge">
<title>Node22&#45;&gt;Node17</title>
<path fill="none" stroke="midnightblue" d="M1198.88,-152.78C1232.23,-140.18 1275.55,-123.81 1301.49,-114.01"/>
<polygon fill="midnightblue" stroke="midnightblue" points="1197.44,-149.59 1189.32,-156.4 1199.91,-156.13 1197.44,-149.59"/>
</g>
<!-- Node22&#45;&gt;Node21 -->
<g id="edge34" class="edge">
<title>Node22&#45;&gt;Node21</title>
<path fill="none" stroke="midnightblue" d="M1127.65,-149.67C1113.61,-137.67 1096.72,-123.22 1086.17,-114.19"/>
<polygon fill="midnightblue" stroke="midnightblue" points="1125.63,-152.56 1135.51,-156.4 1130.18,-147.24 1125.63,-152.56"/>
</g>
</g>
</svg>
        <g id="navigator" transform="translate(0 0)" fill="#404254">
                <rect fill="#f2f5e9" fill-opacity="0.5" stroke="#606060" stroke-width=".5" x="0" y="0" width="60" height="60"/>
                <use id="zoomplus" xlink:href="#zoomPlus" x="17" y="9" onmousedown="handleZoom(evt,'in')"/>
                <use id="zoomminus" xlink:href="#zoomMin" x="42" y="9" onmousedown="handleZoom(evt,'out')"/>
                <use id="reset" xlink:href="#resetDef" x="30" y="36" onmousedown="handleReset()"/>
                <g id="arrowUp" xlink:href="#dirArrow" transform="translate(30 24)" onmousedown="handlePan(0,-1)">
                  <use xlink:href="#rim" fill="#404040">
                        <set attributeName="fill" to="#808080" begin="arrowUp.mouseover" end="arrowUp.mouseout"/>
                  </use>
                  <path fill="none" stroke="white" stroke-width="1.5" d="M0,-3.0v7 M-2.5,-0.5L0,-3.0L2.5,-0.5"/>
                </g>
                <g id="arrowRight" xlink:href="#dirArrow" transform="rotate(90) translate(36 -43)" onmousedown="handlePan(1,0)">
                  <use xlink:href="#rim" fill="#404040">
                        <set attributeName="fill" to="#808080" begin="arrowRight.mouseover" end="arrowRight.mouseout"/>
                  </use>
                  <path fill="none" stroke="white" stroke-width="1.5" d="M0,-3.0v7 M-2.5,-0.5L0,-3.0L2.5,-0.5"/>
                </g>
                <g id="arrowDown" xlink:href="#dirArrow" transform="rotate(180) translate(-30 -48)" onmousedown="handlePan(0,1)">
                  <use xlink:href="#rim" fill="#404040">
                        <set attributeName="fill" to="#808080" begin="arrowDown.mouseover" end="arrowDown.mouseout"/>
                  </use>
                  <path fill="none" stroke="white" stroke-width="1.5" d="M0,-3.0v7 M-2.5,-0.5L0,-3.0L2.5,-0.5"/>
                </g>
                <g id="arrowLeft" xlink:href="#dirArrow" transform="rotate(270) translate(-36 17)" onmousedown="handlePan(-1,0)">
                  <use xlink:href="#rim" fill="#404040">
                        <set attributeName="fill" to="#808080" begin="arrowLeft.mouseover" end="arrowLeft.mouseout"/>
                  </use>
                  <path fill="none" stroke="white" stroke-width="1.5" d="M0,-3.0v7 M-2.5,-0.5L0,-3.0L2.5,-0.5"/>
                </g>
        </g>
        <svg viewBox="0 0 15 15" width="100%" height="30px" preserveAspectRatio="xMaxYMin meet">
         <g id="arrow_out" transform="scale(0.3 0.3)">
          <a xlink:href="emcpos_8h__dep__incl_org.svg" target="_base">
           <rect id="button" ry="5" rx="5" y="6" x="6" height="38" width="38"
                fill="#f2f5e9" fill-opacity="0.5" stroke="#606060" stroke-width="1.0"/>
           <path id="arrow"
             d="M 11.500037,31.436501 C 11.940474,20.09759 22.043105,11.32322 32.158766,21.979434 L 37.068811,17.246167 C 37.068811,17.246167 37.088388,32 37.088388,32 L 22.160133,31.978069 C 22.160133,31.978069 26.997745,27.140456 26.997745,27.140456 C 18.528582,18.264221 13.291696,25.230495 11.500037,31.436501 z"
             style="fill:#404040;"/>
          </a>
         </g>
        </svg>
</svg>
