<?xml version="1.0" encoding="UTF-8" standalone="no"?>
<!DOCTYPE svg PUBLIC "-//W3C//DTD SVG 1.1//EN"
 "http://www.w3.org/Graphics/SVG/1.1/DTD/svg11.dtd">
<!-- Generated by graphviz version 2.43.0 (0)
 -->
<!-- Title: CreateRequestAsync Pages: 1 -->
<!--zoomable 736 -->
<svg id="main" version="1.1" xmlns="http://www.w3.org/2000/svg" xmlns:xlink="http://www.w3.org/1999/xlink" xml:space="preserve" onload="init(evt)">
<style type="text/css"><![CDATA[
.edge:hover path { stroke: red; }
.edge:hover polygon { stroke: red; fill: red; }
]]></style>
<script type="text/javascript"><![CDATA[
var edges = document.getElementsByTagName('g');
if (edges && edges.length) {
  for (var i=0;i<edges.length;i++) {
    if (edges[i].id.substr(0,4)=='edge') {
      edges[i].setAttribute('class','edge');
    }
  }
}
]]></script>
        <defs>
                <circle id="rim" cx="0" cy="0" r="7"/>
                <circle id="rim2" cx="0" cy="0" r="3.5"/>
                <g id="zoomPlus">
                        <use xlink:href="#rim" fill="#404040">
                                <set attributeName="fill" to="#808080" begin="zoomplus.mouseover" end="zoomplus.mouseout"/>
                        </use>
                        <path d="M-4,0h8M0,-4v8" fill="none" stroke="white" stroke-width="1.5" pointer-events="none"/>
                </g>
                <g id="zoomMin">
                        <use xlink:href="#rim" fill="#404040">
                                <set attributeName="fill" to="#808080" begin="zoomminus.mouseover" end="zoomminus.mouseout"/>
                        </use>
                        <path d="M-4,0h8" fill="none" stroke="white" stroke-width="1.5" pointer-events="none"/>
                </g>
                <g id="dirArrow">
                        <path fill="none" stroke="white" stroke-width="1.5" d="M0,-3.0v7 M-2.5,-0.5L0,-3.0L2.5,-0.5"/>
                </g>
               <g id="resetDef">
                       <use xlink:href="#rim2" fill="#404040">
                               <set attributeName="fill" to="#808080" begin="reset.mouseover" end="reset.mouseout"/>
                       </use>
               </g>
        </defs>

<script type="text/javascript">
var viewWidth = 535;
var viewHeight = 736;
var sectionId = 'dynsection-2';
</script>
<script xlink:href="svgpan.js"/>
<svg id="graph" class="graph">
<g id="viewport">
<title>CreateRequestAsync</title>
<polygon fill="white" stroke="transparent" points="-4,4 -4,-731.5 531,-731.5 531,4 -4,4"/>
<!-- Node1 -->
<g id="node1" class="node">
<title>Node1</title>
<g id="a_node1"><a xlink:title="Prepares an asynchronous request (non&#45;sending).">
<polygon fill="#bfbfbf" stroke="black" points="409,-354 409,-373 527,-373 527,-354 409,-354"/>
<text text-anchor="middle" x="468" y="-361" font-family="Helvetica,sans-Serif" font-size="10.00">CreateRequestAsync</text>
</a>
</g>
</g>
<!-- Node2 -->
<g id="node2" class="node">
<title>Node2</title>
<g id="a_node2"><a xlink:href="PoKeysLibIOAsync_8c.html#aecad147343298f84dade6a69adfa8987" target="_top" xlink:title="Starts async request for analog inputs (CMD 0x3A, param1=1).">
<polygon fill="white" stroke="black" points="225,-708 225,-727 350,-727 350,-708 225,-708"/>
<text text-anchor="middle" x="287.5" y="-715" font-family="Helvetica,sans-Serif" font-size="10.00">PK_AnalogIOGetAsync</text>
</a>
</g>
</g>
<!-- Node1&#45;&gt;Node2 -->
<g id="edge1" class="edge">
<title>Node1&#45;&gt;Node2</title>
<path fill="none" stroke="midnightblue" d="M464.11,-383.44C454.27,-448.63 420.02,-653.88 373,-698.5 366.56,-704.61 358.61,-708.91 350.17,-711.91"/>
<polygon fill="midnightblue" stroke="midnightblue" points="467.61,-383.68 465.62,-373.27 460.69,-382.65 467.61,-383.68"/>
</g>
<!-- Node3 -->
<g id="node3" class="node">
<title>Node3</title>
<g id="a_node3"><a xlink:href="PoKeysLibIOAsync_8c.html#ab930c7f71999b485e25d875e41f17595" target="_top" xlink:title="Starts async request for RC analog filter value (CMD 0x38).">
<polygon fill="white" stroke="black" points="211,-670 211,-689 364,-689 364,-670 211,-670"/>
<text text-anchor="middle" x="287.5" y="-677" font-family="Helvetica,sans-Serif" font-size="10.00">PK_AnalogRCFilterGetAsync</text>
</a>
</g>
</g>
<!-- Node1&#45;&gt;Node3 -->
<g id="edge2" class="edge">
<title>Node1&#45;&gt;Node3</title>
<path fill="none" stroke="midnightblue" d="M467.06,-383.43C466.06,-436.92 455.58,-584.68 373,-660.5 368.9,-664.26 364.22,-667.33 359.22,-669.84"/>
<polygon fill="midnightblue" stroke="midnightblue" points="470.56,-383.28 467.15,-373.25 463.56,-383.21 470.56,-383.28"/>
</g>
<!-- Node4 -->
<g id="node4" class="node">
<title>Node4</title>
<g id="a_node4"><a xlink:href="PoKeysLibIOAsync_8c.html#a7eec947d6d5fcee98270ac1dce3cf5e4" target="_top" xlink:title="Starts async command to set RC analog filter (CMD 0x39).">
<polygon fill="white" stroke="black" points="211.5,-632 211.5,-651 363.5,-651 363.5,-632 211.5,-632"/>
<text text-anchor="middle" x="287.5" y="-639" font-family="Helvetica,sans-Serif" font-size="10.00">PK_AnalogRCFilterSetAsync</text>
</a>
</g>
</g>
<!-- Node1&#45;&gt;Node4 -->
<g id="edge3" class="edge">
<title>Node1&#45;&gt;Node4</title>
<path fill="none" stroke="midnightblue" d="M466.01,-383.14C462.47,-431.67 446.29,-557.97 373,-622.5 368.71,-626.28 363.83,-629.35 358.64,-631.85"/>
<polygon fill="midnightblue" stroke="midnightblue" points="469.51,-383.24 466.65,-373.04 462.53,-382.8 469.51,-383.24"/>
</g>
<!-- Node5 -->
<g id="node5" class="node">
<title>Node5</title>
<g id="a_node5"><a xlink:href="PoKeysLibIOAsync_8c.html#a7ff8b0c54a340ff85d51f3e1d4c09155" target="_top" xlink:title="Starts async request to clear digital counters (CMD 0x1D).">
<polygon fill="white" stroke="black" points="207.5,-594 207.5,-613 367.5,-613 367.5,-594 207.5,-594"/>
<text text-anchor="middle" x="287.5" y="-601" font-family="Helvetica,sans-Serif" font-size="10.00">PK_DigitalCounterClearAsync</text>
</a>
</g>
</g>
<!-- Node1&#45;&gt;Node5 -->
<g id="edge4" class="edge">
<title>Node1&#45;&gt;Node5</title>
<path fill="none" stroke="midnightblue" d="M464.59,-383.46C458.22,-427.09 436.8,-531.32 373,-584.5 368.38,-588.35 363.14,-591.46 357.59,-593.97"/>
<polygon fill="midnightblue" stroke="midnightblue" points="468.1,-383.67 465.96,-373.29 461.16,-382.74 468.1,-383.67"/>
</g>
<!-- Node6 -->
<g id="node6" class="node">
<title>Node6</title>
<g id="a_node6"><a xlink:href="PoKeysLibIOAsync_8c.html#af661ae8f666cf02c3d161938bd482064" target="_top" xlink:title="Starts async request to get digital counter values (CMD 0xD8).">
<polygon fill="white" stroke="black" points="211.5,-556 211.5,-575 363.5,-575 363.5,-556 211.5,-556"/>
<text text-anchor="middle" x="287.5" y="-563" font-family="Helvetica,sans-Serif" font-size="10.00">PK_DigitalCounterGetAsync</text>
</a>
</g>
</g>
<!-- Node1&#45;&gt;Node6 -->
<g id="edge5" class="edge">
<title>Node1&#45;&gt;Node6</title>
<path fill="none" stroke="midnightblue" d="M462.75,-383.12C453.49,-420.98 427.75,-504.12 373,-546.5 368.01,-550.37 362.38,-553.47 356.45,-555.97"/>
<polygon fill="midnightblue" stroke="midnightblue" points="466.18,-383.85 465.03,-373.31 459.36,-382.26 466.18,-383.85"/>
</g>
<!-- Node7 -->
<g id="node7" class="node">
<title>Node7</title>
<g id="a_node7"><a xlink:href="PoKeysLibIOAsync_8c.html#a679431a5f36a3addc438529fa503582b" target="_top" xlink:title="Asynchronously requests digital IO input values.">
<polygon fill="white" stroke="black" points="225.5,-518 225.5,-537 349.5,-537 349.5,-518 225.5,-518"/>
<text text-anchor="middle" x="287.5" y="-525" font-family="Helvetica,sans-Serif" font-size="10.00">PK_DigitalIOGetAsync</text>
</a>
</g>
</g>
<!-- Node1&#45;&gt;Node7 -->
<g id="edge6" class="edge">
<title>Node1&#45;&gt;Node7</title>
<path fill="none" stroke="midnightblue" d="M460.2,-382.5C447.93,-413.93 419,-476.46 373,-508.5 365.97,-513.4 357.88,-517.06 349.55,-519.79"/>
<polygon fill="midnightblue" stroke="midnightblue" points="463.49,-383.71 463.73,-373.12 456.93,-381.25 463.49,-383.71"/>
</g>
<!-- Node8 -->
<g id="node8" class="node">
<title>Node8</title>
<g id="a_node8"><a xlink:href="experimental_2build_2PoKeysLibIOAsync_8c.html#aeb6b4b588ae6fc701a3a9345622253e7" target="_top" xlink:title="Asynchronously sets the digital IO values.">
<polygon fill="white" stroke="black" points="226.5,-480 226.5,-499 348.5,-499 348.5,-480 226.5,-480"/>
<text text-anchor="middle" x="287.5" y="-487" font-family="Helvetica,sans-Serif" font-size="10.00">PK_DigitalIOSetAsync</text>
</a>
</g>
</g>
<!-- Node1&#45;&gt;Node8 -->
<g id="edge7" class="edge">
<title>Node1&#45;&gt;Node8</title>
<path fill="none" stroke="midnightblue" d="M456.08,-381.94C440.71,-406.2 410.36,-448.33 373,-470.5 365.63,-474.87 357.35,-478.24 348.94,-480.84"/>
<polygon fill="midnightblue" stroke="midnightblue" points="459.13,-383.67 461.39,-373.32 453.17,-380 459.13,-383.67"/>
</g>
<!-- Node9 -->
<g id="node9" class="node">
<title>Node9</title>
<g id="a_node9"><a xlink:href="PoKeysLibIOAsync_8c.html#a40cac366287e423e8adc9efe8e5b81fc" target="_top" xlink:title="Combined Set and Get digital IO in one async call.">
<polygon fill="white" stroke="black" points="217.5,-442 217.5,-461 357.5,-461 357.5,-442 217.5,-442"/>
<text text-anchor="middle" x="287.5" y="-449" font-family="Helvetica,sans-Serif" font-size="10.00">PK_DigitalIOSetGetAsync</text>
</a>
</g>
</g>
<!-- Node1&#45;&gt;Node9 -->
<g id="edge8" class="edge">
<title>Node1&#45;&gt;Node9</title>
<path fill="none" stroke="midnightblue" d="M449.06,-380.23C431.14,-396.03 402.13,-419.24 373,-432.5 364.52,-436.36 355.18,-439.47 345.91,-441.96"/>
<polygon fill="midnightblue" stroke="midnightblue" points="451.84,-382.44 456.92,-373.14 447.15,-377.24 451.84,-382.44"/>
</g>
<!-- Node10 -->
<g id="node10" class="node">
<title>Node10</title>
<g id="a_node10"><a xlink:href="experimental_2build_2PoKeysLibEncodersAsync_8c.html#a6c07854c553edbdb000719bc0e4d0ad5" target="_top" xlink:title="Starts the asynchronous encoder configuration retrieval.">
<polygon fill="white" stroke="black" points="209.5,-392.5 209.5,-422.5 365.5,-422.5 365.5,-392.5 209.5,-392.5"/>
<text text-anchor="start" x="217.5" y="-410.5" font-family="Helvetica,sans-Serif" font-size="10.00">PK_EncoderConfigurationGet</text>
<text text-anchor="middle" x="287.5" y="-399.5" font-family="Helvetica,sans-Serif" font-size="10.00">Async</text>
</a>
</g>
</g>
<!-- Node1&#45;&gt;Node10 -->
<g id="edge9" class="edge">
<title>Node1&#45;&gt;Node10</title>
<path fill="none" stroke="midnightblue" d="M418.5,-375.46C397.27,-380.69 372.11,-386.89 349.62,-392.43"/>
<polygon fill="midnightblue" stroke="midnightblue" points="419.4,-378.84 428.27,-373.05 417.72,-372.04 419.4,-378.84"/>
</g>
<!-- Node11 -->
<g id="node11" class="node">
<title>Node11</title>
<g id="a_node11"><a xlink:href="experimental_2build_2PoKeysLibEncodersAsync_8c.html#a6da05adf9f93cba660f7ecb85f8a92d2" target="_top" xlink:title="Starts asynchronous encoder values retrieval.">
<polygon fill="white" stroke="black" points="211.5,-354 211.5,-373 363.5,-373 363.5,-354 211.5,-354"/>
<text text-anchor="middle" x="287.5" y="-361" font-family="Helvetica,sans-Serif" font-size="10.00">PK_EncoderValuesGetAsync</text>
</a>
</g>
</g>
<!-- Node1&#45;&gt;Node11 -->
<g id="edge10" class="edge">
<title>Node1&#45;&gt;Node11</title>
<path fill="none" stroke="midnightblue" d="M398.3,-363.5C386.96,-363.5 375.16,-363.5 363.67,-363.5"/>
<polygon fill="midnightblue" stroke="midnightblue" points="398.55,-367 408.55,-363.5 398.55,-360 398.55,-367"/>
</g>
<!-- Node12 -->
<g id="node12" class="node">
<title>Node12</title>
<g id="a_node12"><a xlink:href="experimental_2build_2PoKeysLibIOAsync_8c.html#ada173b70174c44c42d5ae835358d0d95" target="_top" xlink:title=" ">
<polygon fill="white" stroke="black" points="207,-316 207,-335 368,-335 368,-316 207,-316"/>
<text text-anchor="middle" x="287.5" y="-323" font-family="Helvetica,sans-Serif" font-size="10.00">PK_PinConfigurationGetAsync</text>
</a>
</g>
</g>
<!-- Node1&#45;&gt;Node12 -->
<g id="edge11" class="edge">
<title>Node1&#45;&gt;Node12</title>
<path fill="none" stroke="midnightblue" d="M412.13,-351.82C386.82,-346.43 357.15,-340.11 333.22,-335.02"/>
<polygon fill="midnightblue" stroke="midnightblue" points="411.45,-355.25 421.96,-353.91 412.9,-348.41 411.45,-355.25"/>
</g>
<!-- Node13 -->
<g id="node13" class="node">
<title>Node13</title>
<g id="a_node13"><a xlink:href="experimental_2build_2PoKeysLibIOAsync_8c.html#a5773f08dff2523a9ea9ffcf88d37047b" target="_top" xlink:title="Sets all pin configuration fields asynchronously.">
<polygon fill="white" stroke="black" points="207.5,-278 207.5,-297 367.5,-297 367.5,-278 207.5,-278"/>
<text text-anchor="middle" x="287.5" y="-285" font-family="Helvetica,sans-Serif" font-size="10.00">PK_PinConfigurationSetAsync</text>
</a>
</g>
</g>
<!-- Node1&#45;&gt;Node13 -->
<g id="edge12" class="edge">
<title>Node1&#45;&gt;Node13</title>
<path fill="none" stroke="midnightblue" d="M446.11,-348.1C427.72,-335.23 399.77,-317.29 373,-306.5 363.52,-302.68 353.11,-299.55 342.94,-297.01"/>
<polygon fill="midnightblue" stroke="midnightblue" points="444.15,-351 454.33,-353.96 448.22,-345.3 444.15,-351"/>
</g>
<!-- Node14 -->
<g id="node14" class="node">
<title>Node14</title>
<g id="a_node14"><a xlink:href="PoKeysLibIOAsync_8c.html#a0a6ceb1aa0613a1e3bb0d2bdabb20c4f" target="_top" xlink:title="Starts async request to get PoExtBus data (CMD 0xDA, param1=2).">
<polygon fill="white" stroke="black" points="224,-240 224,-259 351,-259 351,-240 224,-240"/>
<text text-anchor="middle" x="287.5" y="-247" font-family="Helvetica,sans-Serif" font-size="10.00">PK_PoExtBusGetAsync</text>
</a>
</g>
</g>
<!-- Node1&#45;&gt;Node14 -->
<g id="edge13" class="edge">
<title>Node1&#45;&gt;Node14</title>
<path fill="none" stroke="midnightblue" d="M454.41,-345.58C438.16,-323.87 407.81,-287.78 373,-268.5 366.03,-264.64 358.32,-261.56 350.48,-259.11"/>
<polygon fill="midnightblue" stroke="midnightblue" points="451.77,-347.9 460.49,-353.92 457.43,-343.78 451.77,-347.9"/>
</g>
<!-- Node15 -->
<g id="node15" class="node">
<title>Node15</title>
<g id="a_node15"><a xlink:href="PoKeysLibIOAsync_8c.html#a05ced4309098aae67f170ac47d4aaddb" target="_top" xlink:title="Starts async request to set PoExtBus data (CMD 0xDA).">
<polygon fill="white" stroke="black" points="225,-202 225,-221 350,-221 350,-202 225,-202"/>
<text text-anchor="middle" x="287.5" y="-209" font-family="Helvetica,sans-Serif" font-size="10.00">PK_PoExtBusSetAsync</text>
</a>
</g>
</g>
<!-- Node1&#45;&gt;Node15 -->
<g id="edge14" class="edge">
<title>Node1&#45;&gt;Node15</title>
<path fill="none" stroke="midnightblue" d="M459.03,-344.45C445.73,-315.13 416.15,-259.29 373,-230.5 366.12,-225.91 358.3,-222.42 350.25,-219.76"/>
<polygon fill="midnightblue" stroke="midnightblue" points="455.97,-346.2 463.19,-353.96 462.39,-343.4 455.97,-346.2"/>
</g>
<!-- Node16 -->
<g id="node16" class="node">
<title>Node16</title>
<g id="a_node16"><a xlink:href="PoKeysLibIOAsync_8c.html#ad16f337dd4875c516988e4276b5443bb" target="_top" xlink:title="Starts async request to get PWM configuration (CMD 0xCB, param1=0)">
<polygon fill="white" stroke="black" points="202,-164 202,-183 373,-183 373,-164 202,-164"/>
<text text-anchor="middle" x="287.5" y="-171" font-family="Helvetica,sans-Serif" font-size="10.00">PK_PWMConfigurationGetAsync</text>
</a>
</g>
</g>
<!-- Node1&#45;&gt;Node16 -->
<g id="edge15" class="edge">
<title>Node1&#45;&gt;Node16</title>
<path fill="none" stroke="midnightblue" d="M462.08,-344.18C451.9,-308.33 425.02,-231.61 373,-192.5 367.83,-188.61 362.02,-185.5 355.92,-183"/>
<polygon fill="midnightblue" stroke="midnightblue" points="458.72,-345.17 464.71,-353.91 465.48,-343.34 458.72,-345.17"/>
</g>
<!-- Node17 -->
<g id="node17" class="node">
<title>Node17</title>
<g id="a_node17"><a xlink:href="PoKeysLibIOAsync_8c.html#a3cca862944a5c7bc849878bc5e2fbba1" target="_top" xlink:title="Starts async command to configure PWM duty cycle and period (CMD 0xCB).">
<polygon fill="white" stroke="black" points="202.5,-126 202.5,-145 372.5,-145 372.5,-126 202.5,-126"/>
<text text-anchor="middle" x="287.5" y="-133" font-family="Helvetica,sans-Serif" font-size="10.00">PK_PWMConfigurationSetAsync</text>
</a>
</g>
</g>
<!-- Node1&#45;&gt;Node17 -->
<g id="edge16" class="edge">
<title>Node1&#45;&gt;Node17</title>
<path fill="none" stroke="midnightblue" d="M464.09,-343.76C456.85,-301.96 433.98,-204.28 373,-154.5 368.34,-150.7 363.07,-147.62 357.51,-145.13"/>
<polygon fill="midnightblue" stroke="midnightblue" points="460.66,-344.45 465.71,-353.77 467.57,-343.34 460.66,-344.45"/>
</g>
<!-- Node18 -->
<g id="node18" class="node">
<title>Node18</title>
<g id="a_node18"><a xlink:href="PoKeysLibIOAsync_8c.html#a994703c751d423c56e7d6eae8a3bdba4" target="_top" xlink:title="Starts async command to update PWM values only (CMD 0xCB, param1=1, param2=1).">
<polygon fill="white" stroke="black" points="225.5,-88 225.5,-107 349.5,-107 349.5,-88 225.5,-88"/>
<text text-anchor="middle" x="287.5" y="-95" font-family="Helvetica,sans-Serif" font-size="10.00">PK_PWMUpdateAsync</text>
</a>
</g>
</g>
<!-- Node1&#45;&gt;Node18 -->
<g id="edge17" class="edge">
<title>Node1&#45;&gt;Node18</title>
<path fill="none" stroke="midnightblue" d="M465.62,-343.81C461.21,-296.82 443.31,-177.44 373,-116.5 366.3,-110.69 358.19,-106.55 349.69,-103.61"/>
<polygon fill="midnightblue" stroke="midnightblue" points="462.14,-344.22 466.45,-353.89 469.11,-343.64 462.14,-344.22"/>
</g>
<!-- Node19 -->
<g id="node19" class="node">
<title>Node19</title>
<g id="a_node19"><a xlink:href="PoKeysLibRTCAsync_8c.html#a9161c735be7333de615ac373afd0bf58" target="_top" xlink:title="Starts an asynchronous RTC read from the device.">
<polygon fill="white" stroke="black" points="238,-50 238,-69 337,-69 337,-50 238,-50"/>
<text text-anchor="middle" x="287.5" y="-57" font-family="Helvetica,sans-Serif" font-size="10.00">PK_RTCGetAsync</text>
</a>
</g>
</g>
<!-- Node1&#45;&gt;Node19 -->
<g id="edge18" class="edge">
<title>Node1&#45;&gt;Node19</title>
<path fill="none" stroke="midnightblue" d="M466.75,-343.68C464.97,-291.74 452.65,-150.74 373,-78.5 363.2,-69.61 350.15,-64.59 337.25,-61.82"/>
<polygon fill="midnightblue" stroke="midnightblue" points="463.26,-343.95 467,-353.87 470.25,-343.78 463.26,-343.95"/>
</g>
<!-- Node23 -->
<g id="node23" class="node">
<title>Node23</title>
<g id="a_node23"><a xlink:href="experimental_2build_2PoKeysLibIOAsync_8c.html#a00c7951fbf0a11c16f264d07c73a64aa" target="_top" xlink:title="Starts async pin function configuration request (CMD 0xC0, param1=0).">
<polygon fill="white" stroke="black" points="208,-0.5 208,-30.5 367,-30.5 367,-0.5 208,-0.5"/>
<text text-anchor="start" x="216" y="-18.5" font-family="Helvetica,sans-Serif" font-size="10.00">PK_StartPinFunctionsRequest</text>
<text text-anchor="middle" x="287.5" y="-7.5" font-family="Helvetica,sans-Serif" font-size="10.00">Async</text>
</a>
</g>
</g>
<!-- Node1&#45;&gt;Node23 -->
<g id="edge22" class="edge">
<title>Node1&#45;&gt;Node23</title>
<path fill="none" stroke="midnightblue" d="M467.37,-343.68C467.28,-287.74 459.17,-127.05 373,-40.5 369.11,-36.6 364.65,-33.3 359.85,-30.51"/>
<polygon fill="midnightblue" stroke="midnightblue" points="463.86,-343.94 467.29,-353.97 470.86,-343.99 463.86,-343.94"/>
</g>
<!-- Node20 -->
<g id="node20" class="node">
<title>Node20</title>
<g id="a_node20"><a xlink:href="pokeys__async2_8c.html#a7d3a170e382b1912bd81bedce1e0e628" target="_top" xlink:title=" ">
<polygon fill="white" stroke="black" points="87.5,-69 87.5,-88 155.5,-88 155.5,-69 87.5,-69"/>
<text text-anchor="middle" x="121.5" y="-76" font-family="Helvetica,sans-Serif" font-size="10.00">FUNCTION</text>
</a>
</g>
</g>
<!-- Node19&#45;&gt;Node20 -->
<g id="edge19" class="edge">
<title>Node19&#45;&gt;Node20</title>
<path fill="none" stroke="midnightblue" d="M227.55,-66.33C203.31,-69.14 176.14,-72.29 155.5,-74.68"/>
<polygon fill="midnightblue" stroke="midnightblue" points="228.21,-69.78 237.74,-65.15 227.4,-62.82 228.21,-69.78"/>
</g>
<!-- Node21 -->
<g id="node21" class="node">
<title>Node21</title>
<g id="a_node21"><a xlink:href="pokeys__async2_8c.html#aaf7e510ec6df908bbd750707b3105706" target="_top" xlink:title=" ">
<polygon fill="white" stroke="black" points="77,-31 77,-50 166,-50 166,-31 77,-31"/>
<text text-anchor="middle" x="121.5" y="-38" font-family="Helvetica,sans-Serif" font-size="10.00">user_mainloop</text>
</a>
</g>
</g>
<!-- Node19&#45;&gt;Node21 -->
<g id="edge20" class="edge">
<title>Node19&#45;&gt;Node21</title>
<path fill="none" stroke="midnightblue" d="M227.64,-52.68C207.32,-50.33 184.93,-47.73 166.05,-45.55"/>
<polygon fill="midnightblue" stroke="midnightblue" points="227.4,-56.18 237.74,-53.85 228.21,-49.22 227.4,-56.18"/>
</g>
<!-- Node22 -->
<g id="node22" class="node">
<title>Node22</title>
<g id="a_node22"><a xlink:href="build_2pokeys__async_8c.html#a73df23ab851a91f06e21d676e56bcacd" target="_top" xlink:title=" ">
<polygon fill="white" stroke="black" points="0,-31 0,-50 41,-50 41,-31 0,-31"/>
<text text-anchor="middle" x="20.5" y="-38" font-family="Helvetica,sans-Serif" font-size="10.00">main</text>
</a>
</g>
</g>
<!-- Node21&#45;&gt;Node22 -->
<g id="edge21" class="edge">
<title>Node21&#45;&gt;Node22</title>
<path fill="none" stroke="midnightblue" d="M66.55,-40.5C57.49,-40.5 48.64,-40.5 41.21,-40.5"/>
<polygon fill="midnightblue" stroke="midnightblue" points="66.79,-44 76.79,-40.5 66.79,-37 66.79,-44"/>
</g>
</g>
</svg>
        <g id="navigator" transform="translate(0 0)" fill="#404254">
                <rect fill="#f2f5e9" fill-opacity="0.5" stroke="#606060" stroke-width=".5" x="0" y="0" width="60" height="60"/>
                <use id="zoomplus" xlink:href="#zoomPlus" x="17" y="9" onmousedown="handleZoom(evt,'in')"/>
                <use id="zoomminus" xlink:href="#zoomMin" x="42" y="9" onmousedown="handleZoom(evt,'out')"/>
                <use id="reset" xlink:href="#resetDef" x="30" y="36" onmousedown="handleReset()"/>
                <g id="arrowUp" xlink:href="#dirArrow" transform="translate(30 24)" onmousedown="handlePan(0,-1)">
                  <use xlink:href="#rim" fill="#404040">
                        <set attributeName="fill" to="#808080" begin="arrowUp.mouseover" end="arrowUp.mouseout"/>
                  </use>
                  <path fill="none" stroke="white" stroke-width="1.5" d="M0,-3.0v7 M-2.5,-0.5L0,-3.0L2.5,-0.5"/>
                </g>
                <g id="arrowRight" xlink:href="#dirArrow" transform="rotate(90) translate(36 -43)" onmousedown="handlePan(1,0)">
                  <use xlink:href="#rim" fill="#404040">
                        <set attributeName="fill" to="#808080" begin="arrowRight.mouseover" end="arrowRight.mouseout"/>
                  </use>
                  <path fill="none" stroke="white" stroke-width="1.5" d="M0,-3.0v7 M-2.5,-0.5L0,-3.0L2.5,-0.5"/>
                </g>
                <g id="arrowDown" xlink:href="#dirArrow" transform="rotate(180) translate(-30 -48)" onmousedown="handlePan(0,1)">
                  <use xlink:href="#rim" fill="#404040">
                        <set attributeName="fill" to="#808080" begin="arrowDown.mouseover" end="arrowDown.mouseout"/>
                  </use>
                  <path fill="none" stroke="white" stroke-width="1.5" d="M0,-3.0v7 M-2.5,-0.5L0,-3.0L2.5,-0.5"/>
                </g>
                <g id="arrowLeft" xlink:href="#dirArrow" transform="rotate(270) translate(-36 17)" onmousedown="handlePan(-1,0)">
                  <use xlink:href="#rim" fill="#404040">
                        <set attributeName="fill" to="#808080" begin="arrowLeft.mouseover" end="arrowLeft.mouseout"/>
                  </use>
                  <path fill="none" stroke="white" stroke-width="1.5" d="M0,-3.0v7 M-2.5,-0.5L0,-3.0L2.5,-0.5"/>
                </g>
        </g>
        <svg viewBox="0 0 15 15" width="100%" height="30px" preserveAspectRatio="xMaxYMin meet">
         <g id="arrow_out" transform="scale(0.3 0.3)">
          <a xlink:href="experimental_2build_2PoKeysLibAsync_8c_a8ed8b17dbfd4e5cfba35c6b1e2ea6956_icgraph_org.svg" target="_base">
           <rect id="button" ry="5" rx="5" y="6" x="6" height="38" width="38"
                fill="#f2f5e9" fill-opacity="0.5" stroke="#606060" stroke-width="1.0"/>
           <path id="arrow"
             d="M 11.500037,31.436501 C 11.940474,20.09759 22.043105,11.32322 32.158766,21.979434 L 37.068811,17.246167 C 37.068811,17.246167 37.088388,32 37.088388,32 L 22.160133,31.978069 C 22.160133,31.978069 26.997745,27.140456 26.997745,27.140456 C 18.528582,18.264221 13.291696,25.230495 11.500037,31.436501 z"
             style="fill:#404040;"/>
          </a>
         </g>
        </svg>
</svg>
