<?xml version="1.0" encoding="UTF-8" standalone="no"?>
<!DOCTYPE svg PUBLIC "-//W3C//DTD SVG 1.1//EN"
 "http://www.w3.org/Graphics/SVG/1.1/DTD/svg11.dtd">
<!-- Generated by graphviz version 2.43.0 (0)
 -->
<!-- Title: get_current_time_us Pages: 1 -->
<!--zoomable 66 -->
<svg id="main" version="1.1" xmlns="http://www.w3.org/2000/svg" xmlns:xlink="http://www.w3.org/1999/xlink" xml:space="preserve" onload="init(evt)">
<style type="text/css"><![CDATA[
.edge:hover path { stroke: red; }
.edge:hover polygon { stroke: red; fill: red; }
]]></style>
<script type="text/javascript"><![CDATA[
var edges = document.getElementsByTagName('g');
if (edges && edges.length) {
  for (var i=0;i<edges.length;i++) {
    if (edges[i].id.substr(0,4)=='edge') {
      edges[i].setAttribute('class','edge');
    }
  }
}
]]></script>
        <defs>
                <circle id="rim" cx="0" cy="0" r="7"/>
                <circle id="rim2" cx="0" cy="0" r="3.5"/>
                <g id="zoomPlus">
                        <use xlink:href="#rim" fill="#404040">
                                <set attributeName="fill" to="#808080" begin="zoomplus.mouseover" end="zoomplus.mouseout"/>
                        </use>
                        <path d="M-4,0h8M0,-4v8" fill="none" stroke="white" stroke-width="1.5" pointer-events="none"/>
                </g>
                <g id="zoomMin">
                        <use xlink:href="#rim" fill="#404040">
                                <set attributeName="fill" to="#808080" begin="zoomminus.mouseover" end="zoomminus.mouseout"/>
                        </use>
                        <path d="M-4,0h8" fill="none" stroke="white" stroke-width="1.5" pointer-events="none"/>
                </g>
                <g id="dirArrow">
                        <path fill="none" stroke="white" stroke-width="1.5" d="M0,-3.0v7 M-2.5,-0.5L0,-3.0L2.5,-0.5"/>
                </g>
               <g id="resetDef">
                       <use xlink:href="#rim2" fill="#404040">
                               <set attributeName="fill" to="#808080" begin="reset.mouseover" end="reset.mouseout"/>
                       </use>
               </g>
        </defs>

<script type="text/javascript">
var viewWidth = 658;
var viewHeight = 66;
var sectionId = 'dynsection-6';
</script>
<script xlink:href="svgpan.js"/>
<svg id="graph" class="graph">
<g id="viewport">
<title>get_current_time_us</title>
<polygon fill="white" stroke="transparent" points="-4,4 -4,-62 654,-62 654,4 -4,4"/>
<!-- Node1 -->
<g id="node1" class="node">
<title>Node1</title>
<g id="a_node1"><a xlink:title=" ">
<polygon fill="#bfbfbf" stroke="black" points="534,-19.5 534,-38.5 650,-38.5 650,-19.5 534,-19.5"/>
<text text-anchor="middle" x="592" y="-26.5" font-family="Helvetica,sans-Serif" font-size="10.00">get_current_time_us</text>
</a>
</g>
</g>
<!-- Node2 -->
<g id="node2" class="node">
<title>Node2</title>
<g id="a_node2"><a xlink:href="experimental_2build_2PoKeysLibAsync_8c.html#aac592ef253302b3b4230421a769276a9" target="_top" xlink:title="Periodically checks for request timeouts and retries if necessary.">
<polygon fill="white" stroke="black" points="202,-38.5 202,-57.5 352,-57.5 352,-38.5 202,-38.5"/>
<text text-anchor="middle" x="277" y="-45.5" font-family="Helvetica,sans-Serif" font-size="10.00">PK_TimeoutAndRetryCheck</text>
</a>
</g>
</g>
<!-- Node1&#45;&gt;Node2 -->
<g id="edge1" class="edge">
<title>Node1&#45;&gt;Node2</title>
<path fill="none" stroke="midnightblue" d="M523.8,-33.08C473.3,-36.14 404.17,-40.34 352.08,-43.5"/>
<polygon fill="midnightblue" stroke="midnightblue" points="524.19,-36.56 533.95,-32.46 523.76,-29.58 524.19,-36.56"/>
</g>
<!-- Node6 -->
<g id="node6" class="node">
<title>Node6</title>
<g id="a_node6"><a xlink:href="experimental_2build_2PoKeysLibAsync_8c.html#a77fe6d8f453b9f120276324e0b2ad076" target="_top" xlink:title="Sends an asynchronous request that was prepared earlier.">
<polygon fill="white" stroke="black" points="388,-0.5 388,-19.5 498,-19.5 498,-0.5 388,-0.5"/>
<text text-anchor="middle" x="443" y="-7.5" font-family="Helvetica,sans-Serif" font-size="10.00">SendRequestAsync</text>
</a>
</g>
</g>
<!-- Node1&#45;&gt;Node6 -->
<g id="edge5" class="edge">
<title>Node1&#45;&gt;Node6</title>
<path fill="none" stroke="midnightblue" d="M523.57,-20.28C515.15,-19.2 506.63,-18.1 498.45,-17.04"/>
<polygon fill="midnightblue" stroke="midnightblue" points="523.38,-23.79 533.75,-21.6 524.28,-16.85 523.38,-23.79"/>
</g>
<!-- Node3 -->
<g id="node3" class="node">
<title>Node3</title>
<g id="a_node3"><a xlink:href="pokeys__async2_8c.html#a7d3a170e382b1912bd81bedce1e0e628" target="_top" xlink:title=" ">
<polygon fill="white" stroke="black" points="87.5,-38.5 87.5,-57.5 155.5,-57.5 155.5,-38.5 87.5,-38.5"/>
<text text-anchor="middle" x="121.5" y="-45.5" font-family="Helvetica,sans-Serif" font-size="10.00">FUNCTION</text>
</a>
</g>
</g>
<!-- Node2&#45;&gt;Node3 -->
<g id="edge2" class="edge">
<title>Node2&#45;&gt;Node3</title>
<path fill="none" stroke="midnightblue" d="M191.67,-48C178.89,-48 166.4,-48 155.62,-48"/>
<polygon fill="midnightblue" stroke="midnightblue" points="191.95,-51.5 201.95,-48 191.95,-44.5 191.95,-51.5"/>
</g>
<!-- Node4 -->
<g id="node4" class="node">
<title>Node4</title>
<g id="a_node4"><a xlink:href="pokeys__async2_8c.html#aaf7e510ec6df908bbd750707b3105706" target="_top" xlink:title=" ">
<polygon fill="white" stroke="black" points="77,-0.5 77,-19.5 166,-19.5 166,-0.5 77,-0.5"/>
<text text-anchor="middle" x="121.5" y="-7.5" font-family="Helvetica,sans-Serif" font-size="10.00">user_mainloop</text>
</a>
</g>
</g>
<!-- Node2&#45;&gt;Node4 -->
<g id="edge3" class="edge">
<title>Node2&#45;&gt;Node4</title>
<path fill="none" stroke="midnightblue" d="M227.36,-35.96C205.92,-30.65 181.08,-24.5 160.96,-19.52"/>
<polygon fill="midnightblue" stroke="midnightblue" points="226.72,-39.41 237.27,-38.41 228.4,-32.61 226.72,-39.41"/>
</g>
<!-- Node5 -->
<g id="node5" class="node">
<title>Node5</title>
<g id="a_node5"><a xlink:href="build_2pokeys__async_8c.html#a73df23ab851a91f06e21d676e56bcacd" target="_top" xlink:title=" ">
<polygon fill="white" stroke="black" points="0,-0.5 0,-19.5 41,-19.5 41,-0.5 0,-0.5"/>
<text text-anchor="middle" x="20.5" y="-7.5" font-family="Helvetica,sans-Serif" font-size="10.00">main</text>
</a>
</g>
</g>
<!-- Node4&#45;&gt;Node5 -->
<g id="edge4" class="edge">
<title>Node4&#45;&gt;Node5</title>
<path fill="none" stroke="midnightblue" d="M66.55,-10C57.49,-10 48.64,-10 41.21,-10"/>
<polygon fill="midnightblue" stroke="midnightblue" points="66.79,-13.5 76.79,-10 66.79,-6.5 66.79,-13.5"/>
</g>
<!-- Node7 -->
<g id="node7" class="node">
<title>Node7</title>
<g id="a_node7"><a xlink:href="PoKeysLibRTCAsync_8c.html#a9161c735be7333de615ac373afd0bf58" target="_top" xlink:title="Starts an asynchronous RTC read from the device.">
<polygon fill="white" stroke="black" points="227.5,-0.5 227.5,-19.5 326.5,-19.5 326.5,-0.5 227.5,-0.5"/>
<text text-anchor="middle" x="277" y="-7.5" font-family="Helvetica,sans-Serif" font-size="10.00">PK_RTCGetAsync</text>
</a>
</g>
</g>
<!-- Node6&#45;&gt;Node7 -->
<g id="edge6" class="edge">
<title>Node6&#45;&gt;Node7</title>
<path fill="none" stroke="midnightblue" d="M377.46,-10C360.51,-10 342.52,-10 326.57,-10"/>
<polygon fill="midnightblue" stroke="midnightblue" points="377.85,-13.5 387.85,-10 377.85,-6.5 377.85,-13.5"/>
</g>
<!-- Node7&#45;&gt;Node3 -->
<g id="edge7" class="edge">
<title>Node7&#45;&gt;Node3</title>
<path fill="none" stroke="midnightblue" d="M227.49,-22.01C204.04,-27.81 176.49,-34.63 155.5,-39.83"/>
<polygon fill="midnightblue" stroke="midnightblue" points="228.4,-25.39 237.27,-19.59 226.72,-18.59 228.4,-25.39"/>
</g>
<!-- Node7&#45;&gt;Node4 -->
<g id="edge8" class="edge">
<title>Node7&#45;&gt;Node4</title>
<path fill="none" stroke="midnightblue" d="M217.06,-10C200.11,-10 181.92,-10 166.08,-10"/>
<polygon fill="midnightblue" stroke="midnightblue" points="217.43,-13.5 227.43,-10 217.43,-6.5 217.43,-13.5"/>
</g>
</g>
</svg>
        <g id="navigator" transform="translate(0 0)" fill="#404254">
                <rect fill="#f2f5e9" fill-opacity="0.5" stroke="#606060" stroke-width=".5" x="0" y="0" width="60" height="60"/>
                <use id="zoomplus" xlink:href="#zoomPlus" x="17" y="9" onmousedown="handleZoom(evt,'in')"/>
                <use id="zoomminus" xlink:href="#zoomMin" x="42" y="9" onmousedown="handleZoom(evt,'out')"/>
                <use id="reset" xlink:href="#resetDef" x="30" y="36" onmousedown="handleReset()"/>
                <g id="arrowUp" xlink:href="#dirArrow" transform="translate(30 24)" onmousedown="handlePan(0,-1)">
                  <use xlink:href="#rim" fill="#404040">
                        <set attributeName="fill" to="#808080" begin="arrowUp.mouseover" end="arrowUp.mouseout"/>
                  </use>
                  <path fill="none" stroke="white" stroke-width="1.5" d="M0,-3.0v7 M-2.5,-0.5L0,-3.0L2.5,-0.5"/>
                </g>
                <g id="arrowRight" xlink:href="#dirArrow" transform="rotate(90) translate(36 -43)" onmousedown="handlePan(1,0)">
                  <use xlink:href="#rim" fill="#404040">
                        <set attributeName="fill" to="#808080" begin="arrowRight.mouseover" end="arrowRight.mouseout"/>
                  </use>
                  <path fill="none" stroke="white" stroke-width="1.5" d="M0,-3.0v7 M-2.5,-0.5L0,-3.0L2.5,-0.5"/>
                </g>
                <g id="arrowDown" xlink:href="#dirArrow" transform="rotate(180) translate(-30 -48)" onmousedown="handlePan(0,1)">
                  <use xlink:href="#rim" fill="#404040">
                        <set attributeName="fill" to="#808080" begin="arrowDown.mouseover" end="arrowDown.mouseout"/>
                  </use>
                  <path fill="none" stroke="white" stroke-width="1.5" d="M0,-3.0v7 M-2.5,-0.5L0,-3.0L2.5,-0.5"/>
                </g>
                <g id="arrowLeft" xlink:href="#dirArrow" transform="rotate(270) translate(-36 17)" onmousedown="handlePan(-1,0)">
                  <use xlink:href="#rim" fill="#404040">
                        <set attributeName="fill" to="#808080" begin="arrowLeft.mouseover" end="arrowLeft.mouseout"/>
                  </use>
                  <path fill="none" stroke="white" stroke-width="1.5" d="M0,-3.0v7 M-2.5,-0.5L0,-3.0L2.5,-0.5"/>
                </g>
        </g>
        <svg viewBox="0 0 15 15" width="100%" height="30px" preserveAspectRatio="xMaxYMin meet">
         <g id="arrow_out" transform="scale(0.3 0.3)">
          <a xlink:href="experimental_2build_2PoKeysLibAsync_8c_a2d192ebf6b1b209c93b2158460c24aa2_icgraph_org.svg" target="_base">
           <rect id="button" ry="5" rx="5" y="6" x="6" height="38" width="38"
                fill="#f2f5e9" fill-opacity="0.5" stroke="#606060" stroke-width="1.0"/>
           <path id="arrow"
             d="M 11.500037,31.436501 C 11.940474,20.09759 22.043105,11.32322 32.158766,21.979434 L 37.068811,17.246167 C 37.068811,17.246167 37.088388,32 37.088388,32 L 22.160133,31.978069 C 22.160133,31.978069 26.997745,27.140456 26.997745,27.140456 C 18.528582,18.264221 13.291696,25.230495 11.500037,31.436501 z"
             style="fill:#404040;"/>
          </a>
         </g>
        </svg>
</svg>
