<?xml version="1.0" encoding="UTF-8" standalone="no"?>
<!DOCTYPE svg PUBLIC "-//W3C//DTD SVG 1.1//EN"
 "http://www.w3.org/Graphics/SVG/1.1/DTD/svg11.dtd">
<!-- Generated by graphviz version 2.43.0 (0)
 -->
<!-- Title: InitializeNewDevice Pages: 1 -->
<!--zoomable 116 -->
<svg id="main" version="1.1" xmlns="http://www.w3.org/2000/svg" xmlns:xlink="http://www.w3.org/1999/xlink" xml:space="preserve" onload="init(evt)">
<style type="text/css"><![CDATA[
.edge:hover path { stroke: red; }
.edge:hover polygon { stroke: red; fill: red; }
]]></style>
<script type="text/javascript"><![CDATA[
var edges = document.getElementsByTagName('g');
if (edges && edges.length) {
  for (var i=0;i<edges.length;i++) {
    if (edges[i].id.substr(0,4)=='edge') {
      edges[i].setAttribute('class','edge');
    }
  }
}
]]></script>
        <defs>
                <circle id="rim" cx="0" cy="0" r="7"/>
                <circle id="rim2" cx="0" cy="0" r="3.5"/>
                <g id="zoomPlus">
                        <use xlink:href="#rim" fill="#404040">
                                <set attributeName="fill" to="#808080" begin="zoomplus.mouseover" end="zoomplus.mouseout"/>
                        </use>
                        <path d="M-4,0h8M0,-4v8" fill="none" stroke="white" stroke-width="1.5" pointer-events="none"/>
                </g>
                <g id="zoomMin">
                        <use xlink:href="#rim" fill="#404040">
                                <set attributeName="fill" to="#808080" begin="zoomminus.mouseover" end="zoomminus.mouseout"/>
                        </use>
                        <path d="M-4,0h8" fill="none" stroke="white" stroke-width="1.5" pointer-events="none"/>
                </g>
                <g id="dirArrow">
                        <path fill="none" stroke="white" stroke-width="1.5" d="M0,-3.0v7 M-2.5,-0.5L0,-3.0L2.5,-0.5"/>
                </g>
               <g id="resetDef">
                       <use xlink:href="#rim2" fill="#404040">
                               <set attributeName="fill" to="#808080" begin="reset.mouseover" end="reset.mouseout"/>
                       </use>
               </g>
        </defs>

<script type="text/javascript">
var viewWidth = 745;
var viewHeight = 116;
var sectionId = 'dynsection-4';
</script>
<script xlink:href="svgpan.js"/>
<svg id="graph" class="graph">
<g id="viewport">
<title>InitializeNewDevice</title>
<polygon fill="white" stroke="transparent" points="-4,4 -4,-112 741,-112 741,4 -4,4"/>
<!-- Node1 -->
<g id="node1" class="node">
<title>Node1</title>
<g id="a_node1"><a xlink:title=" ">
<polygon fill="#bfbfbf" stroke="black" points="623,-44.5 623,-63.5 737,-63.5 737,-44.5 623,-44.5"/>
<text text-anchor="middle" x="680" y="-51.5" font-family="Helvetica,sans-Serif" font-size="10.00">InitializeNewDevice</text>
</a>
</g>
</g>
<!-- Node2 -->
<g id="node2" class="node">
<title>Node2</title>
<g id="a_node2"><a xlink:href="experimental_2build_2PoKeysLibCoreAsync_8c.html#a4a4450280f6d34ac5495f34bad644f83" target="_top" xlink:title=" ">
<polygon fill="white" stroke="black" points="438,-88.5 438,-107.5 557,-107.5 557,-88.5 438,-88.5"/>
<text text-anchor="middle" x="497.5" y="-95.5" font-family="Helvetica,sans-Serif" font-size="10.00">PK_ConnectToDevice</text>
</a>
</g>
</g>
<!-- Node1&#45;&gt;Node2 -->
<g id="edge1" class="edge">
<title>Node1&#45;&gt;Node2</title>
<path fill="none" stroke="midnightblue" d="M635.72,-66.28C620.38,-70.49 602.96,-75.12 587,-79 573.56,-82.27 558.91,-85.53 545.46,-88.41"/>
<polygon fill="midnightblue" stroke="midnightblue" points="636.76,-69.62 645.47,-63.58 634.89,-62.87 636.76,-69.62"/>
</g>
<!-- Node3 -->
<g id="node3" class="node">
<title>Node3</title>
<g id="a_node3"><a xlink:href="experimental_2build_2PoKeysLibCoreAsync_8c.html#aad34d6ff8fa450eef13043fad9a9231b" target="_top" xlink:title=" ">
<polygon fill="white" stroke="black" points="420.5,-39 420.5,-69 574.5,-69 574.5,-39 420.5,-39"/>
<text text-anchor="start" x="428.5" y="-57" font-family="Helvetica,sans-Serif" font-size="10.00">PK_ConnectToPoKeysDevice</text>
<text text-anchor="middle" x="497.5" y="-46" font-family="Helvetica,sans-Serif" font-size="10.00">_Ethernet</text>
</a>
</g>
</g>
<!-- Node1&#45;&gt;Node3 -->
<g id="edge2" class="edge">
<title>Node1&#45;&gt;Node3</title>
<path fill="none" stroke="midnightblue" d="M612.7,-54C600.37,-54 587.41,-54 574.81,-54"/>
<polygon fill="midnightblue" stroke="midnightblue" points="612.88,-57.5 622.88,-54 612.88,-50.5 612.88,-57.5"/>
</g>
<!-- Node7 -->
<g id="node7" class="node">
<title>Node7</title>
<g id="a_node7"><a xlink:href="experimental_2build_2PoKeysLibCoreAsync_8c.html#ae21a3349787cf1f1150186e4858397e6" target="_top" xlink:title=" ">
<polygon fill="white" stroke="black" points="408,-0.5 408,-19.5 587,-19.5 587,-0.5 408,-0.5"/>
<text text-anchor="middle" x="497.5" y="-7.5" font-family="Helvetica,sans-Serif" font-size="10.00">PK_ConnectToPoKeysDevice_USB</text>
</a>
</g>
</g>
<!-- Node1&#45;&gt;Node7 -->
<g id="edge6" class="edge">
<title>Node1&#45;&gt;Node7</title>
<path fill="none" stroke="midnightblue" d="M633.71,-41.87C618.86,-37.97 602.25,-33.71 587,-30 572.46,-26.46 556.52,-22.8 542.23,-19.58"/>
<polygon fill="midnightblue" stroke="midnightblue" points="633.12,-45.33 643.68,-44.5 634.9,-38.56 633.12,-45.33"/>
</g>
<!-- Node4 -->
<g id="node4" class="node">
<title>Node4</title>
<g id="a_node4"><a xlink:href="experimental_2build_2PoKeysLibCoreAsync_8c.html#a8ca5d1c479c3da4457b38ec866ea7e3d" target="_top" xlink:title=" ">
<polygon fill="white" stroke="black" points="218,-22.5 218,-41.5 372,-41.5 372,-22.5 218,-22.5"/>
<text text-anchor="middle" x="295" y="-29.5" font-family="Helvetica,sans-Serif" font-size="10.00">PK_ConnectToPoKeysDevice</text>
</a>
</g>
</g>
<!-- Node3&#45;&gt;Node4 -->
<g id="edge3" class="edge">
<title>Node3&#45;&gt;Node4</title>
<path fill="none" stroke="midnightblue" d="M410.29,-44.54C397.57,-43.14 384.53,-41.71 372.03,-40.34"/>
<polygon fill="midnightblue" stroke="midnightblue" points="410.09,-48.04 420.41,-45.65 410.86,-41.08 410.09,-48.04"/>
</g>
<!-- Node5 -->
<g id="node5" class="node">
<title>Node5</title>
<g id="a_node5"><a xlink:href="experimental_2build_2PoKeysLibCoreAsync_8c.html#ae19db1487bf5225a8fc84e9b70f0e2ec" target="_top" xlink:title=" ">
<polygon fill="white" stroke="black" points="13,-41.5 13,-60.5 169,-60.5 169,-41.5 13,-41.5"/>
<text text-anchor="middle" x="91" y="-48.5" font-family="Helvetica,sans-Serif" font-size="10.00">PK_ConnectToDeviceWSerial</text>
</a>
</g>
</g>
<!-- Node4&#45;&gt;Node5 -->
<g id="edge4" class="edge">
<title>Node4&#45;&gt;Node5</title>
<path fill="none" stroke="midnightblue" d="M207.7,-40.12C194.84,-41.33 181.66,-42.57 169.02,-43.76"/>
<polygon fill="midnightblue" stroke="midnightblue" points="208.29,-43.58 217.92,-39.16 207.64,-36.61 208.29,-43.58"/>
</g>
<!-- Node6 -->
<g id="node6" class="node">
<title>Node6</title>
<g id="a_node6"><a xlink:href="experimental_2build_2PoKeysLibCoreAsync_8c.html#a6ca83890b4c63d6132c83c7df831fb65" target="_top" xlink:title=" ">
<polygon fill="white" stroke="black" points="0,-3.5 0,-22.5 182,-22.5 182,-3.5 0,-3.5"/>
<text text-anchor="middle" x="91" y="-10.5" font-family="Helvetica,sans-Serif" font-size="10.00">PK_ConnectToDeviceWSerial_UDP</text>
</a>
</g>
</g>
<!-- Node4&#45;&gt;Node6 -->
<g id="edge5" class="edge">
<title>Node4&#45;&gt;Node6</title>
<path fill="none" stroke="midnightblue" d="M207.73,-23.89C199.31,-23.09 190.75,-22.29 182.29,-21.49"/>
<polygon fill="midnightblue" stroke="midnightblue" points="207.64,-27.39 217.92,-24.84 208.29,-20.42 207.64,-27.39"/>
</g>
<!-- Node7&#45;&gt;Node4 -->
<g id="edge7" class="edge">
<title>Node7&#45;&gt;Node4</title>
<path fill="none" stroke="midnightblue" d="M399.73,-20.62C390.49,-21.63 381.21,-22.65 372.2,-23.64"/>
<polygon fill="midnightblue" stroke="midnightblue" points="400.17,-24.09 409.72,-19.52 399.4,-17.13 400.17,-24.09"/>
</g>
</g>
</svg>
        <g id="navigator" transform="translate(0 0)" fill="#404254">
                <rect fill="#f2f5e9" fill-opacity="0.5" stroke="#606060" stroke-width=".5" x="0" y="0" width="60" height="60"/>
                <use id="zoomplus" xlink:href="#zoomPlus" x="17" y="9" onmousedown="handleZoom(evt,'in')"/>
                <use id="zoomminus" xlink:href="#zoomMin" x="42" y="9" onmousedown="handleZoom(evt,'out')"/>
                <use id="reset" xlink:href="#resetDef" x="30" y="36" onmousedown="handleReset()"/>
                <g id="arrowUp" xlink:href="#dirArrow" transform="translate(30 24)" onmousedown="handlePan(0,-1)">
                  <use xlink:href="#rim" fill="#404040">
                        <set attributeName="fill" to="#808080" begin="arrowUp.mouseover" end="arrowUp.mouseout"/>
                  </use>
                  <path fill="none" stroke="white" stroke-width="1.5" d="M0,-3.0v7 M-2.5,-0.5L0,-3.0L2.5,-0.5"/>
                </g>
                <g id="arrowRight" xlink:href="#dirArrow" transform="rotate(90) translate(36 -43)" onmousedown="handlePan(1,0)">
                  <use xlink:href="#rim" fill="#404040">
                        <set attributeName="fill" to="#808080" begin="arrowRight.mouseover" end="arrowRight.mouseout"/>
                  </use>
                  <path fill="none" stroke="white" stroke-width="1.5" d="M0,-3.0v7 M-2.5,-0.5L0,-3.0L2.5,-0.5"/>
                </g>
                <g id="arrowDown" xlink:href="#dirArrow" transform="rotate(180) translate(-30 -48)" onmousedown="handlePan(0,1)">
                  <use xlink:href="#rim" fill="#404040">
                        <set attributeName="fill" to="#808080" begin="arrowDown.mouseover" end="arrowDown.mouseout"/>
                  </use>
                  <path fill="none" stroke="white" stroke-width="1.5" d="M0,-3.0v7 M-2.5,-0.5L0,-3.0L2.5,-0.5"/>
                </g>
                <g id="arrowLeft" xlink:href="#dirArrow" transform="rotate(270) translate(-36 17)" onmousedown="handlePan(-1,0)">
                  <use xlink:href="#rim" fill="#404040">
                        <set attributeName="fill" to="#808080" begin="arrowLeft.mouseover" end="arrowLeft.mouseout"/>
                  </use>
                  <path fill="none" stroke="white" stroke-width="1.5" d="M0,-3.0v7 M-2.5,-0.5L0,-3.0L2.5,-0.5"/>
                </g>
        </g>
        <svg viewBox="0 0 15 15" width="100%" height="30px" preserveAspectRatio="xMaxYMin meet">
         <g id="arrow_out" transform="scale(0.3 0.3)">
          <a xlink:href="experimental_2build_2PoKeysLibCoreAsync_8c_ae3a4511713f05f8d9ba2f0250f07957e_icgraph_org.svg" target="_base">
           <rect id="button" ry="5" rx="5" y="6" x="6" height="38" width="38"
                fill="#f2f5e9" fill-opacity="0.5" stroke="#606060" stroke-width="1.0"/>
           <path id="arrow"
             d="M 11.500037,31.436501 C 11.940474,20.09759 22.043105,11.32322 32.158766,21.979434 L 37.068811,17.246167 C 37.068811,17.246167 37.088388,32 37.088388,32 L 22.160133,31.978069 C 22.160133,31.978069 26.997745,27.140456 26.997745,27.140456 C 18.528582,18.264221 13.291696,25.230495 11.500037,31.436501 z"
             style="fill:#404040;"/>
          </a>
         </g>
        </svg>
</svg>
