<?xml version="1.0" encoding="UTF-8" standalone="no"?>
<!DOCTYPE svg PUBLIC "-//W3C//DTD SVG 1.1//EN"
 "http://www.w3.org/Graphics/SVG/1.1/DTD/svg11.dtd">
<!-- Generated by graphviz version 2.43.0 (0)
 -->
<!-- Title: /home/cnc/actions&#45;runner/_work/LinuxCnc_PokeysLibComp/LinuxCnc_PokeysLibComp/external/pokeysHal/experimental/build/PoKeysLibCoreSocketsAsync.c Pages: 1 -->
<!--zoomable 408 -->
<svg id="main" version="1.1" xmlns="http://www.w3.org/2000/svg" xmlns:xlink="http://www.w3.org/1999/xlink" xml:space="preserve" onload="init(evt)">
<style type="text/css"><![CDATA[
.edge:hover path { stroke: red; }
.edge:hover polygon { stroke: red; fill: red; }
]]></style>
<script type="text/javascript"><![CDATA[
var edges = document.getElementsByTagName('g');
if (edges && edges.length) {
  for (var i=0;i<edges.length;i++) {
    if (edges[i].id.substr(0,4)=='edge') {
      edges[i].setAttribute('class','edge');
    }
  }
}
]]></script>
        <defs>
                <circle id="rim" cx="0" cy="0" r="7"/>
                <circle id="rim2" cx="0" cy="0" r="3.5"/>
                <g id="zoomPlus">
                        <use xlink:href="#rim" fill="#404040">
                                <set attributeName="fill" to="#808080" begin="zoomplus.mouseover" end="zoomplus.mouseout"/>
                        </use>
                        <path d="M-4,0h8M0,-4v8" fill="none" stroke="white" stroke-width="1.5" pointer-events="none"/>
                </g>
                <g id="zoomMin">
                        <use xlink:href="#rim" fill="#404040">
                                <set attributeName="fill" to="#808080" begin="zoomminus.mouseover" end="zoomminus.mouseout"/>
                        </use>
                        <path d="M-4,0h8" fill="none" stroke="white" stroke-width="1.5" pointer-events="none"/>
                </g>
                <g id="dirArrow">
                        <path fill="none" stroke="white" stroke-width="1.5" d="M0,-3.0v7 M-2.5,-0.5L0,-3.0L2.5,-0.5"/>
                </g>
               <g id="resetDef">
                       <use xlink:href="#rim2" fill="#404040">
                               <set attributeName="fill" to="#808080" begin="reset.mouseover" end="reset.mouseout"/>
                       </use>
               </g>
        </defs>

<script type="text/javascript">
var viewWidth = 1132;
var viewHeight = 408;
var sectionId = 'dynsection-0';
</script>
<script xlink:href="svgpan.js"/>
<svg id="graph" class="graph">
<g id="viewport">
<title>/home/cnc/actions&#45;runner/_work/LinuxCnc_PokeysLibComp/LinuxCnc_PokeysLibComp/external/pokeysHal/experimental/build/PoKeysLibCoreSocketsAsync.c</title>
<polygon fill="white" stroke="transparent" points="-4,4 -4,-404 1127.5,-404 1127.5,4 -4,4"/>
<!-- Node1 -->
<g id="node1" class="node">
<title>Node1</title>
<g id="a_node1"><a xlink:title=" ">
<polygon fill="#bfbfbf" stroke="black" points="530,-336.5 530,-399.5 771,-399.5 771,-336.5 530,-336.5"/>
<text text-anchor="start" x="538" y="-387.5" font-family="Helvetica,sans-Serif" font-size="10.00">/home/cnc/actions&#45;runner</text>
<text text-anchor="start" x="538" y="-376.5" font-family="Helvetica,sans-Serif" font-size="10.00">/_work/LinuxCnc_PokeysLibComp</text>
<text text-anchor="start" x="538" y="-365.5" font-family="Helvetica,sans-Serif" font-size="10.00">/LinuxCnc_PokeysLibComp/external</text>
<text text-anchor="start" x="538" y="-354.5" font-family="Helvetica,sans-Serif" font-size="10.00">/pokeysHal/experimental/build/PoKeysLibCore</text>
<text text-anchor="middle" x="650.5" y="-343.5" font-family="Helvetica,sans-Serif" font-size="10.00">SocketsAsync.c</text>
</a>
</g>
</g>
<!-- Node2 -->
<g id="node2" class="node">
<title>Node2</title>
<g id="a_node2"><a xlink:href="experimental_2build_2PoKeysLibHal_8h.html" target="_top" xlink:title=" ">
<polygon fill="white" stroke="black" points="242.5,-224.5 242.5,-243.5 334.5,-243.5 334.5,-224.5 242.5,-224.5"/>
<text text-anchor="middle" x="288.5" y="-231.5" font-family="Helvetica,sans-Serif" font-size="10.00">PoKeysLibHal.h</text>
</a>
</g>
</g>
<!-- Node1&#45;&gt;Node2 -->
<g id="edge1" class="edge">
<title>Node1&#45;&gt;Node2</title>
<path fill="none" stroke="midnightblue" d="M529.77,-362.6C429.2,-356.1 297.15,-339.97 263.5,-300 251.76,-286.06 262.51,-266 273.34,-251.86"/>
<polygon fill="midnightblue" stroke="midnightblue" points="276.22,-253.87 279.89,-243.93 270.82,-249.42 276.22,-253.87"/>
</g>
<!-- Node4 -->
<g id="node4" class="node">
<title>Node4</title>
<g id="a_node4"><a xlink:href="hal_8h.html" target="_top" xlink:title=" ">
<polygon fill="white" stroke="black" points="210,-112.5 210,-131.5 251,-131.5 251,-112.5 210,-112.5"/>
<text text-anchor="middle" x="230.5" y="-119.5" font-family="Helvetica,sans-Serif" font-size="10.00">hal.h</text>
</a>
</g>
</g>
<!-- Node1&#45;&gt;Node4 -->
<g id="edge32" class="edge">
<title>Node1&#45;&gt;Node4</title>
<path fill="none" stroke="midnightblue" d="M529.74,-358.67C429.36,-349.6 296.3,-331.91 253.5,-300 209.04,-266.85 211.05,-242.02 198.5,-188 196.49,-179.34 195.8,-176.47 198.5,-168 201.84,-157.54 208.6,-147.43 215.05,-139.45"/>
<polygon fill="midnightblue" stroke="midnightblue" points="217.85,-141.56 221.75,-131.71 212.56,-136.98 217.85,-141.56"/>
</g>
<!-- Node17 -->
<g id="node17" class="node">
<title>Node17</title>
<g id="a_node17"><a xlink:title=" ">
<polygon fill="white" stroke="#bfbfbf" points="443,-56.5 443,-75.5 496,-75.5 496,-56.5 443,-56.5"/>
<text text-anchor="middle" x="469.5" y="-63.5" font-family="Helvetica,sans-Serif" font-size="10.00">string.h</text>
</a>
</g>
</g>
<!-- Node1&#45;&gt;Node17 -->
<g id="edge28" class="edge">
<title>Node1&#45;&gt;Node17</title>
<path fill="none" stroke="midnightblue" d="M535.69,-336.44C516.67,-327.24 498.58,-315.34 484.5,-300 464.06,-277.74 464.5,-265.23 464.5,-235 464.5,-235 464.5,-235 464.5,-177 464.5,-144.91 466.65,-107.62 468.13,-85.74"/>
<polygon fill="midnightblue" stroke="midnightblue" points="471.64,-85.77 468.85,-75.55 464.65,-85.28 471.64,-85.77"/>
</g>
<!-- Node19 -->
<g id="node19" class="node">
<title>Node19</title>
<g id="a_node19"><a xlink:href="experimental_2build_2PoKeysLibCoreSocketsAsync_8h.html" target="_top" xlink:title=" ">
<polygon fill="white" stroke="black" points="272.5,-280.5 272.5,-299.5 436.5,-299.5 436.5,-280.5 272.5,-280.5"/>
<text text-anchor="middle" x="354.5" y="-287.5" font-family="Helvetica,sans-Serif" font-size="10.00">PoKeysLibCoreSocketsAsync.h</text>
</a>
</g>
</g>
<!-- Node1&#45;&gt;Node19 -->
<g id="edge21" class="edge">
<title>Node1&#45;&gt;Node19</title>
<path fill="none" stroke="midnightblue" d="M531.38,-336.42C484.16,-324.29 432.85,-311.12 397.72,-302.1"/>
<polygon fill="midnightblue" stroke="midnightblue" points="398.36,-298.65 387.8,-299.55 396.62,-305.43 398.36,-298.65"/>
</g>
<!-- Node20 -->
<g id="node20" class="node">
<title>Node20</title>
<g id="a_node20"><a xlink:title=" ">
<polygon fill="white" stroke="#bfbfbf" points="493,-280.5 493,-299.5 552,-299.5 552,-280.5 493,-280.5"/>
<text text-anchor="middle" x="522.5" y="-287.5" font-family="Helvetica,sans-Serif" font-size="10.00">ifaddrs.h</text>
</a>
</g>
</g>
<!-- Node1&#45;&gt;Node20 -->
<g id="edge23" class="edge">
<title>Node1&#45;&gt;Node20</title>
<path fill="none" stroke="midnightblue" d="M598.81,-336.31C580.48,-325.43 560.75,-313.71 545.95,-304.92"/>
<polygon fill="midnightblue" stroke="midnightblue" points="547.38,-301.7 537,-299.61 543.81,-307.72 547.38,-301.7"/>
</g>
<!-- Node21 -->
<g id="node21" class="node">
<title>Node21</title>
<g id="a_node21"><a xlink:title=" ">
<polygon fill="white" stroke="#bfbfbf" points="570.5,-280.5 570.5,-299.5 642.5,-299.5 642.5,-280.5 570.5,-280.5"/>
<text text-anchor="middle" x="606.5" y="-287.5" font-family="Helvetica,sans-Serif" font-size="10.00">netinet/in.h</text>
</a>
</g>
</g>
<!-- Node1&#45;&gt;Node21 -->
<g id="edge24" class="edge">
<title>Node1&#45;&gt;Node21</title>
<path fill="none" stroke="midnightblue" d="M632.6,-336.09C627.19,-326.74 621.43,-316.8 616.71,-308.63"/>
<polygon fill="midnightblue" stroke="midnightblue" points="619.59,-306.62 611.55,-299.72 613.53,-310.13 619.59,-306.62"/>
</g>
<!-- Node22 -->
<g id="node22" class="node">
<title>Node22</title>
<g id="a_node22"><a xlink:title=" ">
<polygon fill="white" stroke="#bfbfbf" points="661,-280.5 661,-299.5 730,-299.5 730,-280.5 661,-280.5"/>
<text text-anchor="middle" x="695.5" y="-287.5" font-family="Helvetica,sans-Serif" font-size="10.00">arpa/inet.h</text>
</a>
</g>
</g>
<!-- Node1&#45;&gt;Node22 -->
<g id="edge25" class="edge">
<title>Node1&#45;&gt;Node22</title>
<path fill="none" stroke="midnightblue" d="M668.8,-336.09C674.4,-326.64 680.36,-316.58 685.22,-308.36"/>
<polygon fill="midnightblue" stroke="midnightblue" points="688.25,-310.11 690.34,-299.72 682.23,-306.54 688.25,-310.11"/>
</g>
<!-- Node23 -->
<g id="node23" class="node">
<title>Node23</title>
<g id="a_node23"><a xlink:title=" ">
<polygon fill="white" stroke="#bfbfbf" points="748,-280.5 748,-299.5 795,-299.5 795,-280.5 748,-280.5"/>
<text text-anchor="middle" x="771.5" y="-287.5" font-family="Helvetica,sans-Serif" font-size="10.00">fcntl.h</text>
</a>
</g>
</g>
<!-- Node1&#45;&gt;Node23 -->
<g id="edge26" class="edge">
<title>Node1&#45;&gt;Node23</title>
<path fill="none" stroke="midnightblue" d="M699.37,-336.31C716.53,-325.53 734.98,-313.94 748.93,-305.17"/>
<polygon fill="midnightblue" stroke="midnightblue" points="751.19,-307.89 757.8,-299.61 747.47,-301.96 751.19,-307.89"/>
</g>
<!-- Node24 -->
<g id="node24" class="node">
<title>Node24</title>
<g id="a_node24"><a xlink:title=" ">
<polygon fill="white" stroke="#bfbfbf" points="813.5,-280.5 813.5,-299.5 869.5,-299.5 869.5,-280.5 813.5,-280.5"/>
<text text-anchor="middle" x="841.5" y="-287.5" font-family="Helvetica,sans-Serif" font-size="10.00">unistd.h</text>
</a>
</g>
</g>
<!-- Node1&#45;&gt;Node24 -->
<g id="edge27" class="edge">
<title>Node1&#45;&gt;Node24</title>
<path fill="none" stroke="midnightblue" d="M727.36,-336.42C756.44,-324.85 787.91,-312.32 810.43,-303.36"/>
<polygon fill="midnightblue" stroke="midnightblue" points="811.8,-306.58 819.8,-299.63 809.22,-300.08 811.8,-306.58"/>
</g>
<!-- Node25 -->
<g id="node25" class="node">
<title>Node25</title>
<g id="a_node25"><a xlink:title=" ">
<polygon fill="white" stroke="#bfbfbf" points="887.5,-280.5 887.5,-299.5 959.5,-299.5 959.5,-280.5 887.5,-280.5"/>
<text text-anchor="middle" x="923.5" y="-287.5" font-family="Helvetica,sans-Serif" font-size="10.00">sys/types.h</text>
</a>
</g>
</g>
<!-- Node1&#45;&gt;Node25 -->
<g id="edge29" class="edge">
<title>Node1&#45;&gt;Node25</title>
<path fill="none" stroke="midnightblue" d="M760.36,-336.42C803.54,-324.39 850.43,-311.34 882.81,-302.33"/>
<polygon fill="midnightblue" stroke="midnightblue" points="884.09,-305.6 892.78,-299.55 882.21,-298.86 884.09,-305.6"/>
</g>
<!-- Node26 -->
<g id="node26" class="node">
<title>Node26</title>
<g id="a_node26"><a xlink:title=" ">
<polygon fill="white" stroke="#bfbfbf" points="978,-280.5 978,-299.5 1055,-299.5 1055,-280.5 978,-280.5"/>
<text text-anchor="middle" x="1016.5" y="-287.5" font-family="Helvetica,sans-Serif" font-size="10.00">sys/socket.h</text>
</a>
</g>
</g>
<!-- Node1&#45;&gt;Node26 -->
<g id="edge30" class="edge">
<title>Node1&#45;&gt;Node26</title>
<path fill="none" stroke="midnightblue" d="M771.1,-341.96C838.13,-328.04 917.85,-311.48 967.83,-301.11"/>
<polygon fill="midnightblue" stroke="midnightblue" points="968.64,-304.51 977.72,-299.05 967.22,-297.66 968.64,-304.51"/>
</g>
<!-- Node27 -->
<g id="node27" class="node">
<title>Node27</title>
<g id="a_node27"><a xlink:title=" ">
<polygon fill="white" stroke="#bfbfbf" points="1073.5,-280.5 1073.5,-299.5 1123.5,-299.5 1123.5,-280.5 1073.5,-280.5"/>
<text text-anchor="middle" x="1098.5" y="-287.5" font-family="Helvetica,sans-Serif" font-size="10.00">net/if.h</text>
</a>
</g>
</g>
<!-- Node1&#45;&gt;Node27 -->
<g id="edge31" class="edge">
<title>Node1&#45;&gt;Node27</title>
<path fill="none" stroke="midnightblue" d="M771.1,-350.68C851.41,-339.05 959.4,-321.98 1063.28,-300.09"/>
<polygon fill="midnightblue" stroke="midnightblue" points="1064.26,-303.46 1073.32,-297.96 1062.81,-296.62 1064.26,-303.46"/>
</g>
<!-- Node3 -->
<g id="node3" class="node">
<title>Node3</title>
<g id="a_node3"><a xlink:title=" ">
<polygon fill="white" stroke="#bfbfbf" points="207,-168.5 207,-187.5 260,-187.5 260,-168.5 207,-168.5"/>
<text text-anchor="middle" x="233.5" y="-175.5" font-family="Helvetica,sans-Serif" font-size="10.00">stdint.h</text>
</a>
</g>
</g>
<!-- Node2&#45;&gt;Node3 -->
<g id="edge2" class="edge">
<title>Node2&#45;&gt;Node3</title>
<path fill="none" stroke="midnightblue" d="M279.42,-224.08C271.33,-216.14 259.3,-204.34 249.59,-194.8"/>
<polygon fill="midnightblue" stroke="midnightblue" points="252,-192.26 242.41,-187.75 247.1,-197.25 252,-192.26"/>
</g>
<!-- Node2&#45;&gt;Node4 -->
<g id="edge3" class="edge">
<title>Node2&#45;&gt;Node4</title>
<path fill="none" stroke="midnightblue" d="M287.15,-224.13C284.91,-211.17 279.63,-186.58 269.5,-168 263.71,-157.38 255.07,-147.07 247.39,-139"/>
<polygon fill="midnightblue" stroke="midnightblue" points="249.71,-136.37 240.17,-131.75 244.74,-141.31 249.71,-136.37"/>
</g>
<!-- Node15 -->
<g id="node15" class="node">
<title>Node15</title>
<g id="a_node15"><a xlink:href="pokeysHal_2experimental_2build_2hal__canon_8h.html" target="_top" xlink:title="Canonical Device Interface definitions and export helpers for LinuxCNC HAL.">
<polygon fill="white" stroke="black" points="317,-168.5 317,-187.5 392,-187.5 392,-168.5 317,-168.5"/>
<text text-anchor="middle" x="354.5" y="-175.5" font-family="Helvetica,sans-Serif" font-size="10.00">hal_canon.h</text>
</a>
</g>
</g>
<!-- Node2&#45;&gt;Node15 -->
<g id="edge14" class="edge">
<title>Node2&#45;&gt;Node15</title>
<path fill="none" stroke="midnightblue" d="M299.1,-224.32C308.96,-216.26 323.85,-204.08 335.72,-194.37"/>
<polygon fill="midnightblue" stroke="midnightblue" points="338.18,-196.88 343.7,-187.83 333.75,-191.46 338.18,-196.88"/>
</g>
<!-- Node5 -->
<g id="node5" class="node">
<title>Node5</title>
<g id="a_node5"><a xlink:href="rtapi_8h.html" target="_top" xlink:title=" ">
<polygon fill="white" stroke="black" points="289.5,-56.5 289.5,-75.5 337.5,-75.5 337.5,-56.5 289.5,-56.5"/>
<text text-anchor="middle" x="313.5" y="-63.5" font-family="Helvetica,sans-Serif" font-size="10.00">rtapi.h</text>
</a>
</g>
</g>
<!-- Node4&#45;&gt;Node5 -->
<g id="edge4" class="edge">
<title>Node4&#45;&gt;Node5</title>
<path fill="none" stroke="midnightblue" d="M243.84,-112.32C256.66,-103.98 276.28,-91.21 291.44,-81.35"/>
<polygon fill="midnightblue" stroke="midnightblue" points="293.72,-84.04 300.2,-75.65 289.91,-78.17 293.72,-84.04"/>
</g>
<!-- Node9 -->
<g id="node9" class="node">
<title>Node9</title>
<g id="a_node9"><a xlink:href="rtapi__errno_8h.html" target="_top" xlink:title=" ">
<polygon fill="white" stroke="black" points="0,-56.5 0,-75.5 79,-75.5 79,-56.5 0,-56.5"/>
<text text-anchor="middle" x="39.5" y="-63.5" font-family="Helvetica,sans-Serif" font-size="10.00">rtapi_errno.h</text>
</a>
</g>
</g>
<!-- Node4&#45;&gt;Node9 -->
<g id="edge8" class="edge">
<title>Node4&#45;&gt;Node9</title>
<path fill="none" stroke="midnightblue" d="M209.7,-115.12C178.5,-106.3 119.03,-89.49 79.31,-78.26"/>
<polygon fill="midnightblue" stroke="midnightblue" points="80.25,-74.88 69.67,-75.53 78.34,-81.62 80.25,-74.88"/>
</g>
<!-- Node11 -->
<g id="node11" class="node">
<title>Node11</title>
<g id="a_node11"><a xlink:href="rtapi__bool_8h.html" target="_top" xlink:title=" ">
<polygon fill="white" stroke="black" points="97.5,-56.5 97.5,-75.5 171.5,-75.5 171.5,-56.5 97.5,-56.5"/>
<text text-anchor="middle" x="134.5" y="-63.5" font-family="Helvetica,sans-Serif" font-size="10.00">rtapi_bool.h</text>
</a>
</g>
</g>
<!-- Node4&#45;&gt;Node11 -->
<g id="edge10" class="edge">
<title>Node4&#45;&gt;Node11</title>
<path fill="none" stroke="midnightblue" d="M215.08,-112.32C199.96,-103.82 176.68,-90.73 159.03,-80.8"/>
<polygon fill="midnightblue" stroke="midnightblue" points="160.32,-77.51 149.89,-75.65 156.89,-83.61 160.32,-77.51"/>
</g>
<!-- Node13 -->
<g id="node13" class="node">
<title>Node13</title>
<g id="a_node13"><a xlink:href="rtapi__stdint_8h.html" target="_top" xlink:title=" ">
<polygon fill="white" stroke="black" points="190,-56.5 190,-75.5 271,-75.5 271,-56.5 190,-56.5"/>
<text text-anchor="middle" x="230.5" y="-63.5" font-family="Helvetica,sans-Serif" font-size="10.00">rtapi_stdint.h</text>
</a>
</g>
</g>
<!-- Node4&#45;&gt;Node13 -->
<g id="edge12" class="edge">
<title>Node4&#45;&gt;Node13</title>
<path fill="none" stroke="midnightblue" d="M230.5,-112.08C230.5,-105.01 230.5,-94.86 230.5,-85.99"/>
<polygon fill="midnightblue" stroke="midnightblue" points="234,-85.75 230.5,-75.75 227,-85.75 234,-85.75"/>
</g>
<!-- Node6 -->
<g id="node6" class="node">
<title>Node6</title>
<g id="a_node6"><a xlink:title=" ">
<polygon fill="white" stroke="#bfbfbf" points="274.5,-0.5 274.5,-19.5 330.5,-19.5 330.5,-0.5 274.5,-0.5"/>
<text text-anchor="middle" x="302.5" y="-7.5" font-family="Helvetica,sans-Serif" font-size="10.00">stddef.h</text>
</a>
</g>
</g>
<!-- Node5&#45;&gt;Node6 -->
<g id="edge5" class="edge">
<title>Node5&#45;&gt;Node6</title>
<path fill="none" stroke="midnightblue" d="M311.68,-56.08C310.23,-48.93 308.13,-38.64 306.31,-29.69"/>
<polygon fill="midnightblue" stroke="midnightblue" points="309.71,-28.85 304.28,-19.75 302.85,-30.25 309.71,-28.85"/>
</g>
<!-- Node7 -->
<g id="node7" class="node">
<title>Node7</title>
<g id="a_node7"><a xlink:title=" ">
<polygon fill="white" stroke="#bfbfbf" points="348.5,-0.5 348.5,-19.5 404.5,-19.5 404.5,-0.5 348.5,-0.5"/>
<text text-anchor="middle" x="376.5" y="-7.5" font-family="Helvetica,sans-Serif" font-size="10.00">stdarg.h</text>
</a>
</g>
</g>
<!-- Node5&#45;&gt;Node7 -->
<g id="edge6" class="edge">
<title>Node5&#45;&gt;Node7</title>
<path fill="none" stroke="midnightblue" d="M323.62,-56.32C333.03,-48.26 347.24,-36.08 358.57,-26.37"/>
<polygon fill="midnightblue" stroke="midnightblue" points="360.88,-29 366.19,-19.83 356.32,-23.68 360.88,-29"/>
</g>
<!-- Node8 -->
<g id="node8" class="node">
<title>Node8</title>
<g id="a_node8"><a xlink:title=" ">
<polygon fill="white" stroke="#bfbfbf" points="423,-0.5 423,-19.5 480,-19.5 480,-0.5 423,-0.5"/>
<text text-anchor="middle" x="451.5" y="-7.5" font-family="Helvetica,sans-Serif" font-size="10.00">spawn.h</text>
</a>
</g>
</g>
<!-- Node5&#45;&gt;Node8 -->
<g id="edge7" class="edge">
<title>Node5&#45;&gt;Node8</title>
<path fill="none" stroke="midnightblue" d="M335.37,-56.44C358.28,-47.48 394.48,-33.31 420.37,-23.18"/>
<polygon fill="midnightblue" stroke="midnightblue" points="421.7,-26.42 429.74,-19.52 419.15,-19.9 421.7,-26.42"/>
</g>
<!-- Node10 -->
<g id="node10" class="node">
<title>Node10</title>
<g id="a_node10"><a xlink:title=" ">
<polygon fill="white" stroke="#bfbfbf" points="14,-0.5 14,-19.5 65,-19.5 65,-0.5 14,-0.5"/>
<text text-anchor="middle" x="39.5" y="-7.5" font-family="Helvetica,sans-Serif" font-size="10.00">errno.h</text>
</a>
</g>
</g>
<!-- Node9&#45;&gt;Node10 -->
<g id="edge9" class="edge">
<title>Node9&#45;&gt;Node10</title>
<path fill="none" stroke="midnightblue" d="M39.5,-56.08C39.5,-49.01 39.5,-38.86 39.5,-29.99"/>
<polygon fill="midnightblue" stroke="midnightblue" points="43,-29.75 39.5,-19.75 36,-29.75 43,-29.75"/>
</g>
<!-- Node12 -->
<g id="node12" class="node">
<title>Node12</title>
<g id="a_node12"><a xlink:title=" ">
<polygon fill="white" stroke="#bfbfbf" points="103.5,-0.5 103.5,-19.5 165.5,-19.5 165.5,-0.5 103.5,-0.5"/>
<text text-anchor="middle" x="134.5" y="-7.5" font-family="Helvetica,sans-Serif" font-size="10.00">stdbool.h</text>
</a>
</g>
</g>
<!-- Node11&#45;&gt;Node12 -->
<g id="edge11" class="edge">
<title>Node11&#45;&gt;Node12</title>
<path fill="none" stroke="midnightblue" d="M134.5,-56.08C134.5,-49.01 134.5,-38.86 134.5,-29.99"/>
<polygon fill="midnightblue" stroke="midnightblue" points="138,-29.75 134.5,-19.75 131,-29.75 138,-29.75"/>
</g>
<!-- Node14 -->
<g id="node14" class="node">
<title>Node14</title>
<g id="a_node14"><a xlink:title=" ">
<polygon fill="white" stroke="#bfbfbf" points="191,-0.5 191,-19.5 256,-19.5 256,-0.5 191,-0.5"/>
<text text-anchor="middle" x="223.5" y="-7.5" font-family="Helvetica,sans-Serif" font-size="10.00">inttypes.h</text>
</a>
</g>
</g>
<!-- Node13&#45;&gt;Node14 -->
<g id="edge13" class="edge">
<title>Node13&#45;&gt;Node14</title>
<path fill="none" stroke="midnightblue" d="M229.34,-56.08C228.42,-48.93 227.08,-38.64 225.92,-29.69"/>
<polygon fill="midnightblue" stroke="midnightblue" points="229.39,-29.22 224.63,-19.75 222.45,-30.12 229.39,-29.22"/>
</g>
<!-- Node15&#45;&gt;Node4 -->
<g id="edge15" class="edge">
<title>Node15&#45;&gt;Node4</title>
<path fill="none" stroke="midnightblue" d="M334.85,-168.44C314.54,-159.6 282.6,-145.69 259.4,-135.59"/>
<polygon fill="midnightblue" stroke="midnightblue" points="260.62,-132.3 250.06,-131.52 257.83,-138.72 260.62,-132.3"/>
</g>
<!-- Node15&#45;&gt;Node5 -->
<g id="edge16" class="edge">
<title>Node15&#45;&gt;Node5</title>
<path fill="none" stroke="midnightblue" d="M351.28,-168.37C344.64,-150.54 329.26,-109.3 320.31,-85.27"/>
<polygon fill="midnightblue" stroke="midnightblue" points="323.47,-83.74 316.7,-75.59 316.92,-86.18 323.47,-83.74"/>
</g>
<!-- Node16 -->
<g id="node16" class="node">
<title>Node16</title>
<g id="a_node16"><a xlink:href="rtapi__string_8h.html" target="_top" xlink:title=" ">
<polygon fill="white" stroke="black" points="348,-112.5 348,-131.5 429,-131.5 429,-112.5 348,-112.5"/>
<text text-anchor="middle" x="388.5" y="-119.5" font-family="Helvetica,sans-Serif" font-size="10.00">rtapi_string.h</text>
</a>
</g>
</g>
<!-- Node15&#45;&gt;Node16 -->
<g id="edge17" class="edge">
<title>Node15&#45;&gt;Node16</title>
<path fill="none" stroke="midnightblue" d="M360.11,-168.08C364.87,-160.53 371.82,-149.49 377.65,-140.23"/>
<polygon fill="midnightblue" stroke="midnightblue" points="380.62,-142.08 382.99,-131.75 374.7,-138.35 380.62,-142.08"/>
</g>
<!-- Node16&#45;&gt;Node5 -->
<g id="edge18" class="edge">
<title>Node16&#45;&gt;Node5</title>
<path fill="none" stroke="midnightblue" d="M376.45,-112.32C365.04,-104.11 347.67,-91.6 334.07,-81.81"/>
<polygon fill="midnightblue" stroke="midnightblue" points="335.93,-78.84 325.77,-75.83 331.84,-84.52 335.93,-78.84"/>
</g>
<!-- Node16&#45;&gt;Node17 -->
<g id="edge19" class="edge">
<title>Node16&#45;&gt;Node17</title>
<path fill="none" stroke="midnightblue" d="M401.51,-112.32C414.03,-103.98 433.18,-91.21 447.97,-81.35"/>
<polygon fill="midnightblue" stroke="midnightblue" points="450.14,-84.11 456.52,-75.65 446.26,-78.29 450.14,-84.11"/>
</g>
<!-- Node18 -->
<g id="node18" class="node">
<title>Node18</title>
<g id="a_node18"><a xlink:href="rtapi__gfp_8h.html" target="_top" xlink:title=" ">
<polygon fill="white" stroke="black" points="356,-56.5 356,-75.5 425,-75.5 425,-56.5 356,-56.5"/>
<text text-anchor="middle" x="390.5" y="-63.5" font-family="Helvetica,sans-Serif" font-size="10.00">rtapi_gfp.h</text>
</a>
</g>
</g>
<!-- Node16&#45;&gt;Node18 -->
<g id="edge20" class="edge">
<title>Node16&#45;&gt;Node18</title>
<path fill="none" stroke="midnightblue" d="M388.83,-112.08C389.09,-105.01 389.47,-94.86 389.8,-85.99"/>
<polygon fill="midnightblue" stroke="midnightblue" points="393.3,-85.87 390.18,-75.75 386.31,-85.61 393.3,-85.87"/>
</g>
<!-- Node19&#45;&gt;Node2 -->
<g id="edge22" class="edge">
<title>Node19&#45;&gt;Node2</title>
<path fill="none" stroke="midnightblue" d="M343.9,-280.32C334.04,-272.26 319.15,-260.08 307.28,-250.37"/>
<polygon fill="midnightblue" stroke="midnightblue" points="309.25,-247.46 299.3,-243.83 304.82,-252.88 309.25,-247.46"/>
</g>
</g>
</svg>
        <g id="navigator" transform="translate(0 0)" fill="#404254">
                <rect fill="#f2f5e9" fill-opacity="0.5" stroke="#606060" stroke-width=".5" x="0" y="0" width="60" height="60"/>
                <use id="zoomplus" xlink:href="#zoomPlus" x="17" y="9" onmousedown="handleZoom(evt,'in')"/>
                <use id="zoomminus" xlink:href="#zoomMin" x="42" y="9" onmousedown="handleZoom(evt,'out')"/>
                <use id="reset" xlink:href="#resetDef" x="30" y="36" onmousedown="handleReset()"/>
                <g id="arrowUp" xlink:href="#dirArrow" transform="translate(30 24)" onmousedown="handlePan(0,-1)">
                  <use xlink:href="#rim" fill="#404040">
                        <set attributeName="fill" to="#808080" begin="arrowUp.mouseover" end="arrowUp.mouseout"/>
                  </use>
                  <path fill="none" stroke="white" stroke-width="1.5" d="M0,-3.0v7 M-2.5,-0.5L0,-3.0L2.5,-0.5"/>
                </g>
                <g id="arrowRight" xlink:href="#dirArrow" transform="rotate(90) translate(36 -43)" onmousedown="handlePan(1,0)">
                  <use xlink:href="#rim" fill="#404040">
                        <set attributeName="fill" to="#808080" begin="arrowRight.mouseover" end="arrowRight.mouseout"/>
                  </use>
                  <path fill="none" stroke="white" stroke-width="1.5" d="M0,-3.0v7 M-2.5,-0.5L0,-3.0L2.5,-0.5"/>
                </g>
                <g id="arrowDown" xlink:href="#dirArrow" transform="rotate(180) translate(-30 -48)" onmousedown="handlePan(0,1)">
                  <use xlink:href="#rim" fill="#404040">
                        <set attributeName="fill" to="#808080" begin="arrowDown.mouseover" end="arrowDown.mouseout"/>
                  </use>
                  <path fill="none" stroke="white" stroke-width="1.5" d="M0,-3.0v7 M-2.5,-0.5L0,-3.0L2.5,-0.5"/>
                </g>
                <g id="arrowLeft" xlink:href="#dirArrow" transform="rotate(270) translate(-36 17)" onmousedown="handlePan(-1,0)">
                  <use xlink:href="#rim" fill="#404040">
                        <set attributeName="fill" to="#808080" begin="arrowLeft.mouseover" end="arrowLeft.mouseout"/>
                  </use>
                  <path fill="none" stroke="white" stroke-width="1.5" d="M0,-3.0v7 M-2.5,-0.5L0,-3.0L2.5,-0.5"/>
                </g>
        </g>
        <svg viewBox="0 0 15 15" width="100%" height="30px" preserveAspectRatio="xMaxYMin meet">
         <g id="arrow_out" transform="scale(0.3 0.3)">
          <a xlink:href="experimental_2build_2PoKeysLibCoreSocketsAsync_8c__incl_org.svg" target="_base">
           <rect id="button" ry="5" rx="5" y="6" x="6" height="38" width="38"
                fill="#f2f5e9" fill-opacity="0.5" stroke="#606060" stroke-width="1.0"/>
           <path id="arrow"
             d="M 11.500037,31.436501 C 11.940474,20.09759 22.043105,11.32322 32.158766,21.979434 L 37.068811,17.246167 C 37.068811,17.246167 37.088388,32 37.088388,32 L 22.160133,31.978069 C 22.160133,31.978069 26.997745,27.140456 26.997745,27.140456 C 18.528582,18.264221 13.291696,25.230495 11.500037,31.436501 z"
             style="fill:#404040;"/>
          </a>
         </g>
        </svg>
</svg>
