<?xml version="1.0" encoding="UTF-8" standalone="no"?>
<!DOCTYPE svg PUBLIC "-//W3C//DTD SVG 1.1//EN"
 "http://www.w3.org/Graphics/SVG/1.1/DTD/svg11.dtd">
<!-- Generated by graphviz version 2.43.0 (0)
 -->
<!-- Title: /home/cnc/actions&#45;runner/_work/LinuxCnc_PokeysLibComp/LinuxCnc_PokeysLibComp/external/pokeysHal/experimental/build/PoKeysLibCoreSocketsAsync.c Pages: 1 -->
<svg width="1048pt" height="352pt"
 viewBox="0.00 0.00 1048.00 352.00" xmlns="http://www.w3.org/2000/svg" xmlns:xlink="http://www.w3.org/1999/xlink">
<g id="graph0" class="graph" transform="scale(1 1) rotate(0) translate(4 348)">
<title>/home/cnc/actions&#45;runner/_work/LinuxCnc_PokeysLibComp/LinuxCnc_PokeysLibComp/external/pokeysHal/experimental/build/PoKeysLibCoreSocketsAsync.c</title>
<polygon fill="white" stroke="transparent" points="-4,4 -4,-348 1044,-348 1044,4 -4,4"/>
<!-- Node1 -->
<g id="node1" class="node">
<title>Node1</title>
<g id="a_node1"><a xlink:title=" ">
<polygon fill="#bfbfbf" stroke="black" points="457.5,-280.5 457.5,-343.5 698.5,-343.5 698.5,-280.5 457.5,-280.5"/>
<text text-anchor="start" x="465.5" y="-331.5" font-family="Helvetica,sans-Serif" font-size="10.00">/home/cnc/actions&#45;runner</text>
<text text-anchor="start" x="465.5" y="-320.5" font-family="Helvetica,sans-Serif" font-size="10.00">/_work/LinuxCnc_PokeysLibComp</text>
<text text-anchor="start" x="465.5" y="-309.5" font-family="Helvetica,sans-Serif" font-size="10.00">/LinuxCnc_PokeysLibComp/external</text>
<text text-anchor="start" x="465.5" y="-298.5" font-family="Helvetica,sans-Serif" font-size="10.00">/pokeysHal/experimental/build/PoKeysLibCore</text>
<text text-anchor="middle" x="578" y="-287.5" font-family="Helvetica,sans-Serif" font-size="10.00">SocketsAsync.c</text>
</a>
</g>
</g>
<!-- Node2 -->
<g id="node2" class="node">
<title>Node2</title>
<g id="a_node2"><a xlink:href="experimental_2build_2PoKeysLibHal_8h.html" target="_top" xlink:title=" ">
<polygon fill="white" stroke="black" points="153,-168.5 153,-187.5 245,-187.5 245,-168.5 153,-168.5"/>
<text text-anchor="middle" x="199" y="-175.5" font-family="Helvetica,sans-Serif" font-size="10.00">PoKeysLibHal.h</text>
</a>
</g>
</g>
<!-- Node1&#45;&gt;Node2 -->
<g id="edge1" class="edge">
<title>Node1&#45;&gt;Node2</title>
<path fill="none" stroke="midnightblue" d="M457.25,-311.05C333.27,-308.23 152.36,-295.13 108,-244 88.34,-221.34 125.57,-202.35 158.17,-190.86"/>
<polygon fill="midnightblue" stroke="midnightblue" points="159.7,-194.04 168.07,-187.54 157.48,-187.4 159.7,-194.04"/>
</g>
<!-- Node4 -->
<g id="node4" class="node">
<title>Node4</title>
<g id="a_node4"><a xlink:href="hal_8h.html" target="_top" xlink:title=" ">
<polygon fill="white" stroke="black" points="265.5,-112.5 265.5,-131.5 306.5,-131.5 306.5,-112.5 265.5,-112.5"/>
<text text-anchor="middle" x="286" y="-119.5" font-family="Helvetica,sans-Serif" font-size="10.00">hal.h</text>
</a>
</g>
</g>
<!-- Node1&#45;&gt;Node4 -->
<g id="edge25" class="edge">
<title>Node1&#45;&gt;Node4</title>
<path fill="none" stroke="midnightblue" d="M457.29,-302.06C412.3,-293.15 363.76,-276.13 329,-244 299.76,-216.98 290.39,-168.78 287.4,-142.09"/>
<polygon fill="midnightblue" stroke="midnightblue" points="290.85,-141.43 286.44,-131.8 283.88,-142.08 290.85,-141.43"/>
</g>
<!-- Node15 -->
<g id="node15" class="node">
<title>Node15</title>
<g id="a_node15"><a xlink:href="experimental_2build_2PoKeysLibCoreSocketsAsync_8h.html" target="_top" xlink:title=" ">
<polygon fill="white" stroke="black" points="117,-224.5 117,-243.5 281,-243.5 281,-224.5 117,-224.5"/>
<text text-anchor="middle" x="199" y="-231.5" font-family="Helvetica,sans-Serif" font-size="10.00">PoKeysLibCoreSocketsAsync.h</text>
</a>
</g>
</g>
<!-- Node1&#45;&gt;Node15 -->
<g id="edge14" class="edge">
<title>Node1&#45;&gt;Node15</title>
<path fill="none" stroke="midnightblue" d="M457.3,-286.8C387.88,-272.88 304.21,-256.1 251.3,-245.49"/>
<polygon fill="midnightblue" stroke="midnightblue" points="251.96,-242.05 241.46,-243.52 250.58,-248.91 251.96,-242.05"/>
</g>
<!-- Node16 -->
<g id="node16" class="node">
<title>Node16</title>
<g id="a_node16"><a xlink:title=" ">
<polygon fill="white" stroke="#bfbfbf" points="337.5,-224.5 337.5,-243.5 396.5,-243.5 396.5,-224.5 337.5,-224.5"/>
<text text-anchor="middle" x="367" y="-231.5" font-family="Helvetica,sans-Serif" font-size="10.00">ifaddrs.h</text>
</a>
</g>
</g>
<!-- Node1&#45;&gt;Node16 -->
<g id="edge16" class="edge">
<title>Node1&#45;&gt;Node16</title>
<path fill="none" stroke="midnightblue" d="M493.09,-280.42C460.68,-268.74 425.58,-256.1 400.66,-247.12"/>
<polygon fill="midnightblue" stroke="midnightblue" points="401.57,-243.73 390.97,-243.63 399.19,-250.32 401.57,-243.73"/>
</g>
<!-- Node17 -->
<g id="node17" class="node">
<title>Node17</title>
<g id="a_node17"><a xlink:title=" ">
<polygon fill="white" stroke="#bfbfbf" points="415,-224.5 415,-243.5 487,-243.5 487,-224.5 415,-224.5"/>
<text text-anchor="middle" x="451" y="-231.5" font-family="Helvetica,sans-Serif" font-size="10.00">netinet/in.h</text>
</a>
</g>
</g>
<!-- Node1&#45;&gt;Node17 -->
<g id="edge17" class="edge">
<title>Node1&#45;&gt;Node17</title>
<path fill="none" stroke="midnightblue" d="M526.71,-280.31C508.53,-269.43 488.95,-257.71 474.27,-248.92"/>
<polygon fill="midnightblue" stroke="midnightblue" points="475.76,-245.74 465.38,-243.61 472.17,-251.75 475.76,-245.74"/>
</g>
<!-- Node18 -->
<g id="node18" class="node">
<title>Node18</title>
<g id="a_node18"><a xlink:title=" ">
<polygon fill="white" stroke="#bfbfbf" points="505.5,-224.5 505.5,-243.5 574.5,-243.5 574.5,-224.5 505.5,-224.5"/>
<text text-anchor="middle" x="540" y="-231.5" font-family="Helvetica,sans-Serif" font-size="10.00">arpa/inet.h</text>
</a>
</g>
</g>
<!-- Node1&#45;&gt;Node18 -->
<g id="edge18" class="edge">
<title>Node1&#45;&gt;Node18</title>
<path fill="none" stroke="midnightblue" d="M562.54,-280.09C557.92,-270.84 553.01,-261.01 548.95,-252.9"/>
<polygon fill="midnightblue" stroke="midnightblue" points="551.96,-251.1 544.36,-243.72 545.7,-254.23 551.96,-251.1"/>
</g>
<!-- Node19 -->
<g id="node19" class="node">
<title>Node19</title>
<g id="a_node19"><a xlink:title=" ">
<polygon fill="white" stroke="#bfbfbf" points="592.5,-224.5 592.5,-243.5 639.5,-243.5 639.5,-224.5 592.5,-224.5"/>
<text text-anchor="middle" x="616" y="-231.5" font-family="Helvetica,sans-Serif" font-size="10.00">fcntl.h</text>
</a>
</g>
</g>
<!-- Node1&#45;&gt;Node19 -->
<g id="edge19" class="edge">
<title>Node1&#45;&gt;Node19</title>
<path fill="none" stroke="midnightblue" d="M593.46,-280.09C598.08,-270.84 602.99,-261.01 607.05,-252.9"/>
<polygon fill="midnightblue" stroke="midnightblue" points="610.3,-254.23 611.64,-243.72 604.04,-251.1 610.3,-254.23"/>
</g>
<!-- Node20 -->
<g id="node20" class="node">
<title>Node20</title>
<g id="a_node20"><a xlink:title=" ">
<polygon fill="white" stroke="#bfbfbf" points="658,-224.5 658,-243.5 714,-243.5 714,-224.5 658,-224.5"/>
<text text-anchor="middle" x="686" y="-231.5" font-family="Helvetica,sans-Serif" font-size="10.00">unistd.h</text>
</a>
</g>
</g>
<!-- Node1&#45;&gt;Node20 -->
<g id="edge20" class="edge">
<title>Node1&#45;&gt;Node20</title>
<path fill="none" stroke="midnightblue" d="M621.62,-280.31C636.69,-269.7 652.89,-258.3 665.27,-249.59"/>
<polygon fill="midnightblue" stroke="midnightblue" points="667.37,-252.39 673.53,-243.77 663.34,-246.67 667.37,-252.39"/>
</g>
<!-- Node21 -->
<g id="node21" class="node">
<title>Node21</title>
<g id="a_node21"><a xlink:title=" ">
<polygon fill="white" stroke="#bfbfbf" points="732.5,-224.5 732.5,-243.5 785.5,-243.5 785.5,-224.5 732.5,-224.5"/>
<text text-anchor="middle" x="759" y="-231.5" font-family="Helvetica,sans-Serif" font-size="10.00">string.h</text>
</a>
</g>
</g>
<!-- Node1&#45;&gt;Node21 -->
<g id="edge21" class="edge">
<title>Node1&#45;&gt;Node21</title>
<path fill="none" stroke="midnightblue" d="M650.84,-280.42C678.14,-268.95 707.68,-256.55 728.98,-247.61"/>
<polygon fill="midnightblue" stroke="midnightblue" points="730.57,-250.73 738.44,-243.63 727.86,-244.28 730.57,-250.73"/>
</g>
<!-- Node22 -->
<g id="node22" class="node">
<title>Node22</title>
<g id="a_node22"><a xlink:title=" ">
<polygon fill="white" stroke="#bfbfbf" points="804,-224.5 804,-243.5 876,-243.5 876,-224.5 804,-224.5"/>
<text text-anchor="middle" x="840" y="-231.5" font-family="Helvetica,sans-Serif" font-size="10.00">sys/types.h</text>
</a>
</g>
</g>
<!-- Node1&#45;&gt;Node22 -->
<g id="edge22" class="edge">
<title>Node1&#45;&gt;Node22</title>
<path fill="none" stroke="midnightblue" d="M683.43,-280.42C724.7,-268.45 769.48,-255.46 800.54,-246.45"/>
<polygon fill="midnightblue" stroke="midnightblue" points="801.89,-249.7 810.52,-243.55 799.94,-242.98 801.89,-249.7"/>
</g>
<!-- Node23 -->
<g id="node23" class="node">
<title>Node23</title>
<g id="a_node23"><a xlink:title=" ">
<polygon fill="white" stroke="#bfbfbf" points="894.5,-224.5 894.5,-243.5 971.5,-243.5 971.5,-224.5 894.5,-224.5"/>
<text text-anchor="middle" x="933" y="-231.5" font-family="Helvetica,sans-Serif" font-size="10.00">sys/socket.h</text>
</a>
</g>
</g>
<!-- Node1&#45;&gt;Node23 -->
<g id="edge23" class="edge">
<title>Node1&#45;&gt;Node23</title>
<path fill="none" stroke="midnightblue" d="M698.68,-285.16C762.17,-271.57 836.49,-255.66 884.12,-245.46"/>
<polygon fill="midnightblue" stroke="midnightblue" points="885.12,-248.83 894.16,-243.31 883.65,-241.99 885.12,-248.83"/>
</g>
<!-- Node24 -->
<g id="node24" class="node">
<title>Node24</title>
<g id="a_node24"><a xlink:title=" ">
<polygon fill="white" stroke="#bfbfbf" points="990,-224.5 990,-243.5 1040,-243.5 1040,-224.5 990,-224.5"/>
<text text-anchor="middle" x="1015" y="-231.5" font-family="Helvetica,sans-Serif" font-size="10.00">net/if.h</text>
</a>
</g>
</g>
<!-- Node1&#45;&gt;Node24 -->
<g id="edge24" class="edge">
<title>Node1&#45;&gt;Node24</title>
<path fill="none" stroke="midnightblue" d="M698.91,-293.93C776.66,-282.24 879.96,-265.37 979.85,-244.09"/>
<polygon fill="midnightblue" stroke="midnightblue" points="980.77,-247.47 989.81,-241.95 979.3,-240.63 980.77,-247.47"/>
</g>
<!-- Node3 -->
<g id="node3" class="node">
<title>Node3</title>
<g id="a_node3"><a xlink:title=" ">
<polygon fill="white" stroke="#bfbfbf" points="172.5,-112.5 172.5,-131.5 225.5,-131.5 225.5,-112.5 172.5,-112.5"/>
<text text-anchor="middle" x="199" y="-119.5" font-family="Helvetica,sans-Serif" font-size="10.00">stdint.h</text>
</a>
</g>
</g>
<!-- Node2&#45;&gt;Node3 -->
<g id="edge2" class="edge">
<title>Node2&#45;&gt;Node3</title>
<path fill="none" stroke="midnightblue" d="M199,-168.08C199,-161.01 199,-150.86 199,-141.99"/>
<polygon fill="midnightblue" stroke="midnightblue" points="202.5,-141.75 199,-131.75 195.5,-141.75 202.5,-141.75"/>
</g>
<!-- Node2&#45;&gt;Node4 -->
<g id="edge3" class="edge">
<title>Node2&#45;&gt;Node4</title>
<path fill="none" stroke="midnightblue" d="M212.98,-168.32C226.55,-159.9 247.38,-146.97 263.32,-137.07"/>
<polygon fill="midnightblue" stroke="midnightblue" points="265.41,-139.9 272.06,-131.65 261.71,-133.95 265.41,-139.9"/>
</g>
<!-- Node5 -->
<g id="node5" class="node">
<title>Node5</title>
<g id="a_node5"><a xlink:href="rtapi_8h.html" target="_top" xlink:title=" ">
<polygon fill="white" stroke="black" points="106,-56.5 106,-75.5 154,-75.5 154,-56.5 106,-56.5"/>
<text text-anchor="middle" x="130" y="-63.5" font-family="Helvetica,sans-Serif" font-size="10.00">rtapi.h</text>
</a>
</g>
</g>
<!-- Node4&#45;&gt;Node5 -->
<g id="edge4" class="edge">
<title>Node4&#45;&gt;Node5</title>
<path fill="none" stroke="midnightblue" d="M265.28,-113.83C239.33,-104.85 194.53,-89.34 163.63,-78.64"/>
<polygon fill="midnightblue" stroke="midnightblue" points="164.73,-75.32 154.13,-75.35 162.44,-81.93 164.73,-75.32"/>
</g>
<!-- Node9 -->
<g id="node9" class="node">
<title>Node9</title>
<g id="a_node9"><a xlink:href="rtapi__errno_8h.html" target="_top" xlink:title=" ">
<polygon fill="white" stroke="black" points="199.5,-56.5 199.5,-75.5 278.5,-75.5 278.5,-56.5 199.5,-56.5"/>
<text text-anchor="middle" x="239" y="-63.5" font-family="Helvetica,sans-Serif" font-size="10.00">rtapi_errno.h</text>
</a>
</g>
</g>
<!-- Node4&#45;&gt;Node9 -->
<g id="edge8" class="edge">
<title>Node4&#45;&gt;Node9</title>
<path fill="none" stroke="midnightblue" d="M278.24,-112.08C271.46,-104.3 261.46,-92.8 253.24,-83.37"/>
<polygon fill="midnightblue" stroke="midnightblue" points="255.82,-81 246.62,-75.75 250.54,-85.59 255.82,-81"/>
</g>
<!-- Node11 -->
<g id="node11" class="node">
<title>Node11</title>
<g id="a_node11"><a xlink:href="rtapi__bool_8h.html" target="_top" xlink:title=" ">
<polygon fill="white" stroke="black" points="297,-56.5 297,-75.5 371,-75.5 371,-56.5 297,-56.5"/>
<text text-anchor="middle" x="334" y="-63.5" font-family="Helvetica,sans-Serif" font-size="10.00">rtapi_bool.h</text>
</a>
</g>
</g>
<!-- Node4&#45;&gt;Node11 -->
<g id="edge10" class="edge">
<title>Node4&#45;&gt;Node11</title>
<path fill="none" stroke="midnightblue" d="M293.93,-112.08C300.85,-104.3 311.07,-92.8 319.45,-83.37"/>
<polygon fill="midnightblue" stroke="midnightblue" points="322.19,-85.55 326.22,-75.75 316.96,-80.9 322.19,-85.55"/>
</g>
<!-- Node13 -->
<g id="node13" class="node">
<title>Node13</title>
<g id="a_node13"><a xlink:href="rtapi__stdint_8h.html" target="_top" xlink:title=" ">
<polygon fill="white" stroke="black" points="389.5,-56.5 389.5,-75.5 470.5,-75.5 470.5,-56.5 389.5,-56.5"/>
<text text-anchor="middle" x="430" y="-63.5" font-family="Helvetica,sans-Serif" font-size="10.00">rtapi_stdint.h</text>
</a>
</g>
</g>
<!-- Node4&#45;&gt;Node13 -->
<g id="edge12" class="edge">
<title>Node4&#45;&gt;Node13</title>
<path fill="none" stroke="midnightblue" d="M306.63,-113.26C330.32,-104.38 369.49,-89.69 397.33,-79.25"/>
<polygon fill="midnightblue" stroke="midnightblue" points="398.89,-82.4 407.03,-75.62 396.43,-75.85 398.89,-82.4"/>
</g>
<!-- Node6 -->
<g id="node6" class="node">
<title>Node6</title>
<g id="a_node6"><a xlink:title=" ">
<polygon fill="white" stroke="#bfbfbf" points="0,-0.5 0,-19.5 56,-19.5 56,-0.5 0,-0.5"/>
<text text-anchor="middle" x="28" y="-7.5" font-family="Helvetica,sans-Serif" font-size="10.00">stddef.h</text>
</a>
</g>
</g>
<!-- Node5&#45;&gt;Node6 -->
<g id="edge5" class="edge">
<title>Node5&#45;&gt;Node6</title>
<path fill="none" stroke="midnightblue" d="M113.61,-56.32C97.33,-47.7 72.13,-34.36 53.28,-24.39"/>
<polygon fill="midnightblue" stroke="midnightblue" points="54.82,-21.24 44.35,-19.65 51.55,-27.43 54.82,-21.24"/>
</g>
<!-- Node7 -->
<g id="node7" class="node">
<title>Node7</title>
<g id="a_node7"><a xlink:title=" ">
<polygon fill="white" stroke="#bfbfbf" points="74,-0.5 74,-19.5 130,-19.5 130,-0.5 74,-0.5"/>
<text text-anchor="middle" x="102" y="-7.5" font-family="Helvetica,sans-Serif" font-size="10.00">stdarg.h</text>
</a>
</g>
</g>
<!-- Node5&#45;&gt;Node7 -->
<g id="edge6" class="edge">
<title>Node5&#45;&gt;Node7</title>
<path fill="none" stroke="midnightblue" d="M125.38,-56.08C121.54,-48.69 115.98,-37.95 111.24,-28.81"/>
<polygon fill="midnightblue" stroke="midnightblue" points="114.25,-27.02 106.54,-19.75 108.03,-30.24 114.25,-27.02"/>
</g>
<!-- Node8 -->
<g id="node8" class="node">
<title>Node8</title>
<g id="a_node8"><a xlink:title=" ">
<polygon fill="white" stroke="#bfbfbf" points="148.5,-0.5 148.5,-19.5 205.5,-19.5 205.5,-0.5 148.5,-0.5"/>
<text text-anchor="middle" x="177" y="-7.5" font-family="Helvetica,sans-Serif" font-size="10.00">spawn.h</text>
</a>
</g>
</g>
<!-- Node5&#45;&gt;Node8 -->
<g id="edge7" class="edge">
<title>Node5&#45;&gt;Node8</title>
<path fill="none" stroke="midnightblue" d="M137.76,-56.08C144.54,-48.3 154.54,-36.8 162.76,-27.37"/>
<polygon fill="midnightblue" stroke="midnightblue" points="165.46,-29.59 169.38,-19.75 160.18,-25 165.46,-29.59"/>
</g>
<!-- Node10 -->
<g id="node10" class="node">
<title>Node10</title>
<g id="a_node10"><a xlink:title=" ">
<polygon fill="white" stroke="#bfbfbf" points="223.5,-0.5 223.5,-19.5 274.5,-19.5 274.5,-0.5 223.5,-0.5"/>
<text text-anchor="middle" x="249" y="-7.5" font-family="Helvetica,sans-Serif" font-size="10.00">errno.h</text>
</a>
</g>
</g>
<!-- Node9&#45;&gt;Node10 -->
<g id="edge9" class="edge">
<title>Node9&#45;&gt;Node10</title>
<path fill="none" stroke="midnightblue" d="M240.65,-56.08C241.98,-48.93 243.88,-38.64 245.54,-29.69"/>
<polygon fill="midnightblue" stroke="midnightblue" points="249,-30.22 247.38,-19.75 242.12,-28.95 249,-30.22"/>
</g>
<!-- Node12 -->
<g id="node12" class="node">
<title>Node12</title>
<g id="a_node12"><a xlink:title=" ">
<polygon fill="white" stroke="#bfbfbf" points="303,-0.5 303,-19.5 365,-19.5 365,-0.5 303,-0.5"/>
<text text-anchor="middle" x="334" y="-7.5" font-family="Helvetica,sans-Serif" font-size="10.00">stdbool.h</text>
</a>
</g>
</g>
<!-- Node11&#45;&gt;Node12 -->
<g id="edge11" class="edge">
<title>Node11&#45;&gt;Node12</title>
<path fill="none" stroke="midnightblue" d="M334,-56.08C334,-49.01 334,-38.86 334,-29.99"/>
<polygon fill="midnightblue" stroke="midnightblue" points="337.5,-29.75 334,-19.75 330.5,-29.75 337.5,-29.75"/>
</g>
<!-- Node14 -->
<g id="node14" class="node">
<title>Node14</title>
<g id="a_node14"><a xlink:title=" ">
<polygon fill="white" stroke="#bfbfbf" points="397.5,-0.5 397.5,-19.5 462.5,-19.5 462.5,-0.5 397.5,-0.5"/>
<text text-anchor="middle" x="430" y="-7.5" font-family="Helvetica,sans-Serif" font-size="10.00">inttypes.h</text>
</a>
</g>
</g>
<!-- Node13&#45;&gt;Node14 -->
<g id="edge13" class="edge">
<title>Node13&#45;&gt;Node14</title>
<path fill="none" stroke="midnightblue" d="M430,-56.08C430,-49.01 430,-38.86 430,-29.99"/>
<polygon fill="midnightblue" stroke="midnightblue" points="433.5,-29.75 430,-19.75 426.5,-29.75 433.5,-29.75"/>
</g>
<!-- Node15&#45;&gt;Node2 -->
<g id="edge15" class="edge">
<title>Node15&#45;&gt;Node2</title>
<path fill="none" stroke="midnightblue" d="M199,-224.08C199,-217.01 199,-206.86 199,-197.99"/>
<polygon fill="midnightblue" stroke="midnightblue" points="202.5,-197.75 199,-187.75 195.5,-197.75 202.5,-197.75"/>
</g>
</g>
</svg>
