<?xml version="1.0" encoding="UTF-8" standalone="no"?>
<!DOCTYPE svg PUBLIC "-//W3C//DTD SVG 1.1//EN"
 "http://www.w3.org/Graphics/SVG/1.1/DTD/svg11.dtd">
<!-- Generated by graphviz version 2.43.0 (0)
 -->
<!-- Title: /usr/include/linuxcnc/gomath.h Pages: 1 -->
<svg width="357pt" height="207pt"
 viewBox="0.00 0.00 357.00 207.00" xmlns="http://www.w3.org/2000/svg" xmlns:xlink="http://www.w3.org/1999/xlink">
<g id="graph0" class="graph" transform="scale(1 1) rotate(0) translate(4 203)">
<title>/usr/include/linuxcnc/gomath.h</title>
<polygon fill="white" stroke="transparent" points="-4,4 -4,-203 353,-203 353,4 -4,4"/>
<!-- Node1 -->
<g id="node1" class="node">
<title>Node1</title>
<g id="a_node1"><a xlink:title=" ">
<polygon fill="#bfbfbf" stroke="black" points="26,-168.5 26,-198.5 142,-198.5 142,-168.5 26,-168.5"/>
<text text-anchor="start" x="34" y="-186.5" font-family="Helvetica,sans-Serif" font-size="10.00">/usr/include/linuxcnc</text>
<text text-anchor="middle" x="84" y="-175.5" font-family="Helvetica,sans-Serif" font-size="10.00">/gomath.h</text>
</a>
</g>
</g>
<!-- Node2 -->
<g id="node2" class="node">
<title>Node2</title>
<g id="a_node2"><a xlink:title=" ">
<polygon fill="white" stroke="#bfbfbf" points="0,-0.5 0,-19.5 56,-19.5 56,-0.5 0,-0.5"/>
<text text-anchor="middle" x="28" y="-7.5" font-family="Helvetica,sans-Serif" font-size="10.00">stddef.h</text>
</a>
</g>
</g>
<!-- Node1&#45;&gt;Node2 -->
<g id="edge1" class="edge">
<title>Node1&#45;&gt;Node2</title>
<path fill="none" stroke="midnightblue" d="M76.55,-168.46C66.28,-148.48 47.91,-110.45 38,-76 33.6,-60.72 31.03,-42.84 29.6,-29.7"/>
<polygon fill="midnightblue" stroke="midnightblue" points="33.07,-29.18 28.62,-19.56 26.1,-29.85 33.07,-29.18"/>
</g>
<!-- Node3 -->
<g id="node3" class="node">
<title>Node3</title>
<g id="a_node3"><a xlink:href="rtapi__math_8h.html" target="_top" xlink:title=" ">
<polygon fill="white" stroke="black" points="165.5,-112.5 165.5,-131.5 244.5,-131.5 244.5,-112.5 165.5,-112.5"/>
<text text-anchor="middle" x="205" y="-119.5" font-family="Helvetica,sans-Serif" font-size="10.00">rtapi_math.h</text>
</a>
</g>
</g>
<!-- Node1&#45;&gt;Node3 -->
<g id="edge2" class="edge">
<title>Node1&#45;&gt;Node3</title>
<path fill="none" stroke="midnightblue" d="M112.68,-168.4C132.52,-158.64 158.76,-145.74 178.19,-136.18"/>
<polygon fill="midnightblue" stroke="midnightblue" points="179.96,-139.21 187.39,-131.66 176.88,-132.93 179.96,-139.21"/>
</g>
<!-- Node7 -->
<g id="node7" class="node">
<title>Node7</title>
<g id="a_node7"><a xlink:title=" ">
<polygon fill="white" stroke="#bfbfbf" points="47.5,-56.5 47.5,-75.5 94.5,-75.5 94.5,-56.5 47.5,-56.5"/>
<text text-anchor="middle" x="71" y="-63.5" font-family="Helvetica,sans-Serif" font-size="10.00">float.h</text>
</a>
</g>
</g>
<!-- Node1&#45;&gt;Node7 -->
<g id="edge11" class="edge">
<title>Node1&#45;&gt;Node7</title>
<path fill="none" stroke="midnightblue" d="M80.22,-168.47C77.68,-158.4 74.54,-144.47 73,-132 71.1,-116.57 70.66,-98.94 70.67,-85.94"/>
<polygon fill="midnightblue" stroke="midnightblue" points="74.17,-85.9 70.76,-75.87 67.17,-85.84 74.17,-85.9"/>
</g>
<!-- Node11 -->
<g id="node11" class="node">
<title>Node11</title>
<g id="a_node11"><a xlink:href="gotypes_8h.html" target="_top" xlink:title=" ">
<polygon fill="white" stroke="black" points="82.5,-112.5 82.5,-131.5 147.5,-131.5 147.5,-112.5 82.5,-112.5"/>
<text text-anchor="middle" x="115" y="-119.5" font-family="Helvetica,sans-Serif" font-size="10.00">gotypes.h</text>
</a>
</g>
</g>
<!-- Node1&#45;&gt;Node11 -->
<g id="edge12" class="edge">
<title>Node1&#45;&gt;Node11</title>
<path fill="none" stroke="midnightblue" d="M91.35,-168.4C95.67,-160.11 101.17,-149.55 105.77,-140.71"/>
<polygon fill="midnightblue" stroke="midnightblue" points="108.97,-142.14 110.49,-131.66 102.76,-138.91 108.97,-142.14"/>
</g>
<!-- Node4 -->
<g id="node4" class="node">
<title>Node4</title>
<g id="a_node4"><a xlink:href="rtapi_8h.html" target="_top" xlink:title=" ">
<polygon fill="white" stroke="black" points="113,-56.5 113,-75.5 161,-75.5 161,-56.5 113,-56.5"/>
<text text-anchor="middle" x="137" y="-63.5" font-family="Helvetica,sans-Serif" font-size="10.00">rtapi.h</text>
</a>
</g>
</g>
<!-- Node3&#45;&gt;Node4 -->
<g id="edge3" class="edge">
<title>Node3&#45;&gt;Node4</title>
<path fill="none" stroke="midnightblue" d="M194.07,-112.32C183.83,-104.18 168.28,-91.84 156,-82.09"/>
<polygon fill="midnightblue" stroke="midnightblue" points="158.13,-79.31 148.12,-75.83 153.78,-84.79 158.13,-79.31"/>
</g>
<!-- Node3&#45;&gt;Node7 -->
<g id="edge7" class="edge">
<title>Node3&#45;&gt;Node7</title>
<path fill="none" stroke="midnightblue" d="M183.77,-112.44C161.62,-103.52 126.68,-89.44 101.56,-79.32"/>
<polygon fill="midnightblue" stroke="midnightblue" points="102.72,-76.01 92.13,-75.52 100.1,-82.5 102.72,-76.01"/>
</g>
<!-- Node8 -->
<g id="node8" class="node">
<title>Node8</title>
<g id="a_node8"><a xlink:title=" ">
<polygon fill="white" stroke="#bfbfbf" points="179.5,-56.5 179.5,-75.5 230.5,-75.5 230.5,-56.5 179.5,-56.5"/>
<text text-anchor="middle" x="205" y="-63.5" font-family="Helvetica,sans-Serif" font-size="10.00">math.h</text>
</a>
</g>
</g>
<!-- Node3&#45;&gt;Node8 -->
<g id="edge8" class="edge">
<title>Node3&#45;&gt;Node8</title>
<path fill="none" stroke="midnightblue" d="M205,-112.08C205,-105.01 205,-94.86 205,-85.99"/>
<polygon fill="midnightblue" stroke="midnightblue" points="208.5,-85.75 205,-75.75 201.5,-85.75 208.5,-85.75"/>
</g>
<!-- Node9 -->
<g id="node9" class="node">
<title>Node9</title>
<g id="a_node9"><a xlink:href="rtapi__byteorder_8h.html" target="_top" xlink:title=" ">
<polygon fill="white" stroke="black" points="249,-56.5 249,-75.5 349,-75.5 349,-56.5 249,-56.5"/>
<text text-anchor="middle" x="299" y="-63.5" font-family="Helvetica,sans-Serif" font-size="10.00">rtapi_byteorder.h</text>
</a>
</g>
</g>
<!-- Node3&#45;&gt;Node9 -->
<g id="edge9" class="edge">
<title>Node3&#45;&gt;Node9</title>
<path fill="none" stroke="midnightblue" d="M220.1,-112.32C234.9,-103.82 257.69,-90.73 274.98,-80.8"/>
<polygon fill="midnightblue" stroke="midnightblue" points="277.01,-83.67 283.93,-75.65 273.52,-77.6 277.01,-83.67"/>
</g>
<!-- Node4&#45;&gt;Node2 -->
<g id="edge4" class="edge">
<title>Node4&#45;&gt;Node2</title>
<path fill="none" stroke="midnightblue" d="M119.49,-56.32C101.93,-47.62 74.67,-34.12 54.47,-24.11"/>
<polygon fill="midnightblue" stroke="midnightblue" points="55.98,-20.96 45.47,-19.65 52.88,-27.23 55.98,-20.96"/>
</g>
<!-- Node5 -->
<g id="node5" class="node">
<title>Node5</title>
<g id="a_node5"><a xlink:title=" ">
<polygon fill="white" stroke="#bfbfbf" points="86,-0.5 86,-19.5 142,-19.5 142,-0.5 86,-0.5"/>
<text text-anchor="middle" x="114" y="-7.5" font-family="Helvetica,sans-Serif" font-size="10.00">stdarg.h</text>
</a>
</g>
</g>
<!-- Node4&#45;&gt;Node5 -->
<g id="edge5" class="edge">
<title>Node4&#45;&gt;Node5</title>
<path fill="none" stroke="midnightblue" d="M133.2,-56.08C130.09,-48.77 125.58,-38.18 121.71,-29.1"/>
<polygon fill="midnightblue" stroke="midnightblue" points="124.87,-27.58 117.73,-19.75 118.43,-30.32 124.87,-27.58"/>
</g>
<!-- Node6 -->
<g id="node6" class="node">
<title>Node6</title>
<g id="a_node6"><a xlink:title=" ">
<polygon fill="white" stroke="#bfbfbf" points="160.5,-0.5 160.5,-19.5 217.5,-19.5 217.5,-0.5 160.5,-0.5"/>
<text text-anchor="middle" x="189" y="-7.5" font-family="Helvetica,sans-Serif" font-size="10.00">spawn.h</text>
</a>
</g>
</g>
<!-- Node4&#45;&gt;Node6 -->
<g id="edge6" class="edge">
<title>Node4&#45;&gt;Node6</title>
<path fill="none" stroke="midnightblue" d="M145.59,-56.08C153.16,-48.22 164.38,-36.57 173.51,-27.08"/>
<polygon fill="midnightblue" stroke="midnightblue" points="176.16,-29.38 180.57,-19.75 171.12,-24.53 176.16,-29.38"/>
</g>
<!-- Node10 -->
<g id="node10" class="node">
<title>Node10</title>
<g id="a_node10"><a xlink:title=" ">
<polygon fill="white" stroke="#bfbfbf" points="269.5,-0.5 269.5,-19.5 328.5,-19.5 328.5,-0.5 269.5,-0.5"/>
<text text-anchor="middle" x="299" y="-7.5" font-family="Helvetica,sans-Serif" font-size="10.00">endian.h</text>
</a>
</g>
</g>
<!-- Node9&#45;&gt;Node10 -->
<g id="edge10" class="edge">
<title>Node9&#45;&gt;Node10</title>
<path fill="none" stroke="midnightblue" d="M299,-56.08C299,-49.01 299,-38.86 299,-29.99"/>
<polygon fill="midnightblue" stroke="midnightblue" points="302.5,-29.75 299,-19.75 295.5,-29.75 302.5,-29.75"/>
</g>
<!-- Node11&#45;&gt;Node7 -->
<g id="edge13" class="edge">
<title>Node11&#45;&gt;Node7</title>
<path fill="none" stroke="midnightblue" d="M107.73,-112.08C101.46,-104.38 92.21,-93.03 84.57,-83.65"/>
<polygon fill="midnightblue" stroke="midnightblue" points="87.16,-81.29 78.13,-75.75 81.73,-85.71 87.16,-81.29"/>
</g>
</g>
</svg>
