<?xml version="1.0" encoding="UTF-8" standalone="no"?>
<!DOCTYPE svg PUBLIC "-//W3C//DTD SVG 1.1//EN"
 "http://www.w3.org/Graphics/SVG/1.1/DTD/svg11.dtd">
<!-- Generated by graphviz version 2.43.0 (0)
 -->
<!-- Title: PoKeysHALComponent::PEv2_AxisConfigurationSet Pages: 1 -->
<svg width="457pt" height="39pt"
 viewBox="0.00 0.00 457.00 39.00" xmlns="http://www.w3.org/2000/svg" xmlns:xlink="http://www.w3.org/1999/xlink">
<g id="graph0" class="graph" transform="scale(1 1) rotate(0) translate(4 35)">
<title>PoKeysHALComponent::PEv2_AxisConfigurationSet</title>
<polygon fill="white" stroke="transparent" points="-4,4 -4,-35 453,-35 453,4 -4,4"/>
<!-- Node1 -->
<g id="node1" class="node">
<title>Node1</title>
<g id="a_node1"><a xlink:title="Set the axis configuration of the PoKeys device.">
<polygon fill="#bfbfbf" stroke="black" points="295,-0.5 295,-30.5 449,-30.5 449,-0.5 295,-0.5"/>
<text text-anchor="start" x="303" y="-18.5" font-family="Helvetica,sans-Serif" font-size="10.00">PoKeysHALComponent</text>
<text text-anchor="middle" x="372" y="-7.5" font-family="Helvetica,sans-Serif" font-size="10.00">::PEv2_AxisConfigurationSet</text>
</a>
</g>
</g>
<!-- Node2 -->
<g id="node2" class="node">
<title>Node2</title>
<g id="a_node2"><a xlink:href="group__hal__component__pokeys.html#ga1fd300cd610e9545e58b62ffd50e474e" target="_top" xlink:title="Applies INI&#45;based configuration to PulseEngine and IO.">
<polygon fill="white" stroke="black" points="131,-0.5 131,-30.5 259,-30.5 259,-0.5 131,-0.5"/>
<text text-anchor="start" x="139" y="-18.5" font-family="Helvetica,sans-Serif" font-size="10.00">PoKeysHALComponent</text>
<text text-anchor="middle" x="195" y="-7.5" font-family="Helvetica,sans-Serif" font-size="10.00">::PKPEv2_Setup</text>
</a>
</g>
</g>
<!-- Node1&#45;&gt;Node2 -->
<g id="edge1" class="edge">
<title>Node1&#45;&gt;Node2</title>
<path fill="none" stroke="midnightblue" d="M284.68,-15.5C276.08,-15.5 267.46,-15.5 259.16,-15.5"/>
<polygon fill="midnightblue" stroke="midnightblue" points="284.75,-19 294.75,-15.5 284.75,-12 284.75,-19"/>
</g>
<!-- Node3 -->
<g id="node3" class="node">
<title>Node3</title>
<g id="a_node3"><a xlink:href="pokeys_8c.html#a1d59e212b57d33fe74e44b64cadf3314" target="_top" xlink:title=" ">
<polygon fill="white" stroke="black" points="0,-6 0,-25 95,-25 95,-6 0,-6"/>
<text text-anchor="middle" x="47.5" y="-13" font-family="Helvetica,sans-Serif" font-size="10.00">pokeys_read_ini</text>
</a>
</g>
</g>
<!-- Node2&#45;&gt;Node3 -->
<g id="edge2" class="edge">
<title>Node2&#45;&gt;Node3</title>
<path fill="none" stroke="midnightblue" d="M120.47,-15.5C111.82,-15.5 103.19,-15.5 95.06,-15.5"/>
<polygon fill="midnightblue" stroke="midnightblue" points="120.6,-19 130.6,-15.5 120.6,-12 120.6,-19"/>
</g>
</g>
</svg>
