<?xml version="1.0" encoding="UTF-8" standalone="no"?>
<!DOCTYPE svg PUBLIC "-//W3C//DTD SVG 1.1//EN"
 "http://www.w3.org/Graphics/SVG/1.1/DTD/svg11.dtd">
<!-- Generated by graphviz version 2.43.0 (0)
 -->
<!-- Title: PoKeysHALComponent::PEv2_AxisConfigurationGet Pages: 1 -->
<svg width="761pt" height="142pt"
 viewBox="0.00 0.00 761.00 142.00" xmlns="http://www.w3.org/2000/svg" xmlns:xlink="http://www.w3.org/1999/xlink">
<g id="graph0" class="graph" transform="scale(1 1) rotate(0) translate(4 138)">
<title>PoKeysHALComponent::PEv2_AxisConfigurationGet</title>
<polygon fill="white" stroke="transparent" points="-4,4 -4,-138 757,-138 757,4 -4,4"/>
<!-- Node1 -->
<g id="node1" class="node">
<title>Node1</title>
<g id="a_node1"><a xlink:title="Retrieves and parses the axis configuration from the PoKeys Pulse Engine v2.">
<polygon fill="#bfbfbf" stroke="black" points="0,-52 0,-82 155,-82 155,-52 0,-52"/>
<text text-anchor="start" x="8" y="-70" font-family="Helvetica,sans-Serif" font-size="10.00">PoKeysHALComponent</text>
<text text-anchor="middle" x="77.5" y="-59" font-family="Helvetica,sans-Serif" font-size="10.00">::PEv2_AxisConfigurationGet</text>
</a>
</g>
</g>
<!-- Node2 -->
<g id="node2" class="node">
<title>Node2</title>
<g id="a_node2"><a xlink:href="pokeysHal_2PoKeysLibPulseEngine__v2_8c.html#a54fb4c4efce4cc2e8776dd5ed59507ff" target="_top" xlink:title="Retrieve configuration for one axis.">
<polygon fill="white" stroke="black" points="191,-76.5 191,-95.5 358,-95.5 358,-76.5 191,-76.5"/>
<text text-anchor="middle" x="274.5" y="-83.5" font-family="Helvetica,sans-Serif" font-size="10.00">PK_PEv2_AxisConfigurationGet</text>
</a>
</g>
</g>
<!-- Node1&#45;&gt;Node2 -->
<g id="edge1" class="edge">
<title>Node1&#45;&gt;Node2</title>
<path fill="none" stroke="midnightblue" d="M155.01,-74.45C163.45,-75.28 172.1,-76.12 180.71,-76.96"/>
<polygon fill="midnightblue" stroke="midnightblue" points="180.48,-80.45 190.77,-77.94 181.16,-73.49 180.48,-80.45"/>
</g>
<!-- Node10 -->
<g id="node10" class="node">
<title>Node10</title>
<g id="a_node10"><a xlink:href="rtapi_8h.html#a2432d36976ec87e60c9c92d3c0067182" target="_top" xlink:title=" ">
<polygon fill="white" stroke="black" points="228,-38.5 228,-57.5 321,-57.5 321,-38.5 228,-38.5"/>
<text text-anchor="middle" x="274.5" y="-45.5" font-family="Helvetica,sans-Serif" font-size="10.00">rtapi_print_msg</text>
</a>
</g>
</g>
<!-- Node1&#45;&gt;Node10 -->
<g id="edge10" class="edge">
<title>Node1&#45;&gt;Node10</title>
<path fill="none" stroke="midnightblue" d="M155.01,-59.55C176,-57.5 198.35,-55.32 217.92,-53.42"/>
<polygon fill="midnightblue" stroke="midnightblue" points="218.26,-56.9 227.88,-52.45 217.58,-49.93 218.26,-56.9"/>
</g>
<!-- Node3 -->
<g id="node3" class="node">
<title>Node3</title>
<g id="a_node3"><a xlink:href="pokeyslib_2PoKeysLibCore_8c.html#acb1fdd8f77277dc66c4d037218bfcece" target="_top" xlink:title=" ">
<polygon fill="white" stroke="black" points="394,-95.5 394,-114.5 483,-114.5 483,-95.5 394,-95.5"/>
<text text-anchor="middle" x="438.5" y="-102.5" font-family="Helvetica,sans-Serif" font-size="10.00">CreateRequest</text>
</a>
</g>
</g>
<!-- Node2&#45;&gt;Node3 -->
<g id="edge2" class="edge">
<title>Node2&#45;&gt;Node3</title>
<path fill="none" stroke="midnightblue" d="M356.97,-95.56C366.15,-96.63 375.32,-97.71 384,-98.73"/>
<polygon fill="midnightblue" stroke="midnightblue" points="383.61,-102.2 393.95,-99.89 384.43,-95.25 383.61,-102.2"/>
</g>
<!-- Node4 -->
<g id="node4" class="node">
<title>Node4</title>
<g id="a_node4"><a xlink:href="pokeyslib_2PoKeysLibCore_8c.html#ab5d92aa36d0a4a6953a055f5cd960aff" target="_top" xlink:title=" ">
<polygon fill="white" stroke="black" points="398.5,-57.5 398.5,-76.5 478.5,-76.5 478.5,-57.5 398.5,-57.5"/>
<text text-anchor="middle" x="438.5" y="-64.5" font-family="Helvetica,sans-Serif" font-size="10.00">SendRequest</text>
</a>
</g>
</g>
<!-- Node2&#45;&gt;Node4 -->
<g id="edge3" class="edge">
<title>Node2&#45;&gt;Node4</title>
<path fill="none" stroke="midnightblue" d="M356.97,-76.44C367.62,-75.2 378.25,-73.95 388.14,-72.79"/>
<polygon fill="midnightblue" stroke="midnightblue" points="388.61,-76.26 398.14,-71.62 387.8,-69.31 388.61,-76.26"/>
</g>
<!-- Node5 -->
<g id="node5" class="node">
<title>Node5</title>
<g id="a_node5"><a xlink:href="pokeyslib_2PoKeysLibCore_8c.html#a273b6d635dea8f559b915cdb289d021e" target="_top" xlink:title=" ">
<polygon fill="white" stroke="black" points="660.5,-38.5 660.5,-57.5 743.5,-57.5 743.5,-38.5 660.5,-38.5"/>
<text text-anchor="middle" x="702" y="-45.5" font-family="Helvetica,sans-Serif" font-size="10.00">getChecksum</text>
</a>
</g>
</g>
<!-- Node4&#45;&gt;Node5 -->
<g id="edge4" class="edge">
<title>Node4&#45;&gt;Node5</title>
<path fill="none" stroke="midnightblue" d="M478.67,-69.42C514.32,-71.06 568.36,-72.09 615,-67 628.57,-65.52 643.13,-62.76 656.34,-59.8"/>
<polygon fill="midnightblue" stroke="midnightblue" points="657.2,-63.19 666.14,-57.51 655.61,-56.37 657.2,-63.19"/>
</g>
<!-- Node6 -->
<g id="node6" class="node">
<title>Node6</title>
<g id="a_node6"><a xlink:href="group__API.html#ga6b820f3e72097cf7f994e33715dc7af1" target="_top" xlink:title="Read an Input report from a HID device.">
<polygon fill="white" stroke="black" points="537.5,-114.5 537.5,-133.5 596.5,-133.5 596.5,-114.5 537.5,-114.5"/>
<text text-anchor="middle" x="567" y="-121.5" font-family="Helvetica,sans-Serif" font-size="10.00">hid_read</text>
</a>
</g>
</g>
<!-- Node4&#45;&gt;Node6 -->
<g id="edge5" class="edge">
<title>Node4&#45;&gt;Node6</title>
<path fill="none" stroke="midnightblue" d="M461.66,-76.59C468.51,-79.58 476.08,-82.9 483,-86 500.61,-93.88 520.24,-102.86 535.99,-110.11"/>
<polygon fill="midnightblue" stroke="midnightblue" points="534.69,-113.36 545.24,-114.37 537.62,-107.01 534.69,-113.36"/>
</g>
<!-- Node8 -->
<g id="node8" class="node">
<title>Node8</title>
<g id="a_node8"><a xlink:href="group__API.html#gad14ea48e440cf5066df87cc6488493af" target="_top" xlink:title="Write an Output report to a HID device.">
<polygon fill="white" stroke="black" points="536,-38.5 536,-57.5 598,-57.5 598,-38.5 536,-38.5"/>
<text text-anchor="middle" x="567" y="-45.5" font-family="Helvetica,sans-Serif" font-size="10.00">hid_write</text>
</a>
</g>
</g>
<!-- Node4&#45;&gt;Node8 -->
<g id="edge7" class="edge">
<title>Node4&#45;&gt;Node8</title>
<path fill="none" stroke="midnightblue" d="M478.83,-61.09C493.8,-58.84 510.86,-56.28 525.9,-54.02"/>
<polygon fill="midnightblue" stroke="midnightblue" points="526.57,-57.46 535.94,-52.52 525.53,-50.54 526.57,-57.46"/>
</g>
<!-- Node9 -->
<g id="node9" class="node">
<title>Node9</title>
<g id="a_node9"><a xlink:href="pokeyslib_2PoKeysLibCoreSockets_8c.html#a22759fb4024c9081af26ac1bc6541b47" target="_top" xlink:title=" ">
<polygon fill="white" stroke="black" points="519,-0.5 519,-19.5 615,-19.5 615,-0.5 519,-0.5"/>
<text text-anchor="middle" x="567" y="-7.5" font-family="Helvetica,sans-Serif" font-size="10.00">SendEthRequest</text>
</a>
</g>
</g>
<!-- Node4&#45;&gt;Node9 -->
<g id="edge8" class="edge">
<title>Node4&#45;&gt;Node9</title>
<path fill="none" stroke="midnightblue" d="M458.62,-57.45C474.63,-49.56 498.14,-38.19 519,-29 523.19,-27.15 527.62,-25.27 532.02,-23.45"/>
<polygon fill="midnightblue" stroke="midnightblue" points="533.55,-26.6 541.49,-19.58 530.91,-20.12 533.55,-26.6"/>
</g>
<!-- Node7 -->
<g id="node7" class="node">
<title>Node7</title>
<g id="a_node7"><a xlink:href="group__API.html#gaa5c9ed5aa290688ffac03343989ad75a" target="_top" xlink:title="Read an Input report from a HID device with timeout.">
<polygon fill="white" stroke="black" points="651,-114.5 651,-133.5 753,-133.5 753,-114.5 651,-114.5"/>
<text text-anchor="middle" x="702" y="-121.5" font-family="Helvetica,sans-Serif" font-size="10.00">hid_read_timeout</text>
</a>
</g>
</g>
<!-- Node6&#45;&gt;Node7 -->
<g id="edge6" class="edge">
<title>Node6&#45;&gt;Node7</title>
<path fill="none" stroke="midnightblue" d="M596.53,-124C609.49,-124 625.35,-124 640.75,-124"/>
<polygon fill="midnightblue" stroke="midnightblue" points="640.77,-127.5 650.77,-124 640.77,-120.5 640.77,-127.5"/>
</g>
<!-- Node9&#45;&gt;Node5 -->
<g id="edge9" class="edge">
<title>Node9&#45;&gt;Node5</title>
<path fill="none" stroke="midnightblue" d="M601.56,-19.59C618.57,-24.45 639.43,-30.41 657.64,-35.61"/>
<polygon fill="midnightblue" stroke="midnightblue" points="656.87,-39.03 667.45,-38.41 658.8,-32.3 656.87,-39.03"/>
</g>
</g>
</svg>
