<?xml version="1.0" encoding="UTF-8" standalone="no"?>
<!DOCTYPE svg PUBLIC "-//W3C//DTD SVG 1.1//EN"
 "http://www.w3.org/Graphics/SVG/1.1/DTD/svg11.dtd">
<!-- Generated by graphviz version 2.43.0 (0)
 -->
<!-- Title: hid_enumerate Pages: 1 -->
<!--zoomable 230 -->
<svg id="main" version="1.1" xmlns="http://www.w3.org/2000/svg" xmlns:xlink="http://www.w3.org/1999/xlink" xml:space="preserve" onload="init(evt)">
<style type="text/css"><![CDATA[
.edge:hover path { stroke: red; }
.edge:hover polygon { stroke: red; fill: red; }
]]></style>
<script type="text/javascript"><![CDATA[
var edges = document.getElementsByTagName('g');
if (edges && edges.length) {
  for (var i=0;i<edges.length;i++) {
    if (edges[i].id.substr(0,4)=='edge') {
      edges[i].setAttribute('class','edge');
    }
  }
}
]]></script>
        <defs>
                <circle id="rim" cx="0" cy="0" r="7"/>
                <circle id="rim2" cx="0" cy="0" r="3.5"/>
                <g id="zoomPlus">
                        <use xlink:href="#rim" fill="#404040">
                                <set attributeName="fill" to="#808080" begin="zoomplus.mouseover" end="zoomplus.mouseout"/>
                        </use>
                        <path d="M-4,0h8M0,-4v8" fill="none" stroke="white" stroke-width="1.5" pointer-events="none"/>
                </g>
                <g id="zoomMin">
                        <use xlink:href="#rim" fill="#404040">
                                <set attributeName="fill" to="#808080" begin="zoomminus.mouseover" end="zoomminus.mouseout"/>
                        </use>
                        <path d="M-4,0h8" fill="none" stroke="white" stroke-width="1.5" pointer-events="none"/>
                </g>
                <g id="dirArrow">
                        <path fill="none" stroke="white" stroke-width="1.5" d="M0,-3.0v7 M-2.5,-0.5L0,-3.0L2.5,-0.5"/>
                </g>
               <g id="resetDef">
                       <use xlink:href="#rim2" fill="#404040">
                               <set attributeName="fill" to="#808080" begin="reset.mouseover" end="reset.mouseout"/>
                       </use>
               </g>
        </defs>

<script type="text/javascript">
var viewWidth = 721;
var viewHeight = 230;
var sectionId = 'dynsection-2';
</script>
<script xlink:href="svgpan.js"/>
<svg id="graph" class="graph">
<g id="viewport">
<title>hid_enumerate</title>
<polygon fill="white" stroke="transparent" points="-4,4 -4,-226 717,-226 717,4 -4,4"/>
<!-- Node1 -->
<g id="node1" class="node">
<title>Node1</title>
<g id="a_node1"><a xlink:title="Enumerate the HID Devices.">
<polygon fill="#bfbfbf" stroke="black" points="623,-104.5 623,-123.5 713,-123.5 713,-104.5 623,-104.5"/>
<text text-anchor="middle" x="668" y="-111.5" font-family="Helvetica,sans-Serif" font-size="10.00">hid_enumerate</text>
</a>
</g>
</g>
<!-- Node2 -->
<g id="node2" class="node">
<title>Node2</title>
<g id="a_node2"><a xlink:href="PoKeysLibCoreAsync_8c.html#a4a4450280f6d34ac5495f34bad644f83" target="_top" xlink:title=" ">
<polygon fill="white" stroke="black" points="438,-202.5 438,-221.5 557,-221.5 557,-202.5 438,-202.5"/>
<text text-anchor="middle" x="497.5" y="-209.5" font-family="Helvetica,sans-Serif" font-size="10.00">PK_ConnectToDevice</text>
</a>
</g>
</g>
<!-- Node1&#45;&gt;Node2 -->
<g id="edge1" class="edge">
<title>Node1&#45;&gt;Node2</title>
<path fill="none" stroke="midnightblue" d="M654.15,-131.62C639.86,-149.89 615.04,-177.85 587,-193 577.87,-197.93 567.57,-201.58 557.31,-204.28"/>
<polygon fill="midnightblue" stroke="midnightblue" points="657.04,-133.61 660.3,-123.53 651.46,-129.38 657.04,-133.61"/>
</g>
<!-- Node4 -->
<g id="node4" class="node">
<title>Node4</title>
<g id="a_node4"><a xlink:href="PoKeysLibCoreAsync_8c.html#a69c51cb8610e4f5b3e5ca7ec8e8d7ce2" target="_top" xlink:title=" ">
<polygon fill="white" stroke="black" points="423.5,-164.5 423.5,-183.5 571.5,-183.5 571.5,-164.5 423.5,-164.5"/>
<text text-anchor="middle" x="497.5" y="-171.5" font-family="Helvetica,sans-Serif" font-size="10.00">PK_ConnectToDeviceAsync</text>
</a>
</g>
</g>
<!-- Node1&#45;&gt;Node4 -->
<g id="edge3" class="edge">
<title>Node1&#45;&gt;Node4</title>
<path fill="none" stroke="midnightblue" d="M642.42,-128.73C626.96,-137.45 606.36,-148.1 587,-155 576.49,-158.75 565,-161.88 553.89,-164.45"/>
<polygon fill="midnightblue" stroke="midnightblue" points="644.4,-131.63 651.31,-123.61 640.9,-125.57 644.4,-131.63"/>
</g>
<!-- Node5 -->
<g id="node5" class="node">
<title>Node5</title>
<g id="a_node5"><a xlink:href="PoKeysLibCoreAsync_8c.html#ae21a3349787cf1f1150186e4858397e6" target="_top" xlink:title=" ">
<polygon fill="white" stroke="black" points="408,-38.5 408,-57.5 587,-57.5 587,-38.5 408,-38.5"/>
<text text-anchor="middle" x="497.5" y="-45.5" font-family="Helvetica,sans-Serif" font-size="10.00">PK_ConnectToPoKeysDevice_USB</text>
</a>
</g>
</g>
<!-- Node1&#45;&gt;Node5 -->
<g id="edge4" class="edge">
<title>Node1&#45;&gt;Node5</title>
<path fill="none" stroke="midnightblue" d="M644.78,-98.8C629.21,-88.76 607.59,-76.03 587,-68 576.14,-63.76 564.16,-60.3 552.63,-57.53"/>
<polygon fill="midnightblue" stroke="midnightblue" points="642.92,-101.76 653.2,-104.34 646.77,-95.91 642.92,-101.76"/>
</g>
<!-- Node9 -->
<g id="node9" class="node">
<title>Node9</title>
<g id="a_node9"><a xlink:href="PoKeysLibCoreAsync_8c.html#afb629f72217e5d0568b204b21253f8a0" target="_top" xlink:title=" ">
<polygon fill="white" stroke="black" points="420.5,-77 420.5,-107 574.5,-107 574.5,-77 420.5,-77"/>
<text text-anchor="start" x="428.5" y="-95" font-family="Helvetica,sans-Serif" font-size="10.00">PK_ConnectToPoKeysDevice</text>
<text text-anchor="middle" x="497.5" y="-84" font-family="Helvetica,sans-Serif" font-size="10.00">_USB_Async</text>
</a>
</g>
</g>
<!-- Node1&#45;&gt;Node9 -->
<g id="edge8" class="edge">
<title>Node1&#45;&gt;Node9</title>
<path fill="none" stroke="midnightblue" d="M612.79,-106.92C600.66,-105.34 587.57,-103.63 574.73,-101.95"/>
<polygon fill="midnightblue" stroke="midnightblue" points="612.36,-110.4 622.73,-108.22 613.27,-103.45 612.36,-110.4"/>
</g>
<!-- Node10 -->
<g id="node10" class="node">
<title>Node10</title>
<g id="a_node10"><a xlink:href="PoKeysLibCoreAsync_8c.html#a2722ded598b35dcc0748e966668eb702" target="_top" xlink:title="Enumerate PoKeys USB devices (blocking helper).">
<polygon fill="white" stroke="black" points="424,-126.5 424,-145.5 571,-145.5 571,-126.5 424,-126.5"/>
<text text-anchor="middle" x="497.5" y="-133.5" font-family="Helvetica,sans-Serif" font-size="10.00">PK_EnumerateUSBDevices</text>
</a>
</g>
</g>
<!-- Node1&#45;&gt;Node10 -->
<g id="edge9" class="edge">
<title>Node1&#45;&gt;Node10</title>
<path fill="none" stroke="midnightblue" d="M612.44,-121.12C599.27,-122.84 584.99,-124.71 571.14,-126.52"/>
<polygon fill="midnightblue" stroke="midnightblue" points="613.27,-124.55 622.73,-119.78 612.36,-117.6 613.27,-124.55"/>
</g>
<!-- Node11 -->
<g id="node11" class="node">
<title>Node11</title>
<g id="a_node11"><a xlink:href="PoKeysLibCoreAsync_8c.html#a64345b1360cd607f265f80948ce82170" target="_top" xlink:title="Begin or continue asynchronous USB enumeration.">
<polygon fill="white" stroke="black" points="409.5,-0.5 409.5,-19.5 585.5,-19.5 585.5,-0.5 409.5,-0.5"/>
<text text-anchor="middle" x="497.5" y="-7.5" font-family="Helvetica,sans-Serif" font-size="10.00">PK_EnumerateUSBDevicesAsync</text>
</a>
</g>
</g>
<!-- Node1&#45;&gt;Node11 -->
<g id="edge11" class="edge">
<title>Node1&#45;&gt;Node11</title>
<path fill="none" stroke="midnightblue" d="M655.09,-95.91C641.16,-76.27 616.26,-45.5 587,-29 580.16,-25.14 572.61,-22.06 564.9,-19.61"/>
<polygon fill="midnightblue" stroke="midnightblue" points="652.31,-98.04 660.85,-104.3 658.08,-94.08 652.31,-98.04"/>
</g>
<!-- Node3 -->
<g id="node3" class="node">
<title>Node3</title>
<g id="a_node3"><a xlink:href="pokeysHal_2pokeyslib_2PoKeysLibDevicePoKeys57Industrial_8c.html#ac8fc7ddca3e4def19bafb5dfb39bcc19" target="_top" xlink:title=" ">
<polygon fill="white" stroke="black" points="250.5,-164.5 250.5,-183.5 339.5,-183.5 339.5,-164.5 250.5,-164.5"/>
<text text-anchor="middle" x="295" y="-171.5" font-family="Helvetica,sans-Serif" font-size="10.00">PK57i_Connect</text>
</a>
</g>
</g>
<!-- Node2&#45;&gt;Node3 -->
<g id="edge2" class="edge">
<title>Node2&#45;&gt;Node3</title>
<path fill="none" stroke="midnightblue" d="M436.29,-200.59C405.16,-194.69 367.86,-187.62 339.55,-182.25"/>
<polygon fill="midnightblue" stroke="midnightblue" points="435.69,-204.04 446.16,-202.46 436.99,-197.16 435.69,-204.04"/>
</g>
<!-- Node6 -->
<g id="node6" class="node">
<title>Node6</title>
<g id="a_node6"><a xlink:href="PoKeysLibCoreAsync_8c.html#a8ca5d1c479c3da4457b38ec866ea7e3d" target="_top" xlink:title=" ">
<polygon fill="white" stroke="black" points="218,-38.5 218,-57.5 372,-57.5 372,-38.5 218,-38.5"/>
<text text-anchor="middle" x="295" y="-45.5" font-family="Helvetica,sans-Serif" font-size="10.00">PK_ConnectToPoKeysDevice</text>
</a>
</g>
</g>
<!-- Node5&#45;&gt;Node6 -->
<g id="edge5" class="edge">
<title>Node5&#45;&gt;Node6</title>
<path fill="none" stroke="midnightblue" d="M397.85,-48C389.2,-48 380.53,-48 372.11,-48"/>
<polygon fill="midnightblue" stroke="midnightblue" points="397.97,-51.5 407.97,-48 397.97,-44.5 397.97,-51.5"/>
</g>
<!-- Node7 -->
<g id="node7" class="node">
<title>Node7</title>
<g id="a_node7"><a xlink:href="PoKeysLibCoreAsync_8c.html#ae19db1487bf5225a8fc84e9b70f0e2ec" target="_top" xlink:title=" ">
<polygon fill="white" stroke="black" points="13,-57.5 13,-76.5 169,-76.5 169,-57.5 13,-57.5"/>
<text text-anchor="middle" x="91" y="-64.5" font-family="Helvetica,sans-Serif" font-size="10.00">PK_ConnectToDeviceWSerial</text>
</a>
</g>
</g>
<!-- Node6&#45;&gt;Node7 -->
<g id="edge6" class="edge">
<title>Node6&#45;&gt;Node7</title>
<path fill="none" stroke="midnightblue" d="M207.7,-56.12C194.84,-57.33 181.66,-58.57 169.02,-59.76"/>
<polygon fill="midnightblue" stroke="midnightblue" points="208.29,-59.58 217.92,-55.16 207.64,-52.61 208.29,-59.58"/>
</g>
<!-- Node8 -->
<g id="node8" class="node">
<title>Node8</title>
<g id="a_node8"><a xlink:href="PoKeysLibCoreAsync_8c.html#a6ca83890b4c63d6132c83c7df831fb65" target="_top" xlink:title=" ">
<polygon fill="white" stroke="black" points="0,-19.5 0,-38.5 182,-38.5 182,-19.5 0,-19.5"/>
<text text-anchor="middle" x="91" y="-26.5" font-family="Helvetica,sans-Serif" font-size="10.00">PK_ConnectToDeviceWSerial_UDP</text>
</a>
</g>
</g>
<!-- Node6&#45;&gt;Node8 -->
<g id="edge7" class="edge">
<title>Node6&#45;&gt;Node8</title>
<path fill="none" stroke="midnightblue" d="M207.73,-39.89C199.31,-39.09 190.75,-38.29 182.29,-37.49"/>
<polygon fill="midnightblue" stroke="midnightblue" points="207.64,-43.39 217.92,-40.84 208.29,-36.42 207.64,-43.39"/>
</g>
<!-- Node10&#45;&gt;Node3 -->
<g id="edge10" class="edge">
<title>Node10&#45;&gt;Node3</title>
<path fill="none" stroke="midnightblue" d="M436.29,-147.41C405.16,-153.31 367.86,-160.38 339.55,-165.75"/>
<polygon fill="midnightblue" stroke="midnightblue" points="436.99,-150.84 446.16,-145.54 435.69,-143.96 436.99,-150.84"/>
</g>
</g>
</svg>
        <g id="navigator" transform="translate(0 0)" fill="#404254">
                <rect fill="#f2f5e9" fill-opacity="0.5" stroke="#606060" stroke-width=".5" x="0" y="0" width="60" height="60"/>
                <use id="zoomplus" xlink:href="#zoomPlus" x="17" y="9" onmousedown="handleZoom(evt,'in')"/>
                <use id="zoomminus" xlink:href="#zoomMin" x="42" y="9" onmousedown="handleZoom(evt,'out')"/>
                <use id="reset" xlink:href="#resetDef" x="30" y="36" onmousedown="handleReset()"/>
                <g id="arrowUp" xlink:href="#dirArrow" transform="translate(30 24)" onmousedown="handlePan(0,-1)">
                  <use xlink:href="#rim" fill="#404040">
                        <set attributeName="fill" to="#808080" begin="arrowUp.mouseover" end="arrowUp.mouseout"/>
                  </use>
                  <path fill="none" stroke="white" stroke-width="1.5" d="M0,-3.0v7 M-2.5,-0.5L0,-3.0L2.5,-0.5"/>
                </g>
                <g id="arrowRight" xlink:href="#dirArrow" transform="rotate(90) translate(36 -43)" onmousedown="handlePan(1,0)">
                  <use xlink:href="#rim" fill="#404040">
                        <set attributeName="fill" to="#808080" begin="arrowRight.mouseover" end="arrowRight.mouseout"/>
                  </use>
                  <path fill="none" stroke="white" stroke-width="1.5" d="M0,-3.0v7 M-2.5,-0.5L0,-3.0L2.5,-0.5"/>
                </g>
                <g id="arrowDown" xlink:href="#dirArrow" transform="rotate(180) translate(-30 -48)" onmousedown="handlePan(0,1)">
                  <use xlink:href="#rim" fill="#404040">
                        <set attributeName="fill" to="#808080" begin="arrowDown.mouseover" end="arrowDown.mouseout"/>
                  </use>
                  <path fill="none" stroke="white" stroke-width="1.5" d="M0,-3.0v7 M-2.5,-0.5L0,-3.0L2.5,-0.5"/>
                </g>
                <g id="arrowLeft" xlink:href="#dirArrow" transform="rotate(270) translate(-36 17)" onmousedown="handlePan(-1,0)">
                  <use xlink:href="#rim" fill="#404040">
                        <set attributeName="fill" to="#808080" begin="arrowLeft.mouseover" end="arrowLeft.mouseout"/>
                  </use>
                  <path fill="none" stroke="white" stroke-width="1.5" d="M0,-3.0v7 M-2.5,-0.5L0,-3.0L2.5,-0.5"/>
                </g>
        </g>
        <svg viewBox="0 0 15 15" width="100%" height="30px" preserveAspectRatio="xMaxYMin meet">
         <g id="arrow_out" transform="scale(0.3 0.3)">
          <a xlink:href="group__API_gaae7d1c3e90835556ddc73fabe3a9ca9d_icgraph_org.svg" target="_base">
           <rect id="button" ry="5" rx="5" y="6" x="6" height="38" width="38"
                fill="#f2f5e9" fill-opacity="0.5" stroke="#606060" stroke-width="1.0"/>
           <path id="arrow"
             d="M 11.500037,31.436501 C 11.940474,20.09759 22.043105,11.32322 32.158766,21.979434 L 37.068811,17.246167 C 37.068811,17.246167 37.088388,32 37.088388,32 L 22.160133,31.978069 C 22.160133,31.978069 26.997745,27.140456 26.997745,27.140456 C 18.528582,18.264221 13.291696,25.230495 11.500037,31.436501 z"
             style="fill:#404040;"/>
          </a>
         </g>
        </svg>
</svg>
