<?xml version="1.0" encoding="UTF-8" standalone="no"?>
<!DOCTYPE svg PUBLIC "-//W3C//DTD SVG 1.1//EN"
 "http://www.w3.org/Graphics/SVG/1.1/DTD/svg11.dtd">
<!-- Generated by graphviz version 2.43.0 (0)
 -->
<!-- Title: hid_enumerate Pages: 1 -->
<svg width="721pt" height="230pt"
 viewBox="0.00 0.00 721.00 230.00" xmlns="http://www.w3.org/2000/svg" xmlns:xlink="http://www.w3.org/1999/xlink">
<g id="graph0" class="graph" transform="scale(1 1) rotate(0) translate(4 226)">
<title>hid_enumerate</title>
<polygon fill="white" stroke="transparent" points="-4,4 -4,-226 717,-226 717,4 -4,4"/>
<!-- Node1 -->
<g id="node1" class="node">
<title>Node1</title>
<g id="a_node1"><a xlink:title="Enumerate the HID Devices.">
<polygon fill="#bfbfbf" stroke="black" points="623,-104.5 623,-123.5 713,-123.5 713,-104.5 623,-104.5"/>
<text text-anchor="middle" x="668" y="-111.5" font-family="Helvetica,sans-Serif" font-size="10.00">hid_enumerate</text>
</a>
</g>
</g>
<!-- Node2 -->
<g id="node2" class="node">
<title>Node2</title>
<g id="a_node2"><a xlink:href="experimental_2build_2PoKeysLibCoreAsync_8c.html#a4a4450280f6d34ac5495f34bad644f83" target="_top" xlink:title=" ">
<polygon fill="white" stroke="black" points="438,-202.5 438,-221.5 557,-221.5 557,-202.5 438,-202.5"/>
<text text-anchor="middle" x="497.5" y="-209.5" font-family="Helvetica,sans-Serif" font-size="10.00">PK_ConnectToDevice</text>
</a>
</g>
</g>
<!-- Node1&#45;&gt;Node2 -->
<g id="edge1" class="edge">
<title>Node1&#45;&gt;Node2</title>
<path fill="none" stroke="midnightblue" d="M654.15,-131.62C639.86,-149.89 615.04,-177.85 587,-193 577.87,-197.93 567.57,-201.58 557.31,-204.28"/>
<polygon fill="midnightblue" stroke="midnightblue" points="657.04,-133.61 660.3,-123.53 651.46,-129.38 657.04,-133.61"/>
</g>
<!-- Node3 -->
<g id="node3" class="node">
<title>Node3</title>
<g id="a_node3"><a xlink:href="experimental_2build_2PoKeysLibCoreAsync_8c.html#a69c51cb8610e4f5b3e5ca7ec8e8d7ce2" target="_top" xlink:title=" ">
<polygon fill="white" stroke="black" points="423.5,-164.5 423.5,-183.5 571.5,-183.5 571.5,-164.5 423.5,-164.5"/>
<text text-anchor="middle" x="497.5" y="-171.5" font-family="Helvetica,sans-Serif" font-size="10.00">PK_ConnectToDeviceAsync</text>
</a>
</g>
</g>
<!-- Node1&#45;&gt;Node3 -->
<g id="edge2" class="edge">
<title>Node1&#45;&gt;Node3</title>
<path fill="none" stroke="midnightblue" d="M642.42,-128.73C626.96,-137.45 606.36,-148.1 587,-155 576.49,-158.75 565,-161.88 553.89,-164.45"/>
<polygon fill="midnightblue" stroke="midnightblue" points="644.4,-131.63 651.31,-123.61 640.9,-125.57 644.4,-131.63"/>
</g>
<!-- Node4 -->
<g id="node4" class="node">
<title>Node4</title>
<g id="a_node4"><a xlink:href="experimental_2build_2PoKeysLibCoreAsync_8c.html#ae21a3349787cf1f1150186e4858397e6" target="_top" xlink:title=" ">
<polygon fill="white" stroke="black" points="408,-126.5 408,-145.5 587,-145.5 587,-126.5 408,-126.5"/>
<text text-anchor="middle" x="497.5" y="-133.5" font-family="Helvetica,sans-Serif" font-size="10.00">PK_ConnectToPoKeysDevice_USB</text>
</a>
</g>
</g>
<!-- Node1&#45;&gt;Node4 -->
<g id="edge3" class="edge">
<title>Node1&#45;&gt;Node4</title>
<path fill="none" stroke="midnightblue" d="M612.5,-121.12C599.42,-122.82 585.24,-124.67 571.47,-126.47"/>
<polygon fill="midnightblue" stroke="midnightblue" points="613.27,-124.55 622.73,-119.78 612.36,-117.6 613.27,-124.55"/>
</g>
<!-- Node8 -->
<g id="node8" class="node">
<title>Node8</title>
<g id="a_node8"><a xlink:href="experimental_2build_2PoKeysLibCoreAsync_8c.html#afb629f72217e5d0568b204b21253f8a0" target="_top" xlink:title=" ">
<polygon fill="white" stroke="black" points="420.5,-77 420.5,-107 574.5,-107 574.5,-77 420.5,-77"/>
<text text-anchor="start" x="428.5" y="-95" font-family="Helvetica,sans-Serif" font-size="10.00">PK_ConnectToPoKeysDevice</text>
<text text-anchor="middle" x="497.5" y="-84" font-family="Helvetica,sans-Serif" font-size="10.00">_USB_Async</text>
</a>
</g>
</g>
<!-- Node1&#45;&gt;Node8 -->
<g id="edge7" class="edge">
<title>Node1&#45;&gt;Node8</title>
<path fill="none" stroke="midnightblue" d="M612.79,-106.92C600.66,-105.34 587.57,-103.63 574.73,-101.95"/>
<polygon fill="midnightblue" stroke="midnightblue" points="612.36,-110.4 622.73,-108.22 613.27,-103.45 612.36,-110.4"/>
</g>
<!-- Node9 -->
<g id="node9" class="node">
<title>Node9</title>
<g id="a_node9"><a xlink:href="experimental_2build_2PoKeysLibCoreAsync_8c.html#a2722ded598b35dcc0748e966668eb702" target="_top" xlink:title=" ">
<polygon fill="white" stroke="black" points="424,-38.5 424,-57.5 571,-57.5 571,-38.5 424,-38.5"/>
<text text-anchor="middle" x="497.5" y="-45.5" font-family="Helvetica,sans-Serif" font-size="10.00">PK_EnumerateUSBDevices</text>
</a>
</g>
</g>
<!-- Node1&#45;&gt;Node9 -->
<g id="edge8" class="edge">
<title>Node1&#45;&gt;Node9</title>
<path fill="none" stroke="midnightblue" d="M644.78,-98.8C629.21,-88.76 607.59,-76.03 587,-68 576.14,-63.76 564.16,-60.3 552.63,-57.53"/>
<polygon fill="midnightblue" stroke="midnightblue" points="642.92,-101.76 653.2,-104.34 646.77,-95.91 642.92,-101.76"/>
</g>
<!-- Node10 -->
<g id="node10" class="node">
<title>Node10</title>
<g id="a_node10"><a xlink:href="experimental_2build_2PoKeysLibCoreAsync_8c.html#a64345b1360cd607f265f80948ce82170" target="_top" xlink:title=" ">
<polygon fill="white" stroke="black" points="409.5,-0.5 409.5,-19.5 585.5,-19.5 585.5,-0.5 409.5,-0.5"/>
<text text-anchor="middle" x="497.5" y="-7.5" font-family="Helvetica,sans-Serif" font-size="10.00">PK_EnumerateUSBDevicesAsync</text>
</a>
</g>
</g>
<!-- Node1&#45;&gt;Node10 -->
<g id="edge9" class="edge">
<title>Node1&#45;&gt;Node10</title>
<path fill="none" stroke="midnightblue" d="M655.09,-95.91C641.16,-76.27 616.26,-45.5 587,-29 580.16,-25.14 572.61,-22.06 564.9,-19.61"/>
<polygon fill="midnightblue" stroke="midnightblue" points="652.31,-98.04 660.85,-104.3 658.08,-94.08 652.31,-98.04"/>
</g>
<!-- Node5 -->
<g id="node5" class="node">
<title>Node5</title>
<g id="a_node5"><a xlink:href="experimental_2build_2PoKeysLibCoreAsync_8c.html#a8ca5d1c479c3da4457b38ec866ea7e3d" target="_top" xlink:title=" ">
<polygon fill="white" stroke="black" points="218,-126.5 218,-145.5 372,-145.5 372,-126.5 218,-126.5"/>
<text text-anchor="middle" x="295" y="-133.5" font-family="Helvetica,sans-Serif" font-size="10.00">PK_ConnectToPoKeysDevice</text>
</a>
</g>
</g>
<!-- Node4&#45;&gt;Node5 -->
<g id="edge4" class="edge">
<title>Node4&#45;&gt;Node5</title>
<path fill="none" stroke="midnightblue" d="M397.85,-136C389.2,-136 380.53,-136 372.11,-136"/>
<polygon fill="midnightblue" stroke="midnightblue" points="397.97,-139.5 407.97,-136 397.97,-132.5 397.97,-139.5"/>
</g>
<!-- Node6 -->
<g id="node6" class="node">
<title>Node6</title>
<g id="a_node6"><a xlink:href="experimental_2build_2PoKeysLibCoreAsync_8c.html#ae19db1487bf5225a8fc84e9b70f0e2ec" target="_top" xlink:title=" ">
<polygon fill="white" stroke="black" points="13,-145.5 13,-164.5 169,-164.5 169,-145.5 13,-145.5"/>
<text text-anchor="middle" x="91" y="-152.5" font-family="Helvetica,sans-Serif" font-size="10.00">PK_ConnectToDeviceWSerial</text>
</a>
</g>
</g>
<!-- Node5&#45;&gt;Node6 -->
<g id="edge5" class="edge">
<title>Node5&#45;&gt;Node6</title>
<path fill="none" stroke="midnightblue" d="M207.7,-144.12C194.84,-145.33 181.66,-146.57 169.02,-147.76"/>
<polygon fill="midnightblue" stroke="midnightblue" points="208.29,-147.58 217.92,-143.16 207.64,-140.61 208.29,-147.58"/>
</g>
<!-- Node7 -->
<g id="node7" class="node">
<title>Node7</title>
<g id="a_node7"><a xlink:href="experimental_2build_2PoKeysLibCoreAsync_8c.html#a6ca83890b4c63d6132c83c7df831fb65" target="_top" xlink:title=" ">
<polygon fill="white" stroke="black" points="0,-107.5 0,-126.5 182,-126.5 182,-107.5 0,-107.5"/>
<text text-anchor="middle" x="91" y="-114.5" font-family="Helvetica,sans-Serif" font-size="10.00">PK_ConnectToDeviceWSerial_UDP</text>
</a>
</g>
</g>
<!-- Node5&#45;&gt;Node7 -->
<g id="edge6" class="edge">
<title>Node5&#45;&gt;Node7</title>
<path fill="none" stroke="midnightblue" d="M207.73,-127.89C199.31,-127.09 190.75,-126.29 182.29,-125.49"/>
<polygon fill="midnightblue" stroke="midnightblue" points="207.64,-131.39 217.92,-128.84 208.29,-124.42 207.64,-131.39"/>
</g>
</g>
</svg>
