<?xml version="1.0" encoding="UTF-8" standalone="no"?>
<!DOCTYPE svg PUBLIC "-//W3C//DTD SVG 1.1//EN"
 "http://www.w3.org/Graphics/SVG/1.1/DTD/svg11.dtd">
<!-- Generated by graphviz version 2.43.0 (0)
 -->
<!-- Title: PoKeysHALComponent::PKIO_Setup Pages: 1 -->
<!--zoomable 180 -->
<svg id="main" version="1.1" xmlns="http://www.w3.org/2000/svg" xmlns:xlink="http://www.w3.org/1999/xlink" xml:space="preserve" onload="init(evt)">
<style type="text/css"><![CDATA[
.edge:hover path { stroke: red; }
.edge:hover polygon { stroke: red; fill: red; }
]]></style>
<script type="text/javascript"><![CDATA[
var edges = document.getElementsByTagName('g');
if (edges && edges.length) {
  for (var i=0;i<edges.length;i++) {
    if (edges[i].id.substr(0,4)=='edge') {
      edges[i].setAttribute('class','edge');
    }
  }
}
]]></script>
        <defs>
                <circle id="rim" cx="0" cy="0" r="7"/>
                <circle id="rim2" cx="0" cy="0" r="3.5"/>
                <g id="zoomPlus">
                        <use xlink:href="#rim" fill="#404040">
                                <set attributeName="fill" to="#808080" begin="zoomplus.mouseover" end="zoomplus.mouseout"/>
                        </use>
                        <path d="M-4,0h8M0,-4v8" fill="none" stroke="white" stroke-width="1.5" pointer-events="none"/>
                </g>
                <g id="zoomMin">
                        <use xlink:href="#rim" fill="#404040">
                                <set attributeName="fill" to="#808080" begin="zoomminus.mouseover" end="zoomminus.mouseout"/>
                        </use>
                        <path d="M-4,0h8" fill="none" stroke="white" stroke-width="1.5" pointer-events="none"/>
                </g>
                <g id="dirArrow">
                        <path fill="none" stroke="white" stroke-width="1.5" d="M0,-3.0v7 M-2.5,-0.5L0,-3.0L2.5,-0.5"/>
                </g>
               <g id="resetDef">
                       <use xlink:href="#rim2" fill="#404040">
                               <set attributeName="fill" to="#808080" begin="reset.mouseover" end="reset.mouseout"/>
                       </use>
               </g>
        </defs>

<script type="text/javascript">
var viewWidth = 746;
var viewHeight = 180;
var sectionId = 'dynsection-26';
</script>
<script xlink:href="svgpan.js"/>
<svg id="graph" class="graph">
<g id="viewport">
<title>PoKeysHALComponent::PKIO_Setup</title>
<polygon fill="white" stroke="transparent" points="-4,4 -4,-176 742,-176 742,4 -4,4"/>
<!-- Node1 -->
<g id="node1" class="node">
<title>Node1</title>
<g id="a_node1"><a xlink:title="Initializes the PoKeys digital and analog I/O configuration.">
<polygon fill="#bfbfbf" stroke="black" points="0,-71 0,-101 128,-101 128,-71 0,-71"/>
<text text-anchor="start" x="8" y="-89" font-family="Helvetica,sans-Serif" font-size="10.00">PoKeysHALComponent</text>
<text text-anchor="middle" x="64" y="-78" font-family="Helvetica,sans-Serif" font-size="10.00">::PKIO_Setup</text>
</a>
</g>
</g>
<!-- Node2 -->
<g id="node2" class="node">
<title>Node2</title>
<g id="a_node2"><a xlink:href="pokeysHal_2PoKeysLibIO_8c.html#a7540328350bf7a0de8d4cd968eb81068" target="_top" xlink:title="Read pin configuration from the device (command 0xC0).">
<polygon fill="white" stroke="black" points="169,-152.5 169,-171.5 301,-171.5 301,-152.5 169,-152.5"/>
<text text-anchor="middle" x="235" y="-159.5" font-family="Helvetica,sans-Serif" font-size="10.00">PK_PinConfigurationGet</text>
</a>
</g>
</g>
<!-- Node1&#45;&gt;Node2 -->
<g id="edge1" class="edge">
<title>Node1&#45;&gt;Node2</title>
<path fill="none" stroke="midnightblue" d="M87.34,-101.1C106.87,-113.74 136.34,-131.51 164,-143 169.8,-145.41 176,-147.6 182.22,-149.57"/>
<polygon fill="midnightblue" stroke="midnightblue" points="181.37,-152.97 191.95,-152.47 183.37,-146.26 181.37,-152.97"/>
</g>
<!-- Node11 -->
<g id="node11" class="node">
<title>Node11</title>
<g id="a_node11"><a xlink:href="pokeysHal_2PoKeysLibIO_8c.html#a3c1a71efe7cfbd9690b2e8b24a736f55" target="_top" xlink:title="Write pin configuration to the device (command 0xC0).">
<polygon fill="white" stroke="black" points="169.5,-114.5 169.5,-133.5 300.5,-133.5 300.5,-114.5 169.5,-114.5"/>
<text text-anchor="middle" x="235" y="-121.5" font-family="Helvetica,sans-Serif" font-size="10.00">PK_PinConfigurationSet</text>
</a>
</g>
</g>
<!-- Node1&#45;&gt;Node11 -->
<g id="edge11" class="edge">
<title>Node1&#45;&gt;Node11</title>
<path fill="none" stroke="midnightblue" d="M128.41,-100.26C145.86,-104.18 164.6,-108.39 181.37,-112.17"/>
<polygon fill="midnightblue" stroke="midnightblue" points="181,-115.67 191.53,-114.45 182.54,-108.84 181,-115.67"/>
</g>
<!-- Node12 -->
<g id="node12" class="node">
<title>Node12</title>
<g id="a_node12"><a xlink:href="pokeysHal_2PoKeysLibIO_8c.html#a5bbc9f37369faac5fbbe357a9393b8ae" target="_top" xlink:title=" ">
<polygon fill="white" stroke="black" points="164,-76.5 164,-95.5 306,-95.5 306,-76.5 164,-76.5"/>
<text text-anchor="middle" x="235" y="-83.5" font-family="Helvetica,sans-Serif" font-size="10.00">PK_PWMConfigurationGet</text>
</a>
</g>
</g>
<!-- Node1&#45;&gt;Node12 -->
<g id="edge14" class="edge">
<title>Node1&#45;&gt;Node12</title>
<path fill="none" stroke="midnightblue" d="M128.41,-86C136.76,-86 145.4,-86 153.98,-86"/>
<polygon fill="midnightblue" stroke="midnightblue" points="154,-89.5 164,-86 154,-82.5 154,-89.5"/>
</g>
<!-- Node13 -->
<g id="node13" class="node">
<title>Node13</title>
<g id="a_node13"><a xlink:href="pokeysHal_2PoKeysLibIO_8c.html#a74a7b181f1bbb877bb965343a64d43e2" target="_top" xlink:title=" ">
<polygon fill="white" stroke="black" points="165,-38.5 165,-57.5 305,-57.5 305,-38.5 165,-38.5"/>
<text text-anchor="middle" x="235" y="-45.5" font-family="Helvetica,sans-Serif" font-size="10.00">PK_PWMConfigurationSet</text>
</a>
</g>
</g>
<!-- Node1&#45;&gt;Node13 -->
<g id="edge17" class="edge">
<title>Node1&#45;&gt;Node13</title>
<path fill="none" stroke="midnightblue" d="M128.41,-71.74C145.86,-67.82 164.6,-63.61 181.37,-59.83"/>
<polygon fill="midnightblue" stroke="midnightblue" points="182.54,-63.16 191.53,-57.55 181,-56.33 182.54,-63.16"/>
</g>
<!-- Node14 -->
<g id="node14" class="node">
<title>Node14</title>
<g id="a_node14"><a xlink:href="rtapi_8h.html#a2432d36976ec87e60c9c92d3c0067182" target="_top" xlink:title=" ">
<polygon fill="white" stroke="black" points="188.5,-0.5 188.5,-19.5 281.5,-19.5 281.5,-0.5 188.5,-0.5"/>
<text text-anchor="middle" x="235" y="-7.5" font-family="Helvetica,sans-Serif" font-size="10.00">rtapi_print_msg</text>
</a>
</g>
</g>
<!-- Node1&#45;&gt;Node14 -->
<g id="edge20" class="edge">
<title>Node1&#45;&gt;Node14</title>
<path fill="none" stroke="midnightblue" d="M87.34,-70.9C106.87,-58.26 136.34,-40.49 164,-29 169.8,-26.59 176,-24.4 182.22,-22.43"/>
<polygon fill="midnightblue" stroke="midnightblue" points="183.37,-25.74 191.95,-19.53 181.37,-19.03 183.37,-25.74"/>
</g>
<!-- Node3 -->
<g id="node3" class="node">
<title>Node3</title>
<g id="a_node3"><a xlink:href="pokeyslib_2PoKeysLibCore_8c.html#acb1fdd8f77277dc66c4d037218bfcece" target="_top" xlink:title=" ">
<polygon fill="white" stroke="black" points="360.5,-76.5 360.5,-95.5 449.5,-95.5 449.5,-76.5 360.5,-76.5"/>
<text text-anchor="middle" x="405" y="-83.5" font-family="Helvetica,sans-Serif" font-size="10.00">CreateRequest</text>
</a>
</g>
</g>
<!-- Node2&#45;&gt;Node3 -->
<g id="edge2" class="edge">
<title>Node2&#45;&gt;Node3</title>
<path fill="none" stroke="midnightblue" d="M284.86,-152.46C292.22,-149.98 299.51,-146.88 306,-143 325.97,-131.06 322.23,-117.26 342,-105 345.4,-102.89 349.05,-101 352.82,-99.31"/>
<polygon fill="midnightblue" stroke="midnightblue" points="354.36,-102.47 362.35,-95.51 351.76,-95.97 354.36,-102.47"/>
</g>
<!-- Node4 -->
<g id="node4" class="node">
<title>Node4</title>
<g id="a_node4"><a xlink:href="pokeyslib_2PoKeysLibIO_8c.html#a4397536c30fe3f56eb74b56210839349" target="_top" xlink:title=" ">
<polygon fill="white" stroke="black" points="342,-152.5 342,-171.5 468,-171.5 468,-152.5 342,-152.5"/>
<text text-anchor="middle" x="405" y="-159.5" font-family="Helvetica,sans-Serif" font-size="10.00">PK_IsCounterAvailable</text>
</a>
</g>
</g>
<!-- Node2&#45;&gt;Node4 -->
<g id="edge3" class="edge">
<title>Node2&#45;&gt;Node4</title>
<path fill="none" stroke="midnightblue" d="M301.43,-162C311.28,-162 321.49,-162 331.47,-162"/>
<polygon fill="midnightblue" stroke="midnightblue" points="331.77,-165.5 341.77,-162 331.77,-158.5 331.77,-165.5"/>
</g>
<!-- Node5 -->
<g id="node5" class="node">
<title>Node5</title>
<g id="a_node5"><a xlink:href="pokeyslib_2PoKeysLibCore_8c.html#ab5d92aa36d0a4a6953a055f5cd960aff" target="_top" xlink:title=" ">
<polygon fill="white" stroke="black" points="365,-114.5 365,-133.5 445,-133.5 445,-114.5 365,-114.5"/>
<text text-anchor="middle" x="405" y="-121.5" font-family="Helvetica,sans-Serif" font-size="10.00">SendRequest</text>
</a>
</g>
</g>
<!-- Node2&#45;&gt;Node5 -->
<g id="edge4" class="edge">
<title>Node2&#45;&gt;Node5</title>
<path fill="none" stroke="midnightblue" d="M278.39,-152.41C301.61,-147.16 330.51,-140.62 354.73,-135.15"/>
<polygon fill="midnightblue" stroke="midnightblue" points="355.81,-138.49 364.79,-132.87 354.26,-131.66 355.81,-138.49"/>
</g>
<!-- Node6 -->
<g id="node6" class="node">
<title>Node6</title>
<g id="a_node6"><a xlink:href="pokeyslib_2PoKeysLibCore_8c.html#a273b6d635dea8f559b915cdb289d021e" target="_top" xlink:title=" ">
<polygon fill="white" stroke="black" points="645.5,-152.5 645.5,-171.5 728.5,-171.5 728.5,-152.5 645.5,-152.5"/>
<text text-anchor="middle" x="687" y="-159.5" font-family="Helvetica,sans-Serif" font-size="10.00">getChecksum</text>
</a>
</g>
</g>
<!-- Node5&#45;&gt;Node6 -->
<g id="edge5" class="edge">
<title>Node5&#45;&gt;Node6</title>
<path fill="none" stroke="midnightblue" d="M441.17,-133.52C450.04,-136.26 459.47,-139.48 468,-143 484.72,-149.9 486.44,-157.65 504,-162 547.31,-172.73 598.23,-171.62 635.17,-168.47"/>
<polygon fill="midnightblue" stroke="midnightblue" points="635.57,-171.95 645.2,-167.54 634.92,-164.98 635.57,-171.95"/>
</g>
<!-- Node7 -->
<g id="node7" class="node">
<title>Node7</title>
<g id="a_node7"><a xlink:href="group__API.html#ga6b820f3e72097cf7f994e33715dc7af1" target="_top" xlink:title="Read an Input report from a HID device.">
<polygon fill="white" stroke="black" points="522.5,-95.5 522.5,-114.5 581.5,-114.5 581.5,-95.5 522.5,-95.5"/>
<text text-anchor="middle" x="552" y="-102.5" font-family="Helvetica,sans-Serif" font-size="10.00">hid_read</text>
</a>
</g>
</g>
<!-- Node5&#45;&gt;Node7 -->
<g id="edge6" class="edge">
<title>Node5&#45;&gt;Node7</title>
<path fill="none" stroke="midnightblue" d="M445.24,-118.86C466.05,-116.13 491.52,-112.79 512.25,-110.08"/>
<polygon fill="midnightblue" stroke="midnightblue" points="512.85,-113.53 522.31,-108.76 511.94,-106.59 512.85,-113.53"/>
</g>
<!-- Node9 -->
<g id="node9" class="node">
<title>Node9</title>
<g id="a_node9"><a xlink:href="group__API.html#gad14ea48e440cf5066df87cc6488493af" target="_top" xlink:title="Write an Output report to a HID device.">
<polygon fill="white" stroke="black" points="521,-57.5 521,-76.5 583,-76.5 583,-57.5 521,-57.5"/>
<text text-anchor="middle" x="552" y="-64.5" font-family="Helvetica,sans-Serif" font-size="10.00">hid_write</text>
</a>
</g>
</g>
<!-- Node5&#45;&gt;Node9 -->
<g id="edge8" class="edge">
<title>Node5&#45;&gt;Node9</title>
<path fill="none" stroke="midnightblue" d="M441.17,-114.48C450.04,-111.74 459.47,-108.52 468,-105 484.72,-98.1 487.59,-93.62 504,-86 508.06,-84.11 512.36,-82.23 516.65,-80.41"/>
<polygon fill="midnightblue" stroke="midnightblue" points="518.01,-83.64 525.92,-76.59 515.34,-77.17 518.01,-83.64"/>
</g>
<!-- Node10 -->
<g id="node10" class="node">
<title>Node10</title>
<g id="a_node10"><a xlink:href="pokeyslib_2PoKeysLibCoreSockets_8c.html#a22759fb4024c9081af26ac1bc6541b47" target="_top" xlink:title=" ">
<polygon fill="white" stroke="black" points="504,-133.5 504,-152.5 600,-152.5 600,-133.5 504,-133.5"/>
<text text-anchor="middle" x="552" y="-140.5" font-family="Helvetica,sans-Serif" font-size="10.00">SendEthRequest</text>
</a>
</g>
</g>
<!-- Node5&#45;&gt;Node10 -->
<g id="edge9" class="edge">
<title>Node5&#45;&gt;Node10</title>
<path fill="none" stroke="midnightblue" d="M445.24,-129.14C460.24,-131.11 477.67,-133.39 494,-135.53"/>
<polygon fill="midnightblue" stroke="midnightblue" points="493.62,-139.01 503.99,-136.84 494.53,-132.07 493.62,-139.01"/>
</g>
<!-- Node8 -->
<g id="node8" class="node">
<title>Node8</title>
<g id="a_node8"><a xlink:href="group__API.html#gaa5c9ed5aa290688ffac03343989ad75a" target="_top" xlink:title="Read an Input report from a HID device with timeout.">
<polygon fill="white" stroke="black" points="636,-95.5 636,-114.5 738,-114.5 738,-95.5 636,-95.5"/>
<text text-anchor="middle" x="687" y="-102.5" font-family="Helvetica,sans-Serif" font-size="10.00">hid_read_timeout</text>
</a>
</g>
</g>
<!-- Node7&#45;&gt;Node8 -->
<g id="edge7" class="edge">
<title>Node7&#45;&gt;Node8</title>
<path fill="none" stroke="midnightblue" d="M581.53,-105C594.49,-105 610.35,-105 625.75,-105"/>
<polygon fill="midnightblue" stroke="midnightblue" points="625.77,-108.5 635.77,-105 625.77,-101.5 625.77,-108.5"/>
</g>
<!-- Node10&#45;&gt;Node6 -->
<g id="edge10" class="edge">
<title>Node10&#45;&gt;Node6</title>
<path fill="none" stroke="midnightblue" d="M600.27,-149.75C611.7,-151.39 623.96,-153.14 635.54,-154.79"/>
<polygon fill="midnightblue" stroke="midnightblue" points="635.1,-158.26 645.49,-156.21 636.09,-151.33 635.1,-158.26"/>
</g>
<!-- Node11&#45;&gt;Node3 -->
<g id="edge12" class="edge">
<title>Node11&#45;&gt;Node3</title>
<path fill="none" stroke="midnightblue" d="M278.39,-114.41C300.76,-109.35 328.4,-103.1 352.05,-97.75"/>
<polygon fill="midnightblue" stroke="midnightblue" points="352.93,-101.14 361.91,-95.52 351.39,-94.31 352.93,-101.14"/>
</g>
<!-- Node11&#45;&gt;Node5 -->
<g id="edge13" class="edge">
<title>Node11&#45;&gt;Node5</title>
<path fill="none" stroke="midnightblue" d="M300.95,-124C318.85,-124 337.96,-124 354.8,-124"/>
<polygon fill="midnightblue" stroke="midnightblue" points="354.96,-127.5 364.96,-124 354.96,-120.5 354.96,-127.5"/>
</g>
<!-- Node12&#45;&gt;Node3 -->
<g id="edge15" class="edge">
<title>Node12&#45;&gt;Node3</title>
<path fill="none" stroke="midnightblue" d="M306.27,-86C320.89,-86 336.08,-86 350,-86"/>
<polygon fill="midnightblue" stroke="midnightblue" points="350.37,-89.5 360.37,-86 350.37,-82.5 350.37,-89.5"/>
</g>
<!-- Node12&#45;&gt;Node5 -->
<g id="edge16" class="edge">
<title>Node12&#45;&gt;Node5</title>
<path fill="none" stroke="midnightblue" d="M278.39,-95.59C301.61,-100.84 330.51,-107.38 354.73,-112.85"/>
<polygon fill="midnightblue" stroke="midnightblue" points="354.26,-116.34 364.79,-115.13 355.81,-109.51 354.26,-116.34"/>
</g>
<!-- Node13&#45;&gt;Node3 -->
<g id="edge18" class="edge">
<title>Node13&#45;&gt;Node3</title>
<path fill="none" stroke="midnightblue" d="M278.39,-57.59C300.76,-62.65 328.4,-68.9 352.05,-74.25"/>
<polygon fill="midnightblue" stroke="midnightblue" points="351.39,-77.69 361.91,-76.48 352.93,-70.86 351.39,-77.69"/>
</g>
<!-- Node13&#45;&gt;Node5 -->
<g id="edge19" class="edge">
<title>Node13&#45;&gt;Node5</title>
<path fill="none" stroke="midnightblue" d="M284.86,-57.54C292.22,-60.02 299.51,-63.12 306,-67 325.97,-78.94 322.23,-92.74 342,-105 346.15,-107.57 350.67,-109.82 355.32,-111.77"/>
<polygon fill="midnightblue" stroke="midnightblue" points="354.37,-115.15 364.96,-115.39 356.83,-108.6 354.37,-115.15"/>
</g>
</g>
</svg>
        <g id="navigator" transform="translate(0 0)" fill="#404254">
                <rect fill="#f2f5e9" fill-opacity="0.5" stroke="#606060" stroke-width=".5" x="0" y="0" width="60" height="60"/>
                <use id="zoomplus" xlink:href="#zoomPlus" x="17" y="9" onmousedown="handleZoom(evt,'in')"/>
                <use id="zoomminus" xlink:href="#zoomMin" x="42" y="9" onmousedown="handleZoom(evt,'out')"/>
                <use id="reset" xlink:href="#resetDef" x="30" y="36" onmousedown="handleReset()"/>
                <g id="arrowUp" xlink:href="#dirArrow" transform="translate(30 24)" onmousedown="handlePan(0,-1)">
                  <use xlink:href="#rim" fill="#404040">
                        <set attributeName="fill" to="#808080" begin="arrowUp.mouseover" end="arrowUp.mouseout"/>
                  </use>
                  <path fill="none" stroke="white" stroke-width="1.5" d="M0,-3.0v7 M-2.5,-0.5L0,-3.0L2.5,-0.5"/>
                </g>
                <g id="arrowRight" xlink:href="#dirArrow" transform="rotate(90) translate(36 -43)" onmousedown="handlePan(1,0)">
                  <use xlink:href="#rim" fill="#404040">
                        <set attributeName="fill" to="#808080" begin="arrowRight.mouseover" end="arrowRight.mouseout"/>
                  </use>
                  <path fill="none" stroke="white" stroke-width="1.5" d="M0,-3.0v7 M-2.5,-0.5L0,-3.0L2.5,-0.5"/>
                </g>
                <g id="arrowDown" xlink:href="#dirArrow" transform="rotate(180) translate(-30 -48)" onmousedown="handlePan(0,1)">
                  <use xlink:href="#rim" fill="#404040">
                        <set attributeName="fill" to="#808080" begin="arrowDown.mouseover" end="arrowDown.mouseout"/>
                  </use>
                  <path fill="none" stroke="white" stroke-width="1.5" d="M0,-3.0v7 M-2.5,-0.5L0,-3.0L2.5,-0.5"/>
                </g>
                <g id="arrowLeft" xlink:href="#dirArrow" transform="rotate(270) translate(-36 17)" onmousedown="handlePan(-1,0)">
                  <use xlink:href="#rim" fill="#404040">
                        <set attributeName="fill" to="#808080" begin="arrowLeft.mouseover" end="arrowLeft.mouseout"/>
                  </use>
                  <path fill="none" stroke="white" stroke-width="1.5" d="M0,-3.0v7 M-2.5,-0.5L0,-3.0L2.5,-0.5"/>
                </g>
        </g>
        <svg viewBox="0 0 15 15" width="100%" height="30px" preserveAspectRatio="xMaxYMin meet">
         <g id="arrow_out" transform="scale(0.3 0.3)">
          <a xlink:href="group__hal__component__pokeys_ga96c96a5b1b2aaa10d97aa8426bee3840_cgraph_org.svg" target="_base">
           <rect id="button" ry="5" rx="5" y="6" x="6" height="38" width="38"
                fill="#f2f5e9" fill-opacity="0.5" stroke="#606060" stroke-width="1.0"/>
           <path id="arrow"
             d="M 11.500037,31.436501 C 11.940474,20.09759 22.043105,11.32322 32.158766,21.979434 L 37.068811,17.246167 C 37.068811,17.246167 37.088388,32 37.088388,32 L 22.160133,31.978069 C 22.160133,31.978069 26.997745,27.140456 26.997745,27.140456 C 18.528582,18.264221 13.291696,25.230495 11.500037,31.436501 z"
             style="fill:#404040;"/>
          </a>
         </g>
        </svg>
</svg>
