<?xml version="1.0" encoding="UTF-8" standalone="no"?>
<!DOCTYPE svg PUBLIC "-//W3C//DTD SVG 1.1//EN"
 "http://www.w3.org/Graphics/SVG/1.1/DTD/svg11.dtd">
<!-- Generated by graphviz version 2.43.0 (0)
 -->
<!-- Title: Set_BitOfByte Pages: 1 -->
<svg width="578pt" height="116pt"
 viewBox="0.00 0.00 578.00 115.50" xmlns="http://www.w3.org/2000/svg" xmlns:xlink="http://www.w3.org/1999/xlink">
<g id="graph0" class="graph" transform="scale(1 1) rotate(0) translate(4 111.5)">
<title>Set_BitOfByte</title>
<polygon fill="white" stroke="transparent" points="-4,4 -4,-111.5 574,-111.5 574,4 -4,4"/>
<!-- Node1 -->
<g id="node1" class="node">
<title>Node1</title>
<g id="a_node1"><a xlink:title="Sets or clears a specific bit in a byte.">
<polygon fill="#bfbfbf" stroke="black" points="485,-38.5 485,-57.5 570,-57.5 570,-38.5 485,-38.5"/>
<text text-anchor="middle" x="527.5" y="-45.5" font-family="Helvetica,sans-Serif" font-size="10.00">Set_BitOfByte</text>
</a>
</g>
</g>
<!-- Node2 -->
<g id="node2" class="node">
<title>Node2</title>
<g id="a_node2"><a xlink:href="group__hal__component__pokeys.html#gaa49f4d7037a22852892704ca050145f8" target="_top" xlink:title="Set the axis configuration of the PoKeys device.">
<polygon fill="white" stroke="black" points="295,-77 295,-107 449,-107 449,-77 295,-77"/>
<text text-anchor="start" x="303" y="-95" font-family="Helvetica,sans-Serif" font-size="10.00">PoKeysHALComponent</text>
<text text-anchor="middle" x="372" y="-84" font-family="Helvetica,sans-Serif" font-size="10.00">::PEv2_AxisConfigurationSet</text>
</a>
</g>
</g>
<!-- Node1&#45;&gt;Node2 -->
<g id="edge1" class="edge">
<title>Node1&#45;&gt;Node2</title>
<path fill="none" stroke="midnightblue" d="M483.55,-60.31C465.56,-65.47 444.47,-71.51 425.56,-76.93"/>
<polygon fill="midnightblue" stroke="midnightblue" points="484.54,-63.67 493.19,-57.55 482.62,-56.94 484.54,-63.67"/>
</g>
<!-- Node5 -->
<g id="node5" class="node">
<title>Node5</title>
<g id="a_node5"><a xlink:href="group__hal__component__pokeys.html#ga4e976815038ba03865cf99c59c1e7635" target="_top" xlink:title="Sets the state of external relay and open&#45;collector outputs on the PoKeys device.">
<polygon fill="white" stroke="black" points="302,-38.5 302,-57.5 442,-57.5 442,-38.5 302,-38.5"/>
<text text-anchor="middle" x="372" y="-45.5" font-family="Helvetica,sans-Serif" font-size="10.00">PEv2_ExternalOutputsSet</text>
</a>
</g>
</g>
<!-- Node1&#45;&gt;Node5 -->
<g id="edge4" class="edge">
<title>Node1&#45;&gt;Node5</title>
<path fill="none" stroke="midnightblue" d="M474.74,-48C464.25,-48 453.06,-48 442.08,-48"/>
<polygon fill="midnightblue" stroke="midnightblue" points="474.96,-51.5 484.96,-48 474.96,-44.5 474.96,-51.5"/>
</g>
<!-- Node6 -->
<g id="node6" class="node">
<title>Node6</title>
<g id="a_node6"><a xlink:href="group__hal__component__pokeys.html#gadd22880204794b8f9b9a6eafa4ed1d74" target="_top" xlink:title="Configures and applies Pulse Engine v2 settings to the PoKeys device.">
<polygon fill="white" stroke="black" points="305.5,-0.5 305.5,-19.5 438.5,-19.5 438.5,-0.5 305.5,-0.5"/>
<text text-anchor="middle" x="372" y="-7.5" font-family="Helvetica,sans-Serif" font-size="10.00">PEv2_PulseEngineSetup</text>
</a>
</g>
</g>
<!-- Node1&#45;&gt;Node6 -->
<g id="edge5" class="edge">
<title>Node1&#45;&gt;Node6</title>
<path fill="none" stroke="midnightblue" d="M477.86,-35.96C456.42,-30.65 431.58,-24.5 411.46,-19.52"/>
<polygon fill="midnightblue" stroke="midnightblue" points="477.22,-39.41 487.77,-38.41 478.9,-32.61 477.22,-39.41"/>
</g>
<!-- Node3 -->
<g id="node3" class="node">
<title>Node3</title>
<g id="a_node3"><a xlink:href="group__hal__component__pokeys.html#ga1fd300cd610e9545e58b62ffd50e474e" target="_top" xlink:title="Applies INI&#45;based configuration to PulseEngine and IO.">
<polygon fill="white" stroke="black" points="131,-77 131,-107 259,-107 259,-77 131,-77"/>
<text text-anchor="start" x="139" y="-95" font-family="Helvetica,sans-Serif" font-size="10.00">PoKeysHALComponent</text>
<text text-anchor="middle" x="195" y="-84" font-family="Helvetica,sans-Serif" font-size="10.00">::PKPEv2_Setup</text>
</a>
</g>
</g>
<!-- Node2&#45;&gt;Node3 -->
<g id="edge2" class="edge">
<title>Node2&#45;&gt;Node3</title>
<path fill="none" stroke="midnightblue" d="M284.68,-92C276.08,-92 267.46,-92 259.16,-92"/>
<polygon fill="midnightblue" stroke="midnightblue" points="284.75,-95.5 294.75,-92 284.75,-88.5 284.75,-95.5"/>
</g>
<!-- Node4 -->
<g id="node4" class="node">
<title>Node4</title>
<g id="a_node4"><a xlink:href="pokeys_8c.html#a1d59e212b57d33fe74e44b64cadf3314" target="_top" xlink:title=" ">
<polygon fill="white" stroke="black" points="0,-82.5 0,-101.5 95,-101.5 95,-82.5 0,-82.5"/>
<text text-anchor="middle" x="47.5" y="-89.5" font-family="Helvetica,sans-Serif" font-size="10.00">pokeys_read_ini</text>
</a>
</g>
</g>
<!-- Node3&#45;&gt;Node4 -->
<g id="edge3" class="edge">
<title>Node3&#45;&gt;Node4</title>
<path fill="none" stroke="midnightblue" d="M120.47,-92C111.82,-92 103.19,-92 95.06,-92"/>
<polygon fill="midnightblue" stroke="midnightblue" points="120.6,-95.5 130.6,-92 120.6,-88.5 120.6,-95.5"/>
</g>
</g>
</svg>
