<?xml version="1.0" encoding="UTF-8" standalone="no"?>
<!DOCTYPE svg PUBLIC "-//W3C//DTD SVG 1.1//EN"
 "http://www.w3.org/Graphics/SVG/1.1/DTD/svg11.dtd">
<!-- Generated by graphviz version 2.43.0 (0)
 -->
<!-- Title: PEv2_StatusGet Pages: 1 -->
<svg width="687pt" height="161pt"
 viewBox="0.00 0.00 687.00 161.00" xmlns="http://www.w3.org/2000/svg" xmlns:xlink="http://www.w3.org/1999/xlink">
<g id="graph0" class="graph" transform="scale(1 1) rotate(0) translate(4 157)">
<title>PEv2_StatusGet</title>
<polygon fill="white" stroke="transparent" points="-4,4 -4,-157 683,-157 683,4 -4,4"/>
<!-- Node1 -->
<g id="node1" class="node">
<title>Node1</title>
<g id="a_node1"><a xlink:title="Retrieves and processes the current status of the PoKeys Pulse Engine v2 (PEv2).">
<polygon fill="#bfbfbf" stroke="black" points="0,-76.5 0,-95.5 94,-95.5 94,-76.5 0,-76.5"/>
<text text-anchor="middle" x="47" y="-83.5" font-family="Helvetica,sans-Serif" font-size="10.00">PEv2_StatusGet</text>
</a>
</g>
</g>
<!-- Node2 -->
<g id="node2" class="node">
<title>Node2</title>
<g id="a_node2"><a xlink:href="pokeysHal_2PoKeysLibPulseEngine__v2_8c.html#a213445f67d5be94e76abcbfca950512d" target="_top" xlink:title="Retrieve pulse engine status.">
<polygon fill="white" stroke="black" points="130,-95.5 130,-114.5 242,-114.5 242,-95.5 130,-95.5"/>
<text text-anchor="middle" x="186" y="-102.5" font-family="Helvetica,sans-Serif" font-size="10.00">PK_PEv2_StatusGet</text>
</a>
</g>
</g>
<!-- Node1&#45;&gt;Node2 -->
<g id="edge1" class="edge">
<title>Node1&#45;&gt;Node2</title>
<path fill="none" stroke="midnightblue" d="M94,-92.38C102.27,-93.53 111.03,-94.74 119.72,-95.95"/>
<polygon fill="midnightblue" stroke="midnightblue" points="119.47,-99.45 129.86,-97.35 120.44,-92.51 119.47,-99.45"/>
</g>
<!-- Node11 -->
<g id="node11" class="node">
<title>Node11</title>
<g id="a_node11"><a xlink:href="rtapi_8h.html#a2432d36976ec87e60c9c92d3c0067182" target="_top" xlink:title=" ">
<polygon fill="white" stroke="black" points="139.5,-57.5 139.5,-76.5 232.5,-76.5 232.5,-57.5 139.5,-57.5"/>
<text text-anchor="middle" x="186" y="-64.5" font-family="Helvetica,sans-Serif" font-size="10.00">rtapi_print_msg</text>
</a>
</g>
</g>
<!-- Node1&#45;&gt;Node11 -->
<g id="edge11" class="edge">
<title>Node1&#45;&gt;Node11</title>
<path fill="none" stroke="midnightblue" d="M94,-79.62C105.3,-78.05 117.53,-76.36 129.23,-74.73"/>
<polygon fill="midnightblue" stroke="midnightblue" points="129.93,-78.17 139.35,-73.33 128.97,-71.24 129.93,-78.17"/>
</g>
<!-- Node3 -->
<g id="node3" class="node">
<title>Node3</title>
<g id="a_node3"><a xlink:href="pokeyslib_2PoKeysLibCore_8c.html#acb1fdd8f77277dc66c4d037218bfcece" target="_top" xlink:title=" ">
<polygon fill="white" stroke="black" points="299,-133.5 299,-152.5 388,-152.5 388,-133.5 299,-133.5"/>
<text text-anchor="middle" x="343.5" y="-140.5" font-family="Helvetica,sans-Serif" font-size="10.00">CreateRequest</text>
</a>
</g>
</g>
<!-- Node2&#45;&gt;Node3 -->
<g id="edge2" class="edge">
<title>Node2&#45;&gt;Node3</title>
<path fill="none" stroke="midnightblue" d="M226.24,-114.59C246.76,-119.6 272.07,-125.79 293.83,-131.11"/>
<polygon fill="midnightblue" stroke="midnightblue" points="293,-134.51 303.54,-133.48 294.66,-127.71 293,-134.51"/>
</g>
<!-- Node4 -->
<g id="node4" class="node">
<title>Node4</title>
<g id="a_node4"><a xlink:href="pokeyslib_2PoKeysLibPulseEngine__v2_8c.html#a1fc372b6ab3876c6ac0d1c3b36f43040" target="_top" xlink:title=" ">
<polygon fill="white" stroke="black" points="278,-95.5 278,-114.5 409,-114.5 409,-95.5 278,-95.5"/>
<text text-anchor="middle" x="343.5" y="-102.5" font-family="Helvetica,sans-Serif" font-size="10.00">PK_PEv2_DecodeStatus</text>
</a>
</g>
</g>
<!-- Node2&#45;&gt;Node4 -->
<g id="edge3" class="edge">
<title>Node2&#45;&gt;Node4</title>
<path fill="none" stroke="midnightblue" d="M242.26,-105C250.54,-105 259.2,-105 267.8,-105"/>
<polygon fill="midnightblue" stroke="midnightblue" points="267.86,-108.5 277.86,-105 267.86,-101.5 267.86,-108.5"/>
</g>
<!-- Node5 -->
<g id="node5" class="node">
<title>Node5</title>
<g id="a_node5"><a xlink:href="pokeyslib_2PoKeysLibCore_8c.html#ab5d92aa36d0a4a6953a055f5cd960aff" target="_top" xlink:title=" ">
<polygon fill="white" stroke="black" points="303.5,-57.5 303.5,-76.5 383.5,-76.5 383.5,-57.5 303.5,-57.5"/>
<text text-anchor="middle" x="343.5" y="-64.5" font-family="Helvetica,sans-Serif" font-size="10.00">SendRequest</text>
</a>
</g>
</g>
<!-- Node2&#45;&gt;Node5 -->
<g id="edge4" class="edge">
<title>Node2&#45;&gt;Node5</title>
<path fill="none" stroke="midnightblue" d="M226.24,-95.41C246.76,-90.4 272.07,-84.21 293.83,-78.89"/>
<polygon fill="midnightblue" stroke="midnightblue" points="294.66,-82.29 303.54,-76.52 293,-75.49 294.66,-82.29"/>
</g>
<!-- Node6 -->
<g id="node6" class="node">
<title>Node6</title>
<g id="a_node6"><a xlink:href="pokeyslib_2PoKeysLibCore_8c.html#a273b6d635dea8f559b915cdb289d021e" target="_top" xlink:title=" ">
<polygon fill="white" stroke="black" points="586.5,-38.5 586.5,-57.5 669.5,-57.5 669.5,-38.5 586.5,-38.5"/>
<text text-anchor="middle" x="628" y="-45.5" font-family="Helvetica,sans-Serif" font-size="10.00">getChecksum</text>
</a>
</g>
</g>
<!-- Node5&#45;&gt;Node6 -->
<g id="edge5" class="edge">
<title>Node5&#45;&gt;Node6</title>
<path fill="none" stroke="midnightblue" d="M383.78,-69.5C423.55,-71.44 486.74,-72.92 541,-67 554.57,-65.52 569.13,-62.76 582.34,-59.8"/>
<polygon fill="midnightblue" stroke="midnightblue" points="583.2,-63.19 592.14,-57.51 581.61,-56.37 583.2,-63.19"/>
</g>
<!-- Node7 -->
<g id="node7" class="node">
<title>Node7</title>
<g id="a_node7"><a xlink:href="group__API.html#ga6b820f3e72097cf7f994e33715dc7af1" target="_top" xlink:title="Read an Input report from a HID device.">
<polygon fill="white" stroke="black" points="463.5,-114.5 463.5,-133.5 522.5,-133.5 522.5,-114.5 463.5,-114.5"/>
<text text-anchor="middle" x="493" y="-121.5" font-family="Helvetica,sans-Serif" font-size="10.00">hid_read</text>
</a>
</g>
</g>
<!-- Node5&#45;&gt;Node7 -->
<g id="edge6" class="edge">
<title>Node5&#45;&gt;Node7</title>
<path fill="none" stroke="midnightblue" d="M380.29,-76.55C389.71,-79.34 399.82,-82.56 409,-86 427.68,-92.99 448.06,-102.29 463.95,-109.94"/>
<polygon fill="midnightblue" stroke="midnightblue" points="462.68,-113.22 473.21,-114.46 465.75,-106.93 462.68,-113.22"/>
</g>
<!-- Node9 -->
<g id="node9" class="node">
<title>Node9</title>
<g id="a_node9"><a xlink:href="group__API.html#gad14ea48e440cf5066df87cc6488493af" target="_top" xlink:title="Write an Output report to a HID device.">
<polygon fill="white" stroke="black" points="462,-38.5 462,-57.5 524,-57.5 524,-38.5 462,-38.5"/>
<text text-anchor="middle" x="493" y="-45.5" font-family="Helvetica,sans-Serif" font-size="10.00">hid_write</text>
</a>
</g>
</g>
<!-- Node5&#45;&gt;Node9 -->
<g id="edge8" class="edge">
<title>Node5&#45;&gt;Node9</title>
<path fill="none" stroke="midnightblue" d="M383.64,-61.96C404.62,-59.26 430.42,-55.93 451.59,-53.21"/>
<polygon fill="midnightblue" stroke="midnightblue" points="452.1,-56.67 461.57,-51.92 451.2,-49.73 452.1,-56.67"/>
</g>
<!-- Node10 -->
<g id="node10" class="node">
<title>Node10</title>
<g id="a_node10"><a xlink:href="pokeyslib_2PoKeysLibCoreSockets_8c.html#a22759fb4024c9081af26ac1bc6541b47" target="_top" xlink:title=" ">
<polygon fill="white" stroke="black" points="445,-0.5 445,-19.5 541,-19.5 541,-0.5 445,-0.5"/>
<text text-anchor="middle" x="493" y="-7.5" font-family="Helvetica,sans-Serif" font-size="10.00">SendEthRequest</text>
</a>
</g>
</g>
<!-- Node5&#45;&gt;Node10 -->
<g id="edge9" class="edge">
<title>Node5&#45;&gt;Node10</title>
<path fill="none" stroke="midnightblue" d="M369.19,-57.46C393.44,-48.09 430.64,-33.71 457.74,-23.24"/>
<polygon fill="midnightblue" stroke="midnightblue" points="459.17,-26.44 467.23,-19.57 456.64,-19.91 459.17,-26.44"/>
</g>
<!-- Node8 -->
<g id="node8" class="node">
<title>Node8</title>
<g id="a_node8"><a xlink:href="group__API.html#gaa5c9ed5aa290688ffac03343989ad75a" target="_top" xlink:title="Read an Input report from a HID device with timeout.">
<polygon fill="white" stroke="black" points="577,-114.5 577,-133.5 679,-133.5 679,-114.5 577,-114.5"/>
<text text-anchor="middle" x="628" y="-121.5" font-family="Helvetica,sans-Serif" font-size="10.00">hid_read_timeout</text>
</a>
</g>
</g>
<!-- Node7&#45;&gt;Node8 -->
<g id="edge7" class="edge">
<title>Node7&#45;&gt;Node8</title>
<path fill="none" stroke="midnightblue" d="M522.53,-124C535.49,-124 551.35,-124 566.75,-124"/>
<polygon fill="midnightblue" stroke="midnightblue" points="566.77,-127.5 576.77,-124 566.77,-120.5 566.77,-127.5"/>
</g>
<!-- Node10&#45;&gt;Node6 -->
<g id="edge10" class="edge">
<title>Node10&#45;&gt;Node6</title>
<path fill="none" stroke="midnightblue" d="M527.56,-19.59C544.57,-24.45 565.43,-30.41 583.64,-35.61"/>
<polygon fill="midnightblue" stroke="midnightblue" points="582.87,-39.03 593.45,-38.41 584.8,-32.3 582.87,-39.03"/>
</g>
</g>
</svg>
