<?xml version="1.0" encoding="UTF-8" standalone="no"?>
<!DOCTYPE svg PUBLIC "-//W3C//DTD SVG 1.1//EN"
 "http://www.w3.org/Graphics/SVG/1.1/DTD/svg11.dtd">
<!-- Generated by graphviz version 2.43.0 (0)
 -->
<!-- Title: PoKeysHALComponent::PKPEv2_Update Pages: 1 -->
<!--zoomable 142 -->
<svg id="main" version="1.1" xmlns="http://www.w3.org/2000/svg" xmlns:xlink="http://www.w3.org/1999/xlink" xml:space="preserve" onload="init(evt)">
<style type="text/css"><![CDATA[
.edge:hover path { stroke: red; }
.edge:hover polygon { stroke: red; fill: red; }
]]></style>
<script type="text/javascript"><![CDATA[
var edges = document.getElementsByTagName('g');
if (edges && edges.length) {
  for (var i=0;i<edges.length;i++) {
    if (edges[i].id.substr(0,4)=='edge') {
      edges[i].setAttribute('class','edge');
    }
  }
}
]]></script>
        <defs>
                <circle id="rim" cx="0" cy="0" r="7"/>
                <circle id="rim2" cx="0" cy="0" r="3.5"/>
                <g id="zoomPlus">
                        <use xlink:href="#rim" fill="#404040">
                                <set attributeName="fill" to="#808080" begin="zoomplus.mouseover" end="zoomplus.mouseout"/>
                        </use>
                        <path d="M-4,0h8M0,-4v8" fill="none" stroke="white" stroke-width="1.5" pointer-events="none"/>
                </g>
                <g id="zoomMin">
                        <use xlink:href="#rim" fill="#404040">
                                <set attributeName="fill" to="#808080" begin="zoomminus.mouseover" end="zoomminus.mouseout"/>
                        </use>
                        <path d="M-4,0h8" fill="none" stroke="white" stroke-width="1.5" pointer-events="none"/>
                </g>
                <g id="dirArrow">
                        <path fill="none" stroke="white" stroke-width="1.5" d="M0,-3.0v7 M-2.5,-0.5L0,-3.0L2.5,-0.5"/>
                </g>
               <g id="resetDef">
                       <use xlink:href="#rim2" fill="#404040">
                               <set attributeName="fill" to="#808080" begin="reset.mouseover" end="reset.mouseout"/>
                       </use>
               </g>
        </defs>

<script type="text/javascript">
var viewWidth = 863;
var viewHeight = 142;
var sectionId = 'dynsection-34';
</script>
<script xlink:href="svgpan.js"/>
<svg id="graph" class="graph">
<g id="viewport">
<title>PoKeysHALComponent::PKPEv2_Update</title>
<polygon fill="white" stroke="transparent" points="-4,4 -4,-138 859,-138 859,4 -4,4"/>
<!-- Node1 -->
<g id="node1" class="node">
<title>Node1</title>
<g id="a_node1"><a xlink:title="Updates PulseEngine feedback and status.">
<polygon fill="#bfbfbf" stroke="black" points="0,-33 0,-63 128,-63 128,-33 0,-33"/>
<text text-anchor="start" x="8" y="-51" font-family="Helvetica,sans-Serif" font-size="10.00">PoKeysHALComponent</text>
<text text-anchor="middle" x="64" y="-40" font-family="Helvetica,sans-Serif" font-size="10.00">::PKPEv2_Update</text>
</a>
</g>
</g>
<!-- Node2 -->
<g id="node2" class="node">
<title>Node2</title>
<g id="a_node2"><a xlink:href="group__hal__component__pokeys.html#gad0b4254d4beb35bce80cf4a89199b554" target="_top" xlink:title="Reads and updates the state of dedicated limit and home inputs from the PoKeys Pulse Engine v2.">
<polygon fill="white" stroke="black" points="164,-76.5 164,-95.5 264,-95.5 264,-76.5 164,-76.5"/>
<text text-anchor="middle" x="214" y="-83.5" font-family="Helvetica,sans-Serif" font-size="10.00">PEv2_Status2Get</text>
</a>
</g>
</g>
<!-- Node1&#45;&gt;Node2 -->
<g id="edge1" class="edge">
<title>Node1&#45;&gt;Node2</title>
<path fill="none" stroke="midnightblue" d="M123.49,-63.02C137.53,-66.62 152.35,-70.43 165.8,-73.88"/>
<polygon fill="midnightblue" stroke="midnightblue" points="165.22,-77.35 175.78,-76.44 166.96,-70.57 165.22,-77.35"/>
</g>
<!-- Node12 -->
<g id="node12" class="node">
<title>Node12</title>
<g id="a_node12"><a xlink:href="rtapi_8h.html#a2432d36976ec87e60c9c92d3c0067182" target="_top" xlink:title=" ">
<polygon fill="white" stroke="black" points="312.5,-38.5 312.5,-57.5 405.5,-57.5 405.5,-38.5 312.5,-38.5"/>
<text text-anchor="middle" x="359" y="-45.5" font-family="Helvetica,sans-Serif" font-size="10.00">rtapi_print_msg</text>
</a>
</g>
</g>
<!-- Node1&#45;&gt;Node12 -->
<g id="edge19" class="edge">
<title>Node1&#45;&gt;Node12</title>
<path fill="none" stroke="midnightblue" d="M128.22,-48C179.89,-48 252.26,-48 301.9,-48"/>
<polygon fill="midnightblue" stroke="midnightblue" points="302.13,-51.5 312.13,-48 302.13,-44.5 302.13,-51.5"/>
</g>
<!-- Node13 -->
<g id="node13" class="node">
<title>Node13</title>
<g id="a_node13"><a xlink:href="group__hal__component__pokeys.html#ga1cd78f86e93af262648c35386373cf3c" target="_top" xlink:title="Retrieves and processes the current status of the PoKeys Pulse Engine v2 (PEv2).">
<polygon fill="white" stroke="black" points="167,-0.5 167,-19.5 261,-19.5 261,-0.5 167,-0.5"/>
<text text-anchor="middle" x="214" y="-7.5" font-family="Helvetica,sans-Serif" font-size="10.00">PEv2_StatusGet</text>
</a>
</g>
</g>
<!-- Node1&#45;&gt;Node13 -->
<g id="edge13" class="edge">
<title>Node1&#45;&gt;Node13</title>
<path fill="none" stroke="midnightblue" d="M123.49,-32.98C137.53,-29.38 152.35,-25.57 165.8,-22.12"/>
<polygon fill="midnightblue" stroke="midnightblue" points="166.96,-25.43 175.78,-19.56 165.22,-18.65 166.96,-25.43"/>
</g>
<!-- Node3 -->
<g id="node3" class="node">
<title>Node3</title>
<g id="a_node3"><a xlink:href="group__hal__component__pokeys.html#gaacbe6bf27e2657b69cbd0a4f79140e2d" target="_top" xlink:title="Retrieves the value of a specific bit in a byte.">
<polygon fill="white" stroke="black" points="316,-114.5 316,-133.5 402,-133.5 402,-114.5 316,-114.5"/>
<text text-anchor="middle" x="359" y="-121.5" font-family="Helvetica,sans-Serif" font-size="10.00">Get_BitOfByte</text>
</a>
</g>
</g>
<!-- Node2&#45;&gt;Node3 -->
<g id="edge2" class="edge">
<title>Node2&#45;&gt;Node3</title>
<path fill="none" stroke="midnightblue" d="M251.08,-95.59C269.63,-100.52 292.43,-106.57 312.2,-111.83"/>
<polygon fill="midnightblue" stroke="midnightblue" points="311.36,-115.23 321.93,-114.41 313.16,-108.46 311.36,-115.23"/>
</g>
<!-- Node4 -->
<g id="node4" class="node">
<title>Node4</title>
<g id="a_node4"><a xlink:href="pokeysHal_2PoKeysLibPulseEngine__v2_8c.html#a5cbfd274854dfee2aa6a756c86896939" target="_top" xlink:title="Obtain extended status information.">
<polygon fill="white" stroke="black" points="300,-76.5 300,-95.5 418,-95.5 418,-76.5 300,-76.5"/>
<text text-anchor="middle" x="359" y="-83.5" font-family="Helvetica,sans-Serif" font-size="10.00">PK_PEv2_Status2Get</text>
</a>
</g>
</g>
<!-- Node2&#45;&gt;Node4 -->
<g id="edge3" class="edge">
<title>Node2&#45;&gt;Node4</title>
<path fill="none" stroke="midnightblue" d="M264.21,-86C272.46,-86 281.14,-86 289.76,-86"/>
<polygon fill="midnightblue" stroke="midnightblue" points="289.83,-89.5 299.83,-86 289.83,-82.5 289.83,-89.5"/>
</g>
<!-- Node2&#45;&gt;Node12 -->
<g id="edge12" class="edge">
<title>Node2&#45;&gt;Node12</title>
<path fill="none" stroke="midnightblue" d="M251.08,-76.41C269.63,-71.48 292.43,-65.43 312.2,-60.17"/>
<polygon fill="midnightblue" stroke="midnightblue" points="313.16,-63.54 321.93,-57.59 311.36,-56.77 313.16,-63.54"/>
</g>
<!-- Node5 -->
<g id="node5" class="node">
<title>Node5</title>
<g id="a_node5"><a xlink:href="pokeyslib_2PoKeysLibCore_8c.html#acb1fdd8f77277dc66c4d037218bfcece" target="_top" xlink:title=" ">
<polygon fill="white" stroke="black" points="475,-38.5 475,-57.5 564,-57.5 564,-38.5 475,-38.5"/>
<text text-anchor="middle" x="519.5" y="-45.5" font-family="Helvetica,sans-Serif" font-size="10.00">CreateRequest</text>
</a>
</g>
</g>
<!-- Node4&#45;&gt;Node5 -->
<g id="edge4" class="edge">
<title>Node4&#45;&gt;Node5</title>
<path fill="none" stroke="midnightblue" d="M400,-76.41C420.91,-71.4 446.71,-65.21 468.89,-59.89"/>
<polygon fill="midnightblue" stroke="midnightblue" points="469.88,-63.26 478.79,-57.52 468.25,-56.45 469.88,-63.26"/>
</g>
<!-- Node6 -->
<g id="node6" class="node">
<title>Node6</title>
<g id="a_node6"><a xlink:href="pokeyslib_2PoKeysLibCore_8c.html#ab5d92aa36d0a4a6953a055f5cd960aff" target="_top" xlink:title=" ">
<polygon fill="white" stroke="black" points="479.5,-76.5 479.5,-95.5 559.5,-95.5 559.5,-76.5 479.5,-76.5"/>
<text text-anchor="middle" x="519.5" y="-83.5" font-family="Helvetica,sans-Serif" font-size="10.00">SendRequest</text>
</a>
</g>
</g>
<!-- Node4&#45;&gt;Node6 -->
<g id="edge5" class="edge">
<title>Node4&#45;&gt;Node6</title>
<path fill="none" stroke="midnightblue" d="M418.12,-86C434.79,-86 452.8,-86 468.91,-86"/>
<polygon fill="midnightblue" stroke="midnightblue" points="469.18,-89.5 479.18,-86 469.18,-82.5 469.18,-89.5"/>
</g>
<!-- Node7 -->
<g id="node7" class="node">
<title>Node7</title>
<g id="a_node7"><a xlink:href="pokeyslib_2PoKeysLibCore_8c.html#a273b6d635dea8f559b915cdb289d021e" target="_top" xlink:title=" ">
<polygon fill="white" stroke="black" points="762.5,-114.5 762.5,-133.5 845.5,-133.5 845.5,-114.5 762.5,-114.5"/>
<text text-anchor="middle" x="804" y="-121.5" font-family="Helvetica,sans-Serif" font-size="10.00">getChecksum</text>
</a>
</g>
</g>
<!-- Node6&#45;&gt;Node7 -->
<g id="edge6" class="edge">
<title>Node6&#45;&gt;Node7</title>
<path fill="none" stroke="midnightblue" d="M539.54,-95.58C559.32,-104.96 591.46,-118.6 621,-124 664.75,-132 715.42,-131.2 752.16,-128.86"/>
<polygon fill="midnightblue" stroke="midnightblue" points="752.41,-132.35 762.14,-128.17 751.92,-125.37 752.41,-132.35"/>
</g>
<!-- Node8 -->
<g id="node8" class="node">
<title>Node8</title>
<g id="a_node8"><a xlink:href="group__API.html#ga6b820f3e72097cf7f994e33715dc7af1" target="_top" xlink:title="Read an Input report from a HID device.">
<polygon fill="white" stroke="black" points="639.5,-57.5 639.5,-76.5 698.5,-76.5 698.5,-57.5 639.5,-57.5"/>
<text text-anchor="middle" x="669" y="-64.5" font-family="Helvetica,sans-Serif" font-size="10.00">hid_read</text>
</a>
</g>
</g>
<!-- Node6&#45;&gt;Node8 -->
<g id="edge7" class="edge">
<title>Node6&#45;&gt;Node8</title>
<path fill="none" stroke="midnightblue" d="M559.64,-80.96C581.2,-78.18 607.87,-74.75 629.36,-71.98"/>
<polygon fill="midnightblue" stroke="midnightblue" points="629.97,-75.43 639.44,-70.68 629.08,-68.49 629.97,-75.43"/>
</g>
<!-- Node10 -->
<g id="node10" class="node">
<title>Node10</title>
<g id="a_node10"><a xlink:href="group__API.html#gad14ea48e440cf5066df87cc6488493af" target="_top" xlink:title="Write an Output report to a HID device.">
<polygon fill="white" stroke="black" points="638,-19.5 638,-38.5 700,-38.5 700,-19.5 638,-19.5"/>
<text text-anchor="middle" x="669" y="-26.5" font-family="Helvetica,sans-Serif" font-size="10.00">hid_write</text>
</a>
</g>
</g>
<!-- Node6&#45;&gt;Node10 -->
<g id="edge9" class="edge">
<title>Node6&#45;&gt;Node10</title>
<path fill="none" stroke="midnightblue" d="M557.43,-76.49C566.57,-73.77 576.24,-70.56 585,-67 601.76,-60.19 604.59,-55.62 621,-48 625.06,-46.11 629.36,-44.23 633.65,-42.41"/>
<polygon fill="midnightblue" stroke="midnightblue" points="635.01,-45.64 642.92,-38.59 632.34,-39.17 635.01,-45.64"/>
</g>
<!-- Node11 -->
<g id="node11" class="node">
<title>Node11</title>
<g id="a_node11"><a xlink:href="pokeyslib_2PoKeysLibCoreSockets_8c.html#a22759fb4024c9081af26ac1bc6541b47" target="_top" xlink:title=" ">
<polygon fill="white" stroke="black" points="621,-95.5 621,-114.5 717,-114.5 717,-95.5 621,-95.5"/>
<text text-anchor="middle" x="669" y="-102.5" font-family="Helvetica,sans-Serif" font-size="10.00">SendEthRequest</text>
</a>
</g>
</g>
<!-- Node6&#45;&gt;Node11 -->
<g id="edge10" class="edge">
<title>Node6&#45;&gt;Node11</title>
<path fill="none" stroke="midnightblue" d="M559.64,-91.04C575.19,-93.04 593.39,-95.39 610.39,-97.58"/>
<polygon fill="midnightblue" stroke="midnightblue" points="610.42,-101.11 620.79,-98.92 611.32,-94.17 610.42,-101.11"/>
</g>
<!-- Node9 -->
<g id="node9" class="node">
<title>Node9</title>
<g id="a_node9"><a xlink:href="group__API.html#gaa5c9ed5aa290688ffac03343989ad75a" target="_top" xlink:title="Read an Input report from a HID device with timeout.">
<polygon fill="white" stroke="black" points="753,-57.5 753,-76.5 855,-76.5 855,-57.5 753,-57.5"/>
<text text-anchor="middle" x="804" y="-64.5" font-family="Helvetica,sans-Serif" font-size="10.00">hid_read_timeout</text>
</a>
</g>
</g>
<!-- Node8&#45;&gt;Node9 -->
<g id="edge8" class="edge">
<title>Node8&#45;&gt;Node9</title>
<path fill="none" stroke="midnightblue" d="M698.53,-67C711.49,-67 727.35,-67 742.75,-67"/>
<polygon fill="midnightblue" stroke="midnightblue" points="742.77,-70.5 752.77,-67 742.77,-63.5 742.77,-70.5"/>
</g>
<!-- Node11&#45;&gt;Node7 -->
<g id="edge11" class="edge">
<title>Node11&#45;&gt;Node7</title>
<path fill="none" stroke="midnightblue" d="M717.27,-111.75C728.7,-113.39 740.96,-115.14 752.54,-116.79"/>
<polygon fill="midnightblue" stroke="midnightblue" points="752.1,-120.26 762.49,-118.21 753.09,-113.33 752.1,-120.26"/>
</g>
<!-- Node13&#45;&gt;Node12 -->
<g id="edge18" class="edge">
<title>Node13&#45;&gt;Node12</title>
<path fill="none" stroke="midnightblue" d="M251.08,-19.59C269.63,-24.52 292.43,-30.57 312.2,-35.83"/>
<polygon fill="midnightblue" stroke="midnightblue" points="311.36,-39.23 321.93,-38.41 313.16,-32.46 311.36,-39.23"/>
</g>
<!-- Node14 -->
<g id="node14" class="node">
<title>Node14</title>
<g id="a_node14"><a xlink:href="pokeysHal_2PoKeysLibPulseEngine__v2_8c.html#a213445f67d5be94e76abcbfca950512d" target="_top" xlink:title="Retrieve pulse engine status.">
<polygon fill="white" stroke="black" points="303,-0.5 303,-19.5 415,-19.5 415,-0.5 303,-0.5"/>
<text text-anchor="middle" x="359" y="-7.5" font-family="Helvetica,sans-Serif" font-size="10.00">PK_PEv2_StatusGet</text>
</a>
</g>
</g>
<!-- Node13&#45;&gt;Node14 -->
<g id="edge14" class="edge">
<title>Node13&#45;&gt;Node14</title>
<path fill="none" stroke="midnightblue" d="M261.03,-10C271.12,-10 281.98,-10 292.66,-10"/>
<polygon fill="midnightblue" stroke="midnightblue" points="292.81,-13.5 302.81,-10 292.81,-6.5 292.81,-13.5"/>
</g>
<!-- Node14&#45;&gt;Node5 -->
<g id="edge15" class="edge">
<title>Node14&#45;&gt;Node5</title>
<path fill="none" stroke="midnightblue" d="M400,-19.59C420.91,-24.6 446.71,-30.79 468.89,-36.11"/>
<polygon fill="midnightblue" stroke="midnightblue" points="468.25,-39.55 478.79,-38.48 469.88,-32.74 468.25,-39.55"/>
</g>
<!-- Node14&#45;&gt;Node6 -->
<g id="edge17" class="edge">
<title>Node14&#45;&gt;Node6</title>
<path fill="none" stroke="midnightblue" d="M398.35,-19.57C405.17,-22.09 412,-25.2 418,-29 437.66,-41.45 434.16,-54.85 454,-67 458.79,-69.93 464.06,-72.44 469.46,-74.57"/>
<polygon fill="midnightblue" stroke="midnightblue" points="468.64,-77.99 479.24,-78.01 470.97,-71.39 468.64,-77.99"/>
</g>
<!-- Node15 -->
<g id="node15" class="node">
<title>Node15</title>
<g id="a_node15"><a xlink:href="pokeyslib_2PoKeysLibPulseEngine__v2_8c.html#a1fc372b6ab3876c6ac0d1c3b36f43040" target="_top" xlink:title=" ">
<polygon fill="white" stroke="black" points="454,-0.5 454,-19.5 585,-19.5 585,-0.5 454,-0.5"/>
<text text-anchor="middle" x="519.5" y="-7.5" font-family="Helvetica,sans-Serif" font-size="10.00">PK_PEv2_DecodeStatus</text>
</a>
</g>
</g>
<!-- Node14&#45;&gt;Node15 -->
<g id="edge16" class="edge">
<title>Node14&#45;&gt;Node15</title>
<path fill="none" stroke="midnightblue" d="M415.44,-10C424.55,-10 434.12,-10 443.62,-10"/>
<polygon fill="midnightblue" stroke="midnightblue" points="443.86,-13.5 453.86,-10 443.86,-6.5 443.86,-13.5"/>
</g>
</g>
</svg>
        <g id="navigator" transform="translate(0 0)" fill="#404254">
                <rect fill="#f2f5e9" fill-opacity="0.5" stroke="#606060" stroke-width=".5" x="0" y="0" width="60" height="60"/>
                <use id="zoomplus" xlink:href="#zoomPlus" x="17" y="9" onmousedown="handleZoom(evt,'in')"/>
                <use id="zoomminus" xlink:href="#zoomMin" x="42" y="9" onmousedown="handleZoom(evt,'out')"/>
                <use id="reset" xlink:href="#resetDef" x="30" y="36" onmousedown="handleReset()"/>
                <g id="arrowUp" xlink:href="#dirArrow" transform="translate(30 24)" onmousedown="handlePan(0,-1)">
                  <use xlink:href="#rim" fill="#404040">
                        <set attributeName="fill" to="#808080" begin="arrowUp.mouseover" end="arrowUp.mouseout"/>
                  </use>
                  <path fill="none" stroke="white" stroke-width="1.5" d="M0,-3.0v7 M-2.5,-0.5L0,-3.0L2.5,-0.5"/>
                </g>
                <g id="arrowRight" xlink:href="#dirArrow" transform="rotate(90) translate(36 -43)" onmousedown="handlePan(1,0)">
                  <use xlink:href="#rim" fill="#404040">
                        <set attributeName="fill" to="#808080" begin="arrowRight.mouseover" end="arrowRight.mouseout"/>
                  </use>
                  <path fill="none" stroke="white" stroke-width="1.5" d="M0,-3.0v7 M-2.5,-0.5L0,-3.0L2.5,-0.5"/>
                </g>
                <g id="arrowDown" xlink:href="#dirArrow" transform="rotate(180) translate(-30 -48)" onmousedown="handlePan(0,1)">
                  <use xlink:href="#rim" fill="#404040">
                        <set attributeName="fill" to="#808080" begin="arrowDown.mouseover" end="arrowDown.mouseout"/>
                  </use>
                  <path fill="none" stroke="white" stroke-width="1.5" d="M0,-3.0v7 M-2.5,-0.5L0,-3.0L2.5,-0.5"/>
                </g>
                <g id="arrowLeft" xlink:href="#dirArrow" transform="rotate(270) translate(-36 17)" onmousedown="handlePan(-1,0)">
                  <use xlink:href="#rim" fill="#404040">
                        <set attributeName="fill" to="#808080" begin="arrowLeft.mouseover" end="arrowLeft.mouseout"/>
                  </use>
                  <path fill="none" stroke="white" stroke-width="1.5" d="M0,-3.0v7 M-2.5,-0.5L0,-3.0L2.5,-0.5"/>
                </g>
        </g>
        <svg viewBox="0 0 15 15" width="100%" height="30px" preserveAspectRatio="xMaxYMin meet">
         <g id="arrow_out" transform="scale(0.3 0.3)">
          <a xlink:href="group__hal__component__pokeys_ga11eaeb83988c4e23fca22c07885baf31_cgraph_org.svg" target="_base">
           <rect id="button" ry="5" rx="5" y="6" x="6" height="38" width="38"
                fill="#f2f5e9" fill-opacity="0.5" stroke="#606060" stroke-width="1.0"/>
           <path id="arrow"
             d="M 11.500037,31.436501 C 11.940474,20.09759 22.043105,11.32322 32.158766,21.979434 L 37.068811,17.246167 C 37.068811,17.246167 37.088388,32 37.088388,32 L 22.160133,31.978069 C 22.160133,31.978069 26.997745,27.140456 26.997745,27.140456 C 18.528582,18.264221 13.291696,25.230495 11.500037,31.436501 z"
             style="fill:#404040;"/>
          </a>
         </g>
        </svg>
</svg>
