<?xml version="1.0" encoding="UTF-8" standalone="no"?>
<!DOCTYPE svg PUBLIC "-//W3C//DTD SVG 1.1//EN"
 "http://www.w3.org/Graphics/SVG/1.1/DTD/svg11.dtd">
<!-- Generated by graphviz version 2.43.0 (0)
 -->
<!-- Title: hid_open_path Pages: 1 -->
<!--zoomable 154 -->
<svg id="main" version="1.1" xmlns="http://www.w3.org/2000/svg" xmlns:xlink="http://www.w3.org/1999/xlink" xml:space="preserve" onload="init(evt)">
<style type="text/css"><![CDATA[
.edge:hover path { stroke: red; }
.edge:hover polygon { stroke: red; fill: red; }
]]></style>
<script type="text/javascript"><![CDATA[
var edges = document.getElementsByTagName('g');
if (edges && edges.length) {
  for (var i=0;i<edges.length;i++) {
    if (edges[i].id.substr(0,4)=='edge') {
      edges[i].setAttribute('class','edge');
    }
  }
}
]]></script>
        <defs>
                <circle id="rim" cx="0" cy="0" r="7"/>
                <circle id="rim2" cx="0" cy="0" r="3.5"/>
                <g id="zoomPlus">
                        <use xlink:href="#rim" fill="#404040">
                                <set attributeName="fill" to="#808080" begin="zoomplus.mouseover" end="zoomplus.mouseout"/>
                        </use>
                        <path d="M-4,0h8M0,-4v8" fill="none" stroke="white" stroke-width="1.5" pointer-events="none"/>
                </g>
                <g id="zoomMin">
                        <use xlink:href="#rim" fill="#404040">
                                <set attributeName="fill" to="#808080" begin="zoomminus.mouseover" end="zoomminus.mouseout"/>
                        </use>
                        <path d="M-4,0h8" fill="none" stroke="white" stroke-width="1.5" pointer-events="none"/>
                </g>
                <g id="dirArrow">
                        <path fill="none" stroke="white" stroke-width="1.5" d="M0,-3.0v7 M-2.5,-0.5L0,-3.0L2.5,-0.5"/>
                </g>
               <g id="resetDef">
                       <use xlink:href="#rim2" fill="#404040">
                               <set attributeName="fill" to="#808080" begin="reset.mouseover" end="reset.mouseout"/>
                       </use>
               </g>
        </defs>

<script type="text/javascript">
var viewWidth = 719;
var viewHeight = 154;
var sectionId = 'dynsection-10';
</script>
<script xlink:href="svgpan.js"/>
<svg id="graph" class="graph">
<g id="viewport">
<title>hid_open_path</title>
<polygon fill="white" stroke="transparent" points="-4,4 -4,-149.5 715,-149.5 715,4 -4,4"/>
<!-- Node1 -->
<g id="node1" class="node">
<title>Node1</title>
<g id="a_node1"><a xlink:title="Open a HID device by its path name.">
<polygon fill="#bfbfbf" stroke="black" points="623,-69 623,-88 711,-88 711,-69 623,-69"/>
<text text-anchor="middle" x="667" y="-76" font-family="Helvetica,sans-Serif" font-size="10.00">hid_open_path</text>
</a>
</g>
</g>
<!-- Node2 -->
<g id="node2" class="node">
<title>Node2</title>
<g id="a_node2"><a xlink:href="PoKeysLibCoreAsync_8c.html#a4a4450280f6d34ac5495f34bad644f83" target="_top" xlink:title=" ">
<polygon fill="white" stroke="black" points="438,-126 438,-145 557,-145 557,-126 438,-126"/>
<text text-anchor="middle" x="497.5" y="-133" font-family="Helvetica,sans-Serif" font-size="10.00">PK_ConnectToDevice</text>
</a>
</g>
</g>
<!-- Node1&#45;&gt;Node2 -->
<g id="edge1" class="edge">
<title>Node1&#45;&gt;Node2</title>
<path fill="none" stroke="midnightblue" d="M640.02,-92.93C624.92,-100.82 605.31,-110.23 587,-116.5 576.15,-120.22 564.29,-123.36 552.88,-125.95"/>
<polygon fill="midnightblue" stroke="midnightblue" points="642.06,-95.8 649.23,-88.01 638.76,-89.63 642.06,-95.8"/>
</g>
<!-- Node4 -->
<g id="node4" class="node">
<title>Node4</title>
<g id="a_node4"><a xlink:href="PoKeysLibCoreAsync_8c.html#a69c51cb8610e4f5b3e5ca7ec8e8d7ce2" target="_top" xlink:title=" ">
<polygon fill="white" stroke="black" points="423.5,-88 423.5,-107 571.5,-107 571.5,-88 423.5,-88"/>
<text text-anchor="middle" x="497.5" y="-95" font-family="Helvetica,sans-Serif" font-size="10.00">PK_ConnectToDeviceAsync</text>
</a>
</g>
</g>
<!-- Node1&#45;&gt;Node4 -->
<g id="edge3" class="edge">
<title>Node1&#45;&gt;Node4</title>
<path fill="none" stroke="midnightblue" d="M612.69,-84.55C599.66,-86.03 585.49,-87.63 571.7,-89.2"/>
<polygon fill="midnightblue" stroke="midnightblue" points="613.32,-88 622.86,-83.39 612.53,-81.04 613.32,-88"/>
</g>
<!-- Node5 -->
<g id="node5" class="node">
<title>Node5</title>
<g id="a_node5"><a xlink:href="PoKeysLibCoreAsync_8c.html#ae21a3349787cf1f1150186e4858397e6" target="_top" xlink:title=" ">
<polygon fill="white" stroke="black" points="408,-50 408,-69 587,-69 587,-50 408,-50"/>
<text text-anchor="middle" x="497.5" y="-57" font-family="Helvetica,sans-Serif" font-size="10.00">PK_ConnectToPoKeysDevice_USB</text>
</a>
</g>
</g>
<!-- Node1&#45;&gt;Node5 -->
<g id="edge4" class="edge">
<title>Node1&#45;&gt;Node5</title>
<path fill="none" stroke="midnightblue" d="M612.67,-72.45C603.03,-71.36 592.77,-70.19 582.5,-69.03"/>
<polygon fill="midnightblue" stroke="midnightblue" points="612.53,-75.96 622.86,-73.61 613.32,-69 612.53,-75.96"/>
</g>
<!-- Node9 -->
<g id="node9" class="node">
<title>Node9</title>
<g id="a_node9"><a xlink:href="PoKeysLibCoreAsync_8c.html#afb629f72217e5d0568b204b21253f8a0" target="_top" xlink:title=" ">
<polygon fill="white" stroke="black" points="420.5,-0.5 420.5,-30.5 574.5,-30.5 574.5,-0.5 420.5,-0.5"/>
<text text-anchor="start" x="428.5" y="-18.5" font-family="Helvetica,sans-Serif" font-size="10.00">PK_ConnectToPoKeysDevice</text>
<text text-anchor="middle" x="497.5" y="-7.5" font-family="Helvetica,sans-Serif" font-size="10.00">_USB_Async</text>
</a>
</g>
</g>
<!-- Node1&#45;&gt;Node9 -->
<g id="edge8" class="edge">
<title>Node1&#45;&gt;Node9</title>
<path fill="none" stroke="midnightblue" d="M639.27,-64.22C624.2,-56.53 604.86,-47.26 587,-40.5 577.59,-36.94 567.46,-33.62 557.52,-30.63"/>
<polygon fill="midnightblue" stroke="midnightblue" points="638.01,-67.51 648.5,-69 641.23,-61.29 638.01,-67.51"/>
</g>
<!-- Node3 -->
<g id="node3" class="node">
<title>Node3</title>
<g id="a_node3"><a xlink:href="pokeysHal_2pokeyslib_2PoKeysLibDevicePoKeys57Industrial_8c.html#ac8fc7ddca3e4def19bafb5dfb39bcc19" target="_top" xlink:title=" ">
<polygon fill="white" stroke="black" points="250.5,-126 250.5,-145 339.5,-145 339.5,-126 250.5,-126"/>
<text text-anchor="middle" x="295" y="-133" font-family="Helvetica,sans-Serif" font-size="10.00">PK57i_Connect</text>
</a>
</g>
</g>
<!-- Node2&#45;&gt;Node3 -->
<g id="edge2" class="edge">
<title>Node2&#45;&gt;Node3</title>
<path fill="none" stroke="midnightblue" d="M427.82,-135.5C398.59,-135.5 365.39,-135.5 339.61,-135.5"/>
<polygon fill="midnightblue" stroke="midnightblue" points="427.97,-139 437.97,-135.5 427.97,-132 427.97,-139"/>
</g>
<!-- Node6 -->
<g id="node6" class="node">
<title>Node6</title>
<g id="a_node6"><a xlink:href="PoKeysLibCoreAsync_8c.html#a8ca5d1c479c3da4457b38ec866ea7e3d" target="_top" xlink:title=" ">
<polygon fill="white" stroke="black" points="218,-50 218,-69 372,-69 372,-50 218,-50"/>
<text text-anchor="middle" x="295" y="-57" font-family="Helvetica,sans-Serif" font-size="10.00">PK_ConnectToPoKeysDevice</text>
</a>
</g>
</g>
<!-- Node5&#45;&gt;Node6 -->
<g id="edge5" class="edge">
<title>Node5&#45;&gt;Node6</title>
<path fill="none" stroke="midnightblue" d="M397.85,-59.5C389.2,-59.5 380.53,-59.5 372.11,-59.5"/>
<polygon fill="midnightblue" stroke="midnightblue" points="397.97,-63 407.97,-59.5 397.97,-56 397.97,-63"/>
</g>
<!-- Node7 -->
<g id="node7" class="node">
<title>Node7</title>
<g id="a_node7"><a xlink:href="PoKeysLibCoreAsync_8c.html#ae19db1487bf5225a8fc84e9b70f0e2ec" target="_top" xlink:title=" ">
<polygon fill="white" stroke="black" points="13,-69 13,-88 169,-88 169,-69 13,-69"/>
<text text-anchor="middle" x="91" y="-76" font-family="Helvetica,sans-Serif" font-size="10.00">PK_ConnectToDeviceWSerial</text>
</a>
</g>
</g>
<!-- Node6&#45;&gt;Node7 -->
<g id="edge6" class="edge">
<title>Node6&#45;&gt;Node7</title>
<path fill="none" stroke="midnightblue" d="M207.7,-67.62C194.84,-68.83 181.66,-70.07 169.02,-71.26"/>
<polygon fill="midnightblue" stroke="midnightblue" points="208.29,-71.08 217.92,-66.66 207.64,-64.11 208.29,-71.08"/>
</g>
<!-- Node8 -->
<g id="node8" class="node">
<title>Node8</title>
<g id="a_node8"><a xlink:href="PoKeysLibCoreAsync_8c.html#a6ca83890b4c63d6132c83c7df831fb65" target="_top" xlink:title=" ">
<polygon fill="white" stroke="black" points="0,-31 0,-50 182,-50 182,-31 0,-31"/>
<text text-anchor="middle" x="91" y="-38" font-family="Helvetica,sans-Serif" font-size="10.00">PK_ConnectToDeviceWSerial_UDP</text>
</a>
</g>
</g>
<!-- Node6&#45;&gt;Node8 -->
<g id="edge7" class="edge">
<title>Node6&#45;&gt;Node8</title>
<path fill="none" stroke="midnightblue" d="M207.73,-51.39C199.31,-50.59 190.75,-49.79 182.29,-48.99"/>
<polygon fill="midnightblue" stroke="midnightblue" points="207.64,-54.89 217.92,-52.34 208.29,-47.92 207.64,-54.89"/>
</g>
</g>
</svg>
        <g id="navigator" transform="translate(0 0)" fill="#404254">
                <rect fill="#f2f5e9" fill-opacity="0.5" stroke="#606060" stroke-width=".5" x="0" y="0" width="60" height="60"/>
                <use id="zoomplus" xlink:href="#zoomPlus" x="17" y="9" onmousedown="handleZoom(evt,'in')"/>
                <use id="zoomminus" xlink:href="#zoomMin" x="42" y="9" onmousedown="handleZoom(evt,'out')"/>
                <use id="reset" xlink:href="#resetDef" x="30" y="36" onmousedown="handleReset()"/>
                <g id="arrowUp" xlink:href="#dirArrow" transform="translate(30 24)" onmousedown="handlePan(0,-1)">
                  <use xlink:href="#rim" fill="#404040">
                        <set attributeName="fill" to="#808080" begin="arrowUp.mouseover" end="arrowUp.mouseout"/>
                  </use>
                  <path fill="none" stroke="white" stroke-width="1.5" d="M0,-3.0v7 M-2.5,-0.5L0,-3.0L2.5,-0.5"/>
                </g>
                <g id="arrowRight" xlink:href="#dirArrow" transform="rotate(90) translate(36 -43)" onmousedown="handlePan(1,0)">
                  <use xlink:href="#rim" fill="#404040">
                        <set attributeName="fill" to="#808080" begin="arrowRight.mouseover" end="arrowRight.mouseout"/>
                  </use>
                  <path fill="none" stroke="white" stroke-width="1.5" d="M0,-3.0v7 M-2.5,-0.5L0,-3.0L2.5,-0.5"/>
                </g>
                <g id="arrowDown" xlink:href="#dirArrow" transform="rotate(180) translate(-30 -48)" onmousedown="handlePan(0,1)">
                  <use xlink:href="#rim" fill="#404040">
                        <set attributeName="fill" to="#808080" begin="arrowDown.mouseover" end="arrowDown.mouseout"/>
                  </use>
                  <path fill="none" stroke="white" stroke-width="1.5" d="M0,-3.0v7 M-2.5,-0.5L0,-3.0L2.5,-0.5"/>
                </g>
                <g id="arrowLeft" xlink:href="#dirArrow" transform="rotate(270) translate(-36 17)" onmousedown="handlePan(-1,0)">
                  <use xlink:href="#rim" fill="#404040">
                        <set attributeName="fill" to="#808080" begin="arrowLeft.mouseover" end="arrowLeft.mouseout"/>
                  </use>
                  <path fill="none" stroke="white" stroke-width="1.5" d="M0,-3.0v7 M-2.5,-0.5L0,-3.0L2.5,-0.5"/>
                </g>
        </g>
        <svg viewBox="0 0 15 15" width="100%" height="30px" preserveAspectRatio="xMaxYMin meet">
         <g id="arrow_out" transform="scale(0.3 0.3)">
          <a xlink:href="group__API_ga954ecb58b5dfb4a6ef6be3dcd520e42f_icgraph_org.svg" target="_base">
           <rect id="button" ry="5" rx="5" y="6" x="6" height="38" width="38"
                fill="#f2f5e9" fill-opacity="0.5" stroke="#606060" stroke-width="1.0"/>
           <path id="arrow"
             d="M 11.500037,31.436501 C 11.940474,20.09759 22.043105,11.32322 32.158766,21.979434 L 37.068811,17.246167 C 37.068811,17.246167 37.088388,32 37.088388,32 L 22.160133,31.978069 C 22.160133,31.978069 26.997745,27.140456 26.997745,27.140456 C 18.528582,18.264221 13.291696,25.230495 11.500037,31.436501 z"
             style="fill:#404040;"/>
          </a>
         </g>
        </svg>
</svg>
