<?xml version="1.0" encoding="UTF-8" standalone="no"?>
<!DOCTYPE svg PUBLIC "-//W3C//DTD SVG 1.1//EN"
 "http://www.w3.org/Graphics/SVG/1.1/DTD/svg11.dtd">
<!-- Generated by graphviz version 2.43.0 (0)
 -->
<!-- Title: PoKeysHALComponent::PKPEv2_Setup Pages: 1 -->
<svg width="672pt" height="241pt"
 viewBox="0.00 0.00 672.00 240.50" xmlns="http://www.w3.org/2000/svg" xmlns:xlink="http://www.w3.org/1999/xlink">
<g id="graph0" class="graph" transform="scale(1 1) rotate(0) translate(4 236.5)">
<title>PoKeysHALComponent::PKPEv2_Setup</title>
<polygon fill="white" stroke="transparent" points="-4,4 -4,-236.5 668,-236.5 668,4 -4,4"/>
<!-- Node1 -->
<g id="node1" class="node">
<title>Node1</title>
<g id="a_node1"><a xlink:title="Applies INI&#45;based configuration to PulseEngine and IO.">
<polygon fill="#bfbfbf" stroke="black" points="0,-112.5 0,-142.5 128,-142.5 128,-112.5 0,-112.5"/>
<text text-anchor="start" x="8" y="-130.5" font-family="Helvetica,sans-Serif" font-size="10.00">PoKeysHALComponent</text>
<text text-anchor="middle" x="64" y="-119.5" font-family="Helvetica,sans-Serif" font-size="10.00">::PKPEv2_Setup</text>
</a>
</g>
</g>
<!-- Node2 -->
<g id="node2" class="node">
<title>Node2</title>
<g id="a_node2"><a xlink:href="group__hal__component__pokeys.html#gabf985299322e7850c8f962e6c1174103" target="_top" xlink:title="Reads additional Pulse Engine v2 parameters from the PoKeys device.">
<polygon fill="white" stroke="black" points="367,-213 367,-232 535,-232 535,-213 367,-213"/>
<text text-anchor="middle" x="451" y="-220" font-family="Helvetica,sans-Serif" font-size="10.00">PEv2_AdditionalParametersGet</text>
</a>
</g>
</g>
<!-- Node1&#45;&gt;Node2 -->
<g id="edge1" class="edge">
<title>Node1&#45;&gt;Node2</title>
<path fill="none" stroke="midnightblue" d="M80.23,-142.55C98.44,-159.48 130.66,-186.22 164,-198.5 225.53,-221.17 299.38,-226.87 356.62,-227.06"/>
<polygon fill="midnightblue" stroke="midnightblue" points="356.75,-230.56 366.74,-227.04 356.74,-223.56 356.75,-230.56"/>
</g>
<!-- Node3 -->
<g id="node3" class="node">
<title>Node3</title>
<g id="a_node3"><a xlink:href="rtapi_8h.html#a2432d36976ec87e60c9c92d3c0067182" target="_top" xlink:title=" ">
<polygon fill="white" stroke="black" points="571,-137 571,-156 664,-156 664,-137 571,-137"/>
<text text-anchor="middle" x="617.5" y="-144" font-family="Helvetica,sans-Serif" font-size="10.00">rtapi_print_msg</text>
</a>
</g>
</g>
<!-- Node1&#45;&gt;Node3 -->
<g id="edge12" class="edge">
<title>Node1&#45;&gt;Node3</title>
<path fill="none" stroke="midnightblue" d="M95.8,-142.69C114.92,-151.26 140.29,-161.11 164,-165.5 304.97,-191.63 474.68,-170.9 560.68,-156.8"/>
<polygon fill="midnightblue" stroke="midnightblue" points="561.46,-160.22 570.74,-155.12 560.3,-153.32 561.46,-160.22"/>
</g>
<!-- Node4 -->
<g id="node4" class="node">
<title>Node4</title>
<g id="a_node4"><a xlink:href="group__hal__component__pokeys.html#ga03f28595c27000ef997f76c58d387efa" target="_top" xlink:title="Updates and sets additional Pulse Engine v2 parameters, such as the emergency input pin.">
<polygon fill="white" stroke="black" points="164,-137 164,-156 331,-156 331,-137 164,-137"/>
<text text-anchor="middle" x="247.5" y="-144" font-family="Helvetica,sans-Serif" font-size="10.00">PEv2_AdditionalParametersSet</text>
</a>
</g>
</g>
<!-- Node1&#45;&gt;Node4 -->
<g id="edge3" class="edge">
<title>Node1&#45;&gt;Node4</title>
<path fill="none" stroke="midnightblue" d="M128.23,-134.12C136.46,-134.98 145.03,-135.88 153.63,-136.78"/>
<polygon fill="midnightblue" stroke="midnightblue" points="153.4,-140.27 163.71,-137.83 154.13,-133.31 153.4,-140.27"/>
</g>
<!-- Node5 -->
<g id="node5" class="node">
<title>Node5</title>
<g id="a_node5"><a xlink:href="group__PoKeys__Axis.html#gafbc819ed007226ee89a72106f88a257e" target="_top" xlink:title="Retrieves and parses the axis configuration from the PoKeys Pulse Engine v2.">
<polygon fill="white" stroke="black" points="373.5,-87.5 373.5,-117.5 528.5,-117.5 528.5,-87.5 373.5,-87.5"/>
<text text-anchor="start" x="381.5" y="-105.5" font-family="Helvetica,sans-Serif" font-size="10.00">PoKeysHALComponent</text>
<text text-anchor="middle" x="451" y="-94.5" font-family="Helvetica,sans-Serif" font-size="10.00">::PEv2_AxisConfigurationGet</text>
</a>
</g>
</g>
<!-- Node1&#45;&gt;Node5 -->
<g id="edge5" class="edge">
<title>Node1&#45;&gt;Node5</title>
<path fill="none" stroke="midnightblue" d="M128.14,-123.4C192.09,-119.25 291.48,-112.79 362.9,-108.16"/>
<polygon fill="midnightblue" stroke="midnightblue" points="363.47,-111.63 373.22,-107.49 363.02,-104.64 363.47,-111.63"/>
</g>
<!-- Node6 -->
<g id="node6" class="node">
<title>Node6</title>
<g id="a_node6"><a xlink:href="group__hal__component__pokeys.html#gaa49f4d7037a22852892704ca050145f8" target="_top" xlink:title="Set the axis configuration of the PoKeys device.">
<polygon fill="white" stroke="black" points="170.5,-49.5 170.5,-79.5 324.5,-79.5 324.5,-49.5 170.5,-49.5"/>
<text text-anchor="start" x="178.5" y="-67.5" font-family="Helvetica,sans-Serif" font-size="10.00">PoKeysHALComponent</text>
<text text-anchor="middle" x="247.5" y="-56.5" font-family="Helvetica,sans-Serif" font-size="10.00">::PEv2_AxisConfigurationSet</text>
</a>
</g>
</g>
<!-- Node1&#45;&gt;Node6 -->
<g id="edge7" class="edge">
<title>Node1&#45;&gt;Node6</title>
<path fill="none" stroke="midnightblue" d="M108.47,-112.41C133.97,-103.56 166.38,-92.31 193.39,-82.94"/>
<polygon fill="midnightblue" stroke="midnightblue" points="194.77,-86.16 203.07,-79.58 192.47,-79.55 194.77,-86.16"/>
</g>
<!-- Node8 -->
<g id="node8" class="node">
<title>Node8</title>
<g id="a_node8"><a xlink:href="group__hal__component__pokeys.html#ga43e962a08faf5dfdf24294fde5806ad1" target="_top" xlink:title="Configures the PulseEngine v2 using current settings.">
<polygon fill="white" stroke="black" points="178,-0.5 178,-30.5 317,-30.5 317,-0.5 178,-0.5"/>
<text text-anchor="start" x="186" y="-18.5" font-family="Helvetica,sans-Serif" font-size="10.00">PoKeysHALComponent</text>
<text text-anchor="middle" x="247.5" y="-7.5" font-family="Helvetica,sans-Serif" font-size="10.00">::PEv2_PulseEngineSetup</text>
</a>
</g>
</g>
<!-- Node1&#45;&gt;Node8 -->
<g id="edge11" class="edge">
<title>Node1&#45;&gt;Node8</title>
<path fill="none" stroke="midnightblue" d="M78.26,-112.4C95.98,-93.09 129.21,-59.85 164,-40.5 167.93,-38.31 172.08,-36.29 176.33,-34.44"/>
<polygon fill="midnightblue" stroke="midnightblue" points="177.82,-37.61 185.79,-30.62 175.2,-31.12 177.82,-37.61"/>
</g>
<!-- Node2&#45;&gt;Node3 -->
<g id="edge2" class="edge">
<title>Node2&#45;&gt;Node3</title>
<path fill="none" stroke="midnightblue" d="M493.79,-212.93C507.24,-209.19 522.02,-204.37 535,-198.5 556.73,-188.67 579.45,-173.73 595.36,-162.38"/>
<polygon fill="midnightblue" stroke="midnightblue" points="597.86,-164.9 603.89,-156.18 593.74,-159.23 597.86,-164.9"/>
</g>
<!-- Node4&#45;&gt;Node3 -->
<g id="edge4" class="edge">
<title>Node4&#45;&gt;Node3</title>
<path fill="none" stroke="midnightblue" d="M331.09,-146.5C401.1,-146.5 499.6,-146.5 560.67,-146.5"/>
<polygon fill="midnightblue" stroke="midnightblue" points="560.88,-150 570.88,-146.5 560.88,-143 560.88,-150"/>
</g>
<!-- Node5&#45;&gt;Node3 -->
<g id="edge6" class="edge">
<title>Node5&#45;&gt;Node3</title>
<path fill="none" stroke="midnightblue" d="M508.15,-117.52C528.6,-122.99 551.45,-129.1 570.88,-134.3"/>
<polygon fill="midnightblue" stroke="midnightblue" points="570.13,-137.72 580.69,-136.92 571.93,-130.96 570.13,-137.72"/>
</g>
<!-- Node6&#45;&gt;Node3 -->
<g id="edge9" class="edge">
<title>Node6&#45;&gt;Node3</title>
<path fill="none" stroke="midnightblue" d="M324.52,-55.37C383.89,-51.23 467.38,-52.11 535,-78.5 562.19,-89.11 586.93,-112.62 601.85,-129.01"/>
<polygon fill="midnightblue" stroke="midnightblue" points="599.48,-131.62 608.71,-136.82 604.74,-127 599.48,-131.62"/>
</g>
<!-- Node6&#45;&gt;Node5 -->
<g id="edge8" class="edge">
<title>Node6&#45;&gt;Node5</title>
<path fill="none" stroke="midnightblue" d="M324.68,-78.87C337.25,-81.24 350.37,-83.71 363.19,-86.13"/>
<polygon fill="midnightblue" stroke="midnightblue" points="362.9,-89.64 373.38,-88.05 364.2,-82.76 362.9,-89.64"/>
</g>
<!-- Node7 -->
<g id="node7" class="node">
<title>Node7</title>
<g id="a_node7"><a xlink:href="group__hal__component__pokeys.html#gac0d0be13b1ea7237f8fb54953380d2a9" target="_top" xlink:title="Sets or clears a specific bit in a byte.">
<polygon fill="white" stroke="black" points="408.5,-11 408.5,-30 493.5,-30 493.5,-11 408.5,-11"/>
<text text-anchor="middle" x="451" y="-18" font-family="Helvetica,sans-Serif" font-size="10.00">Set_BitOfByte</text>
</a>
</g>
</g>
<!-- Node6&#45;&gt;Node7 -->
<g id="edge10" class="edge">
<title>Node6&#45;&gt;Node7</title>
<path fill="none" stroke="midnightblue" d="M317.28,-49.48C343.84,-43.68 373.69,-37.16 398.36,-31.78"/>
<polygon fill="midnightblue" stroke="midnightblue" points="399.21,-35.17 408.23,-29.62 397.72,-28.33 399.21,-35.17"/>
</g>
</g>
</svg>
