<?xml version="1.0" encoding="UTF-8" standalone="no"?>
<!DOCTYPE svg PUBLIC "-//W3C//DTD SVG 1.1//EN"
 "http://www.w3.org/Graphics/SVG/1.1/DTD/svg11.dtd">
<!-- Generated by graphviz version 2.43.0 (0)
 -->
<!-- Title: PoKeysHALComponent::PEv2_AxisConfigurationSet Pages: 1 -->
<svg width="482pt" height="116pt"
 viewBox="0.00 0.00 482.00 115.50" xmlns="http://www.w3.org/2000/svg" xmlns:xlink="http://www.w3.org/1999/xlink">
<g id="graph0" class="graph" transform="scale(1 1) rotate(0) translate(4 111.5)">
<title>PoKeysHALComponent::PEv2_AxisConfigurationSet</title>
<polygon fill="white" stroke="transparent" points="-4,4 -4,-111.5 478,-111.5 478,4 -4,4"/>
<!-- Node1 -->
<g id="node1" class="node">
<title>Node1</title>
<g id="a_node1"><a xlink:title="Set the axis configuration of the PoKeys device.">
<polygon fill="#bfbfbf" stroke="black" points="0,-33 0,-63 154,-63 154,-33 0,-33"/>
<text text-anchor="start" x="8" y="-51" font-family="Helvetica,sans-Serif" font-size="10.00">PoKeysHALComponent</text>
<text text-anchor="middle" x="77" y="-40" font-family="Helvetica,sans-Serif" font-size="10.00">::PEv2_AxisConfigurationSet</text>
</a>
</g>
</g>
<!-- Node2 -->
<g id="node2" class="node">
<title>Node2</title>
<g id="a_node2"><a xlink:href="group__PoKeys__Axis.html#gafbc819ed007226ee89a72106f88a257e" target="_top" xlink:title="Retrieves and parses the axis configuration from the PoKeys Pulse Engine v2.">
<polygon fill="white" stroke="black" points="190,-77 190,-107 345,-107 345,-77 190,-77"/>
<text text-anchor="start" x="198" y="-95" font-family="Helvetica,sans-Serif" font-size="10.00">PoKeysHALComponent</text>
<text text-anchor="middle" x="267.5" y="-84" font-family="Helvetica,sans-Serif" font-size="10.00">::PEv2_AxisConfigurationGet</text>
</a>
</g>
</g>
<!-- Node1&#45;&gt;Node2 -->
<g id="edge1" class="edge">
<title>Node1&#45;&gt;Node2</title>
<path fill="none" stroke="midnightblue" d="M142.34,-63.02C158.33,-66.75 175.6,-70.78 192.03,-74.62"/>
<polygon fill="midnightblue" stroke="midnightblue" points="191.59,-78.11 202.13,-76.97 193.18,-71.29 191.59,-78.11"/>
</g>
<!-- Node3 -->
<g id="node3" class="node">
<title>Node3</title>
<g id="a_node3"><a xlink:href="rtapi_8h.html#a2432d36976ec87e60c9c92d3c0067182" target="_top" xlink:title=" ">
<polygon fill="white" stroke="black" points="381,-60.5 381,-79.5 474,-79.5 474,-60.5 381,-60.5"/>
<text text-anchor="middle" x="427.5" y="-67.5" font-family="Helvetica,sans-Serif" font-size="10.00">rtapi_print_msg</text>
</a>
</g>
</g>
<!-- Node1&#45;&gt;Node3 -->
<g id="edge3" class="edge">
<title>Node1&#45;&gt;Node3</title>
<path fill="none" stroke="midnightblue" d="M154.05,-52.8C219.33,-56.92 311.9,-62.77 370.57,-66.47"/>
<polygon fill="midnightblue" stroke="midnightblue" points="370.55,-69.98 380.76,-67.11 371,-62.99 370.55,-69.98"/>
</g>
<!-- Node4 -->
<g id="node4" class="node">
<title>Node4</title>
<g id="a_node4"><a xlink:href="group__hal__component__pokeys.html#gac0d0be13b1ea7237f8fb54953380d2a9" target="_top" xlink:title="Sets or clears a specific bit in a byte.">
<polygon fill="white" stroke="black" points="225,-0.5 225,-19.5 310,-19.5 310,-0.5 225,-0.5"/>
<text text-anchor="middle" x="267.5" y="-7.5" font-family="Helvetica,sans-Serif" font-size="10.00">Set_BitOfByte</text>
</a>
</g>
</g>
<!-- Node1&#45;&gt;Node4 -->
<g id="edge4" class="edge">
<title>Node1&#45;&gt;Node4</title>
<path fill="none" stroke="midnightblue" d="M152.5,-32.98C173.35,-28.78 195.55,-24.3 214.76,-20.43"/>
<polygon fill="midnightblue" stroke="midnightblue" points="215.7,-23.81 224.81,-18.4 214.31,-16.95 215.7,-23.81"/>
</g>
<!-- Node2&#45;&gt;Node3 -->
<g id="edge2" class="edge">
<title>Node2&#45;&gt;Node3</title>
<path fill="none" stroke="midnightblue" d="M345.19,-81.32C353.7,-80.14 362.25,-78.95 370.44,-77.81"/>
<polygon fill="midnightblue" stroke="midnightblue" points="371.17,-81.24 380.59,-76.39 370.2,-74.31 371.17,-81.24"/>
</g>
</g>
</svg>
