<?xml version="1.0" encoding="UTF-8" standalone="no"?>
<!DOCTYPE svg PUBLIC "-//W3C//DTD SVG 1.1//EN"
 "http://www.w3.org/Graphics/SVG/1.1/DTD/svg11.dtd">
<!-- Generated by graphviz version 2.43.0 (0)
 -->
<!-- Title: PEv2_AdditionalParametersGet Pages: 1 -->
<svg width="793pt" height="142pt"
 viewBox="0.00 0.00 793.00 142.00" xmlns="http://www.w3.org/2000/svg" xmlns:xlink="http://www.w3.org/1999/xlink">
<g id="graph0" class="graph" transform="scale(1 1) rotate(0) translate(4 138)">
<title>PEv2_AdditionalParametersGet</title>
<polygon fill="white" stroke="transparent" points="-4,4 -4,-138 789,-138 789,4 -4,4"/>
<!-- Node1 -->
<g id="node1" class="node">
<title>Node1</title>
<g id="a_node1"><a xlink:title="Reads additional Pulse Engine v2 parameters from the PoKeys device.">
<polygon fill="#bfbfbf" stroke="black" points="0,-57.5 0,-76.5 168,-76.5 168,-57.5 0,-57.5"/>
<text text-anchor="middle" x="84" y="-64.5" font-family="Helvetica,sans-Serif" font-size="10.00">PEv2_AdditionalParametersGet</text>
</a>
</g>
</g>
<!-- Node2 -->
<g id="node2" class="node">
<title>Node2</title>
<g id="a_node2"><a xlink:href="pokeysHal_2PoKeysLibPulseEngine__v2_8c.html#a95741bd9f72bb28002dbebe585081fc4" target="_top" xlink:title="Read miscellaneous pulse engine parameters.">
<polygon fill="white" stroke="black" points="204,-76.5 204,-95.5 390,-95.5 390,-76.5 204,-76.5"/>
<text text-anchor="middle" x="297" y="-83.5" font-family="Helvetica,sans-Serif" font-size="10.00">PK_PEv2_AdditionalParametersGet</text>
</a>
</g>
</g>
<!-- Node1&#45;&gt;Node2 -->
<g id="edge1" class="edge">
<title>Node1&#45;&gt;Node2</title>
<path fill="none" stroke="midnightblue" d="M168.09,-74.48C176.54,-75.24 185.2,-76.02 193.83,-76.8"/>
<polygon fill="midnightblue" stroke="midnightblue" points="193.65,-80.3 203.93,-77.71 194.28,-73.33 193.65,-80.3"/>
</g>
<!-- Node10 -->
<g id="node10" class="node">
<title>Node10</title>
<g id="a_node10"><a xlink:href="rtapi_8h.html#a2432d36976ec87e60c9c92d3c0067182" target="_top" xlink:title=" ">
<polygon fill="white" stroke="black" points="250.5,-38.5 250.5,-57.5 343.5,-57.5 343.5,-38.5 250.5,-38.5"/>
<text text-anchor="middle" x="297" y="-45.5" font-family="Helvetica,sans-Serif" font-size="10.00">rtapi_print_msg</text>
</a>
</g>
</g>
<!-- Node1&#45;&gt;Node10 -->
<g id="edge10" class="edge">
<title>Node1&#45;&gt;Node10</title>
<path fill="none" stroke="midnightblue" d="M168.09,-59.52C192.28,-57.34 218.12,-55.01 240.2,-53.02"/>
<polygon fill="midnightblue" stroke="midnightblue" points="240.74,-56.49 250.38,-52.11 240.11,-49.52 240.74,-56.49"/>
</g>
<!-- Node3 -->
<g id="node3" class="node">
<title>Node3</title>
<g id="a_node3"><a xlink:href="pokeyslib_2PoKeysLibCore_8c.html#acb1fdd8f77277dc66c4d037218bfcece" target="_top" xlink:title=" ">
<polygon fill="white" stroke="black" points="426,-95.5 426,-114.5 515,-114.5 515,-95.5 426,-95.5"/>
<text text-anchor="middle" x="470.5" y="-102.5" font-family="Helvetica,sans-Serif" font-size="10.00">CreateRequest</text>
</a>
</g>
</g>
<!-- Node2&#45;&gt;Node3 -->
<g id="edge2" class="edge">
<title>Node2&#45;&gt;Node3</title>
<path fill="none" stroke="midnightblue" d="M384,-95.53C394.79,-96.72 405.58,-97.92 415.68,-99.04"/>
<polygon fill="midnightblue" stroke="midnightblue" points="415.6,-102.55 425.93,-100.17 416.37,-95.59 415.6,-102.55"/>
</g>
<!-- Node4 -->
<g id="node4" class="node">
<title>Node4</title>
<g id="a_node4"><a xlink:href="pokeyslib_2PoKeysLibCore_8c.html#ab5d92aa36d0a4a6953a055f5cd960aff" target="_top" xlink:title=" ">
<polygon fill="white" stroke="black" points="430.5,-57.5 430.5,-76.5 510.5,-76.5 510.5,-57.5 430.5,-57.5"/>
<text text-anchor="middle" x="470.5" y="-64.5" font-family="Helvetica,sans-Serif" font-size="10.00">SendRequest</text>
</a>
</g>
</g>
<!-- Node2&#45;&gt;Node4 -->
<g id="edge3" class="edge">
<title>Node2&#45;&gt;Node4</title>
<path fill="none" stroke="midnightblue" d="M384,-76.47C396.41,-75.1 408.82,-73.72 420.18,-72.46"/>
<polygon fill="midnightblue" stroke="midnightblue" points="420.73,-75.92 430.29,-71.34 419.96,-68.97 420.73,-75.92"/>
</g>
<!-- Node5 -->
<g id="node5" class="node">
<title>Node5</title>
<g id="a_node5"><a xlink:href="pokeyslib_2PoKeysLibCore_8c.html#a273b6d635dea8f559b915cdb289d021e" target="_top" xlink:title=" ">
<polygon fill="white" stroke="black" points="692.5,-38.5 692.5,-57.5 775.5,-57.5 775.5,-38.5 692.5,-38.5"/>
<text text-anchor="middle" x="734" y="-45.5" font-family="Helvetica,sans-Serif" font-size="10.00">getChecksum</text>
</a>
</g>
</g>
<!-- Node4&#45;&gt;Node5 -->
<g id="edge4" class="edge">
<title>Node4&#45;&gt;Node5</title>
<path fill="none" stroke="midnightblue" d="M510.67,-69.42C546.32,-71.06 600.36,-72.09 647,-67 660.57,-65.52 675.13,-62.76 688.34,-59.8"/>
<polygon fill="midnightblue" stroke="midnightblue" points="689.2,-63.19 698.14,-57.51 687.61,-56.37 689.2,-63.19"/>
</g>
<!-- Node6 -->
<g id="node6" class="node">
<title>Node6</title>
<g id="a_node6"><a xlink:href="group__API.html#ga6b820f3e72097cf7f994e33715dc7af1" target="_top" xlink:title="Read an Input report from a HID device.">
<polygon fill="white" stroke="black" points="569.5,-114.5 569.5,-133.5 628.5,-133.5 628.5,-114.5 569.5,-114.5"/>
<text text-anchor="middle" x="599" y="-121.5" font-family="Helvetica,sans-Serif" font-size="10.00">hid_read</text>
</a>
</g>
</g>
<!-- Node4&#45;&gt;Node6 -->
<g id="edge5" class="edge">
<title>Node4&#45;&gt;Node6</title>
<path fill="none" stroke="midnightblue" d="M493.66,-76.59C500.51,-79.58 508.08,-82.9 515,-86 532.61,-93.88 552.24,-102.86 567.99,-110.11"/>
<polygon fill="midnightblue" stroke="midnightblue" points="566.69,-113.36 577.24,-114.37 569.62,-107.01 566.69,-113.36"/>
</g>
<!-- Node8 -->
<g id="node8" class="node">
<title>Node8</title>
<g id="a_node8"><a xlink:href="group__API.html#gad14ea48e440cf5066df87cc6488493af" target="_top" xlink:title="Write an Output report to a HID device.">
<polygon fill="white" stroke="black" points="568,-38.5 568,-57.5 630,-57.5 630,-38.5 568,-38.5"/>
<text text-anchor="middle" x="599" y="-45.5" font-family="Helvetica,sans-Serif" font-size="10.00">hid_write</text>
</a>
</g>
</g>
<!-- Node4&#45;&gt;Node8 -->
<g id="edge7" class="edge">
<title>Node4&#45;&gt;Node8</title>
<path fill="none" stroke="midnightblue" d="M510.83,-61.09C525.8,-58.84 542.86,-56.28 557.9,-54.02"/>
<polygon fill="midnightblue" stroke="midnightblue" points="558.57,-57.46 567.94,-52.52 557.53,-50.54 558.57,-57.46"/>
</g>
<!-- Node9 -->
<g id="node9" class="node">
<title>Node9</title>
<g id="a_node9"><a xlink:href="pokeyslib_2PoKeysLibCoreSockets_8c.html#a22759fb4024c9081af26ac1bc6541b47" target="_top" xlink:title=" ">
<polygon fill="white" stroke="black" points="551,-0.5 551,-19.5 647,-19.5 647,-0.5 551,-0.5"/>
<text text-anchor="middle" x="599" y="-7.5" font-family="Helvetica,sans-Serif" font-size="10.00">SendEthRequest</text>
</a>
</g>
</g>
<!-- Node4&#45;&gt;Node9 -->
<g id="edge8" class="edge">
<title>Node4&#45;&gt;Node9</title>
<path fill="none" stroke="midnightblue" d="M490.62,-57.45C506.63,-49.56 530.14,-38.19 551,-29 555.19,-27.15 559.62,-25.27 564.02,-23.45"/>
<polygon fill="midnightblue" stroke="midnightblue" points="565.55,-26.6 573.49,-19.58 562.91,-20.12 565.55,-26.6"/>
</g>
<!-- Node7 -->
<g id="node7" class="node">
<title>Node7</title>
<g id="a_node7"><a xlink:href="group__API.html#gaa5c9ed5aa290688ffac03343989ad75a" target="_top" xlink:title="Read an Input report from a HID device with timeout.">
<polygon fill="white" stroke="black" points="683,-114.5 683,-133.5 785,-133.5 785,-114.5 683,-114.5"/>
<text text-anchor="middle" x="734" y="-121.5" font-family="Helvetica,sans-Serif" font-size="10.00">hid_read_timeout</text>
</a>
</g>
</g>
<!-- Node6&#45;&gt;Node7 -->
<g id="edge6" class="edge">
<title>Node6&#45;&gt;Node7</title>
<path fill="none" stroke="midnightblue" d="M628.53,-124C641.49,-124 657.35,-124 672.75,-124"/>
<polygon fill="midnightblue" stroke="midnightblue" points="672.77,-127.5 682.77,-124 672.77,-120.5 672.77,-127.5"/>
</g>
<!-- Node9&#45;&gt;Node5 -->
<g id="edge9" class="edge">
<title>Node9&#45;&gt;Node5</title>
<path fill="none" stroke="midnightblue" d="M633.56,-19.59C650.57,-24.45 671.43,-30.41 689.64,-35.61"/>
<polygon fill="midnightblue" stroke="midnightblue" points="688.87,-39.03 699.45,-38.41 690.8,-32.3 688.87,-39.03"/>
</g>
</g>
</svg>
