<?xml version="1.0" encoding="UTF-8" standalone="no"?>
<!DOCTYPE svg PUBLIC "-//W3C//DTD SVG 1.1//EN"
 "http://www.w3.org/Graphics/SVG/1.1/DTD/svg11.dtd">
<!-- Generated by graphviz version 2.43.0 (0)
 -->
<!-- Title: hid_read Pages: 1 -->
<svg width="331pt" height="28pt"
 viewBox="0.00 0.00 331.00 28.00" xmlns="http://www.w3.org/2000/svg" xmlns:xlink="http://www.w3.org/1999/xlink">
<g id="graph0" class="graph" transform="scale(1 1) rotate(0) translate(4 24)">
<title>hid_read</title>
<polygon fill="white" stroke="transparent" points="-4,4 -4,-24 327,-24 327,4 -4,4"/>
<!-- Node1 -->
<g id="node1" class="node">
<title>Node1</title>
<g id="a_node1"><a xlink:title="Read an Input report from a HID device.">
<polygon fill="#bfbfbf" stroke="black" points="264,-0.5 264,-19.5 323,-19.5 323,-0.5 264,-0.5"/>
<text text-anchor="middle" x="293.5" y="-7.5" font-family="Helvetica,sans-Serif" font-size="10.00">hid_read</text>
</a>
</g>
</g>
<!-- Node2 -->
<g id="node2" class="node">
<title>Node2</title>
<g id="a_node2"><a xlink:href="PoKeysLibCoreAsync_8c.html#ab5d92aa36d0a4a6953a055f5cd960aff" target="_top" xlink:title="Send a request and wait for a response (async context).">
<polygon fill="white" stroke="black" points="148,-0.5 148,-19.5 228,-19.5 228,-0.5 148,-0.5"/>
<text text-anchor="middle" x="188" y="-7.5" font-family="Helvetica,sans-Serif" font-size="10.00">SendRequest</text>
</a>
</g>
</g>
<!-- Node1&#45;&gt;Node2 -->
<g id="edge1" class="edge">
<title>Node1&#45;&gt;Node2</title>
<path fill="none" stroke="midnightblue" d="M253.74,-10C245.43,-10 236.64,-10 228.31,-10"/>
<polygon fill="midnightblue" stroke="midnightblue" points="253.94,-13.5 263.94,-10 253.94,-6.5 253.94,-13.5"/>
</g>
<!-- Node3 -->
<g id="node3" class="node">
<title>Node3</title>
<g id="a_node3"><a xlink:href="PoKeysLibCoreAsync_8c.html#a5e99bef619c902443eecbaacd8e0be19" target="_top" xlink:title="Send a command composed from the provided parameters.">
<polygon fill="white" stroke="black" points="0,-0.5 0,-19.5 112,-19.5 112,-0.5 0,-0.5"/>
<text text-anchor="middle" x="56" y="-7.5" font-family="Helvetica,sans-Serif" font-size="10.00">PK_CustomRequest</text>
</a>
</g>
</g>
<!-- Node2&#45;&gt;Node3 -->
<g id="edge2" class="edge">
<title>Node2&#45;&gt;Node3</title>
<path fill="none" stroke="midnightblue" d="M137.72,-10C129.42,-10 120.76,-10 112.32,-10"/>
<polygon fill="midnightblue" stroke="midnightblue" points="138,-13.5 148,-10 138,-6.5 138,-13.5"/>
</g>
</g>
</svg>
