<?xml version="1.0" encoding="UTF-8" standalone="no"?>
<!DOCTYPE svg PUBLIC "-//W3C//DTD SVG 1.1//EN"
 "http://www.w3.org/Graphics/SVG/1.1/DTD/svg11.dtd">
<!-- Generated by graphviz version 2.43.0 (0)
 -->
<!-- Title: PoKeysHALComponent::PKIO_ReadIniFile Pages: 1 -->
<svg width="384pt" height="104pt"
 viewBox="0.00 0.00 384.00 104.00" xmlns="http://www.w3.org/2000/svg" xmlns:xlink="http://www.w3.org/1999/xlink">
<g id="graph0" class="graph" transform="scale(1 1) rotate(0) translate(4 100)">
<title>PoKeysHALComponent::PKIO_ReadIniFile</title>
<polygon fill="white" stroke="transparent" points="-4,4 -4,-100 380,-100 380,4 -4,4"/>
<!-- Node1 -->
<g id="node1" class="node">
<title>Node1</title>
<g id="a_node1"><a xlink:title="Reads and applies I/O configuration values for the PoKeys device from the INI file.">
<polygon fill="#bfbfbf" stroke="black" points="0,-33 0,-63 128,-63 128,-33 0,-33"/>
<text text-anchor="start" x="8" y="-51" font-family="Helvetica,sans-Serif" font-size="10.00">PoKeysHALComponent</text>
<text text-anchor="middle" x="64" y="-40" font-family="Helvetica,sans-Serif" font-size="10.00">::PKIO_ReadIniFile</text>
</a>
</g>
</g>
<!-- Node2 -->
<g id="node2" class="node">
<title>Node2</title>
<g id="a_node2"><a xlink:href="pokeys__ini_8c.html#ad18c54e99cc7b622b21a4952a228003d" target="_top" xlink:title=" ">
<polygon fill="white" stroke="black" points="164,-76.5 164,-95.5 247,-95.5 247,-76.5 164,-76.5"/>
<text text-anchor="middle" x="205.5" y="-83.5" font-family="Helvetica,sans-Serif" font-size="10.00">ini_read_float</text>
</a>
</g>
</g>
<!-- Node1&#45;&gt;Node2 -->
<g id="edge1" class="edge">
<title>Node1&#45;&gt;Node2</title>
<path fill="none" stroke="midnightblue" d="M120.13,-63.02C133.23,-66.59 147.05,-70.35 159.63,-73.78"/>
<polygon fill="midnightblue" stroke="midnightblue" points="158.85,-77.19 169.42,-76.44 160.69,-70.44 158.85,-77.19"/>
</g>
<!-- Node3 -->
<g id="node3" class="node">
<title>Node3</title>
<g id="a_node3"><a xlink:href="rtapi_8h.html#a2432d36976ec87e60c9c92d3c0067182" target="_top" xlink:title=" ">
<polygon fill="white" stroke="black" points="283,-38.5 283,-57.5 376,-57.5 376,-38.5 283,-38.5"/>
<text text-anchor="middle" x="329.5" y="-45.5" font-family="Helvetica,sans-Serif" font-size="10.00">rtapi_print_msg</text>
</a>
</g>
</g>
<!-- Node1&#45;&gt;Node3 -->
<g id="edge5" class="edge">
<title>Node1&#45;&gt;Node3</title>
<path fill="none" stroke="midnightblue" d="M128.11,-48C172.14,-48 230.35,-48 272.68,-48"/>
<polygon fill="midnightblue" stroke="midnightblue" points="272.81,-51.5 282.81,-48 272.81,-44.5 272.81,-51.5"/>
</g>
<!-- Node4 -->
<g id="node4" class="node">
<title>Node4</title>
<g id="a_node4"><a xlink:href="pokeys__ini_8c.html#ae4f6d1223dec24d90200b3798910dc6e" target="_top" xlink:title=" ">
<polygon fill="white" stroke="black" points="168.5,-0.5 168.5,-19.5 242.5,-19.5 242.5,-0.5 168.5,-0.5"/>
<text text-anchor="middle" x="205.5" y="-7.5" font-family="Helvetica,sans-Serif" font-size="10.00">ini_read_int</text>
</a>
</g>
</g>
<!-- Node1&#45;&gt;Node4 -->
<g id="edge3" class="edge">
<title>Node1&#45;&gt;Node4</title>
<path fill="none" stroke="midnightblue" d="M120.13,-32.98C133.23,-29.41 147.05,-25.65 159.63,-22.22"/>
<polygon fill="midnightblue" stroke="midnightblue" points="160.69,-25.56 169.42,-19.56 158.85,-18.81 160.69,-25.56"/>
</g>
<!-- Node2&#45;&gt;Node3 -->
<g id="edge2" class="edge">
<title>Node2&#45;&gt;Node3</title>
<path fill="none" stroke="midnightblue" d="M237.29,-76.41C252.6,-71.64 271.32,-65.81 287.8,-60.68"/>
<polygon fill="midnightblue" stroke="midnightblue" points="289.22,-63.9 297.72,-57.59 287.14,-57.22 289.22,-63.9"/>
</g>
<!-- Node4&#45;&gt;Node3 -->
<g id="edge4" class="edge">
<title>Node4&#45;&gt;Node3</title>
<path fill="none" stroke="midnightblue" d="M237.29,-19.59C252.6,-24.36 271.32,-30.19 287.8,-35.32"/>
<polygon fill="midnightblue" stroke="midnightblue" points="287.14,-38.78 297.72,-38.41 289.22,-32.1 287.14,-38.78"/>
</g>
</g>
</svg>
