<?xml version="1.0" encoding="UTF-8" standalone="no"?>
<!DOCTYPE svg PUBLIC "-//W3C//DTD SVG 1.1//EN"
 "http://www.w3.org/Graphics/SVG/1.1/DTD/svg11.dtd">
<!-- Generated by graphviz version 2.43.0 (0)
 -->
<!-- Title: PEv2_AdditionalParametersSet Pages: 1 -->
<svg width="792pt" height="142pt"
 viewBox="0.00 0.00 792.00 142.00" xmlns="http://www.w3.org/2000/svg" xmlns:xlink="http://www.w3.org/1999/xlink">
<g id="graph0" class="graph" transform="scale(1 1) rotate(0) translate(4 138)">
<title>PEv2_AdditionalParametersSet</title>
<polygon fill="white" stroke="transparent" points="-4,4 -4,-138 788,-138 788,4 -4,4"/>
<!-- Node1 -->
<g id="node1" class="node">
<title>Node1</title>
<g id="a_node1"><a xlink:title="Updates and sets additional Pulse Engine v2 parameters, such as the emergency input pin.">
<polygon fill="#bfbfbf" stroke="black" points="0,-57.5 0,-76.5 167,-76.5 167,-57.5 0,-57.5"/>
<text text-anchor="middle" x="83.5" y="-64.5" font-family="Helvetica,sans-Serif" font-size="10.00">PEv2_AdditionalParametersSet</text>
</a>
</g>
</g>
<!-- Node2 -->
<g id="node2" class="node">
<title>Node2</title>
<g id="a_node2"><a xlink:href="pokeysHal_2PoKeysLibPulseEngine__v2_8c.html#a95741bd9f72bb28002dbebe585081fc4" target="_top" xlink:title="Read miscellaneous pulse engine parameters.">
<polygon fill="white" stroke="black" points="203,-114.5 203,-133.5 389,-133.5 389,-114.5 203,-114.5"/>
<text text-anchor="middle" x="296" y="-121.5" font-family="Helvetica,sans-Serif" font-size="10.00">PK_PEv2_AdditionalParametersGet</text>
</a>
</g>
</g>
<!-- Node1&#45;&gt;Node2 -->
<g id="edge1" class="edge">
<title>Node1&#45;&gt;Node2</title>
<path fill="none" stroke="midnightblue" d="M111.56,-76.59C135.42,-84.82 171.24,-96.65 203,-105 212.92,-107.61 223.52,-110.08 233.87,-112.33"/>
<polygon fill="midnightblue" stroke="midnightblue" points="233.17,-115.76 243.68,-114.41 234.62,-108.91 233.17,-115.76"/>
</g>
<!-- Node10 -->
<g id="node10" class="node">
<title>Node10</title>
<g id="a_node10"><a xlink:href="pokeysHal_2PoKeysLibPulseEngine__v2_8c.html#acc127b230b65a5cad22cbee3c503787e" target="_top" xlink:title="Configure miscellaneous pulse engine options.">
<polygon fill="white" stroke="black" points="203.5,-76.5 203.5,-95.5 388.5,-95.5 388.5,-76.5 203.5,-76.5"/>
<text text-anchor="middle" x="296" y="-83.5" font-family="Helvetica,sans-Serif" font-size="10.00">PK_PEv2_AdditionalParametersSet</text>
</a>
</g>
</g>
<!-- Node1&#45;&gt;Node10 -->
<g id="edge10" class="edge">
<title>Node1&#45;&gt;Node10</title>
<path fill="none" stroke="midnightblue" d="M167.09,-74.45C175.62,-75.22 184.35,-76.01 193.06,-76.8"/>
<polygon fill="midnightblue" stroke="midnightblue" points="192.98,-80.31 203.25,-77.72 193.6,-73.33 192.98,-80.31"/>
</g>
<!-- Node11 -->
<g id="node11" class="node">
<title>Node11</title>
<g id="a_node11"><a xlink:href="pokeysHal_2PoKeysLibDeviceData_8c.html#a6a81d74d50d0cebd8a290721396e196a" target="_top" xlink:title="Save current configuration to device flash (command 0x50).">
<polygon fill="white" stroke="black" points="234,-38.5 234,-57.5 358,-57.5 358,-38.5 234,-38.5"/>
<text text-anchor="middle" x="296" y="-45.5" font-family="Helvetica,sans-Serif" font-size="10.00">PK_SaveConfiguration</text>
</a>
</g>
</g>
<!-- Node1&#45;&gt;Node11 -->
<g id="edge13" class="edge">
<title>Node1&#45;&gt;Node11</title>
<path fill="none" stroke="midnightblue" d="M167.09,-59.55C185.76,-57.86 205.43,-56.08 223.59,-54.45"/>
<polygon fill="midnightblue" stroke="midnightblue" points="224.16,-57.91 233.8,-53.52 223.53,-50.94 224.16,-57.91"/>
</g>
<!-- Node12 -->
<g id="node12" class="node">
<title>Node12</title>
<g id="a_node12"><a xlink:href="rtapi_8h.html#a2432d36976ec87e60c9c92d3c0067182" target="_top" xlink:title=" ">
<polygon fill="white" stroke="black" points="249.5,-0.5 249.5,-19.5 342.5,-19.5 342.5,-0.5 249.5,-0.5"/>
<text text-anchor="middle" x="296" y="-7.5" font-family="Helvetica,sans-Serif" font-size="10.00">rtapi_print_msg</text>
</a>
</g>
</g>
<!-- Node1&#45;&gt;Node12 -->
<g id="edge16" class="edge">
<title>Node1&#45;&gt;Node12</title>
<path fill="none" stroke="midnightblue" d="M111.56,-57.41C135.42,-49.18 171.24,-37.35 203,-29 214.71,-25.92 227.36,-23.03 239.42,-20.48"/>
<polygon fill="midnightblue" stroke="midnightblue" points="240.3,-23.87 249.39,-18.42 238.88,-17.02 240.3,-23.87"/>
</g>
<!-- Node3 -->
<g id="node3" class="node">
<title>Node3</title>
<g id="a_node3"><a xlink:href="pokeyslib_2PoKeysLibCore_8c.html#acb1fdd8f77277dc66c4d037218bfcece" target="_top" xlink:title=" ">
<polygon fill="white" stroke="black" points="425,-95.5 425,-114.5 514,-114.5 514,-95.5 425,-95.5"/>
<text text-anchor="middle" x="469.5" y="-102.5" font-family="Helvetica,sans-Serif" font-size="10.00">CreateRequest</text>
</a>
</g>
</g>
<!-- Node2&#45;&gt;Node3 -->
<g id="edge2" class="edge">
<title>Node2&#45;&gt;Node3</title>
<path fill="none" stroke="midnightblue" d="M383,-114.47C393.79,-113.28 404.58,-112.08 414.68,-110.96"/>
<polygon fill="midnightblue" stroke="midnightblue" points="415.37,-114.41 424.93,-109.83 414.6,-107.45 415.37,-114.41"/>
</g>
<!-- Node4 -->
<g id="node4" class="node">
<title>Node4</title>
<g id="a_node4"><a xlink:href="pokeyslib_2PoKeysLibCore_8c.html#ab5d92aa36d0a4a6953a055f5cd960aff" target="_top" xlink:title=" ">
<polygon fill="white" stroke="black" points="429.5,-57.5 429.5,-76.5 509.5,-76.5 509.5,-57.5 429.5,-57.5"/>
<text text-anchor="middle" x="469.5" y="-64.5" font-family="Helvetica,sans-Serif" font-size="10.00">SendRequest</text>
</a>
</g>
</g>
<!-- Node2&#45;&gt;Node4 -->
<g id="edge3" class="edge">
<title>Node2&#45;&gt;Node4</title>
<path fill="none" stroke="midnightblue" d="M355.6,-114.48C366.84,-111.93 378.41,-108.8 389,-105 406.03,-98.89 408.7,-93.85 425,-86 428.65,-84.24 432.51,-82.46 436.36,-80.72"/>
<polygon fill="midnightblue" stroke="midnightblue" points="438.05,-83.8 445.78,-76.55 435.22,-77.4 438.05,-83.8"/>
</g>
<!-- Node5 -->
<g id="node5" class="node">
<title>Node5</title>
<g id="a_node5"><a xlink:href="pokeyslib_2PoKeysLibCore_8c.html#a273b6d635dea8f559b915cdb289d021e" target="_top" xlink:title=" ">
<polygon fill="white" stroke="black" points="691.5,-95.5 691.5,-114.5 774.5,-114.5 774.5,-95.5 691.5,-95.5"/>
<text text-anchor="middle" x="733" y="-102.5" font-family="Helvetica,sans-Serif" font-size="10.00">getChecksum</text>
</a>
</g>
</g>
<!-- Node4&#45;&gt;Node5 -->
<g id="edge4" class="edge">
<title>Node4&#45;&gt;Node5</title>
<path fill="none" stroke="midnightblue" d="M493.22,-76.55C499.96,-79.48 507.32,-82.78 514,-86 530.3,-93.85 532.44,-100.65 550,-105 593.31,-115.73 644.23,-114.62 681.17,-111.47"/>
<polygon fill="midnightblue" stroke="midnightblue" points="681.57,-114.95 691.2,-110.54 680.92,-107.98 681.57,-114.95"/>
</g>
<!-- Node6 -->
<g id="node6" class="node">
<title>Node6</title>
<g id="a_node6"><a xlink:href="group__API.html#ga6b820f3e72097cf7f994e33715dc7af1" target="_top" xlink:title="Read an Input report from a HID device.">
<polygon fill="white" stroke="black" points="568.5,-38.5 568.5,-57.5 627.5,-57.5 627.5,-38.5 568.5,-38.5"/>
<text text-anchor="middle" x="598" y="-45.5" font-family="Helvetica,sans-Serif" font-size="10.00">hid_read</text>
</a>
</g>
</g>
<!-- Node4&#45;&gt;Node6 -->
<g id="edge5" class="edge">
<title>Node4&#45;&gt;Node6</title>
<path fill="none" stroke="midnightblue" d="M509.83,-61.09C525.15,-58.79 542.67,-56.16 557.96,-53.86"/>
<polygon fill="midnightblue" stroke="midnightblue" points="558.77,-57.28 568.14,-52.33 557.73,-50.36 558.77,-57.28"/>
</g>
<!-- Node8 -->
<g id="node8" class="node">
<title>Node8</title>
<g id="a_node8"><a xlink:href="group__API.html#gad14ea48e440cf5066df87cc6488493af" target="_top" xlink:title="Write an Output report to a HID device.">
<polygon fill="white" stroke="black" points="567,-0.5 567,-19.5 629,-19.5 629,-0.5 567,-0.5"/>
<text text-anchor="middle" x="598" y="-7.5" font-family="Helvetica,sans-Serif" font-size="10.00">hid_write</text>
</a>
</g>
</g>
<!-- Node4&#45;&gt;Node8 -->
<g id="edge7" class="edge">
<title>Node4&#45;&gt;Node8</title>
<path fill="none" stroke="midnightblue" d="M489.62,-57.45C505.63,-49.56 529.14,-38.19 550,-29 554.19,-27.15 558.62,-25.27 563.02,-23.45"/>
<polygon fill="midnightblue" stroke="midnightblue" points="564.55,-26.6 572.49,-19.58 561.91,-20.12 564.55,-26.6"/>
</g>
<!-- Node9 -->
<g id="node9" class="node">
<title>Node9</title>
<g id="a_node9"><a xlink:href="pokeyslib_2PoKeysLibCoreSockets_8c.html#a22759fb4024c9081af26ac1bc6541b47" target="_top" xlink:title=" ">
<polygon fill="white" stroke="black" points="550,-76.5 550,-95.5 646,-95.5 646,-76.5 550,-76.5"/>
<text text-anchor="middle" x="598" y="-83.5" font-family="Helvetica,sans-Serif" font-size="10.00">SendEthRequest</text>
</a>
</g>
</g>
<!-- Node4&#45;&gt;Node9 -->
<g id="edge8" class="edge">
<title>Node4&#45;&gt;Node9</title>
<path fill="none" stroke="midnightblue" d="M509.83,-72.91C519.3,-74.33 529.6,-75.88 539.7,-77.39"/>
<polygon fill="midnightblue" stroke="midnightblue" points="539.28,-80.87 549.69,-78.89 540.32,-73.95 539.28,-80.87"/>
</g>
<!-- Node7 -->
<g id="node7" class="node">
<title>Node7</title>
<g id="a_node7"><a xlink:href="group__API.html#gaa5c9ed5aa290688ffac03343989ad75a" target="_top" xlink:title="Read an Input report from a HID device with timeout.">
<polygon fill="white" stroke="black" points="682,-38.5 682,-57.5 784,-57.5 784,-38.5 682,-38.5"/>
<text text-anchor="middle" x="733" y="-45.5" font-family="Helvetica,sans-Serif" font-size="10.00">hid_read_timeout</text>
</a>
</g>
</g>
<!-- Node6&#45;&gt;Node7 -->
<g id="edge6" class="edge">
<title>Node6&#45;&gt;Node7</title>
<path fill="none" stroke="midnightblue" d="M627.53,-48C640.49,-48 656.35,-48 671.75,-48"/>
<polygon fill="midnightblue" stroke="midnightblue" points="671.77,-51.5 681.77,-48 671.77,-44.5 671.77,-51.5"/>
</g>
<!-- Node9&#45;&gt;Node5 -->
<g id="edge9" class="edge">
<title>Node9&#45;&gt;Node5</title>
<path fill="none" stroke="midnightblue" d="M646.27,-92.75C657.7,-94.39 669.96,-96.14 681.54,-97.79"/>
<polygon fill="midnightblue" stroke="midnightblue" points="681.1,-101.26 691.49,-99.21 682.09,-94.33 681.1,-101.26"/>
</g>
<!-- Node10&#45;&gt;Node3 -->
<g id="edge11" class="edge">
<title>Node10&#45;&gt;Node3</title>
<path fill="none" stroke="midnightblue" d="M383,-95.53C393.79,-96.72 404.58,-97.92 414.68,-99.04"/>
<polygon fill="midnightblue" stroke="midnightblue" points="414.6,-102.55 424.93,-100.17 415.37,-95.59 414.6,-102.55"/>
</g>
<!-- Node10&#45;&gt;Node4 -->
<g id="edge12" class="edge">
<title>Node10&#45;&gt;Node4</title>
<path fill="none" stroke="midnightblue" d="M383,-76.47C395.41,-75.1 407.82,-73.72 419.18,-72.46"/>
<polygon fill="midnightblue" stroke="midnightblue" points="419.73,-75.92 429.29,-71.34 418.96,-68.97 419.73,-75.92"/>
</g>
<!-- Node11&#45;&gt;Node3 -->
<g id="edge14" class="edge">
<title>Node11&#45;&gt;Node3</title>
<path fill="none" stroke="midnightblue" d="M355.6,-57.52C366.84,-60.07 378.41,-63.2 389,-67 406.03,-73.11 408.7,-78.15 425,-86 428.65,-87.76 432.51,-89.54 436.36,-91.28"/>
<polygon fill="midnightblue" stroke="midnightblue" points="435.22,-94.6 445.78,-95.45 438.05,-88.2 435.22,-94.6"/>
</g>
<!-- Node11&#45;&gt;Node4 -->
<g id="edge15" class="edge">
<title>Node11&#45;&gt;Node4</title>
<path fill="none" stroke="midnightblue" d="M358.43,-54.81C378.38,-57.02 400.24,-59.44 419.19,-61.54"/>
<polygon fill="midnightblue" stroke="midnightblue" points="419.06,-65.04 429.39,-62.67 419.83,-58.09 419.06,-65.04"/>
</g>
</g>
</svg>
