<?xml version="1.0" encoding="UTF-8" standalone="no"?>
<!DOCTYPE svg PUBLIC "-//W3C//DTD SVG 1.1//EN"
 "http://www.w3.org/Graphics/SVG/1.1/DTD/svg11.dtd">
<!-- Generated by graphviz version 2.43.0 (0)
 -->
<!-- Title: hal_malloc Pages: 1 -->
<svg width="1104pt" height="610pt"
 viewBox="0.00 0.00 1104.00 609.50" xmlns="http://www.w3.org/2000/svg" xmlns:xlink="http://www.w3.org/1999/xlink">
<g id="graph0" class="graph" transform="scale(1 1) rotate(0) translate(4 605.5)">
<title>hal_malloc</title>
<polygon fill="white" stroke="transparent" points="-4,4 -4,-605.5 1100,-605.5 1100,4 -4,4"/>
<!-- Node1 -->
<g id="node1" class="node">
<title>Node1</title>
<g id="a_node1"><a xlink:title=" ">
<polygon fill="#bfbfbf" stroke="black" points="1026,-297 1026,-316 1096,-316 1096,-297 1026,-297"/>
<text text-anchor="middle" x="1061" y="-304" font-family="Helvetica,sans-Serif" font-size="10.00">hal_malloc</text>
</a>
</g>
</g>
<!-- Node2 -->
<g id="node2" class="node">
<title>Node2</title>
<g id="a_node2"><a xlink:href="pokeysHal_2PoKeysLibCoreSockets_8c.html#a4349c2ab43b65eb5448bfd273c899086" target="_top" xlink:title=" ">
<polygon fill="white" stroke="black" points="838.5,-582 838.5,-601 971.5,-601 971.5,-582 838.5,-582"/>
<text text-anchor="middle" x="905" y="-589" font-family="Helvetica,sans-Serif" font-size="10.00">GetBroadcastAddresses</text>
</a>
</g>
</g>
<!-- Node1&#45;&gt;Node2 -->
<g id="edge1" class="edge">
<title>Node1&#45;&gt;Node2</title>
<path fill="none" stroke="midnightblue" d="M1057.48,-326.15C1049.97,-381.64 1025.99,-537.74 990,-572.5 984.73,-577.59 978.4,-581.43 971.61,-584.3"/>
<polygon fill="midnightblue" stroke="midnightblue" points="1060.95,-326.56 1058.8,-316.19 1054.02,-325.64 1060.95,-326.56"/>
</g>
<!-- Node3 -->
<g id="node3" class="node">
<title>Node3</title>
<g id="a_node3"><a xlink:href="PoKeysLibCoreSocketsAsync_8c.html#a77f0ed536d31208acbf5de8b6e790a6a" target="_top" xlink:title=" ">
<polygon fill="white" stroke="black" points="824,-544 824,-563 986,-563 986,-544 824,-544"/>
<text text-anchor="middle" x="905" y="-551" font-family="Helvetica,sans-Serif" font-size="10.00">GetBroadcastAddressesAsync</text>
</a>
</g>
</g>
<!-- Node1&#45;&gt;Node3 -->
<g id="edge2" class="edge">
<title>Node1&#45;&gt;Node3</title>
<path fill="none" stroke="midnightblue" d="M1059.74,-326.23C1058.07,-369.45 1047.89,-473.09 990,-529.5 983.59,-535.75 975.67,-540.39 967.29,-543.83"/>
<polygon fill="midnightblue" stroke="midnightblue" points="1063.24,-326.26 1060.01,-316.17 1056.24,-326.07 1063.24,-326.26"/>
</g>
<!-- Node4 -->
<g id="node4" class="node">
<title>Node4</title>
<g id="a_node4"><a xlink:href="PoKeysLibCoreAsync_8c.html#ae3a4511713f05f8d9ba2f0250f07957e" target="_top" xlink:title=" ">
<polygon fill="white" stroke="black" points="646.5,-430 646.5,-449 760.5,-449 760.5,-430 646.5,-430"/>
<text text-anchor="middle" x="703.5" y="-437" font-family="Helvetica,sans-Serif" font-size="10.00">InitializeNewDevice</text>
</a>
</g>
</g>
<!-- Node1&#45;&gt;Node4 -->
<g id="edge3" class="edge">
<title>Node1&#45;&gt;Node4</title>
<path fill="none" stroke="midnightblue" d="M1053.68,-325.85C1044.25,-351.28 1023.89,-395.1 990,-415.5 919.79,-457.77 821.71,-455.57 760.7,-448.64"/>
<polygon fill="midnightblue" stroke="midnightblue" points="1057.06,-326.8 1057.06,-316.2 1050.45,-324.49 1057.06,-326.8"/>
</g>
<!-- Node5 -->
<g id="node5" class="node">
<title>Node5</title>
<g id="a_node5"><a xlink:href="PoKeysLibCoreAsync_8c.html#a4a4450280f6d34ac5495f34bad644f83" target="_top" xlink:title=" ">
<polygon fill="white" stroke="black" points="438,-402 438,-421 557,-421 557,-402 438,-402"/>
<text text-anchor="middle" x="497.5" y="-409" font-family="Helvetica,sans-Serif" font-size="10.00">PK_ConnectToDevice</text>
</a>
</g>
</g>
<!-- Node1&#45;&gt;Node5 -->
<g id="edge15" class="edge">
<title>Node1&#45;&gt;Node5</title>
<path fill="none" stroke="midnightblue" d="M1037.48,-321.45C1024.2,-329.56 1006.76,-339.01 990,-344.5 839.2,-393.87 650.87,-406.88 557.15,-410.3"/>
<polygon fill="midnightblue" stroke="midnightblue" points="1039.35,-324.41 1045.95,-316.12 1035.62,-318.49 1039.35,-324.41"/>
</g>
<!-- Node7 -->
<g id="node7" class="node">
<title>Node7</title>
<g id="a_node7"><a xlink:href="PoKeysLibCoreSocketsAsync_8c.html#af026e295100bd1c2db31bbba282f4816" target="_top" xlink:title="Connects to a PoKeys network device asynchronously (UDP only, Linux&#45;only).">
<polygon fill="white" stroke="black" points="417.5,-440.5 417.5,-470.5 577.5,-470.5 577.5,-440.5 417.5,-440.5"/>
<text text-anchor="start" x="425.5" y="-458.5" font-family="Helvetica,sans-Serif" font-size="10.00">PK_ConnectToNetworkDevice</text>
<text text-anchor="middle" x="497.5" y="-447.5" font-family="Helvetica,sans-Serif" font-size="10.00">Async</text>
</a>
</g>
</g>
<!-- Node1&#45;&gt;Node7 -->
<g id="edge21" class="edge">
<title>Node1&#45;&gt;Node7</title>
<path fill="none" stroke="midnightblue" d="M1056.76,-326.22C1050.34,-358.16 1032.76,-420.45 990,-448.5 924.36,-491.57 699.17,-476.34 577.69,-464.37"/>
<polygon fill="midnightblue" stroke="midnightblue" points="1060.21,-326.77 1058.58,-316.3 1053.33,-325.5 1060.21,-326.77"/>
</g>
<!-- Node8 -->
<g id="node8" class="node">
<title>Node8</title>
<g id="a_node8"><a xlink:href="PoKeysLibCoreAsync_8c.html#aad34d6ff8fa450eef13043fad9a9231b" target="_top" xlink:title=" ">
<polygon fill="white" stroke="black" points="420.5,-352.5 420.5,-382.5 574.5,-382.5 574.5,-352.5 420.5,-352.5"/>
<text text-anchor="start" x="428.5" y="-370.5" font-family="Helvetica,sans-Serif" font-size="10.00">PK_ConnectToPoKeysDevice</text>
<text text-anchor="middle" x="497.5" y="-359.5" font-family="Helvetica,sans-Serif" font-size="10.00">_Ethernet</text>
</a>
</g>
</g>
<!-- Node1&#45;&gt;Node8 -->
<g id="edge22" class="edge">
<title>Node1&#45;&gt;Node8</title>
<path fill="none" stroke="midnightblue" d="M1038.4,-321.54C1025.1,-329.95 1007.32,-339.67 990,-344.5 847.45,-384.27 672.73,-380.74 574.68,-374.31"/>
<polygon fill="midnightblue" stroke="midnightblue" points="1040.4,-324.42 1046.84,-316.02 1036.56,-318.57 1040.4,-324.42"/>
</g>
<!-- Node12 -->
<g id="node12" class="node">
<title>Node12</title>
<g id="a_node12"><a xlink:href="PoKeysLibCoreAsync_8c.html#ae21a3349787cf1f1150186e4858397e6" target="_top" xlink:title=" ">
<polygon fill="white" stroke="black" points="408,-490 408,-509 587,-509 587,-490 408,-490"/>
<text text-anchor="middle" x="497.5" y="-497" font-family="Helvetica,sans-Serif" font-size="10.00">PK_ConnectToPoKeysDevice_USB</text>
</a>
</g>
</g>
<!-- Node1&#45;&gt;Node12 -->
<g id="edge24" class="edge">
<title>Node1&#45;&gt;Node12</title>
<path fill="none" stroke="midnightblue" d="M1058.46,-326.37C1054.43,-363.11 1040.11,-441.15 990,-476.5 927.35,-520.69 710.92,-514.22 587.16,-506.4"/>
<polygon fill="midnightblue" stroke="midnightblue" points="1061.95,-326.67 1059.41,-316.38 1054.98,-326.01 1061.95,-326.67"/>
</g>
<!-- Node13 -->
<g id="node13" class="node">
<title>Node13</title>
<g id="a_node13"><a xlink:href="PoKeysLibCoreAsync_8c.html#ab408d399f6743266f7fb0b1c80d05cb5" target="_top" xlink:title=" ">
<polygon fill="white" stroke="black" points="835,-316 835,-335 975,-335 975,-316 835,-316"/>
<text text-anchor="middle" x="905" y="-323" font-family="Helvetica,sans-Serif" font-size="10.00">PK_CloneDeviceStructure</text>
</a>
</g>
</g>
<!-- Node1&#45;&gt;Node13 -->
<g id="edge13" class="edge">
<title>Node1&#45;&gt;Node13</title>
<path fill="none" stroke="midnightblue" d="M1015.58,-311.98C1002.94,-313.54 988.86,-315.28 975.11,-316.97"/>
<polygon fill="midnightblue" stroke="midnightblue" points="1016.33,-315.41 1025.82,-310.72 1015.47,-308.47 1016.33,-315.41"/>
</g>
<!-- Node14 -->
<g id="node14" class="node">
<title>Node14</title>
<g id="a_node14"><a xlink:href="PoKeysLibCoreAsync_8c.html#a2eb59032cb369076a4519d164155bba4" target="_top" xlink:title=" ">
<polygon fill="white" stroke="black" points="820,-278 820,-297 990,-297 990,-278 820,-278"/>
<text text-anchor="middle" x="905" y="-285" font-family="Helvetica,sans-Serif" font-size="10.00">PK_CloneDeviceStructureAsync</text>
</a>
</g>
</g>
<!-- Node1&#45;&gt;Node14 -->
<g id="edge14" class="edge">
<title>Node1&#45;&gt;Node14</title>
<path fill="none" stroke="midnightblue" d="M1015.61,-301.02C1005.45,-299.77 994.36,-298.4 983.26,-297.03"/>
<polygon fill="midnightblue" stroke="midnightblue" points="1015.47,-304.53 1025.82,-302.28 1016.33,-297.59 1015.47,-304.53"/>
</g>
<!-- Node15 -->
<g id="node15" class="node">
<title>Node15</title>
<g id="a_node15"><a xlink:href="PoKeysLibCoreAsync_8c.html#a69c51cb8610e4f5b3e5ca7ec8e8d7ce2" target="_top" xlink:title=" ">
<polygon fill="white" stroke="black" points="423.5,-114 423.5,-133 571.5,-133 571.5,-114 423.5,-114"/>
<text text-anchor="middle" x="497.5" y="-121" font-family="Helvetica,sans-Serif" font-size="10.00">PK_ConnectToDeviceAsync</text>
</a>
</g>
</g>
<!-- Node1&#45;&gt;Node15 -->
<g id="edge16" class="edge">
<title>Node1&#45;&gt;Node15</title>
<path fill="none" stroke="midnightblue" d="M1059.58,-286.64C1057.54,-246.44 1046.55,-155.93 990,-116.5 922.36,-69.34 676.76,-97.37 560.42,-113.94"/>
<polygon fill="midnightblue" stroke="midnightblue" points="1056.09,-286.9 1059.96,-296.77 1063.09,-286.64 1056.09,-286.9"/>
</g>
<!-- Node16 -->
<g id="node16" class="node">
<title>Node16</title>
<g id="a_node16"><a xlink:href="pokeysHal_2PoKeysLibCoreSockets_8c.html#adc6dbd8de4b4df5dbee307b15af90373" target="_top" xlink:title=" ">
<polygon fill="white" stroke="black" points="623.5,-263 623.5,-282 783.5,-282 783.5,-263 623.5,-263"/>
<text text-anchor="middle" x="703.5" y="-270" font-family="Helvetica,sans-Serif" font-size="10.00">PK_ConnectToNetworkDevice</text>
</a>
</g>
</g>
<!-- Node1&#45;&gt;Node16 -->
<g id="edge17" class="edge">
<title>Node1&#45;&gt;Node16</title>
<path fill="none" stroke="midnightblue" d="M1038.48,-291.16C1025.2,-282.65 1007.42,-272.92 990,-268.5 913.13,-248.98 820.82,-255.42 762.4,-263"/>
<polygon fill="midnightblue" stroke="midnightblue" points="1036.64,-294.14 1046.9,-296.77 1040.52,-288.31 1036.64,-294.14"/>
</g>
<!-- Node17 -->
<g id="node17" class="node">
<title>Node17</title>
<g id="a_node17"><a xlink:href="PoKeysLibCoreAsync_8c.html#aeb938e90bdf18533a0f33c0f9d4c29e0" target="_top" xlink:title=" ">
<polygon fill="white" stroke="black" points="420.5,-158.5 420.5,-188.5 574.5,-188.5 574.5,-158.5 420.5,-158.5"/>
<text text-anchor="start" x="428.5" y="-176.5" font-family="Helvetica,sans-Serif" font-size="10.00">PK_ConnectToPoKeysDevice</text>
<text text-anchor="middle" x="497.5" y="-165.5" font-family="Helvetica,sans-Serif" font-size="10.00">_Ethernet_Async</text>
</a>
</g>
</g>
<!-- Node1&#45;&gt;Node17 -->
<g id="edge23" class="edge">
<title>Node1&#45;&gt;Node17</title>
<path fill="none" stroke="midnightblue" d="M1054.46,-287.2C1045.68,-260.56 1025.77,-213.43 990,-192.5 921.73,-152.56 694.89,-160.47 574.73,-167.9"/>
<polygon fill="midnightblue" stroke="midnightblue" points="1051.17,-288.41 1057.47,-296.93 1057.86,-286.34 1051.17,-288.41"/>
</g>
<!-- Node18 -->
<g id="node18" class="node">
<title>Node18</title>
<g id="a_node18"><a xlink:href="PoKeysLibCoreAsync_8c.html#afb629f72217e5d0568b204b21253f8a0" target="_top" xlink:title=" ">
<polygon fill="white" stroke="black" points="420.5,-51.5 420.5,-81.5 574.5,-81.5 574.5,-51.5 420.5,-51.5"/>
<text text-anchor="start" x="428.5" y="-69.5" font-family="Helvetica,sans-Serif" font-size="10.00">PK_ConnectToPoKeysDevice</text>
<text text-anchor="middle" x="497.5" y="-58.5" font-family="Helvetica,sans-Serif" font-size="10.00">_USB_Async</text>
</a>
</g>
</g>
<!-- Node1&#45;&gt;Node18 -->
<g id="edge25" class="edge">
<title>Node1&#45;&gt;Node18</title>
<path fill="none" stroke="midnightblue" d="M1060.57,-286.86C1060.64,-242.63 1053.91,-135.25 990,-86.5 926.94,-38.39 696.63,-49.57 574.98,-59.32"/>
<polygon fill="midnightblue" stroke="midnightblue" points="1057.07,-286.85 1060.42,-296.9 1064.06,-286.95 1057.07,-286.85"/>
</g>
<!-- Node19 -->
<g id="node19" class="node">
<title>Node19</title>
<g id="a_node19"><a xlink:href="pokeysHal_2PoKeysLibDeviceData_8c.html#a9508e9fcbc964cae1ccdb57f582cb5e1" target="_top" xlink:title="Read device identification and feature set.">
<polygon fill="white" stroke="black" points="850.5,-202 850.5,-221 959.5,-221 959.5,-202 850.5,-202"/>
<text text-anchor="middle" x="905" y="-209" font-family="Helvetica,sans-Serif" font-size="10.00">PK_DeviceDataGet</text>
</a>
</g>
</g>
<!-- Node1&#45;&gt;Node19 -->
<g id="edge26" class="edge">
<title>Node1&#45;&gt;Node19</title>
<path fill="none" stroke="midnightblue" d="M1046.75,-288.54C1033.94,-272.4 1013.11,-249.21 990,-235.5 979.43,-229.23 967.14,-224.53 955.28,-221.03"/>
<polygon fill="midnightblue" stroke="midnightblue" points="1044.13,-290.88 1053,-296.67 1049.68,-286.61 1044.13,-290.88"/>
</g>
<!-- Node20 -->
<g id="node20" class="node">
<title>Node20</title>
<g id="a_node20"><a xlink:href="PoKeysLibCoreAsync_8c.html#acc56e7da96608a84025b34b1417331de" target="_top" xlink:title=" ">
<polygon fill="white" stroke="black" points="623,-126 623,-145 784,-145 784,-126 623,-126"/>
<text text-anchor="middle" x="703.5" y="-133" font-family="Helvetica,sans-Serif" font-size="10.00">PK_InitializeNewDeviceAsync</text>
</a>
</g>
</g>
<!-- Node1&#45;&gt;Node20 -->
<g id="edge32" class="edge">
<title>Node1&#45;&gt;Node20</title>
<path fill="none" stroke="midnightblue" d="M1056.96,-286.75C1050.78,-254.12 1033.46,-189.56 990,-159.5 919.23,-110.55 813.73,-116.8 752.75,-126"/>
<polygon fill="midnightblue" stroke="midnightblue" points="1053.55,-287.59 1058.7,-296.85 1060.45,-286.4 1053.55,-287.59"/>
</g>
<!-- Node21 -->
<g id="node21" class="node">
<title>Node21</title>
<g id="a_node21"><a xlink:href="group__hal__component__pokeys.html#ga02a043bec3c186f454680d36aa9a9604" target="_top" xlink:title="Export HAL pins and parameters for PoKeys analog and digital I/O.">
<polygon fill="white" stroke="black" points="841,-0.5 841,-30.5 969,-30.5 969,-0.5 841,-0.5"/>
<text text-anchor="start" x="849" y="-18.5" font-family="Helvetica,sans-Serif" font-size="10.00">PoKeysHALComponent</text>
<text text-anchor="middle" x="905" y="-7.5" font-family="Helvetica,sans-Serif" font-size="10.00">::PKIO_export_pins</text>
</a>
</g>
</g>
<!-- Node1&#45;&gt;Node21 -->
<g id="edge33" class="edge">
<title>Node1&#45;&gt;Node21</title>
<path fill="none" stroke="midnightblue" d="M1060.54,-286.75C1060.76,-238.9 1054.64,-115.6 990,-45.5 984.23,-39.24 977.06,-34.28 969.36,-30.36"/>
<polygon fill="midnightblue" stroke="midnightblue" points="1057.04,-286.92 1060.39,-296.97 1064.04,-287.02 1057.04,-286.92"/>
</g>
<!-- Node4&#45;&gt;Node5 -->
<g id="edge4" class="edge">
<title>Node4&#45;&gt;Node5</title>
<path fill="none" stroke="midnightblue" d="M636.52,-430.44C611,-426.94 582.03,-422.96 557.24,-419.56"/>
<polygon fill="midnightblue" stroke="midnightblue" points="636.1,-433.92 646.49,-431.81 637.06,-426.98 636.1,-433.92"/>
</g>
<!-- Node4&#45;&gt;Node7 -->
<g id="edge6" class="edge">
<title>Node4&#45;&gt;Node7</title>
<path fill="none" stroke="midnightblue" d="M636.31,-444.69C617.61,-446.16 597.07,-447.77 577.69,-449.29"/>
<polygon fill="midnightblue" stroke="midnightblue" points="636.79,-448.16 646.49,-443.89 636.24,-441.19 636.79,-448.16"/>
</g>
<!-- Node4&#45;&gt;Node8 -->
<g id="edge7" class="edge">
<title>Node4&#45;&gt;Node8</title>
<path fill="none" stroke="midnightblue" d="M653.58,-427.05C643.28,-423.79 632.63,-419.93 623,-415.5 605.75,-407.57 604.32,-400.28 587,-392.5 578.7,-388.77 569.7,-385.47 560.74,-382.58"/>
<polygon fill="midnightblue" stroke="midnightblue" points="652.71,-430.44 663.3,-429.99 654.74,-423.74 652.71,-430.44"/>
</g>
<!-- Node4&#45;&gt;Node12 -->
<g id="edge11" class="edge">
<title>Node4&#45;&gt;Node12</title>
<path fill="none" stroke="midnightblue" d="M668.89,-452.73C646.04,-461.4 615,-472.56 587,-480.5 574.6,-484.02 561.07,-487.23 548.39,-489.97"/>
<polygon fill="midnightblue" stroke="midnightblue" points="670.38,-455.91 678.46,-449.06 667.87,-449.38 670.38,-455.91"/>
</g>
<!-- Node6 -->
<g id="node6" class="node">
<title>Node6</title>
<g id="a_node6"><a xlink:href="pokeysHal_2pokeyslib_2PoKeysLibDevicePoKeys57Industrial_8c.html#ac8fc7ddca3e4def19bafb5dfb39bcc19" target="_top" xlink:title=" ">
<polygon fill="white" stroke="black" points="250.5,-352 250.5,-371 339.5,-371 339.5,-352 250.5,-352"/>
<text text-anchor="middle" x="295" y="-359" font-family="Helvetica,sans-Serif" font-size="10.00">PK57i_Connect</text>
</a>
</g>
</g>
<!-- Node5&#45;&gt;Node6 -->
<g id="edge5" class="edge">
<title>Node5&#45;&gt;Node6</title>
<path fill="none" stroke="midnightblue" d="M442.82,-399.73C431.31,-397.1 419.24,-394.27 408,-391.5 381.81,-385.04 352.35,-377.12 330.22,-371.04"/>
<polygon fill="midnightblue" stroke="midnightblue" points="442.23,-403.18 452.76,-401.97 443.77,-396.35 442.23,-403.18"/>
</g>
<!-- Node9 -->
<g id="node9" class="node">
<title>Node9</title>
<g id="a_node9"><a xlink:href="PoKeysLibCoreAsync_8c.html#a8ca5d1c479c3da4457b38ec866ea7e3d" target="_top" xlink:title=" ">
<polygon fill="white" stroke="black" points="218,-407 218,-426 372,-426 372,-407 218,-407"/>
<text text-anchor="middle" x="295" y="-414" font-family="Helvetica,sans-Serif" font-size="10.00">PK_ConnectToPoKeysDevice</text>
</a>
</g>
</g>
<!-- Node8&#45;&gt;Node9 -->
<g id="edge8" class="edge">
<title>Node8&#45;&gt;Node9</title>
<path fill="none" stroke="midnightblue" d="M424.87,-385C394.59,-392.41 360.5,-400.74 334.99,-406.97"/>
<polygon fill="midnightblue" stroke="midnightblue" points="426.1,-388.31 434.98,-382.53 424.44,-381.51 426.1,-388.31"/>
</g>
<!-- Node10 -->
<g id="node10" class="node">
<title>Node10</title>
<g id="a_node10"><a xlink:href="PoKeysLibCoreAsync_8c.html#ae19db1487bf5225a8fc84e9b70f0e2ec" target="_top" xlink:title=" ">
<polygon fill="white" stroke="black" points="13,-426 13,-445 169,-445 169,-426 13,-426"/>
<text text-anchor="middle" x="91" y="-433" font-family="Helvetica,sans-Serif" font-size="10.00">PK_ConnectToDeviceWSerial</text>
</a>
</g>
</g>
<!-- Node9&#45;&gt;Node10 -->
<g id="edge9" class="edge">
<title>Node9&#45;&gt;Node10</title>
<path fill="none" stroke="midnightblue" d="M207.7,-424.62C194.84,-425.83 181.66,-427.07 169.02,-428.26"/>
<polygon fill="midnightblue" stroke="midnightblue" points="208.29,-428.08 217.92,-423.66 207.64,-421.11 208.29,-428.08"/>
</g>
<!-- Node11 -->
<g id="node11" class="node">
<title>Node11</title>
<g id="a_node11"><a xlink:href="PoKeysLibCoreAsync_8c.html#a6ca83890b4c63d6132c83c7df831fb65" target="_top" xlink:title=" ">
<polygon fill="white" stroke="black" points="0,-388 0,-407 182,-407 182,-388 0,-388"/>
<text text-anchor="middle" x="91" y="-395" font-family="Helvetica,sans-Serif" font-size="10.00">PK_ConnectToDeviceWSerial_UDP</text>
</a>
</g>
</g>
<!-- Node9&#45;&gt;Node11 -->
<g id="edge10" class="edge">
<title>Node9&#45;&gt;Node11</title>
<path fill="none" stroke="midnightblue" d="M207.73,-408.39C199.31,-407.59 190.75,-406.79 182.29,-405.99"/>
<polygon fill="midnightblue" stroke="midnightblue" points="207.64,-411.89 217.92,-409.34 208.29,-404.92 207.64,-411.89"/>
</g>
<!-- Node12&#45;&gt;Node9 -->
<g id="edge12" class="edge">
<title>Node12&#45;&gt;Node9</title>
<path fill="none" stroke="midnightblue" d="M429.78,-487.5C422.33,-485.48 414.94,-483.15 408,-480.5 370.14,-466.02 329.83,-440.02 309.46,-426.03"/>
<polygon fill="midnightblue" stroke="midnightblue" points="429.01,-490.91 439.56,-489.99 430.73,-484.13 429.01,-490.91"/>
</g>
<!-- Node16&#45;&gt;Node6 -->
<g id="edge18" class="edge">
<title>Node16&#45;&gt;Node6</title>
<path fill="none" stroke="midnightblue" d="M648.97,-284.22C567.61,-302.03 414.42,-335.57 339.5,-351.98"/>
<polygon fill="midnightblue" stroke="midnightblue" points="649.98,-287.58 659,-282.02 648.48,-280.74 649.98,-287.58"/>
</g>
<!-- Node16&#45;&gt;Node8 -->
<g id="edge19" class="edge">
<title>Node16&#45;&gt;Node8</title>
<path fill="none" stroke="midnightblue" d="M672.35,-286.54C634.5,-304.17 569.83,-334.28 530.93,-352.4"/>
<polygon fill="midnightblue" stroke="midnightblue" points="674.23,-289.53 681.82,-282.13 671.27,-283.18 674.23,-289.53"/>
</g>
<!-- Node16&#45;&gt;Node17 -->
<g id="edge20" class="edge">
<title>Node16&#45;&gt;Node17</title>
<path fill="none" stroke="midnightblue" d="M673.52,-258.43C635.35,-239.91 568.52,-207.48 529.41,-188.5"/>
<polygon fill="midnightblue" stroke="midnightblue" points="672.04,-261.61 682.57,-262.83 675.1,-255.31 672.04,-261.61"/>
</g>
<!-- Node19&#45;&gt;Node4 -->
<g id="edge27" class="edge">
<title>Node19&#45;&gt;Node4</title>
<path fill="none" stroke="midnightblue" d="M876.71,-226.38C859.25,-236.73 836.81,-251.66 820,-268.5 767.11,-321.5 723.6,-401.94 709.4,-429.68"/>
<polygon fill="midnightblue" stroke="midnightblue" points="878.91,-229.14 885.82,-221.11 875.41,-223.08 878.91,-229.14"/>
</g>
<!-- Node19&#45;&gt;Node20 -->
<g id="edge28" class="edge">
<title>Node19&#45;&gt;Node20</title>
<path fill="none" stroke="midnightblue" d="M869.15,-198.22C829.23,-183.02 764.83,-158.48 729.56,-145.05"/>
<polygon fill="midnightblue" stroke="midnightblue" points="868.14,-201.59 878.73,-201.87 870.63,-195.04 868.14,-201.59"/>
</g>
<!-- Node20&#45;&gt;Node15 -->
<g id="edge29" class="edge">
<title>Node20&#45;&gt;Node15</title>
<path fill="none" stroke="midnightblue" d="M612.38,-130.2C598.72,-129.4 584.78,-128.58 571.54,-127.8"/>
<polygon fill="midnightblue" stroke="midnightblue" points="612.56,-133.72 622.75,-130.81 612.97,-126.73 612.56,-133.72"/>
</g>
<!-- Node20&#45;&gt;Node17 -->
<g id="edge30" class="edge">
<title>Node20&#45;&gt;Node17</title>
<path fill="none" stroke="midnightblue" d="M641.27,-146.91C620.38,-150.8 596.75,-155.2 574.82,-159.28"/>
<polygon fill="midnightblue" stroke="midnightblue" points="642.1,-150.31 651.29,-145.04 640.81,-143.43 642.1,-150.31"/>
</g>
<!-- Node20&#45;&gt;Node18 -->
<g id="edge31" class="edge">
<title>Node20&#45;&gt;Node18</title>
<path fill="none" stroke="midnightblue" d="M664.45,-122.63C630.05,-111 579.39,-93.86 543.1,-81.58"/>
<polygon fill="midnightblue" stroke="midnightblue" points="663.54,-126.02 674.13,-125.91 665.78,-119.39 663.54,-126.02"/>
</g>
</g>
</svg>
