<?xml version="1.0" encoding="UTF-8" standalone="no"?>
<!DOCTYPE svg PUBLIC "-//W3C//DTD SVG 1.1//EN"
 "http://www.w3.org/Graphics/SVG/1.1/DTD/svg11.dtd">
<!-- Generated by graphviz version 2.43.0 (0)
 -->
<!-- Title: /usr/include/linuxcnc/hal_parport.h Pages: 1 -->
<svg width="277pt" height="263pt"
 viewBox="0.00 0.00 277.00 263.00" xmlns="http://www.w3.org/2000/svg" xmlns:xlink="http://www.w3.org/1999/xlink">
<g id="graph0" class="graph" transform="scale(1 1) rotate(0) translate(4 259)">
<title>/usr/include/linuxcnc/hal_parport.h</title>
<polygon fill="white" stroke="transparent" points="-4,4 -4,-259 273,-259 273,4 -4,4"/>
<!-- Node1 -->
<g id="node1" class="node">
<title>Node1</title>
<g id="a_node1"><a xlink:title=" ">
<polygon fill="#bfbfbf" stroke="black" points="74,-224.5 74,-254.5 190,-254.5 190,-224.5 74,-224.5"/>
<text text-anchor="start" x="82" y="-242.5" font-family="Helvetica,sans-Serif" font-size="10.00">/usr/include/linuxcnc</text>
<text text-anchor="middle" x="132" y="-231.5" font-family="Helvetica,sans-Serif" font-size="10.00">/hal_parport.h</text>
</a>
</g>
</g>
<!-- Node2 -->
<g id="node2" class="node">
<title>Node2</title>
<g id="a_node2"><a xlink:href="rtapi__parport_8h.html" target="_top" xlink:title=" ">
<polygon fill="white" stroke="black" points="87.5,-168.5 87.5,-187.5 176.5,-187.5 176.5,-168.5 87.5,-168.5"/>
<text text-anchor="middle" x="132" y="-175.5" font-family="Helvetica,sans-Serif" font-size="10.00">rtapi_parport.h</text>
</a>
</g>
</g>
<!-- Node1&#45;&gt;Node2 -->
<g id="edge1" class="edge">
<title>Node1&#45;&gt;Node2</title>
<path fill="none" stroke="midnightblue" d="M132,-224.4C132,-216.47 132,-206.46 132,-197.86"/>
<polygon fill="midnightblue" stroke="midnightblue" points="135.5,-197.66 132,-187.66 128.5,-197.66 135.5,-197.66"/>
</g>
<!-- Node3 -->
<g id="node3" class="node">
<title>Node3</title>
<g id="a_node3"><a xlink:href="rtapi_8h.html" target="_top" xlink:title=" ">
<polygon fill="white" stroke="black" points="78,-56.5 78,-75.5 126,-75.5 126,-56.5 78,-56.5"/>
<text text-anchor="middle" x="102" y="-63.5" font-family="Helvetica,sans-Serif" font-size="10.00">rtapi.h</text>
</a>
</g>
</g>
<!-- Node2&#45;&gt;Node3 -->
<g id="edge2" class="edge">
<title>Node2&#45;&gt;Node3</title>
<path fill="none" stroke="midnightblue" d="M120.73,-168.43C111.03,-160.27 97.72,-147.05 92,-132 86.24,-116.84 89.95,-98.5 94.39,-85.16"/>
<polygon fill="midnightblue" stroke="midnightblue" points="97.71,-86.3 97.95,-75.71 91.15,-83.83 97.71,-86.3"/>
</g>
<!-- Node7 -->
<g id="node7" class="node">
<title>Node7</title>
<g id="a_node7"><a xlink:href="rtapi__io_8h.html" target="_top" xlink:title=" ">
<polygon fill="white" stroke="black" points="101,-112.5 101,-131.5 163,-131.5 163,-112.5 101,-112.5"/>
<text text-anchor="middle" x="132" y="-119.5" font-family="Helvetica,sans-Serif" font-size="10.00">rtapi_io.h</text>
</a>
</g>
</g>
<!-- Node2&#45;&gt;Node7 -->
<g id="edge6" class="edge">
<title>Node2&#45;&gt;Node7</title>
<path fill="none" stroke="midnightblue" d="M132,-168.08C132,-161.01 132,-150.86 132,-141.99"/>
<polygon fill="midnightblue" stroke="midnightblue" points="135.5,-141.75 132,-131.75 128.5,-141.75 135.5,-141.75"/>
</g>
<!-- Node8 -->
<g id="node8" class="node">
<title>Node8</title>
<g id="a_node8"><a xlink:title=" ">
<polygon fill="white" stroke="#bfbfbf" points="181,-112.5 181,-131.5 269,-131.5 269,-112.5 181,-112.5"/>
<text text-anchor="middle" x="225" y="-119.5" font-family="Helvetica,sans-Serif" font-size="10.00">linux/parport.h</text>
</a>
</g>
</g>
<!-- Node2&#45;&gt;Node8 -->
<g id="edge8" class="edge">
<title>Node2&#45;&gt;Node8</title>
<path fill="none" stroke="midnightblue" d="M146.94,-168.32C161.59,-159.82 184.13,-146.73 201.24,-136.8"/>
<polygon fill="midnightblue" stroke="midnightblue" points="203.2,-139.7 210.1,-131.65 199.69,-133.65 203.2,-139.7"/>
</g>
<!-- Node4 -->
<g id="node4" class="node">
<title>Node4</title>
<g id="a_node4"><a xlink:title=" ">
<polygon fill="white" stroke="#bfbfbf" points="0,-0.5 0,-19.5 56,-19.5 56,-0.5 0,-0.5"/>
<text text-anchor="middle" x="28" y="-7.5" font-family="Helvetica,sans-Serif" font-size="10.00">stddef.h</text>
</a>
</g>
</g>
<!-- Node3&#45;&gt;Node4 -->
<g id="edge3" class="edge">
<title>Node3&#45;&gt;Node4</title>
<path fill="none" stroke="midnightblue" d="M90.11,-56.32C78.85,-48.11 61.71,-35.6 48.29,-25.81"/>
<polygon fill="midnightblue" stroke="midnightblue" points="50.25,-22.9 40.11,-19.83 46.12,-28.56 50.25,-22.9"/>
</g>
<!-- Node5 -->
<g id="node5" class="node">
<title>Node5</title>
<g id="a_node5"><a xlink:title=" ">
<polygon fill="white" stroke="#bfbfbf" points="74,-0.5 74,-19.5 130,-19.5 130,-0.5 74,-0.5"/>
<text text-anchor="middle" x="102" y="-7.5" font-family="Helvetica,sans-Serif" font-size="10.00">stdarg.h</text>
</a>
</g>
</g>
<!-- Node3&#45;&gt;Node5 -->
<g id="edge4" class="edge">
<title>Node3&#45;&gt;Node5</title>
<path fill="none" stroke="midnightblue" d="M102,-56.08C102,-49.01 102,-38.86 102,-29.99"/>
<polygon fill="midnightblue" stroke="midnightblue" points="105.5,-29.75 102,-19.75 98.5,-29.75 105.5,-29.75"/>
</g>
<!-- Node6 -->
<g id="node6" class="node">
<title>Node6</title>
<g id="a_node6"><a xlink:title=" ">
<polygon fill="white" stroke="#bfbfbf" points="148.5,-0.5 148.5,-19.5 205.5,-19.5 205.5,-0.5 148.5,-0.5"/>
<text text-anchor="middle" x="177" y="-7.5" font-family="Helvetica,sans-Serif" font-size="10.00">spawn.h</text>
</a>
</g>
</g>
<!-- Node3&#45;&gt;Node6 -->
<g id="edge5" class="edge">
<title>Node3&#45;&gt;Node6</title>
<path fill="none" stroke="midnightblue" d="M114.05,-56.32C125.46,-48.11 142.83,-35.6 156.43,-25.81"/>
<polygon fill="midnightblue" stroke="midnightblue" points="158.66,-28.52 164.73,-19.83 154.57,-22.84 158.66,-28.52"/>
</g>
<!-- Node7&#45;&gt;Node3 -->
<g id="edge7" class="edge">
<title>Node7&#45;&gt;Node3</title>
<path fill="none" stroke="midnightblue" d="M127.05,-112.08C122.9,-104.61 116.85,-93.72 111.73,-84.52"/>
<polygon fill="midnightblue" stroke="midnightblue" points="114.78,-82.79 106.86,-75.75 108.66,-86.19 114.78,-82.79"/>
</g>
</g>
</svg>
