<?xml version="1.0" encoding="UTF-8" standalone="no"?>
<!DOCTYPE svg PUBLIC "-//W3C//DTD SVG 1.1//EN"
 "http://www.w3.org/Graphics/SVG/1.1/DTD/svg11.dtd">
<!-- Generated by graphviz version 2.43.0 (0)
 -->
<!-- Title: hal_malloc Pages: 1 -->
<!--zoomable 584 -->
<svg id="main" version="1.1" xmlns="http://www.w3.org/2000/svg" xmlns:xlink="http://www.w3.org/1999/xlink" xml:space="preserve" onload="init(evt)">
<style type="text/css"><![CDATA[
.edge:hover path { stroke: red; }
.edge:hover polygon { stroke: red; fill: red; }
]]></style>
<script type="text/javascript"><![CDATA[
var edges = document.getElementsByTagName('g');
if (edges && edges.length) {
  for (var i=0;i<edges.length;i++) {
    if (edges[i].id.substr(0,4)=='edge') {
      edges[i].setAttribute('class','edge');
    }
  }
}
]]></script>
        <defs>
                <circle id="rim" cx="0" cy="0" r="7"/>
                <circle id="rim2" cx="0" cy="0" r="3.5"/>
                <g id="zoomPlus">
                        <use xlink:href="#rim" fill="#404040">
                                <set attributeName="fill" to="#808080" begin="zoomplus.mouseover" end="zoomplus.mouseout"/>
                        </use>
                        <path d="M-4,0h8M0,-4v8" fill="none" stroke="white" stroke-width="1.5" pointer-events="none"/>
                </g>
                <g id="zoomMin">
                        <use xlink:href="#rim" fill="#404040">
                                <set attributeName="fill" to="#808080" begin="zoomminus.mouseover" end="zoomminus.mouseout"/>
                        </use>
                        <path d="M-4,0h8" fill="none" stroke="white" stroke-width="1.5" pointer-events="none"/>
                </g>
                <g id="dirArrow">
                        <path fill="none" stroke="white" stroke-width="1.5" d="M0,-3.0v7 M-2.5,-0.5L0,-3.0L2.5,-0.5"/>
                </g>
               <g id="resetDef">
                       <use xlink:href="#rim2" fill="#404040">
                               <set attributeName="fill" to="#808080" begin="reset.mouseover" end="reset.mouseout"/>
                       </use>
               </g>
        </defs>

<script type="text/javascript">
var viewWidth = 907;
var viewHeight = 584;
var sectionId = 'dynsection-3';
</script>
<script xlink:href="svgpan.js"/>
<svg id="graph" class="graph">
<g id="viewport">
<title>hal_malloc</title>
<polygon fill="white" stroke="transparent" points="-4,4 -4,-579.5 903,-579.5 903,4 -4,4"/>
<!-- Node1 -->
<g id="node1" class="node">
<title>Node1</title>
<g id="a_node1"><a xlink:title=" ">
<polygon fill="#bfbfbf" stroke="black" points="829,-290 829,-309 899,-309 899,-290 829,-290"/>
<text text-anchor="middle" x="864" y="-297" font-family="Helvetica,sans-Serif" font-size="10.00">hal_malloc</text>
</a>
</g>
</g>
<!-- Node2 -->
<g id="node2" class="node">
<title>Node2</title>
<g id="a_node2"><a xlink:href="experimental_2build_2PoKeysLibCoreSocketsAsync_8c.html#a77f0ed536d31208acbf5de8b6e790a6a" target="_top" xlink:title=" ">
<polygon fill="white" stroke="black" points="627,-556 627,-575 789,-575 789,-556 627,-556"/>
<text text-anchor="middle" x="708" y="-563" font-family="Helvetica,sans-Serif" font-size="10.00">GetBroadcastAddressesAsync</text>
</a>
</g>
</g>
<!-- Node1&#45;&gt;Node2 -->
<g id="edge1" class="edge">
<title>Node1&#45;&gt;Node2</title>
<path fill="none" stroke="midnightblue" d="M863.32,-319.64C862.9,-365.68 855.25,-479.45 793,-541.5 786.66,-547.82 778.78,-552.5 770.41,-555.96"/>
<polygon fill="midnightblue" stroke="midnightblue" points="866.82,-319.46 863.29,-309.46 859.82,-319.47 866.82,-319.46"/>
</g>
<!-- Node3 -->
<g id="node3" class="node">
<title>Node3</title>
<g id="a_node3"><a xlink:href="experimental_2build_2PoKeysLibCoreAsync_8c.html#ae3a4511713f05f8d9ba2f0250f07957e" target="_top" xlink:title=" ">
<polygon fill="white" stroke="black" points="651,-442 651,-461 765,-461 765,-442 651,-442"/>
<text text-anchor="middle" x="708" y="-449" font-family="Helvetica,sans-Serif" font-size="10.00">InitializeNewDevice</text>
</a>
</g>
</g>
<!-- Node1&#45;&gt;Node3 -->
<g id="edge2" class="edge">
<title>Node1&#45;&gt;Node3</title>
<path fill="none" stroke="midnightblue" d="M857.58,-319.08C848.77,-347.26 828.63,-399.02 793,-427.5 784.94,-433.94 775.24,-438.65 765.33,-442.1"/>
<polygon fill="midnightblue" stroke="midnightblue" points="861.02,-319.79 860.5,-309.2 854.31,-317.8 861.02,-319.79"/>
</g>
<!-- Node4 -->
<g id="node4" class="node">
<title>Node4</title>
<g id="a_node4"><a xlink:href="experimental_2build_2PoKeysLibCoreAsync_8c.html#a4a4450280f6d34ac5495f34bad644f83" target="_top" xlink:title=" ">
<polygon fill="white" stroke="black" points="438,-511 438,-530 557,-530 557,-511 438,-511"/>
<text text-anchor="middle" x="497.5" y="-518" font-family="Helvetica,sans-Serif" font-size="10.00">PK_ConnectToDevice</text>
</a>
</g>
</g>
<!-- Node1&#45;&gt;Node4 -->
<g id="edge12" class="edge">
<title>Node1&#45;&gt;Node4</title>
<path fill="none" stroke="midnightblue" d="M862.75,-319.19C861.04,-360.36 850.7,-455.39 793,-499.5 718.07,-556.78 598.71,-542.57 537.5,-530.04"/>
<polygon fill="midnightblue" stroke="midnightblue" points="866.25,-319.18 863.03,-309.09 859.25,-318.99 866.25,-319.18"/>
</g>
<!-- Node5 -->
<g id="node5" class="node">
<title>Node5</title>
<g id="a_node5"><a xlink:href="experimental_2build_2PoKeysLibCoreAsync_8c.html#aad34d6ff8fa450eef13043fad9a9231b" target="_top" xlink:title=" ">
<polygon fill="white" stroke="black" points="420.5,-448.5 420.5,-478.5 574.5,-478.5 574.5,-448.5 420.5,-448.5"/>
<text text-anchor="start" x="428.5" y="-466.5" font-family="Helvetica,sans-Serif" font-size="10.00">PK_ConnectToPoKeysDevice</text>
<text text-anchor="middle" x="497.5" y="-455.5" font-family="Helvetica,sans-Serif" font-size="10.00">_Ethernet</text>
</a>
</g>
</g>
<!-- Node1&#45;&gt;Node5 -->
<g id="edge16" class="edge">
<title>Node1&#45;&gt;Node5</title>
<path fill="none" stroke="midnightblue" d="M861.71,-319.18C858.09,-356.3 844.41,-435.99 793,-470.5 716.56,-521.8 602.02,-497.5 540.75,-478.55"/>
<polygon fill="midnightblue" stroke="midnightblue" points="865.21,-319.38 862.54,-309.13 858.23,-318.81 865.21,-319.38"/>
</g>
<!-- Node9 -->
<g id="node9" class="node">
<title>Node9</title>
<g id="a_node9"><a xlink:href="experimental_2build_2PoKeysLibCoreAsync_8c.html#ae21a3349787cf1f1150186e4858397e6" target="_top" xlink:title=" ">
<polygon fill="white" stroke="black" points="408,-410 408,-429 587,-429 587,-410 408,-410"/>
<text text-anchor="middle" x="497.5" y="-417" font-family="Helvetica,sans-Serif" font-size="10.00">PK_ConnectToPoKeysDevice_USB</text>
</a>
</g>
</g>
<!-- Node1&#45;&gt;Node9 -->
<g id="edge18" class="edge">
<title>Node1&#45;&gt;Node9</title>
<path fill="none" stroke="midnightblue" d="M855.05,-318.37C844.49,-340.82 823.54,-377.41 793,-394.5 723.48,-433.41 629.97,-434.32 567.14,-429.01"/>
<polygon fill="midnightblue" stroke="midnightblue" points="858.28,-319.73 859.17,-309.17 851.89,-316.87 858.28,-319.73"/>
</g>
<!-- Node10 -->
<g id="node10" class="node">
<title>Node10</title>
<g id="a_node10"><a xlink:href="experimental_2build_2PoKeysLibCoreAsync_8c.html#ab408d399f6743266f7fb0b1c80d05cb5" target="_top" xlink:title=" ">
<polygon fill="white" stroke="black" points="638,-366 638,-385 778,-385 778,-366 638,-366"/>
<text text-anchor="middle" x="708" y="-373" font-family="Helvetica,sans-Serif" font-size="10.00">PK_CloneDeviceStructure</text>
</a>
</g>
</g>
<!-- Node1&#45;&gt;Node10 -->
<g id="edge10" class="edge">
<title>Node1&#45;&gt;Node10</title>
<path fill="none" stroke="midnightblue" d="M846.66,-316.55C833.38,-329.41 813.54,-346.5 793,-356.5 785.07,-360.36 776.33,-363.45 767.58,-365.92"/>
<polygon fill="midnightblue" stroke="midnightblue" points="849.43,-318.73 854.03,-309.18 844.48,-313.78 849.43,-318.73"/>
</g>
<!-- Node11 -->
<g id="node11" class="node">
<title>Node11</title>
<g id="a_node11"><a xlink:href="experimental_2build_2PoKeysLibCoreAsync_8c.html#a2eb59032cb369076a4519d164155bba4" target="_top" xlink:title=" ">
<polygon fill="white" stroke="black" points="623,-328 623,-347 793,-347 793,-328 623,-328"/>
<text text-anchor="middle" x="708" y="-335" font-family="Helvetica,sans-Serif" font-size="10.00">PK_CloneDeviceStructureAsync</text>
</a>
</g>
</g>
<!-- Node1&#45;&gt;Node11 -->
<g id="edge11" class="edge">
<title>Node1&#45;&gt;Node11</title>
<path fill="none" stroke="midnightblue" d="M818.86,-310.39C796.39,-315.94 769.33,-322.61 747.69,-327.95"/>
<polygon fill="midnightblue" stroke="midnightblue" points="819.95,-313.73 828.82,-307.93 818.28,-306.93 819.95,-313.73"/>
</g>
<!-- Node12 -->
<g id="node12" class="node">
<title>Node12</title>
<g id="a_node12"><a xlink:href="experimental_2build_2PoKeysLibCoreAsync_8c.html#a69c51cb8610e4f5b3e5ca7ec8e8d7ce2" target="_top" xlink:title=" ">
<polygon fill="white" stroke="black" points="423.5,-280 423.5,-299 571.5,-299 571.5,-280 423.5,-280"/>
<text text-anchor="middle" x="497.5" y="-287" font-family="Helvetica,sans-Serif" font-size="10.00">PK_ConnectToDeviceAsync</text>
</a>
</g>
</g>
<!-- Node1&#45;&gt;Node12 -->
<g id="edge13" class="edge">
<title>Node1&#45;&gt;Node12</title>
<path fill="none" stroke="midnightblue" d="M818.58,-298.28C757.2,-296.6 645.68,-293.54 571.84,-291.51"/>
<polygon fill="midnightblue" stroke="midnightblue" points="818.62,-301.78 828.71,-298.56 818.81,-294.79 818.62,-301.78"/>
</g>
<!-- Node13 -->
<g id="node13" class="node">
<title>Node13</title>
<g id="a_node13"><a xlink:href="pokeysHal_2experimental_2build_2PoKeysLibCoreSockets_8c.html#adc6dbd8de4b4df5dbee307b15af90373" target="_top" xlink:title=" ">
<polygon fill="white" stroke="black" points="628,-138 628,-157 788,-157 788,-138 628,-138"/>
<text text-anchor="middle" x="708" y="-145" font-family="Helvetica,sans-Serif" font-size="10.00">PK_ConnectToNetworkDevice</text>
</a>
</g>
</g>
<!-- Node1&#45;&gt;Node13 -->
<g id="edge14" class="edge">
<title>Node1&#45;&gt;Node13</title>
<path fill="none" stroke="midnightblue" d="M857.58,-279.92C848.77,-251.74 828.63,-199.98 793,-171.5 785.06,-165.16 775.53,-160.49 765.77,-157.05"/>
<polygon fill="midnightblue" stroke="midnightblue" points="854.31,-281.2 860.5,-289.8 861.02,-279.21 854.31,-281.2"/>
</g>
<!-- Node14 -->
<g id="node14" class="node">
<title>Node14</title>
<g id="a_node14"><a xlink:href="experimental_2build_2PoKeysLibCoreSocketsAsync_8c.html#af026e295100bd1c2db31bbba282f4816" target="_top" xlink:title="Connects to a PoKeys network device asynchronously (UDP only, Linux&#45;only).">
<polygon fill="white" stroke="black" points="628,-88.5 628,-118.5 788,-118.5 788,-88.5 628,-88.5"/>
<text text-anchor="start" x="636" y="-106.5" font-family="Helvetica,sans-Serif" font-size="10.00">PK_ConnectToNetworkDevice</text>
<text text-anchor="middle" x="708" y="-95.5" font-family="Helvetica,sans-Serif" font-size="10.00">Async</text>
</a>
</g>
</g>
<!-- Node1&#45;&gt;Node14 -->
<g id="edge15" class="edge">
<title>Node1&#45;&gt;Node14</title>
<path fill="none" stroke="midnightblue" d="M860.49,-279.64C854.93,-244.1 838.28,-169.49 793,-128.5 788.71,-124.62 783.85,-121.34 778.67,-118.57"/>
<polygon fill="midnightblue" stroke="midnightblue" points="857.05,-280.31 861.92,-289.72 863.98,-279.32 857.05,-280.31"/>
</g>
<!-- Node15 -->
<g id="node15" class="node">
<title>Node15</title>
<g id="a_node15"><a xlink:href="experimental_2build_2PoKeysLibCoreAsync_8c.html#aeb938e90bdf18533a0f33c0f9d4c29e0" target="_top" xlink:title=" ">
<polygon fill="white" stroke="black" points="420.5,-227.5 420.5,-257.5 574.5,-257.5 574.5,-227.5 420.5,-227.5"/>
<text text-anchor="start" x="428.5" y="-245.5" font-family="Helvetica,sans-Serif" font-size="10.00">PK_ConnectToPoKeysDevice</text>
<text text-anchor="middle" x="497.5" y="-234.5" font-family="Helvetica,sans-Serif" font-size="10.00">_Ethernet_Async</text>
</a>
</g>
</g>
<!-- Node1&#45;&gt;Node15 -->
<g id="edge17" class="edge">
<title>Node1&#45;&gt;Node15</title>
<path fill="none" stroke="midnightblue" d="M818.94,-292.57C810.34,-291.22 801.39,-289.81 793,-288.5 718.87,-276.89 634.23,-263.67 574.78,-254.39"/>
<polygon fill="midnightblue" stroke="midnightblue" points="818.4,-296.03 828.82,-294.12 819.49,-289.11 818.4,-296.03"/>
</g>
<!-- Node16 -->
<g id="node16" class="node">
<title>Node16</title>
<g id="a_node16"><a xlink:href="experimental_2build_2PoKeysLibCoreAsync_8c.html#afb629f72217e5d0568b204b21253f8a0" target="_top" xlink:title=" ">
<polygon fill="white" stroke="black" points="420.5,-173.5 420.5,-203.5 574.5,-203.5 574.5,-173.5 420.5,-173.5"/>
<text text-anchor="start" x="428.5" y="-191.5" font-family="Helvetica,sans-Serif" font-size="10.00">PK_ConnectToPoKeysDevice</text>
<text text-anchor="middle" x="497.5" y="-180.5" font-family="Helvetica,sans-Serif" font-size="10.00">_USB_Async</text>
</a>
</g>
</g>
<!-- Node1&#45;&gt;Node16 -->
<g id="edge19" class="edge">
<title>Node1&#45;&gt;Node16</title>
<path fill="none" stroke="midnightblue" d="M855.14,-280.47C844.66,-257.87 823.8,-221.13 793,-204.5 725.86,-168.26 637.11,-168.78 574.65,-175.55"/>
<polygon fill="midnightblue" stroke="midnightblue" points="851.99,-282 859.22,-289.74 858.39,-279.18 851.99,-282"/>
</g>
<!-- Node17 -->
<g id="node17" class="node">
<title>Node17</title>
<g id="a_node17"><a xlink:href="pokeysHal_2experimental_2build_2PoKeysLibDeviceData_8c.html#a9508e9fcbc964cae1ccdb57f582cb5e1" target="_top" xlink:title=" ">
<polygon fill="white" stroke="black" points="653.5,-50 653.5,-69 762.5,-69 762.5,-50 653.5,-50"/>
<text text-anchor="middle" x="708" y="-57" font-family="Helvetica,sans-Serif" font-size="10.00">PK_DeviceDataGet</text>
</a>
</g>
</g>
<!-- Node1&#45;&gt;Node17 -->
<g id="edge20" class="edge">
<title>Node1&#45;&gt;Node17</title>
<path fill="none" stroke="midnightblue" d="M862.91,-279.7C861.58,-236.38 852.03,-132.75 793,-78.5 784.63,-70.81 773.83,-66.01 762.78,-63.07"/>
<polygon fill="midnightblue" stroke="midnightblue" points="859.41,-279.86 863.1,-289.79 866.41,-279.73 859.41,-279.86"/>
</g>
<!-- Node18 -->
<g id="node18" class="node">
<title>Node18</title>
<g id="a_node18"><a xlink:href="experimental_2build_2PoKeysLibCoreAsync_8c.html#acc56e7da96608a84025b34b1417331de" target="_top" xlink:title=" ">
<polygon fill="white" stroke="black" points="627.5,-214 627.5,-233 788.5,-233 788.5,-214 627.5,-214"/>
<text text-anchor="middle" x="708" y="-221" font-family="Helvetica,sans-Serif" font-size="10.00">PK_InitializeNewDeviceAsync</text>
</a>
</g>
</g>
<!-- Node1&#45;&gt;Node18 -->
<g id="edge21" class="edge">
<title>Node1&#45;&gt;Node18</title>
<path fill="none" stroke="midnightblue" d="M844.84,-283.12C831.37,-271.72 812.11,-256.94 793,-247.5 780.76,-241.46 766.74,-236.7 753.71,-233.06"/>
<polygon fill="midnightblue" stroke="midnightblue" points="842.57,-285.78 852.42,-289.7 847.16,-280.5 842.57,-285.78"/>
</g>
<!-- Node19 -->
<g id="node19" class="node">
<title>Node19</title>
<g id="a_node19"><a xlink:href="group__hal__component__pokeys.html#ga02a043bec3c186f454680d36aa9a9604" target="_top" xlink:title="Export HAL pins and parameters for PoKeys analog and digital I/O.">
<polygon fill="white" stroke="black" points="644,-0.5 644,-30.5 772,-30.5 772,-0.5 644,-0.5"/>
<text text-anchor="start" x="652" y="-18.5" font-family="Helvetica,sans-Serif" font-size="10.00">PoKeysHALComponent</text>
<text text-anchor="middle" x="708" y="-7.5" font-family="Helvetica,sans-Serif" font-size="10.00">::PKIO_export_pins</text>
</a>
</g>
</g>
<!-- Node1&#45;&gt;Node19 -->
<g id="edge25" class="edge">
<title>Node1&#45;&gt;Node19</title>
<path fill="none" stroke="midnightblue" d="M863.73,-279.67C864.36,-231.69 859.09,-108.28 793,-40.5 787.16,-34.51 779.95,-29.94 772.23,-26.45"/>
<polygon fill="midnightblue" stroke="midnightblue" points="860.22,-279.85 863.48,-289.93 867.22,-280.01 860.22,-279.85"/>
</g>
<!-- Node3&#45;&gt;Node4 -->
<g id="edge3" class="edge">
<title>Node3&#45;&gt;Node4</title>
<path fill="none" stroke="midnightblue" d="M668.39,-464.28C627.51,-477.81 563.93,-498.85 527.24,-510.99"/>
<polygon fill="midnightblue" stroke="midnightblue" points="669.61,-467.56 678.01,-461.09 667.42,-460.91 669.61,-467.56"/>
</g>
<!-- Node3&#45;&gt;Node5 -->
<g id="edge4" class="edge">
<title>Node3&#45;&gt;Node5</title>
<path fill="none" stroke="midnightblue" d="M640.75,-455.31C619.75,-456.52 596.37,-457.87 574.73,-459.11"/>
<polygon fill="midnightblue" stroke="midnightblue" points="641.07,-458.8 650.85,-454.73 640.67,-451.81 641.07,-458.8"/>
</g>
<!-- Node3&#45;&gt;Node9 -->
<g id="edge8" class="edge">
<title>Node3&#45;&gt;Node9</title>
<path fill="none" stroke="midnightblue" d="M640.83,-441.34C615.15,-437.4 585.9,-432.91 560.62,-429.03"/>
<polygon fill="midnightblue" stroke="midnightblue" points="640.44,-444.82 650.85,-442.88 641.5,-437.91 640.44,-444.82"/>
</g>
<!-- Node6 -->
<g id="node6" class="node">
<title>Node6</title>
<g id="a_node6"><a xlink:href="experimental_2build_2PoKeysLibCoreAsync_8c.html#a8ca5d1c479c3da4457b38ec866ea7e3d" target="_top" xlink:title=" ">
<polygon fill="white" stroke="black" points="218,-432 218,-451 372,-451 372,-432 218,-432"/>
<text text-anchor="middle" x="295" y="-439" font-family="Helvetica,sans-Serif" font-size="10.00">PK_ConnectToPoKeysDevice</text>
</a>
</g>
</g>
<!-- Node5&#45;&gt;Node6 -->
<g id="edge5" class="edge">
<title>Node5&#45;&gt;Node6</title>
<path fill="none" stroke="midnightblue" d="M410.29,-454.04C397.57,-452.64 384.53,-451.21 372.03,-449.84"/>
<polygon fill="midnightblue" stroke="midnightblue" points="410.09,-457.54 420.41,-455.15 410.86,-450.58 410.09,-457.54"/>
</g>
<!-- Node7 -->
<g id="node7" class="node">
<title>Node7</title>
<g id="a_node7"><a xlink:href="experimental_2build_2PoKeysLibCoreAsync_8c.html#ae19db1487bf5225a8fc84e9b70f0e2ec" target="_top" xlink:title=" ">
<polygon fill="white" stroke="black" points="13,-451 13,-470 169,-470 169,-451 13,-451"/>
<text text-anchor="middle" x="91" y="-458" font-family="Helvetica,sans-Serif" font-size="10.00">PK_ConnectToDeviceWSerial</text>
</a>
</g>
</g>
<!-- Node6&#45;&gt;Node7 -->
<g id="edge6" class="edge">
<title>Node6&#45;&gt;Node7</title>
<path fill="none" stroke="midnightblue" d="M207.7,-449.62C194.84,-450.83 181.66,-452.07 169.02,-453.26"/>
<polygon fill="midnightblue" stroke="midnightblue" points="208.29,-453.08 217.92,-448.66 207.64,-446.11 208.29,-453.08"/>
</g>
<!-- Node8 -->
<g id="node8" class="node">
<title>Node8</title>
<g id="a_node8"><a xlink:href="experimental_2build_2PoKeysLibCoreAsync_8c.html#a6ca83890b4c63d6132c83c7df831fb65" target="_top" xlink:title=" ">
<polygon fill="white" stroke="black" points="0,-413 0,-432 182,-432 182,-413 0,-413"/>
<text text-anchor="middle" x="91" y="-420" font-family="Helvetica,sans-Serif" font-size="10.00">PK_ConnectToDeviceWSerial_UDP</text>
</a>
</g>
</g>
<!-- Node6&#45;&gt;Node8 -->
<g id="edge7" class="edge">
<title>Node6&#45;&gt;Node8</title>
<path fill="none" stroke="midnightblue" d="M207.73,-433.39C199.31,-432.59 190.75,-431.79 182.29,-430.99"/>
<polygon fill="midnightblue" stroke="midnightblue" points="207.64,-436.89 217.92,-434.34 208.29,-429.92 207.64,-436.89"/>
</g>
<!-- Node9&#45;&gt;Node6 -->
<g id="edge9" class="edge">
<title>Node9&#45;&gt;Node6</title>
<path fill="none" stroke="midnightblue" d="M399.73,-430.12C390.49,-431.13 381.21,-432.15 372.2,-433.14"/>
<polygon fill="midnightblue" stroke="midnightblue" points="400.17,-433.59 409.72,-429.02 399.4,-426.63 400.17,-433.59"/>
</g>
<!-- Node18&#45;&gt;Node12 -->
<g id="edge22" class="edge">
<title>Node18&#45;&gt;Node12</title>
<path fill="none" stroke="midnightblue" d="M674.03,-236.68C650.1,-245.98 616.83,-258.35 587,-267.5 572.17,-272.05 555.72,-276.34 541.07,-279.9"/>
<polygon fill="midnightblue" stroke="midnightblue" points="675.32,-239.94 683.35,-233.03 672.76,-233.42 675.32,-239.94"/>
</g>
<!-- Node18&#45;&gt;Node15 -->
<g id="edge23" class="edge">
<title>Node18&#45;&gt;Node15</title>
<path fill="none" stroke="midnightblue" d="M617.09,-231.69C602.97,-232.98 588.5,-234.3 574.74,-235.55"/>
<polygon fill="midnightblue" stroke="midnightblue" points="617.64,-235.16 627.28,-230.76 617.01,-228.19 617.64,-235.16"/>
</g>
<!-- Node18&#45;&gt;Node16 -->
<g id="edge24" class="edge">
<title>Node18&#45;&gt;Node16</title>
<path fill="none" stroke="midnightblue" d="M640.26,-212.3C619.4,-208.79 596.22,-204.9 574.75,-201.3"/>
<polygon fill="midnightblue" stroke="midnightblue" points="639.86,-215.78 650.3,-213.98 641.02,-208.88 639.86,-215.78"/>
</g>
</g>
</svg>
        <g id="navigator" transform="translate(0 0)" fill="#404254">
                <rect fill="#f2f5e9" fill-opacity="0.5" stroke="#606060" stroke-width=".5" x="0" y="0" width="60" height="60"/>
                <use id="zoomplus" xlink:href="#zoomPlus" x="17" y="9" onmousedown="handleZoom(evt,'in')"/>
                <use id="zoomminus" xlink:href="#zoomMin" x="42" y="9" onmousedown="handleZoom(evt,'out')"/>
                <use id="reset" xlink:href="#resetDef" x="30" y="36" onmousedown="handleReset()"/>
                <g id="arrowUp" xlink:href="#dirArrow" transform="translate(30 24)" onmousedown="handlePan(0,-1)">
                  <use xlink:href="#rim" fill="#404040">
                        <set attributeName="fill" to="#808080" begin="arrowUp.mouseover" end="arrowUp.mouseout"/>
                  </use>
                  <path fill="none" stroke="white" stroke-width="1.5" d="M0,-3.0v7 M-2.5,-0.5L0,-3.0L2.5,-0.5"/>
                </g>
                <g id="arrowRight" xlink:href="#dirArrow" transform="rotate(90) translate(36 -43)" onmousedown="handlePan(1,0)">
                  <use xlink:href="#rim" fill="#404040">
                        <set attributeName="fill" to="#808080" begin="arrowRight.mouseover" end="arrowRight.mouseout"/>
                  </use>
                  <path fill="none" stroke="white" stroke-width="1.5" d="M0,-3.0v7 M-2.5,-0.5L0,-3.0L2.5,-0.5"/>
                </g>
                <g id="arrowDown" xlink:href="#dirArrow" transform="rotate(180) translate(-30 -48)" onmousedown="handlePan(0,1)">
                  <use xlink:href="#rim" fill="#404040">
                        <set attributeName="fill" to="#808080" begin="arrowDown.mouseover" end="arrowDown.mouseout"/>
                  </use>
                  <path fill="none" stroke="white" stroke-width="1.5" d="M0,-3.0v7 M-2.5,-0.5L0,-3.0L2.5,-0.5"/>
                </g>
                <g id="arrowLeft" xlink:href="#dirArrow" transform="rotate(270) translate(-36 17)" onmousedown="handlePan(-1,0)">
                  <use xlink:href="#rim" fill="#404040">
                        <set attributeName="fill" to="#808080" begin="arrowLeft.mouseover" end="arrowLeft.mouseout"/>
                  </use>
                  <path fill="none" stroke="white" stroke-width="1.5" d="M0,-3.0v7 M-2.5,-0.5L0,-3.0L2.5,-0.5"/>
                </g>
        </g>
        <svg viewBox="0 0 15 15" width="100%" height="30px" preserveAspectRatio="xMaxYMin meet">
         <g id="arrow_out" transform="scale(0.3 0.3)">
          <a xlink:href="hal_8h_a37b839660591a915940fc471bbb5df4f_icgraph_org.svg" target="_base">
           <rect id="button" ry="5" rx="5" y="6" x="6" height="38" width="38"
                fill="#f2f5e9" fill-opacity="0.5" stroke="#606060" stroke-width="1.0"/>
           <path id="arrow"
             d="M 11.500037,31.436501 C 11.940474,20.09759 22.043105,11.32322 32.158766,21.979434 L 37.068811,17.246167 C 37.068811,17.246167 37.088388,32 37.088388,32 L 22.160133,31.978069 C 22.160133,31.978069 26.997745,27.140456 26.997745,27.140456 C 18.528582,18.264221 13.291696,25.230495 11.500037,31.436501 z"
             style="fill:#404040;"/>
          </a>
         </g>
        </svg>
</svg>
