<?xml version="1.0" encoding="UTF-8" standalone="no"?>
<!DOCTYPE svg PUBLIC "-//W3C//DTD SVG 1.1//EN"
 "http://www.w3.org/Graphics/SVG/1.1/DTD/svg11.dtd">
<!-- Generated by graphviz version 2.43.0 (0)
 -->
<!-- Title: /usr/include/linuxcnc/inifile.h Pages: 1 -->
<svg width="393pt" height="195pt"
 viewBox="0.00 0.00 393.00 195.00" xmlns="http://www.w3.org/2000/svg" xmlns:xlink="http://www.w3.org/1999/xlink">
<g id="graph0" class="graph" transform="scale(1 1) rotate(0) translate(4 191)">
<title>/usr/include/linuxcnc/inifile.h</title>
<polygon fill="white" stroke="transparent" points="-4,4 -4,-191 389,-191 389,4 -4,4"/>
<!-- Node1 -->
<g id="node1" class="node">
<title>Node1</title>
<g id="a_node1"><a xlink:title=" ">
<polygon fill="#bfbfbf" stroke="black" points="118,-156.5 118,-186.5 234,-186.5 234,-156.5 118,-156.5"/>
<text text-anchor="start" x="126" y="-174.5" font-family="Helvetica,sans-Serif" font-size="10.00">/usr/include/linuxcnc</text>
<text text-anchor="middle" x="176" y="-163.5" font-family="Helvetica,sans-Serif" font-size="10.00">/inifile.h</text>
</a>
</g>
</g>
<!-- Node2 -->
<g id="node2" class="node">
<title>Node2</title>
<g id="a_node2"><a xlink:href="pokeys_8c.html" target="_top" xlink:title="HAL component for integrating PoKeys57 devices with LinuxCNC.">
<polygon fill="white" stroke="black" points="0,-67.5 0,-119.5 184,-119.5 184,-67.5 0,-67.5"/>
<text text-anchor="start" x="8" y="-107.5" font-family="Helvetica,sans-Serif" font-size="10.00">/home/cnc/actions&#45;runner</text>
<text text-anchor="start" x="8" y="-96.5" font-family="Helvetica,sans-Serif" font-size="10.00">/_work/LinuxCnc_PokeysLibComp</text>
<text text-anchor="start" x="8" y="-85.5" font-family="Helvetica,sans-Serif" font-size="10.00">/LinuxCnc_PokeysLibComp/pokeys</text>
<text text-anchor="middle" x="92" y="-74.5" font-family="Helvetica,sans-Serif" font-size="10.00">_uspace/pokeys.c</text>
</a>
</g>
</g>
<!-- Node1&#45;&gt;Node2 -->
<g id="edge1" class="edge">
<title>Node1&#45;&gt;Node2</title>
<path fill="none" stroke="midnightblue" d="M152.77,-149.49C142.51,-140.2 130.36,-129.21 119.64,-119.5"/>
<polygon fill="midnightblue" stroke="midnightblue" points="150.44,-152.09 160.2,-156.2 155.13,-146.9 150.44,-152.09"/>
</g>
<!-- Node3 -->
<g id="node3" class="node">
<title>Node3</title>
<g id="a_node3"><a xlink:href="inifile_8hh.html" target="_top" xlink:title=" ">
<polygon fill="white" stroke="black" points="202,-78.5 202,-108.5 318,-108.5 318,-78.5 202,-78.5"/>
<text text-anchor="start" x="210" y="-96.5" font-family="Helvetica,sans-Serif" font-size="10.00">/usr/include/linuxcnc</text>
<text text-anchor="middle" x="260" y="-85.5" font-family="Helvetica,sans-Serif" font-size="10.00">/inifile.hh</text>
</a>
</g>
</g>
<!-- Node1&#45;&gt;Node3 -->
<g id="edge2" class="edge">
<title>Node1&#45;&gt;Node3</title>
<path fill="none" stroke="midnightblue" d="M199.33,-149.39C213.65,-136.43 231.62,-120.18 244.27,-108.73"/>
<polygon fill="midnightblue" stroke="midnightblue" points="196.87,-146.9 191.8,-156.2 201.56,-152.09 196.87,-146.9"/>
</g>
<!-- Node4 -->
<g id="node4" class="node">
<title>Node4</title>
<g id="a_node4"><a xlink:href="emcIniFile_8hh.html" target="_top" xlink:title=" ">
<polygon fill="white" stroke="black" points="135,-0.5 135,-30.5 251,-30.5 251,-0.5 135,-0.5"/>
<text text-anchor="start" x="143" y="-18.5" font-family="Helvetica,sans-Serif" font-size="10.00">/usr/include/linuxcnc</text>
<text text-anchor="middle" x="193" y="-7.5" font-family="Helvetica,sans-Serif" font-size="10.00">/emcIniFile.hh</text>
</a>
</g>
</g>
<!-- Node3&#45;&gt;Node4 -->
<g id="edge3" class="edge">
<title>Node3&#45;&gt;Node4</title>
<path fill="none" stroke="midnightblue" d="M240.76,-70.67C229.44,-57.83 215.45,-41.97 205.55,-30.73"/>
<polygon fill="midnightblue" stroke="midnightblue" points="238.16,-73.02 247.4,-78.2 243.41,-68.39 238.16,-73.02"/>
</g>
<!-- Node5 -->
<g id="node5" class="node">
<title>Node5</title>
<g id="a_node5"><a xlink:href="nml__mod_8hh.html" target="_top" xlink:title=" ">
<polygon fill="white" stroke="black" points="269,-0.5 269,-30.5 385,-30.5 385,-0.5 269,-0.5"/>
<text text-anchor="start" x="277" y="-18.5" font-family="Helvetica,sans-Serif" font-size="10.00">/usr/include/linuxcnc</text>
<text text-anchor="middle" x="327" y="-7.5" font-family="Helvetica,sans-Serif" font-size="10.00">/nml_mod.hh</text>
</a>
</g>
</g>
<!-- Node3&#45;&gt;Node5 -->
<g id="edge4" class="edge">
<title>Node3&#45;&gt;Node5</title>
<path fill="none" stroke="midnightblue" d="M279.24,-70.67C290.56,-57.83 304.55,-41.97 314.45,-30.73"/>
<polygon fill="midnightblue" stroke="midnightblue" points="276.59,-68.39 272.6,-78.2 281.84,-73.02 276.59,-68.39"/>
</g>
</g>
</svg>
