<?xml version="1.0" encoding="UTF-8" standalone="no"?><svg xmlns="http://www.w3.org/2000/svg" xmlns:xlink="http://www.w3.org/1999/xlink" contentScriptType="application/ecmascript" contentStyleType="text/css" height="1451px" preserveAspectRatio="none" style="width:435px;height:1451px;" version="1.1" viewBox="0 0 435 1451" width="435px" zoomAndPan="magnify"><defs><filter height="300%" id="f1widwfhh7kxgi" width="300%" x="-1" y="-1"><feGaussianBlur result="blurOut" stdDeviation="2.0"/><feColorMatrix in="blurOut" result="blurOut2" type="matrix" values="0 0 0 0 0 0 0 0 0 0 0 0 0 0 0 0 0 0 .4 0"/><feOffset dx="4.0" dy="4.0" in="blurOut2" result="blurOut3"/><feBlend in="SourceGraphic" in2="blurOut3" mode="normal"/></filter></defs><g><ellipse cx="270" cy="18" fill="#000000" filter="url(#f1widwfhh7kxgi)" rx="10" ry="10" style="stroke: none; stroke-width: 1.0;"/><rect fill="#FEFECE" filter="url(#f1widwfhh7kxgi)" height="50" rx="12.5" ry="12.5" style="stroke: #A80036; stroke-width: 1.5;" width="83" x="228.5" y="89"/><line style="stroke: #A80036; stroke-width: 1.5;" x1="228.5" x2="311.5" y1="115.2969" y2="115.2969"/><text fill="#000000" font-family="sans-serif" font-size="14" lengthAdjust="spacingAndGlyphs" textLength="63" x="238.5" y="106.9951">axREADY</text><rect fill="#FEFECE" filter="url(#f1widwfhh7kxgi)" height="50" rx="12.5" ry="12.5" style="stroke: #A80036; stroke-width: 1.5;" width="138" x="201" y="216"/><line style="stroke: #A80036; stroke-width: 1.5;" x1="201" x2="339" y1="242.2969" y2="242.2969"/><text fill="#000000" font-family="sans-serif" font-size="14" lengthAdjust="spacingAndGlyphs" textLength="118" x="211" y="233.9951">axHOMINGSTART</text><rect fill="#FEFECE" filter="url(#f1widwfhh7kxgi)" height="50" rx="12.5" ry="12.5" style="stroke: #A80036; stroke-width: 1.5;" width="149" x="195.5" y="327"/><line style="stroke: #A80036; stroke-width: 1.5;" x1="195.5" x2="344.5" y1="353.2969" y2="353.2969"/><text fill="#000000" font-family="sans-serif" font-size="14" lengthAdjust="spacingAndGlyphs" textLength="129" x="205.5" y="344.9951">axHOMINGSEARCH</text><rect fill="#FEFECE" filter="url(#f1widwfhh7kxgi)" height="50" rx="12.5" ry="12.5" style="stroke: #A80036; stroke-width: 1.5;" width="130" x="205" y="438"/><line style="stroke: #A80036; stroke-width: 1.5;" x1="205" x2="335" y1="464.2969" y2="464.2969"/><text fill="#000000" font-family="sans-serif" font-size="14" lengthAdjust="spacingAndGlyphs" textLength="110" x="215" y="455.9951">axHOMINGBACK</text><rect fill="#FEFECE" filter="url(#f1widwfhh7kxgi)" height="50" rx="12.5" ry="12.5" style="stroke: #A80036; stroke-width: 1.5;" width="178" x="181" y="549"/><line style="stroke: #A80036; stroke-width: 1.5;" x1="181" x2="359" y1="575.2969" y2="575.2969"/><text fill="#000000" font-family="sans-serif" font-size="14" lengthAdjust="spacingAndGlyphs" textLength="158" x="191" y="566.9951">axHOMING_RESETTING</text><rect fill="#FEFECE" filter="url(#f1widwfhh7kxgi)" height="50" rx="12.5" ry="12.5" style="stroke: #A80036; stroke-width: 1.5;" width="195" x="172.5" y="660"/><line style="stroke: #A80036; stroke-width: 1.5;" x1="172.5" x2="367.5" y1="686.2969" y2="686.2969"/><text fill="#000000" font-family="sans-serif" font-size="14" lengthAdjust="spacingAndGlyphs" textLength="175" x="182.5" y="677.9951">axHOMING_BACKING_OFF</text><rect fill="#FEFECE" filter="url(#f1widwfhh7kxgi)" height="50" rx="12.5" ry="12.5" style="stroke: #A80036; stroke-width: 1.5;" width="77" x="231.5" y="771"/><line style="stroke: #A80036; stroke-width: 1.5;" x1="231.5" x2="308.5" y1="797.2969" y2="797.2969"/><text fill="#000000" font-family="sans-serif" font-size="14" lengthAdjust="spacingAndGlyphs" textLength="57" x="241.5" y="788.9951">axHOME</text><rect fill="#FEFECE" filter="url(#f1widwfhh7kxgi)" height="50" rx="12.5" ry="12.5" style="stroke: #A80036; stroke-width: 1.5;" width="200" x="6" y="898"/><line style="stroke: #A80036; stroke-width: 1.5;" x1="6" x2="206" y1="924.2969" y2="924.2969"/><text fill="#000000" font-family="sans-serif" font-size="14" lengthAdjust="spacingAndGlyphs" textLength="180" x="16" y="915.9951">axReadyToFinalizeHoming</text><rect fill="#FEFECE" filter="url(#f1widwfhh7kxgi)" height="50" rx="12.5" ry="12.5" style="stroke: #A80036; stroke-width: 1.5;" width="181" x="20.5" y="1009"/><line style="stroke: #A80036; stroke-width: 1.5;" x1="20.5" x2="201.5" y1="1035.2969" y2="1035.2969"/><text fill="#000000" font-family="sans-serif" font-size="14" lengthAdjust="spacingAndGlyphs" textLength="161" x="30.5" y="1026.9951">axReadyToArmEncoder</text><rect fill="#FEFECE" filter="url(#f1widwfhh7kxgi)" height="50" rx="12.5" ry="12.5" style="stroke: #A80036; stroke-width: 1.5;" width="193" x="35.5" y="1136"/><line style="stroke: #A80036; stroke-width: 1.5;" x1="35.5" x2="228.5" y1="1162.2969" y2="1162.2969"/><text fill="#000000" font-family="sans-serif" font-size="14" lengthAdjust="spacingAndGlyphs" textLength="173" x="45.5" y="1153.9951">axHOMINGARMENCODER</text><rect fill="#FEFECE" filter="url(#f1widwfhh7kxgi)" height="50" rx="12.5" ry="12.5" style="stroke: #A80036; stroke-width: 1.5;" width="199" x="64.5" y="1263"/><line style="stroke: #A80036; stroke-width: 1.5;" x1="64.5" x2="263.5" y1="1289.2969" y2="1289.2969"/><text fill="#000000" font-family="sans-serif" font-size="14" lengthAdjust="spacingAndGlyphs" textLength="179" x="74.5" y="1280.9951">axHOMINGWaitFINALMOVE</text><rect fill="#FEFECE" filter="url(#f1widwfhh7kxgi)" height="50" rx="12.5" ry="12.5" style="stroke: #A80036; stroke-width: 1.5;" width="170" x="158" y="1390"/><line style="stroke: #A80036; stroke-width: 1.5;" x1="158" x2="328" y1="1416.2969" y2="1416.2969"/><text fill="#000000" font-family="sans-serif" font-size="14" lengthAdjust="spacingAndGlyphs" textLength="150" x="168" y="1407.9951">axHOMINGFINALMOVE</text><ellipse cx="259" cy="923" fill="none" filter="url(#f1widwfhh7kxgi)" rx="10" ry="10" style="stroke: #000000; stroke-width: 1.0;"/><ellipse cx="259.5" cy="923.5" fill="#000000" rx="6" ry="6" style="stroke: none; stroke-width: 1.0;"/><!--MD5=[18b6baf176f22095338f568fdf9d2d2b]
link *start to axREADY--><path d="M270,28.01 C270,40.7 270,64.41 270,83.57 " fill="none" id="*start-&gt;axREADY" style="stroke: #A80036; stroke-width: 1.0;"/><polygon fill="#A80036" points="270,88.84,274,79.84,270,83.84,266,79.84,270,88.84" style="stroke: #A80036; stroke-width: 1.0;"/><!--MD5=[6c75b09e4dc6188e9a4b6b5df0912bf1]
link axREADY to axHOMINGSTART--><path d="M270,139.1 C270,159.59 270,189.08 270,210.88 " fill="none" id="axREADY-&gt;axHOMINGSTART" style="stroke: #A80036; stroke-width: 1.0;"/><polygon fill="#A80036" points="270,215.97,274,206.97,270,210.97,266,206.97,270,215.97" style="stroke: #A80036; stroke-width: 1.0;"/><text fill="#000000" font-family="sans-serif" font-size="13" lengthAdjust="spacingAndGlyphs" textLength="94" x="271" y="182.0669">trigger homing</text><!--MD5=[b89437f412a4cf1152b2a7bc2577dcc5]
link axHOMINGSTART to axHOMINGSEARCH--><path d="M270,266.19 C270,282.56 270,304.28 270,321.64 " fill="none" id="axHOMINGSTART-&gt;axHOMINGSEARCH" style="stroke: #A80036; stroke-width: 1.0;"/><polygon fill="#A80036" points="270,326.88,274,317.88,270,321.88,266,317.88,270,326.88" style="stroke: #A80036; stroke-width: 1.0;"/><!--MD5=[814d2ebe3d51534579f5a2404b626a63]
link axHOMINGSEARCH to axHOMINGBACK--><path d="M270,377.19 C270,393.56 270,415.28 270,432.64 " fill="none" id="axHOMINGSEARCH-&gt;axHOMINGBACK" style="stroke: #A80036; stroke-width: 1.0;"/><polygon fill="#A80036" points="270,437.88,274,428.88,270,432.88,266,428.88,270,437.88" style="stroke: #A80036; stroke-width: 1.0;"/><!--MD5=[3a19fa244a208f13c65c433e61728925]
link axHOMINGBACK to axHOMING_RESETTING--><path d="M270,488.19 C270,504.56 270,526.28 270,543.64 " fill="none" id="axHOMINGBACK-&gt;axHOMING_RESETTING" style="stroke: #A80036; stroke-width: 1.0;"/><polygon fill="#A80036" points="270,548.88,274,539.88,270,543.88,266,539.88,270,548.88" style="stroke: #A80036; stroke-width: 1.0;"/><!--MD5=[7d3c8e118e182a0e6760fcda3cddad1c]
link axHOMING_RESETTING to axHOMING_BACKING_OFF--><path d="M270,599.19 C270,615.56 270,637.28 270,654.64 " fill="none" id="axHOMING_RESETTING-&gt;axHOMING_BACKING_OFF" style="stroke: #A80036; stroke-width: 1.0;"/><polygon fill="#A80036" points="270,659.88,274,650.88,270,654.88,266,650.88,270,659.88" style="stroke: #A80036; stroke-width: 1.0;"/><!--MD5=[c37543db04fe3e0202791fbe250b8ae2]
link axHOMING_BACKING_OFF to axHOME--><path d="M270,710.19 C270,726.56 270,748.28 270,765.64 " fill="none" id="axHOMING_BACKING_OFF-&gt;axHOME" style="stroke: #A80036; stroke-width: 1.0;"/><polygon fill="#A80036" points="270,770.88,274,761.88,270,765.88,266,761.88,270,770.88" style="stroke: #A80036; stroke-width: 1.0;"/><!--MD5=[b899f2651a8f99308e00dd55ed287d37]
link axHOME to axReadyToFinalizeHoming--><path d="M231.4,797.77 C192.88,800.84 135.46,812.17 107,851 C98.37,862.78 97.51,878.86 99.08,892.74 " fill="none" id="axHOME-&gt;axReadyToFinalizeHoming" style="stroke: #A80036; stroke-width: 1.0;"/><polygon fill="#A80036" points="99.76,897.74,102.5158,888.2846,99.0889,892.7852,94.5882,889.3583,99.76,897.74" style="stroke: #A80036; stroke-width: 1.0;"/><text fill="#000000" font-family="sans-serif" font-size="13" lengthAdjust="spacingAndGlyphs" textLength="147" x="108" y="864.0669">suppress internal state</text><!--MD5=[36bcfe525f90cb7e7df5b7add04ef224]
link axReadyToFinalizeHoming to axReadyToArmEncoder--><path d="M107.11,948.19 C107.86,964.56 108.86,986.28 109.65,1003.64 " fill="none" id="axReadyToFinalizeHoming-&gt;axReadyToArmEncoder" style="stroke: #A80036; stroke-width: 1.0;"/><polygon fill="#A80036" points="109.89,1008.88,113.4736,999.7063,109.661,1003.8852,105.482,1000.0726,109.89,1008.88" style="stroke: #A80036; stroke-width: 1.0;"/><!--MD5=[087da80d07b1c759b201563e048039d6]
link axReadyToArmEncoder to axHOMINGARMENCODER--><path d="M115.05,1059.1 C118.49,1079.59 123.44,1109.08 127.11,1130.88 " fill="none" id="axReadyToArmEncoder-&gt;axHOMINGARMENCODER" style="stroke: #A80036; stroke-width: 1.0;"/><polygon fill="#A80036" points="127.96,1135.97,130.4125,1126.4314,127.1311,1131.0392,122.5233,1127.7577,127.96,1135.97" style="stroke: #A80036; stroke-width: 1.0;"/><text fill="#000000" font-family="sans-serif" font-size="13" lengthAdjust="spacingAndGlyphs" textLength="106" x="124" y="1102.0669">index-enable set</text><!--MD5=[93a4d2f35020ca5d4c77640aa4178ffc]
link axHOMINGARMENCODER to axHOMINGWaitFINALMOVE--><path d="M138.17,1186.1 C143.42,1206.59 150.96,1236.08 156.55,1257.88 " fill="none" id="axHOMINGARMENCODER-&gt;axHOMINGWaitFINALMOVE" style="stroke: #A80036; stroke-width: 1.0;"/><polygon fill="#A80036" points="157.85,1262.97,159.4872,1253.2582,156.6071,1258.1269,151.7383,1255.2468,157.85,1262.97" style="stroke: #A80036; stroke-width: 1.0;"/><text fill="#000000" font-family="sans-serif" font-size="13" lengthAdjust="spacingAndGlyphs" textLength="95" x="151" y="1229.0669">index detected</text><!--MD5=[cbc54e38822f10c24e86fcb608cc3944]
link axHOMINGWaitFINALMOVE to axHOMINGFINALMOVE--><path d="M179.23,1313.1 C192.35,1333.85 211.29,1363.82 225.12,1385.71 " fill="none" id="axHOMINGWaitFINALMOVE-&gt;axHOMINGFINALMOVE" style="stroke: #A80036; stroke-width: 1.0;"/><polygon fill="#A80036" points="227.81,1389.97,226.3848,1380.2248,225.1395,1385.7429,219.6214,1384.4976,227.81,1389.97" style="stroke: #A80036; stroke-width: 1.0;"/><text fill="#000000" font-family="sans-serif" font-size="13" lengthAdjust="spacingAndGlyphs" textLength="84" x="210" y="1356.0669">synchronized</text><!--MD5=[ac54d00a0a65716ce82e0aea39be9dce]
link axHOMINGFINALMOVE to axHOME--><path d="M274.16,1389.84 C283.55,1381.27 293.16,1371 300,1360 C317.45,1331.95 322,1322.04 322,1289 C322,922 322,922 322,922 C322,886.82 304.22,850.04 289.46,825.57 " fill="none" id="axHOMINGFINALMOVE-&gt;axHOME" style="stroke: #A80036; stroke-width: 1.0;"/><polygon fill="#A80036" points="286.74,821.14,288.0265,830.9045,289.3501,825.4046,294.85,826.7283,286.74,821.14" style="stroke: #A80036; stroke-width: 1.0;"/><text fill="#000000" font-family="sans-serif" font-size="13" lengthAdjust="spacingAndGlyphs" textLength="100" x="323" y="1102.0669">move complete</text><!--MD5=[871fb21b895e6df356fe8da907db181c]
link axHOME to *end--><path d="M267.88,821.1 C265.62,846.76 262.12,886.52 260.26,907.65 " fill="none" id="axHOME-&gt;*end" style="stroke: #A80036; stroke-width: 1.0;"/><polygon fill="#A80036" points="259.81,912.85,264.5906,904.2392,260.2524,907.8696,256.622,903.5314,259.81,912.85" style="stroke: #A80036; stroke-width: 1.0;"/><!--MD5=[3ab71626db720c506d624fdb62b283c9]
@startuml inline_umlgraph_2.svg
[*] - -> axREADY
axREADY - -> axHOMINGSTART : trigger homing
axHOMINGSTART - -> axHOMINGSEARCH
axHOMINGSEARCH - -> axHOMINGBACK
axHOMINGBACK - -> axHOMING_RESETTING
axHOMING_RESETTING - -> axHOMING_BACKING_OFF
axHOMING_BACKING_OFF - -> axHOME
axHOME - -> axReadyToFinalizeHoming : suppress internal state
axReadyToFinalizeHoming - -> axReadyToArmEncoder
axReadyToArmEncoder - -> axHOMINGARMENCODER : index-enable set
axHOMINGARMENCODER - -> axHOMINGWaitFINALMOVE : index detected
axHOMINGWaitFINALMOVE - -> axHOMINGFINALMOVE : synchronized
axHOMINGFINALMOVE - -> axHOME : move complete
axHOME - -> [*]
@enduml

PlantUML version 1.2020.02(Sun Mar 01 21:22:07 AEDT 2020)
(GPL source distribution)
Java Runtime: OpenJDK Runtime Environment
JVM: OpenJDK 64-Bit Server VM
Java Version: 17.0.14+7-Debian-1deb12u1
Operating System: Linux
Default Encoding: UTF-8
Language: en
Country: null
--></g></svg>