<?xml version="1.0" encoding="UTF-8" standalone="no"?>
<!DOCTYPE svg PUBLIC "-//W3C//DTD SVG 1.1//EN"
 "http://www.w3.org/Graphics/SVG/1.1/DTD/svg11.dtd">
<!-- Generated by graphviz version 2.43.0 (0)
 -->
<!-- Title: /usr/include/linuxcnc/kinematics.h Pages: 1 -->
<svg width="526pt" height="195pt"
 viewBox="0.00 0.00 526.00 195.00" xmlns="http://www.w3.org/2000/svg" xmlns:xlink="http://www.w3.org/1999/xlink">
<g id="graph0" class="graph" transform="scale(1 1) rotate(0) translate(4 191)">
<title>/usr/include/linuxcnc/kinematics.h</title>
<polygon fill="white" stroke="transparent" points="-4,4 -4,-191 522,-191 522,4 -4,4"/>
<!-- Node1 -->
<g id="node1" class="node">
<title>Node1</title>
<g id="a_node1"><a xlink:title=" ">
<polygon fill="#bfbfbf" stroke="black" points="201,-156.5 201,-186.5 317,-186.5 317,-156.5 201,-156.5"/>
<text text-anchor="start" x="209" y="-174.5" font-family="Helvetica,sans-Serif" font-size="10.00">/usr/include/linuxcnc</text>
<text text-anchor="middle" x="259" y="-163.5" font-family="Helvetica,sans-Serif" font-size="10.00">/kinematics.h</text>
</a>
</g>
</g>
<!-- Node2 -->
<g id="node2" class="node">
<title>Node2</title>
<g id="a_node2"><a xlink:href="genhexkins_8h.html" target="_top" xlink:title=" ">
<polygon fill="white" stroke="black" points="0,-89.5 0,-119.5 116,-119.5 116,-89.5 0,-89.5"/>
<text text-anchor="start" x="8" y="-107.5" font-family="Helvetica,sans-Serif" font-size="10.00">/usr/include/linuxcnc</text>
<text text-anchor="middle" x="58" y="-96.5" font-family="Helvetica,sans-Serif" font-size="10.00">/genhexkins.h</text>
</a>
</g>
</g>
<!-- Node1&#45;&gt;Node2 -->
<g id="edge1" class="edge">
<title>Node1&#45;&gt;Node2</title>
<path fill="none" stroke="midnightblue" d="M205.59,-153.23C173.07,-142.71 132.06,-129.45 101.53,-119.58"/>
<polygon fill="midnightblue" stroke="midnightblue" points="204.79,-156.65 215.39,-156.4 206.95,-149.99 204.79,-156.65"/>
</g>
<!-- Node3 -->
<g id="node3" class="node">
<title>Node3</title>
<g id="a_node3"><a xlink:href="genserkins_8h.html" target="_top" xlink:title=" ">
<polygon fill="white" stroke="black" points="134,-89.5 134,-119.5 250,-119.5 250,-89.5 134,-89.5"/>
<text text-anchor="start" x="142" y="-107.5" font-family="Helvetica,sans-Serif" font-size="10.00">/usr/include/linuxcnc</text>
<text text-anchor="middle" x="192" y="-96.5" font-family="Helvetica,sans-Serif" font-size="10.00">/genserkins.h</text>
</a>
</g>
</g>
<!-- Node1&#45;&gt;Node3 -->
<g id="edge2" class="edge">
<title>Node1&#45;&gt;Node3</title>
<path fill="none" stroke="midnightblue" d="M237.16,-149.31C227.11,-139.56 215.46,-128.26 206.51,-119.58"/>
<polygon fill="midnightblue" stroke="midnightblue" points="234.85,-151.94 244.46,-156.4 239.72,-146.92 234.85,-151.94"/>
</g>
<!-- Node4 -->
<g id="node4" class="node">
<title>Node4</title>
<g id="a_node4"><a xlink:href="motion_8h.html" target="_top" xlink:title=" ">
<polygon fill="white" stroke="black" points="268,-89.5 268,-119.5 384,-119.5 384,-89.5 268,-89.5"/>
<text text-anchor="start" x="276" y="-107.5" font-family="Helvetica,sans-Serif" font-size="10.00">/usr/include/linuxcnc</text>
<text text-anchor="middle" x="326" y="-96.5" font-family="Helvetica,sans-Serif" font-size="10.00">/motion.h</text>
</a>
</g>
</g>
<!-- Node1&#45;&gt;Node4 -->
<g id="edge3" class="edge">
<title>Node1&#45;&gt;Node4</title>
<path fill="none" stroke="midnightblue" d="M280.84,-149.31C290.89,-139.56 302.54,-128.26 311.49,-119.58"/>
<polygon fill="midnightblue" stroke="midnightblue" points="278.28,-146.92 273.54,-156.4 283.15,-151.94 278.28,-146.92"/>
</g>
<!-- Node6 -->
<g id="node6" class="node">
<title>Node6</title>
<g id="a_node6"><a xlink:href="switchkins_8h.html" target="_top" xlink:title=" ">
<polygon fill="white" stroke="black" points="402,-89.5 402,-119.5 518,-119.5 518,-89.5 402,-89.5"/>
<text text-anchor="start" x="410" y="-107.5" font-family="Helvetica,sans-Serif" font-size="10.00">/usr/include/linuxcnc</text>
<text text-anchor="middle" x="460" y="-96.5" font-family="Helvetica,sans-Serif" font-size="10.00">/switchkins.h</text>
</a>
</g>
</g>
<!-- Node1&#45;&gt;Node6 -->
<g id="edge5" class="edge">
<title>Node1&#45;&gt;Node6</title>
<path fill="none" stroke="midnightblue" d="M312.41,-153.23C344.93,-142.71 385.94,-129.45 416.47,-119.58"/>
<polygon fill="midnightblue" stroke="midnightblue" points="311.05,-149.99 302.61,-156.4 313.21,-156.65 311.05,-149.99"/>
</g>
<!-- Node5 -->
<g id="node5" class="node">
<title>Node5</title>
<g id="a_node5"><a xlink:href="pokeys__homecomp_8c.html" target="_top" xlink:title="HAL component for managing homing sequence and state logic using PoKeys PulseEngine v2.">
<polygon fill="white" stroke="black" points="234,-0.5 234,-52.5 418,-52.5 418,-0.5 234,-0.5"/>
<text text-anchor="start" x="242" y="-40.5" font-family="Helvetica,sans-Serif" font-size="10.00">/home/cnc/actions&#45;runner</text>
<text text-anchor="start" x="242" y="-29.5" font-family="Helvetica,sans-Serif" font-size="10.00">/_work/LinuxCnc_PokeysLibComp</text>
<text text-anchor="start" x="242" y="-18.5" font-family="Helvetica,sans-Serif" font-size="10.00">/LinuxCnc_PokeysLibComp/pokeys</text>
<text text-anchor="middle" x="326" y="-7.5" font-family="Helvetica,sans-Serif" font-size="10.00">_rt/pokeys_homecomp.c</text>
</a>
</g>
</g>
<!-- Node4&#45;&gt;Node5 -->
<g id="edge4" class="edge">
<title>Node4&#45;&gt;Node5</title>
<path fill="none" stroke="midnightblue" d="M326,-79.14C326,-70.63 326,-61.07 326,-52.5"/>
<polygon fill="midnightblue" stroke="midnightblue" points="322.5,-79.2 326,-89.2 329.5,-79.21 322.5,-79.2"/>
</g>
</g>
</svg>
