<?xml version="1.0" encoding="UTF-8" standalone="no"?>
<!DOCTYPE svg PUBLIC "-//W3C//DTD SVG 1.1//EN"
 "http://www.w3.org/Graphics/SVG/1.1/DTD/svg11.dtd">
<!-- Generated by graphviz version 2.43.0 (0)
 -->
<!-- Title: /usr/include/linuxcnc/memsem.hh Pages: 1 -->
<svg width="152pt" height="207pt"
 viewBox="0.00 0.00 152.00 207.00" xmlns="http://www.w3.org/2000/svg" xmlns:xlink="http://www.w3.org/1999/xlink">
<g id="graph0" class="graph" transform="scale(1 1) rotate(0) translate(4 203)">
<title>/usr/include/linuxcnc/memsem.hh</title>
<polygon fill="white" stroke="transparent" points="-4,4 -4,-203 148,-203 148,4 -4,4"/>
<!-- Node1 -->
<g id="node1" class="node">
<title>Node1</title>
<g id="a_node1"><a xlink:title=" ">
<polygon fill="#bfbfbf" stroke="black" points="16,-168.5 16,-198.5 132,-198.5 132,-168.5 16,-168.5"/>
<text text-anchor="start" x="24" y="-186.5" font-family="Helvetica,sans-Serif" font-size="10.00">/usr/include/linuxcnc</text>
<text text-anchor="middle" x="74" y="-175.5" font-family="Helvetica,sans-Serif" font-size="10.00">/memsem.hh</text>
</a>
</g>
</g>
<!-- Node2 -->
<g id="node2" class="node">
<title>Node2</title>
<g id="a_node2"><a xlink:href="sem_8hh.html" target="_top" xlink:title=" ">
<polygon fill="white" stroke="black" points="47.5,-112.5 47.5,-131.5 100.5,-131.5 100.5,-112.5 47.5,-112.5"/>
<text text-anchor="middle" x="74" y="-119.5" font-family="Helvetica,sans-Serif" font-size="10.00">sem.hh</text>
</a>
</g>
</g>
<!-- Node1&#45;&gt;Node2 -->
<g id="edge1" class="edge">
<title>Node1&#45;&gt;Node2</title>
<path fill="none" stroke="midnightblue" d="M74,-168.4C74,-160.47 74,-150.46 74,-141.86"/>
<polygon fill="midnightblue" stroke="midnightblue" points="77.5,-141.66 74,-131.66 70.5,-141.66 77.5,-141.66"/>
</g>
<!-- Node3 -->
<g id="node3" class="node">
<title>Node3</title>
<g id="a_node3"><a xlink:href="__sem_8h.html" target="_top" xlink:title=" ">
<polygon fill="white" stroke="black" points="10,-56.5 10,-75.5 62,-75.5 62,-56.5 10,-56.5"/>
<text text-anchor="middle" x="36" y="-63.5" font-family="Helvetica,sans-Serif" font-size="10.00">_sem.h</text>
</a>
</g>
</g>
<!-- Node2&#45;&gt;Node3 -->
<g id="edge2" class="edge">
<title>Node2&#45;&gt;Node3</title>
<path fill="none" stroke="midnightblue" d="M67.73,-112.08C62.36,-104.46 54.48,-93.26 47.92,-83.94"/>
<polygon fill="midnightblue" stroke="midnightblue" points="50.78,-81.91 42.16,-75.75 45.05,-85.94 50.78,-81.91"/>
</g>
<!-- Node5 -->
<g id="node5" class="node">
<title>Node5</title>
<g id="a_node5"><a xlink:title=" ">
<polygon fill="white" stroke="#bfbfbf" points="80,-56.5 80,-75.5 144,-75.5 144,-56.5 80,-56.5"/>
<text text-anchor="middle" x="112" y="-63.5" font-family="Helvetica,sans-Serif" font-size="10.00">sys/stat.h</text>
</a>
</g>
</g>
<!-- Node2&#45;&gt;Node5 -->
<g id="edge4" class="edge">
<title>Node2&#45;&gt;Node5</title>
<path fill="none" stroke="midnightblue" d="M80.27,-112.08C85.64,-104.46 93.52,-93.26 100.08,-83.94"/>
<polygon fill="midnightblue" stroke="midnightblue" points="102.95,-85.94 105.84,-75.75 97.22,-81.91 102.95,-85.94"/>
</g>
<!-- Node4 -->
<g id="node4" class="node">
<title>Node4</title>
<g id="a_node4"><a xlink:title=" ">
<polygon fill="white" stroke="#bfbfbf" points="0,-0.5 0,-19.5 72,-19.5 72,-0.5 0,-0.5"/>
<text text-anchor="middle" x="36" y="-7.5" font-family="Helvetica,sans-Serif" font-size="10.00">sys/types.h</text>
</a>
</g>
</g>
<!-- Node3&#45;&gt;Node4 -->
<g id="edge3" class="edge">
<title>Node3&#45;&gt;Node4</title>
<path fill="none" stroke="midnightblue" d="M36,-56.08C36,-49.01 36,-38.86 36,-29.99"/>
<polygon fill="midnightblue" stroke="midnightblue" points="39.5,-29.75 36,-19.75 32.5,-29.75 39.5,-29.75"/>
</g>
</g>
</svg>
