<?xml version="1.0" encoding="UTF-8" standalone="no"?>
<!DOCTYPE svg PUBLIC "-//W3C//DTD SVG 1.1//EN"
 "http://www.w3.org/Graphics/SVG/1.1/DTD/svg11.dtd">
<!-- Generated by graphviz version 2.43.0 (0)
 -->
<!-- Title: /usr/include/linuxcnc/nml_type.hh Pages: 1 -->
<svg width="1254pt" height="240pt"
 viewBox="0.00 0.00 1254.40 240.00" xmlns="http://www.w3.org/2000/svg" xmlns:xlink="http://www.w3.org/1999/xlink">
<g id="graph0" class="graph" transform="scale(1 1) rotate(0) translate(4 236)">
<title>/usr/include/linuxcnc/nml_type.hh</title>
<polygon fill="white" stroke="transparent" points="-4,4 -4,-236 1250.4,-236 1250.4,4 -4,4"/>
<!-- Node1 -->
<g id="node1" class="node">
<title>Node1</title>
<g id="a_node1"><a xlink:title=" ">
<polygon fill="#bfbfbf" stroke="black" points="653,-201.5 653,-231.5 769,-231.5 769,-201.5 653,-201.5"/>
<text text-anchor="start" x="661" y="-219.5" font-family="Helvetica,sans-Serif" font-size="10.00">/usr/include/linuxcnc</text>
<text text-anchor="middle" x="711" y="-208.5" font-family="Helvetica,sans-Serif" font-size="10.00">/nml_type.hh</text>
</a>
</g>
</g>
<!-- Node2 -->
<g id="node2" class="node">
<title>Node2</title>
<g id="a_node2"><a xlink:href="emc_8hh.html" target="_top" xlink:title=" ">
<polygon fill="white" stroke="black" points="335,-134.5 335,-164.5 451,-164.5 451,-134.5 335,-134.5"/>
<text text-anchor="start" x="343" y="-152.5" font-family="Helvetica,sans-Serif" font-size="10.00">/usr/include/linuxcnc</text>
<text text-anchor="middle" x="393" y="-141.5" font-family="Helvetica,sans-Serif" font-size="10.00">/emc.hh</text>
</a>
</g>
</g>
<!-- Node1&#45;&gt;Node2 -->
<g id="edge1" class="edge">
<title>Node1&#45;&gt;Node2</title>
<path fill="none" stroke="midnightblue" d="M642.67,-201.53C585.64,-189.88 505.23,-173.44 451.22,-162.4"/>
<polygon fill="midnightblue" stroke="midnightblue" points="642.18,-205 652.67,-203.58 643.58,-198.15 642.18,-205"/>
</g>
<!-- Node8 -->
<g id="node8" class="node">
<title>Node8</title>
<g id="a_node8"><a xlink:href="nml_8hh.html" target="_top" xlink:title=" ">
<polygon fill="white" stroke="black" points="942,-134.5 942,-164.5 1058,-164.5 1058,-134.5 942,-134.5"/>
<text text-anchor="start" x="950" y="-152.5" font-family="Helvetica,sans-Serif" font-size="10.00">/usr/include/linuxcnc</text>
<text text-anchor="middle" x="1000" y="-141.5" font-family="Helvetica,sans-Serif" font-size="10.00">/nml.hh</text>
</a>
</g>
</g>
<!-- Node1&#45;&gt;Node8 -->
<g id="edge8" class="edge">
<title>Node1&#45;&gt;Node8</title>
<path fill="none" stroke="midnightblue" d="M779.12,-200.18C828.64,-189.04 894.95,-174.13 941.96,-163.55"/>
<polygon fill="midnightblue" stroke="midnightblue" points="778.12,-196.82 769.14,-202.42 779.66,-203.64 778.12,-196.82"/>
</g>
<!-- Node14 -->
<g id="node14" class="node">
<title>Node14</title>
<g id="a_node14"><a xlink:href="nmlmsg_8hh.html" target="_top" xlink:title=" ">
<polygon fill="white" stroke="black" points="775,-134.5 775,-164.5 891,-164.5 891,-134.5 775,-134.5"/>
<text text-anchor="start" x="783" y="-152.5" font-family="Helvetica,sans-Serif" font-size="10.00">/usr/include/linuxcnc</text>
<text text-anchor="middle" x="833" y="-141.5" font-family="Helvetica,sans-Serif" font-size="10.00">/nmlmsg.hh</text>
</a>
</g>
</g>
<!-- Node1&#45;&gt;Node14 -->
<g id="edge18" class="edge">
<title>Node1&#45;&gt;Node14</title>
<path fill="none" stroke="midnightblue" d="M746.52,-196.57C765.71,-186.35 789,-173.94 806.58,-164.58"/>
<polygon fill="midnightblue" stroke="midnightblue" points="744.65,-193.6 737.47,-201.4 747.94,-199.78 744.65,-193.6"/>
</g>
<!-- Node15 -->
<g id="node15" class="node">
<title>Node15</title>
<g id="a_node15"><a xlink:href="rcs_8hh.html" target="_top" xlink:title=" ">
<polygon fill="white" stroke="black" points="574,-67.5 574,-97.5 690,-97.5 690,-67.5 574,-67.5"/>
<text text-anchor="start" x="582" y="-85.5" font-family="Helvetica,sans-Serif" font-size="10.00">/usr/include/linuxcnc</text>
<text text-anchor="middle" x="632" y="-74.5" font-family="Helvetica,sans-Serif" font-size="10.00">/rcs.hh</text>
</a>
</g>
</g>
<!-- Node1&#45;&gt;Node15 -->
<g id="edge22" class="edge">
<title>Node1&#45;&gt;Node15</title>
<path fill="none" stroke="midnightblue" d="M697.22,-192.48C680.82,-165.07 653.96,-120.19 640.39,-97.52"/>
<polygon fill="midnightblue" stroke="midnightblue" points="694.41,-194.59 702.55,-201.37 700.41,-191 694.41,-194.59"/>
</g>
<!-- Node3 -->
<g id="node3" class="node">
<title>Node3</title>
<g id="a_node3"><a xlink:href="emcIniFile_8hh.html" target="_top" xlink:title=" ">
<polygon fill="white" stroke="black" points="268,-67.5 268,-97.5 384,-97.5 384,-67.5 268,-67.5"/>
<text text-anchor="start" x="276" y="-85.5" font-family="Helvetica,sans-Serif" font-size="10.00">/usr/include/linuxcnc</text>
<text text-anchor="middle" x="326" y="-74.5" font-family="Helvetica,sans-Serif" font-size="10.00">/emcIniFile.hh</text>
</a>
</g>
</g>
<!-- Node2&#45;&gt;Node3 -->
<g id="edge2" class="edge">
<title>Node2&#45;&gt;Node3</title>
<path fill="none" stroke="midnightblue" d="M371.16,-127.31C361.11,-117.56 349.46,-106.26 340.51,-97.58"/>
<polygon fill="midnightblue" stroke="midnightblue" points="368.85,-129.94 378.46,-134.4 373.72,-124.92 368.85,-129.94"/>
</g>
<!-- Node4 -->
<g id="node4" class="node">
<title>Node4</title>
<g id="a_node4"><a xlink:href="emc__nml_8hh.html" target="_top" xlink:title=" ">
<polygon fill="white" stroke="black" points="574,-0.5 574,-30.5 690,-30.5 690,-0.5 574,-0.5"/>
<text text-anchor="start" x="582" y="-18.5" font-family="Helvetica,sans-Serif" font-size="10.00">/usr/include/linuxcnc</text>
<text text-anchor="middle" x="632" y="-7.5" font-family="Helvetica,sans-Serif" font-size="10.00">/emc_nml.hh</text>
</a>
</g>
</g>
<!-- Node2&#45;&gt;Node4 -->
<g id="edge3" class="edge">
<title>Node2&#45;&gt;Node4</title>
<path fill="none" stroke="midnightblue" d="M451.3,-131.14C475.52,-122.77 503.42,-111.57 527,-98 545.89,-87.13 547.85,-80.45 565,-67 580.93,-54.51 599.31,-40.69 612.79,-30.67"/>
<polygon fill="midnightblue" stroke="midnightblue" points="449.87,-127.93 441.51,-134.44 452.11,-134.56 449.87,-127.93"/>
</g>
<!-- Node5 -->
<g id="node5" class="node">
<title>Node5</title>
<g id="a_node5"><a xlink:href="iniaxis_8hh.html" target="_top" xlink:title=" ">
<polygon fill="white" stroke="black" points="0,-67.5 0,-97.5 116,-97.5 116,-67.5 0,-67.5"/>
<text text-anchor="start" x="8" y="-85.5" font-family="Helvetica,sans-Serif" font-size="10.00">/usr/include/linuxcnc</text>
<text text-anchor="middle" x="58" y="-74.5" font-family="Helvetica,sans-Serif" font-size="10.00">/iniaxis.hh</text>
</a>
</g>
</g>
<!-- Node2&#45;&gt;Node5 -->
<g id="edge4" class="edge">
<title>Node2&#45;&gt;Node5</title>
<path fill="none" stroke="midnightblue" d="M325.04,-136.22C270.81,-126.29 192.93,-111.75 125,-98 122.08,-97.41 119.1,-96.8 116.08,-96.17"/>
<polygon fill="midnightblue" stroke="midnightblue" points="324.42,-139.66 334.88,-138.01 325.68,-132.77 324.42,-139.66"/>
</g>
<!-- Node6 -->
<g id="node6" class="node">
<title>Node6</title>
<g id="a_node6"><a xlink:href="inispindle_8hh.html" target="_top" xlink:title=" ">
<polygon fill="white" stroke="black" points="134,-67.5 134,-97.5 250,-97.5 250,-67.5 134,-67.5"/>
<text text-anchor="start" x="142" y="-85.5" font-family="Helvetica,sans-Serif" font-size="10.00">/usr/include/linuxcnc</text>
<text text-anchor="middle" x="192" y="-74.5" font-family="Helvetica,sans-Serif" font-size="10.00">/inispindle.hh</text>
</a>
</g>
</g>
<!-- Node2&#45;&gt;Node6 -->
<g id="edge5" class="edge">
<title>Node2&#45;&gt;Node6</title>
<path fill="none" stroke="midnightblue" d="M339.59,-131.23C307.07,-120.71 266.06,-107.45 235.53,-97.58"/>
<polygon fill="midnightblue" stroke="midnightblue" points="338.79,-134.65 349.39,-134.4 340.95,-127.99 338.79,-134.65"/>
</g>
<!-- Node7 -->
<g id="node7" class="node">
<title>Node7</title>
<g id="a_node7"><a xlink:href="rs274ngc_8hh.html" target="_top" xlink:title=" ">
<polygon fill="white" stroke="black" points="402,-67.5 402,-97.5 518,-97.5 518,-67.5 402,-67.5"/>
<text text-anchor="start" x="410" y="-85.5" font-family="Helvetica,sans-Serif" font-size="10.00">/usr/include/linuxcnc</text>
<text text-anchor="middle" x="460" y="-74.5" font-family="Helvetica,sans-Serif" font-size="10.00">/rs274ngc.hh</text>
</a>
</g>
</g>
<!-- Node2&#45;&gt;Node7 -->
<g id="edge6" class="edge">
<title>Node2&#45;&gt;Node7</title>
<path fill="none" stroke="midnightblue" d="M414.84,-127.31C424.89,-117.56 436.54,-106.26 445.49,-97.58"/>
<polygon fill="midnightblue" stroke="midnightblue" points="412.28,-124.92 407.54,-134.4 417.15,-129.94 412.28,-124.92"/>
</g>
<!-- Node7&#45;&gt;Node4 -->
<g id="edge7" class="edge">
<title>Node7&#45;&gt;Node4</title>
<path fill="none" stroke="midnightblue" d="M506.79,-63.82C534.43,-53.37 568.96,-40.32 594.75,-30.58"/>
<polygon fill="midnightblue" stroke="midnightblue" points="505.44,-60.59 497.32,-67.4 507.91,-67.13 505.44,-60.59"/>
</g>
<!-- Node9 -->
<g id="node9" class="node">
<title>Node9</title>
<g id="a_node9"><a xlink:href="cmd__msg_8hh.html" target="_top" xlink:title=" ">
<polygon fill="white" stroke="black" points="708,-67.5 708,-97.5 824,-97.5 824,-67.5 708,-67.5"/>
<text text-anchor="start" x="716" y="-85.5" font-family="Helvetica,sans-Serif" font-size="10.00">/usr/include/linuxcnc</text>
<text text-anchor="middle" x="766" y="-74.5" font-family="Helvetica,sans-Serif" font-size="10.00">/cmd_msg.hh</text>
</a>
</g>
</g>
<!-- Node8&#45;&gt;Node9 -->
<g id="edge9" class="edge">
<title>Node8&#45;&gt;Node9</title>
<path fill="none" stroke="midnightblue" d="M939.57,-131.71C901.49,-121.14 852.89,-107.63 816.8,-97.61"/>
<polygon fill="midnightblue" stroke="midnightblue" points="938.94,-135.17 949.51,-134.48 940.82,-128.43 938.94,-135.17"/>
</g>
<!-- Node10 -->
<g id="node10" class="node">
<title>Node10</title>
<g id="a_node10"><a xlink:href="nml__mod_8hh.html" target="_top" xlink:title=" ">
<polygon fill="white" stroke="black" points="775,-0.5 775,-30.5 891,-30.5 891,-0.5 775,-0.5"/>
<text text-anchor="start" x="783" y="-18.5" font-family="Helvetica,sans-Serif" font-size="10.00">/usr/include/linuxcnc</text>
<text text-anchor="middle" x="833" y="-7.5" font-family="Helvetica,sans-Serif" font-size="10.00">/nml_mod.hh</text>
</a>
</g>
</g>
<!-- Node8&#45;&gt;Node10 -->
<g id="edge12" class="edge">
<title>Node8&#45;&gt;Node10</title>
<path fill="none" stroke="midnightblue" d="M1068.13,-146.36C1154.24,-141.29 1285.5,-124.24 1235,-67 1212.63,-41.65 997.15,-25.89 891.21,-19.62"/>
<polygon fill="midnightblue" stroke="midnightblue" points="1067.93,-142.87 1058.13,-146.91 1068.31,-149.86 1067.93,-142.87"/>
</g>
<!-- Node11 -->
<g id="node11" class="node">
<title>Node11</title>
<g id="a_node11"><a xlink:href="nml__oi_8hh.html" target="_top" xlink:title=" ">
<polygon fill="white" stroke="black" points="976,-67.5 976,-97.5 1092,-97.5 1092,-67.5 976,-67.5"/>
<text text-anchor="start" x="984" y="-85.5" font-family="Helvetica,sans-Serif" font-size="10.00">/usr/include/linuxcnc</text>
<text text-anchor="middle" x="1034" y="-74.5" font-family="Helvetica,sans-Serif" font-size="10.00">/nml_oi.hh</text>
</a>
</g>
</g>
<!-- Node8&#45;&gt;Node11 -->
<g id="edge13" class="edge">
<title>Node8&#45;&gt;Node11</title>
<path fill="none" stroke="midnightblue" d="M1012.14,-125.28C1016.99,-116.02 1022.41,-105.66 1026.64,-97.58"/>
<polygon fill="midnightblue" stroke="midnightblue" points="1008.91,-123.91 1007.38,-134.4 1015.11,-127.16 1008.91,-123.91"/>
</g>
<!-- Node12 -->
<g id="node12" class="node">
<title>Node12</title>
<g id="a_node12"><a xlink:href="nml__srv_8hh.html" target="_top" xlink:title=" ">
<polygon fill="white" stroke="black" points="1110,-67.5 1110,-97.5 1226,-97.5 1226,-67.5 1110,-67.5"/>
<text text-anchor="start" x="1118" y="-85.5" font-family="Helvetica,sans-Serif" font-size="10.00">/usr/include/linuxcnc</text>
<text text-anchor="middle" x="1168" y="-74.5" font-family="Helvetica,sans-Serif" font-size="10.00">/nml_srv.hh</text>
</a>
</g>
</g>
<!-- Node8&#45;&gt;Node12 -->
<g id="edge14" class="edge">
<title>Node8&#45;&gt;Node12</title>
<path fill="none" stroke="midnightblue" d="M1046.05,-130.68C1073,-120.26 1106.54,-107.28 1131.62,-97.58"/>
<polygon fill="midnightblue" stroke="midnightblue" points="1044.52,-127.52 1036.45,-134.4 1047.04,-134.05 1044.52,-127.52"/>
</g>
<!-- Node13 -->
<g id="node13" class="node">
<title>Node13</title>
<g id="a_node13"><a xlink:href="stat__msg_8hh.html" target="_top" xlink:title=" ">
<polygon fill="white" stroke="black" points="842,-67.5 842,-97.5 958,-97.5 958,-67.5 842,-67.5"/>
<text text-anchor="start" x="850" y="-85.5" font-family="Helvetica,sans-Serif" font-size="10.00">/usr/include/linuxcnc</text>
<text text-anchor="middle" x="900" y="-74.5" font-family="Helvetica,sans-Serif" font-size="10.00">/stat_msg.hh</text>
</a>
</g>
</g>
<!-- Node8&#45;&gt;Node13 -->
<g id="edge15" class="edge">
<title>Node8&#45;&gt;Node13</title>
<path fill="none" stroke="midnightblue" d="M969.59,-128.73C954.12,-118.68 935.67,-106.68 921.66,-97.58"/>
<polygon fill="midnightblue" stroke="midnightblue" points="968.01,-131.88 978.3,-134.4 971.82,-126.01 968.01,-131.88"/>
</g>
<!-- Node9&#45;&gt;Node4 -->
<g id="edge10" class="edge">
<title>Node9&#45;&gt;Node4</title>
<path fill="none" stroke="midnightblue" d="M727.85,-62.99C706.61,-52.69 680.59,-40.07 661.02,-30.58"/>
<polygon fill="midnightblue" stroke="midnightblue" points="726.4,-66.18 736.92,-67.4 729.45,-59.88 726.4,-66.18"/>
</g>
<!-- Node9&#45;&gt;Node10 -->
<g id="edge11" class="edge">
<title>Node9&#45;&gt;Node10</title>
<path fill="none" stroke="midnightblue" d="M787.84,-60.31C797.89,-50.56 809.54,-39.26 818.49,-30.58"/>
<polygon fill="midnightblue" stroke="midnightblue" points="785.28,-57.92 780.54,-67.4 790.15,-62.94 785.28,-57.92"/>
</g>
<!-- Node13&#45;&gt;Node4 -->
<g id="edge16" class="edge">
<title>Node13&#45;&gt;Node4</title>
<path fill="none" stroke="midnightblue" d="M832.46,-65.12C788.61,-54.48 732.04,-40.76 690.18,-30.61"/>
<polygon fill="midnightblue" stroke="midnightblue" points="831.63,-68.52 842.18,-67.48 833.28,-61.72 831.63,-68.52"/>
</g>
<!-- Node13&#45;&gt;Node10 -->
<g id="edge17" class="edge">
<title>Node13&#45;&gt;Node10</title>
<path fill="none" stroke="midnightblue" d="M878.16,-60.31C868.11,-50.56 856.46,-39.26 847.51,-30.58"/>
<polygon fill="midnightblue" stroke="midnightblue" points="875.85,-62.94 885.46,-67.4 880.72,-57.92 875.85,-62.94"/>
</g>
<!-- Node14&#45;&gt;Node9 -->
<g id="edge19" class="edge">
<title>Node14&#45;&gt;Node9</title>
<path fill="none" stroke="midnightblue" d="M811.16,-127.31C801.11,-117.56 789.46,-106.26 780.51,-97.58"/>
<polygon fill="midnightblue" stroke="midnightblue" points="808.85,-129.94 818.46,-134.4 813.72,-124.92 808.85,-129.94"/>
</g>
<!-- Node14&#45;&gt;Node11 -->
<g id="edge20" class="edge">
<title>Node14&#45;&gt;Node11</title>
<path fill="none" stroke="midnightblue" d="M886.41,-131.23C918.93,-120.71 959.94,-107.45 990.47,-97.58"/>
<polygon fill="midnightblue" stroke="midnightblue" points="885.05,-127.99 876.61,-134.4 887.21,-134.65 885.05,-127.99"/>
</g>
<!-- Node14&#45;&gt;Node13 -->
<g id="edge21" class="edge">
<title>Node14&#45;&gt;Node13</title>
<path fill="none" stroke="midnightblue" d="M854.84,-127.31C864.89,-117.56 876.54,-106.26 885.49,-97.58"/>
<polygon fill="midnightblue" stroke="midnightblue" points="852.28,-124.92 847.54,-134.4 857.15,-129.94 852.28,-124.92"/>
</g>
<!-- Node15&#45;&gt;Node4 -->
<g id="edge23" class="edge">
<title>Node15&#45;&gt;Node4</title>
<path fill="none" stroke="midnightblue" d="M632,-57.11C632,-48.15 632,-38.32 632,-30.58"/>
<polygon fill="midnightblue" stroke="midnightblue" points="628.5,-57.4 632,-67.4 635.5,-57.4 628.5,-57.4"/>
</g>
<!-- Node15&#45;&gt;Node10 -->
<g id="edge24" class="edge">
<title>Node15&#45;&gt;Node10</title>
<path fill="none" stroke="midnightblue" d="M685.41,-64.23C717.93,-53.71 758.94,-40.45 789.47,-30.58"/>
<polygon fill="midnightblue" stroke="midnightblue" points="684.05,-60.99 675.61,-67.4 686.21,-67.65 684.05,-60.99"/>
</g>
</g>
</svg>
