<?xml version="1.0" encoding="UTF-8" standalone="no"?>
<!DOCTYPE svg PUBLIC "-//W3C//DTD SVG 1.1//EN"
 "http://www.w3.org/Graphics/SVG/1.1/DTD/svg11.dtd">
<!-- Generated by graphviz version 2.43.0 (0)
 -->
<!-- Title: PK_CommunicationTestAsync Pages: 1 -->
<svg width="647pt" height="66pt"
 viewBox="0.00 0.00 647.00 66.00" xmlns="http://www.w3.org/2000/svg" xmlns:xlink="http://www.w3.org/1999/xlink">
<g id="graph0" class="graph" transform="scale(1 1) rotate(0) translate(4 62)">
<title>PK_CommunicationTestAsync</title>
<polygon fill="white" stroke="transparent" points="-4,4 -4,-62 643,-62 643,4 -4,4"/>
<!-- Node1 -->
<g id="node1" class="node">
<title>Node1</title>
<g id="a_node1"><a xlink:title="Test device communication and RT timing (async)">
<polygon fill="#bfbfbf" stroke="black" points="0,-19.5 0,-38.5 161,-38.5 161,-19.5 0,-19.5"/>
<text text-anchor="middle" x="80.5" y="-26.5" font-family="Helvetica,sans-Serif" font-size="10.00">PK_CommunicationTestAsync</text>
</a>
</g>
</g>
<!-- Node2 -->
<g id="node2" class="node">
<title>Node2</title>
<g id="a_node2"><a xlink:href="PoKeysLibDeviceStatusAsync_8c.html#a5170acde0df1f5e6e9d66a8ff87fee7e" target="_top" xlink:title="Check if device is alive/responsive (async)">
<polygon fill="white" stroke="black" points="197,-19.5 197,-38.5 349,-38.5 349,-19.5 197,-19.5"/>
<text text-anchor="middle" x="273" y="-26.5" font-family="Helvetica,sans-Serif" font-size="10.00">PK_DeviceAliveCheckAsync</text>
</a>
</g>
</g>
<!-- Node1&#45;&gt;Node2 -->
<g id="edge1" class="edge">
<title>Node1&#45;&gt;Node2</title>
<path fill="none" stroke="midnightblue" d="M161.19,-29C169.59,-29 178.17,-29 186.64,-29"/>
<polygon fill="midnightblue" stroke="midnightblue" points="186.9,-32.5 196.9,-29 186.9,-25.5 186.9,-32.5"/>
</g>
<!-- Node3 -->
<g id="node3" class="node">
<title>Node3</title>
<g id="a_node3"><a xlink:href="PoKeysLibAsync_8c.html#a8ed8b17dbfd4e5cfba35c6b1e2ea6956" target="_top" xlink:title="Prepares an asynchronous request (non&#45;sending).">
<polygon fill="white" stroke="black" points="385,-19.5 385,-38.5 503,-38.5 503,-19.5 385,-19.5"/>
<text text-anchor="middle" x="444" y="-26.5" font-family="Helvetica,sans-Serif" font-size="10.00">CreateRequestAsync</text>
</a>
</g>
</g>
<!-- Node2&#45;&gt;Node3 -->
<g id="edge2" class="edge">
<title>Node2&#45;&gt;Node3</title>
<path fill="none" stroke="midnightblue" d="M349.11,-29C357.63,-29 366.29,-29 374.72,-29"/>
<polygon fill="midnightblue" stroke="midnightblue" points="374.86,-32.5 384.86,-29 374.86,-25.5 374.86,-32.5"/>
</g>
<!-- Node4 -->
<g id="node4" class="node">
<title>Node4</title>
<g id="a_node4"><a xlink:href="PoKeysLibAsync_8c.html#a8e57ea5df5b229f5a1317bf4e4918c1b" target="_top" xlink:title=" ">
<polygon fill="white" stroke="black" points="541.5,-38.5 541.5,-57.5 636.5,-57.5 636.5,-38.5 541.5,-38.5"/>
<text text-anchor="middle" x="589" y="-45.5" font-family="Helvetica,sans-Serif" font-size="10.00">next_request_id</text>
</a>
</g>
</g>
<!-- Node3&#45;&gt;Node4 -->
<g id="edge3" class="edge">
<title>Node3&#45;&gt;Node4</title>
<path fill="none" stroke="midnightblue" d="M503.16,-36.73C512.38,-37.95 521.9,-39.22 531.08,-40.44"/>
<polygon fill="midnightblue" stroke="midnightblue" points="530.9,-43.94 541.28,-41.79 531.82,-37.01 530.9,-43.94"/>
</g>
<!-- Node5 -->
<g id="node5" class="node">
<title>Node5</title>
<g id="a_node5"><a xlink:href="PoKeysLibAsync_8c.html#a0daf7f6eb658a60879d46369307db3f0" target="_top" xlink:title="Allocates a new free transaction.">
<polygon fill="white" stroke="black" points="539,-0.5 539,-19.5 639,-19.5 639,-0.5 539,-0.5"/>
<text text-anchor="middle" x="589" y="-7.5" font-family="Helvetica,sans-Serif" font-size="10.00">transaction_alloc</text>
</a>
</g>
</g>
<!-- Node3&#45;&gt;Node5 -->
<g id="edge4" class="edge">
<title>Node3&#45;&gt;Node5</title>
<path fill="none" stroke="midnightblue" d="M503.16,-21.27C511.52,-20.16 520.13,-19.02 528.51,-17.9"/>
<polygon fill="midnightblue" stroke="midnightblue" points="529.14,-21.35 538.59,-16.57 528.21,-14.41 529.14,-21.35"/>
</g>
</g>
</svg>
