<?xml version="1.0" encoding="UTF-8" standalone="no"?>
<!DOCTYPE svg PUBLIC "-//W3C//DTD SVG 1.1//EN"
 "http://www.w3.org/Graphics/SVG/1.1/DTD/svg11.dtd">
<!-- Generated by graphviz version 2.43.0 (0)
 -->
<!-- Title: PK_EncoderRawValueResetAsync Pages: 1 -->
<svg width="384pt" height="66pt"
 viewBox="0.00 0.00 384.00 66.00" xmlns="http://www.w3.org/2000/svg" xmlns:xlink="http://www.w3.org/1999/xlink">
<g id="graph0" class="graph" transform="scale(1 1) rotate(0) translate(4 62)">
<title>PK_EncoderRawValueResetAsync</title>
<polygon fill="white" stroke="transparent" points="-4,4 -4,-62 380,-62 380,4 -4,4"/>
<!-- Node1 -->
<g id="node1" class="node">
<title>Node1</title>
<g id="a_node1"><a xlink:title="Reset encoder raw values asynchronously (command 0x1A).">
<polygon fill="#bfbfbf" stroke="black" points="197,-19.5 197,-38.5 376,-38.5 376,-19.5 197,-19.5"/>
<text text-anchor="middle" x="286.5" y="-26.5" font-family="Helvetica,sans-Serif" font-size="10.00">PK_EncoderRawValueResetAsync</text>
</a>
</g>
</g>
<!-- Node2 -->
<g id="node2" class="node">
<title>Node2</title>
<g id="a_node2"><a xlink:href="PoKeysLibEncodersAsync_8c.html#a46b9ad786bf66f8a1b9fb1c2e0ac2831" target="_top" xlink:title="Reset all encoders&#39; raw values asynchronously.">
<polygon fill="white" stroke="black" points="9,-38.5 9,-57.5 152,-57.5 152,-38.5 9,-38.5"/>
<text text-anchor="middle" x="80.5" y="-45.5" font-family="Helvetica,sans-Serif" font-size="10.00">PK_EncoderAllResetAsync</text>
</a>
</g>
</g>
<!-- Node1&#45;&gt;Node2 -->
<g id="edge1" class="edge">
<title>Node1&#45;&gt;Node2</title>
<path fill="none" stroke="midnightblue" d="M186.71,-38.2C175.06,-39.29 163.36,-40.38 152.21,-41.41"/>
<polygon fill="midnightblue" stroke="midnightblue" points="187.28,-41.66 196.91,-37.25 186.63,-34.69 187.28,-41.66"/>
</g>
<!-- Node3 -->
<g id="node3" class="node">
<title>Node3</title>
<g id="a_node3"><a xlink:href="PoKeysLibEncodersAsync_8c.html#a32ab0fb5b93b308e19e66015cdfa6ebd" target="_top" xlink:title="Reset a single encoder&#39;s raw value asynchronously.">
<polygon fill="white" stroke="black" points="0,-0.5 0,-19.5 161,-19.5 161,-0.5 0,-0.5"/>
<text text-anchor="middle" x="80.5" y="-7.5" font-family="Helvetica,sans-Serif" font-size="10.00">PK_EncoderSingleResetAsync</text>
</a>
</g>
</g>
<!-- Node1&#45;&gt;Node3 -->
<g id="edge2" class="edge">
<title>Node1&#45;&gt;Node3</title>
<path fill="none" stroke="midnightblue" d="M186.8,-19.81C178.16,-19 169.48,-18.19 161.03,-17.41"/>
<polygon fill="midnightblue" stroke="midnightblue" points="186.63,-23.31 196.91,-20.75 187.28,-16.34 186.63,-23.31"/>
</g>
</g>
</svg>
