<?xml version="1.0" encoding="UTF-8" standalone="no"?>
<!DOCTYPE svg PUBLIC "-//W3C//DTD SVG 1.1//EN"
 "http://www.w3.org/Graphics/SVG/1.1/DTD/svg11.dtd">
<!-- Generated by graphviz version 2.43.0 (0)
 -->
<!-- Title: PK_ConnectToPoKeysDevice_USB Pages: 1 -->
<!--zoomable 322 -->
<svg id="main" version="1.1" xmlns="http://www.w3.org/2000/svg" xmlns:xlink="http://www.w3.org/1999/xlink" xml:space="preserve" onload="init(evt)">
<style type="text/css"><![CDATA[
.edge:hover path { stroke: red; }
.edge:hover polygon { stroke: red; fill: red; }
]]></style>
<script type="text/javascript"><![CDATA[
var edges = document.getElementsByTagName('g');
if (edges && edges.length) {
  for (var i=0;i<edges.length;i++) {
    if (edges[i].id.substr(0,4)=='edge') {
      edges[i].setAttribute('class','edge');
    }
  }
}
]]></script>
        <defs>
                <circle id="rim" cx="0" cy="0" r="7"/>
                <circle id="rim2" cx="0" cy="0" r="3.5"/>
                <g id="zoomPlus">
                        <use xlink:href="#rim" fill="#404040">
                                <set attributeName="fill" to="#808080" begin="zoomplus.mouseover" end="zoomplus.mouseout"/>
                        </use>
                        <path d="M-4,0h8M0,-4v8" fill="none" stroke="white" stroke-width="1.5" pointer-events="none"/>
                </g>
                <g id="zoomMin">
                        <use xlink:href="#rim" fill="#404040">
                                <set attributeName="fill" to="#808080" begin="zoomminus.mouseover" end="zoomminus.mouseout"/>
                        </use>
                        <path d="M-4,0h8" fill="none" stroke="white" stroke-width="1.5" pointer-events="none"/>
                </g>
                <g id="dirArrow">
                        <path fill="none" stroke="white" stroke-width="1.5" d="M0,-3.0v7 M-2.5,-0.5L0,-3.0L2.5,-0.5"/>
                </g>
               <g id="resetDef">
                       <use xlink:href="#rim2" fill="#404040">
                               <set attributeName="fill" to="#808080" begin="reset.mouseover" end="reset.mouseout"/>
                       </use>
               </g>
        </defs>

<script type="text/javascript">
var viewWidth = 995;
var viewHeight = 322;
var sectionId = 'dynsection-18';
</script>
<script xlink:href="svgpan.js"/>
<svg id="graph" class="graph">
<g id="viewport">
<title>PK_ConnectToPoKeysDevice_USB</title>
<polygon fill="white" stroke="transparent" points="-4,4 -4,-318 991,-318 991,4 -4,4"/>
<!-- Node1 -->
<g id="node1" class="node">
<title>Node1</title>
<g id="a_node1"><a xlink:title=" ">
<polygon fill="#bfbfbf" stroke="black" points="0,-199.5 0,-218.5 179,-218.5 179,-199.5 0,-199.5"/>
<text text-anchor="middle" x="89.5" y="-206.5" font-family="Helvetica,sans-Serif" font-size="10.00">PK_ConnectToPoKeysDevice_USB</text>
</a>
</g>
</g>
<!-- Node2 -->
<g id="node2" class="node">
<title>Node2</title>
<g id="a_node2"><a xlink:href="PoKeysLibCoreAsync_8c.html#a8ddc84176ab5e728aeef3077e4c04721" target="_top" xlink:title=" ">
<polygon fill="white" stroke="black" points="238,-294.5 238,-313.5 316,-313.5 316,-294.5 238,-294.5"/>
<text text-anchor="middle" x="277" y="-301.5" font-family="Helvetica,sans-Serif" font-size="10.00">CleanDevice</text>
</a>
</g>
</g>
<!-- Node1&#45;&gt;Node2 -->
<g id="edge1" class="edge">
<title>Node1&#45;&gt;Node2</title>
<path fill="none" stroke="midnightblue" d="M105.84,-218.7C128.96,-233.11 174.38,-260.55 215,-280 222.89,-283.78 231.55,-287.45 239.8,-290.75"/>
<polygon fill="midnightblue" stroke="midnightblue" points="238.63,-294.05 249.22,-294.42 241.18,-287.53 238.63,-294.05"/>
</g>
<!-- Node3 -->
<g id="node3" class="node">
<title>Node3</title>
<g id="a_node3"><a xlink:href="hal_8h.html#a37b839660591a915940fc471bbb5df4f" target="_top" xlink:title=" ">
<polygon fill="white" stroke="black" points="406.5,-227.5 406.5,-246.5 476.5,-246.5 476.5,-227.5 406.5,-227.5"/>
<text text-anchor="middle" x="441.5" y="-234.5" font-family="Helvetica,sans-Serif" font-size="10.00">hal_malloc</text>
</a>
</g>
</g>
<!-- Node1&#45;&gt;Node3 -->
<g id="edge2" class="edge">
<title>Node1&#45;&gt;Node3</title>
<path fill="none" stroke="midnightblue" d="M114.34,-218.6C139.05,-227.98 179.01,-241.63 215,-247 269.51,-255.13 283.96,-249.71 339,-247 357.78,-246.08 378.43,-244.2 396.19,-242.32"/>
<polygon fill="midnightblue" stroke="midnightblue" points="396.7,-245.78 406.26,-241.22 395.94,-238.82 396.7,-245.78"/>
</g>
<!-- Node4 -->
<g id="node4" class="node">
<title>Node4</title>
<g id="a_node4"><a xlink:href="group__API.html#gaae7d1c3e90835556ddc73fabe3a9ca9d" target="_top" xlink:title="Enumerate the HID Devices.">
<polygon fill="white" stroke="black" points="232,-218.5 232,-237.5 322,-237.5 322,-218.5 232,-218.5"/>
<text text-anchor="middle" x="277" y="-225.5" font-family="Helvetica,sans-Serif" font-size="10.00">hid_enumerate</text>
</a>
</g>
</g>
<!-- Node1&#45;&gt;Node4 -->
<g id="edge3" class="edge">
<title>Node1&#45;&gt;Node4</title>
<path fill="none" stroke="midnightblue" d="M179.18,-218.08C193.72,-219.57 208.41,-221.08 221.79,-222.45"/>
<polygon fill="midnightblue" stroke="midnightblue" points="221.44,-225.93 231.74,-223.47 222.15,-218.97 221.44,-225.93"/>
</g>
<!-- Node5 -->
<g id="node5" class="node">
<title>Node5</title>
<g id="a_node5"><a xlink:href="group__API.html#gafc2d2adf71db3784b783b9a554527aa4" target="_top" xlink:title="Free an enumeration Linked List.">
<polygon fill="white" stroke="black" points="215,-180.5 215,-199.5 339,-199.5 339,-180.5 215,-180.5"/>
<text text-anchor="middle" x="277" y="-187.5" font-family="Helvetica,sans-Serif" font-size="10.00">hid_free_enumeration</text>
</a>
</g>
</g>
<!-- Node1&#45;&gt;Node5 -->
<g id="edge4" class="edge">
<title>Node1&#45;&gt;Node5</title>
<path fill="none" stroke="midnightblue" d="M179.18,-199.92C187.78,-199.04 196.44,-198.15 204.85,-197.29"/>
<polygon fill="midnightblue" stroke="midnightblue" points="205.36,-200.75 214.95,-196.25 204.65,-193.79 205.36,-200.75"/>
</g>
<!-- Node6 -->
<g id="node6" class="node">
<title>Node6</title>
<g id="a_node6"><a xlink:href="group__API.html#ga954ecb58b5dfb4a6ef6be3dcd520e42f" target="_top" xlink:title="Open a HID device by its path name.">
<polygon fill="white" stroke="black" points="233,-142.5 233,-161.5 321,-161.5 321,-142.5 233,-142.5"/>
<text text-anchor="middle" x="277" y="-149.5" font-family="Helvetica,sans-Serif" font-size="10.00">hid_open_path</text>
</a>
</g>
</g>
<!-- Node1&#45;&gt;Node6 -->
<g id="edge5" class="edge">
<title>Node1&#45;&gt;Node6</title>
<path fill="none" stroke="midnightblue" d="M121.55,-199.46C152.71,-189.88 200.89,-175.08 235.14,-164.55"/>
<polygon fill="midnightblue" stroke="midnightblue" points="236.32,-167.85 244.85,-161.57 234.26,-161.16 236.32,-167.85"/>
</g>
<!-- Node7 -->
<g id="node7" class="node">
<title>Node7</title>
<g id="a_node7"><a xlink:href="PoKeysLibCoreAsync_8c.html#ae3a4511713f05f8d9ba2f0250f07957e" target="_top" xlink:title=" ">
<polygon fill="white" stroke="black" points="220,-104.5 220,-123.5 334,-123.5 334,-104.5 220,-104.5"/>
<text text-anchor="middle" x="277" y="-111.5" font-family="Helvetica,sans-Serif" font-size="10.00">InitializeNewDevice</text>
</a>
</g>
</g>
<!-- Node1&#45;&gt;Node7 -->
<g id="edge6" class="edge">
<title>Node1&#45;&gt;Node7</title>
<path fill="none" stroke="midnightblue" d="M103.71,-199.42C125.81,-183.74 172.09,-152.42 215,-133 219.99,-130.74 225.32,-128.65 230.68,-126.74"/>
<polygon fill="midnightblue" stroke="midnightblue" points="231.93,-130.01 240.29,-123.51 229.7,-123.38 231.93,-130.01"/>
</g>
<!-- Node7&#45;&gt;Node3 -->
<g id="edge7" class="edge">
<title>Node7&#45;&gt;Node3</title>
<path fill="none" stroke="midnightblue" d="M322.18,-123.61C328.18,-126.07 333.98,-129.15 339,-133 362.77,-151.25 354.45,-168.2 375,-190 386.7,-202.41 402.11,-213.66 415.04,-222.04"/>
<polygon fill="midnightblue" stroke="midnightblue" points="413.19,-225.01 423.52,-227.36 416.91,-219.08 413.19,-225.01"/>
</g>
<!-- Node8 -->
<g id="node8" class="node">
<title>Node8</title>
<g id="a_node8"><a xlink:href="pokeysHal_2PoKeysLibDeviceData_8c.html#a9508e9fcbc964cae1ccdb57f582cb5e1" target="_top" xlink:title="Read device identification and feature set.">
<polygon fill="white" stroke="black" points="387,-104.5 387,-123.5 496,-123.5 496,-104.5 387,-104.5"/>
<text text-anchor="middle" x="441.5" y="-111.5" font-family="Helvetica,sans-Serif" font-size="10.00">PK_DeviceDataGet</text>
</a>
</g>
</g>
<!-- Node7&#45;&gt;Node8 -->
<g id="edge8" class="edge">
<title>Node7&#45;&gt;Node8</title>
<path fill="none" stroke="midnightblue" d="M334.38,-114C348.1,-114 362.87,-114 376.9,-114"/>
<polygon fill="midnightblue" stroke="midnightblue" points="376.96,-117.5 386.96,-114 376.96,-110.5 376.96,-117.5"/>
</g>
<!-- Node17 -->
<g id="node17" class="node">
<title>Node17</title>
<g id="a_node17"><a xlink:href="pokeysHal_2PoKeysLibDeviceData_8c.html#ae4798f617a5dd5ebb93c534258cd0eb9" target="_top" xlink:title="Populate PWM pin ID table in the device structure.">
<polygon fill="white" stroke="black" points="375,-66.5 375,-85.5 508,-85.5 508,-66.5 375,-66.5"/>
<text text-anchor="middle" x="441.5" y="-73.5" font-family="Helvetica,sans-Serif" font-size="10.00">PK_FillPWMPinNumbers</text>
</a>
</g>
</g>
<!-- Node7&#45;&gt;Node17 -->
<g id="edge18" class="edge">
<title>Node7&#45;&gt;Node17</title>
<path fill="none" stroke="midnightblue" d="M319.01,-104.41C340.55,-99.37 367.13,-93.16 389.94,-87.82"/>
<polygon fill="midnightblue" stroke="midnightblue" points="390.85,-91.21 399.79,-85.52 389.25,-84.39 390.85,-91.21"/>
</g>
<!-- Node18 -->
<g id="node18" class="node">
<title>Node18</title>
<g id="a_node18"><a xlink:href="pokeysHal_2PoKeysLibIO_8c.html#a4397536c30fe3f56eb74b56210839349" target="_top" xlink:title="Check if a pin supports a counter (command 0xC0/0x01).">
<polygon fill="white" stroke="black" points="378.5,-161.5 378.5,-180.5 504.5,-180.5 504.5,-161.5 378.5,-161.5"/>
<text text-anchor="middle" x="441.5" y="-168.5" font-family="Helvetica,sans-Serif" font-size="10.00">PK_IsCounterAvailable</text>
</a>
</g>
</g>
<!-- Node7&#45;&gt;Node18 -->
<g id="edge19" class="edge">
<title>Node7&#45;&gt;Node18</title>
<path fill="none" stroke="midnightblue" d="M309.77,-123.52C319.21,-126.46 329.56,-129.76 339,-133 361.69,-140.77 386.95,-150.23 406.59,-157.76"/>
<polygon fill="midnightblue" stroke="midnightblue" points="405.44,-161.07 416.03,-161.4 407.95,-154.53 405.44,-161.07"/>
</g>
<!-- Node9 -->
<g id="node9" class="node">
<title>Node9</title>
<g id="a_node9"><a xlink:href="pokeyslib_2PoKeysLibDeviceData_8c.html#a8fa8788bebd4d9501da88a32620a6be1" target="_top" xlink:title=" ">
<polygon fill="white" stroke="black" points="585.5,-133.5 585.5,-152.5 675.5,-152.5 675.5,-133.5 585.5,-133.5"/>
<text text-anchor="middle" x="630.5" y="-140.5" font-family="Helvetica,sans-Serif" font-size="10.00">CompareName</text>
</a>
</g>
</g>
<!-- Node8&#45;&gt;Node9 -->
<g id="edge9" class="edge">
<title>Node8&#45;&gt;Node9</title>
<path fill="none" stroke="midnightblue" d="M496.09,-122.31C520.94,-126.16 550.42,-130.74 575.35,-134.6"/>
<polygon fill="midnightblue" stroke="midnightblue" points="574.94,-138.08 585.36,-136.16 576.02,-131.16 574.94,-138.08"/>
</g>
<!-- Node10 -->
<g id="node10" class="node">
<title>Node10</title>
<g id="a_node10"><a xlink:href="pokeyslib_2PoKeysLibCore_8c.html#acb1fdd8f77277dc66c4d037218bfcece" target="_top" xlink:title=" ">
<polygon fill="white" stroke="black" points="586,-95.5 586,-114.5 675,-114.5 675,-95.5 586,-95.5"/>
<text text-anchor="middle" x="630.5" y="-102.5" font-family="Helvetica,sans-Serif" font-size="10.00">CreateRequest</text>
</a>
</g>
</g>
<!-- Node8&#45;&gt;Node10 -->
<g id="edge10" class="edge">
<title>Node8&#45;&gt;Node10</title>
<path fill="none" stroke="midnightblue" d="M496.09,-111.42C521.13,-110.22 550.87,-108.78 575.92,-107.58"/>
<polygon fill="midnightblue" stroke="midnightblue" points="576.15,-111.07 585.97,-107.09 575.82,-104.08 576.15,-111.07"/>
</g>
<!-- Node11 -->
<g id="node11" class="node">
<title>Node11</title>
<g id="a_node11"><a xlink:href="pokeyslib_2PoKeysLibCore_8c.html#ab5d92aa36d0a4a6953a055f5cd960aff" target="_top" xlink:title=" ">
<polygon fill="white" stroke="black" points="590.5,-57.5 590.5,-76.5 670.5,-76.5 670.5,-57.5 590.5,-57.5"/>
<text text-anchor="middle" x="630.5" y="-64.5" font-family="Helvetica,sans-Serif" font-size="10.00">SendRequest</text>
</a>
</g>
</g>
<!-- Node8&#45;&gt;Node11 -->
<g id="edge11" class="edge">
<title>Node8&#45;&gt;Node11</title>
<path fill="none" stroke="midnightblue" d="M475.3,-104.5C495.13,-98.87 520.94,-91.74 544,-86 555.76,-83.07 568.48,-80.13 580.43,-77.46"/>
<polygon fill="midnightblue" stroke="midnightblue" points="581.24,-80.87 590.24,-75.29 579.72,-74.03 581.24,-80.87"/>
</g>
<!-- Node12 -->
<g id="node12" class="node">
<title>Node12</title>
<g id="a_node12"><a xlink:href="pokeyslib_2PoKeysLibCore_8c.html#a273b6d635dea8f559b915cdb289d021e" target="_top" xlink:title=" ">
<polygon fill="white" stroke="black" points="894.5,-38.5 894.5,-57.5 977.5,-57.5 977.5,-38.5 894.5,-38.5"/>
<text text-anchor="middle" x="936" y="-45.5" font-family="Helvetica,sans-Serif" font-size="10.00">getChecksum</text>
</a>
</g>
</g>
<!-- Node11&#45;&gt;Node12 -->
<g id="edge12" class="edge">
<title>Node11&#45;&gt;Node12</title>
<path fill="none" stroke="midnightblue" d="M670.54,-69.54C714.17,-71.79 786.88,-73.78 849,-67 862.57,-65.52 877.13,-62.76 890.34,-59.8"/>
<polygon fill="midnightblue" stroke="midnightblue" points="891.2,-63.19 900.14,-57.51 889.61,-56.37 891.2,-63.19"/>
</g>
<!-- Node13 -->
<g id="node13" class="node">
<title>Node13</title>
<g id="a_node13"><a xlink:href="group__API.html#ga6b820f3e72097cf7f994e33715dc7af1" target="_top" xlink:title="Read an Input report from a HID device.">
<polygon fill="white" stroke="black" points="771.5,-114.5 771.5,-133.5 830.5,-133.5 830.5,-114.5 771.5,-114.5"/>
<text text-anchor="middle" x="801" y="-121.5" font-family="Helvetica,sans-Serif" font-size="10.00">hid_read</text>
</a>
</g>
</g>
<!-- Node11&#45;&gt;Node13 -->
<g id="edge13" class="edge">
<title>Node11&#45;&gt;Node13</title>
<path fill="none" stroke="midnightblue" d="M670.71,-73.9C685.41,-76.96 702.15,-81.01 717,-86 736.16,-92.43 756.83,-101.89 772.75,-109.76"/>
<polygon fill="midnightblue" stroke="midnightblue" points="771.48,-113.04 781.99,-114.41 774.63,-106.79 771.48,-113.04"/>
</g>
<!-- Node15 -->
<g id="node15" class="node">
<title>Node15</title>
<g id="a_node15"><a xlink:href="group__API.html#gad14ea48e440cf5066df87cc6488493af" target="_top" xlink:title="Write an Output report to a HID device.">
<polygon fill="white" stroke="black" points="770,-38.5 770,-57.5 832,-57.5 832,-38.5 770,-38.5"/>
<text text-anchor="middle" x="801" y="-45.5" font-family="Helvetica,sans-Serif" font-size="10.00">hid_write</text>
</a>
</g>
</g>
<!-- Node11&#45;&gt;Node15 -->
<g id="edge15" class="edge">
<title>Node11&#45;&gt;Node15</title>
<path fill="none" stroke="midnightblue" d="M670.58,-62.59C697.27,-59.58 732.55,-55.61 759.54,-52.56"/>
<polygon fill="midnightblue" stroke="midnightblue" points="760.26,-56 769.8,-51.41 759.47,-49.05 760.26,-56"/>
</g>
<!-- Node16 -->
<g id="node16" class="node">
<title>Node16</title>
<g id="a_node16"><a xlink:href="pokeyslib_2PoKeysLibCoreSockets_8c.html#a22759fb4024c9081af26ac1bc6541b47" target="_top" xlink:title=" ">
<polygon fill="white" stroke="black" points="753,-0.5 753,-19.5 849,-19.5 849,-0.5 753,-0.5"/>
<text text-anchor="middle" x="801" y="-7.5" font-family="Helvetica,sans-Serif" font-size="10.00">SendEthRequest</text>
</a>
</g>
</g>
<!-- Node11&#45;&gt;Node16 -->
<g id="edge16" class="edge">
<title>Node11&#45;&gt;Node16</title>
<path fill="none" stroke="midnightblue" d="M659.7,-57.46C687.77,-47.97 731.02,-33.33 762.08,-22.83"/>
<polygon fill="midnightblue" stroke="midnightblue" points="763.35,-26.09 771.7,-19.57 761.11,-19.46 763.35,-26.09"/>
</g>
<!-- Node14 -->
<g id="node14" class="node">
<title>Node14</title>
<g id="a_node14"><a xlink:href="group__API.html#gaa5c9ed5aa290688ffac03343989ad75a" target="_top" xlink:title="Read an Input report from a HID device with timeout.">
<polygon fill="white" stroke="black" points="885,-114.5 885,-133.5 987,-133.5 987,-114.5 885,-114.5"/>
<text text-anchor="middle" x="936" y="-121.5" font-family="Helvetica,sans-Serif" font-size="10.00">hid_read_timeout</text>
</a>
</g>
</g>
<!-- Node13&#45;&gt;Node14 -->
<g id="edge14" class="edge">
<title>Node13&#45;&gt;Node14</title>
<path fill="none" stroke="midnightblue" d="M830.53,-124C843.49,-124 859.35,-124 874.75,-124"/>
<polygon fill="midnightblue" stroke="midnightblue" points="874.77,-127.5 884.77,-124 874.77,-120.5 874.77,-127.5"/>
</g>
<!-- Node16&#45;&gt;Node12 -->
<g id="edge17" class="edge">
<title>Node16&#45;&gt;Node12</title>
<path fill="none" stroke="midnightblue" d="M835.56,-19.59C852.57,-24.45 873.43,-30.41 891.64,-35.61"/>
<polygon fill="midnightblue" stroke="midnightblue" points="890.87,-39.03 901.45,-38.41 892.8,-32.3 890.87,-39.03"/>
</g>
<!-- Node19 -->
<g id="node19" class="node">
<title>Node19</title>
<g id="a_node19"><a xlink:href="pokeyslib_2PoKeysLibIO_8c.html#ae7007ad0d96ba1ff2fadba2101016ce7" target="_top" xlink:title=" ">
<polygon fill="white" stroke="black" points="544,-171.5 544,-190.5 717,-190.5 717,-171.5 544,-171.5"/>
<text text-anchor="middle" x="630.5" y="-178.5" font-family="Helvetica,sans-Serif" font-size="10.00">PK_IsCounterAvailableByDevice</text>
</a>
</g>
</g>
<!-- Node18&#45;&gt;Node19 -->
<g id="edge20" class="edge">
<title>Node18&#45;&gt;Node19</title>
<path fill="none" stroke="midnightblue" d="M504.51,-174.32C514,-174.82 523.98,-175.36 533.99,-175.89"/>
<polygon fill="midnightblue" stroke="midnightblue" points="533.82,-179.39 543.99,-176.43 534.19,-172.4 533.82,-179.39"/>
</g>
</g>
</svg>
        <g id="navigator" transform="translate(0 0)" fill="#404254">
                <rect fill="#f2f5e9" fill-opacity="0.5" stroke="#606060" stroke-width=".5" x="0" y="0" width="60" height="60"/>
                <use id="zoomplus" xlink:href="#zoomPlus" x="17" y="9" onmousedown="handleZoom(evt,'in')"/>
                <use id="zoomminus" xlink:href="#zoomMin" x="42" y="9" onmousedown="handleZoom(evt,'out')"/>
                <use id="reset" xlink:href="#resetDef" x="30" y="36" onmousedown="handleReset()"/>
                <g id="arrowUp" xlink:href="#dirArrow" transform="translate(30 24)" onmousedown="handlePan(0,-1)">
                  <use xlink:href="#rim" fill="#404040">
                        <set attributeName="fill" to="#808080" begin="arrowUp.mouseover" end="arrowUp.mouseout"/>
                  </use>
                  <path fill="none" stroke="white" stroke-width="1.5" d="M0,-3.0v7 M-2.5,-0.5L0,-3.0L2.5,-0.5"/>
                </g>
                <g id="arrowRight" xlink:href="#dirArrow" transform="rotate(90) translate(36 -43)" onmousedown="handlePan(1,0)">
                  <use xlink:href="#rim" fill="#404040">
                        <set attributeName="fill" to="#808080" begin="arrowRight.mouseover" end="arrowRight.mouseout"/>
                  </use>
                  <path fill="none" stroke="white" stroke-width="1.5" d="M0,-3.0v7 M-2.5,-0.5L0,-3.0L2.5,-0.5"/>
                </g>
                <g id="arrowDown" xlink:href="#dirArrow" transform="rotate(180) translate(-30 -48)" onmousedown="handlePan(0,1)">
                  <use xlink:href="#rim" fill="#404040">
                        <set attributeName="fill" to="#808080" begin="arrowDown.mouseover" end="arrowDown.mouseout"/>
                  </use>
                  <path fill="none" stroke="white" stroke-width="1.5" d="M0,-3.0v7 M-2.5,-0.5L0,-3.0L2.5,-0.5"/>
                </g>
                <g id="arrowLeft" xlink:href="#dirArrow" transform="rotate(270) translate(-36 17)" onmousedown="handlePan(-1,0)">
                  <use xlink:href="#rim" fill="#404040">
                        <set attributeName="fill" to="#808080" begin="arrowLeft.mouseover" end="arrowLeft.mouseout"/>
                  </use>
                  <path fill="none" stroke="white" stroke-width="1.5" d="M0,-3.0v7 M-2.5,-0.5L0,-3.0L2.5,-0.5"/>
                </g>
        </g>
        <svg viewBox="0 0 15 15" width="100%" height="30px" preserveAspectRatio="xMaxYMin meet">
         <g id="arrow_out" transform="scale(0.3 0.3)">
          <a xlink:href="PoKeysLibCoreAsync_8c_ae21a3349787cf1f1150186e4858397e6_cgraph_org.svg" target="_base">
           <rect id="button" ry="5" rx="5" y="6" x="6" height="38" width="38"
                fill="#f2f5e9" fill-opacity="0.5" stroke="#606060" stroke-width="1.0"/>
           <path id="arrow"
             d="M 11.500037,31.436501 C 11.940474,20.09759 22.043105,11.32322 32.158766,21.979434 L 37.068811,17.246167 C 37.068811,17.246167 37.088388,32 37.088388,32 L 22.160133,31.978069 C 22.160133,31.978069 26.997745,27.140456 26.997745,27.140456 C 18.528582,18.264221 13.291696,25.230495 11.500037,31.436501 z"
             style="fill:#404040;"/>
          </a>
         </g>
        </svg>
</svg>
