<?xml version="1.0" encoding="UTF-8" standalone="no"?>
<!DOCTYPE svg PUBLIC "-//W3C//DTD SVG 1.1//EN"
 "http://www.w3.org/Graphics/SVG/1.1/DTD/svg11.dtd">
<!-- Generated by graphviz version 2.43.0 (0)
 -->
<!-- Title: PK_PEv2_AdditionalParametersGetAsync Pages: 1 -->
<svg width="467pt" height="66pt"
 viewBox="0.00 0.00 467.00 66.00" xmlns="http://www.w3.org/2000/svg" xmlns:xlink="http://www.w3.org/1999/xlink">
<g id="graph0" class="graph" transform="scale(1 1) rotate(0) translate(4 62)">
<title>PK_PEv2_AdditionalParametersGetAsync</title>
<polygon fill="white" stroke="transparent" points="-4,4 -4,-62 463,-62 463,4 -4,4"/>
<!-- Node1 -->
<g id="node1" class="node">
<title>Node1</title>
<g id="a_node1"><a xlink:title=" ">
<polygon fill="#bfbfbf" stroke="black" points="0,-14 0,-44 169,-44 169,-14 0,-14"/>
<text text-anchor="start" x="8" y="-32" font-family="Helvetica,sans-Serif" font-size="10.00">PK_PEv2_AdditionalParameters</text>
<text text-anchor="middle" x="84.5" y="-21" font-family="Helvetica,sans-Serif" font-size="10.00">GetAsync</text>
</a>
</g>
</g>
<!-- Node2 -->
<g id="node2" class="node">
<title>Node2</title>
<g id="a_node2"><a xlink:href="PoKeysLibAsync_8c.html#a8ed8b17dbfd4e5cfba35c6b1e2ea6956" target="_top" xlink:title="Prepares an asynchronous request (non&#45;sending).">
<polygon fill="white" stroke="black" points="205,-19.5 205,-38.5 323,-38.5 323,-19.5 205,-19.5"/>
<text text-anchor="middle" x="264" y="-26.5" font-family="Helvetica,sans-Serif" font-size="10.00">CreateRequestAsync</text>
</a>
</g>
</g>
<!-- Node1&#45;&gt;Node2 -->
<g id="edge1" class="edge">
<title>Node1&#45;&gt;Node2</title>
<path fill="none" stroke="midnightblue" d="M169.05,-29C177.68,-29 186.38,-29 194.81,-29"/>
<polygon fill="midnightblue" stroke="midnightblue" points="194.95,-32.5 204.95,-29 194.95,-25.5 194.95,-32.5"/>
</g>
<!-- Node3 -->
<g id="node3" class="node">
<title>Node3</title>
<g id="a_node3"><a xlink:href="PoKeysLibAsync_8c.html#a8e57ea5df5b229f5a1317bf4e4918c1b" target="_top" xlink:title=" ">
<polygon fill="white" stroke="black" points="361.5,-38.5 361.5,-57.5 456.5,-57.5 456.5,-38.5 361.5,-38.5"/>
<text text-anchor="middle" x="409" y="-45.5" font-family="Helvetica,sans-Serif" font-size="10.00">next_request_id</text>
</a>
</g>
</g>
<!-- Node2&#45;&gt;Node3 -->
<g id="edge2" class="edge">
<title>Node2&#45;&gt;Node3</title>
<path fill="none" stroke="midnightblue" d="M323.16,-36.73C332.38,-37.95 341.9,-39.22 351.08,-40.44"/>
<polygon fill="midnightblue" stroke="midnightblue" points="350.9,-43.94 361.28,-41.79 351.82,-37.01 350.9,-43.94"/>
</g>
<!-- Node4 -->
<g id="node4" class="node">
<title>Node4</title>
<g id="a_node4"><a xlink:href="PoKeysLibAsync_8c.html#a0daf7f6eb658a60879d46369307db3f0" target="_top" xlink:title="Allocates a new free transaction.">
<polygon fill="white" stroke="black" points="359,-0.5 359,-19.5 459,-19.5 459,-0.5 359,-0.5"/>
<text text-anchor="middle" x="409" y="-7.5" font-family="Helvetica,sans-Serif" font-size="10.00">transaction_alloc</text>
</a>
</g>
</g>
<!-- Node2&#45;&gt;Node4 -->
<g id="edge3" class="edge">
<title>Node2&#45;&gt;Node4</title>
<path fill="none" stroke="midnightblue" d="M323.16,-21.27C331.52,-20.16 340.13,-19.02 348.51,-17.9"/>
<polygon fill="midnightblue" stroke="midnightblue" points="349.14,-21.35 358.59,-16.57 348.21,-14.41 349.14,-21.35"/>
</g>
</g>
</svg>
