<?xml version="1.0" encoding="UTF-8" standalone="no"?>
<!DOCTYPE svg PUBLIC "-//W3C//DTD SVG 1.1//EN"
 "http://www.w3.org/Graphics/SVG/1.1/DTD/svg11.dtd">
<!-- Generated by graphviz version 2.43.0 (0)
 -->
<!-- Title: PK_PWMConfigurationGetAsync Pages: 1 -->
<svg width="502pt" height="85pt"
 viewBox="0.00 0.00 502.00 85.00" xmlns="http://www.w3.org/2000/svg" xmlns:xlink="http://www.w3.org/1999/xlink">
<g id="graph0" class="graph" transform="scale(1 1) rotate(0) translate(4 81)">
<title>PK_PWMConfigurationGetAsync</title>
<polygon fill="white" stroke="transparent" points="-4,4 -4,-81 498,-81 498,4 -4,4"/>
<!-- Node1 -->
<g id="node1" class="node">
<title>Node1</title>
<g id="a_node1"><a xlink:title="Starts async request to get PWM configuration (CMD 0xCB, param1=0)">
<polygon fill="#bfbfbf" stroke="black" points="0,-19.5 0,-38.5 171,-38.5 171,-19.5 0,-19.5"/>
<text text-anchor="middle" x="85.5" y="-26.5" font-family="Helvetica,sans-Serif" font-size="10.00">PK_PWMConfigurationGetAsync</text>
</a>
</g>
</g>
<!-- Node2 -->
<g id="node2" class="node">
<title>Node2</title>
<g id="a_node2"><a xlink:href="PoKeysLibAsync_8c.html#a8ed8b17dbfd4e5cfba35c6b1e2ea6956" target="_top" xlink:title="Prepares an asynchronous request (non&#45;sending).">
<polygon fill="white" stroke="black" points="223.5,-38.5 223.5,-57.5 341.5,-57.5 341.5,-38.5 223.5,-38.5"/>
<text text-anchor="middle" x="282.5" y="-45.5" font-family="Helvetica,sans-Serif" font-size="10.00">CreateRequestAsync</text>
</a>
</g>
</g>
<!-- Node1&#45;&gt;Node2 -->
<g id="edge1" class="edge">
<title>Node1&#45;&gt;Node2</title>
<path fill="none" stroke="midnightblue" d="M171.18,-37.25C185.18,-38.62 199.55,-40.02 213.09,-41.33"/>
<polygon fill="midnightblue" stroke="midnightblue" points="212.97,-44.84 223.27,-42.33 213.65,-37.87 212.97,-44.84"/>
</g>
<!-- Node5 -->
<g id="node5" class="node">
<title>Node5</title>
<g id="a_node5"><a xlink:href="PoKeysLibIOAsync_8c.html#a77b0163738dbd4889e9db3e73d81b3e2" target="_top" xlink:title="Parser for reading PWM configuration (CMD 0xCB, param1=0)">
<polygon fill="white" stroke="black" points="207,-0.5 207,-19.5 358,-19.5 358,-0.5 207,-0.5"/>
<text text-anchor="middle" x="282.5" y="-7.5" font-family="Helvetica,sans-Serif" font-size="10.00">PK_PWMConfigurationParse</text>
</a>
</g>
</g>
<!-- Node1&#45;&gt;Node5 -->
<g id="edge4" class="edge">
<title>Node1&#45;&gt;Node5</title>
<path fill="none" stroke="midnightblue" d="M171.18,-20.75C179.75,-19.91 188.45,-19.07 197.02,-18.23"/>
<polygon fill="midnightblue" stroke="midnightblue" points="197.39,-21.71 207,-17.26 196.71,-14.75 197.39,-21.71"/>
</g>
<!-- Node3 -->
<g id="node3" class="node">
<title>Node3</title>
<g id="a_node3"><a xlink:href="PoKeysLibAsync_8c.html#a8e57ea5df5b229f5a1317bf4e4918c1b" target="_top" xlink:title=" ">
<polygon fill="white" stroke="black" points="396.5,-57.5 396.5,-76.5 491.5,-76.5 491.5,-57.5 396.5,-57.5"/>
<text text-anchor="middle" x="444" y="-64.5" font-family="Helvetica,sans-Serif" font-size="10.00">next_request_id</text>
</a>
</g>
</g>
<!-- Node2&#45;&gt;Node3 -->
<g id="edge2" class="edge">
<title>Node2&#45;&gt;Node3</title>
<path fill="none" stroke="midnightblue" d="M341.53,-54.91C356.08,-56.65 371.68,-58.5 386.17,-60.23"/>
<polygon fill="midnightblue" stroke="midnightblue" points="386.15,-63.75 396.5,-61.46 386.98,-56.8 386.15,-63.75"/>
</g>
<!-- Node4 -->
<g id="node4" class="node">
<title>Node4</title>
<g id="a_node4"><a xlink:href="PoKeysLibAsync_8c.html#a0daf7f6eb658a60879d46369307db3f0" target="_top" xlink:title="Allocates a new free transaction.">
<polygon fill="white" stroke="black" points="394,-19.5 394,-38.5 494,-38.5 494,-19.5 394,-19.5"/>
<text text-anchor="middle" x="444" y="-26.5" font-family="Helvetica,sans-Serif" font-size="10.00">transaction_alloc</text>
</a>
</g>
</g>
<!-- Node2&#45;&gt;Node4 -->
<g id="edge3" class="edge">
<title>Node2&#45;&gt;Node4</title>
<path fill="none" stroke="midnightblue" d="M341.53,-41.09C355.23,-39.45 369.86,-37.71 383.62,-36.07"/>
<polygon fill="midnightblue" stroke="midnightblue" points="384.42,-39.5 393.94,-34.84 383.59,-32.55 384.42,-39.5"/>
</g>
</g>
</svg>
