<?xml version="1.0" encoding="UTF-8" standalone="no"?>
<!DOCTYPE svg PUBLIC "-//W3C//DTD SVG 1.1//EN"
 "http://www.w3.org/Graphics/SVG/1.1/DTD/svg11.dtd">
<!-- Generated by graphviz version 2.43.0 (0)
 -->
<!-- Title: PK_PEv2_HomingStart Pages: 1 -->
<svg width="528pt" height="142pt"
 viewBox="0.00 0.00 528.00 142.00" xmlns="http://www.w3.org/2000/svg" xmlns:xlink="http://www.w3.org/1999/xlink">
<g id="graph0" class="graph" transform="scale(1 1) rotate(0) translate(4 138)">
<title>PK_PEv2_HomingStart</title>
<polygon fill="white" stroke="transparent" points="-4,4 -4,-138 524,-138 524,4 -4,4"/>
<!-- Node1 -->
<g id="node1" class="node">
<title>Node1</title>
<g id="a_node1"><a xlink:title="Begin the homing sequence.">
<polygon fill="#bfbfbf" stroke="black" points="0,-76.5 0,-95.5 125,-95.5 125,-76.5 0,-76.5"/>
<text text-anchor="middle" x="62.5" y="-83.5" font-family="Helvetica,sans-Serif" font-size="10.00">PK_PEv2_HomingStart</text>
</a>
</g>
</g>
<!-- Node2 -->
<g id="node2" class="node">
<title>Node2</title>
<g id="a_node2"><a xlink:href="pokeyslib_2PoKeysLibCore_8c.html#acb1fdd8f77277dc66c4d037218bfcece" target="_top" xlink:title=" ">
<polygon fill="white" stroke="black" points="161,-95.5 161,-114.5 250,-114.5 250,-95.5 161,-95.5"/>
<text text-anchor="middle" x="205.5" y="-102.5" font-family="Helvetica,sans-Serif" font-size="10.00">CreateRequest</text>
</a>
</g>
</g>
<!-- Node1&#45;&gt;Node2 -->
<g id="edge1" class="edge">
<title>Node1&#45;&gt;Node2</title>
<path fill="none" stroke="midnightblue" d="M125.34,-94.33C133.87,-95.48 142.56,-96.65 150.92,-97.78"/>
<polygon fill="midnightblue" stroke="midnightblue" points="150.53,-101.26 160.91,-99.13 151.47,-94.32 150.53,-101.26"/>
</g>
<!-- Node3 -->
<g id="node3" class="node">
<title>Node3</title>
<g id="a_node3"><a xlink:href="pokeyslib_2PoKeysLibCore_8c.html#ab5d92aa36d0a4a6953a055f5cd960aff" target="_top" xlink:title=" ">
<polygon fill="white" stroke="black" points="165.5,-57.5 165.5,-76.5 245.5,-76.5 245.5,-57.5 165.5,-57.5"/>
<text text-anchor="middle" x="205.5" y="-64.5" font-family="Helvetica,sans-Serif" font-size="10.00">SendRequest</text>
</a>
</g>
</g>
<!-- Node1&#45;&gt;Node3 -->
<g id="edge2" class="edge">
<title>Node1&#45;&gt;Node3</title>
<path fill="none" stroke="midnightblue" d="M125.34,-77.67C135.34,-76.32 145.58,-74.94 155.23,-73.64"/>
<polygon fill="midnightblue" stroke="midnightblue" points="155.99,-77.07 165.43,-72.26 155.05,-70.13 155.99,-77.07"/>
</g>
<!-- Node4 -->
<g id="node4" class="node">
<title>Node4</title>
<g id="a_node4"><a xlink:href="pokeyslib_2PoKeysLibCore_8c.html#a273b6d635dea8f559b915cdb289d021e" target="_top" xlink:title=" ">
<polygon fill="white" stroke="black" points="427.5,-38.5 427.5,-57.5 510.5,-57.5 510.5,-38.5 427.5,-38.5"/>
<text text-anchor="middle" x="469" y="-45.5" font-family="Helvetica,sans-Serif" font-size="10.00">getChecksum</text>
</a>
</g>
</g>
<!-- Node3&#45;&gt;Node4 -->
<g id="edge3" class="edge">
<title>Node3&#45;&gt;Node4</title>
<path fill="none" stroke="midnightblue" d="M245.67,-69.42C281.32,-71.06 335.36,-72.09 382,-67 395.57,-65.52 410.13,-62.76 423.34,-59.8"/>
<polygon fill="midnightblue" stroke="midnightblue" points="424.2,-63.19 433.14,-57.51 422.61,-56.37 424.2,-63.19"/>
</g>
<!-- Node5 -->
<g id="node5" class="node">
<title>Node5</title>
<g id="a_node5"><a xlink:href="group__API.html#ga6b820f3e72097cf7f994e33715dc7af1" target="_top" xlink:title="Read an Input report from a HID device.">
<polygon fill="white" stroke="black" points="304.5,-114.5 304.5,-133.5 363.5,-133.5 363.5,-114.5 304.5,-114.5"/>
<text text-anchor="middle" x="334" y="-121.5" font-family="Helvetica,sans-Serif" font-size="10.00">hid_read</text>
</a>
</g>
</g>
<!-- Node3&#45;&gt;Node5 -->
<g id="edge4" class="edge">
<title>Node3&#45;&gt;Node5</title>
<path fill="none" stroke="midnightblue" d="M228.66,-76.59C235.51,-79.58 243.08,-82.9 250,-86 267.61,-93.88 287.24,-102.86 302.99,-110.11"/>
<polygon fill="midnightblue" stroke="midnightblue" points="301.69,-113.36 312.24,-114.37 304.62,-107.01 301.69,-113.36"/>
</g>
<!-- Node7 -->
<g id="node7" class="node">
<title>Node7</title>
<g id="a_node7"><a xlink:href="group__API.html#gad14ea48e440cf5066df87cc6488493af" target="_top" xlink:title="Write an Output report to a HID device.">
<polygon fill="white" stroke="black" points="303,-38.5 303,-57.5 365,-57.5 365,-38.5 303,-38.5"/>
<text text-anchor="middle" x="334" y="-45.5" font-family="Helvetica,sans-Serif" font-size="10.00">hid_write</text>
</a>
</g>
</g>
<!-- Node3&#45;&gt;Node7 -->
<g id="edge6" class="edge">
<title>Node3&#45;&gt;Node7</title>
<path fill="none" stroke="midnightblue" d="M245.83,-61.09C260.8,-58.84 277.86,-56.28 292.9,-54.02"/>
<polygon fill="midnightblue" stroke="midnightblue" points="293.57,-57.46 302.94,-52.52 292.53,-50.54 293.57,-57.46"/>
</g>
<!-- Node8 -->
<g id="node8" class="node">
<title>Node8</title>
<g id="a_node8"><a xlink:href="pokeyslib_2PoKeysLibCoreSockets_8c.html#a22759fb4024c9081af26ac1bc6541b47" target="_top" xlink:title=" ">
<polygon fill="white" stroke="black" points="286,-0.5 286,-19.5 382,-19.5 382,-0.5 286,-0.5"/>
<text text-anchor="middle" x="334" y="-7.5" font-family="Helvetica,sans-Serif" font-size="10.00">SendEthRequest</text>
</a>
</g>
</g>
<!-- Node3&#45;&gt;Node8 -->
<g id="edge7" class="edge">
<title>Node3&#45;&gt;Node8</title>
<path fill="none" stroke="midnightblue" d="M225.62,-57.45C241.63,-49.56 265.14,-38.19 286,-29 290.19,-27.15 294.62,-25.27 299.02,-23.45"/>
<polygon fill="midnightblue" stroke="midnightblue" points="300.55,-26.6 308.49,-19.58 297.91,-20.12 300.55,-26.6"/>
</g>
<!-- Node6 -->
<g id="node6" class="node">
<title>Node6</title>
<g id="a_node6"><a xlink:href="group__API.html#gaa5c9ed5aa290688ffac03343989ad75a" target="_top" xlink:title="Read an Input report from a HID device with timeout.">
<polygon fill="white" stroke="black" points="418,-114.5 418,-133.5 520,-133.5 520,-114.5 418,-114.5"/>
<text text-anchor="middle" x="469" y="-121.5" font-family="Helvetica,sans-Serif" font-size="10.00">hid_read_timeout</text>
</a>
</g>
</g>
<!-- Node5&#45;&gt;Node6 -->
<g id="edge5" class="edge">
<title>Node5&#45;&gt;Node6</title>
<path fill="none" stroke="midnightblue" d="M363.53,-124C376.49,-124 392.35,-124 407.75,-124"/>
<polygon fill="midnightblue" stroke="midnightblue" points="407.77,-127.5 417.77,-124 407.77,-120.5 407.77,-127.5"/>
</g>
<!-- Node8&#45;&gt;Node4 -->
<g id="edge8" class="edge">
<title>Node8&#45;&gt;Node4</title>
<path fill="none" stroke="midnightblue" d="M368.56,-19.59C385.57,-24.45 406.43,-30.41 424.64,-35.61"/>
<polygon fill="midnightblue" stroke="midnightblue" points="423.87,-39.03 434.45,-38.41 425.8,-32.3 423.87,-39.03"/>
</g>
</g>
</svg>
