<?xml version="1.0" encoding="UTF-8" standalone="no"?>
<!DOCTYPE svg PUBLIC "-//W3C//DTD SVG 1.1//EN"
 "http://www.w3.org/Graphics/SVG/1.1/DTD/svg11.dtd">
<!-- Generated by graphviz version 2.43.0 (0)
 -->
<!-- Title: PK_EncoderConfigurationGet Pages: 1 -->
<svg width="432pt" height="28pt"
 viewBox="0.00 0.00 432.00 28.00" xmlns="http://www.w3.org/2000/svg" xmlns:xlink="http://www.w3.org/1999/xlink">
<g id="graph0" class="graph" transform="scale(1 1) rotate(0) translate(4 24)">
<title>PK_EncoderConfigurationGet</title>
<polygon fill="white" stroke="transparent" points="-4,4 -4,-24 428,-24 428,4 -4,4"/>
<!-- Node1 -->
<g id="node1" class="node">
<title>Node1</title>
<g id="a_node1"><a xlink:title="Retrieve encoder configuration from the device.">
<polygon fill="#bfbfbf" stroke="black" points="268,-0.5 268,-19.5 424,-19.5 424,-0.5 268,-0.5"/>
<text text-anchor="middle" x="346" y="-7.5" font-family="Helvetica,sans-Serif" font-size="10.00">PK_EncoderConfigurationGet</text>
</a>
</g>
</g>
<!-- Node2 -->
<g id="node2" class="node">
<title>Node2</title>
<g id="a_node2"><a xlink:href="group__hal__component__pokeys.html#ga3c9afba53772a416f90c9b80d74d76fe" target="_top" xlink:title="Placeholder function to perform encoder&#45;specific setup actions.">
<polygon fill="white" stroke="black" points="131,-0.5 131,-19.5 232,-19.5 232,-0.5 131,-0.5"/>
<text text-anchor="middle" x="181.5" y="-7.5" font-family="Helvetica,sans-Serif" font-size="10.00">PKEncoder_Setup</text>
</a>
</g>
</g>
<!-- Node1&#45;&gt;Node2 -->
<g id="edge1" class="edge">
<title>Node1&#45;&gt;Node2</title>
<path fill="none" stroke="midnightblue" d="M257.35,-10C248.67,-10 240.08,-10 232,-10"/>
<polygon fill="midnightblue" stroke="midnightblue" points="257.56,-13.5 267.56,-10 257.56,-6.5 257.56,-13.5"/>
</g>
<!-- Node3 -->
<g id="node3" class="node">
<title>Node3</title>
<g id="a_node3"><a xlink:href="pokeys_8c.html#a1d59e212b57d33fe74e44b64cadf3314" target="_top" xlink:title=" ">
<polygon fill="white" stroke="black" points="0,-0.5 0,-19.5 95,-19.5 95,-0.5 0,-0.5"/>
<text text-anchor="middle" x="47.5" y="-7.5" font-family="Helvetica,sans-Serif" font-size="10.00">pokeys_read_ini</text>
</a>
</g>
</g>
<!-- Node2&#45;&gt;Node3 -->
<g id="edge2" class="edge">
<title>Node2&#45;&gt;Node3</title>
<path fill="none" stroke="midnightblue" d="M120.96,-10C112.34,-10 103.57,-10 95.25,-10"/>
<polygon fill="midnightblue" stroke="midnightblue" points="120.97,-13.5 130.97,-10 120.97,-6.5 120.97,-13.5"/>
</g>
</g>
</svg>
