<?xml version="1.0" encoding="UTF-8" standalone="no"?>
<!DOCTYPE svg PUBLIC "-//W3C//DTD SVG 1.1//EN"
 "http://www.w3.org/Graphics/SVG/1.1/DTD/svg11.dtd">
<!-- Generated by graphviz version 2.43.0 (0)
 -->
<!-- Title: PK_PWMUpdate Pages: 1 -->
<svg width="398pt" height="78pt"
 viewBox="0.00 0.00 398.00 77.50" xmlns="http://www.w3.org/2000/svg" xmlns:xlink="http://www.w3.org/1999/xlink">
<g id="graph0" class="graph" transform="scale(1 1) rotate(0) translate(4 73.5)">
<title>PK_PWMUpdate</title>
<polygon fill="white" stroke="transparent" points="-4,4 -4,-73.5 394,-73.5 394,4 -4,4"/>
<!-- Node1 -->
<g id="node1" class="node">
<title>Node1</title>
<g id="a_node1"><a xlink:title=" ">
<polygon fill="#bfbfbf" stroke="black" points="295,-28 295,-47 390,-47 390,-28 295,-28"/>
<text text-anchor="middle" x="342.5" y="-35" font-family="Helvetica,sans-Serif" font-size="10.00">PK_PWMUpdate</text>
</a>
</g>
</g>
<!-- Node2 -->
<g id="node2" class="node">
<title>Node2</title>
<g id="a_node2"><a xlink:href="PoKeysLibIO_8c.html#a1f802692f735756bedd9752992bc2848" target="_top" xlink:title=" ">
<polygon fill="white" stroke="black" points="126,-50 126,-69 259,-69 259,-50 126,-50"/>
<text text-anchor="middle" x="192.5" y="-57" font-family="Helvetica,sans-Serif" font-size="10.00">PK_PWMUpdateDirectly</text>
</a>
</g>
</g>
<!-- Node1&#45;&gt;Node2 -->
<g id="edge1" class="edge">
<title>Node1&#45;&gt;Node2</title>
<path fill="none" stroke="midnightblue" d="M284.52,-45.97C275.71,-47.28 266.56,-48.64 257.61,-49.97"/>
<polygon fill="midnightblue" stroke="midnightblue" points="285.3,-49.39 294.67,-44.46 284.27,-42.47 285.3,-49.39"/>
</g>
<!-- Node3 -->
<g id="node3" class="node">
<title>Node3</title>
<g id="a_node3"><a xlink:href="group__hal__component__pokeys.html#ga053adc615433218543268696998c7f32" target="_top" xlink:title="Updates PoKeys I/O states from and to hardware.">
<polygon fill="white" stroke="black" points="128.5,-0.5 128.5,-30.5 256.5,-30.5 256.5,-0.5 128.5,-0.5"/>
<text text-anchor="start" x="136.5" y="-18.5" font-family="Helvetica,sans-Serif" font-size="10.00">PoKeysHALComponent</text>
<text text-anchor="middle" x="192.5" y="-7.5" font-family="Helvetica,sans-Serif" font-size="10.00">::PKIO_Update</text>
</a>
</g>
</g>
<!-- Node1&#45;&gt;Node3 -->
<g id="edge2" class="edge">
<title>Node1&#45;&gt;Node3</title>
<path fill="none" stroke="midnightblue" d="M284.52,-29.03C275.36,-27.67 265.83,-26.25 256.53,-24.87"/>
<polygon fill="midnightblue" stroke="midnightblue" points="284.27,-32.53 294.67,-30.54 285.3,-25.61 284.27,-32.53"/>
</g>
<!-- Node4 -->
<g id="node4" class="node">
<title>Node4</title>
<g id="a_node4"><a xlink:href="pokeys_8c.html#a6e89ee20635570c2e51b81bf26e895cc" target="_top" xlink:title=" ">
<polygon fill="white" stroke="black" points="0,-6 0,-25 90,-25 90,-6 0,-6"/>
<text text-anchor="middle" x="45" y="-13" font-family="Helvetica,sans-Serif" font-size="10.00">pokeys_update</text>
</a>
</g>
</g>
<!-- Node3&#45;&gt;Node4 -->
<g id="edge3" class="edge">
<title>Node3&#45;&gt;Node4</title>
<path fill="none" stroke="midnightblue" d="M117.92,-15.5C108.52,-15.5 99.13,-15.5 90.39,-15.5"/>
<polygon fill="midnightblue" stroke="midnightblue" points="118.1,-19 128.1,-15.5 118.1,-12 118.1,-19"/>
</g>
</g>
</svg>
