<?xml version="1.0" encoding="UTF-8" standalone="no"?>
<!DOCTYPE svg PUBLIC "-//W3C//DTD SVG 1.1//EN"
 "http://www.w3.org/Graphics/SVG/1.1/DTD/svg11.dtd">
<!-- Generated by graphviz version 2.43.0 (0)
 -->
<!-- Title: Update_LCD Pages: 1 -->
<svg width="676pt" height="123pt"
 viewBox="0.00 0.00 676.00 123.00" xmlns="http://www.w3.org/2000/svg" xmlns:xlink="http://www.w3.org/1999/xlink">
<g id="graph0" class="graph" transform="scale(1 1) rotate(0) translate(4 119)">
<title>Update_LCD</title>
<polygon fill="white" stroke="transparent" points="-4,4 -4,-119 672,-119 672,4 -4,4"/>
<!-- Node1 -->
<g id="node1" class="node">
<title>Node1</title>
<g id="a_node1"><a xlink:title=" ">
<polygon fill="#bfbfbf" stroke="black" points="0,-76.5 0,-95.5 77,-95.5 77,-76.5 0,-76.5"/>
<text text-anchor="middle" x="38.5" y="-83.5" font-family="Helvetica,sans-Serif" font-size="10.00">Update_LCD</text>
</a>
</g>
</g>
<!-- Node2 -->
<g id="node2" class="node">
<title>Node2</title>
<g id="a_node2"><a xlink:href="pokeysHal_2PoKeysLibLCD_8c.html#a88d0b0c64adb179a20929f6f9930ed22" target="_top" xlink:title="Upload custom character patterns to the LCD.">
<polygon fill="white" stroke="black" points="113,-95.5 113,-114.5 273,-114.5 273,-95.5 113,-95.5"/>
<text text-anchor="middle" x="193" y="-102.5" font-family="Helvetica,sans-Serif" font-size="10.00">PK_LCDSetCustomCharacters</text>
</a>
</g>
</g>
<!-- Node1&#45;&gt;Node2 -->
<g id="edge1" class="edge">
<title>Node1&#45;&gt;Node2</title>
<path fill="none" stroke="midnightblue" d="M77.2,-90.7C85.99,-91.79 95.72,-93 105.68,-94.25"/>
<polygon fill="midnightblue" stroke="midnightblue" points="105.34,-97.73 115.7,-95.49 106.21,-90.78 105.34,-97.73"/>
</g>
<!-- Node10 -->
<g id="node10" class="node">
<title>Node10</title>
<g id="a_node10"><a xlink:href="pokeysHal_2PoKeysLibLCD_8c.html#a0dd641cf4fe7d7ced700ece30b60ea3e" target="_top" xlink:title="Update LCD display using buffered lines.">
<polygon fill="white" stroke="black" points="148.5,-57.5 148.5,-76.5 237.5,-76.5 237.5,-57.5 148.5,-57.5"/>
<text text-anchor="middle" x="193" y="-64.5" font-family="Helvetica,sans-Serif" font-size="10.00">PK_LCDUpdate</text>
</a>
</g>
</g>
<!-- Node1&#45;&gt;Node10 -->
<g id="edge10" class="edge">
<title>Node1&#45;&gt;Node10</title>
<path fill="none" stroke="midnightblue" d="M77.2,-81.3C95.61,-79.01 118.09,-76.21 138.26,-73.7"/>
<polygon fill="midnightblue" stroke="midnightblue" points="138.76,-77.16 148.25,-72.45 137.9,-70.21 138.76,-77.16"/>
</g>
<!-- Node3 -->
<g id="node3" class="node">
<title>Node3</title>
<g id="a_node3"><a xlink:href="pokeyslib_2PoKeysLibCore_8c.html#acb1fdd8f77277dc66c4d037218bfcece" target="_top" xlink:title=" ">
<polygon fill="white" stroke="black" points="309,-95.5 309,-114.5 398,-114.5 398,-95.5 309,-95.5"/>
<text text-anchor="middle" x="353.5" y="-102.5" font-family="Helvetica,sans-Serif" font-size="10.00">CreateRequest</text>
</a>
</g>
</g>
<!-- Node2&#45;&gt;Node3 -->
<g id="edge2" class="edge">
<title>Node2&#45;&gt;Node3</title>
<path fill="none" stroke="midnightblue" d="M273.25,-105C281.85,-105 290.45,-105 298.64,-105"/>
<polygon fill="midnightblue" stroke="midnightblue" points="298.77,-108.5 308.77,-105 298.77,-101.5 298.77,-108.5"/>
</g>
<!-- Node4 -->
<g id="node4" class="node">
<title>Node4</title>
<g id="a_node4"><a xlink:href="pokeyslib_2PoKeysLibCore_8c.html#ab5d92aa36d0a4a6953a055f5cd960aff" target="_top" xlink:title=" ">
<polygon fill="white" stroke="black" points="313.5,-57.5 313.5,-76.5 393.5,-76.5 393.5,-57.5 313.5,-57.5"/>
<text text-anchor="middle" x="353.5" y="-64.5" font-family="Helvetica,sans-Serif" font-size="10.00">SendRequest</text>
</a>
</g>
</g>
<!-- Node2&#45;&gt;Node4 -->
<g id="edge3" class="edge">
<title>Node2&#45;&gt;Node4</title>
<path fill="none" stroke="midnightblue" d="M234,-95.41C255.07,-90.36 281.1,-84.12 303.39,-78.77"/>
<polygon fill="midnightblue" stroke="midnightblue" points="304.43,-82.12 313.34,-76.39 302.8,-75.32 304.43,-82.12"/>
</g>
<!-- Node5 -->
<g id="node5" class="node">
<title>Node5</title>
<g id="a_node5"><a xlink:href="pokeyslib_2PoKeysLibCore_8c.html#a273b6d635dea8f559b915cdb289d021e" target="_top" xlink:title=" ">
<polygon fill="white" stroke="black" points="575.5,-95.5 575.5,-114.5 658.5,-114.5 658.5,-95.5 575.5,-95.5"/>
<text text-anchor="middle" x="617" y="-102.5" font-family="Helvetica,sans-Serif" font-size="10.00">getChecksum</text>
</a>
</g>
</g>
<!-- Node4&#45;&gt;Node5 -->
<g id="edge4" class="edge">
<title>Node4&#45;&gt;Node5</title>
<path fill="none" stroke="midnightblue" d="M377.22,-76.55C383.96,-79.48 391.32,-82.78 398,-86 414.3,-93.85 416.44,-100.65 434,-105 477.31,-115.73 528.23,-114.62 565.17,-111.47"/>
<polygon fill="midnightblue" stroke="midnightblue" points="565.57,-114.95 575.2,-110.54 564.92,-107.98 565.57,-114.95"/>
</g>
<!-- Node6 -->
<g id="node6" class="node">
<title>Node6</title>
<g id="a_node6"><a xlink:href="group__API.html#ga6b820f3e72097cf7f994e33715dc7af1" target="_top" xlink:title="Read an Input report from a HID device.">
<polygon fill="white" stroke="black" points="452.5,-38.5 452.5,-57.5 511.5,-57.5 511.5,-38.5 452.5,-38.5"/>
<text text-anchor="middle" x="482" y="-45.5" font-family="Helvetica,sans-Serif" font-size="10.00">hid_read</text>
</a>
</g>
</g>
<!-- Node4&#45;&gt;Node6 -->
<g id="edge5" class="edge">
<title>Node4&#45;&gt;Node6</title>
<path fill="none" stroke="midnightblue" d="M393.83,-61.09C409.15,-58.79 426.67,-56.16 441.96,-53.86"/>
<polygon fill="midnightblue" stroke="midnightblue" points="442.77,-57.28 452.14,-52.33 441.73,-50.36 442.77,-57.28"/>
</g>
<!-- Node8 -->
<g id="node8" class="node">
<title>Node8</title>
<g id="a_node8"><a xlink:href="group__API.html#gad14ea48e440cf5066df87cc6488493af" target="_top" xlink:title="Write an Output report to a HID device.">
<polygon fill="white" stroke="black" points="451,-0.5 451,-19.5 513,-19.5 513,-0.5 451,-0.5"/>
<text text-anchor="middle" x="482" y="-7.5" font-family="Helvetica,sans-Serif" font-size="10.00">hid_write</text>
</a>
</g>
</g>
<!-- Node4&#45;&gt;Node8 -->
<g id="edge7" class="edge">
<title>Node4&#45;&gt;Node8</title>
<path fill="none" stroke="midnightblue" d="M373.62,-57.45C389.63,-49.56 413.14,-38.19 434,-29 438.19,-27.15 442.62,-25.27 447.02,-23.45"/>
<polygon fill="midnightblue" stroke="midnightblue" points="448.55,-26.6 456.49,-19.58 445.91,-20.12 448.55,-26.6"/>
</g>
<!-- Node9 -->
<g id="node9" class="node">
<title>Node9</title>
<g id="a_node9"><a xlink:href="pokeyslib_2PoKeysLibCoreSockets_8c.html#a22759fb4024c9081af26ac1bc6541b47" target="_top" xlink:title=" ">
<polygon fill="white" stroke="black" points="434,-76.5 434,-95.5 530,-95.5 530,-76.5 434,-76.5"/>
<text text-anchor="middle" x="482" y="-83.5" font-family="Helvetica,sans-Serif" font-size="10.00">SendEthRequest</text>
</a>
</g>
</g>
<!-- Node4&#45;&gt;Node9 -->
<g id="edge8" class="edge">
<title>Node4&#45;&gt;Node9</title>
<path fill="none" stroke="midnightblue" d="M393.83,-72.91C403.3,-74.33 413.6,-75.88 423.7,-77.39"/>
<polygon fill="midnightblue" stroke="midnightblue" points="423.28,-80.87 433.69,-78.89 424.32,-73.95 423.28,-80.87"/>
</g>
<!-- Node7 -->
<g id="node7" class="node">
<title>Node7</title>
<g id="a_node7"><a xlink:href="group__API.html#gaa5c9ed5aa290688ffac03343989ad75a" target="_top" xlink:title="Read an Input report from a HID device with timeout.">
<polygon fill="white" stroke="black" points="566,-38.5 566,-57.5 668,-57.5 668,-38.5 566,-38.5"/>
<text text-anchor="middle" x="617" y="-45.5" font-family="Helvetica,sans-Serif" font-size="10.00">hid_read_timeout</text>
</a>
</g>
</g>
<!-- Node6&#45;&gt;Node7 -->
<g id="edge6" class="edge">
<title>Node6&#45;&gt;Node7</title>
<path fill="none" stroke="midnightblue" d="M511.53,-48C524.49,-48 540.35,-48 555.75,-48"/>
<polygon fill="midnightblue" stroke="midnightblue" points="555.77,-51.5 565.77,-48 555.77,-44.5 555.77,-51.5"/>
</g>
<!-- Node9&#45;&gt;Node5 -->
<g id="edge9" class="edge">
<title>Node9&#45;&gt;Node5</title>
<path fill="none" stroke="midnightblue" d="M530.27,-92.75C541.7,-94.39 553.96,-96.14 565.54,-97.79"/>
<polygon fill="midnightblue" stroke="midnightblue" points="565.1,-101.26 575.49,-99.21 566.09,-94.33 565.1,-101.26"/>
</g>
<!-- Node10&#45;&gt;Node3 -->
<g id="edge11" class="edge">
<title>Node10&#45;&gt;Node3</title>
<path fill="none" stroke="midnightblue" d="M234,-76.59C254.91,-81.6 280.71,-87.79 302.89,-93.11"/>
<polygon fill="midnightblue" stroke="midnightblue" points="302.25,-96.55 312.79,-95.48 303.88,-89.74 302.25,-96.55"/>
</g>
<!-- Node10&#45;&gt;Node4 -->
<g id="edge12" class="edge">
<title>Node10&#45;&gt;Node4</title>
<path fill="none" stroke="midnightblue" d="M237.73,-67C257.95,-67 282.07,-67 302.96,-67"/>
<polygon fill="midnightblue" stroke="midnightblue" points="303.24,-70.5 313.24,-67 303.24,-63.5 303.24,-70.5"/>
</g>
</g>
</svg>
