<?xml version="1.0" encoding="UTF-8" standalone="no"?>
<!DOCTYPE svg PUBLIC "-//W3C//DTD SVG 1.1//EN"
 "http://www.w3.org/Graphics/SVG/1.1/DTD/svg11.dtd">
<!-- Generated by graphviz version 2.43.0 (0)
 -->
<!-- Title: /home/cnc/actions&#45;runner/_work/LinuxCnc_PokeysLibComp/LinuxCnc_PokeysLibComp/pokeys_uspace/PokeysCompPulsEngine_base.c Pages: 1 -->
<svg width="220pt" height="239pt"
 viewBox="0.00 0.00 220.00 239.00" xmlns="http://www.w3.org/2000/svg" xmlns:xlink="http://www.w3.org/1999/xlink">
<g id="graph0" class="graph" transform="scale(1 1) rotate(0) translate(4 235)">
<title>/home/cnc/actions&#45;runner/_work/LinuxCnc_PokeysLibComp/LinuxCnc_PokeysLibComp/pokeys_uspace/PokeysCompPulsEngine_base.c</title>
<polygon fill="white" stroke="transparent" points="-4,4 -4,-235 216,-235 216,4 -4,4"/>
<!-- Node1 -->
<g id="node1" class="node">
<title>Node1</title>
<g id="a_node1"><a xlink:title="Base routines for setting up HAL pins and parameters for PoKeys Pulse Engine v2.">
<polygon fill="#bfbfbf" stroke="black" points="0,-178.5 0,-230.5 212,-230.5 212,-178.5 0,-178.5"/>
<text text-anchor="start" x="8" y="-218.5" font-family="Helvetica,sans-Serif" font-size="10.00">/home/cnc/actions&#45;runner</text>
<text text-anchor="start" x="8" y="-207.5" font-family="Helvetica,sans-Serif" font-size="10.00">/_work/LinuxCnc_PokeysLibComp</text>
<text text-anchor="start" x="8" y="-196.5" font-family="Helvetica,sans-Serif" font-size="10.00">/LinuxCnc_PokeysLibComp/pokeys</text>
<text text-anchor="middle" x="106" y="-185.5" font-family="Helvetica,sans-Serif" font-size="10.00">_uspace/PokeysCompPulsEngine_base.c</text>
</a>
</g>
</g>
<!-- Node2 -->
<g id="node2" class="node">
<title>Node2</title>
<g id="a_node2"><a xlink:href="PoKeysCompPulseEngine__v2_8c.html" target="_top" xlink:title="HAL component implementation for PoKeys Pulse Engine v2 (PEv2) in LinuxCNC.">
<polygon fill="white" stroke="black" points="2,-89.5 2,-141.5 210,-141.5 210,-89.5 2,-89.5"/>
<text text-anchor="start" x="10" y="-129.5" font-family="Helvetica,sans-Serif" font-size="10.00">/home/cnc/actions&#45;runner</text>
<text text-anchor="start" x="10" y="-118.5" font-family="Helvetica,sans-Serif" font-size="10.00">/_work/LinuxCnc_PokeysLibComp</text>
<text text-anchor="start" x="10" y="-107.5" font-family="Helvetica,sans-Serif" font-size="10.00">/LinuxCnc_PokeysLibComp/pokeys</text>
<text text-anchor="middle" x="106" y="-96.5" font-family="Helvetica,sans-Serif" font-size="10.00">_uspace/PoKeysCompPulseEngine_v2.c</text>
</a>
</g>
</g>
<!-- Node1&#45;&gt;Node2 -->
<g id="edge1" class="edge">
<title>Node1&#45;&gt;Node2</title>
<path fill="none" stroke="midnightblue" d="M106,-168.19C106,-159.28 106,-149.9 106,-141.61"/>
<polygon fill="midnightblue" stroke="midnightblue" points="102.5,-168.34 106,-178.34 109.5,-168.34 102.5,-168.34"/>
</g>
<!-- Node3 -->
<g id="node3" class="node">
<title>Node3</title>
<g id="a_node3"><a xlink:href="pokeys_8c.html" target="_top" xlink:title="HAL component for integrating PoKeys57 devices with LinuxCNC.">
<polygon fill="white" stroke="black" points="14,-0.5 14,-52.5 198,-52.5 198,-0.5 14,-0.5"/>
<text text-anchor="start" x="22" y="-40.5" font-family="Helvetica,sans-Serif" font-size="10.00">/home/cnc/actions&#45;runner</text>
<text text-anchor="start" x="22" y="-29.5" font-family="Helvetica,sans-Serif" font-size="10.00">/_work/LinuxCnc_PokeysLibComp</text>
<text text-anchor="start" x="22" y="-18.5" font-family="Helvetica,sans-Serif" font-size="10.00">/LinuxCnc_PokeysLibComp/pokeys</text>
<text text-anchor="middle" x="106" y="-7.5" font-family="Helvetica,sans-Serif" font-size="10.00">_uspace/pokeys.c</text>
</a>
</g>
</g>
<!-- Node2&#45;&gt;Node3 -->
<g id="edge2" class="edge">
<title>Node2&#45;&gt;Node3</title>
<path fill="none" stroke="midnightblue" d="M106,-79.19C106,-70.28 106,-60.9 106,-52.61"/>
<polygon fill="midnightblue" stroke="midnightblue" points="102.5,-79.34 106,-89.34 109.5,-79.34 102.5,-79.34"/>
</g>
</g>
</svg>
