<?xml version="1.0" encoding="UTF-8" standalone="no"?>
<!DOCTYPE svg PUBLIC "-//W3C//DTD SVG 1.1//EN"
 "http://www.w3.org/Graphics/SVG/1.1/DTD/svg11.dtd">
<!-- Generated by graphviz version 2.43.0 (0)
 -->
<!-- Title: hal_adcout_getscaledvalue Pages: 1 -->
<svg width="683pt" height="180pt"
 viewBox="0.00 0.00 683.00 179.50" xmlns="http://www.w3.org/2000/svg" xmlns:xlink="http://www.w3.org/1999/xlink">
<g id="graph0" class="graph" transform="scale(1 1) rotate(0) translate(4 175.5)">
<title>hal_adcout_getscaledvalue</title>
<polygon fill="white" stroke="transparent" points="-4,4 -4,-175.5 679,-175.5 679,4 -4,4"/>
<!-- Node1 -->
<g id="node1" class="node">
<title>Node1</title>
<g id="a_node1"><a xlink:title=" ">
<polygon fill="#bfbfbf" stroke="black" points="526,-89.5 526,-108.5 675,-108.5 675,-89.5 526,-89.5"/>
<text text-anchor="middle" x="600.5" y="-96.5" font-family="Helvetica,sans-Serif" font-size="10.00">hal_adcout_getscaledvalue</text>
</a>
</g>
</g>
<!-- Node2 -->
<g id="node2" class="node">
<title>Node2</title>
<g id="a_node2"><a xlink:href="pokeysHal_2PoKeysLibIO_8c.html#a74a7b181f1bbb877bb965343a64d43e2" target="_top" xlink:title=" ">
<polygon fill="white" stroke="black" points="335,-146.5 335,-165.5 475,-165.5 475,-146.5 335,-146.5"/>
<text text-anchor="middle" x="405" y="-153.5" font-family="Helvetica,sans-Serif" font-size="10.00">PK_PWMConfigurationSet</text>
</a>
</g>
</g>
<!-- Node1&#45;&gt;Node2 -->
<g id="edge1" class="edge">
<title>Node1&#45;&gt;Node2</title>
<path fill="none" stroke="midnightblue" d="M564.91,-112.11C543.52,-119.95 515.39,-129.75 490,-137 477.92,-140.45 464.73,-143.68 452.45,-146.47"/>
<polygon fill="midnightblue" stroke="midnightblue" points="566.36,-115.31 574.53,-108.56 563.94,-108.74 566.36,-115.31"/>
</g>
<!-- Node7 -->
<g id="node7" class="node">
<title>Node7</title>
<g id="a_node7"><a xlink:href="PoKeysLibPWMAsync_8c.html#a3cca862944a5c7bc849878bc5e2fbba1" target="_top" xlink:title="Starts async command to configure PWM duty cycle and period (CMD 0xCB).">
<polygon fill="white" stroke="black" points="320,-108.5 320,-127.5 490,-127.5 490,-108.5 320,-108.5"/>
<text text-anchor="middle" x="405" y="-115.5" font-family="Helvetica,sans-Serif" font-size="10.00">PK_PWMConfigurationSetAsync</text>
</a>
</g>
</g>
<!-- Node1&#45;&gt;Node7 -->
<g id="edge6" class="edge">
<title>Node1&#45;&gt;Node7</title>
<path fill="none" stroke="midnightblue" d="M515.6,-107.24C507.17,-108.07 498.61,-108.91 490.18,-109.73"/>
<polygon fill="midnightblue" stroke="midnightblue" points="516.18,-110.7 525.79,-106.24 515.5,-103.73 516.18,-110.7"/>
</g>
<!-- Node8 -->
<g id="node8" class="node">
<title>Node8</title>
<g id="a_node8"><a xlink:href="pokeysHal_2PoKeysLibIO_8c.html#a2fef84a920878e3060d96217731123fa" target="_top" xlink:title=" ">
<polygon fill="white" stroke="black" points="357.5,-70.5 357.5,-89.5 452.5,-89.5 452.5,-70.5 357.5,-70.5"/>
<text text-anchor="middle" x="405" y="-77.5" font-family="Helvetica,sans-Serif" font-size="10.00">PK_PWMUpdate</text>
</a>
</g>
</g>
<!-- Node1&#45;&gt;Node8 -->
<g id="edge7" class="edge">
<title>Node1&#45;&gt;Node8</title>
<path fill="none" stroke="midnightblue" d="M515.62,-90.76C494.03,-88.64 471.56,-86.44 452.63,-84.58"/>
<polygon fill="midnightblue" stroke="midnightblue" points="515.5,-94.27 525.79,-91.76 516.18,-87.3 515.5,-94.27"/>
</g>
<!-- Node9 -->
<g id="node9" class="node">
<title>Node9</title>
<g id="a_node9"><a xlink:href="PoKeysLibPWMAsync_8c.html#a994703c751d423c56e7d6eae8a3bdba4" target="_top" xlink:title="Starts async command to update PWM values only (CMD 0xCB, param1=1, param2=1).">
<polygon fill="white" stroke="black" points="343,-32.5 343,-51.5 467,-51.5 467,-32.5 343,-32.5"/>
<text text-anchor="middle" x="405" y="-39.5" font-family="Helvetica,sans-Serif" font-size="10.00">PK_PWMUpdateAsync</text>
</a>
</g>
</g>
<!-- Node1&#45;&gt;Node9 -->
<g id="edge9" class="edge">
<title>Node1&#45;&gt;Node9</title>
<path fill="none" stroke="midnightblue" d="M564.91,-85.89C543.52,-78.05 515.39,-68.25 490,-61 477.92,-57.55 464.73,-54.32 452.45,-51.53"/>
<polygon fill="midnightblue" stroke="midnightblue" points="563.94,-89.26 574.53,-89.44 566.36,-82.69 563.94,-89.26"/>
</g>
<!-- Node3 -->
<g id="node3" class="node">
<title>Node3</title>
<g id="a_node3"><a xlink:href="group__hal__component__pokeys.html#ga96c96a5b1b2aaa10d97aa8426bee3840" target="_top" xlink:title="Initializes the PoKeys digital and analog I/O configuration.">
<polygon fill="white" stroke="black" points="143.5,-141 143.5,-171 271.5,-171 271.5,-141 143.5,-141"/>
<text text-anchor="start" x="151.5" y="-159" font-family="Helvetica,sans-Serif" font-size="10.00">PoKeysHALComponent</text>
<text text-anchor="middle" x="207.5" y="-148" font-family="Helvetica,sans-Serif" font-size="10.00">::PKIO_Setup</text>
</a>
</g>
</g>
<!-- Node2&#45;&gt;Node3 -->
<g id="edge2" class="edge">
<title>Node2&#45;&gt;Node3</title>
<path fill="none" stroke="midnightblue" d="M324.56,-156C306.97,-156 288.57,-156 271.73,-156"/>
<polygon fill="midnightblue" stroke="midnightblue" points="324.8,-159.5 334.8,-156 324.8,-152.5 324.8,-159.5"/>
</g>
<!-- Node5 -->
<g id="node5" class="node">
<title>Node5</title>
<g id="a_node5"><a xlink:href="group__hal__component__pokeys.html#ga053adc615433218543268696998c7f32" target="_top" xlink:title="Updates PoKeys I/O states from and to hardware.">
<polygon fill="white" stroke="black" points="143.5,-87 143.5,-117 271.5,-117 271.5,-87 143.5,-87"/>
<text text-anchor="start" x="151.5" y="-105" font-family="Helvetica,sans-Serif" font-size="10.00">PoKeysHALComponent</text>
<text text-anchor="middle" x="207.5" y="-94" font-family="Helvetica,sans-Serif" font-size="10.00">::PKIO_Update</text>
</a>
</g>
</g>
<!-- Node2&#45;&gt;Node5 -->
<g id="edge4" class="edge">
<title>Node2&#45;&gt;Node5</title>
<path fill="none" stroke="midnightblue" d="M348.64,-144.15C339.06,-141.91 329.21,-139.48 320,-137 297.96,-131.06 273.76,-123.58 253.55,-117.06"/>
<polygon fill="midnightblue" stroke="midnightblue" points="347.96,-147.59 358.49,-146.42 349.53,-140.77 347.96,-147.59"/>
</g>
<!-- Node4 -->
<g id="node4" class="node">
<title>Node4</title>
<g id="a_node4"><a xlink:href="pokeys_8c.html#a1d59e212b57d33fe74e44b64cadf3314" target="_top" xlink:title=" ">
<polygon fill="white" stroke="black" points="0,-146.5 0,-165.5 95,-165.5 95,-146.5 0,-146.5"/>
<text text-anchor="middle" x="47.5" y="-153.5" font-family="Helvetica,sans-Serif" font-size="10.00">pokeys_read_ini</text>
</a>
</g>
</g>
<!-- Node3&#45;&gt;Node4 -->
<g id="edge3" class="edge">
<title>Node3&#45;&gt;Node4</title>
<path fill="none" stroke="midnightblue" d="M132.95,-156C120.15,-156 107.16,-156 95.33,-156"/>
<polygon fill="midnightblue" stroke="midnightblue" points="133.15,-159.5 143.15,-156 133.15,-152.5 133.15,-159.5"/>
</g>
<!-- Node6 -->
<g id="node6" class="node">
<title>Node6</title>
<g id="a_node6"><a xlink:href="pokeys_8c.html#a6e89ee20635570c2e51b81bf26e895cc" target="_top" xlink:title=" ">
<polygon fill="white" stroke="black" points="2.5,-92.5 2.5,-111.5 92.5,-111.5 92.5,-92.5 2.5,-92.5"/>
<text text-anchor="middle" x="47.5" y="-99.5" font-family="Helvetica,sans-Serif" font-size="10.00">pokeys_update</text>
</a>
</g>
</g>
<!-- Node5&#45;&gt;Node6 -->
<g id="edge5" class="edge">
<title>Node5&#45;&gt;Node6</title>
<path fill="none" stroke="midnightblue" d="M132.8,-102C119.17,-102 105.34,-102 92.93,-102"/>
<polygon fill="midnightblue" stroke="midnightblue" points="133.15,-105.5 143.15,-102 133.15,-98.5 133.15,-105.5"/>
</g>
<!-- Node8&#45;&gt;Node5 -->
<g id="edge8" class="edge">
<title>Node8&#45;&gt;Node5</title>
<path fill="none" stroke="midnightblue" d="M346.96,-86.42C323.32,-89.08 295.81,-92.17 271.58,-94.9"/>
<polygon fill="midnightblue" stroke="midnightblue" points="347.63,-89.87 357.17,-85.27 346.84,-82.91 347.63,-89.87"/>
</g>
<!-- Node10 -->
<g id="node10" class="node">
<title>Node10</title>
<g id="a_node10"><a xlink:href="PoKeysLibAdvancedRTAsync_8c.html#a4ed1a6fbf44221a75d100efbb8f41ca4" target="_top" xlink:title="Emergency stop all motion and outputs (async)">
<polygon fill="white" stroke="black" points="131,-38.5 131,-57.5 284,-57.5 284,-38.5 131,-38.5"/>
<text text-anchor="middle" x="207.5" y="-45.5" font-family="Helvetica,sans-Serif" font-size="10.00">PK_EmergencyStopAllAsync</text>
</a>
</g>
</g>
<!-- Node9&#45;&gt;Node10 -->
<g id="edge10" class="edge">
<title>Node9&#45;&gt;Node10</title>
<path fill="none" stroke="midnightblue" d="M332.74,-44.19C316.96,-44.67 300.18,-45.19 284.23,-45.68"/>
<polygon fill="midnightblue" stroke="midnightblue" points="333.06,-47.68 342.95,-43.87 332.84,-40.68 333.06,-47.68"/>
</g>
<!-- Node11 -->
<g id="node11" class="node">
<title>Node11</title>
<g id="a_node11"><a xlink:href="PoKeysLibAdvancedRTAsync_8c.html#a62f34b5fbad7130f28b4ee32263ee6c7" target="_top" xlink:title="Perform complete IO update cycle (async)">
<polygon fill="white" stroke="black" points="139,-0.5 139,-19.5 276,-19.5 276,-0.5 139,-0.5"/>
<text text-anchor="middle" x="207.5" y="-7.5" font-family="Helvetica,sans-Serif" font-size="10.00">PK_IOUpdateCycleAsync</text>
</a>
</g>
</g>
<!-- Node9&#45;&gt;Node11 -->
<g id="edge11" class="edge">
<title>Node9&#45;&gt;Node11</title>
<path fill="none" stroke="midnightblue" d="M335.72,-30.82C313.22,-27.14 288.42,-23.08 266.74,-19.53"/>
<polygon fill="midnightblue" stroke="midnightblue" points="335.44,-34.32 345.87,-32.49 336.57,-27.42 335.44,-34.32"/>
</g>
</g>
</svg>
