<?xml version="1.0" encoding="UTF-8" standalone="no"?>
<!DOCTYPE svg PUBLIC "-//W3C//DTD SVG 1.1//EN"
 "http://www.w3.org/Graphics/SVG/1.1/DTD/svg11.dtd">
<!-- Generated by graphviz version 2.43.0 (0)
 -->
<!-- Title: PK_PoNETSetModuleStatusAsync Pages: 1 -->
<svg width="409pt" height="88pt"
 viewBox="0.00 0.00 409.00 88.00" xmlns="http://www.w3.org/2000/svg" xmlns:xlink="http://www.w3.org/1999/xlink">
<g id="graph0" class="graph" transform="scale(1 1) rotate(0) translate(4 84)">
<title>PK_PoNETSetModuleStatusAsync</title>
<polygon fill="white" stroke="transparent" points="-4,4 -4,-84 405,-84 405,4 -4,4"/>
<!-- Node1 -->
<g id="node1" class="node">
<title>Node1</title>
<g id="a_node1"><a xlink:title=" ">
<polygon fill="#bfbfbf" stroke="black" points="223,-30 223,-49 401,-49 401,-30 223,-30"/>
<text text-anchor="middle" x="312" y="-37" font-family="Helvetica,sans-Serif" font-size="10.00">PK_PoNETSetModuleStatusAsync</text>
</a>
</g>
</g>
<!-- Node2 -->
<g id="node2" class="node">
<title>Node2</title>
<g id="a_node2"><a xlink:href="PoKeysLibPoNETAsyncEnhanced_8c.html#ab41437e73751987ff690ee6be106600e" target="_top" xlink:title=" ">
<polygon fill="white" stroke="black" points="0,-49.5 0,-79.5 187,-79.5 187,-49.5 0,-49.5"/>
<text text-anchor="start" x="8" y="-67.5" font-family="Helvetica,sans-Serif" font-size="10.00">PK_PoNETKbd48CNCLEDSetPattern</text>
<text text-anchor="middle" x="93.5" y="-56.5" font-family="Helvetica,sans-Serif" font-size="10.00">Async</text>
</a>
</g>
</g>
<!-- Node1&#45;&gt;Node2 -->
<g id="edge1" class="edge">
<title>Node1&#45;&gt;Node2</title>
<path fill="none" stroke="midnightblue" d="M218.31,-50.2C208.02,-51.39 197.53,-52.6 187.23,-53.79"/>
<polygon fill="midnightblue" stroke="midnightblue" points="219,-53.65 228.53,-49.02 218.2,-46.69 219,-53.65"/>
</g>
<!-- Node3 -->
<g id="node3" class="node">
<title>Node3</title>
<g id="a_node3"><a xlink:href="PoKeysLibPoNETAsyncEnhanced_8c.html#abbf8834b3a28fe508ab44e49093fad1a" target="_top" xlink:title=" ">
<polygon fill="white" stroke="black" points="3.5,-0.5 3.5,-30.5 183.5,-30.5 183.5,-0.5 3.5,-0.5"/>
<text text-anchor="start" x="11.5" y="-18.5" font-family="Helvetica,sans-Serif" font-size="10.00">PK_PoNETKbd48CNCUpdateCycle</text>
<text text-anchor="middle" x="93.5" y="-7.5" font-family="Helvetica,sans-Serif" font-size="10.00">Async</text>
</a>
</g>
</g>
<!-- Node1&#45;&gt;Node3 -->
<g id="edge2" class="edge">
<title>Node1&#45;&gt;Node3</title>
<path fill="none" stroke="midnightblue" d="M214.86,-28.84C204.54,-27.7 194.07,-26.54 183.83,-25.4"/>
<polygon fill="midnightblue" stroke="midnightblue" points="214.8,-32.36 225.12,-29.98 215.57,-25.4 214.8,-32.36"/>
</g>
</g>
</svg>
