<?xml version="1.0" encoding="UTF-8" standalone="no"?>
<!DOCTYPE svg PUBLIC "-//W3C//DTD SVG 1.1//EN"
 "http://www.w3.org/Graphics/SVG/1.1/DTD/svg11.dtd">
<!-- Generated by graphviz version 2.43.0 (0)
 -->
<!-- Title: CleanDevice Pages: 1 -->
<svg width="301pt" height="104pt"
 viewBox="0.00 0.00 301.00 104.00" xmlns="http://www.w3.org/2000/svg" xmlns:xlink="http://www.w3.org/1999/xlink">
<g id="graph0" class="graph" transform="scale(1 1) rotate(0) translate(4 100)">
<title>CleanDevice</title>
<polygon fill="white" stroke="transparent" points="-4,4 -4,-100 297,-100 297,4 -4,4"/>
<!-- Node1 -->
<g id="node1" class="node">
<title>Node1</title>
<g id="a_node1"><a xlink:title=" ">
<polygon fill="#bfbfbf" stroke="black" points="215,-38.5 215,-57.5 293,-57.5 293,-38.5 215,-38.5"/>
<text text-anchor="middle" x="254" y="-45.5" font-family="Helvetica,sans-Serif" font-size="10.00">CleanDevice</text>
</a>
</g>
</g>
<!-- Node2 -->
<g id="node2" class="node">
<title>Node2</title>
<g id="a_node2"><a xlink:href="pokeysHal_2pokeyslib_2PoKeysLibCore_8c.html#ae21a3349787cf1f1150186e4858397e6" target="_top" xlink:title=" ">
<polygon fill="white" stroke="black" points="0,-76.5 0,-95.5 179,-95.5 179,-76.5 0,-76.5"/>
<text text-anchor="middle" x="89.5" y="-83.5" font-family="Helvetica,sans-Serif" font-size="10.00">PK_ConnectToPoKeysDevice_USB</text>
</a>
</g>
</g>
<!-- Node1&#45;&gt;Node2 -->
<g id="edge1" class="edge">
<title>Node1&#45;&gt;Node2</title>
<path fill="none" stroke="midnightblue" d="M207.08,-60.09C197.8,-62.45 188.1,-64.86 179,-67 165.23,-70.24 150.21,-73.55 136.51,-76.49"/>
<polygon fill="midnightblue" stroke="midnightblue" points="208.12,-63.44 216.94,-57.57 206.38,-56.66 208.12,-63.44"/>
</g>
<!-- Node3 -->
<g id="node3" class="node">
<title>Node3</title>
<g id="a_node3"><a xlink:href="pokeysHal_2pokeyslib_2PoKeysLibCore_8c.html#a5048159684edb84a2da9f20e358507fc" target="_top" xlink:title=" ">
<polygon fill="white" stroke="black" points="28.5,-38.5 28.5,-57.5 150.5,-57.5 150.5,-38.5 28.5,-38.5"/>
<text text-anchor="middle" x="89.5" y="-45.5" font-family="Helvetica,sans-Serif" font-size="10.00">PK_DisconnectDevice</text>
</a>
</g>
</g>
<!-- Node1&#45;&gt;Node3 -->
<g id="edge2" class="edge">
<title>Node1&#45;&gt;Node3</title>
<path fill="none" stroke="midnightblue" d="M204.67,-48C187.7,-48 168.43,-48 150.62,-48"/>
<polygon fill="midnightblue" stroke="midnightblue" points="204.9,-51.5 214.9,-48 204.9,-44.5 204.9,-51.5"/>
</g>
<!-- Node4 -->
<g id="node4" class="node">
<title>Node4</title>
<g id="a_node4"><a xlink:href="pokeysHal_2pokeyslib_2PoKeysLibCore_8c.html#a47e46a99ac2e54f73275757e3da37c09" target="_top" xlink:title=" ">
<polygon fill="white" stroke="black" points="13.5,-0.5 13.5,-19.5 165.5,-19.5 165.5,-0.5 13.5,-0.5"/>
<text text-anchor="middle" x="89.5" y="-7.5" font-family="Helvetica,sans-Serif" font-size="10.00">PK_ReleaseDeviceStructure</text>
</a>
</g>
</g>
<!-- Node1&#45;&gt;Node4 -->
<g id="edge3" class="edge">
<title>Node1&#45;&gt;Node4</title>
<path fill="none" stroke="midnightblue" d="M207.08,-35.91C197.8,-33.55 188.1,-31.14 179,-29 165.23,-25.76 150.21,-22.45 136.51,-19.51"/>
<polygon fill="midnightblue" stroke="midnightblue" points="206.38,-39.34 216.94,-38.43 208.12,-32.56 206.38,-39.34"/>
</g>
</g>
</svg>
