<?xml version="1.0" encoding="UTF-8" standalone="no"?>
<!DOCTYPE svg PUBLIC "-//W3C//DTD SVG 1.1//EN"
 "http://www.w3.org/Graphics/SVG/1.1/DTD/svg11.dtd">
<!-- Generated by graphviz version 2.43.0 (0)
 -->
<!-- Title: /home/cnc/actions&#45;runner/_work/LinuxCnc_PokeysLibComp/LinuxCnc_PokeysLibComp/external/pokeysHal/pokeyslib/PoKeysLibDeviceData.c Pages: 1 -->
<svg width="318pt" height="229pt"
 viewBox="0.00 0.00 317.50 229.00" xmlns="http://www.w3.org/2000/svg" xmlns:xlink="http://www.w3.org/1999/xlink">
<g id="graph0" class="graph" transform="scale(1 1) rotate(0) translate(4 225)">
<title>/home/cnc/actions&#45;runner/_work/LinuxCnc_PokeysLibComp/LinuxCnc_PokeysLibComp/external/pokeysHal/pokeyslib/PoKeysLibDeviceData.c</title>
<polygon fill="white" stroke="transparent" points="-4,4 -4,-225 313.5,-225 313.5,4 -4,4"/>
<!-- Node1 -->
<g id="node1" class="node">
<title>Node1</title>
<g id="a_node1"><a xlink:title=" ">
<polygon fill="#bfbfbf" stroke="black" points="0.5,-168.5 0.5,-220.5 238.5,-220.5 238.5,-168.5 0.5,-168.5"/>
<text text-anchor="start" x="8.5" y="-208.5" font-family="Helvetica,sans-Serif" font-size="10.00">/home/cnc/actions&#45;runner</text>
<text text-anchor="start" x="8.5" y="-197.5" font-family="Helvetica,sans-Serif" font-size="10.00">/_work/LinuxCnc_PokeysLibComp</text>
<text text-anchor="start" x="8.5" y="-186.5" font-family="Helvetica,sans-Serif" font-size="10.00">/LinuxCnc_PokeysLibComp/external</text>
<text text-anchor="middle" x="119.5" y="-175.5" font-family="Helvetica,sans-Serif" font-size="10.00">/pokeysHal/pokeyslib/PoKeysLibDeviceData.c</text>
</a>
</g>
</g>
<!-- Node2 -->
<g id="node2" class="node">
<title>Node2</title>
<g id="a_node2"><a xlink:title=" ">
<polygon fill="white" stroke="#bfbfbf" points="0,-112.5 0,-131.5 53,-131.5 53,-112.5 0,-112.5"/>
<text text-anchor="middle" x="26.5" y="-119.5" font-family="Helvetica,sans-Serif" font-size="10.00">stdlib.h</text>
</a>
</g>
</g>
<!-- Node1&#45;&gt;Node2 -->
<g id="edge1" class="edge">
<title>Node1&#45;&gt;Node2</title>
<path fill="none" stroke="midnightblue" d="M86.45,-168.45C72.97,-158.23 57.84,-146.76 46.15,-137.9"/>
<polygon fill="midnightblue" stroke="midnightblue" points="48.05,-134.95 37.97,-131.7 43.83,-140.53 48.05,-134.95"/>
</g>
<!-- Node3 -->
<g id="node3" class="node">
<title>Node3</title>
<g id="a_node3"><a xlink:href="pokeysHal_2pokeyslib_2PoKeysLib_8h.html" target="_top" xlink:title=" ">
<polygon fill="white" stroke="black" points="21,-56.5 21,-75.5 96,-75.5 96,-56.5 21,-56.5"/>
<text text-anchor="middle" x="58.5" y="-63.5" font-family="Helvetica,sans-Serif" font-size="10.00">PoKeysLib.h</text>
</a>
</g>
</g>
<!-- Node1&#45;&gt;Node3 -->
<g id="edge2" class="edge">
<title>Node1&#45;&gt;Node3</title>
<path fill="none" stroke="midnightblue" d="M107.3,-168.2C95.36,-143.43 77.47,-106.33 66.99,-84.61"/>
<polygon fill="midnightblue" stroke="midnightblue" points="70.12,-83.04 62.62,-75.55 63.81,-86.08 70.12,-83.04"/>
</g>
<!-- Node5 -->
<g id="node5" class="node">
<title>Node5</title>
<g id="a_node5"><a xlink:href="pokeysHal_2pokeyslib_2PoKeysLibCore_8h.html" target="_top" xlink:title=" ">
<polygon fill="white" stroke="black" points="109.5,-112.5 109.5,-131.5 207.5,-131.5 207.5,-112.5 109.5,-112.5"/>
<text text-anchor="middle" x="158.5" y="-119.5" font-family="Helvetica,sans-Serif" font-size="10.00">PoKeysLibCore.h</text>
</a>
</g>
</g>
<!-- Node1&#45;&gt;Node5 -->
<g id="edge4" class="edge">
<title>Node1&#45;&gt;Node5</title>
<path fill="none" stroke="midnightblue" d="M133.36,-168.45C138.46,-159.23 144.12,-149 148.78,-140.58"/>
<polygon fill="midnightblue" stroke="midnightblue" points="151.91,-142.14 153.69,-131.7 145.79,-138.75 151.91,-142.14"/>
</g>
<!-- Node8 -->
<g id="node8" class="node">
<title>Node8</title>
<g id="a_node8"><a xlink:title=" ">
<polygon fill="white" stroke="#bfbfbf" points="259.5,-56.5 259.5,-75.5 309.5,-75.5 309.5,-56.5 259.5,-56.5"/>
<text text-anchor="middle" x="284.5" y="-63.5" font-family="Helvetica,sans-Serif" font-size="10.00">stdio.h</text>
</a>
</g>
</g>
<!-- Node1&#45;&gt;Node8 -->
<g id="edge10" class="edge">
<title>Node1&#45;&gt;Node8</title>
<path fill="none" stroke="midnightblue" d="M163.24,-168.32C180.36,-157.81 199.85,-145.02 216.5,-132 236.07,-116.69 256.39,-96.62 269.67,-82.85"/>
<polygon fill="midnightblue" stroke="midnightblue" points="272.25,-85.22 276.61,-75.56 267.18,-80.39 272.25,-85.22"/>
</g>
<!-- Node4 -->
<g id="node4" class="node">
<title>Node4</title>
<g id="a_node4"><a xlink:title=" ">
<polygon fill="white" stroke="#bfbfbf" points="32,-0.5 32,-19.5 85,-19.5 85,-0.5 32,-0.5"/>
<text text-anchor="middle" x="58.5" y="-7.5" font-family="Helvetica,sans-Serif" font-size="10.00">stdint.h</text>
</a>
</g>
</g>
<!-- Node3&#45;&gt;Node4 -->
<g id="edge3" class="edge">
<title>Node3&#45;&gt;Node4</title>
<path fill="none" stroke="midnightblue" d="M58.5,-56.08C58.5,-49.01 58.5,-38.86 58.5,-29.99"/>
<polygon fill="midnightblue" stroke="midnightblue" points="62,-29.75 58.5,-19.75 55,-29.75 62,-29.75"/>
</g>
<!-- Node5&#45;&gt;Node3 -->
<g id="edge9" class="edge">
<title>Node5&#45;&gt;Node3</title>
<path fill="none" stroke="midnightblue" d="M142.43,-112.32C126.54,-103.74 101.99,-90.49 83.54,-80.52"/>
<polygon fill="midnightblue" stroke="midnightblue" points="84.99,-77.33 74.53,-75.65 81.66,-83.49 84.99,-77.33"/>
</g>
<!-- Node6 -->
<g id="node6" class="node">
<title>Node6</title>
<g id="a_node6"><a xlink:href="pokeysHal_2pokeyslib_2hidapi_8h.html" target="_top" xlink:title=" ">
<polygon fill="white" stroke="black" points="113.5,-56.5 113.5,-75.5 169.5,-75.5 169.5,-56.5 113.5,-56.5"/>
<text text-anchor="middle" x="141.5" y="-63.5" font-family="Helvetica,sans-Serif" font-size="10.00">hidapi.h</text>
</a>
</g>
</g>
<!-- Node5&#45;&gt;Node6 -->
<g id="edge5" class="edge">
<title>Node5&#45;&gt;Node6</title>
<path fill="none" stroke="midnightblue" d="M155.69,-112.08C153.42,-104.85 150.13,-94.41 147.29,-85.4"/>
<polygon fill="midnightblue" stroke="midnightblue" points="150.6,-84.24 144.25,-75.75 143.92,-86.34 150.6,-84.24"/>
</g>
<!-- Node5&#45;&gt;Node8 -->
<g id="edge7" class="edge">
<title>Node5&#45;&gt;Node8</title>
<path fill="none" stroke="midnightblue" d="M178.47,-112.44C199.11,-103.6 231.56,-89.69 255.13,-79.59"/>
<polygon fill="midnightblue" stroke="midnightblue" points="256.82,-82.67 264.63,-75.52 254.06,-76.24 256.82,-82.67"/>
</g>
<!-- Node9 -->
<g id="node9" class="node">
<title>Node9</title>
<g id="a_node9"><a xlink:title=" ">
<polygon fill="white" stroke="#bfbfbf" points="188,-56.5 188,-75.5 241,-75.5 241,-56.5 188,-56.5"/>
<text text-anchor="middle" x="214.5" y="-63.5" font-family="Helvetica,sans-Serif" font-size="10.00">string.h</text>
</a>
</g>
</g>
<!-- Node5&#45;&gt;Node9 -->
<g id="edge8" class="edge">
<title>Node5&#45;&gt;Node9</title>
<path fill="none" stroke="midnightblue" d="M167.5,-112.32C175.69,-104.42 188.01,-92.55 197.97,-82.94"/>
<polygon fill="midnightblue" stroke="midnightblue" points="200.57,-85.29 205.34,-75.83 195.71,-80.26 200.57,-85.29"/>
</g>
<!-- Node7 -->
<g id="node7" class="node">
<title>Node7</title>
<g id="a_node7"><a xlink:title=" ">
<polygon fill="white" stroke="#bfbfbf" points="114.5,-0.5 114.5,-19.5 168.5,-19.5 168.5,-0.5 114.5,-0.5"/>
<text text-anchor="middle" x="141.5" y="-7.5" font-family="Helvetica,sans-Serif" font-size="10.00">wchar.h</text>
</a>
</g>
</g>
<!-- Node6&#45;&gt;Node7 -->
<g id="edge6" class="edge">
<title>Node6&#45;&gt;Node7</title>
<path fill="none" stroke="midnightblue" d="M141.5,-56.08C141.5,-49.01 141.5,-38.86 141.5,-29.99"/>
<polygon fill="midnightblue" stroke="midnightblue" points="145,-29.75 141.5,-19.75 138,-29.75 145,-29.75"/>
</g>
</g>
</svg>
