<?xml version="1.0" encoding="UTF-8" standalone="no"?>
<!DOCTYPE svg PUBLIC "-//W3C//DTD SVG 1.1//EN"
 "http://www.w3.org/Graphics/SVG/1.1/DTD/svg11.dtd">
<!-- Generated by graphviz version 2.43.0 (0)
 -->
<!-- Title: PK_PWMUpdateAsync Pages: 1 -->
<svg width="330pt" height="104pt"
 viewBox="0.00 0.00 330.00 104.00" xmlns="http://www.w3.org/2000/svg" xmlns:xlink="http://www.w3.org/1999/xlink">
<g id="graph0" class="graph" transform="scale(1 1) rotate(0) translate(4 100)">
<title>PK_PWMUpdateAsync</title>
<polygon fill="white" stroke="transparent" points="-4,4 -4,-100 326,-100 326,4 -4,4"/>
<!-- Node1 -->
<g id="node1" class="node">
<title>Node1</title>
<g id="a_node1"><a xlink:title="Update PWM duty cycles (async)">
<polygon fill="#bfbfbf" stroke="black" points="198,-38.5 198,-57.5 322,-57.5 322,-38.5 198,-38.5"/>
<text text-anchor="middle" x="260" y="-45.5" font-family="Helvetica,sans-Serif" font-size="10.00">PK_PWMUpdateAsync</text>
</a>
</g>
</g>
<!-- Node2 -->
<g id="node2" class="node">
<title>Node2</title>
<g id="a_node2"><a xlink:href="PoKeysLibAdvancedRTAsync_8c.html#a4ed1a6fbf44221a75d100efbb8f41ca4" target="_top" xlink:title="Emergency stop all motion and outputs (async)">
<polygon fill="white" stroke="black" points="4.5,-76.5 4.5,-95.5 157.5,-95.5 157.5,-76.5 4.5,-76.5"/>
<text text-anchor="middle" x="81" y="-83.5" font-family="Helvetica,sans-Serif" font-size="10.00">PK_EmergencyStopAllAsync</text>
</a>
</g>
</g>
<!-- Node1&#45;&gt;Node2 -->
<g id="edge1" class="edge">
<title>Node1&#45;&gt;Node2</title>
<path fill="none" stroke="midnightblue" d="M204.26,-59.75C179.23,-65.13 149.97,-71.41 126.34,-76.48"/>
<polygon fill="midnightblue" stroke="midnightblue" points="205.29,-63.11 214.34,-57.59 203.82,-56.27 205.29,-63.11"/>
</g>
<!-- Node3 -->
<g id="node3" class="node">
<title>Node3</title>
<g id="a_node3"><a xlink:href="PoKeysLibAdvancedRTAsync_8c.html#a62f34b5fbad7130f28b4ee32263ee6c7" target="_top" xlink:title="Perform complete IO update cycle (async)">
<polygon fill="white" stroke="black" points="12.5,-38.5 12.5,-57.5 149.5,-57.5 149.5,-38.5 12.5,-38.5"/>
<text text-anchor="middle" x="81" y="-45.5" font-family="Helvetica,sans-Serif" font-size="10.00">PK_IOUpdateCycleAsync</text>
</a>
</g>
</g>
<!-- Node1&#45;&gt;Node3 -->
<g id="edge2" class="edge">
<title>Node1&#45;&gt;Node3</title>
<path fill="none" stroke="midnightblue" d="M187.28,-48C174.85,-48 161.97,-48 149.65,-48"/>
<polygon fill="midnightblue" stroke="midnightblue" points="187.59,-51.5 197.59,-48 187.59,-44.5 187.59,-51.5"/>
</g>
<!-- Node4 -->
<g id="node4" class="node">
<title>Node4</title>
<g id="a_node4"><a xlink:href="PoKeysLibPWMAsync_8c.html#a1e7c6675ce5072a1baa6723f67b0b428" target="_top" xlink:title="Update PWM duty cycles directly (async)">
<polygon fill="white" stroke="black" points="0,-0.5 0,-19.5 162,-19.5 162,-0.5 0,-0.5"/>
<text text-anchor="middle" x="81" y="-7.5" font-family="Helvetica,sans-Serif" font-size="10.00">PK_PWMUpdateDirectlyAsync</text>
</a>
</g>
</g>
<!-- Node1&#45;&gt;Node4 -->
<g id="edge3" class="edge">
<title>Node1&#45;&gt;Node4</title>
<path fill="none" stroke="midnightblue" d="M204.26,-36.25C179.23,-30.87 149.97,-24.59 126.34,-19.52"/>
<polygon fill="midnightblue" stroke="midnightblue" points="203.82,-39.73 214.34,-38.41 205.29,-32.89 203.82,-39.73"/>
</g>
</g>
</svg>
