<?xml version="1.0" encoding="UTF-8" standalone="no"?>
<!DOCTYPE svg PUBLIC "-//W3C//DTD SVG 1.1//EN"
 "http://www.w3.org/Graphics/SVG/1.1/DTD/svg11.dtd">
<!-- Generated by graphviz version 2.43.0 (0)
 -->
<!-- Title: PK_I2CBusScanGetResults Pages: 1 -->
<svg width="548pt" height="142pt"
 viewBox="0.00 0.00 548.00 142.00" xmlns="http://www.w3.org/2000/svg" xmlns:xlink="http://www.w3.org/1999/xlink">
<g id="graph0" class="graph" transform="scale(1 1) rotate(0) translate(4 138)">
<title>PK_I2CBusScanGetResults</title>
<polygon fill="white" stroke="transparent" points="-4,4 -4,-138 544,-138 544,4 -4,4"/>
<!-- Node1 -->
<g id="node1" class="node">
<title>Node1</title>
<g id="a_node1"><a xlink:title=" ">
<polygon fill="#bfbfbf" stroke="black" points="0,-76.5 0,-95.5 145,-95.5 145,-76.5 0,-76.5"/>
<text text-anchor="middle" x="72.5" y="-83.5" font-family="Helvetica,sans-Serif" font-size="10.00">PK_I2CBusScanGetResults</text>
</a>
</g>
</g>
<!-- Node2 -->
<g id="node2" class="node">
<title>Node2</title>
<g id="a_node2"><a xlink:href="pokeyslib_2PoKeysLibCore_8c.html#acb1fdd8f77277dc66c4d037218bfcece" target="_top" xlink:title=" ">
<polygon fill="white" stroke="black" points="181,-95.5 181,-114.5 270,-114.5 270,-95.5 181,-95.5"/>
<text text-anchor="middle" x="225.5" y="-102.5" font-family="Helvetica,sans-Serif" font-size="10.00">CreateRequest</text>
</a>
</g>
</g>
<!-- Node1&#45;&gt;Node2 -->
<g id="edge1" class="edge">
<title>Node1&#45;&gt;Node2</title>
<path fill="none" stroke="midnightblue" d="M145.02,-95C153.69,-96.09 162.43,-97.19 170.78,-98.24"/>
<polygon fill="midnightblue" stroke="midnightblue" points="170.39,-101.72 180.75,-99.49 171.26,-94.77 170.39,-101.72"/>
</g>
<!-- Node3 -->
<g id="node3" class="node">
<title>Node3</title>
<g id="a_node3"><a xlink:href="pokeyslib_2PoKeysLibCore_8c.html#ab5d92aa36d0a4a6953a055f5cd960aff" target="_top" xlink:title=" ">
<polygon fill="white" stroke="black" points="185.5,-57.5 185.5,-76.5 265.5,-76.5 265.5,-57.5 185.5,-57.5"/>
<text text-anchor="middle" x="225.5" y="-64.5" font-family="Helvetica,sans-Serif" font-size="10.00">SendRequest</text>
</a>
</g>
</g>
<!-- Node1&#45;&gt;Node3 -->
<g id="edge2" class="edge">
<title>Node1&#45;&gt;Node3</title>
<path fill="none" stroke="midnightblue" d="M145.02,-77C155.21,-75.72 165.49,-74.42 175.13,-73.21"/>
<polygon fill="midnightblue" stroke="midnightblue" points="175.81,-76.65 185.3,-71.93 174.94,-69.71 175.81,-76.65"/>
</g>
<!-- Node4 -->
<g id="node4" class="node">
<title>Node4</title>
<g id="a_node4"><a xlink:href="pokeyslib_2PoKeysLibCore_8c.html#a273b6d635dea8f559b915cdb289d021e" target="_top" xlink:title=" ">
<polygon fill="white" stroke="black" points="447.5,-38.5 447.5,-57.5 530.5,-57.5 530.5,-38.5 447.5,-38.5"/>
<text text-anchor="middle" x="489" y="-45.5" font-family="Helvetica,sans-Serif" font-size="10.00">getChecksum</text>
</a>
</g>
</g>
<!-- Node3&#45;&gt;Node4 -->
<g id="edge3" class="edge">
<title>Node3&#45;&gt;Node4</title>
<path fill="none" stroke="midnightblue" d="M265.67,-69.42C301.32,-71.06 355.36,-72.09 402,-67 415.57,-65.52 430.13,-62.76 443.34,-59.8"/>
<polygon fill="midnightblue" stroke="midnightblue" points="444.2,-63.19 453.14,-57.51 442.61,-56.37 444.2,-63.19"/>
</g>
<!-- Node5 -->
<g id="node5" class="node">
<title>Node5</title>
<g id="a_node5"><a xlink:href="group__API.html#ga6b820f3e72097cf7f994e33715dc7af1" target="_top" xlink:title="Read an Input report from a HID device.">
<polygon fill="white" stroke="black" points="324.5,-114.5 324.5,-133.5 383.5,-133.5 383.5,-114.5 324.5,-114.5"/>
<text text-anchor="middle" x="354" y="-121.5" font-family="Helvetica,sans-Serif" font-size="10.00">hid_read</text>
</a>
</g>
</g>
<!-- Node3&#45;&gt;Node5 -->
<g id="edge4" class="edge">
<title>Node3&#45;&gt;Node5</title>
<path fill="none" stroke="midnightblue" d="M248.66,-76.59C255.51,-79.58 263.08,-82.9 270,-86 287.61,-93.88 307.24,-102.86 322.99,-110.11"/>
<polygon fill="midnightblue" stroke="midnightblue" points="321.69,-113.36 332.24,-114.37 324.62,-107.01 321.69,-113.36"/>
</g>
<!-- Node7 -->
<g id="node7" class="node">
<title>Node7</title>
<g id="a_node7"><a xlink:href="group__API.html#gad14ea48e440cf5066df87cc6488493af" target="_top" xlink:title="Write an Output report to a HID device.">
<polygon fill="white" stroke="black" points="323,-38.5 323,-57.5 385,-57.5 385,-38.5 323,-38.5"/>
<text text-anchor="middle" x="354" y="-45.5" font-family="Helvetica,sans-Serif" font-size="10.00">hid_write</text>
</a>
</g>
</g>
<!-- Node3&#45;&gt;Node7 -->
<g id="edge6" class="edge">
<title>Node3&#45;&gt;Node7</title>
<path fill="none" stroke="midnightblue" d="M265.83,-61.09C280.8,-58.84 297.86,-56.28 312.9,-54.02"/>
<polygon fill="midnightblue" stroke="midnightblue" points="313.57,-57.46 322.94,-52.52 312.53,-50.54 313.57,-57.46"/>
</g>
<!-- Node8 -->
<g id="node8" class="node">
<title>Node8</title>
<g id="a_node8"><a xlink:href="pokeyslib_2PoKeysLibCoreSockets_8c.html#a22759fb4024c9081af26ac1bc6541b47" target="_top" xlink:title=" ">
<polygon fill="white" stroke="black" points="306,-0.5 306,-19.5 402,-19.5 402,-0.5 306,-0.5"/>
<text text-anchor="middle" x="354" y="-7.5" font-family="Helvetica,sans-Serif" font-size="10.00">SendEthRequest</text>
</a>
</g>
</g>
<!-- Node3&#45;&gt;Node8 -->
<g id="edge7" class="edge">
<title>Node3&#45;&gt;Node8</title>
<path fill="none" stroke="midnightblue" d="M245.62,-57.45C261.63,-49.56 285.14,-38.19 306,-29 310.19,-27.15 314.62,-25.27 319.02,-23.45"/>
<polygon fill="midnightblue" stroke="midnightblue" points="320.55,-26.6 328.49,-19.58 317.91,-20.12 320.55,-26.6"/>
</g>
<!-- Node6 -->
<g id="node6" class="node">
<title>Node6</title>
<g id="a_node6"><a xlink:href="group__API.html#gaa5c9ed5aa290688ffac03343989ad75a" target="_top" xlink:title="Read an Input report from a HID device with timeout.">
<polygon fill="white" stroke="black" points="438,-114.5 438,-133.5 540,-133.5 540,-114.5 438,-114.5"/>
<text text-anchor="middle" x="489" y="-121.5" font-family="Helvetica,sans-Serif" font-size="10.00">hid_read_timeout</text>
</a>
</g>
</g>
<!-- Node5&#45;&gt;Node6 -->
<g id="edge5" class="edge">
<title>Node5&#45;&gt;Node6</title>
<path fill="none" stroke="midnightblue" d="M383.53,-124C396.49,-124 412.35,-124 427.75,-124"/>
<polygon fill="midnightblue" stroke="midnightblue" points="427.77,-127.5 437.77,-124 427.77,-120.5 427.77,-127.5"/>
</g>
<!-- Node8&#45;&gt;Node4 -->
<g id="edge8" class="edge">
<title>Node8&#45;&gt;Node4</title>
<path fill="none" stroke="midnightblue" d="M388.56,-19.59C405.57,-24.45 426.43,-30.41 444.64,-35.61"/>
<polygon fill="midnightblue" stroke="midnightblue" points="443.87,-39.03 454.45,-38.41 445.8,-32.3 443.87,-39.03"/>
</g>
</g>
</svg>
