<?xml version="1.0" encoding="UTF-8" standalone="no"?>
<!DOCTYPE svg PUBLIC "-//W3C//DTD SVG 1.1//EN"
 "http://www.w3.org/Graphics/SVG/1.1/DTD/svg11.dtd">
<!-- Generated by graphviz version 2.43.0 (0)
 -->
<!-- Title: Config_MatrixKB Pages: 1 -->
<svg width="699pt" height="142pt"
 viewBox="0.00 0.00 699.00 142.00" xmlns="http://www.w3.org/2000/svg" xmlns:xlink="http://www.w3.org/1999/xlink">
<g id="graph0" class="graph" transform="scale(1 1) rotate(0) translate(4 138)">
<title>Config_MatrixKB</title>
<polygon fill="white" stroke="transparent" points="-4,4 -4,-138 695,-138 695,4 -4,4"/>
<!-- Node1 -->
<g id="node1" class="node">
<title>Node1</title>
<g id="a_node1"><a xlink:title="Config_MatrixKB.">
<polygon fill="#bfbfbf" stroke="black" points="0,-76.5 0,-95.5 98,-95.5 98,-76.5 0,-76.5"/>
<text text-anchor="middle" x="49" y="-83.5" font-family="Helvetica,sans-Serif" font-size="10.00">Config_MatrixKB</text>
</a>
</g>
</g>
<!-- Node2 -->
<g id="node2" class="node">
<title>Node2</title>
<g id="a_node2"><a xlink:href="pokeysHal_2PoKeysLibMatrixKB_8c.html#a5937317aa0d3a831ea2051dccd4a9efe" target="_top" xlink:title=" ">
<polygon fill="white" stroke="black" points="134,-76.5 134,-95.5 296,-95.5 296,-76.5 134,-76.5"/>
<text text-anchor="middle" x="215" y="-83.5" font-family="Helvetica,sans-Serif" font-size="10.00">PK_MatrixKBConfigurationGet</text>
</a>
</g>
</g>
<!-- Node1&#45;&gt;Node2 -->
<g id="edge1" class="edge">
<title>Node1&#45;&gt;Node2</title>
<path fill="none" stroke="midnightblue" d="M98.32,-86C106.33,-86 114.86,-86 123.53,-86"/>
<polygon fill="midnightblue" stroke="midnightblue" points="123.73,-89.5 133.73,-86 123.73,-82.5 123.73,-89.5"/>
</g>
<!-- Node3 -->
<g id="node3" class="node">
<title>Node3</title>
<g id="a_node3"><a xlink:href="pokeyslib_2PoKeysLibCore_8c.html#acb1fdd8f77277dc66c4d037218bfcece" target="_top" xlink:title=" ">
<polygon fill="white" stroke="black" points="332,-95.5 332,-114.5 421,-114.5 421,-95.5 332,-95.5"/>
<text text-anchor="middle" x="376.5" y="-102.5" font-family="Helvetica,sans-Serif" font-size="10.00">CreateRequest</text>
</a>
</g>
</g>
<!-- Node2&#45;&gt;Node3 -->
<g id="edge2" class="edge">
<title>Node2&#45;&gt;Node3</title>
<path fill="none" stroke="midnightblue" d="M296.22,-95.56C304.84,-96.58 313.45,-97.61 321.65,-98.58"/>
<polygon fill="midnightblue" stroke="midnightblue" points="321.44,-102.09 331.79,-99.79 322.27,-95.13 321.44,-102.09"/>
</g>
<!-- Node4 -->
<g id="node4" class="node">
<title>Node4</title>
<g id="a_node4"><a xlink:href="pokeyslib_2PoKeysLibCore_8c.html#ab5d92aa36d0a4a6953a055f5cd960aff" target="_top" xlink:title=" ">
<polygon fill="white" stroke="black" points="336.5,-57.5 336.5,-76.5 416.5,-76.5 416.5,-57.5 336.5,-57.5"/>
<text text-anchor="middle" x="376.5" y="-64.5" font-family="Helvetica,sans-Serif" font-size="10.00">SendRequest</text>
</a>
</g>
</g>
<!-- Node2&#45;&gt;Node4 -->
<g id="edge3" class="edge">
<title>Node2&#45;&gt;Node4</title>
<path fill="none" stroke="midnightblue" d="M296.22,-76.44C306.47,-75.22 316.72,-74 326.27,-72.86"/>
<polygon fill="midnightblue" stroke="midnightblue" points="326.82,-76.32 336.34,-71.67 325.99,-69.37 326.82,-76.32"/>
</g>
<!-- Node5 -->
<g id="node5" class="node">
<title>Node5</title>
<g id="a_node5"><a xlink:href="pokeyslib_2PoKeysLibCore_8c.html#a273b6d635dea8f559b915cdb289d021e" target="_top" xlink:title=" ">
<polygon fill="white" stroke="black" points="598.5,-38.5 598.5,-57.5 681.5,-57.5 681.5,-38.5 598.5,-38.5"/>
<text text-anchor="middle" x="640" y="-45.5" font-family="Helvetica,sans-Serif" font-size="10.00">getChecksum</text>
</a>
</g>
</g>
<!-- Node4&#45;&gt;Node5 -->
<g id="edge4" class="edge">
<title>Node4&#45;&gt;Node5</title>
<path fill="none" stroke="midnightblue" d="M416.67,-69.42C452.32,-71.06 506.36,-72.09 553,-67 566.57,-65.52 581.13,-62.76 594.34,-59.8"/>
<polygon fill="midnightblue" stroke="midnightblue" points="595.2,-63.19 604.14,-57.51 593.61,-56.37 595.2,-63.19"/>
</g>
<!-- Node6 -->
<g id="node6" class="node">
<title>Node6</title>
<g id="a_node6"><a xlink:href="group__API.html#ga6b820f3e72097cf7f994e33715dc7af1" target="_top" xlink:title="Read an Input report from a HID device.">
<polygon fill="white" stroke="black" points="475.5,-114.5 475.5,-133.5 534.5,-133.5 534.5,-114.5 475.5,-114.5"/>
<text text-anchor="middle" x="505" y="-121.5" font-family="Helvetica,sans-Serif" font-size="10.00">hid_read</text>
</a>
</g>
</g>
<!-- Node4&#45;&gt;Node6 -->
<g id="edge5" class="edge">
<title>Node4&#45;&gt;Node6</title>
<path fill="none" stroke="midnightblue" d="M399.66,-76.59C406.51,-79.58 414.08,-82.9 421,-86 438.61,-93.88 458.24,-102.86 473.99,-110.11"/>
<polygon fill="midnightblue" stroke="midnightblue" points="472.69,-113.36 483.24,-114.37 475.62,-107.01 472.69,-113.36"/>
</g>
<!-- Node8 -->
<g id="node8" class="node">
<title>Node8</title>
<g id="a_node8"><a xlink:href="group__API.html#gad14ea48e440cf5066df87cc6488493af" target="_top" xlink:title="Write an Output report to a HID device.">
<polygon fill="white" stroke="black" points="474,-38.5 474,-57.5 536,-57.5 536,-38.5 474,-38.5"/>
<text text-anchor="middle" x="505" y="-45.5" font-family="Helvetica,sans-Serif" font-size="10.00">hid_write</text>
</a>
</g>
</g>
<!-- Node4&#45;&gt;Node8 -->
<g id="edge7" class="edge">
<title>Node4&#45;&gt;Node8</title>
<path fill="none" stroke="midnightblue" d="M416.83,-61.09C431.8,-58.84 448.86,-56.28 463.9,-54.02"/>
<polygon fill="midnightblue" stroke="midnightblue" points="464.57,-57.46 473.94,-52.52 463.53,-50.54 464.57,-57.46"/>
</g>
<!-- Node9 -->
<g id="node9" class="node">
<title>Node9</title>
<g id="a_node9"><a xlink:href="pokeyslib_2PoKeysLibCoreSockets_8c.html#a22759fb4024c9081af26ac1bc6541b47" target="_top" xlink:title=" ">
<polygon fill="white" stroke="black" points="457,-0.5 457,-19.5 553,-19.5 553,-0.5 457,-0.5"/>
<text text-anchor="middle" x="505" y="-7.5" font-family="Helvetica,sans-Serif" font-size="10.00">SendEthRequest</text>
</a>
</g>
</g>
<!-- Node4&#45;&gt;Node9 -->
<g id="edge8" class="edge">
<title>Node4&#45;&gt;Node9</title>
<path fill="none" stroke="midnightblue" d="M396.62,-57.45C412.63,-49.56 436.14,-38.19 457,-29 461.19,-27.15 465.62,-25.27 470.02,-23.45"/>
<polygon fill="midnightblue" stroke="midnightblue" points="471.55,-26.6 479.49,-19.58 468.91,-20.12 471.55,-26.6"/>
</g>
<!-- Node7 -->
<g id="node7" class="node">
<title>Node7</title>
<g id="a_node7"><a xlink:href="group__API.html#gaa5c9ed5aa290688ffac03343989ad75a" target="_top" xlink:title="Read an Input report from a HID device with timeout.">
<polygon fill="white" stroke="black" points="589,-114.5 589,-133.5 691,-133.5 691,-114.5 589,-114.5"/>
<text text-anchor="middle" x="640" y="-121.5" font-family="Helvetica,sans-Serif" font-size="10.00">hid_read_timeout</text>
</a>
</g>
</g>
<!-- Node6&#45;&gt;Node7 -->
<g id="edge6" class="edge">
<title>Node6&#45;&gt;Node7</title>
<path fill="none" stroke="midnightblue" d="M534.53,-124C547.49,-124 563.35,-124 578.75,-124"/>
<polygon fill="midnightblue" stroke="midnightblue" points="578.77,-127.5 588.77,-124 578.77,-120.5 578.77,-127.5"/>
</g>
<!-- Node9&#45;&gt;Node5 -->
<g id="edge9" class="edge">
<title>Node9&#45;&gt;Node5</title>
<path fill="none" stroke="midnightblue" d="M539.56,-19.59C556.57,-24.45 577.43,-30.41 595.64,-35.61"/>
<polygon fill="midnightblue" stroke="midnightblue" points="594.87,-39.03 605.45,-38.41 596.8,-32.3 594.87,-39.03"/>
</g>
</g>
</svg>
