<?xml version="1.0" encoding="UTF-8" standalone="no"?>
<!DOCTYPE svg PUBLIC "-//W3C//DTD SVG 1.1//EN"
 "http://www.w3.org/Graphics/SVG/1.1/DTD/svg11.dtd">
<!-- Generated by graphviz version 2.43.0 (0)
 -->
<!-- Title: /home/cnc/actions&#45;runner/_work/LinuxCnc_PokeysLibComp/LinuxCnc_PokeysLibComp/external/pokeysHal/experimental/build/hidapi.h Pages: 1 -->
<svg width="5991pt" height="250pt"
 viewBox="0.00 0.00 5990.50 250.00" xmlns="http://www.w3.org/2000/svg" xmlns:xlink="http://www.w3.org/1999/xlink">
<g id="graph0" class="graph" transform="scale(1 1) rotate(0) translate(4 246)">
<title>/home/cnc/actions&#45;runner/_work/LinuxCnc_PokeysLibComp/LinuxCnc_PokeysLibComp/external/pokeysHal/experimental/build/hidapi.h</title>
<polygon fill="white" stroke="transparent" points="-4,4 -4,-246 5986.5,-246 5986.5,4 -4,4"/>
<!-- Node1 -->
<g id="node1" class="node">
<title>Node1</title>
<g id="a_node1"><a xlink:title=" ">
<polygon fill="#bfbfbf" stroke="black" points="3275.5,-189.5 3275.5,-241.5 3483.5,-241.5 3483.5,-189.5 3275.5,-189.5"/>
<text text-anchor="start" x="3283.5" y="-229.5" font-family="Helvetica,sans-Serif" font-size="10.00">/home/cnc/actions&#45;runner</text>
<text text-anchor="start" x="3283.5" y="-218.5" font-family="Helvetica,sans-Serif" font-size="10.00">/_work/LinuxCnc_PokeysLibComp</text>
<text text-anchor="start" x="3283.5" y="-207.5" font-family="Helvetica,sans-Serif" font-size="10.00">/LinuxCnc_PokeysLibComp/external</text>
<text text-anchor="middle" x="3379.5" y="-196.5" font-family="Helvetica,sans-Serif" font-size="10.00">/pokeysHal/experimental/build/hidapi.h</text>
</a>
</g>
</g>
<!-- Node2 -->
<g id="node2" class="node">
<title>Node2</title>
<g id="a_node2"><a xlink:href="pokeysHal_2experimental_2build_2PoKeysLibCore_8h.html" target="_top" xlink:title=" ">
<polygon fill="white" stroke="black" points="2879.5,-100.5 2879.5,-152.5 3129.5,-152.5 3129.5,-100.5 2879.5,-100.5"/>
<text text-anchor="start" x="2887.5" y="-140.5" font-family="Helvetica,sans-Serif" font-size="10.00">/home/cnc/actions&#45;runner</text>
<text text-anchor="start" x="2887.5" y="-129.5" font-family="Helvetica,sans-Serif" font-size="10.00">/_work/LinuxCnc_PokeysLibComp</text>
<text text-anchor="start" x="2887.5" y="-118.5" font-family="Helvetica,sans-Serif" font-size="10.00">/LinuxCnc_PokeysLibComp/external</text>
<text text-anchor="middle" x="3004.5" y="-107.5" font-family="Helvetica,sans-Serif" font-size="10.00">/pokeysHal/experimental/build/PoKeysLibCore.h</text>
</a>
</g>
</g>
<!-- Node1&#45;&gt;Node2 -->
<g id="edge1" class="edge">
<title>Node1&#45;&gt;Node2</title>
<path fill="none" stroke="midnightblue" d="M3265.11,-187.96C3216.52,-176.69 3160.16,-163.61 3112.31,-152.51"/>
<polygon fill="midnightblue" stroke="midnightblue" points="3264.51,-191.42 3275.04,-190.27 3266.09,-184.6 3264.51,-191.42"/>
</g>
<!-- Node25 -->
<g id="node25" class="node">
<title>Node25</title>
<g id="a_node25"><a xlink:href="pokeysHal_2experimental_2build_2hid-libusb_8c.html" target="_top" xlink:title=" ">
<polygon fill="white" stroke="black" points="3148,-100.5 3148,-152.5 3373,-152.5 3373,-100.5 3148,-100.5"/>
<text text-anchor="start" x="3156" y="-140.5" font-family="Helvetica,sans-Serif" font-size="10.00">/home/cnc/actions&#45;runner</text>
<text text-anchor="start" x="3156" y="-129.5" font-family="Helvetica,sans-Serif" font-size="10.00">/_work/LinuxCnc_PokeysLibComp</text>
<text text-anchor="start" x="3156" y="-118.5" font-family="Helvetica,sans-Serif" font-size="10.00">/LinuxCnc_PokeysLibComp/external</text>
<text text-anchor="middle" x="3260.5" y="-107.5" font-family="Helvetica,sans-Serif" font-size="10.00">/pokeysHal/experimental/build/hid&#45;libusb.c</text>
</a>
</g>
</g>
<!-- Node1&#45;&gt;Node25 -->
<g id="edge24" class="edge">
<title>Node1&#45;&gt;Node25</title>
<path fill="none" stroke="midnightblue" d="M3336.71,-183.22C3322.96,-173.16 3307.91,-162.16 3294.84,-152.61"/>
<polygon fill="midnightblue" stroke="midnightblue" points="3334.94,-186.26 3345.08,-189.34 3339.07,-180.61 3334.94,-186.26"/>
</g>
<!-- Node26 -->
<g id="node26" class="node">
<title>Node26</title>
<g id="a_node26"><a xlink:href="pokeysHal_2experimental_2build_2hid-mac_8c.html" target="_top" xlink:title=" ">
<polygon fill="white" stroke="black" points="3391,-100.5 3391,-152.5 3608,-152.5 3608,-100.5 3391,-100.5"/>
<text text-anchor="start" x="3399" y="-140.5" font-family="Helvetica,sans-Serif" font-size="10.00">/home/cnc/actions&#45;runner</text>
<text text-anchor="start" x="3399" y="-129.5" font-family="Helvetica,sans-Serif" font-size="10.00">/_work/LinuxCnc_PokeysLibComp</text>
<text text-anchor="start" x="3399" y="-118.5" font-family="Helvetica,sans-Serif" font-size="10.00">/LinuxCnc_PokeysLibComp/external</text>
<text text-anchor="middle" x="3499.5" y="-107.5" font-family="Helvetica,sans-Serif" font-size="10.00">/pokeysHal/experimental/build/hid&#45;mac.c</text>
</a>
</g>
</g>
<!-- Node1&#45;&gt;Node26 -->
<g id="edge25" class="edge">
<title>Node1&#45;&gt;Node26</title>
<path fill="none" stroke="midnightblue" d="M3422.65,-183.22C3436.52,-173.16 3451.69,-162.16 3464.87,-152.61"/>
<polygon fill="midnightblue" stroke="midnightblue" points="3420.25,-180.63 3414.21,-189.34 3424.36,-186.3 3420.25,-180.63"/>
</g>
<!-- Node27 -->
<g id="node27" class="node">
<title>Node27</title>
<g id="a_node27"><a xlink:href="pokeysHal_2experimental_2build_2hid_8c.html" target="_top" xlink:title=" ">
<polygon fill="white" stroke="black" points="3626.5,-100.5 3626.5,-152.5 3818.5,-152.5 3818.5,-100.5 3626.5,-100.5"/>
<text text-anchor="start" x="3634.5" y="-140.5" font-family="Helvetica,sans-Serif" font-size="10.00">/home/cnc/actions&#45;runner</text>
<text text-anchor="start" x="3634.5" y="-129.5" font-family="Helvetica,sans-Serif" font-size="10.00">/_work/LinuxCnc_PokeysLibComp</text>
<text text-anchor="start" x="3634.5" y="-118.5" font-family="Helvetica,sans-Serif" font-size="10.00">/LinuxCnc_PokeysLibComp/external</text>
<text text-anchor="middle" x="3722.5" y="-107.5" font-family="Helvetica,sans-Serif" font-size="10.00">/pokeysHal/experimental/build/hid.c</text>
</a>
</g>
</g>
<!-- Node1&#45;&gt;Node27 -->
<g id="edge26" class="edge">
<title>Node1&#45;&gt;Node27</title>
<path fill="none" stroke="midnightblue" d="M3488.18,-186.93C3532.49,-175.7 3583.28,-162.81 3626.22,-151.92"/>
<polygon fill="midnightblue" stroke="midnightblue" points="3487.08,-183.6 3478.25,-189.45 3488.8,-190.39 3487.08,-183.6"/>
</g>
<!-- Node3 -->
<g id="node3" class="node">
<title>Node3</title>
<g id="a_node3"><a xlink:href="pokeysHal_2experimental_2build_2PoKeysLib1Wire_8c.html" target="_top" xlink:title=" ">
<polygon fill="white" stroke="black" points="0,-6 0,-58 255,-58 255,-6 0,-6"/>
<text text-anchor="start" x="8" y="-46" font-family="Helvetica,sans-Serif" font-size="10.00">/home/cnc/actions&#45;runner</text>
<text text-anchor="start" x="8" y="-35" font-family="Helvetica,sans-Serif" font-size="10.00">/_work/LinuxCnc_PokeysLibComp</text>
<text text-anchor="start" x="8" y="-24" font-family="Helvetica,sans-Serif" font-size="10.00">/LinuxCnc_PokeysLibComp/external</text>
<text text-anchor="middle" x="127.5" y="-13" font-family="Helvetica,sans-Serif" font-size="10.00">/pokeysHal/experimental/build/PoKeysLib1Wire.c</text>
</a>
</g>
</g>
<!-- Node2&#45;&gt;Node3 -->
<g id="edge2" class="edge">
<title>Node2&#45;&gt;Node3</title>
<path fill="none" stroke="midnightblue" d="M2869.29,-126.04C2390.51,-127.41 777.07,-127.1 264.5,-64 252.4,-62.51 239.8,-60.42 227.35,-58.02"/>
<polygon fill="midnightblue" stroke="midnightblue" points="2869.37,-129.54 2879.35,-126.01 2869.34,-122.54 2869.37,-129.54"/>
</g>
<!-- Node4 -->
<g id="node4" class="node">
<title>Node4</title>
<g id="a_node4"><a xlink:href="pokeysHal_2experimental_2build_2PoKeysLibCAN_8c.html" target="_top" xlink:title=" ">
<polygon fill="white" stroke="black" points="273.5,-6 273.5,-58 521.5,-58 521.5,-6 273.5,-6"/>
<text text-anchor="start" x="281.5" y="-46" font-family="Helvetica,sans-Serif" font-size="10.00">/home/cnc/actions&#45;runner</text>
<text text-anchor="start" x="281.5" y="-35" font-family="Helvetica,sans-Serif" font-size="10.00">/_work/LinuxCnc_PokeysLibComp</text>
<text text-anchor="start" x="281.5" y="-24" font-family="Helvetica,sans-Serif" font-size="10.00">/LinuxCnc_PokeysLibComp/external</text>
<text text-anchor="middle" x="397.5" y="-13" font-family="Helvetica,sans-Serif" font-size="10.00">/pokeysHal/experimental/build/PoKeysLibCAN.c</text>
</a>
</g>
</g>
<!-- Node2&#45;&gt;Node4 -->
<g id="edge3" class="edge">
<title>Node2&#45;&gt;Node4</title>
<path fill="none" stroke="midnightblue" d="M2869.23,-125.77C2421.24,-126.1 988.49,-122.44 530.5,-64 518.86,-62.51 506.75,-60.44 494.78,-58.07"/>
<polygon fill="midnightblue" stroke="midnightblue" points="2869.31,-129.27 2879.31,-125.76 2869.3,-122.27 2869.31,-129.27"/>
</g>
<!-- Node5 -->
<g id="node5" class="node">
<title>Node5</title>
<g id="a_node5"><a xlink:href="pokeysHal_2experimental_2build_2PoKeysLibCore_8c.html" target="_top" xlink:title=" ">
<polygon fill="white" stroke="black" points="540,-6 540,-58 789,-58 789,-6 540,-6"/>
<text text-anchor="start" x="548" y="-46" font-family="Helvetica,sans-Serif" font-size="10.00">/home/cnc/actions&#45;runner</text>
<text text-anchor="start" x="548" y="-35" font-family="Helvetica,sans-Serif" font-size="10.00">/_work/LinuxCnc_PokeysLibComp</text>
<text text-anchor="start" x="548" y="-24" font-family="Helvetica,sans-Serif" font-size="10.00">/LinuxCnc_PokeysLibComp/external</text>
<text text-anchor="middle" x="664.5" y="-13" font-family="Helvetica,sans-Serif" font-size="10.00">/pokeysHal/experimental/build/PoKeysLibCore.c</text>
</a>
</g>
</g>
<!-- Node2&#45;&gt;Node5 -->
<g id="edge4" class="edge">
<title>Node2&#45;&gt;Node5</title>
<path fill="none" stroke="midnightblue" d="M2869.08,-125.29C2453.66,-124.09 1201.12,-116.12 797.5,-64 785.86,-62.5 773.75,-60.42 761.79,-58.04"/>
<polygon fill="midnightblue" stroke="midnightblue" points="2869.32,-128.79 2879.33,-125.32 2869.34,-121.79 2869.32,-128.79"/>
</g>
<!-- Node6 -->
<g id="node6" class="node">
<title>Node6</title>
<g id="a_node6"><a xlink:href="pokeysHal_2experimental_2build_2PoKeysLibCoreSockets_8c.html" target="_top" xlink:title=" ">
<polygon fill="white" stroke="black" points="807,-0.5 807,-63.5 1048,-63.5 1048,-0.5 807,-0.5"/>
<text text-anchor="start" x="815" y="-51.5" font-family="Helvetica,sans-Serif" font-size="10.00">/home/cnc/actions&#45;runner</text>
<text text-anchor="start" x="815" y="-40.5" font-family="Helvetica,sans-Serif" font-size="10.00">/_work/LinuxCnc_PokeysLibComp</text>
<text text-anchor="start" x="815" y="-29.5" font-family="Helvetica,sans-Serif" font-size="10.00">/LinuxCnc_PokeysLibComp/external</text>
<text text-anchor="start" x="815" y="-18.5" font-family="Helvetica,sans-Serif" font-size="10.00">/pokeysHal/experimental/build/PoKeysLibCore</text>
<text text-anchor="middle" x="927.5" y="-7.5" font-family="Helvetica,sans-Serif" font-size="10.00">Sockets.c</text>
</a>
</g>
</g>
<!-- Node2&#45;&gt;Node6 -->
<g id="edge5" class="edge">
<title>Node2&#45;&gt;Node6</title>
<path fill="none" stroke="midnightblue" d="M2869.01,-124.79C2487.36,-122.21 1408.37,-110.88 1057.5,-64 1054.4,-63.59 1051.26,-63.13 1048.1,-62.63"/>
<polygon fill="midnightblue" stroke="midnightblue" points="2869.25,-128.29 2879.28,-124.86 2869.3,-121.29 2869.25,-128.29"/>
</g>
<!-- Node7 -->
<g id="node7" class="node">
<title>Node7</title>
<g id="a_node7"><a xlink:href="pokeysHal_2experimental_2build_2PoKeysLibDeviceData_8c.html" target="_top" xlink:title=" ">
<polygon fill="white" stroke="black" points="1066.5,-6 1066.5,-58 1350.5,-58 1350.5,-6 1066.5,-6"/>
<text text-anchor="start" x="1074.5" y="-46" font-family="Helvetica,sans-Serif" font-size="10.00">/home/cnc/actions&#45;runner</text>
<text text-anchor="start" x="1074.5" y="-35" font-family="Helvetica,sans-Serif" font-size="10.00">/_work/LinuxCnc_PokeysLibComp</text>
<text text-anchor="start" x="1074.5" y="-24" font-family="Helvetica,sans-Serif" font-size="10.00">/LinuxCnc_PokeysLibComp/external</text>
<text text-anchor="middle" x="1208.5" y="-13" font-family="Helvetica,sans-Serif" font-size="10.00">/pokeysHal/experimental/build/PoKeysLibDeviceData.c</text>
</a>
</g>
</g>
<!-- Node2&#45;&gt;Node7 -->
<g id="edge6" class="edge">
<title>Node2&#45;&gt;Node7</title>
<path fill="none" stroke="midnightblue" d="M2869.23,-123.32C2530.15,-117.4 1650.32,-99.04 1359.5,-64 1346.61,-62.45 1333.19,-60.37 1319.9,-58.02"/>
<polygon fill="midnightblue" stroke="midnightblue" points="2869.29,-126.82 2879.35,-123.5 2869.41,-119.82 2869.29,-126.82"/>
</g>
<!-- Node8 -->
<g id="node8" class="node">
<title>Node8</title>
<g id="a_node8"><a xlink:href="pokeysHal_2experimental_2build_2PoKeysLibDevicePoKeys57Industrial_8c.html" target="_top" xlink:title=" ">
<polygon fill="white" stroke="black" points="1368.5,-0.5 1368.5,-63.5 1620.5,-63.5 1620.5,-0.5 1368.5,-0.5"/>
<text text-anchor="start" x="1376.5" y="-51.5" font-family="Helvetica,sans-Serif" font-size="10.00">/home/cnc/actions&#45;runner</text>
<text text-anchor="start" x="1376.5" y="-40.5" font-family="Helvetica,sans-Serif" font-size="10.00">/_work/LinuxCnc_PokeysLibComp</text>
<text text-anchor="start" x="1376.5" y="-29.5" font-family="Helvetica,sans-Serif" font-size="10.00">/LinuxCnc_PokeysLibComp/external</text>
<text text-anchor="start" x="1376.5" y="-18.5" font-family="Helvetica,sans-Serif" font-size="10.00">/pokeysHal/experimental/build/PoKeysLibDevice</text>
<text text-anchor="middle" x="1494.5" y="-7.5" font-family="Helvetica,sans-Serif" font-size="10.00">PoKeys57Industrial.c</text>
</a>
</g>
</g>
<!-- Node2&#45;&gt;Node8 -->
<g id="edge7" class="edge">
<title>Node2&#45;&gt;Node8</title>
<path fill="none" stroke="midnightblue" d="M2868.8,-122.56C2570.6,-115.58 1865.98,-96.17 1629.5,-64 1626.64,-63.61 1623.75,-63.19 1620.85,-62.74"/>
<polygon fill="midnightblue" stroke="midnightblue" points="2869.15,-126.07 2879.23,-122.8 2869.32,-119.07 2869.15,-126.07"/>
</g>
<!-- Node9 -->
<g id="node9" class="node">
<title>Node9</title>
<g id="a_node9"><a xlink:href="pokeysHal_2experimental_2build_2PoKeysLibEasySensors_8c.html" target="_top" xlink:title=" ">
<polygon fill="white" stroke="black" points="1638.5,-0.5 1638.5,-63.5 1880.5,-63.5 1880.5,-0.5 1638.5,-0.5"/>
<text text-anchor="start" x="1646.5" y="-51.5" font-family="Helvetica,sans-Serif" font-size="10.00">/home/cnc/actions&#45;runner</text>
<text text-anchor="start" x="1646.5" y="-40.5" font-family="Helvetica,sans-Serif" font-size="10.00">/_work/LinuxCnc_PokeysLibComp</text>
<text text-anchor="start" x="1646.5" y="-29.5" font-family="Helvetica,sans-Serif" font-size="10.00">/LinuxCnc_PokeysLibComp/external</text>
<text text-anchor="start" x="1646.5" y="-18.5" font-family="Helvetica,sans-Serif" font-size="10.00">/pokeysHal/experimental/build/PoKeysLibEasy</text>
<text text-anchor="middle" x="1759.5" y="-7.5" font-family="Helvetica,sans-Serif" font-size="10.00">Sensors.c</text>
</a>
</g>
</g>
<!-- Node2&#45;&gt;Node9 -->
<g id="edge8" class="edge">
<title>Node2&#45;&gt;Node9</title>
<path fill="none" stroke="midnightblue" d="M2869.02,-125.82C2658.38,-124.56 2240.11,-115.05 1889.5,-64 1886.63,-63.58 1883.73,-63.13 1880.81,-62.65"/>
<polygon fill="midnightblue" stroke="midnightblue" points="2869.18,-129.32 2879.2,-125.87 2869.22,-122.32 2869.18,-129.32"/>
</g>
<!-- Node10 -->
<g id="node10" class="node">
<title>Node10</title>
<g id="a_node10"><a xlink:href="pokeysHal_2experimental_2build_2PoKeysLibEncoders_8c.html" target="_top" xlink:title=" ">
<polygon fill="white" stroke="black" points="1899,-6 1899,-58 2170,-58 2170,-6 1899,-6"/>
<text text-anchor="start" x="1907" y="-46" font-family="Helvetica,sans-Serif" font-size="10.00">/home/cnc/actions&#45;runner</text>
<text text-anchor="start" x="1907" y="-35" font-family="Helvetica,sans-Serif" font-size="10.00">/_work/LinuxCnc_PokeysLibComp</text>
<text text-anchor="start" x="1907" y="-24" font-family="Helvetica,sans-Serif" font-size="10.00">/LinuxCnc_PokeysLibComp/external</text>
<text text-anchor="middle" x="2034.5" y="-13" font-family="Helvetica,sans-Serif" font-size="10.00">/pokeysHal/experimental/build/PoKeysLibEncoders.c</text>
</a>
</g>
</g>
<!-- Node2&#45;&gt;Node10 -->
<g id="edge9" class="edge">
<title>Node2&#45;&gt;Node10</title>
<path fill="none" stroke="midnightblue" d="M2869.05,-121.06C2705.09,-114.39 2420.93,-98.64 2179.5,-64 2167.91,-62.34 2155.85,-60.28 2143.87,-58.04"/>
<polygon fill="midnightblue" stroke="midnightblue" points="2869.05,-124.56 2879.18,-121.47 2869.33,-117.57 2869.05,-124.56"/>
</g>
<!-- Node11 -->
<g id="node11" class="node">
<title>Node11</title>
<g id="a_node11"><a xlink:href="pokeysHal_2experimental_2build_2PoKeysLibFailsafe_8c.html" target="_top" xlink:title=" ">
<polygon fill="white" stroke="black" points="2188.5,-6 2188.5,-58 2452.5,-58 2452.5,-6 2188.5,-6"/>
<text text-anchor="start" x="2196.5" y="-46" font-family="Helvetica,sans-Serif" font-size="10.00">/home/cnc/actions&#45;runner</text>
<text text-anchor="start" x="2196.5" y="-35" font-family="Helvetica,sans-Serif" font-size="10.00">/_work/LinuxCnc_PokeysLibComp</text>
<text text-anchor="start" x="2196.5" y="-24" font-family="Helvetica,sans-Serif" font-size="10.00">/LinuxCnc_PokeysLibComp/external</text>
<text text-anchor="middle" x="2320.5" y="-13" font-family="Helvetica,sans-Serif" font-size="10.00">/pokeysHal/experimental/build/PoKeysLibFailsafe.c</text>
</a>
</g>
</g>
<!-- Node2&#45;&gt;Node11 -->
<g id="edge10" class="edge">
<title>Node2&#45;&gt;Node11</title>
<path fill="none" stroke="midnightblue" d="M2869.27,-114.11C2759.08,-103.89 2599.68,-86.95 2461.5,-64 2450.87,-62.23 2439.83,-60.19 2428.82,-58"/>
<polygon fill="midnightblue" stroke="midnightblue" points="2869.16,-117.61 2879.44,-115.05 2869.81,-110.64 2869.16,-117.61"/>
</g>
<!-- Node12 -->
<g id="node12" class="node">
<title>Node12</title>
<g id="a_node12"><a xlink:href="pokeysHal_2experimental_2build_2PoKeysLibFastUSB_8c.html" target="_top" xlink:title=" ">
<polygon fill="white" stroke="black" points="2470.5,-6 2470.5,-58 2736.5,-58 2736.5,-6 2470.5,-6"/>
<text text-anchor="start" x="2478.5" y="-46" font-family="Helvetica,sans-Serif" font-size="10.00">/home/cnc/actions&#45;runner</text>
<text text-anchor="start" x="2478.5" y="-35" font-family="Helvetica,sans-Serif" font-size="10.00">/_work/LinuxCnc_PokeysLibComp</text>
<text text-anchor="start" x="2478.5" y="-24" font-family="Helvetica,sans-Serif" font-size="10.00">/LinuxCnc_PokeysLibComp/external</text>
<text text-anchor="middle" x="2603.5" y="-13" font-family="Helvetica,sans-Serif" font-size="10.00">/pokeysHal/experimental/build/PoKeysLibFastUSB.c</text>
</a>
</g>
</g>
<!-- Node2&#45;&gt;Node12 -->
<g id="edge11" class="edge">
<title>Node2&#45;&gt;Node12</title>
<path fill="none" stroke="midnightblue" d="M2886.17,-98.2C2831.06,-85.49 2765.94,-70.47 2712.1,-58.05"/>
<polygon fill="midnightblue" stroke="midnightblue" points="2885.45,-101.63 2895.98,-100.47 2887.03,-94.81 2885.45,-101.63"/>
</g>
<!-- Node13 -->
<g id="node13" class="node">
<title>Node13</title>
<g id="a_node13"><a xlink:href="pokeysHal_2experimental_2build_2PoKeysLibI2C_8c.html" target="_top" xlink:title=" ">
<polygon fill="white" stroke="black" points="2754.5,-6 2754.5,-58 2996.5,-58 2996.5,-6 2754.5,-6"/>
<text text-anchor="start" x="2762.5" y="-46" font-family="Helvetica,sans-Serif" font-size="10.00">/home/cnc/actions&#45;runner</text>
<text text-anchor="start" x="2762.5" y="-35" font-family="Helvetica,sans-Serif" font-size="10.00">/_work/LinuxCnc_PokeysLibComp</text>
<text text-anchor="start" x="2762.5" y="-24" font-family="Helvetica,sans-Serif" font-size="10.00">/LinuxCnc_PokeysLibComp/external</text>
<text text-anchor="middle" x="2875.5" y="-13" font-family="Helvetica,sans-Serif" font-size="10.00">/pokeysHal/experimental/build/PoKeysLibI2C.c</text>
</a>
</g>
</g>
<!-- Node2&#45;&gt;Node13 -->
<g id="edge12" class="edge">
<title>Node2&#45;&gt;Node13</title>
<path fill="none" stroke="midnightblue" d="M2961.17,-94.43C2944.66,-82.59 2926.07,-69.26 2910.44,-58.05"/>
<polygon fill="midnightblue" stroke="midnightblue" points="2959.42,-97.49 2969.59,-100.47 2963.5,-91.8 2959.42,-97.49"/>
</g>
<!-- Node14 -->
<g id="node14" class="node">
<title>Node14</title>
<g id="a_node14"><a xlink:href="pokeysHal_2experimental_2build_2PoKeysLibIO_8c.html" target="_top" xlink:title=" ">
<polygon fill="white" stroke="black" points="3015,-6 3015,-58 3252,-58 3252,-6 3015,-6"/>
<text text-anchor="start" x="3023" y="-46" font-family="Helvetica,sans-Serif" font-size="10.00">/home/cnc/actions&#45;runner</text>
<text text-anchor="start" x="3023" y="-35" font-family="Helvetica,sans-Serif" font-size="10.00">/_work/LinuxCnc_PokeysLibComp</text>
<text text-anchor="start" x="3023" y="-24" font-family="Helvetica,sans-Serif" font-size="10.00">/LinuxCnc_PokeysLibComp/external</text>
<text text-anchor="middle" x="3133.5" y="-13" font-family="Helvetica,sans-Serif" font-size="10.00">/pokeysHal/experimental/build/PoKeysLibIO.c</text>
</a>
</g>
</g>
<!-- Node2&#45;&gt;Node14 -->
<g id="edge13" class="edge">
<title>Node2&#45;&gt;Node14</title>
<path fill="none" stroke="midnightblue" d="M3047.83,-94.43C3064.34,-82.59 3082.93,-69.26 3098.56,-58.05"/>
<polygon fill="midnightblue" stroke="midnightblue" points="3045.5,-91.8 3039.41,-100.47 3049.58,-97.49 3045.5,-91.8"/>
</g>
<!-- Node15 -->
<g id="node15" class="node">
<title>Node15</title>
<g id="a_node15"><a xlink:href="pokeysHal_2experimental_2build_2PoKeysLibLCD_8c.html" target="_top" xlink:title=" ">
<polygon fill="white" stroke="black" points="3270.5,-6 3270.5,-58 3516.5,-58 3516.5,-6 3270.5,-6"/>
<text text-anchor="start" x="3278.5" y="-46" font-family="Helvetica,sans-Serif" font-size="10.00">/home/cnc/actions&#45;runner</text>
<text text-anchor="start" x="3278.5" y="-35" font-family="Helvetica,sans-Serif" font-size="10.00">/_work/LinuxCnc_PokeysLibComp</text>
<text text-anchor="start" x="3278.5" y="-24" font-family="Helvetica,sans-Serif" font-size="10.00">/LinuxCnc_PokeysLibComp/external</text>
<text text-anchor="middle" x="3393.5" y="-13" font-family="Helvetica,sans-Serif" font-size="10.00">/pokeysHal/experimental/build/PoKeysLibLCD.c</text>
</a>
</g>
</g>
<!-- Node2&#45;&gt;Node15 -->
<g id="edge14" class="edge">
<title>Node2&#45;&gt;Node15</title>
<path fill="none" stroke="midnightblue" d="M3119.62,-98.13C3173.01,-85.43 3236.03,-70.45 3288.15,-58.05"/>
<polygon fill="midnightblue" stroke="midnightblue" points="3118.69,-94.75 3109.77,-100.47 3120.31,-101.56 3118.69,-94.75"/>
</g>
<!-- Node16 -->
<g id="node16" class="node">
<title>Node16</title>
<g id="a_node16"><a xlink:href="pokeysHal_2experimental_2build_2PoKeysLibMatrixKB_8c.html" target="_top" xlink:title=" ">
<polygon fill="white" stroke="black" points="3534.5,-6 3534.5,-58 3806.5,-58 3806.5,-6 3534.5,-6"/>
<text text-anchor="start" x="3542.5" y="-46" font-family="Helvetica,sans-Serif" font-size="10.00">/home/cnc/actions&#45;runner</text>
<text text-anchor="start" x="3542.5" y="-35" font-family="Helvetica,sans-Serif" font-size="10.00">/_work/LinuxCnc_PokeysLibComp</text>
<text text-anchor="start" x="3542.5" y="-24" font-family="Helvetica,sans-Serif" font-size="10.00">/LinuxCnc_PokeysLibComp/external</text>
<text text-anchor="middle" x="3670.5" y="-13" font-family="Helvetica,sans-Serif" font-size="10.00">/pokeysHal/experimental/build/PoKeysLibMatrixKB.c</text>
</a>
</g>
</g>
<!-- Node2&#45;&gt;Node16 -->
<g id="edge15" class="edge">
<title>Node2&#45;&gt;Node16</title>
<path fill="none" stroke="midnightblue" d="M3139.98,-100C3311.88,-76.51 3358.42,-89.56 3525.5,-64 3536.7,-62.29 3548.33,-60.25 3559.91,-58.04"/>
<polygon fill="midnightblue" stroke="midnightblue" points="3139.25,-96.57 3129.83,-101.41 3140.22,-103.5 3139.25,-96.57"/>
</g>
<!-- Node17 -->
<g id="node17" class="node">
<title>Node17</title>
<g id="a_node17"><a xlink:href="pokeysHal_2experimental_2build_2PoKeysLibMatrixLED_8c.html" target="_top" xlink:title=" ">
<polygon fill="white" stroke="black" points="3825,-6 3825,-58 4102,-58 4102,-6 3825,-6"/>
<text text-anchor="start" x="3833" y="-46" font-family="Helvetica,sans-Serif" font-size="10.00">/home/cnc/actions&#45;runner</text>
<text text-anchor="start" x="3833" y="-35" font-family="Helvetica,sans-Serif" font-size="10.00">/_work/LinuxCnc_PokeysLibComp</text>
<text text-anchor="start" x="3833" y="-24" font-family="Helvetica,sans-Serif" font-size="10.00">/LinuxCnc_PokeysLibComp/external</text>
<text text-anchor="middle" x="3963.5" y="-13" font-family="Helvetica,sans-Serif" font-size="10.00">/pokeysHal/experimental/build/PoKeysLibMatrixLED.c</text>
</a>
</g>
</g>
<!-- Node2&#45;&gt;Node17 -->
<g id="edge16" class="edge">
<title>Node2&#45;&gt;Node17</title>
<path fill="none" stroke="midnightblue" d="M3140.11,-100.02C3440.01,-64.86 3520.51,-102.52 3815.5,-64 3827.73,-62.4 3840.47,-60.35 3853.1,-58.05"/>
<polygon fill="midnightblue" stroke="midnightblue" points="3139.32,-96.59 3129.81,-101.24 3140.15,-103.54 3139.32,-96.59"/>
</g>
<!-- Node18 -->
<g id="node18" class="node">
<title>Node18</title>
<g id="a_node18"><a xlink:href="pokeysHal_2experimental_2build_2PoKeysLibPoIL_8c.html" target="_top" xlink:title=" ">
<polygon fill="white" stroke="black" points="4120,-6 4120,-58 4367,-58 4367,-6 4120,-6"/>
<text text-anchor="start" x="4128" y="-46" font-family="Helvetica,sans-Serif" font-size="10.00">/home/cnc/actions&#45;runner</text>
<text text-anchor="start" x="4128" y="-35" font-family="Helvetica,sans-Serif" font-size="10.00">/_work/LinuxCnc_PokeysLibComp</text>
<text text-anchor="start" x="4128" y="-24" font-family="Helvetica,sans-Serif" font-size="10.00">/LinuxCnc_PokeysLibComp/external</text>
<text text-anchor="middle" x="4243.5" y="-13" font-family="Helvetica,sans-Serif" font-size="10.00">/pokeysHal/experimental/build/PoKeysLibPoIL.c</text>
</a>
</g>
</g>
<!-- Node2&#45;&gt;Node18 -->
<g id="edge17" class="edge">
<title>Node2&#45;&gt;Node18</title>
<path fill="none" stroke="midnightblue" d="M3140.04,-100.04C3570.89,-52.83 3686.42,-121.24 4111.5,-64 4122.93,-62.46 4134.82,-60.38 4146.58,-58.01"/>
<polygon fill="midnightblue" stroke="midnightblue" points="3139.35,-96.59 3129.8,-101.17 3140.12,-103.55 3139.35,-96.59"/>
</g>
<!-- Node19 -->
<g id="node19" class="node">
<title>Node19</title>
<g id="a_node19"><a xlink:href="pokeysHal_2experimental_2build_2PoKeysLibPoNET_8c.html" target="_top" xlink:title=" ">
<polygon fill="white" stroke="black" points="4385,-6 4385,-58 4642,-58 4642,-6 4385,-6"/>
<text text-anchor="start" x="4393" y="-46" font-family="Helvetica,sans-Serif" font-size="10.00">/home/cnc/actions&#45;runner</text>
<text text-anchor="start" x="4393" y="-35" font-family="Helvetica,sans-Serif" font-size="10.00">/_work/LinuxCnc_PokeysLibComp</text>
<text text-anchor="start" x="4393" y="-24" font-family="Helvetica,sans-Serif" font-size="10.00">/LinuxCnc_PokeysLibComp/external</text>
<text text-anchor="middle" x="4513.5" y="-13" font-family="Helvetica,sans-Serif" font-size="10.00">/pokeysHal/experimental/build/PoKeysLibPoNET.c</text>
</a>
</g>
</g>
<!-- Node2&#45;&gt;Node19 -->
<g id="edge18" class="edge">
<title>Node2&#45;&gt;Node19</title>
<path fill="none" stroke="midnightblue" d="M3139.94,-100.05C3688.09,-41.89 3834.17,-132.59 4376.5,-64 4388.48,-62.49 4400.94,-60.4 4413.26,-58.01"/>
<polygon fill="midnightblue" stroke="midnightblue" points="3139.37,-96.59 3129.8,-101.14 3140.11,-103.55 3139.37,-96.59"/>
</g>
<!-- Node20 -->
<g id="node20" class="node">
<title>Node20</title>
<g id="a_node20"><a xlink:href="pokeysHal_2experimental_2build_2PoKeysLibPulseEngine__v2_8c.html" target="_top" xlink:title=" ">
<polygon fill="white" stroke="black" points="4660,-0.5 4660,-63.5 4905,-63.5 4905,-0.5 4660,-0.5"/>
<text text-anchor="start" x="4668" y="-51.5" font-family="Helvetica,sans-Serif" font-size="10.00">/home/cnc/actions&#45;runner</text>
<text text-anchor="start" x="4668" y="-40.5" font-family="Helvetica,sans-Serif" font-size="10.00">/_work/LinuxCnc_PokeysLibComp</text>
<text text-anchor="start" x="4668" y="-29.5" font-family="Helvetica,sans-Serif" font-size="10.00">/LinuxCnc_PokeysLibComp/external</text>
<text text-anchor="start" x="4668" y="-18.5" font-family="Helvetica,sans-Serif" font-size="10.00">/pokeysHal/experimental/build/PoKeysLibPulse</text>
<text text-anchor="middle" x="4782.5" y="-7.5" font-family="Helvetica,sans-Serif" font-size="10.00">Engine_v2.c</text>
</a>
</g>
</g>
<!-- Node2&#45;&gt;Node20 -->
<g id="edge19" class="edge">
<title>Node2&#45;&gt;Node20</title>
<path fill="none" stroke="midnightblue" d="M3140.18,-100.03C3809.8,-30.61 3988.23,-149.42 4651.5,-64 4654.28,-63.64 4657.09,-63.25 4659.92,-62.83"/>
<polygon fill="midnightblue" stroke="midnightblue" points="3139.37,-96.59 3129.79,-101.12 3140.1,-103.56 3139.37,-96.59"/>
</g>
<!-- Node21 -->
<g id="node21" class="node">
<title>Node21</title>
<g id="a_node21"><a xlink:href="pokeysHal_2experimental_2build_2PoKeysLibRTC_8c.html" target="_top" xlink:title=" ">
<polygon fill="white" stroke="black" points="4923,-6 4923,-58 5168,-58 5168,-6 4923,-6"/>
<text text-anchor="start" x="4931" y="-46" font-family="Helvetica,sans-Serif" font-size="10.00">/home/cnc/actions&#45;runner</text>
<text text-anchor="start" x="4931" y="-35" font-family="Helvetica,sans-Serif" font-size="10.00">/_work/LinuxCnc_PokeysLibComp</text>
<text text-anchor="start" x="4931" y="-24" font-family="Helvetica,sans-Serif" font-size="10.00">/LinuxCnc_PokeysLibComp/external</text>
<text text-anchor="middle" x="5045.5" y="-13" font-family="Helvetica,sans-Serif" font-size="10.00">/pokeysHal/experimental/build/PoKeysLibRTC.c</text>
</a>
</g>
</g>
<!-- Node2&#45;&gt;Node21 -->
<g id="edge20" class="edge">
<title>Node2&#45;&gt;Node21</title>
<path fill="none" stroke="midnightblue" d="M3139.93,-100.08C3548.33,-60.14 4526.37,-113.29 4914.5,-64 4926.09,-62.53 4938.15,-60.45 4950.06,-58.05"/>
<polygon fill="midnightblue" stroke="midnightblue" points="3139.39,-96.61 3129.79,-101.1 3140.09,-103.58 3139.39,-96.61"/>
</g>
<!-- Node22 -->
<g id="node22" class="node">
<title>Node22</title>
<g id="a_node22"><a xlink:href="pokeysHal_2experimental_2build_2PoKeysLibSPI_8c.html" target="_top" xlink:title=" ">
<polygon fill="white" stroke="black" points="5186.5,-6 5186.5,-58 5428.5,-58 5428.5,-6 5186.5,-6"/>
<text text-anchor="start" x="5194.5" y="-46" font-family="Helvetica,sans-Serif" font-size="10.00">/home/cnc/actions&#45;runner</text>
<text text-anchor="start" x="5194.5" y="-35" font-family="Helvetica,sans-Serif" font-size="10.00">/_work/LinuxCnc_PokeysLibComp</text>
<text text-anchor="start" x="5194.5" y="-24" font-family="Helvetica,sans-Serif" font-size="10.00">/LinuxCnc_PokeysLibComp/external</text>
<text text-anchor="middle" x="5307.5" y="-13" font-family="Helvetica,sans-Serif" font-size="10.00">/pokeysHal/experimental/build/PoKeysLibSPI.c</text>
</a>
</g>
</g>
<!-- Node2&#45;&gt;Node22 -->
<g id="edge21" class="edge">
<title>Node2&#45;&gt;Node22</title>
<path fill="none" stroke="midnightblue" d="M3140.01,-100.07C3606.73,-54.77 4731.42,-120.45 5177.5,-64 5189.12,-62.53 5201.22,-60.43 5213.15,-58.01"/>
<polygon fill="midnightblue" stroke="midnightblue" points="3139.39,-96.61 3129.79,-101.09 3140.09,-103.58 3139.39,-96.61"/>
</g>
<!-- Node23 -->
<g id="node23" class="node">
<title>Node23</title>
<g id="a_node23"><a xlink:href="pokeysHal_2experimental_2build_2PoKeysLibUART_8c.html" target="_top" xlink:title=" ">
<polygon fill="white" stroke="black" points="5446.5,-6 5446.5,-58 5698.5,-58 5698.5,-6 5446.5,-6"/>
<text text-anchor="start" x="5454.5" y="-46" font-family="Helvetica,sans-Serif" font-size="10.00">/home/cnc/actions&#45;runner</text>
<text text-anchor="start" x="5454.5" y="-35" font-family="Helvetica,sans-Serif" font-size="10.00">/_work/LinuxCnc_PokeysLibComp</text>
<text text-anchor="start" x="5454.5" y="-24" font-family="Helvetica,sans-Serif" font-size="10.00">/LinuxCnc_PokeysLibComp/external</text>
<text text-anchor="middle" x="5572.5" y="-13" font-family="Helvetica,sans-Serif" font-size="10.00">/pokeysHal/experimental/build/PoKeysLibUART.c</text>
</a>
</g>
</g>
<!-- Node2&#45;&gt;Node23 -->
<g id="edge22" class="edge">
<title>Node2&#45;&gt;Node23</title>
<path fill="none" stroke="midnightblue" d="M3139.74,-100.09C3663.87,-49.39 4933.7,-125.1 5437.5,-64 5449.56,-62.54 5462.11,-60.45 5474.49,-58.03"/>
<polygon fill="midnightblue" stroke="midnightblue" points="3139.4,-96.61 3129.79,-101.08 3140.09,-103.58 3139.4,-96.61"/>
</g>
<!-- Node24 -->
<g id="node24" class="node">
<title>Node24</title>
<g id="a_node24"><a xlink:href="pokeysHal_2experimental_2build_2PoKeysLibWS2812_8c.html" target="_top" xlink:title=" ">
<polygon fill="white" stroke="black" points="5716.5,-6 5716.5,-58 5982.5,-58 5982.5,-6 5716.5,-6"/>
<text text-anchor="start" x="5724.5" y="-46" font-family="Helvetica,sans-Serif" font-size="10.00">/home/cnc/actions&#45;runner</text>
<text text-anchor="start" x="5724.5" y="-35" font-family="Helvetica,sans-Serif" font-size="10.00">/_work/LinuxCnc_PokeysLibComp</text>
<text text-anchor="start" x="5724.5" y="-24" font-family="Helvetica,sans-Serif" font-size="10.00">/LinuxCnc_PokeysLibComp/external</text>
<text text-anchor="middle" x="5849.5" y="-13" font-family="Helvetica,sans-Serif" font-size="10.00">/pokeysHal/experimental/build/PoKeysLibWS2812.c</text>
</a>
</g>
</g>
<!-- Node2&#45;&gt;Node24 -->
<g id="edge23" class="edge">
<title>Node2&#45;&gt;Node24</title>
<path fill="none" stroke="midnightblue" d="M3140.03,-100.06C3724.12,-43.83 5143.84,-128.81 5707.5,-64 5720.16,-62.54 5733.35,-60.46 5746.37,-58.04"/>
<polygon fill="midnightblue" stroke="midnightblue" points="3139.4,-96.61 3129.79,-101.07 3140.08,-103.58 3139.4,-96.61"/>
</g>
</g>
</svg>
