<?xml version="1.0" encoding="UTF-8" standalone="no"?>
<!DOCTYPE svg PUBLIC "-//W3C//DTD SVG 1.1//EN"
 "http://www.w3.org/Graphics/SVG/1.1/DTD/svg11.dtd">
<!-- Generated by graphviz version 2.43.0 (0)
 -->
<!-- Title: PK_PoILSetMasterEnable Pages: 1 -->
<svg width="605pt" height="161pt"
 viewBox="0.00 0.00 605.00 161.00" xmlns="http://www.w3.org/2000/svg" xmlns:xlink="http://www.w3.org/1999/xlink">
<g id="graph0" class="graph" transform="scale(1 1) rotate(0) translate(4 157)">
<title>PK_PoILSetMasterEnable</title>
<polygon fill="white" stroke="transparent" points="-4,4 -4,-157 601,-157 601,4 -4,4"/>
<!-- Node1 -->
<g id="node1" class="node">
<title>Node1</title>
<g id="a_node1"><a xlink:title=" ">
<polygon fill="#bfbfbf" stroke="black" points="0,-95.5 0,-114.5 137,-114.5 137,-95.5 0,-95.5"/>
<text text-anchor="middle" x="68.5" y="-102.5" font-family="Helvetica,sans-Serif" font-size="10.00">PK_PoILSetMasterEnable</text>
</a>
</g>
</g>
<!-- Node2 -->
<g id="node2" class="node">
<title>Node2</title>
<g id="a_node2"><a xlink:href="pokeyslib_2PoKeysLibCore_8c.html#acb1fdd8f77277dc66c4d037218bfcece" target="_top" xlink:title=" ">
<polygon fill="white" stroke="black" points="205.5,-133.5 205.5,-152.5 294.5,-152.5 294.5,-133.5 205.5,-133.5"/>
<text text-anchor="middle" x="250" y="-140.5" font-family="Helvetica,sans-Serif" font-size="10.00">CreateRequest</text>
</a>
</g>
</g>
<!-- Node1&#45;&gt;Node2 -->
<g id="edge1" class="edge">
<title>Node1&#45;&gt;Node2</title>
<path fill="none" stroke="midnightblue" d="M114.8,-114.59C139.28,-119.77 169.66,-126.2 195.32,-131.64"/>
<polygon fill="midnightblue" stroke="midnightblue" points="194.76,-135.1 205.27,-133.74 196.21,-128.25 194.76,-135.1"/>
</g>
<!-- Node3 -->
<g id="node3" class="node">
<title>Node3</title>
<g id="a_node3"><a xlink:href="pokeyslib_2PoKeysLibPoIL_8c.html#ae029541616c99eb75d662954239371eb" target="_top" xlink:title=" ">
<polygon fill="white" stroke="black" points="173,-95.5 173,-114.5 327,-114.5 327,-95.5 173,-95.5"/>
<text text-anchor="middle" x="250" y="-102.5" font-family="Helvetica,sans-Serif" font-size="10.00">PK_ParsePoILStateResponse</text>
</a>
</g>
</g>
<!-- Node1&#45;&gt;Node3 -->
<g id="edge2" class="edge">
<title>Node1&#45;&gt;Node3</title>
<path fill="none" stroke="midnightblue" d="M137.11,-105C145.46,-105 154.09,-105 162.68,-105"/>
<polygon fill="midnightblue" stroke="midnightblue" points="162.73,-108.5 172.73,-105 162.73,-101.5 162.73,-108.5"/>
</g>
<!-- Node4 -->
<g id="node4" class="node">
<title>Node4</title>
<g id="a_node4"><a xlink:href="pokeyslib_2PoKeysLibCore_8c.html#ab5d92aa36d0a4a6953a055f5cd960aff" target="_top" xlink:title=" ">
<polygon fill="white" stroke="black" points="210,-57.5 210,-76.5 290,-76.5 290,-57.5 210,-57.5"/>
<text text-anchor="middle" x="250" y="-64.5" font-family="Helvetica,sans-Serif" font-size="10.00">SendRequest</text>
</a>
</g>
</g>
<!-- Node1&#45;&gt;Node4 -->
<g id="edge3" class="edge">
<title>Node1&#45;&gt;Node4</title>
<path fill="none" stroke="midnightblue" d="M114.8,-95.41C140.77,-89.91 173.38,-83.01 199.95,-77.38"/>
<polygon fill="midnightblue" stroke="midnightblue" points="200.76,-80.79 209.82,-75.3 199.31,-73.94 200.76,-80.79"/>
</g>
<!-- Node5 -->
<g id="node5" class="node">
<title>Node5</title>
<g id="a_node5"><a xlink:href="pokeyslib_2PoKeysLibCore_8c.html#a273b6d635dea8f559b915cdb289d021e" target="_top" xlink:title=" ">
<polygon fill="white" stroke="black" points="504.5,-38.5 504.5,-57.5 587.5,-57.5 587.5,-38.5 504.5,-38.5"/>
<text text-anchor="middle" x="546" y="-45.5" font-family="Helvetica,sans-Serif" font-size="10.00">getChecksum</text>
</a>
</g>
</g>
<!-- Node4&#45;&gt;Node5 -->
<g id="edge4" class="edge">
<title>Node4&#45;&gt;Node5</title>
<path fill="none" stroke="midnightblue" d="M290.24,-69.53C332.16,-71.64 400.49,-73.39 459,-67 472.57,-65.52 487.13,-62.76 500.34,-59.8"/>
<polygon fill="midnightblue" stroke="midnightblue" points="501.2,-63.19 510.14,-57.51 499.61,-56.37 501.2,-63.19"/>
</g>
<!-- Node6 -->
<g id="node6" class="node">
<title>Node6</title>
<g id="a_node6"><a xlink:href="group__API.html#ga6b820f3e72097cf7f994e33715dc7af1" target="_top" xlink:title="Read an Input report from a HID device.">
<polygon fill="white" stroke="black" points="381.5,-114.5 381.5,-133.5 440.5,-133.5 440.5,-114.5 381.5,-114.5"/>
<text text-anchor="middle" x="411" y="-121.5" font-family="Helvetica,sans-Serif" font-size="10.00">hid_read</text>
</a>
</g>
</g>
<!-- Node4&#45;&gt;Node6 -->
<g id="edge5" class="edge">
<title>Node4&#45;&gt;Node6</title>
<path fill="none" stroke="midnightblue" d="M290.07,-75.31C302.06,-78.24 315.19,-81.86 327,-86 345.95,-92.64 366.47,-102.02 382.37,-109.79"/>
<polygon fill="midnightblue" stroke="midnightblue" points="381.1,-113.07 391.62,-114.39 384.22,-106.81 381.1,-113.07"/>
</g>
<!-- Node8 -->
<g id="node8" class="node">
<title>Node8</title>
<g id="a_node8"><a xlink:href="group__API.html#gad14ea48e440cf5066df87cc6488493af" target="_top" xlink:title="Write an Output report to a HID device.">
<polygon fill="white" stroke="black" points="380,-38.5 380,-57.5 442,-57.5 442,-38.5 380,-38.5"/>
<text text-anchor="middle" x="411" y="-45.5" font-family="Helvetica,sans-Serif" font-size="10.00">hid_write</text>
</a>
</g>
</g>
<!-- Node4&#45;&gt;Node8 -->
<g id="edge7" class="edge">
<title>Node4&#45;&gt;Node8</title>
<path fill="none" stroke="midnightblue" d="M290.3,-62.3C314.52,-59.41 345.5,-55.71 369.87,-52.8"/>
<polygon fill="midnightblue" stroke="midnightblue" points="370.36,-56.26 379.87,-51.6 369.53,-49.31 370.36,-56.26"/>
</g>
<!-- Node9 -->
<g id="node9" class="node">
<title>Node9</title>
<g id="a_node9"><a xlink:href="pokeyslib_2PoKeysLibCoreSockets_8c.html#a22759fb4024c9081af26ac1bc6541b47" target="_top" xlink:title=" ">
<polygon fill="white" stroke="black" points="363,-0.5 363,-19.5 459,-19.5 459,-0.5 363,-0.5"/>
<text text-anchor="middle" x="411" y="-7.5" font-family="Helvetica,sans-Serif" font-size="10.00">SendEthRequest</text>
</a>
</g>
</g>
<!-- Node4&#45;&gt;Node9 -->
<g id="edge8" class="edge">
<title>Node4&#45;&gt;Node9</title>
<path fill="none" stroke="midnightblue" d="M277.61,-57.46C303.98,-48.01 344.56,-33.46 373.84,-22.96"/>
<polygon fill="midnightblue" stroke="midnightblue" points="375.07,-26.24 383.3,-19.57 372.71,-19.65 375.07,-26.24"/>
</g>
<!-- Node7 -->
<g id="node7" class="node">
<title>Node7</title>
<g id="a_node7"><a xlink:href="group__API.html#gaa5c9ed5aa290688ffac03343989ad75a" target="_top" xlink:title="Read an Input report from a HID device with timeout.">
<polygon fill="white" stroke="black" points="495,-114.5 495,-133.5 597,-133.5 597,-114.5 495,-114.5"/>
<text text-anchor="middle" x="546" y="-121.5" font-family="Helvetica,sans-Serif" font-size="10.00">hid_read_timeout</text>
</a>
</g>
</g>
<!-- Node6&#45;&gt;Node7 -->
<g id="edge6" class="edge">
<title>Node6&#45;&gt;Node7</title>
<path fill="none" stroke="midnightblue" d="M440.53,-124C453.49,-124 469.35,-124 484.75,-124"/>
<polygon fill="midnightblue" stroke="midnightblue" points="484.77,-127.5 494.77,-124 484.77,-120.5 484.77,-127.5"/>
</g>
<!-- Node9&#45;&gt;Node5 -->
<g id="edge9" class="edge">
<title>Node9&#45;&gt;Node5</title>
<path fill="none" stroke="midnightblue" d="M445.56,-19.59C462.57,-24.45 483.43,-30.41 501.64,-35.61"/>
<polygon fill="midnightblue" stroke="midnightblue" points="500.87,-39.03 511.45,-38.41 502.8,-32.3 500.87,-39.03"/>
</g>
</g>
</svg>
