<?xml version="1.0" encoding="UTF-8" standalone="no"?>
<!DOCTYPE svg PUBLIC "-//W3C//DTD SVG 1.1//EN"
 "http://www.w3.org/Graphics/SVG/1.1/DTD/svg11.dtd">
<!-- Generated by graphviz version 2.43.0 (0)
 -->
<!-- Title: getChecksum Pages: 1 -->
<svg width="302pt" height="192pt"
 viewBox="0.00 0.00 302.00 191.50" xmlns="http://www.w3.org/2000/svg" xmlns:xlink="http://www.w3.org/1999/xlink">
<g id="graph0" class="graph" transform="scale(1 1) rotate(0) translate(4 187.5)">
<title>getChecksum</title>
<polygon fill="white" stroke="transparent" points="-4,4 -4,-187.5 298,-187.5 298,4 -4,4"/>
<!-- Node1 -->
<g id="node1" class="node">
<title>Node1</title>
<g id="a_node1"><a xlink:title=" ">
<polygon fill="#bfbfbf" stroke="black" points="211,-88 211,-107 294,-107 294,-88 211,-88"/>
<text text-anchor="middle" x="252.5" y="-95" font-family="Helvetica,sans-Serif" font-size="10.00">getChecksum</text>
</a>
</g>
</g>
<!-- Node2 -->
<g id="node2" class="node">
<title>Node2</title>
<g id="a_node2"><a xlink:href="PoKeysLibCoreSocketsAsync_8c.html#a2afb5eaa2140bac1c02f18ec7f1dedcb" target="_top" xlink:title="Receives the response to a large (multi&#45;part) PoKeys request asynchronously.">
<polygon fill="white" stroke="black" points="4,-164 4,-183 171,-183 171,-164 4,-164"/>
<text text-anchor="middle" x="87.5" y="-171" font-family="Helvetica,sans-Serif" font-size="10.00">PK_RecvEthBigResponseAsync</text>
</a>
</g>
</g>
<!-- Node1&#45;&gt;Node2 -->
<g id="edge1" class="edge">
<title>Node1&#45;&gt;Node2</title>
<path fill="none" stroke="midnightblue" d="M233.79,-114.17C219.12,-127.07 197.17,-144.38 175,-154.5 166.61,-158.33 157.4,-161.41 148.21,-163.88"/>
<polygon fill="midnightblue" stroke="midnightblue" points="236.45,-116.48 241.53,-107.17 231.76,-111.28 236.45,-116.48"/>
</g>
<!-- Node3 -->
<g id="node3" class="node">
<title>Node3</title>
<g id="a_node3"><a xlink:href="PoKeysLibCoreSocketsAsync_8c.html#ac1c7ffe51aee601c616a62ac70f985bd" target="_top" xlink:title="Receives a PoKeys response packet asynchronously (non&#45;blocking, realtime&#45;safe).">
<polygon fill="white" stroke="black" points="12,-126 12,-145 163,-145 163,-126 12,-126"/>
<text text-anchor="middle" x="87.5" y="-133" font-family="Helvetica,sans-Serif" font-size="10.00">PK_RecvEthResponseAsync</text>
</a>
</g>
</g>
<!-- Node1&#45;&gt;Node3 -->
<g id="edge2" class="edge">
<title>Node1&#45;&gt;Node3</title>
<path fill="none" stroke="midnightblue" d="M204.01,-109.51C194.42,-111.87 184.4,-114.3 175,-116.5 161.38,-119.69 146.51,-123.01 133,-125.97"/>
<polygon fill="midnightblue" stroke="midnightblue" points="204.94,-112.88 213.81,-107.08 203.26,-106.09 204.94,-112.88"/>
</g>
<!-- Node4 -->
<g id="node4" class="node">
<title>Node4</title>
<g id="a_node4"><a xlink:href="PoKeysLibCoreSocketsAsync_8c.html#a56864af28148c7da0ad04535138cccd7" target="_top" xlink:title="Sends a PoKeys request packet asynchronously (non&#45;blocking, realtime&#45;safe).">
<polygon fill="white" stroke="black" points="16,-88 16,-107 159,-107 159,-88 16,-88"/>
<text text-anchor="middle" x="87.5" y="-95" font-family="Helvetica,sans-Serif" font-size="10.00">PK_SendEthRequestAsync</text>
</a>
</g>
</g>
<!-- Node1&#45;&gt;Node4 -->
<g id="edge3" class="edge">
<title>Node1&#45;&gt;Node4</title>
<path fill="none" stroke="midnightblue" d="M200.55,-97.5C187.42,-97.5 173.05,-97.5 159.11,-97.5"/>
<polygon fill="midnightblue" stroke="midnightblue" points="200.79,-101 210.79,-97.5 200.79,-94 200.79,-101"/>
</g>
<!-- Node5 -->
<g id="node5" class="node">
<title>Node5</title>
<g id="a_node5"><a xlink:href="PoKeysLibCoreSocketsAsync_8c.html#a1474633bdaa3d6a7b76f1b77d00ab84f" target="_top" xlink:title="Sends a large (multi&#45;part) PoKeys request asynchronously (non&#45;blocking).">
<polygon fill="white" stroke="black" points="8,-50 8,-69 167,-69 167,-50 8,-50"/>
<text text-anchor="middle" x="87.5" y="-57" font-family="Helvetica,sans-Serif" font-size="10.00">PK_SendEthRequestBigAsync</text>
</a>
</g>
</g>
<!-- Node1&#45;&gt;Node5 -->
<g id="edge4" class="edge">
<title>Node1&#45;&gt;Node5</title>
<path fill="none" stroke="midnightblue" d="M204.01,-85.49C194.42,-83.13 184.4,-80.7 175,-78.5 161.38,-75.31 146.51,-71.99 133,-69.03"/>
<polygon fill="midnightblue" stroke="midnightblue" points="203.26,-88.91 213.81,-87.92 204.94,-82.12 203.26,-88.91"/>
</g>
<!-- Node6 -->
<g id="node6" class="node">
<title>Node6</title>
<g id="a_node6"><a xlink:href="PoKeysLibCoreSocketsAsync_8c.html#aae3408d7f4d33757f65b1d1e7bd1071c" target="_top" xlink:title="Sends a PoKeys request packet asynchronously without expecting a response (fire&#45;and&#45;forget).">
<polygon fill="white" stroke="black" points="0,-0.5 0,-30.5 175,-30.5 175,-0.5 0,-0.5"/>
<text text-anchor="start" x="8" y="-18.5" font-family="Helvetica,sans-Serif" font-size="10.00">PK_SendEthRequestNoResponse</text>
<text text-anchor="middle" x="87.5" y="-7.5" font-family="Helvetica,sans-Serif" font-size="10.00">Async</text>
</a>
</g>
</g>
<!-- Node1&#45;&gt;Node6 -->
<g id="edge5" class="edge">
<title>Node1&#45;&gt;Node6</title>
<path fill="none" stroke="midnightblue" d="M233.1,-80.79C218.33,-68.15 196.58,-51.21 175,-40.5 167.44,-36.75 159.22,-33.46 150.96,-30.62"/>
<polygon fill="midnightblue" stroke="midnightblue" points="231.1,-83.69 240.93,-87.65 235.71,-78.42 231.1,-83.69"/>
</g>
</g>
</svg>
