<?xml version="1.0" encoding="UTF-8" standalone="no"?>
<!DOCTYPE svg PUBLIC "-//W3C//DTD SVG 1.1//EN"
 "http://www.w3.org/Graphics/SVG/1.1/DTD/svg11.dtd">
<!-- Generated by graphviz version 2.43.0 (0)
 -->
<!-- Title: PK_ConnectToPoKeysDevice_USB Pages: 1 -->
<!--zoomable 218 -->
<svg id="main" version="1.1" xmlns="http://www.w3.org/2000/svg" xmlns:xlink="http://www.w3.org/1999/xlink" xml:space="preserve" onload="init(evt)">
<style type="text/css"><![CDATA[
.edge:hover path { stroke: red; }
.edge:hover polygon { stroke: red; fill: red; }
]]></style>
<script type="text/javascript"><![CDATA[
var edges = document.getElementsByTagName('g');
if (edges && edges.length) {
  for (var i=0;i<edges.length;i++) {
    if (edges[i].id.substr(0,4)=='edge') {
      edges[i].setAttribute('class','edge');
    }
  }
}
]]></script>
        <defs>
                <circle id="rim" cx="0" cy="0" r="7"/>
                <circle id="rim2" cx="0" cy="0" r="3.5"/>
                <g id="zoomPlus">
                        <use xlink:href="#rim" fill="#404040">
                                <set attributeName="fill" to="#808080" begin="zoomplus.mouseover" end="zoomplus.mouseout"/>
                        </use>
                        <path d="M-4,0h8M0,-4v8" fill="none" stroke="white" stroke-width="1.5" pointer-events="none"/>
                </g>
                <g id="zoomMin">
                        <use xlink:href="#rim" fill="#404040">
                                <set attributeName="fill" to="#808080" begin="zoomminus.mouseover" end="zoomminus.mouseout"/>
                        </use>
                        <path d="M-4,0h8" fill="none" stroke="white" stroke-width="1.5" pointer-events="none"/>
                </g>
                <g id="dirArrow">
                        <path fill="none" stroke="white" stroke-width="1.5" d="M0,-3.0v7 M-2.5,-0.5L0,-3.0L2.5,-0.5"/>
                </g>
               <g id="resetDef">
                       <use xlink:href="#rim2" fill="#404040">
                               <set attributeName="fill" to="#808080" begin="reset.mouseover" end="reset.mouseout"/>
                       </use>
               </g>
        </defs>

<script type="text/javascript">
var viewWidth = 995;
var viewHeight = 218;
var sectionId = 'dynsection-9';
</script>
<script xlink:href="svgpan.js"/>
<svg id="graph" class="graph">
<g id="viewport">
<title>PK_ConnectToPoKeysDevice_USB</title>
<polygon fill="white" stroke="transparent" points="-4,4 -4,-214 991,-214 991,4 -4,4"/>
<!-- Node1 -->
<g id="node1" class="node">
<title>Node1</title>
<g id="a_node1"><a xlink:title=" ">
<polygon fill="#bfbfbf" stroke="black" points="0,-114.5 0,-133.5 179,-133.5 179,-114.5 0,-114.5"/>
<text text-anchor="middle" x="89.5" y="-121.5" font-family="Helvetica,sans-Serif" font-size="10.00">PK_ConnectToPoKeysDevice_USB</text>
</a>
</g>
</g>
<!-- Node2 -->
<g id="node2" class="node">
<title>Node2</title>
<g id="a_node2"><a xlink:href="pokeyslib_2PoKeysLibCore_8c.html#a8ddc84176ab5e728aeef3077e4c04721" target="_top" xlink:title=" ">
<polygon fill="white" stroke="black" points="238,-190.5 238,-209.5 316,-209.5 316,-190.5 238,-190.5"/>
<text text-anchor="middle" x="277" y="-197.5" font-family="Helvetica,sans-Serif" font-size="10.00">CleanDevice</text>
</a>
</g>
</g>
<!-- Node1&#45;&gt;Node2 -->
<g id="edge1" class="edge">
<title>Node1&#45;&gt;Node2</title>
<path fill="none" stroke="midnightblue" d="M109.58,-133.66C133.74,-145.68 176.81,-166.38 215,-181 220.64,-183.16 226.64,-185.26 232.59,-187.23"/>
<polygon fill="midnightblue" stroke="midnightblue" points="231.9,-190.68 242.49,-190.41 234.04,-184.02 231.9,-190.68"/>
</g>
<!-- Node3 -->
<g id="node3" class="node">
<title>Node3</title>
<g id="a_node3"><a xlink:href="group__API.html#gaae7d1c3e90835556ddc73fabe3a9ca9d" target="_top" xlink:title="Enumerate the HID Devices.">
<polygon fill="white" stroke="black" points="232,-152.5 232,-171.5 322,-171.5 322,-152.5 232,-152.5"/>
<text text-anchor="middle" x="277" y="-159.5" font-family="Helvetica,sans-Serif" font-size="10.00">hid_enumerate</text>
</a>
</g>
</g>
<!-- Node1&#45;&gt;Node3 -->
<g id="edge2" class="edge">
<title>Node1&#45;&gt;Node3</title>
<path fill="none" stroke="midnightblue" d="M137.31,-133.59C163.01,-138.85 195,-145.41 221.78,-150.89"/>
<polygon fill="midnightblue" stroke="midnightblue" points="221.26,-154.36 231.76,-152.94 222.67,-147.5 221.26,-154.36"/>
</g>
<!-- Node4 -->
<g id="node4" class="node">
<title>Node4</title>
<g id="a_node4"><a xlink:href="group__API.html#gafc2d2adf71db3784b783b9a554527aa4" target="_top" xlink:title="Free an enumeration Linked List.">
<polygon fill="white" stroke="black" points="215,-114.5 215,-133.5 339,-133.5 339,-114.5 215,-114.5"/>
<text text-anchor="middle" x="277" y="-121.5" font-family="Helvetica,sans-Serif" font-size="10.00">hid_free_enumeration</text>
</a>
</g>
</g>
<!-- Node1&#45;&gt;Node4 -->
<g id="edge3" class="edge">
<title>Node1&#45;&gt;Node4</title>
<path fill="none" stroke="midnightblue" d="M179.18,-124C187.78,-124 196.44,-124 204.85,-124"/>
<polygon fill="midnightblue" stroke="midnightblue" points="204.95,-127.5 214.95,-124 204.95,-120.5 204.95,-127.5"/>
</g>
<!-- Node5 -->
<g id="node5" class="node">
<title>Node5</title>
<g id="a_node5"><a xlink:href="group__API.html#ga954ecb58b5dfb4a6ef6be3dcd520e42f" target="_top" xlink:title="Open a HID device by its path name.">
<polygon fill="white" stroke="black" points="233,-76.5 233,-95.5 321,-95.5 321,-76.5 233,-76.5"/>
<text text-anchor="middle" x="277" y="-83.5" font-family="Helvetica,sans-Serif" font-size="10.00">hid_open_path</text>
</a>
</g>
</g>
<!-- Node1&#45;&gt;Node5 -->
<g id="edge4" class="edge">
<title>Node1&#45;&gt;Node5</title>
<path fill="none" stroke="midnightblue" d="M137.31,-114.41C163.29,-109.09 195.71,-102.45 222.67,-96.93"/>
<polygon fill="midnightblue" stroke="midnightblue" points="223.61,-100.3 232.71,-94.87 222.21,-93.45 223.61,-100.3"/>
</g>
<!-- Node6 -->
<g id="node6" class="node">
<title>Node6</title>
<g id="a_node6"><a xlink:href="pokeyslib_2PoKeysLibCore_8c.html#ae3a4511713f05f8d9ba2f0250f07957e" target="_top" xlink:title=" ">
<polygon fill="white" stroke="black" points="220,-38.5 220,-57.5 334,-57.5 334,-38.5 220,-38.5"/>
<text text-anchor="middle" x="277" y="-45.5" font-family="Helvetica,sans-Serif" font-size="10.00">InitializeNewDevice</text>
</a>
</g>
</g>
<!-- Node1&#45;&gt;Node6 -->
<g id="edge5" class="edge">
<title>Node1&#45;&gt;Node6</title>
<path fill="none" stroke="midnightblue" d="M109.58,-114.34C133.74,-102.32 176.81,-81.62 215,-67 220.64,-64.84 226.64,-62.74 232.59,-60.77"/>
<polygon fill="midnightblue" stroke="midnightblue" points="234.04,-63.98 242.49,-57.59 231.9,-57.32 234.04,-63.98"/>
</g>
<!-- Node7 -->
<g id="node7" class="node">
<title>Node7</title>
<g id="a_node7"><a xlink:href="pokeysHal_2PoKeysLibDeviceData_8c.html#a9508e9fcbc964cae1ccdb57f582cb5e1" target="_top" xlink:title="Read device identification and feature set.">
<polygon fill="white" stroke="black" points="387,-76.5 387,-95.5 496,-95.5 496,-76.5 387,-76.5"/>
<text text-anchor="middle" x="441.5" y="-83.5" font-family="Helvetica,sans-Serif" font-size="10.00">PK_DeviceDataGet</text>
</a>
</g>
</g>
<!-- Node6&#45;&gt;Node7 -->
<g id="edge6" class="edge">
<title>Node6&#45;&gt;Node7</title>
<path fill="none" stroke="midnightblue" d="M319.01,-57.59C340.55,-62.63 367.13,-68.84 389.94,-74.18"/>
<polygon fill="midnightblue" stroke="midnightblue" points="389.25,-77.61 399.79,-76.48 390.85,-70.79 389.25,-77.61"/>
</g>
<!-- Node16 -->
<g id="node16" class="node">
<title>Node16</title>
<g id="a_node16"><a xlink:href="pokeysHal_2PoKeysLibDeviceData_8c.html#ae4798f617a5dd5ebb93c534258cd0eb9" target="_top" xlink:title="Populate PWM pin ID table in the device structure.">
<polygon fill="white" stroke="black" points="375,-38.5 375,-57.5 508,-57.5 508,-38.5 375,-38.5"/>
<text text-anchor="middle" x="441.5" y="-45.5" font-family="Helvetica,sans-Serif" font-size="10.00">PK_FillPWMPinNumbers</text>
</a>
</g>
</g>
<!-- Node6&#45;&gt;Node16 -->
<g id="edge16" class="edge">
<title>Node6&#45;&gt;Node16</title>
<path fill="none" stroke="midnightblue" d="M334.38,-48C344.14,-48 354.43,-48 364.61,-48"/>
<polygon fill="midnightblue" stroke="midnightblue" points="364.73,-51.5 374.73,-48 364.73,-44.5 364.73,-51.5"/>
</g>
<!-- Node17 -->
<g id="node17" class="node">
<title>Node17</title>
<g id="a_node17"><a xlink:href="pokeysHal_2PoKeysLibIO_8c.html#a4397536c30fe3f56eb74b56210839349" target="_top" xlink:title="Check if a pin supports a counter (command 0xC0/0x01).">
<polygon fill="white" stroke="black" points="378.5,-0.5 378.5,-19.5 504.5,-19.5 504.5,-0.5 378.5,-0.5"/>
<text text-anchor="middle" x="441.5" y="-7.5" font-family="Helvetica,sans-Serif" font-size="10.00">PK_IsCounterAvailable</text>
</a>
</g>
</g>
<!-- Node6&#45;&gt;Node17 -->
<g id="edge17" class="edge">
<title>Node6&#45;&gt;Node17</title>
<path fill="none" stroke="midnightblue" d="M319.01,-38.41C340.55,-33.37 367.13,-27.16 389.94,-21.82"/>
<polygon fill="midnightblue" stroke="midnightblue" points="390.85,-25.21 399.79,-19.52 389.25,-18.39 390.85,-25.21"/>
</g>
<!-- Node8 -->
<g id="node8" class="node">
<title>Node8</title>
<g id="a_node8"><a xlink:href="pokeyslib_2PoKeysLibDeviceData_8c.html#a8fa8788bebd4d9501da88a32620a6be1" target="_top" xlink:title=" ">
<polygon fill="white" stroke="black" points="585.5,-76.5 585.5,-95.5 675.5,-95.5 675.5,-76.5 585.5,-76.5"/>
<text text-anchor="middle" x="630.5" y="-83.5" font-family="Helvetica,sans-Serif" font-size="10.00">CompareName</text>
</a>
</g>
</g>
<!-- Node7&#45;&gt;Node8 -->
<g id="edge7" class="edge">
<title>Node7&#45;&gt;Node8</title>
<path fill="none" stroke="midnightblue" d="M496.09,-86C520.94,-86 550.42,-86 575.35,-86"/>
<polygon fill="midnightblue" stroke="midnightblue" points="575.36,-89.5 585.36,-86 575.36,-82.5 575.36,-89.5"/>
</g>
<!-- Node9 -->
<g id="node9" class="node">
<title>Node9</title>
<g id="a_node9"><a xlink:href="pokeyslib_2PoKeysLibCore_8c.html#acb1fdd8f77277dc66c4d037218bfcece" target="_top" xlink:title=" ">
<polygon fill="white" stroke="black" points="586,-38.5 586,-57.5 675,-57.5 675,-38.5 586,-38.5"/>
<text text-anchor="middle" x="630.5" y="-45.5" font-family="Helvetica,sans-Serif" font-size="10.00">CreateRequest</text>
</a>
</g>
</g>
<!-- Node7&#45;&gt;Node9 -->
<g id="edge8" class="edge">
<title>Node7&#45;&gt;Node9</title>
<path fill="none" stroke="midnightblue" d="M489.69,-76.41C515.88,-71.09 548.56,-64.45 575.73,-58.93"/>
<polygon fill="midnightblue" stroke="midnightblue" points="576.75,-62.29 585.86,-56.87 575.36,-55.43 576.75,-62.29"/>
</g>
<!-- Node10 -->
<g id="node10" class="node">
<title>Node10</title>
<g id="a_node10"><a xlink:href="pokeyslib_2PoKeysLibCore_8c.html#ab5d92aa36d0a4a6953a055f5cd960aff" target="_top" xlink:title=" ">
<polygon fill="white" stroke="black" points="590.5,-114.5 590.5,-133.5 670.5,-133.5 670.5,-114.5 590.5,-114.5"/>
<text text-anchor="middle" x="630.5" y="-121.5" font-family="Helvetica,sans-Serif" font-size="10.00">SendRequest</text>
</a>
</g>
</g>
<!-- Node7&#45;&gt;Node10 -->
<g id="edge9" class="edge">
<title>Node7&#45;&gt;Node10</title>
<path fill="none" stroke="midnightblue" d="M489.69,-95.59C517.34,-101.21 552.23,-108.3 580.24,-113.99"/>
<polygon fill="midnightblue" stroke="midnightblue" points="579.72,-117.46 590.22,-116.02 581.12,-110.6 579.72,-117.46"/>
</g>
<!-- Node11 -->
<g id="node11" class="node">
<title>Node11</title>
<g id="a_node11"><a xlink:href="pokeyslib_2PoKeysLibCore_8c.html#a273b6d635dea8f559b915cdb289d021e" target="_top" xlink:title=" ">
<polygon fill="white" stroke="black" points="894.5,-95.5 894.5,-114.5 977.5,-114.5 977.5,-95.5 894.5,-95.5"/>
<text text-anchor="middle" x="936" y="-102.5" font-family="Helvetica,sans-Serif" font-size="10.00">getChecksum</text>
</a>
</g>
</g>
<!-- Node10&#45;&gt;Node11 -->
<g id="edge10" class="edge">
<title>Node10&#45;&gt;Node11</title>
<path fill="none" stroke="midnightblue" d="M670.54,-126.54C714.17,-128.79 786.88,-130.78 849,-124 862.57,-122.52 877.13,-119.76 890.34,-116.8"/>
<polygon fill="midnightblue" stroke="midnightblue" points="891.2,-120.19 900.14,-114.51 889.61,-113.37 891.2,-120.19"/>
</g>
<!-- Node12 -->
<g id="node12" class="node">
<title>Node12</title>
<g id="a_node12"><a xlink:href="group__API.html#ga6b820f3e72097cf7f994e33715dc7af1" target="_top" xlink:title="Read an Input report from a HID device.">
<polygon fill="white" stroke="black" points="771.5,-171.5 771.5,-190.5 830.5,-190.5 830.5,-171.5 771.5,-171.5"/>
<text text-anchor="middle" x="801" y="-178.5" font-family="Helvetica,sans-Serif" font-size="10.00">hid_read</text>
</a>
</g>
</g>
<!-- Node10&#45;&gt;Node12 -->
<g id="edge11" class="edge">
<title>Node10&#45;&gt;Node12</title>
<path fill="none" stroke="midnightblue" d="M659.7,-133.54C687.77,-143.03 731.02,-157.67 762.08,-168.17"/>
<polygon fill="midnightblue" stroke="midnightblue" points="761.11,-171.54 771.7,-171.43 763.35,-164.91 761.11,-171.54"/>
</g>
<!-- Node14 -->
<g id="node14" class="node">
<title>Node14</title>
<g id="a_node14"><a xlink:href="group__API.html#gad14ea48e440cf5066df87cc6488493af" target="_top" xlink:title="Write an Output report to a HID device.">
<polygon fill="white" stroke="black" points="770,-95.5 770,-114.5 832,-114.5 832,-95.5 770,-95.5"/>
<text text-anchor="middle" x="801" y="-102.5" font-family="Helvetica,sans-Serif" font-size="10.00">hid_write</text>
</a>
</g>
</g>
<!-- Node10&#45;&gt;Node14 -->
<g id="edge13" class="edge">
<title>Node10&#45;&gt;Node14</title>
<path fill="none" stroke="midnightblue" d="M670.58,-119.59C697.27,-116.58 732.55,-112.61 759.54,-109.56"/>
<polygon fill="midnightblue" stroke="midnightblue" points="760.26,-113 769.8,-108.41 759.47,-106.05 760.26,-113"/>
</g>
<!-- Node15 -->
<g id="node15" class="node">
<title>Node15</title>
<g id="a_node15"><a xlink:href="pokeyslib_2PoKeysLibCoreSockets_8c.html#a22759fb4024c9081af26ac1bc6541b47" target="_top" xlink:title=" ">
<polygon fill="white" stroke="black" points="753,-57.5 753,-76.5 849,-76.5 849,-57.5 753,-57.5"/>
<text text-anchor="middle" x="801" y="-64.5" font-family="Helvetica,sans-Serif" font-size="10.00">SendEthRequest</text>
</a>
</g>
</g>
<!-- Node10&#45;&gt;Node15 -->
<g id="edge14" class="edge">
<title>Node10&#45;&gt;Node15</title>
<path fill="none" stroke="midnightblue" d="M670.86,-117.54C685.59,-114.53 702.3,-110.4 717,-105 733.98,-98.76 736.59,-93.62 753,-86 757.06,-84.11 761.36,-82.23 765.65,-80.41"/>
<polygon fill="midnightblue" stroke="midnightblue" points="767.01,-83.64 774.92,-76.59 764.34,-77.17 767.01,-83.64"/>
</g>
<!-- Node13 -->
<g id="node13" class="node">
<title>Node13</title>
<g id="a_node13"><a xlink:href="group__API.html#gaa5c9ed5aa290688ffac03343989ad75a" target="_top" xlink:title="Read an Input report from a HID device with timeout.">
<polygon fill="white" stroke="black" points="885,-171.5 885,-190.5 987,-190.5 987,-171.5 885,-171.5"/>
<text text-anchor="middle" x="936" y="-178.5" font-family="Helvetica,sans-Serif" font-size="10.00">hid_read_timeout</text>
</a>
</g>
</g>
<!-- Node12&#45;&gt;Node13 -->
<g id="edge12" class="edge">
<title>Node12&#45;&gt;Node13</title>
<path fill="none" stroke="midnightblue" d="M830.53,-181C843.49,-181 859.35,-181 874.75,-181"/>
<polygon fill="midnightblue" stroke="midnightblue" points="874.77,-184.5 884.77,-181 874.77,-177.5 874.77,-184.5"/>
</g>
<!-- Node15&#45;&gt;Node11 -->
<g id="edge15" class="edge">
<title>Node15&#45;&gt;Node11</title>
<path fill="none" stroke="midnightblue" d="M835.56,-76.59C852.57,-81.45 873.43,-87.41 891.64,-92.61"/>
<polygon fill="midnightblue" stroke="midnightblue" points="890.87,-96.03 901.45,-95.41 892.8,-89.3 890.87,-96.03"/>
</g>
<!-- Node18 -->
<g id="node18" class="node">
<title>Node18</title>
<g id="a_node18"><a xlink:href="pokeyslib_2PoKeysLibIO_8c.html#ae7007ad0d96ba1ff2fadba2101016ce7" target="_top" xlink:title=" ">
<polygon fill="white" stroke="black" points="544,-0.5 544,-19.5 717,-19.5 717,-0.5 544,-0.5"/>
<text text-anchor="middle" x="630.5" y="-7.5" font-family="Helvetica,sans-Serif" font-size="10.00">PK_IsCounterAvailableByDevice</text>
</a>
</g>
</g>
<!-- Node17&#45;&gt;Node18 -->
<g id="edge18" class="edge">
<title>Node17&#45;&gt;Node18</title>
<path fill="none" stroke="midnightblue" d="M504.51,-10C514,-10 523.98,-10 533.99,-10"/>
<polygon fill="midnightblue" stroke="midnightblue" points="533.99,-13.5 543.99,-10 533.99,-6.5 533.99,-13.5"/>
</g>
</g>
</svg>
        <g id="navigator" transform="translate(0 0)" fill="#404254">
                <rect fill="#f2f5e9" fill-opacity="0.5" stroke="#606060" stroke-width=".5" x="0" y="0" width="60" height="60"/>
                <use id="zoomplus" xlink:href="#zoomPlus" x="17" y="9" onmousedown="handleZoom(evt,'in')"/>
                <use id="zoomminus" xlink:href="#zoomMin" x="42" y="9" onmousedown="handleZoom(evt,'out')"/>
                <use id="reset" xlink:href="#resetDef" x="30" y="36" onmousedown="handleReset()"/>
                <g id="arrowUp" xlink:href="#dirArrow" transform="translate(30 24)" onmousedown="handlePan(0,-1)">
                  <use xlink:href="#rim" fill="#404040">
                        <set attributeName="fill" to="#808080" begin="arrowUp.mouseover" end="arrowUp.mouseout"/>
                  </use>
                  <path fill="none" stroke="white" stroke-width="1.5" d="M0,-3.0v7 M-2.5,-0.5L0,-3.0L2.5,-0.5"/>
                </g>
                <g id="arrowRight" xlink:href="#dirArrow" transform="rotate(90) translate(36 -43)" onmousedown="handlePan(1,0)">
                  <use xlink:href="#rim" fill="#404040">
                        <set attributeName="fill" to="#808080" begin="arrowRight.mouseover" end="arrowRight.mouseout"/>
                  </use>
                  <path fill="none" stroke="white" stroke-width="1.5" d="M0,-3.0v7 M-2.5,-0.5L0,-3.0L2.5,-0.5"/>
                </g>
                <g id="arrowDown" xlink:href="#dirArrow" transform="rotate(180) translate(-30 -48)" onmousedown="handlePan(0,1)">
                  <use xlink:href="#rim" fill="#404040">
                        <set attributeName="fill" to="#808080" begin="arrowDown.mouseover" end="arrowDown.mouseout"/>
                  </use>
                  <path fill="none" stroke="white" stroke-width="1.5" d="M0,-3.0v7 M-2.5,-0.5L0,-3.0L2.5,-0.5"/>
                </g>
                <g id="arrowLeft" xlink:href="#dirArrow" transform="rotate(270) translate(-36 17)" onmousedown="handlePan(-1,0)">
                  <use xlink:href="#rim" fill="#404040">
                        <set attributeName="fill" to="#808080" begin="arrowLeft.mouseover" end="arrowLeft.mouseout"/>
                  </use>
                  <path fill="none" stroke="white" stroke-width="1.5" d="M0,-3.0v7 M-2.5,-0.5L0,-3.0L2.5,-0.5"/>
                </g>
        </g>
        <svg viewBox="0 0 15 15" width="100%" height="30px" preserveAspectRatio="xMaxYMin meet">
         <g id="arrow_out" transform="scale(0.3 0.3)">
          <a xlink:href="pokeyslib_2PoKeysLibCore_8c_ae21a3349787cf1f1150186e4858397e6_cgraph_org.svg" target="_base">
           <rect id="button" ry="5" rx="5" y="6" x="6" height="38" width="38"
                fill="#f2f5e9" fill-opacity="0.5" stroke="#606060" stroke-width="1.0"/>
           <path id="arrow"
             d="M 11.500037,31.436501 C 11.940474,20.09759 22.043105,11.32322 32.158766,21.979434 L 37.068811,17.246167 C 37.068811,17.246167 37.088388,32 37.088388,32 L 22.160133,31.978069 C 22.160133,31.978069 26.997745,27.140456 26.997745,27.140456 C 18.528582,18.264221 13.291696,25.230495 11.500037,31.436501 z"
             style="fill:#404040;"/>
          </a>
         </g>
        </svg>
</svg>
