<?xml version="1.0" encoding="UTF-8" standalone="no"?>
<!DOCTYPE svg PUBLIC "-//W3C//DTD SVG 1.1//EN"
 "http://www.w3.org/Graphics/SVG/1.1/DTD/svg11.dtd">
<!-- Generated by graphviz version 2.43.0 (0)
 -->
<!-- Title: PK_PEv2_PulseEngineStateSet Pages: 1 -->
<svg width="567pt" height="142pt"
 viewBox="0.00 0.00 567.00 142.00" xmlns="http://www.w3.org/2000/svg" xmlns:xlink="http://www.w3.org/1999/xlink">
<g id="graph0" class="graph" transform="scale(1 1) rotate(0) translate(4 138)">
<title>PK_PEv2_PulseEngineStateSet</title>
<polygon fill="white" stroke="transparent" points="-4,4 -4,-138 563,-138 563,4 -4,4"/>
<!-- Node1 -->
<g id="node1" class="node">
<title>Node1</title>
<g id="a_node1"><a xlink:title="Change the operating state of the pulse engine.">
<polygon fill="#bfbfbf" stroke="black" points="0,-76.5 0,-95.5 164,-95.5 164,-76.5 0,-76.5"/>
<text text-anchor="middle" x="82" y="-83.5" font-family="Helvetica,sans-Serif" font-size="10.00">PK_PEv2_PulseEngineStateSet</text>
</a>
</g>
</g>
<!-- Node2 -->
<g id="node2" class="node">
<title>Node2</title>
<g id="a_node2"><a xlink:href="pokeyslib_2PoKeysLibCore_8c.html#acb1fdd8f77277dc66c4d037218bfcece" target="_top" xlink:title=" ">
<polygon fill="white" stroke="black" points="200,-95.5 200,-114.5 289,-114.5 289,-95.5 200,-95.5"/>
<text text-anchor="middle" x="244.5" y="-102.5" font-family="Helvetica,sans-Serif" font-size="10.00">CreateRequest</text>
</a>
</g>
</g>
<!-- Node1&#45;&gt;Node2 -->
<g id="edge1" class="edge">
<title>Node1&#45;&gt;Node2</title>
<path fill="none" stroke="midnightblue" d="M163.72,-95.56C172.6,-96.61 181.47,-97.66 189.9,-98.65"/>
<polygon fill="midnightblue" stroke="midnightblue" points="189.59,-102.14 199.93,-99.84 190.41,-95.19 189.59,-102.14"/>
</g>
<!-- Node3 -->
<g id="node3" class="node">
<title>Node3</title>
<g id="a_node3"><a xlink:href="pokeyslib_2PoKeysLibCore_8c.html#ab5d92aa36d0a4a6953a055f5cd960aff" target="_top" xlink:title=" ">
<polygon fill="white" stroke="black" points="204.5,-57.5 204.5,-76.5 284.5,-76.5 284.5,-57.5 204.5,-57.5"/>
<text text-anchor="middle" x="244.5" y="-64.5" font-family="Helvetica,sans-Serif" font-size="10.00">SendRequest</text>
</a>
</g>
</g>
<!-- Node1&#45;&gt;Node3 -->
<g id="edge2" class="edge">
<title>Node1&#45;&gt;Node3</title>
<path fill="none" stroke="midnightblue" d="M163.72,-76.44C174.04,-75.22 184.35,-74 193.96,-72.86"/>
<polygon fill="midnightblue" stroke="midnightblue" points="194.57,-76.32 204.09,-71.67 193.75,-69.36 194.57,-76.32"/>
</g>
<!-- Node4 -->
<g id="node4" class="node">
<title>Node4</title>
<g id="a_node4"><a xlink:href="pokeyslib_2PoKeysLibCore_8c.html#a273b6d635dea8f559b915cdb289d021e" target="_top" xlink:title=" ">
<polygon fill="white" stroke="black" points="466.5,-38.5 466.5,-57.5 549.5,-57.5 549.5,-38.5 466.5,-38.5"/>
<text text-anchor="middle" x="508" y="-45.5" font-family="Helvetica,sans-Serif" font-size="10.00">getChecksum</text>
</a>
</g>
</g>
<!-- Node3&#45;&gt;Node4 -->
<g id="edge3" class="edge">
<title>Node3&#45;&gt;Node4</title>
<path fill="none" stroke="midnightblue" d="M284.67,-69.42C320.32,-71.06 374.36,-72.09 421,-67 434.57,-65.52 449.13,-62.76 462.34,-59.8"/>
<polygon fill="midnightblue" stroke="midnightblue" points="463.2,-63.19 472.14,-57.51 461.61,-56.37 463.2,-63.19"/>
</g>
<!-- Node5 -->
<g id="node5" class="node">
<title>Node5</title>
<g id="a_node5"><a xlink:href="group__API.html#ga6b820f3e72097cf7f994e33715dc7af1" target="_top" xlink:title="Read an Input report from a HID device.">
<polygon fill="white" stroke="black" points="343.5,-114.5 343.5,-133.5 402.5,-133.5 402.5,-114.5 343.5,-114.5"/>
<text text-anchor="middle" x="373" y="-121.5" font-family="Helvetica,sans-Serif" font-size="10.00">hid_read</text>
</a>
</g>
</g>
<!-- Node3&#45;&gt;Node5 -->
<g id="edge4" class="edge">
<title>Node3&#45;&gt;Node5</title>
<path fill="none" stroke="midnightblue" d="M267.66,-76.59C274.51,-79.58 282.08,-82.9 289,-86 306.61,-93.88 326.24,-102.86 341.99,-110.11"/>
<polygon fill="midnightblue" stroke="midnightblue" points="340.69,-113.36 351.24,-114.37 343.62,-107.01 340.69,-113.36"/>
</g>
<!-- Node7 -->
<g id="node7" class="node">
<title>Node7</title>
<g id="a_node7"><a xlink:href="group__API.html#gad14ea48e440cf5066df87cc6488493af" target="_top" xlink:title="Write an Output report to a HID device.">
<polygon fill="white" stroke="black" points="342,-38.5 342,-57.5 404,-57.5 404,-38.5 342,-38.5"/>
<text text-anchor="middle" x="373" y="-45.5" font-family="Helvetica,sans-Serif" font-size="10.00">hid_write</text>
</a>
</g>
</g>
<!-- Node3&#45;&gt;Node7 -->
<g id="edge6" class="edge">
<title>Node3&#45;&gt;Node7</title>
<path fill="none" stroke="midnightblue" d="M284.83,-61.09C299.8,-58.84 316.86,-56.28 331.9,-54.02"/>
<polygon fill="midnightblue" stroke="midnightblue" points="332.57,-57.46 341.94,-52.52 331.53,-50.54 332.57,-57.46"/>
</g>
<!-- Node8 -->
<g id="node8" class="node">
<title>Node8</title>
<g id="a_node8"><a xlink:href="pokeyslib_2PoKeysLibCoreSockets_8c.html#a22759fb4024c9081af26ac1bc6541b47" target="_top" xlink:title=" ">
<polygon fill="white" stroke="black" points="325,-0.5 325,-19.5 421,-19.5 421,-0.5 325,-0.5"/>
<text text-anchor="middle" x="373" y="-7.5" font-family="Helvetica,sans-Serif" font-size="10.00">SendEthRequest</text>
</a>
</g>
</g>
<!-- Node3&#45;&gt;Node8 -->
<g id="edge7" class="edge">
<title>Node3&#45;&gt;Node8</title>
<path fill="none" stroke="midnightblue" d="M264.62,-57.45C280.63,-49.56 304.14,-38.19 325,-29 329.19,-27.15 333.62,-25.27 338.02,-23.45"/>
<polygon fill="midnightblue" stroke="midnightblue" points="339.55,-26.6 347.49,-19.58 336.91,-20.12 339.55,-26.6"/>
</g>
<!-- Node6 -->
<g id="node6" class="node">
<title>Node6</title>
<g id="a_node6"><a xlink:href="group__API.html#gaa5c9ed5aa290688ffac03343989ad75a" target="_top" xlink:title="Read an Input report from a HID device with timeout.">
<polygon fill="white" stroke="black" points="457,-114.5 457,-133.5 559,-133.5 559,-114.5 457,-114.5"/>
<text text-anchor="middle" x="508" y="-121.5" font-family="Helvetica,sans-Serif" font-size="10.00">hid_read_timeout</text>
</a>
</g>
</g>
<!-- Node5&#45;&gt;Node6 -->
<g id="edge5" class="edge">
<title>Node5&#45;&gt;Node6</title>
<path fill="none" stroke="midnightblue" d="M402.53,-124C415.49,-124 431.35,-124 446.75,-124"/>
<polygon fill="midnightblue" stroke="midnightblue" points="446.77,-127.5 456.77,-124 446.77,-120.5 446.77,-127.5"/>
</g>
<!-- Node8&#45;&gt;Node4 -->
<g id="edge8" class="edge">
<title>Node8&#45;&gt;Node4</title>
<path fill="none" stroke="midnightblue" d="M407.56,-19.59C424.57,-24.45 445.43,-30.41 463.64,-35.61"/>
<polygon fill="midnightblue" stroke="midnightblue" points="462.87,-39.03 473.45,-38.41 464.8,-32.3 462.87,-39.03"/>
</g>
</g>
</svg>
