<?xml version="1.0" encoding="UTF-8" standalone="no"?>
<!DOCTYPE svg PUBLIC "-//W3C//DTD SVG 1.1//EN"
 "http://www.w3.org/Graphics/SVG/1.1/DTD/svg11.dtd">
<!-- Generated by graphviz version 2.43.0 (0)
 -->
<!-- Title: PK_InitializeNewDeviceAsync Pages: 1 -->
<svg width="817pt" height="237pt"
 viewBox="0.00 0.00 817.00 237.00" xmlns="http://www.w3.org/2000/svg" xmlns:xlink="http://www.w3.org/1999/xlink">
<g id="graph0" class="graph" transform="scale(1 1) rotate(0) translate(4 233)">
<title>PK_InitializeNewDeviceAsync</title>
<polygon fill="white" stroke="transparent" points="-4,4 -4,-233 813,-233 813,4 -4,4"/>
<!-- Node1 -->
<g id="node1" class="node">
<title>Node1</title>
<g id="a_node1"><a xlink:title=" ">
<polygon fill="#bfbfbf" stroke="black" points="0,-76.5 0,-95.5 161,-95.5 161,-76.5 0,-76.5"/>
<text text-anchor="middle" x="80.5" y="-83.5" font-family="Helvetica,sans-Serif" font-size="10.00">PK_InitializeNewDeviceAsync</text>
</a>
</g>
</g>
<!-- Node2 -->
<g id="node2" class="node">
<title>Node2</title>
<g id="a_node2"><a xlink:href="hal_8h.html#a37b839660591a915940fc471bbb5df4f" target="_top" xlink:title=" ">
<polygon fill="white" stroke="black" points="228.5,-152.5 228.5,-171.5 298.5,-171.5 298.5,-152.5 228.5,-152.5"/>
<text text-anchor="middle" x="263.5" y="-159.5" font-family="Helvetica,sans-Serif" font-size="10.00">hal_malloc</text>
</a>
</g>
</g>
<!-- Node1&#45;&gt;Node2 -->
<g id="edge1" class="edge">
<title>Node1&#45;&gt;Node2</title>
<path fill="none" stroke="midnightblue" d="M98.68,-95.67C120.87,-107.89 160.94,-129 197,-143 203.91,-145.68 211.35,-148.19 218.65,-150.44"/>
<polygon fill="midnightblue" stroke="midnightblue" points="217.88,-153.86 228.46,-153.36 219.87,-147.15 217.88,-153.86"/>
</g>
<!-- Node3 -->
<g id="node3" class="node">
<title>Node3</title>
<g id="a_node3"><a xlink:href="pokeysHal_2PoKeysLibDeviceData_8c.html#a9508e9fcbc964cae1ccdb57f582cb5e1" target="_top" xlink:title="Read device identification and feature set.">
<polygon fill="white" stroke="black" points="209,-114.5 209,-133.5 318,-133.5 318,-114.5 209,-114.5"/>
<text text-anchor="middle" x="263.5" y="-121.5" font-family="Helvetica,sans-Serif" font-size="10.00">PK_DeviceDataGet</text>
</a>
</g>
</g>
<!-- Node1&#45;&gt;Node3 -->
<g id="edge2" class="edge">
<title>Node1&#45;&gt;Node3</title>
<path fill="none" stroke="midnightblue" d="M127.17,-95.59C151.49,-100.69 181.58,-107.01 207.21,-112.39"/>
<polygon fill="midnightblue" stroke="midnightblue" points="206.65,-115.85 217.15,-114.48 208.09,-109 206.65,-115.85"/>
</g>
<!-- Node12 -->
<g id="node12" class="node">
<title>Node12</title>
<g id="a_node12"><a xlink:href="pokeysHal_2PoKeysLibDeviceData_8c.html#ae4798f617a5dd5ebb93c534258cd0eb9" target="_top" xlink:title="Populate PWM pin ID table in the device structure.">
<polygon fill="white" stroke="black" points="197,-76.5 197,-95.5 330,-95.5 330,-76.5 197,-76.5"/>
<text text-anchor="middle" x="263.5" y="-83.5" font-family="Helvetica,sans-Serif" font-size="10.00">PK_FillPWMPinNumbers</text>
</a>
</g>
</g>
<!-- Node1&#45;&gt;Node12 -->
<g id="edge12" class="edge">
<title>Node1&#45;&gt;Node12</title>
<path fill="none" stroke="midnightblue" d="M161.15,-86C169.65,-86 178.27,-86 186.72,-86"/>
<polygon fill="midnightblue" stroke="midnightblue" points="186.92,-89.5 196.92,-86 186.92,-82.5 186.92,-89.5"/>
</g>
<!-- Node13 -->
<g id="node13" class="node">
<title>Node13</title>
<g id="a_node13"><a xlink:href="pokeysHal_2PoKeysLibIO_8c.html#a4397536c30fe3f56eb74b56210839349" target="_top" xlink:title="Check if a pin supports a counter (command 0xC0/0x01).">
<polygon fill="white" stroke="black" points="200.5,-38.5 200.5,-57.5 326.5,-57.5 326.5,-38.5 200.5,-38.5"/>
<text text-anchor="middle" x="263.5" y="-45.5" font-family="Helvetica,sans-Serif" font-size="10.00">PK_IsCounterAvailable</text>
</a>
</g>
</g>
<!-- Node1&#45;&gt;Node13 -->
<g id="edge13" class="edge">
<title>Node1&#45;&gt;Node13</title>
<path fill="none" stroke="midnightblue" d="M127.17,-76.41C151.49,-71.31 181.58,-64.99 207.21,-59.61"/>
<polygon fill="midnightblue" stroke="midnightblue" points="208.09,-63 217.15,-57.52 206.65,-56.15 208.09,-63"/>
</g>
<!-- Node15 -->
<g id="node15" class="node">
<title>Node15</title>
<g id="a_node15"><a xlink:href="rtapi_8h.html#a2432d36976ec87e60c9c92d3c0067182" target="_top" xlink:title=" ">
<polygon fill="white" stroke="black" points="217,-0.5 217,-19.5 310,-19.5 310,-0.5 217,-0.5"/>
<text text-anchor="middle" x="263.5" y="-7.5" font-family="Helvetica,sans-Serif" font-size="10.00">rtapi_print_msg</text>
</a>
</g>
</g>
<!-- Node1&#45;&gt;Node15 -->
<g id="edge15" class="edge">
<title>Node1&#45;&gt;Node15</title>
<path fill="none" stroke="midnightblue" d="M98.68,-76.33C120.87,-64.11 160.94,-43 197,-29 202.94,-26.69 209.28,-24.52 215.58,-22.52"/>
<polygon fill="midnightblue" stroke="midnightblue" points="216.85,-25.79 225.4,-19.53 214.81,-19.09 216.85,-25.79"/>
</g>
<!-- Node4 -->
<g id="node4" class="node">
<title>Node4</title>
<g id="a_node4"><a xlink:href="pokeyslib_2PoKeysLibDeviceData_8c.html#a8fa8788bebd4d9501da88a32620a6be1" target="_top" xlink:title=" ">
<polygon fill="white" stroke="black" points="407.5,-114.5 407.5,-133.5 497.5,-133.5 497.5,-114.5 407.5,-114.5"/>
<text text-anchor="middle" x="452.5" y="-121.5" font-family="Helvetica,sans-Serif" font-size="10.00">CompareName</text>
</a>
</g>
</g>
<!-- Node3&#45;&gt;Node4 -->
<g id="edge3" class="edge">
<title>Node3&#45;&gt;Node4</title>
<path fill="none" stroke="midnightblue" d="M318.09,-124C342.94,-124 372.42,-124 397.35,-124"/>
<polygon fill="midnightblue" stroke="midnightblue" points="397.36,-127.5 407.36,-124 397.36,-120.5 397.36,-127.5"/>
</g>
<!-- Node5 -->
<g id="node5" class="node">
<title>Node5</title>
<g id="a_node5"><a xlink:href="pokeyslib_2PoKeysLibCore_8c.html#acb1fdd8f77277dc66c4d037218bfcece" target="_top" xlink:title=" ">
<polygon fill="white" stroke="black" points="408,-76.5 408,-95.5 497,-95.5 497,-76.5 408,-76.5"/>
<text text-anchor="middle" x="452.5" y="-83.5" font-family="Helvetica,sans-Serif" font-size="10.00">CreateRequest</text>
</a>
</g>
</g>
<!-- Node3&#45;&gt;Node5 -->
<g id="edge4" class="edge">
<title>Node3&#45;&gt;Node5</title>
<path fill="none" stroke="midnightblue" d="M311.69,-114.41C337.88,-109.09 370.56,-102.45 397.73,-96.93"/>
<polygon fill="midnightblue" stroke="midnightblue" points="398.75,-100.29 407.86,-94.87 397.36,-93.43 398.75,-100.29"/>
</g>
<!-- Node6 -->
<g id="node6" class="node">
<title>Node6</title>
<g id="a_node6"><a xlink:href="pokeyslib_2PoKeysLibCore_8c.html#ab5d92aa36d0a4a6953a055f5cd960aff" target="_top" xlink:title=" ">
<polygon fill="white" stroke="black" points="412.5,-152.5 412.5,-171.5 492.5,-171.5 492.5,-152.5 412.5,-152.5"/>
<text text-anchor="middle" x="452.5" y="-159.5" font-family="Helvetica,sans-Serif" font-size="10.00">SendRequest</text>
</a>
</g>
</g>
<!-- Node3&#45;&gt;Node6 -->
<g id="edge5" class="edge">
<title>Node3&#45;&gt;Node6</title>
<path fill="none" stroke="midnightblue" d="M311.69,-133.59C339.34,-139.21 374.23,-146.3 402.24,-151.99"/>
<polygon fill="midnightblue" stroke="midnightblue" points="401.72,-155.46 412.22,-154.02 403.12,-148.6 401.72,-155.46"/>
</g>
<!-- Node7 -->
<g id="node7" class="node">
<title>Node7</title>
<g id="a_node7"><a xlink:href="pokeyslib_2PoKeysLibCore_8c.html#a273b6d635dea8f559b915cdb289d021e" target="_top" xlink:title=" ">
<polygon fill="white" stroke="black" points="716.5,-133.5 716.5,-152.5 799.5,-152.5 799.5,-133.5 716.5,-133.5"/>
<text text-anchor="middle" x="758" y="-140.5" font-family="Helvetica,sans-Serif" font-size="10.00">getChecksum</text>
</a>
</g>
</g>
<!-- Node6&#45;&gt;Node7 -->
<g id="edge6" class="edge">
<title>Node6&#45;&gt;Node7</title>
<path fill="none" stroke="midnightblue" d="M492.54,-164.54C536.17,-166.79 608.88,-168.78 671,-162 684.57,-160.52 699.13,-157.76 712.34,-154.8"/>
<polygon fill="midnightblue" stroke="midnightblue" points="713.2,-158.19 722.14,-152.51 711.61,-151.37 713.2,-158.19"/>
</g>
<!-- Node8 -->
<g id="node8" class="node">
<title>Node8</title>
<g id="a_node8"><a xlink:href="group__API.html#ga6b820f3e72097cf7f994e33715dc7af1" target="_top" xlink:title="Read an Input report from a HID device.">
<polygon fill="white" stroke="black" points="593.5,-209.5 593.5,-228.5 652.5,-228.5 652.5,-209.5 593.5,-209.5"/>
<text text-anchor="middle" x="623" y="-216.5" font-family="Helvetica,sans-Serif" font-size="10.00">hid_read</text>
</a>
</g>
</g>
<!-- Node6&#45;&gt;Node8 -->
<g id="edge7" class="edge">
<title>Node6&#45;&gt;Node8</title>
<path fill="none" stroke="midnightblue" d="M481.7,-171.54C509.77,-181.03 553.02,-195.67 584.08,-206.17"/>
<polygon fill="midnightblue" stroke="midnightblue" points="583.11,-209.54 593.7,-209.43 585.35,-202.91 583.11,-209.54"/>
</g>
<!-- Node10 -->
<g id="node10" class="node">
<title>Node10</title>
<g id="a_node10"><a xlink:href="group__API.html#gad14ea48e440cf5066df87cc6488493af" target="_top" xlink:title="Write an Output report to a HID device.">
<polygon fill="white" stroke="black" points="592,-133.5 592,-152.5 654,-152.5 654,-133.5 592,-133.5"/>
<text text-anchor="middle" x="623" y="-140.5" font-family="Helvetica,sans-Serif" font-size="10.00">hid_write</text>
</a>
</g>
</g>
<!-- Node6&#45;&gt;Node10 -->
<g id="edge9" class="edge">
<title>Node6&#45;&gt;Node10</title>
<path fill="none" stroke="midnightblue" d="M492.58,-157.59C519.27,-154.58 554.55,-150.61 581.54,-147.56"/>
<polygon fill="midnightblue" stroke="midnightblue" points="582.26,-151 591.8,-146.41 581.47,-144.05 582.26,-151"/>
</g>
<!-- Node11 -->
<g id="node11" class="node">
<title>Node11</title>
<g id="a_node11"><a xlink:href="pokeyslib_2PoKeysLibCoreSockets_8c.html#a22759fb4024c9081af26ac1bc6541b47" target="_top" xlink:title=" ">
<polygon fill="white" stroke="black" points="575,-95.5 575,-114.5 671,-114.5 671,-95.5 575,-95.5"/>
<text text-anchor="middle" x="623" y="-102.5" font-family="Helvetica,sans-Serif" font-size="10.00">SendEthRequest</text>
</a>
</g>
</g>
<!-- Node6&#45;&gt;Node11 -->
<g id="edge10" class="edge">
<title>Node6&#45;&gt;Node11</title>
<path fill="none" stroke="midnightblue" d="M492.86,-155.54C507.59,-152.53 524.3,-148.4 539,-143 555.98,-136.76 558.59,-131.62 575,-124 579.06,-122.11 583.36,-120.23 587.65,-118.41"/>
<polygon fill="midnightblue" stroke="midnightblue" points="589.01,-121.64 596.92,-114.59 586.34,-115.17 589.01,-121.64"/>
</g>
<!-- Node9 -->
<g id="node9" class="node">
<title>Node9</title>
<g id="a_node9"><a xlink:href="group__API.html#gaa5c9ed5aa290688ffac03343989ad75a" target="_top" xlink:title="Read an Input report from a HID device with timeout.">
<polygon fill="white" stroke="black" points="707,-209.5 707,-228.5 809,-228.5 809,-209.5 707,-209.5"/>
<text text-anchor="middle" x="758" y="-216.5" font-family="Helvetica,sans-Serif" font-size="10.00">hid_read_timeout</text>
</a>
</g>
</g>
<!-- Node8&#45;&gt;Node9 -->
<g id="edge8" class="edge">
<title>Node8&#45;&gt;Node9</title>
<path fill="none" stroke="midnightblue" d="M652.53,-219C665.49,-219 681.35,-219 696.75,-219"/>
<polygon fill="midnightblue" stroke="midnightblue" points="696.77,-222.5 706.77,-219 696.77,-215.5 696.77,-222.5"/>
</g>
<!-- Node11&#45;&gt;Node7 -->
<g id="edge11" class="edge">
<title>Node11&#45;&gt;Node7</title>
<path fill="none" stroke="midnightblue" d="M657.56,-114.59C674.57,-119.45 695.43,-125.41 713.64,-130.61"/>
<polygon fill="midnightblue" stroke="midnightblue" points="712.87,-134.03 723.45,-133.41 714.8,-127.3 712.87,-134.03"/>
</g>
<!-- Node14 -->
<g id="node14" class="node">
<title>Node14</title>
<g id="a_node14"><a xlink:href="pokeyslib_2PoKeysLibIO_8c.html#ae7007ad0d96ba1ff2fadba2101016ce7" target="_top" xlink:title=" ">
<polygon fill="white" stroke="black" points="366,-38.5 366,-57.5 539,-57.5 539,-38.5 366,-38.5"/>
<text text-anchor="middle" x="452.5" y="-45.5" font-family="Helvetica,sans-Serif" font-size="10.00">PK_IsCounterAvailableByDevice</text>
</a>
</g>
</g>
<!-- Node13&#45;&gt;Node14 -->
<g id="edge14" class="edge">
<title>Node13&#45;&gt;Node14</title>
<path fill="none" stroke="midnightblue" d="M326.51,-48C336,-48 345.98,-48 355.99,-48"/>
<polygon fill="midnightblue" stroke="midnightblue" points="355.99,-51.5 365.99,-48 355.99,-44.5 355.99,-51.5"/>
</g>
</g>
</svg>
