<?xml version="1.0" encoding="UTF-8" standalone="no"?>
<!DOCTYPE svg PUBLIC "-//W3C//DTD SVG 1.1//EN"
 "http://www.w3.org/Graphics/SVG/1.1/DTD/svg11.dtd">
<!-- Generated by graphviz version 2.43.0 (0)
 -->
<!-- Title: PK_PoILWriteMemory Pages: 1 -->
<svg width="556pt" height="161pt"
 viewBox="0.00 0.00 556.00 161.00" xmlns="http://www.w3.org/2000/svg" xmlns:xlink="http://www.w3.org/1999/xlink">
<g id="graph0" class="graph" transform="scale(1 1) rotate(0) translate(4 157)">
<title>PK_PoILWriteMemory</title>
<polygon fill="white" stroke="transparent" points="-4,4 -4,-157 552,-157 552,4 -4,4"/>
<!-- Node1 -->
<g id="node1" class="node">
<title>Node1</title>
<g id="a_node1"><a xlink:title=" ">
<polygon fill="#bfbfbf" stroke="black" points="0,-95.5 0,-114.5 121,-114.5 121,-95.5 0,-95.5"/>
<text text-anchor="middle" x="60.5" y="-102.5" font-family="Helvetica,sans-Serif" font-size="10.00">PK_PoILWriteMemory</text>
</a>
</g>
</g>
<!-- Node2 -->
<g id="node2" class="node">
<title>Node2</title>
<g id="a_node2"><a xlink:href="pokeyslib_2PoKeysLibCore_8c.html#acb1fdd8f77277dc66c4d037218bfcece" target="_top" xlink:title=" ">
<polygon fill="white" stroke="black" points="173,-133.5 173,-152.5 262,-152.5 262,-133.5 173,-133.5"/>
<text text-anchor="middle" x="217.5" y="-140.5" font-family="Helvetica,sans-Serif" font-size="10.00">CreateRequest</text>
</a>
</g>
</g>
<!-- Node1&#45;&gt;Node2 -->
<g id="edge1" class="edge">
<title>Node1&#45;&gt;Node2</title>
<path fill="none" stroke="midnightblue" d="M100.61,-114.59C120.97,-119.58 146.07,-125.73 167.69,-131.03"/>
<polygon fill="midnightblue" stroke="midnightblue" points="167.12,-134.5 177.67,-133.48 168.79,-127.7 167.12,-134.5"/>
</g>
<!-- Node3 -->
<g id="node3" class="node">
<title>Node3</title>
<g id="a_node3"><a xlink:href="pokeyslib_2PoKeysLibPoIL_8c.html#a0e13011c9b8da6a094e7cf4d895e3038" target="_top" xlink:title=" ">
<polygon fill="white" stroke="black" points="157,-95.5 157,-114.5 278,-114.5 278,-95.5 157,-95.5"/>
<text text-anchor="middle" x="217.5" y="-102.5" font-family="Helvetica,sans-Serif" font-size="10.00">PK_PoILWriteMemory</text>
</a>
</g>
</g>
<!-- Node1&#45;&gt;Node3 -->
<g id="edge2" class="edge">
<title>Node1&#45;&gt;Node3</title>
<path fill="none" stroke="midnightblue" d="M121.43,-105C129.72,-105 138.31,-105 146.76,-105"/>
<polygon fill="midnightblue" stroke="midnightblue" points="146.99,-108.5 156.99,-105 146.99,-101.5 146.99,-108.5"/>
</g>
<!-- Node4 -->
<g id="node4" class="node">
<title>Node4</title>
<g id="a_node4"><a xlink:href="pokeyslib_2PoKeysLibCore_8c.html#ab5d92aa36d0a4a6953a055f5cd960aff" target="_top" xlink:title=" ">
<polygon fill="white" stroke="black" points="177.5,-57.5 177.5,-76.5 257.5,-76.5 257.5,-57.5 177.5,-57.5"/>
<text text-anchor="middle" x="217.5" y="-64.5" font-family="Helvetica,sans-Serif" font-size="10.00">SendRequest</text>
</a>
</g>
</g>
<!-- Node1&#45;&gt;Node4 -->
<g id="edge3" class="edge">
<title>Node1&#45;&gt;Node4</title>
<path fill="none" stroke="midnightblue" d="M100.61,-95.41C120.97,-90.42 146.07,-84.27 167.69,-78.97"/>
<polygon fill="midnightblue" stroke="midnightblue" points="168.79,-82.3 177.67,-76.52 167.12,-75.5 168.79,-82.3"/>
</g>
<!-- Node5 -->
<g id="node5" class="node">
<title>Node5</title>
<g id="a_node5"><a xlink:href="pokeyslib_2PoKeysLibCore_8c.html#a273b6d635dea8f559b915cdb289d021e" target="_top" xlink:title=" ">
<polygon fill="white" stroke="black" points="455.5,-38.5 455.5,-57.5 538.5,-57.5 538.5,-38.5 455.5,-38.5"/>
<text text-anchor="middle" x="497" y="-45.5" font-family="Helvetica,sans-Serif" font-size="10.00">getChecksum</text>
</a>
</g>
</g>
<!-- Node4&#45;&gt;Node5 -->
<g id="edge4" class="edge">
<title>Node4&#45;&gt;Node5</title>
<path fill="none" stroke="midnightblue" d="M257.51,-69.47C296.3,-71.35 357.45,-72.74 410,-67 423.57,-65.52 438.13,-62.76 451.34,-59.8"/>
<polygon fill="midnightblue" stroke="midnightblue" points="452.2,-63.19 461.14,-57.51 450.61,-56.37 452.2,-63.19"/>
</g>
<!-- Node6 -->
<g id="node6" class="node">
<title>Node6</title>
<g id="a_node6"><a xlink:href="group__API.html#ga6b820f3e72097cf7f994e33715dc7af1" target="_top" xlink:title="Read an Input report from a HID device.">
<polygon fill="white" stroke="black" points="332.5,-114.5 332.5,-133.5 391.5,-133.5 391.5,-114.5 332.5,-114.5"/>
<text text-anchor="middle" x="362" y="-121.5" font-family="Helvetica,sans-Serif" font-size="10.00">hid_read</text>
</a>
</g>
</g>
<!-- Node4&#45;&gt;Node6 -->
<g id="edge5" class="edge">
<title>Node4&#45;&gt;Node6</title>
<path fill="none" stroke="midnightblue" d="M250.86,-76.56C259.73,-79.39 269.3,-82.63 278,-86 296.48,-93.15 316.71,-102.38 332.57,-109.96"/>
<polygon fill="midnightblue" stroke="midnightblue" points="331.3,-113.23 341.83,-114.42 334.34,-106.93 331.3,-113.23"/>
</g>
<!-- Node8 -->
<g id="node8" class="node">
<title>Node8</title>
<g id="a_node8"><a xlink:href="group__API.html#gad14ea48e440cf5066df87cc6488493af" target="_top" xlink:title="Write an Output report to a HID device.">
<polygon fill="white" stroke="black" points="331,-38.5 331,-57.5 393,-57.5 393,-38.5 331,-38.5"/>
<text text-anchor="middle" x="362" y="-45.5" font-family="Helvetica,sans-Serif" font-size="10.00">hid_write</text>
</a>
</g>
</g>
<!-- Node4&#45;&gt;Node8 -->
<g id="edge7" class="edge">
<title>Node4&#45;&gt;Node8</title>
<path fill="none" stroke="midnightblue" d="M257.82,-61.76C277.46,-59.14 301.18,-55.98 320.93,-53.34"/>
<polygon fill="midnightblue" stroke="midnightblue" points="321.4,-56.81 330.85,-52.02 320.48,-49.87 321.4,-56.81"/>
</g>
<!-- Node9 -->
<g id="node9" class="node">
<title>Node9</title>
<g id="a_node9"><a xlink:href="pokeyslib_2PoKeysLibCoreSockets_8c.html#a22759fb4024c9081af26ac1bc6541b47" target="_top" xlink:title=" ">
<polygon fill="white" stroke="black" points="314,-0.5 314,-19.5 410,-19.5 410,-0.5 314,-0.5"/>
<text text-anchor="middle" x="362" y="-7.5" font-family="Helvetica,sans-Serif" font-size="10.00">SendEthRequest</text>
</a>
</g>
</g>
<!-- Node4&#45;&gt;Node9 -->
<g id="edge8" class="edge">
<title>Node4&#45;&gt;Node9</title>
<path fill="none" stroke="midnightblue" d="M242.35,-57.46C265.68,-48.13 301.4,-33.84 327.56,-23.38"/>
<polygon fill="midnightblue" stroke="midnightblue" points="329.09,-26.54 337.07,-19.57 326.49,-20.04 329.09,-26.54"/>
</g>
<!-- Node7 -->
<g id="node7" class="node">
<title>Node7</title>
<g id="a_node7"><a xlink:href="group__API.html#gaa5c9ed5aa290688ffac03343989ad75a" target="_top" xlink:title="Read an Input report from a HID device with timeout.">
<polygon fill="white" stroke="black" points="446,-114.5 446,-133.5 548,-133.5 548,-114.5 446,-114.5"/>
<text text-anchor="middle" x="497" y="-121.5" font-family="Helvetica,sans-Serif" font-size="10.00">hid_read_timeout</text>
</a>
</g>
</g>
<!-- Node6&#45;&gt;Node7 -->
<g id="edge6" class="edge">
<title>Node6&#45;&gt;Node7</title>
<path fill="none" stroke="midnightblue" d="M391.53,-124C404.49,-124 420.35,-124 435.75,-124"/>
<polygon fill="midnightblue" stroke="midnightblue" points="435.77,-127.5 445.77,-124 435.77,-120.5 435.77,-127.5"/>
</g>
<!-- Node9&#45;&gt;Node5 -->
<g id="edge9" class="edge">
<title>Node9&#45;&gt;Node5</title>
<path fill="none" stroke="midnightblue" d="M396.56,-19.59C413.57,-24.45 434.43,-30.41 452.64,-35.61"/>
<polygon fill="midnightblue" stroke="midnightblue" points="451.87,-39.03 462.45,-38.41 453.8,-32.3 451.87,-39.03"/>
</g>
</g>
</svg>
