<?xml version="1.0" encoding="UTF-8" standalone="no"?>
<!DOCTYPE svg PUBLIC "-//W3C//DTD SVG 1.1//EN"
 "http://www.w3.org/Graphics/SVG/1.1/DTD/svg11.dtd">
<!-- Generated by graphviz version 2.43.0 (0)
 -->
<!-- Title: PK_PoILGetState Pages: 1 -->
<svg width="566pt" height="161pt"
 viewBox="0.00 0.00 566.00 161.00" xmlns="http://www.w3.org/2000/svg" xmlns:xlink="http://www.w3.org/1999/xlink">
<g id="graph0" class="graph" transform="scale(1 1) rotate(0) translate(4 157)">
<title>PK_PoILGetState</title>
<polygon fill="white" stroke="transparent" points="-4,4 -4,-157 562,-157 562,4 -4,4"/>
<!-- Node1 -->
<g id="node1" class="node">
<title>Node1</title>
<g id="a_node1"><a xlink:title=" ">
<polygon fill="#bfbfbf" stroke="black" points="0,-95.5 0,-114.5 98,-114.5 98,-95.5 0,-95.5"/>
<text text-anchor="middle" x="49" y="-102.5" font-family="Helvetica,sans-Serif" font-size="10.00">PK_PoILGetState</text>
</a>
</g>
</g>
<!-- Node2 -->
<g id="node2" class="node">
<title>Node2</title>
<g id="a_node2"><a xlink:href="pokeyslib_2PoKeysLibCore_8c.html#acb1fdd8f77277dc66c4d037218bfcece" target="_top" xlink:title=" ">
<polygon fill="white" stroke="black" points="166.5,-133.5 166.5,-152.5 255.5,-152.5 255.5,-133.5 166.5,-133.5"/>
<text text-anchor="middle" x="211" y="-140.5" font-family="Helvetica,sans-Serif" font-size="10.00">CreateRequest</text>
</a>
</g>
</g>
<!-- Node1&#45;&gt;Node2 -->
<g id="edge1" class="edge">
<title>Node1&#45;&gt;Node2</title>
<path fill="none" stroke="midnightblue" d="M90.37,-114.59C111.49,-119.6 137.53,-125.79 159.92,-131.11"/>
<polygon fill="midnightblue" stroke="midnightblue" points="159.38,-134.57 169.92,-133.48 160.99,-127.76 159.38,-134.57"/>
</g>
<!-- Node3 -->
<g id="node3" class="node">
<title>Node3</title>
<g id="a_node3"><a xlink:href="pokeyslib_2PoKeysLibPoIL_8c.html#ae029541616c99eb75d662954239371eb" target="_top" xlink:title=" ">
<polygon fill="white" stroke="black" points="134,-95.5 134,-114.5 288,-114.5 288,-95.5 134,-95.5"/>
<text text-anchor="middle" x="211" y="-102.5" font-family="Helvetica,sans-Serif" font-size="10.00">PK_ParsePoILStateResponse</text>
</a>
</g>
</g>
<!-- Node1&#45;&gt;Node3 -->
<g id="edge2" class="edge">
<title>Node1&#45;&gt;Node3</title>
<path fill="none" stroke="midnightblue" d="M98.01,-105C106.23,-105 115,-105 123.87,-105"/>
<polygon fill="midnightblue" stroke="midnightblue" points="123.9,-108.5 133.9,-105 123.9,-101.5 123.9,-108.5"/>
</g>
<!-- Node4 -->
<g id="node4" class="node">
<title>Node4</title>
<g id="a_node4"><a xlink:href="pokeyslib_2PoKeysLibCore_8c.html#ab5d92aa36d0a4a6953a055f5cd960aff" target="_top" xlink:title=" ">
<polygon fill="white" stroke="black" points="171,-57.5 171,-76.5 251,-76.5 251,-57.5 171,-57.5"/>
<text text-anchor="middle" x="211" y="-64.5" font-family="Helvetica,sans-Serif" font-size="10.00">SendRequest</text>
</a>
</g>
</g>
<!-- Node1&#45;&gt;Node4 -->
<g id="edge3" class="edge">
<title>Node1&#45;&gt;Node4</title>
<path fill="none" stroke="midnightblue" d="M90.37,-95.41C111.83,-90.32 138.36,-84.01 160.99,-78.64"/>
<polygon fill="midnightblue" stroke="midnightblue" points="161.82,-82.04 170.74,-76.32 160.21,-75.23 161.82,-82.04"/>
</g>
<!-- Node5 -->
<g id="node5" class="node">
<title>Node5</title>
<g id="a_node5"><a xlink:href="pokeyslib_2PoKeysLibCore_8c.html#a273b6d635dea8f559b915cdb289d021e" target="_top" xlink:title=" ">
<polygon fill="white" stroke="black" points="465.5,-38.5 465.5,-57.5 548.5,-57.5 548.5,-38.5 465.5,-38.5"/>
<text text-anchor="middle" x="507" y="-45.5" font-family="Helvetica,sans-Serif" font-size="10.00">getChecksum</text>
</a>
</g>
</g>
<!-- Node4&#45;&gt;Node5 -->
<g id="edge4" class="edge">
<title>Node4&#45;&gt;Node5</title>
<path fill="none" stroke="midnightblue" d="M251.24,-69.53C293.16,-71.64 361.49,-73.39 420,-67 433.57,-65.52 448.13,-62.76 461.34,-59.8"/>
<polygon fill="midnightblue" stroke="midnightblue" points="462.2,-63.19 471.14,-57.51 460.61,-56.37 462.2,-63.19"/>
</g>
<!-- Node6 -->
<g id="node6" class="node">
<title>Node6</title>
<g id="a_node6"><a xlink:href="group__API.html#ga6b820f3e72097cf7f994e33715dc7af1" target="_top" xlink:title="Read an Input report from a HID device.">
<polygon fill="white" stroke="black" points="342.5,-114.5 342.5,-133.5 401.5,-133.5 401.5,-114.5 342.5,-114.5"/>
<text text-anchor="middle" x="372" y="-121.5" font-family="Helvetica,sans-Serif" font-size="10.00">hid_read</text>
</a>
</g>
</g>
<!-- Node4&#45;&gt;Node6 -->
<g id="edge5" class="edge">
<title>Node4&#45;&gt;Node6</title>
<path fill="none" stroke="midnightblue" d="M251.07,-75.31C263.06,-78.24 276.19,-81.86 288,-86 306.95,-92.64 327.47,-102.02 343.37,-109.79"/>
<polygon fill="midnightblue" stroke="midnightblue" points="342.1,-113.07 352.62,-114.39 345.22,-106.81 342.1,-113.07"/>
</g>
<!-- Node8 -->
<g id="node8" class="node">
<title>Node8</title>
<g id="a_node8"><a xlink:href="group__API.html#gad14ea48e440cf5066df87cc6488493af" target="_top" xlink:title="Write an Output report to a HID device.">
<polygon fill="white" stroke="black" points="341,-38.5 341,-57.5 403,-57.5 403,-38.5 341,-38.5"/>
<text text-anchor="middle" x="372" y="-45.5" font-family="Helvetica,sans-Serif" font-size="10.00">hid_write</text>
</a>
</g>
</g>
<!-- Node4&#45;&gt;Node8 -->
<g id="edge7" class="edge">
<title>Node4&#45;&gt;Node8</title>
<path fill="none" stroke="midnightblue" d="M251.3,-62.3C275.52,-59.41 306.5,-55.71 330.87,-52.8"/>
<polygon fill="midnightblue" stroke="midnightblue" points="331.36,-56.26 340.87,-51.6 330.53,-49.31 331.36,-56.26"/>
</g>
<!-- Node9 -->
<g id="node9" class="node">
<title>Node9</title>
<g id="a_node9"><a xlink:href="pokeyslib_2PoKeysLibCoreSockets_8c.html#a22759fb4024c9081af26ac1bc6541b47" target="_top" xlink:title=" ">
<polygon fill="white" stroke="black" points="324,-0.5 324,-19.5 420,-19.5 420,-0.5 324,-0.5"/>
<text text-anchor="middle" x="372" y="-7.5" font-family="Helvetica,sans-Serif" font-size="10.00">SendEthRequest</text>
</a>
</g>
</g>
<!-- Node4&#45;&gt;Node9 -->
<g id="edge8" class="edge">
<title>Node4&#45;&gt;Node9</title>
<path fill="none" stroke="midnightblue" d="M238.61,-57.46C264.98,-48.01 305.56,-33.46 334.84,-22.96"/>
<polygon fill="midnightblue" stroke="midnightblue" points="336.07,-26.24 344.3,-19.57 333.71,-19.65 336.07,-26.24"/>
</g>
<!-- Node7 -->
<g id="node7" class="node">
<title>Node7</title>
<g id="a_node7"><a xlink:href="group__API.html#gaa5c9ed5aa290688ffac03343989ad75a" target="_top" xlink:title="Read an Input report from a HID device with timeout.">
<polygon fill="white" stroke="black" points="456,-114.5 456,-133.5 558,-133.5 558,-114.5 456,-114.5"/>
<text text-anchor="middle" x="507" y="-121.5" font-family="Helvetica,sans-Serif" font-size="10.00">hid_read_timeout</text>
</a>
</g>
</g>
<!-- Node6&#45;&gt;Node7 -->
<g id="edge6" class="edge">
<title>Node6&#45;&gt;Node7</title>
<path fill="none" stroke="midnightblue" d="M401.53,-124C414.49,-124 430.35,-124 445.75,-124"/>
<polygon fill="midnightblue" stroke="midnightblue" points="445.77,-127.5 455.77,-124 445.77,-120.5 445.77,-127.5"/>
</g>
<!-- Node9&#45;&gt;Node5 -->
<g id="edge9" class="edge">
<title>Node9&#45;&gt;Node5</title>
<path fill="none" stroke="midnightblue" d="M406.56,-19.59C423.57,-24.45 444.43,-30.41 462.64,-35.61"/>
<polygon fill="midnightblue" stroke="midnightblue" points="461.87,-39.03 472.45,-38.41 463.8,-32.3 461.87,-39.03"/>
</g>
</g>
</svg>
