<?xml version="1.0" encoding="UTF-8" standalone="no"?>
<!DOCTYPE svg PUBLIC "-//W3C//DTD SVG 1.1//EN"
 "http://www.w3.org/Graphics/SVG/1.1/DTD/svg11.dtd">
<!-- Generated by graphviz version 2.43.0 (0)
 -->
<!-- Title: /home/cnc/actions&#45;runner/_work/LinuxCnc_PokeysLibComp/LinuxCnc_PokeysLibComp/pokeys_uspace/pokeys.c Pages: 1 -->
<svg width="1377pt" height="296pt"
 viewBox="0.00 0.00 1376.50 296.00" xmlns="http://www.w3.org/2000/svg" xmlns:xlink="http://www.w3.org/1999/xlink">
<g id="graph0" class="graph" transform="scale(1 1) rotate(0) translate(4 292)">
<title>/home/cnc/actions&#45;runner/_work/LinuxCnc_PokeysLibComp/LinuxCnc_PokeysLibComp/pokeys_uspace/pokeys.c</title>
<polygon fill="white" stroke="transparent" points="-4,4 -4,-292 1372.5,-292 1372.5,4 -4,4"/>
<!-- Node1 -->
<g id="node1" class="node">
<title>Node1</title>
<g id="a_node1"><a xlink:title="HAL component for integrating PoKeys57 devices with LinuxCNC.">
<polygon fill="#bfbfbf" stroke="black" points="629.5,-235.5 629.5,-287.5 813.5,-287.5 813.5,-235.5 629.5,-235.5"/>
<text text-anchor="start" x="637.5" y="-275.5" font-family="Helvetica,sans-Serif" font-size="10.00">/home/cnc/actions&#45;runner</text>
<text text-anchor="start" x="637.5" y="-264.5" font-family="Helvetica,sans-Serif" font-size="10.00">/_work/LinuxCnc_PokeysLibComp</text>
<text text-anchor="start" x="637.5" y="-253.5" font-family="Helvetica,sans-Serif" font-size="10.00">/LinuxCnc_PokeysLibComp/pokeys</text>
<text text-anchor="middle" x="721.5" y="-242.5" font-family="Helvetica,sans-Serif" font-size="10.00">_uspace/pokeys.c</text>
</a>
</g>
</g>
<!-- Node2 -->
<g id="node2" class="node">
<title>Node2</title>
<g id="a_node2"><a xlink:href="rtapi_8h.html" target="_top" xlink:title=" ">
<polygon fill="white" stroke="black" points="647.5,-56.5 647.5,-75.5 695.5,-75.5 695.5,-56.5 647.5,-56.5"/>
<text text-anchor="middle" x="671.5" y="-63.5" font-family="Helvetica,sans-Serif" font-size="10.00">rtapi.h</text>
</a>
</g>
</g>
<!-- Node1&#45;&gt;Node2 -->
<g id="edge1" class="edge">
<title>Node1&#45;&gt;Node2</title>
<path fill="none" stroke="midnightblue" d="M813.57,-252.91C849.17,-244.95 886.56,-229.31 908.5,-199 913.71,-191.8 910.14,-187.74 908.5,-179 902.62,-147.6 906.92,-132.59 882.5,-112 821.13,-60.24 783.67,-94.28 705.5,-76 705.4,-75.98 705.3,-75.95 705.2,-75.93"/>
<polygon fill="midnightblue" stroke="midnightblue" points="706.15,-72.56 695.6,-73.57 704.48,-79.36 706.15,-72.56"/>
</g>
<!-- Node6 -->
<g id="node6" class="node">
<title>Node6</title>
<g id="a_node6"><a xlink:href="rtapi__string_8h.html" target="_top" xlink:title=" ">
<polygon fill="white" stroke="black" points="130,-118 130,-137 211,-137 211,-118 130,-118"/>
<text text-anchor="middle" x="170.5" y="-125" font-family="Helvetica,sans-Serif" font-size="10.00">rtapi_string.h</text>
</a>
</g>
</g>
<!-- Node1&#45;&gt;Node6 -->
<g id="edge5" class="edge">
<title>Node1&#45;&gt;Node6</title>
<path fill="none" stroke="midnightblue" d="M629.35,-257.42C505.33,-251.88 292.54,-237.01 225.5,-199 204.25,-186.95 188.35,-163.08 179.24,-146.47"/>
<polygon fill="midnightblue" stroke="midnightblue" points="182.17,-144.51 174.47,-137.24 175.95,-147.73 182.17,-144.51"/>
</g>
<!-- Node9 -->
<g id="node9" class="node">
<title>Node9</title>
<g id="a_node9"><a xlink:href="rtapi__errno_8h.html" target="_top" xlink:title=" ">
<polygon fill="white" stroke="black" points="927,-56.5 927,-75.5 1006,-75.5 1006,-56.5 927,-56.5"/>
<text text-anchor="middle" x="966.5" y="-63.5" font-family="Helvetica,sans-Serif" font-size="10.00">rtapi_errno.h</text>
</a>
</g>
</g>
<!-- Node1&#45;&gt;Node9 -->
<g id="edge9" class="edge">
<title>Node1&#45;&gt;Node9</title>
<path fill="none" stroke="midnightblue" d="M813.5,-248.21C850.84,-239.47 892.4,-224.52 923.5,-199 957.71,-170.92 964.97,-115.21 966.34,-85.95"/>
<polygon fill="midnightblue" stroke="midnightblue" points="969.84,-85.92 966.62,-75.83 962.84,-85.73 969.84,-85.92"/>
</g>
<!-- Node11 -->
<g id="node11" class="node">
<title>Node11</title>
<g id="a_node11"><a xlink:href="hal_8h.html" target="_top" xlink:title=" ">
<polygon fill="white" stroke="black" points="686,-118 686,-137 727,-137 727,-118 686,-118"/>
<text text-anchor="middle" x="706.5" y="-125" font-family="Helvetica,sans-Serif" font-size="10.00">hal.h</text>
</a>
</g>
</g>
<!-- Node1&#45;&gt;Node11 -->
<g id="edge11" class="edge">
<title>Node1&#45;&gt;Node11</title>
<path fill="none" stroke="midnightblue" d="M718.64,-235.36C715.72,-209.64 711.25,-170.26 708.62,-147.17"/>
<polygon fill="midnightblue" stroke="midnightblue" points="712.07,-146.55 707.47,-137.01 705.12,-147.35 712.07,-146.55"/>
</g>
<!-- Node16 -->
<g id="node16" class="node">
<title>Node16</title>
<g id="a_node16"><a xlink:href="rtapi__math64_8h.html" target="_top" xlink:title=" ">
<polygon fill="white" stroke="black" points="1006,-118 1006,-137 1097,-137 1097,-118 1006,-118"/>
<text text-anchor="middle" x="1051.5" y="-125" font-family="Helvetica,sans-Serif" font-size="10.00">rtapi_math64.h</text>
</a>
</g>
</g>
<!-- Node1&#45;&gt;Node16 -->
<g id="edge18" class="edge">
<title>Node1&#45;&gt;Node16</title>
<path fill="none" stroke="midnightblue" d="M813.78,-257C871.79,-250.95 945.9,-235.83 1001.5,-199 1021,-186.08 1035.29,-162.76 1043.48,-146.49"/>
<polygon fill="midnightblue" stroke="midnightblue" points="1046.86,-147.54 1047.98,-137 1040.54,-144.54 1046.86,-147.54"/>
</g>
<!-- Node17 -->
<g id="node17" class="node">
<title>Node17</title>
<g id="a_node17"><a xlink:title=" ">
<polygon fill="white" stroke="#bfbfbf" points="1312.5,-179.5 1312.5,-198.5 1368.5,-198.5 1368.5,-179.5 1312.5,-179.5"/>
<text text-anchor="middle" x="1340.5" y="-186.5" font-family="Helvetica,sans-Serif" font-size="10.00">unistd.h</text>
</a>
</g>
</g>
<!-- Node1&#45;&gt;Node17 -->
<g id="edge20" class="edge">
<title>Node1&#45;&gt;Node17</title>
<path fill="none" stroke="midnightblue" d="M813.5,-254.58C926.53,-246.46 1124.19,-229.48 1302.22,-199.01"/>
<polygon fill="midnightblue" stroke="midnightblue" points="1303.04,-202.42 1312.3,-197.27 1301.85,-195.53 1303.04,-202.42"/>
</g>
<!-- Node18 -->
<g id="node18" class="node">
<title>Node18</title>
<g id="a_node18"><a xlink:href="PoKeysLib_8h.html" target="_top" xlink:title=" ">
<polygon fill="white" stroke="black" points="516,-118 516,-137 591,-137 591,-118 516,-118"/>
<text text-anchor="middle" x="553.5" y="-125" font-family="Helvetica,sans-Serif" font-size="10.00">PoKeysLib.h</text>
</a>
</g>
</g>
<!-- Node1&#45;&gt;Node18 -->
<g id="edge21" class="edge">
<title>Node1&#45;&gt;Node18</title>
<path fill="none" stroke="midnightblue" d="M629.48,-254.66C549.15,-247.41 441.33,-231.74 414.5,-199 385.56,-163.68 455.17,-144.29 505.98,-135.18"/>
<polygon fill="midnightblue" stroke="midnightblue" points="506.59,-138.63 515.86,-133.49 505.41,-131.73 506.59,-138.63"/>
</g>
<!-- Node20 -->
<g id="node20" class="node">
<title>Node20</title>
<g id="a_node20"><a xlink:href="PoKeysComp_8h.html" target="_top" xlink:title="Main header file for the PoKeys HAL component in LinuxCNC.">
<polygon fill="white" stroke="black" points="784,-118 784,-137 873,-137 873,-118 784,-118"/>
<text text-anchor="middle" x="828.5" y="-125" font-family="Helvetica,sans-Serif" font-size="10.00">PoKeysComp.h</text>
</a>
</g>
</g>
<!-- Node1&#45;&gt;Node20 -->
<g id="edge23" class="edge">
<title>Node1&#45;&gt;Node20</title>
<path fill="none" stroke="midnightblue" d="M813.94,-248.7C843.99,-239.99 874.26,-224.94 892.5,-199 907.61,-177.51 879.3,-155.54 855.66,-141.96"/>
<polygon fill="midnightblue" stroke="midnightblue" points="857.05,-138.73 846.6,-137.02 853.7,-144.88 857.05,-138.73"/>
</g>
<!-- Node21 -->
<g id="node21" class="node">
<title>Node21</title>
<g id="a_node21"><a xlink:href="pokeys__ini_8h.html" target="_top" xlink:title=" ">
<polygon fill="white" stroke="black" points="268,-56.5 268,-75.5 345,-75.5 345,-56.5 268,-56.5"/>
<text text-anchor="middle" x="306.5" y="-63.5" font-family="Helvetica,sans-Serif" font-size="10.00">pokeys_ini.h</text>
</a>
</g>
</g>
<!-- Node1&#45;&gt;Node21 -->
<g id="edge25" class="edge">
<title>Node1&#45;&gt;Node21</title>
<path fill="none" stroke="midnightblue" d="M629.33,-254.66C501.54,-245.62 283.46,-226.36 259.5,-199 234.03,-169.91 244.32,-147.56 259.5,-112 264.65,-99.95 274.78,-89.58 284.33,-81.84"/>
<polygon fill="midnightblue" stroke="midnightblue" points="286.54,-84.55 292.42,-75.74 282.33,-78.96 286.54,-84.55"/>
</g>
<!-- Node22 -->
<g id="node22" class="node">
<title>Node22</title>
<g id="a_node22"><a xlink:title=" ">
<polygon fill="white" stroke="#bfbfbf" points="348.5,-0.5 348.5,-19.5 398.5,-19.5 398.5,-0.5 348.5,-0.5"/>
<text text-anchor="middle" x="373.5" y="-7.5" font-family="Helvetica,sans-Serif" font-size="10.00">stdio.h</text>
</a>
</g>
</g>
<!-- Node1&#45;&gt;Node22 -->
<g id="edge27" class="edge">
<title>Node1&#45;&gt;Node22</title>
<path fill="none" stroke="midnightblue" d="M629.46,-255.14C501.2,-246.75 275.84,-228.34 199.5,-199 159.33,-183.56 145.58,-177.97 120.5,-143 97.38,-110.76 74.83,-86.25 100.5,-56 130.59,-20.54 271.36,-12.98 338.15,-11.4"/>
<polygon fill="midnightblue" stroke="midnightblue" points="338.28,-14.9 348.21,-11.19 338.14,-7.9 338.28,-14.9"/>
</g>
<!-- Node23 -->
<g id="node23" class="node">
<title>Node23</title>
<g id="a_node23"><a xlink:href="PoKeysCompEncoders_8c.html" target="_top" xlink:title=" ">
<polygon fill="white" stroke="black" points="560,-179.5 560,-198.5 693,-198.5 693,-179.5 560,-179.5"/>
<text text-anchor="middle" x="626.5" y="-186.5" font-family="Helvetica,sans-Serif" font-size="10.00">PoKeysCompEncoders.c</text>
</a>
</g>
</g>
<!-- Node1&#45;&gt;Node23 -->
<g id="edge28" class="edge">
<title>Node1&#45;&gt;Node23</title>
<path fill="none" stroke="midnightblue" d="M687.74,-235.45C673.97,-225.23 658.51,-213.76 646.58,-204.9"/>
<polygon fill="midnightblue" stroke="midnightblue" points="648.33,-201.84 638.22,-198.7 644.16,-207.47 648.33,-201.84"/>
</g>
<!-- Node24 -->
<g id="node24" class="node">
<title>Node24</title>
<g id="a_node24"><a xlink:href="PoKeysCompPoExtBus_8c.html" target="_top" xlink:title=" ">
<polygon fill="white" stroke="black" points="749.5,-179.5 749.5,-198.5 883.5,-198.5 883.5,-179.5 749.5,-179.5"/>
<text text-anchor="middle" x="816.5" y="-186.5" font-family="Helvetica,sans-Serif" font-size="10.00">PoKeysCompPoExtBus.c</text>
</a>
</g>
</g>
<!-- Node1&#45;&gt;Node24 -->
<g id="edge34" class="edge">
<title>Node1&#45;&gt;Node24</title>
<path fill="none" stroke="midnightblue" d="M755.26,-235.45C769.03,-225.23 784.49,-213.76 796.42,-204.9"/>
<polygon fill="midnightblue" stroke="midnightblue" points="798.84,-207.47 804.78,-198.7 794.67,-201.84 798.84,-207.47"/>
</g>
<!-- Node25 -->
<g id="node25" class="node">
<title>Node25</title>
<g id="a_node25"><a xlink:href="PoKeysCompPoNet_8c.html" target="_top" xlink:title=" ">
<polygon fill="white" stroke="black" points="423.5,-179.5 423.5,-198.5 541.5,-198.5 541.5,-179.5 423.5,-179.5"/>
<text text-anchor="middle" x="482.5" y="-186.5" font-family="Helvetica,sans-Serif" font-size="10.00">PoKeysCompPoNet.c</text>
</a>
</g>
</g>
<!-- Node1&#45;&gt;Node25 -->
<g id="edge40" class="edge">
<title>Node1&#45;&gt;Node25</title>
<path fill="none" stroke="midnightblue" d="M636.56,-235.45C597.1,-223.8 552.12,-210.54 521,-201.36"/>
<polygon fill="midnightblue" stroke="midnightblue" points="521.99,-198 511.41,-198.53 520.01,-204.71 521.99,-198"/>
</g>
<!-- Node26 -->
<g id="node26" class="node">
<title>Node26</title>
<g id="a_node26"><a xlink:href="PoKeysCompIO_8c.html" target="_top" xlink:title="HAL interface for PoKeys digital and analog I/O handling.">
<polygon fill="white" stroke="black" points="268,-179.5 268,-198.5 367,-198.5 367,-179.5 268,-179.5"/>
<text text-anchor="middle" x="317.5" y="-186.5" font-family="Helvetica,sans-Serif" font-size="10.00">PoKeysCompIO.c</text>
</a>
</g>
</g>
<!-- Node1&#45;&gt;Node26 -->
<g id="edge46" class="edge">
<title>Node1&#45;&gt;Node26</title>
<path fill="none" stroke="midnightblue" d="M629.32,-244.41C551.57,-230.85 442.63,-211.84 376.24,-200.25"/>
<polygon fill="midnightblue" stroke="midnightblue" points="376.81,-196.8 366.36,-198.53 375.61,-203.69 376.81,-196.8"/>
</g>
<!-- Node28 -->
<g id="node28" class="node">
<title>Node28</title>
<g id="a_node28"><a xlink:title=" ">
<polygon fill="white" stroke="#bfbfbf" points="1123,-56.5 1123,-75.5 1176,-75.5 1176,-56.5 1123,-56.5"/>
<text text-anchor="middle" x="1149.5" y="-63.5" font-family="Helvetica,sans-Serif" font-size="10.00">stdlib.h</text>
</a>
</g>
</g>
<!-- Node1&#45;&gt;Node28 -->
<g id="edge59" class="edge">
<title>Node1&#45;&gt;Node28</title>
<path fill="none" stroke="midnightblue" d="M813.83,-251.66C875.63,-243.41 957.74,-227.83 1025.5,-199 1065.77,-181.87 1076.98,-175.31 1106.5,-143 1122.27,-125.74 1134.65,-101.7 1141.99,-85.3"/>
<polygon fill="midnightblue" stroke="midnightblue" points="1145.35,-86.35 1146.08,-75.78 1138.92,-83.59 1145.35,-86.35"/>
</g>
<!-- Node29 -->
<g id="node29" class="node">
<title>Node29</title>
<g id="a_node29"><a xlink:href="PoKeysCompPulseEngine__v2_8c.html" target="_top" xlink:title="HAL component implementation for PoKeys Pulse Engine v2 (PEv2) in LinuxCNC.">
<polygon fill="white" stroke="black" points="1129,-179.5 1129,-198.5 1294,-198.5 1294,-179.5 1129,-179.5"/>
<text text-anchor="middle" x="1211.5" y="-186.5" font-family="Helvetica,sans-Serif" font-size="10.00">PoKeysCompPulseEngine_v2.c</text>
</a>
</g>
</g>
<!-- Node1&#45;&gt;Node29 -->
<g id="edge55" class="edge">
<title>Node1&#45;&gt;Node29</title>
<path fill="none" stroke="midnightblue" d="M813.67,-247.24C909.13,-233.5 1056.15,-212.35 1142.19,-199.97"/>
<polygon fill="midnightblue" stroke="midnightblue" points="1142.71,-203.43 1152.11,-198.54 1141.72,-196.5 1142.71,-203.43"/>
</g>
<!-- Node31 -->
<g id="node31" class="node">
<title>Node31</title>
<g id="a_node31"><a xlink:href="inifile_8h.html" target="_top" xlink:title=" ">
<polygon fill="white" stroke="black" points="0,-179.5 0,-198.5 53,-198.5 53,-179.5 0,-179.5"/>
<text text-anchor="middle" x="26.5" y="-186.5" font-family="Helvetica,sans-Serif" font-size="10.00">inifile.h</text>
</a>
</g>
</g>
<!-- Node1&#45;&gt;Node31 -->
<g id="edge60" class="edge">
<title>Node1&#45;&gt;Node31</title>
<path fill="none" stroke="midnightblue" d="M629.27,-255.39C502.23,-247.55 266.52,-230.08 67.5,-199 66.2,-198.8 64.89,-198.58 63.56,-198.35"/>
<polygon fill="midnightblue" stroke="midnightblue" points="63.8,-194.83 53.32,-196.38 62.48,-201.7 63.8,-194.83"/>
</g>
<!-- Node3 -->
<g id="node3" class="node">
<title>Node3</title>
<g id="a_node3"><a xlink:title=" ">
<polygon fill="white" stroke="#bfbfbf" points="643.5,-0.5 643.5,-19.5 699.5,-19.5 699.5,-0.5 643.5,-0.5"/>
<text text-anchor="middle" x="671.5" y="-7.5" font-family="Helvetica,sans-Serif" font-size="10.00">stddef.h</text>
</a>
</g>
</g>
<!-- Node2&#45;&gt;Node3 -->
<g id="edge2" class="edge">
<title>Node2&#45;&gt;Node3</title>
<path fill="none" stroke="midnightblue" d="M671.5,-56.08C671.5,-49.01 671.5,-38.86 671.5,-29.99"/>
<polygon fill="midnightblue" stroke="midnightblue" points="675,-29.75 671.5,-19.75 668,-29.75 675,-29.75"/>
</g>
<!-- Node4 -->
<g id="node4" class="node">
<title>Node4</title>
<g id="a_node4"><a xlink:title=" ">
<polygon fill="white" stroke="#bfbfbf" points="717.5,-0.5 717.5,-19.5 773.5,-19.5 773.5,-0.5 717.5,-0.5"/>
<text text-anchor="middle" x="745.5" y="-7.5" font-family="Helvetica,sans-Serif" font-size="10.00">stdarg.h</text>
</a>
</g>
</g>
<!-- Node2&#45;&gt;Node4 -->
<g id="edge3" class="edge">
<title>Node2&#45;&gt;Node4</title>
<path fill="none" stroke="midnightblue" d="M683.39,-56.32C694.65,-48.11 711.79,-35.6 725.21,-25.81"/>
<polygon fill="midnightblue" stroke="midnightblue" points="727.38,-28.56 733.39,-19.83 723.25,-22.9 727.38,-28.56"/>
</g>
<!-- Node5 -->
<g id="node5" class="node">
<title>Node5</title>
<g id="a_node5"><a xlink:title=" ">
<polygon fill="white" stroke="#bfbfbf" points="568,-0.5 568,-19.5 625,-19.5 625,-0.5 568,-0.5"/>
<text text-anchor="middle" x="596.5" y="-7.5" font-family="Helvetica,sans-Serif" font-size="10.00">spawn.h</text>
</a>
</g>
</g>
<!-- Node2&#45;&gt;Node5 -->
<g id="edge4" class="edge">
<title>Node2&#45;&gt;Node5</title>
<path fill="none" stroke="midnightblue" d="M659.45,-56.32C648.04,-48.11 630.67,-35.6 617.07,-25.81"/>
<polygon fill="midnightblue" stroke="midnightblue" points="618.93,-22.84 608.77,-19.83 614.84,-28.52 618.93,-22.84"/>
</g>
<!-- Node6&#45;&gt;Node2 -->
<g id="edge6" class="edge">
<title>Node6&#45;&gt;Node2</title>
<path fill="none" stroke="midnightblue" d="M211.19,-119.41C226.33,-116.89 243.68,-114.15 259.5,-112 399.2,-93 566.41,-76.72 637.18,-70.13"/>
<polygon fill="midnightblue" stroke="midnightblue" points="637.66,-73.6 647.3,-69.19 637.02,-66.63 637.66,-73.6"/>
</g>
<!-- Node7 -->
<g id="node7" class="node">
<title>Node7</title>
<g id="a_node7"><a xlink:title=" ">
<polygon fill="white" stroke="#bfbfbf" points="197,-56.5 197,-75.5 250,-75.5 250,-56.5 197,-56.5"/>
<text text-anchor="middle" x="223.5" y="-63.5" font-family="Helvetica,sans-Serif" font-size="10.00">string.h</text>
</a>
</g>
</g>
<!-- Node6&#45;&gt;Node7 -->
<g id="edge7" class="edge">
<title>Node6&#45;&gt;Node7</title>
<path fill="none" stroke="midnightblue" d="M178.09,-117.98C186.2,-108.87 199.23,-94.24 209.26,-82.98"/>
<polygon fill="midnightblue" stroke="midnightblue" points="211.88,-85.3 215.92,-75.51 206.66,-80.65 211.88,-85.3"/>
</g>
<!-- Node8 -->
<g id="node8" class="node">
<title>Node8</title>
<g id="a_node8"><a xlink:href="rtapi__gfp_8h.html" target="_top" xlink:title=" ">
<polygon fill="white" stroke="black" points="110,-56.5 110,-75.5 179,-75.5 179,-56.5 110,-56.5"/>
<text text-anchor="middle" x="144.5" y="-63.5" font-family="Helvetica,sans-Serif" font-size="10.00">rtapi_gfp.h</text>
</a>
</g>
</g>
<!-- Node6&#45;&gt;Node8 -->
<g id="edge8" class="edge">
<title>Node6&#45;&gt;Node8</title>
<path fill="none" stroke="midnightblue" d="M166.77,-117.98C163.03,-109.4 157.14,-95.93 152.36,-84.98"/>
<polygon fill="midnightblue" stroke="midnightblue" points="155.43,-83.27 148.22,-75.51 149.02,-86.07 155.43,-83.27"/>
</g>
<!-- Node10 -->
<g id="node10" class="node">
<title>Node10</title>
<g id="a_node10"><a xlink:title=" ">
<polygon fill="white" stroke="#bfbfbf" points="941,-0.5 941,-19.5 992,-19.5 992,-0.5 941,-0.5"/>
<text text-anchor="middle" x="966.5" y="-7.5" font-family="Helvetica,sans-Serif" font-size="10.00">errno.h</text>
</a>
</g>
</g>
<!-- Node9&#45;&gt;Node10 -->
<g id="edge10" class="edge">
<title>Node9&#45;&gt;Node10</title>
<path fill="none" stroke="midnightblue" d="M966.5,-56.08C966.5,-49.01 966.5,-38.86 966.5,-29.99"/>
<polygon fill="midnightblue" stroke="midnightblue" points="970,-29.75 966.5,-19.75 963,-29.75 970,-29.75"/>
</g>
<!-- Node11&#45;&gt;Node2 -->
<g id="edge12" class="edge">
<title>Node11&#45;&gt;Node2</title>
<path fill="none" stroke="midnightblue" d="M701.49,-117.98C696.34,-109.23 688.19,-95.37 681.68,-84.31"/>
<polygon fill="midnightblue" stroke="midnightblue" points="684.59,-82.35 676.51,-75.51 678.56,-85.9 684.59,-82.35"/>
</g>
<!-- Node11&#45;&gt;Node9 -->
<g id="edge13" class="edge">
<title>Node11&#45;&gt;Node9</title>
<path fill="none" stroke="midnightblue" d="M727.34,-121.73C768.72,-112.26 862.17,-90.88 919.23,-77.82"/>
<polygon fill="midnightblue" stroke="midnightblue" points="920.13,-81.2 929.1,-75.56 918.57,-74.38 920.13,-81.2"/>
</g>
<!-- Node12 -->
<g id="node12" class="node">
<title>Node12</title>
<g id="a_node12"><a xlink:href="rtapi__bool_8h.html" target="_top" xlink:title=" ">
<polygon fill="white" stroke="black" points="785.5,-56.5 785.5,-75.5 859.5,-75.5 859.5,-56.5 785.5,-56.5"/>
<text text-anchor="middle" x="822.5" y="-63.5" font-family="Helvetica,sans-Serif" font-size="10.00">rtapi_bool.h</text>
</a>
</g>
</g>
<!-- Node11&#45;&gt;Node12 -->
<g id="edge14" class="edge">
<title>Node11&#45;&gt;Node12</title>
<path fill="none" stroke="midnightblue" d="M723.12,-117.98C742.42,-108.08 774.46,-91.64 796.93,-80.12"/>
<polygon fill="midnightblue" stroke="midnightblue" points="798.61,-83.19 805.91,-75.51 795.42,-76.96 798.61,-83.19"/>
</g>
<!-- Node14 -->
<g id="node14" class="node">
<title>Node14</title>
<g id="a_node14"><a xlink:href="rtapi__stdint_8h.html" target="_top" xlink:title=" ">
<polygon fill="white" stroke="black" points="1024,-56.5 1024,-75.5 1105,-75.5 1105,-56.5 1024,-56.5"/>
<text text-anchor="middle" x="1064.5" y="-63.5" font-family="Helvetica,sans-Serif" font-size="10.00">rtapi_stdint.h</text>
</a>
</g>
</g>
<!-- Node11&#45;&gt;Node14 -->
<g id="edge16" class="edge">
<title>Node11&#45;&gt;Node14</title>
<path fill="none" stroke="midnightblue" d="M727.27,-121.81C740.94,-118.8 759.24,-114.93 775.5,-112 878.55,-93.46 907.43,-93.71 1014.01,-76.2"/>
<polygon fill="midnightblue" stroke="midnightblue" points="1014.58,-79.66 1023.88,-74.57 1013.44,-72.75 1014.58,-79.66"/>
</g>
<!-- Node13 -->
<g id="node13" class="node">
<title>Node13</title>
<g id="a_node13"><a xlink:title=" ">
<polygon fill="white" stroke="#bfbfbf" points="791.5,-0.5 791.5,-19.5 853.5,-19.5 853.5,-0.5 791.5,-0.5"/>
<text text-anchor="middle" x="822.5" y="-7.5" font-family="Helvetica,sans-Serif" font-size="10.00">stdbool.h</text>
</a>
</g>
</g>
<!-- Node12&#45;&gt;Node13 -->
<g id="edge15" class="edge">
<title>Node12&#45;&gt;Node13</title>
<path fill="none" stroke="midnightblue" d="M822.5,-56.08C822.5,-49.01 822.5,-38.86 822.5,-29.99"/>
<polygon fill="midnightblue" stroke="midnightblue" points="826,-29.75 822.5,-19.75 819,-29.75 826,-29.75"/>
</g>
<!-- Node15 -->
<g id="node15" class="node">
<title>Node15</title>
<g id="a_node15"><a xlink:title=" ">
<polygon fill="white" stroke="#bfbfbf" points="1032,-0.5 1032,-19.5 1097,-19.5 1097,-0.5 1032,-0.5"/>
<text text-anchor="middle" x="1064.5" y="-7.5" font-family="Helvetica,sans-Serif" font-size="10.00">inttypes.h</text>
</a>
</g>
</g>
<!-- Node14&#45;&gt;Node15 -->
<g id="edge17" class="edge">
<title>Node14&#45;&gt;Node15</title>
<path fill="none" stroke="midnightblue" d="M1064.5,-56.08C1064.5,-49.01 1064.5,-38.86 1064.5,-29.99"/>
<polygon fill="midnightblue" stroke="midnightblue" points="1068,-29.75 1064.5,-19.75 1061,-29.75 1068,-29.75"/>
</g>
<!-- Node16&#45;&gt;Node14 -->
<g id="edge19" class="edge">
<title>Node16&#45;&gt;Node14</title>
<path fill="none" stroke="midnightblue" d="M1053.36,-117.98C1055.22,-109.49 1058.12,-96.2 1060.5,-85.32"/>
<polygon fill="midnightblue" stroke="midnightblue" points="1063.93,-86.03 1062.64,-75.51 1057.09,-84.53 1063.93,-86.03"/>
</g>
<!-- Node19 -->
<g id="node19" class="node">
<title>Node19</title>
<g id="a_node19"><a xlink:title=" ">
<polygon fill="white" stroke="#bfbfbf" points="714,-56.5 714,-75.5 767,-75.5 767,-56.5 714,-56.5"/>
<text text-anchor="middle" x="740.5" y="-63.5" font-family="Helvetica,sans-Serif" font-size="10.00">stdint.h</text>
</a>
</g>
</g>
<!-- Node18&#45;&gt;Node19 -->
<g id="edge22" class="edge">
<title>Node18&#45;&gt;Node19</title>
<path fill="none" stroke="midnightblue" d="M580.29,-117.98C612.79,-107.64 667.71,-90.16 704.04,-78.6"/>
<polygon fill="midnightblue" stroke="midnightblue" points="705.29,-81.88 713.76,-75.51 703.17,-75.21 705.29,-81.88"/>
</g>
<!-- Node20&#45;&gt;Node19 -->
<g id="edge24" class="edge">
<title>Node20&#45;&gt;Node19</title>
<path fill="none" stroke="midnightblue" d="M815.89,-117.98C801.78,-108.43 778.67,-92.81 761.75,-81.37"/>
<polygon fill="midnightblue" stroke="midnightblue" points="763.33,-78.21 753.08,-75.51 759.41,-84.01 763.33,-78.21"/>
</g>
<!-- Node21&#45;&gt;Node22 -->
<g id="edge26" class="edge">
<title>Node21&#45;&gt;Node22</title>
<path fill="none" stroke="midnightblue" d="M317.26,-56.32C327.27,-48.26 342.39,-36.08 354.43,-26.37"/>
<polygon fill="midnightblue" stroke="midnightblue" points="356.95,-28.83 362.54,-19.83 352.56,-23.38 356.95,-28.83"/>
</g>
<!-- Node23&#45;&gt;Node2 -->
<g id="edge31" class="edge">
<title>Node23&#45;&gt;Node2</title>
<path fill="none" stroke="midnightblue" d="M629.74,-179.3C637.03,-159.68 654.9,-111.64 664.73,-85.19"/>
<polygon fill="midnightblue" stroke="midnightblue" points="668.09,-86.22 668.29,-75.62 661.53,-83.78 668.09,-86.22"/>
</g>
<!-- Node23&#45;&gt;Node11 -->
<g id="edge32" class="edge">
<title>Node23&#45;&gt;Node11</title>
<path fill="none" stroke="midnightblue" d="M637.96,-179.48C650.67,-170.02 671.41,-154.6 686.75,-143.19"/>
<polygon fill="midnightblue" stroke="midnightblue" points="689.12,-145.79 695.06,-137.01 684.95,-140.17 689.12,-145.79"/>
</g>
<!-- Node23&#45;&gt;Node18 -->
<g id="edge29" class="edge">
<title>Node23&#45;&gt;Node18</title>
<path fill="none" stroke="midnightblue" d="M616.04,-179.48C604.55,-170.11 585.87,-154.88 571.91,-143.51"/>
<polygon fill="midnightblue" stroke="midnightblue" points="573.9,-140.61 563.94,-137.01 569.48,-146.04 573.9,-140.61"/>
</g>
<!-- Node23&#45;&gt;Node20 -->
<g id="edge30" class="edge">
<title>Node23&#45;&gt;Node20</title>
<path fill="none" stroke="midnightblue" d="M655.44,-179.48C690.77,-169.07 750.63,-151.44 789.86,-139.88"/>
<polygon fill="midnightblue" stroke="midnightblue" points="791.01,-143.19 799.61,-137.01 789.03,-136.48 791.01,-143.19"/>
</g>
<!-- Node23&#45;&gt;Node22 -->
<g id="edge33" class="edge">
<title>Node23&#45;&gt;Node22</title>
<path fill="none" stroke="midnightblue" d="M625.77,-179.35C624.04,-163.94 618.38,-131.55 600.5,-112 548.45,-55.1 458.39,-28.41 408.79,-17.49"/>
<polygon fill="midnightblue" stroke="midnightblue" points="409.36,-14.04 398.85,-15.4 407.91,-20.88 409.36,-14.04"/>
</g>
<!-- Node24&#45;&gt;Node2 -->
<g id="edge37" class="edge">
<title>Node24&#45;&gt;Node2</title>
<path fill="none" stroke="midnightblue" d="M808.03,-179.1C793.85,-164.41 764.15,-134.48 736.5,-112 722.87,-100.92 706.63,-89.68 693.79,-81.2"/>
<polygon fill="midnightblue" stroke="midnightblue" points="695.42,-78.08 685.13,-75.56 691.6,-83.95 695.42,-78.08"/>
</g>
<!-- Node24&#45;&gt;Node11 -->
<g id="edge38" class="edge">
<title>Node24&#45;&gt;Node11</title>
<path fill="none" stroke="midnightblue" d="M800.74,-179.48C782.52,-169.62 752.33,-153.29 731.03,-141.77"/>
<polygon fill="midnightblue" stroke="midnightblue" points="732.69,-138.69 722.23,-137.01 729.36,-144.85 732.69,-138.69"/>
</g>
<!-- Node24&#45;&gt;Node18 -->
<g id="edge35" class="edge">
<title>Node24&#45;&gt;Node18</title>
<path fill="none" stroke="midnightblue" d="M778.82,-179.48C731.95,-168.87 651.89,-150.76 600.9,-139.22"/>
<polygon fill="midnightblue" stroke="midnightblue" points="601.64,-135.8 591.11,-137.01 600.09,-142.63 601.64,-135.8"/>
</g>
<!-- Node24&#45;&gt;Node20 -->
<g id="edge36" class="edge">
<title>Node24&#45;&gt;Node20</title>
<path fill="none" stroke="midnightblue" d="M818.22,-179.48C819.93,-170.99 822.61,-157.7 824.8,-146.82"/>
<polygon fill="midnightblue" stroke="midnightblue" points="828.24,-147.5 826.78,-137.01 821.38,-146.12 828.24,-147.5"/>
</g>
<!-- Node24&#45;&gt;Node22 -->
<g id="edge39" class="edge">
<title>Node24&#45;&gt;Node22</title>
<path fill="none" stroke="midnightblue" d="M838.96,-179.38C854.27,-172.18 873.36,-160.29 882.5,-143 900.8,-108.37 898.25,-81.48 868.5,-56 851.04,-41.04 519.49,-19.8 408.99,-13.1"/>
<polygon fill="midnightblue" stroke="midnightblue" points="408.9,-9.59 398.71,-12.48 408.48,-16.58 408.9,-9.59"/>
</g>
<!-- Node25&#45;&gt;Node2 -->
<g id="edge43" class="edge">
<title>Node25&#45;&gt;Node2</title>
<path fill="none" stroke="midnightblue" d="M482.8,-179.33C483.82,-163.59 488.28,-130.28 507.5,-112 542.74,-78.48 600.54,-69.46 637.27,-67.3"/>
<polygon fill="midnightblue" stroke="midnightblue" points="637.66,-70.78 647.49,-66.84 637.34,-63.79 637.66,-70.78"/>
</g>
<!-- Node25&#45;&gt;Node11 -->
<g id="edge44" class="edge">
<title>Node25&#45;&gt;Node11</title>
<path fill="none" stroke="midnightblue" d="M514.59,-179.48C557.73,-168.02 633.87,-147.79 676.12,-136.57"/>
<polygon fill="midnightblue" stroke="midnightblue" points="677.07,-139.94 685.84,-133.99 675.27,-133.17 677.07,-139.94"/>
</g>
<!-- Node25&#45;&gt;Node18 -->
<g id="edge41" class="edge">
<title>Node25&#45;&gt;Node18</title>
<path fill="none" stroke="midnightblue" d="M492.67,-179.48C503.85,-170.11 522.02,-154.88 535.59,-143.51"/>
<polygon fill="midnightblue" stroke="midnightblue" points="537.93,-146.11 543.35,-137.01 533.43,-140.75 537.93,-146.11"/>
</g>
<!-- Node25&#45;&gt;Node20 -->
<g id="edge42" class="edge">
<title>Node25&#45;&gt;Node20</title>
<path fill="none" stroke="midnightblue" d="M532.07,-179.48C596.24,-168.44 707.66,-149.28 774.1,-137.86"/>
<polygon fill="midnightblue" stroke="midnightblue" points="774.7,-141.3 783.96,-136.16 773.51,-134.4 774.7,-141.3"/>
</g>
<!-- Node25&#45;&gt;Node22 -->
<g id="edge45" class="edge">
<title>Node25&#45;&gt;Node22</title>
<path fill="none" stroke="midnightblue" d="M477.24,-179.46C460.38,-152.08 407.4,-66.05 384.37,-28.65"/>
<polygon fill="midnightblue" stroke="midnightblue" points="387.19,-26.55 378.96,-19.87 381.22,-30.22 387.19,-26.55"/>
</g>
<!-- Node26&#45;&gt;Node2 -->
<g id="edge48" class="edge">
<title>Node26&#45;&gt;Node2</title>
<path fill="none" stroke="midnightblue" d="M333.77,-179.39C363.3,-164.06 427.98,-131.77 485.5,-112 537.34,-94.18 599.62,-80.64 637.34,-73.26"/>
<polygon fill="midnightblue" stroke="midnightblue" points="638.15,-76.67 647.31,-71.35 636.83,-69.8 638.15,-76.67"/>
</g>
<!-- Node26&#45;&gt;Node11 -->
<g id="edge49" class="edge">
<title>Node26&#45;&gt;Node11</title>
<path fill="none" stroke="midnightblue" d="M367.16,-180.4C448.82,-167.91 609.05,-143.41 675.99,-133.17"/>
<polygon fill="midnightblue" stroke="midnightblue" points="676.55,-136.62 685.9,-131.65 675.49,-129.7 676.55,-136.62"/>
</g>
<!-- Node26&#45;&gt;Node18 -->
<g id="edge47" class="edge">
<title>Node26&#45;&gt;Node18</title>
<path fill="none" stroke="midnightblue" d="M351.31,-179.48C393.02,-168.96 464.01,-151.06 509.81,-139.51"/>
<polygon fill="midnightblue" stroke="midnightblue" points="510.91,-142.85 519.75,-137.01 509.2,-136.06 510.91,-142.85"/>
</g>
<!-- Node26&#45;&gt;Node22 -->
<g id="edge50" class="edge">
<title>Node26&#45;&gt;Node22</title>
<path fill="none" stroke="midnightblue" d="M327.11,-179.37C335.78,-170.99 348.13,-157.44 354.5,-143 371.11,-105.36 373.81,-56.37 373.92,-29.93"/>
<polygon fill="midnightblue" stroke="midnightblue" points="377.41,-29.75 373.83,-19.78 370.42,-29.81 377.41,-29.75"/>
</g>
<!-- Node27 -->
<g id="node27" class="node">
<title>Node27</title>
<g id="a_node27"><a xlink:href="pokeys__ini_8c.html" target="_top" xlink:title=" ">
<polygon fill="white" stroke="black" points="268,-118 268,-137 345,-137 345,-118 268,-118"/>
<text text-anchor="middle" x="306.5" y="-125" font-family="Helvetica,sans-Serif" font-size="10.00">pokeys_ini.c</text>
</a>
</g>
</g>
<!-- Node26&#45;&gt;Node27 -->
<g id="edge51" class="edge">
<title>Node26&#45;&gt;Node27</title>
<path fill="none" stroke="midnightblue" d="M315.92,-179.48C314.37,-171.08 311.95,-157.98 309.95,-147.16"/>
<polygon fill="midnightblue" stroke="midnightblue" points="313.33,-146.21 308.07,-137.01 306.45,-147.48 313.33,-146.21"/>
</g>
<!-- Node27&#45;&gt;Node7 -->
<g id="edge54" class="edge">
<title>Node27&#45;&gt;Node7</title>
<path fill="none" stroke="midnightblue" d="M294.61,-117.98C281.3,-108.43 259.5,-92.81 243.54,-81.37"/>
<polygon fill="midnightblue" stroke="midnightblue" points="245.54,-78.49 235.37,-75.51 241.46,-84.18 245.54,-78.49"/>
</g>
<!-- Node27&#45;&gt;Node21 -->
<g id="edge52" class="edge">
<title>Node27&#45;&gt;Node21</title>
<path fill="none" stroke="midnightblue" d="M306.5,-117.98C306.5,-109.58 306.5,-96.48 306.5,-85.66"/>
<polygon fill="midnightblue" stroke="midnightblue" points="310,-85.51 306.5,-75.51 303,-85.51 310,-85.51"/>
</g>
<!-- Node27&#45;&gt;Node28 -->
<g id="edge53" class="edge">
<title>Node27&#45;&gt;Node28</title>
<path fill="none" stroke="midnightblue" d="M345.02,-123.57C385.48,-120.54 450.94,-115.72 507.5,-112 773.88,-94.49 845.76,-117.28 1112.86,-75.98"/>
<polygon fill="midnightblue" stroke="midnightblue" points="1113.52,-79.42 1122.86,-74.41 1112.44,-72.5 1113.52,-79.42"/>
</g>
<!-- Node29&#45;&gt;Node20 -->
<g id="edge57" class="edge">
<title>Node29&#45;&gt;Node20</title>
<path fill="none" stroke="midnightblue" d="M1156.63,-179.48C1083.88,-168.17 956.25,-148.35 883.46,-137.04"/>
<polygon fill="midnightblue" stroke="midnightblue" points="883.55,-133.51 873.13,-135.43 882.47,-140.43 883.55,-133.51"/>
</g>
<!-- Node29&#45;&gt;Node28 -->
<g id="edge56" class="edge">
<title>Node29&#45;&gt;Node28</title>
<path fill="none" stroke="midnightblue" d="M1205.56,-179.25C1199.62,-170.33 1190.41,-156 1183.5,-143 1173.25,-123.71 1163.25,-100.71 1156.78,-85.1"/>
<polygon fill="midnightblue" stroke="midnightblue" points="1159.93,-83.55 1152.91,-75.61 1153.45,-86.2 1159.93,-83.55"/>
</g>
<!-- Node30 -->
<g id="node30" class="node">
<title>Node30</title>
<g id="a_node30"><a xlink:href="PokeysCompPulsEngine__base_8c.html" target="_top" xlink:title="Base routines for setting up HAL pins and parameters for PoKeys Pulse Engine v2.">
<polygon fill="white" stroke="black" points="1192,-112.5 1192,-142.5 1325,-142.5 1325,-112.5 1192,-112.5"/>
<text text-anchor="start" x="1200" y="-130.5" font-family="Helvetica,sans-Serif" font-size="10.00">PokeysCompPulsEngine</text>
<text text-anchor="middle" x="1258.5" y="-119.5" font-family="Helvetica,sans-Serif" font-size="10.00">_base.c</text>
</a>
</g>
</g>
<!-- Node29&#45;&gt;Node30 -->
<g id="edge58" class="edge">
<title>Node29&#45;&gt;Node30</title>
<path fill="none" stroke="midnightblue" d="M1218.23,-179.48C1224.18,-171.94 1233.12,-160.63 1241.07,-150.57"/>
<polygon fill="midnightblue" stroke="midnightblue" points="1243.97,-152.54 1247.42,-142.52 1238.48,-148.2 1243.97,-152.54"/>
</g>
<!-- Node31&#45;&gt;Node22 -->
<g id="edge61" class="edge">
<title>Node31&#45;&gt;Node22</title>
<path fill="none" stroke="midnightblue" d="M26.28,-179.24C26.21,-155.31 29.58,-88.45 67.5,-56 107.57,-21.71 266.29,-13.55 338,-11.61"/>
<polygon fill="midnightblue" stroke="midnightblue" points="338.42,-15.1 348.33,-11.35 338.24,-8.1 338.42,-15.1"/>
</g>
</g>
</svg>
