<?xml version="1.0" encoding="UTF-8" standalone="no"?>
<!DOCTYPE svg PUBLIC "-//W3C//DTD SVG 1.1//EN"
 "http://www.w3.org/Graphics/SVG/1.1/DTD/svg11.dtd">
<!-- Generated by graphviz version 2.43.0 (0)
 -->
<!-- Title: PK_AnalogIOGetAsArray Pages: 1 -->
<svg width="669pt" height="142pt"
 viewBox="0.00 0.00 669.00 142.00" xmlns="http://www.w3.org/2000/svg" xmlns:xlink="http://www.w3.org/1999/xlink">
<g id="graph0" class="graph" transform="scale(1 1) rotate(0) translate(4 138)">
<title>PK_AnalogIOGetAsArray</title>
<polygon fill="white" stroke="transparent" points="-4,4 -4,-138 665,-138 665,4 -4,4"/>
<!-- Node1 -->
<g id="node1" class="node">
<title>Node1</title>
<g id="a_node1"><a xlink:title=" ">
<polygon fill="#bfbfbf" stroke="black" points="0,-76.5 0,-95.5 134,-95.5 134,-76.5 0,-76.5"/>
<text text-anchor="middle" x="67" y="-83.5" font-family="Helvetica,sans-Serif" font-size="10.00">PK_AnalogIOGetAsArray</text>
</a>
</g>
</g>
<!-- Node2 -->
<g id="node2" class="node">
<title>Node2</title>
<g id="a_node2"><a xlink:href="PoKeysLibIO_8c.html#aa3cbbaa7a57191d5e9d626757d45e396" target="_top" xlink:title=" ">
<polygon fill="white" stroke="black" points="170,-76.5 170,-95.5 266,-95.5 266,-76.5 170,-76.5"/>
<text text-anchor="middle" x="218" y="-83.5" font-family="Helvetica,sans-Serif" font-size="10.00">PK_AnalogIOGet</text>
</a>
</g>
</g>
<!-- Node1&#45;&gt;Node2 -->
<g id="edge1" class="edge">
<title>Node1&#45;&gt;Node2</title>
<path fill="none" stroke="midnightblue" d="M134.22,-86C142.73,-86 151.39,-86 159.74,-86"/>
<polygon fill="midnightblue" stroke="midnightblue" points="159.74,-89.5 169.74,-86 159.74,-82.5 159.74,-89.5"/>
</g>
<!-- Node3 -->
<g id="node3" class="node">
<title>Node3</title>
<g id="a_node3"><a xlink:href="PoKeysLibCore_8c.html#acb1fdd8f77277dc66c4d037218bfcece" target="_top" xlink:title=" ">
<polygon fill="white" stroke="black" points="302,-95.5 302,-114.5 391,-114.5 391,-95.5 302,-95.5"/>
<text text-anchor="middle" x="346.5" y="-102.5" font-family="Helvetica,sans-Serif" font-size="10.00">CreateRequest</text>
</a>
</g>
</g>
<!-- Node2&#45;&gt;Node3 -->
<g id="edge2" class="edge">
<title>Node2&#45;&gt;Node3</title>
<path fill="none" stroke="midnightblue" d="M266.1,-93.07C274.39,-94.32 283.08,-95.62 291.54,-96.9"/>
<polygon fill="midnightblue" stroke="midnightblue" points="291.3,-100.4 301.71,-98.42 292.34,-93.48 291.3,-100.4"/>
</g>
<!-- Node4 -->
<g id="node4" class="node">
<title>Node4</title>
<g id="a_node4"><a xlink:href="PoKeysLibCore_8c.html#ab5d92aa36d0a4a6953a055f5cd960aff" target="_top" xlink:title=" ">
<polygon fill="white" stroke="black" points="306.5,-57.5 306.5,-76.5 386.5,-76.5 386.5,-57.5 306.5,-57.5"/>
<text text-anchor="middle" x="346.5" y="-64.5" font-family="Helvetica,sans-Serif" font-size="10.00">SendRequest</text>
</a>
</g>
</g>
<!-- Node2&#45;&gt;Node4 -->
<g id="edge3" class="edge">
<title>Node2&#45;&gt;Node4</title>
<path fill="none" stroke="midnightblue" d="M266.1,-78.93C275.91,-77.45 286.26,-75.9 296.14,-74.41"/>
<polygon fill="midnightblue" stroke="midnightblue" points="296.85,-77.85 306.22,-72.9 295.81,-70.92 296.85,-77.85"/>
</g>
<!-- Node5 -->
<g id="node5" class="node">
<title>Node5</title>
<g id="a_node5"><a xlink:href="PoKeysLibCore_8c.html#a273b6d635dea8f559b915cdb289d021e" target="_top" xlink:title=" ">
<polygon fill="white" stroke="black" points="568.5,-38.5 568.5,-57.5 651.5,-57.5 651.5,-38.5 568.5,-38.5"/>
<text text-anchor="middle" x="610" y="-45.5" font-family="Helvetica,sans-Serif" font-size="10.00">getChecksum</text>
</a>
</g>
</g>
<!-- Node4&#45;&gt;Node5 -->
<g id="edge4" class="edge">
<title>Node4&#45;&gt;Node5</title>
<path fill="none" stroke="midnightblue" d="M386.67,-69.42C422.32,-71.06 476.36,-72.09 523,-67 536.57,-65.52 551.13,-62.76 564.34,-59.8"/>
<polygon fill="midnightblue" stroke="midnightblue" points="565.2,-63.19 574.14,-57.51 563.61,-56.37 565.2,-63.19"/>
</g>
<!-- Node6 -->
<g id="node6" class="node">
<title>Node6</title>
<g id="a_node6"><a xlink:href="group__API.html#ga6b820f3e72097cf7f994e33715dc7af1" target="_top" xlink:title="Read an Input report from a HID device.">
<polygon fill="white" stroke="black" points="445.5,-114.5 445.5,-133.5 504.5,-133.5 504.5,-114.5 445.5,-114.5"/>
<text text-anchor="middle" x="475" y="-121.5" font-family="Helvetica,sans-Serif" font-size="10.00">hid_read</text>
</a>
</g>
</g>
<!-- Node4&#45;&gt;Node6 -->
<g id="edge5" class="edge">
<title>Node4&#45;&gt;Node6</title>
<path fill="none" stroke="midnightblue" d="M369.66,-76.59C376.51,-79.58 384.08,-82.9 391,-86 408.61,-93.88 428.24,-102.86 443.99,-110.11"/>
<polygon fill="midnightblue" stroke="midnightblue" points="442.69,-113.36 453.24,-114.37 445.62,-107.01 442.69,-113.36"/>
</g>
<!-- Node8 -->
<g id="node8" class="node">
<title>Node8</title>
<g id="a_node8"><a xlink:href="group__API.html#gad14ea48e440cf5066df87cc6488493af" target="_top" xlink:title="Write an Output report to a HID device.">
<polygon fill="white" stroke="black" points="444,-38.5 444,-57.5 506,-57.5 506,-38.5 444,-38.5"/>
<text text-anchor="middle" x="475" y="-45.5" font-family="Helvetica,sans-Serif" font-size="10.00">hid_write</text>
</a>
</g>
</g>
<!-- Node4&#45;&gt;Node8 -->
<g id="edge7" class="edge">
<title>Node4&#45;&gt;Node8</title>
<path fill="none" stroke="midnightblue" d="M386.83,-61.09C401.8,-58.84 418.86,-56.28 433.9,-54.02"/>
<polygon fill="midnightblue" stroke="midnightblue" points="434.57,-57.46 443.94,-52.52 433.53,-50.54 434.57,-57.46"/>
</g>
<!-- Node9 -->
<g id="node9" class="node">
<title>Node9</title>
<g id="a_node9"><a xlink:href="PoKeysLibCoreSockets_8c.html#a22759fb4024c9081af26ac1bc6541b47" target="_top" xlink:title=" ">
<polygon fill="white" stroke="black" points="427,-0.5 427,-19.5 523,-19.5 523,-0.5 427,-0.5"/>
<text text-anchor="middle" x="475" y="-7.5" font-family="Helvetica,sans-Serif" font-size="10.00">SendEthRequest</text>
</a>
</g>
</g>
<!-- Node4&#45;&gt;Node9 -->
<g id="edge8" class="edge">
<title>Node4&#45;&gt;Node9</title>
<path fill="none" stroke="midnightblue" d="M366.62,-57.45C382.63,-49.56 406.14,-38.19 427,-29 431.19,-27.15 435.62,-25.27 440.02,-23.45"/>
<polygon fill="midnightblue" stroke="midnightblue" points="441.55,-26.6 449.49,-19.58 438.91,-20.12 441.55,-26.6"/>
</g>
<!-- Node7 -->
<g id="node7" class="node">
<title>Node7</title>
<g id="a_node7"><a xlink:href="group__API.html#gaa5c9ed5aa290688ffac03343989ad75a" target="_top" xlink:title="Read an Input report from a HID device with timeout.">
<polygon fill="white" stroke="black" points="559,-114.5 559,-133.5 661,-133.5 661,-114.5 559,-114.5"/>
<text text-anchor="middle" x="610" y="-121.5" font-family="Helvetica,sans-Serif" font-size="10.00">hid_read_timeout</text>
</a>
</g>
</g>
<!-- Node6&#45;&gt;Node7 -->
<g id="edge6" class="edge">
<title>Node6&#45;&gt;Node7</title>
<path fill="none" stroke="midnightblue" d="M504.53,-124C517.49,-124 533.35,-124 548.75,-124"/>
<polygon fill="midnightblue" stroke="midnightblue" points="548.77,-127.5 558.77,-124 548.77,-120.5 548.77,-127.5"/>
</g>
<!-- Node9&#45;&gt;Node5 -->
<g id="edge9" class="edge">
<title>Node9&#45;&gt;Node5</title>
<path fill="none" stroke="midnightblue" d="M509.56,-19.59C526.57,-24.45 547.43,-30.41 565.64,-35.61"/>
<polygon fill="midnightblue" stroke="midnightblue" points="564.87,-39.03 575.45,-38.41 566.8,-32.3 564.87,-39.03"/>
</g>
</g>
</svg>
