<?xml version="1.0" encoding="UTF-8" standalone="no"?>
<!DOCTYPE svg PUBLIC "-//W3C//DTD SVG 1.1//EN"
 "http://www.w3.org/Graphics/SVG/1.1/DTD/svg11.dtd">
<!-- Generated by graphviz version 2.43.0 (0)
 -->
<!-- Title: CreateRequestAsyncWithPayload Pages: 1 -->
<svg width="637pt" height="1186pt"
 viewBox="0.00 0.00 637.00 1186.00" xmlns="http://www.w3.org/2000/svg" xmlns:xlink="http://www.w3.org/1999/xlink">
<g id="graph0" class="graph" transform="scale(1 1) rotate(0) translate(4 1182)">
<title>CreateRequestAsyncWithPayload</title>
<polygon fill="white" stroke="transparent" points="-4,4 -4,-1182 633,-1182 633,4 -4,4"/>
<!-- Node1 -->
<g id="node1" class="node">
<title>Node1</title>
<g id="a_node1"><a xlink:title="Prepares an asynchronous PoKeys request with optional payload data after header.">
<polygon fill="#bfbfbf" stroke="black" points="450,-584.5 450,-603.5 629,-603.5 629,-584.5 450,-584.5"/>
<text text-anchor="middle" x="539.5" y="-591.5" font-family="Helvetica,sans-Serif" font-size="10.00">CreateRequestAsyncWithPayload</text>
</a>
</g>
</g>
<!-- Node2 -->
<g id="node2" class="node">
<title>Node2</title>
<g id="a_node2"><a xlink:href="PoKeysLib1WireAsync_8c.html#ab48e61f29b87b0b20a0c97db291baff9" target="_top" xlink:title=" ">
<polygon fill="white" stroke="black" points="235,-1158.5 235,-1177.5 402,-1177.5 402,-1158.5 235,-1158.5"/>
<text text-anchor="middle" x="318.5" y="-1165.5" font-family="Helvetica,sans-Serif" font-size="10.00">PK_1WireWriteReadStartAsync</text>
</a>
</g>
</g>
<!-- Node1&#45;&gt;Node2 -->
<g id="edge1" class="edge">
<title>Node1&#45;&gt;Node2</title>
<path fill="none" stroke="midnightblue" d="M536.87,-614.01C529.14,-704.18 493.13,-1071.61 414,-1149 410.17,-1152.74 405.82,-1155.85 401.15,-1158.42"/>
<polygon fill="midnightblue" stroke="midnightblue" points="540.38,-614.06 537.73,-603.8 533.41,-613.48 540.38,-614.06"/>
</g>
<!-- Node3 -->
<g id="node3" class="node">
<title>Node3</title>
<g id="a_node3"><a xlink:href="PoKeysLib1WireAsync_8c.html#af59da056d90f3f8cbe187378661db009" target="_top" xlink:title=" ">
<polygon fill="white" stroke="black" points="244,-1109 244,-1139 393,-1139 393,-1109 244,-1109"/>
<text text-anchor="start" x="252" y="-1127" font-family="Helvetica,sans-Serif" font-size="10.00">PK_1WireWriteReadStartEx</text>
<text text-anchor="middle" x="318.5" y="-1116" font-family="Helvetica,sans-Serif" font-size="10.00">Async</text>
</a>
</g>
</g>
<!-- Node1&#45;&gt;Node3 -->
<g id="edge2" class="edge">
<title>Node1&#45;&gt;Node3</title>
<path fill="none" stroke="midnightblue" d="M536.31,-613.7C526.58,-698 484.51,-1027.28 414,-1099 408.05,-1105.05 400.82,-1109.69 393.04,-1113.24"/>
<polygon fill="midnightblue" stroke="midnightblue" points="539.8,-614.01 537.45,-603.68 532.85,-613.22 539.8,-614.01"/>
</g>
<!-- Node4 -->
<g id="node4" class="node">
<title>Node4</title>
<g id="a_node4"><a xlink:href="PoKeysLibCANAsync_8c.html#a93468fc1c3cc3c04ca452721d86b308f" target="_top" xlink:title=" ">
<polygon fill="white" stroke="black" points="253,-1070.5 253,-1089.5 384,-1089.5 384,-1070.5 253,-1070.5"/>
<text text-anchor="middle" x="318.5" y="-1077.5" font-family="Helvetica,sans-Serif" font-size="10.00">PK_CANConfigureAsync</text>
</a>
</g>
</g>
<!-- Node1&#45;&gt;Node4 -->
<g id="edge3" class="edge">
<title>Node1&#45;&gt;Node4</title>
<path fill="none" stroke="midnightblue" d="M535.96,-614.1C525.31,-695.26 481.6,-997.47 414,-1061 405.71,-1068.79 395.15,-1073.79 384.12,-1076.92"/>
<polygon fill="midnightblue" stroke="midnightblue" points="539.48,-614.15 537.29,-603.79 532.54,-613.26 539.48,-614.15"/>
</g>
<!-- Node5 -->
<g id="node5" class="node">
<title>Node5</title>
<g id="a_node5"><a xlink:href="PoKeysLibCANAsync_8c.html#a9a8d4488fe4cd835dbdb756a83c27a03" target="_top" xlink:title=" ">
<polygon fill="white" stroke="black" points="243.5,-1032.5 243.5,-1051.5 393.5,-1051.5 393.5,-1032.5 243.5,-1032.5"/>
<text text-anchor="middle" x="318.5" y="-1039.5" font-family="Helvetica,sans-Serif" font-size="10.00">PK_CANRegisterFilterAsync</text>
</a>
</g>
</g>
<!-- Node1&#45;&gt;Node5 -->
<g id="edge4" class="edge">
<title>Node1&#45;&gt;Node5</title>
<path fill="none" stroke="midnightblue" d="M535.49,-613.93C523.49,-690.63 476.72,-965.34 414,-1023 408.09,-1028.44 401.07,-1032.5 393.57,-1035.52"/>
<polygon fill="midnightblue" stroke="midnightblue" points="538.99,-614.16 537.06,-603.74 532.07,-613.09 538.99,-614.16"/>
</g>
<!-- Node6 -->
<g id="node6" class="node">
<title>Node6</title>
<g id="a_node6"><a xlink:href="PoKeysLibCANAsync_8c.html#a5d393baa1ba4e9d6d5fe12aa171bea86" target="_top" xlink:title=" ">
<polygon fill="white" stroke="black" points="263,-994.5 263,-1013.5 374,-1013.5 374,-994.5 263,-994.5"/>
<text text-anchor="middle" x="318.5" y="-1001.5" font-family="Helvetica,sans-Serif" font-size="10.00">PK_CANWriteAsync</text>
</a>
</g>
</g>
<!-- Node1&#45;&gt;Node6 -->
<g id="edge5" class="edge">
<title>Node1&#45;&gt;Node6</title>
<path fill="none" stroke="midnightblue" d="M538.72,-613.78C538.27,-678.12 527.63,-883.21 414,-985 403.03,-994.83 388.44,-1000.14 374.01,-1002.89"/>
<polygon fill="midnightblue" stroke="midnightblue" points="542.22,-613.76 538.71,-603.76 535.22,-613.77 542.22,-613.76"/>
</g>
<!-- Node7 -->
<g id="node7" class="node">
<title>Node7</title>
<g id="a_node7"><a xlink:href="PoKeysLibCOSMAsync_8c.html#a8b3b1a3ceb4b4adaf121b630f490fdb6" target="_top" xlink:title=" ">
<polygon fill="white" stroke="black" points="244,-956.5 244,-975.5 393,-975.5 393,-956.5 244,-956.5"/>
<text text-anchor="middle" x="318.5" y="-963.5" font-family="Helvetica,sans-Serif" font-size="10.00">PK_COSMSettingsSetAsync</text>
</a>
</g>
</g>
<!-- Node1&#45;&gt;Node7 -->
<g id="edge6" class="edge">
<title>Node1&#45;&gt;Node7</title>
<path fill="none" stroke="midnightblue" d="M537.94,-613.82C535.11,-674.13 517.95,-856.74 414,-947 407.94,-952.27 400.82,-956.23 393.27,-959.18"/>
<polygon fill="midnightblue" stroke="midnightblue" points="541.44,-613.87 538.33,-603.75 534.45,-613.6 541.44,-613.87"/>
</g>
<!-- Node8 -->
<g id="node8" class="node">
<title>Node8</title>
<g id="a_node8"><a xlink:href="PoKeysLibEasySensorsAsync_8c.html#a30827a27bf2e00942726be940471cfc6" target="_top" xlink:title=" ">
<polygon fill="white" stroke="black" points="234,-918.5 234,-937.5 403,-937.5 403,-918.5 234,-918.5"/>
<text text-anchor="middle" x="318.5" y="-925.5" font-family="Helvetica,sans-Serif" font-size="10.00">PK_EasySensorsSetupSetAsync</text>
</a>
</g>
</g>
<!-- Node1&#45;&gt;Node8 -->
<g id="edge7" class="edge">
<title>Node1&#45;&gt;Node8</title>
<path fill="none" stroke="midnightblue" d="M537,-613.88C531.63,-669.91 508.34,-830.12 414,-909 409.51,-912.76 404.48,-915.84 399.14,-918.37"/>
<polygon fill="midnightblue" stroke="midnightblue" points="540.51,-613.84 537.89,-603.57 533.54,-613.24 540.51,-613.84"/>
</g>
<!-- Node9 -->
<g id="node9" class="node">
<title>Node9</title>
<g id="a_node9"><a xlink:href="PoKeysLibEncodersAsync_8c.html#a117781f6a4977f67bcb5f0d4901e6a47" target="_top" xlink:title="Asynchronously sets the full PoKeys encoder configuration.">
<polygon fill="white" stroke="black" points="241,-869 241,-899 396,-899 396,-869 241,-869"/>
<text text-anchor="start" x="249" y="-887" font-family="Helvetica,sans-Serif" font-size="10.00">PK_EncoderConfigurationSet</text>
<text text-anchor="middle" x="318.5" y="-876" font-family="Helvetica,sans-Serif" font-size="10.00">Async</text>
</a>
</g>
</g>
<!-- Node1&#45;&gt;Node9 -->
<g id="edge8" class="edge">
<title>Node1&#45;&gt;Node9</title>
<path fill="none" stroke="midnightblue" d="M535.11,-613.73C525.59,-663.03 493.86,-792.4 414,-859 408.66,-863.46 402.6,-867.13 396.2,-870.15"/>
<polygon fill="midnightblue" stroke="midnightblue" points="538.58,-614.2 536.95,-603.73 531.7,-612.94 538.58,-614.2"/>
</g>
<!-- Node10 -->
<g id="node10" class="node">
<title>Node10</title>
<g id="a_node10"><a xlink:href="PoKeysLibEncodersAsync_8c.html#a750834bb2458087d9484ed7b81b2a01b" target="_top" xlink:title="Starts asynchronous encoder values set sequence.">
<polygon fill="white" stroke="black" points="243,-830.5 243,-849.5 394,-849.5 394,-830.5 243,-830.5"/>
<text text-anchor="middle" x="318.5" y="-837.5" font-family="Helvetica,sans-Serif" font-size="10.00">PK_EncoderValuesSetAsync</text>
</a>
</g>
</g>
<!-- Node1&#45;&gt;Node10 -->
<g id="edge9" class="edge">
<title>Node1&#45;&gt;Node10</title>
<path fill="none" stroke="midnightblue" d="M533.8,-613.54C522.02,-658.11 486.79,-767.51 414,-821 408.07,-825.36 401.38,-828.78 394.38,-831.46"/>
<polygon fill="midnightblue" stroke="midnightblue" points="537.24,-614.24 536.3,-603.68 530.45,-612.52 537.24,-614.24"/>
</g>
<!-- Node11 -->
<g id="node11" class="node">
<title>Node11</title>
<g id="a_node11"><a xlink:href="PoKeysLibFailsafeAsync_8c.html#a6830709da02ba56475091d3aeb6bfa18" target="_top" xlink:title=" ">
<polygon fill="white" stroke="black" points="240,-792.5 240,-811.5 397,-811.5 397,-792.5 240,-792.5"/>
<text text-anchor="middle" x="318.5" y="-799.5" font-family="Helvetica,sans-Serif" font-size="10.00">PK_FailsafeSettingsSetAsync</text>
</a>
</g>
</g>
<!-- Node1&#45;&gt;Node11 -->
<g id="edge10" class="edge">
<title>Node1&#45;&gt;Node11</title>
<path fill="none" stroke="midnightblue" d="M531.62,-613.42C516.75,-652.38 477.72,-740.02 414,-783 408.31,-786.84 402.02,-789.93 395.47,-792.42"/>
<polygon fill="midnightblue" stroke="midnightblue" points="534.99,-614.39 535.18,-603.8 528.43,-611.96 534.99,-614.39"/>
</g>
<!-- Node12 -->
<g id="node12" class="node">
<title>Node12</title>
<g id="a_node12"><a xlink:href="PoKeysLibI2CAsync_8c.html#a4808b1c539055751f59605639203c144" target="_top" xlink:title=" ">
<polygon fill="white" stroke="black" points="232,-754.5 232,-773.5 405,-773.5 405,-754.5 232,-754.5"/>
<text text-anchor="middle" x="318.5" y="-761.5" font-family="Helvetica,sans-Serif" font-size="10.00">PK_I2CWriteAndReadStartAsync</text>
</a>
</g>
</g>
<!-- Node1&#45;&gt;Node12 -->
<g id="edge11" class="edge">
<title>Node1&#45;&gt;Node12</title>
<path fill="none" stroke="midnightblue" d="M528.82,-612.62C510.87,-645.13 469.2,-711.92 414,-745 407.54,-748.87 400.43,-751.97 393.1,-754.44"/>
<polygon fill="midnightblue" stroke="midnightblue" points="531.96,-614.17 533.61,-603.71 525.79,-610.86 531.96,-614.17"/>
</g>
<!-- Node13 -->
<g id="node13" class="node">
<title>Node13</title>
<g id="a_node13"><a xlink:href="PoKeysLibI2CAsync_8c.html#a745b083bf9c3e57209826574d33571ad" target="_top" xlink:title=" ">
<polygon fill="white" stroke="black" points="254,-716.5 254,-735.5 383,-735.5 383,-716.5 254,-716.5"/>
<text text-anchor="middle" x="318.5" y="-723.5" font-family="Helvetica,sans-Serif" font-size="10.00">PK_I2CWriteStartAsync</text>
</a>
</g>
</g>
<!-- Node1&#45;&gt;Node13 -->
<g id="edge12" class="edge">
<title>Node1&#45;&gt;Node13</title>
<path fill="none" stroke="midnightblue" d="M524.43,-611.79C503.3,-637.17 460.85,-683.34 414,-707 404.44,-711.83 393.75,-715.43 383.1,-718.12"/>
<polygon fill="midnightblue" stroke="midnightblue" points="527.38,-613.71 530.98,-603.74 521.95,-609.28 527.38,-613.71"/>
</g>
<!-- Node14 -->
<g id="node14" class="node">
<title>Node14</title>
<g id="a_node14"><a xlink:href="PoKeysLibLCDAsync_8c.html#a6aec34ba0e73e54d8ed57a5a402182fa" target="_top" xlink:title=" ">
<polygon fill="white" stroke="black" points="238.5,-667 238.5,-697 398.5,-697 398.5,-667 238.5,-667"/>
<text text-anchor="start" x="246.5" y="-685" font-family="Helvetica,sans-Serif" font-size="10.00">PK_LCDSetCustomCharacters</text>
<text text-anchor="middle" x="318.5" y="-674" font-family="Helvetica,sans-Serif" font-size="10.00">Async</text>
</a>
</g>
</g>
<!-- Node1&#45;&gt;Node14 -->
<g id="edge13" class="edge">
<title>Node1&#45;&gt;Node14</title>
<path fill="none" stroke="midnightblue" d="M513.38,-608.69C488.73,-622.63 449.74,-643.4 414,-657 404.32,-660.68 393.89,-664.03 383.62,-666.99"/>
<polygon fill="midnightblue" stroke="midnightblue" points="515.15,-611.71 522.09,-603.71 511.67,-605.63 515.15,-611.71"/>
</g>
<!-- Node15 -->
<g id="node15" class="node">
<title>Node15</title>
<g id="a_node15"><a xlink:href="PoKeysLibLCDAsync_8c.html#a20c0abfc86d310530b99e7db6b7c4e98" target="_top" xlink:title=" ">
<polygon fill="white" stroke="black" points="259,-628.5 259,-647.5 378,-647.5 378,-628.5 259,-628.5"/>
<text text-anchor="middle" x="318.5" y="-635.5" font-family="Helvetica,sans-Serif" font-size="10.00">PK_LCDUpdateAsync</text>
</a>
</g>
</g>
<!-- Node1&#45;&gt;Node15 -->
<g id="edge14" class="edge">
<title>Node1&#45;&gt;Node15</title>
<path fill="none" stroke="midnightblue" d="M480.76,-605.6C445.26,-612.73 400.34,-621.76 366.93,-628.47"/>
<polygon fill="midnightblue" stroke="midnightblue" points="481.87,-608.95 490.98,-603.55 480.49,-602.09 481.87,-608.95"/>
</g>
<!-- Node16 -->
<g id="node16" class="node">
<title>Node16</title>
<g id="a_node16"><a xlink:href="PoKeysLibMatrixKBAsync_8c.html#a98a9bea03693d3957f2e4782294f1d57" target="_top" xlink:title=" ">
<polygon fill="white" stroke="black" points="246,-579 246,-609 391,-609 391,-579 246,-579"/>
<text text-anchor="start" x="254" y="-597" font-family="Helvetica,sans-Serif" font-size="10.00">PK_MatrixKBConfiguration</text>
<text text-anchor="middle" x="318.5" y="-586" font-family="Helvetica,sans-Serif" font-size="10.00">SetAsync</text>
</a>
</g>
</g>
<!-- Node1&#45;&gt;Node16 -->
<g id="edge15" class="edge">
<title>Node1&#45;&gt;Node16</title>
<path fill="none" stroke="midnightblue" d="M439.65,-594C423.35,-594 406.73,-594 391.26,-594"/>
<polygon fill="midnightblue" stroke="midnightblue" points="439.74,-597.5 449.74,-594 439.74,-590.5 439.74,-597.5"/>
</g>
<!-- Node17 -->
<g id="node17" class="node">
<title>Node17</title>
<g id="a_node17"><a xlink:href="PoKeysLibMatrixLEDAsync_8c.html#a40f6efbdf2520af47db38678077ef8e5" target="_top" xlink:title=" ">
<polygon fill="white" stroke="black" points="244,-540.5 244,-559.5 393,-559.5 393,-540.5 244,-540.5"/>
<text text-anchor="middle" x="318.5" y="-547.5" font-family="Helvetica,sans-Serif" font-size="10.00">PK_MatrixLEDUpdateAsync</text>
</a>
</g>
</g>
<!-- Node1&#45;&gt;Node17 -->
<g id="edge16" class="edge">
<title>Node1&#45;&gt;Node17</title>
<path fill="none" stroke="midnightblue" d="M480.76,-582.4C445.26,-575.27 400.34,-566.24 366.93,-559.53"/>
<polygon fill="midnightblue" stroke="midnightblue" points="480.49,-585.91 490.98,-584.45 481.87,-579.05 480.49,-585.91"/>
</g>
<!-- Node18 -->
<g id="node18" class="node">
<title>Node18</title>
<g id="a_node18"><a xlink:href="PoKeysLibPulseEngine__v2Async_8c.html#a53f0614f33fccfe2e0bbc726641bed51" target="_top" xlink:title=" ">
<polygon fill="white" stroke="black" points="234,-491 234,-521 403,-521 403,-491 234,-491"/>
<text text-anchor="start" x="242" y="-509" font-family="Helvetica,sans-Serif" font-size="10.00">PK_PEv2_AdditionalParameters</text>
<text text-anchor="middle" x="318.5" y="-498" font-family="Helvetica,sans-Serif" font-size="10.00">SetAsync</text>
</a>
</g>
</g>
<!-- Node1&#45;&gt;Node18 -->
<g id="edge17" class="edge">
<title>Node1&#45;&gt;Node18</title>
<path fill="none" stroke="midnightblue" d="M513.38,-579.31C488.73,-565.37 449.74,-544.6 414,-531 404.32,-527.32 393.89,-523.97 383.62,-521.01"/>
<polygon fill="midnightblue" stroke="midnightblue" points="511.67,-582.37 522.09,-584.29 515.15,-576.29 511.67,-582.37"/>
</g>
<!-- Node19 -->
<g id="node19" class="node">
<title>Node19</title>
<g id="a_node19"><a xlink:href="PoKeysLibPulseEngine__v2Async_8c.html#a4e43799dba91cd1d637fcc702bf0b336" target="_top" xlink:title=" ">
<polygon fill="white" stroke="black" points="243.5,-442 243.5,-472 393.5,-472 393.5,-442 243.5,-442"/>
<text text-anchor="start" x="251.5" y="-460" font-family="Helvetica,sans-Serif" font-size="10.00">PK_PEv2_AxisConfiguration</text>
<text text-anchor="middle" x="318.5" y="-449" font-family="Helvetica,sans-Serif" font-size="10.00">SetAsync</text>
</a>
</g>
</g>
<!-- Node1&#45;&gt;Node19 -->
<g id="edge18" class="edge">
<title>Node1&#45;&gt;Node19</title>
<path fill="none" stroke="midnightblue" d="M523.88,-576.38C502.36,-551.6 459.76,-506.74 414,-482 406.83,-478.13 399.03,-474.83 391.09,-472.02"/>
<polygon fill="midnightblue" stroke="midnightblue" points="521.43,-578.9 530.58,-584.24 526.75,-574.36 521.43,-578.9"/>
</g>
<!-- Node20 -->
<g id="node20" class="node">
<title>Node20</title>
<g id="a_node20"><a xlink:href="PoKeysLibPulseEngine__v2Async_8c.html#afcefae34cd3c9b79d1e9e3bdf4d29d18" target="_top" xlink:title=" ">
<polygon fill="white" stroke="black" points="239.5,-393 239.5,-423 397.5,-423 397.5,-393 239.5,-393"/>
<text text-anchor="start" x="247.5" y="-411" font-family="Helvetica,sans-Serif" font-size="10.00">PK_PEv2_ExternalOutputsSet</text>
<text text-anchor="middle" x="318.5" y="-400" font-family="Helvetica,sans-Serif" font-size="10.00">Async</text>
</a>
</g>
</g>
<!-- Node1&#45;&gt;Node20 -->
<g id="edge19" class="edge">
<title>Node1&#45;&gt;Node20</title>
<path fill="none" stroke="midnightblue" d="M529.18,-574.98C511.56,-541.05 470.04,-470.17 414,-433 408.2,-429.15 401.84,-425.9 395.23,-423.14"/>
<polygon fill="midnightblue" stroke="midnightblue" points="526.24,-576.9 533.87,-584.25 532.48,-573.74 526.24,-576.9"/>
</g>
<!-- Node21 -->
<g id="node21" class="node">
<title>Node21</title>
<g id="a_node21"><a xlink:href="PoKeysLibPulseEngine__v2Async_8c.html#ad237da4187cb752d13bae3cc88a0a549" target="_top" xlink:title=" ">
<polygon fill="white" stroke="black" points="241,-354.5 241,-373.5 396,-373.5 396,-354.5 241,-354.5"/>
<text text-anchor="middle" x="318.5" y="-361.5" font-family="Helvetica,sans-Serif" font-size="10.00">PK_PEv2_HomingStartAsync</text>
</a>
</g>
</g>
<!-- Node1&#45;&gt;Node21 -->
<g id="edge20" class="edge">
<title>Node1&#45;&gt;Node21</title>
<path fill="none" stroke="midnightblue" d="M532.87,-574.53C519.64,-532.49 482.44,-433.08 414,-384 408,-379.7 401.28,-376.29 394.25,-373.58"/>
<polygon fill="midnightblue" stroke="midnightblue" points="529.53,-575.58 535.78,-584.13 536.23,-573.54 529.53,-575.58"/>
</g>
<!-- Node22 -->
<g id="node22" class="node">
<title>Node22</title>
<g id="a_node22"><a xlink:href="PoKeysLibPulseEngine__v2Async_8c.html#aa8ce6159e641891e0f7384a7818d41d0" target="_top" xlink:title=" ">
<polygon fill="white" stroke="black" points="223,-316.5 223,-335.5 414,-335.5 414,-316.5 223,-316.5"/>
<text text-anchor="middle" x="318.5" y="-323.5" font-family="Helvetica,sans-Serif" font-size="10.00">PK_PEv2_PulseEngineMovePVAsync</text>
</a>
</g>
</g>
<!-- Node1&#45;&gt;Node22 -->
<g id="edge21" class="edge">
<title>Node1&#45;&gt;Node22</title>
<path fill="none" stroke="midnightblue" d="M534.82,-574.54C524.77,-527.05 492.2,-404.79 414,-345 409.08,-341.24 403.61,-338.17 397.85,-335.67"/>
<polygon fill="midnightblue" stroke="midnightblue" points="531.41,-575.33 536.82,-584.44 538.28,-573.95 531.41,-575.33"/>
</g>
<!-- Node23 -->
<g id="node23" class="node">
<title>Node23</title>
<g id="a_node23"><a xlink:href="PoKeysLibPulseEngine__v2Async_8c.html#aaaef541dd46b265976495eb7292d34c0" target="_top" xlink:title=" ">
<polygon fill="white" stroke="black" points="243,-267 243,-297 394,-297 394,-267 243,-267"/>
<text text-anchor="start" x="251" y="-285" font-family="Helvetica,sans-Serif" font-size="10.00">PK_PEv2_PulseEngineSetup</text>
<text text-anchor="middle" x="318.5" y="-274" font-family="Helvetica,sans-Serif" font-size="10.00">Async</text>
</a>
</g>
</g>
<!-- Node1&#45;&gt;Node23 -->
<g id="edge22" class="edge">
<title>Node1&#45;&gt;Node23</title>
<path fill="none" stroke="midnightblue" d="M535.91,-574.4C527.99,-522.46 499.18,-380.23 414,-307 408.21,-302.02 401.53,-298.02 394.46,-294.81"/>
<polygon fill="midnightblue" stroke="midnightblue" points="532.45,-574.91 537.33,-584.32 539.38,-573.92 532.45,-574.91"/>
</g>
<!-- Node24 -->
<g id="node24" class="node">
<title>Node24</title>
<g id="a_node24"><a xlink:href="PoKeysLibPoNETAsync_8c.html#a37a28fc2391a33de6bb4f0529408cc0b" target="_top" xlink:title=" ">
<polygon fill="white" stroke="black" points="229.5,-228.5 229.5,-247.5 407.5,-247.5 407.5,-228.5 229.5,-228.5"/>
<text text-anchor="middle" x="318.5" y="-235.5" font-family="Helvetica,sans-Serif" font-size="10.00">PK_PoNETSetModuleStatusAsync</text>
</a>
</g>
</g>
<!-- Node1&#45;&gt;Node24 -->
<g id="edge23" class="edge">
<title>Node1&#45;&gt;Node24</title>
<path fill="none" stroke="midnightblue" d="M537.52,-574.4C533.49,-516.31 513.32,-343.76 414,-258 409.05,-253.73 403.41,-250.29 397.42,-247.54"/>
<polygon fill="midnightblue" stroke="midnightblue" points="534.03,-574.67 538.13,-584.44 541.01,-574.24 534.03,-574.67"/>
</g>
<!-- Node27 -->
<g id="node27" class="node">
<title>Node27</title>
<g id="a_node27"><a xlink:href="PoKeysLibSPIAsync_8c.html#a129c7aee204d5fd2ee7553119b8a900a" target="_top" xlink:title="Perform SPI write/read transaction asynchronously (command 0xE5/0x04).">
<polygon fill="white" stroke="black" points="259.5,-190.5 259.5,-209.5 377.5,-209.5 377.5,-190.5 259.5,-190.5"/>
<text text-anchor="middle" x="318.5" y="-197.5" font-family="Helvetica,sans-Serif" font-size="10.00">PK_SPITransferAsync</text>
</a>
</g>
</g>
<!-- Node1&#45;&gt;Node27 -->
<g id="edge26" class="edge">
<title>Node1&#45;&gt;Node27</title>
<path fill="none" stroke="midnightblue" d="M538.41,-574.21C536.98,-511.55 523.55,-315.92 414,-219 403.97,-210.13 390.98,-204.95 377.86,-202.01"/>
<polygon fill="midnightblue" stroke="midnightblue" points="534.91,-574.36 538.56,-584.31 541.91,-574.26 534.91,-574.36"/>
</g>
<!-- Node28 -->
<g id="node28" class="node">
<title>Node28</title>
<g id="a_node28"><a xlink:href="PoKeysLibSPIAsync_8c.html#a57886bd80708389b699f2f2ca70ba87f" target="_top" xlink:title="Write data to SPI bus asynchronously (command 0xE5/0x02).">
<polygon fill="white" stroke="black" points="266,-152.5 266,-171.5 371,-171.5 371,-152.5 266,-152.5"/>
<text text-anchor="middle" x="318.5" y="-159.5" font-family="Helvetica,sans-Serif" font-size="10.00">PK_SPIWriteAsync</text>
</a>
</g>
</g>
<!-- Node1&#45;&gt;Node28 -->
<g id="edge27" class="edge">
<title>Node1&#45;&gt;Node28</title>
<path fill="none" stroke="midnightblue" d="M539.11,-574.03C539.97,-507.19 533.14,-289.4 414,-181 402.36,-170.41 386.53,-165.04 371.16,-162.48"/>
<polygon fill="midnightblue" stroke="midnightblue" points="535.6,-574.31 538.89,-584.38 542.6,-574.46 535.6,-574.31"/>
</g>
<!-- Node29 -->
<g id="node29" class="node">
<title>Node29</title>
<g id="a_node29"><a xlink:href="PoKeysLibUARTAsync_8c.html#aea87db7469895f77a250b33b1b4c2386" target="_top" xlink:title=" ">
<polygon fill="white" stroke="black" points="250.5,-114.5 250.5,-133.5 386.5,-133.5 386.5,-114.5 250.5,-114.5"/>
<text text-anchor="middle" x="318.5" y="-121.5" font-family="Helvetica,sans-Serif" font-size="10.00">PK_UARTConfigureAsync</text>
</a>
</g>
</g>
<!-- Node1&#45;&gt;Node29 -->
<g id="edge28" class="edge">
<title>Node1&#45;&gt;Node29</title>
<path fill="none" stroke="midnightblue" d="M535.78,-574.07C524.6,-494.91 479.57,-204.08 414,-143 406.41,-135.93 396.95,-131.17 386.98,-128.01"/>
<polygon fill="midnightblue" stroke="midnightblue" points="532.34,-574.74 537.19,-584.16 539.28,-573.77 532.34,-574.74"/>
</g>
<!-- Node30 -->
<g id="node30" class="node">
<title>Node30</title>
<g id="a_node30"><a xlink:href="PoKeysLibUARTAsync_8c.html#a77b6114b16cd7a136e59e4912644501b" target="_top" xlink:title=" ">
<polygon fill="white" stroke="black" points="260.5,-76.5 260.5,-95.5 376.5,-95.5 376.5,-76.5 260.5,-76.5"/>
<text text-anchor="middle" x="318.5" y="-83.5" font-family="Helvetica,sans-Serif" font-size="10.00">PK_UARTWriteAsync</text>
</a>
</g>
</g>
<!-- Node1&#45;&gt;Node30 -->
<g id="edge29" class="edge">
<title>Node1&#45;&gt;Node30</title>
<path fill="none" stroke="midnightblue" d="M536.23,-574.02C526.37,-490.69 484.5,-172 414,-105 403.93,-95.43 390.46,-90.07 376.85,-87.19"/>
<polygon fill="midnightblue" stroke="midnightblue" points="532.78,-574.64 537.41,-584.17 539.73,-573.83 532.78,-574.64"/>
</g>
<!-- Node31 -->
<g id="node31" class="node">
<title>Node31</title>
<g id="a_node31"><a xlink:href="PoKeysLibSecurityAsync_8c.html#ae0c9142e84950ab126a83001ac7b3872" target="_top" xlink:title=" ">
<polygon fill="white" stroke="black" points="252,-38.5 252,-57.5 385,-57.5 385,-38.5 252,-38.5"/>
<text text-anchor="middle" x="318.5" y="-45.5" font-family="Helvetica,sans-Serif" font-size="10.00">PK_UserAuthoriseAsync</text>
</a>
</g>
</g>
<!-- Node1&#45;&gt;Node31 -->
<g id="edge30" class="edge">
<title>Node1&#45;&gt;Node31</title>
<path fill="none" stroke="midnightblue" d="M536.64,-574.17C528.06,-487.12 489.51,-140.02 414,-67 406.06,-59.32 395.93,-54.34 385.27,-51.18"/>
<polygon fill="midnightblue" stroke="midnightblue" points="533.17,-574.65 537.61,-584.27 540.14,-573.98 533.17,-574.65"/>
</g>
<!-- Node32 -->
<g id="node32" class="node">
<title>Node32</title>
<g id="a_node32"><a xlink:href="PoKeysLibSecurityAsync_8c.html#ab08ae8bd6f049dff6571e6bc5853da0e" target="_top" xlink:title=" ">
<polygon fill="white" stroke="black" points="244.5,-0.5 244.5,-19.5 392.5,-19.5 392.5,-0.5 244.5,-0.5"/>
<text text-anchor="middle" x="318.5" y="-7.5" font-family="Helvetica,sans-Serif" font-size="10.00">PK_UserPasswordSetAsync</text>
</a>
</g>
</g>
<!-- Node1&#45;&gt;Node32 -->
<g id="edge31" class="edge">
<title>Node1&#45;&gt;Node32</title>
<path fill="none" stroke="midnightblue" d="M536.98,-574.22C529.59,-483.46 494.51,-108.04 414,-29 407.91,-23.02 400.5,-18.67 392.53,-15.54"/>
<polygon fill="midnightblue" stroke="midnightblue" points="533.51,-574.77 537.79,-584.46 540.49,-574.21 533.51,-574.77"/>
</g>
<!-- Node25 -->
<g id="node25" class="node">
<title>Node25</title>
<g id="a_node25"><a xlink:href="PoKeysLibPoNETAsyncEnhanced_8c.html#ab41437e73751987ff690ee6be106600e" target="_top" xlink:title=" ">
<polygon fill="white" stroke="black" points="0,-247 0,-277 187,-277 187,-247 0,-247"/>
<text text-anchor="start" x="8" y="-265" font-family="Helvetica,sans-Serif" font-size="10.00">PK_PoNETKbd48CNCLEDSetPattern</text>
<text text-anchor="middle" x="93.5" y="-254" font-family="Helvetica,sans-Serif" font-size="10.00">Async</text>
</a>
</g>
</g>
<!-- Node24&#45;&gt;Node25 -->
<g id="edge24" class="edge">
<title>Node24&#45;&gt;Node25</title>
<path fill="none" stroke="midnightblue" d="M219.2,-248.58C208.54,-249.73 197.72,-250.89 187.12,-252.03"/>
<polygon fill="midnightblue" stroke="midnightblue" points="219.8,-252.04 229.36,-247.49 219.05,-245.08 219.8,-252.04"/>
</g>
<!-- Node26 -->
<g id="node26" class="node">
<title>Node26</title>
<g id="a_node26"><a xlink:href="PoKeysLibPoNETAsyncEnhanced_8c.html#abbf8834b3a28fe508ab44e49093fad1a" target="_top" xlink:title=" ">
<polygon fill="white" stroke="black" points="3.5,-198 3.5,-228 183.5,-228 183.5,-198 3.5,-198"/>
<text text-anchor="start" x="11.5" y="-216" font-family="Helvetica,sans-Serif" font-size="10.00">PK_PoNETKbd48CNCUpdateCycle</text>
<text text-anchor="middle" x="93.5" y="-205" font-family="Helvetica,sans-Serif" font-size="10.00">Async</text>
</a>
</g>
</g>
<!-- Node24&#45;&gt;Node26 -->
<g id="edge25" class="edge">
<title>Node24&#45;&gt;Node26</title>
<path fill="none" stroke="midnightblue" d="M222.34,-227.33C209.51,-225.89 196.38,-224.42 183.65,-222.99"/>
<polygon fill="midnightblue" stroke="midnightblue" points="222.23,-230.84 232.56,-228.48 223.01,-223.88 222.23,-230.84"/>
</g>
</g>
</svg>
