<?xml version="1.0" encoding="UTF-8" standalone="no"?>
<!DOCTYPE svg PUBLIC "-//W3C//DTD SVG 1.1//EN"
 "http://www.w3.org/Graphics/SVG/1.1/DTD/svg11.dtd">
<!-- Generated by graphviz version 2.43.0 (0)
 -->
<!-- Title: InitializeNewDevice Pages: 1 -->
<svg width="745pt" height="154pt"
 viewBox="0.00 0.00 745.00 154.00" xmlns="http://www.w3.org/2000/svg" xmlns:xlink="http://www.w3.org/1999/xlink">
<g id="graph0" class="graph" transform="scale(1 1) rotate(0) translate(4 150)">
<title>InitializeNewDevice</title>
<polygon fill="white" stroke="transparent" points="-4,4 -4,-150 741,-150 741,4 -4,4"/>
<!-- Node1 -->
<g id="node1" class="node">
<title>Node1</title>
<g id="a_node1"><a xlink:title=" ">
<polygon fill="#bfbfbf" stroke="black" points="623,-66.5 623,-85.5 737,-85.5 737,-66.5 623,-66.5"/>
<text text-anchor="middle" x="680" y="-73.5" font-family="Helvetica,sans-Serif" font-size="10.00">InitializeNewDevice</text>
</a>
</g>
</g>
<!-- Node2 -->
<g id="node2" class="node">
<title>Node2</title>
<g id="a_node2"><a xlink:href="experimental_2build_2PoKeysLibCoreAsync_8c.html#a4a4450280f6d34ac5495f34bad644f83" target="_top" xlink:title=" ">
<polygon fill="white" stroke="black" points="438,-126.5 438,-145.5 557,-145.5 557,-126.5 438,-126.5"/>
<text text-anchor="middle" x="497.5" y="-133.5" font-family="Helvetica,sans-Serif" font-size="10.00">PK_ConnectToDevice</text>
</a>
</g>
</g>
<!-- Node1&#45;&gt;Node2 -->
<g id="edge1" class="edge">
<title>Node1&#45;&gt;Node2</title>
<path fill="none" stroke="midnightblue" d="M651.13,-90.24C633.19,-98.95 609.16,-109.77 587,-117 575.8,-120.66 563.56,-123.8 551.86,-126.42"/>
<polygon fill="midnightblue" stroke="midnightblue" points="653,-93.22 660.42,-85.66 649.91,-86.94 653,-93.22"/>
</g>
<!-- Node3 -->
<g id="node3" class="node">
<title>Node3</title>
<g id="a_node3"><a xlink:href="pokeysHal_2experimental_2build_2PoKeysLibCoreSockets_8c.html#adc6dbd8de4b4df5dbee307b15af90373" target="_top" xlink:title=" ">
<polygon fill="white" stroke="black" points="417.5,-88.5 417.5,-107.5 577.5,-107.5 577.5,-88.5 417.5,-88.5"/>
<text text-anchor="middle" x="497.5" y="-95.5" font-family="Helvetica,sans-Serif" font-size="10.00">PK_ConnectToNetworkDevice</text>
</a>
</g>
</g>
<!-- Node1&#45;&gt;Node3 -->
<g id="edge2" class="edge">
<title>Node1&#45;&gt;Node3</title>
<path fill="none" stroke="midnightblue" d="M612.69,-84.08C600.91,-85.52 588.53,-87.03 576.46,-88.5"/>
<polygon fill="midnightblue" stroke="midnightblue" points="613.38,-87.52 622.88,-82.84 612.53,-80.58 613.38,-87.52"/>
</g>
<!-- Node4 -->
<g id="node4" class="node">
<title>Node4</title>
<g id="a_node4"><a xlink:href="experimental_2build_2PoKeysLibCoreAsync_8c.html#aad34d6ff8fa450eef13043fad9a9231b" target="_top" xlink:title=" ">
<polygon fill="white" stroke="black" points="420.5,-39 420.5,-69 574.5,-69 574.5,-39 420.5,-39"/>
<text text-anchor="start" x="428.5" y="-57" font-family="Helvetica,sans-Serif" font-size="10.00">PK_ConnectToPoKeysDevice</text>
<text text-anchor="middle" x="497.5" y="-46" font-family="Helvetica,sans-Serif" font-size="10.00">_Ethernet</text>
</a>
</g>
</g>
<!-- Node1&#45;&gt;Node4 -->
<g id="edge3" class="edge">
<title>Node1&#45;&gt;Node4</title>
<path fill="none" stroke="midnightblue" d="M612.7,-67.92C600.37,-66.42 587.41,-64.84 574.81,-63.3"/>
<polygon fill="midnightblue" stroke="midnightblue" points="612.53,-71.42 622.88,-69.16 613.38,-64.48 612.53,-71.42"/>
</g>
<!-- Node8 -->
<g id="node8" class="node">
<title>Node8</title>
<g id="a_node8"><a xlink:href="experimental_2build_2PoKeysLibCoreAsync_8c.html#ae21a3349787cf1f1150186e4858397e6" target="_top" xlink:title=" ">
<polygon fill="white" stroke="black" points="408,-0.5 408,-19.5 587,-19.5 587,-0.5 408,-0.5"/>
<text text-anchor="middle" x="497.5" y="-7.5" font-family="Helvetica,sans-Serif" font-size="10.00">PK_ConnectToPoKeysDevice_USB</text>
</a>
</g>
</g>
<!-- Node1&#45;&gt;Node8 -->
<g id="edge7" class="edge">
<title>Node1&#45;&gt;Node8</title>
<path fill="none" stroke="midnightblue" d="M654.15,-61.51C636.04,-51.47 610.63,-38.44 587,-30 575.43,-25.87 562.69,-22.4 550.58,-19.57"/>
<polygon fill="midnightblue" stroke="midnightblue" points="652.48,-64.59 662.91,-66.45 655.92,-58.49 652.48,-64.59"/>
</g>
<!-- Node5 -->
<g id="node5" class="node">
<title>Node5</title>
<g id="a_node5"><a xlink:href="experimental_2build_2PoKeysLibCoreAsync_8c.html#a8ca5d1c479c3da4457b38ec866ea7e3d" target="_top" xlink:title=" ">
<polygon fill="white" stroke="black" points="218,-22.5 218,-41.5 372,-41.5 372,-22.5 218,-22.5"/>
<text text-anchor="middle" x="295" y="-29.5" font-family="Helvetica,sans-Serif" font-size="10.00">PK_ConnectToPoKeysDevice</text>
</a>
</g>
</g>
<!-- Node4&#45;&gt;Node5 -->
<g id="edge4" class="edge">
<title>Node4&#45;&gt;Node5</title>
<path fill="none" stroke="midnightblue" d="M410.29,-44.54C397.57,-43.14 384.53,-41.71 372.03,-40.34"/>
<polygon fill="midnightblue" stroke="midnightblue" points="410.09,-48.04 420.41,-45.65 410.86,-41.08 410.09,-48.04"/>
</g>
<!-- Node6 -->
<g id="node6" class="node">
<title>Node6</title>
<g id="a_node6"><a xlink:href="experimental_2build_2PoKeysLibCoreAsync_8c.html#ae19db1487bf5225a8fc84e9b70f0e2ec" target="_top" xlink:title=" ">
<polygon fill="white" stroke="black" points="13,-41.5 13,-60.5 169,-60.5 169,-41.5 13,-41.5"/>
<text text-anchor="middle" x="91" y="-48.5" font-family="Helvetica,sans-Serif" font-size="10.00">PK_ConnectToDeviceWSerial</text>
</a>
</g>
</g>
<!-- Node5&#45;&gt;Node6 -->
<g id="edge5" class="edge">
<title>Node5&#45;&gt;Node6</title>
<path fill="none" stroke="midnightblue" d="M207.7,-40.12C194.84,-41.33 181.66,-42.57 169.02,-43.76"/>
<polygon fill="midnightblue" stroke="midnightblue" points="208.29,-43.58 217.92,-39.16 207.64,-36.61 208.29,-43.58"/>
</g>
<!-- Node7 -->
<g id="node7" class="node">
<title>Node7</title>
<g id="a_node7"><a xlink:href="experimental_2build_2PoKeysLibCoreAsync_8c.html#a6ca83890b4c63d6132c83c7df831fb65" target="_top" xlink:title=" ">
<polygon fill="white" stroke="black" points="0,-3.5 0,-22.5 182,-22.5 182,-3.5 0,-3.5"/>
<text text-anchor="middle" x="91" y="-10.5" font-family="Helvetica,sans-Serif" font-size="10.00">PK_ConnectToDeviceWSerial_UDP</text>
</a>
</g>
</g>
<!-- Node5&#45;&gt;Node7 -->
<g id="edge6" class="edge">
<title>Node5&#45;&gt;Node7</title>
<path fill="none" stroke="midnightblue" d="M207.73,-23.89C199.31,-23.09 190.75,-22.29 182.29,-21.49"/>
<polygon fill="midnightblue" stroke="midnightblue" points="207.64,-27.39 217.92,-24.84 208.29,-20.42 207.64,-27.39"/>
</g>
<!-- Node8&#45;&gt;Node5 -->
<g id="edge8" class="edge">
<title>Node8&#45;&gt;Node5</title>
<path fill="none" stroke="midnightblue" d="M399.73,-20.62C390.49,-21.63 381.21,-22.65 372.2,-23.64"/>
<polygon fill="midnightblue" stroke="midnightblue" points="400.17,-24.09 409.72,-19.52 399.4,-17.13 400.17,-24.09"/>
</g>
</g>
</svg>
