<?xml version="1.0" encoding="UTF-8" standalone="no"?>
<!DOCTYPE svg PUBLIC "-//W3C//DTD SVG 1.1//EN"
 "http://www.w3.org/Graphics/SVG/1.1/DTD/svg11.dtd">
<!-- Generated by graphviz version 2.43.0 (0)
 -->
<!-- Title: PK_PoNETSetModuleStatusAsync Pages: 1 -->
<svg width="677pt" height="180pt"
 viewBox="0.00 0.00 677.00 180.00" xmlns="http://www.w3.org/2000/svg" xmlns:xlink="http://www.w3.org/1999/xlink">
<g id="graph0" class="graph" transform="scale(1 1) rotate(0) translate(4 176)">
<title>PK_PoNETSetModuleStatusAsync</title>
<polygon fill="white" stroke="transparent" points="-4,4 -4,-176 673,-176 673,4 -4,4"/>
<!-- Node1 -->
<g id="node1" class="node">
<title>Node1</title>
<g id="a_node1"><a xlink:title=" ">
<polygon fill="#bfbfbf" stroke="black" points="0,-76.5 0,-95.5 178,-95.5 178,-76.5 0,-76.5"/>
<text text-anchor="middle" x="89" y="-83.5" font-family="Helvetica,sans-Serif" font-size="10.00">PK_PoNETSetModuleStatusAsync</text>
</a>
</g>
</g>
<!-- Node2 -->
<g id="node2" class="node">
<title>Node2</title>
<g id="a_node2"><a xlink:href="PoKeysLibAsync_8c.html#ad3d8835baba234e6767172b8574629e5" target="_top" xlink:title="Prepares an asynchronous PoKeys request with optional payload data after header.">
<polygon fill="white" stroke="black" points="214,-114.5 214,-133.5 393,-133.5 393,-114.5 214,-114.5"/>
<text text-anchor="middle" x="303.5" y="-121.5" font-family="Helvetica,sans-Serif" font-size="10.00">CreateRequestAsyncWithPayload</text>
</a>
</g>
</g>
<!-- Node1&#45;&gt;Node2 -->
<g id="edge1" class="edge">
<title>Node1&#45;&gt;Node2</title>
<path fill="none" stroke="midnightblue" d="M143.35,-95.54C172.4,-100.73 208.53,-107.2 239.02,-112.65"/>
<polygon fill="midnightblue" stroke="midnightblue" points="238.67,-116.14 249.13,-114.46 239.9,-109.25 238.67,-116.14"/>
</g>
<!-- Node5 -->
<g id="node5" class="node">
<title>Node5</title>
<g id="a_node5"><a xlink:href="PoKeysLibAsync_8c.html#a77fe6d8f453b9f120276324e0b2ad076" target="_top" xlink:title="Sends an asynchronous request that was prepared earlier.">
<polygon fill="white" stroke="black" points="248.5,-57.5 248.5,-76.5 358.5,-76.5 358.5,-57.5 248.5,-57.5"/>
<text text-anchor="middle" x="303.5" y="-64.5" font-family="Helvetica,sans-Serif" font-size="10.00">SendRequestAsync</text>
</a>
</g>
</g>
<!-- Node1&#45;&gt;Node5 -->
<g id="edge4" class="edge">
<title>Node1&#45;&gt;Node5</title>
<path fill="none" stroke="midnightblue" d="M178.27,-78.11C198.29,-76.32 219.17,-74.45 237.99,-72.77"/>
<polygon fill="midnightblue" stroke="midnightblue" points="238.56,-76.23 248.21,-71.85 237.93,-69.26 238.56,-76.23"/>
</g>
<!-- Node3 -->
<g id="node3" class="node">
<title>Node3</title>
<g id="a_node3"><a xlink:href="PoKeysLibAsync_8c.html#a8e57ea5df5b229f5a1317bf4e4918c1b" target="_top" xlink:title=" ">
<polygon fill="white" stroke="black" points="439.5,-152.5 439.5,-171.5 534.5,-171.5 534.5,-152.5 439.5,-152.5"/>
<text text-anchor="middle" x="487" y="-159.5" font-family="Helvetica,sans-Serif" font-size="10.00">next_request_id</text>
</a>
</g>
</g>
<!-- Node2&#45;&gt;Node3 -->
<g id="edge2" class="edge">
<title>Node2&#45;&gt;Node3</title>
<path fill="none" stroke="midnightblue" d="M350.3,-133.59C374.68,-138.69 404.86,-145.01 430.56,-150.39"/>
<polygon fill="midnightblue" stroke="midnightblue" points="430.02,-153.86 440.53,-152.48 431.46,-147 430.02,-153.86"/>
</g>
<!-- Node4 -->
<g id="node4" class="node">
<title>Node4</title>
<g id="a_node4"><a xlink:href="PoKeysLibAsync_8c.html#a0daf7f6eb658a60879d46369307db3f0" target="_top" xlink:title="Allocates a new free transaction.">
<polygon fill="white" stroke="black" points="437,-114.5 437,-133.5 537,-133.5 537,-114.5 437,-114.5"/>
<text text-anchor="middle" x="487" y="-121.5" font-family="Helvetica,sans-Serif" font-size="10.00">transaction_alloc</text>
</a>
</g>
</g>
<!-- Node2&#45;&gt;Node4 -->
<g id="edge3" class="edge">
<title>Node2&#45;&gt;Node4</title>
<path fill="none" stroke="midnightblue" d="M393.12,-124C404.44,-124 415.81,-124 426.51,-124"/>
<polygon fill="midnightblue" stroke="midnightblue" points="426.55,-127.5 436.55,-124 426.55,-120.5 426.55,-127.5"/>
</g>
<!-- Node6 -->
<g id="node6" class="node">
<title>Node6</title>
<g id="a_node6"><a xlink:href="PoKeysLibAsync_8c.html#a2d192ebf6b1b209c93b2158460c24aa2" target="_top" xlink:title=" ">
<polygon fill="white" stroke="black" points="429,-76.5 429,-95.5 545,-95.5 545,-76.5 429,-76.5"/>
<text text-anchor="middle" x="487" y="-83.5" font-family="Helvetica,sans-Serif" font-size="10.00">get_current_time_us</text>
</a>
</g>
</g>
<!-- Node5&#45;&gt;Node6 -->
<g id="edge5" class="edge">
<title>Node5&#45;&gt;Node6</title>
<path fill="none" stroke="midnightblue" d="M358.96,-72.7C377.72,-74.66 398.96,-76.89 418.63,-78.95"/>
<polygon fill="midnightblue" stroke="midnightblue" points="418.44,-82.45 428.75,-80.01 419.16,-75.48 418.44,-82.45"/>
</g>
<!-- Node8 -->
<g id="node8" class="node">
<title>Node8</title>
<g id="a_node8"><a xlink:href="rtapi_8h.html#a2432d36976ec87e60c9c92d3c0067182" target="_top" xlink:title=" ">
<polygon fill="white" stroke="black" points="440.5,-38.5 440.5,-57.5 533.5,-57.5 533.5,-38.5 440.5,-38.5"/>
<text text-anchor="middle" x="487" y="-45.5" font-family="Helvetica,sans-Serif" font-size="10.00">rtapi_print_msg</text>
</a>
</g>
</g>
<!-- Node5&#45;&gt;Node8 -->
<g id="edge7" class="edge">
<title>Node5&#45;&gt;Node8</title>
<path fill="none" stroke="midnightblue" d="M358.96,-61.3C381.5,-58.94 407.63,-56.2 430.3,-53.83"/>
<polygon fill="midnightblue" stroke="midnightblue" points="430.87,-57.29 440.45,-52.77 430.14,-50.33 430.87,-57.29"/>
</g>
<!-- Node9 -->
<g id="node9" class="node">
<title>Node9</title>
<g id="a_node9"><a xlink:href="PoKeysLibAsync_8c.html#a47e60ec1f2ceb9c913f4b3fdd448595b" target="_top" xlink:title="Finds an open transaction by its Request ID.">
<polygon fill="white" stroke="black" points="439.5,-0.5 439.5,-19.5 534.5,-19.5 534.5,-0.5 439.5,-0.5"/>
<text text-anchor="middle" x="487" y="-7.5" font-family="Helvetica,sans-Serif" font-size="10.00">transaction_find</text>
</a>
</g>
</g>
<!-- Node5&#45;&gt;Node9 -->
<g id="edge8" class="edge">
<title>Node5&#45;&gt;Node9</title>
<path fill="none" stroke="midnightblue" d="M334.88,-57.46C365.24,-47.92 412.11,-33.21 445.59,-22.69"/>
<polygon fill="midnightblue" stroke="midnightblue" points="447.03,-25.91 455.52,-19.57 444.93,-19.23 447.03,-25.91"/>
</g>
<!-- Node7 -->
<g id="node7" class="node">
<title>Node7</title>
<g id="a_node7"><a xlink:href="rtapi_8h.html#a935411bb5eff04e82620819db6645685" target="_top" xlink:title=" ">
<polygon fill="white" stroke="black" points="581,-76.5 581,-95.5 669,-95.5 669,-76.5 581,-76.5"/>
<text text-anchor="middle" x="625" y="-83.5" font-family="Helvetica,sans-Serif" font-size="10.00">rtapi_get_time</text>
</a>
</g>
</g>
<!-- Node6&#45;&gt;Node7 -->
<g id="edge6" class="edge">
<title>Node6&#45;&gt;Node7</title>
<path fill="none" stroke="midnightblue" d="M545.28,-86C553.75,-86 562.44,-86 570.81,-86"/>
<polygon fill="midnightblue" stroke="midnightblue" points="570.84,-89.5 580.84,-86 570.84,-82.5 570.84,-89.5"/>
</g>
</g>
</svg>
