<?xml version="1.0" encoding="UTF-8" standalone="no"?>
<!DOCTYPE svg PUBLIC "-//W3C//DTD SVG 1.1//EN"
 "http://www.w3.org/Graphics/SVG/1.1/DTD/svg11.dtd">
<!-- Generated by graphviz version 2.43.0 (0)
 -->
<!-- Title: PK_DigitalCounterParse Pages: 1 -->
<svg width="500pt" height="28pt"
 viewBox="0.00 0.00 500.00 28.00" xmlns="http://www.w3.org/2000/svg" xmlns:xlink="http://www.w3.org/1999/xlink">
<g id="graph0" class="graph" transform="scale(1 1) rotate(0) translate(4 24)">
<title>PK_DigitalCounterParse</title>
<polygon fill="white" stroke="transparent" points="-4,4 -4,-24 496,-24 496,4 -4,4"/>
<!-- Node1 -->
<g id="node1" class="node">
<title>Node1</title>
<g id="a_node1"><a xlink:title="Parser for digital counter values (CMD 0xD8).">
<polygon fill="#bfbfbf" stroke="black" points="361,-0.5 361,-19.5 492,-19.5 492,-0.5 361,-0.5"/>
<text text-anchor="middle" x="426.5" y="-7.5" font-family="Helvetica,sans-Serif" font-size="10.00">PK_DigitalCounterParse</text>
</a>
</g>
</g>
<!-- Node2 -->
<g id="node2" class="node">
<title>Node2</title>
<g id="a_node2"><a xlink:href="PoKeysLibIOAsync_8c.html#af661ae8f666cf02c3d161938bd482064" target="_top" xlink:title="Starts async request to get digital counter values (CMD 0xD8).">
<polygon fill="white" stroke="black" points="173,-0.5 173,-19.5 325,-19.5 325,-0.5 173,-0.5"/>
<text text-anchor="middle" x="249" y="-7.5" font-family="Helvetica,sans-Serif" font-size="10.00">PK_DigitalCounterGetAsync</text>
</a>
</g>
</g>
<!-- Node1&#45;&gt;Node2 -->
<g id="edge1" class="edge">
<title>Node1&#45;&gt;Node2</title>
<path fill="none" stroke="midnightblue" d="M350.54,-10C342.16,-10 333.63,-10 325.26,-10"/>
<polygon fill="midnightblue" stroke="midnightblue" points="350.65,-13.5 360.65,-10 350.65,-6.5 350.65,-13.5"/>
</g>
<!-- Node3 -->
<g id="node3" class="node">
<title>Node3</title>
<g id="a_node3"><a xlink:href="PoKeysLibAdvancedRTAsync_8c.html#a62f34b5fbad7130f28b4ee32263ee6c7" target="_top" xlink:title="Perform complete IO update cycle (async)">
<polygon fill="white" stroke="black" points="0,-0.5 0,-19.5 137,-19.5 137,-0.5 0,-0.5"/>
<text text-anchor="middle" x="68.5" y="-7.5" font-family="Helvetica,sans-Serif" font-size="10.00">PK_IOUpdateCycleAsync</text>
</a>
</g>
</g>
<!-- Node2&#45;&gt;Node3 -->
<g id="edge2" class="edge">
<title>Node2&#45;&gt;Node3</title>
<path fill="none" stroke="midnightblue" d="M162.79,-10C154.21,-10 145.58,-10 137.22,-10"/>
<polygon fill="midnightblue" stroke="midnightblue" points="162.82,-13.5 172.82,-10 162.82,-6.5 162.82,-13.5"/>
</g>
</g>
</svg>
