<?xml version="1.0" encoding="UTF-8" standalone="no"?>
<!DOCTYPE svg PUBLIC "-//W3C//DTD SVG 1.1//EN"
 "http://www.w3.org/Graphics/SVG/1.1/DTD/svg11.dtd">
<!-- Generated by graphviz version 2.43.0 (0)
 -->
<!-- Title: /home/cnc/actions&#45;runner/_work/LinuxCnc_PokeysLibComp/LinuxCnc_PokeysLibComp/external/pokeysHal/pokeyslib/PoKeysLib1Wire.c Pages: 1 -->
<svg width="322pt" height="229pt"
 viewBox="0.00 0.00 322.00 229.00" xmlns="http://www.w3.org/2000/svg" xmlns:xlink="http://www.w3.org/1999/xlink">
<g id="graph0" class="graph" transform="scale(1 1) rotate(0) translate(4 225)">
<title>/home/cnc/actions&#45;runner/_work/LinuxCnc_PokeysLibComp/LinuxCnc_PokeysLibComp/external/pokeysHal/pokeyslib/PoKeysLib1Wire.c</title>
<polygon fill="white" stroke="transparent" points="-4,4 -4,-225 318,-225 318,4 -4,4"/>
<!-- Node1 -->
<g id="node1" class="node">
<title>Node1</title>
<g id="a_node1"><a xlink:title=" ">
<polygon fill="#bfbfbf" stroke="black" points="0,-168.5 0,-220.5 209,-220.5 209,-168.5 0,-168.5"/>
<text text-anchor="start" x="8" y="-208.5" font-family="Helvetica,sans-Serif" font-size="10.00">/home/cnc/actions&#45;runner</text>
<text text-anchor="start" x="8" y="-197.5" font-family="Helvetica,sans-Serif" font-size="10.00">/_work/LinuxCnc_PokeysLibComp</text>
<text text-anchor="start" x="8" y="-186.5" font-family="Helvetica,sans-Serif" font-size="10.00">/LinuxCnc_PokeysLibComp/external</text>
<text text-anchor="middle" x="104.5" y="-175.5" font-family="Helvetica,sans-Serif" font-size="10.00">/pokeysHal/pokeyslib/PoKeysLib1Wire.c</text>
</a>
</g>
</g>
<!-- Node2 -->
<g id="node2" class="node">
<title>Node2</title>
<g id="a_node2"><a xlink:href="pokeysHal_2pokeyslib_2PoKeysLib_8h.html" target="_top" xlink:title=" ">
<polygon fill="white" stroke="black" points="26,-56.5 26,-75.5 101,-75.5 101,-56.5 26,-56.5"/>
<text text-anchor="middle" x="63.5" y="-63.5" font-family="Helvetica,sans-Serif" font-size="10.00">PoKeysLib.h</text>
</a>
</g>
</g>
<!-- Node1&#45;&gt;Node2 -->
<g id="edge1" class="edge">
<title>Node1&#45;&gt;Node2</title>
<path fill="none" stroke="midnightblue" d="M96.3,-168.2C88.35,-143.66 76.47,-107 69.4,-85.2"/>
<polygon fill="midnightblue" stroke="midnightblue" points="72.68,-83.98 66.27,-75.55 66.02,-86.14 72.68,-83.98"/>
</g>
<!-- Node4 -->
<g id="node4" class="node">
<title>Node4</title>
<g id="a_node4"><a xlink:href="pokeysHal_2pokeyslib_2PoKeysLibCore_8h.html" target="_top" xlink:title=" ">
<polygon fill="white" stroke="black" points="97.5,-112.5 97.5,-131.5 195.5,-131.5 195.5,-112.5 97.5,-112.5"/>
<text text-anchor="middle" x="146.5" y="-119.5" font-family="Helvetica,sans-Serif" font-size="10.00">PoKeysLibCore.h</text>
</a>
</g>
</g>
<!-- Node1&#45;&gt;Node4 -->
<g id="edge3" class="edge">
<title>Node1&#45;&gt;Node4</title>
<path fill="none" stroke="midnightblue" d="M119.43,-168.45C124.98,-159.13 131.15,-148.77 136.19,-140.3"/>
<polygon fill="midnightblue" stroke="midnightblue" points="139.21,-142.08 141.32,-131.7 133.19,-138.5 139.21,-142.08"/>
</g>
<!-- Node3 -->
<g id="node3" class="node">
<title>Node3</title>
<g id="a_node3"><a xlink:title=" ">
<polygon fill="white" stroke="#bfbfbf" points="37,-0.5 37,-19.5 90,-19.5 90,-0.5 37,-0.5"/>
<text text-anchor="middle" x="63.5" y="-7.5" font-family="Helvetica,sans-Serif" font-size="10.00">stdint.h</text>
</a>
</g>
</g>
<!-- Node2&#45;&gt;Node3 -->
<g id="edge2" class="edge">
<title>Node2&#45;&gt;Node3</title>
<path fill="none" stroke="midnightblue" d="M63.5,-56.08C63.5,-49.01 63.5,-38.86 63.5,-29.99"/>
<polygon fill="midnightblue" stroke="midnightblue" points="67,-29.75 63.5,-19.75 60,-29.75 67,-29.75"/>
</g>
<!-- Node4&#45;&gt;Node2 -->
<g id="edge8" class="edge">
<title>Node4&#45;&gt;Node2</title>
<path fill="none" stroke="midnightblue" d="M133.16,-112.32C120.34,-103.98 100.72,-91.21 85.56,-81.35"/>
<polygon fill="midnightblue" stroke="midnightblue" points="87.09,-78.17 76.8,-75.65 83.28,-84.04 87.09,-78.17"/>
</g>
<!-- Node5 -->
<g id="node5" class="node">
<title>Node5</title>
<g id="a_node5"><a xlink:href="pokeysHal_2pokeyslib_2hidapi_8h.html" target="_top" xlink:title=" ">
<polygon fill="white" stroke="black" points="118.5,-56.5 118.5,-75.5 174.5,-75.5 174.5,-56.5 118.5,-56.5"/>
<text text-anchor="middle" x="146.5" y="-63.5" font-family="Helvetica,sans-Serif" font-size="10.00">hidapi.h</text>
</a>
</g>
</g>
<!-- Node4&#45;&gt;Node5 -->
<g id="edge4" class="edge">
<title>Node4&#45;&gt;Node5</title>
<path fill="none" stroke="midnightblue" d="M146.5,-112.08C146.5,-105.01 146.5,-94.86 146.5,-85.99"/>
<polygon fill="midnightblue" stroke="midnightblue" points="150,-85.75 146.5,-75.75 143,-85.75 150,-85.75"/>
</g>
<!-- Node7 -->
<g id="node7" class="node">
<title>Node7</title>
<g id="a_node7"><a xlink:title=" ">
<polygon fill="white" stroke="#bfbfbf" points="192.5,-56.5 192.5,-75.5 242.5,-75.5 242.5,-56.5 192.5,-56.5"/>
<text text-anchor="middle" x="217.5" y="-63.5" font-family="Helvetica,sans-Serif" font-size="10.00">stdio.h</text>
</a>
</g>
</g>
<!-- Node4&#45;&gt;Node7 -->
<g id="edge6" class="edge">
<title>Node4&#45;&gt;Node7</title>
<path fill="none" stroke="midnightblue" d="M157.91,-112.32C168.61,-104.18 184.84,-91.84 197.66,-82.09"/>
<polygon fill="midnightblue" stroke="midnightblue" points="200.04,-84.67 205.89,-75.83 195.81,-79.1 200.04,-84.67"/>
</g>
<!-- Node8 -->
<g id="node8" class="node">
<title>Node8</title>
<g id="a_node8"><a xlink:title=" ">
<polygon fill="white" stroke="#bfbfbf" points="261,-56.5 261,-75.5 314,-75.5 314,-56.5 261,-56.5"/>
<text text-anchor="middle" x="287.5" y="-63.5" font-family="Helvetica,sans-Serif" font-size="10.00">string.h</text>
</a>
</g>
</g>
<!-- Node4&#45;&gt;Node8 -->
<g id="edge7" class="edge">
<title>Node4&#45;&gt;Node8</title>
<path fill="none" stroke="midnightblue" d="M168.84,-112.44C192.25,-103.48 229.24,-89.31 255.69,-79.18"/>
<polygon fill="midnightblue" stroke="midnightblue" points="257.18,-82.36 265.26,-75.52 254.67,-75.82 257.18,-82.36"/>
</g>
<!-- Node6 -->
<g id="node6" class="node">
<title>Node6</title>
<g id="a_node6"><a xlink:title=" ">
<polygon fill="white" stroke="#bfbfbf" points="119.5,-0.5 119.5,-19.5 173.5,-19.5 173.5,-0.5 119.5,-0.5"/>
<text text-anchor="middle" x="146.5" y="-7.5" font-family="Helvetica,sans-Serif" font-size="10.00">wchar.h</text>
</a>
</g>
</g>
<!-- Node5&#45;&gt;Node6 -->
<g id="edge5" class="edge">
<title>Node5&#45;&gt;Node6</title>
<path fill="none" stroke="midnightblue" d="M146.5,-56.08C146.5,-49.01 146.5,-38.86 146.5,-29.99"/>
<polygon fill="midnightblue" stroke="midnightblue" points="150,-29.75 146.5,-19.75 143,-29.75 150,-29.75"/>
</g>
</g>
</svg>
