<?xml version="1.0" encoding="UTF-8" standalone="no"?>
<!DOCTYPE svg PUBLIC "-//W3C//DTD SVG 1.1//EN"
 "http://www.w3.org/Graphics/SVG/1.1/DTD/svg11.dtd">
<!-- Generated by graphviz version 2.43.0 (0)
 -->
<!-- Title: /home/cnc/actions&#45;runner/_work/LinuxCnc_PokeysLibComp/LinuxCnc_PokeysLibComp/external/pokeysHal/pokeyslib/PoKeysLibPoIL.c Pages: 1 -->
<svg width="318pt" height="229pt"
 viewBox="0.00 0.00 318.00 229.00" xmlns="http://www.w3.org/2000/svg" xmlns:xlink="http://www.w3.org/1999/xlink">
<g id="graph0" class="graph" transform="scale(1 1) rotate(0) translate(4 225)">
<title>/home/cnc/actions&#45;runner/_work/LinuxCnc_PokeysLibComp/LinuxCnc_PokeysLibComp/external/pokeysHal/pokeyslib/PoKeysLibPoIL.c</title>
<polygon fill="white" stroke="transparent" points="-4,4 -4,-225 314,-225 314,4 -4,4"/>
<!-- Node1 -->
<g id="node1" class="node">
<title>Node1</title>
<g id="a_node1"><a xlink:title=" ">
<polygon fill="#bfbfbf" stroke="black" points="0,-168.5 0,-220.5 201,-220.5 201,-168.5 0,-168.5"/>
<text text-anchor="start" x="8" y="-208.5" font-family="Helvetica,sans-Serif" font-size="10.00">/home/cnc/actions&#45;runner</text>
<text text-anchor="start" x="8" y="-197.5" font-family="Helvetica,sans-Serif" font-size="10.00">/_work/LinuxCnc_PokeysLibComp</text>
<text text-anchor="start" x="8" y="-186.5" font-family="Helvetica,sans-Serif" font-size="10.00">/LinuxCnc_PokeysLibComp/external</text>
<text text-anchor="middle" x="100.5" y="-175.5" font-family="Helvetica,sans-Serif" font-size="10.00">/pokeysHal/pokeyslib/PoKeysLibPoIL.c</text>
</a>
</g>
</g>
<!-- Node2 -->
<g id="node2" class="node">
<title>Node2</title>
<g id="a_node2"><a xlink:href="pokeysHal_2pokeyslib_2PoKeysLib_8h.html" target="_top" xlink:title=" ">
<polygon fill="white" stroke="black" points="22,-56.5 22,-75.5 97,-75.5 97,-56.5 22,-56.5"/>
<text text-anchor="middle" x="59.5" y="-63.5" font-family="Helvetica,sans-Serif" font-size="10.00">PoKeysLib.h</text>
</a>
</g>
</g>
<!-- Node1&#45;&gt;Node2 -->
<g id="edge1" class="edge">
<title>Node1&#45;&gt;Node2</title>
<path fill="none" stroke="midnightblue" d="M92.3,-168.2C84.35,-143.66 72.47,-107 65.4,-85.2"/>
<polygon fill="midnightblue" stroke="midnightblue" points="68.68,-83.98 62.27,-75.55 62.02,-86.14 68.68,-83.98"/>
</g>
<!-- Node4 -->
<g id="node4" class="node">
<title>Node4</title>
<g id="a_node4"><a xlink:href="pokeysHal_2pokeyslib_2PoKeysLibCore_8h.html" target="_top" xlink:title=" ">
<polygon fill="white" stroke="black" points="93.5,-112.5 93.5,-131.5 191.5,-131.5 191.5,-112.5 93.5,-112.5"/>
<text text-anchor="middle" x="142.5" y="-119.5" font-family="Helvetica,sans-Serif" font-size="10.00">PoKeysLibCore.h</text>
</a>
</g>
</g>
<!-- Node1&#45;&gt;Node4 -->
<g id="edge3" class="edge">
<title>Node1&#45;&gt;Node4</title>
<path fill="none" stroke="midnightblue" d="M115.43,-168.45C120.98,-159.13 127.15,-148.77 132.19,-140.3"/>
<polygon fill="midnightblue" stroke="midnightblue" points="135.21,-142.08 137.32,-131.7 129.19,-138.5 135.21,-142.08"/>
</g>
<!-- Node3 -->
<g id="node3" class="node">
<title>Node3</title>
<g id="a_node3"><a xlink:title=" ">
<polygon fill="white" stroke="#bfbfbf" points="33,-0.5 33,-19.5 86,-19.5 86,-0.5 33,-0.5"/>
<text text-anchor="middle" x="59.5" y="-7.5" font-family="Helvetica,sans-Serif" font-size="10.00">stdint.h</text>
</a>
</g>
</g>
<!-- Node2&#45;&gt;Node3 -->
<g id="edge2" class="edge">
<title>Node2&#45;&gt;Node3</title>
<path fill="none" stroke="midnightblue" d="M59.5,-56.08C59.5,-49.01 59.5,-38.86 59.5,-29.99"/>
<polygon fill="midnightblue" stroke="midnightblue" points="63,-29.75 59.5,-19.75 56,-29.75 63,-29.75"/>
</g>
<!-- Node4&#45;&gt;Node2 -->
<g id="edge8" class="edge">
<title>Node4&#45;&gt;Node2</title>
<path fill="none" stroke="midnightblue" d="M129.16,-112.32C116.34,-103.98 96.72,-91.21 81.56,-81.35"/>
<polygon fill="midnightblue" stroke="midnightblue" points="83.09,-78.17 72.8,-75.65 79.28,-84.04 83.09,-78.17"/>
</g>
<!-- Node5 -->
<g id="node5" class="node">
<title>Node5</title>
<g id="a_node5"><a xlink:href="pokeysHal_2pokeyslib_2hidapi_8h.html" target="_top" xlink:title=" ">
<polygon fill="white" stroke="black" points="114.5,-56.5 114.5,-75.5 170.5,-75.5 170.5,-56.5 114.5,-56.5"/>
<text text-anchor="middle" x="142.5" y="-63.5" font-family="Helvetica,sans-Serif" font-size="10.00">hidapi.h</text>
</a>
</g>
</g>
<!-- Node4&#45;&gt;Node5 -->
<g id="edge4" class="edge">
<title>Node4&#45;&gt;Node5</title>
<path fill="none" stroke="midnightblue" d="M142.5,-112.08C142.5,-105.01 142.5,-94.86 142.5,-85.99"/>
<polygon fill="midnightblue" stroke="midnightblue" points="146,-85.75 142.5,-75.75 139,-85.75 146,-85.75"/>
</g>
<!-- Node7 -->
<g id="node7" class="node">
<title>Node7</title>
<g id="a_node7"><a xlink:title=" ">
<polygon fill="white" stroke="#bfbfbf" points="188.5,-56.5 188.5,-75.5 238.5,-75.5 238.5,-56.5 188.5,-56.5"/>
<text text-anchor="middle" x="213.5" y="-63.5" font-family="Helvetica,sans-Serif" font-size="10.00">stdio.h</text>
</a>
</g>
</g>
<!-- Node4&#45;&gt;Node7 -->
<g id="edge6" class="edge">
<title>Node4&#45;&gt;Node7</title>
<path fill="none" stroke="midnightblue" d="M153.91,-112.32C164.61,-104.18 180.84,-91.84 193.66,-82.09"/>
<polygon fill="midnightblue" stroke="midnightblue" points="196.04,-84.67 201.89,-75.83 191.81,-79.1 196.04,-84.67"/>
</g>
<!-- Node8 -->
<g id="node8" class="node">
<title>Node8</title>
<g id="a_node8"><a xlink:title=" ">
<polygon fill="white" stroke="#bfbfbf" points="257,-56.5 257,-75.5 310,-75.5 310,-56.5 257,-56.5"/>
<text text-anchor="middle" x="283.5" y="-63.5" font-family="Helvetica,sans-Serif" font-size="10.00">string.h</text>
</a>
</g>
</g>
<!-- Node4&#45;&gt;Node8 -->
<g id="edge7" class="edge">
<title>Node4&#45;&gt;Node8</title>
<path fill="none" stroke="midnightblue" d="M164.84,-112.44C188.25,-103.48 225.24,-89.31 251.69,-79.18"/>
<polygon fill="midnightblue" stroke="midnightblue" points="253.18,-82.36 261.26,-75.52 250.67,-75.82 253.18,-82.36"/>
</g>
<!-- Node6 -->
<g id="node6" class="node">
<title>Node6</title>
<g id="a_node6"><a xlink:title=" ">
<polygon fill="white" stroke="#bfbfbf" points="115.5,-0.5 115.5,-19.5 169.5,-19.5 169.5,-0.5 115.5,-0.5"/>
<text text-anchor="middle" x="142.5" y="-7.5" font-family="Helvetica,sans-Serif" font-size="10.00">wchar.h</text>
</a>
</g>
</g>
<!-- Node5&#45;&gt;Node6 -->
<g id="edge5" class="edge">
<title>Node5&#45;&gt;Node6</title>
<path fill="none" stroke="midnightblue" d="M142.5,-56.08C142.5,-49.01 142.5,-38.86 142.5,-29.99"/>
<polygon fill="midnightblue" stroke="midnightblue" points="146,-29.75 142.5,-19.75 139,-29.75 146,-29.75"/>
</g>
</g>
</svg>
