<?xml version="1.0" encoding="UTF-8" standalone="no"?>
<!DOCTYPE svg PUBLIC "-//W3C//DTD SVG 1.1//EN"
 "http://www.w3.org/Graphics/SVG/1.1/DTD/svg11.dtd">
<!-- Generated by graphviz version 2.43.0 (0)
 -->
<!-- Title: PK_PEv2_BufferFill_16 Pages: 1 -->
<svg width="570pt" height="161pt"
 viewBox="0.00 0.00 570.00 161.00" xmlns="http://www.w3.org/2000/svg" xmlns:xlink="http://www.w3.org/1999/xlink">
<g id="graph0" class="graph" transform="scale(1 1) rotate(0) translate(4 157)">
<title>PK_PEv2_BufferFill_16</title>
<polygon fill="white" stroke="transparent" points="-4,4 -4,-157 566,-157 566,4 -4,4"/>
<!-- Node1 -->
<g id="node1" class="node">
<title>Node1</title>
<g id="a_node1"><a xlink:title=" ">
<polygon fill="#bfbfbf" stroke="black" points="0,-95.5 0,-114.5 125,-114.5 125,-95.5 0,-95.5"/>
<text text-anchor="middle" x="62.5" y="-102.5" font-family="Helvetica,sans-Serif" font-size="10.00">PK_PEv2_BufferFill_16</text>
</a>
</g>
</g>
<!-- Node2 -->
<g id="node2" class="node">
<title>Node2</title>
<g id="a_node2"><a xlink:href="pokeyslib_2PoKeysLibCore_8c.html#acb1fdd8f77277dc66c4d037218bfcece" target="_top" xlink:title=" ">
<polygon fill="white" stroke="black" points="182,-133.5 182,-152.5 271,-152.5 271,-133.5 182,-133.5"/>
<text text-anchor="middle" x="226.5" y="-140.5" font-family="Helvetica,sans-Serif" font-size="10.00">CreateRequest</text>
</a>
</g>
</g>
<!-- Node1&#45;&gt;Node2 -->
<g id="edge1" class="edge">
<title>Node1&#45;&gt;Node2</title>
<path fill="none" stroke="midnightblue" d="M104.38,-114.59C125.85,-119.63 152.36,-125.84 175.1,-131.18"/>
<polygon fill="midnightblue" stroke="midnightblue" points="174.38,-134.6 184.91,-133.48 175.98,-127.79 174.38,-134.6"/>
</g>
<!-- Node3 -->
<g id="node3" class="node">
<title>Node3</title>
<g id="a_node3"><a xlink:href="pokeyslib_2PoKeysLibPulseEngine__v2_8c.html#a1fc372b6ab3876c6ac0d1c3b36f43040" target="_top" xlink:title=" ">
<polygon fill="white" stroke="black" points="161,-95.5 161,-114.5 292,-114.5 292,-95.5 161,-95.5"/>
<text text-anchor="middle" x="226.5" y="-102.5" font-family="Helvetica,sans-Serif" font-size="10.00">PK_PEv2_DecodeStatus</text>
</a>
</g>
</g>
<!-- Node1&#45;&gt;Node3 -->
<g id="edge2" class="edge">
<title>Node1&#45;&gt;Node3</title>
<path fill="none" stroke="midnightblue" d="M125.21,-105C133.47,-105 142.02,-105 150.48,-105"/>
<polygon fill="midnightblue" stroke="midnightblue" points="150.73,-108.5 160.73,-105 150.73,-101.5 150.73,-108.5"/>
</g>
<!-- Node4 -->
<g id="node4" class="node">
<title>Node4</title>
<g id="a_node4"><a xlink:href="pokeyslib_2PoKeysLibCore_8c.html#ab5d92aa36d0a4a6953a055f5cd960aff" target="_top" xlink:title=" ">
<polygon fill="white" stroke="black" points="186.5,-57.5 186.5,-76.5 266.5,-76.5 266.5,-57.5 186.5,-57.5"/>
<text text-anchor="middle" x="226.5" y="-64.5" font-family="Helvetica,sans-Serif" font-size="10.00">SendRequest</text>
</a>
</g>
</g>
<!-- Node1&#45;&gt;Node4 -->
<g id="edge3" class="edge">
<title>Node1&#45;&gt;Node4</title>
<path fill="none" stroke="midnightblue" d="M104.38,-95.41C126.26,-90.28 153.37,-83.92 176.39,-78.52"/>
<polygon fill="midnightblue" stroke="midnightblue" points="177.37,-81.88 186.31,-76.19 175.78,-75.07 177.37,-81.88"/>
</g>
<!-- Node5 -->
<g id="node5" class="node">
<title>Node5</title>
<g id="a_node5"><a xlink:href="pokeyslib_2PoKeysLibCore_8c.html#a273b6d635dea8f559b915cdb289d021e" target="_top" xlink:title=" ">
<polygon fill="white" stroke="black" points="469.5,-38.5 469.5,-57.5 552.5,-57.5 552.5,-38.5 469.5,-38.5"/>
<text text-anchor="middle" x="511" y="-45.5" font-family="Helvetica,sans-Serif" font-size="10.00">getChecksum</text>
</a>
</g>
</g>
<!-- Node4&#45;&gt;Node5 -->
<g id="edge4" class="edge">
<title>Node4&#45;&gt;Node5</title>
<path fill="none" stroke="midnightblue" d="M266.78,-69.5C306.55,-71.44 369.74,-72.92 424,-67 437.57,-65.52 452.13,-62.76 465.34,-59.8"/>
<polygon fill="midnightblue" stroke="midnightblue" points="466.2,-63.19 475.14,-57.51 464.61,-56.37 466.2,-63.19"/>
</g>
<!-- Node6 -->
<g id="node6" class="node">
<title>Node6</title>
<g id="a_node6"><a xlink:href="group__API.html#ga6b820f3e72097cf7f994e33715dc7af1" target="_top" xlink:title="Read an Input report from a HID device.">
<polygon fill="white" stroke="black" points="346.5,-114.5 346.5,-133.5 405.5,-133.5 405.5,-114.5 346.5,-114.5"/>
<text text-anchor="middle" x="376" y="-121.5" font-family="Helvetica,sans-Serif" font-size="10.00">hid_read</text>
</a>
</g>
</g>
<!-- Node4&#45;&gt;Node6 -->
<g id="edge5" class="edge">
<title>Node4&#45;&gt;Node6</title>
<path fill="none" stroke="midnightblue" d="M263.29,-76.55C272.71,-79.34 282.82,-82.56 292,-86 310.68,-92.99 331.06,-102.29 346.95,-109.94"/>
<polygon fill="midnightblue" stroke="midnightblue" points="345.68,-113.22 356.21,-114.46 348.75,-106.93 345.68,-113.22"/>
</g>
<!-- Node8 -->
<g id="node8" class="node">
<title>Node8</title>
<g id="a_node8"><a xlink:href="group__API.html#gad14ea48e440cf5066df87cc6488493af" target="_top" xlink:title="Write an Output report to a HID device.">
<polygon fill="white" stroke="black" points="345,-38.5 345,-57.5 407,-57.5 407,-38.5 345,-38.5"/>
<text text-anchor="middle" x="376" y="-45.5" font-family="Helvetica,sans-Serif" font-size="10.00">hid_write</text>
</a>
</g>
</g>
<!-- Node4&#45;&gt;Node8 -->
<g id="edge7" class="edge">
<title>Node4&#45;&gt;Node8</title>
<path fill="none" stroke="midnightblue" d="M266.64,-61.96C287.62,-59.26 313.42,-55.93 334.59,-53.21"/>
<polygon fill="midnightblue" stroke="midnightblue" points="335.1,-56.67 344.57,-51.92 334.2,-49.73 335.1,-56.67"/>
</g>
<!-- Node9 -->
<g id="node9" class="node">
<title>Node9</title>
<g id="a_node9"><a xlink:href="pokeyslib_2PoKeysLibCoreSockets_8c.html#a22759fb4024c9081af26ac1bc6541b47" target="_top" xlink:title=" ">
<polygon fill="white" stroke="black" points="328,-0.5 328,-19.5 424,-19.5 424,-0.5 328,-0.5"/>
<text text-anchor="middle" x="376" y="-7.5" font-family="Helvetica,sans-Serif" font-size="10.00">SendEthRequest</text>
</a>
</g>
</g>
<!-- Node4&#45;&gt;Node9 -->
<g id="edge8" class="edge">
<title>Node4&#45;&gt;Node9</title>
<path fill="none" stroke="midnightblue" d="M252.19,-57.46C276.44,-48.09 313.64,-33.71 340.74,-23.24"/>
<polygon fill="midnightblue" stroke="midnightblue" points="342.17,-26.44 350.23,-19.57 339.64,-19.91 342.17,-26.44"/>
</g>
<!-- Node7 -->
<g id="node7" class="node">
<title>Node7</title>
<g id="a_node7"><a xlink:href="group__API.html#gaa5c9ed5aa290688ffac03343989ad75a" target="_top" xlink:title="Read an Input report from a HID device with timeout.">
<polygon fill="white" stroke="black" points="460,-114.5 460,-133.5 562,-133.5 562,-114.5 460,-114.5"/>
<text text-anchor="middle" x="511" y="-121.5" font-family="Helvetica,sans-Serif" font-size="10.00">hid_read_timeout</text>
</a>
</g>
</g>
<!-- Node6&#45;&gt;Node7 -->
<g id="edge6" class="edge">
<title>Node6&#45;&gt;Node7</title>
<path fill="none" stroke="midnightblue" d="M405.53,-124C418.49,-124 434.35,-124 449.75,-124"/>
<polygon fill="midnightblue" stroke="midnightblue" points="449.77,-127.5 459.77,-124 449.77,-120.5 449.77,-127.5"/>
</g>
<!-- Node9&#45;&gt;Node5 -->
<g id="edge9" class="edge">
<title>Node9&#45;&gt;Node5</title>
<path fill="none" stroke="midnightblue" d="M410.56,-19.59C427.57,-24.45 448.43,-30.41 466.64,-35.61"/>
<polygon fill="midnightblue" stroke="midnightblue" points="465.87,-39.03 476.45,-38.41 467.8,-32.3 465.87,-39.03"/>
</g>
</g>
</svg>
