<?xml version="1.0" encoding="UTF-8" standalone="no"?>
<!DOCTYPE svg PUBLIC "-//W3C//DTD SVG 1.1//EN"
 "http://www.w3.org/Graphics/SVG/1.1/DTD/svg11.dtd">
<!-- Generated by graphviz version 2.43.0 (0)
 -->
<!-- Title: PK_PWMConfigurationGet Pages: 1 -->
<svg width="491pt" height="165pt"
 viewBox="0.00 0.00 491.00 164.50" xmlns="http://www.w3.org/2000/svg" xmlns:xlink="http://www.w3.org/1999/xlink">
<g id="graph0" class="graph" transform="scale(1 1) rotate(0) translate(4 160.5)">
<title>PK_PWMConfigurationGet</title>
<polygon fill="white" stroke="transparent" points="-4,4 -4,-160.5 487,-160.5 487,4 -4,4"/>
<!-- Node1 -->
<g id="node1" class="node">
<title>Node1</title>
<g id="a_node1"><a xlink:title=" ">
<polygon fill="#bfbfbf" stroke="black" points="341,-77 341,-96 483,-96 483,-77 341,-77"/>
<text text-anchor="middle" x="412" y="-84" font-family="Helvetica,sans-Serif" font-size="10.00">PK_PWMConfigurationGet</text>
</a>
</g>
</g>
<!-- Node2 -->
<g id="node2" class="node">
<title>Node2</title>
<g id="a_node2"><a xlink:href="PoKeysLibIO_8c.html#af290cc82d0491f09adc4e1735ad73d13" target="_top" xlink:title=" ">
<polygon fill="white" stroke="black" points="126,-137 126,-156 305,-156 305,-137 126,-137"/>
<text text-anchor="middle" x="215.5" y="-144" font-family="Helvetica,sans-Serif" font-size="10.00">PK_PWMConfigurationSetDirectly</text>
</a>
</g>
</g>
<!-- Node1&#45;&gt;Node2 -->
<g id="edge1" class="edge">
<title>Node1&#45;&gt;Node2</title>
<path fill="none" stroke="midnightblue" d="M380.09,-99.94C359.19,-108.66 330.79,-119.8 305,-127.5 293.1,-131.05 280.12,-134.22 267.86,-136.91"/>
<polygon fill="midnightblue" stroke="midnightblue" points="381.57,-103.12 389.42,-96 378.85,-96.67 381.57,-103.12"/>
</g>
<!-- Node3 -->
<g id="node3" class="node">
<title>Node3</title>
<g id="a_node3"><a xlink:href="PoKeysLibIO_8c.html#a3c5a46d5b2be8beb2e956f5884758a09" target="_top" xlink:title=" ">
<polygon fill="white" stroke="black" points="151.5,-99 151.5,-118 279.5,-118 279.5,-99 151.5,-99"/>
<text text-anchor="middle" x="215.5" y="-106" font-family="Helvetica,sans-Serif" font-size="10.00">PK_SL_PWM_SetPeriod</text>
</a>
</g>
</g>
<!-- Node1&#45;&gt;Node3 -->
<g id="edge2" class="edge">
<title>Node1&#45;&gt;Node3</title>
<path fill="none" stroke="midnightblue" d="M330.81,-95.57C313.7,-97.51 295.87,-99.52 279.51,-101.37"/>
<polygon fill="midnightblue" stroke="midnightblue" points="331.24,-99.04 340.78,-94.44 330.45,-92.09 331.24,-99.04"/>
</g>
<!-- Node4 -->
<g id="node4" class="node">
<title>Node4</title>
<g id="a_node4"><a xlink:href="group__hal__component__pokeys.html#ga96c96a5b1b2aaa10d97aa8426bee3840" target="_top" xlink:title="Initializes the PoKeys digital and analog I/O configuration.">
<polygon fill="white" stroke="black" points="151.5,-49.5 151.5,-79.5 279.5,-79.5 279.5,-49.5 151.5,-49.5"/>
<text text-anchor="start" x="159.5" y="-67.5" font-family="Helvetica,sans-Serif" font-size="10.00">PoKeysHALComponent</text>
<text text-anchor="middle" x="215.5" y="-56.5" font-family="Helvetica,sans-Serif" font-size="10.00">::PKIO_Setup</text>
</a>
</g>
</g>
<!-- Node1&#45;&gt;Node4 -->
<g id="edge3" class="edge">
<title>Node1&#45;&gt;Node4</title>
<path fill="none" stroke="midnightblue" d="M330.81,-77.43C313.7,-75.49 295.87,-73.48 279.51,-71.63"/>
<polygon fill="midnightblue" stroke="midnightblue" points="330.45,-80.91 340.78,-78.56 331.24,-73.96 330.45,-80.91"/>
</g>
<!-- Node5 -->
<g id="node5" class="node">
<title>Node5</title>
<g id="a_node5"><a xlink:href="group__hal__component__pokeys.html#ga053adc615433218543268696998c7f32" target="_top" xlink:title="Updates PoKeys I/O states from and to hardware.">
<polygon fill="white" stroke="black" points="151.5,-0.5 151.5,-30.5 279.5,-30.5 279.5,-0.5 151.5,-0.5"/>
<text text-anchor="start" x="159.5" y="-18.5" font-family="Helvetica,sans-Serif" font-size="10.00">PoKeysHALComponent</text>
<text text-anchor="middle" x="215.5" y="-7.5" font-family="Helvetica,sans-Serif" font-size="10.00">::PKIO_Update</text>
</a>
</g>
</g>
<!-- Node1&#45;&gt;Node5 -->
<g id="edge4" class="edge">
<title>Node1&#45;&gt;Node5</title>
<path fill="none" stroke="midnightblue" d="M381.66,-72.5C360.61,-62.77 331.43,-49.92 305,-40.5 295.07,-36.96 284.38,-33.59 273.98,-30.53"/>
<polygon fill="midnightblue" stroke="midnightblue" points="380.46,-75.8 391,-76.86 383.42,-69.46 380.46,-75.8"/>
</g>
<!-- Node6 -->
<g id="node6" class="node">
<title>Node6</title>
<g id="a_node6"><a xlink:href="pokeys_8c.html#a6e89ee20635570c2e51b81bf26e895cc" target="_top" xlink:title=" ">
<polygon fill="white" stroke="black" points="0,-6 0,-25 90,-25 90,-6 0,-6"/>
<text text-anchor="middle" x="45" y="-13" font-family="Helvetica,sans-Serif" font-size="10.00">pokeys_update</text>
</a>
</g>
</g>
<!-- Node5&#45;&gt;Node6 -->
<g id="edge5" class="edge">
<title>Node5&#45;&gt;Node6</title>
<path fill="none" stroke="midnightblue" d="M141.14,-15.5C123.76,-15.5 105.75,-15.5 90.14,-15.5"/>
<polygon fill="midnightblue" stroke="midnightblue" points="141.28,-19 151.28,-15.5 141.28,-12 141.28,-19"/>
</g>
</g>
</svg>
