<?xml version="1.0" encoding="UTF-8" standalone="no"?>
<!DOCTYPE svg PUBLIC "-//W3C//DTD SVG 1.1//EN"
 "http://www.w3.org/Graphics/SVG/1.1/DTD/svg11.dtd">
<!-- Generated by graphviz version 2.43.0 (0)
 -->
<!-- Title: PK_SearchNetworkDevices Pages: 1 -->
<svg width="768pt" height="91pt"
 viewBox="0.00 0.00 768.00 91.00" xmlns="http://www.w3.org/2000/svg" xmlns:xlink="http://www.w3.org/1999/xlink">
<g id="graph0" class="graph" transform="scale(1 1) rotate(0) translate(4 87)">
<title>PK_SearchNetworkDevices</title>
<polygon fill="white" stroke="transparent" points="-4,4 -4,-87 764,-87 764,4 -4,4"/>
<!-- Node1 -->
<g id="node1" class="node">
<title>Node1</title>
<g id="a_node1"><a xlink:title=" ">
<polygon fill="#bfbfbf" stroke="black" points="612,-22.5 612,-41.5 760,-41.5 760,-22.5 612,-22.5"/>
<text text-anchor="middle" x="686" y="-29.5" font-family="Helvetica,sans-Serif" font-size="10.00">PK_SearchNetworkDevices</text>
</a>
</g>
</g>
<!-- Node2 -->
<g id="node2" class="node">
<title>Node2</title>
<g id="a_node2"><a xlink:href="PoKeysLibCore_8c.html#aad34d6ff8fa450eef13043fad9a9231b" target="_top" xlink:title=" ">
<polygon fill="white" stroke="black" points="415,-39 415,-69 569,-69 569,-39 415,-39"/>
<text text-anchor="start" x="423" y="-57" font-family="Helvetica,sans-Serif" font-size="10.00">PK_ConnectToPoKeysDevice</text>
<text text-anchor="middle" x="492" y="-46" font-family="Helvetica,sans-Serif" font-size="10.00">_Ethernet</text>
</a>
</g>
</g>
<!-- Node1&#45;&gt;Node2 -->
<g id="edge1" class="edge">
<title>Node1&#45;&gt;Node2</title>
<path fill="none" stroke="midnightblue" d="M601.6,-41.56C590.8,-42.79 579.79,-44.06 569.12,-45.28"/>
<polygon fill="midnightblue" stroke="midnightblue" points="602.33,-45 611.87,-40.38 601.53,-38.04 602.33,-45"/>
</g>
<!-- Node6 -->
<g id="node6" class="node">
<title>Node6</title>
<g id="a_node6"><a xlink:href="PoKeysLibCoreSockets_8c.html#aa7e296224134a400d406d5d594af7075" target="_top" xlink:title=" ">
<polygon fill="white" stroke="black" points="408,-0.5 408,-19.5 576,-19.5 576,-0.5 408,-0.5"/>
<text text-anchor="middle" x="492" y="-7.5" font-family="Helvetica,sans-Serif" font-size="10.00">PK_EnumerateNetworkDevices</text>
</a>
</g>
</g>
<!-- Node1&#45;&gt;Node6 -->
<g id="edge5" class="edge">
<title>Node1&#45;&gt;Node6</title>
<path fill="none" stroke="midnightblue" d="M601.65,-22.45C593.21,-21.48 584.64,-20.5 576.2,-19.53"/>
<polygon fill="midnightblue" stroke="midnightblue" points="601.53,-25.96 611.87,-23.62 602.33,-19 601.53,-25.96"/>
</g>
<!-- Node3 -->
<g id="node3" class="node">
<title>Node3</title>
<g id="a_node3"><a xlink:href="PoKeysLibCore_8c.html#a8ca5d1c479c3da4457b38ec866ea7e3d" target="_top" xlink:title=" ">
<polygon fill="white" stroke="black" points="218,-44.5 218,-63.5 372,-63.5 372,-44.5 218,-44.5"/>
<text text-anchor="middle" x="295" y="-51.5" font-family="Helvetica,sans-Serif" font-size="10.00">PK_ConnectToPoKeysDevice</text>
</a>
</g>
</g>
<!-- Node2&#45;&gt;Node3 -->
<g id="edge2" class="edge">
<title>Node2&#45;&gt;Node3</title>
<path fill="none" stroke="midnightblue" d="M404.51,-54C393.74,-54 382.78,-54 372.18,-54"/>
<polygon fill="midnightblue" stroke="midnightblue" points="404.77,-57.5 414.77,-54 404.77,-50.5 404.77,-57.5"/>
</g>
<!-- Node4 -->
<g id="node4" class="node">
<title>Node4</title>
<g id="a_node4"><a xlink:href="PoKeysLibCore_8c.html#ae19db1487bf5225a8fc84e9b70f0e2ec" target="_top" xlink:title=" ">
<polygon fill="white" stroke="black" points="13,-63.5 13,-82.5 169,-82.5 169,-63.5 13,-63.5"/>
<text text-anchor="middle" x="91" y="-70.5" font-family="Helvetica,sans-Serif" font-size="10.00">PK_ConnectToDeviceWSerial</text>
</a>
</g>
</g>
<!-- Node3&#45;&gt;Node4 -->
<g id="edge3" class="edge">
<title>Node3&#45;&gt;Node4</title>
<path fill="none" stroke="midnightblue" d="M207.7,-62.12C194.84,-63.33 181.66,-64.57 169.02,-65.76"/>
<polygon fill="midnightblue" stroke="midnightblue" points="208.29,-65.58 217.92,-61.16 207.64,-58.61 208.29,-65.58"/>
</g>
<!-- Node5 -->
<g id="node5" class="node">
<title>Node5</title>
<g id="a_node5"><a xlink:href="PoKeysLibCore_8c.html#a6ca83890b4c63d6132c83c7df831fb65" target="_top" xlink:title=" ">
<polygon fill="white" stroke="black" points="0,-25.5 0,-44.5 182,-44.5 182,-25.5 0,-25.5"/>
<text text-anchor="middle" x="91" y="-32.5" font-family="Helvetica,sans-Serif" font-size="10.00">PK_ConnectToDeviceWSerial_UDP</text>
</a>
</g>
</g>
<!-- Node3&#45;&gt;Node5 -->
<g id="edge4" class="edge">
<title>Node3&#45;&gt;Node5</title>
<path fill="none" stroke="midnightblue" d="M207.73,-45.89C199.31,-45.09 190.75,-44.29 182.29,-43.49"/>
<polygon fill="midnightblue" stroke="midnightblue" points="207.64,-49.39 217.92,-46.84 208.29,-42.42 207.64,-49.39"/>
</g>
</g>
</svg>
