<?xml version="1.0" encoding="UTF-8" standalone="no"?>
<!DOCTYPE svg PUBLIC "-//W3C//DTD SVG 1.1//EN"
 "http://www.w3.org/Graphics/SVG/1.1/DTD/svg11.dtd">
<!-- Generated by graphviz version 2.43.0 (0)
 -->
<!-- Title: /home/cnc/actions&#45;runner/_work/LinuxCnc_PokeysLibComp/LinuxCnc_PokeysLibComp/external/pokeysHal/PoKeysLibDevicePoKeys57IndustrialAsync.c Pages: 1 -->
<!--zoomable 341 -->
<svg id="main" version="1.1" xmlns="http://www.w3.org/2000/svg" xmlns:xlink="http://www.w3.org/1999/xlink" xml:space="preserve" onload="init(evt)">
<style type="text/css"><![CDATA[
.edge:hover path { stroke: red; }
.edge:hover polygon { stroke: red; fill: red; }
]]></style>
<script type="text/javascript"><![CDATA[
var edges = document.getElementsByTagName('g');
if (edges && edges.length) {
  for (var i=0;i<edges.length;i++) {
    if (edges[i].id.substr(0,4)=='edge') {
      edges[i].setAttribute('class','edge');
    }
  }
}
]]></script>
        <defs>
                <circle id="rim" cx="0" cy="0" r="7"/>
                <circle id="rim2" cx="0" cy="0" r="3.5"/>
                <g id="zoomPlus">
                        <use xlink:href="#rim" fill="#404040">
                                <set attributeName="fill" to="#808080" begin="zoomplus.mouseover" end="zoomplus.mouseout"/>
                        </use>
                        <path d="M-4,0h8M0,-4v8" fill="none" stroke="white" stroke-width="1.5" pointer-events="none"/>
                </g>
                <g id="zoomMin">
                        <use xlink:href="#rim" fill="#404040">
                                <set attributeName="fill" to="#808080" begin="zoomminus.mouseover" end="zoomminus.mouseout"/>
                        </use>
                        <path d="M-4,0h8" fill="none" stroke="white" stroke-width="1.5" pointer-events="none"/>
                </g>
                <g id="dirArrow">
                        <path fill="none" stroke="white" stroke-width="1.5" d="M0,-3.0v7 M-2.5,-0.5L0,-3.0L2.5,-0.5"/>
                </g>
               <g id="resetDef">
                       <use xlink:href="#rim2" fill="#404040">
                               <set attributeName="fill" to="#808080" begin="reset.mouseover" end="reset.mouseout"/>
                       </use>
               </g>
        </defs>

<script type="text/javascript">
var viewWidth = 621;
var viewHeight = 341;
var sectionId = 'dynsection-0';
</script>
<script xlink:href="svgpan.js"/>
<svg id="graph" class="graph">
<g id="viewport">
<title>/home/cnc/actions&#45;runner/_work/LinuxCnc_PokeysLibComp/LinuxCnc_PokeysLibComp/external/pokeysHal/PoKeysLibDevicePoKeys57IndustrialAsync.c</title>
<polygon fill="white" stroke="transparent" points="-4,4 -4,-337 616.5,-337 616.5,4 -4,4"/>
<!-- Node1 -->
<g id="node1" class="node">
<title>Node1</title>
<g id="a_node1"><a xlink:title=" ">
<polygon fill="#bfbfbf" stroke="black" points="241.5,-280.5 241.5,-332.5 528.5,-332.5 528.5,-280.5 241.5,-280.5"/>
<text text-anchor="start" x="249.5" y="-320.5" font-family="Helvetica,sans-Serif" font-size="10.00">/home/cnc/actions&#45;runner</text>
<text text-anchor="start" x="249.5" y="-309.5" font-family="Helvetica,sans-Serif" font-size="10.00">/_work/LinuxCnc_PokeysLibComp</text>
<text text-anchor="start" x="249.5" y="-298.5" font-family="Helvetica,sans-Serif" font-size="10.00">/LinuxCnc_PokeysLibComp/external</text>
<text text-anchor="middle" x="385" y="-287.5" font-family="Helvetica,sans-Serif" font-size="10.00">/pokeysHal/PoKeysLibDevicePoKeys57IndustrialAsync.c</text>
</a>
</g>
</g>
<!-- Node2 -->
<g id="node2" class="node">
<title>Node2</title>
<g id="a_node2"><a xlink:href="PoKeysLibHal_8h.html" target="_top" xlink:title=" ">
<polygon fill="white" stroke="black" points="245,-168.5 245,-187.5 337,-187.5 337,-168.5 245,-168.5"/>
<text text-anchor="middle" x="291" y="-175.5" font-family="Helvetica,sans-Serif" font-size="10.00">PoKeysLibHal.h</text>
</a>
</g>
</g>
<!-- Node1&#45;&gt;Node2 -->
<g id="edge1" class="edge">
<title>Node1&#45;&gt;Node2</title>
<path fill="none" stroke="midnightblue" d="M330.43,-280.34C316.14,-271.01 302.4,-258.97 294,-244 286.14,-229.99 286.09,-211.49 287.59,-197.81"/>
<polygon fill="midnightblue" stroke="midnightblue" points="291.09,-198.06 289.09,-187.66 284.17,-197.04 291.09,-198.06"/>
</g>
<!-- Node16 -->
<g id="node16" class="node">
<title>Node16</title>
<g id="a_node16"><a xlink:href="PoKeysLibAsync_8h.html" target="_top" xlink:title=" ">
<polygon fill="white" stroke="black" points="143,-224.5 143,-243.5 247,-243.5 247,-224.5 143,-224.5"/>
<text text-anchor="middle" x="195" y="-231.5" font-family="Helvetica,sans-Serif" font-size="10.00">PoKeysLibAsync.h</text>
</a>
</g>
</g>
<!-- Node1&#45;&gt;Node16 -->
<g id="edge15" class="edge">
<title>Node1&#45;&gt;Node16</title>
<path fill="none" stroke="midnightblue" d="M317.48,-280.45C286.92,-269.11 252.2,-256.23 227.56,-247.08"/>
<polygon fill="midnightblue" stroke="midnightblue" points="228.57,-243.72 217.98,-243.53 226.14,-250.29 228.57,-243.72"/>
</g>
<!-- Node17 -->
<g id="node17" class="node">
<title>Node17</title>
<g id="a_node17"><a xlink:href="PoKeysLibCoreSocketsAsync_8h.html" target="_top" xlink:title=" ">
<polygon fill="white" stroke="black" points="303,-224.5 303,-243.5 467,-243.5 467,-224.5 303,-224.5"/>
<text text-anchor="middle" x="385" y="-231.5" font-family="Helvetica,sans-Serif" font-size="10.00">PoKeysLibCoreSocketsAsync.h</text>
</a>
</g>
</g>
<!-- Node1&#45;&gt;Node17 -->
<g id="edge20" class="edge">
<title>Node1&#45;&gt;Node17</title>
<path fill="none" stroke="midnightblue" d="M385,-280.45C385,-271.73 385,-262.1 385,-253.96"/>
<polygon fill="midnightblue" stroke="midnightblue" points="388.5,-253.7 385,-243.7 381.5,-253.7 388.5,-253.7"/>
</g>
<!-- Node18 -->
<g id="node18" class="node">
<title>Node18</title>
<g id="a_node18"><a xlink:href="pokeysHal_2hidapi_8h.html" target="_top" xlink:title=" ">
<polygon fill="white" stroke="black" points="485,-224.5 485,-243.5 541,-243.5 541,-224.5 485,-224.5"/>
<text text-anchor="middle" x="513" y="-231.5" font-family="Helvetica,sans-Serif" font-size="10.00">hidapi.h</text>
</a>
</g>
</g>
<!-- Node1&#45;&gt;Node18 -->
<g id="edge22" class="edge">
<title>Node1&#45;&gt;Node18</title>
<path fill="none" stroke="midnightblue" d="M430.49,-280.45C450.07,-269.66 472.18,-257.48 488.58,-248.45"/>
<polygon fill="midnightblue" stroke="midnightblue" points="490.45,-251.42 497.52,-243.53 487.07,-245.29 490.45,-251.42"/>
</g>
<!-- Node20 -->
<g id="node20" class="node">
<title>Node20</title>
<g id="a_node20"><a xlink:title=" ">
<polygon fill="white" stroke="#bfbfbf" points="559.5,-224.5 559.5,-243.5 612.5,-243.5 612.5,-224.5 559.5,-224.5"/>
<text text-anchor="middle" x="586" y="-231.5" font-family="Helvetica,sans-Serif" font-size="10.00">string.h</text>
</a>
</g>
</g>
<!-- Node1&#45;&gt;Node20 -->
<g id="edge24" class="edge">
<title>Node1&#45;&gt;Node20</title>
<path fill="none" stroke="midnightblue" d="M456.43,-280.45C489.05,-269.01 526.14,-256 552.25,-246.84"/>
<polygon fill="midnightblue" stroke="midnightblue" points="553.41,-250.14 561.69,-243.53 551.09,-243.53 553.41,-250.14"/>
</g>
<!-- Node3 -->
<g id="node3" class="node">
<title>Node3</title>
<g id="a_node3"><a xlink:title=" ">
<polygon fill="white" stroke="#bfbfbf" points="203.5,-112.5 203.5,-131.5 256.5,-131.5 256.5,-112.5 203.5,-112.5"/>
<text text-anchor="middle" x="230" y="-119.5" font-family="Helvetica,sans-Serif" font-size="10.00">stdint.h</text>
</a>
</g>
</g>
<!-- Node2&#45;&gt;Node3 -->
<g id="edge2" class="edge">
<title>Node2&#45;&gt;Node3</title>
<path fill="none" stroke="midnightblue" d="M281.2,-168.32C272.18,-160.34 258.59,-148.31 247.68,-138.65"/>
<polygon fill="midnightblue" stroke="midnightblue" points="249.79,-135.84 239.98,-131.83 245.15,-141.08 249.79,-135.84"/>
</g>
<!-- Node4 -->
<g id="node4" class="node">
<title>Node4</title>
<g id="a_node4"><a xlink:href="hal_8h.html" target="_top" xlink:title=" ">
<polygon fill="white" stroke="black" points="274.5,-112.5 274.5,-131.5 315.5,-131.5 315.5,-112.5 274.5,-112.5"/>
<text text-anchor="middle" x="295" y="-119.5" font-family="Helvetica,sans-Serif" font-size="10.00">hal.h</text>
</a>
</g>
</g>
<!-- Node2&#45;&gt;Node4 -->
<g id="edge3" class="edge">
<title>Node2&#45;&gt;Node4</title>
<path fill="none" stroke="midnightblue" d="M291.66,-168.08C292.18,-161.01 292.94,-150.86 293.59,-141.99"/>
<polygon fill="midnightblue" stroke="midnightblue" points="297.1,-141.98 294.35,-131.75 290.12,-141.47 297.1,-141.98"/>
</g>
<!-- Node15 -->
<g id="node15" class="node">
<title>Node15</title>
<g id="a_node15"><a xlink:title=" ">
<polygon fill="white" stroke="#bfbfbf" points="333.5,-112.5 333.5,-131.5 408.5,-131.5 408.5,-112.5 333.5,-112.5"/>
<text text-anchor="middle" x="371" y="-119.5" font-family="Helvetica,sans-Serif" font-size="10.00">hal_canon.h</text>
</a>
</g>
</g>
<!-- Node2&#45;&gt;Node15 -->
<g id="edge14" class="edge">
<title>Node2&#45;&gt;Node15</title>
<path fill="none" stroke="midnightblue" d="M303.85,-168.32C316.22,-159.98 335.13,-147.21 349.74,-137.35"/>
<polygon fill="midnightblue" stroke="midnightblue" points="351.85,-140.15 358.18,-131.65 347.93,-134.35 351.85,-140.15"/>
</g>
<!-- Node5 -->
<g id="node5" class="node">
<title>Node5</title>
<g id="a_node5"><a xlink:href="rtapi_8h.html" target="_top" xlink:title=" ">
<polygon fill="white" stroke="black" points="85,-56.5 85,-75.5 133,-75.5 133,-56.5 85,-56.5"/>
<text text-anchor="middle" x="109" y="-63.5" font-family="Helvetica,sans-Serif" font-size="10.00">rtapi.h</text>
</a>
</g>
</g>
<!-- Node4&#45;&gt;Node5 -->
<g id="edge4" class="edge">
<title>Node4&#45;&gt;Node5</title>
<path fill="none" stroke="midnightblue" d="M274.35,-114.77C271.22,-113.84 268.03,-112.89 265,-112 222.91,-99.62 174.33,-85.66 142.71,-76.61"/>
<polygon fill="midnightblue" stroke="midnightblue" points="143.65,-73.24 133.08,-73.86 141.73,-79.97 143.65,-73.24"/>
</g>
<!-- Node9 -->
<g id="node9" class="node">
<title>Node9</title>
<g id="a_node9"><a xlink:href="rtapi__errno_8h.html" target="_top" xlink:title=" ">
<polygon fill="white" stroke="black" points="402.5,-56.5 402.5,-75.5 481.5,-75.5 481.5,-56.5 402.5,-56.5"/>
<text text-anchor="middle" x="442" y="-63.5" font-family="Helvetica,sans-Serif" font-size="10.00">rtapi_errno.h</text>
</a>
</g>
</g>
<!-- Node4&#45;&gt;Node9 -->
<g id="edge8" class="edge">
<title>Node4&#45;&gt;Node9</title>
<path fill="none" stroke="midnightblue" d="M315.75,-113.38C339.96,-104.48 380.31,-89.66 408.87,-79.17"/>
<polygon fill="midnightblue" stroke="midnightblue" points="410.26,-82.39 418.44,-75.65 407.85,-75.82 410.26,-82.39"/>
</g>
<!-- Node11 -->
<g id="node11" class="node">
<title>Node11</title>
<g id="a_node11"><a xlink:href="rtapi__bool_8h.html" target="_top" xlink:title=" ">
<polygon fill="white" stroke="black" points="211,-56.5 211,-75.5 285,-75.5 285,-56.5 211,-56.5"/>
<text text-anchor="middle" x="248" y="-63.5" font-family="Helvetica,sans-Serif" font-size="10.00">rtapi_bool.h</text>
</a>
</g>
</g>
<!-- Node4&#45;&gt;Node11 -->
<g id="edge10" class="edge">
<title>Node4&#45;&gt;Node11</title>
<path fill="none" stroke="midnightblue" d="M287.24,-112.08C280.46,-104.3 270.46,-92.8 262.24,-83.37"/>
<polygon fill="midnightblue" stroke="midnightblue" points="264.82,-81 255.62,-75.75 259.54,-85.59 264.82,-81"/>
</g>
<!-- Node13 -->
<g id="node13" class="node">
<title>Node13</title>
<g id="a_node13"><a xlink:href="rtapi__stdint_8h.html" target="_top" xlink:title=" ">
<polygon fill="white" stroke="black" points="303.5,-56.5 303.5,-75.5 384.5,-75.5 384.5,-56.5 303.5,-56.5"/>
<text text-anchor="middle" x="344" y="-63.5" font-family="Helvetica,sans-Serif" font-size="10.00">rtapi_stdint.h</text>
</a>
</g>
</g>
<!-- Node4&#45;&gt;Node13 -->
<g id="edge12" class="edge">
<title>Node4&#45;&gt;Node13</title>
<path fill="none" stroke="midnightblue" d="M303.09,-112.08C310.16,-104.3 320.59,-92.8 329.15,-83.37"/>
<polygon fill="midnightblue" stroke="midnightblue" points="331.93,-85.51 336.06,-75.75 326.75,-80.8 331.93,-85.51"/>
</g>
<!-- Node6 -->
<g id="node6" class="node">
<title>Node6</title>
<g id="a_node6"><a xlink:title=" ">
<polygon fill="white" stroke="#bfbfbf" points="0,-0.5 0,-19.5 56,-19.5 56,-0.5 0,-0.5"/>
<text text-anchor="middle" x="28" y="-7.5" font-family="Helvetica,sans-Serif" font-size="10.00">stddef.h</text>
</a>
</g>
</g>
<!-- Node5&#45;&gt;Node6 -->
<g id="edge5" class="edge">
<title>Node5&#45;&gt;Node6</title>
<path fill="none" stroke="midnightblue" d="M95.99,-56.32C83.47,-47.98 64.32,-35.21 49.53,-25.35"/>
<polygon fill="midnightblue" stroke="midnightblue" points="51.24,-22.29 40.98,-19.65 47.36,-28.11 51.24,-22.29"/>
</g>
<!-- Node7 -->
<g id="node7" class="node">
<title>Node7</title>
<g id="a_node7"><a xlink:title=" ">
<polygon fill="white" stroke="#bfbfbf" points="74,-0.5 74,-19.5 130,-19.5 130,-0.5 74,-0.5"/>
<text text-anchor="middle" x="102" y="-7.5" font-family="Helvetica,sans-Serif" font-size="10.00">stdarg.h</text>
</a>
</g>
</g>
<!-- Node5&#45;&gt;Node7 -->
<g id="edge6" class="edge">
<title>Node5&#45;&gt;Node7</title>
<path fill="none" stroke="midnightblue" d="M107.84,-56.08C106.92,-48.93 105.58,-38.64 104.42,-29.69"/>
<polygon fill="midnightblue" stroke="midnightblue" points="107.89,-29.22 103.13,-19.75 100.95,-30.12 107.89,-29.22"/>
</g>
<!-- Node8 -->
<g id="node8" class="node">
<title>Node8</title>
<g id="a_node8"><a xlink:title=" ">
<polygon fill="white" stroke="#bfbfbf" points="148.5,-0.5 148.5,-19.5 205.5,-19.5 205.5,-0.5 148.5,-0.5"/>
<text text-anchor="middle" x="177" y="-7.5" font-family="Helvetica,sans-Serif" font-size="10.00">spawn.h</text>
</a>
</g>
</g>
<!-- Node5&#45;&gt;Node8 -->
<g id="edge7" class="edge">
<title>Node5&#45;&gt;Node8</title>
<path fill="none" stroke="midnightblue" d="M119.93,-56.32C130.17,-48.18 145.72,-35.84 158,-26.09"/>
<polygon fill="midnightblue" stroke="midnightblue" points="160.22,-28.79 165.88,-19.83 155.87,-23.31 160.22,-28.79"/>
</g>
<!-- Node10 -->
<g id="node10" class="node">
<title>Node10</title>
<g id="a_node10"><a xlink:title=" ">
<polygon fill="white" stroke="#bfbfbf" points="416.5,-0.5 416.5,-19.5 467.5,-19.5 467.5,-0.5 416.5,-0.5"/>
<text text-anchor="middle" x="442" y="-7.5" font-family="Helvetica,sans-Serif" font-size="10.00">errno.h</text>
</a>
</g>
</g>
<!-- Node9&#45;&gt;Node10 -->
<g id="edge9" class="edge">
<title>Node9&#45;&gt;Node10</title>
<path fill="none" stroke="midnightblue" d="M442,-56.08C442,-49.01 442,-38.86 442,-29.99"/>
<polygon fill="midnightblue" stroke="midnightblue" points="445.5,-29.75 442,-19.75 438.5,-29.75 445.5,-29.75"/>
</g>
<!-- Node12 -->
<g id="node12" class="node">
<title>Node12</title>
<g id="a_node12"><a xlink:title=" ">
<polygon fill="white" stroke="#bfbfbf" points="224,-0.5 224,-19.5 286,-19.5 286,-0.5 224,-0.5"/>
<text text-anchor="middle" x="255" y="-7.5" font-family="Helvetica,sans-Serif" font-size="10.00">stdbool.h</text>
</a>
</g>
</g>
<!-- Node11&#45;&gt;Node12 -->
<g id="edge11" class="edge">
<title>Node11&#45;&gt;Node12</title>
<path fill="none" stroke="midnightblue" d="M249.16,-56.08C250.08,-48.93 251.42,-38.64 252.58,-29.69"/>
<polygon fill="midnightblue" stroke="midnightblue" points="256.05,-30.12 253.87,-19.75 249.11,-29.22 256.05,-30.12"/>
</g>
<!-- Node14 -->
<g id="node14" class="node">
<title>Node14</title>
<g id="a_node14"><a xlink:title=" ">
<polygon fill="white" stroke="#bfbfbf" points="311.5,-0.5 311.5,-19.5 376.5,-19.5 376.5,-0.5 311.5,-0.5"/>
<text text-anchor="middle" x="344" y="-7.5" font-family="Helvetica,sans-Serif" font-size="10.00">inttypes.h</text>
</a>
</g>
</g>
<!-- Node13&#45;&gt;Node14 -->
<g id="edge13" class="edge">
<title>Node13&#45;&gt;Node14</title>
<path fill="none" stroke="midnightblue" d="M344,-56.08C344,-49.01 344,-38.86 344,-29.99"/>
<polygon fill="midnightblue" stroke="midnightblue" points="347.5,-29.75 344,-19.75 340.5,-29.75 347.5,-29.75"/>
</g>
<!-- Node16&#45;&gt;Node2 -->
<g id="edge16" class="edge">
<title>Node16&#45;&gt;Node2</title>
<path fill="none" stroke="midnightblue" d="M210.42,-224.32C225.54,-215.82 248.82,-202.73 266.47,-192.8"/>
<polygon fill="midnightblue" stroke="midnightblue" points="268.61,-195.61 275.61,-187.65 265.18,-189.51 268.61,-195.61"/>
</g>
<!-- Node16&#45;&gt;Node3 -->
<g id="edge17" class="edge">
<title>Node16&#45;&gt;Node3</title>
<path fill="none" stroke="midnightblue" d="M197.75,-224.37C203.42,-206.54 216.54,-165.3 224.19,-141.27"/>
<polygon fill="midnightblue" stroke="midnightblue" points="227.57,-142.18 227.27,-131.59 220.9,-140.06 227.57,-142.18"/>
</g>
<!-- Node16&#45;&gt;Node6 -->
<g id="edge18" class="edge">
<title>Node16&#45;&gt;Node6</title>
<path fill="none" stroke="midnightblue" d="M188.25,-224.18C170.04,-200.35 118.41,-132.69 76,-76 63.85,-59.76 50.11,-41.12 40.45,-27.98"/>
<polygon fill="midnightblue" stroke="midnightblue" points="43.23,-25.85 34.49,-19.86 37.58,-29.99 43.23,-25.85"/>
</g>
<!-- Node16&#45;&gt;Node12 -->
<g id="edge19" class="edge">
<title>Node16&#45;&gt;Node12</title>
<path fill="none" stroke="midnightblue" d="M192.76,-224.17C186.37,-197.01 170.49,-113.08 202,-56 208.84,-43.62 220.52,-33.14 231.18,-25.42"/>
<polygon fill="midnightblue" stroke="midnightblue" points="233.45,-28.11 239.77,-19.6 229.52,-22.32 233.45,-28.11"/>
</g>
<!-- Node17&#45;&gt;Node2 -->
<g id="edge21" class="edge">
<title>Node17&#45;&gt;Node2</title>
<path fill="none" stroke="midnightblue" d="M369.9,-224.32C355.1,-215.82 332.31,-202.73 315.02,-192.8"/>
<polygon fill="midnightblue" stroke="midnightblue" points="316.48,-189.6 306.07,-187.65 312.99,-195.67 316.48,-189.6"/>
</g>
<!-- Node19 -->
<g id="node19" class="node">
<title>Node19</title>
<g id="a_node19"><a xlink:title=" ">
<polygon fill="white" stroke="#bfbfbf" points="486,-168.5 486,-187.5 540,-187.5 540,-168.5 486,-168.5"/>
<text text-anchor="middle" x="513" y="-175.5" font-family="Helvetica,sans-Serif" font-size="10.00">wchar.h</text>
</a>
</g>
</g>
<!-- Node18&#45;&gt;Node19 -->
<g id="edge23" class="edge">
<title>Node18&#45;&gt;Node19</title>
<path fill="none" stroke="midnightblue" d="M513,-224.08C513,-217.01 513,-206.86 513,-197.99"/>
<polygon fill="midnightblue" stroke="midnightblue" points="516.5,-197.75 513,-187.75 509.5,-197.75 516.5,-197.75"/>
</g>
</g>
</svg>
        <g id="navigator" transform="translate(0 0)" fill="#404254">
                <rect fill="#f2f5e9" fill-opacity="0.5" stroke="#606060" stroke-width=".5" x="0" y="0" width="60" height="60"/>
                <use id="zoomplus" xlink:href="#zoomPlus" x="17" y="9" onmousedown="handleZoom(evt,'in')"/>
                <use id="zoomminus" xlink:href="#zoomMin" x="42" y="9" onmousedown="handleZoom(evt,'out')"/>
                <use id="reset" xlink:href="#resetDef" x="30" y="36" onmousedown="handleReset()"/>
                <g id="arrowUp" xlink:href="#dirArrow" transform="translate(30 24)" onmousedown="handlePan(0,-1)">
                  <use xlink:href="#rim" fill="#404040">
                        <set attributeName="fill" to="#808080" begin="arrowUp.mouseover" end="arrowUp.mouseout"/>
                  </use>
                  <path fill="none" stroke="white" stroke-width="1.5" d="M0,-3.0v7 M-2.5,-0.5L0,-3.0L2.5,-0.5"/>
                </g>
                <g id="arrowRight" xlink:href="#dirArrow" transform="rotate(90) translate(36 -43)" onmousedown="handlePan(1,0)">
                  <use xlink:href="#rim" fill="#404040">
                        <set attributeName="fill" to="#808080" begin="arrowRight.mouseover" end="arrowRight.mouseout"/>
                  </use>
                  <path fill="none" stroke="white" stroke-width="1.5" d="M0,-3.0v7 M-2.5,-0.5L0,-3.0L2.5,-0.5"/>
                </g>
                <g id="arrowDown" xlink:href="#dirArrow" transform="rotate(180) translate(-30 -48)" onmousedown="handlePan(0,1)">
                  <use xlink:href="#rim" fill="#404040">
                        <set attributeName="fill" to="#808080" begin="arrowDown.mouseover" end="arrowDown.mouseout"/>
                  </use>
                  <path fill="none" stroke="white" stroke-width="1.5" d="M0,-3.0v7 M-2.5,-0.5L0,-3.0L2.5,-0.5"/>
                </g>
                <g id="arrowLeft" xlink:href="#dirArrow" transform="rotate(270) translate(-36 17)" onmousedown="handlePan(-1,0)">
                  <use xlink:href="#rim" fill="#404040">
                        <set attributeName="fill" to="#808080" begin="arrowLeft.mouseover" end="arrowLeft.mouseout"/>
                  </use>
                  <path fill="none" stroke="white" stroke-width="1.5" d="M0,-3.0v7 M-2.5,-0.5L0,-3.0L2.5,-0.5"/>
                </g>
        </g>
        <svg viewBox="0 0 15 15" width="100%" height="30px" preserveAspectRatio="xMaxYMin meet">
         <g id="arrow_out" transform="scale(0.3 0.3)">
          <a xlink:href="PoKeysLibDevicePoKeys57IndustrialAsync_8c__incl_org.svg" target="_base">
           <rect id="button" ry="5" rx="5" y="6" x="6" height="38" width="38"
                fill="#f2f5e9" fill-opacity="0.5" stroke="#606060" stroke-width="1.0"/>
           <path id="arrow"
             d="M 11.500037,31.436501 C 11.940474,20.09759 22.043105,11.32322 32.158766,21.979434 L 37.068811,17.246167 C 37.068811,17.246167 37.088388,32 37.088388,32 L 22.160133,31.978069 C 22.160133,31.978069 26.997745,27.140456 26.997745,27.140456 C 18.528582,18.264221 13.291696,25.230495 11.500037,31.436501 z"
             style="fill:#404040;"/>
          </a>
         </g>
        </svg>
</svg>
