<?xml version="1.0" encoding="UTF-8" standalone="no"?>
<!DOCTYPE svg PUBLIC "-//W3C//DTD SVG 1.1//EN"
 "http://www.w3.org/Graphics/SVG/1.1/DTD/svg11.dtd">
<!-- Generated by graphviz version 2.43.0 (0)
 -->
<!-- Title: PK57i_Disconnect Pages: 1 -->
<svg width="470pt" height="104pt"
 viewBox="0.00 0.00 470.00 104.00" xmlns="http://www.w3.org/2000/svg" xmlns:xlink="http://www.w3.org/1999/xlink">
<g id="graph0" class="graph" transform="scale(1 1) rotate(0) translate(4 100)">
<title>PK57i_Disconnect</title>
<polygon fill="white" stroke="transparent" points="-4,4 -4,-100 466,-100 466,4 -4,4"/>
<!-- Node1 -->
<g id="node1" class="node">
<title>Node1</title>
<g id="a_node1"><a xlink:title=" ">
<polygon fill="#bfbfbf" stroke="black" points="0,-38.5 0,-57.5 104,-57.5 104,-38.5 0,-38.5"/>
<text text-anchor="middle" x="52" y="-45.5" font-family="Helvetica,sans-Serif" font-size="10.00">PK57i_Disconnect</text>
</a>
</g>
</g>
<!-- Node2 -->
<g id="node2" class="node">
<title>Node2</title>
<g id="a_node2"><a xlink:href="PoKeysLibCoreAsync_8c.html#a5048159684edb84a2da9f20e358507fc" target="_top" xlink:title=" ">
<polygon fill="white" stroke="black" points="140,-38.5 140,-57.5 262,-57.5 262,-38.5 140,-38.5"/>
<text text-anchor="middle" x="201" y="-45.5" font-family="Helvetica,sans-Serif" font-size="10.00">PK_DisconnectDevice</text>
</a>
</g>
</g>
<!-- Node1&#45;&gt;Node2 -->
<g id="edge1" class="edge">
<title>Node1&#45;&gt;Node2</title>
<path fill="none" stroke="midnightblue" d="M104,-48C112.35,-48 121.12,-48 129.83,-48"/>
<polygon fill="midnightblue" stroke="midnightblue" points="129.99,-51.5 139.99,-48 129.99,-44.5 129.99,-51.5"/>
</g>
<!-- Node3 -->
<g id="node3" class="node">
<title>Node3</title>
<g id="a_node3"><a xlink:href="pokeyslib_2PoKeysLibCore_8c.html#a8ddc84176ab5e728aeef3077e4c04721" target="_top" xlink:title=" ">
<polygon fill="white" stroke="black" points="341,-76.5 341,-95.5 419,-95.5 419,-76.5 341,-76.5"/>
<text text-anchor="middle" x="380" y="-83.5" font-family="Helvetica,sans-Serif" font-size="10.00">CleanDevice</text>
</a>
</g>
</g>
<!-- Node2&#45;&gt;Node3 -->
<g id="edge2" class="edge">
<title>Node2&#45;&gt;Node3</title>
<path fill="none" stroke="midnightblue" d="M246.66,-57.59C272.34,-63.1 304.6,-70.03 330.85,-75.66"/>
<polygon fill="midnightblue" stroke="midnightblue" points="330.44,-79.15 340.95,-77.83 331.91,-72.31 330.44,-79.15"/>
</g>
<!-- Node4 -->
<g id="node4" class="node">
<title>Node4</title>
<g id="a_node4"><a xlink:href="group__API.html#ga9b64828273b8dd052731e79ba9e1a516" target="_top" xlink:title="Close a HID device.">
<polygon fill="white" stroke="black" points="349,-38.5 349,-57.5 411,-57.5 411,-38.5 349,-38.5"/>
<text text-anchor="middle" x="380" y="-45.5" font-family="Helvetica,sans-Serif" font-size="10.00">hid_close</text>
</a>
</g>
</g>
<!-- Node2&#45;&gt;Node4 -->
<g id="edge3" class="edge">
<title>Node2&#45;&gt;Node4</title>
<path fill="none" stroke="midnightblue" d="M262.42,-48C287.49,-48 315.92,-48 338.42,-48"/>
<polygon fill="midnightblue" stroke="midnightblue" points="338.63,-51.5 348.63,-48 338.63,-44.5 338.63,-51.5"/>
</g>
<!-- Node5 -->
<g id="node5" class="node">
<title>Node5</title>
<g id="a_node5"><a xlink:href="pokeysHal_2PoKeysLibCoreSockets_8c.html#a99687fe089d02ed7dc65edcd486a0640" target="_top" xlink:title=" ">
<polygon fill="white" stroke="black" points="298,-0.5 298,-19.5 462,-19.5 462,-0.5 298,-0.5"/>
<text text-anchor="middle" x="380" y="-7.5" font-family="Helvetica,sans-Serif" font-size="10.00">PK_DisconnectNetworkDevice</text>
</a>
</g>
</g>
<!-- Node2&#45;&gt;Node5 -->
<g id="edge4" class="edge">
<title>Node2&#45;&gt;Node5</title>
<path fill="none" stroke="midnightblue" d="M246.66,-38.41C270.34,-33.33 299.61,-27.04 324.6,-21.68"/>
<polygon fill="midnightblue" stroke="midnightblue" points="325.61,-25.04 334.66,-19.52 324.14,-18.2 325.61,-25.04"/>
</g>
</g>
</svg>
