<?xml version="1.0" encoding="UTF-8" standalone="no"?>
<!DOCTYPE svg PUBLIC "-//W3C//DTD SVG 1.1//EN"
 "http://www.w3.org/Graphics/SVG/1.1/DTD/svg11.dtd">
<!-- Generated by graphviz version 2.43.0 (0)
 -->
<!-- Title: PK_PEv2_ThreadingSetup Pages: 1 -->
<svg width="543pt" height="142pt"
 viewBox="0.00 0.00 543.00 142.00" xmlns="http://www.w3.org/2000/svg" xmlns:xlink="http://www.w3.org/1999/xlink">
<g id="graph0" class="graph" transform="scale(1 1) rotate(0) translate(4 138)">
<title>PK_PEv2_ThreadingSetup</title>
<polygon fill="white" stroke="transparent" points="-4,4 -4,-138 539,-138 539,4 -4,4"/>
<!-- Node1 -->
<g id="node1" class="node">
<title>Node1</title>
<g id="a_node1"><a xlink:title=" ">
<polygon fill="#bfbfbf" stroke="black" points="0,-76.5 0,-95.5 140,-95.5 140,-76.5 0,-76.5"/>
<text text-anchor="middle" x="70" y="-83.5" font-family="Helvetica,sans-Serif" font-size="10.00">PK_PEv2_ThreadingSetup</text>
</a>
</g>
</g>
<!-- Node2 -->
<g id="node2" class="node">
<title>Node2</title>
<g id="a_node2"><a xlink:href="pokeyslib_2PoKeysLibCore_8c.html#acb1fdd8f77277dc66c4d037218bfcece" target="_top" xlink:title=" ">
<polygon fill="white" stroke="black" points="176,-95.5 176,-114.5 265,-114.5 265,-95.5 176,-95.5"/>
<text text-anchor="middle" x="220.5" y="-102.5" font-family="Helvetica,sans-Serif" font-size="10.00">CreateRequest</text>
</a>
</g>
</g>
<!-- Node1&#45;&gt;Node2 -->
<g id="edge1" class="edge">
<title>Node1&#45;&gt;Node2</title>
<path fill="none" stroke="midnightblue" d="M140.03,-94.83C148.65,-95.93 157.36,-97.05 165.7,-98.12"/>
<polygon fill="midnightblue" stroke="midnightblue" points="165.28,-101.59 175.65,-99.39 166.17,-94.65 165.28,-101.59"/>
</g>
<!-- Node3 -->
<g id="node3" class="node">
<title>Node3</title>
<g id="a_node3"><a xlink:href="pokeyslib_2PoKeysLibCore_8c.html#ab5d92aa36d0a4a6953a055f5cd960aff" target="_top" xlink:title=" ">
<polygon fill="white" stroke="black" points="180.5,-57.5 180.5,-76.5 260.5,-76.5 260.5,-57.5 180.5,-57.5"/>
<text text-anchor="middle" x="220.5" y="-64.5" font-family="Helvetica,sans-Serif" font-size="10.00">SendRequest</text>
</a>
</g>
</g>
<!-- Node1&#45;&gt;Node3 -->
<g id="edge2" class="edge">
<title>Node1&#45;&gt;Node3</title>
<path fill="none" stroke="midnightblue" d="M140.03,-77.17C150.16,-75.87 160.41,-74.56 170.04,-73.33"/>
<polygon fill="midnightblue" stroke="midnightblue" points="170.72,-76.77 180.2,-72.03 169.83,-69.83 170.72,-76.77"/>
</g>
<!-- Node4 -->
<g id="node4" class="node">
<title>Node4</title>
<g id="a_node4"><a xlink:href="pokeyslib_2PoKeysLibCore_8c.html#a273b6d635dea8f559b915cdb289d021e" target="_top" xlink:title=" ">
<polygon fill="white" stroke="black" points="442.5,-38.5 442.5,-57.5 525.5,-57.5 525.5,-38.5 442.5,-38.5"/>
<text text-anchor="middle" x="484" y="-45.5" font-family="Helvetica,sans-Serif" font-size="10.00">getChecksum</text>
</a>
</g>
</g>
<!-- Node3&#45;&gt;Node4 -->
<g id="edge3" class="edge">
<title>Node3&#45;&gt;Node4</title>
<path fill="none" stroke="midnightblue" d="M260.67,-69.42C296.32,-71.06 350.36,-72.09 397,-67 410.57,-65.52 425.13,-62.76 438.34,-59.8"/>
<polygon fill="midnightblue" stroke="midnightblue" points="439.2,-63.19 448.14,-57.51 437.61,-56.37 439.2,-63.19"/>
</g>
<!-- Node5 -->
<g id="node5" class="node">
<title>Node5</title>
<g id="a_node5"><a xlink:href="group__API.html#ga6b820f3e72097cf7f994e33715dc7af1" target="_top" xlink:title="Read an Input report from a HID device.">
<polygon fill="white" stroke="black" points="319.5,-114.5 319.5,-133.5 378.5,-133.5 378.5,-114.5 319.5,-114.5"/>
<text text-anchor="middle" x="349" y="-121.5" font-family="Helvetica,sans-Serif" font-size="10.00">hid_read</text>
</a>
</g>
</g>
<!-- Node3&#45;&gt;Node5 -->
<g id="edge4" class="edge">
<title>Node3&#45;&gt;Node5</title>
<path fill="none" stroke="midnightblue" d="M243.66,-76.59C250.51,-79.58 258.08,-82.9 265,-86 282.61,-93.88 302.24,-102.86 317.99,-110.11"/>
<polygon fill="midnightblue" stroke="midnightblue" points="316.69,-113.36 327.24,-114.37 319.62,-107.01 316.69,-113.36"/>
</g>
<!-- Node7 -->
<g id="node7" class="node">
<title>Node7</title>
<g id="a_node7"><a xlink:href="group__API.html#gad14ea48e440cf5066df87cc6488493af" target="_top" xlink:title="Write an Output report to a HID device.">
<polygon fill="white" stroke="black" points="318,-38.5 318,-57.5 380,-57.5 380,-38.5 318,-38.5"/>
<text text-anchor="middle" x="349" y="-45.5" font-family="Helvetica,sans-Serif" font-size="10.00">hid_write</text>
</a>
</g>
</g>
<!-- Node3&#45;&gt;Node7 -->
<g id="edge6" class="edge">
<title>Node3&#45;&gt;Node7</title>
<path fill="none" stroke="midnightblue" d="M260.83,-61.09C275.8,-58.84 292.86,-56.28 307.9,-54.02"/>
<polygon fill="midnightblue" stroke="midnightblue" points="308.57,-57.46 317.94,-52.52 307.53,-50.54 308.57,-57.46"/>
</g>
<!-- Node8 -->
<g id="node8" class="node">
<title>Node8</title>
<g id="a_node8"><a xlink:href="pokeyslib_2PoKeysLibCoreSockets_8c.html#a22759fb4024c9081af26ac1bc6541b47" target="_top" xlink:title=" ">
<polygon fill="white" stroke="black" points="301,-0.5 301,-19.5 397,-19.5 397,-0.5 301,-0.5"/>
<text text-anchor="middle" x="349" y="-7.5" font-family="Helvetica,sans-Serif" font-size="10.00">SendEthRequest</text>
</a>
</g>
</g>
<!-- Node3&#45;&gt;Node8 -->
<g id="edge7" class="edge">
<title>Node3&#45;&gt;Node8</title>
<path fill="none" stroke="midnightblue" d="M240.62,-57.45C256.63,-49.56 280.14,-38.19 301,-29 305.19,-27.15 309.62,-25.27 314.02,-23.45"/>
<polygon fill="midnightblue" stroke="midnightblue" points="315.55,-26.6 323.49,-19.58 312.91,-20.12 315.55,-26.6"/>
</g>
<!-- Node6 -->
<g id="node6" class="node">
<title>Node6</title>
<g id="a_node6"><a xlink:href="group__API.html#gaa5c9ed5aa290688ffac03343989ad75a" target="_top" xlink:title="Read an Input report from a HID device with timeout.">
<polygon fill="white" stroke="black" points="433,-114.5 433,-133.5 535,-133.5 535,-114.5 433,-114.5"/>
<text text-anchor="middle" x="484" y="-121.5" font-family="Helvetica,sans-Serif" font-size="10.00">hid_read_timeout</text>
</a>
</g>
</g>
<!-- Node5&#45;&gt;Node6 -->
<g id="edge5" class="edge">
<title>Node5&#45;&gt;Node6</title>
<path fill="none" stroke="midnightblue" d="M378.53,-124C391.49,-124 407.35,-124 422.75,-124"/>
<polygon fill="midnightblue" stroke="midnightblue" points="422.77,-127.5 432.77,-124 422.77,-120.5 422.77,-127.5"/>
</g>
<!-- Node8&#45;&gt;Node4 -->
<g id="edge8" class="edge">
<title>Node8&#45;&gt;Node4</title>
<path fill="none" stroke="midnightblue" d="M383.56,-19.59C400.57,-24.45 421.43,-30.41 439.64,-35.61"/>
<polygon fill="midnightblue" stroke="midnightblue" points="438.87,-39.03 449.45,-38.41 440.8,-32.3 438.87,-39.03"/>
</g>
</g>
</svg>
