<?xml version="1.0" encoding="UTF-8" standalone="no"?>
<!DOCTYPE svg PUBLIC "-//W3C//DTD SVG 1.1//EN"
 "http://www.w3.org/Graphics/SVG/1.1/DTD/svg11.dtd">
<!-- Generated by graphviz version 2.43.0 (0)
 -->
<!-- Title: /home/cnc/actions&#45;runner/_work/LinuxCnc_PokeysLibComp/LinuxCnc_PokeysLibComp/pokeys_uspace/PoKeysCompIO.c Pages: 1 -->
<svg width="755pt" height="229pt"
 viewBox="0.00 0.00 754.50 229.00" xmlns="http://www.w3.org/2000/svg" xmlns:xlink="http://www.w3.org/1999/xlink">
<g id="graph0" class="graph" transform="scale(1 1) rotate(0) translate(4 225)">
<title>/home/cnc/actions&#45;runner/_work/LinuxCnc_PokeysLibComp/LinuxCnc_PokeysLibComp/pokeys_uspace/PoKeysCompIO.c</title>
<polygon fill="white" stroke="transparent" points="-4,4 -4,-225 750.5,-225 750.5,4 -4,4"/>
<!-- Node1 -->
<g id="node1" class="node">
<title>Node1</title>
<g id="a_node1"><a xlink:title="HAL interface for PoKeys digital and analog I/O handling.">
<polygon fill="#bfbfbf" stroke="black" points="194,-168.5 194,-220.5 378,-220.5 378,-168.5 194,-168.5"/>
<text text-anchor="start" x="202" y="-208.5" font-family="Helvetica,sans-Serif" font-size="10.00">/home/cnc/actions&#45;runner</text>
<text text-anchor="start" x="202" y="-197.5" font-family="Helvetica,sans-Serif" font-size="10.00">/_work/LinuxCnc_PokeysLibComp</text>
<text text-anchor="start" x="202" y="-186.5" font-family="Helvetica,sans-Serif" font-size="10.00">/LinuxCnc_PokeysLibComp/pokeys</text>
<text text-anchor="middle" x="286" y="-175.5" font-family="Helvetica,sans-Serif" font-size="10.00">_uspace/PoKeysCompIO.c</text>
</a>
</g>
</g>
<!-- Node2 -->
<g id="node2" class="node">
<title>Node2</title>
<g id="a_node2"><a xlink:href="PoKeysLib_8h.html" target="_top" xlink:title=" ">
<polygon fill="white" stroke="black" points="106.5,-112.5 106.5,-131.5 181.5,-131.5 181.5,-112.5 106.5,-112.5"/>
<text text-anchor="middle" x="144" y="-119.5" font-family="Helvetica,sans-Serif" font-size="10.00">PoKeysLib.h</text>
</a>
</g>
</g>
<!-- Node1&#45;&gt;Node2 -->
<g id="edge1" class="edge">
<title>Node1&#45;&gt;Node2</title>
<path fill="none" stroke="midnightblue" d="M235.54,-168.45C213.51,-157.51 188.59,-145.14 170.33,-136.07"/>
<polygon fill="midnightblue" stroke="midnightblue" points="171.69,-132.84 161.17,-131.53 168.58,-139.11 171.69,-132.84"/>
</g>
<!-- Node4 -->
<g id="node4" class="node">
<title>Node4</title>
<g id="a_node4"><a xlink:href="rtapi_8h.html" target="_top" xlink:title=" ">
<polygon fill="white" stroke="black" points="133,-56.5 133,-75.5 181,-75.5 181,-56.5 133,-56.5"/>
<text text-anchor="middle" x="157" y="-63.5" font-family="Helvetica,sans-Serif" font-size="10.00">rtapi.h</text>
</a>
</g>
</g>
<!-- Node1&#45;&gt;Node4 -->
<g id="edge3" class="edge">
<title>Node1&#45;&gt;Node4</title>
<path fill="none" stroke="midnightblue" d="M260.2,-168.2C234.14,-142.65 194.7,-103.97 172.9,-82.59"/>
<polygon fill="midnightblue" stroke="midnightblue" points="175.31,-80.05 165.72,-75.55 170.41,-85.05 175.31,-80.05"/>
</g>
<!-- Node8 -->
<g id="node8" class="node">
<title>Node8</title>
<g id="a_node8"><a xlink:href="hal_8h.html" target="_top" xlink:title=" ">
<polygon fill="white" stroke="black" points="265.5,-112.5 265.5,-131.5 306.5,-131.5 306.5,-112.5 265.5,-112.5"/>
<text text-anchor="middle" x="286" y="-119.5" font-family="Helvetica,sans-Serif" font-size="10.00">hal.h</text>
</a>
</g>
</g>
<!-- Node1&#45;&gt;Node8 -->
<g id="edge7" class="edge">
<title>Node1&#45;&gt;Node8</title>
<path fill="none" stroke="midnightblue" d="M286,-168.45C286,-159.73 286,-150.1 286,-141.96"/>
<polygon fill="midnightblue" stroke="midnightblue" points="289.5,-141.7 286,-131.7 282.5,-141.7 289.5,-141.7"/>
</g>
<!-- Node15 -->
<g id="node15" class="node">
<title>Node15</title>
<g id="a_node15"><a xlink:title=" ">
<polygon fill="white" stroke="#bfbfbf" points="511,-0.5 511,-19.5 561,-19.5 561,-0.5 511,-0.5"/>
<text text-anchor="middle" x="536" y="-7.5" font-family="Helvetica,sans-Serif" font-size="10.00">stdio.h</text>
</a>
</g>
</g>
<!-- Node1&#45;&gt;Node15 -->
<g id="edge15" class="edge">
<title>Node1&#45;&gt;Node15</title>
<path fill="none" stroke="midnightblue" d="M336.34,-168.35C376.99,-146.79 434.55,-113.35 479,-76 496.15,-61.58 512.69,-41.87 523.49,-27.95"/>
<polygon fill="midnightblue" stroke="midnightblue" points="526.45,-29.83 529.71,-19.75 520.88,-25.6 526.45,-29.83"/>
</g>
<!-- Node16 -->
<g id="node16" class="node">
<title>Node16</title>
<g id="a_node16"><a xlink:href="pokeys__ini_8c.html" target="_top" xlink:title=" ">
<polygon fill="white" stroke="black" points="568.5,-112.5 568.5,-131.5 645.5,-131.5 645.5,-112.5 568.5,-112.5"/>
<text text-anchor="middle" x="607" y="-119.5" font-family="Helvetica,sans-Serif" font-size="10.00">pokeys_ini.c</text>
</a>
</g>
</g>
<!-- Node1&#45;&gt;Node16 -->
<g id="edge16" class="edge">
<title>Node1&#45;&gt;Node16</title>
<path fill="none" stroke="midnightblue" d="M378.42,-173.2C437.08,-160.32 510.65,-144.16 558.23,-133.71"/>
<polygon fill="midnightblue" stroke="midnightblue" points="559.25,-137.07 568.26,-131.51 557.74,-130.23 559.25,-137.07"/>
</g>
<!-- Node3 -->
<g id="node3" class="node">
<title>Node3</title>
<g id="a_node3"><a xlink:title=" ">
<polygon fill="white" stroke="#bfbfbf" points="61.5,-56.5 61.5,-75.5 114.5,-75.5 114.5,-56.5 61.5,-56.5"/>
<text text-anchor="middle" x="88" y="-63.5" font-family="Helvetica,sans-Serif" font-size="10.00">stdint.h</text>
</a>
</g>
</g>
<!-- Node2&#45;&gt;Node3 -->
<g id="edge2" class="edge">
<title>Node2&#45;&gt;Node3</title>
<path fill="none" stroke="midnightblue" d="M135,-112.32C126.81,-104.42 114.49,-92.55 104.53,-82.94"/>
<polygon fill="midnightblue" stroke="midnightblue" points="106.79,-80.26 97.16,-75.83 101.93,-85.29 106.79,-80.26"/>
</g>
<!-- Node5 -->
<g id="node5" class="node">
<title>Node5</title>
<g id="a_node5"><a xlink:title=" ">
<polygon fill="white" stroke="#bfbfbf" points="0,-0.5 0,-19.5 56,-19.5 56,-0.5 0,-0.5"/>
<text text-anchor="middle" x="28" y="-7.5" font-family="Helvetica,sans-Serif" font-size="10.00">stddef.h</text>
</a>
</g>
</g>
<!-- Node4&#45;&gt;Node5 -->
<g id="edge4" class="edge">
<title>Node4&#45;&gt;Node5</title>
<path fill="none" stroke="midnightblue" d="M136.56,-56.44C115.33,-47.56 81.9,-33.56 57.75,-23.45"/>
<polygon fill="midnightblue" stroke="midnightblue" points="58.92,-20.15 48.34,-19.52 56.22,-26.61 58.92,-20.15"/>
</g>
<!-- Node6 -->
<g id="node6" class="node">
<title>Node6</title>
<g id="a_node6"><a xlink:title=" ">
<polygon fill="white" stroke="#bfbfbf" points="74,-0.5 74,-19.5 130,-19.5 130,-0.5 74,-0.5"/>
<text text-anchor="middle" x="102" y="-7.5" font-family="Helvetica,sans-Serif" font-size="10.00">stdarg.h</text>
</a>
</g>
</g>
<!-- Node4&#45;&gt;Node6 -->
<g id="edge5" class="edge">
<title>Node4&#45;&gt;Node6</title>
<path fill="none" stroke="midnightblue" d="M147.92,-56.08C139.83,-48.14 127.8,-36.34 118.09,-26.8"/>
<polygon fill="midnightblue" stroke="midnightblue" points="120.5,-24.26 110.91,-19.75 115.6,-29.25 120.5,-24.26"/>
</g>
<!-- Node7 -->
<g id="node7" class="node">
<title>Node7</title>
<g id="a_node7"><a xlink:title=" ">
<polygon fill="white" stroke="#bfbfbf" points="148.5,-0.5 148.5,-19.5 205.5,-19.5 205.5,-0.5 148.5,-0.5"/>
<text text-anchor="middle" x="177" y="-7.5" font-family="Helvetica,sans-Serif" font-size="10.00">spawn.h</text>
</a>
</g>
</g>
<!-- Node4&#45;&gt;Node7 -->
<g id="edge6" class="edge">
<title>Node4&#45;&gt;Node7</title>
<path fill="none" stroke="midnightblue" d="M160.3,-56.08C162.98,-48.85 166.85,-38.41 170.19,-29.4"/>
<polygon fill="midnightblue" stroke="midnightblue" points="173.57,-30.34 173.76,-19.75 167,-27.91 173.57,-30.34"/>
</g>
<!-- Node8&#45;&gt;Node4 -->
<g id="edge8" class="edge">
<title>Node8&#45;&gt;Node4</title>
<path fill="none" stroke="midnightblue" d="M265.56,-112.44C244.33,-103.56 210.9,-89.56 186.75,-79.45"/>
<polygon fill="midnightblue" stroke="midnightblue" points="187.92,-76.15 177.34,-75.52 185.22,-82.61 187.92,-76.15"/>
</g>
<!-- Node9 -->
<g id="node9" class="node">
<title>Node9</title>
<g id="a_node9"><a xlink:href="rtapi__errno_8h.html" target="_top" xlink:title=" ">
<polygon fill="white" stroke="black" points="199.5,-56.5 199.5,-75.5 278.5,-75.5 278.5,-56.5 199.5,-56.5"/>
<text text-anchor="middle" x="239" y="-63.5" font-family="Helvetica,sans-Serif" font-size="10.00">rtapi_errno.h</text>
</a>
</g>
</g>
<!-- Node8&#45;&gt;Node9 -->
<g id="edge9" class="edge">
<title>Node8&#45;&gt;Node9</title>
<path fill="none" stroke="midnightblue" d="M278.24,-112.08C271.46,-104.3 261.46,-92.8 253.24,-83.37"/>
<polygon fill="midnightblue" stroke="midnightblue" points="255.82,-81 246.62,-75.75 250.54,-85.59 255.82,-81"/>
</g>
<!-- Node11 -->
<g id="node11" class="node">
<title>Node11</title>
<g id="a_node11"><a xlink:href="rtapi__bool_8h.html" target="_top" xlink:title=" ">
<polygon fill="white" stroke="black" points="297,-56.5 297,-75.5 371,-75.5 371,-56.5 297,-56.5"/>
<text text-anchor="middle" x="334" y="-63.5" font-family="Helvetica,sans-Serif" font-size="10.00">rtapi_bool.h</text>
</a>
</g>
</g>
<!-- Node8&#45;&gt;Node11 -->
<g id="edge11" class="edge">
<title>Node8&#45;&gt;Node11</title>
<path fill="none" stroke="midnightblue" d="M293.93,-112.08C300.85,-104.3 311.07,-92.8 319.45,-83.37"/>
<polygon fill="midnightblue" stroke="midnightblue" points="322.19,-85.55 326.22,-75.75 316.96,-80.9 322.19,-85.55"/>
</g>
<!-- Node13 -->
<g id="node13" class="node">
<title>Node13</title>
<g id="a_node13"><a xlink:href="rtapi__stdint_8h.html" target="_top" xlink:title=" ">
<polygon fill="white" stroke="black" points="389.5,-56.5 389.5,-75.5 470.5,-75.5 470.5,-56.5 389.5,-56.5"/>
<text text-anchor="middle" x="430" y="-63.5" font-family="Helvetica,sans-Serif" font-size="10.00">rtapi_stdint.h</text>
</a>
</g>
</g>
<!-- Node8&#45;&gt;Node13 -->
<g id="edge13" class="edge">
<title>Node8&#45;&gt;Node13</title>
<path fill="none" stroke="midnightblue" d="M306.63,-113.26C330.32,-104.38 369.49,-89.69 397.33,-79.25"/>
<polygon fill="midnightblue" stroke="midnightblue" points="398.89,-82.4 407.03,-75.62 396.43,-75.85 398.89,-82.4"/>
</g>
<!-- Node10 -->
<g id="node10" class="node">
<title>Node10</title>
<g id="a_node10"><a xlink:title=" ">
<polygon fill="white" stroke="#bfbfbf" points="223.5,-0.5 223.5,-19.5 274.5,-19.5 274.5,-0.5 223.5,-0.5"/>
<text text-anchor="middle" x="249" y="-7.5" font-family="Helvetica,sans-Serif" font-size="10.00">errno.h</text>
</a>
</g>
</g>
<!-- Node9&#45;&gt;Node10 -->
<g id="edge10" class="edge">
<title>Node9&#45;&gt;Node10</title>
<path fill="none" stroke="midnightblue" d="M240.65,-56.08C241.98,-48.93 243.88,-38.64 245.54,-29.69"/>
<polygon fill="midnightblue" stroke="midnightblue" points="249,-30.22 247.38,-19.75 242.12,-28.95 249,-30.22"/>
</g>
<!-- Node12 -->
<g id="node12" class="node">
<title>Node12</title>
<g id="a_node12"><a xlink:title=" ">
<polygon fill="white" stroke="#bfbfbf" points="303,-0.5 303,-19.5 365,-19.5 365,-0.5 303,-0.5"/>
<text text-anchor="middle" x="334" y="-7.5" font-family="Helvetica,sans-Serif" font-size="10.00">stdbool.h</text>
</a>
</g>
</g>
<!-- Node11&#45;&gt;Node12 -->
<g id="edge12" class="edge">
<title>Node11&#45;&gt;Node12</title>
<path fill="none" stroke="midnightblue" d="M334,-56.08C334,-49.01 334,-38.86 334,-29.99"/>
<polygon fill="midnightblue" stroke="midnightblue" points="337.5,-29.75 334,-19.75 330.5,-29.75 337.5,-29.75"/>
</g>
<!-- Node14 -->
<g id="node14" class="node">
<title>Node14</title>
<g id="a_node14"><a xlink:title=" ">
<polygon fill="white" stroke="#bfbfbf" points="397.5,-0.5 397.5,-19.5 462.5,-19.5 462.5,-0.5 397.5,-0.5"/>
<text text-anchor="middle" x="430" y="-7.5" font-family="Helvetica,sans-Serif" font-size="10.00">inttypes.h</text>
</a>
</g>
</g>
<!-- Node13&#45;&gt;Node14 -->
<g id="edge14" class="edge">
<title>Node13&#45;&gt;Node14</title>
<path fill="none" stroke="midnightblue" d="M430,-56.08C430,-49.01 430,-38.86 430,-29.99"/>
<polygon fill="midnightblue" stroke="midnightblue" points="433.5,-29.75 430,-19.75 426.5,-29.75 433.5,-29.75"/>
</g>
<!-- Node17 -->
<g id="node17" class="node">
<title>Node17</title>
<g id="a_node17"><a xlink:href="pokeys__ini_8h.html" target="_top" xlink:title=" ">
<polygon fill="white" stroke="black" points="527.5,-56.5 527.5,-75.5 604.5,-75.5 604.5,-56.5 527.5,-56.5"/>
<text text-anchor="middle" x="566" y="-63.5" font-family="Helvetica,sans-Serif" font-size="10.00">pokeys_ini.h</text>
</a>
</g>
</g>
<!-- Node16&#45;&gt;Node17 -->
<g id="edge17" class="edge">
<title>Node16&#45;&gt;Node17</title>
<path fill="none" stroke="midnightblue" d="M600.23,-112.08C594.44,-104.46 585.94,-93.26 578.86,-83.94"/>
<polygon fill="midnightblue" stroke="midnightblue" points="581.48,-81.6 572.64,-75.75 575.9,-85.83 581.48,-81.6"/>
</g>
<!-- Node18 -->
<g id="node18" class="node">
<title>Node18</title>
<g id="a_node18"><a xlink:title=" ">
<polygon fill="white" stroke="#bfbfbf" points="622.5,-56.5 622.5,-75.5 675.5,-75.5 675.5,-56.5 622.5,-56.5"/>
<text text-anchor="middle" x="649" y="-63.5" font-family="Helvetica,sans-Serif" font-size="10.00">stdlib.h</text>
</a>
</g>
</g>
<!-- Node16&#45;&gt;Node18 -->
<g id="edge19" class="edge">
<title>Node16&#45;&gt;Node18</title>
<path fill="none" stroke="midnightblue" d="M613.94,-112.08C619.93,-104.38 628.75,-93.03 636.05,-83.65"/>
<polygon fill="midnightblue" stroke="midnightblue" points="638.82,-85.79 642.19,-75.75 633.29,-81.5 638.82,-85.79"/>
</g>
<!-- Node19 -->
<g id="node19" class="node">
<title>Node19</title>
<g id="a_node19"><a xlink:title=" ">
<polygon fill="white" stroke="#bfbfbf" points="693.5,-56.5 693.5,-75.5 746.5,-75.5 746.5,-56.5 693.5,-56.5"/>
<text text-anchor="middle" x="720" y="-63.5" font-family="Helvetica,sans-Serif" font-size="10.00">string.h</text>
</a>
</g>
</g>
<!-- Node16&#45;&gt;Node19 -->
<g id="edge20" class="edge">
<title>Node16&#45;&gt;Node19</title>
<path fill="none" stroke="midnightblue" d="M624.91,-112.44C643.25,-103.68 672.01,-89.94 693.09,-79.86"/>
<polygon fill="midnightblue" stroke="midnightblue" points="694.67,-82.99 702.18,-75.52 691.65,-76.67 694.67,-82.99"/>
</g>
<!-- Node17&#45;&gt;Node15 -->
<g id="edge18" class="edge">
<title>Node17&#45;&gt;Node15</title>
<path fill="none" stroke="midnightblue" d="M561.05,-56.08C556.9,-48.61 550.85,-37.72 545.73,-28.52"/>
<polygon fill="midnightblue" stroke="midnightblue" points="548.78,-26.79 540.86,-19.75 542.66,-30.19 548.78,-26.79"/>
</g>
</g>
</svg>
