<?xml version="1.0" encoding="UTF-8" standalone="no"?>
<!DOCTYPE svg PUBLIC "-//W3C//DTD SVG 1.1//EN"
 "http://www.w3.org/Graphics/SVG/1.1/DTD/svg11.dtd">
<!-- Generated by graphviz version 2.43.0 (0)
 -->
<!-- Title: PK_PWMConfigurationGet Pages: 1 -->
<svg width="545pt" height="142pt"
 viewBox="0.00 0.00 545.00 142.00" xmlns="http://www.w3.org/2000/svg" xmlns:xlink="http://www.w3.org/1999/xlink">
<g id="graph0" class="graph" transform="scale(1 1) rotate(0) translate(4 138)">
<title>PK_PWMConfigurationGet</title>
<polygon fill="white" stroke="transparent" points="-4,4 -4,-138 541,-138 541,4 -4,4"/>
<!-- Node1 -->
<g id="node1" class="node">
<title>Node1</title>
<g id="a_node1"><a xlink:title=" ">
<polygon fill="#bfbfbf" stroke="black" points="0,-76.5 0,-95.5 142,-95.5 142,-76.5 0,-76.5"/>
<text text-anchor="middle" x="71" y="-83.5" font-family="Helvetica,sans-Serif" font-size="10.00">PK_PWMConfigurationGet</text>
</a>
</g>
</g>
<!-- Node2 -->
<g id="node2" class="node">
<title>Node2</title>
<g id="a_node2"><a xlink:href="pokeyslib_2PoKeysLibCore_8c.html#acb1fdd8f77277dc66c4d037218bfcece" target="_top" xlink:title=" ">
<polygon fill="white" stroke="black" points="178,-95.5 178,-114.5 267,-114.5 267,-95.5 178,-95.5"/>
<text text-anchor="middle" x="222.5" y="-102.5" font-family="Helvetica,sans-Serif" font-size="10.00">CreateRequest</text>
</a>
</g>
</g>
<!-- Node1&#45;&gt;Node2 -->
<g id="edge1" class="edge">
<title>Node1&#45;&gt;Node2</title>
<path fill="none" stroke="midnightblue" d="M142.37,-94.94C150.89,-96.03 159.49,-97.12 167.72,-98.16"/>
<polygon fill="midnightblue" stroke="midnightblue" points="167.55,-101.67 177.91,-99.46 168.43,-94.73 167.55,-101.67"/>
</g>
<!-- Node3 -->
<g id="node3" class="node">
<title>Node3</title>
<g id="a_node3"><a xlink:href="pokeyslib_2PoKeysLibCore_8c.html#ab5d92aa36d0a4a6953a055f5cd960aff" target="_top" xlink:title=" ">
<polygon fill="white" stroke="black" points="182.5,-57.5 182.5,-76.5 262.5,-76.5 262.5,-57.5 182.5,-57.5"/>
<text text-anchor="middle" x="222.5" y="-64.5" font-family="Helvetica,sans-Serif" font-size="10.00">SendRequest</text>
</a>
</g>
</g>
<!-- Node1&#45;&gt;Node3 -->
<g id="edge2" class="edge">
<title>Node1&#45;&gt;Node3</title>
<path fill="none" stroke="midnightblue" d="M142.37,-77.06C152.49,-75.77 162.72,-74.47 172.32,-73.25"/>
<polygon fill="midnightblue" stroke="midnightblue" points="172.96,-76.7 182.44,-71.96 172.08,-69.75 172.96,-76.7"/>
</g>
<!-- Node4 -->
<g id="node4" class="node">
<title>Node4</title>
<g id="a_node4"><a xlink:href="pokeyslib_2PoKeysLibCore_8c.html#a273b6d635dea8f559b915cdb289d021e" target="_top" xlink:title=" ">
<polygon fill="white" stroke="black" points="444.5,-38.5 444.5,-57.5 527.5,-57.5 527.5,-38.5 444.5,-38.5"/>
<text text-anchor="middle" x="486" y="-45.5" font-family="Helvetica,sans-Serif" font-size="10.00">getChecksum</text>
</a>
</g>
</g>
<!-- Node3&#45;&gt;Node4 -->
<g id="edge3" class="edge">
<title>Node3&#45;&gt;Node4</title>
<path fill="none" stroke="midnightblue" d="M262.67,-69.42C298.32,-71.06 352.36,-72.09 399,-67 412.57,-65.52 427.13,-62.76 440.34,-59.8"/>
<polygon fill="midnightblue" stroke="midnightblue" points="441.2,-63.19 450.14,-57.51 439.61,-56.37 441.2,-63.19"/>
</g>
<!-- Node5 -->
<g id="node5" class="node">
<title>Node5</title>
<g id="a_node5"><a xlink:href="group__API.html#ga6b820f3e72097cf7f994e33715dc7af1" target="_top" xlink:title="Read an Input report from a HID device.">
<polygon fill="white" stroke="black" points="321.5,-114.5 321.5,-133.5 380.5,-133.5 380.5,-114.5 321.5,-114.5"/>
<text text-anchor="middle" x="351" y="-121.5" font-family="Helvetica,sans-Serif" font-size="10.00">hid_read</text>
</a>
</g>
</g>
<!-- Node3&#45;&gt;Node5 -->
<g id="edge4" class="edge">
<title>Node3&#45;&gt;Node5</title>
<path fill="none" stroke="midnightblue" d="M245.66,-76.59C252.51,-79.58 260.08,-82.9 267,-86 284.61,-93.88 304.24,-102.86 319.99,-110.11"/>
<polygon fill="midnightblue" stroke="midnightblue" points="318.69,-113.36 329.24,-114.37 321.62,-107.01 318.69,-113.36"/>
</g>
<!-- Node7 -->
<g id="node7" class="node">
<title>Node7</title>
<g id="a_node7"><a xlink:href="group__API.html#gad14ea48e440cf5066df87cc6488493af" target="_top" xlink:title="Write an Output report to a HID device.">
<polygon fill="white" stroke="black" points="320,-38.5 320,-57.5 382,-57.5 382,-38.5 320,-38.5"/>
<text text-anchor="middle" x="351" y="-45.5" font-family="Helvetica,sans-Serif" font-size="10.00">hid_write</text>
</a>
</g>
</g>
<!-- Node3&#45;&gt;Node7 -->
<g id="edge6" class="edge">
<title>Node3&#45;&gt;Node7</title>
<path fill="none" stroke="midnightblue" d="M262.83,-61.09C277.8,-58.84 294.86,-56.28 309.9,-54.02"/>
<polygon fill="midnightblue" stroke="midnightblue" points="310.57,-57.46 319.94,-52.52 309.53,-50.54 310.57,-57.46"/>
</g>
<!-- Node8 -->
<g id="node8" class="node">
<title>Node8</title>
<g id="a_node8"><a xlink:href="pokeyslib_2PoKeysLibCoreSockets_8c.html#a22759fb4024c9081af26ac1bc6541b47" target="_top" xlink:title=" ">
<polygon fill="white" stroke="black" points="303,-0.5 303,-19.5 399,-19.5 399,-0.5 303,-0.5"/>
<text text-anchor="middle" x="351" y="-7.5" font-family="Helvetica,sans-Serif" font-size="10.00">SendEthRequest</text>
</a>
</g>
</g>
<!-- Node3&#45;&gt;Node8 -->
<g id="edge7" class="edge">
<title>Node3&#45;&gt;Node8</title>
<path fill="none" stroke="midnightblue" d="M242.62,-57.45C258.63,-49.56 282.14,-38.19 303,-29 307.19,-27.15 311.62,-25.27 316.02,-23.45"/>
<polygon fill="midnightblue" stroke="midnightblue" points="317.55,-26.6 325.49,-19.58 314.91,-20.12 317.55,-26.6"/>
</g>
<!-- Node6 -->
<g id="node6" class="node">
<title>Node6</title>
<g id="a_node6"><a xlink:href="group__API.html#gaa5c9ed5aa290688ffac03343989ad75a" target="_top" xlink:title="Read an Input report from a HID device with timeout.">
<polygon fill="white" stroke="black" points="435,-114.5 435,-133.5 537,-133.5 537,-114.5 435,-114.5"/>
<text text-anchor="middle" x="486" y="-121.5" font-family="Helvetica,sans-Serif" font-size="10.00">hid_read_timeout</text>
</a>
</g>
</g>
<!-- Node5&#45;&gt;Node6 -->
<g id="edge5" class="edge">
<title>Node5&#45;&gt;Node6</title>
<path fill="none" stroke="midnightblue" d="M380.53,-124C393.49,-124 409.35,-124 424.75,-124"/>
<polygon fill="midnightblue" stroke="midnightblue" points="424.77,-127.5 434.77,-124 424.77,-120.5 424.77,-127.5"/>
</g>
<!-- Node8&#45;&gt;Node4 -->
<g id="edge8" class="edge">
<title>Node8&#45;&gt;Node4</title>
<path fill="none" stroke="midnightblue" d="M385.56,-19.59C402.57,-24.45 423.43,-30.41 441.64,-35.61"/>
<polygon fill="midnightblue" stroke="midnightblue" points="440.87,-39.03 451.45,-38.41 442.8,-32.3 440.87,-39.03"/>
</g>
</g>
</svg>
