<?xml version="1.0" encoding="UTF-8" standalone="no"?>
<!DOCTYPE svg PUBLIC "-//W3C//DTD SVG 1.1//EN"
 "http://www.w3.org/Graphics/SVG/1.1/DTD/svg11.dtd">
<!-- Generated by graphviz version 2.43.0 (0)
 -->
<!-- Title: PK57i_DisconnectAsync Pages: 1 -->
<svg width="639pt" height="104pt"
 viewBox="0.00 0.00 639.00 104.00" xmlns="http://www.w3.org/2000/svg" xmlns:xlink="http://www.w3.org/1999/xlink">
<g id="graph0" class="graph" transform="scale(1 1) rotate(0) translate(4 100)">
<title>PK57i_DisconnectAsync</title>
<polygon fill="white" stroke="transparent" points="-4,4 -4,-100 635,-100 635,4 -4,4"/>
<!-- Node1 -->
<g id="node1" class="node">
<title>Node1</title>
<g id="a_node1"><a xlink:title=" ">
<polygon fill="#bfbfbf" stroke="black" points="0,-38.5 0,-57.5 133,-57.5 133,-38.5 0,-38.5"/>
<text text-anchor="middle" x="66.5" y="-45.5" font-family="Helvetica,sans-Serif" font-size="10.00">PK57i_DisconnectAsync</text>
</a>
</g>
</g>
<!-- Node2 -->
<g id="node2" class="node">
<title>Node2</title>
<g id="a_node2"><a xlink:href="pokeyslib_2PoKeysLibDevicePoKeys57Industrial_8c.html#aeae32e45da950a9c6ee709728dc102a6" target="_top" xlink:title=" ">
<polygon fill="white" stroke="black" points="169,-38.5 169,-57.5 273,-57.5 273,-38.5 169,-38.5"/>
<text text-anchor="middle" x="221" y="-45.5" font-family="Helvetica,sans-Serif" font-size="10.00">PK57i_Disconnect</text>
</a>
</g>
</g>
<!-- Node1&#45;&gt;Node2 -->
<g id="edge1" class="edge">
<title>Node1&#45;&gt;Node2</title>
<path fill="none" stroke="midnightblue" d="M133.06,-48C141.55,-48 150.23,-48 158.65,-48"/>
<polygon fill="midnightblue" stroke="midnightblue" points="158.77,-51.5 168.77,-48 158.77,-44.5 158.77,-51.5"/>
</g>
<!-- Node3 -->
<g id="node3" class="node">
<title>Node3</title>
<g id="a_node3"><a xlink:href="PoKeysLibCoreAsync_8c.html#a5048159684edb84a2da9f20e358507fc" target="_top" xlink:title=" ">
<polygon fill="white" stroke="black" points="309,-38.5 309,-57.5 431,-57.5 431,-38.5 309,-38.5"/>
<text text-anchor="middle" x="370" y="-45.5" font-family="Helvetica,sans-Serif" font-size="10.00">PK_DisconnectDevice</text>
</a>
</g>
</g>
<!-- Node2&#45;&gt;Node3 -->
<g id="edge2" class="edge">
<title>Node2&#45;&gt;Node3</title>
<path fill="none" stroke="midnightblue" d="M273,-48C281.35,-48 290.12,-48 298.83,-48"/>
<polygon fill="midnightblue" stroke="midnightblue" points="298.99,-51.5 308.99,-48 298.99,-44.5 298.99,-51.5"/>
</g>
<!-- Node4 -->
<g id="node4" class="node">
<title>Node4</title>
<g id="a_node4"><a xlink:href="pokeyslib_2PoKeysLibCore_8c.html#a8ddc84176ab5e728aeef3077e4c04721" target="_top" xlink:title=" ">
<polygon fill="white" stroke="black" points="510,-76.5 510,-95.5 588,-95.5 588,-76.5 510,-76.5"/>
<text text-anchor="middle" x="549" y="-83.5" font-family="Helvetica,sans-Serif" font-size="10.00">CleanDevice</text>
</a>
</g>
</g>
<!-- Node3&#45;&gt;Node4 -->
<g id="edge3" class="edge">
<title>Node3&#45;&gt;Node4</title>
<path fill="none" stroke="midnightblue" d="M415.66,-57.59C441.34,-63.1 473.6,-70.03 499.85,-75.66"/>
<polygon fill="midnightblue" stroke="midnightblue" points="499.44,-79.15 509.95,-77.83 500.91,-72.31 499.44,-79.15"/>
</g>
<!-- Node5 -->
<g id="node5" class="node">
<title>Node5</title>
<g id="a_node5"><a xlink:href="group__API.html#ga9b64828273b8dd052731e79ba9e1a516" target="_top" xlink:title="Close a HID device.">
<polygon fill="white" stroke="black" points="518,-38.5 518,-57.5 580,-57.5 580,-38.5 518,-38.5"/>
<text text-anchor="middle" x="549" y="-45.5" font-family="Helvetica,sans-Serif" font-size="10.00">hid_close</text>
</a>
</g>
</g>
<!-- Node3&#45;&gt;Node5 -->
<g id="edge4" class="edge">
<title>Node3&#45;&gt;Node5</title>
<path fill="none" stroke="midnightblue" d="M431.42,-48C456.49,-48 484.92,-48 507.42,-48"/>
<polygon fill="midnightblue" stroke="midnightblue" points="507.63,-51.5 517.63,-48 507.63,-44.5 507.63,-51.5"/>
</g>
<!-- Node6 -->
<g id="node6" class="node">
<title>Node6</title>
<g id="a_node6"><a xlink:href="pokeysHal_2PoKeysLibCoreSockets_8c.html#a99687fe089d02ed7dc65edcd486a0640" target="_top" xlink:title=" ">
<polygon fill="white" stroke="black" points="467,-0.5 467,-19.5 631,-19.5 631,-0.5 467,-0.5"/>
<text text-anchor="middle" x="549" y="-7.5" font-family="Helvetica,sans-Serif" font-size="10.00">PK_DisconnectNetworkDevice</text>
</a>
</g>
</g>
<!-- Node3&#45;&gt;Node6 -->
<g id="edge5" class="edge">
<title>Node3&#45;&gt;Node6</title>
<path fill="none" stroke="midnightblue" d="M415.66,-38.41C439.34,-33.33 468.61,-27.04 493.6,-21.68"/>
<polygon fill="midnightblue" stroke="midnightblue" points="494.61,-25.04 503.66,-19.52 493.14,-18.2 494.61,-25.04"/>
</g>
</g>
</svg>
