<?xml version="1.0" encoding="UTF-8" standalone="no"?>
<!DOCTYPE svg PUBLIC "-//W3C//DTD SVG 1.1//EN"
 "http://www.w3.org/Graphics/SVG/1.1/DTD/svg11.dtd">
<!-- Generated by graphviz version 2.43.0 (0)
 -->
<!-- Title: PK_FailsafeSettingsSetAsync Pages: 1 -->
<svg width="656pt" height="180pt"
 viewBox="0.00 0.00 656.00 180.00" xmlns="http://www.w3.org/2000/svg" xmlns:xlink="http://www.w3.org/1999/xlink">
<g id="graph0" class="graph" transform="scale(1 1) rotate(0) translate(4 176)">
<title>PK_FailsafeSettingsSetAsync</title>
<polygon fill="white" stroke="transparent" points="-4,4 -4,-176 652,-176 652,4 -4,4"/>
<!-- Node1 -->
<g id="node1" class="node">
<title>Node1</title>
<g id="a_node1"><a xlink:title=" ">
<polygon fill="#bfbfbf" stroke="black" points="0,-76.5 0,-95.5 157,-95.5 157,-76.5 0,-76.5"/>
<text text-anchor="middle" x="78.5" y="-83.5" font-family="Helvetica,sans-Serif" font-size="10.00">PK_FailsafeSettingsSetAsync</text>
</a>
</g>
</g>
<!-- Node2 -->
<g id="node2" class="node">
<title>Node2</title>
<g id="a_node2"><a xlink:href="PoKeysLibAsync_8c.html#ad3d8835baba234e6767172b8574629e5" target="_top" xlink:title="Prepares an asynchronous PoKeys request with optional payload data after header.">
<polygon fill="white" stroke="black" points="193,-114.5 193,-133.5 372,-133.5 372,-114.5 193,-114.5"/>
<text text-anchor="middle" x="282.5" y="-121.5" font-family="Helvetica,sans-Serif" font-size="10.00">CreateRequestAsyncWithPayload</text>
</a>
</g>
</g>
<!-- Node1&#45;&gt;Node2 -->
<g id="edge1" class="edge">
<title>Node1&#45;&gt;Node2</title>
<path fill="none" stroke="midnightblue" d="M130.21,-95.54C157.71,-100.71 191.88,-107.14 220.78,-112.58"/>
<polygon fill="midnightblue" stroke="midnightblue" points="220.29,-116.05 230.77,-114.46 221.59,-109.17 220.29,-116.05"/>
</g>
<!-- Node5 -->
<g id="node5" class="node">
<title>Node5</title>
<g id="a_node5"><a xlink:href="PoKeysLibAsync_8c.html#a77fe6d8f453b9f120276324e0b2ad076" target="_top" xlink:title="Sends an asynchronous request that was prepared earlier.">
<polygon fill="white" stroke="black" points="227.5,-57.5 227.5,-76.5 337.5,-76.5 337.5,-57.5 227.5,-57.5"/>
<text text-anchor="middle" x="282.5" y="-64.5" font-family="Helvetica,sans-Serif" font-size="10.00">SendRequestAsync</text>
</a>
</g>
</g>
<!-- Node1&#45;&gt;Node5 -->
<g id="edge4" class="edge">
<title>Node1&#45;&gt;Node5</title>
<path fill="none" stroke="midnightblue" d="M157.02,-78.71C176.92,-76.84 198.11,-74.84 217.25,-73.04"/>
<polygon fill="midnightblue" stroke="midnightblue" points="217.73,-76.51 227.36,-72.09 217.08,-69.54 217.73,-76.51"/>
</g>
<!-- Node3 -->
<g id="node3" class="node">
<title>Node3</title>
<g id="a_node3"><a xlink:href="PoKeysLibAsync_8c.html#a8e57ea5df5b229f5a1317bf4e4918c1b" target="_top" xlink:title=" ">
<polygon fill="white" stroke="black" points="418.5,-152.5 418.5,-171.5 513.5,-171.5 513.5,-152.5 418.5,-152.5"/>
<text text-anchor="middle" x="466" y="-159.5" font-family="Helvetica,sans-Serif" font-size="10.00">next_request_id</text>
</a>
</g>
</g>
<!-- Node2&#45;&gt;Node3 -->
<g id="edge2" class="edge">
<title>Node2&#45;&gt;Node3</title>
<path fill="none" stroke="midnightblue" d="M329.3,-133.59C353.68,-138.69 383.86,-145.01 409.56,-150.39"/>
<polygon fill="midnightblue" stroke="midnightblue" points="409.02,-153.86 419.53,-152.48 410.46,-147 409.02,-153.86"/>
</g>
<!-- Node4 -->
<g id="node4" class="node">
<title>Node4</title>
<g id="a_node4"><a xlink:href="PoKeysLibAsync_8c.html#a0daf7f6eb658a60879d46369307db3f0" target="_top" xlink:title="Allocates a new free transaction.">
<polygon fill="white" stroke="black" points="416,-114.5 416,-133.5 516,-133.5 516,-114.5 416,-114.5"/>
<text text-anchor="middle" x="466" y="-121.5" font-family="Helvetica,sans-Serif" font-size="10.00">transaction_alloc</text>
</a>
</g>
</g>
<!-- Node2&#45;&gt;Node4 -->
<g id="edge3" class="edge">
<title>Node2&#45;&gt;Node4</title>
<path fill="none" stroke="midnightblue" d="M372.12,-124C383.44,-124 394.81,-124 405.51,-124"/>
<polygon fill="midnightblue" stroke="midnightblue" points="405.55,-127.5 415.55,-124 405.55,-120.5 405.55,-127.5"/>
</g>
<!-- Node6 -->
<g id="node6" class="node">
<title>Node6</title>
<g id="a_node6"><a xlink:href="PoKeysLibAsync_8c.html#a2d192ebf6b1b209c93b2158460c24aa2" target="_top" xlink:title=" ">
<polygon fill="white" stroke="black" points="408,-76.5 408,-95.5 524,-95.5 524,-76.5 408,-76.5"/>
<text text-anchor="middle" x="466" y="-83.5" font-family="Helvetica,sans-Serif" font-size="10.00">get_current_time_us</text>
</a>
</g>
</g>
<!-- Node5&#45;&gt;Node6 -->
<g id="edge5" class="edge">
<title>Node5&#45;&gt;Node6</title>
<path fill="none" stroke="midnightblue" d="M337.96,-72.7C356.72,-74.66 377.96,-76.89 397.63,-78.95"/>
<polygon fill="midnightblue" stroke="midnightblue" points="397.44,-82.45 407.75,-80.01 398.16,-75.48 397.44,-82.45"/>
</g>
<!-- Node8 -->
<g id="node8" class="node">
<title>Node8</title>
<g id="a_node8"><a xlink:href="rtapi_8h.html#a2432d36976ec87e60c9c92d3c0067182" target="_top" xlink:title=" ">
<polygon fill="white" stroke="black" points="419.5,-38.5 419.5,-57.5 512.5,-57.5 512.5,-38.5 419.5,-38.5"/>
<text text-anchor="middle" x="466" y="-45.5" font-family="Helvetica,sans-Serif" font-size="10.00">rtapi_print_msg</text>
</a>
</g>
</g>
<!-- Node5&#45;&gt;Node8 -->
<g id="edge7" class="edge">
<title>Node5&#45;&gt;Node8</title>
<path fill="none" stroke="midnightblue" d="M337.96,-61.3C360.5,-58.94 386.63,-56.2 409.3,-53.83"/>
<polygon fill="midnightblue" stroke="midnightblue" points="409.87,-57.29 419.45,-52.77 409.14,-50.33 409.87,-57.29"/>
</g>
<!-- Node9 -->
<g id="node9" class="node">
<title>Node9</title>
<g id="a_node9"><a xlink:href="PoKeysLibAsync_8c.html#a47e60ec1f2ceb9c913f4b3fdd448595b" target="_top" xlink:title="Finds an open transaction by its Request ID.">
<polygon fill="white" stroke="black" points="418.5,-0.5 418.5,-19.5 513.5,-19.5 513.5,-0.5 418.5,-0.5"/>
<text text-anchor="middle" x="466" y="-7.5" font-family="Helvetica,sans-Serif" font-size="10.00">transaction_find</text>
</a>
</g>
</g>
<!-- Node5&#45;&gt;Node9 -->
<g id="edge8" class="edge">
<title>Node5&#45;&gt;Node9</title>
<path fill="none" stroke="midnightblue" d="M313.88,-57.46C344.24,-47.92 391.11,-33.21 424.59,-22.69"/>
<polygon fill="midnightblue" stroke="midnightblue" points="426.03,-25.91 434.52,-19.57 423.93,-19.23 426.03,-25.91"/>
</g>
<!-- Node7 -->
<g id="node7" class="node">
<title>Node7</title>
<g id="a_node7"><a xlink:href="rtapi_8h.html#a935411bb5eff04e82620819db6645685" target="_top" xlink:title=" ">
<polygon fill="white" stroke="black" points="560,-76.5 560,-95.5 648,-95.5 648,-76.5 560,-76.5"/>
<text text-anchor="middle" x="604" y="-83.5" font-family="Helvetica,sans-Serif" font-size="10.00">rtapi_get_time</text>
</a>
</g>
</g>
<!-- Node6&#45;&gt;Node7 -->
<g id="edge6" class="edge">
<title>Node6&#45;&gt;Node7</title>
<path fill="none" stroke="midnightblue" d="M524.28,-86C532.75,-86 541.44,-86 549.81,-86"/>
<polygon fill="midnightblue" stroke="midnightblue" points="549.84,-89.5 559.84,-86 549.84,-82.5 549.84,-89.5"/>
</g>
</g>
</svg>
