<?xml version="1.0" encoding="UTF-8" standalone="no"?>
<!DOCTYPE svg PUBLIC "-//W3C//DTD SVG 1.1//EN"
 "http://www.w3.org/Graphics/SVG/1.1/DTD/svg11.dtd">
<!-- Generated by graphviz version 2.43.0 (0)
 -->
<!-- Title: PK_CustomRequest Pages: 1 -->
<svg width="506pt" height="142pt"
 viewBox="0.00 0.00 506.00 142.00" xmlns="http://www.w3.org/2000/svg" xmlns:xlink="http://www.w3.org/1999/xlink">
<g id="graph0" class="graph" transform="scale(1 1) rotate(0) translate(4 138)">
<title>PK_CustomRequest</title>
<polygon fill="white" stroke="transparent" points="-4,4 -4,-138 502,-138 502,4 -4,4"/>
<!-- Node1 -->
<g id="node1" class="node">
<title>Node1</title>
<g id="a_node1"><a xlink:title="Send an arbitrary request to the connected device.">
<polygon fill="#bfbfbf" stroke="black" points="0,-57.5 0,-76.5 112,-76.5 112,-57.5 0,-57.5"/>
<text text-anchor="middle" x="56" y="-64.5" font-family="Helvetica,sans-Serif" font-size="10.00">PK_CustomRequest</text>
</a>
</g>
</g>
<!-- Node2 -->
<g id="node2" class="node">
<title>Node2</title>
<g id="a_node2"><a xlink:href="PoKeysLibCoreAsync_8c.html#ab5d92aa36d0a4a6953a055f5cd960aff" target="_top" xlink:title="Send a request and wait for a response (async context).">
<polygon fill="white" stroke="black" points="148,-57.5 148,-76.5 228,-76.5 228,-57.5 148,-57.5"/>
<text text-anchor="middle" x="188" y="-64.5" font-family="Helvetica,sans-Serif" font-size="10.00">SendRequest</text>
</a>
</g>
</g>
<!-- Node1&#45;&gt;Node2 -->
<g id="edge1" class="edge">
<title>Node1&#45;&gt;Node2</title>
<path fill="none" stroke="midnightblue" d="M112.13,-67C120.69,-67 129.49,-67 137.9,-67"/>
<polygon fill="midnightblue" stroke="midnightblue" points="137.94,-70.5 147.94,-67 137.94,-63.5 137.94,-70.5"/>
</g>
<!-- Node3 -->
<g id="node3" class="node">
<title>Node3</title>
<g id="a_node3"><a xlink:href="PoKeysLibCoreAsync_8c.html#a273b6d635dea8f559b915cdb289d021e" target="_top" xlink:title=" ">
<polygon fill="white" stroke="black" points="270.5,-114.5 270.5,-133.5 353.5,-133.5 353.5,-114.5 270.5,-114.5"/>
<text text-anchor="middle" x="312" y="-121.5" font-family="Helvetica,sans-Serif" font-size="10.00">getChecksum</text>
</a>
</g>
</g>
<!-- Node2&#45;&gt;Node3 -->
<g id="edge2" class="edge">
<title>Node2&#45;&gt;Node3</title>
<path fill="none" stroke="midnightblue" d="M206.98,-76.65C222.04,-84.6 244.2,-96 264,-105 268.08,-106.85 272.39,-108.72 276.68,-110.52"/>
<polygon fill="midnightblue" stroke="midnightblue" points="275.37,-113.77 285.95,-114.33 278.03,-107.29 275.37,-113.77"/>
</g>
<!-- Node4 -->
<g id="node4" class="node">
<title>Node4</title>
<g id="a_node4"><a xlink:href="group__API.html#ga6b820f3e72097cf7f994e33715dc7af1" target="_top" xlink:title="Read an Input report from a HID device.">
<polygon fill="white" stroke="black" points="282.5,-76.5 282.5,-95.5 341.5,-95.5 341.5,-76.5 282.5,-76.5"/>
<text text-anchor="middle" x="312" y="-83.5" font-family="Helvetica,sans-Serif" font-size="10.00">hid_read</text>
</a>
</g>
</g>
<!-- Node2&#45;&gt;Node4 -->
<g id="edge3" class="edge">
<title>Node2&#45;&gt;Node4</title>
<path fill="none" stroke="midnightblue" d="M228.27,-73.12C242.26,-75.29 258,-77.75 271.97,-79.92"/>
<polygon fill="midnightblue" stroke="midnightblue" points="271.83,-83.44 282.25,-81.52 272.9,-76.52 271.83,-83.44"/>
</g>
<!-- Node6 -->
<g id="node6" class="node">
<title>Node6</title>
<g id="a_node6"><a xlink:href="group__API.html#gad14ea48e440cf5066df87cc6488493af" target="_top" xlink:title="Write an Output report to a HID device.">
<polygon fill="white" stroke="black" points="281,-38.5 281,-57.5 343,-57.5 343,-38.5 281,-38.5"/>
<text text-anchor="middle" x="312" y="-45.5" font-family="Helvetica,sans-Serif" font-size="10.00">hid_write</text>
</a>
</g>
</g>
<!-- Node2&#45;&gt;Node6 -->
<g id="edge5" class="edge">
<title>Node2&#45;&gt;Node6</title>
<path fill="none" stroke="midnightblue" d="M228.27,-60.88C241.82,-58.77 257,-56.41 270.63,-54.29"/>
<polygon fill="midnightblue" stroke="midnightblue" points="271.36,-57.72 280.7,-52.72 270.28,-50.8 271.36,-57.72"/>
</g>
<!-- Node7 -->
<g id="node7" class="node">
<title>Node7</title>
<g id="a_node7"><a xlink:href="pokeyslib_2PoKeysLibCoreSockets_8c.html#a22759fb4024c9081af26ac1bc6541b47" target="_top" xlink:title=" ">
<polygon fill="white" stroke="black" points="264,-0.5 264,-19.5 360,-19.5 360,-0.5 264,-0.5"/>
<text text-anchor="middle" x="312" y="-7.5" font-family="Helvetica,sans-Serif" font-size="10.00">SendEthRequest</text>
</a>
</g>
</g>
<!-- Node2&#45;&gt;Node7 -->
<g id="edge6" class="edge">
<title>Node2&#45;&gt;Node7</title>
<path fill="none" stroke="midnightblue" d="M206.98,-57.35C222.04,-49.4 244.2,-38 264,-29 268.08,-27.15 272.39,-25.28 276.68,-23.48"/>
<polygon fill="midnightblue" stroke="midnightblue" points="278.03,-26.71 285.95,-19.67 275.37,-20.23 278.03,-26.71"/>
</g>
<!-- Node5 -->
<g id="node5" class="node">
<title>Node5</title>
<g id="a_node5"><a xlink:href="group__API.html#gaa5c9ed5aa290688ffac03343989ad75a" target="_top" xlink:title="Read an Input report from a HID device with timeout.">
<polygon fill="white" stroke="black" points="396,-76.5 396,-95.5 498,-95.5 498,-76.5 396,-76.5"/>
<text text-anchor="middle" x="447" y="-83.5" font-family="Helvetica,sans-Serif" font-size="10.00">hid_read_timeout</text>
</a>
</g>
</g>
<!-- Node4&#45;&gt;Node5 -->
<g id="edge4" class="edge">
<title>Node4&#45;&gt;Node5</title>
<path fill="none" stroke="midnightblue" d="M341.53,-86C354.49,-86 370.35,-86 385.75,-86"/>
<polygon fill="midnightblue" stroke="midnightblue" points="385.77,-89.5 395.77,-86 385.77,-82.5 385.77,-89.5"/>
</g>
<!-- Node8 -->
<g id="node8" class="node">
<title>Node8</title>
<g id="a_node8"><a xlink:href="pokeyslib_2PoKeysLibCore_8c.html#a273b6d635dea8f559b915cdb289d021e" target="_top" xlink:title=" ">
<polygon fill="white" stroke="black" points="405.5,-0.5 405.5,-19.5 488.5,-19.5 488.5,-0.5 405.5,-0.5"/>
<text text-anchor="middle" x="447" y="-7.5" font-family="Helvetica,sans-Serif" font-size="10.00">getChecksum</text>
</a>
</g>
</g>
<!-- Node7&#45;&gt;Node8 -->
<g id="edge7" class="edge">
<title>Node7&#45;&gt;Node8</title>
<path fill="none" stroke="midnightblue" d="M360.27,-10C371.58,-10 383.72,-10 395.19,-10"/>
<polygon fill="midnightblue" stroke="midnightblue" points="395.49,-13.5 405.49,-10 395.49,-6.5 395.49,-13.5"/>
</g>
</g>
</svg>
