<?xml version="1.0" encoding="UTF-8" standalone="no"?>
<!DOCTYPE svg PUBLIC "-//W3C//DTD SVG 1.1//EN"
 "http://www.w3.org/Graphics/SVG/1.1/DTD/svg11.dtd">
<!-- Generated by graphviz version 2.43.0 (0)
 -->
<!-- Title: PK_SPIReadAsync Pages: 1 -->
<!--zoomable 180 -->
<svg id="main" version="1.1" xmlns="http://www.w3.org/2000/svg" xmlns:xlink="http://www.w3.org/1999/xlink" xml:space="preserve" onload="init(evt)">
<style type="text/css"><![CDATA[
.edge:hover path { stroke: red; }
.edge:hover polygon { stroke: red; fill: red; }
]]></style>
<script type="text/javascript"><![CDATA[
var edges = document.getElementsByTagName('g');
if (edges && edges.length) {
  for (var i=0;i<edges.length;i++) {
    if (edges[i].id.substr(0,4)=='edge') {
      edges[i].setAttribute('class','edge');
    }
  }
}
]]></script>
        <defs>
                <circle id="rim" cx="0" cy="0" r="7"/>
                <circle id="rim2" cx="0" cy="0" r="3.5"/>
                <g id="zoomPlus">
                        <use xlink:href="#rim" fill="#404040">
                                <set attributeName="fill" to="#808080" begin="zoomplus.mouseover" end="zoomplus.mouseout"/>
                        </use>
                        <path d="M-4,0h8M0,-4v8" fill="none" stroke="white" stroke-width="1.5" pointer-events="none"/>
                </g>
                <g id="zoomMin">
                        <use xlink:href="#rim" fill="#404040">
                                <set attributeName="fill" to="#808080" begin="zoomminus.mouseover" end="zoomminus.mouseout"/>
                        </use>
                        <path d="M-4,0h8" fill="none" stroke="white" stroke-width="1.5" pointer-events="none"/>
                </g>
                <g id="dirArrow">
                        <path fill="none" stroke="white" stroke-width="1.5" d="M0,-3.0v7 M-2.5,-0.5L0,-3.0L2.5,-0.5"/>
                </g>
               <g id="resetDef">
                       <use xlink:href="#rim2" fill="#404040">
                               <set attributeName="fill" to="#808080" begin="reset.mouseover" end="reset.mouseout"/>
                       </use>
               </g>
        </defs>

<script type="text/javascript">
var viewWidth = 542;
var viewHeight = 180;
var sectionId = 'dynsection-72';
</script>
<script xlink:href="svgpan.js"/>
<svg id="graph" class="graph">
<g id="viewport">
<title>PK_SPIReadAsync</title>
<polygon fill="white" stroke="transparent" points="-4,4 -4,-176 538,-176 538,4 -4,4"/>
<!-- Node1 -->
<g id="node1" class="node">
<title>Node1</title>
<g id="a_node1"><a xlink:title="Read data from SPI bus asynchronously (command 0xE5/0x03).">
<polygon fill="#bfbfbf" stroke="black" points="0,-76.5 0,-95.5 104,-95.5 104,-76.5 0,-76.5"/>
<text text-anchor="middle" x="52" y="-83.5" font-family="Helvetica,sans-Serif" font-size="10.00">PK_SPIReadAsync</text>
</a>
</g>
</g>
<!-- Node2 -->
<g id="node2" class="node">
<title>Node2</title>
<g id="a_node2"><a xlink:href="PoKeysLibAsync_8c.html#a8ed8b17dbfd4e5cfba35c6b1e2ea6956" target="_top" xlink:title="Prepares an asynchronous request (non&#45;sending).">
<polygon fill="white" stroke="black" points="140,-114.5 140,-133.5 258,-133.5 258,-114.5 140,-114.5"/>
<text text-anchor="middle" x="199" y="-121.5" font-family="Helvetica,sans-Serif" font-size="10.00">CreateRequestAsync</text>
</a>
</g>
</g>
<!-- Node1&#45;&gt;Node2 -->
<g id="edge1" class="edge">
<title>Node1&#45;&gt;Node2</title>
<path fill="none" stroke="midnightblue" d="M89.59,-95.59C108.47,-100.54 131.69,-106.62 151.79,-111.89"/>
<polygon fill="midnightblue" stroke="midnightblue" points="151.11,-115.33 161.67,-114.48 152.89,-108.56 151.11,-115.33"/>
</g>
<!-- Node5 -->
<g id="node5" class="node">
<title>Node5</title>
<g id="a_node5"><a xlink:href="PoKeysLibAsync_8c.html#a77fe6d8f453b9f120276324e0b2ad076" target="_top" xlink:title="Sends an asynchronous request that was prepared earlier.">
<polygon fill="white" stroke="black" points="144,-57.5 144,-76.5 254,-76.5 254,-57.5 144,-57.5"/>
<text text-anchor="middle" x="199" y="-64.5" font-family="Helvetica,sans-Serif" font-size="10.00">SendRequestAsync</text>
</a>
</g>
</g>
<!-- Node1&#45;&gt;Node5 -->
<g id="edge4" class="edge">
<title>Node1&#45;&gt;Node5</title>
<path fill="none" stroke="midnightblue" d="M104.12,-79.3C113.68,-78.05 123.79,-76.72 133.69,-75.43"/>
<polygon fill="midnightblue" stroke="midnightblue" points="134.44,-78.86 143.9,-74.09 133.53,-71.92 134.44,-78.86"/>
</g>
<!-- Node3 -->
<g id="node3" class="node">
<title>Node3</title>
<g id="a_node3"><a xlink:href="PoKeysLibAsync_8c.html#a8e57ea5df5b229f5a1317bf4e4918c1b" target="_top" xlink:title=" ">
<polygon fill="white" stroke="black" points="304.5,-152.5 304.5,-171.5 399.5,-171.5 399.5,-152.5 304.5,-152.5"/>
<text text-anchor="middle" x="352" y="-159.5" font-family="Helvetica,sans-Serif" font-size="10.00">next_request_id</text>
</a>
</g>
</g>
<!-- Node2&#45;&gt;Node3 -->
<g id="edge2" class="edge">
<title>Node2&#45;&gt;Node3</title>
<path fill="none" stroke="midnightblue" d="M238.1,-133.59C257.94,-138.58 282.38,-144.73 303.45,-150.03"/>
<polygon fill="midnightblue" stroke="midnightblue" points="302.62,-153.43 313.17,-152.48 304.33,-146.65 302.62,-153.43"/>
</g>
<!-- Node4 -->
<g id="node4" class="node">
<title>Node4</title>
<g id="a_node4"><a xlink:href="PoKeysLibAsync_8c.html#a0daf7f6eb658a60879d46369307db3f0" target="_top" xlink:title="Allocates a new free transaction.">
<polygon fill="white" stroke="black" points="302,-114.5 302,-133.5 402,-133.5 402,-114.5 302,-114.5"/>
<text text-anchor="middle" x="352" y="-121.5" font-family="Helvetica,sans-Serif" font-size="10.00">transaction_alloc</text>
</a>
</g>
</g>
<!-- Node2&#45;&gt;Node4 -->
<g id="edge3" class="edge">
<title>Node2&#45;&gt;Node4</title>
<path fill="none" stroke="midnightblue" d="M258.38,-124C269.2,-124 280.51,-124 291.36,-124"/>
<polygon fill="midnightblue" stroke="midnightblue" points="291.6,-127.5 301.6,-124 291.6,-120.5 291.6,-127.5"/>
</g>
<!-- Node6 -->
<g id="node6" class="node">
<title>Node6</title>
<g id="a_node6"><a xlink:href="PoKeysLibAsync_8c.html#a2d192ebf6b1b209c93b2158460c24aa2" target="_top" xlink:title=" ">
<polygon fill="white" stroke="black" points="294,-76.5 294,-95.5 410,-95.5 410,-76.5 294,-76.5"/>
<text text-anchor="middle" x="352" y="-83.5" font-family="Helvetica,sans-Serif" font-size="10.00">get_current_time_us</text>
</a>
</g>
</g>
<!-- Node5&#45;&gt;Node6 -->
<g id="edge5" class="edge">
<title>Node5&#45;&gt;Node6</title>
<path fill="none" stroke="midnightblue" d="M254.09,-73.81C263.8,-75.03 274.02,-76.31 284.05,-77.58"/>
<polygon fill="midnightblue" stroke="midnightblue" points="283.62,-81.05 293.97,-78.82 284.49,-74.1 283.62,-81.05"/>
</g>
<!-- Node8 -->
<g id="node8" class="node">
<title>Node8</title>
<g id="a_node8"><a xlink:href="rtapi_8h.html#a2432d36976ec87e60c9c92d3c0067182" target="_top" xlink:title=" ">
<polygon fill="white" stroke="black" points="305.5,-38.5 305.5,-57.5 398.5,-57.5 398.5,-38.5 305.5,-38.5"/>
<text text-anchor="middle" x="352" y="-45.5" font-family="Helvetica,sans-Serif" font-size="10.00">rtapi_print_msg</text>
</a>
</g>
</g>
<!-- Node5&#45;&gt;Node8 -->
<g id="edge7" class="edge">
<title>Node5&#45;&gt;Node8</title>
<path fill="none" stroke="midnightblue" d="M254.09,-60.19C267.44,-58.51 281.77,-56.71 295.2,-55.02"/>
<polygon fill="midnightblue" stroke="midnightblue" points="295.78,-58.48 305.26,-53.75 294.91,-51.53 295.78,-58.48"/>
</g>
<!-- Node9 -->
<g id="node9" class="node">
<title>Node9</title>
<g id="a_node9"><a xlink:href="PoKeysLibAsync_8c.html#a47e60ec1f2ceb9c913f4b3fdd448595b" target="_top" xlink:title="Finds an open transaction by its Request ID.">
<polygon fill="white" stroke="black" points="304.5,-0.5 304.5,-19.5 399.5,-19.5 399.5,-0.5 304.5,-0.5"/>
<text text-anchor="middle" x="352" y="-7.5" font-family="Helvetica,sans-Serif" font-size="10.00">transaction_find</text>
</a>
</g>
</g>
<!-- Node5&#45;&gt;Node9 -->
<g id="edge8" class="edge">
<title>Node5&#45;&gt;Node9</title>
<path fill="none" stroke="midnightblue" d="M222.64,-57.39C241.58,-49.45 269.39,-38.07 294,-29 299.64,-26.92 305.64,-24.81 311.53,-22.8"/>
<polygon fill="midnightblue" stroke="midnightblue" points="312.93,-26.02 321.29,-19.51 310.7,-19.39 312.93,-26.02"/>
</g>
<!-- Node7 -->
<g id="node7" class="node">
<title>Node7</title>
<g id="a_node7"><a xlink:href="rtapi_8h.html#a935411bb5eff04e82620819db6645685" target="_top" xlink:title=" ">
<polygon fill="white" stroke="black" points="446,-76.5 446,-95.5 534,-95.5 534,-76.5 446,-76.5"/>
<text text-anchor="middle" x="490" y="-83.5" font-family="Helvetica,sans-Serif" font-size="10.00">rtapi_get_time</text>
</a>
</g>
</g>
<!-- Node6&#45;&gt;Node7 -->
<g id="edge6" class="edge">
<title>Node6&#45;&gt;Node7</title>
<path fill="none" stroke="midnightblue" d="M410.28,-86C418.75,-86 427.44,-86 435.81,-86"/>
<polygon fill="midnightblue" stroke="midnightblue" points="435.84,-89.5 445.84,-86 435.84,-82.5 435.84,-89.5"/>
</g>
</g>
</svg>
        <g id="navigator" transform="translate(0 0)" fill="#404254">
                <rect fill="#f2f5e9" fill-opacity="0.5" stroke="#606060" stroke-width=".5" x="0" y="0" width="60" height="60"/>
                <use id="zoomplus" xlink:href="#zoomPlus" x="17" y="9" onmousedown="handleZoom(evt,'in')"/>
                <use id="zoomminus" xlink:href="#zoomMin" x="42" y="9" onmousedown="handleZoom(evt,'out')"/>
                <use id="reset" xlink:href="#resetDef" x="30" y="36" onmousedown="handleReset()"/>
                <g id="arrowUp" xlink:href="#dirArrow" transform="translate(30 24)" onmousedown="handlePan(0,-1)">
                  <use xlink:href="#rim" fill="#404040">
                        <set attributeName="fill" to="#808080" begin="arrowUp.mouseover" end="arrowUp.mouseout"/>
                  </use>
                  <path fill="none" stroke="white" stroke-width="1.5" d="M0,-3.0v7 M-2.5,-0.5L0,-3.0L2.5,-0.5"/>
                </g>
                <g id="arrowRight" xlink:href="#dirArrow" transform="rotate(90) translate(36 -43)" onmousedown="handlePan(1,0)">
                  <use xlink:href="#rim" fill="#404040">
                        <set attributeName="fill" to="#808080" begin="arrowRight.mouseover" end="arrowRight.mouseout"/>
                  </use>
                  <path fill="none" stroke="white" stroke-width="1.5" d="M0,-3.0v7 M-2.5,-0.5L0,-3.0L2.5,-0.5"/>
                </g>
                <g id="arrowDown" xlink:href="#dirArrow" transform="rotate(180) translate(-30 -48)" onmousedown="handlePan(0,1)">
                  <use xlink:href="#rim" fill="#404040">
                        <set attributeName="fill" to="#808080" begin="arrowDown.mouseover" end="arrowDown.mouseout"/>
                  </use>
                  <path fill="none" stroke="white" stroke-width="1.5" d="M0,-3.0v7 M-2.5,-0.5L0,-3.0L2.5,-0.5"/>
                </g>
                <g id="arrowLeft" xlink:href="#dirArrow" transform="rotate(270) translate(-36 17)" onmousedown="handlePan(-1,0)">
                  <use xlink:href="#rim" fill="#404040">
                        <set attributeName="fill" to="#808080" begin="arrowLeft.mouseover" end="arrowLeft.mouseout"/>
                  </use>
                  <path fill="none" stroke="white" stroke-width="1.5" d="M0,-3.0v7 M-2.5,-0.5L0,-3.0L2.5,-0.5"/>
                </g>
        </g>
        <svg viewBox="0 0 15 15" width="100%" height="30px" preserveAspectRatio="xMaxYMin meet">
         <g id="arrow_out" transform="scale(0.3 0.3)">
          <a xlink:href="PoKeysLibAsync_8h_a22152dce4fc221634e5380dfec846f58_cgraph_org.svg" target="_base">
           <rect id="button" ry="5" rx="5" y="6" x="6" height="38" width="38"
                fill="#f2f5e9" fill-opacity="0.5" stroke="#606060" stroke-width="1.0"/>
           <path id="arrow"
             d="M 11.500037,31.436501 C 11.940474,20.09759 22.043105,11.32322 32.158766,21.979434 L 37.068811,17.246167 C 37.068811,17.246167 37.088388,32 37.088388,32 L 22.160133,31.978069 C 22.160133,31.978069 26.997745,27.140456 26.997745,27.140456 C 18.528582,18.264221 13.291696,25.230495 11.500037,31.436501 z"
             style="fill:#404040;"/>
          </a>
         </g>
        </svg>
</svg>
