<?xml version="1.0" encoding="UTF-8" standalone="no"?>
<!DOCTYPE svg PUBLIC "-//W3C//DTD SVG 1.1//EN"
 "http://www.w3.org/Graphics/SVG/1.1/DTD/svg11.dtd">
<!-- Generated by graphviz version 2.43.0 (0)
 -->
<!-- Title: PK_PinConfigurationGet Pages: 1 -->
<svg width="430pt" height="88pt"
 viewBox="0.00 0.00 430.00 88.00" xmlns="http://www.w3.org/2000/svg" xmlns:xlink="http://www.w3.org/1999/xlink">
<g id="graph0" class="graph" transform="scale(1 1) rotate(0) translate(4 84)">
<title>PK_PinConfigurationGet</title>
<polygon fill="white" stroke="transparent" points="-4,4 -4,-84 426,-84 426,4 -4,4"/>
<!-- Node1 -->
<g id="node1" class="node">
<title>Node1</title>
<g id="a_node1"><a xlink:title=" ">
<polygon fill="#bfbfbf" stroke="black" points="290,-30 290,-49 422,-49 422,-30 290,-30"/>
<text text-anchor="middle" x="356" y="-37" font-family="Helvetica,sans-Serif" font-size="10.00">PK_PinConfigurationGet</text>
</a>
</g>
</g>
<!-- Node2 -->
<g id="node2" class="node">
<title>Node2</title>
<g id="a_node2"><a xlink:href="group__hal__component__pokeys.html#ga96c96a5b1b2aaa10d97aa8426bee3840" target="_top" xlink:title="Initializes the PoKeys digital and analog I/O configuration.">
<polygon fill="white" stroke="black" points="126,-49.5 126,-79.5 254,-79.5 254,-49.5 126,-49.5"/>
<text text-anchor="start" x="134" y="-67.5" font-family="Helvetica,sans-Serif" font-size="10.00">PoKeysHALComponent</text>
<text text-anchor="middle" x="190" y="-56.5" font-family="Helvetica,sans-Serif" font-size="10.00">::PKIO_Setup</text>
</a>
</g>
</g>
<!-- Node1&#45;&gt;Node2 -->
<g id="edge1" class="edge">
<title>Node1&#45;&gt;Node2</title>
<path fill="none" stroke="midnightblue" d="M282.39,-50.57C272.96,-52.01 263.37,-53.47 254.11,-54.88"/>
<polygon fill="midnightblue" stroke="midnightblue" points="283.17,-53.99 292.53,-49.02 282.12,-47.07 283.17,-53.99"/>
</g>
<!-- Node3 -->
<g id="node3" class="node">
<title>Node3</title>
<g id="a_node3"><a xlink:href="group__hal__component__pokeys.html#ga053adc615433218543268696998c7f32" target="_top" xlink:title="Updates PoKeys I/O states from and to hardware.">
<polygon fill="white" stroke="black" points="126,-0.5 126,-30.5 254,-30.5 254,-0.5 126,-0.5"/>
<text text-anchor="start" x="134" y="-18.5" font-family="Helvetica,sans-Serif" font-size="10.00">PoKeysHALComponent</text>
<text text-anchor="middle" x="190" y="-7.5" font-family="Helvetica,sans-Serif" font-size="10.00">::PKIO_Update</text>
</a>
</g>
</g>
<!-- Node1&#45;&gt;Node3 -->
<g id="edge2" class="edge">
<title>Node1&#45;&gt;Node3</title>
<path fill="none" stroke="midnightblue" d="M279.75,-28.49C271.2,-27.24 262.56,-25.97 254.19,-24.75"/>
<polygon fill="midnightblue" stroke="midnightblue" points="279.31,-31.96 289.71,-29.95 280.32,-25.03 279.31,-31.96"/>
</g>
<!-- Node4 -->
<g id="node4" class="node">
<title>Node4</title>
<g id="a_node4"><a xlink:href="pokeys_8c.html#a6e89ee20635570c2e51b81bf26e895cc" target="_top" xlink:title=" ">
<polygon fill="white" stroke="black" points="0,-6 0,-25 90,-25 90,-6 0,-6"/>
<text text-anchor="middle" x="45" y="-13" font-family="Helvetica,sans-Serif" font-size="10.00">pokeys_update</text>
</a>
</g>
</g>
<!-- Node3&#45;&gt;Node4 -->
<g id="edge3" class="edge">
<title>Node3&#45;&gt;Node4</title>
<path fill="none" stroke="midnightblue" d="M115.72,-15.5C107.06,-15.5 98.44,-15.5 90.36,-15.5"/>
<polygon fill="midnightblue" stroke="midnightblue" points="115.86,-19 125.86,-15.5 115.86,-12 115.86,-19"/>
</g>
</g>
</svg>
