<?xml version="1.0" encoding="UTF-8" standalone="no"?>
<!DOCTYPE svg PUBLIC "-//W3C//DTD SVG 1.1//EN"
 "http://www.w3.org/Graphics/SVG/1.1/DTD/svg11.dtd">
<!-- Generated by graphviz version 2.43.0 (0)
 -->
<!-- Title: SendRequest Pages: 1 -->
<svg width="358pt" height="142pt"
 viewBox="0.00 0.00 358.00 142.00" xmlns="http://www.w3.org/2000/svg" xmlns:xlink="http://www.w3.org/1999/xlink">
<g id="graph0" class="graph" transform="scale(1 1) rotate(0) translate(4 138)">
<title>SendRequest</title>
<polygon fill="white" stroke="transparent" points="-4,4 -4,-138 354,-138 354,4 -4,4"/>
<!-- Node1 -->
<g id="node1" class="node">
<title>Node1</title>
<g id="a_node1"><a xlink:title=" ">
<polygon fill="#bfbfbf" stroke="black" points="0,-57.5 0,-76.5 80,-76.5 80,-57.5 0,-57.5"/>
<text text-anchor="middle" x="40" y="-64.5" font-family="Helvetica,sans-Serif" font-size="10.00">SendRequest</text>
</a>
</g>
</g>
<!-- Node2 -->
<g id="node2" class="node">
<title>Node2</title>
<g id="a_node2"><a xlink:href="pokeyslib_2PoKeysLibCore_8c.html#a273b6d635dea8f559b915cdb289d021e" target="_top" xlink:title=" ">
<polygon fill="white" stroke="black" points="257.5,-38.5 257.5,-57.5 340.5,-57.5 340.5,-38.5 257.5,-38.5"/>
<text text-anchor="middle" x="299" y="-45.5" font-family="Helvetica,sans-Serif" font-size="10.00">getChecksum</text>
</a>
</g>
</g>
<!-- Node1&#45;&gt;Node2 -->
<g id="edge1" class="edge">
<title>Node1&#45;&gt;Node2</title>
<path fill="none" stroke="midnightblue" d="M80.18,-69.41C114.93,-70.97 166.99,-71.91 212,-67 225.57,-65.52 240.13,-62.76 253.34,-59.8"/>
<polygon fill="midnightblue" stroke="midnightblue" points="254.2,-63.19 263.14,-57.51 252.61,-56.37 254.2,-63.19"/>
</g>
<!-- Node3 -->
<g id="node3" class="node">
<title>Node3</title>
<g id="a_node3"><a xlink:href="group__API.html#ga6b820f3e72097cf7f994e33715dc7af1" target="_top" xlink:title="Read an Input report from a HID device.">
<polygon fill="white" stroke="black" points="134.5,-114.5 134.5,-133.5 193.5,-133.5 193.5,-114.5 134.5,-114.5"/>
<text text-anchor="middle" x="164" y="-121.5" font-family="Helvetica,sans-Serif" font-size="10.00">hid_read</text>
</a>
</g>
</g>
<!-- Node1&#45;&gt;Node3 -->
<g id="edge2" class="edge">
<title>Node1&#45;&gt;Node3</title>
<path fill="none" stroke="midnightblue" d="M61.42,-76.54C81.04,-85.71 110.9,-99.66 133.18,-110.07"/>
<polygon fill="midnightblue" stroke="midnightblue" points="131.97,-113.37 142.51,-114.43 134.93,-107.02 131.97,-113.37"/>
</g>
<!-- Node5 -->
<g id="node5" class="node">
<title>Node5</title>
<g id="a_node5"><a xlink:href="group__API.html#gad14ea48e440cf5066df87cc6488493af" target="_top" xlink:title="Write an Output report to a HID device.">
<polygon fill="white" stroke="black" points="133,-38.5 133,-57.5 195,-57.5 195,-38.5 133,-38.5"/>
<text text-anchor="middle" x="164" y="-45.5" font-family="Helvetica,sans-Serif" font-size="10.00">hid_write</text>
</a>
</g>
</g>
<!-- Node1&#45;&gt;Node5 -->
<g id="edge4" class="edge">
<title>Node1&#45;&gt;Node5</title>
<path fill="none" stroke="midnightblue" d="M80.27,-60.88C93.82,-58.77 109,-56.41 122.63,-54.29"/>
<polygon fill="midnightblue" stroke="midnightblue" points="123.36,-57.72 132.7,-52.72 122.28,-50.8 123.36,-57.72"/>
</g>
<!-- Node6 -->
<g id="node6" class="node">
<title>Node6</title>
<g id="a_node6"><a xlink:href="pokeyslib_2PoKeysLibCoreSockets_8c.html#a22759fb4024c9081af26ac1bc6541b47" target="_top" xlink:title=" ">
<polygon fill="white" stroke="black" points="116,-0.5 116,-19.5 212,-19.5 212,-0.5 116,-0.5"/>
<text text-anchor="middle" x="164" y="-7.5" font-family="Helvetica,sans-Serif" font-size="10.00">SendEthRequest</text>
</a>
</g>
</g>
<!-- Node1&#45;&gt;Node6 -->
<g id="edge5" class="edge">
<title>Node1&#45;&gt;Node6</title>
<path fill="none" stroke="midnightblue" d="M58.98,-57.35C74.04,-49.4 96.2,-38 116,-29 120.08,-27.15 124.39,-25.28 128.68,-23.48"/>
<polygon fill="midnightblue" stroke="midnightblue" points="130.03,-26.71 137.95,-19.67 127.37,-20.23 130.03,-26.71"/>
</g>
<!-- Node4 -->
<g id="node4" class="node">
<title>Node4</title>
<g id="a_node4"><a xlink:href="group__API.html#gaa5c9ed5aa290688ffac03343989ad75a" target="_top" xlink:title="Read an Input report from a HID device with timeout.">
<polygon fill="white" stroke="black" points="248,-114.5 248,-133.5 350,-133.5 350,-114.5 248,-114.5"/>
<text text-anchor="middle" x="299" y="-121.5" font-family="Helvetica,sans-Serif" font-size="10.00">hid_read_timeout</text>
</a>
</g>
</g>
<!-- Node3&#45;&gt;Node4 -->
<g id="edge3" class="edge">
<title>Node3&#45;&gt;Node4</title>
<path fill="none" stroke="midnightblue" d="M193.53,-124C206.49,-124 222.35,-124 237.75,-124"/>
<polygon fill="midnightblue" stroke="midnightblue" points="237.77,-127.5 247.77,-124 237.77,-120.5 237.77,-127.5"/>
</g>
<!-- Node6&#45;&gt;Node2 -->
<g id="edge6" class="edge">
<title>Node6&#45;&gt;Node2</title>
<path fill="none" stroke="midnightblue" d="M198.56,-19.59C215.57,-24.45 236.43,-30.41 254.64,-35.61"/>
<polygon fill="midnightblue" stroke="midnightblue" points="253.87,-39.03 264.45,-38.41 255.8,-32.3 253.87,-39.03"/>
</g>
</g>
</svg>
