<?xml version="1.0" encoding="UTF-8" standalone="no"?>
<!DOCTYPE svg PUBLIC "-//W3C//DTD SVG 1.1//EN"
 "http://www.w3.org/Graphics/SVG/1.1/DTD/svg11.dtd">
<!-- Generated by graphviz version 2.43.0 (0)
 -->
<!-- Title: getChecksum Pages: 1 -->
<svg width="289pt" height="180pt"
 viewBox="0.00 0.00 289.00 180.00" xmlns="http://www.w3.org/2000/svg" xmlns:xlink="http://www.w3.org/1999/xlink">
<g id="graph0" class="graph" transform="scale(1 1) rotate(0) translate(4 176)">
<title>getChecksum</title>
<polygon fill="white" stroke="transparent" points="-4,4 -4,-176 285,-176 285,4 -4,4"/>
<!-- Node1 -->
<g id="node1" class="node">
<title>Node1</title>
<g id="a_node1"><a xlink:title=" ">
<polygon fill="#bfbfbf" stroke="black" points="198,-76.5 198,-95.5 281,-95.5 281,-76.5 198,-76.5"/>
<text text-anchor="middle" x="239.5" y="-83.5" font-family="Helvetica,sans-Serif" font-size="10.00">getChecksum</text>
</a>
</g>
</g>
<!-- Node2 -->
<g id="node2" class="node">
<title>Node2</title>
<g id="a_node2"><a xlink:href="pokeysHal_2pokeyslib_2PoKeysLibCoreSockets_8c.html#a22759fb4024c9081af26ac1bc6541b47" target="_top" xlink:title=" ">
<polygon fill="white" stroke="black" points="33,-152.5 33,-171.5 129,-171.5 129,-152.5 33,-152.5"/>
<text text-anchor="middle" x="81" y="-159.5" font-family="Helvetica,sans-Serif" font-size="10.00">SendEthRequest</text>
</a>
</g>
</g>
<!-- Node1&#45;&gt;Node2 -->
<g id="edge1" class="edge">
<title>Node1&#45;&gt;Node2</title>
<path fill="none" stroke="midnightblue" d="M220.74,-102.57C206.05,-115.41 184.08,-132.69 162,-143 151.78,-147.77 140.25,-151.41 129.19,-154.15"/>
<polygon fill="midnightblue" stroke="midnightblue" points="223.39,-104.89 228.5,-95.61 218.72,-99.68 223.39,-104.89"/>
</g>
<!-- Node3 -->
<g id="node3" class="node">
<title>Node3</title>
<g id="a_node3"><a xlink:href="pokeysHal_2pokeyslib_2PoKeysLibCoreSockets_8c.html#a4469c22e60b829230559121a144ffb5a" target="_top" xlink:title=" ">
<polygon fill="white" stroke="black" points="0,-114.5 0,-133.5 162,-133.5 162,-114.5 0,-114.5"/>
<text text-anchor="middle" x="81" y="-121.5" font-family="Helvetica,sans-Serif" font-size="10.00">SendEthRequest_NoResponse</text>
</a>
</g>
</g>
<!-- Node1&#45;&gt;Node3 -->
<g id="edge2" class="edge">
<title>Node1&#45;&gt;Node3</title>
<path fill="none" stroke="midnightblue" d="M190.68,-97.96C181.18,-100.31 171.28,-102.75 162,-105 149.24,-108.1 135.32,-111.43 122.72,-114.41"/>
<polygon fill="midnightblue" stroke="midnightblue" points="191.52,-101.35 200.39,-95.55 189.84,-94.56 191.52,-101.35"/>
</g>
<!-- Node4 -->
<g id="node4" class="node">
<title>Node4</title>
<g id="a_node4"><a xlink:href="pokeysHal_2pokeyslib_2PoKeysLibCoreSockets_8c.html#aeec64d9e2d4a84b6bc913f75c2169d51" target="_top" xlink:title=" ">
<polygon fill="white" stroke="black" points="25,-76.5 25,-95.5 137,-95.5 137,-76.5 25,-76.5"/>
<text text-anchor="middle" x="81" y="-83.5" font-family="Helvetica,sans-Serif" font-size="10.00">SendEthRequestBig</text>
</a>
</g>
</g>
<!-- Node1&#45;&gt;Node4 -->
<g id="edge3" class="edge">
<title>Node1&#45;&gt;Node4</title>
<path fill="none" stroke="midnightblue" d="M187.51,-86C171.43,-86 153.6,-86 137.23,-86"/>
<polygon fill="midnightblue" stroke="midnightblue" points="187.79,-89.5 197.79,-86 187.79,-82.5 187.79,-89.5"/>
</g>
<!-- Node5 -->
<g id="node5" class="node">
<title>Node5</title>
<g id="a_node5"><a xlink:href="pokeysHal_2pokeyslib_2PoKeysLibCore_8c.html#ab5d92aa36d0a4a6953a055f5cd960aff" target="_top" xlink:title=" ">
<polygon fill="white" stroke="black" points="41,-38.5 41,-57.5 121,-57.5 121,-38.5 41,-38.5"/>
<text text-anchor="middle" x="81" y="-45.5" font-family="Helvetica,sans-Serif" font-size="10.00">SendRequest</text>
</a>
</g>
</g>
<!-- Node1&#45;&gt;Node5 -->
<g id="edge4" class="edge">
<title>Node1&#45;&gt;Node5</title>
<path fill="none" stroke="midnightblue" d="M190.68,-74.04C181.18,-71.69 171.28,-69.25 162,-67 148.68,-63.76 134.1,-60.28 121.08,-57.2"/>
<polygon fill="midnightblue" stroke="midnightblue" points="189.84,-77.44 200.39,-76.45 191.52,-70.65 189.84,-77.44"/>
</g>
<!-- Node6 -->
<g id="node6" class="node">
<title>Node6</title>
<g id="a_node6"><a xlink:href="pokeysHal_2pokeyslib_2PoKeysLibCore_8c.html#aa13f43984a7cb793f85a8850443f4f79" target="_top" xlink:title=" ">
<polygon fill="white" stroke="black" points="8,-0.5 8,-19.5 154,-19.5 154,-0.5 8,-0.5"/>
<text text-anchor="middle" x="81" y="-7.5" font-family="Helvetica,sans-Serif" font-size="10.00">SendRequest_NoResponse</text>
</a>
</g>
</g>
<!-- Node1&#45;&gt;Node6 -->
<g id="edge5" class="edge">
<title>Node1&#45;&gt;Node6</title>
<path fill="none" stroke="midnightblue" d="M220.74,-69.43C206.05,-56.59 184.08,-39.31 162,-29 153.72,-25.14 144.58,-22.02 135.53,-19.51"/>
<polygon fill="midnightblue" stroke="midnightblue" points="218.72,-72.32 228.5,-76.39 223.39,-67.11 218.72,-72.32"/>
</g>
</g>
</svg>
