<?xml version="1.0" encoding="UTF-8" standalone="no"?>
<!DOCTYPE svg PUBLIC "-//W3C//DTD SVG 1.1//EN"
 "http://www.w3.org/Graphics/SVG/1.1/DTD/svg11.dtd">
<!-- Generated by graphviz version 2.43.0 (0)
 -->
<!-- Title: PK_DigitalIOGetParse Pages: 1 -->
<svg width="494pt" height="85pt"
 viewBox="0.00 0.00 494.00 85.00" xmlns="http://www.w3.org/2000/svg" xmlns:xlink="http://www.w3.org/1999/xlink">
<g id="graph0" class="graph" transform="scale(1 1) rotate(0) translate(4 81)">
<title>PK_DigitalIOGetParse</title>
<polygon fill="white" stroke="transparent" points="-4,4 -4,-81 490,-81 490,4 -4,4"/>
<!-- Node1 -->
<g id="node1" class="node">
<title>Node1</title>
<g id="a_node1"><a xlink:title="Parser for digital IO input values (CMD 0xCC, param1=0)">
<polygon fill="#bfbfbf" stroke="black" points="365,-38.5 365,-57.5 486,-57.5 486,-38.5 365,-38.5"/>
<text text-anchor="middle" x="425.5" y="-45.5" font-family="Helvetica,sans-Serif" font-size="10.00">PK_DigitalIOGetParse</text>
</a>
</g>
</g>
<!-- Node2 -->
<g id="node2" class="node">
<title>Node2</title>
<g id="a_node2"><a xlink:href="PoKeysLibIOAsync_8c.html#a679431a5f36a3addc438529fa503582b" target="_top" xlink:title="Asynchronously requests digital IO input values.">
<polygon fill="white" stroke="black" points="197,-57.5 197,-76.5 321,-76.5 321,-57.5 197,-57.5"/>
<text text-anchor="middle" x="259" y="-64.5" font-family="Helvetica,sans-Serif" font-size="10.00">PK_DigitalIOGetAsync</text>
</a>
</g>
</g>
<!-- Node1&#45;&gt;Node2 -->
<g id="edge1" class="edge">
<title>Node1&#45;&gt;Node2</title>
<path fill="none" stroke="midnightblue" d="M354.57,-56.08C343.47,-57.36 332.07,-58.68 321.19,-59.93"/>
<polygon fill="midnightblue" stroke="midnightblue" points="355.11,-59.54 364.65,-54.91 354.31,-52.58 355.11,-59.54"/>
</g>
<!-- Node3 -->
<g id="node3" class="node">
<title>Node3</title>
<g id="a_node3"><a xlink:href="PoKeysLibIOAsync_8c.html#a40cac366287e423e8adc9efe8e5b81fc" target="_top" xlink:title="Combined Set and Get digital IO in one async call.">
<polygon fill="white" stroke="black" points="189,-19.5 189,-38.5 329,-38.5 329,-19.5 189,-19.5"/>
<text text-anchor="middle" x="259" y="-26.5" font-family="Helvetica,sans-Serif" font-size="10.00">PK_DigitalIOSetGetAsync</text>
</a>
</g>
</g>
<!-- Node1&#45;&gt;Node3 -->
<g id="edge2" class="edge">
<title>Node1&#45;&gt;Node3</title>
<path fill="none" stroke="midnightblue" d="M354.47,-39.91C346.04,-38.94 337.43,-37.94 329.02,-36.97"/>
<polygon fill="midnightblue" stroke="midnightblue" points="354.31,-43.42 364.65,-41.09 355.11,-36.46 354.31,-43.42"/>
</g>
<!-- Node4 -->
<g id="node4" class="node">
<title>Node4</title>
<g id="a_node4"><a xlink:href="PoKeysLibAdvancedRTAsync_8c.html#a4ed1a6fbf44221a75d100efbb8f41ca4" target="_top" xlink:title="Emergency stop all motion and outputs (async)">
<polygon fill="white" stroke="black" points="0,-38.5 0,-57.5 153,-57.5 153,-38.5 0,-38.5"/>
<text text-anchor="middle" x="76.5" y="-45.5" font-family="Helvetica,sans-Serif" font-size="10.00">PK_EmergencyStopAllAsync</text>
</a>
</g>
</g>
<!-- Node3&#45;&gt;Node4 -->
<g id="edge3" class="edge">
<title>Node3&#45;&gt;Node4</title>
<path fill="none" stroke="midnightblue" d="M178.98,-37.32C170.38,-38.22 161.64,-39.14 153.09,-40.04"/>
<polygon fill="midnightblue" stroke="midnightblue" points="179.41,-40.79 188.99,-36.26 178.68,-33.83 179.41,-40.79"/>
</g>
<!-- Node5 -->
<g id="node5" class="node">
<title>Node5</title>
<g id="a_node5"><a xlink:href="PoKeysLibAdvancedRTAsync_8c.html#a62f34b5fbad7130f28b4ee32263ee6c7" target="_top" xlink:title="Perform complete IO update cycle (async)">
<polygon fill="white" stroke="black" points="8,-0.5 8,-19.5 145,-19.5 145,-0.5 8,-0.5"/>
<text text-anchor="middle" x="76.5" y="-7.5" font-family="Helvetica,sans-Serif" font-size="10.00">PK_IOUpdateCycleAsync</text>
</a>
</g>
</g>
<!-- Node3&#45;&gt;Node5 -->
<g id="edge4" class="edge">
<title>Node3&#45;&gt;Node5</title>
<path fill="none" stroke="midnightblue" d="M178.81,-20.66C167.63,-19.49 156.22,-18.29 145.28,-17.13"/>
<polygon fill="midnightblue" stroke="midnightblue" points="178.68,-24.17 188.99,-21.74 179.41,-17.21 178.68,-24.17"/>
</g>
</g>
</svg>
