<?xml version="1.0" encoding="UTF-8" standalone="no"?>
<!DOCTYPE svg PUBLIC "-//W3C//DTD SVG 1.1//EN"
 "http://www.w3.org/Graphics/SVG/1.1/DTD/svg11.dtd">
<!-- Generated by graphviz version 2.43.0 (0)
 -->
<!-- Title: /home/cnc/actions&#45;runner/_work/LinuxCnc_PokeysLibComp/LinuxCnc_PokeysLibComp/pokeys_uspace/pokeys.c Pages: 1 -->
<!--zoomable 296 -->
<svg id="main" version="1.1" xmlns="http://www.w3.org/2000/svg" xmlns:xlink="http://www.w3.org/1999/xlink" xml:space="preserve" onload="init(evt)">
<style type="text/css"><![CDATA[
.edge:hover path { stroke: red; }
.edge:hover polygon { stroke: red; fill: red; }
]]></style>
<script type="text/javascript"><![CDATA[
var edges = document.getElementsByTagName('g');
if (edges && edges.length) {
  for (var i=0;i<edges.length;i++) {
    if (edges[i].id.substr(0,4)=='edge') {
      edges[i].setAttribute('class','edge');
    }
  }
}
]]></script>
        <defs>
                <circle id="rim" cx="0" cy="0" r="7"/>
                <circle id="rim2" cx="0" cy="0" r="3.5"/>
                <g id="zoomPlus">
                        <use xlink:href="#rim" fill="#404040">
                                <set attributeName="fill" to="#808080" begin="zoomplus.mouseover" end="zoomplus.mouseout"/>
                        </use>
                        <path d="M-4,0h8M0,-4v8" fill="none" stroke="white" stroke-width="1.5" pointer-events="none"/>
                </g>
                <g id="zoomMin">
                        <use xlink:href="#rim" fill="#404040">
                                <set attributeName="fill" to="#808080" begin="zoomminus.mouseover" end="zoomminus.mouseout"/>
                        </use>
                        <path d="M-4,0h8" fill="none" stroke="white" stroke-width="1.5" pointer-events="none"/>
                </g>
                <g id="dirArrow">
                        <path fill="none" stroke="white" stroke-width="1.5" d="M0,-3.0v7 M-2.5,-0.5L0,-3.0L2.5,-0.5"/>
                </g>
               <g id="resetDef">
                       <use xlink:href="#rim2" fill="#404040">
                               <set attributeName="fill" to="#808080" begin="reset.mouseover" end="reset.mouseout"/>
                       </use>
               </g>
        </defs>

<script type="text/javascript">
var viewWidth = 1341;
var viewHeight = 296;
var sectionId = 'dynsection-0';
</script>
<script xlink:href="svgpan.js"/>
<svg id="graph" class="graph">
<g id="viewport">
<title>/home/cnc/actions&#45;runner/_work/LinuxCnc_PokeysLibComp/LinuxCnc_PokeysLibComp/pokeys_uspace/pokeys.c</title>
<polygon fill="white" stroke="transparent" points="-4,4 -4,-292 1336.89,-292 1336.89,4 -4,4"/>
<!-- Node1 -->
<g id="node1" class="node">
<title>Node1</title>
<g id="a_node1"><a xlink:title="HAL component for integrating PoKeys57 devices with LinuxCNC.">
<polygon fill="#bfbfbf" stroke="black" points="580.5,-235.5 580.5,-287.5 764.5,-287.5 764.5,-235.5 580.5,-235.5"/>
<text text-anchor="start" x="588.5" y="-275.5" font-family="Helvetica,sans-Serif" font-size="10.00">/home/cnc/actions&#45;runner</text>
<text text-anchor="start" x="588.5" y="-264.5" font-family="Helvetica,sans-Serif" font-size="10.00">/_work/LinuxCnc_PokeysLibComp</text>
<text text-anchor="start" x="588.5" y="-253.5" font-family="Helvetica,sans-Serif" font-size="10.00">/LinuxCnc_PokeysLibComp/pokeys</text>
<text text-anchor="middle" x="672.5" y="-242.5" font-family="Helvetica,sans-Serif" font-size="10.00">_uspace/pokeys.c</text>
</a>
</g>
</g>
<!-- Node2 -->
<g id="node2" class="node">
<title>Node2</title>
<g id="a_node2"><a xlink:href="rtapi_8h.html" target="_top" xlink:title=" ">
<polygon fill="white" stroke="black" points="376.5,-56.5 376.5,-75.5 424.5,-75.5 424.5,-56.5 376.5,-56.5"/>
<text text-anchor="middle" x="400.5" y="-63.5" font-family="Helvetica,sans-Serif" font-size="10.00">rtapi.h</text>
</a>
</g>
</g>
<!-- Node1&#45;&gt;Node2 -->
<g id="edge1" class="edge">
<title>Node1&#45;&gt;Node2</title>
<path fill="none" stroke="midnightblue" d="M580.15,-256.73C472.5,-250.69 302.79,-235.54 251.5,-199 218.3,-175.35 197.42,-144.13 222.5,-112 263.1,-60 302.61,-92.44 366.5,-76 366.6,-75.97 366.7,-75.95 366.8,-75.92"/>
<polygon fill="midnightblue" stroke="midnightblue" points="367.57,-79.34 376.36,-73.43 365.81,-72.57 367.57,-79.34"/>
</g>
<!-- Node6 -->
<g id="node6" class="node">
<title>Node6</title>
<g id="a_node6"><a xlink:href="rtapi__string_8h.html" target="_top" xlink:title=" ">
<polygon fill="white" stroke="black" points="291,-118 291,-137 372,-137 372,-118 291,-118"/>
<text text-anchor="middle" x="331.5" y="-125" font-family="Helvetica,sans-Serif" font-size="10.00">rtapi_string.h</text>
</a>
</g>
</g>
<!-- Node1&#45;&gt;Node6 -->
<g id="edge5" class="edge">
<title>Node1&#45;&gt;Node6</title>
<path fill="none" stroke="midnightblue" d="M580.33,-259.55C475.53,-256.29 313.96,-243.88 275.5,-199 259.14,-179.91 285.44,-156.98 307.26,-142.57"/>
<polygon fill="midnightblue" stroke="midnightblue" points="309.3,-145.42 315.9,-137.13 305.57,-139.5 309.3,-145.42"/>
</g>
<!-- Node9 -->
<g id="node9" class="node">
<title>Node9</title>
<g id="a_node9"><a xlink:href="rtapi__errno_8h.html" target="_top" xlink:title=" ">
<polygon fill="white" stroke="black" points="0,-56.5 0,-75.5 79,-75.5 79,-56.5 0,-56.5"/>
<text text-anchor="middle" x="39.5" y="-63.5" font-family="Helvetica,sans-Serif" font-size="10.00">rtapi_errno.h</text>
</a>
</g>
</g>
<!-- Node1&#45;&gt;Node9 -->
<g id="edge9" class="edge">
<title>Node1&#45;&gt;Node9</title>
<path fill="none" stroke="midnightblue" d="M580.33,-255.1C450.21,-246.59 219.78,-227.97 141.5,-199 99.77,-183.56 84.03,-179.45 58.5,-143 46.58,-125.99 42.12,-102.22 40.46,-85.81"/>
<polygon fill="midnightblue" stroke="midnightblue" points="43.95,-85.51 39.7,-75.81 36.97,-86.04 43.95,-85.51"/>
</g>
<!-- Node11 -->
<g id="node11" class="node">
<title>Node11</title>
<g id="a_node11"><a xlink:href="hal_8h.html" target="_top" xlink:title=" ">
<polygon fill="white" stroke="black" points="232,-118 232,-137 273,-137 273,-118 232,-118"/>
<text text-anchor="middle" x="252.5" y="-125" font-family="Helvetica,sans-Serif" font-size="10.00">hal.h</text>
</a>
</g>
</g>
<!-- Node1&#45;&gt;Node11 -->
<g id="edge11" class="edge">
<title>Node1&#45;&gt;Node11</title>
<path fill="none" stroke="midnightblue" d="M580.2,-258.49C474.49,-254.2 310.25,-240.8 266.5,-199 252.85,-185.96 250.44,-163.71 250.76,-147.69"/>
<polygon fill="midnightblue" stroke="midnightblue" points="254.27,-147.53 251.35,-137.35 247.29,-147.13 254.27,-147.53"/>
</g>
<!-- Node16 -->
<g id="node16" class="node">
<title>Node16</title>
<g id="a_node16"><a xlink:href="rtapi__math64_8h.html" target="_top" xlink:title=" ">
<polygon fill="white" stroke="black" points="68,-118 68,-137 159,-137 159,-118 68,-118"/>
<text text-anchor="middle" x="113.5" y="-125" font-family="Helvetica,sans-Serif" font-size="10.00">rtapi_math64.h</text>
</a>
</g>
</g>
<!-- Node1&#45;&gt;Node16 -->
<g id="edge18" class="edge">
<title>Node1&#45;&gt;Node16</title>
<path fill="none" stroke="midnightblue" d="M580.26,-257.86C453.92,-252.81 234.9,-238.49 166.5,-199 145.63,-186.95 130.4,-163.08 121.75,-146.47"/>
<polygon fill="midnightblue" stroke="midnightblue" points="124.77,-144.68 117.23,-137.24 118.48,-147.76 124.77,-144.68"/>
</g>
<!-- Node17 -->
<g id="node17" class="node">
<title>Node17</title>
<g id="a_node17"><a xlink:title=" ">
<polygon fill="white" stroke="#bfbfbf" points="284.5,-179.5 284.5,-198.5 340.5,-198.5 340.5,-179.5 284.5,-179.5"/>
<text text-anchor="middle" x="312.5" y="-186.5" font-family="Helvetica,sans-Serif" font-size="10.00">unistd.h</text>
</a>
</g>
</g>
<!-- Node1&#45;&gt;Node17 -->
<g id="edge20" class="edge">
<title>Node1&#45;&gt;Node17</title>
<path fill="none" stroke="midnightblue" d="M580.36,-244.23C518.07,-232.94 433.76,-217.07 350.62,-199.16"/>
<polygon fill="midnightblue" stroke="midnightblue" points="351.26,-195.72 340.75,-197.03 349.78,-202.56 351.26,-195.72"/>
</g>
<!-- Node18 -->
<g id="node18" class="node">
<title>Node18</title>
<g id="a_node18"><a xlink:href="PoKeysLib_8h.html" target="_top" xlink:title=" ">
<polygon fill="white" stroke="black" points="689,-118 689,-137 764,-137 764,-118 689,-118"/>
<text text-anchor="middle" x="726.5" y="-125" font-family="Helvetica,sans-Serif" font-size="10.00">PoKeysLib.h</text>
</a>
</g>
</g>
<!-- Node1&#45;&gt;Node18 -->
<g id="edge21" class="edge">
<title>Node1&#45;&gt;Node18</title>
<path fill="none" stroke="midnightblue" d="M764.63,-243.8C789.1,-234.71 812.78,-220.68 827.5,-199 846.06,-171.67 805.44,-151.65 770.31,-140.08"/>
<polygon fill="midnightblue" stroke="midnightblue" points="771.19,-136.68 760.6,-137.03 769.1,-143.36 771.19,-136.68"/>
</g>
<!-- Node20 -->
<g id="node20" class="node">
<title>Node20</title>
<g id="a_node20"><a xlink:href="PoKeysComp_8h.html" target="_top" xlink:title="Main header file for the PoKeys HAL component in LinuxCNC.">
<polygon fill="white" stroke="black" points="543,-118 543,-137 632,-137 632,-118 543,-118"/>
<text text-anchor="middle" x="587.5" y="-125" font-family="Helvetica,sans-Serif" font-size="10.00">PoKeysComp.h</text>
</a>
</g>
</g>
<!-- Node1&#45;&gt;Node20 -->
<g id="edge23" class="edge">
<title>Node1&#45;&gt;Node20</title>
<path fill="none" stroke="midnightblue" d="M670.64,-235.27C668.4,-218.23 663.44,-195.87 652.5,-179 642.55,-163.66 626.3,-151.04 612.54,-142.25"/>
<polygon fill="midnightblue" stroke="midnightblue" points="614.32,-139.23 603.95,-137.04 610.69,-145.21 614.32,-139.23"/>
</g>
<!-- Node21 -->
<g id="node21" class="node">
<title>Node21</title>
<g id="a_node21"><a xlink:href="pokeys__ini_8h.html" target="_top" xlink:title=" ">
<polygon fill="white" stroke="black" points="935,-56.5 935,-75.5 1012,-75.5 1012,-56.5 935,-56.5"/>
<text text-anchor="middle" x="973.5" y="-63.5" font-family="Helvetica,sans-Serif" font-size="10.00">pokeys_ini.h</text>
</a>
</g>
</g>
<!-- Node1&#45;&gt;Node21 -->
<g id="edge25" class="edge">
<title>Node1&#45;&gt;Node21</title>
<path fill="none" stroke="midnightblue" d="M764.63,-254.85C845.82,-247.73 955.3,-232.13 982.5,-199 1009.26,-166.42 993.02,-112.7 981.68,-84.9"/>
<polygon fill="midnightblue" stroke="midnightblue" points="984.85,-83.41 977.68,-75.62 978.42,-86.19 984.85,-83.41"/>
</g>
<!-- Node22 -->
<g id="node22" class="node">
<title>Node22</title>
<g id="a_node22"><a xlink:title=" ">
<polygon fill="white" stroke="#bfbfbf" points="810.5,-0.5 810.5,-19.5 860.5,-19.5 860.5,-0.5 810.5,-0.5"/>
<text text-anchor="middle" x="835.5" y="-7.5" font-family="Helvetica,sans-Serif" font-size="10.00">stdio.h</text>
</a>
</g>
</g>
<!-- Node1&#45;&gt;Node22 -->
<g id="edge27" class="edge">
<title>Node1&#45;&gt;Node22</title>
<path fill="none" stroke="midnightblue" d="M764.84,-255.03C850.76,-247.93 970.25,-232.26 1002.5,-199 1047.13,-152.97 1061.15,-106.38 1021.5,-56 1003.08,-32.59 919.18,-19.89 870.59,-14.39"/>
<polygon fill="midnightblue" stroke="midnightblue" points="870.82,-10.9 860.5,-13.29 870.07,-17.85 870.82,-10.9"/>
</g>
<!-- Node23 -->
<g id="node23" class="node">
<title>Node23</title>
<g id="a_node23"><a xlink:href="PoKeysCompEncoders_8c.html" target="_top" xlink:title=" ">
<polygon fill="white" stroke="black" points="511,-179.5 511,-198.5 644,-198.5 644,-179.5 511,-179.5"/>
<text text-anchor="middle" x="577.5" y="-186.5" font-family="Helvetica,sans-Serif" font-size="10.00">PoKeysCompEncoders.c</text>
</a>
</g>
</g>
<!-- Node1&#45;&gt;Node23 -->
<g id="edge28" class="edge">
<title>Node1&#45;&gt;Node23</title>
<path fill="none" stroke="midnightblue" d="M638.74,-235.45C624.97,-225.23 609.51,-213.76 597.58,-204.9"/>
<polygon fill="midnightblue" stroke="midnightblue" points="599.33,-201.84 589.22,-198.7 595.16,-207.47 599.33,-201.84"/>
</g>
<!-- Node24 -->
<g id="node24" class="node">
<title>Node24</title>
<g id="a_node24"><a xlink:href="PoKeysCompPoExtBus_8c.html" target="_top" xlink:title=" ">
<polygon fill="white" stroke="black" points="358.5,-179.5 358.5,-198.5 492.5,-198.5 492.5,-179.5 358.5,-179.5"/>
<text text-anchor="middle" x="425.5" y="-186.5" font-family="Helvetica,sans-Serif" font-size="10.00">PoKeysCompPoExtBus.c</text>
</a>
</g>
</g>
<!-- Node1&#45;&gt;Node24 -->
<g id="edge34" class="edge">
<title>Node1&#45;&gt;Node24</title>
<path fill="none" stroke="midnightblue" d="M584.72,-235.45C543.93,-223.8 497.45,-210.54 465.29,-201.36"/>
<polygon fill="midnightblue" stroke="midnightblue" points="465.95,-197.91 455.37,-198.53 464.03,-204.64 465.95,-197.91"/>
</g>
<!-- Node25 -->
<g id="node25" class="node">
<title>Node25</title>
<g id="a_node25"><a xlink:href="PoKeysCompPoNet_8c.html" target="_top" xlink:title=" ">
<polygon fill="white" stroke="black" points="700.5,-179.5 700.5,-198.5 818.5,-198.5 818.5,-179.5 700.5,-179.5"/>
<text text-anchor="middle" x="759.5" y="-186.5" font-family="Helvetica,sans-Serif" font-size="10.00">PoKeysCompPoNet.c</text>
</a>
</g>
</g>
<!-- Node1&#45;&gt;Node25 -->
<g id="edge40" class="edge">
<title>Node1&#45;&gt;Node25</title>
<path fill="none" stroke="midnightblue" d="M703.42,-235.45C715.9,-225.33 729.9,-213.98 740.79,-205.16"/>
<polygon fill="midnightblue" stroke="midnightblue" points="743.2,-207.71 748.77,-198.7 738.8,-202.27 743.2,-207.71"/>
</g>
<!-- Node26 -->
<g id="node26" class="node">
<title>Node26</title>
<g id="a_node26"><a xlink:href="PoKeysCompIO_8c.html" target="_top" xlink:title="HAL interface for PoKeys digital and analog I/O handling.">
<polygon fill="white" stroke="black" points="875,-179.5 875,-198.5 974,-198.5 974,-179.5 875,-179.5"/>
<text text-anchor="middle" x="924.5" y="-186.5" font-family="Helvetica,sans-Serif" font-size="10.00">PoKeysCompIO.c</text>
</a>
</g>
</g>
<!-- Node1&#45;&gt;Node26 -->
<g id="edge46" class="edge">
<title>Node1&#45;&gt;Node26</title>
<path fill="none" stroke="midnightblue" d="M762.06,-235.45C803.85,-223.75 851.5,-210.42 884.33,-201.24"/>
<polygon fill="midnightblue" stroke="midnightblue" points="885.33,-204.59 894.02,-198.53 883.45,-197.85 885.33,-204.59"/>
</g>
<!-- Node28 -->
<g id="node28" class="node">
<title>Node28</title>
<g id="a_node28"><a xlink:title=" ">
<polygon fill="white" stroke="#bfbfbf" points="1115,-56.5 1115,-75.5 1168,-75.5 1168,-56.5 1115,-56.5"/>
<text text-anchor="middle" x="1141.5" y="-63.5" font-family="Helvetica,sans-Serif" font-size="10.00">stdlib.h</text>
</a>
</g>
</g>
<!-- Node1&#45;&gt;Node28 -->
<g id="edge60" class="edge">
<title>Node1&#45;&gt;Node28</title>
<path fill="none" stroke="midnightblue" d="M764.72,-258.39C933.51,-253.56 1278.26,-238.88 1314.5,-199 1326.48,-185.82 1349.72,-158.82 1312.5,-112 1295.93,-91.16 1223.29,-77.9 1178.18,-71.51"/>
<polygon fill="midnightblue" stroke="midnightblue" points="1178.56,-68.03 1168.18,-70.15 1177.61,-74.97 1178.56,-68.03"/>
</g>
<!-- Node30 -->
<g id="node30" class="node">
<title>Node30</title>
<g id="a_node30"><a xlink:href="PoKeysCompPulseEngine__v2_8c.html" target="_top" xlink:title="HAL component implementation for PoKeys Pulse Engine v2 (PEv2) in LinuxCNC.">
<polygon fill="white" stroke="black" points="1140,-179.5 1140,-198.5 1305,-198.5 1305,-179.5 1140,-179.5"/>
<text text-anchor="middle" x="1222.5" y="-186.5" font-family="Helvetica,sans-Serif" font-size="10.00">PoKeysCompPulseEngine_v2.c</text>
</a>
</g>
</g>
<!-- Node1&#45;&gt;Node30 -->
<g id="edge56" class="edge">
<title>Node1&#45;&gt;Node30</title>
<path fill="none" stroke="midnightblue" d="M764.56,-248.7C871.58,-234.98 1046.27,-212.59 1146.1,-199.79"/>
<polygon fill="midnightblue" stroke="midnightblue" points="1146.64,-203.25 1156.12,-198.51 1145.75,-196.31 1146.64,-203.25"/>
</g>
<!-- Node32 -->
<g id="node32" class="node">
<title>Node32</title>
<g id="a_node32"><a xlink:href="inifile_8h.html" target="_top" xlink:title=" ">
<polygon fill="white" stroke="black" points="1069,-179.5 1069,-198.5 1122,-198.5 1122,-179.5 1069,-179.5"/>
<text text-anchor="middle" x="1095.5" y="-186.5" font-family="Helvetica,sans-Serif" font-size="10.00">inifile.h</text>
</a>
</g>
</g>
<!-- Node1&#45;&gt;Node32 -->
<g id="edge61" class="edge">
<title>Node1&#45;&gt;Node32</title>
<path fill="none" stroke="midnightblue" d="M764.61,-247.16C842.14,-235.58 955.84,-217.75 1054.5,-199 1055.79,-198.76 1057.1,-198.5 1058.42,-198.24"/>
<polygon fill="midnightblue" stroke="midnightblue" points="1059.55,-201.58 1068.64,-196.12 1058.14,-194.72 1059.55,-201.58"/>
</g>
<!-- Node3 -->
<g id="node3" class="node">
<title>Node3</title>
<g id="a_node3"><a xlink:title=" ">
<polygon fill="white" stroke="#bfbfbf" points="447.5,-0.5 447.5,-19.5 503.5,-19.5 503.5,-0.5 447.5,-0.5"/>
<text text-anchor="middle" x="475.5" y="-7.5" font-family="Helvetica,sans-Serif" font-size="10.00">stddef.h</text>
</a>
</g>
</g>
<!-- Node2&#45;&gt;Node3 -->
<g id="edge2" class="edge">
<title>Node2&#45;&gt;Node3</title>
<path fill="none" stroke="midnightblue" d="M412.55,-56.32C423.96,-48.11 441.33,-35.6 454.93,-25.81"/>
<polygon fill="midnightblue" stroke="midnightblue" points="457.16,-28.52 463.23,-19.83 453.07,-22.84 457.16,-28.52"/>
</g>
<!-- Node4 -->
<g id="node4" class="node">
<title>Node4</title>
<g id="a_node4"><a xlink:title=" ">
<polygon fill="white" stroke="#bfbfbf" points="297.5,-0.5 297.5,-19.5 353.5,-19.5 353.5,-0.5 297.5,-0.5"/>
<text text-anchor="middle" x="325.5" y="-7.5" font-family="Helvetica,sans-Serif" font-size="10.00">stdarg.h</text>
</a>
</g>
</g>
<!-- Node2&#45;&gt;Node4 -->
<g id="edge3" class="edge">
<title>Node2&#45;&gt;Node4</title>
<path fill="none" stroke="midnightblue" d="M388.45,-56.32C377.04,-48.11 359.67,-35.6 346.07,-25.81"/>
<polygon fill="midnightblue" stroke="midnightblue" points="347.93,-22.84 337.77,-19.83 343.84,-28.52 347.93,-22.84"/>
</g>
<!-- Node5 -->
<g id="node5" class="node">
<title>Node5</title>
<g id="a_node5"><a xlink:title=" ">
<polygon fill="white" stroke="#bfbfbf" points="372,-0.5 372,-19.5 429,-19.5 429,-0.5 372,-0.5"/>
<text text-anchor="middle" x="400.5" y="-7.5" font-family="Helvetica,sans-Serif" font-size="10.00">spawn.h</text>
</a>
</g>
</g>
<!-- Node2&#45;&gt;Node5 -->
<g id="edge4" class="edge">
<title>Node2&#45;&gt;Node5</title>
<path fill="none" stroke="midnightblue" d="M400.5,-56.08C400.5,-49.01 400.5,-38.86 400.5,-29.99"/>
<polygon fill="midnightblue" stroke="midnightblue" points="404,-29.75 400.5,-19.75 397,-29.75 404,-29.75"/>
</g>
<!-- Node6&#45;&gt;Node2 -->
<g id="edge6" class="edge">
<title>Node6&#45;&gt;Node2</title>
<path fill="none" stroke="midnightblue" d="M341.39,-117.98C352.15,-108.7 369.57,-93.67 382.72,-82.33"/>
<polygon fill="midnightblue" stroke="midnightblue" points="385.34,-84.69 390.63,-75.51 380.77,-79.39 385.34,-84.69"/>
</g>
<!-- Node7 -->
<g id="node7" class="node">
<title>Node7</title>
<g id="a_node7"><a xlink:title=" ">
<polygon fill="white" stroke="#bfbfbf" points="586,-56.5 586,-75.5 639,-75.5 639,-56.5 586,-56.5"/>
<text text-anchor="middle" x="612.5" y="-63.5" font-family="Helvetica,sans-Serif" font-size="10.00">string.h</text>
</a>
</g>
</g>
<!-- Node6&#45;&gt;Node7 -->
<g id="edge7" class="edge">
<title>Node6&#45;&gt;Node7</title>
<path fill="none" stroke="midnightblue" d="M371.76,-117.98C426.39,-106.41 523.22,-85.91 575.89,-74.75"/>
<polygon fill="midnightblue" stroke="midnightblue" points="576.75,-78.15 585.81,-72.65 575.3,-71.3 576.75,-78.15"/>
</g>
<!-- Node8 -->
<g id="node8" class="node">
<title>Node8</title>
<g id="a_node8"><a xlink:href="rtapi__gfp_8h.html" target="_top" xlink:title=" ">
<polygon fill="white" stroke="black" points="289,-56.5 289,-75.5 358,-75.5 358,-56.5 289,-56.5"/>
<text text-anchor="middle" x="323.5" y="-63.5" font-family="Helvetica,sans-Serif" font-size="10.00">rtapi_gfp.h</text>
</a>
</g>
</g>
<!-- Node6&#45;&gt;Node8 -->
<g id="edge8" class="edge">
<title>Node6&#45;&gt;Node8</title>
<path fill="none" stroke="midnightblue" d="M330.35,-117.98C329.23,-109.58 327.46,-96.48 326.01,-85.66"/>
<polygon fill="midnightblue" stroke="midnightblue" points="329.45,-84.95 324.64,-75.51 322.51,-85.89 329.45,-84.95"/>
</g>
<!-- Node10 -->
<g id="node10" class="node">
<title>Node10</title>
<g id="a_node10"><a xlink:title=" ">
<polygon fill="white" stroke="#bfbfbf" points="14,-0.5 14,-19.5 65,-19.5 65,-0.5 14,-0.5"/>
<text text-anchor="middle" x="39.5" y="-7.5" font-family="Helvetica,sans-Serif" font-size="10.00">errno.h</text>
</a>
</g>
</g>
<!-- Node9&#45;&gt;Node10 -->
<g id="edge10" class="edge">
<title>Node9&#45;&gt;Node10</title>
<path fill="none" stroke="midnightblue" d="M39.5,-56.08C39.5,-49.01 39.5,-38.86 39.5,-29.99"/>
<polygon fill="midnightblue" stroke="midnightblue" points="43,-29.75 39.5,-19.75 36,-29.75 43,-29.75"/>
</g>
<!-- Node11&#45;&gt;Node2 -->
<g id="edge12" class="edge">
<title>Node11&#45;&gt;Node2</title>
<path fill="none" stroke="midnightblue" d="M268.92,-117.92C273,-115.9 277.37,-113.81 281.5,-112 309.65,-99.68 342.35,-87.46 366.34,-78.87"/>
<polygon fill="midnightblue" stroke="midnightblue" points="367.8,-82.07 376.05,-75.42 365.45,-75.47 367.8,-82.07"/>
</g>
<!-- Node11&#45;&gt;Node9 -->
<g id="edge13" class="edge">
<title>Node11&#45;&gt;Node9</title>
<path fill="none" stroke="midnightblue" d="M231.69,-120.69C196.65,-110.9 125.3,-90.97 80.08,-78.34"/>
<polygon fill="midnightblue" stroke="midnightblue" points="80.87,-74.92 70.29,-75.6 78.98,-81.66 80.87,-74.92"/>
</g>
<!-- Node12 -->
<g id="node12" class="node">
<title>Node12</title>
<g id="a_node12"><a xlink:href="rtapi__bool_8h.html" target="_top" xlink:title=" ">
<polygon fill="white" stroke="black" points="196.5,-56.5 196.5,-75.5 270.5,-75.5 270.5,-56.5 196.5,-56.5"/>
<text text-anchor="middle" x="233.5" y="-63.5" font-family="Helvetica,sans-Serif" font-size="10.00">rtapi_bool.h</text>
</a>
</g>
</g>
<!-- Node11&#45;&gt;Node12 -->
<g id="edge14" class="edge">
<title>Node11&#45;&gt;Node12</title>
<path fill="none" stroke="midnightblue" d="M249.78,-117.98C247.07,-109.49 242.83,-96.2 239.35,-85.32"/>
<polygon fill="midnightblue" stroke="midnightblue" points="242.59,-83.97 236.22,-75.51 235.93,-86.1 242.59,-83.97"/>
</g>
<!-- Node14 -->
<g id="node14" class="node">
<title>Node14</title>
<g id="a_node14"><a xlink:href="rtapi__stdint_8h.html" target="_top" xlink:title=" ">
<polygon fill="white" stroke="black" points="97,-56.5 97,-75.5 178,-75.5 178,-56.5 97,-56.5"/>
<text text-anchor="middle" x="137.5" y="-63.5" font-family="Helvetica,sans-Serif" font-size="10.00">rtapi_stdint.h</text>
</a>
</g>
</g>
<!-- Node11&#45;&gt;Node14 -->
<g id="edge16" class="edge">
<title>Node11&#45;&gt;Node14</title>
<path fill="none" stroke="midnightblue" d="M236.02,-117.98C216.89,-108.08 185.13,-91.64 162.85,-80.12"/>
<polygon fill="midnightblue" stroke="midnightblue" points="164.44,-77 153.95,-75.51 161.22,-83.21 164.44,-77"/>
</g>
<!-- Node13 -->
<g id="node13" class="node">
<title>Node13</title>
<g id="a_node13"><a xlink:title=" ">
<polygon fill="white" stroke="#bfbfbf" points="202.5,-0.5 202.5,-19.5 264.5,-19.5 264.5,-0.5 202.5,-0.5"/>
<text text-anchor="middle" x="233.5" y="-7.5" font-family="Helvetica,sans-Serif" font-size="10.00">stdbool.h</text>
</a>
</g>
</g>
<!-- Node12&#45;&gt;Node13 -->
<g id="edge15" class="edge">
<title>Node12&#45;&gt;Node13</title>
<path fill="none" stroke="midnightblue" d="M233.5,-56.08C233.5,-49.01 233.5,-38.86 233.5,-29.99"/>
<polygon fill="midnightblue" stroke="midnightblue" points="237,-29.75 233.5,-19.75 230,-29.75 237,-29.75"/>
</g>
<!-- Node15 -->
<g id="node15" class="node">
<title>Node15</title>
<g id="a_node15"><a xlink:title=" ">
<polygon fill="white" stroke="#bfbfbf" points="105,-0.5 105,-19.5 170,-19.5 170,-0.5 105,-0.5"/>
<text text-anchor="middle" x="137.5" y="-7.5" font-family="Helvetica,sans-Serif" font-size="10.00">inttypes.h</text>
</a>
</g>
</g>
<!-- Node14&#45;&gt;Node15 -->
<g id="edge17" class="edge">
<title>Node14&#45;&gt;Node15</title>
<path fill="none" stroke="midnightblue" d="M137.5,-56.08C137.5,-49.01 137.5,-38.86 137.5,-29.99"/>
<polygon fill="midnightblue" stroke="midnightblue" points="141,-29.75 137.5,-19.75 134,-29.75 141,-29.75"/>
</g>
<!-- Node16&#45;&gt;Node14 -->
<g id="edge19" class="edge">
<title>Node16&#45;&gt;Node14</title>
<path fill="none" stroke="midnightblue" d="M116.94,-117.98C120.4,-109.4 125.83,-95.93 130.25,-84.98"/>
<polygon fill="midnightblue" stroke="midnightblue" points="133.57,-86.09 134.07,-75.51 127.08,-83.47 133.57,-86.09"/>
</g>
<!-- Node19 -->
<g id="node19" class="node">
<title>Node19</title>
<g id="a_node19"><a xlink:title=" ">
<polygon fill="white" stroke="#bfbfbf" points="678,-56.5 678,-75.5 731,-75.5 731,-56.5 678,-56.5"/>
<text text-anchor="middle" x="704.5" y="-63.5" font-family="Helvetica,sans-Serif" font-size="10.00">stdint.h</text>
</a>
</g>
</g>
<!-- Node18&#45;&gt;Node19 -->
<g id="edge22" class="edge">
<title>Node18&#45;&gt;Node19</title>
<path fill="none" stroke="midnightblue" d="M723.35,-117.98C720.18,-109.4 715.2,-95.93 711.15,-84.98"/>
<polygon fill="midnightblue" stroke="midnightblue" points="714.4,-83.67 707.65,-75.51 707.83,-86.1 714.4,-83.67"/>
</g>
<!-- Node20&#45;&gt;Node19 -->
<g id="edge24" class="edge">
<title>Node20&#45;&gt;Node19</title>
<path fill="none" stroke="midnightblue" d="M604.26,-117.98C623.72,-108.08 656.05,-91.64 678.71,-80.12"/>
<polygon fill="midnightblue" stroke="midnightblue" points="680.44,-83.16 687.77,-75.51 677.27,-76.92 680.44,-83.16"/>
</g>
<!-- Node21&#45;&gt;Node22 -->
<g id="edge26" class="edge">
<title>Node21&#45;&gt;Node22</title>
<path fill="none" stroke="midnightblue" d="M951.63,-56.44C928.72,-47.48 892.52,-33.31 866.63,-23.18"/>
<polygon fill="midnightblue" stroke="midnightblue" points="867.85,-19.9 857.26,-19.52 865.3,-26.42 867.85,-19.9"/>
</g>
<!-- Node23&#45;&gt;Node2 -->
<g id="edge31" class="edge">
<title>Node23&#45;&gt;Node2</title>
<path fill="none" stroke="midnightblue" d="M561.53,-179.41C545.71,-170.73 520.97,-156.68 500.5,-143 470.97,-123.26 438.53,-97.87 418.84,-82.01"/>
<polygon fill="midnightblue" stroke="midnightblue" points="420.96,-79.22 410.99,-75.65 416.56,-84.66 420.96,-79.22"/>
</g>
<!-- Node23&#45;&gt;Node11 -->
<g id="edge32" class="edge">
<title>Node23&#45;&gt;Node11</title>
<path fill="none" stroke="midnightblue" d="M514.55,-179.5C434.28,-168.49 303.24,-149.9 281.5,-143 279.88,-142.49 278.23,-141.89 276.59,-141.24"/>
<polygon fill="midnightblue" stroke="midnightblue" points="278.03,-138.05 267.48,-137.1 275.14,-144.42 278.03,-138.05"/>
</g>
<!-- Node23&#45;&gt;Node18 -->
<g id="edge29" class="edge">
<title>Node23&#45;&gt;Node18</title>
<path fill="none" stroke="midnightblue" d="M598.85,-179.48C624.19,-169.36 666.64,-152.4 695.57,-140.85"/>
<polygon fill="midnightblue" stroke="midnightblue" points="697.2,-143.97 705.19,-137.01 694.61,-137.47 697.2,-143.97"/>
</g>
<!-- Node23&#45;&gt;Node20 -->
<g id="edge30" class="edge">
<title>Node23&#45;&gt;Node20</title>
<path fill="none" stroke="midnightblue" d="M578.93,-179.48C580.34,-171.08 582.55,-157.98 584.36,-147.16"/>
<polygon fill="midnightblue" stroke="midnightblue" points="587.86,-147.45 586.07,-137.01 580.96,-146.29 587.86,-147.45"/>
</g>
<!-- Node23&#45;&gt;Node22 -->
<g id="edge33" class="edge">
<title>Node23&#45;&gt;Node22</title>
<path fill="none" stroke="midnightblue" d="M564.72,-179.37C554.11,-171.36 539.77,-158.38 533.5,-143 517.22,-103.06 539.59,-78.32 576.5,-56 613.6,-33.56 738.31,-19.64 800.14,-13.96"/>
<polygon fill="midnightblue" stroke="midnightblue" points="800.56,-17.43 810.21,-13.05 799.93,-10.46 800.56,-17.43"/>
</g>
<!-- Node24&#45;&gt;Node2 -->
<g id="edge37" class="edge">
<title>Node24&#45;&gt;Node2</title>
<path fill="none" stroke="midnightblue" d="M423.7,-179.3C419.67,-159.76 409.81,-112.06 404.33,-85.55"/>
<polygon fill="midnightblue" stroke="midnightblue" points="407.73,-84.71 402.28,-75.62 400.88,-86.12 407.73,-84.71"/>
</g>
<!-- Node24&#45;&gt;Node11 -->
<g id="edge38" class="edge">
<title>Node24&#45;&gt;Node11</title>
<path fill="none" stroke="midnightblue" d="M392.95,-179.44C363.42,-171.3 318.91,-158.08 281.5,-143 280.3,-142.51 279.07,-142 277.85,-141.46"/>
<polygon fill="midnightblue" stroke="midnightblue" points="279.09,-138.18 268.55,-137.1 276.11,-144.52 279.09,-138.18"/>
</g>
<!-- Node24&#45;&gt;Node18 -->
<g id="edge35" class="edge">
<title>Node24&#45;&gt;Node18</title>
<path fill="none" stroke="midnightblue" d="M468.63,-179.48C524.29,-168.47 620.85,-149.38 678.7,-137.95"/>
<polygon fill="midnightblue" stroke="midnightblue" points="679.55,-141.35 688.69,-135.97 678.2,-134.48 679.55,-141.35"/>
</g>
<!-- Node24&#45;&gt;Node20 -->
<g id="edge36" class="edge">
<title>Node24&#45;&gt;Node20</title>
<path fill="none" stroke="midnightblue" d="M448.71,-179.48C476.5,-169.27 523.22,-152.11 554.69,-140.55"/>
<polygon fill="midnightblue" stroke="midnightblue" points="556.15,-143.74 564.33,-137.01 553.74,-137.17 556.15,-143.74"/>
</g>
<!-- Node24&#45;&gt;Node22 -->
<g id="edge39" class="edge">
<title>Node24&#45;&gt;Node22</title>
<path fill="none" stroke="midnightblue" d="M430.45,-179.39C444.82,-155.24 489.22,-86.67 546.5,-56 589.84,-32.79 732.97,-18.95 800.12,-13.58"/>
<polygon fill="midnightblue" stroke="midnightblue" points="800.53,-17.06 810.22,-12.79 799.98,-10.08 800.53,-17.06"/>
</g>
<!-- Node25&#45;&gt;Node2 -->
<g id="edge43" class="edge">
<title>Node25&#45;&gt;Node2</title>
<path fill="none" stroke="midnightblue" d="M742.49,-179.44C725.97,-170.9 700.39,-157.05 679.5,-143 661.13,-130.64 660.64,-121.2 640.5,-112 572.03,-80.72 483.07,-71.19 435,-68.28"/>
<polygon fill="midnightblue" stroke="midnightblue" points="434.99,-64.77 424.82,-67.72 434.61,-71.76 434.99,-64.77"/>
</g>
<!-- Node25&#45;&gt;Node11 -->
<g id="edge44" class="edge">
<title>Node25&#45;&gt;Node11</title>
<path fill="none" stroke="midnightblue" d="M700.06,-182.99C576.43,-172.49 301.33,-148.68 281.5,-143 279.83,-142.52 278.13,-141.95 276.45,-141.3"/>
<polygon fill="midnightblue" stroke="midnightblue" points="277.68,-138.02 267.12,-137.13 274.82,-144.41 277.68,-138.02"/>
</g>
<!-- Node25&#45;&gt;Node18 -->
<g id="edge41" class="edge">
<title>Node25&#45;&gt;Node18</title>
<path fill="none" stroke="midnightblue" d="M754.77,-179.48C749.92,-170.73 742.23,-156.87 736.1,-145.81"/>
<polygon fill="midnightblue" stroke="midnightblue" points="739.13,-144.06 731.22,-137.01 733.01,-147.45 739.13,-144.06"/>
</g>
<!-- Node25&#45;&gt;Node20 -->
<g id="edge42" class="edge">
<title>Node25&#45;&gt;Node20</title>
<path fill="none" stroke="midnightblue" d="M734.86,-179.48C705.22,-169.22 655.32,-151.96 621.9,-140.4"/>
<polygon fill="midnightblue" stroke="midnightblue" points="622.69,-136.97 612.1,-137.01 620.4,-143.59 622.69,-136.97"/>
</g>
<!-- Node25&#45;&gt;Node22 -->
<g id="edge45" class="edge">
<title>Node25&#45;&gt;Node22</title>
<path fill="none" stroke="midnightblue" d="M763.17,-179.46C774.87,-152.19 811.55,-66.78 827.71,-29.13"/>
<polygon fill="midnightblue" stroke="midnightblue" points="830.96,-30.44 831.69,-19.87 824.53,-27.68 830.96,-30.44"/>
</g>
<!-- Node26&#45;&gt;Node2 -->
<g id="edge48" class="edge">
<title>Node26&#45;&gt;Node2</title>
<path fill="none" stroke="midnightblue" d="M911.32,-179.44C885.73,-163.26 827.03,-128.39 772.5,-112 709.52,-93.07 514.01,-75.97 434.57,-69.62"/>
<polygon fill="midnightblue" stroke="midnightblue" points="434.84,-66.13 424.59,-68.83 434.29,-73.11 434.84,-66.13"/>
</g>
<!-- Node26&#45;&gt;Node11 -->
<g id="edge49" class="edge">
<title>Node26&#45;&gt;Node11</title>
<path fill="none" stroke="midnightblue" d="M874.68,-183.12C859.53,-181.71 842.84,-180.22 827.5,-179 585.07,-159.76 516.22,-206.63 281.5,-143 279.78,-142.53 278.05,-141.96 276.32,-141.32"/>
<polygon fill="midnightblue" stroke="midnightblue" points="277.36,-137.95 266.8,-137.06 274.5,-144.34 277.36,-137.95"/>
</g>
<!-- Node26&#45;&gt;Node18 -->
<g id="edge47" class="edge">
<title>Node26&#45;&gt;Node18</title>
<path fill="none" stroke="midnightblue" d="M896.13,-179.48C861.58,-169.09 803.08,-151.51 764.62,-139.95"/>
<polygon fill="midnightblue" stroke="midnightblue" points="765.4,-136.54 754.82,-137.01 763.39,-143.24 765.4,-136.54"/>
</g>
<!-- Node26&#45;&gt;Node22 -->
<g id="edge50" class="edge">
<title>Node26&#45;&gt;Node22</title>
<path fill="none" stroke="midnightblue" d="M916.49,-179.5C908.53,-170.78 896.27,-156.6 887.5,-143 869.51,-115.11 866.54,-106.94 854.5,-76 848.51,-60.59 843.36,-42.5 839.95,-29.32"/>
<polygon fill="midnightblue" stroke="midnightblue" points="843.33,-28.42 837.5,-19.57 836.54,-30.12 843.33,-28.42"/>
</g>
<!-- Node27 -->
<g id="node27" class="node">
<title>Node27</title>
<g id="a_node27"><a xlink:href="pokeys__ini_8c.html" target="_top" xlink:title=" ">
<polygon fill="white" stroke="black" points="897,-118 897,-137 974,-137 974,-118 897,-118"/>
<text text-anchor="middle" x="935.5" y="-125" font-family="Helvetica,sans-Serif" font-size="10.00">pokeys_ini.c</text>
</a>
</g>
</g>
<!-- Node26&#45;&gt;Node27 -->
<g id="edge51" class="edge">
<title>Node26&#45;&gt;Node27</title>
<path fill="none" stroke="midnightblue" d="M926.08,-179.48C927.63,-171.08 930.05,-157.98 932.05,-147.16"/>
<polygon fill="midnightblue" stroke="midnightblue" points="935.55,-147.48 933.93,-137.01 928.67,-146.21 935.55,-147.48"/>
</g>
<!-- Node27&#45;&gt;Node7 -->
<g id="edge54" class="edge">
<title>Node27&#45;&gt;Node7</title>
<path fill="none" stroke="midnightblue" d="M896.86,-119.38C834.02,-107.81 710.52,-85.06 649.05,-73.73"/>
<polygon fill="midnightblue" stroke="midnightblue" points="649.5,-70.26 639.03,-71.89 648.23,-77.14 649.5,-70.26"/>
</g>
<!-- Node27&#45;&gt;Node21 -->
<g id="edge52" class="edge">
<title>Node27&#45;&gt;Node21</title>
<path fill="none" stroke="midnightblue" d="M940.94,-117.98C946.59,-109.14 955.56,-95.09 962.66,-83.98"/>
<polygon fill="midnightblue" stroke="midnightblue" points="965.63,-85.82 968.07,-75.51 959.73,-82.05 965.63,-85.82"/>
</g>
<!-- Node27&#45;&gt;Node28 -->
<g id="edge53" class="edge">
<title>Node27&#45;&gt;Node28</title>
<path fill="none" stroke="midnightblue" d="M965.01,-117.98C1001.96,-107.3 1065.23,-89.03 1105.13,-77.51"/>
<polygon fill="midnightblue" stroke="midnightblue" points="1106.35,-80.8 1114.98,-74.66 1104.4,-74.07 1106.35,-80.8"/>
</g>
<!-- Node29 -->
<g id="node29" class="node">
<title>Node29</title>
<g id="a_node29"><a xlink:title=" ">
<polygon fill="white" stroke="#bfbfbf" points="864,-56.5 864,-75.5 917,-75.5 917,-56.5 864,-56.5"/>
<text text-anchor="middle" x="890.5" y="-63.5" font-family="Helvetica,sans-Serif" font-size="10.00">ctype.h</text>
</a>
</g>
</g>
<!-- Node27&#45;&gt;Node29 -->
<g id="edge55" class="edge">
<title>Node27&#45;&gt;Node29</title>
<path fill="none" stroke="midnightblue" d="M929.05,-117.98C922.3,-109.05 911.53,-94.81 903.09,-83.64"/>
<polygon fill="midnightblue" stroke="midnightblue" points="905.76,-81.37 896.94,-75.51 900.18,-85.6 905.76,-81.37"/>
</g>
<!-- Node30&#45;&gt;Node20 -->
<g id="edge58" class="edge">
<title>Node30&#45;&gt;Node20</title>
<path fill="none" stroke="midnightblue" d="M1139.68,-179.74C1136.92,-179.49 1134.19,-179.24 1131.5,-179 930.77,-161.08 879.63,-166.7 679.5,-143 667.46,-141.57 654.57,-139.74 642.38,-137.86"/>
<polygon fill="midnightblue" stroke="midnightblue" points="642.75,-134.37 632.33,-136.27 641.66,-141.29 642.75,-134.37"/>
</g>
<!-- Node30&#45;&gt;Node28 -->
<g id="edge57" class="edge">
<title>Node30&#45;&gt;Node28</title>
<path fill="none" stroke="midnightblue" d="M1205.21,-179.49C1191.37,-171.81 1172.51,-159.22 1161.5,-143 1149.8,-125.76 1144.94,-102.03 1142.92,-85.7"/>
<polygon fill="midnightblue" stroke="midnightblue" points="1146.41,-85.35 1141.93,-75.75 1139.44,-86.04 1146.41,-85.35"/>
</g>
<!-- Node31 -->
<g id="node31" class="node">
<title>Node31</title>
<g id="a_node31"><a xlink:href="PokeysCompPulsEngine__base_8c.html" target="_top" xlink:title="Base routines for setting up HAL pins and parameters for PoKeys Pulse Engine v2.">
<polygon fill="white" stroke="black" points="1170,-112.5 1170,-142.5 1303,-142.5 1303,-112.5 1170,-112.5"/>
<text text-anchor="start" x="1178" y="-130.5" font-family="Helvetica,sans-Serif" font-size="10.00">PokeysCompPulsEngine</text>
<text text-anchor="middle" x="1236.5" y="-119.5" font-family="Helvetica,sans-Serif" font-size="10.00">_base.c</text>
</a>
</g>
</g>
<!-- Node30&#45;&gt;Node31 -->
<g id="edge59" class="edge">
<title>Node30&#45;&gt;Node31</title>
<path fill="none" stroke="midnightblue" d="M1224.51,-179.48C1226.17,-172.4 1228.62,-161.97 1230.88,-152.39"/>
<polygon fill="midnightblue" stroke="midnightblue" points="1234.32,-153.06 1233.2,-142.52 1227.5,-151.46 1234.32,-153.06"/>
</g>
<!-- Node32&#45;&gt;Node22 -->
<g id="edge62" class="edge">
<title>Node32&#45;&gt;Node22</title>
<path fill="none" stroke="midnightblue" d="M1095.62,-179.35C1095.44,-155.71 1091.49,-89.51 1054.5,-56 1027.88,-31.88 925.29,-19.12 870.49,-13.9"/>
<polygon fill="midnightblue" stroke="midnightblue" points="870.8,-10.41 860.52,-12.98 870.16,-17.38 870.8,-10.41"/>
</g>
</g>
</svg>
        <g id="navigator" transform="translate(0 0)" fill="#404254">
                <rect fill="#f2f5e9" fill-opacity="0.5" stroke="#606060" stroke-width=".5" x="0" y="0" width="60" height="60"/>
                <use id="zoomplus" xlink:href="#zoomPlus" x="17" y="9" onmousedown="handleZoom(evt,'in')"/>
                <use id="zoomminus" xlink:href="#zoomMin" x="42" y="9" onmousedown="handleZoom(evt,'out')"/>
                <use id="reset" xlink:href="#resetDef" x="30" y="36" onmousedown="handleReset()"/>
                <g id="arrowUp" xlink:href="#dirArrow" transform="translate(30 24)" onmousedown="handlePan(0,-1)">
                  <use xlink:href="#rim" fill="#404040">
                        <set attributeName="fill" to="#808080" begin="arrowUp.mouseover" end="arrowUp.mouseout"/>
                  </use>
                  <path fill="none" stroke="white" stroke-width="1.5" d="M0,-3.0v7 M-2.5,-0.5L0,-3.0L2.5,-0.5"/>
                </g>
                <g id="arrowRight" xlink:href="#dirArrow" transform="rotate(90) translate(36 -43)" onmousedown="handlePan(1,0)">
                  <use xlink:href="#rim" fill="#404040">
                        <set attributeName="fill" to="#808080" begin="arrowRight.mouseover" end="arrowRight.mouseout"/>
                  </use>
                  <path fill="none" stroke="white" stroke-width="1.5" d="M0,-3.0v7 M-2.5,-0.5L0,-3.0L2.5,-0.5"/>
                </g>
                <g id="arrowDown" xlink:href="#dirArrow" transform="rotate(180) translate(-30 -48)" onmousedown="handlePan(0,1)">
                  <use xlink:href="#rim" fill="#404040">
                        <set attributeName="fill" to="#808080" begin="arrowDown.mouseover" end="arrowDown.mouseout"/>
                  </use>
                  <path fill="none" stroke="white" stroke-width="1.5" d="M0,-3.0v7 M-2.5,-0.5L0,-3.0L2.5,-0.5"/>
                </g>
                <g id="arrowLeft" xlink:href="#dirArrow" transform="rotate(270) translate(-36 17)" onmousedown="handlePan(-1,0)">
                  <use xlink:href="#rim" fill="#404040">
                        <set attributeName="fill" to="#808080" begin="arrowLeft.mouseover" end="arrowLeft.mouseout"/>
                  </use>
                  <path fill="none" stroke="white" stroke-width="1.5" d="M0,-3.0v7 M-2.5,-0.5L0,-3.0L2.5,-0.5"/>
                </g>
        </g>
        <svg viewBox="0 0 15 15" width="100%" height="30px" preserveAspectRatio="xMaxYMin meet">
         <g id="arrow_out" transform="scale(0.3 0.3)">
          <a xlink:href="pokeys_8c__incl_org.svg" target="_base">
           <rect id="button" ry="5" rx="5" y="6" x="6" height="38" width="38"
                fill="#f2f5e9" fill-opacity="0.5" stroke="#606060" stroke-width="1.0"/>
           <path id="arrow"
             d="M 11.500037,31.436501 C 11.940474,20.09759 22.043105,11.32322 32.158766,21.979434 L 37.068811,17.246167 C 37.068811,17.246167 37.088388,32 37.088388,32 L 22.160133,31.978069 C 22.160133,31.978069 26.997745,27.140456 26.997745,27.140456 C 18.528582,18.264221 13.291696,25.230495 11.500037,31.436501 z"
             style="fill:#404040;"/>
          </a>
         </g>
        </svg>
</svg>
