<?xml version="1.0" encoding="UTF-8" standalone="no"?>
<!DOCTYPE svg PUBLIC "-//W3C//DTD SVG 1.1//EN"
 "http://www.w3.org/Graphics/SVG/1.1/DTD/svg11.dtd">
<!-- Generated by graphviz version 2.43.0 (0)
 -->
<!-- Title: PK_ConnectToDevice Pages: 1 -->
<svg width="969pt" height="256pt"
 viewBox="0.00 0.00 969.00 256.00" xmlns="http://www.w3.org/2000/svg" xmlns:xlink="http://www.w3.org/1999/xlink">
<g id="graph0" class="graph" transform="scale(1 1) rotate(0) translate(4 252)">
<title>PK_ConnectToDevice</title>
<polygon fill="white" stroke="transparent" points="-4,4 -4,-252 965,-252 965,4 -4,4"/>
<!-- Node1 -->
<g id="node1" class="node">
<title>Node1</title>
<g id="a_node1"><a xlink:title=" ">
<polygon fill="#bfbfbf" stroke="black" points="0,-114.5 0,-133.5 119,-133.5 119,-114.5 0,-114.5"/>
<text text-anchor="middle" x="59.5" y="-121.5" font-family="Helvetica,sans-Serif" font-size="10.00">PK_ConnectToDevice</text>
</a>
</g>
</g>
<!-- Node2 -->
<g id="node2" class="node">
<title>Node2</title>
<g id="a_node2"><a xlink:href="hal_8h.html#a37b839660591a915940fc471bbb5df4f" target="_top" xlink:title=" ">
<polygon fill="white" stroke="black" points="199,-228.5 199,-247.5 269,-247.5 269,-228.5 199,-228.5"/>
<text text-anchor="middle" x="234" y="-235.5" font-family="Helvetica,sans-Serif" font-size="10.00">hal_malloc</text>
</a>
</g>
</g>
<!-- Node1&#45;&gt;Node2 -->
<g id="edge1" class="edge">
<title>Node1&#45;&gt;Node2</title>
<path fill="none" stroke="midnightblue" d="M67.09,-133.52C80.99,-152.81 115.28,-196.6 155,-219 165.33,-224.82 177.41,-228.88 188.93,-231.69"/>
<polygon fill="midnightblue" stroke="midnightblue" points="188.34,-235.14 198.86,-233.86 189.84,-228.31 188.34,-235.14"/>
</g>
<!-- Node3 -->
<g id="node3" class="node">
<title>Node3</title>
<g id="a_node3"><a xlink:href="group__API.html#gaae7d1c3e90835556ddc73fabe3a9ca9d" target="_top" xlink:title="Enumerate the HID Devices.">
<polygon fill="white" stroke="black" points="189,-190.5 189,-209.5 279,-209.5 279,-190.5 189,-190.5"/>
<text text-anchor="middle" x="234" y="-197.5" font-family="Helvetica,sans-Serif" font-size="10.00">hid_enumerate</text>
</a>
</g>
</g>
<!-- Node1&#45;&gt;Node3 -->
<g id="edge2" class="edge">
<title>Node1&#45;&gt;Node3</title>
<path fill="none" stroke="midnightblue" d="M73.58,-133.67C91.22,-146.28 124,-168.23 155,-181 162.6,-184.13 170.85,-186.83 179.03,-189.13"/>
<polygon fill="midnightblue" stroke="midnightblue" points="178.37,-192.58 188.93,-191.73 180.15,-185.81 178.37,-192.58"/>
</g>
<!-- Node4 -->
<g id="node4" class="node">
<title>Node4</title>
<g id="a_node4"><a xlink:href="group__API.html#gafc2d2adf71db3784b783b9a554527aa4" target="_top" xlink:title="Free an enumeration Linked List.">
<polygon fill="white" stroke="black" points="172,-152.5 172,-171.5 296,-171.5 296,-152.5 172,-152.5"/>
<text text-anchor="middle" x="234" y="-159.5" font-family="Helvetica,sans-Serif" font-size="10.00">hid_free_enumeration</text>
</a>
</g>
</g>
<!-- Node1&#45;&gt;Node4 -->
<g id="edge3" class="edge">
<title>Node1&#45;&gt;Node4</title>
<path fill="none" stroke="midnightblue" d="M104.03,-133.59C127.1,-138.67 155.63,-144.96 179.98,-150.32"/>
<polygon fill="midnightblue" stroke="midnightblue" points="179.27,-153.75 189.78,-152.48 180.77,-146.91 179.27,-153.75"/>
</g>
<!-- Node5 -->
<g id="node5" class="node">
<title>Node5</title>
<g id="a_node5"><a xlink:href="group__API.html#ga954ecb58b5dfb4a6ef6be3dcd520e42f" target="_top" xlink:title="Open a HID device by its path name.">
<polygon fill="white" stroke="black" points="190,-114.5 190,-133.5 278,-133.5 278,-114.5 190,-114.5"/>
<text text-anchor="middle" x="234" y="-121.5" font-family="Helvetica,sans-Serif" font-size="10.00">hid_open_path</text>
</a>
</g>
</g>
<!-- Node1&#45;&gt;Node5 -->
<g id="edge4" class="edge">
<title>Node1&#45;&gt;Node5</title>
<path fill="none" stroke="midnightblue" d="M119.38,-124C138.99,-124 160.7,-124 179.85,-124"/>
<polygon fill="midnightblue" stroke="midnightblue" points="179.9,-127.5 189.9,-124 179.9,-120.5 179.9,-127.5"/>
</g>
<!-- Node6 -->
<g id="node6" class="node">
<title>Node6</title>
<g id="a_node6"><a xlink:href="pokeyslib_2PoKeysLibCore_8c.html#ae3a4511713f05f8d9ba2f0250f07957e" target="_top" xlink:title=" ">
<polygon fill="white" stroke="black" points="177,-76.5 177,-95.5 291,-95.5 291,-76.5 177,-76.5"/>
<text text-anchor="middle" x="234" y="-83.5" font-family="Helvetica,sans-Serif" font-size="10.00">InitializeNewDevice</text>
</a>
</g>
</g>
<!-- Node1&#45;&gt;Node6 -->
<g id="edge5" class="edge">
<title>Node1&#45;&gt;Node6</title>
<path fill="none" stroke="midnightblue" d="M104.03,-114.41C127.1,-109.33 155.63,-103.04 179.98,-97.68"/>
<polygon fill="midnightblue" stroke="midnightblue" points="180.77,-101.09 189.78,-95.52 179.27,-94.25 180.77,-101.09"/>
</g>
<!-- Node19 -->
<g id="node19" class="node">
<title>Node19</title>
<g id="a_node19"><a xlink:href="pokeyslib_2PoKeysLibCore_8c.html#a65772c80da4c88876420d893a6b6347a" target="_top" xlink:title=" ">
<polygon fill="white" stroke="black" points="155,-38.5 155,-57.5 313,-57.5 313,-38.5 155,-38.5"/>
<text text-anchor="middle" x="234" y="-45.5" font-family="Helvetica,sans-Serif" font-size="10.00">PK_FastUSBConnectToDevice</text>
</a>
</g>
</g>
<!-- Node1&#45;&gt;Node19 -->
<g id="edge19" class="edge">
<title>Node1&#45;&gt;Node19</title>
<path fill="none" stroke="midnightblue" d="M73.58,-114.33C91.22,-101.72 124,-79.77 155,-67 161.15,-64.47 167.71,-62.22 174.33,-60.24"/>
<polygon fill="midnightblue" stroke="midnightblue" points="175.32,-63.59 184.01,-57.52 173.43,-56.85 175.32,-63.59"/>
</g>
<!-- Node20 -->
<g id="node20" class="node">
<title>Node20</title>
<g id="a_node20"><a xlink:href="rtapi_8h.html#a2432d36976ec87e60c9c92d3c0067182" target="_top" xlink:title=" ">
<polygon fill="white" stroke="black" points="187.5,-0.5 187.5,-19.5 280.5,-19.5 280.5,-0.5 187.5,-0.5"/>
<text text-anchor="middle" x="234" y="-7.5" font-family="Helvetica,sans-Serif" font-size="10.00">rtapi_print_msg</text>
</a>
</g>
</g>
<!-- Node1&#45;&gt;Node20 -->
<g id="edge20" class="edge">
<title>Node1&#45;&gt;Node20</title>
<path fill="none" stroke="midnightblue" d="M67.09,-114.48C80.99,-95.19 115.28,-51.4 155,-29 161.91,-25.1 169.61,-22 177.4,-19.53"/>
<polygon fill="midnightblue" stroke="midnightblue" points="178.61,-22.82 187.27,-16.72 176.69,-16.09 178.61,-22.82"/>
</g>
<!-- Node7 -->
<g id="node7" class="node">
<title>Node7</title>
<g id="a_node7"><a xlink:href="pokeysHal_2PoKeysLibDeviceData_8c.html#a9508e9fcbc964cae1ccdb57f582cb5e1" target="_top" xlink:title="Read device identification and feature set.">
<polygon fill="white" stroke="black" points="361,-114.5 361,-133.5 470,-133.5 470,-114.5 361,-114.5"/>
<text text-anchor="middle" x="415.5" y="-121.5" font-family="Helvetica,sans-Serif" font-size="10.00">PK_DeviceDataGet</text>
</a>
</g>
</g>
<!-- Node6&#45;&gt;Node7 -->
<g id="edge6" class="edge">
<title>Node6&#45;&gt;Node7</title>
<path fill="none" stroke="midnightblue" d="M280.3,-95.59C304.41,-100.69 334.25,-107.01 359.67,-112.39"/>
<polygon fill="midnightblue" stroke="midnightblue" points="359.02,-115.83 369.53,-114.48 360.47,-108.98 359.02,-115.83"/>
</g>
<!-- Node16 -->
<g id="node16" class="node">
<title>Node16</title>
<g id="a_node16"><a xlink:href="pokeysHal_2PoKeysLibDeviceData_8c.html#ae4798f617a5dd5ebb93c534258cd0eb9" target="_top" xlink:title="Populate PWM pin ID table in the device structure.">
<polygon fill="white" stroke="black" points="349,-76.5 349,-95.5 482,-95.5 482,-76.5 349,-76.5"/>
<text text-anchor="middle" x="415.5" y="-83.5" font-family="Helvetica,sans-Serif" font-size="10.00">PK_FillPWMPinNumbers</text>
</a>
</g>
</g>
<!-- Node6&#45;&gt;Node16 -->
<g id="edge16" class="edge">
<title>Node6&#45;&gt;Node16</title>
<path fill="none" stroke="midnightblue" d="M291.3,-86C306.32,-86 322.78,-86 338.66,-86"/>
<polygon fill="midnightblue" stroke="midnightblue" points="338.98,-89.5 348.98,-86 338.98,-82.5 338.98,-89.5"/>
</g>
<!-- Node17 -->
<g id="node17" class="node">
<title>Node17</title>
<g id="a_node17"><a xlink:href="pokeysHal_2PoKeysLibIO_8c.html#a4397536c30fe3f56eb74b56210839349" target="_top" xlink:title="Check if a pin supports a counter (command 0xC0/0x01).">
<polygon fill="white" stroke="black" points="352.5,-38.5 352.5,-57.5 478.5,-57.5 478.5,-38.5 352.5,-38.5"/>
<text text-anchor="middle" x="415.5" y="-45.5" font-family="Helvetica,sans-Serif" font-size="10.00">PK_IsCounterAvailable</text>
</a>
</g>
</g>
<!-- Node6&#45;&gt;Node17 -->
<g id="edge17" class="edge">
<title>Node6&#45;&gt;Node17</title>
<path fill="none" stroke="midnightblue" d="M280.3,-76.41C304.41,-71.31 334.25,-64.99 359.67,-59.61"/>
<polygon fill="midnightblue" stroke="midnightblue" points="360.47,-63.02 369.53,-57.52 359.02,-56.17 360.47,-63.02"/>
</g>
<!-- Node8 -->
<g id="node8" class="node">
<title>Node8</title>
<g id="a_node8"><a xlink:href="pokeyslib_2PoKeysLibDeviceData_8c.html#a8fa8788bebd4d9501da88a32620a6be1" target="_top" xlink:title=" ">
<polygon fill="white" stroke="black" points="559.5,-114.5 559.5,-133.5 649.5,-133.5 649.5,-114.5 559.5,-114.5"/>
<text text-anchor="middle" x="604.5" y="-121.5" font-family="Helvetica,sans-Serif" font-size="10.00">CompareName</text>
</a>
</g>
</g>
<!-- Node7&#45;&gt;Node8 -->
<g id="edge7" class="edge">
<title>Node7&#45;&gt;Node8</title>
<path fill="none" stroke="midnightblue" d="M470.09,-124C494.94,-124 524.42,-124 549.35,-124"/>
<polygon fill="midnightblue" stroke="midnightblue" points="549.36,-127.5 559.36,-124 549.36,-120.5 549.36,-127.5"/>
</g>
<!-- Node9 -->
<g id="node9" class="node">
<title>Node9</title>
<g id="a_node9"><a xlink:href="pokeyslib_2PoKeysLibCore_8c.html#acb1fdd8f77277dc66c4d037218bfcece" target="_top" xlink:title=" ">
<polygon fill="white" stroke="black" points="560,-76.5 560,-95.5 649,-95.5 649,-76.5 560,-76.5"/>
<text text-anchor="middle" x="604.5" y="-83.5" font-family="Helvetica,sans-Serif" font-size="10.00">CreateRequest</text>
</a>
</g>
</g>
<!-- Node7&#45;&gt;Node9 -->
<g id="edge8" class="edge">
<title>Node7&#45;&gt;Node9</title>
<path fill="none" stroke="midnightblue" d="M463.69,-114.41C489.88,-109.09 522.56,-102.45 549.73,-96.93"/>
<polygon fill="midnightblue" stroke="midnightblue" points="550.75,-100.29 559.86,-94.87 549.36,-93.43 550.75,-100.29"/>
</g>
<!-- Node10 -->
<g id="node10" class="node">
<title>Node10</title>
<g id="a_node10"><a xlink:href="pokeyslib_2PoKeysLibCore_8c.html#ab5d92aa36d0a4a6953a055f5cd960aff" target="_top" xlink:title=" ">
<polygon fill="white" stroke="black" points="564.5,-152.5 564.5,-171.5 644.5,-171.5 644.5,-152.5 564.5,-152.5"/>
<text text-anchor="middle" x="604.5" y="-159.5" font-family="Helvetica,sans-Serif" font-size="10.00">SendRequest</text>
</a>
</g>
</g>
<!-- Node7&#45;&gt;Node10 -->
<g id="edge9" class="edge">
<title>Node7&#45;&gt;Node10</title>
<path fill="none" stroke="midnightblue" d="M463.69,-133.59C491.34,-139.21 526.23,-146.3 554.24,-151.99"/>
<polygon fill="midnightblue" stroke="midnightblue" points="553.72,-155.46 564.22,-154.02 555.12,-148.6 553.72,-155.46"/>
</g>
<!-- Node11 -->
<g id="node11" class="node">
<title>Node11</title>
<g id="a_node11"><a xlink:href="pokeyslib_2PoKeysLibCore_8c.html#a273b6d635dea8f559b915cdb289d021e" target="_top" xlink:title=" ">
<polygon fill="white" stroke="black" points="868.5,-133.5 868.5,-152.5 951.5,-152.5 951.5,-133.5 868.5,-133.5"/>
<text text-anchor="middle" x="910" y="-140.5" font-family="Helvetica,sans-Serif" font-size="10.00">getChecksum</text>
</a>
</g>
</g>
<!-- Node10&#45;&gt;Node11 -->
<g id="edge10" class="edge">
<title>Node10&#45;&gt;Node11</title>
<path fill="none" stroke="midnightblue" d="M644.54,-164.54C688.17,-166.79 760.88,-168.78 823,-162 836.57,-160.52 851.13,-157.76 864.34,-154.8"/>
<polygon fill="midnightblue" stroke="midnightblue" points="865.2,-158.19 874.14,-152.51 863.61,-151.37 865.2,-158.19"/>
</g>
<!-- Node12 -->
<g id="node12" class="node">
<title>Node12</title>
<g id="a_node12"><a xlink:href="group__API.html#ga6b820f3e72097cf7f994e33715dc7af1" target="_top" xlink:title="Read an Input report from a HID device.">
<polygon fill="white" stroke="black" points="745.5,-209.5 745.5,-228.5 804.5,-228.5 804.5,-209.5 745.5,-209.5"/>
<text text-anchor="middle" x="775" y="-216.5" font-family="Helvetica,sans-Serif" font-size="10.00">hid_read</text>
</a>
</g>
</g>
<!-- Node10&#45;&gt;Node12 -->
<g id="edge11" class="edge">
<title>Node10&#45;&gt;Node12</title>
<path fill="none" stroke="midnightblue" d="M633.7,-171.54C661.77,-181.03 705.02,-195.67 736.08,-206.17"/>
<polygon fill="midnightblue" stroke="midnightblue" points="735.11,-209.54 745.7,-209.43 737.35,-202.91 735.11,-209.54"/>
</g>
<!-- Node14 -->
<g id="node14" class="node">
<title>Node14</title>
<g id="a_node14"><a xlink:href="group__API.html#gad14ea48e440cf5066df87cc6488493af" target="_top" xlink:title="Write an Output report to a HID device.">
<polygon fill="white" stroke="black" points="744,-133.5 744,-152.5 806,-152.5 806,-133.5 744,-133.5"/>
<text text-anchor="middle" x="775" y="-140.5" font-family="Helvetica,sans-Serif" font-size="10.00">hid_write</text>
</a>
</g>
</g>
<!-- Node10&#45;&gt;Node14 -->
<g id="edge13" class="edge">
<title>Node10&#45;&gt;Node14</title>
<path fill="none" stroke="midnightblue" d="M644.58,-157.59C671.27,-154.58 706.55,-150.61 733.54,-147.56"/>
<polygon fill="midnightblue" stroke="midnightblue" points="734.26,-151 743.8,-146.41 733.47,-144.05 734.26,-151"/>
</g>
<!-- Node15 -->
<g id="node15" class="node">
<title>Node15</title>
<g id="a_node15"><a xlink:href="pokeyslib_2PoKeysLibCoreSockets_8c.html#a22759fb4024c9081af26ac1bc6541b47" target="_top" xlink:title=" ">
<polygon fill="white" stroke="black" points="727,-95.5 727,-114.5 823,-114.5 823,-95.5 727,-95.5"/>
<text text-anchor="middle" x="775" y="-102.5" font-family="Helvetica,sans-Serif" font-size="10.00">SendEthRequest</text>
</a>
</g>
</g>
<!-- Node10&#45;&gt;Node15 -->
<g id="edge14" class="edge">
<title>Node10&#45;&gt;Node15</title>
<path fill="none" stroke="midnightblue" d="M644.86,-155.54C659.59,-152.53 676.3,-148.4 691,-143 707.98,-136.76 710.59,-131.62 727,-124 731.06,-122.11 735.36,-120.23 739.65,-118.41"/>
<polygon fill="midnightblue" stroke="midnightblue" points="741.01,-121.64 748.92,-114.59 738.34,-115.17 741.01,-121.64"/>
</g>
<!-- Node13 -->
<g id="node13" class="node">
<title>Node13</title>
<g id="a_node13"><a xlink:href="group__API.html#gaa5c9ed5aa290688ffac03343989ad75a" target="_top" xlink:title="Read an Input report from a HID device with timeout.">
<polygon fill="white" stroke="black" points="859,-209.5 859,-228.5 961,-228.5 961,-209.5 859,-209.5"/>
<text text-anchor="middle" x="910" y="-216.5" font-family="Helvetica,sans-Serif" font-size="10.00">hid_read_timeout</text>
</a>
</g>
</g>
<!-- Node12&#45;&gt;Node13 -->
<g id="edge12" class="edge">
<title>Node12&#45;&gt;Node13</title>
<path fill="none" stroke="midnightblue" d="M804.53,-219C817.49,-219 833.35,-219 848.75,-219"/>
<polygon fill="midnightblue" stroke="midnightblue" points="848.77,-222.5 858.77,-219 848.77,-215.5 848.77,-222.5"/>
</g>
<!-- Node15&#45;&gt;Node11 -->
<g id="edge15" class="edge">
<title>Node15&#45;&gt;Node11</title>
<path fill="none" stroke="midnightblue" d="M809.56,-114.59C826.57,-119.45 847.43,-125.41 865.64,-130.61"/>
<polygon fill="midnightblue" stroke="midnightblue" points="864.87,-134.03 875.45,-133.41 866.8,-127.3 864.87,-134.03"/>
</g>
<!-- Node18 -->
<g id="node18" class="node">
<title>Node18</title>
<g id="a_node18"><a xlink:href="pokeyslib_2PoKeysLibIO_8c.html#ae7007ad0d96ba1ff2fadba2101016ce7" target="_top" xlink:title=" ">
<polygon fill="white" stroke="black" points="518,-38.5 518,-57.5 691,-57.5 691,-38.5 518,-38.5"/>
<text text-anchor="middle" x="604.5" y="-45.5" font-family="Helvetica,sans-Serif" font-size="10.00">PK_IsCounterAvailableByDevice</text>
</a>
</g>
</g>
<!-- Node17&#45;&gt;Node18 -->
<g id="edge18" class="edge">
<title>Node17&#45;&gt;Node18</title>
<path fill="none" stroke="midnightblue" d="M478.51,-48C488,-48 497.98,-48 507.99,-48"/>
<polygon fill="midnightblue" stroke="midnightblue" points="507.99,-51.5 517.99,-48 507.99,-44.5 507.99,-51.5"/>
</g>
</g>
</svg>
