<?xml version="1.0" encoding="UTF-8" standalone="no"?>
<!DOCTYPE svg PUBLIC "-//W3C//DTD SVG 1.1//EN"
 "http://www.w3.org/Graphics/SVG/1.1/DTD/svg11.dtd">
<!-- Generated by graphviz version 2.43.0 (0)
 -->
<!-- Title: /home/cnc/actions&#45;runner/_work/LinuxCnc_PokeysLibComp/LinuxCnc_PokeysLibComp/external/pokeyslib/PoKeysLib.h Pages: 1 -->
<!--zoomable 239 -->
<svg id="main" version="1.1" xmlns="http://www.w3.org/2000/svg" xmlns:xlink="http://www.w3.org/1999/xlink" xml:space="preserve" onload="init(evt)">
<style type="text/css"><![CDATA[
.edge:hover path { stroke: red; }
.edge:hover polygon { stroke: red; fill: red; }
]]></style>
<script type="text/javascript"><![CDATA[
var edges = document.getElementsByTagName('g');
if (edges && edges.length) {
  for (var i=0;i<edges.length;i++) {
    if (edges[i].id.substr(0,4)=='edge') {
      edges[i].setAttribute('class','edge');
    }
  }
}
]]></script>
        <defs>
                <circle id="rim" cx="0" cy="0" r="7"/>
                <circle id="rim2" cx="0" cy="0" r="3.5"/>
                <g id="zoomPlus">
                        <use xlink:href="#rim" fill="#404040">
                                <set attributeName="fill" to="#808080" begin="zoomplus.mouseover" end="zoomplus.mouseout"/>
                        </use>
                        <path d="M-4,0h8M0,-4v8" fill="none" stroke="white" stroke-width="1.5" pointer-events="none"/>
                </g>
                <g id="zoomMin">
                        <use xlink:href="#rim" fill="#404040">
                                <set attributeName="fill" to="#808080" begin="zoomminus.mouseover" end="zoomminus.mouseout"/>
                        </use>
                        <path d="M-4,0h8" fill="none" stroke="white" stroke-width="1.5" pointer-events="none"/>
                </g>
                <g id="dirArrow">
                        <path fill="none" stroke="white" stroke-width="1.5" d="M0,-3.0v7 M-2.5,-0.5L0,-3.0L2.5,-0.5"/>
                </g>
               <g id="resetDef">
                       <use xlink:href="#rim2" fill="#404040">
                               <set attributeName="fill" to="#808080" begin="reset.mouseover" end="reset.mouseout"/>
                       </use>
               </g>
        </defs>

<script type="text/javascript">
var viewWidth = 4644;
var viewHeight = 239;
var sectionId = 'dynsection-1';
</script>
<script xlink:href="svgpan.js"/>
<svg id="graph" class="graph">
<g id="viewport">
<title>/home/cnc/actions&#45;runner/_work/LinuxCnc_PokeysLibComp/LinuxCnc_PokeysLibComp/external/pokeyslib/PoKeysLib.h</title>
<polygon fill="white" stroke="transparent" points="-4,4 -4,-235 4640,-235 4640,4 -4,4"/>
<!-- Node1 -->
<g id="node1" class="node">
<title>Node1</title>
<g id="a_node1"><a xlink:title=" ">
<polygon fill="#bfbfbf" stroke="black" points="2042,-178.5 2042,-230.5 2232,-230.5 2232,-178.5 2042,-178.5"/>
<text text-anchor="start" x="2050" y="-218.5" font-family="Helvetica,sans-Serif" font-size="10.00">/home/cnc/actions&#45;runner</text>
<text text-anchor="start" x="2050" y="-207.5" font-family="Helvetica,sans-Serif" font-size="10.00">/_work/LinuxCnc_PokeysLibComp</text>
<text text-anchor="start" x="2050" y="-196.5" font-family="Helvetica,sans-Serif" font-size="10.00">/LinuxCnc_PokeysLibComp/external</text>
<text text-anchor="middle" x="2137" y="-185.5" font-family="Helvetica,sans-Serif" font-size="10.00">/pokeyslib/PoKeysLib.h</text>
</a>
</g>
</g>
<!-- Node2 -->
<g id="node2" class="node">
<title>Node2</title>
<g id="a_node2"><a xlink:href="pokeyslib_2PoKeysLib1Wire_8c.html" target="_top" xlink:title=" ">
<polygon fill="white" stroke="black" points="480,-0.5 480,-52.5 670,-52.5 670,-0.5 480,-0.5"/>
<text text-anchor="start" x="488" y="-40.5" font-family="Helvetica,sans-Serif" font-size="10.00">/home/cnc/actions&#45;runner</text>
<text text-anchor="start" x="488" y="-29.5" font-family="Helvetica,sans-Serif" font-size="10.00">/_work/LinuxCnc_PokeysLibComp</text>
<text text-anchor="start" x="488" y="-18.5" font-family="Helvetica,sans-Serif" font-size="10.00">/LinuxCnc_PokeysLibComp/external</text>
<text text-anchor="middle" x="575" y="-7.5" font-family="Helvetica,sans-Serif" font-size="10.00">/pokeyslib/PoKeysLib1Wire.c</text>
</a>
</g>
</g>
<!-- Node1&#45;&gt;Node2 -->
<g id="edge1" class="edge">
<title>Node1&#45;&gt;Node2</title>
<path fill="none" stroke="midnightblue" d="M2031.63,-194.57C1916.64,-184.27 1727.25,-165.67 1565,-142 1436.65,-123.28 1406.76,-104.7 1278,-89 1013.26,-56.72 942.7,-92.92 679,-53 676.06,-52.55 673.08,-52.07 670.08,-51.54"/>
<polygon fill="midnightblue" stroke="midnightblue" points="2031.57,-198.08 2041.84,-195.48 2032.19,-191.11 2031.57,-198.08"/>
</g>
<!-- Node3 -->
<g id="node3" class="node">
<title>Node3</title>
<g id="a_node3"><a xlink:href="pokeyslib_2PoKeysLibCAN_8c.html" target="_top" xlink:title=" ">
<polygon fill="white" stroke="black" points="688,-0.5 688,-52.5 878,-52.5 878,-0.5 688,-0.5"/>
<text text-anchor="start" x="696" y="-40.5" font-family="Helvetica,sans-Serif" font-size="10.00">/home/cnc/actions&#45;runner</text>
<text text-anchor="start" x="696" y="-29.5" font-family="Helvetica,sans-Serif" font-size="10.00">/_work/LinuxCnc_PokeysLibComp</text>
<text text-anchor="start" x="696" y="-18.5" font-family="Helvetica,sans-Serif" font-size="10.00">/LinuxCnc_PokeysLibComp/external</text>
<text text-anchor="middle" x="783" y="-7.5" font-family="Helvetica,sans-Serif" font-size="10.00">/pokeyslib/PoKeysLibCAN.c</text>
</a>
</g>
</g>
<!-- Node1&#45;&gt;Node3 -->
<g id="edge2" class="edge">
<title>Node1&#45;&gt;Node3</title>
<path fill="none" stroke="midnightblue" d="M2031.97,-192.55C1948.81,-182.72 1830.08,-166.1 1728,-142 1653.86,-124.5 1639.9,-102.92 1565,-89 1268.32,-33.88 1185.51,-97.12 887,-53 884.06,-52.57 881.08,-52.08 878.07,-51.57"/>
<polygon fill="midnightblue" stroke="midnightblue" points="2031.6,-196.03 2041.94,-193.71 2032.41,-189.07 2031.6,-196.03"/>
</g>
<!-- Node4 -->
<g id="node4" class="node">
<title>Node4</title>
<g id="a_node4"><a xlink:href="pokeyslib_2PoKeysLibCore_8c.html" target="_top" xlink:title=" ">
<polygon fill="white" stroke="black" points="0,-0.5 0,-52.5 190,-52.5 190,-0.5 0,-0.5"/>
<text text-anchor="start" x="8" y="-40.5" font-family="Helvetica,sans-Serif" font-size="10.00">/home/cnc/actions&#45;runner</text>
<text text-anchor="start" x="8" y="-29.5" font-family="Helvetica,sans-Serif" font-size="10.00">/_work/LinuxCnc_PokeysLibComp</text>
<text text-anchor="start" x="8" y="-18.5" font-family="Helvetica,sans-Serif" font-size="10.00">/LinuxCnc_PokeysLibComp/external</text>
<text text-anchor="middle" x="95" y="-7.5" font-family="Helvetica,sans-Serif" font-size="10.00">/pokeyslib/PoKeysLibCore.c</text>
</a>
</g>
</g>
<!-- Node1&#45;&gt;Node4 -->
<g id="edge3" class="edge">
<title>Node1&#45;&gt;Node4</title>
<path fill="none" stroke="midnightblue" d="M2031.72,-202.01C1644.24,-196.28 315.44,-174.36 231,-142 182.87,-123.55 139.66,-80.45 115.43,-52.71"/>
<polygon fill="midnightblue" stroke="midnightblue" points="2031.76,-205.51 2041.81,-202.16 2031.86,-198.51 2031.76,-205.51"/>
</g>
<!-- Node5 -->
<g id="node5" class="node">
<title>Node5</title>
<g id="a_node5"><a xlink:href="pokeyslib_2PoKeysLibCore_8h.html" target="_top" xlink:title=" ">
<polygon fill="white" stroke="black" points="2165,-89.5 2165,-141.5 2355,-141.5 2355,-89.5 2165,-89.5"/>
<text text-anchor="start" x="2173" y="-129.5" font-family="Helvetica,sans-Serif" font-size="10.00">/home/cnc/actions&#45;runner</text>
<text text-anchor="start" x="2173" y="-118.5" font-family="Helvetica,sans-Serif" font-size="10.00">/_work/LinuxCnc_PokeysLibComp</text>
<text text-anchor="start" x="2173" y="-107.5" font-family="Helvetica,sans-Serif" font-size="10.00">/LinuxCnc_PokeysLibComp/external</text>
<text text-anchor="middle" x="2260" y="-96.5" font-family="Helvetica,sans-Serif" font-size="10.00">/pokeyslib/PoKeysLibCore.h</text>
</a>
</g>
</g>
<!-- Node1&#45;&gt;Node5 -->
<g id="edge4" class="edge">
<title>Node1&#45;&gt;Node5</title>
<path fill="none" stroke="midnightblue" d="M2180.82,-172.5C2195.15,-162.37 2210.87,-151.25 2224.5,-141.61"/>
<polygon fill="midnightblue" stroke="midnightblue" points="2178.72,-169.7 2172.58,-178.34 2182.76,-175.42 2178.72,-169.7"/>
</g>
<!-- Node6 -->
<g id="node6" class="node">
<title>Node6</title>
<g id="a_node6"><a xlink:href="pokeyslib_2PoKeysLibCoreSockets_8c.html" target="_top" xlink:title=" ">
<polygon fill="white" stroke="black" points="896,-0.5 896,-52.5 1086,-52.5 1086,-0.5 896,-0.5"/>
<text text-anchor="start" x="904" y="-40.5" font-family="Helvetica,sans-Serif" font-size="10.00">/home/cnc/actions&#45;runner</text>
<text text-anchor="start" x="904" y="-29.5" font-family="Helvetica,sans-Serif" font-size="10.00">/_work/LinuxCnc_PokeysLibComp</text>
<text text-anchor="start" x="904" y="-18.5" font-family="Helvetica,sans-Serif" font-size="10.00">/LinuxCnc_PokeysLibComp/external</text>
<text text-anchor="middle" x="991" y="-7.5" font-family="Helvetica,sans-Serif" font-size="10.00">/pokeyslib/PoKeysLibCoreSockets.c</text>
</a>
</g>
</g>
<!-- Node1&#45;&gt;Node6 -->
<g id="edge27" class="edge">
<title>Node1&#45;&gt;Node6</title>
<path fill="none" stroke="midnightblue" d="M2031.8,-190.33C1971.07,-180.82 1893.9,-165.45 1828,-142 1780.61,-125.13 1776.45,-102.52 1728,-89 1456.58,-13.27 1373.68,-94.73 1095,-53 1092.06,-52.56 1089.08,-52.07 1086.08,-51.55"/>
<polygon fill="midnightblue" stroke="midnightblue" points="2031.37,-193.8 2041.79,-191.86 2032.43,-186.89 2031.37,-193.8"/>
</g>
<!-- Node7 -->
<g id="node7" class="node">
<title>Node7</title>
<g id="a_node7"><a xlink:href="pokeyslib_2PoKeysLibDeviceData_8c.html" target="_top" xlink:title=" ">
<polygon fill="white" stroke="black" points="1104,-0.5 1104,-52.5 1294,-52.5 1294,-0.5 1104,-0.5"/>
<text text-anchor="start" x="1112" y="-40.5" font-family="Helvetica,sans-Serif" font-size="10.00">/home/cnc/actions&#45;runner</text>
<text text-anchor="start" x="1112" y="-29.5" font-family="Helvetica,sans-Serif" font-size="10.00">/_work/LinuxCnc_PokeysLibComp</text>
<text text-anchor="start" x="1112" y="-18.5" font-family="Helvetica,sans-Serif" font-size="10.00">/LinuxCnc_PokeysLibComp/external</text>
<text text-anchor="middle" x="1199" y="-7.5" font-family="Helvetica,sans-Serif" font-size="10.00">/pokeyslib/PoKeysLibDeviceData.c</text>
</a>
</g>
</g>
<!-- Node1&#45;&gt;Node7 -->
<g id="edge31" class="edge">
<title>Node1&#45;&gt;Node7</title>
<path fill="none" stroke="midnightblue" d="M2031.91,-186.19C1988.72,-176.65 1939.07,-162.47 1897,-142 1862.23,-125.08 1864.17,-102.68 1828,-89 1718.63,-47.62 1418.55,-70.99 1303,-53 1300.06,-52.54 1297.08,-52.04 1294.08,-51.51"/>
<polygon fill="midnightblue" stroke="midnightblue" points="2031.37,-189.65 2041.88,-188.33 2032.84,-182.81 2031.37,-189.65"/>
</g>
<!-- Node8 -->
<g id="node8" class="node">
<title>Node8</title>
<g id="a_node8"><a xlink:href="pokeyslib_2PoKeysLibDevicePoKeys57Industrial_8c.html" target="_top" xlink:title=" ">
<polygon fill="white" stroke="black" points="208,-0.5 208,-52.5 462,-52.5 462,-0.5 208,-0.5"/>
<text text-anchor="start" x="216" y="-40.5" font-family="Helvetica,sans-Serif" font-size="10.00">/home/cnc/actions&#45;runner</text>
<text text-anchor="start" x="216" y="-29.5" font-family="Helvetica,sans-Serif" font-size="10.00">/_work/LinuxCnc_PokeysLibComp</text>
<text text-anchor="start" x="216" y="-18.5" font-family="Helvetica,sans-Serif" font-size="10.00">/LinuxCnc_PokeysLibComp/external</text>
<text text-anchor="middle" x="335" y="-7.5" font-family="Helvetica,sans-Serif" font-size="10.00">/pokeyslib/PoKeysLibDevicePoKeys57Industrial.c</text>
</a>
</g>
</g>
<!-- Node1&#45;&gt;Node8 -->
<g id="edge32" class="edge">
<title>Node1&#45;&gt;Node8</title>
<path fill="none" stroke="midnightblue" d="M2031.44,-197.25C1869.28,-187.36 1549.19,-166.65 1278,-142 1098.32,-125.67 649.46,-79.53 471,-53 468.15,-52.58 465.27,-52.14 462.36,-51.68"/>
<polygon fill="midnightblue" stroke="midnightblue" points="2031.69,-200.77 2041.89,-197.89 2032.12,-193.79 2031.69,-200.77"/>
</g>
<!-- Node9 -->
<g id="node9" class="node">
<title>Node9</title>
<g id="a_node9"><a xlink:href="pokeyslib_2PoKeysLibEasySensors_8c.html" target="_top" xlink:title=" ">
<polygon fill="white" stroke="black" points="1312,-0.5 1312,-52.5 1502,-52.5 1502,-0.5 1312,-0.5"/>
<text text-anchor="start" x="1320" y="-40.5" font-family="Helvetica,sans-Serif" font-size="10.00">/home/cnc/actions&#45;runner</text>
<text text-anchor="start" x="1320" y="-29.5" font-family="Helvetica,sans-Serif" font-size="10.00">/_work/LinuxCnc_PokeysLibComp</text>
<text text-anchor="start" x="1320" y="-18.5" font-family="Helvetica,sans-Serif" font-size="10.00">/LinuxCnc_PokeysLibComp/external</text>
<text text-anchor="middle" x="1407" y="-7.5" font-family="Helvetica,sans-Serif" font-size="10.00">/pokeyslib/PoKeysLibEasySensors.c</text>
</a>
</g>
</g>
<!-- Node1&#45;&gt;Node9 -->
<g id="edge35" class="edge">
<title>Node1&#45;&gt;Node9</title>
<path fill="none" stroke="midnightblue" d="M2031.92,-177.98C2004.46,-168.89 1975.68,-157.05 1951,-142 1922.29,-124.49 1927.5,-103.16 1897,-89 1740.71,-16.47 1680.91,-81.59 1511,-53 1508.07,-52.51 1505.09,-51.97 1502.1,-51.41"/>
<polygon fill="midnightblue" stroke="midnightblue" points="2030.97,-181.35 2041.56,-181.09 2033.12,-174.69 2030.97,-181.35"/>
</g>
<!-- Node10 -->
<g id="node10" class="node">
<title>Node10</title>
<g id="a_node10"><a xlink:href="pokeyslib_2PoKeysLibEncoders_8c.html" target="_top" xlink:title=" ">
<polygon fill="white" stroke="black" points="1520,-0.5 1520,-52.5 1710,-52.5 1710,-0.5 1520,-0.5"/>
<text text-anchor="start" x="1528" y="-40.5" font-family="Helvetica,sans-Serif" font-size="10.00">/home/cnc/actions&#45;runner</text>
<text text-anchor="start" x="1528" y="-29.5" font-family="Helvetica,sans-Serif" font-size="10.00">/_work/LinuxCnc_PokeysLibComp</text>
<text text-anchor="start" x="1528" y="-18.5" font-family="Helvetica,sans-Serif" font-size="10.00">/LinuxCnc_PokeysLibComp/external</text>
<text text-anchor="middle" x="1615" y="-7.5" font-family="Helvetica,sans-Serif" font-size="10.00">/pokeyslib/PoKeysLibEncoders.c</text>
</a>
</g>
</g>
<!-- Node1&#45;&gt;Node10 -->
<g id="edge36" class="edge">
<title>Node1&#45;&gt;Node10</title>
<path fill="none" stroke="midnightblue" d="M2054.24,-174.36C2034.54,-165.52 2014.25,-154.71 1997,-142 1971.89,-123.5 1978.3,-104.09 1951,-89 1859.68,-38.52 1821.32,-73.44 1719,-53 1716.08,-52.42 1713.12,-51.81 1710.14,-51.18"/>
<polygon fill="midnightblue" stroke="midnightblue" points="2052.98,-177.63 2063.54,-178.42 2055.77,-171.21 2052.98,-177.63"/>
</g>
<!-- Node11 -->
<g id="node11" class="node">
<title>Node11</title>
<g id="a_node11"><a xlink:href="pokeyslib_2PoKeysLibFailsafe_8c.html" target="_top" xlink:title=" ">
<polygon fill="white" stroke="black" points="1728,-0.5 1728,-52.5 1918,-52.5 1918,-0.5 1728,-0.5"/>
<text text-anchor="start" x="1736" y="-40.5" font-family="Helvetica,sans-Serif" font-size="10.00">/home/cnc/actions&#45;runner</text>
<text text-anchor="start" x="1736" y="-29.5" font-family="Helvetica,sans-Serif" font-size="10.00">/_work/LinuxCnc_PokeysLibComp</text>
<text text-anchor="start" x="1736" y="-18.5" font-family="Helvetica,sans-Serif" font-size="10.00">/LinuxCnc_PokeysLibComp/external</text>
<text text-anchor="middle" x="1823" y="-7.5" font-family="Helvetica,sans-Serif" font-size="10.00">/pokeyslib/PoKeysLibFailsafe.c</text>
</a>
</g>
</g>
<!-- Node1&#45;&gt;Node11 -->
<g id="edge37" class="edge">
<title>Node1&#45;&gt;Node11</title>
<path fill="none" stroke="midnightblue" d="M2099.67,-171.85C2062.11,-140.19 2008.18,-95.29 1997,-89 1970.89,-74.31 1940.65,-62.14 1912.77,-52.62"/>
<polygon fill="midnightblue" stroke="midnightblue" points="2097.52,-174.61 2107.42,-178.39 2102.03,-169.26 2097.52,-174.61"/>
</g>
<!-- Node12 -->
<g id="node12" class="node">
<title>Node12</title>
<g id="a_node12"><a xlink:href="pokeyslib_2PoKeysLibFastUSB_8c.html" target="_top" xlink:title=" ">
<polygon fill="white" stroke="black" points="1936,-0.5 1936,-52.5 2126,-52.5 2126,-0.5 1936,-0.5"/>
<text text-anchor="start" x="1944" y="-40.5" font-family="Helvetica,sans-Serif" font-size="10.00">/home/cnc/actions&#45;runner</text>
<text text-anchor="start" x="1944" y="-29.5" font-family="Helvetica,sans-Serif" font-size="10.00">/_work/LinuxCnc_PokeysLibComp</text>
<text text-anchor="start" x="1944" y="-18.5" font-family="Helvetica,sans-Serif" font-size="10.00">/LinuxCnc_PokeysLibComp/external</text>
<text text-anchor="middle" x="2031" y="-7.5" font-family="Helvetica,sans-Serif" font-size="10.00">/pokeyslib/PoKeysLibFastUSB.c</text>
</a>
</g>
</g>
<!-- Node1&#45;&gt;Node12 -->
<g id="edge38" class="edge">
<title>Node1&#45;&gt;Node12</title>
<path fill="none" stroke="midnightblue" d="M2116.56,-169.57C2095.96,-135.36 2064.64,-83.36 2046.16,-52.67"/>
<polygon fill="midnightblue" stroke="midnightblue" points="2113.66,-171.52 2121.81,-178.28 2119.65,-167.91 2113.66,-171.52"/>
</g>
<!-- Node13 -->
<g id="node13" class="node">
<title>Node13</title>
<g id="a_node13"><a xlink:href="pokeyslib_2PoKeysLibI2C_8c.html" target="_top" xlink:title=" ">
<polygon fill="white" stroke="black" points="2144,-0.5 2144,-52.5 2334,-52.5 2334,-0.5 2144,-0.5"/>
<text text-anchor="start" x="2152" y="-40.5" font-family="Helvetica,sans-Serif" font-size="10.00">/home/cnc/actions&#45;runner</text>
<text text-anchor="start" x="2152" y="-29.5" font-family="Helvetica,sans-Serif" font-size="10.00">/_work/LinuxCnc_PokeysLibComp</text>
<text text-anchor="start" x="2152" y="-18.5" font-family="Helvetica,sans-Serif" font-size="10.00">/LinuxCnc_PokeysLibComp/external</text>
<text text-anchor="middle" x="2239" y="-7.5" font-family="Helvetica,sans-Serif" font-size="10.00">/pokeyslib/PoKeysLibI2C.c</text>
</a>
</g>
</g>
<!-- Node1&#45;&gt;Node13 -->
<g id="edge39" class="edge">
<title>Node1&#45;&gt;Node13</title>
<path fill="none" stroke="midnightblue" d="M2136.13,-168.33C2137.07,-144.37 2141.44,-112.81 2156,-89 2164.89,-74.46 2178.61,-62.25 2192.35,-52.63"/>
<polygon fill="midnightblue" stroke="midnightblue" points="2132.63,-168.34 2135.92,-178.41 2139.63,-168.49 2132.63,-168.34"/>
</g>
<!-- Node14 -->
<g id="node14" class="node">
<title>Node14</title>
<g id="a_node14"><a xlink:href="pokeyslib_2PoKeysLibIO_8c.html" target="_top" xlink:title=" ">
<polygon fill="white" stroke="black" points="2352,-0.5 2352,-52.5 2542,-52.5 2542,-0.5 2352,-0.5"/>
<text text-anchor="start" x="2360" y="-40.5" font-family="Helvetica,sans-Serif" font-size="10.00">/home/cnc/actions&#45;runner</text>
<text text-anchor="start" x="2360" y="-29.5" font-family="Helvetica,sans-Serif" font-size="10.00">/_work/LinuxCnc_PokeysLibComp</text>
<text text-anchor="start" x="2360" y="-18.5" font-family="Helvetica,sans-Serif" font-size="10.00">/LinuxCnc_PokeysLibComp/external</text>
<text text-anchor="middle" x="2447" y="-7.5" font-family="Helvetica,sans-Serif" font-size="10.00">/pokeyslib/PoKeysLibIO.c</text>
</a>
</g>
</g>
<!-- Node1&#45;&gt;Node14 -->
<g id="edge40" class="edge">
<title>Node1&#45;&gt;Node14</title>
<path fill="none" stroke="midnightblue" d="M2242.24,-190.34C2282.94,-181.48 2328.22,-166.69 2364,-142 2396.94,-119.27 2421.58,-79.07 2435.14,-52.85"/>
<polygon fill="midnightblue" stroke="midnightblue" points="2241.36,-186.95 2232.28,-192.41 2242.78,-193.8 2241.36,-186.95"/>
</g>
<!-- Node15 -->
<g id="node15" class="node">
<title>Node15</title>
<g id="a_node15"><a xlink:href="pokeyslib_2PoKeysLibLCD_8c.html" target="_top" xlink:title=" ">
<polygon fill="white" stroke="black" points="2560,-0.5 2560,-52.5 2750,-52.5 2750,-0.5 2560,-0.5"/>
<text text-anchor="start" x="2568" y="-40.5" font-family="Helvetica,sans-Serif" font-size="10.00">/home/cnc/actions&#45;runner</text>
<text text-anchor="start" x="2568" y="-29.5" font-family="Helvetica,sans-Serif" font-size="10.00">/_work/LinuxCnc_PokeysLibComp</text>
<text text-anchor="start" x="2568" y="-18.5" font-family="Helvetica,sans-Serif" font-size="10.00">/LinuxCnc_PokeysLibComp/external</text>
<text text-anchor="middle" x="2655" y="-7.5" font-family="Helvetica,sans-Serif" font-size="10.00">/pokeyslib/PoKeysLibLCD.c</text>
</a>
</g>
</g>
<!-- Node1&#45;&gt;Node15 -->
<g id="edge41" class="edge">
<title>Node1&#45;&gt;Node15</title>
<path fill="none" stroke="midnightblue" d="M2242.22,-184.22C2291.66,-173.88 2351.03,-159.62 2403,-142 2476.5,-117.08 2557.55,-78.04 2607.38,-52.6"/>
<polygon fill="midnightblue" stroke="midnightblue" points="2241.23,-180.85 2232.15,-186.3 2242.65,-187.7 2241.23,-180.85"/>
</g>
<!-- Node16 -->
<g id="node16" class="node">
<title>Node16</title>
<g id="a_node16"><a xlink:href="pokeyslib_2PoKeysLibMatrixKB_8c.html" target="_top" xlink:title=" ">
<polygon fill="white" stroke="black" points="2768,-0.5 2768,-52.5 2958,-52.5 2958,-0.5 2768,-0.5"/>
<text text-anchor="start" x="2776" y="-40.5" font-family="Helvetica,sans-Serif" font-size="10.00">/home/cnc/actions&#45;runner</text>
<text text-anchor="start" x="2776" y="-29.5" font-family="Helvetica,sans-Serif" font-size="10.00">/_work/LinuxCnc_PokeysLibComp</text>
<text text-anchor="start" x="2776" y="-18.5" font-family="Helvetica,sans-Serif" font-size="10.00">/LinuxCnc_PokeysLibComp/external</text>
<text text-anchor="middle" x="2863" y="-7.5" font-family="Helvetica,sans-Serif" font-size="10.00">/pokeyslib/PoKeysLibMatrixKB.c</text>
</a>
</g>
</g>
<!-- Node1&#45;&gt;Node16 -->
<g id="edge42" class="edge">
<title>Node1&#45;&gt;Node16</title>
<path fill="none" stroke="midnightblue" d="M2242.07,-187.91C2310.53,-176.97 2401.55,-160.94 2481,-142 2589.26,-116.19 2712.18,-77.64 2788.67,-52.54"/>
<polygon fill="midnightblue" stroke="midnightblue" points="2241.47,-184.46 2232.14,-189.49 2242.57,-191.38 2241.47,-184.46"/>
</g>
<!-- Node17 -->
<g id="node17" class="node">
<title>Node17</title>
<g id="a_node17"><a xlink:href="pokeyslib_2PoKeysLibMatrixLED_8c.html" target="_top" xlink:title=" ">
<polygon fill="white" stroke="black" points="2976,-0.5 2976,-52.5 3166,-52.5 3166,-0.5 2976,-0.5"/>
<text text-anchor="start" x="2984" y="-40.5" font-family="Helvetica,sans-Serif" font-size="10.00">/home/cnc/actions&#45;runner</text>
<text text-anchor="start" x="2984" y="-29.5" font-family="Helvetica,sans-Serif" font-size="10.00">/_work/LinuxCnc_PokeysLibComp</text>
<text text-anchor="start" x="2984" y="-18.5" font-family="Helvetica,sans-Serif" font-size="10.00">/LinuxCnc_PokeysLibComp/external</text>
<text text-anchor="middle" x="3071" y="-7.5" font-family="Helvetica,sans-Serif" font-size="10.00">/pokeyslib/PoKeysLibMatrixLED.c</text>
</a>
</g>
</g>
<!-- Node1&#45;&gt;Node17 -->
<g id="edge43" class="edge">
<title>Node1&#45;&gt;Node17</title>
<path fill="none" stroke="midnightblue" d="M2242.6,-192.1C2334.71,-181.46 2471.72,-163.94 2590,-142 2759.27,-110.61 2799.62,-93.28 2967,-53 2969.89,-52.3 2972.83,-51.6 2975.79,-50.88"/>
<polygon fill="midnightblue" stroke="midnightblue" points="2241.97,-188.65 2232.44,-193.27 2242.77,-195.6 2241.97,-188.65"/>
</g>
<!-- Node18 -->
<g id="node18" class="node">
<title>Node18</title>
<g id="a_node18"><a xlink:href="pokeyslib_2PoKeysLibPoIL_8c.html" target="_top" xlink:title=" ">
<polygon fill="white" stroke="black" points="3184,-0.5 3184,-52.5 3374,-52.5 3374,-0.5 3184,-0.5"/>
<text text-anchor="start" x="3192" y="-40.5" font-family="Helvetica,sans-Serif" font-size="10.00">/home/cnc/actions&#45;runner</text>
<text text-anchor="start" x="3192" y="-29.5" font-family="Helvetica,sans-Serif" font-size="10.00">/_work/LinuxCnc_PokeysLibComp</text>
<text text-anchor="start" x="3192" y="-18.5" font-family="Helvetica,sans-Serif" font-size="10.00">/LinuxCnc_PokeysLibComp/external</text>
<text text-anchor="middle" x="3279" y="-7.5" font-family="Helvetica,sans-Serif" font-size="10.00">/pokeyslib/PoKeysLibPoIL.c</text>
</a>
</g>
</g>
<!-- Node1&#45;&gt;Node18 -->
<g id="edge44" class="edge">
<title>Node1&#45;&gt;Node18</title>
<path fill="none" stroke="midnightblue" d="M2242.21,-195.25C2359.41,-185.4 2554.34,-167.06 2721,-142 2924.33,-111.43 2974.2,-97.27 3175,-53 3177.9,-52.36 3180.85,-51.7 3183.83,-51.02"/>
<polygon fill="midnightblue" stroke="midnightblue" points="2241.83,-191.77 2232.16,-196.09 2242.42,-198.74 2241.83,-191.77"/>
</g>
<!-- Node19 -->
<g id="node19" class="node">
<title>Node19</title>
<g id="a_node19"><a xlink:href="pokeyslib_2PoKeysLibPoNET_8c.html" target="_top" xlink:title=" ">
<polygon fill="white" stroke="black" points="3392,-0.5 3392,-52.5 3582,-52.5 3582,-0.5 3392,-0.5"/>
<text text-anchor="start" x="3400" y="-40.5" font-family="Helvetica,sans-Serif" font-size="10.00">/home/cnc/actions&#45;runner</text>
<text text-anchor="start" x="3400" y="-29.5" font-family="Helvetica,sans-Serif" font-size="10.00">/_work/LinuxCnc_PokeysLibComp</text>
<text text-anchor="start" x="3400" y="-18.5" font-family="Helvetica,sans-Serif" font-size="10.00">/LinuxCnc_PokeysLibComp/external</text>
<text text-anchor="middle" x="3487" y="-7.5" font-family="Helvetica,sans-Serif" font-size="10.00">/pokeyslib/PoKeysLibPoNET.c</text>
</a>
</g>
</g>
<!-- Node1&#45;&gt;Node19 -->
<g id="edge45" class="edge">
<title>Node1&#45;&gt;Node19</title>
<path fill="none" stroke="midnightblue" d="M2242.18,-197.87C2386.43,-189.44 2653.58,-171.34 2880,-142 3105.15,-112.83 3160.86,-99.83 3383,-53 3385.91,-52.39 3388.86,-51.75 3391.84,-51.1"/>
<polygon fill="midnightblue" stroke="midnightblue" points="2241.79,-194.38 2232.01,-198.46 2242.19,-201.37 2241.79,-194.38"/>
</g>
<!-- Node20 -->
<g id="node20" class="node">
<title>Node20</title>
<g id="a_node20"><a xlink:href="pokeyslib_2PoKeysLibPulseEngine__v2_8c.html" target="_top" xlink:title=" ">
<polygon fill="white" stroke="black" points="3600.5,-0.5 3600.5,-52.5 3803.5,-52.5 3803.5,-0.5 3600.5,-0.5"/>
<text text-anchor="start" x="3608.5" y="-40.5" font-family="Helvetica,sans-Serif" font-size="10.00">/home/cnc/actions&#45;runner</text>
<text text-anchor="start" x="3608.5" y="-29.5" font-family="Helvetica,sans-Serif" font-size="10.00">/_work/LinuxCnc_PokeysLibComp</text>
<text text-anchor="start" x="3608.5" y="-18.5" font-family="Helvetica,sans-Serif" font-size="10.00">/LinuxCnc_PokeysLibComp/external</text>
<text text-anchor="middle" x="3702" y="-7.5" font-family="Helvetica,sans-Serif" font-size="10.00">/pokeyslib/PoKeysLibPulseEngine_v2.c</text>
</a>
</g>
</g>
<!-- Node1&#45;&gt;Node20 -->
<g id="edge46" class="edge">
<title>Node1&#45;&gt;Node20</title>
<path fill="none" stroke="midnightblue" d="M2242.22,-199.88C2413.75,-193.21 2764.11,-176.42 3059,-142 3297.11,-114.21 3355.85,-99.64 3591,-53 3594.1,-52.38 3597.25,-51.75 3600.43,-51.09"/>
<polygon fill="midnightblue" stroke="midnightblue" points="2242.04,-196.38 2232.18,-200.26 2242.31,-203.38 2242.04,-196.38"/>
</g>
<!-- Node21 -->
<g id="node21" class="node">
<title>Node21</title>
<g id="a_node21"><a xlink:href="pokeyslib_2PoKeysLibRTC_8c.html" target="_top" xlink:title=" ">
<polygon fill="white" stroke="black" points="3822,-0.5 3822,-52.5 4012,-52.5 4012,-0.5 3822,-0.5"/>
<text text-anchor="start" x="3830" y="-40.5" font-family="Helvetica,sans-Serif" font-size="10.00">/home/cnc/actions&#45;runner</text>
<text text-anchor="start" x="3830" y="-29.5" font-family="Helvetica,sans-Serif" font-size="10.00">/_work/LinuxCnc_PokeysLibComp</text>
<text text-anchor="start" x="3830" y="-18.5" font-family="Helvetica,sans-Serif" font-size="10.00">/LinuxCnc_PokeysLibComp/external</text>
<text text-anchor="middle" x="3917" y="-7.5" font-family="Helvetica,sans-Serif" font-size="10.00">/pokeyslib/PoKeysLibRTC.c</text>
</a>
</g>
</g>
<!-- Node1&#45;&gt;Node21 -->
<g id="edge47" class="edge">
<title>Node1&#45;&gt;Node21</title>
<path fill="none" stroke="midnightblue" d="M2242.09,-201.23C2439.61,-196.16 2879.58,-181.16 3248,-142 3500.35,-115.17 3563.16,-102.76 3812,-53 3815.22,-52.36 3818.49,-51.68 3821.79,-50.98"/>
<polygon fill="midnightblue" stroke="midnightblue" points="2241.91,-197.73 2232,-201.48 2242.09,-204.73 2241.91,-197.73"/>
</g>
<!-- Node22 -->
<g id="node22" class="node">
<title>Node22</title>
<g id="a_node22"><a xlink:href="pokeyslib_2PoKeysLibSPI_8c.html" target="_top" xlink:title=" ">
<polygon fill="white" stroke="black" points="4030,-0.5 4030,-52.5 4220,-52.5 4220,-0.5 4030,-0.5"/>
<text text-anchor="start" x="4038" y="-40.5" font-family="Helvetica,sans-Serif" font-size="10.00">/home/cnc/actions&#45;runner</text>
<text text-anchor="start" x="4038" y="-29.5" font-family="Helvetica,sans-Serif" font-size="10.00">/_work/LinuxCnc_PokeysLibComp</text>
<text text-anchor="start" x="4038" y="-18.5" font-family="Helvetica,sans-Serif" font-size="10.00">/LinuxCnc_PokeysLibComp/external</text>
<text text-anchor="middle" x="4125" y="-7.5" font-family="Helvetica,sans-Serif" font-size="10.00">/pokeyslib/PoKeysLibSPI.c</text>
</a>
</g>
</g>
<!-- Node1&#45;&gt;Node22 -->
<g id="edge48" class="edge">
<title>Node1&#45;&gt;Node22</title>
<path fill="none" stroke="midnightblue" d="M2242.3,-202.46C2465.87,-199.4 3004.22,-187.51 3453,-142 3707.22,-116.22 3770.46,-103.25 4021,-53 4023.92,-52.42 4026.87,-51.8 4029.86,-51.17"/>
<polygon fill="midnightblue" stroke="midnightblue" points="2242.17,-198.96 2232.22,-202.59 2242.27,-205.96 2242.17,-198.96"/>
</g>
<!-- Node23 -->
<g id="node23" class="node">
<title>Node23</title>
<g id="a_node23"><a xlink:href="pokeyslib_2PoKeysLibUART_8c.html" target="_top" xlink:title=" ">
<polygon fill="white" stroke="black" points="4238,-0.5 4238,-52.5 4428,-52.5 4428,-0.5 4238,-0.5"/>
<text text-anchor="start" x="4246" y="-40.5" font-family="Helvetica,sans-Serif" font-size="10.00">/home/cnc/actions&#45;runner</text>
<text text-anchor="start" x="4246" y="-29.5" font-family="Helvetica,sans-Serif" font-size="10.00">/_work/LinuxCnc_PokeysLibComp</text>
<text text-anchor="start" x="4246" y="-18.5" font-family="Helvetica,sans-Serif" font-size="10.00">/LinuxCnc_PokeysLibComp/external</text>
<text text-anchor="middle" x="4333" y="-7.5" font-family="Helvetica,sans-Serif" font-size="10.00">/pokeyslib/PoKeysLibUART.c</text>
</a>
</g>
</g>
<!-- Node1&#45;&gt;Node23 -->
<g id="edge49" class="edge">
<title>Node1&#45;&gt;Node23</title>
<path fill="none" stroke="midnightblue" d="M2242.17,-203.39C2489.74,-202.23 3128.45,-193.97 3659,-142 3914.18,-117.01 3977.59,-103.35 4229,-53 4231.92,-52.42 4234.87,-51.81 4237.86,-51.17"/>
<polygon fill="midnightblue" stroke="midnightblue" points="2242.08,-199.89 2232.1,-203.43 2242.11,-206.89 2242.08,-199.89"/>
</g>
<!-- Node24 -->
<g id="node24" class="node">
<title>Node24</title>
<g id="a_node24"><a xlink:href="pokeyslib_2PoKeysLibWS2812_8c.html" target="_top" xlink:title=" ">
<polygon fill="white" stroke="black" points="4446,-0.5 4446,-52.5 4636,-52.5 4636,-0.5 4446,-0.5"/>
<text text-anchor="start" x="4454" y="-40.5" font-family="Helvetica,sans-Serif" font-size="10.00">/home/cnc/actions&#45;runner</text>
<text text-anchor="start" x="4454" y="-29.5" font-family="Helvetica,sans-Serif" font-size="10.00">/_work/LinuxCnc_PokeysLibComp</text>
<text text-anchor="start" x="4454" y="-18.5" font-family="Helvetica,sans-Serif" font-size="10.00">/LinuxCnc_PokeysLibComp/external</text>
<text text-anchor="middle" x="4541" y="-7.5" font-family="Helvetica,sans-Serif" font-size="10.00">/pokeyslib/PoKeysLibWS2812.c</text>
</a>
</g>
</g>
<!-- Node1&#45;&gt;Node24 -->
<g id="edge50" class="edge">
<title>Node1&#45;&gt;Node24</title>
<path fill="none" stroke="midnightblue" d="M2242.58,-204.11C2513.13,-204.73 3253.07,-200.46 3866,-142 4121.68,-117.61 4185.15,-103.41 4437,-53 4439.92,-52.42 4442.87,-51.81 4445.86,-51.17"/>
<polygon fill="midnightblue" stroke="midnightblue" points="2242.39,-200.61 2232.38,-204.08 2242.37,-207.61 2242.39,-200.61"/>
</g>
<!-- Node25 -->
<g id="node25" class="node">
<title>Node25</title>
<g id="a_node25"><a xlink:href="pokeyslib_2PoKeysLibCoreSockets_8h.html" target="_top" xlink:title=" ">
<polygon fill="white" stroke="black" points="240,-89.5 240,-141.5 430,-141.5 430,-89.5 240,-89.5"/>
<text text-anchor="start" x="248" y="-129.5" font-family="Helvetica,sans-Serif" font-size="10.00">/home/cnc/actions&#45;runner</text>
<text text-anchor="start" x="248" y="-118.5" font-family="Helvetica,sans-Serif" font-size="10.00">/_work/LinuxCnc_PokeysLibComp</text>
<text text-anchor="start" x="248" y="-107.5" font-family="Helvetica,sans-Serif" font-size="10.00">/LinuxCnc_PokeysLibComp/external</text>
<text text-anchor="middle" x="335" y="-96.5" font-family="Helvetica,sans-Serif" font-size="10.00">/pokeyslib/PoKeysLibCoreSockets.h</text>
</a>
</g>
</g>
<!-- Node1&#45;&gt;Node25 -->
<g id="edge28" class="edge">
<title>Node1&#45;&gt;Node25</title>
<path fill="none" stroke="midnightblue" d="M2031.66,-201.58C1715.63,-195.5 778.65,-175.1 475,-142 460.51,-140.42 445.26,-138.21 430.38,-135.75"/>
<polygon fill="midnightblue" stroke="midnightblue" points="2031.67,-205.08 2041.74,-201.77 2031.81,-198.08 2031.67,-205.08"/>
</g>
<!-- Node26 -->
<g id="node26" class="node">
<title>Node26</title>
<g id="a_node26"><a xlink:href="pokeyslib_2PoKeysLibDevicePoKeys57Industrial_8h.html" target="_top" xlink:title=" ">
<polygon fill="white" stroke="black" points="484,-89.5 484,-141.5 738,-141.5 738,-89.5 484,-89.5"/>
<text text-anchor="start" x="492" y="-129.5" font-family="Helvetica,sans-Serif" font-size="10.00">/home/cnc/actions&#45;runner</text>
<text text-anchor="start" x="492" y="-118.5" font-family="Helvetica,sans-Serif" font-size="10.00">/_work/LinuxCnc_PokeysLibComp</text>
<text text-anchor="start" x="492" y="-107.5" font-family="Helvetica,sans-Serif" font-size="10.00">/LinuxCnc_PokeysLibComp/external</text>
<text text-anchor="middle" x="611" y="-96.5" font-family="Helvetica,sans-Serif" font-size="10.00">/pokeyslib/PoKeysLibDevicePoKeys57Industrial.h</text>
</a>
</g>
</g>
<!-- Node1&#45;&gt;Node26 -->
<g id="edge33" class="edge">
<title>Node1&#45;&gt;Node26</title>
<path fill="none" stroke="midnightblue" d="M2031.55,-197.49C1759.17,-181.96 1032.88,-140.55 738.04,-123.74"/>
<polygon fill="midnightblue" stroke="midnightblue" points="2031.65,-201 2041.83,-198.07 2032.05,-194.01 2031.65,-201"/>
</g>
<!-- Node5&#45;&gt;Node2 -->
<g id="edge5" class="edge">
<title>Node5&#45;&gt;Node2</title>
<path fill="none" stroke="midnightblue" d="M2154.58,-110.54C1803.85,-97.35 697.31,-55.57 679,-53 676.05,-52.59 673.07,-52.12 670.07,-51.62"/>
<polygon fill="midnightblue" stroke="midnightblue" points="2154.61,-114.04 2164.74,-110.92 2154.87,-107.05 2154.61,-114.04"/>
</g>
<!-- Node5&#45;&gt;Node3 -->
<g id="edge6" class="edge">
<title>Node5&#45;&gt;Node3</title>
<path fill="none" stroke="midnightblue" d="M2154.68,-109.29C2047.36,-104.02 1876.1,-95.72 1728,-89 1354.26,-72.04 1257.37,-105.8 887,-53 884.06,-52.58 881.07,-52.11 878.07,-51.61"/>
<polygon fill="midnightblue" stroke="midnightblue" points="2154.71,-112.8 2164.87,-109.79 2155.05,-105.81 2154.71,-112.8"/>
</g>
<!-- Node5&#45;&gt;Node4 -->
<g id="edge7" class="edge">
<title>Node5&#45;&gt;Node4</title>
<path fill="none" stroke="midnightblue" d="M2154.77,-112.66C1761.83,-105.61 393.09,-79.39 199,-53 196.05,-52.6 193.07,-52.15 190.06,-51.66"/>
<polygon fill="midnightblue" stroke="midnightblue" points="2154.93,-116.16 2164.99,-112.84 2155.05,-109.16 2154.93,-116.16"/>
</g>
<!-- Node5&#45;&gt;Node6 -->
<g id="edge8" class="edge">
<title>Node5&#45;&gt;Node6</title>
<path fill="none" stroke="midnightblue" d="M2154.59,-107.99C2067.13,-102.65 1939.49,-95.03 1828,-89 1502.31,-71.39 1417.76,-100.05 1095,-53 1092.06,-52.57 1089.07,-52.1 1086.07,-51.58"/>
<polygon fill="midnightblue" stroke="midnightblue" points="2154.59,-111.49 2164.78,-108.61 2155.01,-104.51 2154.59,-111.49"/>
</g>
<!-- Node5&#45;&gt;Node7 -->
<g id="edge9" class="edge">
<title>Node5&#45;&gt;Node7</title>
<path fill="none" stroke="midnightblue" d="M2154.81,-106.84C2082.36,-101.63 1983.85,-94.68 1897,-89 1633.08,-71.73 1564.5,-92.65 1303,-53 1300.06,-52.55 1297.08,-52.06 1294.08,-51.54"/>
<polygon fill="midnightblue" stroke="midnightblue" points="2154.64,-110.34 2164.86,-107.57 2155.14,-103.36 2154.64,-110.34"/>
</g>
<!-- Node5&#45;&gt;Node8 -->
<g id="edge10" class="edge">
<title>Node5&#45;&gt;Node8</title>
<path fill="none" stroke="midnightblue" d="M2154.77,-111.81C1796.59,-102.53 637.8,-71.4 471,-53 468.13,-52.68 465.24,-52.34 462.32,-51.98"/>
<polygon fill="midnightblue" stroke="midnightblue" points="2154.79,-115.31 2164.87,-112.07 2154.97,-108.31 2154.79,-115.31"/>
</g>
<!-- Node5&#45;&gt;Node9 -->
<g id="edge11" class="edge">
<title>Node5&#45;&gt;Node9</title>
<path fill="none" stroke="midnightblue" d="M2154.79,-105.8C2095.03,-100.86 2018.83,-94.57 1951,-89 1755.45,-72.93 1704.67,-84.46 1511,-53 1508.06,-52.52 1505.09,-52.01 1502.09,-51.46"/>
<polygon fill="midnightblue" stroke="midnightblue" points="2154.74,-109.31 2164.99,-106.64 2155.31,-102.33 2154.74,-109.31"/>
</g>
<!-- Node5&#45;&gt;Node10 -->
<g id="edge12" class="edge">
<title>Node5&#45;&gt;Node10</title>
<path fill="none" stroke="midnightblue" d="M2154.72,-104.14C2021.64,-90.77 1800.11,-67.49 1719,-53 1716.07,-52.48 1713.1,-51.92 1710.11,-51.33"/>
<polygon fill="midnightblue" stroke="midnightblue" points="2154.64,-107.65 2164.94,-105.17 2155.34,-100.69 2154.64,-107.65"/>
</g>
<!-- Node5&#45;&gt;Node11 -->
<g id="edge13" class="edge">
<title>Node5&#45;&gt;Node11</title>
<path fill="none" stroke="midnightblue" d="M2155.02,-96.72C2089.31,-85.19 2003,-69.32 1927,-53 1924.09,-52.38 1921.14,-51.73 1918.16,-51.07"/>
<polygon fill="midnightblue" stroke="midnightblue" points="2154.52,-100.18 2164.98,-98.46 2155.73,-93.29 2154.52,-100.18"/>
</g>
<!-- Node5&#45;&gt;Node12 -->
<g id="edge14" class="edge">
<title>Node5&#45;&gt;Node12</title>
<path fill="none" stroke="midnightblue" d="M2184.61,-85.86C2156.26,-75.09 2124.27,-62.94 2096.86,-52.52"/>
<polygon fill="midnightblue" stroke="midnightblue" points="2183.48,-89.17 2194.07,-89.45 2185.97,-82.63 2183.48,-89.17"/>
</g>
<!-- Node5&#45;&gt;Node13 -->
<g id="edge15" class="edge">
<title>Node5&#45;&gt;Node13</title>
<path fill="none" stroke="midnightblue" d="M2251.55,-79.48C2249.38,-70.49 2247.08,-60.99 2245.06,-52.61"/>
<polygon fill="midnightblue" stroke="midnightblue" points="2248.18,-80.44 2253.93,-89.34 2254.98,-78.79 2248.18,-80.44"/>
</g>
<!-- Node5&#45;&gt;Node14 -->
<g id="edge16" class="edge">
<title>Node5&#45;&gt;Node14</title>
<path fill="none" stroke="midnightblue" d="M2323.08,-85.15C2345.85,-74.56 2371.32,-62.71 2393.22,-52.52"/>
<polygon fill="midnightblue" stroke="midnightblue" points="2321.43,-82.06 2313.84,-89.45 2324.38,-88.41 2321.43,-82.06"/>
</g>
<!-- Node5&#45;&gt;Node15 -->
<g id="edge17" class="edge">
<title>Node5&#45;&gt;Node15</title>
<path fill="none" stroke="midnightblue" d="M2365.02,-93.16C2420.43,-81.68 2489.5,-67.03 2551,-53 2553.9,-52.34 2556.84,-51.66 2559.81,-50.97"/>
<polygon fill="midnightblue" stroke="midnightblue" points="2364.27,-89.74 2355.19,-95.19 2365.69,-96.59 2364.27,-89.74"/>
</g>
<!-- Node5&#45;&gt;Node16 -->
<g id="edge18" class="edge">
<title>Node5&#45;&gt;Node16</title>
<path fill="none" stroke="midnightblue" d="M2365.48,-105.14C2466.86,-95.29 2624.12,-77.76 2759,-53 2761.93,-52.46 2764.89,-51.89 2767.88,-51.3"/>
<polygon fill="midnightblue" stroke="midnightblue" points="2364.86,-101.69 2355.24,-106.13 2365.53,-108.65 2364.86,-101.69"/>
</g>
<!-- Node5&#45;&gt;Node17 -->
<g id="edge19" class="edge">
<title>Node5&#45;&gt;Node17</title>
<path fill="none" stroke="midnightblue" d="M2365.41,-110.39C2504.12,-103.83 2755.16,-87.97 2967,-53 2969.93,-52.52 2972.91,-51.99 2975.91,-51.44"/>
<polygon fill="midnightblue" stroke="midnightblue" points="2365.03,-106.9 2355.21,-110.87 2365.36,-113.9 2365.03,-106.9"/>
</g>
<!-- Node5&#45;&gt;Node18 -->
<g id="edge20" class="edge">
<title>Node5&#45;&gt;Node18</title>
<path fill="none" stroke="midnightblue" d="M2365.36,-113.34C2536.28,-110.12 2884.17,-98.08 3175,-53 3177.94,-52.54 3180.92,-52.05 3183.92,-51.51"/>
<polygon fill="midnightblue" stroke="midnightblue" points="2365.04,-109.84 2355.11,-113.52 2365.17,-116.84 2365.04,-109.84"/>
</g>
<!-- Node5&#45;&gt;Node19 -->
<g id="edge21" class="edge">
<title>Node5&#45;&gt;Node19</title>
<path fill="none" stroke="midnightblue" d="M2365.44,-115.23C2565.16,-115.17 3011.87,-108.17 3383,-53 3385.94,-52.56 3388.92,-52.08 3391.93,-51.56"/>
<polygon fill="midnightblue" stroke="midnightblue" points="2365.25,-111.73 2355.25,-115.22 2365.25,-118.73 2365.25,-111.73"/>
</g>
<!-- Node5&#45;&gt;Node20 -->
<g id="edge22" class="edge">
<title>Node5&#45;&gt;Node20</title>
<path fill="none" stroke="midnightblue" d="M2365.57,-112.07C2637.1,-105.44 3354.96,-85.3 3591,-53 3594.04,-52.58 3597.11,-52.13 3600.21,-51.63"/>
<polygon fill="midnightblue" stroke="midnightblue" points="2365.23,-108.58 2355.31,-112.32 2365.4,-115.58 2365.23,-108.58"/>
</g>
<!-- Node5&#45;&gt;Node21 -->
<g id="edge23" class="edge">
<title>Node5&#45;&gt;Node21</title>
<path fill="none" stroke="midnightblue" d="M2365.2,-113.05C2666.95,-108.47 3531.6,-92.21 3812,-53 3815.25,-52.55 3818.55,-52.03 3821.87,-51.48"/>
<polygon fill="midnightblue" stroke="midnightblue" points="2365.09,-109.56 2355.14,-113.21 2365.19,-116.55 2365.09,-109.56"/>
</g>
<!-- Node5&#45;&gt;Node22 -->
<g id="edge24" class="edge">
<title>Node5&#45;&gt;Node22</title>
<path fill="none" stroke="midnightblue" d="M2365.62,-113.66C2694.66,-110.58 3698.47,-97.69 4021,-53 4023.95,-52.59 4026.93,-52.13 4029.94,-51.64"/>
<polygon fill="midnightblue" stroke="midnightblue" points="2365.11,-110.16 2355.14,-113.75 2365.17,-117.16 2365.11,-110.16"/>
</g>
<!-- Node5&#45;&gt;Node23 -->
<g id="edge25" class="edge">
<title>Node5&#45;&gt;Node23</title>
<path fill="none" stroke="midnightblue" d="M2365.45,-114.11C2719.52,-112.36 3864.09,-102.87 4229,-53 4231.95,-52.6 4234.93,-52.15 4237.94,-51.65"/>
<polygon fill="midnightblue" stroke="midnightblue" points="2365.18,-110.61 2355.2,-114.16 2365.22,-117.61 2365.18,-110.61"/>
</g>
<!-- Node5&#45;&gt;Node24 -->
<g id="edge26" class="edge">
<title>Node5&#45;&gt;Node24</title>
<path fill="none" stroke="midnightblue" d="M2365.17,-114.48C2742.8,-113.96 4029.49,-108.08 4437,-53 4439.95,-52.6 4442.93,-52.15 4445.94,-51.66"/>
<polygon fill="midnightblue" stroke="midnightblue" points="2365.06,-110.98 2355.07,-114.5 2365.07,-117.98 2365.06,-110.98"/>
</g>
<!-- Node25&#45;&gt;Node4 -->
<g id="edge29" class="edge">
<title>Node25&#45;&gt;Node4</title>
<path fill="none" stroke="midnightblue" d="M256.37,-86C226.57,-75.19 192.88,-62.98 164.02,-52.52"/>
<polygon fill="midnightblue" stroke="midnightblue" points="255.31,-89.34 265.9,-89.45 257.7,-82.75 255.31,-89.34"/>
</g>
<!-- Node25&#45;&gt;Node8 -->
<g id="edge30" class="edge">
<title>Node25&#45;&gt;Node8</title>
<path fill="none" stroke="midnightblue" d="M335,-79.19C335,-70.28 335,-60.9 335,-52.61"/>
<polygon fill="midnightblue" stroke="midnightblue" points="331.5,-79.34 335,-89.34 338.5,-79.34 331.5,-79.34"/>
</g>
<!-- Node26&#45;&gt;Node8 -->
<g id="edge34" class="edge">
<title>Node26&#45;&gt;Node8</title>
<path fill="none" stroke="midnightblue" d="M521.91,-86.42C487.31,-75.51 447.99,-63.12 414.38,-52.52"/>
<polygon fill="midnightblue" stroke="midnightblue" points="520.95,-89.78 531.54,-89.45 523.05,-83.11 520.95,-89.78"/>
</g>
</g>
</svg>
        <g id="navigator" transform="translate(0 0)" fill="#404254">
                <rect fill="#f2f5e9" fill-opacity="0.5" stroke="#606060" stroke-width=".5" x="0" y="0" width="60" height="60"/>
                <use id="zoomplus" xlink:href="#zoomPlus" x="17" y="9" onmousedown="handleZoom(evt,'in')"/>
                <use id="zoomminus" xlink:href="#zoomMin" x="42" y="9" onmousedown="handleZoom(evt,'out')"/>
                <use id="reset" xlink:href="#resetDef" x="30" y="36" onmousedown="handleReset()"/>
                <g id="arrowUp" xlink:href="#dirArrow" transform="translate(30 24)" onmousedown="handlePan(0,-1)">
                  <use xlink:href="#rim" fill="#404040">
                        <set attributeName="fill" to="#808080" begin="arrowUp.mouseover" end="arrowUp.mouseout"/>
                  </use>
                  <path fill="none" stroke="white" stroke-width="1.5" d="M0,-3.0v7 M-2.5,-0.5L0,-3.0L2.5,-0.5"/>
                </g>
                <g id="arrowRight" xlink:href="#dirArrow" transform="rotate(90) translate(36 -43)" onmousedown="handlePan(1,0)">
                  <use xlink:href="#rim" fill="#404040">
                        <set attributeName="fill" to="#808080" begin="arrowRight.mouseover" end="arrowRight.mouseout"/>
                  </use>
                  <path fill="none" stroke="white" stroke-width="1.5" d="M0,-3.0v7 M-2.5,-0.5L0,-3.0L2.5,-0.5"/>
                </g>
                <g id="arrowDown" xlink:href="#dirArrow" transform="rotate(180) translate(-30 -48)" onmousedown="handlePan(0,1)">
                  <use xlink:href="#rim" fill="#404040">
                        <set attributeName="fill" to="#808080" begin="arrowDown.mouseover" end="arrowDown.mouseout"/>
                  </use>
                  <path fill="none" stroke="white" stroke-width="1.5" d="M0,-3.0v7 M-2.5,-0.5L0,-3.0L2.5,-0.5"/>
                </g>
                <g id="arrowLeft" xlink:href="#dirArrow" transform="rotate(270) translate(-36 17)" onmousedown="handlePan(-1,0)">
                  <use xlink:href="#rim" fill="#404040">
                        <set attributeName="fill" to="#808080" begin="arrowLeft.mouseover" end="arrowLeft.mouseout"/>
                  </use>
                  <path fill="none" stroke="white" stroke-width="1.5" d="M0,-3.0v7 M-2.5,-0.5L0,-3.0L2.5,-0.5"/>
                </g>
        </g>
        <svg viewBox="0 0 15 15" width="100%" height="30px" preserveAspectRatio="xMaxYMin meet">
         <g id="arrow_out" transform="scale(0.3 0.3)">
          <a xlink:href="pokeyslib_2PoKeysLib_8h__dep__incl_org.svg" target="_base">
           <rect id="button" ry="5" rx="5" y="6" x="6" height="38" width="38"
                fill="#f2f5e9" fill-opacity="0.5" stroke="#606060" stroke-width="1.0"/>
           <path id="arrow"
             d="M 11.500037,31.436501 C 11.940474,20.09759 22.043105,11.32322 32.158766,21.979434 L 37.068811,17.246167 C 37.068811,17.246167 37.088388,32 37.088388,32 L 22.160133,31.978069 C 22.160133,31.978069 26.997745,27.140456 26.997745,27.140456 C 18.528582,18.264221 13.291696,25.230495 11.500037,31.436501 z"
             style="fill:#404040;"/>
          </a>
         </g>
        </svg>
</svg>
