<?xml version="1.0" encoding="UTF-8" standalone="no"?>
<!DOCTYPE svg PUBLIC "-//W3C//DTD SVG 1.1//EN"
 "http://www.w3.org/Graphics/SVG/1.1/DTD/svg11.dtd">
<!-- Generated by graphviz version 2.43.0 (0)
 -->
<!-- Title: PK_EncoderConfigurationSet Pages: 1 -->
<svg width="558pt" height="142pt"
 viewBox="0.00 0.00 558.00 142.00" xmlns="http://www.w3.org/2000/svg" xmlns:xlink="http://www.w3.org/1999/xlink">
<g id="graph0" class="graph" transform="scale(1 1) rotate(0) translate(4 138)">
<title>PK_EncoderConfigurationSet</title>
<polygon fill="white" stroke="transparent" points="-4,4 -4,-138 554,-138 554,4 -4,4"/>
<!-- Node1 -->
<g id="node1" class="node">
<title>Node1</title>
<g id="a_node1"><a xlink:title="Send encoder configuration to the PoKeys device.">
<polygon fill="#bfbfbf" stroke="black" points="0,-76.5 0,-95.5 155,-95.5 155,-76.5 0,-76.5"/>
<text text-anchor="middle" x="77.5" y="-83.5" font-family="Helvetica,sans-Serif" font-size="10.00">PK_EncoderConfigurationSet</text>
</a>
</g>
</g>
<!-- Node2 -->
<g id="node2" class="node">
<title>Node2</title>
<g id="a_node2"><a xlink:href="pokeyslib_2PoKeysLibCore_8c.html#acb1fdd8f77277dc66c4d037218bfcece" target="_top" xlink:title=" ">
<polygon fill="white" stroke="black" points="191,-95.5 191,-114.5 280,-114.5 280,-95.5 191,-95.5"/>
<text text-anchor="middle" x="235.5" y="-102.5" font-family="Helvetica,sans-Serif" font-size="10.00">CreateRequest</text>
</a>
</g>
</g>
<!-- Node1&#45;&gt;Node2 -->
<g id="edge1" class="edge">
<title>Node1&#45;&gt;Node2</title>
<path fill="none" stroke="midnightblue" d="M155.13,-95.33C163.69,-96.38 172.27,-97.42 180.46,-98.42"/>
<polygon fill="midnightblue" stroke="midnightblue" points="180.25,-101.92 190.6,-99.65 181.1,-94.97 180.25,-101.92"/>
</g>
<!-- Node3 -->
<g id="node3" class="node">
<title>Node3</title>
<g id="a_node3"><a xlink:href="pokeyslib_2PoKeysLibCore_8c.html#ab5d92aa36d0a4a6953a055f5cd960aff" target="_top" xlink:title=" ">
<polygon fill="white" stroke="black" points="195.5,-57.5 195.5,-76.5 275.5,-76.5 275.5,-57.5 195.5,-57.5"/>
<text text-anchor="middle" x="235.5" y="-64.5" font-family="Helvetica,sans-Serif" font-size="10.00">SendRequest</text>
</a>
</g>
</g>
<!-- Node1&#45;&gt;Node3 -->
<g id="edge2" class="edge">
<title>Node1&#45;&gt;Node3</title>
<path fill="none" stroke="midnightblue" d="M155.13,-76.67C165.31,-75.43 175.53,-74.18 185.08,-73.02"/>
<polygon fill="midnightblue" stroke="midnightblue" points="185.65,-76.48 195.16,-71.79 184.81,-69.53 185.65,-76.48"/>
</g>
<!-- Node4 -->
<g id="node4" class="node">
<title>Node4</title>
<g id="a_node4"><a xlink:href="pokeyslib_2PoKeysLibCore_8c.html#a273b6d635dea8f559b915cdb289d021e" target="_top" xlink:title=" ">
<polygon fill="white" stroke="black" points="457.5,-38.5 457.5,-57.5 540.5,-57.5 540.5,-38.5 457.5,-38.5"/>
<text text-anchor="middle" x="499" y="-45.5" font-family="Helvetica,sans-Serif" font-size="10.00">getChecksum</text>
</a>
</g>
</g>
<!-- Node3&#45;&gt;Node4 -->
<g id="edge3" class="edge">
<title>Node3&#45;&gt;Node4</title>
<path fill="none" stroke="midnightblue" d="M275.67,-69.42C311.32,-71.06 365.36,-72.09 412,-67 425.57,-65.52 440.13,-62.76 453.34,-59.8"/>
<polygon fill="midnightblue" stroke="midnightblue" points="454.2,-63.19 463.14,-57.51 452.61,-56.37 454.2,-63.19"/>
</g>
<!-- Node5 -->
<g id="node5" class="node">
<title>Node5</title>
<g id="a_node5"><a xlink:href="group__API.html#ga6b820f3e72097cf7f994e33715dc7af1" target="_top" xlink:title="Read an Input report from a HID device.">
<polygon fill="white" stroke="black" points="334.5,-114.5 334.5,-133.5 393.5,-133.5 393.5,-114.5 334.5,-114.5"/>
<text text-anchor="middle" x="364" y="-121.5" font-family="Helvetica,sans-Serif" font-size="10.00">hid_read</text>
</a>
</g>
</g>
<!-- Node3&#45;&gt;Node5 -->
<g id="edge4" class="edge">
<title>Node3&#45;&gt;Node5</title>
<path fill="none" stroke="midnightblue" d="M258.66,-76.59C265.51,-79.58 273.08,-82.9 280,-86 297.61,-93.88 317.24,-102.86 332.99,-110.11"/>
<polygon fill="midnightblue" stroke="midnightblue" points="331.69,-113.36 342.24,-114.37 334.62,-107.01 331.69,-113.36"/>
</g>
<!-- Node7 -->
<g id="node7" class="node">
<title>Node7</title>
<g id="a_node7"><a xlink:href="group__API.html#gad14ea48e440cf5066df87cc6488493af" target="_top" xlink:title="Write an Output report to a HID device.">
<polygon fill="white" stroke="black" points="333,-38.5 333,-57.5 395,-57.5 395,-38.5 333,-38.5"/>
<text text-anchor="middle" x="364" y="-45.5" font-family="Helvetica,sans-Serif" font-size="10.00">hid_write</text>
</a>
</g>
</g>
<!-- Node3&#45;&gt;Node7 -->
<g id="edge6" class="edge">
<title>Node3&#45;&gt;Node7</title>
<path fill="none" stroke="midnightblue" d="M275.83,-61.09C290.8,-58.84 307.86,-56.28 322.9,-54.02"/>
<polygon fill="midnightblue" stroke="midnightblue" points="323.57,-57.46 332.94,-52.52 322.53,-50.54 323.57,-57.46"/>
</g>
<!-- Node8 -->
<g id="node8" class="node">
<title>Node8</title>
<g id="a_node8"><a xlink:href="pokeyslib_2PoKeysLibCoreSockets_8c.html#a22759fb4024c9081af26ac1bc6541b47" target="_top" xlink:title=" ">
<polygon fill="white" stroke="black" points="316,-0.5 316,-19.5 412,-19.5 412,-0.5 316,-0.5"/>
<text text-anchor="middle" x="364" y="-7.5" font-family="Helvetica,sans-Serif" font-size="10.00">SendEthRequest</text>
</a>
</g>
</g>
<!-- Node3&#45;&gt;Node8 -->
<g id="edge7" class="edge">
<title>Node3&#45;&gt;Node8</title>
<path fill="none" stroke="midnightblue" d="M255.62,-57.45C271.63,-49.56 295.14,-38.19 316,-29 320.19,-27.15 324.62,-25.27 329.02,-23.45"/>
<polygon fill="midnightblue" stroke="midnightblue" points="330.55,-26.6 338.49,-19.58 327.91,-20.12 330.55,-26.6"/>
</g>
<!-- Node6 -->
<g id="node6" class="node">
<title>Node6</title>
<g id="a_node6"><a xlink:href="group__API.html#gaa5c9ed5aa290688ffac03343989ad75a" target="_top" xlink:title="Read an Input report from a HID device with timeout.">
<polygon fill="white" stroke="black" points="448,-114.5 448,-133.5 550,-133.5 550,-114.5 448,-114.5"/>
<text text-anchor="middle" x="499" y="-121.5" font-family="Helvetica,sans-Serif" font-size="10.00">hid_read_timeout</text>
</a>
</g>
</g>
<!-- Node5&#45;&gt;Node6 -->
<g id="edge5" class="edge">
<title>Node5&#45;&gt;Node6</title>
<path fill="none" stroke="midnightblue" d="M393.53,-124C406.49,-124 422.35,-124 437.75,-124"/>
<polygon fill="midnightblue" stroke="midnightblue" points="437.77,-127.5 447.77,-124 437.77,-120.5 437.77,-127.5"/>
</g>
<!-- Node8&#45;&gt;Node4 -->
<g id="edge8" class="edge">
<title>Node8&#45;&gt;Node4</title>
<path fill="none" stroke="midnightblue" d="M398.56,-19.59C415.57,-24.45 436.43,-30.41 454.64,-35.61"/>
<polygon fill="midnightblue" stroke="midnightblue" points="453.87,-39.03 464.45,-38.41 455.8,-32.3 453.87,-39.03"/>
</g>
</g>
</svg>
