<?xml version="1.0" encoding="UTF-8" standalone="no"?>
<!DOCTYPE svg PUBLIC "-//W3C//DTD SVG 1.1//EN"
 "http://www.w3.org/Graphics/SVG/1.1/DTD/svg11.dtd">
<!-- Generated by graphviz version 2.43.0 (0)
 -->
<!-- Title: PK_DeviceNameSet Pages: 1 -->
<svg width="516pt" height="142pt"
 viewBox="0.00 0.00 516.00 142.00" xmlns="http://www.w3.org/2000/svg" xmlns:xlink="http://www.w3.org/1999/xlink">
<g id="graph0" class="graph" transform="scale(1 1) rotate(0) translate(4 138)">
<title>PK_DeviceNameSet</title>
<polygon fill="white" stroke="transparent" points="-4,4 -4,-138 512,-138 512,4 -4,4"/>
<!-- Node1 -->
<g id="node1" class="node">
<title>Node1</title>
<g id="a_node1"><a xlink:title=" ">
<polygon fill="#bfbfbf" stroke="black" points="0,-76.5 0,-95.5 113,-95.5 113,-76.5 0,-76.5"/>
<text text-anchor="middle" x="56.5" y="-83.5" font-family="Helvetica,sans-Serif" font-size="10.00">PK_DeviceNameSet</text>
</a>
</g>
</g>
<!-- Node2 -->
<g id="node2" class="node">
<title>Node2</title>
<g id="a_node2"><a xlink:href="pokeyslib_2PoKeysLibCore_8c.html#acb1fdd8f77277dc66c4d037218bfcece" target="_top" xlink:title=" ">
<polygon fill="white" stroke="black" points="149,-95.5 149,-114.5 238,-114.5 238,-95.5 149,-95.5"/>
<text text-anchor="middle" x="193.5" y="-102.5" font-family="Helvetica,sans-Serif" font-size="10.00">CreateRequest</text>
</a>
</g>
</g>
<!-- Node1&#45;&gt;Node2 -->
<g id="edge1" class="edge">
<title>Node1&#45;&gt;Node2</title>
<path fill="none" stroke="midnightblue" d="M113.19,-93.84C121.66,-95.03 130.38,-96.26 138.81,-97.44"/>
<polygon fill="midnightblue" stroke="midnightblue" points="138.51,-100.94 148.9,-98.86 139.48,-94 138.51,-100.94"/>
</g>
<!-- Node3 -->
<g id="node3" class="node">
<title>Node3</title>
<g id="a_node3"><a xlink:href="pokeyslib_2PoKeysLibCore_8c.html#ab5d92aa36d0a4a6953a055f5cd960aff" target="_top" xlink:title=" ">
<polygon fill="white" stroke="black" points="153.5,-57.5 153.5,-76.5 233.5,-76.5 233.5,-57.5 153.5,-57.5"/>
<text text-anchor="middle" x="193.5" y="-64.5" font-family="Helvetica,sans-Serif" font-size="10.00">SendRequest</text>
</a>
</g>
</g>
<!-- Node1&#45;&gt;Node3 -->
<g id="edge2" class="edge">
<title>Node1&#45;&gt;Node3</title>
<path fill="none" stroke="midnightblue" d="M113.19,-78.16C123.22,-76.75 133.6,-75.29 143.42,-73.91"/>
<polygon fill="midnightblue" stroke="midnightblue" points="144,-77.36 153.42,-72.5 143.03,-70.43 144,-77.36"/>
</g>
<!-- Node4 -->
<g id="node4" class="node">
<title>Node4</title>
<g id="a_node4"><a xlink:href="pokeyslib_2PoKeysLibCore_8c.html#a273b6d635dea8f559b915cdb289d021e" target="_top" xlink:title=" ">
<polygon fill="white" stroke="black" points="415.5,-38.5 415.5,-57.5 498.5,-57.5 498.5,-38.5 415.5,-38.5"/>
<text text-anchor="middle" x="457" y="-45.5" font-family="Helvetica,sans-Serif" font-size="10.00">getChecksum</text>
</a>
</g>
</g>
<!-- Node3&#45;&gt;Node4 -->
<g id="edge3" class="edge">
<title>Node3&#45;&gt;Node4</title>
<path fill="none" stroke="midnightblue" d="M233.67,-69.42C269.32,-71.06 323.36,-72.09 370,-67 383.57,-65.52 398.13,-62.76 411.34,-59.8"/>
<polygon fill="midnightblue" stroke="midnightblue" points="412.2,-63.19 421.14,-57.51 410.61,-56.37 412.2,-63.19"/>
</g>
<!-- Node5 -->
<g id="node5" class="node">
<title>Node5</title>
<g id="a_node5"><a xlink:href="group__API.html#ga6b820f3e72097cf7f994e33715dc7af1" target="_top" xlink:title="Read an Input report from a HID device.">
<polygon fill="white" stroke="black" points="292.5,-114.5 292.5,-133.5 351.5,-133.5 351.5,-114.5 292.5,-114.5"/>
<text text-anchor="middle" x="322" y="-121.5" font-family="Helvetica,sans-Serif" font-size="10.00">hid_read</text>
</a>
</g>
</g>
<!-- Node3&#45;&gt;Node5 -->
<g id="edge4" class="edge">
<title>Node3&#45;&gt;Node5</title>
<path fill="none" stroke="midnightblue" d="M216.66,-76.59C223.51,-79.58 231.08,-82.9 238,-86 255.61,-93.88 275.24,-102.86 290.99,-110.11"/>
<polygon fill="midnightblue" stroke="midnightblue" points="289.69,-113.36 300.24,-114.37 292.62,-107.01 289.69,-113.36"/>
</g>
<!-- Node7 -->
<g id="node7" class="node">
<title>Node7</title>
<g id="a_node7"><a xlink:href="group__API.html#gad14ea48e440cf5066df87cc6488493af" target="_top" xlink:title="Write an Output report to a HID device.">
<polygon fill="white" stroke="black" points="291,-38.5 291,-57.5 353,-57.5 353,-38.5 291,-38.5"/>
<text text-anchor="middle" x="322" y="-45.5" font-family="Helvetica,sans-Serif" font-size="10.00">hid_write</text>
</a>
</g>
</g>
<!-- Node3&#45;&gt;Node7 -->
<g id="edge6" class="edge">
<title>Node3&#45;&gt;Node7</title>
<path fill="none" stroke="midnightblue" d="M233.83,-61.09C248.8,-58.84 265.86,-56.28 280.9,-54.02"/>
<polygon fill="midnightblue" stroke="midnightblue" points="281.57,-57.46 290.94,-52.52 280.53,-50.54 281.57,-57.46"/>
</g>
<!-- Node8 -->
<g id="node8" class="node">
<title>Node8</title>
<g id="a_node8"><a xlink:href="pokeyslib_2PoKeysLibCoreSockets_8c.html#a22759fb4024c9081af26ac1bc6541b47" target="_top" xlink:title=" ">
<polygon fill="white" stroke="black" points="274,-0.5 274,-19.5 370,-19.5 370,-0.5 274,-0.5"/>
<text text-anchor="middle" x="322" y="-7.5" font-family="Helvetica,sans-Serif" font-size="10.00">SendEthRequest</text>
</a>
</g>
</g>
<!-- Node3&#45;&gt;Node8 -->
<g id="edge7" class="edge">
<title>Node3&#45;&gt;Node8</title>
<path fill="none" stroke="midnightblue" d="M213.62,-57.45C229.63,-49.56 253.14,-38.19 274,-29 278.19,-27.15 282.62,-25.27 287.02,-23.45"/>
<polygon fill="midnightblue" stroke="midnightblue" points="288.55,-26.6 296.49,-19.58 285.91,-20.12 288.55,-26.6"/>
</g>
<!-- Node6 -->
<g id="node6" class="node">
<title>Node6</title>
<g id="a_node6"><a xlink:href="group__API.html#gaa5c9ed5aa290688ffac03343989ad75a" target="_top" xlink:title="Read an Input report from a HID device with timeout.">
<polygon fill="white" stroke="black" points="406,-114.5 406,-133.5 508,-133.5 508,-114.5 406,-114.5"/>
<text text-anchor="middle" x="457" y="-121.5" font-family="Helvetica,sans-Serif" font-size="10.00">hid_read_timeout</text>
</a>
</g>
</g>
<!-- Node5&#45;&gt;Node6 -->
<g id="edge5" class="edge">
<title>Node5&#45;&gt;Node6</title>
<path fill="none" stroke="midnightblue" d="M351.53,-124C364.49,-124 380.35,-124 395.75,-124"/>
<polygon fill="midnightblue" stroke="midnightblue" points="395.77,-127.5 405.77,-124 395.77,-120.5 395.77,-127.5"/>
</g>
<!-- Node8&#45;&gt;Node4 -->
<g id="edge8" class="edge">
<title>Node8&#45;&gt;Node4</title>
<path fill="none" stroke="midnightblue" d="M356.56,-19.59C373.57,-24.45 394.43,-30.41 412.64,-35.61"/>
<polygon fill="midnightblue" stroke="midnightblue" points="411.87,-39.03 422.45,-38.41 413.8,-32.3 411.87,-39.03"/>
</g>
</g>
</svg>
