<?xml version="1.0" encoding="UTF-8" standalone="no"?>
<!DOCTYPE svg PUBLIC "-//W3C//DTD SVG 1.1//EN"
 "http://www.w3.org/Graphics/SVG/1.1/DTD/svg11.dtd">
<!-- Generated by graphviz version 2.43.0 (0)
 -->
<!-- Title: /home/cnc/actions&#45;runner/_work/LinuxCnc_PokeysLibComp/LinuxCnc_PokeysLibComp/external/pokeysHal/PoKeysLibWS2812.c Pages: 1 -->
<svg width="558pt" height="341pt"
 viewBox="0.00 0.00 558.00 341.00" xmlns="http://www.w3.org/2000/svg" xmlns:xlink="http://www.w3.org/1999/xlink">
<g id="graph0" class="graph" transform="scale(1 1) rotate(0) translate(4 337)">
<title>/home/cnc/actions&#45;runner/_work/LinuxCnc_PokeysLibComp/LinuxCnc_PokeysLibComp/external/pokeysHal/PoKeysLibWS2812.c</title>
<polygon fill="white" stroke="transparent" points="-4,4 -4,-337 554,-337 554,4 -4,4"/>
<!-- Node1 -->
<g id="node1" class="node">
<title>Node1</title>
<g id="a_node1"><a xlink:title="WS2812 LED strip control (command 0x4B).">
<polygon fill="#bfbfbf" stroke="black" points="197,-280.5 197,-332.5 387,-332.5 387,-280.5 197,-280.5"/>
<text text-anchor="start" x="205" y="-320.5" font-family="Helvetica,sans-Serif" font-size="10.00">/home/cnc/actions&#45;runner</text>
<text text-anchor="start" x="205" y="-309.5" font-family="Helvetica,sans-Serif" font-size="10.00">/_work/LinuxCnc_PokeysLibComp</text>
<text text-anchor="start" x="205" y="-298.5" font-family="Helvetica,sans-Serif" font-size="10.00">/LinuxCnc_PokeysLibComp/external</text>
<text text-anchor="middle" x="292" y="-287.5" font-family="Helvetica,sans-Serif" font-size="10.00">/pokeysHal/PoKeysLibWS2812.c</text>
</a>
</g>
</g>
<!-- Node2 -->
<g id="node2" class="node">
<title>Node2</title>
<g id="a_node2"><a xlink:href="PoKeysLibHal_8h.html" target="_top" xlink:title=" ">
<polygon fill="white" stroke="black" points="244,-168.5 244,-187.5 336,-187.5 336,-168.5 244,-168.5"/>
<text text-anchor="middle" x="290" y="-175.5" font-family="Helvetica,sans-Serif" font-size="10.00">PoKeysLibHal.h</text>
</a>
</g>
</g>
<!-- Node1&#45;&gt;Node2 -->
<g id="edge1" class="edge">
<title>Node1&#45;&gt;Node2</title>
<path fill="none" stroke="midnightblue" d="M291.6,-280.2C291.22,-255.88 290.64,-219.67 290.3,-197.8"/>
<polygon fill="midnightblue" stroke="midnightblue" points="293.79,-197.49 290.14,-187.55 286.79,-197.6 293.79,-197.49"/>
</g>
<!-- Node16 -->
<g id="node16" class="node">
<title>Node16</title>
<g id="a_node16"><a xlink:href="pokeysHal_2PoKeysLibCore_8h.html" target="_top" xlink:title=" ">
<polygon fill="white" stroke="black" points="332,-224.5 332,-243.5 430,-243.5 430,-224.5 332,-224.5"/>
<text text-anchor="middle" x="381" y="-231.5" font-family="Helvetica,sans-Serif" font-size="10.00">PoKeysLibCore.h</text>
</a>
</g>
</g>
<!-- Node1&#45;&gt;Node16 -->
<g id="edge15" class="edge">
<title>Node1&#45;&gt;Node16</title>
<path fill="none" stroke="midnightblue" d="M323.63,-280.45C336.4,-270.33 350.72,-258.98 361.86,-250.16"/>
<polygon fill="midnightblue" stroke="midnightblue" points="364.36,-252.65 370.02,-243.7 360.01,-247.16 364.36,-252.65"/>
</g>
<!-- Node21 -->
<g id="node21" class="node">
<title>Node21</title>
<g id="a_node21"><a xlink:href="PoKeysLibAsync_8h.html" target="_top" xlink:title=" ">
<polygon fill="white" stroke="black" points="160,-224.5 160,-243.5 264,-243.5 264,-224.5 160,-224.5"/>
<text text-anchor="middle" x="212" y="-231.5" font-family="Helvetica,sans-Serif" font-size="10.00">PoKeysLibAsync.h</text>
</a>
</g>
</g>
<!-- Node1&#45;&gt;Node21 -->
<g id="edge21" class="edge">
<title>Node1&#45;&gt;Node21</title>
<path fill="none" stroke="midnightblue" d="M263.57,-280.45C252.2,-270.43 239.47,-259.21 229.5,-250.42"/>
<polygon fill="midnightblue" stroke="midnightblue" points="231.68,-247.68 221.87,-243.7 227.06,-252.93 231.68,-247.68"/>
</g>
<!-- Node3 -->
<g id="node3" class="node">
<title>Node3</title>
<g id="a_node3"><a xlink:title=" ">
<polygon fill="white" stroke="#bfbfbf" points="201.5,-112.5 201.5,-131.5 254.5,-131.5 254.5,-112.5 201.5,-112.5"/>
<text text-anchor="middle" x="228" y="-119.5" font-family="Helvetica,sans-Serif" font-size="10.00">stdint.h</text>
</a>
</g>
</g>
<!-- Node2&#45;&gt;Node3 -->
<g id="edge2" class="edge">
<title>Node2&#45;&gt;Node3</title>
<path fill="none" stroke="midnightblue" d="M280.04,-168.32C270.87,-160.34 257.06,-148.31 245.97,-138.65"/>
<polygon fill="midnightblue" stroke="midnightblue" points="247.98,-135.76 238.14,-131.83 243.38,-141.04 247.98,-135.76"/>
</g>
<!-- Node4 -->
<g id="node4" class="node">
<title>Node4</title>
<g id="a_node4"><a xlink:href="hal_8h.html" target="_top" xlink:title=" ">
<polygon fill="white" stroke="black" points="272.5,-112.5 272.5,-131.5 313.5,-131.5 313.5,-112.5 272.5,-112.5"/>
<text text-anchor="middle" x="293" y="-119.5" font-family="Helvetica,sans-Serif" font-size="10.00">hal.h</text>
</a>
</g>
</g>
<!-- Node2&#45;&gt;Node4 -->
<g id="edge3" class="edge">
<title>Node2&#45;&gt;Node4</title>
<path fill="none" stroke="midnightblue" d="M290.5,-168.08C290.89,-161.01 291.45,-150.86 291.95,-141.99"/>
<polygon fill="midnightblue" stroke="midnightblue" points="295.45,-141.93 292.51,-131.75 288.46,-141.54 295.45,-141.93"/>
</g>
<!-- Node15 -->
<g id="node15" class="node">
<title>Node15</title>
<g id="a_node15"><a xlink:title=" ">
<polygon fill="white" stroke="#bfbfbf" points="331.5,-112.5 331.5,-131.5 406.5,-131.5 406.5,-112.5 331.5,-112.5"/>
<text text-anchor="middle" x="369" y="-119.5" font-family="Helvetica,sans-Serif" font-size="10.00">hal_canon.h</text>
</a>
</g>
</g>
<!-- Node2&#45;&gt;Node15 -->
<g id="edge14" class="edge">
<title>Node2&#45;&gt;Node15</title>
<path fill="none" stroke="midnightblue" d="M302.69,-168.32C314.9,-159.98 333.58,-147.21 348,-137.35"/>
<polygon fill="midnightblue" stroke="midnightblue" points="350.06,-140.19 356.34,-131.65 346.11,-134.41 350.06,-140.19"/>
</g>
<!-- Node5 -->
<g id="node5" class="node">
<title>Node5</title>
<g id="a_node5"><a xlink:href="rtapi_8h.html" target="_top" xlink:title=" ">
<polygon fill="white" stroke="black" points="84,-56.5 84,-75.5 132,-75.5 132,-56.5 84,-56.5"/>
<text text-anchor="middle" x="108" y="-63.5" font-family="Helvetica,sans-Serif" font-size="10.00">rtapi.h</text>
</a>
</g>
</g>
<!-- Node4&#45;&gt;Node5 -->
<g id="edge4" class="edge">
<title>Node4&#45;&gt;Node5</title>
<path fill="none" stroke="midnightblue" d="M272.35,-114.78C269.22,-113.84 266.02,-112.89 263,-112 221.47,-99.74 173.6,-85.89 142.18,-76.83"/>
<polygon fill="midnightblue" stroke="midnightblue" points="142.76,-73.35 132.18,-73.95 140.82,-80.08 142.76,-73.35"/>
</g>
<!-- Node9 -->
<g id="node9" class="node">
<title>Node9</title>
<g id="a_node9"><a xlink:href="rtapi__errno_8h.html" target="_top" xlink:title=" ">
<polygon fill="white" stroke="black" points="300.5,-56.5 300.5,-75.5 379.5,-75.5 379.5,-56.5 300.5,-56.5"/>
<text text-anchor="middle" x="340" y="-63.5" font-family="Helvetica,sans-Serif" font-size="10.00">rtapi_errno.h</text>
</a>
</g>
</g>
<!-- Node4&#45;&gt;Node9 -->
<g id="edge8" class="edge">
<title>Node4&#45;&gt;Node9</title>
<path fill="none" stroke="midnightblue" d="M300.76,-112.08C307.54,-104.3 317.54,-92.8 325.76,-83.37"/>
<polygon fill="midnightblue" stroke="midnightblue" points="328.46,-85.59 332.38,-75.75 323.18,-81 328.46,-85.59"/>
</g>
<!-- Node11 -->
<g id="node11" class="node">
<title>Node11</title>
<g id="a_node11"><a xlink:href="rtapi__bool_8h.html" target="_top" xlink:title=" ">
<polygon fill="white" stroke="black" points="208,-56.5 208,-75.5 282,-75.5 282,-56.5 208,-56.5"/>
<text text-anchor="middle" x="245" y="-63.5" font-family="Helvetica,sans-Serif" font-size="10.00">rtapi_bool.h</text>
</a>
</g>
</g>
<!-- Node4&#45;&gt;Node11 -->
<g id="edge10" class="edge">
<title>Node4&#45;&gt;Node11</title>
<path fill="none" stroke="midnightblue" d="M285.07,-112.08C278.15,-104.3 267.93,-92.8 259.55,-83.37"/>
<polygon fill="midnightblue" stroke="midnightblue" points="262.04,-80.9 252.78,-75.75 256.81,-85.55 262.04,-80.9"/>
</g>
<!-- Node13 -->
<g id="node13" class="node">
<title>Node13</title>
<g id="a_node13"><a xlink:href="rtapi__stdint_8h.html" target="_top" xlink:title=" ">
<polygon fill="white" stroke="black" points="397.5,-56.5 397.5,-75.5 478.5,-75.5 478.5,-56.5 397.5,-56.5"/>
<text text-anchor="middle" x="438" y="-63.5" font-family="Helvetica,sans-Serif" font-size="10.00">rtapi_stdint.h</text>
</a>
</g>
</g>
<!-- Node4&#45;&gt;Node13 -->
<g id="edge12" class="edge">
<title>Node4&#45;&gt;Node13</title>
<path fill="none" stroke="midnightblue" d="M313.77,-113.26C337.73,-104.34 377.41,-89.56 405.47,-79.11"/>
<polygon fill="midnightblue" stroke="midnightblue" points="406.72,-82.39 414.87,-75.62 404.27,-75.83 406.72,-82.39"/>
</g>
<!-- Node6 -->
<g id="node6" class="node">
<title>Node6</title>
<g id="a_node6"><a xlink:title=" ">
<polygon fill="white" stroke="#bfbfbf" points="0,-0.5 0,-19.5 56,-19.5 56,-0.5 0,-0.5"/>
<text text-anchor="middle" x="28" y="-7.5" font-family="Helvetica,sans-Serif" font-size="10.00">stddef.h</text>
</a>
</g>
</g>
<!-- Node5&#45;&gt;Node6 -->
<g id="edge5" class="edge">
<title>Node5&#45;&gt;Node6</title>
<path fill="none" stroke="midnightblue" d="M95.15,-56.32C82.78,-47.98 63.87,-35.21 49.26,-25.35"/>
<polygon fill="midnightblue" stroke="midnightblue" points="51.07,-22.35 40.82,-19.65 47.15,-28.15 51.07,-22.35"/>
</g>
<!-- Node7 -->
<g id="node7" class="node">
<title>Node7</title>
<g id="a_node7"><a xlink:title=" ">
<polygon fill="white" stroke="#bfbfbf" points="74,-0.5 74,-19.5 130,-19.5 130,-0.5 74,-0.5"/>
<text text-anchor="middle" x="102" y="-7.5" font-family="Helvetica,sans-Serif" font-size="10.00">stdarg.h</text>
</a>
</g>
</g>
<!-- Node5&#45;&gt;Node7 -->
<g id="edge6" class="edge">
<title>Node5&#45;&gt;Node7</title>
<path fill="none" stroke="midnightblue" d="M107.01,-56.08C106.21,-48.93 105.07,-38.64 104.08,-29.69"/>
<polygon fill="midnightblue" stroke="midnightblue" points="107.56,-29.3 102.97,-19.75 100.6,-30.08 107.56,-29.3"/>
</g>
<!-- Node8 -->
<g id="node8" class="node">
<title>Node8</title>
<g id="a_node8"><a xlink:title=" ">
<polygon fill="white" stroke="#bfbfbf" points="148.5,-0.5 148.5,-19.5 205.5,-19.5 205.5,-0.5 148.5,-0.5"/>
<text text-anchor="middle" x="177" y="-7.5" font-family="Helvetica,sans-Serif" font-size="10.00">spawn.h</text>
</a>
</g>
</g>
<!-- Node5&#45;&gt;Node8 -->
<g id="edge7" class="edge">
<title>Node5&#45;&gt;Node8</title>
<path fill="none" stroke="midnightblue" d="M119.09,-56.32C129.49,-48.18 145.26,-35.84 157.72,-26.09"/>
<polygon fill="midnightblue" stroke="midnightblue" points="159.99,-28.75 165.71,-19.83 155.68,-23.24 159.99,-28.75"/>
</g>
<!-- Node10 -->
<g id="node10" class="node">
<title>Node10</title>
<g id="a_node10"><a xlink:title=" ">
<polygon fill="white" stroke="#bfbfbf" points="314.5,-0.5 314.5,-19.5 365.5,-19.5 365.5,-0.5 314.5,-0.5"/>
<text text-anchor="middle" x="340" y="-7.5" font-family="Helvetica,sans-Serif" font-size="10.00">errno.h</text>
</a>
</g>
</g>
<!-- Node9&#45;&gt;Node10 -->
<g id="edge9" class="edge">
<title>Node9&#45;&gt;Node10</title>
<path fill="none" stroke="midnightblue" d="M340,-56.08C340,-49.01 340,-38.86 340,-29.99"/>
<polygon fill="midnightblue" stroke="midnightblue" points="343.5,-29.75 340,-19.75 336.5,-29.75 343.5,-29.75"/>
</g>
<!-- Node12 -->
<g id="node12" class="node">
<title>Node12</title>
<g id="a_node12"><a xlink:title=" ">
<polygon fill="white" stroke="#bfbfbf" points="224,-0.5 224,-19.5 286,-19.5 286,-0.5 224,-0.5"/>
<text text-anchor="middle" x="255" y="-7.5" font-family="Helvetica,sans-Serif" font-size="10.00">stdbool.h</text>
</a>
</g>
</g>
<!-- Node11&#45;&gt;Node12 -->
<g id="edge11" class="edge">
<title>Node11&#45;&gt;Node12</title>
<path fill="none" stroke="midnightblue" d="M246.65,-56.08C247.98,-48.93 249.88,-38.64 251.54,-29.69"/>
<polygon fill="midnightblue" stroke="midnightblue" points="255,-30.22 253.38,-19.75 248.12,-28.95 255,-30.22"/>
</g>
<!-- Node14 -->
<g id="node14" class="node">
<title>Node14</title>
<g id="a_node14"><a xlink:title=" ">
<polygon fill="white" stroke="#bfbfbf" points="405.5,-0.5 405.5,-19.5 470.5,-19.5 470.5,-0.5 405.5,-0.5"/>
<text text-anchor="middle" x="438" y="-7.5" font-family="Helvetica,sans-Serif" font-size="10.00">inttypes.h</text>
</a>
</g>
</g>
<!-- Node13&#45;&gt;Node14 -->
<g id="edge13" class="edge">
<title>Node13&#45;&gt;Node14</title>
<path fill="none" stroke="midnightblue" d="M438,-56.08C438,-49.01 438,-38.86 438,-29.99"/>
<polygon fill="midnightblue" stroke="midnightblue" points="441.5,-29.75 438,-19.75 434.5,-29.75 441.5,-29.75"/>
</g>
<!-- Node16&#45;&gt;Node2 -->
<g id="edge20" class="edge">
<title>Node16&#45;&gt;Node2</title>
<path fill="none" stroke="midnightblue" d="M366.38,-224.32C352.05,-215.82 329.99,-202.73 313.25,-192.8"/>
<polygon fill="midnightblue" stroke="midnightblue" points="314.97,-189.75 304.58,-187.65 311.4,-195.77 314.97,-189.75"/>
</g>
<!-- Node17 -->
<g id="node17" class="node">
<title>Node17</title>
<g id="a_node17"><a xlink:href="pokeysHal_2hidapi_8h.html" target="_top" xlink:title=" ">
<polygon fill="white" stroke="black" points="426,-168.5 426,-187.5 482,-187.5 482,-168.5 426,-168.5"/>
<text text-anchor="middle" x="454" y="-175.5" font-family="Helvetica,sans-Serif" font-size="10.00">hidapi.h</text>
</a>
</g>
</g>
<!-- Node16&#45;&gt;Node17 -->
<g id="edge16" class="edge">
<title>Node16&#45;&gt;Node17</title>
<path fill="none" stroke="midnightblue" d="M392.73,-224.32C403.84,-216.11 420.74,-203.6 433.98,-193.81"/>
<polygon fill="midnightblue" stroke="midnightblue" points="436.1,-196.59 442.06,-187.83 431.94,-190.97 436.1,-196.59"/>
</g>
<!-- Node19 -->
<g id="node19" class="node">
<title>Node19</title>
<g id="a_node19"><a xlink:title=" ">
<polygon fill="white" stroke="#bfbfbf" points="500,-168.5 500,-187.5 550,-187.5 550,-168.5 500,-168.5"/>
<text text-anchor="middle" x="525" y="-175.5" font-family="Helvetica,sans-Serif" font-size="10.00">stdio.h</text>
</a>
</g>
</g>
<!-- Node16&#45;&gt;Node19 -->
<g id="edge18" class="edge">
<title>Node16&#45;&gt;Node19</title>
<path fill="none" stroke="midnightblue" d="M403.82,-224.44C427.83,-215.44 465.83,-201.19 492.87,-191.05"/>
<polygon fill="midnightblue" stroke="midnightblue" points="494.16,-194.3 502.29,-187.52 491.7,-187.75 494.16,-194.3"/>
</g>
<!-- Node20 -->
<g id="node20" class="node">
<title>Node20</title>
<g id="a_node20"><a xlink:title=" ">
<polygon fill="white" stroke="#bfbfbf" points="354.5,-168.5 354.5,-187.5 407.5,-187.5 407.5,-168.5 354.5,-168.5"/>
<text text-anchor="middle" x="381" y="-175.5" font-family="Helvetica,sans-Serif" font-size="10.00">string.h</text>
</a>
</g>
</g>
<!-- Node16&#45;&gt;Node20 -->
<g id="edge19" class="edge">
<title>Node16&#45;&gt;Node20</title>
<path fill="none" stroke="midnightblue" d="M381,-224.08C381,-217.01 381,-206.86 381,-197.99"/>
<polygon fill="midnightblue" stroke="midnightblue" points="384.5,-197.75 381,-187.75 377.5,-197.75 384.5,-197.75"/>
</g>
<!-- Node18 -->
<g id="node18" class="node">
<title>Node18</title>
<g id="a_node18"><a xlink:title=" ">
<polygon fill="white" stroke="#bfbfbf" points="427,-112.5 427,-131.5 481,-131.5 481,-112.5 427,-112.5"/>
<text text-anchor="middle" x="454" y="-119.5" font-family="Helvetica,sans-Serif" font-size="10.00">wchar.h</text>
</a>
</g>
</g>
<!-- Node17&#45;&gt;Node18 -->
<g id="edge17" class="edge">
<title>Node17&#45;&gt;Node18</title>
<path fill="none" stroke="midnightblue" d="M454,-168.08C454,-161.01 454,-150.86 454,-141.99"/>
<polygon fill="midnightblue" stroke="midnightblue" points="457.5,-141.75 454,-131.75 450.5,-141.75 457.5,-141.75"/>
</g>
<!-- Node21&#45;&gt;Node2 -->
<g id="edge22" class="edge">
<title>Node21&#45;&gt;Node2</title>
<path fill="none" stroke="midnightblue" d="M224.53,-224.32C236.59,-215.98 255.03,-203.21 269.27,-193.35"/>
<polygon fill="midnightblue" stroke="midnightblue" points="271.27,-196.22 277.5,-187.65 267.28,-190.47 271.27,-196.22"/>
</g>
<!-- Node21&#45;&gt;Node3 -->
<g id="edge23" class="edge">
<title>Node21&#45;&gt;Node3</title>
<path fill="none" stroke="midnightblue" d="M213.26,-224.37C215.84,-206.62 221.79,-165.67 225.29,-141.6"/>
<polygon fill="midnightblue" stroke="midnightblue" points="228.77,-141.99 226.75,-131.59 221.85,-140.98 228.77,-141.99"/>
</g>
<!-- Node21&#45;&gt;Node6 -->
<g id="edge24" class="edge">
<title>Node21&#45;&gt;Node6</title>
<path fill="none" stroke="midnightblue" d="M203.99,-224.39C182.41,-201.09 121.6,-134.61 75,-76 62.45,-60.21 49.05,-41.48 39.79,-28.19"/>
<polygon fill="midnightblue" stroke="midnightblue" points="42.41,-25.83 33.84,-19.6 36.65,-29.81 42.41,-25.83"/>
</g>
<!-- Node21&#45;&gt;Node12 -->
<g id="edge25" class="edge">
<title>Node21&#45;&gt;Node12</title>
<path fill="none" stroke="midnightblue" d="M208.16,-224.17C196.97,-196.99 167.16,-113.04 199,-56 206.15,-43.2 218.54,-32.66 229.85,-25.01"/>
<polygon fill="midnightblue" stroke="midnightblue" points="231.99,-27.81 238.58,-19.51 228.25,-21.89 231.99,-27.81"/>
</g>
</g>
</svg>
