<?xml version="1.0" encoding="UTF-8" standalone="no"?>
<!DOCTYPE svg PUBLIC "-//W3C//DTD SVG 1.1//EN"
 "http://www.w3.org/Graphics/SVG/1.1/DTD/svg11.dtd">
<!-- Generated by graphviz version 2.43.0 (0)
 -->
<!-- Title: PK_FailsafeSettingsGet Pages: 1 -->
<svg width="532pt" height="142pt"
 viewBox="0.00 0.00 532.00 142.00" xmlns="http://www.w3.org/2000/svg" xmlns:xlink="http://www.w3.org/1999/xlink">
<g id="graph0" class="graph" transform="scale(1 1) rotate(0) translate(4 138)">
<title>PK_FailsafeSettingsGet</title>
<polygon fill="white" stroke="transparent" points="-4,4 -4,-138 528,-138 528,4 -4,4"/>
<!-- Node1 -->
<g id="node1" class="node">
<title>Node1</title>
<g id="a_node1"><a xlink:title="Read failsafe configuration from the device (command 0x81).">
<polygon fill="#bfbfbf" stroke="black" points="0,-76.5 0,-95.5 129,-95.5 129,-76.5 0,-76.5"/>
<text text-anchor="middle" x="64.5" y="-83.5" font-family="Helvetica,sans-Serif" font-size="10.00">PK_FailsafeSettingsGet</text>
</a>
</g>
</g>
<!-- Node2 -->
<g id="node2" class="node">
<title>Node2</title>
<g id="a_node2"><a xlink:href="pokeyslib_2PoKeysLibCore_8c.html#acb1fdd8f77277dc66c4d037218bfcece" target="_top" xlink:title=" ">
<polygon fill="white" stroke="black" points="165,-95.5 165,-114.5 254,-114.5 254,-95.5 165,-95.5"/>
<text text-anchor="middle" x="209.5" y="-102.5" font-family="Helvetica,sans-Serif" font-size="10.00">CreateRequest</text>
</a>
</g>
</g>
<!-- Node1&#45;&gt;Node2 -->
<g id="edge1" class="edge">
<title>Node1&#45;&gt;Node2</title>
<path fill="none" stroke="midnightblue" d="M129.05,-94.44C137.65,-95.59 146.39,-96.75 154.79,-97.86"/>
<polygon fill="midnightblue" stroke="midnightblue" points="154.45,-101.35 164.82,-99.2 155.37,-94.41 154.45,-101.35"/>
</g>
<!-- Node3 -->
<g id="node3" class="node">
<title>Node3</title>
<g id="a_node3"><a xlink:href="pokeyslib_2PoKeysLibCore_8c.html#ab5d92aa36d0a4a6953a055f5cd960aff" target="_top" xlink:title=" ">
<polygon fill="white" stroke="black" points="169.5,-57.5 169.5,-76.5 249.5,-76.5 249.5,-57.5 169.5,-57.5"/>
<text text-anchor="middle" x="209.5" y="-64.5" font-family="Helvetica,sans-Serif" font-size="10.00">SendRequest</text>
</a>
</g>
</g>
<!-- Node1&#45;&gt;Node3 -->
<g id="edge2" class="edge">
<title>Node1&#45;&gt;Node3</title>
<path fill="none" stroke="midnightblue" d="M129.05,-77.56C139.24,-76.2 149.65,-74.82 159.43,-73.52"/>
<polygon fill="midnightblue" stroke="midnightblue" points="159.91,-76.99 169.36,-72.2 158.99,-70.05 159.91,-76.99"/>
</g>
<!-- Node4 -->
<g id="node4" class="node">
<title>Node4</title>
<g id="a_node4"><a xlink:href="pokeyslib_2PoKeysLibCore_8c.html#a273b6d635dea8f559b915cdb289d021e" target="_top" xlink:title=" ">
<polygon fill="white" stroke="black" points="431.5,-38.5 431.5,-57.5 514.5,-57.5 514.5,-38.5 431.5,-38.5"/>
<text text-anchor="middle" x="473" y="-45.5" font-family="Helvetica,sans-Serif" font-size="10.00">getChecksum</text>
</a>
</g>
</g>
<!-- Node3&#45;&gt;Node4 -->
<g id="edge3" class="edge">
<title>Node3&#45;&gt;Node4</title>
<path fill="none" stroke="midnightblue" d="M249.67,-69.42C285.32,-71.06 339.36,-72.09 386,-67 399.57,-65.52 414.13,-62.76 427.34,-59.8"/>
<polygon fill="midnightblue" stroke="midnightblue" points="428.2,-63.19 437.14,-57.51 426.61,-56.37 428.2,-63.19"/>
</g>
<!-- Node5 -->
<g id="node5" class="node">
<title>Node5</title>
<g id="a_node5"><a xlink:href="group__API.html#ga6b820f3e72097cf7f994e33715dc7af1" target="_top" xlink:title="Read an Input report from a HID device.">
<polygon fill="white" stroke="black" points="308.5,-114.5 308.5,-133.5 367.5,-133.5 367.5,-114.5 308.5,-114.5"/>
<text text-anchor="middle" x="338" y="-121.5" font-family="Helvetica,sans-Serif" font-size="10.00">hid_read</text>
</a>
</g>
</g>
<!-- Node3&#45;&gt;Node5 -->
<g id="edge4" class="edge">
<title>Node3&#45;&gt;Node5</title>
<path fill="none" stroke="midnightblue" d="M232.66,-76.59C239.51,-79.58 247.08,-82.9 254,-86 271.61,-93.88 291.24,-102.86 306.99,-110.11"/>
<polygon fill="midnightblue" stroke="midnightblue" points="305.69,-113.36 316.24,-114.37 308.62,-107.01 305.69,-113.36"/>
</g>
<!-- Node7 -->
<g id="node7" class="node">
<title>Node7</title>
<g id="a_node7"><a xlink:href="group__API.html#gad14ea48e440cf5066df87cc6488493af" target="_top" xlink:title="Write an Output report to a HID device.">
<polygon fill="white" stroke="black" points="307,-38.5 307,-57.5 369,-57.5 369,-38.5 307,-38.5"/>
<text text-anchor="middle" x="338" y="-45.5" font-family="Helvetica,sans-Serif" font-size="10.00">hid_write</text>
</a>
</g>
</g>
<!-- Node3&#45;&gt;Node7 -->
<g id="edge6" class="edge">
<title>Node3&#45;&gt;Node7</title>
<path fill="none" stroke="midnightblue" d="M249.83,-61.09C264.8,-58.84 281.86,-56.28 296.9,-54.02"/>
<polygon fill="midnightblue" stroke="midnightblue" points="297.57,-57.46 306.94,-52.52 296.53,-50.54 297.57,-57.46"/>
</g>
<!-- Node8 -->
<g id="node8" class="node">
<title>Node8</title>
<g id="a_node8"><a xlink:href="pokeyslib_2PoKeysLibCoreSockets_8c.html#a22759fb4024c9081af26ac1bc6541b47" target="_top" xlink:title=" ">
<polygon fill="white" stroke="black" points="290,-0.5 290,-19.5 386,-19.5 386,-0.5 290,-0.5"/>
<text text-anchor="middle" x="338" y="-7.5" font-family="Helvetica,sans-Serif" font-size="10.00">SendEthRequest</text>
</a>
</g>
</g>
<!-- Node3&#45;&gt;Node8 -->
<g id="edge7" class="edge">
<title>Node3&#45;&gt;Node8</title>
<path fill="none" stroke="midnightblue" d="M229.62,-57.45C245.63,-49.56 269.14,-38.19 290,-29 294.19,-27.15 298.62,-25.27 303.02,-23.45"/>
<polygon fill="midnightblue" stroke="midnightblue" points="304.55,-26.6 312.49,-19.58 301.91,-20.12 304.55,-26.6"/>
</g>
<!-- Node6 -->
<g id="node6" class="node">
<title>Node6</title>
<g id="a_node6"><a xlink:href="group__API.html#gaa5c9ed5aa290688ffac03343989ad75a" target="_top" xlink:title="Read an Input report from a HID device with timeout.">
<polygon fill="white" stroke="black" points="422,-114.5 422,-133.5 524,-133.5 524,-114.5 422,-114.5"/>
<text text-anchor="middle" x="473" y="-121.5" font-family="Helvetica,sans-Serif" font-size="10.00">hid_read_timeout</text>
</a>
</g>
</g>
<!-- Node5&#45;&gt;Node6 -->
<g id="edge5" class="edge">
<title>Node5&#45;&gt;Node6</title>
<path fill="none" stroke="midnightblue" d="M367.53,-124C380.49,-124 396.35,-124 411.75,-124"/>
<polygon fill="midnightblue" stroke="midnightblue" points="411.77,-127.5 421.77,-124 411.77,-120.5 411.77,-127.5"/>
</g>
<!-- Node8&#45;&gt;Node4 -->
<g id="edge8" class="edge">
<title>Node8&#45;&gt;Node4</title>
<path fill="none" stroke="midnightblue" d="M372.56,-19.59C389.57,-24.45 410.43,-30.41 428.64,-35.61"/>
<polygon fill="midnightblue" stroke="midnightblue" points="427.87,-39.03 438.45,-38.41 429.8,-32.3 427.87,-39.03"/>
</g>
</g>
</svg>
