<?xml version="1.0" encoding="UTF-8" standalone="no"?>
<!DOCTYPE svg PUBLIC "-//W3C//DTD SVG 1.1//EN"
 "http://www.w3.org/Graphics/SVG/1.1/DTD/svg11.dtd">
<!-- Generated by graphviz version 2.43.0 (0)
 -->
<!-- Title: PK_ConnectToDeviceWSerial Pages: 1 -->
<svg width="1582pt" height="351pt"
 viewBox="0.00 0.00 1582.00 351.00" xmlns="http://www.w3.org/2000/svg" xmlns:xlink="http://www.w3.org/1999/xlink">
<g id="graph0" class="graph" transform="scale(1 1) rotate(0) translate(4 347)">
<title>PK_ConnectToDeviceWSerial</title>
<polygon fill="white" stroke="transparent" points="-4,4 -4,-347 1578,-347 1578,4 -4,4"/>
<!-- Node1 -->
<g id="node1" class="node">
<title>Node1</title>
<g id="a_node1"><a xlink:title=" ">
<polygon fill="#bfbfbf" stroke="black" points="0,-142.5 0,-161.5 156,-161.5 156,-142.5 0,-142.5"/>
<text text-anchor="middle" x="78" y="-149.5" font-family="Helvetica,sans-Serif" font-size="10.00">PK_ConnectToDeviceWSerial</text>
</a>
</g>
</g>
<!-- Node2 -->
<g id="node2" class="node">
<title>Node2</title>
<g id="a_node2"><a xlink:href="PoKeysLibCore_8c.html#a8ca5d1c479c3da4457b38ec866ea7e3d" target="_top" xlink:title=" ">
<polygon fill="white" stroke="black" points="192,-142.5 192,-161.5 346,-161.5 346,-142.5 192,-142.5"/>
<text text-anchor="middle" x="269" y="-149.5" font-family="Helvetica,sans-Serif" font-size="10.00">PK_ConnectToPoKeysDevice</text>
</a>
</g>
</g>
<!-- Node1&#45;&gt;Node2 -->
<g id="edge1" class="edge">
<title>Node1&#45;&gt;Node2</title>
<path fill="none" stroke="midnightblue" d="M156.15,-152C164.49,-152 173.02,-152 181.47,-152"/>
<polygon fill="midnightblue" stroke="midnightblue" points="181.71,-155.5 191.71,-152 181.71,-148.5 181.71,-155.5"/>
</g>
<!-- Node3 -->
<g id="node3" class="node">
<title>Node3</title>
<g id="a_node3"><a xlink:href="PoKeysLibCore_8c.html#aad34d6ff8fa450eef13043fad9a9231b" target="_top" xlink:title=" ">
<polygon fill="white" stroke="black" points="394.5,-204 394.5,-234 548.5,-234 548.5,-204 394.5,-204"/>
<text text-anchor="start" x="402.5" y="-222" font-family="Helvetica,sans-Serif" font-size="10.00">PK_ConnectToPoKeysDevice</text>
<text text-anchor="middle" x="471.5" y="-211" font-family="Helvetica,sans-Serif" font-size="10.00">_Ethernet</text>
</a>
</g>
</g>
<!-- Node2&#45;&gt;Node3 -->
<g id="edge2" class="edge">
<title>Node2&#45;&gt;Node3</title>
<path fill="none" stroke="midnightblue" d="M298.73,-161.6C329.14,-171.76 377.89,-188.05 415.69,-200.69"/>
<polygon fill="midnightblue" stroke="midnightblue" points="414.95,-204.13 425.55,-203.98 417.17,-197.49 414.95,-204.13"/>
</g>
<!-- Node20 -->
<g id="node20" class="node">
<title>Node20</title>
<g id="a_node20"><a xlink:href="PoKeysLibCore_8c.html#ae21a3349787cf1f1150186e4858397e6" target="_top" xlink:title=" ">
<polygon fill="white" stroke="black" points="382,-95.5 382,-114.5 561,-114.5 561,-95.5 382,-95.5"/>
<text text-anchor="middle" x="471.5" y="-102.5" font-family="Helvetica,sans-Serif" font-size="10.00">PK_ConnectToPoKeysDevice_USB</text>
</a>
</g>
</g>
<!-- Node2&#45;&gt;Node20 -->
<g id="edge21" class="edge">
<title>Node2&#45;&gt;Node20</title>
<path fill="none" stroke="midnightblue" d="M310.57,-142.49C342,-135.12 385.71,-124.88 419.5,-116.96"/>
<polygon fill="midnightblue" stroke="midnightblue" points="420.71,-120.27 429.64,-114.58 419.11,-113.45 420.71,-120.27"/>
</g>
<!-- Node4 -->
<g id="node4" class="node">
<title>Node4</title>
<g id="a_node4"><a xlink:href="PoKeysLibCore_8c.html#ae3a4511713f05f8d9ba2f0250f07957e" target="_top" xlink:title=" ">
<polygon fill="white" stroke="black" points="802.5,-190.5 802.5,-209.5 916.5,-209.5 916.5,-190.5 802.5,-190.5"/>
<text text-anchor="middle" x="859.5" y="-197.5" font-family="Helvetica,sans-Serif" font-size="10.00">InitializeNewDevice</text>
</a>
</g>
</g>
<!-- Node3&#45;&gt;Node4 -->
<g id="edge3" class="edge">
<title>Node3&#45;&gt;Node4</title>
<path fill="none" stroke="midnightblue" d="M548.76,-215.25C619.82,-211.75 724.68,-206.59 792.3,-203.26"/>
<polygon fill="midnightblue" stroke="midnightblue" points="792.6,-206.75 802.41,-202.76 792.25,-199.76 792.6,-206.75"/>
</g>
<!-- Node17 -->
<g id="node17" class="node">
<title>Node17</title>
<g id="a_node17"><a xlink:href="PoKeysLibCoreSockets_8c.html#adc6dbd8de4b4df5dbee307b15af90373" target="_top" xlink:title=" ">
<polygon fill="white" stroke="black" points="597,-228.5 597,-247.5 757,-247.5 757,-228.5 597,-228.5"/>
<text text-anchor="middle" x="677" y="-235.5" font-family="Helvetica,sans-Serif" font-size="10.00">PK_ConnectToNetworkDevice</text>
</a>
</g>
</g>
<!-- Node3&#45;&gt;Node17 -->
<g id="edge17" class="edge">
<title>Node3&#45;&gt;Node17</title>
<path fill="none" stroke="midnightblue" d="M548.57,-226.1C561.04,-227.27 574.06,-228.48 586.81,-229.67"/>
<polygon fill="midnightblue" stroke="midnightblue" points="586.69,-233.18 596.97,-230.62 587.34,-226.21 586.69,-233.18"/>
</g>
<!-- Node18 -->
<g id="node18" class="node">
<title>Node18</title>
<g id="a_node18"><a xlink:href="PoKeysLibCoreSockets_8c.html#ab7f6406237ef072142feb49760d038c7" target="_top" xlink:title=" ">
<polygon fill="white" stroke="black" points="603,-266.5 603,-285.5 751,-285.5 751,-266.5 603,-266.5"/>
<text text-anchor="middle" x="677" y="-273.5" font-family="Helvetica,sans-Serif" font-size="10.00">PK_SearchNetworkDevices</text>
</a>
</g>
</g>
<!-- Node3&#45;&gt;Node18 -->
<g id="edge19" class="edge">
<title>Node3&#45;&gt;Node18</title>
<path fill="none" stroke="midnightblue" d="M519.31,-234.02C542.57,-241.29 571.16,-249.96 597,-257 605.8,-259.4 615.18,-261.8 624.31,-264.04"/>
<polygon fill="midnightblue" stroke="midnightblue" points="623.52,-267.45 634.06,-266.41 625.17,-260.65 623.52,-267.45"/>
</g>
<!-- Node5 -->
<g id="node5" class="node">
<title>Node5</title>
<g id="a_node5"><a xlink:href="PoKeysLibDeviceData_8c.html#a9508e9fcbc964cae1ccdb57f582cb5e1" target="_top" xlink:title=" ">
<polygon fill="white" stroke="black" points="974,-228.5 974,-247.5 1083,-247.5 1083,-228.5 974,-228.5"/>
<text text-anchor="middle" x="1028.5" y="-235.5" font-family="Helvetica,sans-Serif" font-size="10.00">PK_DeviceDataGet</text>
</a>
</g>
</g>
<!-- Node4&#45;&gt;Node5 -->
<g id="edge4" class="edge">
<title>Node4&#45;&gt;Node5</title>
<path fill="none" stroke="midnightblue" d="M902.64,-209.59C924.88,-214.65 952.35,-220.9 975.86,-226.25"/>
<polygon fill="midnightblue" stroke="midnightblue" points="975.13,-229.67 985.66,-228.48 976.69,-222.85 975.13,-229.67"/>
</g>
<!-- Node14 -->
<g id="node14" class="node">
<title>Node14</title>
<g id="a_node14"><a xlink:href="PoKeysLibDeviceData_8c.html#ae4798f617a5dd5ebb93c534258cd0eb9" target="_top" xlink:title=" ">
<polygon fill="white" stroke="black" points="962,-190.5 962,-209.5 1095,-209.5 1095,-190.5 962,-190.5"/>
<text text-anchor="middle" x="1028.5" y="-197.5" font-family="Helvetica,sans-Serif" font-size="10.00">PK_FillPWMPinNumbers</text>
</a>
</g>
</g>
<!-- Node4&#45;&gt;Node14 -->
<g id="edge14" class="edge">
<title>Node4&#45;&gt;Node14</title>
<path fill="none" stroke="midnightblue" d="M916.57,-200C927.79,-200 939.74,-200 951.5,-200"/>
<polygon fill="midnightblue" stroke="midnightblue" points="951.75,-203.5 961.75,-200 951.75,-196.5 951.75,-203.5"/>
</g>
<!-- Node15 -->
<g id="node15" class="node">
<title>Node15</title>
<g id="a_node15"><a xlink:href="PoKeysLibIO_8c.html#a4397536c30fe3f56eb74b56210839349" target="_top" xlink:title=" ">
<polygon fill="white" stroke="black" points="965.5,-152.5 965.5,-171.5 1091.5,-171.5 1091.5,-152.5 965.5,-152.5"/>
<text text-anchor="middle" x="1028.5" y="-159.5" font-family="Helvetica,sans-Serif" font-size="10.00">PK_IsCounterAvailable</text>
</a>
</g>
</g>
<!-- Node4&#45;&gt;Node15 -->
<g id="edge15" class="edge">
<title>Node4&#45;&gt;Node15</title>
<path fill="none" stroke="midnightblue" d="M902.64,-190.41C924.88,-185.35 952.35,-179.1 975.86,-173.75"/>
<polygon fill="midnightblue" stroke="midnightblue" points="976.69,-177.15 985.66,-171.52 975.13,-170.33 976.69,-177.15"/>
</g>
<!-- Node6 -->
<g id="node6" class="node">
<title>Node6</title>
<g id="a_node6"><a xlink:href="PoKeysLibDeviceData_8c.html#a8fa8788bebd4d9501da88a32620a6be1" target="_top" xlink:title=" ">
<polygon fill="white" stroke="black" points="1172.5,-228.5 1172.5,-247.5 1262.5,-247.5 1262.5,-228.5 1172.5,-228.5"/>
<text text-anchor="middle" x="1217.5" y="-235.5" font-family="Helvetica,sans-Serif" font-size="10.00">CompareName</text>
</a>
</g>
</g>
<!-- Node5&#45;&gt;Node6 -->
<g id="edge5" class="edge">
<title>Node5&#45;&gt;Node6</title>
<path fill="none" stroke="midnightblue" d="M1083.09,-238C1107.94,-238 1137.42,-238 1162.35,-238"/>
<polygon fill="midnightblue" stroke="midnightblue" points="1162.36,-241.5 1172.36,-238 1162.36,-234.5 1162.36,-241.5"/>
</g>
<!-- Node7 -->
<g id="node7" class="node">
<title>Node7</title>
<g id="a_node7"><a xlink:href="PoKeysLibCore_8c.html#acb1fdd8f77277dc66c4d037218bfcece" target="_top" xlink:title=" ">
<polygon fill="white" stroke="black" points="1173,-190.5 1173,-209.5 1262,-209.5 1262,-190.5 1173,-190.5"/>
<text text-anchor="middle" x="1217.5" y="-197.5" font-family="Helvetica,sans-Serif" font-size="10.00">CreateRequest</text>
</a>
</g>
</g>
<!-- Node5&#45;&gt;Node7 -->
<g id="edge6" class="edge">
<title>Node5&#45;&gt;Node7</title>
<path fill="none" stroke="midnightblue" d="M1076.69,-228.41C1102.88,-223.09 1135.56,-216.45 1162.73,-210.93"/>
<polygon fill="midnightblue" stroke="midnightblue" points="1163.75,-214.29 1172.86,-208.87 1162.36,-207.43 1163.75,-214.29"/>
</g>
<!-- Node8 -->
<g id="node8" class="node">
<title>Node8</title>
<g id="a_node8"><a xlink:href="PoKeysLibCore_8c.html#ab5d92aa36d0a4a6953a055f5cd960aff" target="_top" xlink:title=" ">
<polygon fill="white" stroke="black" points="1177.5,-266.5 1177.5,-285.5 1257.5,-285.5 1257.5,-266.5 1177.5,-266.5"/>
<text text-anchor="middle" x="1217.5" y="-273.5" font-family="Helvetica,sans-Serif" font-size="10.00">SendRequest</text>
</a>
</g>
</g>
<!-- Node5&#45;&gt;Node8 -->
<g id="edge7" class="edge">
<title>Node5&#45;&gt;Node8</title>
<path fill="none" stroke="midnightblue" d="M1076.69,-247.59C1104.34,-253.21 1139.23,-260.3 1167.24,-265.99"/>
<polygon fill="midnightblue" stroke="midnightblue" points="1166.72,-269.46 1177.22,-268.02 1168.12,-262.6 1166.72,-269.46"/>
</g>
<!-- Node9 -->
<g id="node9" class="node">
<title>Node9</title>
<g id="a_node9"><a xlink:href="PoKeysLibCore_8c.html#a273b6d635dea8f559b915cdb289d021e" target="_top" xlink:title=" ">
<polygon fill="white" stroke="black" points="1481.5,-247.5 1481.5,-266.5 1564.5,-266.5 1564.5,-247.5 1481.5,-247.5"/>
<text text-anchor="middle" x="1523" y="-254.5" font-family="Helvetica,sans-Serif" font-size="10.00">getChecksum</text>
</a>
</g>
</g>
<!-- Node8&#45;&gt;Node9 -->
<g id="edge8" class="edge">
<title>Node8&#45;&gt;Node9</title>
<path fill="none" stroke="midnightblue" d="M1257.54,-278.54C1301.17,-280.79 1373.88,-282.78 1436,-276 1449.57,-274.52 1464.13,-271.76 1477.34,-268.8"/>
<polygon fill="midnightblue" stroke="midnightblue" points="1478.2,-272.19 1487.14,-266.51 1476.61,-265.37 1478.2,-272.19"/>
</g>
<!-- Node10 -->
<g id="node10" class="node">
<title>Node10</title>
<g id="a_node10"><a xlink:href="group__API.html#ga6b820f3e72097cf7f994e33715dc7af1" target="_top" xlink:title="Read an Input report from a HID device.">
<polygon fill="white" stroke="black" points="1358.5,-323.5 1358.5,-342.5 1417.5,-342.5 1417.5,-323.5 1358.5,-323.5"/>
<text text-anchor="middle" x="1388" y="-330.5" font-family="Helvetica,sans-Serif" font-size="10.00">hid_read</text>
</a>
</g>
</g>
<!-- Node8&#45;&gt;Node10 -->
<g id="edge9" class="edge">
<title>Node8&#45;&gt;Node10</title>
<path fill="none" stroke="midnightblue" d="M1246.7,-285.54C1274.77,-295.03 1318.02,-309.67 1349.08,-320.17"/>
<polygon fill="midnightblue" stroke="midnightblue" points="1348.11,-323.54 1358.7,-323.43 1350.35,-316.91 1348.11,-323.54"/>
</g>
<!-- Node12 -->
<g id="node12" class="node">
<title>Node12</title>
<g id="a_node12"><a xlink:href="group__API.html#gad14ea48e440cf5066df87cc6488493af" target="_top" xlink:title="Write an Output report to a HID device.">
<polygon fill="white" stroke="black" points="1357,-247.5 1357,-266.5 1419,-266.5 1419,-247.5 1357,-247.5"/>
<text text-anchor="middle" x="1388" y="-254.5" font-family="Helvetica,sans-Serif" font-size="10.00">hid_write</text>
</a>
</g>
</g>
<!-- Node8&#45;&gt;Node12 -->
<g id="edge11" class="edge">
<title>Node8&#45;&gt;Node12</title>
<path fill="none" stroke="midnightblue" d="M1257.58,-271.59C1284.27,-268.58 1319.55,-264.61 1346.54,-261.56"/>
<polygon fill="midnightblue" stroke="midnightblue" points="1347.26,-265 1356.8,-260.41 1346.47,-258.05 1347.26,-265"/>
</g>
<!-- Node13 -->
<g id="node13" class="node">
<title>Node13</title>
<g id="a_node13"><a xlink:href="PoKeysLibCoreSockets_8c.html#a22759fb4024c9081af26ac1bc6541b47" target="_top" xlink:title=" ">
<polygon fill="white" stroke="black" points="1340,-209.5 1340,-228.5 1436,-228.5 1436,-209.5 1340,-209.5"/>
<text text-anchor="middle" x="1388" y="-216.5" font-family="Helvetica,sans-Serif" font-size="10.00">SendEthRequest</text>
</a>
</g>
</g>
<!-- Node8&#45;&gt;Node13 -->
<g id="edge12" class="edge">
<title>Node8&#45;&gt;Node13</title>
<path fill="none" stroke="midnightblue" d="M1257.86,-269.54C1272.59,-266.53 1289.3,-262.4 1304,-257 1320.98,-250.76 1323.59,-245.62 1340,-238 1344.06,-236.11 1348.36,-234.23 1352.65,-232.41"/>
<polygon fill="midnightblue" stroke="midnightblue" points="1354.01,-235.64 1361.92,-228.59 1351.34,-229.17 1354.01,-235.64"/>
</g>
<!-- Node11 -->
<g id="node11" class="node">
<title>Node11</title>
<g id="a_node11"><a xlink:href="group__API.html#gaa5c9ed5aa290688ffac03343989ad75a" target="_top" xlink:title="Read an Input report from a HID device with timeout.">
<polygon fill="white" stroke="black" points="1472,-323.5 1472,-342.5 1574,-342.5 1574,-323.5 1472,-323.5"/>
<text text-anchor="middle" x="1523" y="-330.5" font-family="Helvetica,sans-Serif" font-size="10.00">hid_read_timeout</text>
</a>
</g>
</g>
<!-- Node10&#45;&gt;Node11 -->
<g id="edge10" class="edge">
<title>Node10&#45;&gt;Node11</title>
<path fill="none" stroke="midnightblue" d="M1417.53,-333C1430.49,-333 1446.35,-333 1461.75,-333"/>
<polygon fill="midnightblue" stroke="midnightblue" points="1461.77,-336.5 1471.77,-333 1461.77,-329.5 1461.77,-336.5"/>
</g>
<!-- Node13&#45;&gt;Node9 -->
<g id="edge13" class="edge">
<title>Node13&#45;&gt;Node9</title>
<path fill="none" stroke="midnightblue" d="M1422.56,-228.59C1439.57,-233.45 1460.43,-239.41 1478.64,-244.61"/>
<polygon fill="midnightblue" stroke="midnightblue" points="1477.87,-248.03 1488.45,-247.41 1479.8,-241.3 1477.87,-248.03"/>
</g>
<!-- Node16 -->
<g id="node16" class="node">
<title>Node16</title>
<g id="a_node16"><a xlink:href="PoKeysLibIO_8c.html#ae7007ad0d96ba1ff2fadba2101016ce7" target="_top" xlink:title=" ">
<polygon fill="white" stroke="black" points="1131,-152.5 1131,-171.5 1304,-171.5 1304,-152.5 1131,-152.5"/>
<text text-anchor="middle" x="1217.5" y="-159.5" font-family="Helvetica,sans-Serif" font-size="10.00">PK_IsCounterAvailableByDevice</text>
</a>
</g>
</g>
<!-- Node15&#45;&gt;Node16 -->
<g id="edge16" class="edge">
<title>Node15&#45;&gt;Node16</title>
<path fill="none" stroke="midnightblue" d="M1091.51,-162C1101,-162 1110.98,-162 1120.99,-162"/>
<polygon fill="midnightblue" stroke="midnightblue" points="1120.99,-165.5 1130.99,-162 1120.99,-158.5 1120.99,-165.5"/>
</g>
<!-- Node17&#45;&gt;Node4 -->
<g id="edge18" class="edge">
<title>Node17&#45;&gt;Node4</title>
<path fill="none" stroke="midnightblue" d="M723.55,-228.41C747.8,-223.31 777.8,-216.99 803.36,-211.61"/>
<polygon fill="midnightblue" stroke="midnightblue" points="804.22,-215.01 813.28,-209.52 802.77,-208.16 804.22,-215.01"/>
</g>
<!-- Node19 -->
<g id="node19" class="node">
<title>Node19</title>
<g id="a_node19"><a xlink:href="PoKeysLibCoreSockets_8c.html#a4349c2ab43b65eb5448bfd273c899086" target="_top" xlink:title=" ">
<polygon fill="white" stroke="black" points="793,-266.5 793,-285.5 926,-285.5 926,-266.5 793,-266.5"/>
<text text-anchor="middle" x="859.5" y="-273.5" font-family="Helvetica,sans-Serif" font-size="10.00">GetBroadcastAddresses</text>
</a>
</g>
</g>
<!-- Node18&#45;&gt;Node19 -->
<g id="edge20" class="edge">
<title>Node18&#45;&gt;Node19</title>
<path fill="none" stroke="midnightblue" d="M751.16,-276C761.49,-276 772.13,-276 782.52,-276"/>
<polygon fill="midnightblue" stroke="midnightblue" points="782.8,-279.5 792.8,-276 782.8,-272.5 782.8,-279.5"/>
</g>
<!-- Node20&#45;&gt;Node4 -->
<g id="edge26" class="edge">
<title>Node20&#45;&gt;Node4</title>
<path fill="none" stroke="midnightblue" d="M491.67,-95.35C539.33,-72.82 665.89,-21.92 757,-67 805.42,-90.96 837.05,-150.3 850.74,-180.97"/>
<polygon fill="midnightblue" stroke="midnightblue" points="847.53,-182.37 854.69,-190.18 853.96,-179.61 847.53,-182.37"/>
</g>
<!-- Node21 -->
<g id="node21" class="node">
<title>Node21</title>
<g id="a_node21"><a xlink:href="PoKeysLibCore_8c.html#a8ddc84176ab5e728aeef3077e4c04721" target="_top" xlink:title=" ">
<polygon fill="white" stroke="black" points="638,-0.5 638,-19.5 716,-19.5 716,-0.5 638,-0.5"/>
<text text-anchor="middle" x="677" y="-7.5" font-family="Helvetica,sans-Serif" font-size="10.00">CleanDevice</text>
</a>
</g>
</g>
<!-- Node20&#45;&gt;Node21 -->
<g id="edge22" class="edge">
<title>Node20&#45;&gt;Node21</title>
<path fill="none" stroke="midnightblue" d="M486.9,-95.37C509.53,-80.55 555.18,-52.01 597,-34 607.08,-29.66 618.2,-25.77 628.83,-22.45"/>
<polygon fill="midnightblue" stroke="midnightblue" points="629.85,-25.8 638.41,-19.56 627.83,-19.09 629.85,-25.8"/>
</g>
<!-- Node22 -->
<g id="node22" class="node">
<title>Node22</title>
<g id="a_node22"><a xlink:href="group__API.html#gaae7d1c3e90835556ddc73fabe3a9ca9d" target="_top" xlink:title="Enumerate the HID Devices.">
<polygon fill="white" stroke="black" points="632,-152.5 632,-171.5 722,-171.5 722,-152.5 632,-152.5"/>
<text text-anchor="middle" x="677" y="-159.5" font-family="Helvetica,sans-Serif" font-size="10.00">hid_enumerate</text>
</a>
</g>
</g>
<!-- Node20&#45;&gt;Node22 -->
<g id="edge23" class="edge">
<title>Node20&#45;&gt;Node22</title>
<path fill="none" stroke="midnightblue" d="M502.04,-114.56C527.17,-122.57 564.29,-134.08 597,-143 605.8,-145.4 615.18,-147.8 624.31,-150.04"/>
<polygon fill="midnightblue" stroke="midnightblue" points="623.52,-153.45 634.06,-152.41 625.17,-146.65 623.52,-153.45"/>
</g>
<!-- Node23 -->
<g id="node23" class="node">
<title>Node23</title>
<g id="a_node23"><a xlink:href="group__API.html#gafc2d2adf71db3784b783b9a554527aa4" target="_top" xlink:title="Free an enumeration Linked List.">
<polygon fill="white" stroke="black" points="615,-114.5 615,-133.5 739,-133.5 739,-114.5 615,-114.5"/>
<text text-anchor="middle" x="677" y="-121.5" font-family="Helvetica,sans-Serif" font-size="10.00">hid_free_enumeration</text>
</a>
</g>
</g>
<!-- Node20&#45;&gt;Node23 -->
<g id="edge24" class="edge">
<title>Node20&#45;&gt;Node23</title>
<path fill="none" stroke="midnightblue" d="M561.17,-113.28C575.73,-114.64 590.66,-116.03 604.73,-117.35"/>
<polygon fill="midnightblue" stroke="midnightblue" points="604.53,-120.84 614.81,-118.29 605.18,-113.87 604.53,-120.84"/>
</g>
<!-- Node24 -->
<g id="node24" class="node">
<title>Node24</title>
<g id="a_node24"><a xlink:href="group__API.html#ga954ecb58b5dfb4a6ef6be3dcd520e42f" target="_top" xlink:title="Open a HID device by its path name.">
<polygon fill="white" stroke="black" points="633,-76.5 633,-95.5 721,-95.5 721,-76.5 633,-76.5"/>
<text text-anchor="middle" x="677" y="-83.5" font-family="Helvetica,sans-Serif" font-size="10.00">hid_open_path</text>
</a>
</g>
</g>
<!-- Node20&#45;&gt;Node24 -->
<g id="edge25" class="edge">
<title>Node20&#45;&gt;Node24</title>
<path fill="none" stroke="midnightblue" d="M561.17,-96.72C582.13,-94.76 603.85,-92.74 622.68,-90.98"/>
<polygon fill="midnightblue" stroke="midnightblue" points="623.2,-94.45 632.83,-90.03 622.55,-87.48 623.2,-94.45"/>
</g>
</g>
</svg>
