<?xml version="1.0" encoding="UTF-8" standalone="no"?>
<!DOCTYPE svg PUBLIC "-//W3C//DTD SVG 1.1//EN"
 "http://www.w3.org/Graphics/SVG/1.1/DTD/svg11.dtd">
<!-- Generated by graphviz version 2.43.0 (0)
 -->
<!-- Title: PK_PoNETDeviceDiscoveryAsync Pages: 1 -->
<svg width="616pt" height="180pt"
 viewBox="0.00 0.00 616.00 180.00" xmlns="http://www.w3.org/2000/svg" xmlns:xlink="http://www.w3.org/1999/xlink">
<g id="graph0" class="graph" transform="scale(1 1) rotate(0) translate(4 176)">
<title>PK_PoNETDeviceDiscoveryAsync</title>
<polygon fill="white" stroke="transparent" points="-4,4 -4,-176 612,-176 612,4 -4,4"/>
<!-- Node1 -->
<g id="node1" class="node">
<title>Node1</title>
<g id="a_node1"><a xlink:title=" ">
<polygon fill="#bfbfbf" stroke="black" points="0,-76.5 0,-95.5 178,-95.5 178,-76.5 0,-76.5"/>
<text text-anchor="middle" x="89" y="-83.5" font-family="Helvetica,sans-Serif" font-size="10.00">PK_PoNETDeviceDiscoveryAsync</text>
</a>
</g>
</g>
<!-- Node2 -->
<g id="node2" class="node">
<title>Node2</title>
<g id="a_node2"><a xlink:href="PoKeysLibAsync_8c.html#a8ed8b17dbfd4e5cfba35c6b1e2ea6956" target="_top" xlink:title="Prepares an asynchronous request (non&#45;sending).">
<polygon fill="white" stroke="black" points="214,-114.5 214,-133.5 332,-133.5 332,-114.5 214,-114.5"/>
<text text-anchor="middle" x="273" y="-121.5" font-family="Helvetica,sans-Serif" font-size="10.00">CreateRequestAsync</text>
</a>
</g>
</g>
<!-- Node1&#45;&gt;Node2 -->
<g id="edge1" class="edge">
<title>Node1&#45;&gt;Node2</title>
<path fill="none" stroke="midnightblue" d="M135.93,-95.59C160.38,-100.69 190.63,-107.01 216.4,-112.39"/>
<polygon fill="midnightblue" stroke="midnightblue" points="215.9,-115.86 226.4,-114.48 217.33,-109.01 215.9,-115.86"/>
</g>
<!-- Node5 -->
<g id="node5" class="node">
<title>Node5</title>
<g id="a_node5"><a xlink:href="PoKeysLibAsync_8c.html#a77fe6d8f453b9f120276324e0b2ad076" target="_top" xlink:title="Sends an asynchronous request that was prepared earlier.">
<polygon fill="white" stroke="black" points="218,-57.5 218,-76.5 328,-76.5 328,-57.5 218,-57.5"/>
<text text-anchor="middle" x="273" y="-64.5" font-family="Helvetica,sans-Serif" font-size="10.00">SendRequestAsync</text>
</a>
</g>
</g>
<!-- Node1&#45;&gt;Node5 -->
<g id="edge4" class="edge">
<title>Node1&#45;&gt;Node5</title>
<path fill="none" stroke="midnightblue" d="M178.07,-76.81C188.06,-75.76 198.11,-74.71 207.71,-73.71"/>
<polygon fill="midnightblue" stroke="midnightblue" points="208.36,-77.16 217.94,-72.64 207.63,-70.2 208.36,-77.16"/>
</g>
<!-- Node3 -->
<g id="node3" class="node">
<title>Node3</title>
<g id="a_node3"><a xlink:href="PoKeysLibAsync_8c.html#a8e57ea5df5b229f5a1317bf4e4918c1b" target="_top" xlink:title=" ">
<polygon fill="white" stroke="black" points="378.5,-152.5 378.5,-171.5 473.5,-171.5 473.5,-152.5 378.5,-152.5"/>
<text text-anchor="middle" x="426" y="-159.5" font-family="Helvetica,sans-Serif" font-size="10.00">next_request_id</text>
</a>
</g>
</g>
<!-- Node2&#45;&gt;Node3 -->
<g id="edge2" class="edge">
<title>Node2&#45;&gt;Node3</title>
<path fill="none" stroke="midnightblue" d="M312.1,-133.59C331.94,-138.58 356.38,-144.73 377.45,-150.03"/>
<polygon fill="midnightblue" stroke="midnightblue" points="376.62,-153.43 387.17,-152.48 378.33,-146.65 376.62,-153.43"/>
</g>
<!-- Node4 -->
<g id="node4" class="node">
<title>Node4</title>
<g id="a_node4"><a xlink:href="PoKeysLibAsync_8c.html#a0daf7f6eb658a60879d46369307db3f0" target="_top" xlink:title="Allocates a new free transaction.">
<polygon fill="white" stroke="black" points="376,-114.5 376,-133.5 476,-133.5 476,-114.5 376,-114.5"/>
<text text-anchor="middle" x="426" y="-121.5" font-family="Helvetica,sans-Serif" font-size="10.00">transaction_alloc</text>
</a>
</g>
</g>
<!-- Node2&#45;&gt;Node4 -->
<g id="edge3" class="edge">
<title>Node2&#45;&gt;Node4</title>
<path fill="none" stroke="midnightblue" d="M332.38,-124C343.2,-124 354.51,-124 365.36,-124"/>
<polygon fill="midnightblue" stroke="midnightblue" points="365.6,-127.5 375.6,-124 365.6,-120.5 365.6,-127.5"/>
</g>
<!-- Node6 -->
<g id="node6" class="node">
<title>Node6</title>
<g id="a_node6"><a xlink:href="PoKeysLibAsync_8c.html#a2d192ebf6b1b209c93b2158460c24aa2" target="_top" xlink:title=" ">
<polygon fill="white" stroke="black" points="368,-76.5 368,-95.5 484,-95.5 484,-76.5 368,-76.5"/>
<text text-anchor="middle" x="426" y="-83.5" font-family="Helvetica,sans-Serif" font-size="10.00">get_current_time_us</text>
</a>
</g>
</g>
<!-- Node5&#45;&gt;Node6 -->
<g id="edge5" class="edge">
<title>Node5&#45;&gt;Node6</title>
<path fill="none" stroke="midnightblue" d="M328.09,-73.81C337.8,-75.03 348.02,-76.31 358.05,-77.58"/>
<polygon fill="midnightblue" stroke="midnightblue" points="357.62,-81.05 367.97,-78.82 358.49,-74.1 357.62,-81.05"/>
</g>
<!-- Node8 -->
<g id="node8" class="node">
<title>Node8</title>
<g id="a_node8"><a xlink:href="rtapi_8h.html#a2432d36976ec87e60c9c92d3c0067182" target="_top" xlink:title=" ">
<polygon fill="white" stroke="black" points="379.5,-38.5 379.5,-57.5 472.5,-57.5 472.5,-38.5 379.5,-38.5"/>
<text text-anchor="middle" x="426" y="-45.5" font-family="Helvetica,sans-Serif" font-size="10.00">rtapi_print_msg</text>
</a>
</g>
</g>
<!-- Node5&#45;&gt;Node8 -->
<g id="edge7" class="edge">
<title>Node5&#45;&gt;Node8</title>
<path fill="none" stroke="midnightblue" d="M328.09,-60.19C341.44,-58.51 355.77,-56.71 369.2,-55.02"/>
<polygon fill="midnightblue" stroke="midnightblue" points="369.78,-58.48 379.26,-53.75 368.91,-51.53 369.78,-58.48"/>
</g>
<!-- Node9 -->
<g id="node9" class="node">
<title>Node9</title>
<g id="a_node9"><a xlink:href="PoKeysLibAsync_8c.html#a47e60ec1f2ceb9c913f4b3fdd448595b" target="_top" xlink:title="Finds an open transaction by its Request ID.">
<polygon fill="white" stroke="black" points="378.5,-0.5 378.5,-19.5 473.5,-19.5 473.5,-0.5 378.5,-0.5"/>
<text text-anchor="middle" x="426" y="-7.5" font-family="Helvetica,sans-Serif" font-size="10.00">transaction_find</text>
</a>
</g>
</g>
<!-- Node5&#45;&gt;Node9 -->
<g id="edge8" class="edge">
<title>Node5&#45;&gt;Node9</title>
<path fill="none" stroke="midnightblue" d="M296.64,-57.39C315.58,-49.45 343.39,-38.07 368,-29 373.64,-26.92 379.64,-24.81 385.53,-22.8"/>
<polygon fill="midnightblue" stroke="midnightblue" points="386.93,-26.02 395.29,-19.51 384.7,-19.39 386.93,-26.02"/>
</g>
<!-- Node7 -->
<g id="node7" class="node">
<title>Node7</title>
<g id="a_node7"><a xlink:href="rtapi_8h.html#a935411bb5eff04e82620819db6645685" target="_top" xlink:title=" ">
<polygon fill="white" stroke="black" points="520,-76.5 520,-95.5 608,-95.5 608,-76.5 520,-76.5"/>
<text text-anchor="middle" x="564" y="-83.5" font-family="Helvetica,sans-Serif" font-size="10.00">rtapi_get_time</text>
</a>
</g>
</g>
<!-- Node6&#45;&gt;Node7 -->
<g id="edge6" class="edge">
<title>Node6&#45;&gt;Node7</title>
<path fill="none" stroke="midnightblue" d="M484.28,-86C492.75,-86 501.44,-86 509.81,-86"/>
<polygon fill="midnightblue" stroke="midnightblue" points="509.84,-89.5 519.84,-86 509.84,-82.5 509.84,-89.5"/>
</g>
</g>
</svg>
