<?xml version="1.0" encoding="UTF-8" standalone="no"?>
<!DOCTYPE svg PUBLIC "-//W3C//DTD SVG 1.1//EN"
 "http://www.w3.org/Graphics/SVG/1.1/DTD/svg11.dtd">
<!-- Generated by graphviz version 2.43.0 (0)
 -->
<!-- Title: PK_RTCGetAsync Pages: 1 -->
<svg width="561pt" height="199pt"
 viewBox="0.00 0.00 561.00 199.00" xmlns="http://www.w3.org/2000/svg" xmlns:xlink="http://www.w3.org/1999/xlink">
<g id="graph0" class="graph" transform="scale(1 1) rotate(0) translate(4 195)">
<title>PK_RTCGetAsync</title>
<polygon fill="white" stroke="transparent" points="-4,4 -4,-195 557,-195 557,4 -4,4"/>
<!-- Node1 -->
<g id="node1" class="node">
<title>Node1</title>
<g id="a_node1"><a xlink:title="Starts an asynchronous RTC read from the device.">
<polygon fill="#bfbfbf" stroke="black" points="0,-95.5 0,-114.5 99,-114.5 99,-95.5 0,-95.5"/>
<text text-anchor="middle" x="49.5" y="-102.5" font-family="Helvetica,sans-Serif" font-size="10.00">PK_RTCGetAsync</text>
</a>
</g>
</g>
<!-- Node2 -->
<g id="node2" class="node">
<title>Node2</title>
<g id="a_node2"><a xlink:href="PoKeysLibAsync_8c.html#a8ed8b17dbfd4e5cfba35c6b1e2ea6956" target="_top" xlink:title="Prepares an asynchronous request (non&#45;sending).">
<polygon fill="white" stroke="black" points="147,-152.5 147,-171.5 265,-171.5 265,-152.5 147,-152.5"/>
<text text-anchor="middle" x="206" y="-159.5" font-family="Helvetica,sans-Serif" font-size="10.00">CreateRequestAsync</text>
</a>
</g>
</g>
<!-- Node1&#45;&gt;Node2 -->
<g id="edge1" class="edge">
<title>Node1&#45;&gt;Node2</title>
<path fill="none" stroke="midnightblue" d="M69.61,-114.64C86.51,-122.91 111.98,-134.76 135,-143 141.53,-145.34 148.49,-147.55 155.4,-149.58"/>
<polygon fill="midnightblue" stroke="midnightblue" points="154.84,-153.06 165.42,-152.42 156.75,-146.33 154.84,-153.06"/>
</g>
<!-- Node5 -->
<g id="node5" class="node">
<title>Node5</title>
<g id="a_node5"><a xlink:href="PoKeysLibRTCAsync_8c.html#a813f467d47294d4c3abd9282a20743c4" target="_top" xlink:title="Processes the RTC response and fills HAL&#45;safe structure.">
<polygon fill="white" stroke="black" points="135,-114.5 135,-133.5 277,-133.5 277,-114.5 135,-114.5"/>
<text text-anchor="middle" x="206" y="-121.5" font-family="Helvetica,sans-Serif" font-size="10.00">PK_RTCGetAsync_Process</text>
</a>
</g>
</g>
<!-- Node1&#45;&gt;Node5 -->
<g id="edge4" class="edge">
<title>Node1&#45;&gt;Node5</title>
<path fill="none" stroke="midnightblue" d="M99.38,-111.01C107.52,-112.01 116.14,-113.07 124.81,-114.14"/>
<polygon fill="midnightblue" stroke="midnightblue" points="124.63,-117.64 134.98,-115.39 125.48,-110.69 124.63,-117.64"/>
</g>
<!-- Node6 -->
<g id="node6" class="node">
<title>Node6</title>
<g id="a_node6"><a xlink:href="rtapi_8h.html#a2432d36976ec87e60c9c92d3c0067182" target="_top" xlink:title=" ">
<polygon fill="white" stroke="black" points="324.5,-76.5 324.5,-95.5 417.5,-95.5 417.5,-76.5 324.5,-76.5"/>
<text text-anchor="middle" x="371" y="-83.5" font-family="Helvetica,sans-Serif" font-size="10.00">rtapi_print_msg</text>
</a>
</g>
</g>
<!-- Node1&#45;&gt;Node6 -->
<g id="edge5" class="edge">
<title>Node1&#45;&gt;Node6</title>
<path fill="none" stroke="midnightblue" d="M99.03,-102.11C156.87,-98.67 253.32,-92.94 314.2,-89.32"/>
<polygon fill="midnightblue" stroke="midnightblue" points="314.61,-92.8 324.39,-88.71 314.2,-85.81 314.61,-92.8"/>
</g>
<!-- Node7 -->
<g id="node7" class="node">
<title>Node7</title>
<g id="a_node7"><a xlink:href="PoKeysLibAsync_8c.html#a77fe6d8f453b9f120276324e0b2ad076" target="_top" xlink:title="Sends an asynchronous request that was prepared earlier.">
<polygon fill="white" stroke="black" points="151,-38.5 151,-57.5 261,-57.5 261,-38.5 151,-38.5"/>
<text text-anchor="middle" x="206" y="-45.5" font-family="Helvetica,sans-Serif" font-size="10.00">SendRequestAsync</text>
</a>
</g>
</g>
<!-- Node1&#45;&gt;Node7 -->
<g id="edge6" class="edge">
<title>Node1&#45;&gt;Node7</title>
<path fill="none" stroke="midnightblue" d="M74.07,-95.49C90.97,-88.75 114.3,-79.59 135,-72 145.24,-68.25 156.38,-64.35 166.71,-60.8"/>
<polygon fill="midnightblue" stroke="midnightblue" points="167.96,-64.08 176.3,-57.54 165.7,-57.45 167.96,-64.08"/>
</g>
<!-- Node3 -->
<g id="node3" class="node">
<title>Node3</title>
<g id="a_node3"><a xlink:href="PoKeysLibAsync_8c.html#a8e57ea5df5b229f5a1317bf4e4918c1b" target="_top" xlink:title=" ">
<polygon fill="white" stroke="black" points="323.5,-171.5 323.5,-190.5 418.5,-190.5 418.5,-171.5 323.5,-171.5"/>
<text text-anchor="middle" x="371" y="-178.5" font-family="Helvetica,sans-Serif" font-size="10.00">next_request_id</text>
</a>
</g>
</g>
<!-- Node2&#45;&gt;Node3 -->
<g id="edge2" class="edge">
<title>Node2&#45;&gt;Node3</title>
<path fill="none" stroke="midnightblue" d="M265.39,-168.81C280.97,-170.62 297.79,-172.58 313.28,-174.39"/>
<polygon fill="midnightblue" stroke="midnightblue" points="312.91,-177.87 323.25,-175.55 313.72,-170.92 312.91,-177.87"/>
</g>
<!-- Node4 -->
<g id="node4" class="node">
<title>Node4</title>
<g id="a_node4"><a xlink:href="PoKeysLibAsync_8c.html#a0daf7f6eb658a60879d46369307db3f0" target="_top" xlink:title="Allocates a new free transaction.">
<polygon fill="white" stroke="black" points="321,-133.5 321,-152.5 421,-152.5 421,-133.5 321,-133.5"/>
<text text-anchor="middle" x="371" y="-140.5" font-family="Helvetica,sans-Serif" font-size="10.00">transaction_alloc</text>
</a>
</g>
</g>
<!-- Node2&#45;&gt;Node4 -->
<g id="edge3" class="edge">
<title>Node2&#45;&gt;Node4</title>
<path fill="none" stroke="midnightblue" d="M265.39,-155.19C280.16,-153.47 296.03,-151.62 310.84,-149.9"/>
<polygon fill="midnightblue" stroke="midnightblue" points="311.37,-153.36 320.89,-148.72 310.56,-146.41 311.37,-153.36"/>
</g>
<!-- Node7&#45;&gt;Node6 -->
<g id="edge9" class="edge">
<title>Node7&#45;&gt;Node6</title>
<path fill="none" stroke="midnightblue" d="M248.13,-57.59C269.74,-62.63 296.41,-68.84 319.29,-74.18"/>
<polygon fill="midnightblue" stroke="midnightblue" points="318.63,-77.62 329.16,-76.48 320.22,-70.8 318.63,-77.62"/>
</g>
<!-- Node8 -->
<g id="node8" class="node">
<title>Node8</title>
<g id="a_node8"><a xlink:href="PoKeysLibAsync_8c.html#a2d192ebf6b1b209c93b2158460c24aa2" target="_top" xlink:title=" ">
<polygon fill="white" stroke="black" points="313,-38.5 313,-57.5 429,-57.5 429,-38.5 313,-38.5"/>
<text text-anchor="middle" x="371" y="-45.5" font-family="Helvetica,sans-Serif" font-size="10.00">get_current_time_us</text>
</a>
</g>
</g>
<!-- Node7&#45;&gt;Node8 -->
<g id="edge7" class="edge">
<title>Node7&#45;&gt;Node8</title>
<path fill="none" stroke="midnightblue" d="M261.28,-48C274.49,-48 288.77,-48 302.52,-48"/>
<polygon fill="midnightblue" stroke="midnightblue" points="302.89,-51.5 312.89,-48 302.89,-44.5 302.89,-51.5"/>
</g>
<!-- Node10 -->
<g id="node10" class="node">
<title>Node10</title>
<g id="a_node10"><a xlink:href="PoKeysLibAsync_8c.html#a47e60ec1f2ceb9c913f4b3fdd448595b" target="_top" xlink:title="Finds an open transaction by its Request ID.">
<polygon fill="white" stroke="black" points="323.5,-0.5 323.5,-19.5 418.5,-19.5 418.5,-0.5 323.5,-0.5"/>
<text text-anchor="middle" x="371" y="-7.5" font-family="Helvetica,sans-Serif" font-size="10.00">transaction_find</text>
</a>
</g>
</g>
<!-- Node7&#45;&gt;Node10 -->
<g id="edge10" class="edge">
<title>Node7&#45;&gt;Node10</title>
<path fill="none" stroke="midnightblue" d="M248.13,-38.41C269.74,-33.37 296.41,-27.16 319.29,-21.82"/>
<polygon fill="midnightblue" stroke="midnightblue" points="320.22,-25.2 329.16,-19.52 318.63,-18.38 320.22,-25.2"/>
</g>
<!-- Node9 -->
<g id="node9" class="node">
<title>Node9</title>
<g id="a_node9"><a xlink:href="rtapi_8h.html#a935411bb5eff04e82620819db6645685" target="_top" xlink:title=" ">
<polygon fill="white" stroke="black" points="465,-38.5 465,-57.5 553,-57.5 553,-38.5 465,-38.5"/>
<text text-anchor="middle" x="509" y="-45.5" font-family="Helvetica,sans-Serif" font-size="10.00">rtapi_get_time</text>
</a>
</g>
</g>
<!-- Node8&#45;&gt;Node9 -->
<g id="edge8" class="edge">
<title>Node8&#45;&gt;Node9</title>
<path fill="none" stroke="midnightblue" d="M429.28,-48C437.75,-48 446.44,-48 454.81,-48"/>
<polygon fill="midnightblue" stroke="midnightblue" points="454.84,-51.5 464.84,-48 454.84,-44.5 454.84,-51.5"/>
</g>
</g>
</svg>
