<?xml version="1.0" encoding="UTF-8" standalone="no"?>
<!DOCTYPE svg PUBLIC "-//W3C//DTD SVG 1.1//EN"
 "http://www.w3.org/Graphics/SVG/1.1/DTD/svg11.dtd">
<!-- Generated by graphviz version 2.43.0 (0)
 -->
<!-- Title: /home/cnc/actions&#45;runner/_work/LinuxCnc_PokeysLibComp/LinuxCnc_PokeysLibComp/external/pokeysHal/experimental/build/PoKeysLibDevicePoKeys57Industrial.c Pages: 1 -->
<svg width="1149pt" height="408pt"
 viewBox="0.00 0.00 1148.50 408.00" xmlns="http://www.w3.org/2000/svg" xmlns:xlink="http://www.w3.org/1999/xlink">
<g id="graph0" class="graph" transform="scale(1 1) rotate(0) translate(4 404)">
<title>/home/cnc/actions&#45;runner/_work/LinuxCnc_PokeysLibComp/LinuxCnc_PokeysLibComp/external/pokeysHal/experimental/build/PoKeysLibDevicePoKeys57Industrial.c</title>
<polygon fill="white" stroke="transparent" points="-4,4 -4,-404 1144.5,-404 1144.5,4 -4,4"/>
<!-- Node1 -->
<g id="node1" class="node">
<title>Node1</title>
<g id="a_node1"><a xlink:title=" ">
<polygon fill="#bfbfbf" stroke="black" points="521.5,-336.5 521.5,-399.5 773.5,-399.5 773.5,-336.5 521.5,-336.5"/>
<text text-anchor="start" x="529.5" y="-387.5" font-family="Helvetica,sans-Serif" font-size="10.00">/home/cnc/actions&#45;runner</text>
<text text-anchor="start" x="529.5" y="-376.5" font-family="Helvetica,sans-Serif" font-size="10.00">/_work/LinuxCnc_PokeysLibComp</text>
<text text-anchor="start" x="529.5" y="-365.5" font-family="Helvetica,sans-Serif" font-size="10.00">/LinuxCnc_PokeysLibComp/external</text>
<text text-anchor="start" x="529.5" y="-354.5" font-family="Helvetica,sans-Serif" font-size="10.00">/pokeysHal/experimental/build/PoKeysLibDevice</text>
<text text-anchor="middle" x="647.5" y="-343.5" font-family="Helvetica,sans-Serif" font-size="10.00">PoKeys57Industrial.c</text>
</a>
</g>
</g>
<!-- Node2 -->
<g id="node2" class="node">
<title>Node2</title>
<g id="a_node2"><a xlink:title=" ">
<polygon fill="white" stroke="#bfbfbf" points="0,-280.5 0,-299.5 53,-299.5 53,-280.5 0,-280.5"/>
<text text-anchor="middle" x="26.5" y="-287.5" font-family="Helvetica,sans-Serif" font-size="10.00">stdlib.h</text>
</a>
</g>
</g>
<!-- Node1&#45;&gt;Node2 -->
<g id="edge1" class="edge">
<title>Node1&#45;&gt;Node2</title>
<path fill="none" stroke="midnightblue" d="M521.27,-357.35C404.76,-347.33 226.89,-329.23 63.4,-299.93"/>
<polygon fill="midnightblue" stroke="midnightblue" points="63.62,-296.41 53.15,-298.08 62.37,-303.3 63.62,-296.41"/>
</g>
<!-- Node3 -->
<g id="node3" class="node">
<title>Node3</title>
<g id="a_node3"><a xlink:href="experimental_2build_2PoKeysLibHal_8h.html" target="_top" xlink:title=" ">
<polygon fill="white" stroke="black" points="313.5,-224.5 313.5,-243.5 405.5,-243.5 405.5,-224.5 313.5,-224.5"/>
<text text-anchor="middle" x="359.5" y="-231.5" font-family="Helvetica,sans-Serif" font-size="10.00">PoKeysLibHal.h</text>
</a>
</g>
</g>
<!-- Node1&#45;&gt;Node3 -->
<g id="edge2" class="edge">
<title>Node1&#45;&gt;Node3</title>
<path fill="none" stroke="midnightblue" d="M561.11,-336.36C533.11,-325.69 502.16,-313.09 474.5,-300 441.34,-284.31 404.72,-262.85 381.91,-248.96"/>
<polygon fill="midnightblue" stroke="midnightblue" points="383.67,-245.93 373.31,-243.68 380.01,-251.89 383.67,-245.93"/>
</g>
<!-- Node18 -->
<g id="node18" class="node">
<title>Node18</title>
<g id="a_node18"><a xlink:title=" ">
<polygon fill="white" stroke="#bfbfbf" points="620,-56.5 620,-75.5 673,-75.5 673,-56.5 620,-56.5"/>
<text text-anchor="middle" x="646.5" y="-63.5" font-family="Helvetica,sans-Serif" font-size="10.00">string.h</text>
</a>
</g>
</g>
<!-- Node1&#45;&gt;Node18 -->
<g id="edge39" class="edge">
<title>Node1&#45;&gt;Node18</title>
<path fill="none" stroke="midnightblue" d="M647.5,-336.33C647.5,-309.57 647.5,-269.72 647.5,-235 647.5,-235 647.5,-235 647.5,-177 647.5,-144.95 647.07,-107.64 646.77,-85.75"/>
<polygon fill="midnightblue" stroke="midnightblue" points="650.27,-85.51 646.63,-75.56 643.27,-85.61 650.27,-85.51"/>
</g>
<!-- Node20 -->
<g id="node20" class="node">
<title>Node20</title>
<g id="a_node20"><a xlink:href="pokeysHal_2experimental_2build_2PoKeysLibCore_8h.html" target="_top" xlink:title=" ">
<polygon fill="white" stroke="black" points="483.5,-280.5 483.5,-299.5 581.5,-299.5 581.5,-280.5 483.5,-280.5"/>
<text text-anchor="middle" x="532.5" y="-287.5" font-family="Helvetica,sans-Serif" font-size="10.00">PoKeysLibCore.h</text>
</a>
</g>
</g>
<!-- Node1&#45;&gt;Node20 -->
<g id="edge22" class="edge">
<title>Node1&#45;&gt;Node20</title>
<path fill="none" stroke="midnightblue" d="M601.06,-336.31C584.85,-325.6 567.42,-314.08 554.2,-305.34"/>
<polygon fill="midnightblue" stroke="midnightblue" points="556.05,-302.37 545.78,-299.77 552.19,-308.21 556.05,-302.37"/>
</g>
<!-- Node23 -->
<g id="node23" class="node">
<title>Node23</title>
<g id="a_node23"><a xlink:title=" ">
<polygon fill="white" stroke="#bfbfbf" points="569.5,-224.5 569.5,-243.5 619.5,-243.5 619.5,-224.5 569.5,-224.5"/>
<text text-anchor="middle" x="594.5" y="-231.5" font-family="Helvetica,sans-Serif" font-size="10.00">stdio.h</text>
</a>
</g>
</g>
<!-- Node1&#45;&gt;Node23 -->
<g id="edge40" class="edge">
<title>Node1&#45;&gt;Node23</title>
<path fill="none" stroke="midnightblue" d="M635.21,-336.38C624.85,-310.58 610.38,-274.54 601.77,-253.1"/>
<polygon fill="midnightblue" stroke="midnightblue" points="604.93,-251.59 597.96,-243.61 598.44,-254.19 604.93,-251.59"/>
</g>
<!-- Node24 -->
<g id="node24" class="node">
<title>Node24</title>
<g id="a_node24"><a xlink:title=" ">
<polygon fill="white" stroke="#bfbfbf" points="675.5,-280.5 675.5,-299.5 731.5,-299.5 731.5,-280.5 675.5,-280.5"/>
<text text-anchor="middle" x="703.5" y="-287.5" font-family="Helvetica,sans-Serif" font-size="10.00">unistd.h</text>
</a>
</g>
</g>
<!-- Node1&#45;&gt;Node24 -->
<g id="edge28" class="edge">
<title>Node1&#45;&gt;Node24</title>
<path fill="none" stroke="midnightblue" d="M670.28,-336.09C677.39,-326.43 684.98,-316.14 691.1,-307.83"/>
<polygon fill="midnightblue" stroke="midnightblue" points="693.96,-309.84 697.08,-299.72 688.33,-305.69 693.96,-309.84"/>
</g>
<!-- Node25 -->
<g id="node25" class="node">
<title>Node25</title>
<g id="a_node25"><a xlink:title=" ">
<polygon fill="white" stroke="#bfbfbf" points="750,-280.5 750,-299.5 827,-299.5 827,-280.5 750,-280.5"/>
<text text-anchor="middle" x="788.5" y="-287.5" font-family="Helvetica,sans-Serif" font-size="10.00">sys/socket.h</text>
</a>
</g>
</g>
<!-- Node1&#45;&gt;Node25 -->
<g id="edge29" class="edge">
<title>Node1&#45;&gt;Node25</title>
<path fill="none" stroke="midnightblue" d="M704.44,-336.31C725.02,-325.22 747.19,-313.27 763.6,-304.42"/>
<polygon fill="midnightblue" stroke="midnightblue" points="765.39,-307.43 772.53,-299.61 762.07,-301.27 765.39,-307.43"/>
</g>
<!-- Node26 -->
<g id="node26" class="node">
<title>Node26</title>
<g id="a_node26"><a xlink:title=" ">
<polygon fill="white" stroke="#bfbfbf" points="845,-280.5 845,-299.5 898,-299.5 898,-280.5 845,-280.5"/>
<text text-anchor="middle" x="871.5" y="-287.5" font-family="Helvetica,sans-Serif" font-size="10.00">netdb.h</text>
</a>
</g>
</g>
<!-- Node1&#45;&gt;Node26 -->
<g id="edge30" class="edge">
<title>Node1&#45;&gt;Node26</title>
<path fill="none" stroke="midnightblue" d="M737.64,-336.42C772.35,-324.64 809.98,-311.87 836.47,-302.88"/>
<polygon fill="midnightblue" stroke="midnightblue" points="837.71,-306.16 846.05,-299.63 835.46,-299.53 837.71,-306.16"/>
</g>
<!-- Node27 -->
<g id="node27" class="node">
<title>Node27</title>
<g id="a_node27"><a xlink:title=" ">
<polygon fill="white" stroke="#bfbfbf" points="916.5,-280.5 916.5,-299.5 988.5,-299.5 988.5,-280.5 916.5,-280.5"/>
<text text-anchor="middle" x="952.5" y="-287.5" font-family="Helvetica,sans-Serif" font-size="10.00">netinet/in.h</text>
</a>
</g>
</g>
<!-- Node1&#45;&gt;Node27 -->
<g id="edge31" class="edge">
<title>Node1&#45;&gt;Node27</title>
<path fill="none" stroke="midnightblue" d="M770.24,-336.42C819.11,-324.24 872.22,-311 908.44,-301.98"/>
<polygon fill="midnightblue" stroke="midnightblue" points="909.33,-305.36 918.18,-299.55 907.63,-298.57 909.33,-305.36"/>
</g>
<!-- Node28 -->
<g id="node28" class="node">
<title>Node28</title>
<g id="a_node28"><a xlink:title=" ">
<polygon fill="white" stroke="#bfbfbf" points="1006.5,-280.5 1006.5,-299.5 1056.5,-299.5 1056.5,-280.5 1006.5,-280.5"/>
<text text-anchor="middle" x="1031.5" y="-287.5" font-family="Helvetica,sans-Serif" font-size="10.00">net/if.h</text>
</a>
</g>
</g>
<!-- Node1&#45;&gt;Node28 -->
<g id="edge32" class="edge">
<title>Node1&#45;&gt;Node28</title>
<path fill="none" stroke="midnightblue" d="M773.9,-345C837.89,-333.33 916.96,-318.11 996.14,-300.19"/>
<polygon fill="midnightblue" stroke="midnightblue" points="997.32,-303.51 1006.3,-297.88 995.77,-296.69 997.32,-303.51"/>
</g>
<!-- Node29 -->
<g id="node29" class="node">
<title>Node29</title>
<g id="a_node29"><a xlink:title=" ">
<polygon fill="white" stroke="#bfbfbf" points="1074.5,-280.5 1074.5,-299.5 1140.5,-299.5 1140.5,-280.5 1074.5,-280.5"/>
<text text-anchor="middle" x="1107.5" y="-287.5" font-family="Helvetica,sans-Serif" font-size="10.00">sys/ioctl.h</text>
</a>
</g>
</g>
<!-- Node1&#45;&gt;Node29 -->
<g id="edge33" class="edge">
<title>Node1&#45;&gt;Node29</title>
<path fill="none" stroke="midnightblue" d="M773.55,-348.55C854.06,-336.35 960.87,-319.39 1064.09,-300.19"/>
<polygon fill="midnightblue" stroke="midnightblue" points="1064.87,-303.61 1074.06,-298.33 1063.59,-296.73 1064.87,-303.61"/>
</g>
<!-- Node30 -->
<g id="node30" class="node">
<title>Node30</title>
<g id="a_node30"><a xlink:href="pokeysHal_2experimental_2build_2PoKeysLibDevicePoKeys57Industrial_8h.html" target="_top" xlink:title=" ">
<polygon fill="white" stroke="black" points="71.5,-280.5 71.5,-299.5 273.5,-299.5 273.5,-280.5 71.5,-280.5"/>
<text text-anchor="middle" x="172.5" y="-287.5" font-family="Helvetica,sans-Serif" font-size="10.00">PoKeysLibDevicePoKeys57Industrial.h</text>
</a>
</g>
</g>
<!-- Node1&#45;&gt;Node30 -->
<g id="edge34" class="edge">
<title>Node1&#45;&gt;Node30</title>
<path fill="none" stroke="midnightblue" d="M521.46,-346.83C429.32,-332.09 308.24,-312.72 235.62,-301.1"/>
<polygon fill="midnightblue" stroke="midnightblue" points="236.12,-297.64 225.7,-299.51 235.02,-304.55 236.12,-297.64"/>
</g>
<!-- Node31 -->
<g id="node31" class="node">
<title>Node31</title>
<g id="a_node31"><a xlink:href="pokeysHal_2experimental_2build_2PoKeysLibCoreSockets_8h.html" target="_top" xlink:title=" ">
<polygon fill="white" stroke="black" points="292,-280.5 292,-299.5 427,-299.5 427,-280.5 292,-280.5"/>
<text text-anchor="middle" x="359.5" y="-287.5" font-family="Helvetica,sans-Serif" font-size="10.00">PoKeysLibCoreSockets.h</text>
</a>
</g>
</g>
<!-- Node1&#45;&gt;Node31 -->
<g id="edge37" class="edge">
<title>Node1&#45;&gt;Node31</title>
<path fill="none" stroke="midnightblue" d="M531.6,-336.42C485.85,-324.34 436.16,-311.23 401.99,-302.21"/>
<polygon fill="midnightblue" stroke="midnightblue" points="402.46,-298.72 391.9,-299.55 400.68,-305.49 402.46,-298.72"/>
</g>
<!-- Node4 -->
<g id="node4" class="node">
<title>Node4</title>
<g id="a_node4"><a xlink:title=" ">
<polygon fill="white" stroke="#bfbfbf" points="175,-168.5 175,-187.5 228,-187.5 228,-168.5 175,-168.5"/>
<text text-anchor="middle" x="201.5" y="-175.5" font-family="Helvetica,sans-Serif" font-size="10.00">stdint.h</text>
</a>
</g>
</g>
<!-- Node3&#45;&gt;Node4 -->
<g id="edge3" class="edge">
<title>Node3&#45;&gt;Node4</title>
<path fill="none" stroke="midnightblue" d="M334.46,-224.44C307.88,-215.36 265.69,-200.94 235.98,-190.78"/>
<polygon fill="midnightblue" stroke="midnightblue" points="237.01,-187.44 226.42,-187.52 234.75,-194.06 237.01,-187.44"/>
</g>
<!-- Node5 -->
<g id="node5" class="node">
<title>Node5</title>
<g id="a_node5"><a xlink:href="hal_8h.html" target="_top" xlink:title=" ">
<polygon fill="white" stroke="black" points="344,-112.5 344,-131.5 385,-131.5 385,-112.5 344,-112.5"/>
<text text-anchor="middle" x="364.5" y="-119.5" font-family="Helvetica,sans-Serif" font-size="10.00">hal.h</text>
</a>
</g>
</g>
<!-- Node3&#45;&gt;Node5 -->
<g id="edge4" class="edge">
<title>Node3&#45;&gt;Node5</title>
<path fill="none" stroke="midnightblue" d="M359.89,-224.37C360.7,-206.62 362.56,-165.67 363.65,-141.6"/>
<polygon fill="midnightblue" stroke="midnightblue" points="367.15,-141.74 364.11,-131.59 360.16,-141.42 367.15,-141.74"/>
</g>
<!-- Node16 -->
<g id="node16" class="node">
<title>Node16</title>
<g id="a_node16"><a xlink:href="pokeysHal_2experimental_2build_2hal__canon_8h.html" target="_top" xlink:title="Canonical Device Interface definitions and export helpers for LinuxCNC HAL.">
<polygon fill="white" stroke="black" points="252,-168.5 252,-187.5 327,-187.5 327,-168.5 252,-168.5"/>
<text text-anchor="middle" x="289.5" y="-175.5" font-family="Helvetica,sans-Serif" font-size="10.00">hal_canon.h</text>
</a>
</g>
</g>
<!-- Node3&#45;&gt;Node16 -->
<g id="edge15" class="edge">
<title>Node3&#45;&gt;Node16</title>
<path fill="none" stroke="midnightblue" d="M348.25,-224.32C337.7,-216.18 321.7,-203.84 309.06,-194.09"/>
<polygon fill="midnightblue" stroke="midnightblue" points="311.01,-191.17 300.95,-187.83 306.73,-196.71 311.01,-191.17"/>
</g>
<!-- Node6 -->
<g id="node6" class="node">
<title>Node6</title>
<g id="a_node6"><a xlink:href="rtapi_8h.html" target="_top" xlink:title=" ">
<polygon fill="white" stroke="black" points="177.5,-56.5 177.5,-75.5 225.5,-75.5 225.5,-56.5 177.5,-56.5"/>
<text text-anchor="middle" x="201.5" y="-63.5" font-family="Helvetica,sans-Serif" font-size="10.00">rtapi.h</text>
</a>
</g>
</g>
<!-- Node5&#45;&gt;Node6 -->
<g id="edge5" class="edge">
<title>Node5&#45;&gt;Node6</title>
<path fill="none" stroke="midnightblue" d="M343.86,-114.16C316.53,-105.11 267.99,-89.03 235.28,-78.19"/>
<polygon fill="midnightblue" stroke="midnightblue" points="236.28,-74.83 225.68,-75.01 234.07,-81.48 236.28,-74.83"/>
</g>
<!-- Node10 -->
<g id="node10" class="node">
<title>Node10</title>
<g id="a_node10"><a xlink:href="rtapi__errno_8h.html" target="_top" xlink:title=" ">
<polygon fill="white" stroke="black" points="331,-56.5 331,-75.5 410,-75.5 410,-56.5 331,-56.5"/>
<text text-anchor="middle" x="370.5" y="-63.5" font-family="Helvetica,sans-Serif" font-size="10.00">rtapi_errno.h</text>
</a>
</g>
</g>
<!-- Node5&#45;&gt;Node10 -->
<g id="edge9" class="edge">
<title>Node5&#45;&gt;Node10</title>
<path fill="none" stroke="midnightblue" d="M365.49,-112.08C366.29,-104.93 367.43,-94.64 368.42,-85.69"/>
<polygon fill="midnightblue" stroke="midnightblue" points="371.9,-86.08 369.53,-75.75 364.94,-85.3 371.9,-86.08"/>
</g>
<!-- Node12 -->
<g id="node12" class="node">
<title>Node12</title>
<g id="a_node12"><a xlink:href="rtapi__bool_8h.html" target="_top" xlink:title=" ">
<polygon fill="white" stroke="black" points="428.5,-56.5 428.5,-75.5 502.5,-75.5 502.5,-56.5 428.5,-56.5"/>
<text text-anchor="middle" x="465.5" y="-63.5" font-family="Helvetica,sans-Serif" font-size="10.00">rtapi_bool.h</text>
</a>
</g>
</g>
<!-- Node5&#45;&gt;Node12 -->
<g id="edge11" class="edge">
<title>Node5&#45;&gt;Node12</title>
<path fill="none" stroke="midnightblue" d="M380.73,-112.32C396.85,-103.7 421.8,-90.36 440.46,-80.39"/>
<polygon fill="midnightblue" stroke="midnightblue" points="442.14,-83.46 449.31,-75.65 438.84,-77.28 442.14,-83.46"/>
</g>
<!-- Node14 -->
<g id="node14" class="node">
<title>Node14</title>
<g id="a_node14"><a xlink:href="rtapi__stdint_8h.html" target="_top" xlink:title=" ">
<polygon fill="white" stroke="black" points="521,-56.5 521,-75.5 602,-75.5 602,-56.5 521,-56.5"/>
<text text-anchor="middle" x="561.5" y="-63.5" font-family="Helvetica,sans-Serif" font-size="10.00">rtapi_stdint.h</text>
</a>
</g>
</g>
<!-- Node5&#45;&gt;Node14 -->
<g id="edge13" class="edge">
<title>Node5&#45;&gt;Node14</title>
<path fill="none" stroke="midnightblue" d="M385.21,-115.32C417.24,-106.54 479.41,-89.5 520.7,-78.18"/>
<polygon fill="midnightblue" stroke="midnightblue" points="521.73,-81.53 530.45,-75.51 519.88,-74.78 521.73,-81.53"/>
</g>
<!-- Node7 -->
<g id="node7" class="node">
<title>Node7</title>
<g id="a_node7"><a xlink:title=" ">
<polygon fill="white" stroke="#bfbfbf" points="99.5,-0.5 99.5,-19.5 155.5,-19.5 155.5,-0.5 99.5,-0.5"/>
<text text-anchor="middle" x="127.5" y="-7.5" font-family="Helvetica,sans-Serif" font-size="10.00">stddef.h</text>
</a>
</g>
</g>
<!-- Node6&#45;&gt;Node7 -->
<g id="edge6" class="edge">
<title>Node6&#45;&gt;Node7</title>
<path fill="none" stroke="midnightblue" d="M189.61,-56.32C178.35,-48.11 161.21,-35.6 147.79,-25.81"/>
<polygon fill="midnightblue" stroke="midnightblue" points="149.75,-22.9 139.61,-19.83 145.62,-28.56 149.75,-22.9"/>
</g>
<!-- Node8 -->
<g id="node8" class="node">
<title>Node8</title>
<g id="a_node8"><a xlink:title=" ">
<polygon fill="white" stroke="#bfbfbf" points="173.5,-0.5 173.5,-19.5 229.5,-19.5 229.5,-0.5 173.5,-0.5"/>
<text text-anchor="middle" x="201.5" y="-7.5" font-family="Helvetica,sans-Serif" font-size="10.00">stdarg.h</text>
</a>
</g>
</g>
<!-- Node6&#45;&gt;Node8 -->
<g id="edge7" class="edge">
<title>Node6&#45;&gt;Node8</title>
<path fill="none" stroke="midnightblue" d="M201.5,-56.08C201.5,-49.01 201.5,-38.86 201.5,-29.99"/>
<polygon fill="midnightblue" stroke="midnightblue" points="205,-29.75 201.5,-19.75 198,-29.75 205,-29.75"/>
</g>
<!-- Node9 -->
<g id="node9" class="node">
<title>Node9</title>
<g id="a_node9"><a xlink:title=" ">
<polygon fill="white" stroke="#bfbfbf" points="248,-0.5 248,-19.5 305,-19.5 305,-0.5 248,-0.5"/>
<text text-anchor="middle" x="276.5" y="-7.5" font-family="Helvetica,sans-Serif" font-size="10.00">spawn.h</text>
</a>
</g>
</g>
<!-- Node6&#45;&gt;Node9 -->
<g id="edge8" class="edge">
<title>Node6&#45;&gt;Node9</title>
<path fill="none" stroke="midnightblue" d="M213.55,-56.32C224.96,-48.11 242.33,-35.6 255.93,-25.81"/>
<polygon fill="midnightblue" stroke="midnightblue" points="258.16,-28.52 264.23,-19.83 254.07,-22.84 258.16,-28.52"/>
</g>
<!-- Node11 -->
<g id="node11" class="node">
<title>Node11</title>
<g id="a_node11"><a xlink:title=" ">
<polygon fill="white" stroke="#bfbfbf" points="345,-0.5 345,-19.5 396,-19.5 396,-0.5 345,-0.5"/>
<text text-anchor="middle" x="370.5" y="-7.5" font-family="Helvetica,sans-Serif" font-size="10.00">errno.h</text>
</a>
</g>
</g>
<!-- Node10&#45;&gt;Node11 -->
<g id="edge10" class="edge">
<title>Node10&#45;&gt;Node11</title>
<path fill="none" stroke="midnightblue" d="M370.5,-56.08C370.5,-49.01 370.5,-38.86 370.5,-29.99"/>
<polygon fill="midnightblue" stroke="midnightblue" points="374,-29.75 370.5,-19.75 367,-29.75 374,-29.75"/>
</g>
<!-- Node13 -->
<g id="node13" class="node">
<title>Node13</title>
<g id="a_node13"><a xlink:title=" ">
<polygon fill="white" stroke="#bfbfbf" points="434.5,-0.5 434.5,-19.5 496.5,-19.5 496.5,-0.5 434.5,-0.5"/>
<text text-anchor="middle" x="465.5" y="-7.5" font-family="Helvetica,sans-Serif" font-size="10.00">stdbool.h</text>
</a>
</g>
</g>
<!-- Node12&#45;&gt;Node13 -->
<g id="edge12" class="edge">
<title>Node12&#45;&gt;Node13</title>
<path fill="none" stroke="midnightblue" d="M465.5,-56.08C465.5,-49.01 465.5,-38.86 465.5,-29.99"/>
<polygon fill="midnightblue" stroke="midnightblue" points="469,-29.75 465.5,-19.75 462,-29.75 469,-29.75"/>
</g>
<!-- Node15 -->
<g id="node15" class="node">
<title>Node15</title>
<g id="a_node15"><a xlink:title=" ">
<polygon fill="white" stroke="#bfbfbf" points="529,-0.5 529,-19.5 594,-19.5 594,-0.5 529,-0.5"/>
<text text-anchor="middle" x="561.5" y="-7.5" font-family="Helvetica,sans-Serif" font-size="10.00">inttypes.h</text>
</a>
</g>
</g>
<!-- Node14&#45;&gt;Node15 -->
<g id="edge14" class="edge">
<title>Node14&#45;&gt;Node15</title>
<path fill="none" stroke="midnightblue" d="M561.5,-56.08C561.5,-49.01 561.5,-38.86 561.5,-29.99"/>
<polygon fill="midnightblue" stroke="midnightblue" points="565,-29.75 561.5,-19.75 558,-29.75 565,-29.75"/>
</g>
<!-- Node16&#45;&gt;Node5 -->
<g id="edge16" class="edge">
<title>Node16&#45;&gt;Node5</title>
<path fill="none" stroke="midnightblue" d="M301.55,-168.32C312.96,-160.11 330.33,-147.6 343.93,-137.81"/>
<polygon fill="midnightblue" stroke="midnightblue" points="346.16,-140.52 352.23,-131.83 342.07,-134.84 346.16,-140.52"/>
</g>
<!-- Node16&#45;&gt;Node6 -->
<g id="edge17" class="edge">
<title>Node16&#45;&gt;Node6</title>
<path fill="none" stroke="midnightblue" d="M274.53,-168.26C261.74,-160.19 243.56,-147.16 231.5,-132 220.39,-118.03 212.31,-99.28 207.35,-85.51"/>
<polygon fill="midnightblue" stroke="midnightblue" points="210.56,-84.07 204.04,-75.72 203.92,-86.31 210.56,-84.07"/>
</g>
<!-- Node17 -->
<g id="node17" class="node">
<title>Node17</title>
<g id="a_node17"><a xlink:href="rtapi__string_8h.html" target="_top" xlink:title=" ">
<polygon fill="white" stroke="black" points="241,-112.5 241,-131.5 322,-131.5 322,-112.5 241,-112.5"/>
<text text-anchor="middle" x="281.5" y="-119.5" font-family="Helvetica,sans-Serif" font-size="10.00">rtapi_string.h</text>
</a>
</g>
</g>
<!-- Node16&#45;&gt;Node17 -->
<g id="edge18" class="edge">
<title>Node16&#45;&gt;Node17</title>
<path fill="none" stroke="midnightblue" d="M288.18,-168.08C287.12,-160.93 285.59,-150.64 284.27,-141.69"/>
<polygon fill="midnightblue" stroke="midnightblue" points="287.72,-141.13 282.8,-131.75 280.8,-142.16 287.72,-141.13"/>
</g>
<!-- Node17&#45;&gt;Node6 -->
<g id="edge19" class="edge">
<title>Node17&#45;&gt;Node6</title>
<path fill="none" stroke="midnightblue" d="M268.65,-112.32C256.28,-103.98 237.37,-91.21 222.76,-81.35"/>
<polygon fill="midnightblue" stroke="midnightblue" points="224.57,-78.35 214.32,-75.65 220.65,-84.15 224.57,-78.35"/>
</g>
<!-- Node17&#45;&gt;Node18 -->
<g id="edge20" class="edge">
<title>Node17&#45;&gt;Node18</title>
<path fill="none" stroke="midnightblue" d="M322.27,-113.91C326.4,-113.25 330.53,-112.6 334.5,-112 453.61,-94.13 487.2,-98.77 609.69,-75.94"/>
<polygon fill="midnightblue" stroke="midnightblue" points="610.66,-79.32 619.84,-74.03 609.36,-72.44 610.66,-79.32"/>
</g>
<!-- Node19 -->
<g id="node19" class="node">
<title>Node19</title>
<g id="a_node19"><a xlink:href="rtapi__gfp_8h.html" target="_top" xlink:title=" ">
<polygon fill="white" stroke="black" points="244,-56.5 244,-75.5 313,-75.5 313,-56.5 244,-56.5"/>
<text text-anchor="middle" x="278.5" y="-63.5" font-family="Helvetica,sans-Serif" font-size="10.00">rtapi_gfp.h</text>
</a>
</g>
</g>
<!-- Node17&#45;&gt;Node19 -->
<g id="edge21" class="edge">
<title>Node17&#45;&gt;Node19</title>
<path fill="none" stroke="midnightblue" d="M281,-112.08C280.61,-105.01 280.05,-94.86 279.55,-85.99"/>
<polygon fill="midnightblue" stroke="midnightblue" points="283.04,-85.54 278.99,-75.75 276.05,-85.93 283.04,-85.54"/>
</g>
<!-- Node20&#45;&gt;Node3 -->
<g id="edge27" class="edge">
<title>Node20&#45;&gt;Node3</title>
<path fill="none" stroke="midnightblue" d="M505.09,-280.44C475.73,-271.28 428.98,-256.69 396.4,-246.52"/>
<polygon fill="midnightblue" stroke="midnightblue" points="397.37,-243.16 386.78,-243.52 395.29,-249.84 397.37,-243.16"/>
</g>
<!-- Node20&#45;&gt;Node18 -->
<g id="edge26" class="edge">
<title>Node20&#45;&gt;Node18</title>
<path fill="none" stroke="midnightblue" d="M518.71,-280.19C507.67,-272.24 493,-259.45 486.5,-244 481.05,-231.04 473.73,-192.55 487.5,-168 513.8,-121.14 571.84,-92.82 610.04,-78.55"/>
<polygon fill="midnightblue" stroke="midnightblue" points="611.54,-81.73 619.77,-75.06 609.18,-75.14 611.54,-81.73"/>
</g>
<!-- Node21 -->
<g id="node21" class="node">
<title>Node21</title>
<g id="a_node21"><a xlink:href="pokeysHal_2experimental_2build_2hidapi_8h.html" target="_top" xlink:title=" ">
<polygon fill="white" stroke="black" points="495.5,-224.5 495.5,-243.5 551.5,-243.5 551.5,-224.5 495.5,-224.5"/>
<text text-anchor="middle" x="523.5" y="-231.5" font-family="Helvetica,sans-Serif" font-size="10.00">hidapi.h</text>
</a>
</g>
</g>
<!-- Node20&#45;&gt;Node21 -->
<g id="edge23" class="edge">
<title>Node20&#45;&gt;Node21</title>
<path fill="none" stroke="midnightblue" d="M531.01,-280.08C529.82,-272.93 528.11,-262.64 526.62,-253.69"/>
<polygon fill="midnightblue" stroke="midnightblue" points="530.05,-253.04 524.96,-243.75 523.15,-254.19 530.05,-253.04"/>
</g>
<!-- Node20&#45;&gt;Node23 -->
<g id="edge25" class="edge">
<title>Node20&#45;&gt;Node23</title>
<path fill="none" stroke="midnightblue" d="M542.46,-280.32C551.63,-272.34 565.44,-260.31 576.53,-250.65"/>
<polygon fill="midnightblue" stroke="midnightblue" points="579.12,-253.04 584.36,-243.83 574.52,-247.76 579.12,-253.04"/>
</g>
<!-- Node22 -->
<g id="node22" class="node">
<title>Node22</title>
<g id="a_node22"><a xlink:title=" ">
<polygon fill="white" stroke="#bfbfbf" points="496.5,-168.5 496.5,-187.5 550.5,-187.5 550.5,-168.5 496.5,-168.5"/>
<text text-anchor="middle" x="523.5" y="-175.5" font-family="Helvetica,sans-Serif" font-size="10.00">wchar.h</text>
</a>
</g>
</g>
<!-- Node21&#45;&gt;Node22 -->
<g id="edge24" class="edge">
<title>Node21&#45;&gt;Node22</title>
<path fill="none" stroke="midnightblue" d="M523.5,-224.08C523.5,-217.01 523.5,-206.86 523.5,-197.99"/>
<polygon fill="midnightblue" stroke="midnightblue" points="527,-197.75 523.5,-187.75 520,-197.75 527,-197.75"/>
</g>
<!-- Node30&#45;&gt;Node3 -->
<g id="edge35" class="edge">
<title>Node30&#45;&gt;Node3</title>
<path fill="none" stroke="midnightblue" d="M202.13,-280.44C234,-271.24 284.83,-256.56 320.06,-246.39"/>
<polygon fill="midnightblue" stroke="midnightblue" points="321.37,-249.65 330.01,-243.52 319.43,-242.93 321.37,-249.65"/>
</g>
<!-- Node30&#45;&gt;Node4 -->
<g id="edge36" class="edge">
<title>Node30&#45;&gt;Node4</title>
<path fill="none" stroke="midnightblue" d="M174.78,-280.37C179.48,-262.54 190.35,-221.3 196.68,-197.27"/>
<polygon fill="midnightblue" stroke="midnightblue" points="200.07,-198.15 199.23,-187.59 193.3,-196.37 200.07,-198.15"/>
</g>
<!-- Node31&#45;&gt;Node3 -->
<g id="edge38" class="edge">
<title>Node31&#45;&gt;Node3</title>
<path fill="none" stroke="midnightblue" d="M359.5,-280.08C359.5,-273.01 359.5,-262.86 359.5,-253.99"/>
<polygon fill="midnightblue" stroke="midnightblue" points="363,-253.75 359.5,-243.75 356,-253.75 363,-253.75"/>
</g>
</g>
</svg>
