<?xml version="1.0" encoding="UTF-8" standalone="no"?>
<!DOCTYPE svg PUBLIC "-//W3C//DTD SVG 1.1//EN"
 "http://www.w3.org/Graphics/SVG/1.1/DTD/svg11.dtd">
<!-- Generated by graphviz version 2.43.0 (0)
 -->
<!-- Title: PK_UARTWrite Pages: 1 -->
<svg width="490pt" height="142pt"
 viewBox="0.00 0.00 490.00 142.00" xmlns="http://www.w3.org/2000/svg" xmlns:xlink="http://www.w3.org/1999/xlink">
<g id="graph0" class="graph" transform="scale(1 1) rotate(0) translate(4 138)">
<title>PK_UARTWrite</title>
<polygon fill="white" stroke="transparent" points="-4,4 -4,-138 486,-138 486,4 -4,4"/>
<!-- Node1 -->
<g id="node1" class="node">
<title>Node1</title>
<g id="a_node1"><a xlink:title=" ">
<polygon fill="#bfbfbf" stroke="black" points="0,-76.5 0,-95.5 87,-95.5 87,-76.5 0,-76.5"/>
<text text-anchor="middle" x="43.5" y="-83.5" font-family="Helvetica,sans-Serif" font-size="10.00">PK_UARTWrite</text>
</a>
</g>
</g>
<!-- Node2 -->
<g id="node2" class="node">
<title>Node2</title>
<g id="a_node2"><a xlink:href="pokeyslib_2PoKeysLibCore_8c.html#acb1fdd8f77277dc66c4d037218bfcece" target="_top" xlink:title=" ">
<polygon fill="white" stroke="black" points="123,-95.5 123,-114.5 212,-114.5 212,-95.5 123,-95.5"/>
<text text-anchor="middle" x="167.5" y="-102.5" font-family="Helvetica,sans-Serif" font-size="10.00">CreateRequest</text>
</a>
</g>
</g>
<!-- Node1&#45;&gt;Node2 -->
<g id="edge1" class="edge">
<title>Node1&#45;&gt;Node2</title>
<path fill="none" stroke="midnightblue" d="M87.17,-92.65C95.47,-93.94 104.26,-95.31 112.86,-96.65"/>
<polygon fill="midnightblue" stroke="midnightblue" points="112.4,-100.12 122.82,-98.2 113.48,-93.2 112.4,-100.12"/>
</g>
<!-- Node3 -->
<g id="node3" class="node">
<title>Node3</title>
<g id="a_node3"><a xlink:href="pokeyslib_2PoKeysLibCore_8c.html#ab5d92aa36d0a4a6953a055f5cd960aff" target="_top" xlink:title=" ">
<polygon fill="white" stroke="black" points="127.5,-57.5 127.5,-76.5 207.5,-76.5 207.5,-57.5 127.5,-57.5"/>
<text text-anchor="middle" x="167.5" y="-64.5" font-family="Helvetica,sans-Serif" font-size="10.00">SendRequest</text>
</a>
</g>
</g>
<!-- Node1&#45;&gt;Node3 -->
<g id="edge2" class="edge">
<title>Node1&#45;&gt;Node3</title>
<path fill="none" stroke="midnightblue" d="M87.17,-79.35C96.86,-77.85 107.23,-76.23 117.17,-74.68"/>
<polygon fill="midnightblue" stroke="midnightblue" points="117.98,-78.1 127.33,-73.1 116.91,-71.18 117.98,-78.1"/>
</g>
<!-- Node4 -->
<g id="node4" class="node">
<title>Node4</title>
<g id="a_node4"><a xlink:href="pokeyslib_2PoKeysLibCore_8c.html#a273b6d635dea8f559b915cdb289d021e" target="_top" xlink:title=" ">
<polygon fill="white" stroke="black" points="389.5,-38.5 389.5,-57.5 472.5,-57.5 472.5,-38.5 389.5,-38.5"/>
<text text-anchor="middle" x="431" y="-45.5" font-family="Helvetica,sans-Serif" font-size="10.00">getChecksum</text>
</a>
</g>
</g>
<!-- Node3&#45;&gt;Node4 -->
<g id="edge3" class="edge">
<title>Node3&#45;&gt;Node4</title>
<path fill="none" stroke="midnightblue" d="M207.67,-69.42C243.32,-71.06 297.36,-72.09 344,-67 357.57,-65.52 372.13,-62.76 385.34,-59.8"/>
<polygon fill="midnightblue" stroke="midnightblue" points="386.2,-63.19 395.14,-57.51 384.61,-56.37 386.2,-63.19"/>
</g>
<!-- Node5 -->
<g id="node5" class="node">
<title>Node5</title>
<g id="a_node5"><a xlink:href="group__API.html#ga6b820f3e72097cf7f994e33715dc7af1" target="_top" xlink:title="Read an Input report from a HID device.">
<polygon fill="white" stroke="black" points="266.5,-114.5 266.5,-133.5 325.5,-133.5 325.5,-114.5 266.5,-114.5"/>
<text text-anchor="middle" x="296" y="-121.5" font-family="Helvetica,sans-Serif" font-size="10.00">hid_read</text>
</a>
</g>
</g>
<!-- Node3&#45;&gt;Node5 -->
<g id="edge4" class="edge">
<title>Node3&#45;&gt;Node5</title>
<path fill="none" stroke="midnightblue" d="M190.66,-76.59C197.51,-79.58 205.08,-82.9 212,-86 229.61,-93.88 249.24,-102.86 264.99,-110.11"/>
<polygon fill="midnightblue" stroke="midnightblue" points="263.69,-113.36 274.24,-114.37 266.62,-107.01 263.69,-113.36"/>
</g>
<!-- Node7 -->
<g id="node7" class="node">
<title>Node7</title>
<g id="a_node7"><a xlink:href="group__API.html#gad14ea48e440cf5066df87cc6488493af" target="_top" xlink:title="Write an Output report to a HID device.">
<polygon fill="white" stroke="black" points="265,-38.5 265,-57.5 327,-57.5 327,-38.5 265,-38.5"/>
<text text-anchor="middle" x="296" y="-45.5" font-family="Helvetica,sans-Serif" font-size="10.00">hid_write</text>
</a>
</g>
</g>
<!-- Node3&#45;&gt;Node7 -->
<g id="edge6" class="edge">
<title>Node3&#45;&gt;Node7</title>
<path fill="none" stroke="midnightblue" d="M207.83,-61.09C222.8,-58.84 239.86,-56.28 254.9,-54.02"/>
<polygon fill="midnightblue" stroke="midnightblue" points="255.57,-57.46 264.94,-52.52 254.53,-50.54 255.57,-57.46"/>
</g>
<!-- Node8 -->
<g id="node8" class="node">
<title>Node8</title>
<g id="a_node8"><a xlink:href="pokeyslib_2PoKeysLibCoreSockets_8c.html#a22759fb4024c9081af26ac1bc6541b47" target="_top" xlink:title=" ">
<polygon fill="white" stroke="black" points="248,-0.5 248,-19.5 344,-19.5 344,-0.5 248,-0.5"/>
<text text-anchor="middle" x="296" y="-7.5" font-family="Helvetica,sans-Serif" font-size="10.00">SendEthRequest</text>
</a>
</g>
</g>
<!-- Node3&#45;&gt;Node8 -->
<g id="edge7" class="edge">
<title>Node3&#45;&gt;Node8</title>
<path fill="none" stroke="midnightblue" d="M187.62,-57.45C203.63,-49.56 227.14,-38.19 248,-29 252.19,-27.15 256.62,-25.27 261.02,-23.45"/>
<polygon fill="midnightblue" stroke="midnightblue" points="262.55,-26.6 270.49,-19.58 259.91,-20.12 262.55,-26.6"/>
</g>
<!-- Node6 -->
<g id="node6" class="node">
<title>Node6</title>
<g id="a_node6"><a xlink:href="group__API.html#gaa5c9ed5aa290688ffac03343989ad75a" target="_top" xlink:title="Read an Input report from a HID device with timeout.">
<polygon fill="white" stroke="black" points="380,-114.5 380,-133.5 482,-133.5 482,-114.5 380,-114.5"/>
<text text-anchor="middle" x="431" y="-121.5" font-family="Helvetica,sans-Serif" font-size="10.00">hid_read_timeout</text>
</a>
</g>
</g>
<!-- Node5&#45;&gt;Node6 -->
<g id="edge5" class="edge">
<title>Node5&#45;&gt;Node6</title>
<path fill="none" stroke="midnightblue" d="M325.53,-124C338.49,-124 354.35,-124 369.75,-124"/>
<polygon fill="midnightblue" stroke="midnightblue" points="369.77,-127.5 379.77,-124 369.77,-120.5 369.77,-127.5"/>
</g>
<!-- Node8&#45;&gt;Node4 -->
<g id="edge8" class="edge">
<title>Node8&#45;&gt;Node4</title>
<path fill="none" stroke="midnightblue" d="M330.56,-19.59C347.57,-24.45 368.43,-30.41 386.64,-35.61"/>
<polygon fill="midnightblue" stroke="midnightblue" points="385.87,-39.03 396.45,-38.41 387.8,-32.3 385.87,-39.03"/>
</g>
</g>
</svg>
