<?xml version="1.0" encoding="UTF-8" standalone="no"?>
<!DOCTYPE svg PUBLIC "-//W3C//DTD SVG 1.1//EN"
 "http://www.w3.org/Graphics/SVG/1.1/DTD/svg11.dtd">
<!-- Generated by graphviz version 2.43.0 (0)
 -->
<!-- Title: PK_PEv2_PulseEngineSetup Pages: 1 -->
<svg width="554pt" height="142pt"
 viewBox="0.00 0.00 554.00 142.00" xmlns="http://www.w3.org/2000/svg" xmlns:xlink="http://www.w3.org/1999/xlink">
<g id="graph0" class="graph" transform="scale(1 1) rotate(0) translate(4 138)">
<title>PK_PEv2_PulseEngineSetup</title>
<polygon fill="white" stroke="transparent" points="-4,4 -4,-138 550,-138 550,4 -4,4"/>
<!-- Node1 -->
<g id="node1" class="node">
<title>Node1</title>
<g id="a_node1"><a xlink:title="Configure the pulse engine parameters.">
<polygon fill="#bfbfbf" stroke="black" points="0,-76.5 0,-95.5 151,-95.5 151,-76.5 0,-76.5"/>
<text text-anchor="middle" x="75.5" y="-83.5" font-family="Helvetica,sans-Serif" font-size="10.00">PK_PEv2_PulseEngineSetup</text>
</a>
</g>
</g>
<!-- Node2 -->
<g id="node2" class="node">
<title>Node2</title>
<g id="a_node2"><a xlink:href="pokeyslib_2PoKeysLibCore_8c.html#acb1fdd8f77277dc66c4d037218bfcece" target="_top" xlink:title=" ">
<polygon fill="white" stroke="black" points="187,-95.5 187,-114.5 276,-114.5 276,-95.5 187,-95.5"/>
<text text-anchor="middle" x="231.5" y="-102.5" font-family="Helvetica,sans-Serif" font-size="10.00">CreateRequest</text>
</a>
</g>
</g>
<!-- Node1&#45;&gt;Node2 -->
<g id="edge1" class="edge">
<title>Node1&#45;&gt;Node2</title>
<path fill="none" stroke="midnightblue" d="M151.24,-95.22C159.76,-96.27 168.31,-97.33 176.48,-98.34"/>
<polygon fill="midnightblue" stroke="midnightblue" points="176.24,-101.83 186.59,-99.58 177.1,-94.88 176.24,-101.83"/>
</g>
<!-- Node3 -->
<g id="node3" class="node">
<title>Node3</title>
<g id="a_node3"><a xlink:href="pokeyslib_2PoKeysLibCore_8c.html#ab5d92aa36d0a4a6953a055f5cd960aff" target="_top" xlink:title=" ">
<polygon fill="white" stroke="black" points="191.5,-57.5 191.5,-76.5 271.5,-76.5 271.5,-57.5 191.5,-57.5"/>
<text text-anchor="middle" x="231.5" y="-64.5" font-family="Helvetica,sans-Serif" font-size="10.00">SendRequest</text>
</a>
</g>
</g>
<!-- Node1&#45;&gt;Node3 -->
<g id="edge2" class="edge">
<title>Node1&#45;&gt;Node3</title>
<path fill="none" stroke="midnightblue" d="M151.24,-76.78C161.37,-75.53 171.56,-74.27 181.09,-73.1"/>
<polygon fill="midnightblue" stroke="midnightblue" points="181.65,-76.55 191.14,-71.86 180.79,-69.61 181.65,-76.55"/>
</g>
<!-- Node4 -->
<g id="node4" class="node">
<title>Node4</title>
<g id="a_node4"><a xlink:href="pokeyslib_2PoKeysLibCore_8c.html#a273b6d635dea8f559b915cdb289d021e" target="_top" xlink:title=" ">
<polygon fill="white" stroke="black" points="453.5,-38.5 453.5,-57.5 536.5,-57.5 536.5,-38.5 453.5,-38.5"/>
<text text-anchor="middle" x="495" y="-45.5" font-family="Helvetica,sans-Serif" font-size="10.00">getChecksum</text>
</a>
</g>
</g>
<!-- Node3&#45;&gt;Node4 -->
<g id="edge3" class="edge">
<title>Node3&#45;&gt;Node4</title>
<path fill="none" stroke="midnightblue" d="M271.67,-69.42C307.32,-71.06 361.36,-72.09 408,-67 421.57,-65.52 436.13,-62.76 449.34,-59.8"/>
<polygon fill="midnightblue" stroke="midnightblue" points="450.2,-63.19 459.14,-57.51 448.61,-56.37 450.2,-63.19"/>
</g>
<!-- Node5 -->
<g id="node5" class="node">
<title>Node5</title>
<g id="a_node5"><a xlink:href="group__API.html#ga6b820f3e72097cf7f994e33715dc7af1" target="_top" xlink:title="Read an Input report from a HID device.">
<polygon fill="white" stroke="black" points="330.5,-114.5 330.5,-133.5 389.5,-133.5 389.5,-114.5 330.5,-114.5"/>
<text text-anchor="middle" x="360" y="-121.5" font-family="Helvetica,sans-Serif" font-size="10.00">hid_read</text>
</a>
</g>
</g>
<!-- Node3&#45;&gt;Node5 -->
<g id="edge4" class="edge">
<title>Node3&#45;&gt;Node5</title>
<path fill="none" stroke="midnightblue" d="M254.66,-76.59C261.51,-79.58 269.08,-82.9 276,-86 293.61,-93.88 313.24,-102.86 328.99,-110.11"/>
<polygon fill="midnightblue" stroke="midnightblue" points="327.69,-113.36 338.24,-114.37 330.62,-107.01 327.69,-113.36"/>
</g>
<!-- Node7 -->
<g id="node7" class="node">
<title>Node7</title>
<g id="a_node7"><a xlink:href="group__API.html#gad14ea48e440cf5066df87cc6488493af" target="_top" xlink:title="Write an Output report to a HID device.">
<polygon fill="white" stroke="black" points="329,-38.5 329,-57.5 391,-57.5 391,-38.5 329,-38.5"/>
<text text-anchor="middle" x="360" y="-45.5" font-family="Helvetica,sans-Serif" font-size="10.00">hid_write</text>
</a>
</g>
</g>
<!-- Node3&#45;&gt;Node7 -->
<g id="edge6" class="edge">
<title>Node3&#45;&gt;Node7</title>
<path fill="none" stroke="midnightblue" d="M271.83,-61.09C286.8,-58.84 303.86,-56.28 318.9,-54.02"/>
<polygon fill="midnightblue" stroke="midnightblue" points="319.57,-57.46 328.94,-52.52 318.53,-50.54 319.57,-57.46"/>
</g>
<!-- Node8 -->
<g id="node8" class="node">
<title>Node8</title>
<g id="a_node8"><a xlink:href="pokeyslib_2PoKeysLibCoreSockets_8c.html#a22759fb4024c9081af26ac1bc6541b47" target="_top" xlink:title=" ">
<polygon fill="white" stroke="black" points="312,-0.5 312,-19.5 408,-19.5 408,-0.5 312,-0.5"/>
<text text-anchor="middle" x="360" y="-7.5" font-family="Helvetica,sans-Serif" font-size="10.00">SendEthRequest</text>
</a>
</g>
</g>
<!-- Node3&#45;&gt;Node8 -->
<g id="edge7" class="edge">
<title>Node3&#45;&gt;Node8</title>
<path fill="none" stroke="midnightblue" d="M251.62,-57.45C267.63,-49.56 291.14,-38.19 312,-29 316.19,-27.15 320.62,-25.27 325.02,-23.45"/>
<polygon fill="midnightblue" stroke="midnightblue" points="326.55,-26.6 334.49,-19.58 323.91,-20.12 326.55,-26.6"/>
</g>
<!-- Node6 -->
<g id="node6" class="node">
<title>Node6</title>
<g id="a_node6"><a xlink:href="group__API.html#gaa5c9ed5aa290688ffac03343989ad75a" target="_top" xlink:title="Read an Input report from a HID device with timeout.">
<polygon fill="white" stroke="black" points="444,-114.5 444,-133.5 546,-133.5 546,-114.5 444,-114.5"/>
<text text-anchor="middle" x="495" y="-121.5" font-family="Helvetica,sans-Serif" font-size="10.00">hid_read_timeout</text>
</a>
</g>
</g>
<!-- Node5&#45;&gt;Node6 -->
<g id="edge5" class="edge">
<title>Node5&#45;&gt;Node6</title>
<path fill="none" stroke="midnightblue" d="M389.53,-124C402.49,-124 418.35,-124 433.75,-124"/>
<polygon fill="midnightblue" stroke="midnightblue" points="433.77,-127.5 443.77,-124 433.77,-120.5 433.77,-127.5"/>
</g>
<!-- Node8&#45;&gt;Node4 -->
<g id="edge8" class="edge">
<title>Node8&#45;&gt;Node4</title>
<path fill="none" stroke="midnightblue" d="M394.56,-19.59C411.57,-24.45 432.43,-30.41 450.64,-35.61"/>
<polygon fill="midnightblue" stroke="midnightblue" points="449.87,-39.03 460.45,-38.41 451.8,-32.3 449.87,-39.03"/>
</g>
</g>
</svg>
