<?xml version="1.0" encoding="UTF-8" standalone="no"?>
<!DOCTYPE svg PUBLIC "-//W3C//DTD SVG 1.1//EN"
 "http://www.w3.org/Graphics/SVG/1.1/DTD/svg11.dtd">
<!-- Generated by graphviz version 2.43.0 (0)
 -->
<!-- Title: pokeys_read_ini Pages: 1 -->
<!--zoomable 600 -->
<svg id="main" version="1.1" xmlns="http://www.w3.org/2000/svg" xmlns:xlink="http://www.w3.org/1999/xlink" xml:space="preserve" onload="init(evt)">
<style type="text/css"><![CDATA[
.edge:hover path { stroke: red; }
.edge:hover polygon { stroke: red; fill: red; }
]]></style>
<script type="text/javascript"><![CDATA[
var edges = document.getElementsByTagName('g');
if (edges && edges.length) {
  for (var i=0;i<edges.length;i++) {
    if (edges[i].id.substr(0,4)=='edge') {
      edges[i].setAttribute('class','edge');
    }
  }
}
]]></script>
        <defs>
                <circle id="rim" cx="0" cy="0" r="7"/>
                <circle id="rim2" cx="0" cy="0" r="3.5"/>
                <g id="zoomPlus">
                        <use xlink:href="#rim" fill="#404040">
                                <set attributeName="fill" to="#808080" begin="zoomplus.mouseover" end="zoomplus.mouseout"/>
                        </use>
                        <path d="M-4,0h8M0,-4v8" fill="none" stroke="white" stroke-width="1.5" pointer-events="none"/>
                </g>
                <g id="zoomMin">
                        <use xlink:href="#rim" fill="#404040">
                                <set attributeName="fill" to="#808080" begin="zoomminus.mouseover" end="zoomminus.mouseout"/>
                        </use>
                        <path d="M-4,0h8" fill="none" stroke="white" stroke-width="1.5" pointer-events="none"/>
                </g>
                <g id="dirArrow">
                        <path fill="none" stroke="white" stroke-width="1.5" d="M0,-3.0v7 M-2.5,-0.5L0,-3.0L2.5,-0.5"/>
                </g>
               <g id="resetDef">
                       <use xlink:href="#rim2" fill="#404040">
                               <set attributeName="fill" to="#808080" begin="reset.mouseover" end="reset.mouseout"/>
                       </use>
               </g>
        </defs>

<script type="text/javascript">
var viewWidth = 791;
var viewHeight = 600;
var sectionId = 'dynsection-4';
</script>
<script xlink:href="svgpan.js"/>
<svg id="graph" class="graph">
<g id="viewport">
<title>pokeys_read_ini</title>
<polygon fill="white" stroke="transparent" points="-4,4 -4,-596.08 787,-596.08 787,4 -4,4"/>
<!-- Node1 -->
<g id="node1" class="node">
<title>Node1</title>
<g id="a_node1"><a xlink:title=" ">
<polygon fill="#bfbfbf" stroke="black" points="0,-365.58 0,-384.58 95,-384.58 95,-365.58 0,-365.58"/>
<text text-anchor="middle" x="47.5" y="-372.58" font-family="Helvetica,sans-Serif" font-size="10.00">pokeys_read_ini</text>
</a>
</g>
</g>
<!-- Node2 -->
<g id="node2" class="node">
<title>Node2</title>
<g id="a_node2"><a xlink:href="group__hal__component__pokeys.html#ga0769669c17b6eca58cffc1efd5246d2d" target="_top" xlink:title="Reads encoder&#45;related settings from the INI configuration file.">
<polygon fill="white" stroke="black" points="131,-572.58 131,-591.58 259,-591.58 259,-572.58 131,-572.58"/>
<text text-anchor="middle" x="195" y="-579.58" font-family="Helvetica,sans-Serif" font-size="10.00">PKEncoder_ReadIniFile</text>
</a>
</g>
</g>
<!-- Node1&#45;&gt;Node2 -->
<g id="edge1" class="edge">
<title>Node1&#45;&gt;Node2</title>
<path fill="none" stroke="midnightblue" d="M49.89,-384.95C54.8,-416.02 74.18,-512.73 131,-563.08 132.77,-564.65 134.67,-566.09 136.66,-567.41"/>
<polygon fill="midnightblue" stroke="midnightblue" points="135.44,-570.74 145.89,-572.48 138.81,-564.6 135.44,-570.74"/>
</g>
<!-- Node3 -->
<g id="node3" class="node">
<title>Node3</title>
<g id="a_node3"><a xlink:href="group__hal__component__pokeys.html#ga3c9afba53772a416f90c9b80d74d76fe" target="_top" xlink:title="Placeholder function to perform encoder&#45;specific setup actions.">
<polygon fill="white" stroke="black" points="526,-458.58 526,-477.58 627,-477.58 627,-458.58 526,-458.58"/>
<text text-anchor="middle" x="576.5" y="-465.58" font-family="Helvetica,sans-Serif" font-size="10.00">PKEncoder_Setup</text>
</a>
</g>
</g>
<!-- Node1&#45;&gt;Node3 -->
<g id="edge2" class="edge">
<title>Node1&#45;&gt;Node3</title>
<path fill="none" stroke="midnightblue" d="M78.05,-384.68C93.67,-389.5 113.23,-395.14 131,-399.08 267.26,-429.34 429.93,-450.98 515.71,-461.29"/>
<polygon fill="midnightblue" stroke="midnightblue" points="515.43,-464.78 525.78,-462.49 516.26,-457.83 515.43,-464.78"/>
</g>
<!-- Node4 -->
<g id="node4" class="node">
<title>Node4</title>
<g id="a_node4"><a xlink:href="rtapi_8h.html#a2432d36976ec87e60c9c92d3c0067182" target="_top" xlink:title=" ">
<polygon fill="white" stroke="black" points="690,-306.58 690,-325.58 783,-325.58 783,-306.58 690,-306.58"/>
<text text-anchor="middle" x="736.5" y="-313.58" font-family="Helvetica,sans-Serif" font-size="10.00">rtapi_print_msg</text>
</a>
</g>
</g>
<!-- Node1&#45;&gt;Node4 -->
<g id="edge31" class="edge">
<title>Node1&#45;&gt;Node4</title>
<path fill="none" stroke="midnightblue" d="M61.18,-384.74C76.78,-396.14 104.44,-414.82 131,-425.08 240.17,-467.27 555.03,-549.55 654,-487.08 707.68,-453.2 726.75,-373.19 732.88,-335.88"/>
<polygon fill="midnightblue" stroke="midnightblue" points="736.37,-336.18 734.39,-325.77 729.45,-335.14 736.37,-336.18"/>
</g>
<!-- Node5 -->
<g id="node5" class="node">
<title>Node5</title>
<g id="a_node5"><a xlink:href="group__hal__component__pokeys.html#ga1499e979e9aca26d5f59b8f25fd4406a" target="_top" xlink:title="Reads and applies I/O configuration values for the PoKeys device from the INI file.">
<polygon fill="white" stroke="black" points="315,-382.08 315,-412.08 443,-412.08 443,-382.08 315,-382.08"/>
<text text-anchor="start" x="323" y="-400.08" font-family="Helvetica,sans-Serif" font-size="10.00">PoKeysHALComponent</text>
<text text-anchor="middle" x="379" y="-389.08" font-family="Helvetica,sans-Serif" font-size="10.00">::PKIO_ReadIniFile</text>
</a>
</g>
</g>
<!-- Node1&#45;&gt;Node5 -->
<g id="edge4" class="edge">
<title>Node1&#45;&gt;Node5</title>
<path fill="none" stroke="midnightblue" d="M95.01,-378.19C149.57,-381.83 240.69,-387.91 304.76,-392.19"/>
<polygon fill="midnightblue" stroke="midnightblue" points="304.59,-395.69 314.8,-392.86 305.06,-388.7 304.59,-395.69"/>
</g>
<!-- Node8 -->
<g id="node8" class="node">
<title>Node8</title>
<g id="a_node8"><a xlink:href="group__hal__component__pokeys.html#ga96c96a5b1b2aaa10d97aa8426bee3840" target="_top" xlink:title="Initializes the PoKeys digital and analog I/O configuration.">
<polygon fill="white" stroke="black" points="512.5,-257.08 512.5,-287.08 640.5,-287.08 640.5,-257.08 512.5,-257.08"/>
<text text-anchor="start" x="520.5" y="-275.08" font-family="Helvetica,sans-Serif" font-size="10.00">PoKeysHALComponent</text>
<text text-anchor="middle" x="576.5" y="-264.08" font-family="Helvetica,sans-Serif" font-size="10.00">::PKIO_Setup</text>
</a>
</g>
</g>
<!-- Node1&#45;&gt;Node8 -->
<g id="edge10" class="edge">
<title>Node1&#45;&gt;Node8</title>
<path fill="none" stroke="midnightblue" d="M86.2,-365.56C100.23,-362.12 116.31,-358.29 131,-355.08 261.15,-326.62 414.09,-299.42 502.4,-284.31"/>
<polygon fill="midnightblue" stroke="midnightblue" points="503.05,-287.75 512.32,-282.62 501.87,-280.85 503.05,-287.75"/>
</g>
<!-- Node9 -->
<g id="node9" class="node">
<title>Node9</title>
<g id="a_node9"><a xlink:href="structPoKeysHALComponent.html#ad94418b2caeac0cbdd7c43ef55f15623" target="_top" xlink:title="Reads configuration parameters for the PoKeys Pulse Engine v2 from the INI file.">
<polygon fill="white" stroke="black" points="315,-333.08 315,-363.08 443,-363.08 443,-333.08 315,-333.08"/>
<text text-anchor="start" x="323" y="-351.08" font-family="Helvetica,sans-Serif" font-size="10.00">PoKeysHALComponent</text>
<text text-anchor="middle" x="379" y="-340.08" font-family="Helvetica,sans-Serif" font-size="10.00">::PKPEv2_ReadIniFile</text>
</a>
</g>
</g>
<!-- Node1&#45;&gt;Node9 -->
<g id="edge12" class="edge">
<title>Node1&#45;&gt;Node9</title>
<path fill="none" stroke="midnightblue" d="M95.01,-371.27C149.57,-366.8 240.69,-359.33 304.76,-354.08"/>
<polygon fill="midnightblue" stroke="midnightblue" points="305.12,-357.56 314.8,-353.26 304.55,-350.59 305.12,-357.56"/>
</g>
<!-- Node10 -->
<g id="node10" class="node">
<title>Node10</title>
<g id="a_node10"><a xlink:href="group__hal__component__pokeys.html#ga1fd300cd610e9545e58b62ffd50e474e" target="_top" xlink:title="Applies INI&#45;based configuration to PulseEngine and IO.">
<polygon fill="white" stroke="black" points="131,-175.08 131,-205.08 259,-205.08 259,-175.08 131,-175.08"/>
<text text-anchor="start" x="139" y="-193.08" font-family="Helvetica,sans-Serif" font-size="10.00">PoKeysHALComponent</text>
<text text-anchor="middle" x="195" y="-182.08" font-family="Helvetica,sans-Serif" font-size="10.00">::PKPEv2_Setup</text>
</a>
</g>
</g>
<!-- Node1&#45;&gt;Node10 -->
<g id="edge16" class="edge">
<title>Node1&#45;&gt;Node10</title>
<path fill="none" stroke="midnightblue" d="M56.12,-365.4C78.39,-337.08 143.84,-253.86 175.89,-213.11"/>
<polygon fill="midnightblue" stroke="midnightblue" points="178.77,-215.11 182.2,-205.09 173.26,-210.78 178.77,-215.11"/>
</g>
<!-- Node17 -->
<g id="node17" class="node">
<title>Node17</title>
<g id="a_node17"><a xlink:href="group__hal__component__pokeys.html#gad42123ec302f37293abc024a15962d2b" target="_top" xlink:title="Initializes or configures the PoExtBus interface on the PoKeys device.">
<polygon fill="white" stroke="black" points="141,-136.58 141,-155.58 249,-155.58 249,-136.58 141,-136.58"/>
<text text-anchor="middle" x="195" y="-143.58" font-family="Helvetica,sans-Serif" font-size="10.00">PKPoExtBus_Setup</text>
</a>
</g>
</g>
<!-- Node1&#45;&gt;Node17 -->
<g id="edge29" class="edge">
<title>Node1&#45;&gt;Node17</title>
<path fill="none" stroke="midnightblue" d="M49.36,-365.5C52.83,-332.5 68.79,-222.42 131,-165.08 132.71,-163.51 134.54,-162.07 136.47,-160.74"/>
<polygon fill="midnightblue" stroke="midnightblue" points="138.45,-163.64 145.43,-155.67 135,-157.55 138.45,-163.64"/>
</g>
<!-- Node18 -->
<g id="node18" class="node">
<title>Node18</title>
<g id="a_node18"><a xlink:href="group__hal__component__pokeys.html#ga1c22156d8f00d1810efc97b1911b1e29" target="_top" xlink:title="Initializes or configures PoNET&#45;related settings for the given device.">
<polygon fill="white" stroke="black" points="149,-98.58 149,-117.58 241,-117.58 241,-98.58 149,-98.58"/>
<text text-anchor="middle" x="195" y="-105.58" font-family="Helvetica,sans-Serif" font-size="10.00">PKPoNet_Setup</text>
</a>
</g>
</g>
<!-- Node1&#45;&gt;Node18 -->
<g id="edge30" class="edge">
<title>Node1&#45;&gt;Node18</title>
<path fill="none" stroke="midnightblue" d="M48.71,-365.38C50.03,-328.6 59.75,-196.35 131,-127.08 133.58,-124.58 136.47,-122.4 139.57,-120.51"/>
<polygon fill="midnightblue" stroke="midnightblue" points="141.36,-123.52 148.72,-115.9 138.22,-117.27 141.36,-123.52"/>
</g>
<!-- Node19 -->
<g id="node19" class="node">
<title>Node19</title>
<g id="a_node19"><a xlink:href="pokeys__ini_8c.html#a673754b78f952029528a0e708834b455" target="_top" xlink:title=" ">
<polygon fill="white" stroke="black" points="137,-534.58 137,-553.58 253,-553.58 253,-534.58 137,-534.58"/>
<text text-anchor="middle" x="195" y="-541.58" font-family="Helvetica,sans-Serif" font-size="10.00">set_pokeys_ini_path</text>
</a>
</g>
</g>
<!-- Node1&#45;&gt;Node19 -->
<g id="edge32" class="edge">
<title>Node1&#45;&gt;Node19</title>
<path fill="none" stroke="midnightblue" d="M51.41,-384.7C59.64,-410.34 85.48,-481.06 131,-520.08 135.78,-524.18 141.34,-527.62 147.13,-530.49"/>
<polygon fill="midnightblue" stroke="midnightblue" points="145.79,-533.72 156.35,-534.55 148.61,-527.31 145.79,-533.72"/>
</g>
<!-- Node3&#45;&gt;Node4 -->
<g id="edge3" class="edge">
<title>Node3&#45;&gt;Node4</title>
<path fill="none" stroke="midnightblue" d="M625.72,-458.58C635.72,-455.12 645.71,-450.43 654,-444.08 691.82,-415.09 716.89,-363.16 728.34,-335.18"/>
<polygon fill="midnightblue" stroke="midnightblue" points="731.65,-336.32 732.06,-325.73 725.14,-333.76 731.65,-336.32"/>
</g>
<!-- Node5&#45;&gt;Node4 -->
<g id="edge9" class="edge">
<title>Node5&#45;&gt;Node4</title>
<path fill="none" stroke="midnightblue" d="M427.08,-412.21C483.74,-427.63 580.43,-444.9 654,-411.08 688.05,-395.43 713.22,-357.74 726.01,-334.82"/>
<polygon fill="midnightblue" stroke="midnightblue" points="729.24,-336.2 730.87,-325.73 723.07,-332.9 729.24,-336.2"/>
</g>
<!-- Node6 -->
<g id="node6" class="node">
<title>Node6</title>
<g id="a_node6"><a xlink:href="pokeys__ini_8c.html#ad18c54e99cc7b622b21a4952a228003d" target="_top" xlink:title=" ">
<polygon fill="white" stroke="black" points="535,-382.58 535,-401.58 618,-401.58 618,-382.58 535,-382.58"/>
<text text-anchor="middle" x="576.5" y="-389.58" font-family="Helvetica,sans-Serif" font-size="10.00">ini_read_float</text>
</a>
</g>
</g>
<!-- Node5&#45;&gt;Node6 -->
<g id="edge5" class="edge">
<title>Node5&#45;&gt;Node6</title>
<path fill="none" stroke="midnightblue" d="M443.2,-395.46C469.56,-394.79 499.76,-394.02 524.65,-393.38"/>
<polygon fill="midnightblue" stroke="midnightblue" points="525.05,-396.87 534.96,-393.12 524.87,-389.87 525.05,-396.87"/>
</g>
<!-- Node7 -->
<g id="node7" class="node">
<title>Node7</title>
<g id="a_node7"><a xlink:href="pokeys__ini_8c.html#ae4f6d1223dec24d90200b3798910dc6e" target="_top" xlink:title=" ">
<polygon fill="white" stroke="black" points="539.5,-344.58 539.5,-363.58 613.5,-363.58 613.5,-344.58 539.5,-344.58"/>
<text text-anchor="middle" x="576.5" y="-351.58" font-family="Helvetica,sans-Serif" font-size="10.00">ini_read_int</text>
</a>
</g>
</g>
<!-- Node5&#45;&gt;Node7 -->
<g id="edge7" class="edge">
<title>Node5&#45;&gt;Node7</title>
<path fill="none" stroke="midnightblue" d="M443.2,-383.18C471.27,-377.01 503.7,-369.87 529.43,-364.21"/>
<polygon fill="midnightblue" stroke="midnightblue" points="530.28,-367.61 539.29,-362.04 528.77,-360.77 530.28,-367.61"/>
</g>
<!-- Node6&#45;&gt;Node4 -->
<g id="edge6" class="edge">
<title>Node6&#45;&gt;Node4</title>
<path fill="none" stroke="midnightblue" d="M618.14,-384.91C630.01,-382.04 642.79,-378.18 654,-373.08 677.34,-362.46 701.03,-344.99 716.8,-332.18"/>
<polygon fill="midnightblue" stroke="midnightblue" points="719.25,-334.7 724.7,-325.62 714.77,-329.31 719.25,-334.7"/>
</g>
<!-- Node7&#45;&gt;Node4 -->
<g id="edge8" class="edge">
<title>Node7&#45;&gt;Node4</title>
<path fill="none" stroke="midnightblue" d="M613.75,-345.36C635.19,-340.21 662.65,-333.6 686.06,-327.97"/>
<polygon fill="midnightblue" stroke="midnightblue" points="686.91,-331.37 695.82,-325.62 685.28,-324.56 686.91,-331.37"/>
</g>
<!-- Node8&#45;&gt;Node4 -->
<g id="edge11" class="edge">
<title>Node8&#45;&gt;Node4</title>
<path fill="none" stroke="midnightblue" d="M631.43,-287.1C650.98,-292.54 672.82,-298.63 691.42,-303.81"/>
<polygon fill="midnightblue" stroke="midnightblue" points="690.53,-307.19 701.11,-306.5 692.41,-300.45 690.53,-307.19"/>
</g>
<!-- Node9&#45;&gt;Node4 -->
<g id="edge15" class="edge">
<title>Node9&#45;&gt;Node4</title>
<path fill="none" stroke="midnightblue" d="M443.27,-340.83C461.27,-338.86 480.9,-336.8 499,-335.08 560.7,-329.23 631.57,-323.7 679.51,-320.12"/>
<polygon fill="midnightblue" stroke="midnightblue" points="679.97,-323.6 689.69,-319.37 679.45,-316.62 679.97,-323.6"/>
</g>
<!-- Node9&#45;&gt;Node6 -->
<g id="edge13" class="edge">
<title>Node9&#45;&gt;Node6</title>
<path fill="none" stroke="midnightblue" d="M443.2,-362.31C469.68,-368.26 500.03,-375.1 524.98,-380.71"/>
<polygon fill="midnightblue" stroke="midnightblue" points="524.44,-384.18 534.96,-382.96 525.97,-377.35 524.44,-384.18"/>
</g>
<!-- Node9&#45;&gt;Node7 -->
<g id="edge14" class="edge">
<title>Node9&#45;&gt;Node7</title>
<path fill="none" stroke="midnightblue" d="M443.2,-350.02C471.15,-350.88 503.41,-351.87 529.09,-352.66"/>
<polygon fill="midnightblue" stroke="midnightblue" points="529.19,-356.16 539.29,-352.97 529.4,-349.16 529.19,-356.16"/>
</g>
<!-- Node10&#45;&gt;Node4 -->
<g id="edge28" class="edge">
<title>Node10&#45;&gt;Node4</title>
<path fill="none" stroke="midnightblue" d="M259.24,-203.04C271.09,-205.23 283.4,-207.36 295,-209.08 453.7,-232.67 506.47,-184.01 654,-247.08 681,-258.62 705.79,-282.3 720.77,-298.67"/>
<polygon fill="midnightblue" stroke="midnightblue" points="718.42,-301.3 727.66,-306.47 723.66,-296.66 718.42,-301.3"/>
</g>
<!-- Node11 -->
<g id="node11" class="node">
<title>Node11</title>
<g id="a_node11"><a xlink:href="group__hal__component__pokeys.html#gabf985299322e7850c8f962e6c1174103" target="_top" xlink:title="Reads additional Pulse Engine v2 parameters from the PoKeys device.">
<polygon fill="white" stroke="black" points="295,-180.58 295,-199.58 463,-199.58 463,-180.58 295,-180.58"/>
<text text-anchor="middle" x="379" y="-187.58" font-family="Helvetica,sans-Serif" font-size="10.00">PEv2_AdditionalParametersGet</text>
</a>
</g>
</g>
<!-- Node10&#45;&gt;Node11 -->
<g id="edge17" class="edge">
<title>Node10&#45;&gt;Node11</title>
<path fill="none" stroke="midnightblue" d="M259.14,-190.08C267.41,-190.08 276.01,-190.08 284.65,-190.08"/>
<polygon fill="midnightblue" stroke="midnightblue" points="284.77,-193.58 294.77,-190.08 284.77,-186.58 284.77,-193.58"/>
</g>
<!-- Node12 -->
<g id="node12" class="node">
<title>Node12</title>
<g id="a_node12"><a xlink:href="group__hal__component__pokeys.html#ga03f28595c27000ef997f76c58d387efa" target="_top" xlink:title="Updates and sets additional Pulse Engine v2 parameters, such as the emergency input pin.">
<polygon fill="white" stroke="black" points="295.5,-142.58 295.5,-161.58 462.5,-161.58 462.5,-142.58 295.5,-142.58"/>
<text text-anchor="middle" x="379" y="-149.58" font-family="Helvetica,sans-Serif" font-size="10.00">PEv2_AdditionalParametersSet</text>
</a>
</g>
</g>
<!-- Node10&#45;&gt;Node12 -->
<g id="edge19" class="edge">
<title>Node10&#45;&gt;Node12</title>
<path fill="none" stroke="midnightblue" d="M259.14,-176.9C279.78,-172.59 302.54,-167.84 322.57,-163.65"/>
<polygon fill="midnightblue" stroke="midnightblue" points="323.39,-167.06 332.46,-161.59 321.96,-160.21 323.39,-167.06"/>
</g>
<!-- Node13 -->
<g id="node13" class="node">
<title>Node13</title>
<g id="a_node13"><a xlink:href="group__PoKeys__Axis.html#gafbc819ed007226ee89a72106f88a257e" target="_top" xlink:title="Retrieves and parses the axis configuration from the PoKeys Pulse Engine v2.">
<polygon fill="white" stroke="black" points="499,-93.08 499,-123.08 654,-123.08 654,-93.08 499,-93.08"/>
<text text-anchor="start" x="507" y="-111.08" font-family="Helvetica,sans-Serif" font-size="10.00">PoKeysHALComponent</text>
<text text-anchor="middle" x="576.5" y="-100.08" font-family="Helvetica,sans-Serif" font-size="10.00">::PEv2_AxisConfigurationGet</text>
</a>
</g>
</g>
<!-- Node10&#45;&gt;Node13 -->
<g id="edge21" class="edge">
<title>Node10&#45;&gt;Node13</title>
<path fill="none" stroke="midnightblue" d="M239.67,-175.07C246.34,-172.13 252.99,-168.78 259,-165.08 277.23,-153.85 275.35,-141.57 295,-133.08 356.08,-106.7 431.48,-101.3 488.72,-102.03"/>
<polygon fill="midnightblue" stroke="midnightblue" points="488.76,-105.53 498.82,-102.23 488.89,-98.53 488.76,-105.53"/>
</g>
<!-- Node14 -->
<g id="node14" class="node">
<title>Node14</title>
<g id="a_node14"><a xlink:href="group__hal__component__pokeys.html#gaa49f4d7037a22852892704ca050145f8" target="_top" xlink:title="Set the axis configuration of the PoKeys device.">
<polygon fill="white" stroke="black" points="302,-6.08 302,-36.08 456,-36.08 456,-6.08 302,-6.08"/>
<text text-anchor="start" x="310" y="-24.08" font-family="Helvetica,sans-Serif" font-size="10.00">PoKeysHALComponent</text>
<text text-anchor="middle" x="379" y="-13.08" font-family="Helvetica,sans-Serif" font-size="10.00">::PEv2_AxisConfigurationSet</text>
</a>
</g>
</g>
<!-- Node10&#45;&gt;Node14 -->
<g id="edge23" class="edge">
<title>Node10&#45;&gt;Node14</title>
<path fill="none" stroke="midnightblue" d="M246.55,-175.08C251.15,-172.29 255.42,-168.98 259,-165.08 296.64,-124.05 255.43,-84.26 295,-45.08 295.96,-44.13 296.95,-43.22 297.98,-42.34"/>
<polygon fill="midnightblue" stroke="midnightblue" points="300.32,-44.97 306.4,-36.29 296.24,-39.28 300.32,-44.97"/>
</g>
<!-- Node16 -->
<g id="node16" class="node">
<title>Node16</title>
<g id="a_node16"><a xlink:href="group__hal__component__pokeys.html#ga43e962a08faf5dfdf24294fde5806ad1" target="_top" xlink:title="Configures the PulseEngine v2 using current settings.">
<polygon fill="white" stroke="black" points="309.5,-55.08 309.5,-85.08 448.5,-85.08 448.5,-55.08 309.5,-55.08"/>
<text text-anchor="start" x="317.5" y="-73.08" font-family="Helvetica,sans-Serif" font-size="10.00">PoKeysHALComponent</text>
<text text-anchor="middle" x="379" y="-62.08" font-family="Helvetica,sans-Serif" font-size="10.00">::PEv2_PulseEngineSetup</text>
</a>
</g>
</g>
<!-- Node10&#45;&gt;Node16 -->
<g id="edge27" class="edge">
<title>Node10&#45;&gt;Node16</title>
<path fill="none" stroke="midnightblue" d="M244.47,-174.95C249.69,-172.16 254.67,-168.89 259,-165.08 283.8,-143.27 269.87,-121.5 295,-100.08 299.56,-96.2 304.66,-92.8 310.03,-89.83"/>
<polygon fill="midnightblue" stroke="midnightblue" points="311.88,-92.82 319.27,-85.23 308.76,-86.55 311.88,-92.82"/>
</g>
<!-- Node11&#45;&gt;Node4 -->
<g id="edge18" class="edge">
<title>Node11&#45;&gt;Node4</title>
<path fill="none" stroke="midnightblue" d="M463.03,-180.88C520.02,-178.36 595.6,-182.78 654,-214.08 688.79,-232.73 713.96,-273.2 726.5,-297.18"/>
<polygon fill="midnightblue" stroke="midnightblue" points="723.48,-298.96 731.09,-306.33 729.74,-295.82 723.48,-298.96"/>
</g>
<!-- Node12&#45;&gt;Node4 -->
<g id="edge20" class="edge">
<title>Node12&#45;&gt;Node4</title>
<path fill="none" stroke="midnightblue" d="M440.87,-142.57C500,-136.58 589.98,-136.43 654,-177.08 697.94,-204.98 721.06,-265.75 730.41,-296.87"/>
<polygon fill="midnightblue" stroke="midnightblue" points="727.06,-297.88 733.16,-306.54 733.79,-295.97 727.06,-297.88"/>
</g>
<!-- Node13&#45;&gt;Node4 -->
<g id="edge22" class="edge">
<title>Node13&#45;&gt;Node4</title>
<path fill="none" stroke="midnightblue" d="M631.64,-123.18C639.77,-127.11 647.57,-132 654,-138.08 701.24,-182.76 723.39,-260.06 731.57,-296.28"/>
<polygon fill="midnightblue" stroke="midnightblue" points="728.24,-297.45 733.74,-306.5 735.08,-295.99 728.24,-297.45"/>
</g>
<!-- Node14&#45;&gt;Node4 -->
<g id="edge25" class="edge">
<title>Node14&#45;&gt;Node4</title>
<path fill="none" stroke="midnightblue" d="M447.09,-6.06C507.79,3.38 596.27,6.26 654,-40.08 695.09,-73.07 723.8,-239.08 732.63,-296.5"/>
<polygon fill="midnightblue" stroke="midnightblue" points="729.18,-297.1 734.13,-306.47 736.11,-296.06 729.18,-297.1"/>
</g>
<!-- Node14&#45;&gt;Node13 -->
<g id="edge24" class="edge">
<title>Node14&#45;&gt;Node13</title>
<path fill="none" stroke="midnightblue" d="M443.78,-36.21C450.45,-38.76 456.98,-41.7 463,-45.08 481.92,-55.71 480.59,-66.59 499,-78.08 505.32,-82.03 512.25,-85.61 519.28,-88.82"/>
<polygon fill="midnightblue" stroke="midnightblue" points="518.3,-92.21 528.87,-92.96 521.07,-85.78 518.3,-92.21"/>
</g>
<!-- Node15 -->
<g id="node15" class="node">
<title>Node15</title>
<g id="a_node15"><a xlink:href="group__hal__component__pokeys.html#gac0d0be13b1ea7237f8fb54953380d2a9" target="_top" xlink:title="Sets or clears a specific bit in a byte.">
<polygon fill="white" stroke="black" points="534,-49.58 534,-68.58 619,-68.58 619,-49.58 534,-49.58"/>
<text text-anchor="middle" x="576.5" y="-56.58" font-family="Helvetica,sans-Serif" font-size="10.00">Set_BitOfByte</text>
</a>
</g>
</g>
<!-- Node14&#45;&gt;Node15 -->
<g id="edge26" class="edge">
<title>Node14&#45;&gt;Node15</title>
<path fill="none" stroke="midnightblue" d="M456.15,-35.88C478.9,-40.31 503.31,-45.05 524.08,-49.09"/>
<polygon fill="midnightblue" stroke="midnightblue" points="523.48,-52.53 533.96,-51.01 524.81,-45.66 523.48,-52.53"/>
</g>
<!-- Node19&#45;&gt;Node4 -->
<g id="edge33" class="edge">
<title>Node19&#45;&gt;Node4</title>
<path fill="none" stroke="midnightblue" d="M230.17,-553.6C312.12,-574.24 522.76,-614.08 654,-520.08 715.35,-476.14 730.55,-378.26 734.29,-336.07"/>
<polygon fill="midnightblue" stroke="midnightblue" points="737.79,-336.19 735.06,-325.95 730.81,-335.66 737.79,-336.19"/>
</g>
</g>
</svg>
        <g id="navigator" transform="translate(0 0)" fill="#404254">
                <rect fill="#f2f5e9" fill-opacity="0.5" stroke="#606060" stroke-width=".5" x="0" y="0" width="60" height="60"/>
                <use id="zoomplus" xlink:href="#zoomPlus" x="17" y="9" onmousedown="handleZoom(evt,'in')"/>
                <use id="zoomminus" xlink:href="#zoomMin" x="42" y="9" onmousedown="handleZoom(evt,'out')"/>
                <use id="reset" xlink:href="#resetDef" x="30" y="36" onmousedown="handleReset()"/>
                <g id="arrowUp" xlink:href="#dirArrow" transform="translate(30 24)" onmousedown="handlePan(0,-1)">
                  <use xlink:href="#rim" fill="#404040">
                        <set attributeName="fill" to="#808080" begin="arrowUp.mouseover" end="arrowUp.mouseout"/>
                  </use>
                  <path fill="none" stroke="white" stroke-width="1.5" d="M0,-3.0v7 M-2.5,-0.5L0,-3.0L2.5,-0.5"/>
                </g>
                <g id="arrowRight" xlink:href="#dirArrow" transform="rotate(90) translate(36 -43)" onmousedown="handlePan(1,0)">
                  <use xlink:href="#rim" fill="#404040">
                        <set attributeName="fill" to="#808080" begin="arrowRight.mouseover" end="arrowRight.mouseout"/>
                  </use>
                  <path fill="none" stroke="white" stroke-width="1.5" d="M0,-3.0v7 M-2.5,-0.5L0,-3.0L2.5,-0.5"/>
                </g>
                <g id="arrowDown" xlink:href="#dirArrow" transform="rotate(180) translate(-30 -48)" onmousedown="handlePan(0,1)">
                  <use xlink:href="#rim" fill="#404040">
                        <set attributeName="fill" to="#808080" begin="arrowDown.mouseover" end="arrowDown.mouseout"/>
                  </use>
                  <path fill="none" stroke="white" stroke-width="1.5" d="M0,-3.0v7 M-2.5,-0.5L0,-3.0L2.5,-0.5"/>
                </g>
                <g id="arrowLeft" xlink:href="#dirArrow" transform="rotate(270) translate(-36 17)" onmousedown="handlePan(-1,0)">
                  <use xlink:href="#rim" fill="#404040">
                        <set attributeName="fill" to="#808080" begin="arrowLeft.mouseover" end="arrowLeft.mouseout"/>
                  </use>
                  <path fill="none" stroke="white" stroke-width="1.5" d="M0,-3.0v7 M-2.5,-0.5L0,-3.0L2.5,-0.5"/>
                </g>
        </g>
        <svg viewBox="0 0 15 15" width="100%" height="30px" preserveAspectRatio="xMaxYMin meet">
         <g id="arrow_out" transform="scale(0.3 0.3)">
          <a xlink:href="pokeys_8c_a1d59e212b57d33fe74e44b64cadf3314_cgraph_org.svg" target="_base">
           <rect id="button" ry="5" rx="5" y="6" x="6" height="38" width="38"
                fill="#f2f5e9" fill-opacity="0.5" stroke="#606060" stroke-width="1.0"/>
           <path id="arrow"
             d="M 11.500037,31.436501 C 11.940474,20.09759 22.043105,11.32322 32.158766,21.979434 L 37.068811,17.246167 C 37.068811,17.246167 37.088388,32 37.088388,32 L 22.160133,31.978069 C 22.160133,31.978069 26.997745,27.140456 26.997745,27.140456 C 18.528582,18.264221 13.291696,25.230495 11.500037,31.436501 z"
             style="fill:#404040;"/>
          </a>
         </g>
        </svg>
</svg>
