<?xml version="1.0" encoding="UTF-8" standalone="no"?>
<!DOCTYPE svg PUBLIC "-//W3C//DTD SVG 1.1//EN"
 "http://www.w3.org/Graphics/SVG/1.1/DTD/svg11.dtd">
<!-- Generated by graphviz version 2.43.0 (0)
 -->
<!-- Title: PK_PWMConfigurationSetDirectlyAsync Pages: 1 -->
<svg width="714pt" height="85pt"
 viewBox="0.00 0.00 714.00 85.00" xmlns="http://www.w3.org/2000/svg" xmlns:xlink="http://www.w3.org/1999/xlink">
<g id="graph0" class="graph" transform="scale(1 1) rotate(0) translate(4 81)">
<title>PK_PWMConfigurationSetDirectlyAsync</title>
<polygon fill="white" stroke="transparent" points="-4,4 -4,-81 710,-81 710,4 -4,4"/>
<!-- Node1 -->
<g id="node1" class="node">
<title>Node1</title>
<g id="a_node1"><a xlink:title="Set PWM configuration directly with specified parameters (async)">
<polygon fill="#bfbfbf" stroke="black" points="0,-14 0,-44 179,-44 179,-14 0,-14"/>
<text text-anchor="start" x="8" y="-32" font-family="Helvetica,sans-Serif" font-size="10.00">PK_PWMConfigurationSetDirectly</text>
<text text-anchor="middle" x="89.5" y="-21" font-family="Helvetica,sans-Serif" font-size="10.00">Async</text>
</a>
</g>
</g>
<!-- Node2 -->
<g id="node2" class="node">
<title>Node2</title>
<g id="a_node2"><a xlink:href="PoKeysLibAsync_8c.html#a8ed8b17dbfd4e5cfba35c6b1e2ea6956" target="_top" xlink:title="Prepares an asynchronous request (non&#45;sending).">
<polygon fill="white" stroke="black" points="436.5,-38.5 436.5,-57.5 554.5,-57.5 554.5,-38.5 436.5,-38.5"/>
<text text-anchor="middle" x="495.5" y="-45.5" font-family="Helvetica,sans-Serif" font-size="10.00">CreateRequestAsync</text>
</a>
</g>
</g>
<!-- Node1&#45;&gt;Node2 -->
<g id="edge1" class="edge">
<title>Node1&#45;&gt;Node2</title>
<path fill="none" stroke="midnightblue" d="M179.16,-33.17C253.5,-36.67 358.13,-41.59 426.13,-44.78"/>
<polygon fill="midnightblue" stroke="midnightblue" points="426.14,-48.29 436.3,-45.26 426.47,-41.3 426.14,-48.29"/>
</g>
<!-- Node5 -->
<g id="node5" class="node">
<title>Node5</title>
<g id="a_node5"><a xlink:href="PoKeysLibPWMAsync_8c.html#a3cca862944a5c7bc849878bc5e2fbba1" target="_top" xlink:title="Set PWM configuration (async)">
<polygon fill="white" stroke="black" points="215,-0.5 215,-19.5 385,-19.5 385,-0.5 215,-0.5"/>
<text text-anchor="middle" x="300" y="-7.5" font-family="Helvetica,sans-Serif" font-size="10.00">PK_PWMConfigurationSetAsync</text>
</a>
</g>
</g>
<!-- Node1&#45;&gt;Node5 -->
<g id="edge4" class="edge">
<title>Node1&#45;&gt;Node5</title>
<path fill="none" stroke="midnightblue" d="M179.23,-20.91C187.75,-20.14 196.41,-19.35 204.99,-18.57"/>
<polygon fill="midnightblue" stroke="midnightblue" points="205.35,-22.05 214.99,-17.66 204.72,-15.08 205.35,-22.05"/>
</g>
<!-- Node3 -->
<g id="node3" class="node">
<title>Node3</title>
<g id="a_node3"><a xlink:href="PoKeysLibAsync_8c.html#a8e57ea5df5b229f5a1317bf4e4918c1b" target="_top" xlink:title=" ">
<polygon fill="white" stroke="black" points="608.5,-57.5 608.5,-76.5 703.5,-76.5 703.5,-57.5 608.5,-57.5"/>
<text text-anchor="middle" x="656" y="-64.5" font-family="Helvetica,sans-Serif" font-size="10.00">next_request_id</text>
</a>
</g>
</g>
<!-- Node2&#45;&gt;Node3 -->
<g id="edge2" class="edge">
<title>Node2&#45;&gt;Node3</title>
<path fill="none" stroke="midnightblue" d="M554.62,-54.97C568.84,-56.67 584.04,-58.49 598.19,-60.19"/>
<polygon fill="midnightblue" stroke="midnightblue" points="597.94,-63.69 608.29,-61.4 598.78,-56.74 597.94,-63.69"/>
</g>
<!-- Node4 -->
<g id="node4" class="node">
<title>Node4</title>
<g id="a_node4"><a xlink:href="PoKeysLibAsync_8c.html#a0daf7f6eb658a60879d46369307db3f0" target="_top" xlink:title="Allocates a new free transaction.">
<polygon fill="white" stroke="black" points="606,-19.5 606,-38.5 706,-38.5 706,-19.5 606,-19.5"/>
<text text-anchor="middle" x="656" y="-26.5" font-family="Helvetica,sans-Serif" font-size="10.00">transaction_alloc</text>
</a>
</g>
</g>
<!-- Node2&#45;&gt;Node4 -->
<g id="edge3" class="edge">
<title>Node2&#45;&gt;Node4</title>
<path fill="none" stroke="midnightblue" d="M554.62,-41.03C568,-39.43 582.24,-37.72 595.67,-36.11"/>
<polygon fill="midnightblue" stroke="midnightblue" points="596.24,-39.57 605.75,-34.9 595.4,-32.62 596.24,-39.57"/>
</g>
<!-- Node5&#45;&gt;Node2 -->
<g id="edge5" class="edge">
<title>Node5&#45;&gt;Node2</title>
<path fill="none" stroke="midnightblue" d="M349.83,-19.59C376.05,-24.74 408.56,-31.12 436.12,-36.53"/>
<polygon fill="midnightblue" stroke="midnightblue" points="435.54,-39.99 446.02,-38.48 436.88,-33.12 435.54,-39.99"/>
</g>
<!-- Node6 -->
<g id="node6" class="node">
<title>Node6</title>
<g id="a_node6"><a xlink:href="pokeysHal_2hal-canon_2hal__analog_8c.html#a888571c8ceab990ef5d043685915e2e7" target="_top" xlink:title=" ">
<polygon fill="white" stroke="black" points="421,-0.5 421,-19.5 570,-19.5 570,-0.5 421,-0.5"/>
<text text-anchor="middle" x="495.5" y="-7.5" font-family="Helvetica,sans-Serif" font-size="10.00">hal_adcout_getscaledvalue</text>
</a>
</g>
</g>
<!-- Node5&#45;&gt;Node6 -->
<g id="edge6" class="edge">
<title>Node5&#45;&gt;Node6</title>
<path fill="none" stroke="midnightblue" d="M385.03,-10C393.51,-10 402.13,-10 410.61,-10"/>
<polygon fill="midnightblue" stroke="midnightblue" points="410.87,-13.5 420.87,-10 410.87,-6.5 410.87,-13.5"/>
</g>
</g>
</svg>
