<?xml version="1.0" encoding="UTF-8" standalone="no"?>
<!DOCTYPE svg PUBLIC "-//W3C//DTD SVG 1.1//EN"
 "http://www.w3.org/Graphics/SVG/1.1/DTD/svg11.dtd">
<!-- Generated by graphviz version 2.43.0 (0)
 -->
<!-- Title: PKI_CheckInterface Pages: 1 -->
<svg width="427pt" height="28pt"
 viewBox="0.00 0.00 427.00 28.00" xmlns="http://www.w3.org/2000/svg" xmlns:xlink="http://www.w3.org/1999/xlink">
<g id="graph0" class="graph" transform="scale(1 1) rotate(0) translate(4 24)">
<title>PKI_CheckInterface</title>
<polygon fill="white" stroke="transparent" points="-4,4 -4,-24 423,-24 423,4 -4,4"/>
<!-- Node1 -->
<g id="node1" class="node">
<title>Node1</title>
<g id="a_node1"><a xlink:title=" ">
<polygon fill="#bfbfbf" stroke="black" points="308,-0.5 308,-19.5 419,-19.5 419,-0.5 308,-0.5"/>
<text text-anchor="middle" x="363.5" y="-7.5" font-family="Helvetica,sans-Serif" font-size="10.00">PKI_CheckInterface</text>
</a>
</g>
</g>
<!-- Node2 -->
<g id="node2" class="node">
<title>Node2</title>
<g id="a_node2"><a xlink:href="PoKeysLibCore_8c.html#a2722ded598b35dcc0748e966668eb702" target="_top" xlink:title=" ">
<polygon fill="white" stroke="black" points="125,-0.5 125,-19.5 272,-19.5 272,-0.5 125,-0.5"/>
<text text-anchor="middle" x="198.5" y="-7.5" font-family="Helvetica,sans-Serif" font-size="10.00">PK_EnumerateUSBDevices</text>
</a>
</g>
</g>
<!-- Node1&#45;&gt;Node2 -->
<g id="edge1" class="edge">
<title>Node1&#45;&gt;Node2</title>
<path fill="none" stroke="midnightblue" d="M297.65,-10C289.23,-10 280.57,-10 272.04,-10"/>
<polygon fill="midnightblue" stroke="midnightblue" points="297.77,-13.5 307.77,-10 297.77,-6.5 297.77,-13.5"/>
</g>
<!-- Node3 -->
<g id="node3" class="node">
<title>Node3</title>
<g id="a_node3"><a xlink:href="PoKeysLibDevicePoKeys57Industrial_8c.html#ac8fc7ddca3e4def19bafb5dfb39bcc19" target="_top" xlink:title=" ">
<polygon fill="white" stroke="black" points="0,-0.5 0,-19.5 89,-19.5 89,-0.5 0,-0.5"/>
<text text-anchor="middle" x="44.5" y="-7.5" font-family="Helvetica,sans-Serif" font-size="10.00">PK57i_Connect</text>
</a>
</g>
</g>
<!-- Node2&#45;&gt;Node3 -->
<g id="edge2" class="edge">
<title>Node2&#45;&gt;Node3</title>
<path fill="none" stroke="midnightblue" d="M114.46,-10C105.84,-10 97.33,-10 89.4,-10"/>
<polygon fill="midnightblue" stroke="midnightblue" points="114.62,-13.5 124.62,-10 114.62,-6.5 114.62,-13.5"/>
</g>
</g>
</svg>
