<?xml version="1.0" encoding="UTF-8" standalone="no"?>
<!DOCTYPE svg PUBLIC "-//W3C//DTD SVG 1.1//EN"
 "http://www.w3.org/Graphics/SVG/1.1/DTD/svg11.dtd">
<!-- Generated by graphviz version 2.43.0 (0)
 -->
<!-- Title: PK_EncoderValuesGetAsync_ProcessPage1 Pages: 1 -->
<svg width="521pt" height="39pt"
 viewBox="0.00 0.00 521.00 39.00" xmlns="http://www.w3.org/2000/svg" xmlns:xlink="http://www.w3.org/1999/xlink">
<g id="graph0" class="graph" transform="scale(1 1) rotate(0) translate(4 35)">
<title>PK_EncoderValuesGetAsync_ProcessPage1</title>
<polygon fill="white" stroke="transparent" points="-4,4 -4,-35 517,-35 517,4 -4,4"/>
<!-- Node1 -->
<g id="node1" class="node">
<title>Node1</title>
<g id="a_node1"><a xlink:title=" ">
<polygon fill="#bfbfbf" stroke="black" points="361,-0.5 361,-30.5 513,-30.5 513,-0.5 361,-0.5"/>
<text text-anchor="start" x="369" y="-18.5" font-family="Helvetica,sans-Serif" font-size="10.00">PK_EncoderValuesGetAsync</text>
<text text-anchor="middle" x="437" y="-7.5" font-family="Helvetica,sans-Serif" font-size="10.00">_ProcessPage1</text>
</a>
</g>
</g>
<!-- Node2 -->
<g id="node2" class="node">
<title>Node2</title>
<g id="a_node2"><a xlink:href="PoKeysLibEncodersAsync_8c.html#a6da05adf9f93cba660f7ecb85f8a92d2" target="_top" xlink:title="Starts asynchronous encoder values retrieval.">
<polygon fill="white" stroke="black" points="173,-6 173,-25 325,-25 325,-6 173,-6"/>
<text text-anchor="middle" x="249" y="-13" font-family="Helvetica,sans-Serif" font-size="10.00">PK_EncoderValuesGetAsync</text>
</a>
</g>
</g>
<!-- Node1&#45;&gt;Node2 -->
<g id="edge1" class="edge">
<title>Node1&#45;&gt;Node2</title>
<path fill="none" stroke="midnightblue" d="M350.85,-15.5C342.26,-15.5 333.57,-15.5 325.1,-15.5"/>
<polygon fill="midnightblue" stroke="midnightblue" points="350.88,-19 360.88,-15.5 350.88,-12 350.88,-19"/>
</g>
<!-- Node3 -->
<g id="node3" class="node">
<title>Node3</title>
<g id="a_node3"><a xlink:href="PoKeysLibAdvancedRTAsync_8c.html#a62f34b5fbad7130f28b4ee32263ee6c7" target="_top" xlink:title="Perform complete IO update cycle (async)">
<polygon fill="white" stroke="black" points="0,-6 0,-25 137,-25 137,-6 0,-6"/>
<text text-anchor="middle" x="68.5" y="-13" font-family="Helvetica,sans-Serif" font-size="10.00">PK_IOUpdateCycleAsync</text>
</a>
</g>
</g>
<!-- Node2&#45;&gt;Node3 -->
<g id="edge2" class="edge">
<title>Node2&#45;&gt;Node3</title>
<path fill="none" stroke="midnightblue" d="M162.79,-15.5C154.21,-15.5 145.58,-15.5 137.22,-15.5"/>
<polygon fill="midnightblue" stroke="midnightblue" points="162.82,-19 172.82,-15.5 162.82,-12 162.82,-19"/>
</g>
</g>
</svg>
