<?xml version="1.0" encoding="UTF-8" standalone="no"?>
<!DOCTYPE svg PUBLIC "-//W3C//DTD SVG 1.1//EN"
 "http://www.w3.org/Graphics/SVG/1.1/DTD/svg11.dtd">
<!-- Generated by graphviz version 2.43.0 (0)
 -->
<!-- Title: PK_PWMConfigurationSetDirectly Pages: 1 -->
<svg width="365pt" height="66pt"
 viewBox="0.00 0.00 365.00 66.00" xmlns="http://www.w3.org/2000/svg" xmlns:xlink="http://www.w3.org/1999/xlink">
<g id="graph0" class="graph" transform="scale(1 1) rotate(0) translate(4 62)">
<title>PK_PWMConfigurationSetDirectly</title>
<polygon fill="white" stroke="transparent" points="-4,4 -4,-62 361,-62 361,4 -4,4"/>
<!-- Node1 -->
<g id="node1" class="node">
<title>Node1</title>
<g id="a_node1"><a xlink:title=" ">
<polygon fill="#bfbfbf" stroke="black" points="0,-19.5 0,-38.5 179,-38.5 179,-19.5 0,-19.5"/>
<text text-anchor="middle" x="89.5" y="-26.5" font-family="Helvetica,sans-Serif" font-size="10.00">PK_PWMConfigurationSetDirectly</text>
</a>
</g>
</g>
<!-- Node2 -->
<g id="node2" class="node">
<title>Node2</title>
<g id="a_node2"><a xlink:href="pokeyslib_2PoKeysLibIO_8c.html#a5bbc9f37369faac5fbbe357a9393b8ae" target="_top" xlink:title=" ">
<polygon fill="white" stroke="black" points="215,-38.5 215,-57.5 357,-57.5 357,-38.5 215,-38.5"/>
<text text-anchor="middle" x="286" y="-45.5" font-family="Helvetica,sans-Serif" font-size="10.00">PK_PWMConfigurationGet</text>
</a>
</g>
</g>
<!-- Node1&#45;&gt;Node2 -->
<g id="edge1" class="edge">
<title>Node1&#45;&gt;Node2</title>
<path fill="none" stroke="midnightblue" d="M179.21,-37.67C187.69,-38.49 196.25,-39.33 204.64,-40.15"/>
<polygon fill="midnightblue" stroke="midnightblue" points="204.48,-43.65 214.77,-41.14 205.16,-36.68 204.48,-43.65"/>
</g>
<!-- Node3 -->
<g id="node3" class="node">
<title>Node3</title>
<g id="a_node3"><a xlink:href="pokeyslib_2PoKeysLibIO_8c.html#a74a7b181f1bbb877bb965343a64d43e2" target="_top" xlink:title=" ">
<polygon fill="white" stroke="black" points="216,-0.5 216,-19.5 356,-19.5 356,-0.5 216,-0.5"/>
<text text-anchor="middle" x="286" y="-7.5" font-family="Helvetica,sans-Serif" font-size="10.00">PK_PWMConfigurationSet</text>
</a>
</g>
</g>
<!-- Node1&#45;&gt;Node3 -->
<g id="edge2" class="edge">
<title>Node1&#45;&gt;Node3</title>
<path fill="none" stroke="midnightblue" d="M179.21,-20.33C188.07,-19.47 197.02,-18.59 205.77,-17.74"/>
<polygon fill="midnightblue" stroke="midnightblue" points="206.32,-21.2 215.94,-16.75 205.64,-14.24 206.32,-21.2"/>
</g>
</g>
</svg>
