<?xml version="1.0" encoding="UTF-8" standalone="no"?>
<!DOCTYPE svg PUBLIC "-//W3C//DTD SVG 1.1//EN"
 "http://www.w3.org/Graphics/SVG/1.1/DTD/svg11.dtd">
<!-- Generated by graphviz version 2.43.0 (0)
 -->
<!-- Title: /home/cnc/actions&#45;runner/_work/LinuxCnc_PokeysLibComp/LinuxCnc_PokeysLibComp/external/pokeysHal/PoKeysLibIOAsync.c Pages: 1 -->
<svg width="490pt" height="341pt"
 viewBox="0.00 0.00 489.50 341.00" xmlns="http://www.w3.org/2000/svg" xmlns:xlink="http://www.w3.org/1999/xlink">
<g id="graph0" class="graph" transform="scale(1 1) rotate(0) translate(4 337)">
<title>/home/cnc/actions&#45;runner/_work/LinuxCnc_PokeysLibComp/LinuxCnc_PokeysLibComp/external/pokeysHal/PoKeysLibIOAsync.c</title>
<polygon fill="white" stroke="transparent" points="-4,4 -4,-337 485.5,-337 485.5,4 -4,4"/>
<!-- Node1 -->
<g id="node1" class="node">
<title>Node1</title>
<g id="a_node1"><a xlink:title=" ">
<polygon fill="#bfbfbf" stroke="black" points="201,-280.5 201,-332.5 391,-332.5 391,-280.5 201,-280.5"/>
<text text-anchor="start" x="209" y="-320.5" font-family="Helvetica,sans-Serif" font-size="10.00">/home/cnc/actions&#45;runner</text>
<text text-anchor="start" x="209" y="-309.5" font-family="Helvetica,sans-Serif" font-size="10.00">/_work/LinuxCnc_PokeysLibComp</text>
<text text-anchor="start" x="209" y="-298.5" font-family="Helvetica,sans-Serif" font-size="10.00">/LinuxCnc_PokeysLibComp/external</text>
<text text-anchor="middle" x="296" y="-287.5" font-family="Helvetica,sans-Serif" font-size="10.00">/pokeysHal/PoKeysLibIOAsync.c</text>
</a>
</g>
</g>
<!-- Node2 -->
<g id="node2" class="node">
<title>Node2</title>
<g id="a_node2"><a xlink:href="PoKeysLibHal_8h.html" target="_top" xlink:title=" ">
<polygon fill="white" stroke="black" points="249,-168.5 249,-187.5 341,-187.5 341,-168.5 249,-168.5"/>
<text text-anchor="middle" x="295" y="-175.5" font-family="Helvetica,sans-Serif" font-size="10.00">PoKeysLibHal.h</text>
</a>
</g>
</g>
<!-- Node1&#45;&gt;Node2 -->
<g id="edge1" class="edge">
<title>Node1&#45;&gt;Node2</title>
<path fill="none" stroke="midnightblue" d="M295.8,-280.2C295.61,-255.88 295.32,-219.67 295.15,-197.8"/>
<polygon fill="midnightblue" stroke="midnightblue" points="298.65,-197.52 295.07,-187.55 291.65,-197.58 298.65,-197.52"/>
</g>
<!-- Node15 -->
<g id="node15" class="node">
<title>Node15</title>
<g id="a_node15"><a xlink:title=" ">
<polygon fill="white" stroke="#bfbfbf" points="333.5,-112.5 333.5,-131.5 408.5,-131.5 408.5,-112.5 333.5,-112.5"/>
<text text-anchor="middle" x="371" y="-119.5" font-family="Helvetica,sans-Serif" font-size="10.00">hal_canon.h</text>
</a>
</g>
</g>
<!-- Node1&#45;&gt;Node15 -->
<g id="edge20" class="edge">
<title>Node1&#45;&gt;Node15</title>
<path fill="none" stroke="midnightblue" d="M308.68,-280.2C320.23,-256.66 337.36,-220.42 350,-188 356.06,-172.46 361.8,-154.38 365.74,-141.24"/>
<polygon fill="midnightblue" stroke="midnightblue" points="369.13,-142.11 368.6,-131.53 362.42,-140.13 369.13,-142.11"/>
</g>
<!-- Node16 -->
<g id="node16" class="node">
<title>Node16</title>
<g id="a_node16"><a xlink:href="PoKeysLibAsync_8h.html" target="_top" xlink:title=" ">
<polygon fill="white" stroke="black" points="164,-224.5 164,-243.5 268,-243.5 268,-224.5 164,-224.5"/>
<text text-anchor="middle" x="216" y="-231.5" font-family="Helvetica,sans-Serif" font-size="10.00">PoKeysLibAsync.h</text>
</a>
</g>
</g>
<!-- Node1&#45;&gt;Node16 -->
<g id="edge15" class="edge">
<title>Node1&#45;&gt;Node16</title>
<path fill="none" stroke="midnightblue" d="M267.57,-280.45C256.2,-270.43 243.47,-259.21 233.5,-250.42"/>
<polygon fill="midnightblue" stroke="midnightblue" points="235.68,-247.68 225.87,-243.7 231.06,-252.93 235.68,-247.68"/>
</g>
<!-- Node3 -->
<g id="node3" class="node">
<title>Node3</title>
<g id="a_node3"><a xlink:title=" ">
<polygon fill="white" stroke="#bfbfbf" points="203.5,-112.5 203.5,-131.5 256.5,-131.5 256.5,-112.5 203.5,-112.5"/>
<text text-anchor="middle" x="230" y="-119.5" font-family="Helvetica,sans-Serif" font-size="10.00">stdint.h</text>
</a>
</g>
</g>
<!-- Node2&#45;&gt;Node3 -->
<g id="edge2" class="edge">
<title>Node2&#45;&gt;Node3</title>
<path fill="none" stroke="midnightblue" d="M284.56,-168.32C274.85,-160.26 260.18,-148.08 248.5,-138.37"/>
<polygon fill="midnightblue" stroke="midnightblue" points="250.56,-135.53 240.63,-131.83 246.09,-140.92 250.56,-135.53"/>
</g>
<!-- Node4 -->
<g id="node4" class="node">
<title>Node4</title>
<g id="a_node4"><a xlink:href="hal_8h.html" target="_top" xlink:title=" ">
<polygon fill="white" stroke="black" points="274.5,-112.5 274.5,-131.5 315.5,-131.5 315.5,-112.5 274.5,-112.5"/>
<text text-anchor="middle" x="295" y="-119.5" font-family="Helvetica,sans-Serif" font-size="10.00">hal.h</text>
</a>
</g>
</g>
<!-- Node2&#45;&gt;Node4 -->
<g id="edge3" class="edge">
<title>Node2&#45;&gt;Node4</title>
<path fill="none" stroke="midnightblue" d="M295,-168.08C295,-161.01 295,-150.86 295,-141.99"/>
<polygon fill="midnightblue" stroke="midnightblue" points="298.5,-141.75 295,-131.75 291.5,-141.75 298.5,-141.75"/>
</g>
<!-- Node2&#45;&gt;Node15 -->
<g id="edge14" class="edge">
<title>Node2&#45;&gt;Node15</title>
<path fill="none" stroke="midnightblue" d="M307.21,-168.32C318.78,-160.11 336.38,-147.6 350.16,-137.81"/>
<polygon fill="midnightblue" stroke="midnightblue" points="352.44,-140.48 358.57,-131.83 348.39,-134.77 352.44,-140.48"/>
</g>
<!-- Node5 -->
<g id="node5" class="node">
<title>Node5</title>
<g id="a_node5"><a xlink:href="rtapi_8h.html" target="_top" xlink:title=" ">
<polygon fill="white" stroke="black" points="85,-56.5 85,-75.5 133,-75.5 133,-56.5 85,-56.5"/>
<text text-anchor="middle" x="109" y="-63.5" font-family="Helvetica,sans-Serif" font-size="10.00">rtapi.h</text>
</a>
</g>
</g>
<!-- Node4&#45;&gt;Node5 -->
<g id="edge4" class="edge">
<title>Node4&#45;&gt;Node5</title>
<path fill="none" stroke="midnightblue" d="M274.35,-114.77C271.22,-113.84 268.03,-112.89 265,-112 222.91,-99.62 174.33,-85.66 142.71,-76.61"/>
<polygon fill="midnightblue" stroke="midnightblue" points="143.65,-73.24 133.08,-73.86 141.73,-79.97 143.65,-73.24"/>
</g>
<!-- Node9 -->
<g id="node9" class="node">
<title>Node9</title>
<g id="a_node9"><a xlink:href="rtapi__errno_8h.html" target="_top" xlink:title=" ">
<polygon fill="white" stroke="black" points="402.5,-56.5 402.5,-75.5 481.5,-75.5 481.5,-56.5 402.5,-56.5"/>
<text text-anchor="middle" x="442" y="-63.5" font-family="Helvetica,sans-Serif" font-size="10.00">rtapi_errno.h</text>
</a>
</g>
</g>
<!-- Node4&#45;&gt;Node9 -->
<g id="edge8" class="edge">
<title>Node4&#45;&gt;Node9</title>
<path fill="none" stroke="midnightblue" d="M315.75,-113.38C339.96,-104.48 380.31,-89.66 408.87,-79.17"/>
<polygon fill="midnightblue" stroke="midnightblue" points="410.26,-82.39 418.44,-75.65 407.85,-75.82 410.26,-82.39"/>
</g>
<!-- Node11 -->
<g id="node11" class="node">
<title>Node11</title>
<g id="a_node11"><a xlink:href="rtapi__bool_8h.html" target="_top" xlink:title=" ">
<polygon fill="white" stroke="black" points="211,-56.5 211,-75.5 285,-75.5 285,-56.5 211,-56.5"/>
<text text-anchor="middle" x="248" y="-63.5" font-family="Helvetica,sans-Serif" font-size="10.00">rtapi_bool.h</text>
</a>
</g>
</g>
<!-- Node4&#45;&gt;Node11 -->
<g id="edge10" class="edge">
<title>Node4&#45;&gt;Node11</title>
<path fill="none" stroke="midnightblue" d="M287.24,-112.08C280.46,-104.3 270.46,-92.8 262.24,-83.37"/>
<polygon fill="midnightblue" stroke="midnightblue" points="264.82,-81 255.62,-75.75 259.54,-85.59 264.82,-81"/>
</g>
<!-- Node13 -->
<g id="node13" class="node">
<title>Node13</title>
<g id="a_node13"><a xlink:href="rtapi__stdint_8h.html" target="_top" xlink:title=" ">
<polygon fill="white" stroke="black" points="303.5,-56.5 303.5,-75.5 384.5,-75.5 384.5,-56.5 303.5,-56.5"/>
<text text-anchor="middle" x="344" y="-63.5" font-family="Helvetica,sans-Serif" font-size="10.00">rtapi_stdint.h</text>
</a>
</g>
</g>
<!-- Node4&#45;&gt;Node13 -->
<g id="edge12" class="edge">
<title>Node4&#45;&gt;Node13</title>
<path fill="none" stroke="midnightblue" d="M303.09,-112.08C310.16,-104.3 320.59,-92.8 329.15,-83.37"/>
<polygon fill="midnightblue" stroke="midnightblue" points="331.93,-85.51 336.06,-75.75 326.75,-80.8 331.93,-85.51"/>
</g>
<!-- Node6 -->
<g id="node6" class="node">
<title>Node6</title>
<g id="a_node6"><a xlink:title=" ">
<polygon fill="white" stroke="#bfbfbf" points="0,-0.5 0,-19.5 56,-19.5 56,-0.5 0,-0.5"/>
<text text-anchor="middle" x="28" y="-7.5" font-family="Helvetica,sans-Serif" font-size="10.00">stddef.h</text>
</a>
</g>
</g>
<!-- Node5&#45;&gt;Node6 -->
<g id="edge5" class="edge">
<title>Node5&#45;&gt;Node6</title>
<path fill="none" stroke="midnightblue" d="M95.99,-56.32C83.47,-47.98 64.32,-35.21 49.53,-25.35"/>
<polygon fill="midnightblue" stroke="midnightblue" points="51.24,-22.29 40.98,-19.65 47.36,-28.11 51.24,-22.29"/>
</g>
<!-- Node7 -->
<g id="node7" class="node">
<title>Node7</title>
<g id="a_node7"><a xlink:title=" ">
<polygon fill="white" stroke="#bfbfbf" points="74,-0.5 74,-19.5 130,-19.5 130,-0.5 74,-0.5"/>
<text text-anchor="middle" x="102" y="-7.5" font-family="Helvetica,sans-Serif" font-size="10.00">stdarg.h</text>
</a>
</g>
</g>
<!-- Node5&#45;&gt;Node7 -->
<g id="edge6" class="edge">
<title>Node5&#45;&gt;Node7</title>
<path fill="none" stroke="midnightblue" d="M107.84,-56.08C106.92,-48.93 105.58,-38.64 104.42,-29.69"/>
<polygon fill="midnightblue" stroke="midnightblue" points="107.89,-29.22 103.13,-19.75 100.95,-30.12 107.89,-29.22"/>
</g>
<!-- Node8 -->
<g id="node8" class="node">
<title>Node8</title>
<g id="a_node8"><a xlink:title=" ">
<polygon fill="white" stroke="#bfbfbf" points="148.5,-0.5 148.5,-19.5 205.5,-19.5 205.5,-0.5 148.5,-0.5"/>
<text text-anchor="middle" x="177" y="-7.5" font-family="Helvetica,sans-Serif" font-size="10.00">spawn.h</text>
</a>
</g>
</g>
<!-- Node5&#45;&gt;Node8 -->
<g id="edge7" class="edge">
<title>Node5&#45;&gt;Node8</title>
<path fill="none" stroke="midnightblue" d="M119.93,-56.32C130.17,-48.18 145.72,-35.84 158,-26.09"/>
<polygon fill="midnightblue" stroke="midnightblue" points="160.22,-28.79 165.88,-19.83 155.87,-23.31 160.22,-28.79"/>
</g>
<!-- Node10 -->
<g id="node10" class="node">
<title>Node10</title>
<g id="a_node10"><a xlink:title=" ">
<polygon fill="white" stroke="#bfbfbf" points="416.5,-0.5 416.5,-19.5 467.5,-19.5 467.5,-0.5 416.5,-0.5"/>
<text text-anchor="middle" x="442" y="-7.5" font-family="Helvetica,sans-Serif" font-size="10.00">errno.h</text>
</a>
</g>
</g>
<!-- Node9&#45;&gt;Node10 -->
<g id="edge9" class="edge">
<title>Node9&#45;&gt;Node10</title>
<path fill="none" stroke="midnightblue" d="M442,-56.08C442,-49.01 442,-38.86 442,-29.99"/>
<polygon fill="midnightblue" stroke="midnightblue" points="445.5,-29.75 442,-19.75 438.5,-29.75 445.5,-29.75"/>
</g>
<!-- Node12 -->
<g id="node12" class="node">
<title>Node12</title>
<g id="a_node12"><a xlink:title=" ">
<polygon fill="white" stroke="#bfbfbf" points="224,-0.5 224,-19.5 286,-19.5 286,-0.5 224,-0.5"/>
<text text-anchor="middle" x="255" y="-7.5" font-family="Helvetica,sans-Serif" font-size="10.00">stdbool.h</text>
</a>
</g>
</g>
<!-- Node11&#45;&gt;Node12 -->
<g id="edge11" class="edge">
<title>Node11&#45;&gt;Node12</title>
<path fill="none" stroke="midnightblue" d="M249.16,-56.08C250.08,-48.93 251.42,-38.64 252.58,-29.69"/>
<polygon fill="midnightblue" stroke="midnightblue" points="256.05,-30.12 253.87,-19.75 249.11,-29.22 256.05,-30.12"/>
</g>
<!-- Node14 -->
<g id="node14" class="node">
<title>Node14</title>
<g id="a_node14"><a xlink:title=" ">
<polygon fill="white" stroke="#bfbfbf" points="311.5,-0.5 311.5,-19.5 376.5,-19.5 376.5,-0.5 311.5,-0.5"/>
<text text-anchor="middle" x="344" y="-7.5" font-family="Helvetica,sans-Serif" font-size="10.00">inttypes.h</text>
</a>
</g>
</g>
<!-- Node13&#45;&gt;Node14 -->
<g id="edge13" class="edge">
<title>Node13&#45;&gt;Node14</title>
<path fill="none" stroke="midnightblue" d="M344,-56.08C344,-49.01 344,-38.86 344,-29.99"/>
<polygon fill="midnightblue" stroke="midnightblue" points="347.5,-29.75 344,-19.75 340.5,-29.75 347.5,-29.75"/>
</g>
<!-- Node16&#45;&gt;Node2 -->
<g id="edge16" class="edge">
<title>Node16&#45;&gt;Node2</title>
<path fill="none" stroke="midnightblue" d="M228.69,-224.32C240.9,-215.98 259.58,-203.21 274,-193.35"/>
<polygon fill="midnightblue" stroke="midnightblue" points="276.06,-196.19 282.34,-187.65 272.11,-190.41 276.06,-196.19"/>
</g>
<!-- Node16&#45;&gt;Node3 -->
<g id="edge17" class="edge">
<title>Node16&#45;&gt;Node3</title>
<path fill="none" stroke="midnightblue" d="M217.1,-224.37C219.36,-206.62 224.57,-165.67 227.63,-141.6"/>
<polygon fill="midnightblue" stroke="midnightblue" points="231.12,-141.95 228.91,-131.59 224.17,-141.07 231.12,-141.95"/>
</g>
<!-- Node16&#45;&gt;Node6 -->
<g id="edge18" class="edge">
<title>Node16&#45;&gt;Node6</title>
<path fill="none" stroke="midnightblue" d="M207.81,-224.4C185.78,-201.11 123.66,-134.68 76,-76 63.07,-60.07 49.24,-41.13 39.77,-27.82"/>
<polygon fill="midnightblue" stroke="midnightblue" points="42.6,-25.75 33.97,-19.6 36.88,-29.79 42.6,-25.75"/>
</g>
<!-- Node16&#45;&gt;Node12 -->
<g id="edge19" class="edge">
<title>Node16&#45;&gt;Node12</title>
<path fill="none" stroke="midnightblue" d="M212.1,-224.18C200.75,-197.05 170.42,-113.21 202,-56 208.84,-43.62 220.52,-33.14 231.18,-25.42"/>
<polygon fill="midnightblue" stroke="midnightblue" points="233.45,-28.11 239.77,-19.6 229.52,-22.32 233.45,-28.11"/>
</g>
</g>
</svg>
