<?xml version="1.0" encoding="UTF-8" standalone="no"?>
<!DOCTYPE svg PUBLIC "-//W3C//DTD SVG 1.1//EN"
 "http://www.w3.org/Graphics/SVG/1.1/DTD/svg11.dtd">
<!-- Generated by graphviz version 2.43.0 (0)
 -->
<!-- Title: PK57i_Update Pages: 1 -->
<svg width="488pt" height="142pt"
 viewBox="0.00 0.00 488.00 142.00" xmlns="http://www.w3.org/2000/svg" xmlns:xlink="http://www.w3.org/1999/xlink">
<g id="graph0" class="graph" transform="scale(1 1) rotate(0) translate(4 138)">
<title>PK57i_Update</title>
<polygon fill="white" stroke="transparent" points="-4,4 -4,-138 484,-138 484,4 -4,4"/>
<!-- Node1 -->
<g id="node1" class="node">
<title>Node1</title>
<g id="a_node1"><a xlink:title="Exchange I/O data with the PoKeys57Industrial device.">
<polygon fill="#bfbfbf" stroke="black" points="0,-76.5 0,-95.5 85,-95.5 85,-76.5 0,-76.5"/>
<text text-anchor="middle" x="42.5" y="-83.5" font-family="Helvetica,sans-Serif" font-size="10.00">PK57i_Update</text>
</a>
</g>
</g>
<!-- Node2 -->
<g id="node2" class="node">
<title>Node2</title>
<g id="a_node2"><a xlink:href="pokeyslib_2PoKeysLibCore_8c.html#acb1fdd8f77277dc66c4d037218bfcece" target="_top" xlink:title=" ">
<polygon fill="white" stroke="black" points="121,-95.5 121,-114.5 210,-114.5 210,-95.5 121,-95.5"/>
<text text-anchor="middle" x="165.5" y="-102.5" font-family="Helvetica,sans-Serif" font-size="10.00">CreateRequest</text>
</a>
</g>
</g>
<!-- Node1&#45;&gt;Node2 -->
<g id="edge1" class="edge">
<title>Node1&#45;&gt;Node2</title>
<path fill="none" stroke="midnightblue" d="M85.14,-92.54C93.4,-93.83 102.17,-95.21 110.76,-96.56"/>
<polygon fill="midnightblue" stroke="midnightblue" points="110.3,-100.03 120.72,-98.13 111.38,-93.12 110.3,-100.03"/>
</g>
<!-- Node3 -->
<g id="node3" class="node">
<title>Node3</title>
<g id="a_node3"><a xlink:href="pokeyslib_2PoKeysLibCore_8c.html#ab5d92aa36d0a4a6953a055f5cd960aff" target="_top" xlink:title=" ">
<polygon fill="white" stroke="black" points="125.5,-57.5 125.5,-76.5 205.5,-76.5 205.5,-57.5 125.5,-57.5"/>
<text text-anchor="middle" x="165.5" y="-64.5" font-family="Helvetica,sans-Serif" font-size="10.00">SendRequest</text>
</a>
</g>
</g>
<!-- Node1&#45;&gt;Node3 -->
<g id="edge2" class="edge">
<title>Node1&#45;&gt;Node3</title>
<path fill="none" stroke="midnightblue" d="M85.14,-79.46C94.78,-77.95 105.13,-76.32 115.07,-74.76"/>
<polygon fill="midnightblue" stroke="midnightblue" points="115.89,-78.18 125.23,-73.17 114.81,-71.26 115.89,-78.18"/>
</g>
<!-- Node4 -->
<g id="node4" class="node">
<title>Node4</title>
<g id="a_node4"><a xlink:href="pokeyslib_2PoKeysLibCore_8c.html#a273b6d635dea8f559b915cdb289d021e" target="_top" xlink:title=" ">
<polygon fill="white" stroke="black" points="387.5,-38.5 387.5,-57.5 470.5,-57.5 470.5,-38.5 387.5,-38.5"/>
<text text-anchor="middle" x="429" y="-45.5" font-family="Helvetica,sans-Serif" font-size="10.00">getChecksum</text>
</a>
</g>
</g>
<!-- Node3&#45;&gt;Node4 -->
<g id="edge3" class="edge">
<title>Node3&#45;&gt;Node4</title>
<path fill="none" stroke="midnightblue" d="M205.67,-69.42C241.32,-71.06 295.36,-72.09 342,-67 355.57,-65.52 370.13,-62.76 383.34,-59.8"/>
<polygon fill="midnightblue" stroke="midnightblue" points="384.2,-63.19 393.14,-57.51 382.61,-56.37 384.2,-63.19"/>
</g>
<!-- Node5 -->
<g id="node5" class="node">
<title>Node5</title>
<g id="a_node5"><a xlink:href="group__API.html#ga6b820f3e72097cf7f994e33715dc7af1" target="_top" xlink:title="Read an Input report from a HID device.">
<polygon fill="white" stroke="black" points="264.5,-114.5 264.5,-133.5 323.5,-133.5 323.5,-114.5 264.5,-114.5"/>
<text text-anchor="middle" x="294" y="-121.5" font-family="Helvetica,sans-Serif" font-size="10.00">hid_read</text>
</a>
</g>
</g>
<!-- Node3&#45;&gt;Node5 -->
<g id="edge4" class="edge">
<title>Node3&#45;&gt;Node5</title>
<path fill="none" stroke="midnightblue" d="M188.66,-76.59C195.51,-79.58 203.08,-82.9 210,-86 227.61,-93.88 247.24,-102.86 262.99,-110.11"/>
<polygon fill="midnightblue" stroke="midnightblue" points="261.69,-113.36 272.24,-114.37 264.62,-107.01 261.69,-113.36"/>
</g>
<!-- Node7 -->
<g id="node7" class="node">
<title>Node7</title>
<g id="a_node7"><a xlink:href="group__API.html#gad14ea48e440cf5066df87cc6488493af" target="_top" xlink:title="Write an Output report to a HID device.">
<polygon fill="white" stroke="black" points="263,-38.5 263,-57.5 325,-57.5 325,-38.5 263,-38.5"/>
<text text-anchor="middle" x="294" y="-45.5" font-family="Helvetica,sans-Serif" font-size="10.00">hid_write</text>
</a>
</g>
</g>
<!-- Node3&#45;&gt;Node7 -->
<g id="edge6" class="edge">
<title>Node3&#45;&gt;Node7</title>
<path fill="none" stroke="midnightblue" d="M205.83,-61.09C220.8,-58.84 237.86,-56.28 252.9,-54.02"/>
<polygon fill="midnightblue" stroke="midnightblue" points="253.57,-57.46 262.94,-52.52 252.53,-50.54 253.57,-57.46"/>
</g>
<!-- Node8 -->
<g id="node8" class="node">
<title>Node8</title>
<g id="a_node8"><a xlink:href="pokeyslib_2PoKeysLibCoreSockets_8c.html#a22759fb4024c9081af26ac1bc6541b47" target="_top" xlink:title=" ">
<polygon fill="white" stroke="black" points="246,-0.5 246,-19.5 342,-19.5 342,-0.5 246,-0.5"/>
<text text-anchor="middle" x="294" y="-7.5" font-family="Helvetica,sans-Serif" font-size="10.00">SendEthRequest</text>
</a>
</g>
</g>
<!-- Node3&#45;&gt;Node8 -->
<g id="edge7" class="edge">
<title>Node3&#45;&gt;Node8</title>
<path fill="none" stroke="midnightblue" d="M185.62,-57.45C201.63,-49.56 225.14,-38.19 246,-29 250.19,-27.15 254.62,-25.27 259.02,-23.45"/>
<polygon fill="midnightblue" stroke="midnightblue" points="260.55,-26.6 268.49,-19.58 257.91,-20.12 260.55,-26.6"/>
</g>
<!-- Node6 -->
<g id="node6" class="node">
<title>Node6</title>
<g id="a_node6"><a xlink:href="group__API.html#gaa5c9ed5aa290688ffac03343989ad75a" target="_top" xlink:title="Read an Input report from a HID device with timeout.">
<polygon fill="white" stroke="black" points="378,-114.5 378,-133.5 480,-133.5 480,-114.5 378,-114.5"/>
<text text-anchor="middle" x="429" y="-121.5" font-family="Helvetica,sans-Serif" font-size="10.00">hid_read_timeout</text>
</a>
</g>
</g>
<!-- Node5&#45;&gt;Node6 -->
<g id="edge5" class="edge">
<title>Node5&#45;&gt;Node6</title>
<path fill="none" stroke="midnightblue" d="M323.53,-124C336.49,-124 352.35,-124 367.75,-124"/>
<polygon fill="midnightblue" stroke="midnightblue" points="367.77,-127.5 377.77,-124 367.77,-120.5 367.77,-127.5"/>
</g>
<!-- Node8&#45;&gt;Node4 -->
<g id="edge8" class="edge">
<title>Node8&#45;&gt;Node4</title>
<path fill="none" stroke="midnightblue" d="M328.56,-19.59C345.57,-24.45 366.43,-30.41 384.64,-35.61"/>
<polygon fill="midnightblue" stroke="midnightblue" points="383.87,-39.03 394.45,-38.41 385.8,-32.3 383.87,-39.03"/>
</g>
</g>
</svg>
