<?xml version="1.0" encoding="UTF-8" standalone="no"?>
<!DOCTYPE svg PUBLIC "-//W3C//DTD SVG 1.1//EN"
 "http://www.w3.org/Graphics/SVG/1.1/DTD/svg11.dtd">
<!-- Generated by graphviz version 2.43.0 (0)
 -->
<!-- Title: /home/cnc/actions&#45;runner/_work/LinuxCnc_PokeysLibComp/LinuxCnc_PokeysLibComp/external/pokeysHal/hid&#45;mac.c Pages: 1 -->
<!--zoomable 173 -->
<svg id="main" version="1.1" xmlns="http://www.w3.org/2000/svg" xmlns:xlink="http://www.w3.org/1999/xlink" xml:space="preserve" onload="init(evt)">
<style type="text/css"><![CDATA[
.edge:hover path { stroke: red; }
.edge:hover polygon { stroke: red; fill: red; }
]]></style>
<script type="text/javascript"><![CDATA[
var edges = document.getElementsByTagName('g');
if (edges && edges.length) {
  for (var i=0;i<edges.length;i++) {
    if (edges[i].id.substr(0,4)=='edge') {
      edges[i].setAttribute('class','edge');
    }
  }
}
]]></script>
        <defs>
                <circle id="rim" cx="0" cy="0" r="7"/>
                <circle id="rim2" cx="0" cy="0" r="3.5"/>
                <g id="zoomPlus">
                        <use xlink:href="#rim" fill="#404040">
                                <set attributeName="fill" to="#808080" begin="zoomplus.mouseover" end="zoomplus.mouseout"/>
                        </use>
                        <path d="M-4,0h8M0,-4v8" fill="none" stroke="white" stroke-width="1.5" pointer-events="none"/>
                </g>
                <g id="zoomMin">
                        <use xlink:href="#rim" fill="#404040">
                                <set attributeName="fill" to="#808080" begin="zoomminus.mouseover" end="zoomminus.mouseout"/>
                        </use>
                        <path d="M-4,0h8" fill="none" stroke="white" stroke-width="1.5" pointer-events="none"/>
                </g>
                <g id="dirArrow">
                        <path fill="none" stroke="white" stroke-width="1.5" d="M0,-3.0v7 M-2.5,-0.5L0,-3.0L2.5,-0.5"/>
                </g>
               <g id="resetDef">
                       <use xlink:href="#rim2" fill="#404040">
                               <set attributeName="fill" to="#808080" begin="reset.mouseover" end="reset.mouseout"/>
                       </use>
               </g>
        </defs>

<script type="text/javascript">
var viewWidth = 917;
var viewHeight = 173;
var sectionId = 'dynsection-0';
</script>
<script xlink:href="svgpan.js"/>
<svg id="graph" class="graph">
<g id="viewport">
<title>/home/cnc/actions&#45;runner/_work/LinuxCnc_PokeysLibComp/LinuxCnc_PokeysLibComp/external/pokeysHal/hid&#45;mac.c</title>
<polygon fill="white" stroke="transparent" points="-4,4 -4,-169 912.5,-169 912.5,4 -4,4"/>
<!-- Node1 -->
<g id="node1" class="node">
<title>Node1</title>
<g id="a_node1"><a xlink:title=" ">
<polygon fill="#bfbfbf" stroke="black" points="470.5,-112.5 470.5,-164.5 660.5,-164.5 660.5,-112.5 470.5,-112.5"/>
<text text-anchor="start" x="478.5" y="-152.5" font-family="Helvetica,sans-Serif" font-size="10.00">/home/cnc/actions&#45;runner</text>
<text text-anchor="start" x="478.5" y="-141.5" font-family="Helvetica,sans-Serif" font-size="10.00">/_work/LinuxCnc_PokeysLibComp</text>
<text text-anchor="start" x="478.5" y="-130.5" font-family="Helvetica,sans-Serif" font-size="10.00">/LinuxCnc_PokeysLibComp/external</text>
<text text-anchor="middle" x="565.5" y="-119.5" font-family="Helvetica,sans-Serif" font-size="10.00">/pokeysHal/hid&#45;mac.c</text>
</a>
</g>
</g>
<!-- Node2 -->
<g id="node2" class="node">
<title>Node2</title>
<g id="a_node2"><a xlink:title=" ">
<polygon fill="white" stroke="#bfbfbf" points="0,-56.5 0,-75.5 141,-75.5 141,-56.5 0,-56.5"/>
<text text-anchor="middle" x="70.5" y="-63.5" font-family="Helvetica,sans-Serif" font-size="10.00">IOKit/hid/IOHIDManager.h</text>
</a>
</g>
</g>
<!-- Node1&#45;&gt;Node2 -->
<g id="edge1" class="edge">
<title>Node1&#45;&gt;Node2</title>
<path fill="none" stroke="midnightblue" d="M470.35,-123.95C373.78,-110.19 226.55,-89.23 140.28,-76.94"/>
<polygon fill="midnightblue" stroke="midnightblue" points="140.72,-73.47 130.33,-75.52 139.74,-80.4 140.72,-73.47"/>
</g>
<!-- Node3 -->
<g id="node3" class="node">
<title>Node3</title>
<g id="a_node3"><a xlink:title=" ">
<polygon fill="white" stroke="#bfbfbf" points="159.5,-56.5 159.5,-75.5 281.5,-75.5 281.5,-56.5 159.5,-56.5"/>
<text text-anchor="middle" x="220.5" y="-63.5" font-family="Helvetica,sans-Serif" font-size="10.00">IOKit/hid/IOHIDKeys.h</text>
</a>
</g>
</g>
<!-- Node1&#45;&gt;Node3 -->
<g id="edge2" class="edge">
<title>Node1&#45;&gt;Node3</title>
<path fill="none" stroke="midnightblue" d="M470.31,-118.05C406.37,-104.98 324.54,-88.26 272.31,-77.59"/>
<polygon fill="midnightblue" stroke="midnightblue" points="272.77,-74.11 262.27,-75.54 271.37,-80.97 272.77,-74.11"/>
</g>
<!-- Node4 -->
<g id="node4" class="node">
<title>Node4</title>
<g id="a_node4"><a xlink:title=" ">
<polygon fill="white" stroke="#bfbfbf" points="299.5,-56.5 299.5,-75.5 481.5,-75.5 481.5,-56.5 299.5,-56.5"/>
<text text-anchor="middle" x="390.5" y="-63.5" font-family="Helvetica,sans-Serif" font-size="10.00">CoreFoundation/CoreFoundation.h</text>
</a>
</g>
</g>
<!-- Node1&#45;&gt;Node4 -->
<g id="edge3" class="edge">
<title>Node1&#45;&gt;Node4</title>
<path fill="none" stroke="midnightblue" d="M503.31,-112.45C475.41,-101.21 443.76,-88.45 421.09,-79.33"/>
<polygon fill="midnightblue" stroke="midnightblue" points="422.25,-76.02 411.67,-75.53 419.63,-82.51 422.25,-76.02"/>
</g>
<!-- Node5 -->
<g id="node5" class="node">
<title>Node5</title>
<g id="a_node5"><a xlink:title=" ">
<polygon fill="white" stroke="#bfbfbf" points="667.5,-0.5 667.5,-19.5 721.5,-19.5 721.5,-0.5 667.5,-0.5"/>
<text text-anchor="middle" x="694.5" y="-7.5" font-family="Helvetica,sans-Serif" font-size="10.00">wchar.h</text>
</a>
</g>
</g>
<!-- Node1&#45;&gt;Node5 -->
<g id="edge4" class="edge">
<title>Node1&#45;&gt;Node5</title>
<path fill="none" stroke="midnightblue" d="M541.35,-112.33C528.02,-95.32 516.54,-72.96 529.5,-56 544.93,-35.79 613.57,-22.48 657.31,-15.88"/>
<polygon fill="midnightblue" stroke="midnightblue" points="657.92,-19.33 667.31,-14.43 656.91,-12.41 657.92,-19.33"/>
</g>
<!-- Node6 -->
<g id="node6" class="node">
<title>Node6</title>
<g id="a_node6"><a xlink:title=" ">
<polygon fill="white" stroke="#bfbfbf" points="538,-56.5 538,-75.5 593,-75.5 593,-56.5 538,-56.5"/>
<text text-anchor="middle" x="565.5" y="-63.5" font-family="Helvetica,sans-Serif" font-size="10.00">locale.h</text>
</a>
</g>
</g>
<!-- Node1&#45;&gt;Node6 -->
<g id="edge5" class="edge">
<title>Node1&#45;&gt;Node6</title>
<path fill="none" stroke="midnightblue" d="M565.5,-112.45C565.5,-103.73 565.5,-94.1 565.5,-85.96"/>
<polygon fill="midnightblue" stroke="midnightblue" points="569,-85.7 565.5,-75.7 562,-85.7 569,-85.7"/>
</g>
<!-- Node7 -->
<g id="node7" class="node">
<title>Node7</title>
<g id="a_node7"><a xlink:title=" ">
<polygon fill="white" stroke="#bfbfbf" points="611,-56.5 611,-75.5 674,-75.5 674,-56.5 611,-56.5"/>
<text text-anchor="middle" x="642.5" y="-63.5" font-family="Helvetica,sans-Serif" font-size="10.00">pthread.h</text>
</a>
</g>
</g>
<!-- Node1&#45;&gt;Node7 -->
<g id="edge6" class="edge">
<title>Node1&#45;&gt;Node7</title>
<path fill="none" stroke="midnightblue" d="M592.86,-112.45C603.7,-102.53 615.82,-91.43 625.37,-82.69"/>
<polygon fill="midnightblue" stroke="midnightblue" points="627.99,-85.03 633,-75.7 623.26,-79.87 627.99,-85.03"/>
</g>
<!-- Node8 -->
<g id="node8" class="node">
<title>Node8</title>
<g id="a_node8"><a xlink:title=" ">
<polygon fill="white" stroke="#bfbfbf" points="692.5,-56.5 692.5,-75.5 760.5,-75.5 760.5,-56.5 692.5,-56.5"/>
<text text-anchor="middle" x="726.5" y="-63.5" font-family="Helvetica,sans-Serif" font-size="10.00">sys/time.h</text>
</a>
</g>
</g>
<!-- Node1&#45;&gt;Node8 -->
<g id="edge7" class="edge">
<title>Node1&#45;&gt;Node8</title>
<path fill="none" stroke="midnightblue" d="M622.72,-112.45C648.15,-101.31 676.98,-88.68 697.79,-79.57"/>
<polygon fill="midnightblue" stroke="midnightblue" points="699.27,-82.74 707.03,-75.53 696.46,-76.33 699.27,-82.74"/>
</g>
<!-- Node9 -->
<g id="node9" class="node">
<title>Node9</title>
<g id="a_node9"><a xlink:title=" ">
<polygon fill="white" stroke="#bfbfbf" points="778.5,-56.5 778.5,-75.5 834.5,-75.5 834.5,-56.5 778.5,-56.5"/>
<text text-anchor="middle" x="806.5" y="-63.5" font-family="Helvetica,sans-Serif" font-size="10.00">unistd.h</text>
</a>
</g>
</g>
<!-- Node1&#45;&gt;Node9 -->
<g id="edge8" class="edge">
<title>Node1&#45;&gt;Node9</title>
<path fill="none" stroke="midnightblue" d="M651.15,-112.45C691.43,-100.66 737.41,-87.21 768.83,-78.02"/>
<polygon fill="midnightblue" stroke="midnightblue" points="769.87,-81.36 778.49,-75.19 767.91,-74.64 769.87,-81.36"/>
</g>
<!-- Node10 -->
<g id="node10" class="node">
<title>Node10</title>
<g id="a_node10"><a xlink:href="pokeysHal_2hidapi_8h.html" target="_top" xlink:title=" ">
<polygon fill="white" stroke="black" points="852.5,-56.5 852.5,-75.5 908.5,-75.5 908.5,-56.5 852.5,-56.5"/>
<text text-anchor="middle" x="880.5" y="-63.5" font-family="Helvetica,sans-Serif" font-size="10.00">hidapi.h</text>
</a>
</g>
</g>
<!-- Node1&#45;&gt;Node10 -->
<g id="edge9" class="edge">
<title>Node1&#45;&gt;Node10</title>
<path fill="none" stroke="midnightblue" d="M660.5,-117C711.75,-105.82 776.33,-91.53 842.46,-76.21"/>
<polygon fill="midnightblue" stroke="midnightblue" points="843.28,-79.61 852.23,-73.94 841.7,-72.79 843.28,-79.61"/>
</g>
<!-- Node10&#45;&gt;Node5 -->
<g id="edge10" class="edge">
<title>Node10&#45;&gt;Node5</title>
<path fill="none" stroke="midnightblue" d="M852.25,-56.8C819.97,-47.43 767.03,-32.06 731.48,-21.74"/>
<polygon fill="midnightblue" stroke="midnightblue" points="732.08,-18.27 721.5,-18.84 730.13,-24.99 732.08,-18.27"/>
</g>
</g>
</svg>
        <g id="navigator" transform="translate(0 0)" fill="#404254">
                <rect fill="#f2f5e9" fill-opacity="0.5" stroke="#606060" stroke-width=".5" x="0" y="0" width="60" height="60"/>
                <use id="zoomplus" xlink:href="#zoomPlus" x="17" y="9" onmousedown="handleZoom(evt,'in')"/>
                <use id="zoomminus" xlink:href="#zoomMin" x="42" y="9" onmousedown="handleZoom(evt,'out')"/>
                <use id="reset" xlink:href="#resetDef" x="30" y="36" onmousedown="handleReset()"/>
                <g id="arrowUp" xlink:href="#dirArrow" transform="translate(30 24)" onmousedown="handlePan(0,-1)">
                  <use xlink:href="#rim" fill="#404040">
                        <set attributeName="fill" to="#808080" begin="arrowUp.mouseover" end="arrowUp.mouseout"/>
                  </use>
                  <path fill="none" stroke="white" stroke-width="1.5" d="M0,-3.0v7 M-2.5,-0.5L0,-3.0L2.5,-0.5"/>
                </g>
                <g id="arrowRight" xlink:href="#dirArrow" transform="rotate(90) translate(36 -43)" onmousedown="handlePan(1,0)">
                  <use xlink:href="#rim" fill="#404040">
                        <set attributeName="fill" to="#808080" begin="arrowRight.mouseover" end="arrowRight.mouseout"/>
                  </use>
                  <path fill="none" stroke="white" stroke-width="1.5" d="M0,-3.0v7 M-2.5,-0.5L0,-3.0L2.5,-0.5"/>
                </g>
                <g id="arrowDown" xlink:href="#dirArrow" transform="rotate(180) translate(-30 -48)" onmousedown="handlePan(0,1)">
                  <use xlink:href="#rim" fill="#404040">
                        <set attributeName="fill" to="#808080" begin="arrowDown.mouseover" end="arrowDown.mouseout"/>
                  </use>
                  <path fill="none" stroke="white" stroke-width="1.5" d="M0,-3.0v7 M-2.5,-0.5L0,-3.0L2.5,-0.5"/>
                </g>
                <g id="arrowLeft" xlink:href="#dirArrow" transform="rotate(270) translate(-36 17)" onmousedown="handlePan(-1,0)">
                  <use xlink:href="#rim" fill="#404040">
                        <set attributeName="fill" to="#808080" begin="arrowLeft.mouseover" end="arrowLeft.mouseout"/>
                  </use>
                  <path fill="none" stroke="white" stroke-width="1.5" d="M0,-3.0v7 M-2.5,-0.5L0,-3.0L2.5,-0.5"/>
                </g>
        </g>
        <svg viewBox="0 0 15 15" width="100%" height="30px" preserveAspectRatio="xMaxYMin meet">
         <g id="arrow_out" transform="scale(0.3 0.3)">
          <a xlink:href="pokeysHal_2hid-mac_8c__incl_org.svg" target="_base">
           <rect id="button" ry="5" rx="5" y="6" x="6" height="38" width="38"
                fill="#f2f5e9" fill-opacity="0.5" stroke="#606060" stroke-width="1.0"/>
           <path id="arrow"
             d="M 11.500037,31.436501 C 11.940474,20.09759 22.043105,11.32322 32.158766,21.979434 L 37.068811,17.246167 C 37.068811,17.246167 37.088388,32 37.088388,32 L 22.160133,31.978069 C 22.160133,31.978069 26.997745,27.140456 26.997745,27.140456 C 18.528582,18.264221 13.291696,25.230495 11.500037,31.436501 z"
             style="fill:#404040;"/>
          </a>
         </g>
        </svg>
</svg>
