<?xml version="1.0" encoding="UTF-8" standalone="no"?>
<!DOCTYPE svg PUBLIC "-//W3C//DTD SVG 1.1//EN"
 "http://www.w3.org/Graphics/SVG/1.1/DTD/svg11.dtd">
<!-- Generated by graphviz version 2.43.0 (0)
 -->
<!-- Title: PK_PEv2_StatusGet Pages: 1 -->
<svg width="574pt" height="132pt"
 viewBox="0.00 0.00 574.00 132.00" xmlns="http://www.w3.org/2000/svg" xmlns:xlink="http://www.w3.org/1999/xlink">
<g id="graph0" class="graph" transform="scale(1 1) rotate(0) translate(4 128)">
<title>PK_PEv2_StatusGet</title>
<polygon fill="white" stroke="transparent" points="-4,4 -4,-128 570,-128 570,4 -4,4"/>
<!-- Node1 -->
<g id="node1" class="node">
<title>Node1</title>
<g id="a_node1"><a xlink:title="Retrieve pulse engine status.">
<polygon fill="#bfbfbf" stroke="black" points="454,-55 454,-74 566,-74 566,-55 454,-55"/>
<text text-anchor="middle" x="510" y="-62" font-family="Helvetica,sans-Serif" font-size="10.00">PK_PEv2_StatusGet</text>
</a>
</g>
</g>
<!-- Node2 -->
<g id="node2" class="node">
<title>Node2</title>
<g id="a_node2"><a xlink:href="group__hal__component__pokeys.html#ga1cd78f86e93af262648c35386373cf3c" target="_top" xlink:title="Retrieves and processes the current status of the PoKeys Pulse Engine v2 (PEv2).">
<polygon fill="white" stroke="black" points="307,-99 307,-118 401,-118 401,-99 307,-99"/>
<text text-anchor="middle" x="354" y="-106" font-family="Helvetica,sans-Serif" font-size="10.00">PEv2_StatusGet</text>
</a>
</g>
</g>
<!-- Node1&#45;&gt;Node2 -->
<g id="edge1" class="edge">
<title>Node1&#45;&gt;Node2</title>
<path fill="none" stroke="midnightblue" d="M465.81,-76.84C441.28,-83.85 411.04,-92.49 388.35,-98.97"/>
<polygon fill="midnightblue" stroke="midnightblue" points="466.93,-80.16 475.58,-74.05 465.01,-73.43 466.93,-80.16"/>
</g>
<!-- Node5 -->
<g id="node5" class="node">
<title>Node5</title>
<g id="a_node5"><a xlink:href="structPoKeysHALComponent.html#ad94418b2caeac0cbdd7c43ef55f15623" target="_top" xlink:title="Reads configuration parameters for the PoKeys Pulse Engine v2 from the INI file.">
<polygon fill="white" stroke="black" points="290,-49.5 290,-79.5 418,-79.5 418,-49.5 290,-49.5"/>
<text text-anchor="start" x="298" y="-67.5" font-family="Helvetica,sans-Serif" font-size="10.00">PoKeysHALComponent</text>
<text text-anchor="middle" x="354" y="-56.5" font-family="Helvetica,sans-Serif" font-size="10.00">::PKPEv2_ReadIniFile</text>
</a>
</g>
</g>
<!-- Node1&#45;&gt;Node5 -->
<g id="edge4" class="edge">
<title>Node1&#45;&gt;Node5</title>
<path fill="none" stroke="midnightblue" d="M443.66,-64.5C435.21,-64.5 426.57,-64.5 418.16,-64.5"/>
<polygon fill="midnightblue" stroke="midnightblue" points="443.84,-68 453.84,-64.5 443.84,-61 443.84,-68"/>
</g>
<!-- Node7 -->
<g id="node7" class="node">
<title>Node7</title>
<g id="a_node7"><a xlink:href="group__hal__component__pokeys.html#ga1fd300cd610e9545e58b62ffd50e474e" target="_top" xlink:title="Applies INI&#45;based configuration to PulseEngine and IO.">
<polygon fill="white" stroke="black" points="290,-0.5 290,-30.5 418,-30.5 418,-0.5 290,-0.5"/>
<text text-anchor="start" x="298" y="-18.5" font-family="Helvetica,sans-Serif" font-size="10.00">PoKeysHALComponent</text>
<text text-anchor="middle" x="354" y="-7.5" font-family="Helvetica,sans-Serif" font-size="10.00">::PKPEv2_Setup</text>
</a>
</g>
</g>
<!-- Node1&#45;&gt;Node7 -->
<g id="edge6" class="edge">
<title>Node1&#45;&gt;Node7</title>
<path fill="none" stroke="midnightblue" d="M469.3,-51.87C448.83,-45.36 423.72,-37.37 402.26,-30.54"/>
<polygon fill="midnightblue" stroke="midnightblue" points="468.35,-55.24 478.94,-54.94 470.47,-48.57 468.35,-55.24"/>
</g>
<!-- Node3 -->
<g id="node3" class="node">
<title>Node3</title>
<g id="a_node3"><a xlink:href="group__hal__component__pokeys.html#ga11eaeb83988c4e23fca22c07885baf31" target="_top" xlink:title="Updates PulseEngine feedback and status.">
<polygon fill="white" stroke="black" points="126,-93.5 126,-123.5 254,-123.5 254,-93.5 126,-93.5"/>
<text text-anchor="start" x="134" y="-111.5" font-family="Helvetica,sans-Serif" font-size="10.00">PoKeysHALComponent</text>
<text text-anchor="middle" x="190" y="-100.5" font-family="Helvetica,sans-Serif" font-size="10.00">::PKPEv2_Update</text>
</a>
</g>
</g>
<!-- Node2&#45;&gt;Node3 -->
<g id="edge2" class="edge">
<title>Node2&#45;&gt;Node3</title>
<path fill="none" stroke="midnightblue" d="M296.35,-108.5C282.68,-108.5 267.98,-108.5 254.03,-108.5"/>
<polygon fill="midnightblue" stroke="midnightblue" points="296.58,-112 306.58,-108.5 296.58,-105 296.58,-112"/>
</g>
<!-- Node4 -->
<g id="node4" class="node">
<title>Node4</title>
<g id="a_node4"><a xlink:href="pokeys_8c.html#a6e89ee20635570c2e51b81bf26e895cc" target="_top" xlink:title=" ">
<polygon fill="white" stroke="black" points="0,-99 0,-118 90,-118 90,-99 0,-99"/>
<text text-anchor="middle" x="45" y="-106" font-family="Helvetica,sans-Serif" font-size="10.00">pokeys_update</text>
</a>
</g>
</g>
<!-- Node3&#45;&gt;Node4 -->
<g id="edge3" class="edge">
<title>Node3&#45;&gt;Node4</title>
<path fill="none" stroke="midnightblue" d="M115.72,-108.5C107.06,-108.5 98.44,-108.5 90.36,-108.5"/>
<polygon fill="midnightblue" stroke="midnightblue" points="115.86,-112 125.86,-108.5 115.86,-105 115.86,-112"/>
</g>
<!-- Node6 -->
<g id="node6" class="node">
<title>Node6</title>
<g id="a_node6"><a xlink:href="pokeys_8c.html#a1d59e212b57d33fe74e44b64cadf3314" target="_top" xlink:title=" ">
<polygon fill="white" stroke="black" points="142.5,-31 142.5,-50 237.5,-50 237.5,-31 142.5,-31"/>
<text text-anchor="middle" x="190" y="-38" font-family="Helvetica,sans-Serif" font-size="10.00">pokeys_read_ini</text>
</a>
</g>
</g>
<!-- Node5&#45;&gt;Node6 -->
<g id="edge5" class="edge">
<title>Node5&#45;&gt;Node6</title>
<path fill="none" stroke="midnightblue" d="M280.01,-53.69C265.6,-51.55 250.86,-49.37 237.62,-47.41"/>
<polygon fill="midnightblue" stroke="midnightblue" points="279.5,-57.15 289.9,-55.15 280.52,-50.22 279.5,-57.15"/>
</g>
<!-- Node7&#45;&gt;Node6 -->
<g id="edge7" class="edge">
<title>Node7&#45;&gt;Node6</title>
<path fill="none" stroke="midnightblue" d="M280.01,-26.76C265.6,-28.99 250.86,-31.26 237.62,-33.31"/>
<polygon fill="midnightblue" stroke="midnightblue" points="280.55,-30.22 289.9,-25.24 279.49,-23.3 280.55,-30.22"/>
</g>
</g>
</svg>
