<?xml version="1.0" encoding="UTF-8" standalone="no"?>
<!DOCTYPE svg PUBLIC "-//W3C//DTD SVG 1.1//EN"
 "http://www.w3.org/Graphics/SVG/1.1/DTD/svg11.dtd">
<!-- Generated by graphviz version 2.43.0 (0)
 -->
<!-- Title: PK_EncoderConfigurationSetAsync Pages: 1 -->
<svg width="514pt" height="66pt"
 viewBox="0.00 0.00 514.00 66.00" xmlns="http://www.w3.org/2000/svg" xmlns:xlink="http://www.w3.org/1999/xlink">
<g id="graph0" class="graph" transform="scale(1 1) rotate(0) translate(4 62)">
<title>PK_EncoderConfigurationSetAsync</title>
<polygon fill="white" stroke="transparent" points="-4,4 -4,-62 510,-62 510,4 -4,4"/>
<!-- Node1 -->
<g id="node1" class="node">
<title>Node1</title>
<g id="a_node1"><a xlink:title="Asynchronously sets the full PoKeys encoder configuration.">
<polygon fill="#bfbfbf" stroke="black" points="0,-14 0,-44 155,-44 155,-14 0,-14"/>
<text text-anchor="start" x="8" y="-32" font-family="Helvetica,sans-Serif" font-size="10.00">PK_EncoderConfigurationSet</text>
<text text-anchor="middle" x="77.5" y="-21" font-family="Helvetica,sans-Serif" font-size="10.00">Async</text>
</a>
</g>
</g>
<!-- Node2 -->
<g id="node2" class="node">
<title>Node2</title>
<g id="a_node2"><a xlink:href="PoKeysLibAsync_8c.html#ad3d8835baba234e6767172b8574629e5" target="_top" xlink:title="Prepares an asynchronous PoKeys request with optional payload data after header.">
<polygon fill="white" stroke="black" points="191,-19.5 191,-38.5 370,-38.5 370,-19.5 191,-19.5"/>
<text text-anchor="middle" x="280.5" y="-26.5" font-family="Helvetica,sans-Serif" font-size="10.00">CreateRequestAsyncWithPayload</text>
</a>
</g>
</g>
<!-- Node1&#45;&gt;Node2 -->
<g id="edge1" class="edge">
<title>Node1&#45;&gt;Node2</title>
<path fill="none" stroke="midnightblue" d="M155.06,-29C163.44,-29 172.04,-29 180.64,-29"/>
<polygon fill="midnightblue" stroke="midnightblue" points="180.7,-32.5 190.7,-29 180.7,-25.5 180.7,-32.5"/>
</g>
<!-- Node3 -->
<g id="node3" class="node">
<title>Node3</title>
<g id="a_node3"><a xlink:href="PoKeysLibAsync_8c.html#a8e57ea5df5b229f5a1317bf4e4918c1b" target="_top" xlink:title=" ">
<polygon fill="white" stroke="black" points="408.5,-38.5 408.5,-57.5 503.5,-57.5 503.5,-38.5 408.5,-38.5"/>
<text text-anchor="middle" x="456" y="-45.5" font-family="Helvetica,sans-Serif" font-size="10.00">next_request_id</text>
</a>
</g>
</g>
<!-- Node2&#45;&gt;Node3 -->
<g id="edge2" class="edge">
<title>Node2&#45;&gt;Node3</title>
<path fill="none" stroke="midnightblue" d="M368.5,-38.53C378.56,-39.63 388.62,-40.73 398.13,-41.77"/>
<polygon fill="midnightblue" stroke="midnightblue" points="397.88,-45.27 408.2,-42.88 398.65,-38.31 397.88,-45.27"/>
</g>
<!-- Node4 -->
<g id="node4" class="node">
<title>Node4</title>
<g id="a_node4"><a xlink:href="PoKeysLibAsync_8c.html#a0daf7f6eb658a60879d46369307db3f0" target="_top" xlink:title="Allocates a new free transaction.">
<polygon fill="white" stroke="black" points="406,-0.5 406,-19.5 506,-19.5 506,-0.5 406,-0.5"/>
<text text-anchor="middle" x="456" y="-7.5" font-family="Helvetica,sans-Serif" font-size="10.00">transaction_alloc</text>
</a>
</g>
</g>
<!-- Node2&#45;&gt;Node4 -->
<g id="edge3" class="edge">
<title>Node2&#45;&gt;Node4</title>
<path fill="none" stroke="midnightblue" d="M368.5,-19.47C377.74,-18.46 386.97,-17.45 395.79,-16.48"/>
<polygon fill="midnightblue" stroke="midnightblue" points="396.35,-19.94 405.91,-15.38 395.59,-12.99 396.35,-19.94"/>
</g>
</g>
</svg>
