<?xml version="1.0" encoding="UTF-8" standalone="no"?>
<!DOCTYPE svg PUBLIC "-//W3C//DTD SVG 1.1//EN"
 "http://www.w3.org/Graphics/SVG/1.1/DTD/svg11.dtd">
<!-- Generated by graphviz version 2.43.0 (0)
 -->
<!-- Title: PK_ConnectToPoKeysDevice_Ethernet Pages: 1 -->
<svg width="1175pt" height="180pt"
 viewBox="0.00 0.00 1175.00 180.00" xmlns="http://www.w3.org/2000/svg" xmlns:xlink="http://www.w3.org/1999/xlink">
<g id="graph0" class="graph" transform="scale(1 1) rotate(0) translate(4 176)">
<title>PK_ConnectToPoKeysDevice_Ethernet</title>
<polygon fill="white" stroke="transparent" points="-4,4 -4,-176 1171,-176 1171,4 -4,4"/>
<!-- Node1 -->
<g id="node1" class="node">
<title>Node1</title>
<g id="a_node1"><a xlink:title=" ">
<polygon fill="#bfbfbf" stroke="black" points="0,-90 0,-120 154,-120 154,-90 0,-90"/>
<text text-anchor="start" x="8" y="-108" font-family="Helvetica,sans-Serif" font-size="10.00">PK_ConnectToPoKeysDevice</text>
<text text-anchor="middle" x="77" y="-97" font-family="Helvetica,sans-Serif" font-size="10.00">_Ethernet</text>
</a>
</g>
</g>
<!-- Node2 -->
<g id="node2" class="node">
<title>Node2</title>
<g id="a_node2"><a xlink:href="hal_8h.html#a37b839660591a915940fc471bbb5df4f" target="_top" xlink:title=" ">
<polygon fill="white" stroke="black" points="586.5,-152.5 586.5,-171.5 656.5,-171.5 656.5,-152.5 586.5,-152.5"/>
<text text-anchor="middle" x="621.5" y="-159.5" font-family="Helvetica,sans-Serif" font-size="10.00">hal_malloc</text>
</a>
</g>
</g>
<!-- Node1&#45;&gt;Node2 -->
<g id="edge1" class="edge">
<title>Node1&#45;&gt;Node2</title>
<path fill="none" stroke="midnightblue" d="M144.39,-120.04C159.33,-123.04 175.16,-125.9 190,-128 330.02,-147.83 497.42,-156.9 575.84,-160.3"/>
<polygon fill="midnightblue" stroke="midnightblue" points="576.16,-163.81 586.3,-160.74 576.46,-156.82 576.16,-163.81"/>
</g>
<!-- Node3 -->
<g id="node3" class="node">
<title>Node3</title>
<g id="a_node3"><a xlink:href="PoKeysLibCoreAsync_8c.html#ae3a4511713f05f8d9ba2f0250f07957e" target="_top" xlink:title=" ">
<polygon fill="white" stroke="black" points="395.5,-114.5 395.5,-133.5 509.5,-133.5 509.5,-114.5 395.5,-114.5"/>
<text text-anchor="middle" x="452.5" y="-121.5" font-family="Helvetica,sans-Serif" font-size="10.00">InitializeNewDevice</text>
</a>
</g>
</g>
<!-- Node1&#45;&gt;Node3 -->
<g id="edge2" class="edge">
<title>Node1&#45;&gt;Node3</title>
<path fill="none" stroke="midnightblue" d="M154.03,-108.87C221.96,-112.32 320.47,-117.33 385.24,-120.63"/>
<polygon fill="midnightblue" stroke="midnightblue" points="385.17,-124.13 395.33,-121.14 385.52,-117.14 385.17,-124.13"/>
</g>
<!-- Node16 -->
<g id="node16" class="node">
<title>Node16</title>
<g id="a_node16"><a xlink:href="pokeysHal_2PoKeysLibCoreSockets_8c.html#adc6dbd8de4b4df5dbee307b15af90373" target="_top" xlink:title=" ">
<polygon fill="white" stroke="black" points="190,-76.5 190,-95.5 350,-95.5 350,-76.5 190,-76.5"/>
<text text-anchor="middle" x="270" y="-83.5" font-family="Helvetica,sans-Serif" font-size="10.00">PK_ConnectToNetworkDevice</text>
</a>
</g>
</g>
<!-- Node1&#45;&gt;Node16 -->
<g id="edge17" class="edge">
<title>Node1&#45;&gt;Node16</title>
<path fill="none" stroke="midnightblue" d="M154.04,-97.44C162.49,-96.6 171.15,-95.73 179.74,-94.88"/>
<polygon fill="midnightblue" stroke="midnightblue" points="180.18,-98.35 189.78,-93.88 179.48,-91.39 180.18,-98.35"/>
</g>
<!-- Node18 -->
<g id="node18" class="node">
<title>Node18</title>
<g id="a_node18"><a xlink:href="pokeysHal_2PoKeysLibCoreSockets_8c.html#ab7f6406237ef072142feb49760d038c7" target="_top" xlink:title="Broadcasts a discovery request and collects responses from PoKeys devices.">
<polygon fill="white" stroke="black" points="196,-38.5 196,-57.5 344,-57.5 344,-38.5 196,-38.5"/>
<text text-anchor="middle" x="270" y="-45.5" font-family="Helvetica,sans-Serif" font-size="10.00">PK_SearchNetworkDevices</text>
</a>
</g>
</g>
<!-- Node1&#45;&gt;Node18 -->
<g id="edge22" class="edge">
<title>Node1&#45;&gt;Node18</title>
<path fill="none" stroke="midnightblue" d="M119.47,-89.93C140.46,-82.55 166.43,-73.82 190,-67 198.47,-64.55 207.51,-62.17 216.34,-59.96"/>
<polygon fill="midnightblue" stroke="midnightblue" points="217.29,-63.33 226.17,-57.55 215.63,-56.53 217.29,-63.33"/>
</g>
<!-- Node3&#45;&gt;Node2 -->
<g id="edge3" class="edge">
<title>Node3&#45;&gt;Node2</title>
<path fill="none" stroke="midnightblue" d="M495.64,-133.59C520.27,-139.19 551.32,-146.26 576.29,-151.94"/>
<polygon fill="midnightblue" stroke="midnightblue" points="575.71,-155.4 586.24,-154.2 577.26,-148.57 575.71,-155.4"/>
</g>
<!-- Node4 -->
<g id="node4" class="node">
<title>Node4</title>
<g id="a_node4"><a xlink:href="pokeysHal_2PoKeysLibDeviceData_8c.html#a9508e9fcbc964cae1ccdb57f582cb5e1" target="_top" xlink:title="Read device identification and feature set.">
<polygon fill="white" stroke="black" points="567,-38.5 567,-57.5 676,-57.5 676,-38.5 567,-38.5"/>
<text text-anchor="middle" x="621.5" y="-45.5" font-family="Helvetica,sans-Serif" font-size="10.00">PK_DeviceDataGet</text>
</a>
</g>
</g>
<!-- Node3&#45;&gt;Node4 -->
<g id="edge4" class="edge">
<title>Node3&#45;&gt;Node4</title>
<path fill="none" stroke="midnightblue" d="M498.54,-114.39C505.66,-111.91 512.73,-108.82 519,-105 538.87,-92.89 535.13,-79.11 555,-67 558.43,-64.91 562.1,-63.04 565.88,-61.37"/>
<polygon fill="midnightblue" stroke="midnightblue" points="567.43,-64.52 575.46,-57.61 564.88,-58.01 567.43,-64.52"/>
</g>
<!-- Node13 -->
<g id="node13" class="node">
<title>Node13</title>
<g id="a_node13"><a xlink:href="pokeysHal_2PoKeysLibDeviceData_8c.html#ae4798f617a5dd5ebb93c534258cd0eb9" target="_top" xlink:title="Populate PWM pin ID table in the device structure.">
<polygon fill="white" stroke="black" points="555,-76.5 555,-95.5 688,-95.5 688,-76.5 555,-76.5"/>
<text text-anchor="middle" x="621.5" y="-83.5" font-family="Helvetica,sans-Serif" font-size="10.00">PK_FillPWMPinNumbers</text>
</a>
</g>
</g>
<!-- Node3&#45;&gt;Node13 -->
<g id="edge14" class="edge">
<title>Node3&#45;&gt;Node13</title>
<path fill="none" stroke="midnightblue" d="M495.64,-114.41C517.88,-109.35 545.35,-103.1 568.86,-97.75"/>
<polygon fill="midnightblue" stroke="midnightblue" points="569.69,-101.15 578.66,-95.52 568.13,-94.33 569.69,-101.15"/>
</g>
<!-- Node14 -->
<g id="node14" class="node">
<title>Node14</title>
<g id="a_node14"><a xlink:href="pokeysHal_2PoKeysLibIO_8c.html#a4397536c30fe3f56eb74b56210839349" target="_top" xlink:title="Check if a pin supports a counter (command 0xC0/0x01).">
<polygon fill="white" stroke="black" points="558.5,-114.5 558.5,-133.5 684.5,-133.5 684.5,-114.5 558.5,-114.5"/>
<text text-anchor="middle" x="621.5" y="-121.5" font-family="Helvetica,sans-Serif" font-size="10.00">PK_IsCounterAvailable</text>
</a>
</g>
</g>
<!-- Node3&#45;&gt;Node14 -->
<g id="edge15" class="edge">
<title>Node3&#45;&gt;Node14</title>
<path fill="none" stroke="midnightblue" d="M509.57,-124C521.91,-124 535.15,-124 548.02,-124"/>
<polygon fill="midnightblue" stroke="midnightblue" points="548.25,-127.5 558.25,-124 548.25,-120.5 548.25,-127.5"/>
</g>
<!-- Node5 -->
<g id="node5" class="node">
<title>Node5</title>
<g id="a_node5"><a xlink:href="pokeyslib_2PoKeysLibDeviceData_8c.html#a8fa8788bebd4d9501da88a32620a6be1" target="_top" xlink:title=" ">
<polygon fill="white" stroke="black" points="765.5,-38.5 765.5,-57.5 855.5,-57.5 855.5,-38.5 765.5,-38.5"/>
<text text-anchor="middle" x="810.5" y="-45.5" font-family="Helvetica,sans-Serif" font-size="10.00">CompareName</text>
</a>
</g>
</g>
<!-- Node4&#45;&gt;Node5 -->
<g id="edge5" class="edge">
<title>Node4&#45;&gt;Node5</title>
<path fill="none" stroke="midnightblue" d="M676.09,-48C700.94,-48 730.42,-48 755.35,-48"/>
<polygon fill="midnightblue" stroke="midnightblue" points="755.36,-51.5 765.36,-48 755.36,-44.5 755.36,-51.5"/>
</g>
<!-- Node6 -->
<g id="node6" class="node">
<title>Node6</title>
<g id="a_node6"><a xlink:href="pokeyslib_2PoKeysLibCore_8c.html#acb1fdd8f77277dc66c4d037218bfcece" target="_top" xlink:title=" ">
<polygon fill="white" stroke="black" points="766,-0.5 766,-19.5 855,-19.5 855,-0.5 766,-0.5"/>
<text text-anchor="middle" x="810.5" y="-7.5" font-family="Helvetica,sans-Serif" font-size="10.00">CreateRequest</text>
</a>
</g>
</g>
<!-- Node4&#45;&gt;Node6 -->
<g id="edge6" class="edge">
<title>Node4&#45;&gt;Node6</title>
<path fill="none" stroke="midnightblue" d="M669.69,-38.41C695.88,-33.09 728.56,-26.45 755.73,-20.93"/>
<polygon fill="midnightblue" stroke="midnightblue" points="756.75,-24.29 765.86,-18.87 755.36,-17.43 756.75,-24.29"/>
</g>
<!-- Node7 -->
<g id="node7" class="node">
<title>Node7</title>
<g id="a_node7"><a xlink:href="pokeyslib_2PoKeysLibCore_8c.html#ab5d92aa36d0a4a6953a055f5cd960aff" target="_top" xlink:title=" ">
<polygon fill="white" stroke="black" points="770.5,-76.5 770.5,-95.5 850.5,-95.5 850.5,-76.5 770.5,-76.5"/>
<text text-anchor="middle" x="810.5" y="-83.5" font-family="Helvetica,sans-Serif" font-size="10.00">SendRequest</text>
</a>
</g>
</g>
<!-- Node4&#45;&gt;Node7 -->
<g id="edge7" class="edge">
<title>Node4&#45;&gt;Node7</title>
<path fill="none" stroke="midnightblue" d="M669.69,-57.59C697.34,-63.21 732.23,-70.3 760.24,-75.99"/>
<polygon fill="midnightblue" stroke="midnightblue" points="759.72,-79.46 770.22,-78.02 761.12,-72.6 759.72,-79.46"/>
</g>
<!-- Node8 -->
<g id="node8" class="node">
<title>Node8</title>
<g id="a_node8"><a xlink:href="pokeyslib_2PoKeysLibCore_8c.html#a273b6d635dea8f559b915cdb289d021e" target="_top" xlink:title=" ">
<polygon fill="white" stroke="black" points="1074.5,-114.5 1074.5,-133.5 1157.5,-133.5 1157.5,-114.5 1074.5,-114.5"/>
<text text-anchor="middle" x="1116" y="-121.5" font-family="Helvetica,sans-Serif" font-size="10.00">getChecksum</text>
</a>
</g>
</g>
<!-- Node7&#45;&gt;Node8 -->
<g id="edge8" class="edge">
<title>Node7&#45;&gt;Node8</title>
<path fill="none" stroke="midnightblue" d="M850.86,-92.46C865.59,-95.47 882.3,-99.6 897,-105 913.98,-111.24 915.44,-119.65 933,-124 976.31,-134.73 1027.23,-133.62 1064.17,-130.47"/>
<polygon fill="midnightblue" stroke="midnightblue" points="1064.57,-133.95 1074.2,-129.54 1063.92,-126.98 1064.57,-133.95"/>
</g>
<!-- Node9 -->
<g id="node9" class="node">
<title>Node9</title>
<g id="a_node9"><a xlink:href="group__API.html#ga6b820f3e72097cf7f994e33715dc7af1" target="_top" xlink:title="Read an Input report from a HID device.">
<polygon fill="white" stroke="black" points="951.5,-57.5 951.5,-76.5 1010.5,-76.5 1010.5,-57.5 951.5,-57.5"/>
<text text-anchor="middle" x="981" y="-64.5" font-family="Helvetica,sans-Serif" font-size="10.00">hid_read</text>
</a>
</g>
</g>
<!-- Node7&#45;&gt;Node9 -->
<g id="edge9" class="edge">
<title>Node7&#45;&gt;Node9</title>
<path fill="none" stroke="midnightblue" d="M850.58,-81.59C877.91,-78.51 914.24,-74.42 941.45,-71.35"/>
<polygon fill="midnightblue" stroke="midnightblue" points="941.85,-74.82 951.39,-70.23 941.06,-67.87 941.85,-74.82"/>
</g>
<!-- Node11 -->
<g id="node11" class="node">
<title>Node11</title>
<g id="a_node11"><a xlink:href="group__API.html#gad14ea48e440cf5066df87cc6488493af" target="_top" xlink:title="Write an Output report to a HID device.">
<polygon fill="white" stroke="black" points="950,-19.5 950,-38.5 1012,-38.5 1012,-19.5 950,-19.5"/>
<text text-anchor="middle" x="981" y="-26.5" font-family="Helvetica,sans-Serif" font-size="10.00">hid_write</text>
</a>
</g>
</g>
<!-- Node7&#45;&gt;Node11 -->
<g id="edge11" class="edge">
<title>Node7&#45;&gt;Node11</title>
<path fill="none" stroke="midnightblue" d="M850.86,-79.54C865.59,-76.53 882.3,-72.4 897,-67 913.98,-60.76 916.59,-55.62 933,-48 937.06,-46.11 941.36,-44.23 945.65,-42.41"/>
<polygon fill="midnightblue" stroke="midnightblue" points="947.01,-45.64 954.92,-38.59 944.34,-39.17 947.01,-45.64"/>
</g>
<!-- Node12 -->
<g id="node12" class="node">
<title>Node12</title>
<g id="a_node12"><a xlink:href="pokeyslib_2PoKeysLibCoreSockets_8c.html#a22759fb4024c9081af26ac1bc6541b47" target="_top" xlink:title=" ">
<polygon fill="white" stroke="black" points="933,-95.5 933,-114.5 1029,-114.5 1029,-95.5 933,-95.5"/>
<text text-anchor="middle" x="981" y="-102.5" font-family="Helvetica,sans-Serif" font-size="10.00">SendEthRequest</text>
</a>
</g>
</g>
<!-- Node7&#45;&gt;Node12 -->
<g id="edge12" class="edge">
<title>Node7&#45;&gt;Node12</title>
<path fill="none" stroke="midnightblue" d="M850.58,-90.41C872.02,-92.82 898.99,-95.87 922.76,-98.55"/>
<polygon fill="midnightblue" stroke="midnightblue" points="922.4,-102.03 932.73,-99.67 923.18,-95.07 922.4,-102.03"/>
</g>
<!-- Node10 -->
<g id="node10" class="node">
<title>Node10</title>
<g id="a_node10"><a xlink:href="group__API.html#gaa5c9ed5aa290688ffac03343989ad75a" target="_top" xlink:title="Read an Input report from a HID device with timeout.">
<polygon fill="white" stroke="black" points="1065,-57.5 1065,-76.5 1167,-76.5 1167,-57.5 1065,-57.5"/>
<text text-anchor="middle" x="1116" y="-64.5" font-family="Helvetica,sans-Serif" font-size="10.00">hid_read_timeout</text>
</a>
</g>
</g>
<!-- Node9&#45;&gt;Node10 -->
<g id="edge10" class="edge">
<title>Node9&#45;&gt;Node10</title>
<path fill="none" stroke="midnightblue" d="M1010.53,-67C1023.49,-67 1039.35,-67 1054.75,-67"/>
<polygon fill="midnightblue" stroke="midnightblue" points="1054.77,-70.5 1064.77,-67 1054.77,-63.5 1054.77,-70.5"/>
</g>
<!-- Node12&#45;&gt;Node8 -->
<g id="edge13" class="edge">
<title>Node12&#45;&gt;Node8</title>
<path fill="none" stroke="midnightblue" d="M1029.27,-111.75C1040.7,-113.39 1052.96,-115.14 1064.54,-116.79"/>
<polygon fill="midnightblue" stroke="midnightblue" points="1064.1,-120.26 1074.49,-118.21 1065.09,-113.33 1064.1,-120.26"/>
</g>
<!-- Node15 -->
<g id="node15" class="node">
<title>Node15</title>
<g id="a_node15"><a xlink:href="pokeyslib_2PoKeysLibIO_8c.html#ae7007ad0d96ba1ff2fadba2101016ce7" target="_top" xlink:title=" ">
<polygon fill="white" stroke="black" points="724,-114.5 724,-133.5 897,-133.5 897,-114.5 724,-114.5"/>
<text text-anchor="middle" x="810.5" y="-121.5" font-family="Helvetica,sans-Serif" font-size="10.00">PK_IsCounterAvailableByDevice</text>
</a>
</g>
</g>
<!-- Node14&#45;&gt;Node15 -->
<g id="edge16" class="edge">
<title>Node14&#45;&gt;Node15</title>
<path fill="none" stroke="midnightblue" d="M684.51,-124C694,-124 703.98,-124 713.99,-124"/>
<polygon fill="midnightblue" stroke="midnightblue" points="713.99,-127.5 723.99,-124 713.99,-120.5 713.99,-127.5"/>
</g>
<!-- Node17 -->
<g id="node17" class="node">
<title>Node17</title>
<g id="a_node17"><a xlink:href="pokeyslib_2PoKeysLibCore_8c.html#ae3a4511713f05f8d9ba2f0250f07957e" target="_top" xlink:title=" ">
<polygon fill="white" stroke="black" points="395.5,-76.5 395.5,-95.5 509.5,-95.5 509.5,-76.5 395.5,-76.5"/>
<text text-anchor="middle" x="452.5" y="-83.5" font-family="Helvetica,sans-Serif" font-size="10.00">InitializeNewDevice</text>
</a>
</g>
</g>
<!-- Node16&#45;&gt;Node17 -->
<g id="edge18" class="edge">
<title>Node16&#45;&gt;Node17</title>
<path fill="none" stroke="midnightblue" d="M350.17,-86C361.85,-86 373.77,-86 385.15,-86"/>
<polygon fill="midnightblue" stroke="midnightblue" points="385.43,-89.5 395.43,-86 385.43,-82.5 385.43,-89.5"/>
</g>
<!-- Node17&#45;&gt;Node4 -->
<g id="edge19" class="edge">
<title>Node17&#45;&gt;Node4</title>
<path fill="none" stroke="midnightblue" d="M495.64,-76.41C517.88,-71.35 545.35,-65.1 568.86,-59.75"/>
<polygon fill="midnightblue" stroke="midnightblue" points="569.69,-63.15 578.66,-57.52 568.13,-56.33 569.69,-63.15"/>
</g>
<!-- Node17&#45;&gt;Node13 -->
<g id="edge20" class="edge">
<title>Node17&#45;&gt;Node13</title>
<path fill="none" stroke="midnightblue" d="M509.57,-86C520.79,-86 532.74,-86 544.5,-86"/>
<polygon fill="midnightblue" stroke="midnightblue" points="544.75,-89.5 554.75,-86 544.75,-82.5 544.75,-89.5"/>
</g>
<!-- Node17&#45;&gt;Node14 -->
<g id="edge21" class="edge">
<title>Node17&#45;&gt;Node14</title>
<path fill="none" stroke="midnightblue" d="M495.64,-95.59C517.88,-100.65 545.35,-106.9 568.86,-112.25"/>
<polygon fill="midnightblue" stroke="midnightblue" points="568.13,-115.67 578.66,-114.48 569.69,-108.85 568.13,-115.67"/>
</g>
<!-- Node19 -->
<g id="node19" class="node">
<title>Node19</title>
<g id="a_node19"><a xlink:href="pokeyslib_2PoKeysLibCoreSockets_8c.html#a4349c2ab43b65eb5448bfd273c899086" target="_top" xlink:title=" ">
<polygon fill="white" stroke="black" points="386,-38.5 386,-57.5 519,-57.5 519,-38.5 386,-38.5"/>
<text text-anchor="middle" x="452.5" y="-45.5" font-family="Helvetica,sans-Serif" font-size="10.00">GetBroadcastAddresses</text>
</a>
</g>
</g>
<!-- Node18&#45;&gt;Node19 -->
<g id="edge23" class="edge">
<title>Node18&#45;&gt;Node19</title>
<path fill="none" stroke="midnightblue" d="M344.16,-48C354.49,-48 365.13,-48 375.52,-48"/>
<polygon fill="midnightblue" stroke="midnightblue" points="375.8,-51.5 385.8,-48 375.8,-44.5 375.8,-51.5"/>
</g>
</g>
</svg>
