<?xml version="1.0" encoding="UTF-8" standalone="no"?>
<!DOCTYPE svg PUBLIC "-//W3C//DTD SVG 1.1//EN"
 "http://www.w3.org/Graphics/SVG/1.1/DTD/svg11.dtd">
<!-- Generated by graphviz version 2.43.0 (0)
 -->
<!-- Title: PK_PEv2_AdditionalParametersGet Pages: 1 -->
<svg width="562pt" height="66pt"
 viewBox="0.00 0.00 562.00 66.00" xmlns="http://www.w3.org/2000/svg" xmlns:xlink="http://www.w3.org/1999/xlink">
<g id="graph0" class="graph" transform="scale(1 1) rotate(0) translate(4 62)">
<title>PK_PEv2_AdditionalParametersGet</title>
<polygon fill="white" stroke="transparent" points="-4,4 -4,-62 558,-62 558,4 -4,4"/>
<!-- Node1 -->
<g id="node1" class="node">
<title>Node1</title>
<g id="a_node1"><a xlink:title=" ">
<polygon fill="#bfbfbf" stroke="black" points="368,-19.5 368,-38.5 554,-38.5 554,-19.5 368,-19.5"/>
<text text-anchor="middle" x="461" y="-26.5" font-family="Helvetica,sans-Serif" font-size="10.00">PK_PEv2_AdditionalParametersGet</text>
</a>
</g>
</g>
<!-- Node2 -->
<g id="node2" class="node">
<title>Node2</title>
<g id="a_node2"><a xlink:href="group__hal__component__pokeys.html#gabf985299322e7850c8f962e6c1174103" target="_top" xlink:title="Reads additional Pulse Engine v2 parameters from the PoKeys device.">
<polygon fill="white" stroke="black" points="164,-38.5 164,-57.5 332,-57.5 332,-38.5 164,-38.5"/>
<text text-anchor="middle" x="248" y="-45.5" font-family="Helvetica,sans-Serif" font-size="10.00">PEv2_AdditionalParametersGet</text>
</a>
</g>
</g>
<!-- Node1&#45;&gt;Node2 -->
<g id="edge1" class="edge">
<title>Node1&#45;&gt;Node2</title>
<path fill="none" stroke="midnightblue" d="M357.71,-38.21C349.12,-38.98 340.51,-39.76 332.09,-40.52"/>
<polygon fill="midnightblue" stroke="midnightblue" points="358.11,-41.69 367.76,-37.31 357.49,-34.72 358.11,-41.69"/>
</g>
<!-- Node4 -->
<g id="node4" class="node">
<title>Node4</title>
<g id="a_node4"><a xlink:href="group__hal__component__pokeys.html#ga03f28595c27000ef997f76c58d387efa" target="_top" xlink:title="Updates and sets additional Pulse Engine v2 parameters, such as the emergency input pin.">
<polygon fill="white" stroke="black" points="164.5,-0.5 164.5,-19.5 331.5,-19.5 331.5,-0.5 164.5,-0.5"/>
<text text-anchor="middle" x="248" y="-7.5" font-family="Helvetica,sans-Serif" font-size="10.00">PEv2_AdditionalParametersSet</text>
</a>
</g>
</g>
<!-- Node1&#45;&gt;Node4 -->
<g id="edge3" class="edge">
<title>Node1&#45;&gt;Node4</title>
<path fill="none" stroke="midnightblue" d="M357.61,-19.78C348.95,-19 340.25,-18.22 331.77,-17.45"/>
<polygon fill="midnightblue" stroke="midnightblue" points="357.49,-23.28 367.76,-20.69 358.11,-16.31 357.49,-23.28"/>
</g>
<!-- Node3 -->
<g id="node3" class="node">
<title>Node3</title>
<g id="a_node3"><a xlink:href="group__hal__component__pokeys.html#ga1fd300cd610e9545e58b62ffd50e474e" target="_top" xlink:title="Applies INI&#45;based configuration to PulseEngine and IO.">
<polygon fill="white" stroke="black" points="0,-14 0,-44 128,-44 128,-14 0,-14"/>
<text text-anchor="start" x="8" y="-32" font-family="Helvetica,sans-Serif" font-size="10.00">PoKeysHALComponent</text>
<text text-anchor="middle" x="64" y="-21" font-family="Helvetica,sans-Serif" font-size="10.00">::PKPEv2_Setup</text>
</a>
</g>
</g>
<!-- Node2&#45;&gt;Node3 -->
<g id="edge2" class="edge">
<title>Node2&#45;&gt;Node3</title>
<path fill="none" stroke="midnightblue" d="M153.76,-38.27C145.04,-37.36 136.35,-36.45 128,-35.58"/>
<polygon fill="midnightblue" stroke="midnightblue" points="153.68,-41.78 163.99,-39.33 154.41,-34.81 153.68,-41.78"/>
</g>
<!-- Node4&#45;&gt;Node3 -->
<g id="edge4" class="edge">
<title>Node4&#45;&gt;Node3</title>
<path fill="none" stroke="midnightblue" d="M154.29,-19.68C145.46,-20.6 136.65,-21.52 128.19,-22.4"/>
<polygon fill="midnightblue" stroke="midnightblue" points="154.67,-23.16 164.25,-18.64 153.95,-16.2 154.67,-23.16"/>
</g>
</g>
</svg>
