<?xml version="1.0" encoding="UTF-8" standalone="no"?>
<!DOCTYPE svg PUBLIC "-//W3C//DTD SVG 1.1//EN"
 "http://www.w3.org/Graphics/SVG/1.1/DTD/svg11.dtd">
<!-- Generated by graphviz version 2.43.0 (0)
 -->
<!-- Title: PK_PoILSetDebugMode Pages: 1 -->
<svg width="597pt" height="161pt"
 viewBox="0.00 0.00 597.00 161.00" xmlns="http://www.w3.org/2000/svg" xmlns:xlink="http://www.w3.org/1999/xlink">
<g id="graph0" class="graph" transform="scale(1 1) rotate(0) translate(4 157)">
<title>PK_PoILSetDebugMode</title>
<polygon fill="white" stroke="transparent" points="-4,4 -4,-157 593,-157 593,4 -4,4"/>
<!-- Node1 -->
<g id="node1" class="node">
<title>Node1</title>
<g id="a_node1"><a xlink:title=" ">
<polygon fill="#bfbfbf" stroke="black" points="0,-95.5 0,-114.5 129,-114.5 129,-95.5 0,-95.5"/>
<text text-anchor="middle" x="64.5" y="-102.5" font-family="Helvetica,sans-Serif" font-size="10.00">PK_PoILSetDebugMode</text>
</a>
</g>
</g>
<!-- Node2 -->
<g id="node2" class="node">
<title>Node2</title>
<g id="a_node2"><a xlink:href="pokeyslib_2PoKeysLibCore_8c.html#acb1fdd8f77277dc66c4d037218bfcece" target="_top" xlink:title=" ">
<polygon fill="white" stroke="black" points="197.5,-133.5 197.5,-152.5 286.5,-152.5 286.5,-133.5 197.5,-133.5"/>
<text text-anchor="middle" x="242" y="-140.5" font-family="Helvetica,sans-Serif" font-size="10.00">CreateRequest</text>
</a>
</g>
</g>
<!-- Node1&#45;&gt;Node2 -->
<g id="edge1" class="edge">
<title>Node1&#45;&gt;Node2</title>
<path fill="none" stroke="midnightblue" d="M109.79,-114.59C133.35,-119.69 162.5,-126 187.34,-131.38"/>
<polygon fill="midnightblue" stroke="midnightblue" points="186.82,-134.85 197.34,-133.55 188.3,-128.01 186.82,-134.85"/>
</g>
<!-- Node3 -->
<g id="node3" class="node">
<title>Node3</title>
<g id="a_node3"><a xlink:href="pokeyslib_2PoKeysLibPoIL_8c.html#ae029541616c99eb75d662954239371eb" target="_top" xlink:title=" ">
<polygon fill="white" stroke="black" points="165,-95.5 165,-114.5 319,-114.5 319,-95.5 165,-95.5"/>
<text text-anchor="middle" x="242" y="-102.5" font-family="Helvetica,sans-Serif" font-size="10.00">PK_ParsePoILStateResponse</text>
</a>
</g>
</g>
<!-- Node1&#45;&gt;Node3 -->
<g id="edge2" class="edge">
<title>Node1&#45;&gt;Node3</title>
<path fill="none" stroke="midnightblue" d="M129.36,-105C137.67,-105 146.29,-105 154.89,-105"/>
<polygon fill="midnightblue" stroke="midnightblue" points="154.96,-108.5 164.96,-105 154.96,-101.5 154.96,-108.5"/>
</g>
<!-- Node4 -->
<g id="node4" class="node">
<title>Node4</title>
<g id="a_node4"><a xlink:href="pokeyslib_2PoKeysLibCore_8c.html#ab5d92aa36d0a4a6953a055f5cd960aff" target="_top" xlink:title=" ">
<polygon fill="white" stroke="black" points="202,-57.5 202,-76.5 282,-76.5 282,-57.5 202,-57.5"/>
<text text-anchor="middle" x="242" y="-64.5" font-family="Helvetica,sans-Serif" font-size="10.00">SendRequest</text>
</a>
</g>
</g>
<!-- Node1&#45;&gt;Node4 -->
<g id="edge3" class="edge">
<title>Node1&#45;&gt;Node4</title>
<path fill="none" stroke="midnightblue" d="M109.79,-95.41C134.8,-90 166.11,-83.22 191.87,-77.64"/>
<polygon fill="midnightblue" stroke="midnightblue" points="192.78,-81.02 201.81,-75.49 191.3,-74.18 192.78,-81.02"/>
</g>
<!-- Node5 -->
<g id="node5" class="node">
<title>Node5</title>
<g id="a_node5"><a xlink:href="pokeyslib_2PoKeysLibCore_8c.html#a273b6d635dea8f559b915cdb289d021e" target="_top" xlink:title=" ">
<polygon fill="white" stroke="black" points="496.5,-38.5 496.5,-57.5 579.5,-57.5 579.5,-38.5 496.5,-38.5"/>
<text text-anchor="middle" x="538" y="-45.5" font-family="Helvetica,sans-Serif" font-size="10.00">getChecksum</text>
</a>
</g>
</g>
<!-- Node4&#45;&gt;Node5 -->
<g id="edge4" class="edge">
<title>Node4&#45;&gt;Node5</title>
<path fill="none" stroke="midnightblue" d="M282.24,-69.53C324.16,-71.64 392.49,-73.39 451,-67 464.57,-65.52 479.13,-62.76 492.34,-59.8"/>
<polygon fill="midnightblue" stroke="midnightblue" points="493.2,-63.19 502.14,-57.51 491.61,-56.37 493.2,-63.19"/>
</g>
<!-- Node6 -->
<g id="node6" class="node">
<title>Node6</title>
<g id="a_node6"><a xlink:href="group__API.html#ga6b820f3e72097cf7f994e33715dc7af1" target="_top" xlink:title="Read an Input report from a HID device.">
<polygon fill="white" stroke="black" points="373.5,-114.5 373.5,-133.5 432.5,-133.5 432.5,-114.5 373.5,-114.5"/>
<text text-anchor="middle" x="403" y="-121.5" font-family="Helvetica,sans-Serif" font-size="10.00">hid_read</text>
</a>
</g>
</g>
<!-- Node4&#45;&gt;Node6 -->
<g id="edge5" class="edge">
<title>Node4&#45;&gt;Node6</title>
<path fill="none" stroke="midnightblue" d="M282.07,-75.31C294.06,-78.24 307.19,-81.86 319,-86 337.95,-92.64 358.47,-102.02 374.37,-109.79"/>
<polygon fill="midnightblue" stroke="midnightblue" points="373.1,-113.07 383.62,-114.39 376.22,-106.81 373.1,-113.07"/>
</g>
<!-- Node8 -->
<g id="node8" class="node">
<title>Node8</title>
<g id="a_node8"><a xlink:href="group__API.html#gad14ea48e440cf5066df87cc6488493af" target="_top" xlink:title="Write an Output report to a HID device.">
<polygon fill="white" stroke="black" points="372,-38.5 372,-57.5 434,-57.5 434,-38.5 372,-38.5"/>
<text text-anchor="middle" x="403" y="-45.5" font-family="Helvetica,sans-Serif" font-size="10.00">hid_write</text>
</a>
</g>
</g>
<!-- Node4&#45;&gt;Node8 -->
<g id="edge7" class="edge">
<title>Node4&#45;&gt;Node8</title>
<path fill="none" stroke="midnightblue" d="M282.3,-62.3C306.52,-59.41 337.5,-55.71 361.87,-52.8"/>
<polygon fill="midnightblue" stroke="midnightblue" points="362.36,-56.26 371.87,-51.6 361.53,-49.31 362.36,-56.26"/>
</g>
<!-- Node9 -->
<g id="node9" class="node">
<title>Node9</title>
<g id="a_node9"><a xlink:href="pokeyslib_2PoKeysLibCoreSockets_8c.html#a22759fb4024c9081af26ac1bc6541b47" target="_top" xlink:title=" ">
<polygon fill="white" stroke="black" points="355,-0.5 355,-19.5 451,-19.5 451,-0.5 355,-0.5"/>
<text text-anchor="middle" x="403" y="-7.5" font-family="Helvetica,sans-Serif" font-size="10.00">SendEthRequest</text>
</a>
</g>
</g>
<!-- Node4&#45;&gt;Node9 -->
<g id="edge8" class="edge">
<title>Node4&#45;&gt;Node9</title>
<path fill="none" stroke="midnightblue" d="M269.61,-57.46C295.98,-48.01 336.56,-33.46 365.84,-22.96"/>
<polygon fill="midnightblue" stroke="midnightblue" points="367.07,-26.24 375.3,-19.57 364.71,-19.65 367.07,-26.24"/>
</g>
<!-- Node7 -->
<g id="node7" class="node">
<title>Node7</title>
<g id="a_node7"><a xlink:href="group__API.html#gaa5c9ed5aa290688ffac03343989ad75a" target="_top" xlink:title="Read an Input report from a HID device with timeout.">
<polygon fill="white" stroke="black" points="487,-114.5 487,-133.5 589,-133.5 589,-114.5 487,-114.5"/>
<text text-anchor="middle" x="538" y="-121.5" font-family="Helvetica,sans-Serif" font-size="10.00">hid_read_timeout</text>
</a>
</g>
</g>
<!-- Node6&#45;&gt;Node7 -->
<g id="edge6" class="edge">
<title>Node6&#45;&gt;Node7</title>
<path fill="none" stroke="midnightblue" d="M432.53,-124C445.49,-124 461.35,-124 476.75,-124"/>
<polygon fill="midnightblue" stroke="midnightblue" points="476.77,-127.5 486.77,-124 476.77,-120.5 476.77,-127.5"/>
</g>
<!-- Node9&#45;&gt;Node5 -->
<g id="edge9" class="edge">
<title>Node9&#45;&gt;Node5</title>
<path fill="none" stroke="midnightblue" d="M437.56,-19.59C454.57,-24.45 475.43,-30.41 493.64,-35.61"/>
<polygon fill="midnightblue" stroke="midnightblue" points="492.87,-39.03 503.45,-38.41 494.8,-32.3 492.87,-39.03"/>
</g>
</g>
</svg>
