<?xml version="1.0" encoding="UTF-8" standalone="no"?>
<!DOCTYPE svg PUBLIC "-//W3C//DTD SVG 1.1//EN"
 "http://www.w3.org/Graphics/SVG/1.1/DTD/svg11.dtd">
<!-- Generated by graphviz version 2.43.0 (0)
 -->
<!-- Title: /home/cnc/actions&#45;runner/_work/LinuxCnc_PokeysLibComp/LinuxCnc_PokeysLibComp/external/pokeysHal/PoKeysLibCoreSocketsAsync.c Pages: 1 -->
<svg width="1033pt" height="341pt"
 viewBox="0.00 0.00 1033.00 341.00" xmlns="http://www.w3.org/2000/svg" xmlns:xlink="http://www.w3.org/1999/xlink">
<g id="graph0" class="graph" transform="scale(1 1) rotate(0) translate(4 337)">
<title>/home/cnc/actions&#45;runner/_work/LinuxCnc_PokeysLibComp/LinuxCnc_PokeysLibComp/external/pokeysHal/PoKeysLibCoreSocketsAsync.c</title>
<polygon fill="white" stroke="transparent" points="-4,4 -4,-337 1029,-337 1029,4 -4,4"/>
<!-- Node1 -->
<g id="node1" class="node">
<title>Node1</title>
<g id="a_node1"><a xlink:title=" ">
<polygon fill="#bfbfbf" stroke="black" points="452.5,-280.5 452.5,-332.5 673.5,-332.5 673.5,-280.5 452.5,-280.5"/>
<text text-anchor="start" x="460.5" y="-320.5" font-family="Helvetica,sans-Serif" font-size="10.00">/home/cnc/actions&#45;runner</text>
<text text-anchor="start" x="460.5" y="-309.5" font-family="Helvetica,sans-Serif" font-size="10.00">/_work/LinuxCnc_PokeysLibComp</text>
<text text-anchor="start" x="460.5" y="-298.5" font-family="Helvetica,sans-Serif" font-size="10.00">/LinuxCnc_PokeysLibComp/external</text>
<text text-anchor="middle" x="563" y="-287.5" font-family="Helvetica,sans-Serif" font-size="10.00">/pokeysHal/PoKeysLibCoreSocketsAsync.c</text>
</a>
</g>
</g>
<!-- Node2 -->
<g id="node2" class="node">
<title>Node2</title>
<g id="a_node2"><a xlink:href="PoKeysLibHal_8h.html" target="_top" xlink:title=" ">
<polygon fill="white" stroke="black" points="138,-168.5 138,-187.5 230,-187.5 230,-168.5 138,-168.5"/>
<text text-anchor="middle" x="184" y="-175.5" font-family="Helvetica,sans-Serif" font-size="10.00">PoKeysLibHal.h</text>
</a>
</g>
</g>
<!-- Node1&#45;&gt;Node2 -->
<g id="edge1" class="edge">
<title>Node1&#45;&gt;Node2</title>
<path fill="none" stroke="midnightblue" d="M452.23,-298.59C320.78,-289.24 116.36,-270.61 93,-244 73.13,-221.36 110.78,-202.28 143.53,-190.77"/>
<polygon fill="midnightblue" stroke="midnightblue" points="144.65,-194.08 153.02,-187.58 142.43,-187.45 144.65,-194.08"/>
</g>
<!-- Node4 -->
<g id="node4" class="node">
<title>Node4</title>
<g id="a_node4"><a xlink:href="hal_8h.html" target="_top" xlink:title=" ">
<polygon fill="white" stroke="black" points="265.5,-112.5 265.5,-131.5 306.5,-131.5 306.5,-112.5 265.5,-112.5"/>
<text text-anchor="middle" x="286" y="-119.5" font-family="Helvetica,sans-Serif" font-size="10.00">hal.h</text>
</a>
</g>
</g>
<!-- Node1&#45;&gt;Node4 -->
<g id="edge26" class="edge">
<title>Node1&#45;&gt;Node4</title>
<path fill="none" stroke="midnightblue" d="M452.49,-289.79C395.52,-279.49 333.88,-264.18 314,-244 286.97,-216.57 284.03,-168.53 284.72,-141.98"/>
<polygon fill="midnightblue" stroke="midnightblue" points="288.23,-141.9 285.2,-131.74 281.23,-141.57 288.23,-141.9"/>
</g>
<!-- Node16 -->
<g id="node16" class="node">
<title>Node16</title>
<g id="a_node16"><a xlink:href="PoKeysLibCoreSocketsAsync_8h.html" target="_top" xlink:title=" ">
<polygon fill="white" stroke="black" points="102,-224.5 102,-243.5 266,-243.5 266,-224.5 102,-224.5"/>
<text text-anchor="middle" x="184" y="-231.5" font-family="Helvetica,sans-Serif" font-size="10.00">PoKeysLibCoreSocketsAsync.h</text>
</a>
</g>
</g>
<!-- Node1&#45;&gt;Node16 -->
<g id="edge15" class="edge">
<title>Node1&#45;&gt;Node16</title>
<path fill="none" stroke="midnightblue" d="M452.36,-284.92C382.63,-271.95 295.56,-255.75 239.87,-245.39"/>
<polygon fill="midnightblue" stroke="midnightblue" points="240.31,-241.92 229.84,-243.53 239.03,-248.8 240.31,-241.92"/>
</g>
<!-- Node17 -->
<g id="node17" class="node">
<title>Node17</title>
<g id="a_node17"><a xlink:title=" ">
<polygon fill="white" stroke="#bfbfbf" points="322.5,-224.5 322.5,-243.5 381.5,-243.5 381.5,-224.5 322.5,-224.5"/>
<text text-anchor="middle" x="352" y="-231.5" font-family="Helvetica,sans-Serif" font-size="10.00">ifaddrs.h</text>
</a>
</g>
</g>
<!-- Node1&#45;&gt;Node17 -->
<g id="edge17" class="edge">
<title>Node1&#45;&gt;Node17</title>
<path fill="none" stroke="midnightblue" d="M488.02,-280.45C453.62,-268.95 414.5,-255.88 387.07,-246.72"/>
<polygon fill="midnightblue" stroke="midnightblue" points="388.11,-243.38 377.52,-243.53 385.9,-250.02 388.11,-243.38"/>
</g>
<!-- Node18 -->
<g id="node18" class="node">
<title>Node18</title>
<g id="a_node18"><a xlink:title=" ">
<polygon fill="white" stroke="#bfbfbf" points="400,-224.5 400,-243.5 472,-243.5 472,-224.5 400,-224.5"/>
<text text-anchor="middle" x="436" y="-231.5" font-family="Helvetica,sans-Serif" font-size="10.00">netinet/in.h</text>
</a>
</g>
</g>
<!-- Node1&#45;&gt;Node18 -->
<g id="edge18" class="edge">
<title>Node1&#45;&gt;Node18</title>
<path fill="none" stroke="midnightblue" d="M517.87,-280.45C498.44,-269.66 476.5,-257.48 460.23,-248.45"/>
<polygon fill="midnightblue" stroke="midnightblue" points="461.8,-245.32 451.36,-243.53 458.41,-251.44 461.8,-245.32"/>
</g>
<!-- Node19 -->
<g id="node19" class="node">
<title>Node19</title>
<g id="a_node19"><a xlink:title=" ">
<polygon fill="white" stroke="#bfbfbf" points="490.5,-224.5 490.5,-243.5 559.5,-243.5 559.5,-224.5 490.5,-224.5"/>
<text text-anchor="middle" x="525" y="-231.5" font-family="Helvetica,sans-Serif" font-size="10.00">arpa/inet.h</text>
</a>
</g>
</g>
<!-- Node1&#45;&gt;Node19 -->
<g id="edge19" class="edge">
<title>Node1&#45;&gt;Node19</title>
<path fill="none" stroke="midnightblue" d="M549.5,-280.45C544.53,-271.23 539.01,-261 534.47,-252.58"/>
<polygon fill="midnightblue" stroke="midnightblue" points="537.51,-250.84 529.69,-243.7 531.35,-254.16 537.51,-250.84"/>
</g>
<!-- Node20 -->
<g id="node20" class="node">
<title>Node20</title>
<g id="a_node20"><a xlink:title=" ">
<polygon fill="white" stroke="#bfbfbf" points="577.5,-224.5 577.5,-243.5 624.5,-243.5 624.5,-224.5 577.5,-224.5"/>
<text text-anchor="middle" x="601" y="-231.5" font-family="Helvetica,sans-Serif" font-size="10.00">fcntl.h</text>
</a>
</g>
</g>
<!-- Node1&#45;&gt;Node20 -->
<g id="edge20" class="edge">
<title>Node1&#45;&gt;Node20</title>
<path fill="none" stroke="midnightblue" d="M576.5,-280.45C581.47,-271.23 586.99,-261 591.53,-252.58"/>
<polygon fill="midnightblue" stroke="midnightblue" points="594.65,-254.16 596.31,-243.7 588.49,-250.84 594.65,-254.16"/>
</g>
<!-- Node21 -->
<g id="node21" class="node">
<title>Node21</title>
<g id="a_node21"><a xlink:title=" ">
<polygon fill="white" stroke="#bfbfbf" points="643,-224.5 643,-243.5 699,-243.5 699,-224.5 643,-224.5"/>
<text text-anchor="middle" x="671" y="-231.5" font-family="Helvetica,sans-Serif" font-size="10.00">unistd.h</text>
</a>
</g>
</g>
<!-- Node1&#45;&gt;Node21 -->
<g id="edge21" class="edge">
<title>Node1&#45;&gt;Node21</title>
<path fill="none" stroke="midnightblue" d="M601.38,-280.45C617.44,-269.96 635.52,-258.16 649.22,-249.22"/>
<polygon fill="midnightblue" stroke="midnightblue" points="651.48,-251.92 657.94,-243.53 647.65,-246.06 651.48,-251.92"/>
</g>
<!-- Node22 -->
<g id="node22" class="node">
<title>Node22</title>
<g id="a_node22"><a xlink:title=" ">
<polygon fill="white" stroke="#bfbfbf" points="717.5,-224.5 717.5,-243.5 770.5,-243.5 770.5,-224.5 717.5,-224.5"/>
<text text-anchor="middle" x="744" y="-231.5" font-family="Helvetica,sans-Serif" font-size="10.00">string.h</text>
</a>
</g>
</g>
<!-- Node1&#45;&gt;Node22 -->
<g id="edge22" class="edge">
<title>Node1&#45;&gt;Node22</title>
<path fill="none" stroke="midnightblue" d="M627.32,-280.45C656.31,-269.16 689.21,-256.34 712.67,-247.2"/>
<polygon fill="midnightblue" stroke="midnightblue" points="714.06,-250.42 722.11,-243.53 711.52,-243.9 714.06,-250.42"/>
</g>
<!-- Node23 -->
<g id="node23" class="node">
<title>Node23</title>
<g id="a_node23"><a xlink:title=" ">
<polygon fill="white" stroke="#bfbfbf" points="789,-224.5 789,-243.5 861,-243.5 861,-224.5 789,-224.5"/>
<text text-anchor="middle" x="825" y="-231.5" font-family="Helvetica,sans-Serif" font-size="10.00">sys/types.h</text>
</a>
</g>
</g>
<!-- Node1&#45;&gt;Node23 -->
<g id="edge23" class="edge">
<title>Node1&#45;&gt;Node23</title>
<path fill="none" stroke="midnightblue" d="M656.11,-280.45C699.56,-268.75 749.1,-255.42 783.24,-246.24"/>
<polygon fill="midnightblue" stroke="midnightblue" points="784.56,-249.51 793.31,-243.53 782.75,-242.75 784.56,-249.51"/>
</g>
<!-- Node24 -->
<g id="node24" class="node">
<title>Node24</title>
<g id="a_node24"><a xlink:title=" ">
<polygon fill="white" stroke="#bfbfbf" points="879.5,-224.5 879.5,-243.5 956.5,-243.5 956.5,-224.5 879.5,-224.5"/>
<text text-anchor="middle" x="918" y="-231.5" font-family="Helvetica,sans-Serif" font-size="10.00">sys/socket.h</text>
</a>
</g>
</g>
<!-- Node1&#45;&gt;Node24 -->
<g id="edge24" class="edge">
<title>Node1&#45;&gt;Node24</title>
<path fill="none" stroke="midnightblue" d="M673.86,-283.48C739.53,-270.44 819.42,-254.58 869.51,-244.63"/>
<polygon fill="midnightblue" stroke="midnightblue" points="870.3,-248.04 879.43,-242.66 868.93,-241.18 870.3,-248.04"/>
</g>
<!-- Node25 -->
<g id="node25" class="node">
<title>Node25</title>
<g id="a_node25"><a xlink:title=" ">
<polygon fill="white" stroke="#bfbfbf" points="975,-224.5 975,-243.5 1025,-243.5 1025,-224.5 975,-224.5"/>
<text text-anchor="middle" x="1000" y="-231.5" font-family="Helvetica,sans-Serif" font-size="10.00">net/if.h</text>
</a>
</g>
</g>
<!-- Node1&#45;&gt;Node25 -->
<g id="edge25" class="edge">
<title>Node1&#45;&gt;Node25</title>
<path fill="none" stroke="midnightblue" d="M673.9,-291.84C752.63,-281.37 860.93,-265.43 964.79,-244.07"/>
<polygon fill="midnightblue" stroke="midnightblue" points="965.74,-247.45 974.82,-241.99 964.32,-240.59 965.74,-247.45"/>
</g>
<!-- Node3 -->
<g id="node3" class="node">
<title>Node3</title>
<g id="a_node3"><a xlink:title=" ">
<polygon fill="white" stroke="#bfbfbf" points="84.5,-112.5 84.5,-131.5 137.5,-131.5 137.5,-112.5 84.5,-112.5"/>
<text text-anchor="middle" x="111" y="-119.5" font-family="Helvetica,sans-Serif" font-size="10.00">stdint.h</text>
</a>
</g>
</g>
<!-- Node2&#45;&gt;Node3 -->
<g id="edge2" class="edge">
<title>Node2&#45;&gt;Node3</title>
<path fill="none" stroke="midnightblue" d="M172.27,-168.32C161.16,-160.11 144.26,-147.6 131.02,-137.81"/>
<polygon fill="midnightblue" stroke="midnightblue" points="133.06,-134.97 122.94,-131.83 128.9,-140.59 133.06,-134.97"/>
</g>
<!-- Node2&#45;&gt;Node4 -->
<g id="edge3" class="edge">
<title>Node2&#45;&gt;Node4</title>
<path fill="none" stroke="midnightblue" d="M200.39,-168.32C216.67,-159.7 241.87,-146.36 260.72,-136.39"/>
<polygon fill="midnightblue" stroke="midnightblue" points="262.45,-139.43 269.65,-131.65 259.18,-133.24 262.45,-139.43"/>
</g>
<!-- Node15 -->
<g id="node15" class="node">
<title>Node15</title>
<g id="a_node15"><a xlink:title=" ">
<polygon fill="white" stroke="#bfbfbf" points="155.5,-112.5 155.5,-131.5 230.5,-131.5 230.5,-112.5 155.5,-112.5"/>
<text text-anchor="middle" x="193" y="-119.5" font-family="Helvetica,sans-Serif" font-size="10.00">hal_canon.h</text>
</a>
</g>
</g>
<!-- Node2&#45;&gt;Node15 -->
<g id="edge14" class="edge">
<title>Node2&#45;&gt;Node15</title>
<path fill="none" stroke="midnightblue" d="M185.49,-168.08C186.68,-160.93 188.39,-150.64 189.88,-141.69"/>
<polygon fill="midnightblue" stroke="midnightblue" points="193.35,-142.19 191.54,-131.75 186.45,-141.04 193.35,-142.19"/>
</g>
<!-- Node5 -->
<g id="node5" class="node">
<title>Node5</title>
<g id="a_node5"><a xlink:href="rtapi_8h.html" target="_top" xlink:title=" ">
<polygon fill="white" stroke="black" points="106,-56.5 106,-75.5 154,-75.5 154,-56.5 106,-56.5"/>
<text text-anchor="middle" x="130" y="-63.5" font-family="Helvetica,sans-Serif" font-size="10.00">rtapi.h</text>
</a>
</g>
</g>
<!-- Node4&#45;&gt;Node5 -->
<g id="edge4" class="edge">
<title>Node4&#45;&gt;Node5</title>
<path fill="none" stroke="midnightblue" d="M265.28,-113.83C239.33,-104.85 194.53,-89.34 163.63,-78.64"/>
<polygon fill="midnightblue" stroke="midnightblue" points="164.73,-75.32 154.13,-75.35 162.44,-81.93 164.73,-75.32"/>
</g>
<!-- Node9 -->
<g id="node9" class="node">
<title>Node9</title>
<g id="a_node9"><a xlink:href="rtapi__errno_8h.html" target="_top" xlink:title=" ">
<polygon fill="white" stroke="black" points="199.5,-56.5 199.5,-75.5 278.5,-75.5 278.5,-56.5 199.5,-56.5"/>
<text text-anchor="middle" x="239" y="-63.5" font-family="Helvetica,sans-Serif" font-size="10.00">rtapi_errno.h</text>
</a>
</g>
</g>
<!-- Node4&#45;&gt;Node9 -->
<g id="edge8" class="edge">
<title>Node4&#45;&gt;Node9</title>
<path fill="none" stroke="midnightblue" d="M278.24,-112.08C271.46,-104.3 261.46,-92.8 253.24,-83.37"/>
<polygon fill="midnightblue" stroke="midnightblue" points="255.82,-81 246.62,-75.75 250.54,-85.59 255.82,-81"/>
</g>
<!-- Node11 -->
<g id="node11" class="node">
<title>Node11</title>
<g id="a_node11"><a xlink:href="rtapi__bool_8h.html" target="_top" xlink:title=" ">
<polygon fill="white" stroke="black" points="297,-56.5 297,-75.5 371,-75.5 371,-56.5 297,-56.5"/>
<text text-anchor="middle" x="334" y="-63.5" font-family="Helvetica,sans-Serif" font-size="10.00">rtapi_bool.h</text>
</a>
</g>
</g>
<!-- Node4&#45;&gt;Node11 -->
<g id="edge10" class="edge">
<title>Node4&#45;&gt;Node11</title>
<path fill="none" stroke="midnightblue" d="M293.93,-112.08C300.85,-104.3 311.07,-92.8 319.45,-83.37"/>
<polygon fill="midnightblue" stroke="midnightblue" points="322.19,-85.55 326.22,-75.75 316.96,-80.9 322.19,-85.55"/>
</g>
<!-- Node13 -->
<g id="node13" class="node">
<title>Node13</title>
<g id="a_node13"><a xlink:href="rtapi__stdint_8h.html" target="_top" xlink:title=" ">
<polygon fill="white" stroke="black" points="389.5,-56.5 389.5,-75.5 470.5,-75.5 470.5,-56.5 389.5,-56.5"/>
<text text-anchor="middle" x="430" y="-63.5" font-family="Helvetica,sans-Serif" font-size="10.00">rtapi_stdint.h</text>
</a>
</g>
</g>
<!-- Node4&#45;&gt;Node13 -->
<g id="edge12" class="edge">
<title>Node4&#45;&gt;Node13</title>
<path fill="none" stroke="midnightblue" d="M306.63,-113.26C330.32,-104.38 369.49,-89.69 397.33,-79.25"/>
<polygon fill="midnightblue" stroke="midnightblue" points="398.89,-82.4 407.03,-75.62 396.43,-75.85 398.89,-82.4"/>
</g>
<!-- Node6 -->
<g id="node6" class="node">
<title>Node6</title>
<g id="a_node6"><a xlink:title=" ">
<polygon fill="white" stroke="#bfbfbf" points="0,-0.5 0,-19.5 56,-19.5 56,-0.5 0,-0.5"/>
<text text-anchor="middle" x="28" y="-7.5" font-family="Helvetica,sans-Serif" font-size="10.00">stddef.h</text>
</a>
</g>
</g>
<!-- Node5&#45;&gt;Node6 -->
<g id="edge5" class="edge">
<title>Node5&#45;&gt;Node6</title>
<path fill="none" stroke="midnightblue" d="M113.61,-56.32C97.33,-47.7 72.13,-34.36 53.28,-24.39"/>
<polygon fill="midnightblue" stroke="midnightblue" points="54.82,-21.24 44.35,-19.65 51.55,-27.43 54.82,-21.24"/>
</g>
<!-- Node7 -->
<g id="node7" class="node">
<title>Node7</title>
<g id="a_node7"><a xlink:title=" ">
<polygon fill="white" stroke="#bfbfbf" points="74,-0.5 74,-19.5 130,-19.5 130,-0.5 74,-0.5"/>
<text text-anchor="middle" x="102" y="-7.5" font-family="Helvetica,sans-Serif" font-size="10.00">stdarg.h</text>
</a>
</g>
</g>
<!-- Node5&#45;&gt;Node7 -->
<g id="edge6" class="edge">
<title>Node5&#45;&gt;Node7</title>
<path fill="none" stroke="midnightblue" d="M125.38,-56.08C121.54,-48.69 115.98,-37.95 111.24,-28.81"/>
<polygon fill="midnightblue" stroke="midnightblue" points="114.25,-27.02 106.54,-19.75 108.03,-30.24 114.25,-27.02"/>
</g>
<!-- Node8 -->
<g id="node8" class="node">
<title>Node8</title>
<g id="a_node8"><a xlink:title=" ">
<polygon fill="white" stroke="#bfbfbf" points="148.5,-0.5 148.5,-19.5 205.5,-19.5 205.5,-0.5 148.5,-0.5"/>
<text text-anchor="middle" x="177" y="-7.5" font-family="Helvetica,sans-Serif" font-size="10.00">spawn.h</text>
</a>
</g>
</g>
<!-- Node5&#45;&gt;Node8 -->
<g id="edge7" class="edge">
<title>Node5&#45;&gt;Node8</title>
<path fill="none" stroke="midnightblue" d="M137.76,-56.08C144.54,-48.3 154.54,-36.8 162.76,-27.37"/>
<polygon fill="midnightblue" stroke="midnightblue" points="165.46,-29.59 169.38,-19.75 160.18,-25 165.46,-29.59"/>
</g>
<!-- Node10 -->
<g id="node10" class="node">
<title>Node10</title>
<g id="a_node10"><a xlink:title=" ">
<polygon fill="white" stroke="#bfbfbf" points="223.5,-0.5 223.5,-19.5 274.5,-19.5 274.5,-0.5 223.5,-0.5"/>
<text text-anchor="middle" x="249" y="-7.5" font-family="Helvetica,sans-Serif" font-size="10.00">errno.h</text>
</a>
</g>
</g>
<!-- Node9&#45;&gt;Node10 -->
<g id="edge9" class="edge">
<title>Node9&#45;&gt;Node10</title>
<path fill="none" stroke="midnightblue" d="M240.65,-56.08C241.98,-48.93 243.88,-38.64 245.54,-29.69"/>
<polygon fill="midnightblue" stroke="midnightblue" points="249,-30.22 247.38,-19.75 242.12,-28.95 249,-30.22"/>
</g>
<!-- Node12 -->
<g id="node12" class="node">
<title>Node12</title>
<g id="a_node12"><a xlink:title=" ">
<polygon fill="white" stroke="#bfbfbf" points="303,-0.5 303,-19.5 365,-19.5 365,-0.5 303,-0.5"/>
<text text-anchor="middle" x="334" y="-7.5" font-family="Helvetica,sans-Serif" font-size="10.00">stdbool.h</text>
</a>
</g>
</g>
<!-- Node11&#45;&gt;Node12 -->
<g id="edge11" class="edge">
<title>Node11&#45;&gt;Node12</title>
<path fill="none" stroke="midnightblue" d="M334,-56.08C334,-49.01 334,-38.86 334,-29.99"/>
<polygon fill="midnightblue" stroke="midnightblue" points="337.5,-29.75 334,-19.75 330.5,-29.75 337.5,-29.75"/>
</g>
<!-- Node14 -->
<g id="node14" class="node">
<title>Node14</title>
<g id="a_node14"><a xlink:title=" ">
<polygon fill="white" stroke="#bfbfbf" points="397.5,-0.5 397.5,-19.5 462.5,-19.5 462.5,-0.5 397.5,-0.5"/>
<text text-anchor="middle" x="430" y="-7.5" font-family="Helvetica,sans-Serif" font-size="10.00">inttypes.h</text>
</a>
</g>
</g>
<!-- Node13&#45;&gt;Node14 -->
<g id="edge13" class="edge">
<title>Node13&#45;&gt;Node14</title>
<path fill="none" stroke="midnightblue" d="M430,-56.08C430,-49.01 430,-38.86 430,-29.99"/>
<polygon fill="midnightblue" stroke="midnightblue" points="433.5,-29.75 430,-19.75 426.5,-29.75 433.5,-29.75"/>
</g>
<!-- Node16&#45;&gt;Node2 -->
<g id="edge16" class="edge">
<title>Node16&#45;&gt;Node2</title>
<path fill="none" stroke="midnightblue" d="M184,-224.08C184,-217.01 184,-206.86 184,-197.99"/>
<polygon fill="midnightblue" stroke="midnightblue" points="187.5,-197.75 184,-187.75 180.5,-197.75 187.5,-197.75"/>
</g>
</g>
</svg>
