<?xml version="1.0" encoding="UTF-8" standalone="no"?>
<!DOCTYPE svg PUBLIC "-//W3C//DTD SVG 1.1//EN"
 "http://www.w3.org/Graphics/SVG/1.1/DTD/svg11.dtd">
<!-- Generated by graphviz version 2.43.0 (0)
 -->
<!-- Title: /home/cnc/actions&#45;runner/_work/LinuxCnc_PokeysLibComp/LinuxCnc_PokeysLibComp/external/pokeysHal/pokeyslib/PoKeysLibRTC.c Pages: 1 -->
<svg width="317pt" height="229pt"
 viewBox="0.00 0.00 317.00 229.00" xmlns="http://www.w3.org/2000/svg" xmlns:xlink="http://www.w3.org/1999/xlink">
<g id="graph0" class="graph" transform="scale(1 1) rotate(0) translate(4 225)">
<title>/home/cnc/actions&#45;runner/_work/LinuxCnc_PokeysLibComp/LinuxCnc_PokeysLibComp/external/pokeysHal/pokeyslib/PoKeysLibRTC.c</title>
<polygon fill="white" stroke="transparent" points="-4,4 -4,-225 313,-225 313,4 -4,4"/>
<!-- Node1 -->
<g id="node1" class="node">
<title>Node1</title>
<g id="a_node1"><a xlink:title=" ">
<polygon fill="#bfbfbf" stroke="black" points="0,-168.5 0,-220.5 199,-220.5 199,-168.5 0,-168.5"/>
<text text-anchor="start" x="8" y="-208.5" font-family="Helvetica,sans-Serif" font-size="10.00">/home/cnc/actions&#45;runner</text>
<text text-anchor="start" x="8" y="-197.5" font-family="Helvetica,sans-Serif" font-size="10.00">/_work/LinuxCnc_PokeysLibComp</text>
<text text-anchor="start" x="8" y="-186.5" font-family="Helvetica,sans-Serif" font-size="10.00">/LinuxCnc_PokeysLibComp/external</text>
<text text-anchor="middle" x="99.5" y="-175.5" font-family="Helvetica,sans-Serif" font-size="10.00">/pokeysHal/pokeyslib/PoKeysLibRTC.c</text>
</a>
</g>
</g>
<!-- Node2 -->
<g id="node2" class="node">
<title>Node2</title>
<g id="a_node2"><a xlink:href="pokeysHal_2pokeyslib_2PoKeysLib_8h.html" target="_top" xlink:title=" ">
<polygon fill="white" stroke="black" points="21,-56.5 21,-75.5 96,-75.5 96,-56.5 21,-56.5"/>
<text text-anchor="middle" x="58.5" y="-63.5" font-family="Helvetica,sans-Serif" font-size="10.00">PoKeysLib.h</text>
</a>
</g>
</g>
<!-- Node1&#45;&gt;Node2 -->
<g id="edge1" class="edge">
<title>Node1&#45;&gt;Node2</title>
<path fill="none" stroke="midnightblue" d="M91.3,-168.2C83.35,-143.66 71.47,-107 64.4,-85.2"/>
<polygon fill="midnightblue" stroke="midnightblue" points="67.68,-83.98 61.27,-75.55 61.02,-86.14 67.68,-83.98"/>
</g>
<!-- Node4 -->
<g id="node4" class="node">
<title>Node4</title>
<g id="a_node4"><a xlink:href="pokeysHal_2pokeyslib_2PoKeysLibCore_8h.html" target="_top" xlink:title=" ">
<polygon fill="white" stroke="black" points="92.5,-112.5 92.5,-131.5 190.5,-131.5 190.5,-112.5 92.5,-112.5"/>
<text text-anchor="middle" x="141.5" y="-119.5" font-family="Helvetica,sans-Serif" font-size="10.00">PoKeysLibCore.h</text>
</a>
</g>
</g>
<!-- Node1&#45;&gt;Node4 -->
<g id="edge3" class="edge">
<title>Node1&#45;&gt;Node4</title>
<path fill="none" stroke="midnightblue" d="M114.43,-168.45C119.98,-159.13 126.15,-148.77 131.19,-140.3"/>
<polygon fill="midnightblue" stroke="midnightblue" points="134.21,-142.08 136.32,-131.7 128.19,-138.5 134.21,-142.08"/>
</g>
<!-- Node3 -->
<g id="node3" class="node">
<title>Node3</title>
<g id="a_node3"><a xlink:title=" ">
<polygon fill="white" stroke="#bfbfbf" points="32,-0.5 32,-19.5 85,-19.5 85,-0.5 32,-0.5"/>
<text text-anchor="middle" x="58.5" y="-7.5" font-family="Helvetica,sans-Serif" font-size="10.00">stdint.h</text>
</a>
</g>
</g>
<!-- Node2&#45;&gt;Node3 -->
<g id="edge2" class="edge">
<title>Node2&#45;&gt;Node3</title>
<path fill="none" stroke="midnightblue" d="M58.5,-56.08C58.5,-49.01 58.5,-38.86 58.5,-29.99"/>
<polygon fill="midnightblue" stroke="midnightblue" points="62,-29.75 58.5,-19.75 55,-29.75 62,-29.75"/>
</g>
<!-- Node4&#45;&gt;Node2 -->
<g id="edge8" class="edge">
<title>Node4&#45;&gt;Node2</title>
<path fill="none" stroke="midnightblue" d="M128.16,-112.32C115.34,-103.98 95.72,-91.21 80.56,-81.35"/>
<polygon fill="midnightblue" stroke="midnightblue" points="82.09,-78.17 71.8,-75.65 78.28,-84.04 82.09,-78.17"/>
</g>
<!-- Node5 -->
<g id="node5" class="node">
<title>Node5</title>
<g id="a_node5"><a xlink:href="pokeysHal_2pokeyslib_2hidapi_8h.html" target="_top" xlink:title=" ">
<polygon fill="white" stroke="black" points="113.5,-56.5 113.5,-75.5 169.5,-75.5 169.5,-56.5 113.5,-56.5"/>
<text text-anchor="middle" x="141.5" y="-63.5" font-family="Helvetica,sans-Serif" font-size="10.00">hidapi.h</text>
</a>
</g>
</g>
<!-- Node4&#45;&gt;Node5 -->
<g id="edge4" class="edge">
<title>Node4&#45;&gt;Node5</title>
<path fill="none" stroke="midnightblue" d="M141.5,-112.08C141.5,-105.01 141.5,-94.86 141.5,-85.99"/>
<polygon fill="midnightblue" stroke="midnightblue" points="145,-85.75 141.5,-75.75 138,-85.75 145,-85.75"/>
</g>
<!-- Node7 -->
<g id="node7" class="node">
<title>Node7</title>
<g id="a_node7"><a xlink:title=" ">
<polygon fill="white" stroke="#bfbfbf" points="187.5,-56.5 187.5,-75.5 237.5,-75.5 237.5,-56.5 187.5,-56.5"/>
<text text-anchor="middle" x="212.5" y="-63.5" font-family="Helvetica,sans-Serif" font-size="10.00">stdio.h</text>
</a>
</g>
</g>
<!-- Node4&#45;&gt;Node7 -->
<g id="edge6" class="edge">
<title>Node4&#45;&gt;Node7</title>
<path fill="none" stroke="midnightblue" d="M152.91,-112.32C163.61,-104.18 179.84,-91.84 192.66,-82.09"/>
<polygon fill="midnightblue" stroke="midnightblue" points="195.04,-84.67 200.89,-75.83 190.81,-79.1 195.04,-84.67"/>
</g>
<!-- Node8 -->
<g id="node8" class="node">
<title>Node8</title>
<g id="a_node8"><a xlink:title=" ">
<polygon fill="white" stroke="#bfbfbf" points="256,-56.5 256,-75.5 309,-75.5 309,-56.5 256,-56.5"/>
<text text-anchor="middle" x="282.5" y="-63.5" font-family="Helvetica,sans-Serif" font-size="10.00">string.h</text>
</a>
</g>
</g>
<!-- Node4&#45;&gt;Node8 -->
<g id="edge7" class="edge">
<title>Node4&#45;&gt;Node8</title>
<path fill="none" stroke="midnightblue" d="M163.84,-112.44C187.25,-103.48 224.24,-89.31 250.69,-79.18"/>
<polygon fill="midnightblue" stroke="midnightblue" points="252.18,-82.36 260.26,-75.52 249.67,-75.82 252.18,-82.36"/>
</g>
<!-- Node6 -->
<g id="node6" class="node">
<title>Node6</title>
<g id="a_node6"><a xlink:title=" ">
<polygon fill="white" stroke="#bfbfbf" points="114.5,-0.5 114.5,-19.5 168.5,-19.5 168.5,-0.5 114.5,-0.5"/>
<text text-anchor="middle" x="141.5" y="-7.5" font-family="Helvetica,sans-Serif" font-size="10.00">wchar.h</text>
</a>
</g>
</g>
<!-- Node5&#45;&gt;Node6 -->
<g id="edge5" class="edge">
<title>Node5&#45;&gt;Node6</title>
<path fill="none" stroke="midnightblue" d="M141.5,-56.08C141.5,-49.01 141.5,-38.86 141.5,-29.99"/>
<polygon fill="midnightblue" stroke="midnightblue" points="145,-29.75 141.5,-19.75 138,-29.75 145,-29.75"/>
</g>
</g>
</svg>
