<?xml version="1.0" encoding="UTF-8" standalone="no"?>
<!DOCTYPE svg PUBLIC "-//W3C//DTD SVG 1.1//EN"
 "http://www.w3.org/Graphics/SVG/1.1/DTD/svg11.dtd">
<!-- Generated by graphviz version 2.43.0 (0)
 -->
<!-- Title: SendRequest Pages: 1 -->
<svg width="358pt" height="142pt"
 viewBox="0.00 0.00 358.00 142.00" xmlns="http://www.w3.org/2000/svg" xmlns:xlink="http://www.w3.org/1999/xlink">
<g id="graph0" class="graph" transform="scale(1 1) rotate(0) translate(4 138)">
<title>SendRequest</title>
<polygon fill="white" stroke="transparent" points="-4,4 -4,-138 354,-138 354,4 -4,4"/>
<!-- Node1 -->
<g id="node1" class="node">
<title>Node1</title>
<g id="a_node1"><a xlink:title="Send a request and wait for a response (async context).">
<polygon fill="#bfbfbf" stroke="black" points="0,-57.5 0,-76.5 80,-76.5 80,-57.5 0,-57.5"/>
<text text-anchor="middle" x="40" y="-64.5" font-family="Helvetica,sans-Serif" font-size="10.00">SendRequest</text>
</a>
</g>
</g>
<!-- Node2 -->
<g id="node2" class="node">
<title>Node2</title>
<g id="a_node2"><a xlink:href="PoKeysLibCoreAsync_8c.html#a273b6d635dea8f559b915cdb289d021e" target="_top" xlink:title=" ">
<polygon fill="white" stroke="black" points="122.5,-114.5 122.5,-133.5 205.5,-133.5 205.5,-114.5 122.5,-114.5"/>
<text text-anchor="middle" x="164" y="-121.5" font-family="Helvetica,sans-Serif" font-size="10.00">getChecksum</text>
</a>
</g>
</g>
<!-- Node1&#45;&gt;Node2 -->
<g id="edge1" class="edge">
<title>Node1&#45;&gt;Node2</title>
<path fill="none" stroke="midnightblue" d="M58.98,-76.65C74.04,-84.6 96.2,-96 116,-105 120.08,-106.85 124.39,-108.72 128.68,-110.52"/>
<polygon fill="midnightblue" stroke="midnightblue" points="127.37,-113.77 137.95,-114.33 130.03,-107.29 127.37,-113.77"/>
</g>
<!-- Node3 -->
<g id="node3" class="node">
<title>Node3</title>
<g id="a_node3"><a xlink:href="group__API.html#ga6b820f3e72097cf7f994e33715dc7af1" target="_top" xlink:title="Read an Input report from a HID device.">
<polygon fill="white" stroke="black" points="134.5,-76.5 134.5,-95.5 193.5,-95.5 193.5,-76.5 134.5,-76.5"/>
<text text-anchor="middle" x="164" y="-83.5" font-family="Helvetica,sans-Serif" font-size="10.00">hid_read</text>
</a>
</g>
</g>
<!-- Node1&#45;&gt;Node3 -->
<g id="edge2" class="edge">
<title>Node1&#45;&gt;Node3</title>
<path fill="none" stroke="midnightblue" d="M80.27,-73.12C94.26,-75.29 110,-77.75 123.97,-79.92"/>
<polygon fill="midnightblue" stroke="midnightblue" points="123.83,-83.44 134.25,-81.52 124.9,-76.52 123.83,-83.44"/>
</g>
<!-- Node5 -->
<g id="node5" class="node">
<title>Node5</title>
<g id="a_node5"><a xlink:href="group__API.html#gad14ea48e440cf5066df87cc6488493af" target="_top" xlink:title="Write an Output report to a HID device.">
<polygon fill="white" stroke="black" points="133,-38.5 133,-57.5 195,-57.5 195,-38.5 133,-38.5"/>
<text text-anchor="middle" x="164" y="-45.5" font-family="Helvetica,sans-Serif" font-size="10.00">hid_write</text>
</a>
</g>
</g>
<!-- Node1&#45;&gt;Node5 -->
<g id="edge4" class="edge">
<title>Node1&#45;&gt;Node5</title>
<path fill="none" stroke="midnightblue" d="M80.27,-60.88C93.82,-58.77 109,-56.41 122.63,-54.29"/>
<polygon fill="midnightblue" stroke="midnightblue" points="123.36,-57.72 132.7,-52.72 122.28,-50.8 123.36,-57.72"/>
</g>
<!-- Node6 -->
<g id="node6" class="node">
<title>Node6</title>
<g id="a_node6"><a xlink:href="pokeyslib_2PoKeysLibCoreSockets_8c.html#a22759fb4024c9081af26ac1bc6541b47" target="_top" xlink:title=" ">
<polygon fill="white" stroke="black" points="116,-0.5 116,-19.5 212,-19.5 212,-0.5 116,-0.5"/>
<text text-anchor="middle" x="164" y="-7.5" font-family="Helvetica,sans-Serif" font-size="10.00">SendEthRequest</text>
</a>
</g>
</g>
<!-- Node1&#45;&gt;Node6 -->
<g id="edge5" class="edge">
<title>Node1&#45;&gt;Node6</title>
<path fill="none" stroke="midnightblue" d="M58.98,-57.35C74.04,-49.4 96.2,-38 116,-29 120.08,-27.15 124.39,-25.28 128.68,-23.48"/>
<polygon fill="midnightblue" stroke="midnightblue" points="130.03,-26.71 137.95,-19.67 127.37,-20.23 130.03,-26.71"/>
</g>
<!-- Node4 -->
<g id="node4" class="node">
<title>Node4</title>
<g id="a_node4"><a xlink:href="group__API.html#gaa5c9ed5aa290688ffac03343989ad75a" target="_top" xlink:title="Read an Input report from a HID device with timeout.">
<polygon fill="white" stroke="black" points="248,-76.5 248,-95.5 350,-95.5 350,-76.5 248,-76.5"/>
<text text-anchor="middle" x="299" y="-83.5" font-family="Helvetica,sans-Serif" font-size="10.00">hid_read_timeout</text>
</a>
</g>
</g>
<!-- Node3&#45;&gt;Node4 -->
<g id="edge3" class="edge">
<title>Node3&#45;&gt;Node4</title>
<path fill="none" stroke="midnightblue" d="M193.53,-86C206.49,-86 222.35,-86 237.75,-86"/>
<polygon fill="midnightblue" stroke="midnightblue" points="237.77,-89.5 247.77,-86 237.77,-82.5 237.77,-89.5"/>
</g>
<!-- Node7 -->
<g id="node7" class="node">
<title>Node7</title>
<g id="a_node7"><a xlink:href="pokeyslib_2PoKeysLibCore_8c.html#a273b6d635dea8f559b915cdb289d021e" target="_top" xlink:title=" ">
<polygon fill="white" stroke="black" points="257.5,-0.5 257.5,-19.5 340.5,-19.5 340.5,-0.5 257.5,-0.5"/>
<text text-anchor="middle" x="299" y="-7.5" font-family="Helvetica,sans-Serif" font-size="10.00">getChecksum</text>
</a>
</g>
</g>
<!-- Node6&#45;&gt;Node7 -->
<g id="edge6" class="edge">
<title>Node6&#45;&gt;Node7</title>
<path fill="none" stroke="midnightblue" d="M212.27,-10C223.58,-10 235.72,-10 247.19,-10"/>
<polygon fill="midnightblue" stroke="midnightblue" points="247.49,-13.5 257.49,-10 247.49,-6.5 247.49,-13.5"/>
</g>
</g>
</svg>
