<?xml version="1.0" encoding="UTF-8" standalone="no"?>
<!DOCTYPE svg PUBLIC "-//W3C//DTD SVG 1.1//EN"
 "http://www.w3.org/Graphics/SVG/1.1/DTD/svg11.dtd">
<!-- Generated by graphviz version 2.43.0 (0)
 -->
<!-- Title: getChecksum Pages: 1 -->
<svg width="421pt" height="66pt"
 viewBox="0.00 0.00 421.00 66.00" xmlns="http://www.w3.org/2000/svg" xmlns:xlink="http://www.w3.org/1999/xlink">
<g id="graph0" class="graph" transform="scale(1 1) rotate(0) translate(4 62)">
<title>getChecksum</title>
<polygon fill="white" stroke="transparent" points="-4,4 -4,-62 417,-62 417,4 -4,4"/>
<!-- Node1 -->
<g id="node1" class="node">
<title>Node1</title>
<g id="a_node1"><a xlink:title=" ">
<polygon fill="#bfbfbf" stroke="black" points="330,-19.5 330,-38.5 413,-38.5 413,-19.5 330,-19.5"/>
<text text-anchor="middle" x="371.5" y="-26.5" font-family="Helvetica,sans-Serif" font-size="10.00">getChecksum</text>
</a>
</g>
</g>
<!-- Node2 -->
<g id="node2" class="node">
<title>Node2</title>
<g id="a_node2"><a xlink:href="PoKeysLibCoreAsync_8c.html#ab5d92aa36d0a4a6953a055f5cd960aff" target="_top" xlink:title="Send a request and wait for a response (async context).">
<polygon fill="white" stroke="black" points="181,-38.5 181,-57.5 261,-57.5 261,-38.5 181,-38.5"/>
<text text-anchor="middle" x="221" y="-45.5" font-family="Helvetica,sans-Serif" font-size="10.00">SendRequest</text>
</a>
</g>
</g>
<!-- Node1&#45;&gt;Node2 -->
<g id="edge1" class="edge">
<title>Node1&#45;&gt;Node2</title>
<path fill="none" stroke="midnightblue" d="M319.85,-35.48C300.7,-37.93 279.2,-40.68 261.25,-42.98"/>
<polygon fill="midnightblue" stroke="midnightblue" points="320.45,-38.93 329.92,-34.19 319.56,-31.99 320.45,-38.93"/>
</g>
<!-- Node4 -->
<g id="node4" class="node">
<title>Node4</title>
<g id="a_node4"><a xlink:href="PoKeysLibCoreAsync_8c.html#aa13f43984a7cb793f85a8850443f4f79" target="_top" xlink:title="Transmit a request without reading any reply.">
<polygon fill="white" stroke="black" points="148,-0.5 148,-19.5 294,-19.5 294,-0.5 148,-0.5"/>
<text text-anchor="middle" x="221" y="-7.5" font-family="Helvetica,sans-Serif" font-size="10.00">SendRequest_NoResponse</text>
</a>
</g>
</g>
<!-- Node1&#45;&gt;Node4 -->
<g id="edge3" class="edge">
<title>Node1&#45;&gt;Node4</title>
<path fill="none" stroke="midnightblue" d="M319.76,-22.51C311.52,-21.45 302.85,-20.34 294.22,-19.24"/>
<polygon fill="midnightblue" stroke="midnightblue" points="319.56,-26.01 329.92,-23.81 320.45,-19.07 319.56,-26.01"/>
</g>
<!-- Node3 -->
<g id="node3" class="node">
<title>Node3</title>
<g id="a_node3"><a xlink:href="PoKeysLibCoreAsync_8c.html#a5e99bef619c902443eecbaacd8e0be19" target="_top" xlink:title="Send a command composed from the provided parameters.">
<polygon fill="white" stroke="black" points="0,-38.5 0,-57.5 112,-57.5 112,-38.5 0,-38.5"/>
<text text-anchor="middle" x="56" y="-45.5" font-family="Helvetica,sans-Serif" font-size="10.00">PK_CustomRequest</text>
</a>
</g>
</g>
<!-- Node2&#45;&gt;Node3 -->
<g id="edge2" class="edge">
<title>Node2&#45;&gt;Node3</title>
<path fill="none" stroke="midnightblue" d="M170.95,-48C152.39,-48 131.14,-48 112.06,-48"/>
<polygon fill="midnightblue" stroke="midnightblue" points="170.96,-51.5 180.96,-48 170.96,-44.5 170.96,-51.5"/>
</g>
</g>
</svg>
