<?xml version="1.0" encoding="UTF-8" standalone="no"?>
<!DOCTYPE svg PUBLIC "-//W3C//DTD SVG 1.1//EN"
 "http://www.w3.org/Graphics/SVG/1.1/DTD/svg11.dtd">
<!-- Generated by graphviz version 2.43.0 (0)
 -->
<!-- Title: getChecksum Pages: 1 -->
<svg width="437pt" height="180pt"
 viewBox="0.00 0.00 437.00 180.00" xmlns="http://www.w3.org/2000/svg" xmlns:xlink="http://www.w3.org/1999/xlink">
<g id="graph0" class="graph" transform="scale(1 1) rotate(0) translate(4 176)">
<title>getChecksum</title>
<polygon fill="white" stroke="transparent" points="-4,4 -4,-176 433,-176 433,4 -4,4"/>
<!-- Node1 -->
<g id="node1" class="node">
<title>Node1</title>
<g id="a_node1"><a xlink:title=" ">
<polygon fill="#bfbfbf" stroke="black" points="346,-76.5 346,-95.5 429,-95.5 429,-76.5 346,-76.5"/>
<text text-anchor="middle" x="387.5" y="-83.5" font-family="Helvetica,sans-Serif" font-size="10.00">getChecksum</text>
</a>
</g>
</g>
<!-- Node2 -->
<g id="node2" class="node">
<title>Node2</title>
<g id="a_node2"><a xlink:href="pokeysHal_2pokeyslib_2PoKeysLibCoreSockets_8c.html#a22759fb4024c9081af26ac1bc6541b47" target="_top" xlink:title=" ">
<polygon fill="white" stroke="black" points="181,-152.5 181,-171.5 277,-171.5 277,-152.5 181,-152.5"/>
<text text-anchor="middle" x="229" y="-159.5" font-family="Helvetica,sans-Serif" font-size="10.00">SendEthRequest</text>
</a>
</g>
</g>
<!-- Node1&#45;&gt;Node2 -->
<g id="edge1" class="edge">
<title>Node1&#45;&gt;Node2</title>
<path fill="none" stroke="midnightblue" d="M368.74,-102.57C354.05,-115.41 332.08,-132.69 310,-143 299.78,-147.77 288.25,-151.41 277.19,-154.15"/>
<polygon fill="midnightblue" stroke="midnightblue" points="371.39,-104.89 376.5,-95.61 366.72,-99.68 371.39,-104.89"/>
</g>
<!-- Node3 -->
<g id="node3" class="node">
<title>Node3</title>
<g id="a_node3"><a xlink:href="pokeysHal_2pokeyslib_2PoKeysLibCoreSockets_8c.html#a4469c22e60b829230559121a144ffb5a" target="_top" xlink:title=" ">
<polygon fill="white" stroke="black" points="148,-114.5 148,-133.5 310,-133.5 310,-114.5 148,-114.5"/>
<text text-anchor="middle" x="229" y="-121.5" font-family="Helvetica,sans-Serif" font-size="10.00">SendEthRequest_NoResponse</text>
</a>
</g>
</g>
<!-- Node1&#45;&gt;Node3 -->
<g id="edge2" class="edge">
<title>Node1&#45;&gt;Node3</title>
<path fill="none" stroke="midnightblue" d="M338.68,-97.96C329.18,-100.31 319.28,-102.75 310,-105 297.24,-108.1 283.32,-111.43 270.72,-114.41"/>
<polygon fill="midnightblue" stroke="midnightblue" points="339.52,-101.35 348.39,-95.55 337.84,-94.56 339.52,-101.35"/>
</g>
<!-- Node4 -->
<g id="node4" class="node">
<title>Node4</title>
<g id="a_node4"><a xlink:href="pokeysHal_2pokeyslib_2PoKeysLibCoreSockets_8c.html#aeec64d9e2d4a84b6bc913f75c2169d51" target="_top" xlink:title=" ">
<polygon fill="white" stroke="black" points="173,-76.5 173,-95.5 285,-95.5 285,-76.5 173,-76.5"/>
<text text-anchor="middle" x="229" y="-83.5" font-family="Helvetica,sans-Serif" font-size="10.00">SendEthRequestBig</text>
</a>
</g>
</g>
<!-- Node1&#45;&gt;Node4 -->
<g id="edge3" class="edge">
<title>Node1&#45;&gt;Node4</title>
<path fill="none" stroke="midnightblue" d="M335.51,-86C319.43,-86 301.6,-86 285.23,-86"/>
<polygon fill="midnightblue" stroke="midnightblue" points="335.79,-89.5 345.79,-86 335.79,-82.5 335.79,-89.5"/>
</g>
<!-- Node5 -->
<g id="node5" class="node">
<title>Node5</title>
<g id="a_node5"><a xlink:href="PoKeysLibCoreAsync_8c.html#ab5d92aa36d0a4a6953a055f5cd960aff" target="_top" xlink:title="Send a request and wait for a response (async context).">
<polygon fill="white" stroke="black" points="189,-38.5 189,-57.5 269,-57.5 269,-38.5 189,-38.5"/>
<text text-anchor="middle" x="229" y="-45.5" font-family="Helvetica,sans-Serif" font-size="10.00">SendRequest</text>
</a>
</g>
</g>
<!-- Node1&#45;&gt;Node5 -->
<g id="edge4" class="edge">
<title>Node1&#45;&gt;Node5</title>
<path fill="none" stroke="midnightblue" d="M338.68,-74.04C329.18,-71.69 319.28,-69.25 310,-67 296.68,-63.76 282.1,-60.28 269.08,-57.2"/>
<polygon fill="midnightblue" stroke="midnightblue" points="337.84,-77.44 348.39,-76.45 339.52,-70.65 337.84,-77.44"/>
</g>
<!-- Node7 -->
<g id="node7" class="node">
<title>Node7</title>
<g id="a_node7"><a xlink:href="PoKeysLibCoreAsync_8c.html#aa13f43984a7cb793f85a8850443f4f79" target="_top" xlink:title="Transmit a request without reading any reply.">
<polygon fill="white" stroke="black" points="156,-0.5 156,-19.5 302,-19.5 302,-0.5 156,-0.5"/>
<text text-anchor="middle" x="229" y="-7.5" font-family="Helvetica,sans-Serif" font-size="10.00">SendRequest_NoResponse</text>
</a>
</g>
</g>
<!-- Node1&#45;&gt;Node7 -->
<g id="edge6" class="edge">
<title>Node1&#45;&gt;Node7</title>
<path fill="none" stroke="midnightblue" d="M368.74,-69.43C354.05,-56.59 332.08,-39.31 310,-29 301.72,-25.14 292.58,-22.02 283.53,-19.51"/>
<polygon fill="midnightblue" stroke="midnightblue" points="366.72,-72.32 376.5,-76.39 371.39,-67.11 366.72,-72.32"/>
</g>
<!-- Node6 -->
<g id="node6" class="node">
<title>Node6</title>
<g id="a_node6"><a xlink:href="PoKeysLibCoreAsync_8c.html#a5e99bef619c902443eecbaacd8e0be19" target="_top" xlink:title="Send a command composed from the provided parameters.">
<polygon fill="white" stroke="black" points="0,-38.5 0,-57.5 112,-57.5 112,-38.5 0,-38.5"/>
<text text-anchor="middle" x="56" y="-45.5" font-family="Helvetica,sans-Serif" font-size="10.00">PK_CustomRequest</text>
</a>
</g>
</g>
<!-- Node5&#45;&gt;Node6 -->
<g id="edge5" class="edge">
<title>Node5&#45;&gt;Node6</title>
<path fill="none" stroke="midnightblue" d="M178.58,-48C157.82,-48 133.59,-48 112.25,-48"/>
<polygon fill="midnightblue" stroke="midnightblue" points="178.77,-51.5 188.77,-48 178.77,-44.5 178.77,-51.5"/>
</g>
</g>
</svg>
