<?xml version="1.0" encoding="UTF-8" standalone="no"?>
<!DOCTYPE svg PUBLIC "-//W3C//DTD SVG 1.1//EN"
 "http://www.w3.org/Graphics/SVG/1.1/DTD/svg11.dtd">
<!-- Generated by graphviz version 2.43.0 (0)
 -->
<!-- Title: PK_EnumerateFastUSBDevices Pages: 1 -->
<svg width="387pt" height="66pt"
 viewBox="0.00 0.00 387.00 66.00" xmlns="http://www.w3.org/2000/svg" xmlns:xlink="http://www.w3.org/1999/xlink">
<g id="graph0" class="graph" transform="scale(1 1) rotate(0) translate(4 62)">
<title>PK_EnumerateFastUSBDevices</title>
<polygon fill="white" stroke="transparent" points="-4,4 -4,-62 383,-62 383,4 -4,4"/>
<!-- Node1 -->
<g id="node1" class="node">
<title>Node1</title>
<g id="a_node1"><a xlink:title=" ">
<polygon fill="#bfbfbf" stroke="black" points="212,-19.5 212,-38.5 379,-38.5 379,-19.5 212,-19.5"/>
<text text-anchor="middle" x="295.5" y="-26.5" font-family="Helvetica,sans-Serif" font-size="10.00">PK_EnumerateFastUSBDevices</text>
</a>
</g>
</g>
<!-- Node2 -->
<g id="node2" class="node">
<title>Node2</title>
<g id="a_node2"><a xlink:href="experimental_2build_2PoKeysLibCoreAsync_8c.html#a2722ded598b35dcc0748e966668eb702" target="_top" xlink:title=" ">
<polygon fill="white" stroke="black" points="14.5,-38.5 14.5,-57.5 161.5,-57.5 161.5,-38.5 14.5,-38.5"/>
<text text-anchor="middle" x="88" y="-45.5" font-family="Helvetica,sans-Serif" font-size="10.00">PK_EnumerateUSBDevices</text>
</a>
</g>
</g>
<!-- Node1&#45;&gt;Node2 -->
<g id="edge1" class="edge">
<title>Node1&#45;&gt;Node2</title>
<path fill="none" stroke="midnightblue" d="M201.6,-37.59C188.18,-38.83 174.54,-40.09 161.6,-41.29"/>
<polygon fill="midnightblue" stroke="midnightblue" points="202.17,-41.05 211.8,-36.65 201.52,-34.08 202.17,-41.05"/>
</g>
<!-- Node3 -->
<g id="node3" class="node">
<title>Node3</title>
<g id="a_node3"><a xlink:href="experimental_2build_2PoKeysLibCoreAsync_8c.html#a64345b1360cd607f265f80948ce82170" target="_top" xlink:title=" ">
<polygon fill="white" stroke="black" points="0,-0.5 0,-19.5 176,-19.5 176,-0.5 0,-0.5"/>
<text text-anchor="middle" x="88" y="-7.5" font-family="Helvetica,sans-Serif" font-size="10.00">PK_EnumerateUSBDevicesAsync</text>
</a>
</g>
</g>
<!-- Node1&#45;&gt;Node3 -->
<g id="edge2" class="edge">
<title>Node1&#45;&gt;Node3</title>
<path fill="none" stroke="midnightblue" d="M201.57,-20.41C193.14,-19.63 184.61,-18.84 176.23,-18.06"/>
<polygon fill="midnightblue" stroke="midnightblue" points="201.52,-23.92 211.8,-21.35 202.17,-16.95 201.52,-23.92"/>
</g>
</g>
</svg>
