<?xml version="1.0" encoding="UTF-8" standalone="no"?>
<!DOCTYPE svg PUBLIC "-//W3C//DTD SVG 1.1//EN"
 "http://www.w3.org/Graphics/SVG/1.1/DTD/svg11.dtd">
<!-- Generated by graphviz version 2.43.0 (0)
 -->
<!-- Title: PK_CheckPinCapability Pages: 1 -->
<svg width="427pt" height="88pt"
 viewBox="0.00 0.00 427.00 88.00" xmlns="http://www.w3.org/2000/svg" xmlns:xlink="http://www.w3.org/1999/xlink">
<g id="graph0" class="graph" transform="scale(1 1) rotate(0) translate(4 84)">
<title>PK_CheckPinCapability</title>
<polygon fill="white" stroke="transparent" points="-4,4 -4,-84 423,-84 423,4 -4,4"/>
<!-- Node1 -->
<g id="node1" class="node">
<title>Node1</title>
<g id="a_node1"><a xlink:title="Wrapper for PK_CheckPinCapabilityByTypeID() using a device handle.">
<polygon fill="#bfbfbf" stroke="black" points="290,-30 290,-49 419,-49 419,-30 290,-30"/>
<text text-anchor="middle" x="354.5" y="-37" font-family="Helvetica,sans-Serif" font-size="10.00">PK_CheckPinCapability</text>
</a>
</g>
</g>
<!-- Node2 -->
<g id="node2" class="node">
<title>Node2</title>
<g id="a_node2"><a xlink:href="group__hal__component__pokeys.html#ga02a043bec3c186f454680d36aa9a9604" target="_top" xlink:title="Export HAL pins and parameters for PoKeys analog and digital I/O.">
<polygon fill="white" stroke="black" points="126,-49.5 126,-79.5 254,-79.5 254,-49.5 126,-49.5"/>
<text text-anchor="start" x="134" y="-67.5" font-family="Helvetica,sans-Serif" font-size="10.00">PoKeysHALComponent</text>
<text text-anchor="middle" x="190" y="-56.5" font-family="Helvetica,sans-Serif" font-size="10.00">::PKIO_export_pins</text>
</a>
</g>
</g>
<!-- Node1&#45;&gt;Node2 -->
<g id="edge1" class="edge">
<title>Node1&#45;&gt;Node2</title>
<path fill="none" stroke="midnightblue" d="M281.7,-50.55C272.49,-51.96 263.13,-53.4 254.07,-54.8"/>
<polygon fill="midnightblue" stroke="midnightblue" points="282.25,-54 291.6,-49.02 281.19,-47.08 282.25,-54"/>
</g>
<!-- Node3 -->
<g id="node3" class="node">
<title>Node3</title>
<g id="a_node3"><a xlink:href="group__hal__component__pokeys.html#ga053adc615433218543268696998c7f32" target="_top" xlink:title="Updates PoKeys I/O states from and to hardware.">
<polygon fill="white" stroke="black" points="126,-0.5 126,-30.5 254,-30.5 254,-0.5 126,-0.5"/>
<text text-anchor="start" x="134" y="-18.5" font-family="Helvetica,sans-Serif" font-size="10.00">PoKeysHALComponent</text>
<text text-anchor="middle" x="190" y="-7.5" font-family="Helvetica,sans-Serif" font-size="10.00">::PKIO_Update</text>
</a>
</g>
</g>
<!-- Node1&#45;&gt;Node3 -->
<g id="edge2" class="edge">
<title>Node1&#45;&gt;Node3</title>
<path fill="none" stroke="midnightblue" d="M279.74,-28.61C271.16,-27.34 262.46,-26.05 254.04,-24.81"/>
<polygon fill="midnightblue" stroke="midnightblue" points="279.34,-32.08 289.74,-30.08 280.36,-25.16 279.34,-32.08"/>
</g>
<!-- Node4 -->
<g id="node4" class="node">
<title>Node4</title>
<g id="a_node4"><a xlink:href="pokeys_8c.html#a6e89ee20635570c2e51b81bf26e895cc" target="_top" xlink:title=" ">
<polygon fill="white" stroke="black" points="0,-6 0,-25 90,-25 90,-6 0,-6"/>
<text text-anchor="middle" x="45" y="-13" font-family="Helvetica,sans-Serif" font-size="10.00">pokeys_update</text>
</a>
</g>
</g>
<!-- Node3&#45;&gt;Node4 -->
<g id="edge3" class="edge">
<title>Node3&#45;&gt;Node4</title>
<path fill="none" stroke="midnightblue" d="M115.72,-15.5C107.06,-15.5 98.44,-15.5 90.36,-15.5"/>
<polygon fill="midnightblue" stroke="midnightblue" points="115.86,-19 125.86,-15.5 115.86,-12 115.86,-19"/>
</g>
</g>
</svg>
