<?xml version="1.0" encoding="UTF-8" standalone="no"?>
<!DOCTYPE svg PUBLIC "-//W3C//DTD SVG 1.1//EN"
 "http://www.w3.org/Graphics/SVG/1.1/DTD/svg11.dtd">
<!-- Generated by graphviz version 2.43.0 (0)
 -->
<!-- Title: pokeys_update Pages: 1 -->
<svg width="1162pt" height="484pt"
 viewBox="0.00 0.00 1162.00 484.00" xmlns="http://www.w3.org/2000/svg" xmlns:xlink="http://www.w3.org/1999/xlink">
<g id="graph0" class="graph" transform="scale(1 1) rotate(0) translate(4 480)">
<title>pokeys_update</title>
<polygon fill="white" stroke="transparent" points="-4,4 -4,-480 1158,-480 1158,4 -4,4"/>
<!-- Node1 -->
<g id="node1" class="node">
<title>Node1</title>
<g id="a_node1"><a xlink:title=" ">
<polygon fill="#bfbfbf" stroke="black" points="0,-152.5 0,-171.5 90,-171.5 90,-152.5 0,-152.5"/>
<text text-anchor="middle" x="45" y="-159.5" font-family="Helvetica,sans-Serif" font-size="10.00">pokeys_update</text>
</a>
</g>
</g>
<!-- Node2 -->
<g id="node2" class="node">
<title>Node2</title>
<g id="a_node2"><a xlink:href="group__hal__component__pokeys.html#ga4282b939b3ee6e35a549933cfc1f70fa" target="_top" xlink:title="Updates encoder data from the PoKeys device and writes values to HAL pins.">
<polygon fill="white" stroke="black" points="299.5,-152.5 299.5,-171.5 408.5,-171.5 408.5,-152.5 299.5,-152.5"/>
<text text-anchor="middle" x="354" y="-159.5" font-family="Helvetica,sans-Serif" font-size="10.00">PKEncoder_Update</text>
</a>
</g>
</g>
<!-- Node1&#45;&gt;Node2 -->
<g id="edge1" class="edge">
<title>Node1&#45;&gt;Node2</title>
<path fill="none" stroke="midnightblue" d="M90.31,-162C142.58,-162 229.88,-162 289.37,-162"/>
<polygon fill="midnightblue" stroke="midnightblue" points="289.4,-165.5 299.4,-162 289.4,-158.5 289.4,-165.5"/>
</g>
<!-- Node4 -->
<g id="node4" class="node">
<title>Node4</title>
<g id="a_node4"><a xlink:href="group__hal__component__pokeys.html#ga053adc615433218543268696998c7f32" target="_top" xlink:title="Updates PoKeys I/O states from and to hardware.">
<polygon fill="white" stroke="black" points="290,-261 290,-291 418,-291 418,-261 290,-261"/>
<text text-anchor="start" x="298" y="-279" font-family="Helvetica,sans-Serif" font-size="10.00">PoKeysHALComponent</text>
<text text-anchor="middle" x="354" y="-268" font-family="Helvetica,sans-Serif" font-size="10.00">::PKIO_Update</text>
</a>
</g>
</g>
<!-- Node1&#45;&gt;Node4 -->
<g id="edge3" class="edge">
<title>Node1&#45;&gt;Node4</title>
<path fill="none" stroke="midnightblue" d="M56.57,-171.53C71.16,-184.2 98.75,-206.42 126,-219 174.87,-241.56 233.96,-256.04 279.59,-264.76"/>
<polygon fill="midnightblue" stroke="midnightblue" points="279.23,-268.25 289.7,-266.63 280.51,-261.37 279.23,-268.25"/>
</g>
<!-- Node24 -->
<g id="node24" class="node">
<title>Node24</title>
<g id="a_node24"><a xlink:href="group__hal__component__pokeys.html#ga11eaeb83988c4e23fca22c07885baf31" target="_top" xlink:title="Updates PulseEngine feedback and status.">
<polygon fill="white" stroke="black" points="126,-103 126,-133 254,-133 254,-103 126,-103"/>
<text text-anchor="start" x="134" y="-121" font-family="Helvetica,sans-Serif" font-size="10.00">PoKeysHALComponent</text>
<text text-anchor="middle" x="190" y="-110" font-family="Helvetica,sans-Serif" font-size="10.00">::PKPEv2_Update</text>
</a>
</g>
</g>
<!-- Node1&#45;&gt;Node24 -->
<g id="edge41" class="edge">
<title>Node1&#45;&gt;Node24</title>
<path fill="none" stroke="midnightblue" d="M77.03,-152.45C92.63,-147.65 112.05,-141.68 130.33,-136.05"/>
<polygon fill="midnightblue" stroke="midnightblue" points="131.51,-139.35 140.04,-133.07 129.45,-132.66 131.51,-139.35"/>
</g>
<!-- Node31 -->
<g id="node31" class="node">
<title>Node31</title>
<g id="a_node31"><a xlink:href="group__hal__component__pokeys.html#ga847756bee937458588675e919c70d798" target="_top" xlink:title="Updates the PoExtBus data from and to the PoKeys device.">
<polygon fill="white" stroke="black" points="132,-190.5 132,-209.5 248,-209.5 248,-190.5 132,-190.5"/>
<text text-anchor="middle" x="190" y="-197.5" font-family="Helvetica,sans-Serif" font-size="10.00">PKPoExtBus_Update</text>
</a>
</g>
</g>
<!-- Node1&#45;&gt;Node31 -->
<g id="edge55" class="edge">
<title>Node1&#45;&gt;Node31</title>
<path fill="none" stroke="midnightblue" d="M82.08,-171.59C100.63,-176.52 123.43,-182.57 143.2,-187.83"/>
<polygon fill="midnightblue" stroke="midnightblue" points="142.36,-191.23 152.93,-190.41 144.16,-184.46 142.36,-191.23"/>
</g>
<!-- Node32 -->
<g id="node32" class="node">
<title>Node32</title>
<g id="a_node32"><a xlink:href="group__hal__component__pokeys.html#ga4d76e6cd067bd57f2574e514294cc3f8" target="_top" xlink:title="Updates the state of the connected PoNET modules, specifically kbd48CNC.">
<polygon fill="white" stroke="black" points="140.5,-64.5 140.5,-83.5 239.5,-83.5 239.5,-64.5 140.5,-64.5"/>
<text text-anchor="middle" x="190" y="-71.5" font-family="Helvetica,sans-Serif" font-size="10.00">PKPoNet_Update</text>
</a>
</g>
</g>
<!-- Node1&#45;&gt;Node32 -->
<g id="edge57" class="edge">
<title>Node1&#45;&gt;Node32</title>
<path fill="none" stroke="midnightblue" d="M54.86,-152.07C68.65,-137.17 96.74,-109.07 126,-93 129.99,-90.81 134.27,-88.83 138.65,-87.07"/>
<polygon fill="midnightblue" stroke="midnightblue" points="140.14,-90.25 148.32,-83.53 137.73,-83.68 140.14,-90.25"/>
</g>
<!-- Node3 -->
<g id="node3" class="node">
<title>Node3</title>
<g id="a_node3"><a xlink:href="rtapi_8h.html#a2432d36976ec87e60c9c92d3c0067182" target="_top" xlink:title=" ">
<polygon fill="white" stroke="black" points="478.5,-114.5 478.5,-133.5 571.5,-133.5 571.5,-114.5 478.5,-114.5"/>
<text text-anchor="middle" x="525" y="-121.5" font-family="Helvetica,sans-Serif" font-size="10.00">rtapi_print_msg</text>
</a>
</g>
</g>
<!-- Node2&#45;&gt;Node3 -->
<g id="edge2" class="edge">
<title>Node2&#45;&gt;Node3</title>
<path fill="none" stroke="midnightblue" d="M397.65,-152.41C420.15,-147.35 447.95,-141.1 471.74,-135.75"/>
<polygon fill="midnightblue" stroke="midnightblue" points="472.67,-139.13 481.66,-133.52 471.14,-132.3 472.67,-139.13"/>
</g>
<!-- Node4&#45;&gt;Node3 -->
<g id="edge40" class="edge">
<title>Node4&#45;&gt;Node3</title>
<path fill="none" stroke="midnightblue" d="M373.42,-260.78C386.91,-248.98 405.05,-231.71 418,-214 438.88,-185.44 426.56,-165.34 454,-143 458.39,-139.42 463.41,-136.52 468.68,-134.15"/>
<polygon fill="midnightblue" stroke="midnightblue" points="470.29,-137.29 478.39,-130.47 467.8,-130.74 470.29,-137.29"/>
</g>
<!-- Node5 -->
<g id="node5" class="node">
<title>Node5</title>
<g id="a_node5"><a xlink:href="PoKeysLibIO_8c.html#aa3cbbaa7a57191d5e9d626757d45e396" target="_top" xlink:title=" ">
<polygon fill="white" stroke="black" points="477,-266.5 477,-285.5 573,-285.5 573,-266.5 477,-266.5"/>
<text text-anchor="middle" x="525" y="-273.5" font-family="Helvetica,sans-Serif" font-size="10.00">PK_AnalogIOGet</text>
</a>
</g>
</g>
<!-- Node4&#45;&gt;Node5 -->
<g id="edge4" class="edge">
<title>Node4&#45;&gt;Node5</title>
<path fill="none" stroke="midnightblue" d="M418.41,-276C434.31,-276 451.28,-276 466.86,-276"/>
<polygon fill="midnightblue" stroke="midnightblue" points="466.87,-279.5 476.87,-276 466.87,-272.5 466.87,-279.5"/>
</g>
<!-- Node13 -->
<g id="node13" class="node">
<title>Node13</title>
<g id="a_node13"><a xlink:href="PoKeysLibDeviceData_8c.html#a3e3806b8d08aea01d2e7d5e752ee63b3" target="_top" xlink:title=" ">
<polygon fill="white" stroke="black" points="460.5,-456.5 460.5,-475.5 589.5,-475.5 589.5,-456.5 460.5,-456.5"/>
<text text-anchor="middle" x="525" y="-463.5" font-family="Helvetica,sans-Serif" font-size="10.00">PK_CheckPinCapability</text>
</a>
</g>
</g>
<!-- Node4&#45;&gt;Node13 -->
<g id="edge13" class="edge">
<title>Node4&#45;&gt;Node13</title>
<path fill="none" stroke="midnightblue" d="M359.41,-291.22C369.93,-324.74 399.75,-405.28 454,-447 456.47,-448.9 459.11,-450.6 461.87,-452.14"/>
<polygon fill="midnightblue" stroke="midnightblue" points="460.49,-455.36 471.02,-456.49 463.49,-449.04 460.49,-455.36"/>
</g>
<!-- Node16 -->
<g id="node16" class="node">
<title>Node16</title>
<g id="a_node16"><a xlink:href="PoKeysLibIO_8c.html#a4c133a83e9843b4ed2842b0dd32c09c8" target="_top" xlink:title=" ">
<polygon fill="white" stroke="black" points="464,-380.5 464,-399.5 586,-399.5 586,-380.5 464,-380.5"/>
<text text-anchor="middle" x="525" y="-387.5" font-family="Helvetica,sans-Serif" font-size="10.00">PK_DigitalCounterGet</text>
</a>
</g>
</g>
<!-- Node4&#45;&gt;Node16 -->
<g id="edge16" class="edge">
<title>Node4&#45;&gt;Node16</title>
<path fill="none" stroke="midnightblue" d="M366.69,-291.27C383.65,-312.35 417.1,-350.12 454,-371 457.93,-373.22 462.13,-375.2 466.45,-376.94"/>
<polygon fill="midnightblue" stroke="midnightblue" points="465.44,-380.3 476.04,-380.43 467.83,-373.72 465.44,-380.3"/>
</g>
<!-- Node18 -->
<g id="node18" class="node">
<title>Node18</title>
<g id="a_node18"><a xlink:href="PoKeysLibIO_8c.html#a281ff3583d597f6702bd26bdde9f06d3" target="_top" xlink:title=" ">
<polygon fill="white" stroke="black" points="477.5,-228.5 477.5,-247.5 572.5,-247.5 572.5,-228.5 477.5,-228.5"/>
<text text-anchor="middle" x="525" y="-235.5" font-family="Helvetica,sans-Serif" font-size="10.00">PK_DigitalIOGet</text>
</a>
</g>
</g>
<!-- Node4&#45;&gt;Node18 -->
<g id="edge21" class="edge">
<title>Node4&#45;&gt;Node18</title>
<path fill="none" stroke="midnightblue" d="M418.41,-261.74C435.86,-257.82 454.6,-253.61 471.37,-249.83"/>
<polygon fill="midnightblue" stroke="midnightblue" points="472.54,-253.16 481.53,-247.55 471,-246.33 472.54,-253.16"/>
</g>
<!-- Node19 -->
<g id="node19" class="node">
<title>Node19</title>
<g id="a_node19"><a xlink:href="PoKeysLibIO_8c.html#a0d3c2b4f13d7f9e1adecd75102106b4b" target="_top" xlink:title=" ">
<polygon fill="white" stroke="black" points="478.5,-190.5 478.5,-209.5 571.5,-209.5 571.5,-190.5 478.5,-190.5"/>
<text text-anchor="middle" x="525" y="-197.5" font-family="Helvetica,sans-Serif" font-size="10.00">PK_DigitalIOSet</text>
</a>
</g>
</g>
<!-- Node4&#45;&gt;Node19 -->
<g id="edge24" class="edge">
<title>Node4&#45;&gt;Node19</title>
<path fill="none" stroke="midnightblue" d="M377.34,-260.9C396.87,-248.26 426.34,-230.49 454,-219 459.8,-216.59 466,-214.4 472.22,-212.43"/>
<polygon fill="midnightblue" stroke="midnightblue" points="473.37,-215.74 481.95,-209.53 471.37,-209.03 473.37,-215.74"/>
</g>
<!-- Node20 -->
<g id="node20" class="node">
<title>Node20</title>
<g id="a_node20"><a xlink:href="PoKeysLibIO_8c.html#a7540328350bf7a0de8d4cd968eb81068" target="_top" xlink:title=" ">
<polygon fill="white" stroke="black" points="459,-418.5 459,-437.5 591,-437.5 591,-418.5 459,-418.5"/>
<text text-anchor="middle" x="525" y="-425.5" font-family="Helvetica,sans-Serif" font-size="10.00">PK_PinConfigurationGet</text>
</a>
</g>
</g>
<!-- Node4&#45;&gt;Node20 -->
<g id="edge27" class="edge">
<title>Node4&#45;&gt;Node20</title>
<path fill="none" stroke="midnightblue" d="M362.12,-291.38C375.82,-319.25 408.56,-378.05 454,-409 456.95,-411.01 460.11,-412.81 463.39,-414.42"/>
<polygon fill="midnightblue" stroke="midnightblue" points="462.32,-417.77 472.89,-418.47 465.06,-411.33 462.32,-417.77"/>
</g>
<!-- Node21 -->
<g id="node21" class="node">
<title>Node21</title>
<g id="a_node21"><a xlink:href="PoKeysLibIO_8c.html#a5bbc9f37369faac5fbbe357a9393b8ae" target="_top" xlink:title=" ">
<polygon fill="white" stroke="black" points="454,-152.5 454,-171.5 596,-171.5 596,-152.5 454,-152.5"/>
<text text-anchor="middle" x="525" y="-159.5" font-family="Helvetica,sans-Serif" font-size="10.00">PK_PWMConfigurationGet</text>
</a>
</g>
</g>
<!-- Node4&#45;&gt;Node21 -->
<g id="edge31" class="edge">
<title>Node4&#45;&gt;Node21</title>
<path fill="none" stroke="midnightblue" d="M370.37,-260.87C396.93,-234.77 449.08,-183.79 454,-181 457.93,-178.78 462.13,-176.8 466.45,-175.06"/>
<polygon fill="midnightblue" stroke="midnightblue" points="467.83,-178.28 476.04,-171.57 465.44,-171.7 467.83,-178.28"/>
</g>
<!-- Node22 -->
<g id="node22" class="node">
<title>Node22</title>
<g id="a_node22"><a xlink:href="PoKeysLibIO_8c.html#a74a7b181f1bbb877bb965343a64d43e2" target="_top" xlink:title=" ">
<polygon fill="white" stroke="black" points="455,-342.5 455,-361.5 595,-361.5 595,-342.5 455,-342.5"/>
<text text-anchor="middle" x="525" y="-349.5" font-family="Helvetica,sans-Serif" font-size="10.00">PK_PWMConfigurationSet</text>
</a>
</g>
</g>
<!-- Node4&#45;&gt;Node22 -->
<g id="edge34" class="edge">
<title>Node4&#45;&gt;Node22</title>
<path fill="none" stroke="midnightblue" d="M377.34,-291.1C396.87,-303.74 426.34,-321.51 454,-333 459.8,-335.41 466,-337.6 472.22,-339.57"/>
<polygon fill="midnightblue" stroke="midnightblue" points="471.37,-342.97 481.95,-342.47 473.37,-336.26 471.37,-342.97"/>
</g>
<!-- Node23 -->
<g id="node23" class="node">
<title>Node23</title>
<g id="a_node23"><a xlink:href="PoKeysLibIO_8c.html#a2fef84a920878e3060d96217731123fa" target="_top" xlink:title=" ">
<polygon fill="white" stroke="black" points="477.5,-304.5 477.5,-323.5 572.5,-323.5 572.5,-304.5 477.5,-304.5"/>
<text text-anchor="middle" x="525" y="-311.5" font-family="Helvetica,sans-Serif" font-size="10.00">PK_PWMUpdate</text>
</a>
</g>
</g>
<!-- Node4&#45;&gt;Node23 -->
<g id="edge37" class="edge">
<title>Node4&#45;&gt;Node23</title>
<path fill="none" stroke="midnightblue" d="M418.41,-290.26C435.86,-294.18 454.6,-298.39 471.37,-302.17"/>
<polygon fill="midnightblue" stroke="midnightblue" points="471,-305.67 481.53,-304.45 472.54,-298.84 471,-305.67"/>
</g>
<!-- Node6 -->
<g id="node6" class="node">
<title>Node6</title>
<g id="a_node6"><a xlink:href="PoKeysLibCore_8c.html#acb1fdd8f77277dc66c4d037218bfcece" target="_top" xlink:title=" ">
<polygon fill="white" stroke="black" points="675,-228.5 675,-247.5 764,-247.5 764,-228.5 675,-228.5"/>
<text text-anchor="middle" x="719.5" y="-235.5" font-family="Helvetica,sans-Serif" font-size="10.00">CreateRequest</text>
</a>
</g>
</g>
<!-- Node5&#45;&gt;Node6 -->
<g id="edge5" class="edge">
<title>Node5&#45;&gt;Node6</title>
<path fill="none" stroke="midnightblue" d="M573.09,-266.7C600.87,-261.22 636.12,-254.26 664.95,-248.57"/>
<polygon fill="midnightblue" stroke="midnightblue" points="665.73,-251.98 674.86,-246.61 664.37,-245.12 665.73,-251.98"/>
</g>
<!-- Node7 -->
<g id="node7" class="node">
<title>Node7</title>
<g id="a_node7"><a xlink:href="PoKeysLibCore_8c.html#ab5d92aa36d0a4a6953a055f5cd960aff" target="_top" xlink:title=" ">
<polygon fill="white" stroke="black" points="679.5,-266.5 679.5,-285.5 759.5,-285.5 759.5,-266.5 679.5,-266.5"/>
<text text-anchor="middle" x="719.5" y="-273.5" font-family="Helvetica,sans-Serif" font-size="10.00">SendRequest</text>
</a>
</g>
</g>
<!-- Node5&#45;&gt;Node7 -->
<g id="edge6" class="edge">
<title>Node5&#45;&gt;Node7</title>
<path fill="none" stroke="midnightblue" d="M573.09,-276C602.26,-276 639.67,-276 669.24,-276"/>
<polygon fill="midnightblue" stroke="midnightblue" points="669.35,-279.5 679.35,-276 669.35,-272.5 669.35,-279.5"/>
</g>
<!-- Node8 -->
<g id="node8" class="node">
<title>Node8</title>
<g id="a_node8"><a xlink:href="PoKeysLibCore_8c.html#a273b6d635dea8f559b915cdb289d021e" target="_top" xlink:title=" ">
<polygon fill="white" stroke="black" points="1061.5,-304.5 1061.5,-323.5 1144.5,-323.5 1144.5,-304.5 1061.5,-304.5"/>
<text text-anchor="middle" x="1103" y="-311.5" font-family="Helvetica,sans-Serif" font-size="10.00">getChecksum</text>
</a>
</g>
</g>
<!-- Node7&#45;&gt;Node8 -->
<g id="edge7" class="edge">
<title>Node7&#45;&gt;Node8</title>
<path fill="none" stroke="midnightblue" d="M759.53,-279.89C829.05,-286.81 974.23,-301.27 1051.34,-308.95"/>
<polygon fill="midnightblue" stroke="midnightblue" points="1051,-312.44 1061.3,-309.95 1051.69,-305.47 1051,-312.44"/>
</g>
<!-- Node9 -->
<g id="node9" class="node">
<title>Node9</title>
<g id="a_node9"><a xlink:href="group__API.html#ga6b820f3e72097cf7f994e33715dc7af1" target="_top" xlink:title="Read an Input report from a HID device.">
<polygon fill="white" stroke="black" points="900,-247.5 900,-266.5 959,-266.5 959,-247.5 900,-247.5"/>
<text text-anchor="middle" x="929.5" y="-254.5" font-family="Helvetica,sans-Serif" font-size="10.00">hid_read</text>
</a>
</g>
</g>
<!-- Node7&#45;&gt;Node9 -->
<g id="edge8" class="edge">
<title>Node7&#45;&gt;Node9</title>
<path fill="none" stroke="midnightblue" d="M759.62,-272.43C796.79,-269.03 852.36,-263.95 889.49,-260.56"/>
<polygon fill="midnightblue" stroke="midnightblue" points="890.27,-264.01 899.91,-259.61 889.63,-257.04 890.27,-264.01"/>
</g>
<!-- Node11 -->
<g id="node11" class="node">
<title>Node11</title>
<g id="a_node11"><a xlink:href="group__API.html#gad14ea48e440cf5066df87cc6488493af" target="_top" xlink:title="Write an Output report to a HID device.">
<polygon fill="white" stroke="black" points="898.5,-209.5 898.5,-228.5 960.5,-228.5 960.5,-209.5 898.5,-209.5"/>
<text text-anchor="middle" x="929.5" y="-216.5" font-family="Helvetica,sans-Serif" font-size="10.00">hid_write</text>
</a>
</g>
</g>
<!-- Node7&#45;&gt;Node11 -->
<g id="edge10" class="edge">
<title>Node7&#45;&gt;Node11</title>
<path fill="none" stroke="midnightblue" d="M759.89,-269.67C774.89,-266.66 791.98,-262.5 807,-257 823.99,-250.78 826.02,-244.24 843,-238 857.36,-232.72 873.63,-228.66 888.1,-225.67"/>
<polygon fill="midnightblue" stroke="midnightblue" points="889.12,-229.04 898.26,-223.68 887.78,-222.17 889.12,-229.04"/>
</g>
<!-- Node12 -->
<g id="node12" class="node">
<title>Node12</title>
<g id="a_node12"><a xlink:href="PoKeysLibCoreSockets_8c.html#a22759fb4024c9081af26ac1bc6541b47" target="_top" xlink:title=" ">
<polygon fill="white" stroke="black" points="881.5,-323.5 881.5,-342.5 977.5,-342.5 977.5,-323.5 881.5,-323.5"/>
<text text-anchor="middle" x="929.5" y="-330.5" font-family="Helvetica,sans-Serif" font-size="10.00">SendEthRequest</text>
</a>
</g>
</g>
<!-- Node7&#45;&gt;Node12 -->
<g id="edge11" class="edge">
<title>Node7&#45;&gt;Node12</title>
<path fill="none" stroke="midnightblue" d="M755.31,-285.54C790.56,-295.2 845.21,-310.18 883.67,-320.72"/>
<polygon fill="midnightblue" stroke="midnightblue" points="883,-324.16 893.57,-323.43 884.85,-317.41 883,-324.16"/>
</g>
<!-- Node10 -->
<g id="node10" class="node">
<title>Node10</title>
<g id="a_node10"><a xlink:href="group__API.html#gaa5c9ed5aa290688ffac03343989ad75a" target="_top" xlink:title="Read an Input report from a HID device with timeout.">
<polygon fill="white" stroke="black" points="1052,-247.5 1052,-266.5 1154,-266.5 1154,-247.5 1052,-247.5"/>
<text text-anchor="middle" x="1103" y="-254.5" font-family="Helvetica,sans-Serif" font-size="10.00">hid_read_timeout</text>
</a>
</g>
</g>
<!-- Node9&#45;&gt;Node10 -->
<g id="edge9" class="edge">
<title>Node9&#45;&gt;Node10</title>
<path fill="none" stroke="midnightblue" d="M959.21,-257C981.63,-257 1013.57,-257 1041.56,-257"/>
<polygon fill="midnightblue" stroke="midnightblue" points="1041.67,-260.5 1051.67,-257 1041.67,-253.5 1041.67,-260.5"/>
</g>
<!-- Node12&#45;&gt;Node8 -->
<g id="edge12" class="edge">
<title>Node12&#45;&gt;Node8</title>
<path fill="none" stroke="midnightblue" d="M977.82,-327.76C1000.62,-325.23 1027.99,-322.2 1051.23,-319.63"/>
<polygon fill="midnightblue" stroke="midnightblue" points="1051.69,-323.1 1061.24,-318.52 1050.92,-316.14 1051.69,-323.1"/>
</g>
<!-- Node14 -->
<g id="node14" class="node">
<title>Node14</title>
<g id="a_node14"><a xlink:href="PoKeysLibDeviceData_8c.html#a7b36c724a486431479416439a5d943c9" target="_top" xlink:title=" ">
<polygon fill="white" stroke="black" points="632,-456.5 632,-475.5 807,-475.5 807,-456.5 632,-456.5"/>
<text text-anchor="middle" x="719.5" y="-463.5" font-family="Helvetica,sans-Serif" font-size="10.00">PK_CheckPinCapabilityByTypeID</text>
</a>
</g>
</g>
<!-- Node13&#45;&gt;Node14 -->
<g id="edge14" class="edge">
<title>Node13&#45;&gt;Node14</title>
<path fill="none" stroke="midnightblue" d="M589.57,-466C599.96,-466 610.94,-466 621.92,-466"/>
<polygon fill="midnightblue" stroke="midnightblue" points="621.99,-469.5 631.99,-466 621.99,-462.5 621.99,-469.5"/>
</g>
<!-- Node15 -->
<g id="node15" class="node">
<title>Node15</title>
<g id="a_node15"><a xlink:href="PoKeysLibIO_8c.html#ae7007ad0d96ba1ff2fadba2101016ce7" target="_top" xlink:title=" ">
<polygon fill="white" stroke="black" points="843,-437.5 843,-456.5 1016,-456.5 1016,-437.5 843,-437.5"/>
<text text-anchor="middle" x="929.5" y="-444.5" font-family="Helvetica,sans-Serif" font-size="10.00">PK_IsCounterAvailableByDevice</text>
</a>
</g>
</g>
<!-- Node14&#45;&gt;Node15 -->
<g id="edge15" class="edge">
<title>Node14&#45;&gt;Node15</title>
<path fill="none" stroke="midnightblue" d="M807.2,-458.08C815.7,-457.3 824.35,-456.51 832.92,-455.73"/>
<polygon fill="midnightblue" stroke="midnightblue" points="833.3,-459.21 842.94,-454.82 832.66,-452.24 833.3,-459.21"/>
</g>
<!-- Node16&#45;&gt;Node6 -->
<g id="edge17" class="edge">
<title>Node16&#45;&gt;Node6</title>
<path fill="none" stroke="midnightblue" d="M582.28,-380.39C587.31,-377.92 592,-374.84 596,-371 634.33,-334.2 592.78,-292.85 632,-257 641.04,-248.73 652.84,-243.77 664.79,-240.86"/>
<polygon fill="midnightblue" stroke="midnightblue" points="665.69,-244.25 674.82,-238.87 664.33,-237.38 665.69,-244.25"/>
</g>
<!-- Node16&#45;&gt;Node7 -->
<g id="edge20" class="edge">
<title>Node16&#45;&gt;Node7</title>
<path fill="none" stroke="midnightblue" d="M571.41,-380.49C579.8,-377.95 588.34,-374.82 596,-371 637.83,-350.15 679.29,-313.87 701.62,-292.69"/>
<polygon fill="midnightblue" stroke="midnightblue" points="704.18,-295.08 708.95,-285.62 699.32,-290.04 704.18,-295.08"/>
</g>
<!-- Node17 -->
<g id="node17" class="node">
<title>Node17</title>
<g id="a_node17"><a xlink:href="PoKeysLibIO_8c.html#a4397536c30fe3f56eb74b56210839349" target="_top" xlink:title=" ">
<polygon fill="white" stroke="black" points="656.5,-418.5 656.5,-437.5 782.5,-437.5 782.5,-418.5 656.5,-418.5"/>
<text text-anchor="middle" x="719.5" y="-425.5" font-family="Helvetica,sans-Serif" font-size="10.00">PK_IsCounterAvailable</text>
</a>
</g>
</g>
<!-- Node16&#45;&gt;Node17 -->
<g id="edge18" class="edge">
<title>Node16&#45;&gt;Node17</title>
<path fill="none" stroke="midnightblue" d="M574.58,-399.59C600.66,-404.74 633.01,-411.12 660.42,-416.53"/>
<polygon fill="midnightblue" stroke="midnightblue" points="659.78,-419.98 670.27,-418.48 661.14,-413.11 659.78,-419.98"/>
</g>
<!-- Node17&#45;&gt;Node15 -->
<g id="edge19" class="edge">
<title>Node17&#45;&gt;Node15</title>
<path fill="none" stroke="midnightblue" d="M782.63,-433.67C798.44,-435.12 815.8,-436.71 832.86,-438.26"/>
<polygon fill="midnightblue" stroke="midnightblue" points="832.57,-441.75 842.85,-439.18 833.21,-434.78 832.57,-441.75"/>
</g>
<!-- Node18&#45;&gt;Node6 -->
<g id="edge22" class="edge">
<title>Node18&#45;&gt;Node6</title>
<path fill="none" stroke="midnightblue" d="M572.6,-238C600.35,-238 635.68,-238 664.62,-238"/>
<polygon fill="midnightblue" stroke="midnightblue" points="664.97,-241.5 674.97,-238 664.97,-234.5 664.97,-241.5"/>
</g>
<!-- Node18&#45;&gt;Node7 -->
<g id="edge23" class="edge">
<title>Node18&#45;&gt;Node7</title>
<path fill="none" stroke="midnightblue" d="M572.6,-247.2C601.86,-252.98 639.56,-260.42 669.3,-266.29"/>
<polygon fill="midnightblue" stroke="midnightblue" points="668.98,-269.79 679.47,-268.29 670.33,-262.92 668.98,-269.79"/>
</g>
<!-- Node19&#45;&gt;Node6 -->
<g id="edge25" class="edge">
<title>Node19&#45;&gt;Node6</title>
<path fill="none" stroke="midnightblue" d="M571.62,-209.01C599.57,-214.52 635.47,-221.61 664.79,-227.4"/>
<polygon fill="midnightblue" stroke="midnightblue" points="664.37,-230.88 674.86,-229.39 665.73,-224.02 664.37,-230.88"/>
</g>
<!-- Node19&#45;&gt;Node7 -->
<g id="edge26" class="edge">
<title>Node19&#45;&gt;Node7</title>
<path fill="none" stroke="midnightblue" d="M571.55,-208.47C580.02,-211.11 588.54,-214.54 596,-219 615.97,-230.94 611.75,-245.56 632,-257 643.3,-263.39 656.56,-267.63 669.25,-270.44"/>
<polygon fill="midnightblue" stroke="midnightblue" points="668.77,-273.91 679.26,-272.41 670.12,-267.05 668.77,-273.91"/>
</g>
<!-- Node20&#45;&gt;Node6 -->
<g id="edge28" class="edge">
<title>Node20&#45;&gt;Node6</title>
<path fill="none" stroke="midnightblue" d="M583.25,-418.33C587.97,-415.86 592.32,-412.8 596,-409 644.29,-359.12 582.51,-305.69 632,-257 640.82,-248.32 652.64,-243.22 664.71,-240.31"/>
<polygon fill="midnightblue" stroke="midnightblue" points="665.69,-243.69 674.84,-238.35 664.35,-236.81 665.69,-243.69"/>
</g>
<!-- Node20&#45;&gt;Node7 -->
<g id="edge30" class="edge">
<title>Node20&#45;&gt;Node7</title>
<path fill="none" stroke="midnightblue" d="M575.28,-418.41C582.51,-415.94 589.65,-412.86 596,-409 645.42,-378.99 687.14,-323.32 706.65,-294.44"/>
<polygon fill="midnightblue" stroke="midnightblue" points="709.8,-296.03 712.4,-285.76 703.97,-292.17 709.8,-296.03"/>
</g>
<!-- Node20&#45;&gt;Node17 -->
<g id="edge29" class="edge">
<title>Node20&#45;&gt;Node17</title>
<path fill="none" stroke="midnightblue" d="M591.17,-428C608.85,-428 628.1,-428 646.15,-428"/>
<polygon fill="midnightblue" stroke="midnightblue" points="646.32,-431.5 656.32,-428 646.32,-424.5 646.32,-431.5"/>
</g>
<!-- Node21&#45;&gt;Node6 -->
<g id="edge32" class="edge">
<title>Node21&#45;&gt;Node6</title>
<path fill="none" stroke="midnightblue" d="M565.98,-171.59C575.89,-174.31 586.42,-177.5 596,-181 629.65,-193.29 666.75,-211.21 691.21,-223.66"/>
<polygon fill="midnightblue" stroke="midnightblue" points="689.75,-226.84 700.24,-228.3 692.95,-220.62 689.75,-226.84"/>
</g>
<!-- Node21&#45;&gt;Node7 -->
<g id="edge33" class="edge">
<title>Node21&#45;&gt;Node7</title>
<path fill="none" stroke="midnightblue" d="M580.36,-171.56C586.01,-174.03 591.36,-177.12 596,-181 624.66,-204.98 602.76,-233.72 632,-257 642.54,-265.39 656.01,-270.27 669.16,-273.05"/>
<polygon fill="midnightblue" stroke="midnightblue" points="668.64,-276.51 679.1,-274.79 669.85,-269.61 668.64,-276.51"/>
</g>
<!-- Node22&#45;&gt;Node6 -->
<g id="edge35" class="edge">
<title>Node22&#45;&gt;Node6</title>
<path fill="none" stroke="midnightblue" d="M580.36,-342.44C586.01,-339.97 591.36,-336.88 596,-333 624.66,-309.02 602.76,-280.28 632,-257 641.4,-249.52 653.12,-244.83 664.86,-241.94"/>
<polygon fill="midnightblue" stroke="midnightblue" points="665.6,-245.36 674.69,-239.9 664.18,-238.5 665.6,-245.36"/>
</g>
<!-- Node22&#45;&gt;Node7 -->
<g id="edge36" class="edge">
<title>Node22&#45;&gt;Node7</title>
<path fill="none" stroke="midnightblue" d="M565.98,-342.41C575.89,-339.69 586.42,-336.5 596,-333 629.65,-320.71 666.75,-302.79 691.21,-290.34"/>
<polygon fill="midnightblue" stroke="midnightblue" points="692.95,-293.38 700.24,-285.7 689.75,-287.16 692.95,-293.38"/>
</g>
<!-- Node23&#45;&gt;Node6 -->
<g id="edge38" class="edge">
<title>Node23&#45;&gt;Node6</title>
<path fill="none" stroke="midnightblue" d="M572.65,-305.18C580.76,-302.59 588.87,-299.26 596,-295 615.97,-283.06 611.75,-268.44 632,-257 642.04,-251.33 653.63,-247.34 664.99,-244.55"/>
<polygon fill="midnightblue" stroke="midnightblue" points="665.85,-247.95 674.87,-242.39 664.36,-241.11 665.85,-247.95"/>
</g>
<!-- Node23&#45;&gt;Node7 -->
<g id="edge39" class="edge">
<title>Node23&#45;&gt;Node7</title>
<path fill="none" stroke="midnightblue" d="M572.6,-304.8C601.86,-299.02 639.56,-291.58 669.3,-285.71"/>
<polygon fill="midnightblue" stroke="midnightblue" points="670.33,-289.08 679.47,-283.71 668.98,-282.21 670.33,-289.08"/>
</g>
<!-- Node24&#45;&gt;Node3 -->
<g id="edge54" class="edge">
<title>Node24&#45;&gt;Node3</title>
<path fill="none" stroke="midnightblue" d="M254.03,-119.14C315.75,-120.25 408.9,-121.93 468.07,-122.99"/>
<polygon fill="midnightblue" stroke="midnightblue" points="468.28,-126.5 478.34,-123.18 468.41,-119.5 468.28,-126.5"/>
</g>
<!-- Node25 -->
<g id="node25" class="node">
<title>Node25</title>
<g id="a_node25"><a xlink:href="group__hal__component__pokeys.html#gad0b4254d4beb35bce80cf4a89199b554" target="_top" xlink:title="Reads and updates the state of dedicated limit and home inputs from the PoKeys Pulse Engine v2.">
<polygon fill="white" stroke="black" points="304,-76.5 304,-95.5 404,-95.5 404,-76.5 304,-76.5"/>
<text text-anchor="middle" x="354" y="-83.5" font-family="Helvetica,sans-Serif" font-size="10.00">PEv2_Status2Get</text>
</a>
</g>
</g>
<!-- Node24&#45;&gt;Node25 -->
<g id="edge42" class="edge">
<title>Node24&#45;&gt;Node25</title>
<path fill="none" stroke="midnightblue" d="M254.1,-105.54C267.55,-102.88 281.69,-100.09 294.94,-97.47"/>
<polygon fill="midnightblue" stroke="midnightblue" points="295.75,-100.88 304.88,-95.51 294.39,-94.01 295.75,-100.88"/>
</g>
<!-- Node28 -->
<g id="node28" class="node">
<title>Node28</title>
<g id="a_node28"><a xlink:href="group__hal__component__pokeys.html#ga1cd78f86e93af262648c35386373cf3c" target="_top" xlink:title="Retrieves and processes the current status of the PoKeys Pulse Engine v2 (PEv2).">
<polygon fill="white" stroke="black" points="307,-38.5 307,-57.5 401,-57.5 401,-38.5 307,-38.5"/>
<text text-anchor="middle" x="354" y="-45.5" font-family="Helvetica,sans-Serif" font-size="10.00">PEv2_StatusGet</text>
</a>
</g>
</g>
<!-- Node24&#45;&gt;Node28 -->
<g id="edge48" class="edge">
<title>Node24&#45;&gt;Node28</title>
<path fill="none" stroke="midnightblue" d="M233.35,-102.88C240.38,-99.89 247.5,-96.56 254,-93 271.31,-83.51 272.31,-75.75 290,-67 294.56,-64.75 299.43,-62.7 304.38,-60.87"/>
<polygon fill="midnightblue" stroke="midnightblue" points="305.59,-64.15 313.91,-57.58 303.31,-57.53 305.59,-64.15"/>
</g>
<!-- Node25&#45;&gt;Node3 -->
<g id="edge47" class="edge">
<title>Node25&#45;&gt;Node3</title>
<path fill="none" stroke="midnightblue" d="M397.65,-95.59C420.15,-100.65 447.95,-106.9 471.74,-112.25"/>
<polygon fill="midnightblue" stroke="midnightblue" points="471.14,-115.7 481.66,-114.48 472.67,-108.87 471.14,-115.7"/>
</g>
<!-- Node26 -->
<g id="node26" class="node">
<title>Node26</title>
<g id="a_node26"><a xlink:href="group__hal__component__pokeys.html#gaacbe6bf27e2657b69cbd0a4f79140e2d" target="_top" xlink:title="Retrieves the value of a specific bit in a byte.">
<polygon fill="white" stroke="black" points="482,-38.5 482,-57.5 568,-57.5 568,-38.5 482,-38.5"/>
<text text-anchor="middle" x="525" y="-45.5" font-family="Helvetica,sans-Serif" font-size="10.00">Get_BitOfByte</text>
</a>
</g>
</g>
<!-- Node25&#45;&gt;Node26 -->
<g id="edge43" class="edge">
<title>Node25&#45;&gt;Node26</title>
<path fill="none" stroke="midnightblue" d="M397.65,-76.41C420.23,-71.33 448.16,-65.05 472.01,-59.69"/>
<polygon fill="midnightblue" stroke="midnightblue" points="472.96,-63.06 481.95,-57.45 471.43,-56.23 472.96,-63.06"/>
</g>
<!-- Node27 -->
<g id="node27" class="node">
<title>Node27</title>
<g id="a_node27"><a xlink:href="PoKeysLibPulseEngine__v2_8c.html#a5cbfd274854dfee2aa6a756c86896939" target="_top" xlink:title=" ">
<polygon fill="white" stroke="black" points="466,-76.5 466,-95.5 584,-95.5 584,-76.5 466,-76.5"/>
<text text-anchor="middle" x="525" y="-83.5" font-family="Helvetica,sans-Serif" font-size="10.00">PK_PEv2_Status2Get</text>
</a>
</g>
</g>
<!-- Node25&#45;&gt;Node27 -->
<g id="edge44" class="edge">
<title>Node25&#45;&gt;Node27</title>
<path fill="none" stroke="midnightblue" d="M404.34,-86C420.46,-86 438.67,-86 455.92,-86"/>
<polygon fill="midnightblue" stroke="midnightblue" points="455.95,-89.5 465.95,-86 455.95,-82.5 455.95,-89.5"/>
</g>
<!-- Node27&#45;&gt;Node6 -->
<g id="edge45" class="edge">
<title>Node27&#45;&gt;Node6</title>
<path fill="none" stroke="midnightblue" d="M575.28,-95.59C582.51,-98.06 589.65,-101.14 596,-105 645.42,-135.01 687.14,-190.68 706.65,-219.56"/>
<polygon fill="midnightblue" stroke="midnightblue" points="703.97,-221.83 712.4,-228.24 709.8,-217.97 703.97,-221.83"/>
</g>
<!-- Node27&#45;&gt;Node7 -->
<g id="edge46" class="edge">
<title>Node27&#45;&gt;Node7</title>
<path fill="none" stroke="midnightblue" d="M583.25,-95.67C587.97,-98.14 592.32,-101.2 596,-105 644.29,-154.88 582.51,-208.31 632,-257 641.87,-266.71 655.5,-271.94 669.02,-274.64"/>
<polygon fill="midnightblue" stroke="midnightblue" points="668.86,-278.16 679.28,-276.24 669.94,-271.24 668.86,-278.16"/>
</g>
<!-- Node28&#45;&gt;Node3 -->
<g id="edge53" class="edge">
<title>Node28&#45;&gt;Node3</title>
<path fill="none" stroke="midnightblue" d="M397.66,-57.55C404.73,-60.06 411.78,-63.16 418,-67 437.8,-79.21 434.03,-93.06 454,-105 458.66,-107.79 463.74,-110.17 468.96,-112.22"/>
<polygon fill="midnightblue" stroke="midnightblue" points="467.86,-115.54 478.45,-115.53 470.17,-108.93 467.86,-115.54"/>
</g>
<!-- Node29 -->
<g id="node29" class="node">
<title>Node29</title>
<g id="a_node29"><a xlink:href="PoKeysLibPulseEngine__v2_8c.html#a213445f67d5be94e76abcbfca950512d" target="_top" xlink:title=" ">
<polygon fill="white" stroke="black" points="469,-0.5 469,-19.5 581,-19.5 581,-0.5 469,-0.5"/>
<text text-anchor="middle" x="525" y="-7.5" font-family="Helvetica,sans-Serif" font-size="10.00">PK_PEv2_StatusGet</text>
</a>
</g>
</g>
<!-- Node28&#45;&gt;Node29 -->
<g id="edge49" class="edge">
<title>Node28&#45;&gt;Node29</title>
<path fill="none" stroke="midnightblue" d="M397.65,-38.41C420.15,-33.35 447.95,-27.1 471.74,-21.75"/>
<polygon fill="midnightblue" stroke="midnightblue" points="472.67,-25.13 481.66,-19.52 471.14,-18.3 472.67,-25.13"/>
</g>
<!-- Node29&#45;&gt;Node6 -->
<g id="edge50" class="edge">
<title>Node29&#45;&gt;Node6</title>
<path fill="none" stroke="midnightblue" d="M578.96,-19.53C585.05,-22 590.9,-25.1 596,-29 662.24,-79.66 699.36,-177.22 712.73,-218.64"/>
<polygon fill="midnightblue" stroke="midnightblue" points="709.43,-219.82 715.75,-228.33 716.11,-217.74 709.43,-219.82"/>
</g>
<!-- Node29&#45;&gt;Node7 -->
<g id="edge52" class="edge">
<title>Node29&#45;&gt;Node7</title>
<path fill="none" stroke="midnightblue" d="M581.21,-18.17C586.77,-20.88 591.88,-24.41 596,-29 664.5,-105.37 561.65,-182.33 632,-257 641.67,-267.27 655.52,-272.61 669.31,-275.25"/>
<polygon fill="midnightblue" stroke="midnightblue" points="668.87,-278.73 679.28,-276.72 669.9,-271.8 668.87,-278.73"/>
</g>
<!-- Node30 -->
<g id="node30" class="node">
<title>Node30</title>
<g id="a_node30"><a xlink:href="PoKeysLibPulseEngine__v2_8c.html#a1fc372b6ab3876c6ac0d1c3b36f43040" target="_top" xlink:title=" ">
<polygon fill="white" stroke="black" points="654,-0.5 654,-19.5 785,-19.5 785,-0.5 654,-0.5"/>
<text text-anchor="middle" x="719.5" y="-7.5" font-family="Helvetica,sans-Serif" font-size="10.00">PK_PEv2_DecodeStatus</text>
</a>
</g>
</g>
<!-- Node29&#45;&gt;Node30 -->
<g id="edge51" class="edge">
<title>Node29&#45;&gt;Node30</title>
<path fill="none" stroke="midnightblue" d="M581.16,-10C600.64,-10 622.88,-10 643.71,-10"/>
<polygon fill="midnightblue" stroke="midnightblue" points="643.8,-13.5 653.8,-10 643.8,-6.5 643.8,-13.5"/>
</g>
<!-- Node31&#45;&gt;Node3 -->
<g id="edge56" class="edge">
<title>Node31&#45;&gt;Node3</title>
<path fill="none" stroke="midnightblue" d="M248.03,-206.14C295.79,-208.8 364.53,-206.69 418,-181 438.97,-170.92 434.03,-154.94 454,-143 458.66,-140.21 463.74,-137.83 468.96,-135.78"/>
<polygon fill="midnightblue" stroke="midnightblue" points="470.17,-139.07 478.45,-132.47 467.86,-132.46 470.17,-139.07"/>
</g>
</g>
</svg>
