<?xml version="1.0" encoding="UTF-8" standalone="no"?>
<!DOCTYPE svg PUBLIC "-//W3C//DTD SVG 1.1//EN"
 "http://www.w3.org/Graphics/SVG/1.1/DTD/svg11.dtd">
<!-- Generated by graphviz version 2.43.0 (0)
 -->
<!-- Title: PK_PEv2_DecodeStatus Pages: 1 -->
<svg width="781pt" height="235pt"
 viewBox="0.00 0.00 781.00 234.50" xmlns="http://www.w3.org/2000/svg" xmlns:xlink="http://www.w3.org/1999/xlink">
<g id="graph0" class="graph" transform="scale(1 1) rotate(0) translate(4 230.5)">
<title>PK_PEv2_DecodeStatus</title>
<polygon fill="white" stroke="transparent" points="-4,4 -4,-230.5 777,-230.5 777,4 -4,4"/>
<!-- Node1 -->
<g id="node1" class="node">
<title>Node1</title>
<g id="a_node1"><a xlink:title=" ">
<polygon fill="#bfbfbf" stroke="black" points="642,-131 642,-150 773,-150 773,-131 642,-131"/>
<text text-anchor="middle" x="707.5" y="-138" font-family="Helvetica,sans-Serif" font-size="10.00">PK_PEv2_DecodeStatus</text>
</a>
</g>
</g>
<!-- Node2 -->
<g id="node2" class="node">
<title>Node2</title>
<g id="a_node2"><a xlink:href="PoKeysLibPulseEngine__v2_8c.html#aab0910458741bb6d5d7f5705a43a29aa" target="_top" xlink:title=" ">
<polygon fill="white" stroke="black" points="476.5,-207 476.5,-226 583.5,-226 583.5,-207 476.5,-207"/>
<text text-anchor="middle" x="530" y="-214" font-family="Helvetica,sans-Serif" font-size="10.00">PK_PEv2_BufferFill</text>
</a>
</g>
</g>
<!-- Node1&#45;&gt;Node2 -->
<g id="edge1" class="edge">
<title>Node1&#45;&gt;Node2</title>
<path fill="none" stroke="midnightblue" d="M683.86,-155.68C664.05,-168.39 634.12,-186.2 606,-197.5 596.78,-201.21 586.62,-204.36 576.84,-206.96"/>
<polygon fill="midnightblue" stroke="midnightblue" points="686,-158.47 692.47,-150.08 682.18,-152.6 686,-158.47"/>
</g>
<!-- Node3 -->
<g id="node3" class="node">
<title>Node3</title>
<g id="a_node3"><a xlink:href="PoKeysLibPulseEngine__v2_8c.html#a06796328aa68321aac172b68bc721126" target="_top" xlink:title=" ">
<polygon fill="white" stroke="black" points="467.5,-169 467.5,-188 592.5,-188 592.5,-169 467.5,-169"/>
<text text-anchor="middle" x="530" y="-176" font-family="Helvetica,sans-Serif" font-size="10.00">PK_PEv2_BufferFill_16</text>
</a>
</g>
</g>
<!-- Node1&#45;&gt;Node3 -->
<g id="edge2" class="edge">
<title>Node1&#45;&gt;Node3</title>
<path fill="none" stroke="midnightblue" d="M652.22,-152.25C627.41,-157.63 598.39,-163.91 574.97,-168.98"/>
<polygon fill="midnightblue" stroke="midnightblue" points="653.18,-155.63 662.21,-150.09 651.7,-148.78 653.18,-155.63"/>
</g>
<!-- Node4 -->
<g id="node4" class="node">
<title>Node4</title>
<g id="a_node4"><a xlink:href="PoKeysLibPulseEngine__v2_8c.html#a1762e7c3a3e4f04e8674752294c24ec0" target="_top" xlink:title=" ">
<polygon fill="white" stroke="black" points="463,-131 463,-150 597,-150 597,-131 463,-131"/>
<text text-anchor="middle" x="530" y="-138" font-family="Helvetica,sans-Serif" font-size="10.00">PK_PEv2_BufferFillLarge</text>
</a>
</g>
</g>
<!-- Node1&#45;&gt;Node4 -->
<g id="edge3" class="edge">
<title>Node1&#45;&gt;Node4</title>
<path fill="none" stroke="midnightblue" d="M631.64,-140.5C620.14,-140.5 608.34,-140.5 597.05,-140.5"/>
<polygon fill="midnightblue" stroke="midnightblue" points="631.65,-144 641.65,-140.5 631.65,-137 631.65,-144"/>
</g>
<!-- Node5 -->
<g id="node5" class="node">
<title>Node5</title>
<g id="a_node5"><a xlink:href="PoKeysLibPulseEngine__v2_8c.html#a593154a910ddfd52594d0e5d9157f95b" target="_top" xlink:title=" ">
<polygon fill="white" stroke="black" points="454,-93 454,-112 606,-112 606,-93 454,-93"/>
<text text-anchor="middle" x="530" y="-100" font-family="Helvetica,sans-Serif" font-size="10.00">PK_PEv2_BufferFillLarge_16</text>
</a>
</g>
</g>
<!-- Node1&#45;&gt;Node5 -->
<g id="edge4" class="edge">
<title>Node1&#45;&gt;Node5</title>
<path fill="none" stroke="midnightblue" d="M652.22,-128.75C627.41,-123.37 598.39,-117.09 574.97,-112.02"/>
<polygon fill="midnightblue" stroke="midnightblue" points="651.7,-132.22 662.21,-130.91 653.18,-125.37 651.7,-132.22"/>
</g>
<!-- Node6 -->
<g id="node6" class="node">
<title>Node6</title>
<g id="a_node6"><a xlink:href="PoKeysLibPulseEngine__v2_8c.html#a213445f67d5be94e76abcbfca950512d" target="_top" xlink:title=" ">
<polygon fill="white" stroke="black" points="474,-55 474,-74 586,-74 586,-55 474,-55"/>
<text text-anchor="middle" x="530" y="-62" font-family="Helvetica,sans-Serif" font-size="10.00">PK_PEv2_StatusGet</text>
</a>
</g>
</g>
<!-- Node1&#45;&gt;Node6 -->
<g id="edge5" class="edge">
<title>Node1&#45;&gt;Node6</title>
<path fill="none" stroke="midnightblue" d="M683.86,-125.32C664.05,-112.61 634.12,-94.8 606,-83.5 596.78,-79.79 586.62,-76.64 576.84,-74.04"/>
<polygon fill="midnightblue" stroke="midnightblue" points="682.18,-128.4 692.47,-130.92 686,-122.53 682.18,-128.4"/>
</g>
<!-- Node7 -->
<g id="node7" class="node">
<title>Node7</title>
<g id="a_node7"><a xlink:href="group__hal__component__pokeys.html#ga1cd78f86e93af262648c35386373cf3c" target="_top" xlink:title="Retrieves and processes the current status of the PoKeys Pulse Engine v2 (PEv2).">
<polygon fill="white" stroke="black" points="307,-99 307,-118 401,-118 401,-99 307,-99"/>
<text text-anchor="middle" x="354" y="-106" font-family="Helvetica,sans-Serif" font-size="10.00">PEv2_StatusGet</text>
</a>
</g>
</g>
<!-- Node6&#45;&gt;Node7 -->
<g id="edge6" class="edge">
<title>Node6&#45;&gt;Node7</title>
<path fill="none" stroke="midnightblue" d="M481.3,-76.56C453.4,-83.62 418.66,-92.4 392.68,-98.97"/>
<polygon fill="midnightblue" stroke="midnightblue" points="482.41,-79.89 491.24,-74.05 480.69,-73.11 482.41,-79.89"/>
</g>
<!-- Node10 -->
<g id="node10" class="node">
<title>Node10</title>
<g id="a_node10"><a xlink:href="structPoKeysHALComponent.html#ad94418b2caeac0cbdd7c43ef55f15623" target="_top" xlink:title="Reads configuration parameters for the PoKeys Pulse Engine v2 from the INI file.">
<polygon fill="white" stroke="black" points="290,-49.5 290,-79.5 418,-79.5 418,-49.5 290,-49.5"/>
<text text-anchor="start" x="298" y="-67.5" font-family="Helvetica,sans-Serif" font-size="10.00">PoKeysHALComponent</text>
<text text-anchor="middle" x="354" y="-56.5" font-family="Helvetica,sans-Serif" font-size="10.00">::PKPEv2_ReadIniFile</text>
</a>
</g>
</g>
<!-- Node6&#45;&gt;Node10 -->
<g id="edge9" class="edge">
<title>Node6&#45;&gt;Node10</title>
<path fill="none" stroke="midnightblue" d="M463.78,-64.5C448.86,-64.5 433.02,-64.5 418.19,-64.5"/>
<polygon fill="midnightblue" stroke="midnightblue" points="463.95,-68 473.95,-64.5 463.95,-61 463.95,-68"/>
</g>
<!-- Node12 -->
<g id="node12" class="node">
<title>Node12</title>
<g id="a_node12"><a xlink:href="group__hal__component__pokeys.html#ga1fd300cd610e9545e58b62ffd50e474e" target="_top" xlink:title="Applies INI&#45;based configuration to PulseEngine and IO.">
<polygon fill="white" stroke="black" points="290,-0.5 290,-30.5 418,-30.5 418,-0.5 290,-0.5"/>
<text text-anchor="start" x="298" y="-18.5" font-family="Helvetica,sans-Serif" font-size="10.00">PoKeysHALComponent</text>
<text text-anchor="middle" x="354" y="-7.5" font-family="Helvetica,sans-Serif" font-size="10.00">::PKPEv2_Setup</text>
</a>
</g>
</g>
<!-- Node6&#45;&gt;Node12 -->
<g id="edge11" class="edge">
<title>Node6&#45;&gt;Node12</title>
<path fill="none" stroke="midnightblue" d="M485.4,-52.22C462.05,-45.65 433.09,-37.49 408.4,-30.54"/>
<polygon fill="midnightblue" stroke="midnightblue" points="484.46,-55.59 495.04,-54.94 486.36,-48.86 484.46,-55.59"/>
</g>
<!-- Node8 -->
<g id="node8" class="node">
<title>Node8</title>
<g id="a_node8"><a xlink:href="group__hal__component__pokeys.html#ga11eaeb83988c4e23fca22c07885baf31" target="_top" xlink:title="Updates PulseEngine feedback and status.">
<polygon fill="white" stroke="black" points="126,-93.5 126,-123.5 254,-123.5 254,-93.5 126,-93.5"/>
<text text-anchor="start" x="134" y="-111.5" font-family="Helvetica,sans-Serif" font-size="10.00">PoKeysHALComponent</text>
<text text-anchor="middle" x="190" y="-100.5" font-family="Helvetica,sans-Serif" font-size="10.00">::PKPEv2_Update</text>
</a>
</g>
</g>
<!-- Node7&#45;&gt;Node8 -->
<g id="edge7" class="edge">
<title>Node7&#45;&gt;Node8</title>
<path fill="none" stroke="midnightblue" d="M296.35,-108.5C282.68,-108.5 267.98,-108.5 254.03,-108.5"/>
<polygon fill="midnightblue" stroke="midnightblue" points="296.58,-112 306.58,-108.5 296.58,-105 296.58,-112"/>
</g>
<!-- Node9 -->
<g id="node9" class="node">
<title>Node9</title>
<g id="a_node9"><a xlink:href="pokeys_8c.html#a6e89ee20635570c2e51b81bf26e895cc" target="_top" xlink:title=" ">
<polygon fill="white" stroke="black" points="0,-99 0,-118 90,-118 90,-99 0,-99"/>
<text text-anchor="middle" x="45" y="-106" font-family="Helvetica,sans-Serif" font-size="10.00">pokeys_update</text>
</a>
</g>
</g>
<!-- Node8&#45;&gt;Node9 -->
<g id="edge8" class="edge">
<title>Node8&#45;&gt;Node9</title>
<path fill="none" stroke="midnightblue" d="M115.72,-108.5C107.06,-108.5 98.44,-108.5 90.36,-108.5"/>
<polygon fill="midnightblue" stroke="midnightblue" points="115.86,-112 125.86,-108.5 115.86,-105 115.86,-112"/>
</g>
<!-- Node11 -->
<g id="node11" class="node">
<title>Node11</title>
<g id="a_node11"><a xlink:href="pokeys_8c.html#a1d59e212b57d33fe74e44b64cadf3314" target="_top" xlink:title=" ">
<polygon fill="white" stroke="black" points="142.5,-31 142.5,-50 237.5,-50 237.5,-31 142.5,-31"/>
<text text-anchor="middle" x="190" y="-38" font-family="Helvetica,sans-Serif" font-size="10.00">pokeys_read_ini</text>
</a>
</g>
</g>
<!-- Node10&#45;&gt;Node11 -->
<g id="edge10" class="edge">
<title>Node10&#45;&gt;Node11</title>
<path fill="none" stroke="midnightblue" d="M280.01,-53.69C265.6,-51.55 250.86,-49.37 237.62,-47.41"/>
<polygon fill="midnightblue" stroke="midnightblue" points="279.5,-57.15 289.9,-55.15 280.52,-50.22 279.5,-57.15"/>
</g>
<!-- Node12&#45;&gt;Node11 -->
<g id="edge12" class="edge">
<title>Node12&#45;&gt;Node11</title>
<path fill="none" stroke="midnightblue" d="M280.01,-26.76C265.6,-28.99 250.86,-31.26 237.62,-33.31"/>
<polygon fill="midnightblue" stroke="midnightblue" points="280.55,-30.22 289.9,-25.24 279.49,-23.3 280.55,-30.22"/>
</g>
</g>
</svg>
