<?xml version="1.0" encoding="UTF-8" standalone="no"?>
<!DOCTYPE svg PUBLIC "-//W3C//DTD SVG 1.1//EN"
 "http://www.w3.org/Graphics/SVG/1.1/DTD/svg11.dtd">
<!-- Generated by graphviz version 2.43.0 (0)
 -->
<!-- Title: PK_PoNETGetModuleLightRequestAsync Pages: 1 -->
<svg width="621pt" height="180pt"
 viewBox="0.00 0.00 621.00 180.00" xmlns="http://www.w3.org/2000/svg" xmlns:xlink="http://www.w3.org/1999/xlink">
<g id="graph0" class="graph" transform="scale(1 1) rotate(0) translate(4 176)">
<title>PK_PoNETGetModuleLightRequestAsync</title>
<polygon fill="white" stroke="transparent" points="-4,4 -4,-176 617,-176 617,4 -4,4"/>
<!-- Node1 -->
<g id="node1" class="node">
<title>Node1</title>
<g id="a_node1"><a xlink:title=" ">
<polygon fill="#bfbfbf" stroke="black" points="0,-71 0,-101 183,-101 183,-71 0,-71"/>
<text text-anchor="start" x="8" y="-89" font-family="Helvetica,sans-Serif" font-size="10.00">PK_PoNETGetModuleLightRequest</text>
<text text-anchor="middle" x="91.5" y="-78" font-family="Helvetica,sans-Serif" font-size="10.00">Async</text>
</a>
</g>
</g>
<!-- Node2 -->
<g id="node2" class="node">
<title>Node2</title>
<g id="a_node2"><a xlink:href="PoKeysLibAsync_8c.html#a8ed8b17dbfd4e5cfba35c6b1e2ea6956" target="_top" xlink:title="Prepares an asynchronous request (non&#45;sending).">
<polygon fill="white" stroke="black" points="219,-114.5 219,-133.5 337,-133.5 337,-114.5 219,-114.5"/>
<text text-anchor="middle" x="278" y="-121.5" font-family="Helvetica,sans-Serif" font-size="10.00">CreateRequestAsync</text>
</a>
</g>
</g>
<!-- Node1&#45;&gt;Node2 -->
<g id="edge1" class="edge">
<title>Node1&#45;&gt;Node2</title>
<path fill="none" stroke="midnightblue" d="M165.42,-101.02C183.86,-104.82 203.38,-108.84 220.85,-112.43"/>
<polygon fill="midnightblue" stroke="midnightblue" points="220.37,-115.91 230.87,-114.5 221.78,-109.05 220.37,-115.91"/>
</g>
<!-- Node5 -->
<g id="node5" class="node">
<title>Node5</title>
<g id="a_node5"><a xlink:href="PoKeysLibAsync_8c.html#a77fe6d8f453b9f120276324e0b2ad076" target="_top" xlink:title="Sends an asynchronous request that was prepared earlier.">
<polygon fill="white" stroke="black" points="223,-57.5 223,-76.5 333,-76.5 333,-57.5 223,-57.5"/>
<text text-anchor="middle" x="278" y="-64.5" font-family="Helvetica,sans-Serif" font-size="10.00">SendRequestAsync</text>
</a>
</g>
</g>
<!-- Node1&#45;&gt;Node5 -->
<g id="edge4" class="edge">
<title>Node1&#45;&gt;Node5</title>
<path fill="none" stroke="midnightblue" d="M183.13,-76.67C193.1,-75.64 203.1,-74.61 212.65,-73.63"/>
<polygon fill="midnightblue" stroke="midnightblue" points="213.24,-77.08 222.83,-72.58 212.52,-70.12 213.24,-77.08"/>
</g>
<!-- Node3 -->
<g id="node3" class="node">
<title>Node3</title>
<g id="a_node3"><a xlink:href="PoKeysLibAsync_8c.html#a8e57ea5df5b229f5a1317bf4e4918c1b" target="_top" xlink:title=" ">
<polygon fill="white" stroke="black" points="383.5,-152.5 383.5,-171.5 478.5,-171.5 478.5,-152.5 383.5,-152.5"/>
<text text-anchor="middle" x="431" y="-159.5" font-family="Helvetica,sans-Serif" font-size="10.00">next_request_id</text>
</a>
</g>
</g>
<!-- Node2&#45;&gt;Node3 -->
<g id="edge2" class="edge">
<title>Node2&#45;&gt;Node3</title>
<path fill="none" stroke="midnightblue" d="M317.1,-133.59C336.94,-138.58 361.38,-144.73 382.45,-150.03"/>
<polygon fill="midnightblue" stroke="midnightblue" points="381.62,-153.43 392.17,-152.48 383.33,-146.65 381.62,-153.43"/>
</g>
<!-- Node4 -->
<g id="node4" class="node">
<title>Node4</title>
<g id="a_node4"><a xlink:href="PoKeysLibAsync_8c.html#a0daf7f6eb658a60879d46369307db3f0" target="_top" xlink:title="Allocates a new free transaction.">
<polygon fill="white" stroke="black" points="381,-114.5 381,-133.5 481,-133.5 481,-114.5 381,-114.5"/>
<text text-anchor="middle" x="431" y="-121.5" font-family="Helvetica,sans-Serif" font-size="10.00">transaction_alloc</text>
</a>
</g>
</g>
<!-- Node2&#45;&gt;Node4 -->
<g id="edge3" class="edge">
<title>Node2&#45;&gt;Node4</title>
<path fill="none" stroke="midnightblue" d="M337.38,-124C348.2,-124 359.51,-124 370.36,-124"/>
<polygon fill="midnightblue" stroke="midnightblue" points="370.6,-127.5 380.6,-124 370.6,-120.5 370.6,-127.5"/>
</g>
<!-- Node6 -->
<g id="node6" class="node">
<title>Node6</title>
<g id="a_node6"><a xlink:href="PoKeysLibAsync_8c.html#a2d192ebf6b1b209c93b2158460c24aa2" target="_top" xlink:title=" ">
<polygon fill="white" stroke="black" points="373,-76.5 373,-95.5 489,-95.5 489,-76.5 373,-76.5"/>
<text text-anchor="middle" x="431" y="-83.5" font-family="Helvetica,sans-Serif" font-size="10.00">get_current_time_us</text>
</a>
</g>
</g>
<!-- Node5&#45;&gt;Node6 -->
<g id="edge5" class="edge">
<title>Node5&#45;&gt;Node6</title>
<path fill="none" stroke="midnightblue" d="M333.09,-73.81C342.8,-75.03 353.02,-76.31 363.05,-77.58"/>
<polygon fill="midnightblue" stroke="midnightblue" points="362.62,-81.05 372.97,-78.82 363.49,-74.1 362.62,-81.05"/>
</g>
<!-- Node8 -->
<g id="node8" class="node">
<title>Node8</title>
<g id="a_node8"><a xlink:href="rtapi_8h.html#a2432d36976ec87e60c9c92d3c0067182" target="_top" xlink:title=" ">
<polygon fill="white" stroke="black" points="384.5,-38.5 384.5,-57.5 477.5,-57.5 477.5,-38.5 384.5,-38.5"/>
<text text-anchor="middle" x="431" y="-45.5" font-family="Helvetica,sans-Serif" font-size="10.00">rtapi_print_msg</text>
</a>
</g>
</g>
<!-- Node5&#45;&gt;Node8 -->
<g id="edge7" class="edge">
<title>Node5&#45;&gt;Node8</title>
<path fill="none" stroke="midnightblue" d="M333.09,-60.19C346.44,-58.51 360.77,-56.71 374.2,-55.02"/>
<polygon fill="midnightblue" stroke="midnightblue" points="374.78,-58.48 384.26,-53.75 373.91,-51.53 374.78,-58.48"/>
</g>
<!-- Node9 -->
<g id="node9" class="node">
<title>Node9</title>
<g id="a_node9"><a xlink:href="PoKeysLibAsync_8c.html#a47e60ec1f2ceb9c913f4b3fdd448595b" target="_top" xlink:title="Finds an open transaction by its Request ID.">
<polygon fill="white" stroke="black" points="383.5,-0.5 383.5,-19.5 478.5,-19.5 478.5,-0.5 383.5,-0.5"/>
<text text-anchor="middle" x="431" y="-7.5" font-family="Helvetica,sans-Serif" font-size="10.00">transaction_find</text>
</a>
</g>
</g>
<!-- Node5&#45;&gt;Node9 -->
<g id="edge8" class="edge">
<title>Node5&#45;&gt;Node9</title>
<path fill="none" stroke="midnightblue" d="M301.64,-57.39C320.58,-49.45 348.39,-38.07 373,-29 378.64,-26.92 384.64,-24.81 390.53,-22.8"/>
<polygon fill="midnightblue" stroke="midnightblue" points="391.93,-26.02 400.29,-19.51 389.7,-19.39 391.93,-26.02"/>
</g>
<!-- Node7 -->
<g id="node7" class="node">
<title>Node7</title>
<g id="a_node7"><a xlink:href="rtapi_8h.html#a935411bb5eff04e82620819db6645685" target="_top" xlink:title=" ">
<polygon fill="white" stroke="black" points="525,-76.5 525,-95.5 613,-95.5 613,-76.5 525,-76.5"/>
<text text-anchor="middle" x="569" y="-83.5" font-family="Helvetica,sans-Serif" font-size="10.00">rtapi_get_time</text>
</a>
</g>
</g>
<!-- Node6&#45;&gt;Node7 -->
<g id="edge6" class="edge">
<title>Node6&#45;&gt;Node7</title>
<path fill="none" stroke="midnightblue" d="M489.28,-86C497.75,-86 506.44,-86 514.81,-86"/>
<polygon fill="midnightblue" stroke="midnightblue" points="514.84,-89.5 524.84,-86 514.84,-82.5 514.84,-89.5"/>
</g>
</g>
</svg>
