<?xml version="1.0" encoding="UTF-8" standalone="no"?>
<!DOCTYPE svg PUBLIC "-//W3C//DTD SVG 1.1//EN"
 "http://www.w3.org/Graphics/SVG/1.1/DTD/svg11.dtd">
<!-- Generated by graphviz version 2.43.0 (0)
 -->
<!-- Title: PK_CANFlush Pages: 1 -->
<svg width="485pt" height="142pt"
 viewBox="0.00 0.00 485.00 142.00" xmlns="http://www.w3.org/2000/svg" xmlns:xlink="http://www.w3.org/1999/xlink">
<g id="graph0" class="graph" transform="scale(1 1) rotate(0) translate(4 138)">
<title>PK_CANFlush</title>
<polygon fill="white" stroke="transparent" points="-4,4 -4,-138 481,-138 481,4 -4,4"/>
<!-- Node1 -->
<g id="node1" class="node">
<title>Node1</title>
<g id="a_node1"><a xlink:title=" ">
<polygon fill="#bfbfbf" stroke="black" points="0,-76.5 0,-95.5 82,-95.5 82,-76.5 0,-76.5"/>
<text text-anchor="middle" x="41" y="-83.5" font-family="Helvetica,sans-Serif" font-size="10.00">PK_CANFlush</text>
</a>
</g>
</g>
<!-- Node2 -->
<g id="node2" class="node">
<title>Node2</title>
<g id="a_node2"><a xlink:href="pokeyslib_2PoKeysLibCore_8c.html#acb1fdd8f77277dc66c4d037218bfcece" target="_top" xlink:title=" ">
<polygon fill="white" stroke="black" points="118,-95.5 118,-114.5 207,-114.5 207,-95.5 118,-95.5"/>
<text text-anchor="middle" x="162.5" y="-102.5" font-family="Helvetica,sans-Serif" font-size="10.00">CreateRequest</text>
</a>
</g>
</g>
<!-- Node1&#45;&gt;Node2 -->
<g id="edge1" class="edge">
<title>Node1&#45;&gt;Node2</title>
<path fill="none" stroke="midnightblue" d="M82.12,-92.38C90.41,-93.7 99.26,-95.1 107.94,-96.48"/>
<polygon fill="midnightblue" stroke="midnightblue" points="107.57,-99.97 117.99,-98.08 108.67,-93.06 107.57,-99.97"/>
</g>
<!-- Node3 -->
<g id="node3" class="node">
<title>Node3</title>
<g id="a_node3"><a xlink:href="pokeyslib_2PoKeysLibCore_8c.html#ab5d92aa36d0a4a6953a055f5cd960aff" target="_top" xlink:title=" ">
<polygon fill="white" stroke="black" points="122.5,-57.5 122.5,-76.5 202.5,-76.5 202.5,-57.5 122.5,-57.5"/>
<text text-anchor="middle" x="162.5" y="-64.5" font-family="Helvetica,sans-Serif" font-size="10.00">SendRequest</text>
</a>
</g>
</g>
<!-- Node1&#45;&gt;Node3 -->
<g id="edge2" class="edge">
<title>Node1&#45;&gt;Node3</title>
<path fill="none" stroke="midnightblue" d="M82.12,-79.62C91.89,-78.07 102.44,-76.39 112.56,-74.78"/>
<polygon fill="midnightblue" stroke="midnightblue" points="113.17,-78.23 122.5,-73.2 112.07,-71.32 113.17,-78.23"/>
</g>
<!-- Node4 -->
<g id="node4" class="node">
<title>Node4</title>
<g id="a_node4"><a xlink:href="pokeyslib_2PoKeysLibCore_8c.html#a273b6d635dea8f559b915cdb289d021e" target="_top" xlink:title=" ">
<polygon fill="white" stroke="black" points="384.5,-38.5 384.5,-57.5 467.5,-57.5 467.5,-38.5 384.5,-38.5"/>
<text text-anchor="middle" x="426" y="-45.5" font-family="Helvetica,sans-Serif" font-size="10.00">getChecksum</text>
</a>
</g>
</g>
<!-- Node3&#45;&gt;Node4 -->
<g id="edge3" class="edge">
<title>Node3&#45;&gt;Node4</title>
<path fill="none" stroke="midnightblue" d="M202.67,-69.42C238.32,-71.06 292.36,-72.09 339,-67 352.57,-65.52 367.13,-62.76 380.34,-59.8"/>
<polygon fill="midnightblue" stroke="midnightblue" points="381.2,-63.19 390.14,-57.51 379.61,-56.37 381.2,-63.19"/>
</g>
<!-- Node5 -->
<g id="node5" class="node">
<title>Node5</title>
<g id="a_node5"><a xlink:href="group__API.html#ga6b820f3e72097cf7f994e33715dc7af1" target="_top" xlink:title="Read an Input report from a HID device.">
<polygon fill="white" stroke="black" points="261.5,-114.5 261.5,-133.5 320.5,-133.5 320.5,-114.5 261.5,-114.5"/>
<text text-anchor="middle" x="291" y="-121.5" font-family="Helvetica,sans-Serif" font-size="10.00">hid_read</text>
</a>
</g>
</g>
<!-- Node3&#45;&gt;Node5 -->
<g id="edge4" class="edge">
<title>Node3&#45;&gt;Node5</title>
<path fill="none" stroke="midnightblue" d="M185.66,-76.59C192.51,-79.58 200.08,-82.9 207,-86 224.61,-93.88 244.24,-102.86 259.99,-110.11"/>
<polygon fill="midnightblue" stroke="midnightblue" points="258.69,-113.36 269.24,-114.37 261.62,-107.01 258.69,-113.36"/>
</g>
<!-- Node7 -->
<g id="node7" class="node">
<title>Node7</title>
<g id="a_node7"><a xlink:href="group__API.html#gad14ea48e440cf5066df87cc6488493af" target="_top" xlink:title="Write an Output report to a HID device.">
<polygon fill="white" stroke="black" points="260,-38.5 260,-57.5 322,-57.5 322,-38.5 260,-38.5"/>
<text text-anchor="middle" x="291" y="-45.5" font-family="Helvetica,sans-Serif" font-size="10.00">hid_write</text>
</a>
</g>
</g>
<!-- Node3&#45;&gt;Node7 -->
<g id="edge6" class="edge">
<title>Node3&#45;&gt;Node7</title>
<path fill="none" stroke="midnightblue" d="M202.83,-61.09C217.8,-58.84 234.86,-56.28 249.9,-54.02"/>
<polygon fill="midnightblue" stroke="midnightblue" points="250.57,-57.46 259.94,-52.52 249.53,-50.54 250.57,-57.46"/>
</g>
<!-- Node8 -->
<g id="node8" class="node">
<title>Node8</title>
<g id="a_node8"><a xlink:href="pokeyslib_2PoKeysLibCoreSockets_8c.html#a22759fb4024c9081af26ac1bc6541b47" target="_top" xlink:title=" ">
<polygon fill="white" stroke="black" points="243,-0.5 243,-19.5 339,-19.5 339,-0.5 243,-0.5"/>
<text text-anchor="middle" x="291" y="-7.5" font-family="Helvetica,sans-Serif" font-size="10.00">SendEthRequest</text>
</a>
</g>
</g>
<!-- Node3&#45;&gt;Node8 -->
<g id="edge7" class="edge">
<title>Node3&#45;&gt;Node8</title>
<path fill="none" stroke="midnightblue" d="M182.62,-57.45C198.63,-49.56 222.14,-38.19 243,-29 247.19,-27.15 251.62,-25.27 256.02,-23.45"/>
<polygon fill="midnightblue" stroke="midnightblue" points="257.55,-26.6 265.49,-19.58 254.91,-20.12 257.55,-26.6"/>
</g>
<!-- Node6 -->
<g id="node6" class="node">
<title>Node6</title>
<g id="a_node6"><a xlink:href="group__API.html#gaa5c9ed5aa290688ffac03343989ad75a" target="_top" xlink:title="Read an Input report from a HID device with timeout.">
<polygon fill="white" stroke="black" points="375,-114.5 375,-133.5 477,-133.5 477,-114.5 375,-114.5"/>
<text text-anchor="middle" x="426" y="-121.5" font-family="Helvetica,sans-Serif" font-size="10.00">hid_read_timeout</text>
</a>
</g>
</g>
<!-- Node5&#45;&gt;Node6 -->
<g id="edge5" class="edge">
<title>Node5&#45;&gt;Node6</title>
<path fill="none" stroke="midnightblue" d="M320.53,-124C333.49,-124 349.35,-124 364.75,-124"/>
<polygon fill="midnightblue" stroke="midnightblue" points="364.77,-127.5 374.77,-124 364.77,-120.5 364.77,-127.5"/>
</g>
<!-- Node8&#45;&gt;Node4 -->
<g id="edge8" class="edge">
<title>Node8&#45;&gt;Node4</title>
<path fill="none" stroke="midnightblue" d="M325.56,-19.59C342.57,-24.45 363.43,-30.41 381.64,-35.61"/>
<polygon fill="midnightblue" stroke="midnightblue" points="380.87,-39.03 391.45,-38.41 382.8,-32.3 380.87,-39.03"/>
</g>
</g>
</svg>
