<?xml version="1.0" encoding="UTF-8" standalone="no"?>
<!DOCTYPE svg PUBLIC "-//W3C//DTD SVG 1.1//EN"
 "http://www.w3.org/Graphics/SVG/1.1/DTD/svg11.dtd">
<!-- Generated by graphviz version 2.43.0 (0)
 -->
<!-- Title: PK_CANWriteAsync Pages: 1 -->
<svg width="610pt" height="180pt"
 viewBox="0.00 0.00 610.00 180.00" xmlns="http://www.w3.org/2000/svg" xmlns:xlink="http://www.w3.org/1999/xlink">
<g id="graph0" class="graph" transform="scale(1 1) rotate(0) translate(4 176)">
<title>PK_CANWriteAsync</title>
<polygon fill="white" stroke="transparent" points="-4,4 -4,-176 606,-176 606,4 -4,4"/>
<!-- Node1 -->
<g id="node1" class="node">
<title>Node1</title>
<g id="a_node1"><a xlink:title=" ">
<polygon fill="#bfbfbf" stroke="black" points="0,-76.5 0,-95.5 111,-95.5 111,-76.5 0,-76.5"/>
<text text-anchor="middle" x="55.5" y="-83.5" font-family="Helvetica,sans-Serif" font-size="10.00">PK_CANWriteAsync</text>
</a>
</g>
</g>
<!-- Node2 -->
<g id="node2" class="node">
<title>Node2</title>
<g id="a_node2"><a xlink:href="PoKeysLibAsync_8c.html#ad3d8835baba234e6767172b8574629e5" target="_top" xlink:title="Prepares an asynchronous PoKeys request with optional payload data after header.">
<polygon fill="white" stroke="black" points="147,-114.5 147,-133.5 326,-133.5 326,-114.5 147,-114.5"/>
<text text-anchor="middle" x="236.5" y="-121.5" font-family="Helvetica,sans-Serif" font-size="10.00">CreateRequestAsyncWithPayload</text>
</a>
</g>
</g>
<!-- Node1&#45;&gt;Node2 -->
<g id="edge1" class="edge">
<title>Node1&#45;&gt;Node2</title>
<path fill="none" stroke="midnightblue" d="M101.67,-95.59C125.72,-100.69 155.47,-107.01 180.82,-112.39"/>
<polygon fill="midnightblue" stroke="midnightblue" points="180.15,-115.83 190.66,-114.48 181.6,-108.98 180.15,-115.83"/>
</g>
<!-- Node5 -->
<g id="node5" class="node">
<title>Node5</title>
<g id="a_node5"><a xlink:href="PoKeysLibAsync_8c.html#a77fe6d8f453b9f120276324e0b2ad076" target="_top" xlink:title="Sends an asynchronous request that was prepared earlier.">
<polygon fill="white" stroke="black" points="181.5,-57.5 181.5,-76.5 291.5,-76.5 291.5,-57.5 181.5,-57.5"/>
<text text-anchor="middle" x="236.5" y="-64.5" font-family="Helvetica,sans-Serif" font-size="10.00">SendRequestAsync</text>
</a>
</g>
</g>
<!-- Node1&#45;&gt;Node5 -->
<g id="edge4" class="edge">
<title>Node1&#45;&gt;Node5</title>
<path fill="none" stroke="midnightblue" d="M111.18,-80.2C130.18,-78.18 151.66,-75.9 171.35,-73.81"/>
<polygon fill="midnightblue" stroke="midnightblue" points="171.89,-77.27 181.46,-72.74 171.15,-70.31 171.89,-77.27"/>
</g>
<!-- Node3 -->
<g id="node3" class="node">
<title>Node3</title>
<g id="a_node3"><a xlink:href="PoKeysLibAsync_8c.html#a8e57ea5df5b229f5a1317bf4e4918c1b" target="_top" xlink:title=" ">
<polygon fill="white" stroke="black" points="372.5,-152.5 372.5,-171.5 467.5,-171.5 467.5,-152.5 372.5,-152.5"/>
<text text-anchor="middle" x="420" y="-159.5" font-family="Helvetica,sans-Serif" font-size="10.00">next_request_id</text>
</a>
</g>
</g>
<!-- Node2&#45;&gt;Node3 -->
<g id="edge2" class="edge">
<title>Node2&#45;&gt;Node3</title>
<path fill="none" stroke="midnightblue" d="M283.3,-133.59C307.68,-138.69 337.86,-145.01 363.56,-150.39"/>
<polygon fill="midnightblue" stroke="midnightblue" points="363.02,-153.86 373.53,-152.48 364.46,-147 363.02,-153.86"/>
</g>
<!-- Node4 -->
<g id="node4" class="node">
<title>Node4</title>
<g id="a_node4"><a xlink:href="PoKeysLibAsync_8c.html#a0daf7f6eb658a60879d46369307db3f0" target="_top" xlink:title="Allocates a new free transaction.">
<polygon fill="white" stroke="black" points="370,-114.5 370,-133.5 470,-133.5 470,-114.5 370,-114.5"/>
<text text-anchor="middle" x="420" y="-121.5" font-family="Helvetica,sans-Serif" font-size="10.00">transaction_alloc</text>
</a>
</g>
</g>
<!-- Node2&#45;&gt;Node4 -->
<g id="edge3" class="edge">
<title>Node2&#45;&gt;Node4</title>
<path fill="none" stroke="midnightblue" d="M326.12,-124C337.44,-124 348.81,-124 359.51,-124"/>
<polygon fill="midnightblue" stroke="midnightblue" points="359.55,-127.5 369.55,-124 359.55,-120.5 359.55,-127.5"/>
</g>
<!-- Node6 -->
<g id="node6" class="node">
<title>Node6</title>
<g id="a_node6"><a xlink:href="PoKeysLibAsync_8c.html#a2d192ebf6b1b209c93b2158460c24aa2" target="_top" xlink:title=" ">
<polygon fill="white" stroke="black" points="362,-76.5 362,-95.5 478,-95.5 478,-76.5 362,-76.5"/>
<text text-anchor="middle" x="420" y="-83.5" font-family="Helvetica,sans-Serif" font-size="10.00">get_current_time_us</text>
</a>
</g>
</g>
<!-- Node5&#45;&gt;Node6 -->
<g id="edge5" class="edge">
<title>Node5&#45;&gt;Node6</title>
<path fill="none" stroke="midnightblue" d="M291.96,-72.7C310.72,-74.66 331.96,-76.89 351.63,-78.95"/>
<polygon fill="midnightblue" stroke="midnightblue" points="351.44,-82.45 361.75,-80.01 352.16,-75.48 351.44,-82.45"/>
</g>
<!-- Node8 -->
<g id="node8" class="node">
<title>Node8</title>
<g id="a_node8"><a xlink:href="rtapi_8h.html#a2432d36976ec87e60c9c92d3c0067182" target="_top" xlink:title=" ">
<polygon fill="white" stroke="black" points="373.5,-38.5 373.5,-57.5 466.5,-57.5 466.5,-38.5 373.5,-38.5"/>
<text text-anchor="middle" x="420" y="-45.5" font-family="Helvetica,sans-Serif" font-size="10.00">rtapi_print_msg</text>
</a>
</g>
</g>
<!-- Node5&#45;&gt;Node8 -->
<g id="edge7" class="edge">
<title>Node5&#45;&gt;Node8</title>
<path fill="none" stroke="midnightblue" d="M291.96,-61.3C314.5,-58.94 340.63,-56.2 363.3,-53.83"/>
<polygon fill="midnightblue" stroke="midnightblue" points="363.87,-57.29 373.45,-52.77 363.14,-50.33 363.87,-57.29"/>
</g>
<!-- Node9 -->
<g id="node9" class="node">
<title>Node9</title>
<g id="a_node9"><a xlink:href="PoKeysLibAsync_8c.html#a47e60ec1f2ceb9c913f4b3fdd448595b" target="_top" xlink:title="Finds an open transaction by its Request ID.">
<polygon fill="white" stroke="black" points="372.5,-0.5 372.5,-19.5 467.5,-19.5 467.5,-0.5 372.5,-0.5"/>
<text text-anchor="middle" x="420" y="-7.5" font-family="Helvetica,sans-Serif" font-size="10.00">transaction_find</text>
</a>
</g>
</g>
<!-- Node5&#45;&gt;Node9 -->
<g id="edge8" class="edge">
<title>Node5&#45;&gt;Node9</title>
<path fill="none" stroke="midnightblue" d="M267.88,-57.46C298.24,-47.92 345.11,-33.21 378.59,-22.69"/>
<polygon fill="midnightblue" stroke="midnightblue" points="380.03,-25.91 388.52,-19.57 377.93,-19.23 380.03,-25.91"/>
</g>
<!-- Node7 -->
<g id="node7" class="node">
<title>Node7</title>
<g id="a_node7"><a xlink:href="rtapi_8h.html#a935411bb5eff04e82620819db6645685" target="_top" xlink:title=" ">
<polygon fill="white" stroke="black" points="514,-76.5 514,-95.5 602,-95.5 602,-76.5 514,-76.5"/>
<text text-anchor="middle" x="558" y="-83.5" font-family="Helvetica,sans-Serif" font-size="10.00">rtapi_get_time</text>
</a>
</g>
</g>
<!-- Node6&#45;&gt;Node7 -->
<g id="edge6" class="edge">
<title>Node6&#45;&gt;Node7</title>
<path fill="none" stroke="midnightblue" d="M478.28,-86C486.75,-86 495.44,-86 503.81,-86"/>
<polygon fill="midnightblue" stroke="midnightblue" points="503.84,-89.5 513.84,-86 503.84,-82.5 503.84,-89.5"/>
</g>
</g>
</svg>
