<?xml version="1.0" encoding="UTF-8" standalone="no"?>
<!DOCTYPE svg PUBLIC "-//W3C//DTD SVG 1.1//EN"
 "http://www.w3.org/Graphics/SVG/1.1/DTD/svg11.dtd">
<!-- Generated by graphviz version 2.43.0 (0)
 -->
<!-- Title: PK_PEv2_Status2Get Pages: 1 -->
<svg width="580pt" height="83pt"
 viewBox="0.00 0.00 580.00 83.00" xmlns="http://www.w3.org/2000/svg" xmlns:xlink="http://www.w3.org/1999/xlink">
<g id="graph0" class="graph" transform="scale(1 1) rotate(0) translate(4 79)">
<title>PK_PEv2_Status2Get</title>
<polygon fill="white" stroke="transparent" points="-4,4 -4,-79 576,-79 576,4 -4,4"/>
<!-- Node1 -->
<g id="node1" class="node">
<title>Node1</title>
<g id="a_node1"><a xlink:title="Obtain extended status information.">
<polygon fill="#bfbfbf" stroke="black" points="454,-28 454,-47 572,-47 572,-28 454,-28"/>
<text text-anchor="middle" x="513" y="-35" font-family="Helvetica,sans-Serif" font-size="10.00">PK_PEv2_Status2Get</text>
</a>
</g>
</g>
<!-- Node2 -->
<g id="node2" class="node">
<title>Node2</title>
<g id="a_node2"><a xlink:href="group__hal__component__pokeys.html#gad0b4254d4beb35bce80cf4a89199b554" target="_top" xlink:title="Reads and updates the state of dedicated limit and home inputs from the PoKeys Pulse Engine v2.">
<polygon fill="white" stroke="black" points="304,-50 304,-69 404,-69 404,-50 304,-50"/>
<text text-anchor="middle" x="354" y="-57" font-family="Helvetica,sans-Serif" font-size="10.00">PEv2_Status2Get</text>
</a>
</g>
</g>
<!-- Node1&#45;&gt;Node2 -->
<g id="edge1" class="edge">
<title>Node1&#45;&gt;Node2</title>
<path fill="none" stroke="midnightblue" d="M443.85,-47.05C430.45,-48.93 416.64,-50.86 404.02,-52.63"/>
<polygon fill="midnightblue" stroke="midnightblue" points="444.57,-50.48 453.99,-45.63 443.6,-43.55 444.57,-50.48"/>
</g>
<!-- Node5 -->
<g id="node5" class="node">
<title>Node5</title>
<g id="a_node5"><a xlink:href="group__hal__component__pokeys.html#ga1fd300cd610e9545e58b62ffd50e474e" target="_top" xlink:title="Applies INI&#45;based configuration to PulseEngine and IO.">
<polygon fill="white" stroke="black" points="290,-0.5 290,-30.5 418,-30.5 418,-0.5 290,-0.5"/>
<text text-anchor="start" x="298" y="-18.5" font-family="Helvetica,sans-Serif" font-size="10.00">PoKeysHALComponent</text>
<text text-anchor="middle" x="354" y="-7.5" font-family="Helvetica,sans-Serif" font-size="10.00">::PKPEv2_Setup</text>
</a>
</g>
</g>
<!-- Node1&#45;&gt;Node5 -->
<g id="edge4" class="edge">
<title>Node1&#45;&gt;Node5</title>
<path fill="none" stroke="midnightblue" d="M443.98,-27.97C435.37,-26.76 426.58,-25.53 418.05,-24.34"/>
<polygon fill="midnightblue" stroke="midnightblue" points="443.6,-31.45 453.99,-29.37 444.57,-24.52 443.6,-31.45"/>
</g>
<!-- Node3 -->
<g id="node3" class="node">
<title>Node3</title>
<g id="a_node3"><a xlink:href="group__hal__component__pokeys.html#ga11eaeb83988c4e23fca22c07885baf31" target="_top" xlink:title="Updates PulseEngine feedback and status.">
<polygon fill="white" stroke="black" points="126,-44.5 126,-74.5 254,-74.5 254,-44.5 126,-44.5"/>
<text text-anchor="start" x="134" y="-62.5" font-family="Helvetica,sans-Serif" font-size="10.00">PoKeysHALComponent</text>
<text text-anchor="middle" x="190" y="-51.5" font-family="Helvetica,sans-Serif" font-size="10.00">::PKPEv2_Update</text>
</a>
</g>
</g>
<!-- Node2&#45;&gt;Node3 -->
<g id="edge2" class="edge">
<title>Node2&#45;&gt;Node3</title>
<path fill="none" stroke="midnightblue" d="M293.83,-59.5C280.96,-59.5 267.29,-59.5 254.26,-59.5"/>
<polygon fill="midnightblue" stroke="midnightblue" points="293.96,-63 303.96,-59.5 293.95,-56 293.96,-63"/>
</g>
<!-- Node4 -->
<g id="node4" class="node">
<title>Node4</title>
<g id="a_node4"><a xlink:href="pokeys_8c.html#a6e89ee20635570c2e51b81bf26e895cc" target="_top" xlink:title=" ">
<polygon fill="white" stroke="black" points="0,-50 0,-69 90,-69 90,-50 0,-50"/>
<text text-anchor="middle" x="45" y="-57" font-family="Helvetica,sans-Serif" font-size="10.00">pokeys_update</text>
</a>
</g>
</g>
<!-- Node3&#45;&gt;Node4 -->
<g id="edge3" class="edge">
<title>Node3&#45;&gt;Node4</title>
<path fill="none" stroke="midnightblue" d="M115.72,-59.5C107.06,-59.5 98.44,-59.5 90.36,-59.5"/>
<polygon fill="midnightblue" stroke="midnightblue" points="115.86,-63 125.86,-59.5 115.86,-56 115.86,-63"/>
</g>
<!-- Node6 -->
<g id="node6" class="node">
<title>Node6</title>
<g id="a_node6"><a xlink:href="pokeys_8c.html#a1d59e212b57d33fe74e44b64cadf3314" target="_top" xlink:title=" ">
<polygon fill="white" stroke="black" points="142.5,-6 142.5,-25 237.5,-25 237.5,-6 142.5,-6"/>
<text text-anchor="middle" x="190" y="-13" font-family="Helvetica,sans-Serif" font-size="10.00">pokeys_read_ini</text>
</a>
</g>
</g>
<!-- Node5&#45;&gt;Node6 -->
<g id="edge5" class="edge">
<title>Node5&#45;&gt;Node6</title>
<path fill="none" stroke="midnightblue" d="M279.59,-15.5C265.32,-15.5 250.73,-15.5 237.62,-15.5"/>
<polygon fill="midnightblue" stroke="midnightblue" points="279.9,-19 289.9,-15.5 279.9,-12 279.9,-19"/>
</g>
</g>
</svg>
