<?xml version="1.0" encoding="UTF-8" standalone="no"?>
<!DOCTYPE svg PUBLIC "-//W3C//DTD SVG 1.1//EN"
 "http://www.w3.org/Graphics/SVG/1.1/DTD/svg11.dtd">
<!-- Generated by graphviz version 2.43.0 (0)
 -->
<!-- Title: /home/cnc/actions&#45;runner/_work/LinuxCnc_PokeysLibComp/LinuxCnc_PokeysLibComp/external/pokeysHal/PoKeysLibDevicePoKeys57Industrial.c Pages: 1 -->
<!--zoomable 341 -->
<svg id="main" version="1.1" xmlns="http://www.w3.org/2000/svg" xmlns:xlink="http://www.w3.org/1999/xlink" xml:space="preserve" onload="init(evt)">
<style type="text/css"><![CDATA[
.edge:hover path { stroke: red; }
.edge:hover polygon { stroke: red; fill: red; }
]]></style>
<script type="text/javascript"><![CDATA[
var edges = document.getElementsByTagName('g');
if (edges && edges.length) {
  for (var i=0;i<edges.length;i++) {
    if (edges[i].id.substr(0,4)=='edge') {
      edges[i].setAttribute('class','edge');
    }
  }
}
]]></script>
        <defs>
                <circle id="rim" cx="0" cy="0" r="7"/>
                <circle id="rim2" cx="0" cy="0" r="3.5"/>
                <g id="zoomPlus">
                        <use xlink:href="#rim" fill="#404040">
                                <set attributeName="fill" to="#808080" begin="zoomplus.mouseover" end="zoomplus.mouseout"/>
                        </use>
                        <path d="M-4,0h8M0,-4v8" fill="none" stroke="white" stroke-width="1.5" pointer-events="none"/>
                </g>
                <g id="zoomMin">
                        <use xlink:href="#rim" fill="#404040">
                                <set attributeName="fill" to="#808080" begin="zoomminus.mouseover" end="zoomminus.mouseout"/>
                        </use>
                        <path d="M-4,0h8" fill="none" stroke="white" stroke-width="1.5" pointer-events="none"/>
                </g>
                <g id="dirArrow">
                        <path fill="none" stroke="white" stroke-width="1.5" d="M0,-3.0v7 M-2.5,-0.5L0,-3.0L2.5,-0.5"/>
                </g>
               <g id="resetDef">
                       <use xlink:href="#rim2" fill="#404040">
                               <set attributeName="fill" to="#808080" begin="reset.mouseover" end="reset.mouseout"/>
                       </use>
               </g>
        </defs>

<script type="text/javascript">
var viewWidth = 1244;
var viewHeight = 341;
var sectionId = 'dynsection-0';
</script>
<script xlink:href="svgpan.js"/>
<svg id="graph" class="graph">
<g id="viewport">
<title>/home/cnc/actions&#45;runner/_work/LinuxCnc_PokeysLibComp/LinuxCnc_PokeysLibComp/external/pokeysHal/PoKeysLibDevicePoKeys57Industrial.c</title>
<polygon fill="white" stroke="transparent" points="-4,4 -4,-337 1240,-337 1240,4 -4,4"/>
<!-- Node1 -->
<g id="node1" class="node">
<title>Node1</title>
<g id="a_node1"><a xlink:title="Support for the PoKeys57Industrial device.">
<polygon fill="#bfbfbf" stroke="black" points="542,-280.5 542,-332.5 800,-332.5 800,-280.5 542,-280.5"/>
<text text-anchor="start" x="550" y="-320.5" font-family="Helvetica,sans-Serif" font-size="10.00">/home/cnc/actions&#45;runner</text>
<text text-anchor="start" x="550" y="-309.5" font-family="Helvetica,sans-Serif" font-size="10.00">/_work/LinuxCnc_PokeysLibComp</text>
<text text-anchor="start" x="550" y="-298.5" font-family="Helvetica,sans-Serif" font-size="10.00">/LinuxCnc_PokeysLibComp/external</text>
<text text-anchor="middle" x="671" y="-287.5" font-family="Helvetica,sans-Serif" font-size="10.00">/pokeysHal/PoKeysLibDevicePoKeys57Industrial.c</text>
</a>
</g>
</g>
<!-- Node2 -->
<g id="node2" class="node">
<title>Node2</title>
<g id="a_node2"><a xlink:title=" ">
<polygon fill="white" stroke="#bfbfbf" points="145.5,-224.5 145.5,-243.5 198.5,-243.5 198.5,-224.5 145.5,-224.5"/>
<text text-anchor="middle" x="172" y="-231.5" font-family="Helvetica,sans-Serif" font-size="10.00">stdlib.h</text>
</a>
</g>
</g>
<!-- Node1&#45;&gt;Node2 -->
<g id="edge1" class="edge">
<title>Node1&#45;&gt;Node2</title>
<path fill="none" stroke="midnightblue" d="M541.75,-291.03C449.76,-280.03 323.41,-263.5 213,-244 211.71,-243.77 210.4,-243.53 209.07,-243.28"/>
<polygon fill="midnightblue" stroke="midnightblue" points="209.34,-239.76 198.84,-241.23 207.96,-246.63 209.34,-239.76"/>
</g>
<!-- Node3 -->
<g id="node3" class="node">
<title>Node3</title>
<g id="a_node3"><a xlink:href="PoKeysLibHal_8h.html" target="_top" xlink:title=" ">
<polygon fill="white" stroke="black" points="265,-168.5 265,-187.5 357,-187.5 357,-168.5 265,-168.5"/>
<text text-anchor="middle" x="311" y="-175.5" font-family="Helvetica,sans-Serif" font-size="10.00">PoKeysLibHal.h</text>
</a>
</g>
</g>
<!-- Node1&#45;&gt;Node3 -->
<g id="edge2" class="edge">
<title>Node1&#45;&gt;Node3</title>
<path fill="none" stroke="midnightblue" d="M541.86,-304.72C431.17,-300.97 283.76,-287.61 246,-244 229.61,-225.06 257.75,-204.91 281.97,-192.16"/>
<polygon fill="midnightblue" stroke="midnightblue" points="283.6,-195.26 290.97,-187.65 280.46,-189 283.6,-195.26"/>
</g>
<!-- Node17 -->
<g id="node17" class="node">
<title>Node17</title>
<g id="a_node17"><a xlink:href="pokeysHal_2PoKeysLibCore_8h.html" target="_top" xlink:title=" ">
<polygon fill="white" stroke="black" points="409,-224.5 409,-243.5 507,-243.5 507,-224.5 409,-224.5"/>
<text text-anchor="middle" x="458" y="-231.5" font-family="Helvetica,sans-Serif" font-size="10.00">PoKeysLibCore.h</text>
</a>
</g>
</g>
<!-- Node1&#45;&gt;Node17 -->
<g id="edge16" class="edge">
<title>Node1&#45;&gt;Node17</title>
<path fill="none" stroke="midnightblue" d="M595.3,-280.45C560.59,-268.95 521.09,-255.88 493.4,-246.72"/>
<polygon fill="midnightblue" stroke="midnightblue" points="494.36,-243.35 483.76,-243.53 492.16,-249.99 494.36,-243.35"/>
</g>
<!-- Node20 -->
<g id="node20" class="node">
<title>Node20</title>
<g id="a_node20"><a xlink:title=" ">
<polygon fill="white" stroke="#bfbfbf" points="484,-168.5 484,-187.5 534,-187.5 534,-168.5 484,-168.5"/>
<text text-anchor="middle" x="509" y="-175.5" font-family="Helvetica,sans-Serif" font-size="10.00">stdio.h</text>
</a>
</g>
</g>
<!-- Node1&#45;&gt;Node20 -->
<g id="edge32" class="edge">
<title>Node1&#45;&gt;Node20</title>
<path fill="none" stroke="midnightblue" d="M630.17,-280.2C613.85,-269.58 595.13,-256.75 579,-244 559.42,-228.53 538.68,-208.79 524.9,-195.14"/>
<polygon fill="midnightblue" stroke="midnightblue" points="527.2,-192.49 517.65,-187.89 522.24,-197.44 527.2,-192.49"/>
</g>
<!-- Node21 -->
<g id="node21" class="node">
<title>Node21</title>
<g id="a_node21"><a xlink:title=" ">
<polygon fill="white" stroke="#bfbfbf" points="552.5,-168.5 552.5,-187.5 605.5,-187.5 605.5,-168.5 552.5,-168.5"/>
<text text-anchor="middle" x="579" y="-175.5" font-family="Helvetica,sans-Serif" font-size="10.00">string.h</text>
</a>
</g>
</g>
<!-- Node1&#45;&gt;Node21 -->
<g id="edge31" class="edge">
<title>Node1&#45;&gt;Node21</title>
<path fill="none" stroke="midnightblue" d="M627.69,-280.4C614.35,-270.65 600.86,-258.34 592,-244 583.4,-230.08 580.34,-211.57 579.32,-197.86"/>
<polygon fill="midnightblue" stroke="midnightblue" points="582.81,-197.52 578.87,-187.69 575.82,-197.83 582.81,-197.52"/>
</g>
<!-- Node22 -->
<g id="node22" class="node">
<title>Node22</title>
<g id="a_node22"><a xlink:title=" ">
<polygon fill="white" stroke="#bfbfbf" points="601,-224.5 601,-243.5 657,-243.5 657,-224.5 601,-224.5"/>
<text text-anchor="middle" x="629" y="-231.5" font-family="Helvetica,sans-Serif" font-size="10.00">unistd.h</text>
</a>
</g>
</g>
<!-- Node1&#45;&gt;Node22 -->
<g id="edge22" class="edge">
<title>Node1&#45;&gt;Node22</title>
<path fill="none" stroke="midnightblue" d="M656.07,-280.45C650.52,-271.13 644.35,-260.77 639.31,-252.3"/>
<polygon fill="midnightblue" stroke="midnightblue" points="642.31,-250.5 634.18,-243.7 636.29,-254.08 642.31,-250.5"/>
</g>
<!-- Node23 -->
<g id="node23" class="node">
<title>Node23</title>
<g id="a_node23"><a xlink:title=" ">
<polygon fill="white" stroke="#bfbfbf" points="675.5,-224.5 675.5,-243.5 752.5,-243.5 752.5,-224.5 675.5,-224.5"/>
<text text-anchor="middle" x="714" y="-231.5" font-family="Helvetica,sans-Serif" font-size="10.00">sys/socket.h</text>
</a>
</g>
</g>
<!-- Node1&#45;&gt;Node23 -->
<g id="edge23" class="edge">
<title>Node1&#45;&gt;Node23</title>
<path fill="none" stroke="midnightblue" d="M686.28,-280.45C691.96,-271.13 698.28,-260.77 703.45,-252.3"/>
<polygon fill="midnightblue" stroke="midnightblue" points="706.48,-254.06 708.7,-243.7 700.5,-250.41 706.48,-254.06"/>
</g>
<!-- Node24 -->
<g id="node24" class="node">
<title>Node24</title>
<g id="a_node24"><a xlink:title=" ">
<polygon fill="white" stroke="#bfbfbf" points="770.5,-224.5 770.5,-243.5 823.5,-243.5 823.5,-224.5 770.5,-224.5"/>
<text text-anchor="middle" x="797" y="-231.5" font-family="Helvetica,sans-Serif" font-size="10.00">netdb.h</text>
</a>
</g>
</g>
<!-- Node1&#45;&gt;Node24 -->
<g id="edge24" class="edge">
<title>Node1&#45;&gt;Node24</title>
<path fill="none" stroke="midnightblue" d="M715.78,-280.45C735.05,-269.66 756.82,-257.48 772.97,-248.45"/>
<polygon fill="midnightblue" stroke="midnightblue" points="774.74,-251.46 781.76,-243.53 771.32,-245.36 774.74,-251.46"/>
</g>
<!-- Node25 -->
<g id="node25" class="node">
<title>Node25</title>
<g id="a_node25"><a xlink:title=" ">
<polygon fill="white" stroke="#bfbfbf" points="842,-224.5 842,-243.5 914,-243.5 914,-224.5 842,-224.5"/>
<text text-anchor="middle" x="878" y="-231.5" font-family="Helvetica,sans-Serif" font-size="10.00">netinet/in.h</text>
</a>
</g>
</g>
<!-- Node1&#45;&gt;Node25 -->
<g id="edge25" class="edge">
<title>Node1&#45;&gt;Node25</title>
<path fill="none" stroke="midnightblue" d="M744.56,-280.45C778.16,-269.01 816.35,-256 843.24,-246.84"/>
<polygon fill="midnightblue" stroke="midnightblue" points="844.63,-250.06 852.96,-243.53 842.37,-243.44 844.63,-250.06"/>
</g>
<!-- Node26 -->
<g id="node26" class="node">
<title>Node26</title>
<g id="a_node26"><a xlink:title=" ">
<polygon fill="white" stroke="#bfbfbf" points="932,-224.5 932,-243.5 982,-243.5 982,-224.5 932,-224.5"/>
<text text-anchor="middle" x="957" y="-231.5" font-family="Helvetica,sans-Serif" font-size="10.00">net/if.h</text>
</a>
</g>
</g>
<!-- Node1&#45;&gt;Node26 -->
<g id="edge26" class="edge">
<title>Node1&#45;&gt;Node26</title>
<path fill="none" stroke="midnightblue" d="M775.63,-280.45C818.33,-270.1 868.4,-257.83 921.76,-244.28"/>
<polygon fill="midnightblue" stroke="midnightblue" points="922.93,-247.6 931.76,-241.74 921.21,-240.81 922.93,-247.6"/>
</g>
<!-- Node27 -->
<g id="node27" class="node">
<title>Node27</title>
<g id="a_node27"><a xlink:title=" ">
<polygon fill="white" stroke="#bfbfbf" points="1000.5,-224.5 1000.5,-243.5 1069.5,-243.5 1069.5,-224.5 1000.5,-224.5"/>
<text text-anchor="middle" x="1035" y="-231.5" font-family="Helvetica,sans-Serif" font-size="10.00">arpa/inet.h</text>
</a>
</g>
</g>
<!-- Node1&#45;&gt;Node27 -->
<g id="edge27" class="edge">
<title>Node1&#45;&gt;Node27</title>
<path fill="none" stroke="midnightblue" d="M800.3,-281.01C855.87,-270.4 921.79,-257.69 990.29,-244.12"/>
<polygon fill="midnightblue" stroke="midnightblue" points="991.29,-247.49 1000.42,-242.11 989.93,-240.63 991.29,-247.49"/>
</g>
<!-- Node28 -->
<g id="node28" class="node">
<title>Node28</title>
<g id="a_node28"><a xlink:title=" ">
<polygon fill="white" stroke="#bfbfbf" points="1088,-224.5 1088,-243.5 1154,-243.5 1154,-224.5 1088,-224.5"/>
<text text-anchor="middle" x="1121" y="-231.5" font-family="Helvetica,sans-Serif" font-size="10.00">sys/ioctl.h</text>
</a>
</g>
</g>
<!-- Node1&#45;&gt;Node28 -->
<g id="edge28" class="edge">
<title>Node1&#45;&gt;Node28</title>
<path fill="none" stroke="midnightblue" d="M800.42,-288.06C878.14,-277.1 979.19,-261.97 1077.45,-244.2"/>
<polygon fill="midnightblue" stroke="midnightblue" points="1078.35,-247.59 1087.57,-242.36 1077.1,-240.71 1078.35,-247.59"/>
</g>
<!-- Node29 -->
<g id="node29" class="node">
<title>Node29</title>
<g id="a_node29"><a xlink:href="pokeysHal_2PoKeysLibCoreSockets_8h.html" target="_top" xlink:title=" ">
<polygon fill="white" stroke="black" points="255.5,-224.5 255.5,-243.5 390.5,-243.5 390.5,-224.5 255.5,-224.5"/>
<text text-anchor="middle" x="323" y="-231.5" font-family="Helvetica,sans-Serif" font-size="10.00">PoKeysLibCoreSockets.h</text>
</a>
</g>
</g>
<!-- Node1&#45;&gt;Node29 -->
<g id="edge29" class="edge">
<title>Node1&#45;&gt;Node29</title>
<path fill="none" stroke="midnightblue" d="M547.33,-280.45C488.12,-268.45 420.4,-254.73 375,-245.53"/>
<polygon fill="midnightblue" stroke="midnightblue" points="375.59,-242.08 365.09,-243.53 374.2,-248.94 375.59,-242.08"/>
</g>
<!-- Node30 -->
<g id="node30" class="node">
<title>Node30</title>
<g id="a_node30"><a xlink:title=" ">
<polygon fill="white" stroke="#bfbfbf" points="1172,-224.5 1172,-243.5 1236,-243.5 1236,-224.5 1172,-224.5"/>
<text text-anchor="middle" x="1204" y="-231.5" font-family="Helvetica,sans-Serif" font-size="10.00">sys/stat.h</text>
</a>
</g>
</g>
<!-- Node1&#45;&gt;Node30 -->
<g id="edge33" class="edge">
<title>Node1&#45;&gt;Node30</title>
<path fill="none" stroke="midnightblue" d="M800.19,-292.63C897.18,-282.19 1033.39,-265.91 1161.81,-244.07"/>
<polygon fill="midnightblue" stroke="midnightblue" points="1162.56,-247.49 1171.83,-242.35 1161.38,-240.59 1162.56,-247.49"/>
</g>
<!-- Node4 -->
<g id="node4" class="node">
<title>Node4</title>
<g id="a_node4"><a xlink:title=" ">
<polygon fill="white" stroke="#bfbfbf" points="194.5,-112.5 194.5,-131.5 247.5,-131.5 247.5,-112.5 194.5,-112.5"/>
<text text-anchor="middle" x="221" y="-119.5" font-family="Helvetica,sans-Serif" font-size="10.00">stdint.h</text>
</a>
</g>
</g>
<!-- Node3&#45;&gt;Node4 -->
<g id="edge3" class="edge">
<title>Node3&#45;&gt;Node4</title>
<path fill="none" stroke="midnightblue" d="M296.54,-168.32C282.5,-159.9 260.95,-146.97 244.46,-137.07"/>
<polygon fill="midnightblue" stroke="midnightblue" points="245.8,-133.8 235.42,-131.65 242.2,-139.8 245.8,-133.8"/>
</g>
<!-- Node5 -->
<g id="node5" class="node">
<title>Node5</title>
<g id="a_node5"><a xlink:href="hal_8h.html" target="_top" xlink:title=" ">
<polygon fill="white" stroke="black" points="265.5,-112.5 265.5,-131.5 306.5,-131.5 306.5,-112.5 265.5,-112.5"/>
<text text-anchor="middle" x="286" y="-119.5" font-family="Helvetica,sans-Serif" font-size="10.00">hal.h</text>
</a>
</g>
</g>
<!-- Node3&#45;&gt;Node5 -->
<g id="edge4" class="edge">
<title>Node3&#45;&gt;Node5</title>
<path fill="none" stroke="midnightblue" d="M306.87,-168.08C303.49,-160.77 298.58,-150.18 294.38,-141.1"/>
<polygon fill="midnightblue" stroke="midnightblue" points="297.43,-139.36 290.05,-131.75 291.08,-142.3 297.43,-139.36"/>
</g>
<!-- Node16 -->
<g id="node16" class="node">
<title>Node16</title>
<g id="a_node16"><a xlink:title=" ">
<polygon fill="white" stroke="#bfbfbf" points="324.5,-112.5 324.5,-131.5 399.5,-131.5 399.5,-112.5 324.5,-112.5"/>
<text text-anchor="middle" x="362" y="-119.5" font-family="Helvetica,sans-Serif" font-size="10.00">hal_canon.h</text>
</a>
</g>
</g>
<!-- Node3&#45;&gt;Node16 -->
<g id="edge15" class="edge">
<title>Node3&#45;&gt;Node16</title>
<path fill="none" stroke="midnightblue" d="M319.42,-168.08C326.85,-160.22 337.85,-148.57 346.81,-139.08"/>
<polygon fill="midnightblue" stroke="midnightblue" points="349.41,-141.42 353.74,-131.75 344.32,-136.62 349.41,-141.42"/>
</g>
<!-- Node6 -->
<g id="node6" class="node">
<title>Node6</title>
<g id="a_node6"><a xlink:href="rtapi_8h.html" target="_top" xlink:title=" ">
<polygon fill="white" stroke="black" points="106,-56.5 106,-75.5 154,-75.5 154,-56.5 106,-56.5"/>
<text text-anchor="middle" x="130" y="-63.5" font-family="Helvetica,sans-Serif" font-size="10.00">rtapi.h</text>
</a>
</g>
</g>
<!-- Node5&#45;&gt;Node6 -->
<g id="edge5" class="edge">
<title>Node5&#45;&gt;Node6</title>
<path fill="none" stroke="midnightblue" d="M265.28,-113.83C239.33,-104.85 194.53,-89.34 163.63,-78.64"/>
<polygon fill="midnightblue" stroke="midnightblue" points="164.73,-75.32 154.13,-75.35 162.44,-81.93 164.73,-75.32"/>
</g>
<!-- Node10 -->
<g id="node10" class="node">
<title>Node10</title>
<g id="a_node10"><a xlink:href="rtapi__errno_8h.html" target="_top" xlink:title=" ">
<polygon fill="white" stroke="black" points="199.5,-56.5 199.5,-75.5 278.5,-75.5 278.5,-56.5 199.5,-56.5"/>
<text text-anchor="middle" x="239" y="-63.5" font-family="Helvetica,sans-Serif" font-size="10.00">rtapi_errno.h</text>
</a>
</g>
</g>
<!-- Node5&#45;&gt;Node10 -->
<g id="edge9" class="edge">
<title>Node5&#45;&gt;Node10</title>
<path fill="none" stroke="midnightblue" d="M278.24,-112.08C271.46,-104.3 261.46,-92.8 253.24,-83.37"/>
<polygon fill="midnightblue" stroke="midnightblue" points="255.82,-81 246.62,-75.75 250.54,-85.59 255.82,-81"/>
</g>
<!-- Node12 -->
<g id="node12" class="node">
<title>Node12</title>
<g id="a_node12"><a xlink:href="rtapi__bool_8h.html" target="_top" xlink:title=" ">
<polygon fill="white" stroke="black" points="297,-56.5 297,-75.5 371,-75.5 371,-56.5 297,-56.5"/>
<text text-anchor="middle" x="334" y="-63.5" font-family="Helvetica,sans-Serif" font-size="10.00">rtapi_bool.h</text>
</a>
</g>
</g>
<!-- Node5&#45;&gt;Node12 -->
<g id="edge11" class="edge">
<title>Node5&#45;&gt;Node12</title>
<path fill="none" stroke="midnightblue" d="M293.93,-112.08C300.85,-104.3 311.07,-92.8 319.45,-83.37"/>
<polygon fill="midnightblue" stroke="midnightblue" points="322.19,-85.55 326.22,-75.75 316.96,-80.9 322.19,-85.55"/>
</g>
<!-- Node14 -->
<g id="node14" class="node">
<title>Node14</title>
<g id="a_node14"><a xlink:href="rtapi__stdint_8h.html" target="_top" xlink:title=" ">
<polygon fill="white" stroke="black" points="389.5,-56.5 389.5,-75.5 470.5,-75.5 470.5,-56.5 389.5,-56.5"/>
<text text-anchor="middle" x="430" y="-63.5" font-family="Helvetica,sans-Serif" font-size="10.00">rtapi_stdint.h</text>
</a>
</g>
</g>
<!-- Node5&#45;&gt;Node14 -->
<g id="edge13" class="edge">
<title>Node5&#45;&gt;Node14</title>
<path fill="none" stroke="midnightblue" d="M306.63,-113.26C330.32,-104.38 369.49,-89.69 397.33,-79.25"/>
<polygon fill="midnightblue" stroke="midnightblue" points="398.89,-82.4 407.03,-75.62 396.43,-75.85 398.89,-82.4"/>
</g>
<!-- Node7 -->
<g id="node7" class="node">
<title>Node7</title>
<g id="a_node7"><a xlink:title=" ">
<polygon fill="white" stroke="#bfbfbf" points="0,-0.5 0,-19.5 56,-19.5 56,-0.5 0,-0.5"/>
<text text-anchor="middle" x="28" y="-7.5" font-family="Helvetica,sans-Serif" font-size="10.00">stddef.h</text>
</a>
</g>
</g>
<!-- Node6&#45;&gt;Node7 -->
<g id="edge6" class="edge">
<title>Node6&#45;&gt;Node7</title>
<path fill="none" stroke="midnightblue" d="M113.61,-56.32C97.33,-47.7 72.13,-34.36 53.28,-24.39"/>
<polygon fill="midnightblue" stroke="midnightblue" points="54.82,-21.24 44.35,-19.65 51.55,-27.43 54.82,-21.24"/>
</g>
<!-- Node8 -->
<g id="node8" class="node">
<title>Node8</title>
<g id="a_node8"><a xlink:title=" ">
<polygon fill="white" stroke="#bfbfbf" points="74,-0.5 74,-19.5 130,-19.5 130,-0.5 74,-0.5"/>
<text text-anchor="middle" x="102" y="-7.5" font-family="Helvetica,sans-Serif" font-size="10.00">stdarg.h</text>
</a>
</g>
</g>
<!-- Node6&#45;&gt;Node8 -->
<g id="edge7" class="edge">
<title>Node6&#45;&gt;Node8</title>
<path fill="none" stroke="midnightblue" d="M125.38,-56.08C121.54,-48.69 115.98,-37.95 111.24,-28.81"/>
<polygon fill="midnightblue" stroke="midnightblue" points="114.25,-27.02 106.54,-19.75 108.03,-30.24 114.25,-27.02"/>
</g>
<!-- Node9 -->
<g id="node9" class="node">
<title>Node9</title>
<g id="a_node9"><a xlink:title=" ">
<polygon fill="white" stroke="#bfbfbf" points="148.5,-0.5 148.5,-19.5 205.5,-19.5 205.5,-0.5 148.5,-0.5"/>
<text text-anchor="middle" x="177" y="-7.5" font-family="Helvetica,sans-Serif" font-size="10.00">spawn.h</text>
</a>
</g>
</g>
<!-- Node6&#45;&gt;Node9 -->
<g id="edge8" class="edge">
<title>Node6&#45;&gt;Node9</title>
<path fill="none" stroke="midnightblue" d="M137.76,-56.08C144.54,-48.3 154.54,-36.8 162.76,-27.37"/>
<polygon fill="midnightblue" stroke="midnightblue" points="165.46,-29.59 169.38,-19.75 160.18,-25 165.46,-29.59"/>
</g>
<!-- Node11 -->
<g id="node11" class="node">
<title>Node11</title>
<g id="a_node11"><a xlink:title=" ">
<polygon fill="white" stroke="#bfbfbf" points="223.5,-0.5 223.5,-19.5 274.5,-19.5 274.5,-0.5 223.5,-0.5"/>
<text text-anchor="middle" x="249" y="-7.5" font-family="Helvetica,sans-Serif" font-size="10.00">errno.h</text>
</a>
</g>
</g>
<!-- Node10&#45;&gt;Node11 -->
<g id="edge10" class="edge">
<title>Node10&#45;&gt;Node11</title>
<path fill="none" stroke="midnightblue" d="M240.65,-56.08C241.98,-48.93 243.88,-38.64 245.54,-29.69"/>
<polygon fill="midnightblue" stroke="midnightblue" points="249,-30.22 247.38,-19.75 242.12,-28.95 249,-30.22"/>
</g>
<!-- Node13 -->
<g id="node13" class="node">
<title>Node13</title>
<g id="a_node13"><a xlink:title=" ">
<polygon fill="white" stroke="#bfbfbf" points="303,-0.5 303,-19.5 365,-19.5 365,-0.5 303,-0.5"/>
<text text-anchor="middle" x="334" y="-7.5" font-family="Helvetica,sans-Serif" font-size="10.00">stdbool.h</text>
</a>
</g>
</g>
<!-- Node12&#45;&gt;Node13 -->
<g id="edge12" class="edge">
<title>Node12&#45;&gt;Node13</title>
<path fill="none" stroke="midnightblue" d="M334,-56.08C334,-49.01 334,-38.86 334,-29.99"/>
<polygon fill="midnightblue" stroke="midnightblue" points="337.5,-29.75 334,-19.75 330.5,-29.75 337.5,-29.75"/>
</g>
<!-- Node15 -->
<g id="node15" class="node">
<title>Node15</title>
<g id="a_node15"><a xlink:title=" ">
<polygon fill="white" stroke="#bfbfbf" points="397.5,-0.5 397.5,-19.5 462.5,-19.5 462.5,-0.5 397.5,-0.5"/>
<text text-anchor="middle" x="430" y="-7.5" font-family="Helvetica,sans-Serif" font-size="10.00">inttypes.h</text>
</a>
</g>
</g>
<!-- Node14&#45;&gt;Node15 -->
<g id="edge14" class="edge">
<title>Node14&#45;&gt;Node15</title>
<path fill="none" stroke="midnightblue" d="M430,-56.08C430,-49.01 430,-38.86 430,-29.99"/>
<polygon fill="midnightblue" stroke="midnightblue" points="433.5,-29.75 430,-19.75 426.5,-29.75 433.5,-29.75"/>
</g>
<!-- Node17&#45;&gt;Node3 -->
<g id="edge21" class="edge">
<title>Node17&#45;&gt;Node3</title>
<path fill="none" stroke="midnightblue" d="M434.71,-224.44C410.19,-215.44 371.4,-201.19 343.8,-191.05"/>
<polygon fill="midnightblue" stroke="midnightblue" points="344.78,-187.68 334.18,-187.52 342.36,-194.25 344.78,-187.68"/>
</g>
<!-- Node18 -->
<g id="node18" class="node">
<title>Node18</title>
<g id="a_node18"><a xlink:href="pokeysHal_2hidapi_8h.html" target="_top" xlink:title=" ">
<polygon fill="white" stroke="black" points="410,-168.5 410,-187.5 466,-187.5 466,-168.5 410,-168.5"/>
<text text-anchor="middle" x="438" y="-175.5" font-family="Helvetica,sans-Serif" font-size="10.00">hidapi.h</text>
</a>
</g>
</g>
<!-- Node17&#45;&gt;Node18 -->
<g id="edge17" class="edge">
<title>Node17&#45;&gt;Node18</title>
<path fill="none" stroke="midnightblue" d="M454.7,-224.08C452.02,-216.85 448.15,-206.41 444.81,-197.4"/>
<polygon fill="midnightblue" stroke="midnightblue" points="448,-195.91 441.24,-187.75 441.43,-198.34 448,-195.91"/>
</g>
<!-- Node17&#45;&gt;Node20 -->
<g id="edge19" class="edge">
<title>Node17&#45;&gt;Node20</title>
<path fill="none" stroke="midnightblue" d="M466.42,-224.08C473.85,-216.22 484.85,-204.57 493.81,-195.08"/>
<polygon fill="midnightblue" stroke="midnightblue" points="496.41,-197.42 500.74,-187.75 491.32,-192.62 496.41,-197.42"/>
</g>
<!-- Node17&#45;&gt;Node21 -->
<g id="edge20" class="edge">
<title>Node17&#45;&gt;Node21</title>
<path fill="none" stroke="midnightblue" d="M477.17,-224.44C496.91,-215.64 527.89,-201.81 550.49,-191.72"/>
<polygon fill="midnightblue" stroke="midnightblue" points="552.21,-194.79 559.92,-187.52 549.36,-188.4 552.21,-194.79"/>
</g>
<!-- Node19 -->
<g id="node19" class="node">
<title>Node19</title>
<g id="a_node19"><a xlink:title=" ">
<polygon fill="white" stroke="#bfbfbf" points="418,-112.5 418,-131.5 472,-131.5 472,-112.5 418,-112.5"/>
<text text-anchor="middle" x="445" y="-119.5" font-family="Helvetica,sans-Serif" font-size="10.00">wchar.h</text>
</a>
</g>
</g>
<!-- Node18&#45;&gt;Node19 -->
<g id="edge18" class="edge">
<title>Node18&#45;&gt;Node19</title>
<path fill="none" stroke="midnightblue" d="M439.16,-168.08C440.08,-160.93 441.42,-150.64 442.58,-141.69"/>
<polygon fill="midnightblue" stroke="midnightblue" points="446.05,-142.12 443.87,-131.75 439.11,-141.22 446.05,-142.12"/>
</g>
<!-- Node29&#45;&gt;Node3 -->
<g id="edge30" class="edge">
<title>Node29&#45;&gt;Node3</title>
<path fill="none" stroke="midnightblue" d="M321.02,-224.08C319.43,-216.93 317.14,-206.64 315.15,-197.69"/>
<polygon fill="midnightblue" stroke="midnightblue" points="318.53,-196.75 312.94,-187.75 311.7,-198.27 318.53,-196.75"/>
</g>
</g>
</svg>
        <g id="navigator" transform="translate(0 0)" fill="#404254">
                <rect fill="#f2f5e9" fill-opacity="0.5" stroke="#606060" stroke-width=".5" x="0" y="0" width="60" height="60"/>
                <use id="zoomplus" xlink:href="#zoomPlus" x="17" y="9" onmousedown="handleZoom(evt,'in')"/>
                <use id="zoomminus" xlink:href="#zoomMin" x="42" y="9" onmousedown="handleZoom(evt,'out')"/>
                <use id="reset" xlink:href="#resetDef" x="30" y="36" onmousedown="handleReset()"/>
                <g id="arrowUp" xlink:href="#dirArrow" transform="translate(30 24)" onmousedown="handlePan(0,-1)">
                  <use xlink:href="#rim" fill="#404040">
                        <set attributeName="fill" to="#808080" begin="arrowUp.mouseover" end="arrowUp.mouseout"/>
                  </use>
                  <path fill="none" stroke="white" stroke-width="1.5" d="M0,-3.0v7 M-2.5,-0.5L0,-3.0L2.5,-0.5"/>
                </g>
                <g id="arrowRight" xlink:href="#dirArrow" transform="rotate(90) translate(36 -43)" onmousedown="handlePan(1,0)">
                  <use xlink:href="#rim" fill="#404040">
                        <set attributeName="fill" to="#808080" begin="arrowRight.mouseover" end="arrowRight.mouseout"/>
                  </use>
                  <path fill="none" stroke="white" stroke-width="1.5" d="M0,-3.0v7 M-2.5,-0.5L0,-3.0L2.5,-0.5"/>
                </g>
                <g id="arrowDown" xlink:href="#dirArrow" transform="rotate(180) translate(-30 -48)" onmousedown="handlePan(0,1)">
                  <use xlink:href="#rim" fill="#404040">
                        <set attributeName="fill" to="#808080" begin="arrowDown.mouseover" end="arrowDown.mouseout"/>
                  </use>
                  <path fill="none" stroke="white" stroke-width="1.5" d="M0,-3.0v7 M-2.5,-0.5L0,-3.0L2.5,-0.5"/>
                </g>
                <g id="arrowLeft" xlink:href="#dirArrow" transform="rotate(270) translate(-36 17)" onmousedown="handlePan(-1,0)">
                  <use xlink:href="#rim" fill="#404040">
                        <set attributeName="fill" to="#808080" begin="arrowLeft.mouseover" end="arrowLeft.mouseout"/>
                  </use>
                  <path fill="none" stroke="white" stroke-width="1.5" d="M0,-3.0v7 M-2.5,-0.5L0,-3.0L2.5,-0.5"/>
                </g>
        </g>
        <svg viewBox="0 0 15 15" width="100%" height="30px" preserveAspectRatio="xMaxYMin meet">
         <g id="arrow_out" transform="scale(0.3 0.3)">
          <a xlink:href="pokeysHal_2PoKeysLibDevicePoKeys57Industrial_8c__incl_org.svg" target="_base">
           <rect id="button" ry="5" rx="5" y="6" x="6" height="38" width="38"
                fill="#f2f5e9" fill-opacity="0.5" stroke="#606060" stroke-width="1.0"/>
           <path id="arrow"
             d="M 11.500037,31.436501 C 11.940474,20.09759 22.043105,11.32322 32.158766,21.979434 L 37.068811,17.246167 C 37.068811,17.246167 37.088388,32 37.088388,32 L 22.160133,31.978069 C 22.160133,31.978069 26.997745,27.140456 26.997745,27.140456 C 18.528582,18.264221 13.291696,25.230495 11.500037,31.436501 z"
             style="fill:#404040;"/>
          </a>
         </g>
        </svg>
</svg>
