<?xml version="1.0" encoding="UTF-8" standalone="no"?>
<!DOCTYPE svg PUBLIC "-//W3C//DTD SVG 1.1//EN"
 "http://www.w3.org/Graphics/SVG/1.1/DTD/svg11.dtd">
<!-- Generated by graphviz version 2.43.0 (0)
 -->
<!-- Title: /home/cnc/actions&#45;runner/_work/LinuxCnc_PokeysLibComp/LinuxCnc_PokeysLibComp/external/pokeysHal/PoKeysLibCore.h Pages: 1 -->
<!--zoomable 150 -->
<svg id="main" version="1.1" xmlns="http://www.w3.org/2000/svg" xmlns:xlink="http://www.w3.org/1999/xlink" xml:space="preserve" onload="init(evt)">
<style type="text/css"><![CDATA[
.edge:hover path { stroke: red; }
.edge:hover polygon { stroke: red; fill: red; }
]]></style>
<script type="text/javascript"><![CDATA[
var edges = document.getElementsByTagName('g');
if (edges && edges.length) {
  for (var i=0;i<edges.length;i++) {
    if (edges[i].id.substr(0,4)=='edge') {
      edges[i].setAttribute('class','edge');
    }
  }
}
]]></script>
        <defs>
                <circle id="rim" cx="0" cy="0" r="7"/>
                <circle id="rim2" cx="0" cy="0" r="3.5"/>
                <g id="zoomPlus">
                        <use xlink:href="#rim" fill="#404040">
                                <set attributeName="fill" to="#808080" begin="zoomplus.mouseover" end="zoomplus.mouseout"/>
                        </use>
                        <path d="M-4,0h8M0,-4v8" fill="none" stroke="white" stroke-width="1.5" pointer-events="none"/>
                </g>
                <g id="zoomMin">
                        <use xlink:href="#rim" fill="#404040">
                                <set attributeName="fill" to="#808080" begin="zoomminus.mouseover" end="zoomminus.mouseout"/>
                        </use>
                        <path d="M-4,0h8" fill="none" stroke="white" stroke-width="1.5" pointer-events="none"/>
                </g>
                <g id="dirArrow">
                        <path fill="none" stroke="white" stroke-width="1.5" d="M0,-3.0v7 M-2.5,-0.5L0,-3.0L2.5,-0.5"/>
                </g>
               <g id="resetDef">
                       <use xlink:href="#rim2" fill="#404040">
                               <set attributeName="fill" to="#808080" begin="reset.mouseover" end="reset.mouseout"/>
                       </use>
               </g>
        </defs>

<script type="text/javascript">
var viewWidth = 4658;
var viewHeight = 150;
var sectionId = 'dynsection-1';
</script>
<script xlink:href="svgpan.js"/>
<svg id="graph" class="graph">
<g id="viewport">
<title>/home/cnc/actions&#45;runner/_work/LinuxCnc_PokeysLibComp/LinuxCnc_PokeysLibComp/external/pokeysHal/PoKeysLibCore.h</title>
<polygon fill="white" stroke="transparent" points="-4,4 -4,-146 4654,-146 4654,4 -4,4"/>
<!-- Node1 -->
<g id="node1" class="node">
<title>Node1</title>
<g id="a_node1"><a xlink:title=" ">
<polygon fill="#bfbfbf" stroke="black" points="2258,-89.5 2258,-141.5 2448,-141.5 2448,-89.5 2258,-89.5"/>
<text text-anchor="start" x="2266" y="-129.5" font-family="Helvetica,sans-Serif" font-size="10.00">/home/cnc/actions&#45;runner</text>
<text text-anchor="start" x="2266" y="-118.5" font-family="Helvetica,sans-Serif" font-size="10.00">/_work/LinuxCnc_PokeysLibComp</text>
<text text-anchor="start" x="2266" y="-107.5" font-family="Helvetica,sans-Serif" font-size="10.00">/LinuxCnc_PokeysLibComp/external</text>
<text text-anchor="middle" x="2353" y="-96.5" font-family="Helvetica,sans-Serif" font-size="10.00">/pokeysHal/PoKeysLibCore.h</text>
</a>
</g>
</g>
<!-- Node2 -->
<g id="node2" class="node">
<title>Node2</title>
<g id="a_node2"><a xlink:href="pokeysHal_2PoKeysLib1Wire_8c.html" target="_top" xlink:title=" ">
<polygon fill="white" stroke="black" points="0,-0.5 0,-52.5 190,-52.5 190,-0.5 0,-0.5"/>
<text text-anchor="start" x="8" y="-40.5" font-family="Helvetica,sans-Serif" font-size="10.00">/home/cnc/actions&#45;runner</text>
<text text-anchor="start" x="8" y="-29.5" font-family="Helvetica,sans-Serif" font-size="10.00">/_work/LinuxCnc_PokeysLibComp</text>
<text text-anchor="start" x="8" y="-18.5" font-family="Helvetica,sans-Serif" font-size="10.00">/LinuxCnc_PokeysLibComp/external</text>
<text text-anchor="middle" x="95" y="-7.5" font-family="Helvetica,sans-Serif" font-size="10.00">/pokeysHal/PoKeysLib1Wire.c</text>
</a>
</g>
</g>
<!-- Node1&#45;&gt;Node2 -->
<g id="edge1" class="edge">
<title>Node1&#45;&gt;Node2</title>
<path fill="none" stroke="midnightblue" d="M2247.66,-114.45C1872.4,-113.79 601.74,-107.5 199,-53 196.05,-52.6 193.07,-52.15 190.06,-51.66"/>
<polygon fill="midnightblue" stroke="midnightblue" points="2247.7,-117.94 2257.7,-114.46 2247.71,-110.94 2247.7,-117.94"/>
</g>
<!-- Node3 -->
<g id="node3" class="node">
<title>Node3</title>
<g id="a_node3"><a xlink:href="pokeysHal_2PoKeysLibCAN_8c.html" target="_top" xlink:title=" ">
<polygon fill="white" stroke="black" points="208,-0.5 208,-52.5 398,-52.5 398,-0.5 208,-0.5"/>
<text text-anchor="start" x="216" y="-40.5" font-family="Helvetica,sans-Serif" font-size="10.00">/home/cnc/actions&#45;runner</text>
<text text-anchor="start" x="216" y="-29.5" font-family="Helvetica,sans-Serif" font-size="10.00">/_work/LinuxCnc_PokeysLibComp</text>
<text text-anchor="start" x="216" y="-18.5" font-family="Helvetica,sans-Serif" font-size="10.00">/LinuxCnc_PokeysLibComp/external</text>
<text text-anchor="middle" x="303" y="-7.5" font-family="Helvetica,sans-Serif" font-size="10.00">/pokeysHal/PoKeysLibCAN.c</text>
</a>
</g>
</g>
<!-- Node1&#45;&gt;Node3 -->
<g id="edge2" class="edge">
<title>Node1&#45;&gt;Node3</title>
<path fill="none" stroke="midnightblue" d="M2247.58,-114.07C1896.25,-112.17 767.23,-102.3 407,-53 404.05,-52.6 401.07,-52.14 398.06,-51.65"/>
<polygon fill="midnightblue" stroke="midnightblue" points="2247.72,-117.57 2257.74,-114.12 2247.76,-110.57 2247.72,-117.57"/>
</g>
<!-- Node4 -->
<g id="node4" class="node">
<title>Node4</title>
<g id="a_node4"><a xlink:href="pokeysHal_2PoKeysLibCore_8c.html" target="_top" xlink:title=" ">
<polygon fill="white" stroke="black" points="416,-0.5 416,-52.5 606,-52.5 606,-0.5 416,-0.5"/>
<text text-anchor="start" x="424" y="-40.5" font-family="Helvetica,sans-Serif" font-size="10.00">/home/cnc/actions&#45;runner</text>
<text text-anchor="start" x="424" y="-29.5" font-family="Helvetica,sans-Serif" font-size="10.00">/_work/LinuxCnc_PokeysLibComp</text>
<text text-anchor="start" x="424" y="-18.5" font-family="Helvetica,sans-Serif" font-size="10.00">/LinuxCnc_PokeysLibComp/external</text>
<text text-anchor="middle" x="511" y="-7.5" font-family="Helvetica,sans-Serif" font-size="10.00">/pokeysHal/PoKeysLibCore.c</text>
</a>
</g>
</g>
<!-- Node1&#45;&gt;Node4 -->
<g id="edge3" class="edge">
<title>Node1&#45;&gt;Node4</title>
<path fill="none" stroke="midnightblue" d="M2247.34,-113.6C1921.14,-110.37 932.85,-97.11 615,-53 612.05,-52.59 609.07,-52.13 606.06,-51.64"/>
<polygon fill="midnightblue" stroke="midnightblue" points="2247.7,-117.1 2257.73,-113.7 2247.76,-110.1 2247.7,-117.1"/>
</g>
<!-- Node5 -->
<g id="node5" class="node">
<title>Node5</title>
<g id="a_node5"><a xlink:href="pokeysHal_2PoKeysLibCoreSockets_8c.html" target="_top" xlink:title=" ">
<polygon fill="white" stroke="black" points="624.5,-0.5 624.5,-52.5 815.5,-52.5 815.5,-0.5 624.5,-0.5"/>
<text text-anchor="start" x="632.5" y="-40.5" font-family="Helvetica,sans-Serif" font-size="10.00">/home/cnc/actions&#45;runner</text>
<text text-anchor="start" x="632.5" y="-29.5" font-family="Helvetica,sans-Serif" font-size="10.00">/_work/LinuxCnc_PokeysLibComp</text>
<text text-anchor="start" x="632.5" y="-18.5" font-family="Helvetica,sans-Serif" font-size="10.00">/LinuxCnc_PokeysLibComp/external</text>
<text text-anchor="middle" x="720" y="-7.5" font-family="Helvetica,sans-Serif" font-size="10.00">/pokeysHal/PoKeysLibCoreSockets.c</text>
</a>
</g>
</g>
<!-- Node1&#45;&gt;Node5 -->
<g id="edge4" class="edge">
<title>Node1&#45;&gt;Node5</title>
<path fill="none" stroke="midnightblue" d="M2247.4,-112.97C1948.5,-108.21 1100.43,-91.6 825,-53 821.93,-52.57 818.83,-52.09 815.7,-51.57"/>
<polygon fill="midnightblue" stroke="midnightblue" points="2247.75,-116.48 2257.8,-113.14 2247.86,-109.48 2247.75,-116.48"/>
</g>
<!-- Node6 -->
<g id="node6" class="node">
<title>Node6</title>
<g id="a_node6"><a xlink:href="pokeysHal_2PoKeysLibDeviceData_8c.html" target="_top" xlink:title=" ">
<polygon fill="white" stroke="black" points="834,-0.5 834,-52.5 1024,-52.5 1024,-0.5 834,-0.5"/>
<text text-anchor="start" x="842" y="-40.5" font-family="Helvetica,sans-Serif" font-size="10.00">/home/cnc/actions&#45;runner</text>
<text text-anchor="start" x="842" y="-29.5" font-family="Helvetica,sans-Serif" font-size="10.00">/_work/LinuxCnc_PokeysLibComp</text>
<text text-anchor="start" x="842" y="-18.5" font-family="Helvetica,sans-Serif" font-size="10.00">/LinuxCnc_PokeysLibComp/external</text>
<text text-anchor="middle" x="929" y="-7.5" font-family="Helvetica,sans-Serif" font-size="10.00">/pokeysHal/PoKeysLibDeviceData.c</text>
</a>
</g>
</g>
<!-- Node1&#45;&gt;Node6 -->
<g id="edge5" class="edge">
<title>Node1&#45;&gt;Node6</title>
<path fill="none" stroke="midnightblue" d="M2247.79,-112.23C1978.07,-106 1266.7,-86.77 1033,-53 1030.06,-52.57 1027.07,-52.1 1024.07,-51.59"/>
<polygon fill="midnightblue" stroke="midnightblue" points="2247.9,-115.74 2257.98,-112.47 2248.06,-108.74 2247.9,-115.74"/>
</g>
<!-- Node7 -->
<g id="node7" class="node">
<title>Node7</title>
<g id="a_node7"><a xlink:href="pokeysHal_2PoKeysLibDevicePoKeys57Industrial_8c.html" target="_top" xlink:title=" ">
<polygon fill="white" stroke="black" points="1042,-0.5 1042,-52.5 1300,-52.5 1300,-0.5 1042,-0.5"/>
<text text-anchor="start" x="1050" y="-40.5" font-family="Helvetica,sans-Serif" font-size="10.00">/home/cnc/actions&#45;runner</text>
<text text-anchor="start" x="1050" y="-29.5" font-family="Helvetica,sans-Serif" font-size="10.00">/_work/LinuxCnc_PokeysLibComp</text>
<text text-anchor="start" x="1050" y="-18.5" font-family="Helvetica,sans-Serif" font-size="10.00">/LinuxCnc_PokeysLibComp/external</text>
<text text-anchor="middle" x="1171" y="-7.5" font-family="Helvetica,sans-Serif" font-size="10.00">/pokeysHal/PoKeysLibDevicePoKeys57Industrial.c</text>
</a>
</g>
</g>
<!-- Node1&#45;&gt;Node7 -->
<g id="edge6" class="edge">
<title>Node1&#45;&gt;Node7</title>
<path fill="none" stroke="midnightblue" d="M2247.81,-112.61C2059.09,-108.26 1650.8,-94.49 1309,-53 1306.1,-52.65 1303.16,-52.27 1300.21,-51.88"/>
<polygon fill="midnightblue" stroke="midnightblue" points="2247.92,-116.11 2258,-112.84 2248.08,-109.11 2247.92,-116.11"/>
</g>
<!-- Node8 -->
<g id="node8" class="node">
<title>Node8</title>
<g id="a_node8"><a xlink:href="pokeysHal_2PoKeysLibEasySensors_8c.html" target="_top" xlink:title=" ">
<polygon fill="white" stroke="black" points="1318.5,-0.5 1318.5,-52.5 1511.5,-52.5 1511.5,-0.5 1318.5,-0.5"/>
<text text-anchor="start" x="1326.5" y="-40.5" font-family="Helvetica,sans-Serif" font-size="10.00">/home/cnc/actions&#45;runner</text>
<text text-anchor="start" x="1326.5" y="-29.5" font-family="Helvetica,sans-Serif" font-size="10.00">/_work/LinuxCnc_PokeysLibComp</text>
<text text-anchor="start" x="1326.5" y="-18.5" font-family="Helvetica,sans-Serif" font-size="10.00">/LinuxCnc_PokeysLibComp/external</text>
<text text-anchor="middle" x="1415" y="-7.5" font-family="Helvetica,sans-Serif" font-size="10.00">/pokeysHal/PoKeysLibEasySensors.c</text>
</a>
</g>
</g>
<!-- Node1&#45;&gt;Node8 -->
<g id="edge7" class="edge">
<title>Node1&#45;&gt;Node8</title>
<path fill="none" stroke="midnightblue" d="M2247.69,-112.19C2089.18,-107.47 1780.23,-93.49 1521,-53 1517.91,-52.52 1514.79,-51.99 1511.63,-51.43"/>
<polygon fill="midnightblue" stroke="midnightblue" points="2247.82,-115.69 2257.91,-112.48 2248.02,-108.69 2247.82,-115.69"/>
</g>
<!-- Node9 -->
<g id="node9" class="node">
<title>Node9</title>
<g id="a_node9"><a xlink:href="pokeysHal_2PoKeysLibEncoders_8c.html" target="_top" xlink:title=" ">
<polygon fill="white" stroke="black" points="1530,-0.5 1530,-52.5 1720,-52.5 1720,-0.5 1530,-0.5"/>
<text text-anchor="start" x="1538" y="-40.5" font-family="Helvetica,sans-Serif" font-size="10.00">/home/cnc/actions&#45;runner</text>
<text text-anchor="start" x="1538" y="-29.5" font-family="Helvetica,sans-Serif" font-size="10.00">/_work/LinuxCnc_PokeysLibComp</text>
<text text-anchor="start" x="1538" y="-18.5" font-family="Helvetica,sans-Serif" font-size="10.00">/LinuxCnc_PokeysLibComp/external</text>
<text text-anchor="middle" x="1625" y="-7.5" font-family="Helvetica,sans-Serif" font-size="10.00">/pokeysHal/PoKeysLibEncoders.c</text>
</a>
</g>
</g>
<!-- Node1&#45;&gt;Node9 -->
<g id="edge8" class="edge">
<title>Node1&#45;&gt;Node9</title>
<path fill="none" stroke="midnightblue" d="M2247.53,-108.69C2122.96,-100.78 1909.82,-83.92 1729,-53 1726.07,-52.5 1723.1,-51.96 1720.1,-51.39"/>
<polygon fill="midnightblue" stroke="midnightblue" points="2247.62,-112.21 2257.82,-109.34 2248.06,-105.22 2247.62,-112.21"/>
</g>
<!-- Node10 -->
<g id="node10" class="node">
<title>Node10</title>
<g id="a_node10"><a xlink:href="pokeysHal_2PoKeysLibFailsafe_8c.html" target="_top" xlink:title=" ">
<polygon fill="white" stroke="black" points="1738,-0.5 1738,-52.5 1928,-52.5 1928,-0.5 1738,-0.5"/>
<text text-anchor="start" x="1746" y="-40.5" font-family="Helvetica,sans-Serif" font-size="10.00">/home/cnc/actions&#45;runner</text>
<text text-anchor="start" x="1746" y="-29.5" font-family="Helvetica,sans-Serif" font-size="10.00">/_work/LinuxCnc_PokeysLibComp</text>
<text text-anchor="start" x="1746" y="-18.5" font-family="Helvetica,sans-Serif" font-size="10.00">/LinuxCnc_PokeysLibComp/external</text>
<text text-anchor="middle" x="1833" y="-7.5" font-family="Helvetica,sans-Serif" font-size="10.00">/pokeysHal/PoKeysLibFailsafe.c</text>
</a>
</g>
</g>
<!-- Node1&#45;&gt;Node10 -->
<g id="edge9" class="edge">
<title>Node1&#45;&gt;Node10</title>
<path fill="none" stroke="midnightblue" d="M2247.88,-101.73C2163.49,-90.81 2042.16,-73.62 1937,-53 1934.08,-52.43 1931.12,-51.83 1928.14,-51.2"/>
<polygon fill="midnightblue" stroke="midnightblue" points="2247.62,-105.22 2257.98,-103.03 2248.51,-98.28 2247.62,-105.22"/>
</g>
<!-- Node11 -->
<g id="node11" class="node">
<title>Node11</title>
<g id="a_node11"><a xlink:href="pokeysHal_2PoKeysLibFastUSB_8c.html" target="_top" xlink:title=" ">
<polygon fill="white" stroke="black" points="1946,-0.5 1946,-52.5 2136,-52.5 2136,-0.5 1946,-0.5"/>
<text text-anchor="start" x="1954" y="-40.5" font-family="Helvetica,sans-Serif" font-size="10.00">/home/cnc/actions&#45;runner</text>
<text text-anchor="start" x="1954" y="-29.5" font-family="Helvetica,sans-Serif" font-size="10.00">/_work/LinuxCnc_PokeysLibComp</text>
<text text-anchor="start" x="1954" y="-18.5" font-family="Helvetica,sans-Serif" font-size="10.00">/LinuxCnc_PokeysLibComp/external</text>
<text text-anchor="middle" x="2041" y="-7.5" font-family="Helvetica,sans-Serif" font-size="10.00">/pokeysHal/PoKeysLibFastUSB.c</text>
</a>
</g>
</g>
<!-- Node1&#45;&gt;Node11 -->
<g id="edge10" class="edge">
<title>Node1&#45;&gt;Node11</title>
<path fill="none" stroke="midnightblue" d="M2253.3,-86.7C2213.94,-75.72 2169.06,-63.21 2130.73,-52.52"/>
<polygon fill="midnightblue" stroke="midnightblue" points="2252.6,-90.14 2263.18,-89.45 2254.48,-83.4 2252.6,-90.14"/>
</g>
<!-- Node12 -->
<g id="node12" class="node">
<title>Node12</title>
<g id="a_node12"><a xlink:href="pokeysHal_2PoKeysLibI2C_8c.html" target="_top" xlink:title=" ">
<polygon fill="white" stroke="black" points="2154,-0.5 2154,-52.5 2344,-52.5 2344,-0.5 2154,-0.5"/>
<text text-anchor="start" x="2162" y="-40.5" font-family="Helvetica,sans-Serif" font-size="10.00">/home/cnc/actions&#45;runner</text>
<text text-anchor="start" x="2162" y="-29.5" font-family="Helvetica,sans-Serif" font-size="10.00">/_work/LinuxCnc_PokeysLibComp</text>
<text text-anchor="start" x="2162" y="-18.5" font-family="Helvetica,sans-Serif" font-size="10.00">/LinuxCnc_PokeysLibComp/external</text>
<text text-anchor="middle" x="2249" y="-7.5" font-family="Helvetica,sans-Serif" font-size="10.00">/pokeysHal/PoKeysLibI2C.c</text>
</a>
</g>
</g>
<!-- Node1&#45;&gt;Node12 -->
<g id="edge11" class="edge">
<title>Node1&#45;&gt;Node12</title>
<path fill="none" stroke="midnightblue" d="M2314.93,-82.65C2303.09,-72.75 2290.22,-61.98 2279.01,-52.61"/>
<polygon fill="midnightblue" stroke="midnightblue" points="2313,-85.6 2322.92,-89.34 2317.49,-80.24 2313,-85.6"/>
</g>
<!-- Node13 -->
<g id="node13" class="node">
<title>Node13</title>
<g id="a_node13"><a xlink:href="pokeysHal_2PoKeysLibIO_8c.html" target="_top" xlink:title=" ">
<polygon fill="white" stroke="black" points="2362,-0.5 2362,-52.5 2552,-52.5 2552,-0.5 2362,-0.5"/>
<text text-anchor="start" x="2370" y="-40.5" font-family="Helvetica,sans-Serif" font-size="10.00">/home/cnc/actions&#45;runner</text>
<text text-anchor="start" x="2370" y="-29.5" font-family="Helvetica,sans-Serif" font-size="10.00">/_work/LinuxCnc_PokeysLibComp</text>
<text text-anchor="start" x="2370" y="-18.5" font-family="Helvetica,sans-Serif" font-size="10.00">/LinuxCnc_PokeysLibComp/external</text>
<text text-anchor="middle" x="2457" y="-7.5" font-family="Helvetica,sans-Serif" font-size="10.00">/pokeysHal/PoKeysLibIO.c</text>
</a>
</g>
</g>
<!-- Node1&#45;&gt;Node13 -->
<g id="edge12" class="edge">
<title>Node1&#45;&gt;Node13</title>
<path fill="none" stroke="midnightblue" d="M2391.07,-82.65C2402.91,-72.75 2415.78,-61.98 2426.99,-52.61"/>
<polygon fill="midnightblue" stroke="midnightblue" points="2388.51,-80.24 2383.08,-89.34 2393,-85.6 2388.51,-80.24"/>
</g>
<!-- Node14 -->
<g id="node14" class="node">
<title>Node14</title>
<g id="a_node14"><a xlink:href="pokeysHal_2PoKeysLibLCD_8c.html" target="_top" xlink:title=" ">
<polygon fill="white" stroke="black" points="2570,-0.5 2570,-52.5 2760,-52.5 2760,-0.5 2570,-0.5"/>
<text text-anchor="start" x="2578" y="-40.5" font-family="Helvetica,sans-Serif" font-size="10.00">/home/cnc/actions&#45;runner</text>
<text text-anchor="start" x="2578" y="-29.5" font-family="Helvetica,sans-Serif" font-size="10.00">/_work/LinuxCnc_PokeysLibComp</text>
<text text-anchor="start" x="2578" y="-18.5" font-family="Helvetica,sans-Serif" font-size="10.00">/LinuxCnc_PokeysLibComp/external</text>
<text text-anchor="middle" x="2665" y="-7.5" font-family="Helvetica,sans-Serif" font-size="10.00">/pokeysHal/PoKeysLibLCD.c</text>
</a>
</g>
</g>
<!-- Node1&#45;&gt;Node14 -->
<g id="edge13" class="edge">
<title>Node1&#45;&gt;Node14</title>
<path fill="none" stroke="midnightblue" d="M2452.7,-86.7C2492.06,-75.72 2536.94,-63.21 2575.27,-52.52"/>
<polygon fill="midnightblue" stroke="midnightblue" points="2451.52,-83.4 2442.82,-89.45 2453.4,-90.14 2451.52,-83.4"/>
</g>
<!-- Node15 -->
<g id="node15" class="node">
<title>Node15</title>
<g id="a_node15"><a xlink:href="pokeysHal_2PoKeysLibMatrixKB_8c.html" target="_top" xlink:title=" ">
<polygon fill="white" stroke="black" points="2778,-0.5 2778,-52.5 2968,-52.5 2968,-0.5 2778,-0.5"/>
<text text-anchor="start" x="2786" y="-40.5" font-family="Helvetica,sans-Serif" font-size="10.00">/home/cnc/actions&#45;runner</text>
<text text-anchor="start" x="2786" y="-29.5" font-family="Helvetica,sans-Serif" font-size="10.00">/_work/LinuxCnc_PokeysLibComp</text>
<text text-anchor="start" x="2786" y="-18.5" font-family="Helvetica,sans-Serif" font-size="10.00">/LinuxCnc_PokeysLibComp/external</text>
<text text-anchor="middle" x="2873" y="-7.5" font-family="Helvetica,sans-Serif" font-size="10.00">/pokeysHal/PoKeysLibMatrixKB.c</text>
</a>
</g>
</g>
<!-- Node1&#45;&gt;Node15 -->
<g id="edge14" class="edge">
<title>Node1&#45;&gt;Node15</title>
<path fill="none" stroke="midnightblue" d="M2458.12,-101.73C2542.51,-90.81 2663.84,-73.62 2769,-53 2771.92,-52.43 2774.88,-51.83 2777.86,-51.2"/>
<polygon fill="midnightblue" stroke="midnightblue" points="2457.49,-98.28 2448.02,-103.03 2458.38,-105.22 2457.49,-98.28"/>
</g>
<!-- Node16 -->
<g id="node16" class="node">
<title>Node16</title>
<g id="a_node16"><a xlink:href="pokeysHal_2PoKeysLibMatrixLED_8c.html" target="_top" xlink:title=" ">
<polygon fill="white" stroke="black" points="2986,-0.5 2986,-52.5 3176,-52.5 3176,-0.5 2986,-0.5"/>
<text text-anchor="start" x="2994" y="-40.5" font-family="Helvetica,sans-Serif" font-size="10.00">/home/cnc/actions&#45;runner</text>
<text text-anchor="start" x="2994" y="-29.5" font-family="Helvetica,sans-Serif" font-size="10.00">/_work/LinuxCnc_PokeysLibComp</text>
<text text-anchor="start" x="2994" y="-18.5" font-family="Helvetica,sans-Serif" font-size="10.00">/LinuxCnc_PokeysLibComp/external</text>
<text text-anchor="middle" x="3081" y="-7.5" font-family="Helvetica,sans-Serif" font-size="10.00">/pokeysHal/PoKeysLibMatrixLED.c</text>
</a>
</g>
</g>
<!-- Node1&#45;&gt;Node16 -->
<g id="edge15" class="edge">
<title>Node1&#45;&gt;Node16</title>
<path fill="none" stroke="midnightblue" d="M2458.47,-108.69C2583.04,-100.78 2796.18,-83.92 2977,-53 2979.93,-52.5 2982.9,-51.96 2985.9,-51.39"/>
<polygon fill="midnightblue" stroke="midnightblue" points="2457.94,-105.22 2448.18,-109.34 2458.38,-112.21 2457.94,-105.22"/>
</g>
<!-- Node17 -->
<g id="node17" class="node">
<title>Node17</title>
<g id="a_node17"><a xlink:href="pokeysHal_2PoKeysLibPoIL_8c.html" target="_top" xlink:title=" ">
<polygon fill="white" stroke="black" points="3194,-0.5 3194,-52.5 3384,-52.5 3384,-0.5 3194,-0.5"/>
<text text-anchor="start" x="3202" y="-40.5" font-family="Helvetica,sans-Serif" font-size="10.00">/home/cnc/actions&#45;runner</text>
<text text-anchor="start" x="3202" y="-29.5" font-family="Helvetica,sans-Serif" font-size="10.00">/_work/LinuxCnc_PokeysLibComp</text>
<text text-anchor="start" x="3202" y="-18.5" font-family="Helvetica,sans-Serif" font-size="10.00">/LinuxCnc_PokeysLibComp/external</text>
<text text-anchor="middle" x="3289" y="-7.5" font-family="Helvetica,sans-Serif" font-size="10.00">/pokeysHal/PoKeysLibPoIL.c</text>
</a>
</g>
</g>
<!-- Node1&#45;&gt;Node17 -->
<g id="edge16" class="edge">
<title>Node1&#45;&gt;Node17</title>
<path fill="none" stroke="midnightblue" d="M2458.33,-112.33C2616.87,-107.8 2925.86,-94.05 3185,-53 3187.94,-52.53 3190.91,-52.03 3193.91,-51.49"/>
<polygon fill="midnightblue" stroke="midnightblue" points="2458.01,-108.84 2448.11,-112.62 2458.2,-115.84 2458.01,-108.84"/>
</g>
<!-- Node18 -->
<g id="node18" class="node">
<title>Node18</title>
<g id="a_node18"><a xlink:href="pokeysHal_2PoKeysLibPoNET_8c.html" target="_top" xlink:title=" ">
<polygon fill="white" stroke="black" points="3402,-0.5 3402,-52.5 3592,-52.5 3592,-0.5 3402,-0.5"/>
<text text-anchor="start" x="3410" y="-40.5" font-family="Helvetica,sans-Serif" font-size="10.00">/home/cnc/actions&#45;runner</text>
<text text-anchor="start" x="3410" y="-29.5" font-family="Helvetica,sans-Serif" font-size="10.00">/_work/LinuxCnc_PokeysLibComp</text>
<text text-anchor="start" x="3410" y="-18.5" font-family="Helvetica,sans-Serif" font-size="10.00">/LinuxCnc_PokeysLibComp/external</text>
<text text-anchor="middle" x="3497" y="-7.5" font-family="Helvetica,sans-Serif" font-size="10.00">/pokeysHal/PoKeysLibPoNET.c</text>
</a>
</g>
</g>
<!-- Node1&#45;&gt;Node18 -->
<g id="edge17" class="edge">
<title>Node1&#45;&gt;Node18</title>
<path fill="none" stroke="midnightblue" d="M2458.43,-114.56C2647,-113.27 3054.06,-104.14 3393,-53 3395.94,-52.56 3398.92,-52.07 3401.92,-51.54"/>
<polygon fill="midnightblue" stroke="midnightblue" points="2458.22,-111.06 2448.24,-114.62 2458.26,-118.06 2458.22,-111.06"/>
</g>
<!-- Node19 -->
<g id="node19" class="node">
<title>Node19</title>
<g id="a_node19"><a xlink:href="pokeysHal_2PoKeysLibPulseEngine__v2_8c.html" target="_top" xlink:title=" ">
<polygon fill="white" stroke="black" points="3610,-0.5 3610,-52.5 3818,-52.5 3818,-0.5 3610,-0.5"/>
<text text-anchor="start" x="3618" y="-40.5" font-family="Helvetica,sans-Serif" font-size="10.00">/home/cnc/actions&#45;runner</text>
<text text-anchor="start" x="3618" y="-29.5" font-family="Helvetica,sans-Serif" font-size="10.00">/_work/LinuxCnc_PokeysLibComp</text>
<text text-anchor="start" x="3618" y="-18.5" font-family="Helvetica,sans-Serif" font-size="10.00">/LinuxCnc_PokeysLibComp/external</text>
<text text-anchor="middle" x="3714" y="-7.5" font-family="Helvetica,sans-Serif" font-size="10.00">/pokeysHal/PoKeysLibPulseEngine_v2.c</text>
</a>
</g>
</g>
<!-- Node1&#45;&gt;Node19 -->
<g id="edge18" class="edge">
<title>Node1&#45;&gt;Node19</title>
<path fill="none" stroke="midnightblue" d="M2458.28,-115.42C2673.81,-115.97 3180.48,-110.37 3601,-53 3603.89,-52.61 3606.81,-52.17 3609.76,-51.71"/>
<polygon fill="midnightblue" stroke="midnightblue" points="2458.24,-111.92 2448.23,-115.39 2458.22,-118.92 2458.24,-111.92"/>
</g>
<!-- Node20 -->
<g id="node20" class="node">
<title>Node20</title>
<g id="a_node20"><a xlink:href="pokeysHal_2PoKeysLibRTC_8c.html" target="_top" xlink:title=" ">
<polygon fill="white" stroke="black" points="3836,-0.5 3836,-52.5 4026,-52.5 4026,-0.5 3836,-0.5"/>
<text text-anchor="start" x="3844" y="-40.5" font-family="Helvetica,sans-Serif" font-size="10.00">/home/cnc/actions&#45;runner</text>
<text text-anchor="start" x="3844" y="-29.5" font-family="Helvetica,sans-Serif" font-size="10.00">/_work/LinuxCnc_PokeysLibComp</text>
<text text-anchor="start" x="3844" y="-18.5" font-family="Helvetica,sans-Serif" font-size="10.00">/LinuxCnc_PokeysLibComp/external</text>
<text text-anchor="middle" x="3931" y="-7.5" font-family="Helvetica,sans-Serif" font-size="10.00">/pokeysHal/PoKeysLibRTC.c</text>
</a>
</g>
</g>
<!-- Node1&#45;&gt;Node20 -->
<g id="edge19" class="edge">
<title>Node1&#45;&gt;Node20</title>
<path fill="none" stroke="midnightblue" d="M2458.21,-112.83C2749.49,-107.76 3562.37,-90.58 3827,-53 3829.94,-52.58 3832.93,-52.12 3835.93,-51.61"/>
<polygon fill="midnightblue" stroke="midnightblue" points="2458.01,-109.33 2448.07,-113 2458.13,-116.33 2458.01,-109.33"/>
</g>
<!-- Node21 -->
<g id="node21" class="node">
<title>Node21</title>
<g id="a_node21"><a xlink:href="pokeysHal_2PoKeysLibSPI_8c.html" target="_top" xlink:title=" ">
<polygon fill="white" stroke="black" points="4044,-0.5 4044,-52.5 4234,-52.5 4234,-0.5 4044,-0.5"/>
<text text-anchor="start" x="4052" y="-40.5" font-family="Helvetica,sans-Serif" font-size="10.00">/home/cnc/actions&#45;runner</text>
<text text-anchor="start" x="4052" y="-29.5" font-family="Helvetica,sans-Serif" font-size="10.00">/_work/LinuxCnc_PokeysLibComp</text>
<text text-anchor="start" x="4052" y="-18.5" font-family="Helvetica,sans-Serif" font-size="10.00">/LinuxCnc_PokeysLibComp/external</text>
<text text-anchor="middle" x="4139" y="-7.5" font-family="Helvetica,sans-Serif" font-size="10.00">/pokeysHal/PoKeysLibSPI.c</text>
</a>
</g>
</g>
<!-- Node1&#45;&gt;Node21 -->
<g id="edge20" class="edge">
<title>Node1&#45;&gt;Node21</title>
<path fill="none" stroke="midnightblue" d="M2458.31,-113.46C2777.06,-109.86 3728.39,-95.74 4035,-53 4037.95,-52.59 4040.93,-52.13 4043.94,-51.63"/>
<polygon fill="midnightblue" stroke="midnightblue" points="2458.11,-109.96 2448.15,-113.57 2458.19,-116.96 2458.11,-109.96"/>
</g>
<!-- Node22 -->
<g id="node22" class="node">
<title>Node22</title>
<g id="a_node22"><a xlink:href="pokeysHal_2PoKeysLibUART_8c.html" target="_top" xlink:title=" ">
<polygon fill="white" stroke="black" points="4252,-0.5 4252,-52.5 4442,-52.5 4442,-0.5 4252,-0.5"/>
<text text-anchor="start" x="4260" y="-40.5" font-family="Helvetica,sans-Serif" font-size="10.00">/home/cnc/actions&#45;runner</text>
<text text-anchor="start" x="4260" y="-29.5" font-family="Helvetica,sans-Serif" font-size="10.00">/_work/LinuxCnc_PokeysLibComp</text>
<text text-anchor="start" x="4260" y="-18.5" font-family="Helvetica,sans-Serif" font-size="10.00">/LinuxCnc_PokeysLibComp/external</text>
<text text-anchor="middle" x="4347" y="-7.5" font-family="Helvetica,sans-Serif" font-size="10.00">/pokeysHal/PoKeysLibUART.c</text>
</a>
</g>
</g>
<!-- Node1&#45;&gt;Node22 -->
<g id="edge21" class="edge">
<title>Node1&#45;&gt;Node22</title>
<path fill="none" stroke="midnightblue" d="M2458.31,-113.95C2802.82,-111.71 3894.14,-100.91 4243,-53 4245.95,-52.6 4248.93,-52.14 4251.94,-51.65"/>
<polygon fill="midnightblue" stroke="midnightblue" points="2458.07,-110.45 2448.09,-114.02 2458.11,-117.45 2458.07,-110.45"/>
</g>
<!-- Node23 -->
<g id="node23" class="node">
<title>Node23</title>
<g id="a_node23"><a xlink:href="pokeysHal_2PoKeysLibWS2812_8c.html" target="_top" xlink:title=" ">
<polygon fill="white" stroke="black" points="4460,-0.5 4460,-52.5 4650,-52.5 4650,-0.5 4460,-0.5"/>
<text text-anchor="start" x="4468" y="-40.5" font-family="Helvetica,sans-Serif" font-size="10.00">/home/cnc/actions&#45;runner</text>
<text text-anchor="start" x="4468" y="-29.5" font-family="Helvetica,sans-Serif" font-size="10.00">/_work/LinuxCnc_PokeysLibComp</text>
<text text-anchor="start" x="4468" y="-18.5" font-family="Helvetica,sans-Serif" font-size="10.00">/LinuxCnc_PokeysLibComp/external</text>
<text text-anchor="middle" x="4555" y="-7.5" font-family="Helvetica,sans-Serif" font-size="10.00">/pokeysHal/PoKeysLibWS2812.c</text>
</a>
</g>
</g>
<!-- Node1&#45;&gt;Node23 -->
<g id="edge22" class="edge">
<title>Node1&#45;&gt;Node23</title>
<path fill="none" stroke="midnightblue" d="M2458.38,-114.35C2827.35,-113.37 4059.73,-106.1 4451,-53 4453.95,-52.6 4456.93,-52.15 4459.94,-51.66"/>
<polygon fill="midnightblue" stroke="midnightblue" points="2458.24,-110.85 2448.25,-114.38 2458.26,-117.85 2458.24,-110.85"/>
</g>
</g>
</svg>
        <g id="navigator" transform="translate(0 0)" fill="#404254">
                <rect fill="#f2f5e9" fill-opacity="0.5" stroke="#606060" stroke-width=".5" x="0" y="0" width="60" height="60"/>
                <use id="zoomplus" xlink:href="#zoomPlus" x="17" y="9" onmousedown="handleZoom(evt,'in')"/>
                <use id="zoomminus" xlink:href="#zoomMin" x="42" y="9" onmousedown="handleZoom(evt,'out')"/>
                <use id="reset" xlink:href="#resetDef" x="30" y="36" onmousedown="handleReset()"/>
                <g id="arrowUp" xlink:href="#dirArrow" transform="translate(30 24)" onmousedown="handlePan(0,-1)">
                  <use xlink:href="#rim" fill="#404040">
                        <set attributeName="fill" to="#808080" begin="arrowUp.mouseover" end="arrowUp.mouseout"/>
                  </use>
                  <path fill="none" stroke="white" stroke-width="1.5" d="M0,-3.0v7 M-2.5,-0.5L0,-3.0L2.5,-0.5"/>
                </g>
                <g id="arrowRight" xlink:href="#dirArrow" transform="rotate(90) translate(36 -43)" onmousedown="handlePan(1,0)">
                  <use xlink:href="#rim" fill="#404040">
                        <set attributeName="fill" to="#808080" begin="arrowRight.mouseover" end="arrowRight.mouseout"/>
                  </use>
                  <path fill="none" stroke="white" stroke-width="1.5" d="M0,-3.0v7 M-2.5,-0.5L0,-3.0L2.5,-0.5"/>
                </g>
                <g id="arrowDown" xlink:href="#dirArrow" transform="rotate(180) translate(-30 -48)" onmousedown="handlePan(0,1)">
                  <use xlink:href="#rim" fill="#404040">
                        <set attributeName="fill" to="#808080" begin="arrowDown.mouseover" end="arrowDown.mouseout"/>
                  </use>
                  <path fill="none" stroke="white" stroke-width="1.5" d="M0,-3.0v7 M-2.5,-0.5L0,-3.0L2.5,-0.5"/>
                </g>
                <g id="arrowLeft" xlink:href="#dirArrow" transform="rotate(270) translate(-36 17)" onmousedown="handlePan(-1,0)">
                  <use xlink:href="#rim" fill="#404040">
                        <set attributeName="fill" to="#808080" begin="arrowLeft.mouseover" end="arrowLeft.mouseout"/>
                  </use>
                  <path fill="none" stroke="white" stroke-width="1.5" d="M0,-3.0v7 M-2.5,-0.5L0,-3.0L2.5,-0.5"/>
                </g>
        </g>
        <svg viewBox="0 0 15 15" width="100%" height="30px" preserveAspectRatio="xMaxYMin meet">
         <g id="arrow_out" transform="scale(0.3 0.3)">
          <a xlink:href="pokeysHal_2PoKeysLibCore_8h__dep__incl_org.svg" target="_base">
           <rect id="button" ry="5" rx="5" y="6" x="6" height="38" width="38"
                fill="#f2f5e9" fill-opacity="0.5" stroke="#606060" stroke-width="1.0"/>
           <path id="arrow"
             d="M 11.500037,31.436501 C 11.940474,20.09759 22.043105,11.32322 32.158766,21.979434 L 37.068811,17.246167 C 37.068811,17.246167 37.088388,32 37.088388,32 L 22.160133,31.978069 C 22.160133,31.978069 26.997745,27.140456 26.997745,27.140456 C 18.528582,18.264221 13.291696,25.230495 11.500037,31.436501 z"
             style="fill:#404040;"/>
          </a>
         </g>
        </svg>
</svg>
