<?xml version="1.0" encoding="UTF-8" standalone="no"?>
<!DOCTYPE svg PUBLIC "-//W3C//DTD SVG 1.1//EN"
 "http://www.w3.org/Graphics/SVG/1.1/DTD/svg11.dtd">
<!-- Generated by graphviz version 2.43.0 (0)
 -->
<!-- Title: PK57i_Connect Pages: 1 -->
<!--zoomable 408 -->
<svg id="main" version="1.1" xmlns="http://www.w3.org/2000/svg" xmlns:xlink="http://www.w3.org/1999/xlink" xml:space="preserve" onload="init(evt)">
<style type="text/css"><![CDATA[
.edge:hover path { stroke: red; }
.edge:hover polygon { stroke: red; fill: red; }
]]></style>
<script type="text/javascript"><![CDATA[
var edges = document.getElementsByTagName('g');
if (edges && edges.length) {
  for (var i=0;i<edges.length;i++) {
    if (edges[i].id.substr(0,4)=='edge') {
      edges[i].setAttribute('class','edge');
    }
  }
}
]]></script>
        <defs>
                <circle id="rim" cx="0" cy="0" r="7"/>
                <circle id="rim2" cx="0" cy="0" r="3.5"/>
                <g id="zoomPlus">
                        <use xlink:href="#rim" fill="#404040">
                                <set attributeName="fill" to="#808080" begin="zoomplus.mouseover" end="zoomplus.mouseout"/>
                        </use>
                        <path d="M-4,0h8M0,-4v8" fill="none" stroke="white" stroke-width="1.5" pointer-events="none"/>
                </g>
                <g id="zoomMin">
                        <use xlink:href="#rim" fill="#404040">
                                <set attributeName="fill" to="#808080" begin="zoomminus.mouseover" end="zoomminus.mouseout"/>
                        </use>
                        <path d="M-4,0h8" fill="none" stroke="white" stroke-width="1.5" pointer-events="none"/>
                </g>
                <g id="dirArrow">
                        <path fill="none" stroke="white" stroke-width="1.5" d="M0,-3.0v7 M-2.5,-0.5L0,-3.0L2.5,-0.5"/>
                </g>
               <g id="resetDef">
                       <use xlink:href="#rim2" fill="#404040">
                               <set attributeName="fill" to="#808080" begin="reset.mouseover" end="reset.mouseout"/>
                       </use>
               </g>
        </defs>

<script type="text/javascript">
var viewWidth = 1144;
var viewHeight = 408;
var sectionId = 'dynsection-1';
</script>
<script xlink:href="svgpan.js"/>
<svg id="graph" class="graph">
<g id="viewport">
<title>PK57i_Connect</title>
<polygon fill="white" stroke="transparent" points="-4,4 -4,-404 1140,-404 1140,4 -4,4"/>
<!-- Node1 -->
<g id="node1" class="node">
<title>Node1</title>
<g id="a_node1"><a xlink:title=" ">
<polygon fill="#bfbfbf" stroke="black" points="0,-190.5 0,-209.5 89,-209.5 89,-190.5 0,-190.5"/>
<text text-anchor="middle" x="44.5" y="-197.5" font-family="Helvetica,sans-Serif" font-size="10.00">PK57i_Connect</text>
</a>
</g>
</g>
<!-- Node2 -->
<g id="node2" class="node">
<title>Node2</title>
<g id="a_node2"><a xlink:href="pokeyslib_2PoKeysLibDevicePoKeys57Industrial_8c.html#a7eb6e8690b377fc2420bb6fbdd9c297d" target="_top" xlink:title="Perform UDP discovery for a PoKeys57Industrial device.">
<polygon fill="white" stroke="black" points="147,-342.5 147,-361.5 263,-361.5 263,-342.5 147,-342.5"/>
<text text-anchor="middle" x="205" y="-349.5" font-family="Helvetica,sans-Serif" font-size="10.00">PK57i_SearchDevice</text>
</a>
</g>
</g>
<!-- Node1&#45;&gt;Node2 -->
<g id="edge1" class="edge">
<title>Node1&#45;&gt;Node2</title>
<path fill="none" stroke="midnightblue" d="M52.25,-209.57C65.17,-227.5 94.77,-266.87 125,-295 142.03,-310.85 163.56,-326.12 179.84,-336.86"/>
<polygon fill="midnightblue" stroke="midnightblue" points="177.99,-339.83 188.29,-342.33 181.8,-333.96 177.99,-339.83"/>
</g>
<!-- Node4 -->
<g id="node4" class="node">
<title>Node4</title>
<g id="a_node4"><a xlink:href="PoKeysLibCoreAsync_8c.html#a4a4450280f6d34ac5495f34bad644f83" target="_top" xlink:title=" ">
<polygon fill="white" stroke="black" points="145.5,-190.5 145.5,-209.5 264.5,-209.5 264.5,-190.5 145.5,-190.5"/>
<text text-anchor="middle" x="205" y="-197.5" font-family="Helvetica,sans-Serif" font-size="10.00">PK_ConnectToDevice</text>
</a>
</g>
</g>
<!-- Node1&#45;&gt;Node4 -->
<g id="edge3" class="edge">
<title>Node1&#45;&gt;Node4</title>
<path fill="none" stroke="midnightblue" d="M89.23,-200C103.44,-200 119.56,-200 135.14,-200"/>
<polygon fill="midnightblue" stroke="midnightblue" points="135.28,-203.5 145.28,-200 135.28,-196.5 135.28,-203.5"/>
</g>
<!-- Node22 -->
<g id="node22" class="node">
<title>Node22</title>
<g id="a_node22"><a xlink:href="pokeysHal_2PoKeysLibCoreSockets_8c.html#adc6dbd8de4b4df5dbee307b15af90373" target="_top" xlink:title=" ">
<polygon fill="white" stroke="black" points="125,-133.5 125,-152.5 285,-152.5 285,-133.5 125,-133.5"/>
<text text-anchor="middle" x="205" y="-140.5" font-family="Helvetica,sans-Serif" font-size="10.00">PK_ConnectToNetworkDevice</text>
</a>
</g>
</g>
<!-- Node1&#45;&gt;Node22 -->
<g id="edge22" class="edge">
<title>Node1&#45;&gt;Node22</title>
<path fill="none" stroke="midnightblue" d="M72.03,-190.46C98.32,-181.01 138.77,-166.46 167.95,-155.96"/>
<polygon fill="midnightblue" stroke="midnightblue" points="169.16,-159.25 177.38,-152.57 166.79,-152.66 169.16,-159.25"/>
</g>
<!-- Node23 -->
<g id="node23" class="node">
<title>Node23</title>
<g id="a_node23"><a xlink:href="PoKeysLibCoreAsync_8c.html#a5048159684edb84a2da9f20e358507fc" target="_top" xlink:title=" ">
<polygon fill="white" stroke="black" points="144,-57.5 144,-76.5 266,-76.5 266,-57.5 144,-57.5"/>
<text text-anchor="middle" x="205" y="-64.5" font-family="Helvetica,sans-Serif" font-size="10.00">PK_DisconnectDevice</text>
</a>
</g>
</g>
<!-- Node1&#45;&gt;Node23 -->
<g id="edge24" class="edge">
<title>Node1&#45;&gt;Node23</title>
<path fill="none" stroke="midnightblue" d="M54.89,-190.19C69.37,-175.26 98.29,-146.23 125,-124 143.21,-108.85 165.14,-93.21 181.27,-82.16"/>
<polygon fill="midnightblue" stroke="midnightblue" points="183.27,-85.04 189.58,-76.52 179.34,-79.24 183.27,-85.04"/>
</g>
<!-- Node27 -->
<g id="node27" class="node">
<title>Node27</title>
<g id="a_node27"><a xlink:href="PoKeysLibCoreAsync_8c.html#a2722ded598b35dcc0748e966668eb702" target="_top" xlink:title="Enumerate PoKeys USB devices.">
<polygon fill="white" stroke="black" points="131.5,-266.5 131.5,-285.5 278.5,-285.5 278.5,-266.5 131.5,-266.5"/>
<text text-anchor="middle" x="205" y="-273.5" font-family="Helvetica,sans-Serif" font-size="10.00">PK_EnumerateUSBDevices</text>
</a>
</g>
</g>
<!-- Node1&#45;&gt;Node27 -->
<g id="edge28" class="edge">
<title>Node1&#45;&gt;Node27</title>
<path fill="none" stroke="midnightblue" d="M65.57,-209.63C93.2,-222.87 143.13,-246.81 174.87,-262.03"/>
<polygon fill="midnightblue" stroke="midnightblue" points="173.56,-265.28 184.09,-266.45 176.59,-258.97 173.56,-265.28"/>
</g>
<!-- Node3 -->
<g id="node3" class="node">
<title>Node3</title>
<g id="a_node3"><a xlink:href="pokeyslib_2PoKeysLibCoreSockets_8c.html#a4349c2ab43b65eb5448bfd273c899086" target="_top" xlink:title=" ">
<polygon fill="white" stroke="black" points="338,-380.5 338,-399.5 471,-399.5 471,-380.5 338,-380.5"/>
<text text-anchor="middle" x="404.5" y="-387.5" font-family="Helvetica,sans-Serif" font-size="10.00">GetBroadcastAddresses</text>
</a>
</g>
</g>
<!-- Node2&#45;&gt;Node3 -->
<g id="edge2" class="edge">
<title>Node2&#45;&gt;Node3</title>
<path fill="none" stroke="midnightblue" d="M255.58,-361.54C282.35,-366.69 315.58,-373.08 343.76,-378.51"/>
<polygon fill="midnightblue" stroke="midnightblue" points="343.42,-382 353.9,-380.46 344.74,-375.13 343.42,-382"/>
</g>
<!-- Node5 -->
<g id="node5" class="node">
<title>Node5</title>
<g id="a_node5"><a xlink:href="group__API.html#gaae7d1c3e90835556ddc73fabe3a9ca9d" target="_top" xlink:title="Enumerate the HID Devices.">
<polygon fill="white" stroke="black" points="359.5,-228.5 359.5,-247.5 449.5,-247.5 449.5,-228.5 359.5,-228.5"/>
<text text-anchor="middle" x="404.5" y="-235.5" font-family="Helvetica,sans-Serif" font-size="10.00">hid_enumerate</text>
</a>
</g>
</g>
<!-- Node4&#45;&gt;Node5 -->
<g id="edge4" class="edge">
<title>Node4&#45;&gt;Node5</title>
<path fill="none" stroke="midnightblue" d="M255.58,-209.54C284.1,-215.03 319.96,-221.93 349.23,-227.56"/>
<polygon fill="midnightblue" stroke="midnightblue" points="348.81,-231.04 359.29,-229.49 350.13,-224.17 348.81,-231.04"/>
</g>
<!-- Node6 -->
<g id="node6" class="node">
<title>Node6</title>
<g id="a_node6"><a xlink:href="group__API.html#gafc2d2adf71db3784b783b9a554527aa4" target="_top" xlink:title="Free an enumeration Linked List.">
<polygon fill="white" stroke="black" points="342.5,-266.5 342.5,-285.5 466.5,-285.5 466.5,-266.5 342.5,-266.5"/>
<text text-anchor="middle" x="404.5" y="-273.5" font-family="Helvetica,sans-Serif" font-size="10.00">hid_free_enumeration</text>
</a>
</g>
</g>
<!-- Node4&#45;&gt;Node6 -->
<g id="edge5" class="edge">
<title>Node4&#45;&gt;Node6</title>
<path fill="none" stroke="midnightblue" d="M222.22,-209.57C244.02,-222.06 284.28,-243.88 321,-257 328.12,-259.55 335.71,-261.83 343.3,-263.87"/>
<polygon fill="midnightblue" stroke="midnightblue" points="342.67,-267.32 353.22,-266.4 344.4,-260.54 342.67,-267.32"/>
</g>
<!-- Node7 -->
<g id="node7" class="node">
<title>Node7</title>
<g id="a_node7"><a xlink:href="group__API.html#ga954ecb58b5dfb4a6ef6be3dcd520e42f" target="_top" xlink:title="Open a HID device by its path name.">
<polygon fill="white" stroke="black" points="360.5,-152.5 360.5,-171.5 448.5,-171.5 448.5,-152.5 360.5,-152.5"/>
<text text-anchor="middle" x="404.5" y="-159.5" font-family="Helvetica,sans-Serif" font-size="10.00">hid_open_path</text>
</a>
</g>
</g>
<!-- Node4&#45;&gt;Node7 -->
<g id="edge6" class="edge">
<title>Node4&#45;&gt;Node7</title>
<path fill="none" stroke="midnightblue" d="M255.58,-190.46C284.41,-184.91 320.73,-177.92 350.17,-172.26"/>
<polygon fill="midnightblue" stroke="midnightblue" points="351.12,-175.64 360.28,-170.32 349.8,-168.77 351.12,-175.64"/>
</g>
<!-- Node8 -->
<g id="node8" class="node">
<title>Node8</title>
<g id="a_node8"><a xlink:href="pokeyslib_2PoKeysLibCore_8c.html#ae3a4511713f05f8d9ba2f0250f07957e" target="_top" xlink:title=" ">
<polygon fill="white" stroke="black" points="347.5,-114.5 347.5,-133.5 461.5,-133.5 461.5,-114.5 347.5,-114.5"/>
<text text-anchor="middle" x="404.5" y="-121.5" font-family="Helvetica,sans-Serif" font-size="10.00">InitializeNewDevice</text>
</a>
</g>
</g>
<!-- Node4&#45;&gt;Node8 -->
<g id="edge7" class="edge">
<title>Node4&#45;&gt;Node8</title>
<path fill="none" stroke="midnightblue" d="M226.56,-190.37C242.57,-182.81 265.29,-171.93 285,-162 301.15,-153.86 304.04,-149.31 321,-143 327.99,-140.4 335.46,-138.08 342.93,-136.04"/>
<polygon fill="midnightblue" stroke="midnightblue" points="343.91,-139.4 352.72,-133.51 342.16,-132.63 343.91,-139.4"/>
</g>
<!-- Node21 -->
<g id="node21" class="node">
<title>Node21</title>
<g id="a_node21"><a xlink:href="pokeyslib_2PoKeysLibCore_8c.html#a65772c80da4c88876420d893a6b6347a" target="_top" xlink:title=" ">
<polygon fill="white" stroke="black" points="325.5,-190.5 325.5,-209.5 483.5,-209.5 483.5,-190.5 325.5,-190.5"/>
<text text-anchor="middle" x="404.5" y="-197.5" font-family="Helvetica,sans-Serif" font-size="10.00">PK_FastUSBConnectToDevice</text>
</a>
</g>
</g>
<!-- Node4&#45;&gt;Node21 -->
<g id="edge21" class="edge">
<title>Node4&#45;&gt;Node21</title>
<path fill="none" stroke="midnightblue" d="M264.72,-200C280.6,-200 298.13,-200 315.24,-200"/>
<polygon fill="midnightblue" stroke="midnightblue" points="315.25,-203.5 325.25,-200 315.25,-196.5 315.25,-203.5"/>
</g>
<!-- Node9 -->
<g id="node9" class="node">
<title>Node9</title>
<g id="a_node9"><a xlink:href="pokeysHal_2PoKeysLibDeviceData_8c.html#a9508e9fcbc964cae1ccdb57f582cb5e1" target="_top" xlink:title="Read device identification and feature set.">
<polygon fill="white" stroke="black" points="536,-152.5 536,-171.5 645,-171.5 645,-152.5 536,-152.5"/>
<text text-anchor="middle" x="590.5" y="-159.5" font-family="Helvetica,sans-Serif" font-size="10.00">PK_DeviceDataGet</text>
</a>
</g>
</g>
<!-- Node8&#45;&gt;Node9 -->
<g id="edge8" class="edge">
<title>Node8&#45;&gt;Node9</title>
<path fill="none" stroke="midnightblue" d="M451.93,-133.59C476.65,-138.69 507.24,-145.01 533.29,-150.39"/>
<polygon fill="midnightblue" stroke="midnightblue" points="532.9,-153.89 543.4,-152.48 534.32,-147.03 532.9,-153.89"/>
</g>
<!-- Node18 -->
<g id="node18" class="node">
<title>Node18</title>
<g id="a_node18"><a xlink:href="pokeysHal_2PoKeysLibDeviceData_8c.html#ae4798f617a5dd5ebb93c534258cd0eb9" target="_top" xlink:title="Populate PWM pin ID table in the device structure.">
<polygon fill="white" stroke="black" points="524,-114.5 524,-133.5 657,-133.5 657,-114.5 524,-114.5"/>
<text text-anchor="middle" x="590.5" y="-121.5" font-family="Helvetica,sans-Serif" font-size="10.00">PK_FillPWMPinNumbers</text>
</a>
</g>
</g>
<!-- Node8&#45;&gt;Node18 -->
<g id="edge18" class="edge">
<title>Node8&#45;&gt;Node18</title>
<path fill="none" stroke="midnightblue" d="M461.71,-124C478.14,-124 496.38,-124 513.81,-124"/>
<polygon fill="midnightblue" stroke="midnightblue" points="513.96,-127.5 523.96,-124 513.96,-120.5 513.96,-127.5"/>
</g>
<!-- Node19 -->
<g id="node19" class="node">
<title>Node19</title>
<g id="a_node19"><a xlink:href="pokeysHal_2PoKeysLibIO_8c.html#a4397536c30fe3f56eb74b56210839349" target="_top" xlink:title="Check if a pin supports a counter (command 0xC0/0x01).">
<polygon fill="white" stroke="black" points="527.5,-76.5 527.5,-95.5 653.5,-95.5 653.5,-76.5 527.5,-76.5"/>
<text text-anchor="middle" x="590.5" y="-83.5" font-family="Helvetica,sans-Serif" font-size="10.00">PK_IsCounterAvailable</text>
</a>
</g>
</g>
<!-- Node8&#45;&gt;Node19 -->
<g id="edge19" class="edge">
<title>Node8&#45;&gt;Node19</title>
<path fill="none" stroke="midnightblue" d="M451.93,-114.41C476.65,-109.31 507.24,-102.99 533.29,-97.61"/>
<polygon fill="midnightblue" stroke="midnightblue" points="534.32,-100.97 543.4,-95.52 532.9,-94.11 534.32,-100.97"/>
</g>
<!-- Node10 -->
<g id="node10" class="node">
<title>Node10</title>
<g id="a_node10"><a xlink:href="pokeyslib_2PoKeysLibDeviceData_8c.html#a8fa8788bebd4d9501da88a32620a6be1" target="_top" xlink:title=" ">
<polygon fill="white" stroke="black" points="734.5,-190.5 734.5,-209.5 824.5,-209.5 824.5,-190.5 734.5,-190.5"/>
<text text-anchor="middle" x="779.5" y="-197.5" font-family="Helvetica,sans-Serif" font-size="10.00">CompareName</text>
</a>
</g>
</g>
<!-- Node9&#45;&gt;Node10 -->
<g id="edge9" class="edge">
<title>Node9&#45;&gt;Node10</title>
<path fill="none" stroke="midnightblue" d="M638.69,-171.59C664.69,-176.87 697.08,-183.45 724.14,-188.95"/>
<polygon fill="midnightblue" stroke="midnightblue" points="723.72,-192.44 734.22,-191 725.12,-185.58 723.72,-192.44"/>
</g>
<!-- Node11 -->
<g id="node11" class="node">
<title>Node11</title>
<g id="a_node11"><a xlink:href="pokeyslib_2PoKeysLibCore_8c.html#acb1fdd8f77277dc66c4d037218bfcece" target="_top" xlink:title=" ">
<polygon fill="white" stroke="black" points="735,-152.5 735,-171.5 824,-171.5 824,-152.5 735,-152.5"/>
<text text-anchor="middle" x="779.5" y="-159.5" font-family="Helvetica,sans-Serif" font-size="10.00">CreateRequest</text>
</a>
</g>
</g>
<!-- Node9&#45;&gt;Node11 -->
<g id="edge10" class="edge">
<title>Node9&#45;&gt;Node11</title>
<path fill="none" stroke="midnightblue" d="M645.09,-162C670.13,-162 699.87,-162 724.92,-162"/>
<polygon fill="midnightblue" stroke="midnightblue" points="724.97,-165.5 734.97,-162 724.97,-158.5 724.97,-165.5"/>
</g>
<!-- Node12 -->
<g id="node12" class="node">
<title>Node12</title>
<g id="a_node12"><a xlink:href="pokeyslib_2PoKeysLibCore_8c.html#ab5d92aa36d0a4a6953a055f5cd960aff" target="_top" xlink:title=" ">
<polygon fill="white" stroke="black" points="739.5,-114.5 739.5,-133.5 819.5,-133.5 819.5,-114.5 739.5,-114.5"/>
<text text-anchor="middle" x="779.5" y="-121.5" font-family="Helvetica,sans-Serif" font-size="10.00">SendRequest</text>
</a>
</g>
</g>
<!-- Node9&#45;&gt;Node12 -->
<g id="edge11" class="edge">
<title>Node9&#45;&gt;Node12</title>
<path fill="none" stroke="midnightblue" d="M638.69,-152.41C666.34,-146.79 701.23,-139.7 729.24,-134.01"/>
<polygon fill="midnightblue" stroke="midnightblue" points="730.12,-137.4 739.22,-131.98 728.72,-130.54 730.12,-137.4"/>
</g>
<!-- Node13 -->
<g id="node13" class="node">
<title>Node13</title>
<g id="a_node13"><a xlink:href="pokeyslib_2PoKeysLibCore_8c.html#a273b6d635dea8f559b915cdb289d021e" target="_top" xlink:title=" ">
<polygon fill="white" stroke="black" points="1043.5,-152.5 1043.5,-171.5 1126.5,-171.5 1126.5,-152.5 1043.5,-152.5"/>
<text text-anchor="middle" x="1085" y="-159.5" font-family="Helvetica,sans-Serif" font-size="10.00">getChecksum</text>
</a>
</g>
</g>
<!-- Node12&#45;&gt;Node13 -->
<g id="edge12" class="edge">
<title>Node12&#45;&gt;Node13</title>
<path fill="none" stroke="midnightblue" d="M819.86,-130.46C834.59,-133.47 851.3,-137.6 866,-143 882.98,-149.24 884.44,-157.65 902,-162 945.31,-172.73 996.23,-171.62 1033.17,-168.47"/>
<polygon fill="midnightblue" stroke="midnightblue" points="1033.57,-171.95 1043.2,-167.54 1032.92,-164.98 1033.57,-171.95"/>
</g>
<!-- Node14 -->
<g id="node14" class="node">
<title>Node14</title>
<g id="a_node14"><a xlink:href="group__API.html#ga6b820f3e72097cf7f994e33715dc7af1" target="_top" xlink:title="Read an Input report from a HID device.">
<polygon fill="white" stroke="black" points="920.5,-95.5 920.5,-114.5 979.5,-114.5 979.5,-95.5 920.5,-95.5"/>
<text text-anchor="middle" x="950" y="-102.5" font-family="Helvetica,sans-Serif" font-size="10.00">hid_read</text>
</a>
</g>
</g>
<!-- Node12&#45;&gt;Node14 -->
<g id="edge13" class="edge">
<title>Node12&#45;&gt;Node14</title>
<path fill="none" stroke="midnightblue" d="M819.58,-119.59C846.91,-116.51 883.24,-112.42 910.45,-109.35"/>
<polygon fill="midnightblue" stroke="midnightblue" points="910.85,-112.82 920.39,-108.23 910.06,-105.87 910.85,-112.82"/>
</g>
<!-- Node16 -->
<g id="node16" class="node">
<title>Node16</title>
<g id="a_node16"><a xlink:href="group__API.html#gad14ea48e440cf5066df87cc6488493af" target="_top" xlink:title="Write an Output report to a HID device.">
<polygon fill="white" stroke="black" points="919,-57.5 919,-76.5 981,-76.5 981,-57.5 919,-57.5"/>
<text text-anchor="middle" x="950" y="-64.5" font-family="Helvetica,sans-Serif" font-size="10.00">hid_write</text>
</a>
</g>
</g>
<!-- Node12&#45;&gt;Node16 -->
<g id="edge15" class="edge">
<title>Node12&#45;&gt;Node16</title>
<path fill="none" stroke="midnightblue" d="M819.86,-117.54C834.59,-114.53 851.3,-110.4 866,-105 882.98,-98.76 885.59,-93.62 902,-86 906.06,-84.11 910.36,-82.23 914.65,-80.41"/>
<polygon fill="midnightblue" stroke="midnightblue" points="916.01,-83.64 923.92,-76.59 913.34,-77.17 916.01,-83.64"/>
</g>
<!-- Node17 -->
<g id="node17" class="node">
<title>Node17</title>
<g id="a_node17"><a xlink:href="pokeyslib_2PoKeysLibCoreSockets_8c.html#a22759fb4024c9081af26ac1bc6541b47" target="_top" xlink:title=" ">
<polygon fill="white" stroke="black" points="902,-133.5 902,-152.5 998,-152.5 998,-133.5 902,-133.5"/>
<text text-anchor="middle" x="950" y="-140.5" font-family="Helvetica,sans-Serif" font-size="10.00">SendEthRequest</text>
</a>
</g>
</g>
<!-- Node12&#45;&gt;Node17 -->
<g id="edge16" class="edge">
<title>Node12&#45;&gt;Node17</title>
<path fill="none" stroke="midnightblue" d="M819.58,-128.41C841.02,-130.82 867.99,-133.87 891.76,-136.55"/>
<polygon fill="midnightblue" stroke="midnightblue" points="891.4,-140.03 901.73,-137.67 892.18,-133.07 891.4,-140.03"/>
</g>
<!-- Node15 -->
<g id="node15" class="node">
<title>Node15</title>
<g id="a_node15"><a xlink:href="group__API.html#gaa5c9ed5aa290688ffac03343989ad75a" target="_top" xlink:title="Read an Input report from a HID device with timeout.">
<polygon fill="white" stroke="black" points="1034,-95.5 1034,-114.5 1136,-114.5 1136,-95.5 1034,-95.5"/>
<text text-anchor="middle" x="1085" y="-102.5" font-family="Helvetica,sans-Serif" font-size="10.00">hid_read_timeout</text>
</a>
</g>
</g>
<!-- Node14&#45;&gt;Node15 -->
<g id="edge14" class="edge">
<title>Node14&#45;&gt;Node15</title>
<path fill="none" stroke="midnightblue" d="M979.53,-105C992.49,-105 1008.35,-105 1023.75,-105"/>
<polygon fill="midnightblue" stroke="midnightblue" points="1023.77,-108.5 1033.77,-105 1023.77,-101.5 1023.77,-108.5"/>
</g>
<!-- Node17&#45;&gt;Node13 -->
<g id="edge17" class="edge">
<title>Node17&#45;&gt;Node13</title>
<path fill="none" stroke="midnightblue" d="M998.27,-149.75C1009.7,-151.39 1021.96,-153.14 1033.54,-154.79"/>
<polygon fill="midnightblue" stroke="midnightblue" points="1033.1,-158.26 1043.49,-156.21 1034.09,-151.33 1033.1,-158.26"/>
</g>
<!-- Node20 -->
<g id="node20" class="node">
<title>Node20</title>
<g id="a_node20"><a xlink:href="pokeyslib_2PoKeysLibIO_8c.html#ae7007ad0d96ba1ff2fadba2101016ce7" target="_top" xlink:title=" ">
<polygon fill="white" stroke="black" points="693,-76.5 693,-95.5 866,-95.5 866,-76.5 693,-76.5"/>
<text text-anchor="middle" x="779.5" y="-83.5" font-family="Helvetica,sans-Serif" font-size="10.00">PK_IsCounterAvailableByDevice</text>
</a>
</g>
</g>
<!-- Node19&#45;&gt;Node20 -->
<g id="edge20" class="edge">
<title>Node19&#45;&gt;Node20</title>
<path fill="none" stroke="midnightblue" d="M653.51,-86C663,-86 672.98,-86 682.99,-86"/>
<polygon fill="midnightblue" stroke="midnightblue" points="682.99,-89.5 692.99,-86 682.99,-82.5 682.99,-89.5"/>
</g>
<!-- Node22&#45;&gt;Node8 -->
<g id="edge23" class="edge">
<title>Node22&#45;&gt;Node8</title>
<path fill="none" stroke="midnightblue" d="M285.19,-135.38C302.43,-133.72 320.5,-131.98 337.18,-130.38"/>
<polygon fill="midnightblue" stroke="midnightblue" points="337.75,-133.84 347.37,-129.4 337.08,-126.87 337.75,-133.84"/>
</g>
<!-- Node24 -->
<g id="node24" class="node">
<title>Node24</title>
<g id="a_node24"><a xlink:href="pokeyslib_2PoKeysLibCore_8c.html#a8ddc84176ab5e728aeef3077e4c04721" target="_top" xlink:title=" ">
<polygon fill="white" stroke="black" points="365.5,-76.5 365.5,-95.5 443.5,-95.5 443.5,-76.5 365.5,-76.5"/>
<text text-anchor="middle" x="404.5" y="-83.5" font-family="Helvetica,sans-Serif" font-size="10.00">CleanDevice</text>
</a>
</g>
</g>
<!-- Node23&#45;&gt;Node24 -->
<g id="edge25" class="edge">
<title>Node23&#45;&gt;Node24</title>
<path fill="none" stroke="midnightblue" d="M266.06,-72.78C294.74,-75.54 328.59,-78.79 355.52,-81.38"/>
<polygon fill="midnightblue" stroke="midnightblue" points="355.19,-84.87 365.48,-82.34 355.86,-77.9 355.19,-84.87"/>
</g>
<!-- Node25 -->
<g id="node25" class="node">
<title>Node25</title>
<g id="a_node25"><a xlink:href="group__API.html#ga9b64828273b8dd052731e79ba9e1a516" target="_top" xlink:title="Close a HID device.">
<polygon fill="white" stroke="black" points="373.5,-38.5 373.5,-57.5 435.5,-57.5 435.5,-38.5 373.5,-38.5"/>
<text text-anchor="middle" x="404.5" y="-45.5" font-family="Helvetica,sans-Serif" font-size="10.00">hid_close</text>
</a>
</g>
</g>
<!-- Node23&#45;&gt;Node25 -->
<g id="edge26" class="edge">
<title>Node23&#45;&gt;Node25</title>
<path fill="none" stroke="midnightblue" d="M266.06,-61.22C297.56,-58.19 335.29,-54.56 363.25,-51.87"/>
<polygon fill="midnightblue" stroke="midnightblue" points="363.83,-55.33 373.45,-50.89 363.16,-48.36 363.83,-55.33"/>
</g>
<!-- Node26 -->
<g id="node26" class="node">
<title>Node26</title>
<g id="a_node26"><a xlink:href="pokeysHal_2PoKeysLibCoreSockets_8c.html#a99687fe089d02ed7dc65edcd486a0640" target="_top" xlink:title=" ">
<polygon fill="white" stroke="black" points="322.5,-0.5 322.5,-19.5 486.5,-19.5 486.5,-0.5 322.5,-0.5"/>
<text text-anchor="middle" x="404.5" y="-7.5" font-family="Helvetica,sans-Serif" font-size="10.00">PK_DisconnectNetworkDevice</text>
</a>
</g>
</g>
<!-- Node23&#45;&gt;Node26 -->
<g id="edge27" class="edge">
<title>Node23&#45;&gt;Node26</title>
<path fill="none" stroke="midnightblue" d="M232.74,-57.38C255.91,-49.24 290.42,-37.55 321,-29 329.94,-26.5 339.49,-24.08 348.8,-21.84"/>
<polygon fill="midnightblue" stroke="midnightblue" points="349.84,-25.2 358.78,-19.5 348.24,-18.38 349.84,-25.2"/>
</g>
<!-- Node27&#45;&gt;Node5 -->
<g id="edge29" class="edge">
<title>Node27&#45;&gt;Node5</title>
<path fill="none" stroke="midnightblue" d="M255.58,-266.46C284.1,-260.97 319.96,-254.07 349.23,-248.44"/>
<polygon fill="midnightblue" stroke="midnightblue" points="350.13,-251.83 359.29,-246.51 348.81,-244.96 350.13,-251.83"/>
</g>
<!-- Node27&#45;&gt;Node6 -->
<g id="edge30" class="edge">
<title>Node27&#45;&gt;Node6</title>
<path fill="none" stroke="midnightblue" d="M278.7,-276C296.17,-276 314.81,-276 332.21,-276"/>
<polygon fill="midnightblue" stroke="midnightblue" points="332.3,-279.5 342.3,-276 332.3,-272.5 332.3,-279.5"/>
</g>
<!-- Node28 -->
<g id="node28" class="node">
<title>Node28</title>
<g id="a_node28"><a xlink:href="pokeyslib_2PoKeysLib_8h.html#ae38ce1deaa535e226befc58bc2934df1" target="_top" xlink:title=" ">
<polygon fill="white" stroke="black" points="321,-304.5 321,-323.5 488,-323.5 488,-304.5 321,-304.5"/>
<text text-anchor="middle" x="404.5" y="-311.5" font-family="Helvetica,sans-Serif" font-size="10.00">PK_EnumerateFastUSBDevices</text>
</a>
</g>
</g>
<!-- Node27&#45;&gt;Node28 -->
<g id="edge31" class="edge">
<title>Node27&#45;&gt;Node28</title>
<path fill="none" stroke="midnightblue" d="M255.58,-285.54C282.35,-290.69 315.58,-297.08 343.76,-302.51"/>
<polygon fill="midnightblue" stroke="midnightblue" points="343.42,-306 353.9,-304.46 344.74,-299.13 343.42,-306"/>
</g>
<!-- Node29 -->
<g id="node29" class="node">
<title>Node29</title>
<g id="a_node29"><a xlink:href="pokeyslib_2PoKeysLibCore_8c.html#a090dd153ccde52edc3e7543a2033e744" target="_top" xlink:title=" ">
<polygon fill="white" stroke="black" points="349,-342.5 349,-361.5 460,-361.5 460,-342.5 349,-342.5"/>
<text text-anchor="middle" x="404.5" y="-349.5" font-family="Helvetica,sans-Serif" font-size="10.00">PKI_CheckInterface</text>
</a>
</g>
</g>
<!-- Node27&#45;&gt;Node29 -->
<g id="edge32" class="edge">
<title>Node27&#45;&gt;Node29</title>
<path fill="none" stroke="midnightblue" d="M222.22,-285.57C244.02,-298.06 284.28,-319.88 321,-333 328.12,-335.55 335.71,-337.83 343.3,-339.87"/>
<polygon fill="midnightblue" stroke="midnightblue" points="342.67,-343.32 353.22,-342.4 344.4,-336.54 342.67,-343.32"/>
</g>
</g>
</svg>
        <g id="navigator" transform="translate(0 0)" fill="#404254">
                <rect fill="#f2f5e9" fill-opacity="0.5" stroke="#606060" stroke-width=".5" x="0" y="0" width="60" height="60"/>
                <use id="zoomplus" xlink:href="#zoomPlus" x="17" y="9" onmousedown="handleZoom(evt,'in')"/>
                <use id="zoomminus" xlink:href="#zoomMin" x="42" y="9" onmousedown="handleZoom(evt,'out')"/>
                <use id="reset" xlink:href="#resetDef" x="30" y="36" onmousedown="handleReset()"/>
                <g id="arrowUp" xlink:href="#dirArrow" transform="translate(30 24)" onmousedown="handlePan(0,-1)">
                  <use xlink:href="#rim" fill="#404040">
                        <set attributeName="fill" to="#808080" begin="arrowUp.mouseover" end="arrowUp.mouseout"/>
                  </use>
                  <path fill="none" stroke="white" stroke-width="1.5" d="M0,-3.0v7 M-2.5,-0.5L0,-3.0L2.5,-0.5"/>
                </g>
                <g id="arrowRight" xlink:href="#dirArrow" transform="rotate(90) translate(36 -43)" onmousedown="handlePan(1,0)">
                  <use xlink:href="#rim" fill="#404040">
                        <set attributeName="fill" to="#808080" begin="arrowRight.mouseover" end="arrowRight.mouseout"/>
                  </use>
                  <path fill="none" stroke="white" stroke-width="1.5" d="M0,-3.0v7 M-2.5,-0.5L0,-3.0L2.5,-0.5"/>
                </g>
                <g id="arrowDown" xlink:href="#dirArrow" transform="rotate(180) translate(-30 -48)" onmousedown="handlePan(0,1)">
                  <use xlink:href="#rim" fill="#404040">
                        <set attributeName="fill" to="#808080" begin="arrowDown.mouseover" end="arrowDown.mouseout"/>
                  </use>
                  <path fill="none" stroke="white" stroke-width="1.5" d="M0,-3.0v7 M-2.5,-0.5L0,-3.0L2.5,-0.5"/>
                </g>
                <g id="arrowLeft" xlink:href="#dirArrow" transform="rotate(270) translate(-36 17)" onmousedown="handlePan(-1,0)">
                  <use xlink:href="#rim" fill="#404040">
                        <set attributeName="fill" to="#808080" begin="arrowLeft.mouseover" end="arrowLeft.mouseout"/>
                  </use>
                  <path fill="none" stroke="white" stroke-width="1.5" d="M0,-3.0v7 M-2.5,-0.5L0,-3.0L2.5,-0.5"/>
                </g>
        </g>
        <svg viewBox="0 0 15 15" width="100%" height="30px" preserveAspectRatio="xMaxYMin meet">
         <g id="arrow_out" transform="scale(0.3 0.3)">
          <a xlink:href="pokeysHal_2pokeyslib_2PoKeysLibDevicePoKeys57Industrial_8c_ac8fc7ddca3e4def19bafb5dfb39bcc19_cgraph_org.svg" target="_base">
           <rect id="button" ry="5" rx="5" y="6" x="6" height="38" width="38"
                fill="#f2f5e9" fill-opacity="0.5" stroke="#606060" stroke-width="1.0"/>
           <path id="arrow"
             d="M 11.500037,31.436501 C 11.940474,20.09759 22.043105,11.32322 32.158766,21.979434 L 37.068811,17.246167 C 37.068811,17.246167 37.088388,32 37.088388,32 L 22.160133,31.978069 C 22.160133,31.978069 26.997745,27.140456 26.997745,27.140456 C 18.528582,18.264221 13.291696,25.230495 11.500037,31.436501 z"
             style="fill:#404040;"/>
          </a>
         </g>
        </svg>
</svg>
