<?xml version="1.0" encoding="UTF-8" standalone="no"?>
<!DOCTYPE svg PUBLIC "-//W3C//DTD SVG 1.1//EN"
 "http://www.w3.org/Graphics/SVG/1.1/DTD/svg11.dtd">
<!-- Generated by graphviz version 2.43.0 (0)
 -->
<!-- Title: PK_AnalogIOGet Pages: 1 -->
<svg width="400pt" height="78pt"
 viewBox="0.00 0.00 400.00 77.50" xmlns="http://www.w3.org/2000/svg" xmlns:xlink="http://www.w3.org/1999/xlink">
<g id="graph0" class="graph" transform="scale(1 1) rotate(0) translate(4 73.5)">
<title>PK_AnalogIOGet</title>
<polygon fill="white" stroke="transparent" points="-4,4 -4,-73.5 396,-73.5 396,4 -4,4"/>
<!-- Node1 -->
<g id="node1" class="node">
<title>Node1</title>
<g id="a_node1"><a xlink:title=" ">
<polygon fill="#bfbfbf" stroke="black" points="296,-28 296,-47 392,-47 392,-28 296,-28"/>
<text text-anchor="middle" x="344" y="-35" font-family="Helvetica,sans-Serif" font-size="10.00">PK_AnalogIOGet</text>
</a>
</g>
</g>
<!-- Node2 -->
<g id="node2" class="node">
<title>Node2</title>
<g id="a_node2"><a xlink:href="PoKeysLibIO_8c.html#ab37e749b34cf17d4a87b86d5814c7e4e" target="_top" xlink:title=" ">
<polygon fill="white" stroke="black" points="126,-50 126,-69 260,-69 260,-50 126,-50"/>
<text text-anchor="middle" x="193" y="-57" font-family="Helvetica,sans-Serif" font-size="10.00">PK_AnalogIOGetAsArray</text>
</a>
</g>
</g>
<!-- Node1&#45;&gt;Node2 -->
<g id="edge1" class="edge">
<title>Node1&#45;&gt;Node2</title>
<path fill="none" stroke="midnightblue" d="M285.92,-45.93C276.97,-47.25 267.65,-48.63 258.54,-49.97"/>
<polygon fill="midnightblue" stroke="midnightblue" points="286.47,-49.38 295.86,-44.46 285.45,-42.46 286.47,-49.38"/>
</g>
<!-- Node3 -->
<g id="node3" class="node">
<title>Node3</title>
<g id="a_node3"><a xlink:href="group__hal__component__pokeys.html#ga053adc615433218543268696998c7f32" target="_top" xlink:title="Updates PoKeys I/O states from and to hardware.">
<polygon fill="white" stroke="black" points="129,-0.5 129,-30.5 257,-30.5 257,-0.5 129,-0.5"/>
<text text-anchor="start" x="137" y="-18.5" font-family="Helvetica,sans-Serif" font-size="10.00">PoKeysHALComponent</text>
<text text-anchor="middle" x="193" y="-7.5" font-family="Helvetica,sans-Serif" font-size="10.00">::PKIO_Update</text>
</a>
</g>
</g>
<!-- Node1&#45;&gt;Node3 -->
<g id="edge2" class="edge">
<title>Node1&#45;&gt;Node3</title>
<path fill="none" stroke="midnightblue" d="M285.86,-29.06C276.48,-27.68 266.71,-26.24 257.19,-24.83"/>
<polygon fill="midnightblue" stroke="midnightblue" points="285.45,-32.54 295.86,-30.54 286.47,-25.62 285.45,-32.54"/>
</g>
<!-- Node4 -->
<g id="node4" class="node">
<title>Node4</title>
<g id="a_node4"><a xlink:href="pokeys_8c.html#a6e89ee20635570c2e51b81bf26e895cc" target="_top" xlink:title=" ">
<polygon fill="white" stroke="black" points="0,-6 0,-25 90,-25 90,-6 0,-6"/>
<text text-anchor="middle" x="45" y="-13" font-family="Helvetica,sans-Serif" font-size="10.00">pokeys_update</text>
</a>
</g>
</g>
<!-- Node3&#45;&gt;Node4 -->
<g id="edge3" class="edge">
<title>Node3&#45;&gt;Node4</title>
<path fill="none" stroke="midnightblue" d="M118.74,-15.5C109.06,-15.5 99.37,-15.5 90.38,-15.5"/>
<polygon fill="midnightblue" stroke="midnightblue" points="118.81,-19 128.81,-15.5 118.81,-12 118.81,-19"/>
</g>
</g>
</svg>
