<?xml version="1.0" encoding="UTF-8" standalone="no"?>
<!DOCTYPE svg PUBLIC "-//W3C//DTD SVG 1.1//EN"
 "http://www.w3.org/Graphics/SVG/1.1/DTD/svg11.dtd">
<!-- Generated by graphviz version 2.43.0 (0)
 -->
<!-- Title: PK_ConnectToPoKeysDevice_USB_Async Pages: 1 -->
<svg width="1007pt" height="304pt"
 viewBox="0.00 0.00 1007.00 303.86" xmlns="http://www.w3.org/2000/svg" xmlns:xlink="http://www.w3.org/1999/xlink">
<g id="graph0" class="graph" transform="scale(1 1) rotate(0) translate(4 299.86)">
<title>PK_ConnectToPoKeysDevice_USB_Async</title>
<polygon fill="white" stroke="transparent" points="-4,4 -4,-299.86 1003,-299.86 1003,4 -4,4"/>
<!-- Node1 -->
<g id="node1" class="node">
<title>Node1</title>
<g id="a_node1"><a xlink:title=" ">
<polygon fill="#bfbfbf" stroke="black" points="0,-194 0,-224 154,-224 154,-194 0,-194"/>
<text text-anchor="start" x="8" y="-212" font-family="Helvetica,sans-Serif" font-size="10.00">PK_ConnectToPoKeysDevice</text>
<text text-anchor="middle" x="77" y="-201" font-family="Helvetica,sans-Serif" font-size="10.00">_USB_Async</text>
</a>
</g>
</g>
<!-- Node2 -->
<g id="node2" class="node">
<title>Node2</title>
<g id="a_node2"><a xlink:href="hal_8h.html#a37b839660591a915940fc471bbb5df4f" target="_top" xlink:title=" ">
<polygon fill="white" stroke="black" points="418.5,-246.5 418.5,-265.5 488.5,-265.5 488.5,-246.5 418.5,-246.5"/>
<text text-anchor="middle" x="453.5" y="-253.5" font-family="Helvetica,sans-Serif" font-size="10.00">hal_malloc</text>
</a>
</g>
</g>
<!-- Node1&#45;&gt;Node2 -->
<g id="edge1" class="edge">
<title>Node1&#45;&gt;Node2</title>
<path fill="none" stroke="midnightblue" d="M93.43,-224.02C113.65,-242.55 151.14,-273.06 190,-285 268.68,-309.18 366.11,-285.18 417.29,-268.69"/>
<polygon fill="midnightblue" stroke="midnightblue" points="418.5,-271.97 426.89,-265.51 416.3,-265.33 418.5,-271.97"/>
</g>
<!-- Node3 -->
<g id="node3" class="node">
<title>Node3</title>
<g id="a_node3"><a xlink:href="group__API.html#gaae7d1c3e90835556ddc73fabe3a9ca9d" target="_top" xlink:title="Enumerate the HID Devices.">
<polygon fill="white" stroke="black" points="225.5,-256.5 225.5,-275.5 315.5,-275.5 315.5,-256.5 225.5,-256.5"/>
<text text-anchor="middle" x="270.5" y="-263.5" font-family="Helvetica,sans-Serif" font-size="10.00">hid_enumerate</text>
</a>
</g>
</g>
<!-- Node1&#45;&gt;Node3 -->
<g id="edge2" class="edge">
<title>Node1&#45;&gt;Node3</title>
<path fill="none" stroke="midnightblue" d="M119.46,-224.09C140.45,-231.47 166.42,-240.2 190,-247 198.52,-249.46 207.62,-251.85 216.5,-254.06"/>
<polygon fill="midnightblue" stroke="midnightblue" points="215.86,-257.5 226.4,-256.47 217.51,-250.7 215.86,-257.5"/>
</g>
<!-- Node4 -->
<g id="node4" class="node">
<title>Node4</title>
<g id="a_node4"><a xlink:href="group__API.html#gafc2d2adf71db3784b783b9a554527aa4" target="_top" xlink:title="Free an enumeration Linked List.">
<polygon fill="white" stroke="black" points="208.5,-218.5 208.5,-237.5 332.5,-237.5 332.5,-218.5 208.5,-218.5"/>
<text text-anchor="middle" x="270.5" y="-225.5" font-family="Helvetica,sans-Serif" font-size="10.00">hid_free_enumeration</text>
</a>
</g>
</g>
<!-- Node1&#45;&gt;Node4 -->
<g id="edge3" class="edge">
<title>Node1&#45;&gt;Node4</title>
<path fill="none" stroke="midnightblue" d="M154.24,-216.56C168.67,-218 183.73,-219.49 198.01,-220.91"/>
<polygon fill="midnightblue" stroke="midnightblue" points="197.96,-224.42 208.25,-221.92 198.65,-217.45 197.96,-224.42"/>
</g>
<!-- Node5 -->
<g id="node5" class="node">
<title>Node5</title>
<g id="a_node5"><a xlink:href="group__API.html#ga954ecb58b5dfb4a6ef6be3dcd520e42f" target="_top" xlink:title="Open a HID device by its path name.">
<polygon fill="white" stroke="black" points="226.5,-180.5 226.5,-199.5 314.5,-199.5 314.5,-180.5 226.5,-180.5"/>
<text text-anchor="middle" x="270.5" y="-187.5" font-family="Helvetica,sans-Serif" font-size="10.00">hid_open_path</text>
</a>
</g>
</g>
<!-- Node1&#45;&gt;Node5 -->
<g id="edge4" class="edge">
<title>Node1&#45;&gt;Node5</title>
<path fill="none" stroke="midnightblue" d="M154.24,-201.44C175.01,-199.37 197.07,-197.19 216.27,-195.28"/>
<polygon fill="midnightblue" stroke="midnightblue" points="216.71,-198.75 226.32,-194.28 216.02,-191.79 216.71,-198.75"/>
</g>
<!-- Node6 -->
<g id="node6" class="node">
<title>Node6</title>
<g id="a_node6"><a xlink:href="experimental_2build_2PoKeysLibCoreAsync_8c.html#a481dcd5d43eaaef1d78ea8dbf1391808" target="_top" xlink:title=" ">
<polygon fill="white" stroke="black" points="208,-142.5 208,-161.5 333,-161.5 333,-142.5 208,-142.5"/>
<text text-anchor="middle" x="270.5" y="-149.5" font-family="Helvetica,sans-Serif" font-size="10.00">PK_CleanDeviceAsync</text>
</a>
</g>
</g>
<!-- Node1&#45;&gt;Node6 -->
<g id="edge5" class="edge">
<title>Node1&#45;&gt;Node6</title>
<path fill="none" stroke="midnightblue" d="M119.46,-193.91C140.45,-186.53 166.42,-177.8 190,-171 198.52,-168.54 207.62,-166.15 216.5,-163.94"/>
<polygon fill="midnightblue" stroke="midnightblue" points="217.51,-167.3 226.4,-161.53 215.86,-160.5 217.51,-167.3"/>
</g>
<!-- Node7 -->
<g id="node7" class="node">
<title>Node7</title>
<g id="a_node7"><a xlink:href="experimental_2build_2PoKeysLibCoreAsync_8c.html#acc56e7da96608a84025b34b1417331de" target="_top" xlink:title=" ">
<polygon fill="white" stroke="black" points="190,-104.5 190,-123.5 351,-123.5 351,-104.5 190,-104.5"/>
<text text-anchor="middle" x="270.5" y="-111.5" font-family="Helvetica,sans-Serif" font-size="10.00">PK_InitializeNewDeviceAsync</text>
</a>
</g>
</g>
<!-- Node1&#45;&gt;Node7 -->
<g id="edge6" class="edge">
<title>Node1&#45;&gt;Node7</title>
<path fill="none" stroke="midnightblue" d="M95.8,-193.88C116.93,-176.68 153.88,-148.93 190,-133 195.71,-130.48 201.8,-128.27 207.98,-126.33"/>
<polygon fill="midnightblue" stroke="midnightblue" points="209.08,-129.65 217.71,-123.5 207.13,-122.93 209.08,-129.65"/>
</g>
<!-- Node7&#45;&gt;Node2 -->
<g id="edge7" class="edge">
<title>Node7&#45;&gt;Node2</title>
<path fill="none" stroke="midnightblue" d="M333.1,-123.55C339.46,-126.02 345.58,-129.12 351,-133 375.37,-150.43 368.34,-166.56 387,-190 401.46,-208.16 420.34,-226.74 434.11,-239.54"/>
<polygon fill="midnightblue" stroke="midnightblue" points="431.82,-242.19 441.56,-246.36 436.55,-237.03 431.82,-242.19"/>
</g>
<!-- Node8 -->
<g id="node8" class="node">
<title>Node8</title>
<g id="a_node8"><a xlink:href="pokeysHal_2PoKeysLibDeviceData_8c.html#a9508e9fcbc964cae1ccdb57f582cb5e1" target="_top" xlink:title=" ">
<polygon fill="white" stroke="black" points="399,-104.5 399,-123.5 508,-123.5 508,-104.5 399,-104.5"/>
<text text-anchor="middle" x="453.5" y="-111.5" font-family="Helvetica,sans-Serif" font-size="10.00">PK_DeviceDataGet</text>
</a>
</g>
</g>
<!-- Node7&#45;&gt;Node8 -->
<g id="edge8" class="edge">
<title>Node7&#45;&gt;Node8</title>
<path fill="none" stroke="midnightblue" d="M351.15,-114C363.75,-114 376.63,-114 388.8,-114"/>
<polygon fill="midnightblue" stroke="midnightblue" points="388.83,-117.5 398.83,-114 388.83,-110.5 388.83,-117.5"/>
</g>
<!-- Node17 -->
<g id="node17" class="node">
<title>Node17</title>
<g id="a_node17"><a xlink:href="pokeysHal_2PoKeysLibDeviceData_8c.html#ae4798f617a5dd5ebb93c534258cd0eb9" target="_top" xlink:title=" ">
<polygon fill="white" stroke="black" points="387,-66.5 387,-85.5 520,-85.5 520,-66.5 387,-66.5"/>
<text text-anchor="middle" x="453.5" y="-73.5" font-family="Helvetica,sans-Serif" font-size="10.00">PK_FillPWMPinNumbers</text>
</a>
</g>
</g>
<!-- Node7&#45;&gt;Node17 -->
<g id="edge18" class="edge">
<title>Node7&#45;&gt;Node17</title>
<path fill="none" stroke="midnightblue" d="M317.17,-104.41C341.49,-99.31 371.58,-92.99 397.21,-87.61"/>
<polygon fill="midnightblue" stroke="midnightblue" points="398.09,-91 407.15,-85.52 396.65,-84.15 398.09,-91"/>
</g>
<!-- Node18 -->
<g id="node18" class="node">
<title>Node18</title>
<g id="a_node18"><a xlink:href="pokeysHal_2PoKeysLibIO_8c.html#a4397536c30fe3f56eb74b56210839349" target="_top" xlink:title=" ">
<polygon fill="white" stroke="black" points="390.5,-161.5 390.5,-180.5 516.5,-180.5 516.5,-161.5 390.5,-161.5"/>
<text text-anchor="middle" x="453.5" y="-168.5" font-family="Helvetica,sans-Serif" font-size="10.00">PK_IsCounterAvailable</text>
</a>
</g>
</g>
<!-- Node7&#45;&gt;Node18 -->
<g id="edge19" class="edge">
<title>Node7&#45;&gt;Node18</title>
<path fill="none" stroke="midnightblue" d="M315.92,-123.59C327.42,-126.35 339.74,-129.56 351,-133 374.4,-140.15 400.22,-149.84 419.96,-157.64"/>
<polygon fill="midnightblue" stroke="midnightblue" points="418.81,-160.96 429.4,-161.42 421.41,-154.46 418.81,-160.96"/>
</g>
<!-- Node9 -->
<g id="node9" class="node">
<title>Node9</title>
<g id="a_node9"><a xlink:href="pokeyslib_2PoKeysLibDeviceData_8c.html#a8fa8788bebd4d9501da88a32620a6be1" target="_top" xlink:title=" ">
<polygon fill="white" stroke="black" points="597.5,-133.5 597.5,-152.5 687.5,-152.5 687.5,-133.5 597.5,-133.5"/>
<text text-anchor="middle" x="642.5" y="-140.5" font-family="Helvetica,sans-Serif" font-size="10.00">CompareName</text>
</a>
</g>
</g>
<!-- Node8&#45;&gt;Node9 -->
<g id="edge9" class="edge">
<title>Node8&#45;&gt;Node9</title>
<path fill="none" stroke="midnightblue" d="M508.09,-122.31C532.94,-126.16 562.42,-130.74 587.35,-134.6"/>
<polygon fill="midnightblue" stroke="midnightblue" points="586.94,-138.08 597.36,-136.16 588.02,-131.16 586.94,-138.08"/>
</g>
<!-- Node10 -->
<g id="node10" class="node">
<title>Node10</title>
<g id="a_node10"><a xlink:href="pokeyslib_2PoKeysLibCore_8c.html#acb1fdd8f77277dc66c4d037218bfcece" target="_top" xlink:title=" ">
<polygon fill="white" stroke="black" points="598,-95.5 598,-114.5 687,-114.5 687,-95.5 598,-95.5"/>
<text text-anchor="middle" x="642.5" y="-102.5" font-family="Helvetica,sans-Serif" font-size="10.00">CreateRequest</text>
</a>
</g>
</g>
<!-- Node8&#45;&gt;Node10 -->
<g id="edge10" class="edge">
<title>Node8&#45;&gt;Node10</title>
<path fill="none" stroke="midnightblue" d="M508.09,-111.42C533.13,-110.22 562.87,-108.78 587.92,-107.58"/>
<polygon fill="midnightblue" stroke="midnightblue" points="588.15,-111.07 597.97,-107.09 587.82,-104.08 588.15,-111.07"/>
</g>
<!-- Node11 -->
<g id="node11" class="node">
<title>Node11</title>
<g id="a_node11"><a xlink:href="pokeyslib_2PoKeysLibCore_8c.html#ab5d92aa36d0a4a6953a055f5cd960aff" target="_top" xlink:title=" ">
<polygon fill="white" stroke="black" points="602.5,-57.5 602.5,-76.5 682.5,-76.5 682.5,-57.5 602.5,-57.5"/>
<text text-anchor="middle" x="642.5" y="-64.5" font-family="Helvetica,sans-Serif" font-size="10.00">SendRequest</text>
</a>
</g>
</g>
<!-- Node8&#45;&gt;Node11 -->
<g id="edge11" class="edge">
<title>Node8&#45;&gt;Node11</title>
<path fill="none" stroke="midnightblue" d="M487.3,-104.5C507.13,-98.87 532.94,-91.74 556,-86 567.76,-83.07 580.48,-80.13 592.43,-77.46"/>
<polygon fill="midnightblue" stroke="midnightblue" points="593.24,-80.87 602.24,-75.29 591.72,-74.03 593.24,-80.87"/>
</g>
<!-- Node12 -->
<g id="node12" class="node">
<title>Node12</title>
<g id="a_node12"><a xlink:href="pokeyslib_2PoKeysLibCore_8c.html#a273b6d635dea8f559b915cdb289d021e" target="_top" xlink:title=" ">
<polygon fill="white" stroke="black" points="906.5,-38.5 906.5,-57.5 989.5,-57.5 989.5,-38.5 906.5,-38.5"/>
<text text-anchor="middle" x="948" y="-45.5" font-family="Helvetica,sans-Serif" font-size="10.00">getChecksum</text>
</a>
</g>
</g>
<!-- Node11&#45;&gt;Node12 -->
<g id="edge12" class="edge">
<title>Node11&#45;&gt;Node12</title>
<path fill="none" stroke="midnightblue" d="M682.54,-69.54C726.17,-71.79 798.88,-73.78 861,-67 874.57,-65.52 889.13,-62.76 902.34,-59.8"/>
<polygon fill="midnightblue" stroke="midnightblue" points="903.2,-63.19 912.14,-57.51 901.61,-56.37 903.2,-63.19"/>
</g>
<!-- Node13 -->
<g id="node13" class="node">
<title>Node13</title>
<g id="a_node13"><a xlink:href="group__API.html#ga6b820f3e72097cf7f994e33715dc7af1" target="_top" xlink:title="Read an Input report from a HID device.">
<polygon fill="white" stroke="black" points="783.5,-114.5 783.5,-133.5 842.5,-133.5 842.5,-114.5 783.5,-114.5"/>
<text text-anchor="middle" x="813" y="-121.5" font-family="Helvetica,sans-Serif" font-size="10.00">hid_read</text>
</a>
</g>
</g>
<!-- Node11&#45;&gt;Node13 -->
<g id="edge13" class="edge">
<title>Node11&#45;&gt;Node13</title>
<path fill="none" stroke="midnightblue" d="M682.71,-73.9C697.41,-76.96 714.15,-81.01 729,-86 748.16,-92.43 768.83,-101.89 784.75,-109.76"/>
<polygon fill="midnightblue" stroke="midnightblue" points="783.48,-113.04 793.99,-114.41 786.63,-106.79 783.48,-113.04"/>
</g>
<!-- Node15 -->
<g id="node15" class="node">
<title>Node15</title>
<g id="a_node15"><a xlink:href="group__API.html#gad14ea48e440cf5066df87cc6488493af" target="_top" xlink:title="Write an Output report to a HID device.">
<polygon fill="white" stroke="black" points="782,-38.5 782,-57.5 844,-57.5 844,-38.5 782,-38.5"/>
<text text-anchor="middle" x="813" y="-45.5" font-family="Helvetica,sans-Serif" font-size="10.00">hid_write</text>
</a>
</g>
</g>
<!-- Node11&#45;&gt;Node15 -->
<g id="edge15" class="edge">
<title>Node11&#45;&gt;Node15</title>
<path fill="none" stroke="midnightblue" d="M682.58,-62.59C709.27,-59.58 744.55,-55.61 771.54,-52.56"/>
<polygon fill="midnightblue" stroke="midnightblue" points="772.26,-56 781.8,-51.41 771.47,-49.05 772.26,-56"/>
</g>
<!-- Node16 -->
<g id="node16" class="node">
<title>Node16</title>
<g id="a_node16"><a xlink:href="pokeyslib_2PoKeysLibCoreSockets_8c.html#a22759fb4024c9081af26ac1bc6541b47" target="_top" xlink:title=" ">
<polygon fill="white" stroke="black" points="765,-0.5 765,-19.5 861,-19.5 861,-0.5 765,-0.5"/>
<text text-anchor="middle" x="813" y="-7.5" font-family="Helvetica,sans-Serif" font-size="10.00">SendEthRequest</text>
</a>
</g>
</g>
<!-- Node11&#45;&gt;Node16 -->
<g id="edge16" class="edge">
<title>Node11&#45;&gt;Node16</title>
<path fill="none" stroke="midnightblue" d="M671.7,-57.46C699.77,-47.97 743.02,-33.33 774.08,-22.83"/>
<polygon fill="midnightblue" stroke="midnightblue" points="775.35,-26.09 783.7,-19.57 773.11,-19.46 775.35,-26.09"/>
</g>
<!-- Node14 -->
<g id="node14" class="node">
<title>Node14</title>
<g id="a_node14"><a xlink:href="group__API.html#gaa5c9ed5aa290688ffac03343989ad75a" target="_top" xlink:title="Read an Input report from a HID device with timeout.">
<polygon fill="white" stroke="black" points="897,-114.5 897,-133.5 999,-133.5 999,-114.5 897,-114.5"/>
<text text-anchor="middle" x="948" y="-121.5" font-family="Helvetica,sans-Serif" font-size="10.00">hid_read_timeout</text>
</a>
</g>
</g>
<!-- Node13&#45;&gt;Node14 -->
<g id="edge14" class="edge">
<title>Node13&#45;&gt;Node14</title>
<path fill="none" stroke="midnightblue" d="M842.53,-124C855.49,-124 871.35,-124 886.75,-124"/>
<polygon fill="midnightblue" stroke="midnightblue" points="886.77,-127.5 896.77,-124 886.77,-120.5 886.77,-127.5"/>
</g>
<!-- Node16&#45;&gt;Node12 -->
<g id="edge17" class="edge">
<title>Node16&#45;&gt;Node12</title>
<path fill="none" stroke="midnightblue" d="M847.56,-19.59C864.57,-24.45 885.43,-30.41 903.64,-35.61"/>
<polygon fill="midnightblue" stroke="midnightblue" points="902.87,-39.03 913.45,-38.41 904.8,-32.3 902.87,-39.03"/>
</g>
<!-- Node19 -->
<g id="node19" class="node">
<title>Node19</title>
<g id="a_node19"><a xlink:href="pokeyslib_2PoKeysLibIO_8c.html#ae7007ad0d96ba1ff2fadba2101016ce7" target="_top" xlink:title=" ">
<polygon fill="white" stroke="black" points="556,-171.5 556,-190.5 729,-190.5 729,-171.5 556,-171.5"/>
<text text-anchor="middle" x="642.5" y="-178.5" font-family="Helvetica,sans-Serif" font-size="10.00">PK_IsCounterAvailableByDevice</text>
</a>
</g>
</g>
<!-- Node18&#45;&gt;Node19 -->
<g id="edge20" class="edge">
<title>Node18&#45;&gt;Node19</title>
<path fill="none" stroke="midnightblue" d="M516.51,-174.32C526,-174.82 535.98,-175.36 545.99,-175.89"/>
<polygon fill="midnightblue" stroke="midnightblue" points="545.82,-179.39 555.99,-176.43 546.19,-172.4 545.82,-179.39"/>
</g>
</g>
</svg>
