<?xml version="1.0" encoding="UTF-8" standalone="no"?>
<!DOCTYPE svg PUBLIC "-//W3C//DTD SVG 1.1//EN"
 "http://www.w3.org/Graphics/SVG/1.1/DTD/svg11.dtd">
<!-- Generated by graphviz version 2.43.0 (0)
 -->
<!-- Title: main Pages: 1 -->
<svg width="864pt" height="598pt"
 viewBox="0.00 0.00 864.00 598.00" xmlns="http://www.w3.org/2000/svg" xmlns:xlink="http://www.w3.org/1999/xlink">
<g id="graph0" class="graph" transform="scale(1 1) rotate(0) translate(4 594)">
<title>main</title>
<polygon fill="white" stroke="transparent" points="-4,4 -4,-594 860,-594 860,4 -4,4"/>
<!-- Node1 -->
<g id="node1" class="node">
<title>Node1</title>
<g id="a_node1"><a xlink:title="Main function for the PoKeys component.">
<polygon fill="#bfbfbf" stroke="black" points="0,-475.5 0,-494.5 41,-494.5 41,-475.5 0,-475.5"/>
<text text-anchor="middle" x="20.5" y="-482.5" font-family="Helvetica,sans-Serif" font-size="10.00">main</text>
</a>
</g>
</g>
<!-- Node2 -->
<g id="node2" class="node">
<title>Node2</title>
<g id="a_node2"><a xlink:href="pokeys_8c.html#a22fb33021986c7717081e1da60298bcc" target="_top" xlink:title="Main loop for the PoKeys component.">
<polygon fill="white" stroke="black" points="80,-570.5 80,-589.5 199,-589.5 199,-570.5 80,-570.5"/>
<text text-anchor="middle" x="139.5" y="-577.5" font-family="Helvetica,sans-Serif" font-size="10.00">__comp_parse_count</text>
</a>
</g>
</g>
<!-- Node1&#45;&gt;Node2 -->
<g id="edge1" class="edge">
<title>Node1&#45;&gt;Node2</title>
<path fill="none" stroke="midnightblue" d="M26,-494.72C33.98,-510.88 52.13,-543.25 77,-561 79.81,-563.01 82.85,-564.81 86,-566.42"/>
<polygon fill="midnightblue" stroke="midnightblue" points="84.59,-569.62 95.15,-570.49 87.44,-563.23 84.59,-569.62"/>
</g>
<!-- Node3 -->
<g id="node3" class="node">
<title>Node3</title>
<g id="a_node3"><a xlink:href="pokeys_8c.html#a57e099851c5cce63201ff894f6e3c389" target="_top" xlink:title="Parse the names from the command line arguments.">
<polygon fill="white" stroke="black" points="77,-532.5 77,-551.5 202,-551.5 202,-532.5 77,-532.5"/>
<text text-anchor="middle" x="139.5" y="-539.5" font-family="Helvetica,sans-Serif" font-size="10.00">__comp_parse_names</text>
</a>
</g>
</g>
<!-- Node1&#45;&gt;Node3 -->
<g id="edge2" class="edge">
<title>Node1&#45;&gt;Node3</title>
<path fill="none" stroke="midnightblue" d="M33.2,-494.57C44.01,-503.02 60.81,-515.18 77,-523 81.6,-525.22 86.52,-527.26 91.49,-529.1"/>
<polygon fill="midnightblue" stroke="midnightblue" points="90.47,-532.45 101.06,-532.4 92.75,-525.83 90.47,-532.45"/>
</g>
<!-- Node4 -->
<g id="node4" class="node">
<title>Node4</title>
<g id="a_node4"><a xlink:href="pokeys_8c.html#aeb4f5af5fb6d6ecd6b83b7c7cc049e7a" target="_top" xlink:title="Exit function for the PoKeys component.">
<polygon fill="white" stroke="black" points="96.5,-494.5 96.5,-513.5 182.5,-513.5 182.5,-494.5 96.5,-494.5"/>
<text text-anchor="middle" x="139.5" y="-501.5" font-family="Helvetica,sans-Serif" font-size="10.00">rtapi_app_exit</text>
</a>
</g>
</g>
<!-- Node1&#45;&gt;Node4 -->
<g id="edge3" class="edge">
<title>Node1&#45;&gt;Node4</title>
<path fill="none" stroke="midnightblue" d="M41.08,-488.18C53.36,-490.17 69.81,-492.85 85.7,-495.43"/>
<polygon fill="midnightblue" stroke="midnightblue" points="85.58,-498.95 96.01,-497.1 86.7,-492.04 85.58,-498.95"/>
</g>
<!-- Node6 -->
<g id="node6" class="node">
<title>Node6</title>
<g id="a_node6"><a xlink:href="pokeys_8c.html#ac0b129af292c0005ec8a8abadd6398de" target="_top" xlink:title="Main function for the PoKeys component.">
<polygon fill="white" stroke="black" points="93.5,-456.5 93.5,-475.5 185.5,-475.5 185.5,-456.5 93.5,-456.5"/>
<text text-anchor="middle" x="139.5" y="-463.5" font-family="Helvetica,sans-Serif" font-size="10.00">rtapi_app_main</text>
</a>
</g>
</g>
<!-- Node1&#45;&gt;Node6 -->
<g id="edge5" class="edge">
<title>Node1&#45;&gt;Node6</title>
<path fill="none" stroke="midnightblue" d="M41.08,-481.82C52.61,-479.95 67.81,-477.48 82.78,-475.05"/>
<polygon fill="midnightblue" stroke="midnightblue" points="83.74,-478.44 93.05,-473.38 82.62,-471.53 83.74,-478.44"/>
</g>
<!-- Node7 -->
<g id="node7" class="node">
<title>Node7</title>
<g id="a_node7"><a xlink:href="rtapi_8h.html#a2432d36976ec87e60c9c92d3c0067182" target="_top" xlink:title=" ">
<polygon fill="white" stroke="black" points="613.5,-361.5 613.5,-380.5 706.5,-380.5 706.5,-361.5 613.5,-361.5"/>
<text text-anchor="middle" x="660" y="-368.5" font-family="Helvetica,sans-Serif" font-size="10.00">rtapi_print_msg</text>
</a>
</g>
</g>
<!-- Node1&#45;&gt;Node7 -->
<g id="edge6" class="edge">
<title>Node1&#45;&gt;Node7</title>
<path fill="none" stroke="midnightblue" d="M32.1,-475.45C42.66,-466.52 59.77,-453.59 77,-447 125.59,-428.43 466.9,-391.14 603.09,-376.8"/>
<polygon fill="midnightblue" stroke="midnightblue" points="603.72,-380.25 613.3,-375.73 602.99,-373.29 603.72,-380.25"/>
</g>
<!-- Node8 -->
<g id="node8" class="node">
<title>Node8</title>
<g id="a_node8"><a xlink:href="pokeys__async2_8c.html#aaf7e510ec6df908bbd750707b3105706" target="_top" xlink:title=" ">
<polygon fill="white" stroke="black" points="95,-285.5 95,-304.5 184,-304.5 184,-285.5 95,-285.5"/>
<text text-anchor="middle" x="139.5" y="-292.5" font-family="Helvetica,sans-Serif" font-size="10.00">user_mainloop</text>
</a>
</g>
</g>
<!-- Node1&#45;&gt;Node8 -->
<g id="edge7" class="edge">
<title>Node1&#45;&gt;Node8</title>
<path fill="none" stroke="midnightblue" d="M27.46,-475.32C45.92,-445.34 102.36,-353.69 126.9,-313.84"/>
<polygon fill="midnightblue" stroke="midnightblue" points="130.15,-315.24 132.41,-304.89 124.19,-311.57 130.15,-315.24"/>
</g>
<!-- Node5 -->
<g id="node5" class="node">
<title>Node5</title>
<g id="a_node5"><a xlink:href="hal_8h.html#aac79972080ae3df06ba830372601c953" target="_top" xlink:title=" ">
<polygon fill="white" stroke="black" points="285,-494.5 285,-513.5 341,-513.5 341,-494.5 285,-494.5"/>
<text text-anchor="middle" x="313" y="-501.5" font-family="Helvetica,sans-Serif" font-size="10.00">hal_exit</text>
</a>
</g>
</g>
<!-- Node4&#45;&gt;Node5 -->
<g id="edge4" class="edge">
<title>Node4&#45;&gt;Node5</title>
<path fill="none" stroke="midnightblue" d="M182.89,-504C211,-504 247.55,-504 274.58,-504"/>
<polygon fill="midnightblue" stroke="midnightblue" points="274.8,-507.5 284.8,-504 274.8,-500.5 274.8,-507.5"/>
</g>
<!-- Node8&#45;&gt;Node7 -->
<g id="edge32" class="edge">
<title>Node8&#45;&gt;Node7</title>
<path fill="none" stroke="midnightblue" d="M160.14,-304.56C179.47,-313.5 210.06,-326.43 238,-333 366.46,-363.19 522.16,-369.72 603.46,-370.93"/>
<polygon fill="midnightblue" stroke="midnightblue" points="603.43,-374.43 613.47,-371.06 603.52,-367.43 603.43,-374.43"/>
</g>
<!-- Node9 -->
<g id="node9" class="node">
<title>Node9</title>
<g id="a_node9"><a xlink:href="PoKeysLibAsync_8c.html#ad9c2ccf7f8aaaa52ad2ccbf77e2efe71" target="_top" xlink:title="Receives UDP packets and dispatches them to the correct async transaction.">
<polygon fill="white" stroke="black" points="245.5,-209.5 245.5,-228.5 380.5,-228.5 380.5,-209.5 245.5,-209.5"/>
<text text-anchor="middle" x="313" y="-216.5" font-family="Helvetica,sans-Serif" font-size="10.00">PK_ReceiveAndDispatch</text>
</a>
</g>
</g>
<!-- Node8&#45;&gt;Node9 -->
<g id="edge8" class="edge">
<title>Node8&#45;&gt;Node9</title>
<path fill="none" stroke="midnightblue" d="M162.22,-285.37C192.25,-272.07 246.6,-247.98 280.92,-232.77"/>
<polygon fill="midnightblue" stroke="midnightblue" points="282.73,-235.8 290.46,-228.55 279.9,-229.4 282.73,-235.8"/>
</g>
<!-- Node11 -->
<g id="node11" class="node">
<title>Node11</title>
<g id="a_node11"><a xlink:href="pokeysHal_2PoKeysLibRTC_8c.html#a3e0fb79fbdbcd9ac1dd0f20f9564c684" target="_top" xlink:title="Read the real&#45;time clock values (command 0x83/0x00).">
<polygon fill="white" stroke="black" points="278,-76.5 278,-95.5 348,-95.5 348,-76.5 278,-76.5"/>
<text text-anchor="middle" x="313" y="-83.5" font-family="Helvetica,sans-Serif" font-size="10.00">PK_RTCGet</text>
</a>
</g>
</g>
<!-- Node8&#45;&gt;Node11 -->
<g id="edge10" class="edge">
<title>Node8&#45;&gt;Node11</title>
<path fill="none" stroke="midnightblue" d="M148.31,-285.48C175.04,-252.9 263.07,-145.62 297.77,-103.35"/>
<polygon fill="midnightblue" stroke="midnightblue" points="300.5,-105.53 304.14,-95.58 295.09,-101.09 300.5,-105.53"/>
</g>
<!-- Node19 -->
<g id="node19" class="node">
<title>Node19</title>
<g id="a_node19"><a xlink:href="PoKeysLibRTCAsync_8c.html#a9161c735be7333de615ac373afd0bf58" target="_top" xlink:title="Starts an asynchronous RTC read from the device.">
<polygon fill="white" stroke="black" points="263.5,-266.5 263.5,-285.5 362.5,-285.5 362.5,-266.5 263.5,-266.5"/>
<text text-anchor="middle" x="313" y="-273.5" font-family="Helvetica,sans-Serif" font-size="10.00">PK_RTCGetAsync</text>
</a>
</g>
</g>
<!-- Node8&#45;&gt;Node19 -->
<g id="edge19" class="edge">
<title>Node8&#45;&gt;Node19</title>
<path fill="none" stroke="midnightblue" d="M184.22,-290.16C205.13,-287.84 230.48,-285.03 253.06,-282.53"/>
<polygon fill="midnightblue" stroke="midnightblue" points="253.66,-285.98 263.22,-281.4 252.89,-279.03 253.66,-285.98"/>
</g>
<!-- Node27 -->
<g id="node27" class="node">
<title>Node27</title>
<g id="a_node27"><a xlink:href="PoKeysLibAsync_8c.html#aac592ef253302b3b4230421a769276a9" target="_top" xlink:title="Enhanced timeout and retry check with exponential backoff and error recovery.">
<polygon fill="white" stroke="black" points="238,-304.5 238,-323.5 388,-323.5 388,-304.5 238,-304.5"/>
<text text-anchor="middle" x="313" y="-311.5" font-family="Helvetica,sans-Serif" font-size="10.00">PK_TimeoutAndRetryCheck</text>
</a>
</g>
</g>
<!-- Node8&#45;&gt;Node27 -->
<g id="edge30" class="edge">
<title>Node8&#45;&gt;Node27</title>
<path fill="none" stroke="midnightblue" d="M184.22,-299.84C197.44,-301.31 212.44,-302.97 227.39,-304.63"/>
<polygon fill="midnightblue" stroke="midnightblue" points="227.38,-308.15 237.71,-305.77 228.16,-301.19 227.38,-308.15"/>
</g>
<!-- Node10 -->
<g id="node10" class="node">
<title>Node10</title>
<g id="a_node10"><a xlink:href="PoKeysLibAsync_8c.html#a47e60ec1f2ceb9c913f4b3fdd448595b" target="_top" xlink:title="Finds an open transaction by its Request ID.">
<polygon fill="white" stroke="black" points="612.5,-228.5 612.5,-247.5 707.5,-247.5 707.5,-228.5 612.5,-228.5"/>
<text text-anchor="middle" x="660" y="-235.5" font-family="Helvetica,sans-Serif" font-size="10.00">transaction_find</text>
</a>
</g>
</g>
<!-- Node9&#45;&gt;Node10 -->
<g id="edge9" class="edge">
<title>Node9&#45;&gt;Node10</title>
<path fill="none" stroke="midnightblue" d="M380.51,-215.36C431.42,-213.45 503.32,-212.66 566,-219 580.78,-220.49 596.68,-223.29 611.07,-226.29"/>
<polygon fill="midnightblue" stroke="midnightblue" points="610.74,-229.8 621.26,-228.49 612.22,-222.96 610.74,-229.8"/>
</g>
<!-- Node12 -->
<g id="node12" class="node">
<title>Node12</title>
<g id="a_node12"><a xlink:href="pokeyslib_2PoKeysLibCore_8c.html#acb1fdd8f77277dc66c4d037218bfcece" target="_top" xlink:title=" ">
<polygon fill="white" stroke="black" points="450.5,-38.5 450.5,-57.5 539.5,-57.5 539.5,-38.5 450.5,-38.5"/>
<text text-anchor="middle" x="495" y="-45.5" font-family="Helvetica,sans-Serif" font-size="10.00">CreateRequest</text>
</a>
</g>
</g>
<!-- Node11&#45;&gt;Node12 -->
<g id="edge11" class="edge">
<title>Node11&#45;&gt;Node12</title>
<path fill="none" stroke="midnightblue" d="M348.28,-78.76C374.31,-73.27 410.58,-65.61 440.43,-59.31"/>
<polygon fill="midnightblue" stroke="midnightblue" points="441.22,-62.72 450.28,-57.23 439.77,-55.87 441.22,-62.72"/>
</g>
<!-- Node13 -->
<g id="node13" class="node">
<title>Node13</title>
<g id="a_node13"><a xlink:href="pokeyslib_2PoKeysLibCore_8c.html#ab5d92aa36d0a4a6953a055f5cd960aff" target="_top" xlink:title=" ">
<polygon fill="white" stroke="black" points="455,-76.5 455,-95.5 535,-95.5 535,-76.5 455,-76.5"/>
<text text-anchor="middle" x="495" y="-83.5" font-family="Helvetica,sans-Serif" font-size="10.00">SendRequest</text>
</a>
</g>
</g>
<!-- Node11&#45;&gt;Node13 -->
<g id="edge12" class="edge">
<title>Node11&#45;&gt;Node13</title>
<path fill="none" stroke="midnightblue" d="M348.28,-86C375.59,-86 414.18,-86 444.79,-86"/>
<polygon fill="midnightblue" stroke="midnightblue" points="444.84,-89.5 454.84,-86 444.84,-82.5 444.84,-89.5"/>
</g>
<!-- Node14 -->
<g id="node14" class="node">
<title>Node14</title>
<g id="a_node14"><a xlink:href="pokeyslib_2PoKeysLibCore_8c.html#a273b6d635dea8f559b915cdb289d021e" target="_top" xlink:title=" ">
<polygon fill="white" stroke="black" points="763.5,-57.5 763.5,-76.5 846.5,-76.5 846.5,-57.5 763.5,-57.5"/>
<text text-anchor="middle" x="805" y="-64.5" font-family="Helvetica,sans-Serif" font-size="10.00">getChecksum</text>
</a>
</g>
</g>
<!-- Node13&#45;&gt;Node14 -->
<g id="edge13" class="edge">
<title>Node13&#45;&gt;Node14</title>
<path fill="none" stroke="midnightblue" d="M535.01,-83.59C590.4,-80.18 691.91,-73.91 753.15,-70.14"/>
<polygon fill="midnightblue" stroke="midnightblue" points="753.59,-73.62 763.35,-69.51 753.16,-66.63 753.59,-73.62"/>
</g>
<!-- Node15 -->
<g id="node15" class="node">
<title>Node15</title>
<g id="a_node15"><a xlink:href="group__API.html#ga6b820f3e72097cf7f994e33715dc7af1" target="_top" xlink:title="Read an Input report from a HID device.">
<polygon fill="white" stroke="black" points="630.5,-0.5 630.5,-19.5 689.5,-19.5 689.5,-0.5 630.5,-0.5"/>
<text text-anchor="middle" x="660" y="-7.5" font-family="Helvetica,sans-Serif" font-size="10.00">hid_read</text>
</a>
</g>
</g>
<!-- Node13&#45;&gt;Node15 -->
<g id="edge14" class="edge">
<title>Node13&#45;&gt;Node15</title>
<path fill="none" stroke="midnightblue" d="M535.31,-79.34C545.75,-76.52 556.7,-72.56 566,-67 585.97,-55.06 582.38,-41.5 602,-29 607.73,-25.35 614.24,-22.32 620.76,-19.85"/>
<polygon fill="midnightblue" stroke="midnightblue" points="621.91,-23.15 630.23,-16.59 619.63,-16.53 621.91,-23.15"/>
</g>
<!-- Node17 -->
<g id="node17" class="node">
<title>Node17</title>
<g id="a_node17"><a xlink:href="group__API.html#gad14ea48e440cf5066df87cc6488493af" target="_top" xlink:title="Write an Output report to a HID device.">
<polygon fill="white" stroke="black" points="629,-114.5 629,-133.5 691,-133.5 691,-114.5 629,-114.5"/>
<text text-anchor="middle" x="660" y="-121.5" font-family="Helvetica,sans-Serif" font-size="10.00">hid_write</text>
</a>
</g>
</g>
<!-- Node13&#45;&gt;Node17 -->
<g id="edge16" class="edge">
<title>Node13&#45;&gt;Node17</title>
<path fill="none" stroke="midnightblue" d="M535.04,-95.1C560.49,-101.03 593.59,-108.75 619.18,-114.72"/>
<polygon fill="midnightblue" stroke="midnightblue" points="618.41,-118.13 628.94,-116.99 620,-111.31 618.41,-118.13"/>
</g>
<!-- Node18 -->
<g id="node18" class="node">
<title>Node18</title>
<g id="a_node18"><a xlink:href="pokeyslib_2PoKeysLibCoreSockets_8c.html#a22759fb4024c9081af26ac1bc6541b47" target="_top" xlink:title=" ">
<polygon fill="white" stroke="black" points="612,-38.5 612,-57.5 708,-57.5 708,-38.5 612,-38.5"/>
<text text-anchor="middle" x="660" y="-45.5" font-family="Helvetica,sans-Serif" font-size="10.00">SendEthRequest</text>
</a>
</g>
</g>
<!-- Node13&#45;&gt;Node18 -->
<g id="edge17" class="edge">
<title>Node13&#45;&gt;Node18</title>
<path fill="none" stroke="midnightblue" d="M535.04,-76.9C556.96,-71.79 584.57,-65.35 608.16,-59.85"/>
<polygon fill="midnightblue" stroke="midnightblue" points="609.06,-63.24 618,-57.56 607.47,-56.42 609.06,-63.24"/>
</g>
<!-- Node16 -->
<g id="node16" class="node">
<title>Node16</title>
<g id="a_node16"><a xlink:href="group__API.html#gaa5c9ed5aa290688ffac03343989ad75a" target="_top" xlink:title="Read an Input report from a HID device with timeout.">
<polygon fill="white" stroke="black" points="754,-0.5 754,-19.5 856,-19.5 856,-0.5 754,-0.5"/>
<text text-anchor="middle" x="805" y="-7.5" font-family="Helvetica,sans-Serif" font-size="10.00">hid_read_timeout</text>
</a>
</g>
</g>
<!-- Node15&#45;&gt;Node16 -->
<g id="edge15" class="edge">
<title>Node15&#45;&gt;Node16</title>
<path fill="none" stroke="midnightblue" d="M689.59,-10C705.07,-10 724.8,-10 743.5,-10"/>
<polygon fill="midnightblue" stroke="midnightblue" points="743.74,-13.5 753.74,-10 743.74,-6.5 743.74,-13.5"/>
</g>
<!-- Node18&#45;&gt;Node14 -->
<g id="edge18" class="edge">
<title>Node18&#45;&gt;Node14</title>
<path fill="none" stroke="midnightblue" d="M708.22,-54.27C722.49,-56.17 738.23,-58.26 752.75,-60.19"/>
<polygon fill="midnightblue" stroke="midnightblue" points="752.69,-63.71 763.07,-61.56 753.62,-56.77 752.69,-63.71"/>
</g>
<!-- Node19&#45;&gt;Node7 -->
<g id="edge24" class="edge">
<title>Node19&#45;&gt;Node7</title>
<path fill="none" stroke="midnightblue" d="M351.69,-285.51C363.34,-288.49 376.21,-291.83 388,-295 468.69,-316.67 562.48,-343.3 615.88,-358.59"/>
<polygon fill="midnightblue" stroke="midnightblue" points="615.11,-362.01 625.69,-361.4 617.04,-355.28 615.11,-362.01"/>
</g>
<!-- Node20 -->
<g id="node20" class="node">
<title>Node20</title>
<g id="a_node20"><a xlink:href="PoKeysLibAsync_8c.html#a8ed8b17dbfd4e5cfba35c6b1e2ea6956" target="_top" xlink:title="Prepares an asynchronous request (non&#45;sending).">
<polygon fill="white" stroke="black" points="436,-152.5 436,-171.5 554,-171.5 554,-152.5 436,-152.5"/>
<text text-anchor="middle" x="495" y="-159.5" font-family="Helvetica,sans-Serif" font-size="10.00">CreateRequestAsync</text>
</a>
</g>
</g>
<!-- Node19&#45;&gt;Node20 -->
<g id="edge20" class="edge">
<title>Node19&#45;&gt;Node20</title>
<path fill="none" stroke="midnightblue" d="M334.54,-266.46C349.64,-259.21 370.5,-248.69 388,-238 419.11,-219 453.02,-193.84 473.9,-177.78"/>
<polygon fill="midnightblue" stroke="midnightblue" points="476.24,-180.39 482,-171.5 471.95,-174.86 476.24,-180.39"/>
</g>
<!-- Node23 -->
<g id="node23" class="node">
<title>Node23</title>
<g id="a_node23"><a xlink:href="PoKeysLibRTCAsync_8c.html#a813f467d47294d4c3abd9282a20743c4" target="_top" xlink:title="Processes the RTC response and fills HAL&#45;safe structure.">
<polygon fill="white" stroke="black" points="424,-266.5 424,-285.5 566,-285.5 566,-266.5 424,-266.5"/>
<text text-anchor="middle" x="495" y="-273.5" font-family="Helvetica,sans-Serif" font-size="10.00">PK_RTCGetAsync_Process</text>
</a>
</g>
</g>
<!-- Node19&#45;&gt;Node23 -->
<g id="edge23" class="edge">
<title>Node19&#45;&gt;Node23</title>
<path fill="none" stroke="midnightblue" d="M362.71,-276C378.46,-276 396.37,-276 413.79,-276"/>
<polygon fill="midnightblue" stroke="midnightblue" points="413.96,-279.5 423.96,-276 413.96,-272.5 413.96,-279.5"/>
</g>
<!-- Node24 -->
<g id="node24" class="node">
<title>Node24</title>
<g id="a_node24"><a xlink:href="PoKeysLibAsync_8c.html#a77fe6d8f453b9f120276324e0b2ad076" target="_top" xlink:title="Sends an asynchronous request that was prepared earlier.">
<polygon fill="white" stroke="black" points="440,-228.5 440,-247.5 550,-247.5 550,-228.5 440,-228.5"/>
<text text-anchor="middle" x="495" y="-235.5" font-family="Helvetica,sans-Serif" font-size="10.00">SendRequestAsync</text>
</a>
</g>
</g>
<!-- Node19&#45;&gt;Node24 -->
<g id="edge25" class="edge">
<title>Node19&#45;&gt;Node24</title>
<path fill="none" stroke="midnightblue" d="M359.42,-266.41C383.6,-261.31 413.53,-254.99 439.01,-249.61"/>
<polygon fill="midnightblue" stroke="midnightblue" points="439.84,-253.01 448.91,-247.52 438.4,-246.16 439.84,-253.01"/>
</g>
<!-- Node21 -->
<g id="node21" class="node">
<title>Node21</title>
<g id="a_node21"><a xlink:href="PoKeysLibAsync_8c.html#a8e57ea5df5b229f5a1317bf4e4918c1b" target="_top" xlink:title=" ">
<polygon fill="white" stroke="black" points="612.5,-190.5 612.5,-209.5 707.5,-209.5 707.5,-190.5 612.5,-190.5"/>
<text text-anchor="middle" x="660" y="-197.5" font-family="Helvetica,sans-Serif" font-size="10.00">next_request_id</text>
</a>
</g>
</g>
<!-- Node20&#45;&gt;Node21 -->
<g id="edge21" class="edge">
<title>Node20&#45;&gt;Node21</title>
<path fill="none" stroke="midnightblue" d="M537.13,-171.59C558.74,-176.63 585.41,-182.84 608.29,-188.18"/>
<polygon fill="midnightblue" stroke="midnightblue" points="607.63,-191.62 618.16,-190.48 609.22,-184.8 607.63,-191.62"/>
</g>
<!-- Node22 -->
<g id="node22" class="node">
<title>Node22</title>
<g id="a_node22"><a xlink:href="PoKeysLibAsync_8c.html#a0daf7f6eb658a60879d46369307db3f0" target="_top" xlink:title="Allocates a new free transaction.">
<polygon fill="white" stroke="black" points="610,-152.5 610,-171.5 710,-171.5 710,-152.5 610,-152.5"/>
<text text-anchor="middle" x="660" y="-159.5" font-family="Helvetica,sans-Serif" font-size="10.00">transaction_alloc</text>
</a>
</g>
</g>
<!-- Node20&#45;&gt;Node22 -->
<g id="edge22" class="edge">
<title>Node20&#45;&gt;Node22</title>
<path fill="none" stroke="midnightblue" d="M554.39,-162C569.16,-162 585.03,-162 599.84,-162"/>
<polygon fill="midnightblue" stroke="midnightblue" points="599.89,-165.5 609.89,-162 599.89,-158.5 599.89,-165.5"/>
</g>
<!-- Node24&#45;&gt;Node7 -->
<g id="edge28" class="edge">
<title>Node24&#45;&gt;Node7</title>
<path fill="none" stroke="midnightblue" d="M548.48,-247.55C554.72,-250.02 560.73,-253.11 566,-257 590.1,-274.8 583.29,-290.6 602,-314 613.64,-328.57 628.61,-343.41 640.28,-354.3"/>
<polygon fill="midnightblue" stroke="midnightblue" points="638.02,-356.97 647.76,-361.15 642.75,-351.81 638.02,-356.97"/>
</g>
<!-- Node24&#45;&gt;Node10 -->
<g id="edge29" class="edge">
<title>Node24&#45;&gt;Node10</title>
<path fill="none" stroke="midnightblue" d="M550.28,-238C566.92,-238 585.27,-238 602.09,-238"/>
<polygon fill="midnightblue" stroke="midnightblue" points="602.33,-241.5 612.33,-238 602.33,-234.5 602.33,-241.5"/>
</g>
<!-- Node25 -->
<g id="node25" class="node">
<title>Node25</title>
<g id="a_node25"><a xlink:href="PoKeysLibAsync_8c.html#a2d192ebf6b1b209c93b2158460c24aa2" target="_top" xlink:title=" ">
<polygon fill="white" stroke="black" points="602,-285.5 602,-304.5 718,-304.5 718,-285.5 602,-285.5"/>
<text text-anchor="middle" x="660" y="-292.5" font-family="Helvetica,sans-Serif" font-size="10.00">get_current_time_us</text>
</a>
</g>
</g>
<!-- Node24&#45;&gt;Node25 -->
<g id="edge26" class="edge">
<title>Node24&#45;&gt;Node25</title>
<path fill="none" stroke="midnightblue" d="M534.4,-247.51C544.74,-250.32 555.86,-253.57 566,-257 587.19,-264.17 610.49,-273.7 628.46,-281.41"/>
<polygon fill="midnightblue" stroke="midnightblue" points="627.29,-284.72 637.86,-285.49 630.08,-278.3 627.29,-284.72"/>
</g>
<!-- Node26 -->
<g id="node26" class="node">
<title>Node26</title>
<g id="a_node26"><a xlink:href="rtapi_8h.html#a935411bb5eff04e82620819db6645685" target="_top" xlink:title=" ">
<polygon fill="white" stroke="black" points="761,-285.5 761,-304.5 849,-304.5 849,-285.5 761,-285.5"/>
<text text-anchor="middle" x="805" y="-292.5" font-family="Helvetica,sans-Serif" font-size="10.00">rtapi_get_time</text>
</a>
</g>
</g>
<!-- Node25&#45;&gt;Node26 -->
<g id="edge27" class="edge">
<title>Node25&#45;&gt;Node26</title>
<path fill="none" stroke="midnightblue" d="M718.34,-295C728.95,-295 739.99,-295 750.47,-295"/>
<polygon fill="midnightblue" stroke="midnightblue" points="750.74,-298.5 760.74,-295 750.74,-291.5 750.74,-298.5"/>
</g>
<!-- Node27&#45;&gt;Node25 -->
<g id="edge31" class="edge">
<title>Node27&#45;&gt;Node25</title>
<path fill="none" stroke="midnightblue" d="M388.01,-309.92C448.43,-306.6 533.1,-301.93 591.65,-298.71"/>
<polygon fill="midnightblue" stroke="midnightblue" points="592.11,-302.19 601.9,-298.14 591.72,-295.2 592.11,-302.19"/>
</g>
</g>
</svg>
