<?xml version="1.0" encoding="UTF-8" standalone="no"?>
<!DOCTYPE svg PUBLIC "-//W3C//DTD SVG 1.1//EN"
 "http://www.w3.org/Graphics/SVG/1.1/DTD/svg11.dtd">
<!-- Generated by graphviz version 2.43.0 (0)
 -->
<!-- Title: /usr/include/linuxcnc/rtapi_mutex.h Pages: 1 -->
<svg width="164pt" height="151pt"
 viewBox="0.00 0.00 163.50 151.00" xmlns="http://www.w3.org/2000/svg" xmlns:xlink="http://www.w3.org/1999/xlink">
<g id="graph0" class="graph" transform="scale(1 1) rotate(0) translate(4 147)">
<title>/usr/include/linuxcnc/rtapi_mutex.h</title>
<polygon fill="white" stroke="transparent" points="-4,4 -4,-147 159.5,-147 159.5,4 -4,4"/>
<!-- Node1 -->
<g id="node1" class="node">
<title>Node1</title>
<g id="a_node1"><a xlink:title=" ">
<polygon fill="#bfbfbf" stroke="black" points="12,-112.5 12,-142.5 128,-142.5 128,-112.5 12,-112.5"/>
<text text-anchor="start" x="20" y="-130.5" font-family="Helvetica,sans-Serif" font-size="10.00">/usr/include/linuxcnc</text>
<text text-anchor="middle" x="70" y="-119.5" font-family="Helvetica,sans-Serif" font-size="10.00">/rtapi_mutex.h</text>
</a>
</g>
</g>
<!-- Node2 -->
<g id="node2" class="node">
<title>Node2</title>
<g id="a_node2"><a xlink:title=" ">
<polygon fill="white" stroke="#bfbfbf" points="0,-56.5 0,-75.5 54,-75.5 54,-56.5 0,-56.5"/>
<text text-anchor="middle" x="27" y="-63.5" font-family="Helvetica,sans-Serif" font-size="10.00">sched.h</text>
</a>
</g>
</g>
<!-- Node1&#45;&gt;Node2 -->
<g id="edge1" class="edge">
<title>Node1&#45;&gt;Node2</title>
<path fill="none" stroke="midnightblue" d="M59.81,-112.4C53.63,-103.84 45.7,-92.87 39.18,-83.86"/>
<polygon fill="midnightblue" stroke="midnightblue" points="41.95,-81.71 33.26,-75.66 36.28,-85.81 41.95,-81.71"/>
</g>
<!-- Node3 -->
<g id="node3" class="node">
<title>Node3</title>
<g id="a_node3"><a xlink:href="rtapi__bitops_8h.html" target="_top" xlink:title=" ">
<polygon fill="white" stroke="black" points="72.5,-56.5 72.5,-75.5 155.5,-75.5 155.5,-56.5 72.5,-56.5"/>
<text text-anchor="middle" x="114" y="-63.5" font-family="Helvetica,sans-Serif" font-size="10.00">rtapi_bitops.h</text>
</a>
</g>
</g>
<!-- Node1&#45;&gt;Node3 -->
<g id="edge2" class="edge">
<title>Node1&#45;&gt;Node3</title>
<path fill="none" stroke="midnightblue" d="M80.43,-112.4C86.76,-103.84 94.87,-92.87 101.53,-83.86"/>
<polygon fill="midnightblue" stroke="midnightblue" points="104.47,-85.78 107.6,-75.66 98.84,-81.62 104.47,-85.78"/>
</g>
<!-- Node4 -->
<g id="node4" class="node">
<title>Node4</title>
<g id="a_node4"><a xlink:title=" ">
<polygon fill="white" stroke="#bfbfbf" points="87.5,-0.5 87.5,-19.5 140.5,-19.5 140.5,-0.5 87.5,-0.5"/>
<text text-anchor="middle" x="114" y="-7.5" font-family="Helvetica,sans-Serif" font-size="10.00">limits.h</text>
</a>
</g>
</g>
<!-- Node3&#45;&gt;Node4 -->
<g id="edge3" class="edge">
<title>Node3&#45;&gt;Node4</title>
<path fill="none" stroke="midnightblue" d="M114,-56.08C114,-49.01 114,-38.86 114,-29.99"/>
<polygon fill="midnightblue" stroke="midnightblue" points="117.5,-29.75 114,-19.75 110.5,-29.75 117.5,-29.75"/>
</g>
</g>
</svg>
