<?xml version="1.0" encoding="UTF-8" standalone="no"?>
<!DOCTYPE svg PUBLIC "-//W3C//DTD SVG 1.1//EN"
 "http://www.w3.org/Graphics/SVG/1.1/DTD/svg11.dtd">
<!-- Generated by graphviz version 2.43.0 (0)
 -->
<!-- Title: /usr/include/linuxcnc/rtapi_list.h Pages: 1 -->
<svg width="214pt" height="151pt"
 viewBox="0.00 0.00 213.50 151.00" xmlns="http://www.w3.org/2000/svg" xmlns:xlink="http://www.w3.org/1999/xlink">
<g id="graph0" class="graph" transform="scale(1 1) rotate(0) translate(4 147)">
<title>/usr/include/linuxcnc/rtapi_list.h</title>
<polygon fill="white" stroke="transparent" points="-4,4 -4,-147 209.5,-147 209.5,4 -4,4"/>
<!-- Node1 -->
<g id="node1" class="node">
<title>Node1</title>
<g id="a_node1"><a xlink:title=" ">
<polygon fill="#bfbfbf" stroke="black" points="44,-112.5 44,-142.5 160,-142.5 160,-112.5 44,-112.5"/>
<text text-anchor="start" x="52" y="-130.5" font-family="Helvetica,sans-Serif" font-size="10.00">/usr/include/linuxcnc</text>
<text text-anchor="middle" x="102" y="-119.5" font-family="Helvetica,sans-Serif" font-size="10.00">/rtapi_list.h</text>
</a>
</g>
</g>
<!-- Node2 -->
<g id="node2" class="node">
<title>Node2</title>
<g id="a_node2"><a xlink:href="rtapi_8h.html" target="_top" xlink:title=" ">
<polygon fill="white" stroke="black" points="78,-56.5 78,-75.5 126,-75.5 126,-56.5 78,-56.5"/>
<text text-anchor="middle" x="102" y="-63.5" font-family="Helvetica,sans-Serif" font-size="10.00">rtapi.h</text>
</a>
</g>
</g>
<!-- Node1&#45;&gt;Node2 -->
<g id="edge1" class="edge">
<title>Node1&#45;&gt;Node2</title>
<path fill="none" stroke="midnightblue" d="M102,-112.4C102,-104.47 102,-94.46 102,-85.86"/>
<polygon fill="midnightblue" stroke="midnightblue" points="105.5,-85.66 102,-75.66 98.5,-85.66 105.5,-85.66"/>
</g>
<!-- Node3 -->
<g id="node3" class="node">
<title>Node3</title>
<g id="a_node3"><a xlink:title=" ">
<polygon fill="white" stroke="#bfbfbf" points="0,-0.5 0,-19.5 56,-19.5 56,-0.5 0,-0.5"/>
<text text-anchor="middle" x="28" y="-7.5" font-family="Helvetica,sans-Serif" font-size="10.00">stddef.h</text>
</a>
</g>
</g>
<!-- Node2&#45;&gt;Node3 -->
<g id="edge2" class="edge">
<title>Node2&#45;&gt;Node3</title>
<path fill="none" stroke="midnightblue" d="M90.11,-56.32C78.85,-48.11 61.71,-35.6 48.29,-25.81"/>
<polygon fill="midnightblue" stroke="midnightblue" points="50.25,-22.9 40.11,-19.83 46.12,-28.56 50.25,-22.9"/>
</g>
<!-- Node4 -->
<g id="node4" class="node">
<title>Node4</title>
<g id="a_node4"><a xlink:title=" ">
<polygon fill="white" stroke="#bfbfbf" points="74,-0.5 74,-19.5 130,-19.5 130,-0.5 74,-0.5"/>
<text text-anchor="middle" x="102" y="-7.5" font-family="Helvetica,sans-Serif" font-size="10.00">stdarg.h</text>
</a>
</g>
</g>
<!-- Node2&#45;&gt;Node4 -->
<g id="edge3" class="edge">
<title>Node2&#45;&gt;Node4</title>
<path fill="none" stroke="midnightblue" d="M102,-56.08C102,-49.01 102,-38.86 102,-29.99"/>
<polygon fill="midnightblue" stroke="midnightblue" points="105.5,-29.75 102,-19.75 98.5,-29.75 105.5,-29.75"/>
</g>
<!-- Node5 -->
<g id="node5" class="node">
<title>Node5</title>
<g id="a_node5"><a xlink:title=" ">
<polygon fill="white" stroke="#bfbfbf" points="148.5,-0.5 148.5,-19.5 205.5,-19.5 205.5,-0.5 148.5,-0.5"/>
<text text-anchor="middle" x="177" y="-7.5" font-family="Helvetica,sans-Serif" font-size="10.00">spawn.h</text>
</a>
</g>
</g>
<!-- Node2&#45;&gt;Node5 -->
<g id="edge4" class="edge">
<title>Node2&#45;&gt;Node5</title>
<path fill="none" stroke="midnightblue" d="M114.05,-56.32C125.46,-48.11 142.83,-35.6 156.43,-25.81"/>
<polygon fill="midnightblue" stroke="midnightblue" points="158.66,-28.52 164.73,-19.83 154.57,-22.84 158.66,-28.52"/>
</g>
</g>
</svg>
