<?xml version="1.0" encoding="UTF-8" standalone="no"?>
<!DOCTYPE svg PUBLIC "-//W3C//DTD SVG 1.1//EN"
 "http://www.w3.org/Graphics/SVG/1.1/DTD/svg11.dtd">
<!-- Generated by graphviz version 2.43.0 (0)
 -->
<!-- Title: /usr/include/linuxcnc/rtapi_stdint.h Pages: 1 -->
<!--zoomable 284 -->
<svg id="main" version="1.1" xmlns="http://www.w3.org/2000/svg" xmlns:xlink="http://www.w3.org/1999/xlink" xml:space="preserve" onload="init(evt)">
<style type="text/css"><![CDATA[
.edge:hover path { stroke: red; }
.edge:hover polygon { stroke: red; fill: red; }
]]></style>
<script type="text/javascript"><![CDATA[
var edges = document.getElementsByTagName('g');
if (edges && edges.length) {
  for (var i=0;i<edges.length;i++) {
    if (edges[i].id.substr(0,4)=='edge') {
      edges[i].setAttribute('class','edge');
    }
  }
}
]]></script>
        <defs>
                <circle id="rim" cx="0" cy="0" r="7"/>
                <circle id="rim2" cx="0" cy="0" r="3.5"/>
                <g id="zoomPlus">
                        <use xlink:href="#rim" fill="#404040">
                                <set attributeName="fill" to="#808080" begin="zoomplus.mouseover" end="zoomplus.mouseout"/>
                        </use>
                        <path d="M-4,0h8M0,-4v8" fill="none" stroke="white" stroke-width="1.5" pointer-events="none"/>
                </g>
                <g id="zoomMin">
                        <use xlink:href="#rim" fill="#404040">
                                <set attributeName="fill" to="#808080" begin="zoomminus.mouseover" end="zoomminus.mouseout"/>
                        </use>
                        <path d="M-4,0h8" fill="none" stroke="white" stroke-width="1.5" pointer-events="none"/>
                </g>
                <g id="dirArrow">
                        <path fill="none" stroke="white" stroke-width="1.5" d="M0,-3.0v7 M-2.5,-0.5L0,-3.0L2.5,-0.5"/>
                </g>
               <g id="resetDef">
                       <use xlink:href="#rim2" fill="#404040">
                               <set attributeName="fill" to="#808080" begin="reset.mouseover" end="reset.mouseout"/>
                       </use>
               </g>
        </defs>

<script type="text/javascript">
var viewWidth = 1674;
var viewHeight = 284;
var sectionId = 'dynsection-1';
</script>
<script xlink:href="svgpan.js"/>
<svg id="graph" class="graph">
<g id="viewport">
<title>/usr/include/linuxcnc/rtapi_stdint.h</title>
<polygon fill="white" stroke="transparent" points="-4,4 -4,-280 1670,-280 1670,4 -4,4"/>
<!-- Node1 -->
<g id="node1" class="node">
<title>Node1</title>
<g id="a_node1"><a xlink:title=" ">
<polygon fill="#bfbfbf" stroke="black" points="1349,-245.5 1349,-275.5 1465,-275.5 1465,-245.5 1349,-245.5"/>
<text text-anchor="start" x="1357" y="-263.5" font-family="Helvetica,sans-Serif" font-size="10.00">/usr/include/linuxcnc</text>
<text text-anchor="middle" x="1407" y="-252.5" font-family="Helvetica,sans-Serif" font-size="10.00">/rtapi_stdint.h</text>
</a>
</g>
</g>
<!-- Node2 -->
<g id="node2" class="node">
<title>Node2</title>
<g id="a_node2"><a xlink:href="hal_8h.html" target="_top" xlink:title=" ">
<polygon fill="white" stroke="black" points="846,-178.5 846,-208.5 962,-208.5 962,-178.5 846,-178.5"/>
<text text-anchor="start" x="854" y="-196.5" font-family="Helvetica,sans-Serif" font-size="10.00">/usr/include/linuxcnc</text>
<text text-anchor="middle" x="904" y="-185.5" font-family="Helvetica,sans-Serif" font-size="10.00">/hal.h</text>
</a>
</g>
</g>
<!-- Node1&#45;&gt;Node2 -->
<g id="edge1" class="edge">
<title>Node1&#45;&gt;Node2</title>
<path fill="none" stroke="midnightblue" d="M1338.85,-250.69C1239.24,-237.82 1055.6,-214.09 962.06,-202"/>
<polygon fill="midnightblue" stroke="midnightblue" points="1338.44,-254.17 1348.81,-251.98 1339.34,-247.23 1338.44,-254.17"/>
</g>
<!-- Node13 -->
<g id="node13" class="node">
<title>Node13</title>
<g id="a_node13"><a xlink:href="rtapi__firmware_8h.html" target="_top" xlink:title=" ">
<polygon fill="white" stroke="black" points="1282,-178.5 1282,-208.5 1398,-208.5 1398,-178.5 1282,-178.5"/>
<text text-anchor="start" x="1290" y="-196.5" font-family="Helvetica,sans-Serif" font-size="10.00">/usr/include/linuxcnc</text>
<text text-anchor="middle" x="1340" y="-185.5" font-family="Helvetica,sans-Serif" font-size="10.00">/rtapi_firmware.h</text>
</a>
</g>
</g>
<!-- Node1&#45;&gt;Node13 -->
<g id="edge16" class="edge">
<title>Node1&#45;&gt;Node13</title>
<path fill="none" stroke="midnightblue" d="M1385.16,-238.31C1375.11,-228.56 1363.46,-217.26 1354.51,-208.58"/>
<polygon fill="midnightblue" stroke="midnightblue" points="1382.85,-240.94 1392.46,-245.4 1387.72,-235.92 1382.85,-240.94"/>
</g>
<!-- Node14 -->
<g id="node14" class="node">
<title>Node14</title>
<g id="a_node14"><a xlink:href="rtapi__math64_8h.html" target="_top" xlink:title=" ">
<polygon fill="white" stroke="black" points="1416,-178.5 1416,-208.5 1532,-208.5 1532,-178.5 1416,-178.5"/>
<text text-anchor="start" x="1424" y="-196.5" font-family="Helvetica,sans-Serif" font-size="10.00">/usr/include/linuxcnc</text>
<text text-anchor="middle" x="1474" y="-185.5" font-family="Helvetica,sans-Serif" font-size="10.00">/rtapi_math64.h</text>
</a>
</g>
</g>
<!-- Node1&#45;&gt;Node14 -->
<g id="edge17" class="edge">
<title>Node1&#45;&gt;Node14</title>
<path fill="none" stroke="midnightblue" d="M1428.84,-238.31C1438.89,-228.56 1450.54,-217.26 1459.49,-208.58"/>
<polygon fill="midnightblue" stroke="midnightblue" points="1426.28,-235.92 1421.54,-245.4 1431.15,-240.94 1426.28,-235.92"/>
</g>
<!-- Node15 -->
<g id="node15" class="node">
<title>Node15</title>
<g id="a_node15"><a xlink:href="rtapi__pci_8h.html" target="_top" xlink:title=" ">
<polygon fill="white" stroke="black" points="1550,-178.5 1550,-208.5 1666,-208.5 1666,-178.5 1550,-178.5"/>
<text text-anchor="start" x="1558" y="-196.5" font-family="Helvetica,sans-Serif" font-size="10.00">/usr/include/linuxcnc</text>
<text text-anchor="middle" x="1608" y="-185.5" font-family="Helvetica,sans-Serif" font-size="10.00">/rtapi_pci.h</text>
</a>
</g>
</g>
<!-- Node1&#45;&gt;Node15 -->
<g id="edge20" class="edge">
<title>Node1&#45;&gt;Node15</title>
<path fill="none" stroke="midnightblue" d="M1460.41,-242.23C1492.93,-231.71 1533.94,-218.45 1564.47,-208.58"/>
<polygon fill="midnightblue" stroke="midnightblue" points="1459.05,-238.99 1450.61,-245.4 1461.21,-245.65 1459.05,-238.99"/>
</g>
<!-- Node3 -->
<g id="node3" class="node">
<title>Node3</title>
<g id="a_node3"><a xlink:href="pokeys__homecomp_8c.html" target="_top" xlink:title="HAL component for managing homing sequence and state logic using PoKeys PulseEngine v2.">
<polygon fill="white" stroke="black" points="1382,-89.5 1382,-141.5 1566,-141.5 1566,-89.5 1382,-89.5"/>
<text text-anchor="start" x="1390" y="-129.5" font-family="Helvetica,sans-Serif" font-size="10.00">/home/cnc/actions&#45;runner</text>
<text text-anchor="start" x="1390" y="-118.5" font-family="Helvetica,sans-Serif" font-size="10.00">/_work/LinuxCnc_PokeysLibComp</text>
<text text-anchor="start" x="1390" y="-107.5" font-family="Helvetica,sans-Serif" font-size="10.00">/LinuxCnc_PokeysLibComp/pokeys</text>
<text text-anchor="middle" x="1474" y="-96.5" font-family="Helvetica,sans-Serif" font-size="10.00">_rt/pokeys_homecomp.c</text>
</a>
</g>
</g>
<!-- Node2&#45;&gt;Node3 -->
<g id="edge2" class="edge">
<title>Node2&#45;&gt;Node3</title>
<path fill="none" stroke="midnightblue" d="M972.11,-188.17C1063.76,-181.66 1231.59,-167.34 1373,-142 1375.94,-141.47 1378.92,-140.91 1381.92,-140.31"/>
<polygon fill="midnightblue" stroke="midnightblue" points="971.86,-184.68 962.13,-188.87 972.35,-191.66 971.86,-184.68"/>
</g>
<!-- Node4 -->
<g id="node4" class="node">
<title>Node4</title>
<g id="a_node4"><a xlink:href="PoKeysCompEncoders_8c.html" target="_top" xlink:title=" ">
<polygon fill="white" stroke="black" points="0,-89.5 0,-141.5 184,-141.5 184,-89.5 0,-89.5"/>
<text text-anchor="start" x="8" y="-129.5" font-family="Helvetica,sans-Serif" font-size="10.00">/home/cnc/actions&#45;runner</text>
<text text-anchor="start" x="8" y="-118.5" font-family="Helvetica,sans-Serif" font-size="10.00">/_work/LinuxCnc_PokeysLibComp</text>
<text text-anchor="start" x="8" y="-107.5" font-family="Helvetica,sans-Serif" font-size="10.00">/LinuxCnc_PokeysLibComp/pokeys</text>
<text text-anchor="middle" x="92" y="-96.5" font-family="Helvetica,sans-Serif" font-size="10.00">_uspace/PoKeysCompEncoders.c</text>
</a>
</g>
</g>
<!-- Node2&#45;&gt;Node4 -->
<g id="edge3" class="edge">
<title>Node2&#45;&gt;Node4</title>
<path fill="none" stroke="midnightblue" d="M835.68,-191.34C709.15,-188.38 430.09,-177.97 198,-142 193.42,-141.29 188.74,-140.48 184.03,-139.6"/>
<polygon fill="midnightblue" stroke="midnightblue" points="835.91,-194.85 845.98,-191.58 836.07,-187.85 835.91,-194.85"/>
</g>
<!-- Node5 -->
<g id="node5" class="node">
<title>Node5</title>
<g id="a_node5"><a xlink:href="pokeys_8c.html" target="_top" xlink:title="HAL component for integrating PoKeys57 devices with LinuxCNC.">
<polygon fill="white" stroke="black" points="341,-0.5 341,-52.5 525,-52.5 525,-0.5 341,-0.5"/>
<text text-anchor="start" x="349" y="-40.5" font-family="Helvetica,sans-Serif" font-size="10.00">/home/cnc/actions&#45;runner</text>
<text text-anchor="start" x="349" y="-29.5" font-family="Helvetica,sans-Serif" font-size="10.00">/_work/LinuxCnc_PokeysLibComp</text>
<text text-anchor="start" x="349" y="-18.5" font-family="Helvetica,sans-Serif" font-size="10.00">/LinuxCnc_PokeysLibComp/pokeys</text>
<text text-anchor="middle" x="433" y="-7.5" font-family="Helvetica,sans-Serif" font-size="10.00">_uspace/pokeys.c</text>
</a>
</g>
</g>
<!-- Node2&#45;&gt;Node5 -->
<g id="edge11" class="edge">
<title>Node2&#45;&gt;Node5</title>
<path fill="none" stroke="midnightblue" d="M835.59,-192.51C672.54,-191.83 271.52,-185.68 231,-142 214.98,-124.73 216.98,-107.93 231,-89 244.8,-70.37 294.29,-55.13 340.82,-44.49"/>
<polygon fill="midnightblue" stroke="midnightblue" points="835.97,-196.01 845.98,-192.55 835.99,-189.01 835.97,-196.01"/>
</g>
<!-- Node6 -->
<g id="node6" class="node">
<title>Node6</title>
<g id="a_node6"><a xlink:href="PoKeysCompIO_8c.html" target="_top" xlink:title="HAL interface for PoKeys digital and analog I/O handling.">
<polygon fill="white" stroke="black" points="240,-89.5 240,-141.5 424,-141.5 424,-89.5 240,-89.5"/>
<text text-anchor="start" x="248" y="-129.5" font-family="Helvetica,sans-Serif" font-size="10.00">/home/cnc/actions&#45;runner</text>
<text text-anchor="start" x="248" y="-118.5" font-family="Helvetica,sans-Serif" font-size="10.00">/_work/LinuxCnc_PokeysLibComp</text>
<text text-anchor="start" x="248" y="-107.5" font-family="Helvetica,sans-Serif" font-size="10.00">/LinuxCnc_PokeysLibComp/pokeys</text>
<text text-anchor="middle" x="332" y="-96.5" font-family="Helvetica,sans-Serif" font-size="10.00">_uspace/PoKeysCompIO.c</text>
</a>
</g>
</g>
<!-- Node2&#45;&gt;Node6 -->
<g id="edge5" class="edge">
<title>Node2&#45;&gt;Node6</title>
<path fill="none" stroke="midnightblue" d="M835.98,-188.22C744.03,-181.75 575.21,-167.45 433,-142 430.06,-141.47 427.08,-140.91 424.08,-140.32"/>
<polygon fill="midnightblue" stroke="midnightblue" points="835.77,-191.71 845.99,-188.91 836.25,-184.73 835.77,-191.71"/>
</g>
<!-- Node7 -->
<g id="node7" class="node">
<title>Node7</title>
<g id="a_node7"><a xlink:href="PoKeysCompPoExtBus_8c.html" target="_top" xlink:title=" ">
<polygon fill="white" stroke="black" points="442,-89.5 442,-141.5 626,-141.5 626,-89.5 442,-89.5"/>
<text text-anchor="start" x="450" y="-129.5" font-family="Helvetica,sans-Serif" font-size="10.00">/home/cnc/actions&#45;runner</text>
<text text-anchor="start" x="450" y="-118.5" font-family="Helvetica,sans-Serif" font-size="10.00">/_work/LinuxCnc_PokeysLibComp</text>
<text text-anchor="start" x="450" y="-107.5" font-family="Helvetica,sans-Serif" font-size="10.00">/LinuxCnc_PokeysLibComp/pokeys</text>
<text text-anchor="middle" x="534" y="-96.5" font-family="Helvetica,sans-Serif" font-size="10.00">_uspace/PoKeysCompPoExtBus.c</text>
</a>
</g>
</g>
<!-- Node2&#45;&gt;Node7 -->
<g id="edge7" class="edge">
<title>Node2&#45;&gt;Node7</title>
<path fill="none" stroke="midnightblue" d="M835.91,-180.92C781.39,-171.35 703.05,-156.96 635,-142 632.09,-141.36 629.13,-140.7 626.14,-140.01"/>
<polygon fill="midnightblue" stroke="midnightblue" points="835.35,-184.37 845.81,-182.64 836.56,-177.48 835.35,-184.37"/>
</g>
<!-- Node8 -->
<g id="node8" class="node">
<title>Node8</title>
<g id="a_node8"><a xlink:href="PoKeysCompPoNet_8c.html" target="_top" xlink:title=" ">
<polygon fill="white" stroke="black" points="644,-89.5 644,-141.5 828,-141.5 828,-89.5 644,-89.5"/>
<text text-anchor="start" x="652" y="-129.5" font-family="Helvetica,sans-Serif" font-size="10.00">/home/cnc/actions&#45;runner</text>
<text text-anchor="start" x="652" y="-118.5" font-family="Helvetica,sans-Serif" font-size="10.00">/_work/LinuxCnc_PokeysLibComp</text>
<text text-anchor="start" x="652" y="-107.5" font-family="Helvetica,sans-Serif" font-size="10.00">/LinuxCnc_PokeysLibComp/pokeys</text>
<text text-anchor="middle" x="736" y="-96.5" font-family="Helvetica,sans-Serif" font-size="10.00">_uspace/PoKeysCompPoNet.c</text>
</a>
</g>
</g>
<!-- Node2&#45;&gt;Node8 -->
<g id="edge9" class="edge">
<title>Node2&#45;&gt;Node8</title>
<path fill="none" stroke="midnightblue" d="M863.58,-174.22C841.98,-164.44 815.06,-152.26 791.52,-141.62"/>
<polygon fill="midnightblue" stroke="midnightblue" points="862.24,-177.45 872.79,-178.38 865.13,-171.07 862.24,-177.45"/>
</g>
<!-- Node9 -->
<g id="node9" class="node">
<title>Node9</title>
<g id="a_node9"><a xlink:href="axis_8h.html" target="_top" xlink:title=" ">
<polygon fill="white" stroke="black" points="846,-100.5 846,-130.5 962,-130.5 962,-100.5 846,-100.5"/>
<text text-anchor="start" x="854" y="-118.5" font-family="Helvetica,sans-Serif" font-size="10.00">/usr/include/linuxcnc</text>
<text text-anchor="middle" x="904" y="-107.5" font-family="Helvetica,sans-Serif" font-size="10.00">/axis.h</text>
</a>
</g>
</g>
<!-- Node2&#45;&gt;Node9 -->
<g id="edge12" class="edge">
<title>Node2&#45;&gt;Node9</title>
<path fill="none" stroke="midnightblue" d="M904,-168.09C904,-155.76 904,-141.22 904,-130.73"/>
<polygon fill="midnightblue" stroke="midnightblue" points="900.5,-168.2 904,-178.2 907.5,-168.21 900.5,-168.2"/>
</g>
<!-- Node10 -->
<g id="node10" class="node">
<title>Node10</title>
<g id="a_node10"><a xlink:href="genhexkins_8h.html" target="_top" xlink:title=" ">
<polygon fill="white" stroke="black" points="980,-100.5 980,-130.5 1096,-130.5 1096,-100.5 980,-100.5"/>
<text text-anchor="start" x="988" y="-118.5" font-family="Helvetica,sans-Serif" font-size="10.00">/usr/include/linuxcnc</text>
<text text-anchor="middle" x="1038" y="-107.5" font-family="Helvetica,sans-Serif" font-size="10.00">/genhexkins.h</text>
</a>
</g>
</g>
<!-- Node2&#45;&gt;Node10 -->
<g id="edge13" class="edge">
<title>Node2&#45;&gt;Node10</title>
<path fill="none" stroke="midnightblue" d="M937.81,-173.32C961.29,-160.01 992.03,-142.57 1013.24,-130.54"/>
<polygon fill="midnightblue" stroke="midnightblue" points="935.86,-170.41 928.89,-178.38 939.32,-176.49 935.86,-170.41"/>
</g>
<!-- Node11 -->
<g id="node11" class="node">
<title>Node11</title>
<g id="a_node11"><a xlink:href="genserkins_8h.html" target="_top" xlink:title=" ">
<polygon fill="white" stroke="black" points="1114,-100.5 1114,-130.5 1230,-130.5 1230,-100.5 1114,-100.5"/>
<text text-anchor="start" x="1122" y="-118.5" font-family="Helvetica,sans-Serif" font-size="10.00">/usr/include/linuxcnc</text>
<text text-anchor="middle" x="1172" y="-107.5" font-family="Helvetica,sans-Serif" font-size="10.00">/genserkins.h</text>
</a>
</g>
</g>
<!-- Node2&#45;&gt;Node11 -->
<g id="edge14" class="edge">
<title>Node2&#45;&gt;Node11</title>
<path fill="none" stroke="midnightblue" d="M972.1,-177.49C1011.28,-168.33 1061.27,-155.76 1105,-142 1115.68,-138.64 1127.14,-134.49 1137.5,-130.52"/>
<polygon fill="midnightblue" stroke="midnightblue" points="971.07,-174.14 962.12,-179.8 972.65,-180.96 971.07,-174.14"/>
</g>
<!-- Node12 -->
<g id="node12" class="node">
<title>Node12</title>
<g id="a_node12"><a xlink:href="inihal_8hh.html" target="_top" xlink:title=" ">
<polygon fill="white" stroke="black" points="1248,-100.5 1248,-130.5 1364,-130.5 1364,-100.5 1248,-100.5"/>
<text text-anchor="start" x="1256" y="-118.5" font-family="Helvetica,sans-Serif" font-size="10.00">/usr/include/linuxcnc</text>
<text text-anchor="middle" x="1306" y="-107.5" font-family="Helvetica,sans-Serif" font-size="10.00">/inihal.hh</text>
</a>
</g>
</g>
<!-- Node2&#45;&gt;Node12 -->
<g id="edge15" class="edge">
<title>Node2&#45;&gt;Node12</title>
<path fill="none" stroke="midnightblue" d="M972.47,-186.51C1040.79,-179.53 1148.36,-165.79 1239,-142 1250.44,-139 1262.61,-134.71 1273.4,-130.51"/>
<polygon fill="midnightblue" stroke="midnightblue" points="971.86,-183.05 962.26,-187.53 972.56,-190.02 971.86,-183.05"/>
</g>
<!-- Node4&#45;&gt;Node5 -->
<g id="edge4" class="edge">
<title>Node4&#45;&gt;Node5</title>
<path fill="none" stroke="midnightblue" d="M194.1,-88.45C240.75,-76.55 295.58,-62.56 340.94,-50.99"/>
<polygon fill="midnightblue" stroke="midnightblue" points="193.1,-85.09 184.28,-90.96 194.83,-91.88 193.1,-85.09"/>
</g>
<!-- Node6&#45;&gt;Node5 -->
<g id="edge6" class="edge">
<title>Node6&#45;&gt;Node5</title>
<path fill="none" stroke="midnightblue" d="M368.98,-82.65C380.47,-72.75 392.97,-61.98 403.85,-52.61"/>
<polygon fill="midnightblue" stroke="midnightblue" points="366.51,-80.16 361.21,-89.34 371.07,-85.46 366.51,-80.16"/>
</g>
<!-- Node7&#45;&gt;Node5 -->
<g id="edge8" class="edge">
<title>Node7&#45;&gt;Node5</title>
<path fill="none" stroke="midnightblue" d="M497.02,-82.65C485.53,-72.75 473.03,-61.98 462.15,-52.61"/>
<polygon fill="midnightblue" stroke="midnightblue" points="494.93,-85.46 504.79,-89.34 499.49,-80.16 494.93,-85.46"/>
</g>
<!-- Node8&#45;&gt;Node5 -->
<g id="edge10" class="edge">
<title>Node8&#45;&gt;Node5</title>
<path fill="none" stroke="midnightblue" d="M638.69,-86.56C600.58,-75.62 557.2,-63.16 520.14,-52.52"/>
<polygon fill="midnightblue" stroke="midnightblue" points="638.19,-90.06 648.77,-89.45 640.12,-83.33 638.19,-90.06"/>
</g>
<!-- Node14&#45;&gt;Node3 -->
<g id="edge18" class="edge">
<title>Node14&#45;&gt;Node3</title>
<path fill="none" stroke="midnightblue" d="M1474,-168.14C1474,-159.63 1474,-150.07 1474,-141.5"/>
<polygon fill="midnightblue" stroke="midnightblue" points="1470.5,-168.2 1474,-178.2 1477.5,-168.21 1470.5,-168.2"/>
</g>
<!-- Node14&#45;&gt;Node5 -->
<g id="edge19" class="edge">
<title>Node14&#45;&gt;Node5</title>
<path fill="none" stroke="midnightblue" d="M1536.89,-174.17C1551.93,-166.68 1566.17,-156.29 1575,-142 1587.38,-121.96 1591.2,-106.1 1575,-89 1539.09,-51.1 790.99,-33.96 525.47,-29.05"/>
<polygon fill="midnightblue" stroke="midnightblue" points="1535.11,-171.13 1527.47,-178.46 1538.02,-177.5 1535.11,-171.13"/>
</g>
</g>
</svg>
        <g id="navigator" transform="translate(0 0)" fill="#404254">
                <rect fill="#f2f5e9" fill-opacity="0.5" stroke="#606060" stroke-width=".5" x="0" y="0" width="60" height="60"/>
                <use id="zoomplus" xlink:href="#zoomPlus" x="17" y="9" onmousedown="handleZoom(evt,'in')"/>
                <use id="zoomminus" xlink:href="#zoomMin" x="42" y="9" onmousedown="handleZoom(evt,'out')"/>
                <use id="reset" xlink:href="#resetDef" x="30" y="36" onmousedown="handleReset()"/>
                <g id="arrowUp" xlink:href="#dirArrow" transform="translate(30 24)" onmousedown="handlePan(0,-1)">
                  <use xlink:href="#rim" fill="#404040">
                        <set attributeName="fill" to="#808080" begin="arrowUp.mouseover" end="arrowUp.mouseout"/>
                  </use>
                  <path fill="none" stroke="white" stroke-width="1.5" d="M0,-3.0v7 M-2.5,-0.5L0,-3.0L2.5,-0.5"/>
                </g>
                <g id="arrowRight" xlink:href="#dirArrow" transform="rotate(90) translate(36 -43)" onmousedown="handlePan(1,0)">
                  <use xlink:href="#rim" fill="#404040">
                        <set attributeName="fill" to="#808080" begin="arrowRight.mouseover" end="arrowRight.mouseout"/>
                  </use>
                  <path fill="none" stroke="white" stroke-width="1.5" d="M0,-3.0v7 M-2.5,-0.5L0,-3.0L2.5,-0.5"/>
                </g>
                <g id="arrowDown" xlink:href="#dirArrow" transform="rotate(180) translate(-30 -48)" onmousedown="handlePan(0,1)">
                  <use xlink:href="#rim" fill="#404040">
                        <set attributeName="fill" to="#808080" begin="arrowDown.mouseover" end="arrowDown.mouseout"/>
                  </use>
                  <path fill="none" stroke="white" stroke-width="1.5" d="M0,-3.0v7 M-2.5,-0.5L0,-3.0L2.5,-0.5"/>
                </g>
                <g id="arrowLeft" xlink:href="#dirArrow" transform="rotate(270) translate(-36 17)" onmousedown="handlePan(-1,0)">
                  <use xlink:href="#rim" fill="#404040">
                        <set attributeName="fill" to="#808080" begin="arrowLeft.mouseover" end="arrowLeft.mouseout"/>
                  </use>
                  <path fill="none" stroke="white" stroke-width="1.5" d="M0,-3.0v7 M-2.5,-0.5L0,-3.0L2.5,-0.5"/>
                </g>
        </g>
        <svg viewBox="0 0 15 15" width="100%" height="30px" preserveAspectRatio="xMaxYMin meet">
         <g id="arrow_out" transform="scale(0.3 0.3)">
          <a xlink:href="rtapi__stdint_8h__dep__incl_org.svg" target="_base">
           <rect id="button" ry="5" rx="5" y="6" x="6" height="38" width="38"
                fill="#f2f5e9" fill-opacity="0.5" stroke="#606060" stroke-width="1.0"/>
           <path id="arrow"
             d="M 11.500037,31.436501 C 11.940474,20.09759 22.043105,11.32322 32.158766,21.979434 L 37.068811,17.246167 C 37.068811,17.246167 37.088388,32 37.088388,32 L 22.160133,31.978069 C 22.160133,31.978069 26.997745,27.140456 26.997745,27.140456 C 18.528582,18.264221 13.291696,25.230495 11.500037,31.436501 z"
             style="fill:#404040;"/>
          </a>
         </g>
        </svg>
</svg>
