<?xml version="1.0" encoding="UTF-8" standalone="no"?>
<!DOCTYPE svg PUBLIC "-//W3C//DTD SVG 1.1//EN"
 "http://www.w3.org/Graphics/SVG/1.1/DTD/svg11.dtd">
<!-- Generated by graphviz version 2.43.0 (0)
 -->
<!-- Title: /usr/include/linuxcnc/rtapi_bool.h Pages: 1 -->
<svg width="2028pt" height="284pt"
 viewBox="0.00 0.00 2027.50 284.00" xmlns="http://www.w3.org/2000/svg" xmlns:xlink="http://www.w3.org/1999/xlink">
<g id="graph0" class="graph" transform="scale(1 1) rotate(0) translate(4 280)">
<title>/usr/include/linuxcnc/rtapi_bool.h</title>
<polygon fill="white" stroke="transparent" points="-4,4 -4,-280 2023.5,-280 2023.5,4 -4,4"/>
<!-- Node1 -->
<g id="node1" class="node">
<title>Node1</title>
<g id="a_node1"><a xlink:title=" ">
<polygon fill="#bfbfbf" stroke="black" points="1439,-245.5 1439,-275.5 1555,-275.5 1555,-245.5 1439,-245.5"/>
<text text-anchor="start" x="1447" y="-263.5" font-family="Helvetica,sans-Serif" font-size="10.00">/usr/include/linuxcnc</text>
<text text-anchor="middle" x="1497" y="-252.5" font-family="Helvetica,sans-Serif" font-size="10.00">/rtapi_bool.h</text>
</a>
</g>
</g>
<!-- Node2 -->
<g id="node2" class="node">
<title>Node2</title>
<g id="a_node2"><a xlink:href="axis_8h.html" target="_top" xlink:title=" ">
<polygon fill="white" stroke="black" points="0,-100.5 0,-130.5 116,-130.5 116,-100.5 0,-100.5"/>
<text text-anchor="start" x="8" y="-118.5" font-family="Helvetica,sans-Serif" font-size="10.00">/usr/include/linuxcnc</text>
<text text-anchor="middle" x="58" y="-107.5" font-family="Helvetica,sans-Serif" font-size="10.00">/axis.h</text>
</a>
</g>
</g>
<!-- Node1&#45;&gt;Node2 -->
<g id="edge1" class="edge">
<title>Node1&#45;&gt;Node2</title>
<path fill="none" stroke="midnightblue" d="M1428.76,-256.38C1187.7,-244.95 377.17,-202.79 125,-142 113.26,-139.17 100.8,-134.82 89.85,-130.52"/>
<polygon fill="midnightblue" stroke="midnightblue" points="1428.64,-259.88 1438.79,-256.86 1428.97,-252.89 1428.64,-259.88"/>
</g>
<!-- Node3 -->
<g id="node3" class="node">
<title>Node3</title>
<g id="a_node3"><a xlink:href="hal_8h.html" target="_top" xlink:title=" ">
<polygon fill="white" stroke="black" points="744,-178.5 744,-208.5 860,-208.5 860,-178.5 744,-178.5"/>
<text text-anchor="start" x="752" y="-196.5" font-family="Helvetica,sans-Serif" font-size="10.00">/usr/include/linuxcnc</text>
<text text-anchor="middle" x="802" y="-185.5" font-family="Helvetica,sans-Serif" font-size="10.00">/hal.h</text>
</a>
</g>
</g>
<!-- Node1&#45;&gt;Node3 -->
<g id="edge2" class="edge">
<title>Node1&#45;&gt;Node3</title>
<path fill="none" stroke="midnightblue" d="M1428.62,-253.1C1292.16,-240.34 988.18,-211.91 860.38,-199.96"/>
<polygon fill="midnightblue" stroke="midnightblue" points="1428.66,-256.62 1438.94,-254.07 1429.31,-249.65 1428.66,-256.62"/>
</g>
<!-- Node13 -->
<g id="node13" class="node">
<title>Node13</title>
<g id="a_node13"><a xlink:href="homing_8h.html" target="_top" xlink:title=" ">
<polygon fill="white" stroke="black" points="1506,-178.5 1506,-208.5 1622,-208.5 1622,-178.5 1506,-178.5"/>
<text text-anchor="start" x="1514" y="-196.5" font-family="Helvetica,sans-Serif" font-size="10.00">/usr/include/linuxcnc</text>
<text text-anchor="middle" x="1564" y="-185.5" font-family="Helvetica,sans-Serif" font-size="10.00">/homing.h</text>
</a>
</g>
</g>
<!-- Node1&#45;&gt;Node13 -->
<g id="edge17" class="edge">
<title>Node1&#45;&gt;Node13</title>
<path fill="none" stroke="midnightblue" d="M1518.84,-238.31C1528.89,-228.56 1540.54,-217.26 1549.49,-208.58"/>
<polygon fill="midnightblue" stroke="midnightblue" points="1516.28,-235.92 1511.54,-245.4 1521.15,-240.94 1516.28,-235.92"/>
</g>
<!-- Node14 -->
<g id="node14" class="node">
<title>Node14</title>
<g id="a_node14"><a xlink:href="kinematics_8h.html" target="_top" xlink:title=" ">
<polygon fill="white" stroke="black" points="1372,-178.5 1372,-208.5 1488,-208.5 1488,-178.5 1372,-178.5"/>
<text text-anchor="start" x="1380" y="-196.5" font-family="Helvetica,sans-Serif" font-size="10.00">/usr/include/linuxcnc</text>
<text text-anchor="middle" x="1430" y="-185.5" font-family="Helvetica,sans-Serif" font-size="10.00">/kinematics.h</text>
</a>
</g>
</g>
<!-- Node1&#45;&gt;Node14 -->
<g id="edge19" class="edge">
<title>Node1&#45;&gt;Node14</title>
<path fill="none" stroke="midnightblue" d="M1475.16,-238.31C1465.11,-228.56 1453.46,-217.26 1444.51,-208.58"/>
<polygon fill="midnightblue" stroke="midnightblue" points="1472.85,-240.94 1482.46,-245.4 1477.72,-235.92 1472.85,-240.94"/>
</g>
<!-- Node15 -->
<g id="node15" class="node">
<title>Node15</title>
<g id="a_node15"><a xlink:href="motion_8h.html" target="_top" xlink:title=" ">
<polygon fill="white" stroke="black" points="1592,-100.5 1592,-130.5 1708,-130.5 1708,-100.5 1592,-100.5"/>
<text text-anchor="start" x="1600" y="-118.5" font-family="Helvetica,sans-Serif" font-size="10.00">/usr/include/linuxcnc</text>
<text text-anchor="middle" x="1650" y="-107.5" font-family="Helvetica,sans-Serif" font-size="10.00">/motion.h</text>
</a>
</g>
</g>
<!-- Node1&#45;&gt;Node15 -->
<g id="edge25" class="edge">
<title>Node1&#45;&gt;Node15</title>
<path fill="none" stroke="midnightblue" d="M1565.07,-247.97C1589.09,-240.62 1614.26,-228.61 1631,-209 1650.05,-186.68 1651.75,-150.35 1651.05,-130.51"/>
<polygon fill="midnightblue" stroke="midnightblue" points="1563.91,-244.66 1555.23,-250.75 1565.81,-251.4 1563.91,-244.66"/>
</g>
<!-- Node17 -->
<g id="node17" class="node">
<title>Node17</title>
<g id="a_node17"><a xlink:href="tp__types_8h.html" target="_top" xlink:title=" ">
<polygon fill="white" stroke="black" points="1707,-178.5 1707,-208.5 1823,-208.5 1823,-178.5 1707,-178.5"/>
<text text-anchor="start" x="1715" y="-196.5" font-family="Helvetica,sans-Serif" font-size="10.00">/usr/include/linuxcnc</text>
<text text-anchor="middle" x="1765" y="-185.5" font-family="Helvetica,sans-Serif" font-size="10.00">/tp_types.h</text>
</a>
</g>
</g>
<!-- Node1&#45;&gt;Node17 -->
<g id="edge26" class="edge">
<title>Node1&#45;&gt;Node17</title>
<path fill="none" stroke="midnightblue" d="M1564.54,-243.12C1608.39,-232.48 1664.96,-218.76 1706.82,-208.61"/>
<polygon fill="midnightblue" stroke="midnightblue" points="1563.72,-239.72 1554.82,-245.48 1565.37,-246.52 1563.72,-239.72"/>
</g>
<!-- Node3&#45;&gt;Node2 -->
<g id="edge13" class="edge">
<title>Node3&#45;&gt;Node2</title>
<path fill="none" stroke="midnightblue" d="M733.5,-189.9C585.4,-183.88 239.52,-167.5 125,-142 113.09,-139.35 100.49,-134.99 89.46,-130.62"/>
<polygon fill="midnightblue" stroke="midnightblue" points="733.68,-193.41 743.81,-190.32 733.96,-186.42 733.68,-193.41"/>
</g>
<!-- Node4 -->
<g id="node4" class="node">
<title>Node4</title>
<g id="a_node4"><a xlink:href="pokeys__homecomp_8c.html" target="_top" xlink:title="HAL component for managing homing sequence and state logic using PoKeys PulseEngine v2.">
<polygon fill="white" stroke="black" points="1472,-0.5 1472,-52.5 1656,-52.5 1656,-0.5 1472,-0.5"/>
<text text-anchor="start" x="1480" y="-40.5" font-family="Helvetica,sans-Serif" font-size="10.00">/home/cnc/actions&#45;runner</text>
<text text-anchor="start" x="1480" y="-29.5" font-family="Helvetica,sans-Serif" font-size="10.00">/_work/LinuxCnc_PokeysLibComp</text>
<text text-anchor="start" x="1480" y="-18.5" font-family="Helvetica,sans-Serif" font-size="10.00">/LinuxCnc_PokeysLibComp/pokeys</text>
<text text-anchor="middle" x="1564" y="-7.5" font-family="Helvetica,sans-Serif" font-size="10.00">_rt/pokeys_homecomp.c</text>
</a>
</g>
</g>
<!-- Node3&#45;&gt;Node4 -->
<g id="edge3" class="edge">
<title>Node3&#45;&gt;Node4</title>
<path fill="none" stroke="midnightblue" d="M870.39,-187.18C947.41,-180.14 1066.82,-165.78 1105,-142 1129.6,-126.68 1118.24,-104.07 1143,-89 1196.63,-56.35 1364.68,-39.94 1471.54,-32.6"/>
<polygon fill="midnightblue" stroke="midnightblue" points="869.93,-183.71 860.28,-188.08 870.55,-190.68 869.93,-183.71"/>
</g>
<!-- Node5 -->
<g id="node5" class="node">
<title>Node5</title>
<g id="a_node5"><a xlink:href="PoKeysCompEncoders_8c.html" target="_top" xlink:title=" ">
<polygon fill="white" stroke="black" points="710,-89.5 710,-141.5 894,-141.5 894,-89.5 710,-89.5"/>
<text text-anchor="start" x="718" y="-129.5" font-family="Helvetica,sans-Serif" font-size="10.00">/home/cnc/actions&#45;runner</text>
<text text-anchor="start" x="718" y="-118.5" font-family="Helvetica,sans-Serif" font-size="10.00">/_work/LinuxCnc_PokeysLibComp</text>
<text text-anchor="start" x="718" y="-107.5" font-family="Helvetica,sans-Serif" font-size="10.00">/LinuxCnc_PokeysLibComp/pokeys</text>
<text text-anchor="middle" x="802" y="-96.5" font-family="Helvetica,sans-Serif" font-size="10.00">_uspace/PoKeysCompEncoders.c</text>
</a>
</g>
</g>
<!-- Node3&#45;&gt;Node5 -->
<g id="edge4" class="edge">
<title>Node3&#45;&gt;Node5</title>
<path fill="none" stroke="midnightblue" d="M802,-168.14C802,-159.63 802,-150.07 802,-141.5"/>
<polygon fill="midnightblue" stroke="midnightblue" points="798.5,-168.2 802,-178.2 805.5,-168.21 798.5,-168.2"/>
</g>
<!-- Node6 -->
<g id="node6" class="node">
<title>Node6</title>
<g id="a_node6"><a xlink:href="pokeys_8c.html" target="_top" xlink:title="HAL component for integrating PoKeys57 devices with LinuxCNC.">
<polygon fill="white" stroke="black" points="456,-0.5 456,-52.5 640,-52.5 640,-0.5 456,-0.5"/>
<text text-anchor="start" x="464" y="-40.5" font-family="Helvetica,sans-Serif" font-size="10.00">/home/cnc/actions&#45;runner</text>
<text text-anchor="start" x="464" y="-29.5" font-family="Helvetica,sans-Serif" font-size="10.00">/_work/LinuxCnc_PokeysLibComp</text>
<text text-anchor="start" x="464" y="-18.5" font-family="Helvetica,sans-Serif" font-size="10.00">/LinuxCnc_PokeysLibComp/pokeys</text>
<text text-anchor="middle" x="548" y="-7.5" font-family="Helvetica,sans-Serif" font-size="10.00">_uspace/pokeys.c</text>
</a>
</g>
</g>
<!-- Node3&#45;&gt;Node6 -->
<g id="edge12" class="edge">
<title>Node3&#45;&gt;Node6</title>
<path fill="none" stroke="midnightblue" d="M733.9,-186.32C672.88,-179.33 589.61,-165.71 567,-142 544.47,-118.38 542.85,-78.8 544.69,-52.92"/>
<polygon fill="midnightblue" stroke="midnightblue" points="733.55,-189.8 743.87,-187.43 734.32,-182.85 733.55,-189.8"/>
</g>
<!-- Node7 -->
<g id="node7" class="node">
<title>Node7</title>
<g id="a_node7"><a xlink:href="PoKeysCompIO_8c.html" target="_top" xlink:title="HAL interface for PoKeys digital and analog I/O handling.">
<polygon fill="white" stroke="black" points="912,-89.5 912,-141.5 1096,-141.5 1096,-89.5 912,-89.5"/>
<text text-anchor="start" x="920" y="-129.5" font-family="Helvetica,sans-Serif" font-size="10.00">/home/cnc/actions&#45;runner</text>
<text text-anchor="start" x="920" y="-118.5" font-family="Helvetica,sans-Serif" font-size="10.00">/_work/LinuxCnc_PokeysLibComp</text>
<text text-anchor="start" x="920" y="-107.5" font-family="Helvetica,sans-Serif" font-size="10.00">/LinuxCnc_PokeysLibComp/pokeys</text>
<text text-anchor="middle" x="1004" y="-96.5" font-family="Helvetica,sans-Serif" font-size="10.00">_uspace/PoKeysCompIO.c</text>
</a>
</g>
</g>
<!-- Node3&#45;&gt;Node7 -->
<g id="edge6" class="edge">
<title>Node3&#45;&gt;Node7</title>
<path fill="none" stroke="midnightblue" d="M849.21,-174.74C875.41,-164.88 908.44,-152.45 937.25,-141.62"/>
<polygon fill="midnightblue" stroke="midnightblue" points="847.65,-171.59 839.52,-178.38 850.11,-178.14 847.65,-171.59"/>
</g>
<!-- Node8 -->
<g id="node8" class="node">
<title>Node8</title>
<g id="a_node8"><a xlink:href="PoKeysCompPoExtBus_8c.html" target="_top" xlink:title=" ">
<polygon fill="white" stroke="black" points="134,-89.5 134,-141.5 318,-141.5 318,-89.5 134,-89.5"/>
<text text-anchor="start" x="142" y="-129.5" font-family="Helvetica,sans-Serif" font-size="10.00">/home/cnc/actions&#45;runner</text>
<text text-anchor="start" x="142" y="-118.5" font-family="Helvetica,sans-Serif" font-size="10.00">/_work/LinuxCnc_PokeysLibComp</text>
<text text-anchor="start" x="142" y="-107.5" font-family="Helvetica,sans-Serif" font-size="10.00">/LinuxCnc_PokeysLibComp/pokeys</text>
<text text-anchor="middle" x="226" y="-96.5" font-family="Helvetica,sans-Serif" font-size="10.00">_uspace/PoKeysCompPoExtBus.c</text>
</a>
</g>
</g>
<!-- Node3&#45;&gt;Node8 -->
<g id="edge8" class="edge">
<title>Node3&#45;&gt;Node8</title>
<path fill="none" stroke="midnightblue" d="M733.78,-188.29C641.13,-181.88 470.61,-167.63 327,-142 324.06,-141.48 321.08,-140.91 318.08,-140.32"/>
<polygon fill="midnightblue" stroke="midnightblue" points="733.65,-191.79 743.86,-188.98 734.12,-184.81 733.65,-191.79"/>
</g>
<!-- Node9 -->
<g id="node9" class="node">
<title>Node9</title>
<g id="a_node9"><a xlink:href="PoKeysCompPoNet_8c.html" target="_top" xlink:title=" ">
<polygon fill="white" stroke="black" points="336,-89.5 336,-141.5 520,-141.5 520,-89.5 336,-89.5"/>
<text text-anchor="start" x="344" y="-129.5" font-family="Helvetica,sans-Serif" font-size="10.00">/home/cnc/actions&#45;runner</text>
<text text-anchor="start" x="344" y="-118.5" font-family="Helvetica,sans-Serif" font-size="10.00">/_work/LinuxCnc_PokeysLibComp</text>
<text text-anchor="start" x="344" y="-107.5" font-family="Helvetica,sans-Serif" font-size="10.00">/LinuxCnc_PokeysLibComp/pokeys</text>
<text text-anchor="middle" x="428" y="-96.5" font-family="Helvetica,sans-Serif" font-size="10.00">_uspace/PoKeysCompPoNet.c</text>
</a>
</g>
</g>
<!-- Node3&#45;&gt;Node9 -->
<g id="edge10" class="edge">
<title>Node3&#45;&gt;Node9</title>
<path fill="none" stroke="midnightblue" d="M733.95,-180.64C679.67,-170.95 601.77,-156.53 534,-142 529.47,-141.03 524.83,-140.01 520.15,-138.96"/>
<polygon fill="midnightblue" stroke="midnightblue" points="733.34,-184.09 743.8,-182.4 734.57,-177.2 733.34,-184.09"/>
</g>
<!-- Node10 -->
<g id="node10" class="node">
<title>Node10</title>
<g id="a_node10"><a xlink:href="genhexkins_8h.html" target="_top" xlink:title=" ">
<polygon fill="white" stroke="black" points="1286,-100.5 1286,-130.5 1402,-130.5 1402,-100.5 1286,-100.5"/>
<text text-anchor="start" x="1294" y="-118.5" font-family="Helvetica,sans-Serif" font-size="10.00">/usr/include/linuxcnc</text>
<text text-anchor="middle" x="1344" y="-107.5" font-family="Helvetica,sans-Serif" font-size="10.00">/genhexkins.h</text>
</a>
</g>
</g>
<!-- Node3&#45;&gt;Node10 -->
<g id="edge14" class="edge">
<title>Node3&#45;&gt;Node10</title>
<path fill="none" stroke="midnightblue" d="M870.35,-190.74C963.48,-187.11 1134.93,-175.98 1277,-142 1288.74,-139.19 1301.2,-134.85 1312.16,-130.54"/>
<polygon fill="midnightblue" stroke="midnightblue" points="870.07,-187.25 860.21,-191.12 870.33,-194.25 870.07,-187.25"/>
</g>
<!-- Node11 -->
<g id="node11" class="node">
<title>Node11</title>
<g id="a_node11"><a xlink:href="genserkins_8h.html" target="_top" xlink:title=" ">
<polygon fill="white" stroke="black" points="1152,-100.5 1152,-130.5 1268,-130.5 1268,-100.5 1152,-100.5"/>
<text text-anchor="start" x="1160" y="-118.5" font-family="Helvetica,sans-Serif" font-size="10.00">/usr/include/linuxcnc</text>
<text text-anchor="middle" x="1210" y="-107.5" font-family="Helvetica,sans-Serif" font-size="10.00">/genserkins.h</text>
</a>
</g>
</g>
<!-- Node3&#45;&gt;Node11 -->
<g id="edge15" class="edge">
<title>Node3&#45;&gt;Node11</title>
<path fill="none" stroke="midnightblue" d="M870.25,-186.11C938.67,-178.8 1046.68,-164.81 1138,-142 1150.09,-138.98 1163.01,-134.74 1174.52,-130.58"/>
<polygon fill="midnightblue" stroke="midnightblue" points="869.61,-182.66 860.03,-187.18 870.34,-189.62 869.61,-182.66"/>
</g>
<!-- Node12 -->
<g id="node12" class="node">
<title>Node12</title>
<g id="a_node12"><a xlink:href="inihal_8hh.html" target="_top" xlink:title=" ">
<polygon fill="white" stroke="black" points="576,-100.5 576,-130.5 692,-130.5 692,-100.5 576,-100.5"/>
<text text-anchor="start" x="584" y="-118.5" font-family="Helvetica,sans-Serif" font-size="10.00">/usr/include/linuxcnc</text>
<text text-anchor="middle" x="634" y="-107.5" font-family="Helvetica,sans-Serif" font-size="10.00">/inihal.hh</text>
</a>
</g>
</g>
<!-- Node3&#45;&gt;Node12 -->
<g id="edge16" class="edge">
<title>Node3&#45;&gt;Node12</title>
<path fill="none" stroke="midnightblue" d="M761.54,-174.2C731.89,-160.78 692.22,-142.84 665.04,-130.54"/>
<polygon fill="midnightblue" stroke="midnightblue" points="760.24,-177.45 770.79,-178.38 763.13,-171.07 760.24,-177.45"/>
</g>
<!-- Node5&#45;&gt;Node6 -->
<g id="edge5" class="edge">
<title>Node5&#45;&gt;Node6</title>
<path fill="none" stroke="midnightblue" d="M719.2,-86.14C687.55,-75.3 651.72,-63.03 621.05,-52.52"/>
<polygon fill="midnightblue" stroke="midnightblue" points="718.28,-89.52 728.87,-89.45 720.55,-82.9 718.28,-89.52"/>
</g>
<!-- Node7&#45;&gt;Node6 -->
<g id="edge7" class="edge">
<title>Node7&#45;&gt;Node6</title>
<path fill="none" stroke="midnightblue" d="M901.85,-88.81C807.34,-68.97 709.72,-52.53 640.31,-41.53"/>
<polygon fill="midnightblue" stroke="midnightblue" points="901.36,-92.29 911.87,-90.93 902.81,-85.44 901.36,-92.29"/>
</g>
<!-- Node8&#45;&gt;Node6 -->
<g id="edge9" class="edge">
<title>Node8&#45;&gt;Node6</title>
<path fill="none" stroke="midnightblue" d="M328.02,-86.94C369.06,-75.85 416.02,-63.16 455.99,-52.36"/>
<polygon fill="midnightblue" stroke="midnightblue" points="327.01,-83.58 318.27,-89.57 328.84,-90.34 327.01,-83.58"/>
</g>
<!-- Node9&#45;&gt;Node6 -->
<g id="edge11" class="edge">
<title>Node9&#45;&gt;Node6</title>
<path fill="none" stroke="midnightblue" d="M471.15,-83.22C485.02,-73.16 500.19,-62.16 513.37,-52.61"/>
<polygon fill="midnightblue" stroke="midnightblue" points="468.75,-80.63 462.71,-89.34 472.86,-86.3 468.75,-80.63"/>
</g>
<!-- Node13&#45;&gt;Node4 -->
<g id="edge18" class="edge">
<title>Node13&#45;&gt;Node4</title>
<path fill="none" stroke="midnightblue" d="M1564,-168.11C1564,-137.15 1564,-84.01 1564,-52.68"/>
<polygon fill="midnightblue" stroke="midnightblue" points="1560.5,-168.43 1564,-178.43 1567.5,-168.43 1560.5,-168.43"/>
</g>
<!-- Node14&#45;&gt;Node10 -->
<g id="edge20" class="edge">
<title>Node14&#45;&gt;Node10</title>
<path fill="none" stroke="midnightblue" d="M1406.12,-171.39C1391.45,-158.43 1373.06,-142.18 1360.1,-130.73"/>
<polygon fill="midnightblue" stroke="midnightblue" points="1404.01,-174.21 1413.82,-178.2 1408.65,-168.96 1404.01,-174.21"/>
</g>
<!-- Node14&#45;&gt;Node11 -->
<g id="edge21" class="edge">
<title>Node14&#45;&gt;Node11</title>
<path fill="none" stroke="midnightblue" d="M1375.97,-175.32C1346.59,-165.82 1309.68,-153.61 1277,-142 1266.91,-138.42 1256.04,-134.36 1246.05,-130.56"/>
<polygon fill="midnightblue" stroke="midnightblue" points="1375.04,-178.7 1385.63,-178.44 1377.19,-172.04 1375.04,-178.7"/>
</g>
<!-- Node14&#45;&gt;Node15 -->
<g id="edge22" class="edge">
<title>Node14&#45;&gt;Node15</title>
<path fill="none" stroke="midnightblue" d="M1480.21,-175.15C1519.29,-161.66 1572.82,-143.16 1609.26,-130.57"/>
<polygon fill="midnightblue" stroke="midnightblue" points="1478.92,-171.9 1470.61,-178.47 1481.2,-178.51 1478.92,-171.9"/>
</g>
<!-- Node16 -->
<g id="node16" class="node">
<title>Node16</title>
<g id="a_node16"><a xlink:href="switchkins_8h.html" target="_top" xlink:title=" ">
<polygon fill="white" stroke="black" points="1420,-100.5 1420,-130.5 1536,-130.5 1536,-100.5 1420,-100.5"/>
<text text-anchor="start" x="1428" y="-118.5" font-family="Helvetica,sans-Serif" font-size="10.00">/usr/include/linuxcnc</text>
<text text-anchor="middle" x="1478" y="-107.5" font-family="Helvetica,sans-Serif" font-size="10.00">/switchkins.h</text>
</a>
</g>
</g>
<!-- Node14&#45;&gt;Node16 -->
<g id="edge24" class="edge">
<title>Node14&#45;&gt;Node16</title>
<path fill="none" stroke="midnightblue" d="M1444.48,-169.57C1452.46,-156.94 1462.12,-141.65 1469.01,-130.73"/>
<polygon fill="midnightblue" stroke="midnightblue" points="1441.41,-167.88 1439.03,-178.2 1447.33,-171.62 1441.41,-167.88"/>
</g>
<!-- Node15&#45;&gt;Node4 -->
<g id="edge23" class="edge">
<title>Node15&#45;&gt;Node4</title>
<path fill="none" stroke="midnightblue" d="M1628.76,-93.01C1616.73,-80.84 1601.61,-65.55 1589.01,-52.8"/>
<polygon fill="midnightblue" stroke="midnightblue" points="1626.28,-95.48 1635.8,-100.13 1631.26,-90.56 1626.28,-95.48"/>
</g>
<!-- Node17&#45;&gt;Node15 -->
<g id="edge27" class="edge">
<title>Node17&#45;&gt;Node15</title>
<path fill="none" stroke="midnightblue" d="M1735.17,-172.79C1715.13,-159.55 1689.21,-142.41 1671.25,-130.54"/>
<polygon fill="midnightblue" stroke="midnightblue" points="1733.37,-175.79 1743.64,-178.38 1737.23,-169.95 1733.37,-175.79"/>
</g>
<!-- Node18 -->
<g id="node18" class="node">
<title>Node18</title>
<g id="a_node18"><a xlink:href="tc_8h.html" target="_top" xlink:title=" ">
<polygon fill="white" stroke="black" points="1882.5,-106 1882.5,-125 2019.5,-125 2019.5,-106 1882.5,-106"/>
<text text-anchor="middle" x="1951" y="-113" font-family="Helvetica,sans-Serif" font-size="10.00">/usr/include/linuxcnc/tc.h</text>
</a>
</g>
</g>
<!-- Node17&#45;&gt;Node18 -->
<g id="edge28" class="edge">
<title>Node17&#45;&gt;Node18</title>
<path fill="none" stroke="midnightblue" d="M1808.89,-174.56C1847.06,-158.97 1900.68,-137.06 1929.94,-125.11"/>
<polygon fill="midnightblue" stroke="midnightblue" points="1807.48,-171.36 1799.55,-178.38 1810.13,-177.84 1807.48,-171.36"/>
</g>
<!-- Node19 -->
<g id="node19" class="node">
<title>Node19</title>
<g id="a_node19"><a xlink:href="tp_8h.html" target="_top" xlink:title=" ">
<polygon fill="white" stroke="black" points="1726,-106 1726,-125 1864,-125 1864,-106 1726,-106"/>
<text text-anchor="middle" x="1795" y="-113" font-family="Helvetica,sans-Serif" font-size="10.00">/usr/include/linuxcnc/tp.h</text>
</a>
</g>
</g>
<!-- Node17&#45;&gt;Node19 -->
<g id="edge29" class="edge">
<title>Node17&#45;&gt;Node19</title>
<path fill="none" stroke="midnightblue" d="M1774.44,-168.59C1780.3,-153.74 1787.48,-135.55 1791.62,-125.06"/>
<polygon fill="midnightblue" stroke="midnightblue" points="1771.06,-167.62 1770.64,-178.2 1777.57,-170.19 1771.06,-167.62"/>
</g>
</g>
</svg>
