<?xml version="1.0" encoding="UTF-8" standalone="no"?>
<!DOCTYPE svg PUBLIC "-//W3C//DTD SVG 1.1//EN"
 "http://www.w3.org/Graphics/SVG/1.1/DTD/svg11.dtd">
<!-- Generated by graphviz version 2.43.0 (0)
 -->
<!-- Title: /usr/include/linuxcnc/spherical_arc.h Pages: 1 -->
<svg width="442pt" height="396pt"
 viewBox="0.00 0.00 441.84 396.00" xmlns="http://www.w3.org/2000/svg" xmlns:xlink="http://www.w3.org/1999/xlink">
<g id="graph0" class="graph" transform="scale(1 1) rotate(0) translate(4 392)">
<title>/usr/include/linuxcnc/spherical_arc.h</title>
<polygon fill="white" stroke="transparent" points="-4,4 -4,-392 437.84,-392 437.84,4 -4,4"/>
<!-- Node1 -->
<g id="node1" class="node">
<title>Node1</title>
<g id="a_node1"><a xlink:title=" ">
<polygon fill="#bfbfbf" stroke="black" points="44.5,-357.5 44.5,-387.5 160.5,-387.5 160.5,-357.5 44.5,-357.5"/>
<text text-anchor="start" x="52.5" y="-375.5" font-family="Helvetica,sans-Serif" font-size="10.00">/usr/include/linuxcnc</text>
<text text-anchor="middle" x="102.5" y="-364.5" font-family="Helvetica,sans-Serif" font-size="10.00">/spherical_arc.h</text>
</a>
</g>
</g>
<!-- Node2 -->
<g id="node2" class="node">
<title>Node2</title>
<g id="a_node2"><a xlink:href="tc_8h.html" target="_top" xlink:title=" ">
<polygon fill="white" stroke="black" points="0,-95 0,-114 137,-114 137,-95 0,-95"/>
<text text-anchor="middle" x="68.5" y="-102" font-family="Helvetica,sans-Serif" font-size="10.00">/usr/include/linuxcnc/tc.h</text>
</a>
</g>
</g>
<!-- Node1&#45;&gt;Node2 -->
<g id="edge1" class="edge">
<title>Node1&#45;&gt;Node2</title>
<path fill="none" stroke="midnightblue" d="M99.4,-347.28C92.13,-290.34 74.2,-150.08 69.59,-114.05"/>
<polygon fill="midnightblue" stroke="midnightblue" points="95.93,-347.72 100.67,-357.2 102.88,-346.84 95.93,-347.72"/>
</g>
<!-- Node3 -->
<g id="node3" class="node">
<title>Node3</title>
<g id="a_node3"><a xlink:href="tc__types_8h.html" target="_top" xlink:title=" ">
<polygon fill="white" stroke="black" points="125.5,-290.5 125.5,-320.5 241.5,-320.5 241.5,-290.5 125.5,-290.5"/>
<text text-anchor="start" x="133.5" y="-308.5" font-family="Helvetica,sans-Serif" font-size="10.00">/usr/include/linuxcnc</text>
<text text-anchor="middle" x="183.5" y="-297.5" font-family="Helvetica,sans-Serif" font-size="10.00">/tc_types.h</text>
</a>
</g>
</g>
<!-- Node1&#45;&gt;Node3 -->
<g id="edge2" class="edge">
<title>Node1&#45;&gt;Node3</title>
<path fill="none" stroke="midnightblue" d="M128.19,-350.88C140.5,-341.01 154.93,-329.43 165.96,-320.58"/>
<polygon fill="midnightblue" stroke="midnightblue" points="125.68,-348.41 120.08,-357.4 130.07,-353.87 125.68,-348.41"/>
</g>
<!-- Node3&#45;&gt;Node2 -->
<g id="edge4" class="edge">
<title>Node3&#45;&gt;Node2</title>
<path fill="none" stroke="midnightblue" d="M166.64,-282.18C160.37,-273.54 153.36,-263.48 147.5,-254 115.69,-202.6 83.67,-137.23 72.58,-114.09"/>
<polygon fill="midnightblue" stroke="midnightblue" points="163.84,-284.28 172.59,-290.26 169.48,-280.13 163.84,-284.28"/>
</g>
<!-- Node4 -->
<g id="node4" class="node">
<title>Node4</title>
<g id="a_node4"><a xlink:href="blendmath_8h.html" target="_top" xlink:title=" ">
<polygon fill="white" stroke="black" points="297.5,-223.5 297.5,-253.5 413.5,-253.5 413.5,-223.5 297.5,-223.5"/>
<text text-anchor="start" x="305.5" y="-241.5" font-family="Helvetica,sans-Serif" font-size="10.00">/usr/include/linuxcnc</text>
<text text-anchor="middle" x="355.5" y="-230.5" font-family="Helvetica,sans-Serif" font-size="10.00">/blendmath.h</text>
</a>
</g>
</g>
<!-- Node3&#45;&gt;Node4 -->
<g id="edge3" class="edge">
<title>Node3&#45;&gt;Node4</title>
<path fill="none" stroke="midnightblue" d="M230.29,-286.82C257.93,-276.37 292.46,-263.32 318.25,-253.58"/>
<polygon fill="midnightblue" stroke="midnightblue" points="228.94,-283.59 220.82,-290.4 231.41,-290.13 228.94,-283.59"/>
</g>
<!-- Node5 -->
<g id="node5" class="node">
<title>Node5</title>
<g id="a_node5"><a xlink:href="tcq_8h.html" target="_top" xlink:title=" ">
<polygon fill="white" stroke="black" points="163.5,-223.5 163.5,-253.5 279.5,-253.5 279.5,-223.5 163.5,-223.5"/>
<text text-anchor="start" x="171.5" y="-241.5" font-family="Helvetica,sans-Serif" font-size="10.00">/usr/include/linuxcnc</text>
<text text-anchor="middle" x="221.5" y="-230.5" font-family="Helvetica,sans-Serif" font-size="10.00">/tcq.h</text>
</a>
</g>
</g>
<!-- Node3&#45;&gt;Node5 -->
<g id="edge5" class="edge">
<title>Node3&#45;&gt;Node5</title>
<path fill="none" stroke="midnightblue" d="M196.9,-281.58C202.36,-272.24 208.49,-261.75 213.27,-253.58"/>
<polygon fill="midnightblue" stroke="midnightblue" points="193.77,-280 191.75,-290.4 199.81,-283.53 193.77,-280"/>
</g>
<!-- Node6 -->
<g id="node6" class="node">
<title>Node6</title>
<g id="a_node6"><a xlink:href="tp_8h.html" target="_top" xlink:title=" ">
<polygon fill="white" stroke="black" points="289.5,-95 289.5,-114 427.5,-114 427.5,-95 289.5,-95"/>
<text text-anchor="middle" x="358.5" y="-102" font-family="Helvetica,sans-Serif" font-size="10.00">/usr/include/linuxcnc/tp.h</text>
</a>
</g>
</g>
<!-- Node3&#45;&gt;Node6 -->
<g id="edge12" class="edge">
<title>Node3&#45;&gt;Node6</title>
<path fill="none" stroke="midnightblue" d="M251.97,-299.46C314.84,-293.23 401.34,-280.1 422.5,-254 459.45,-208.42 393.41,-138.29 367.92,-114.07"/>
<polygon fill="midnightblue" stroke="midnightblue" points="251.33,-296 241.7,-300.43 251.99,-302.97 251.33,-296"/>
</g>
<!-- Node7 -->
<g id="node7" class="node">
<title>Node7</title>
<g id="a_node7"><a xlink:href="tp__types_8h.html" target="_top" xlink:title=" ">
<polygon fill="white" stroke="black" points="155.5,-156.5 155.5,-186.5 271.5,-186.5 271.5,-156.5 155.5,-156.5"/>
<text text-anchor="start" x="163.5" y="-174.5" font-family="Helvetica,sans-Serif" font-size="10.00">/usr/include/linuxcnc</text>
<text text-anchor="middle" x="213.5" y="-163.5" font-family="Helvetica,sans-Serif" font-size="10.00">/tp_types.h</text>
</a>
</g>
</g>
<!-- Node3&#45;&gt;Node7 -->
<g id="edge13" class="edge">
<title>Node3&#45;&gt;Node7</title>
<path fill="none" stroke="midnightblue" d="M166.01,-281.85C155.45,-265.25 145.6,-242.34 154.5,-223 161.55,-207.69 175.78,-195.29 188.5,-186.61"/>
<polygon fill="midnightblue" stroke="midnightblue" points="163.3,-284.08 171.84,-290.35 169.07,-280.13 163.3,-284.08"/>
</g>
<!-- Node5&#45;&gt;Node6 -->
<g id="edge6" class="edge">
<title>Node5&#45;&gt;Node6</title>
<path fill="none" stroke="midnightblue" d="M246.68,-216.9C257.32,-207.94 269.73,-197.19 280.5,-187 307.25,-161.7 336.78,-129.6 350.58,-114.34"/>
<polygon fill="midnightblue" stroke="midnightblue" points="244.37,-214.26 238.93,-223.35 248.86,-219.64 244.37,-214.26"/>
</g>
<!-- Node5&#45;&gt;Node7 -->
<g id="edge7" class="edge">
<title>Node5&#45;&gt;Node7</title>
<path fill="none" stroke="midnightblue" d="M218.53,-213.4C217.42,-204.37 216.2,-194.41 215.23,-186.58"/>
<polygon fill="midnightblue" stroke="midnightblue" points="215.07,-213.9 219.76,-223.4 222.02,-213.04 215.07,-213.9"/>
</g>
<!-- Node7&#45;&gt;Node2 -->
<g id="edge10" class="edge">
<title>Node7&#45;&gt;Node2</title>
<path fill="none" stroke="midnightblue" d="M172.89,-152.3C144.93,-139.76 109.06,-123.68 87.48,-114.01"/>
<polygon fill="midnightblue" stroke="midnightblue" points="171.48,-155.5 182.04,-156.4 174.34,-149.11 171.48,-155.5"/>
</g>
<!-- Node7&#45;&gt;Node6 -->
<g id="edge11" class="edge">
<title>Node7&#45;&gt;Node6</title>
<path fill="none" stroke="midnightblue" d="M254.11,-152.3C282.07,-139.76 317.94,-123.68 339.52,-114.01"/>
<polygon fill="midnightblue" stroke="midnightblue" points="252.66,-149.11 244.96,-156.4 255.52,-155.5 252.66,-149.11"/>
</g>
<!-- Node8 -->
<g id="node8" class="node">
<title>Node8</title>
<g id="a_node8"><a xlink:href="motion_8h.html" target="_top" xlink:title=" ">
<polygon fill="white" stroke="black" points="155.5,-89.5 155.5,-119.5 271.5,-119.5 271.5,-89.5 155.5,-89.5"/>
<text text-anchor="start" x="163.5" y="-107.5" font-family="Helvetica,sans-Serif" font-size="10.00">/usr/include/linuxcnc</text>
<text text-anchor="middle" x="213.5" y="-96.5" font-family="Helvetica,sans-Serif" font-size="10.00">/motion.h</text>
</a>
</g>
</g>
<!-- Node7&#45;&gt;Node8 -->
<g id="edge8" class="edge">
<title>Node7&#45;&gt;Node8</title>
<path fill="none" stroke="midnightblue" d="M213.5,-146.11C213.5,-137.15 213.5,-127.32 213.5,-119.58"/>
<polygon fill="midnightblue" stroke="midnightblue" points="210,-146.4 213.5,-156.4 217,-146.4 210,-146.4"/>
</g>
<!-- Node9 -->
<g id="node9" class="node">
<title>Node9</title>
<g id="a_node9"><a xlink:href="pokeys__homecomp_8c.html" target="_top" xlink:title="HAL component for managing homing sequence and state logic using PoKeys PulseEngine v2.">
<polygon fill="white" stroke="black" points="121.5,-0.5 121.5,-52.5 305.5,-52.5 305.5,-0.5 121.5,-0.5"/>
<text text-anchor="start" x="129.5" y="-40.5" font-family="Helvetica,sans-Serif" font-size="10.00">/home/cnc/actions&#45;runner</text>
<text text-anchor="start" x="129.5" y="-29.5" font-family="Helvetica,sans-Serif" font-size="10.00">/_work/LinuxCnc_PokeysLibComp</text>
<text text-anchor="start" x="129.5" y="-18.5" font-family="Helvetica,sans-Serif" font-size="10.00">/LinuxCnc_PokeysLibComp/pokeys</text>
<text text-anchor="middle" x="213.5" y="-7.5" font-family="Helvetica,sans-Serif" font-size="10.00">_rt/pokeys_homecomp.c</text>
</a>
</g>
</g>
<!-- Node8&#45;&gt;Node9 -->
<g id="edge9" class="edge">
<title>Node8&#45;&gt;Node9</title>
<path fill="none" stroke="midnightblue" d="M213.5,-79.14C213.5,-70.63 213.5,-61.07 213.5,-52.5"/>
<polygon fill="midnightblue" stroke="midnightblue" points="210,-79.2 213.5,-89.2 217,-79.21 210,-79.2"/>
</g>
</g>
</svg>
