<?xml version="1.0" encoding="UTF-8" standalone="no"?>
<!DOCTYPE svg PUBLIC "-//W3C//DTD SVG 1.1//EN"
 "http://www.w3.org/Graphics/SVG/1.1/DTD/svg11.dtd">
<!-- Generated by graphviz version 2.43.0 (0)
 -->
<!-- Title: /usr/include/linuxcnc/stat_msg.hh Pages: 1 -->
<svg width="255pt" height="207pt"
 viewBox="0.00 0.00 255.00 207.00" xmlns="http://www.w3.org/2000/svg" xmlns:xlink="http://www.w3.org/1999/xlink">
<g id="graph0" class="graph" transform="scale(1 1) rotate(0) translate(4 203)">
<title>/usr/include/linuxcnc/stat_msg.hh</title>
<polygon fill="white" stroke="transparent" points="-4,4 -4,-203 251,-203 251,4 -4,4"/>
<!-- Node1 -->
<g id="node1" class="node">
<title>Node1</title>
<g id="a_node1"><a xlink:title=" ">
<polygon fill="#bfbfbf" stroke="black" points="25.5,-168.5 25.5,-198.5 141.5,-198.5 141.5,-168.5 25.5,-168.5"/>
<text text-anchor="start" x="33.5" y="-186.5" font-family="Helvetica,sans-Serif" font-size="10.00">/usr/include/linuxcnc</text>
<text text-anchor="middle" x="83.5" y="-175.5" font-family="Helvetica,sans-Serif" font-size="10.00">/stat_msg.hh</text>
</a>
</g>
</g>
<!-- Node2 -->
<g id="node2" class="node">
<title>Node2</title>
<g id="a_node2"><a xlink:href="nml_8hh.html" target="_top" xlink:title=" ">
<polygon fill="white" stroke="black" points="98.5,-112.5 98.5,-131.5 148.5,-131.5 148.5,-112.5 98.5,-112.5"/>
<text text-anchor="middle" x="123.5" y="-119.5" font-family="Helvetica,sans-Serif" font-size="10.00">nml.hh</text>
</a>
</g>
</g>
<!-- Node1&#45;&gt;Node2 -->
<g id="edge1" class="edge">
<title>Node1&#45;&gt;Node2</title>
<path fill="none" stroke="midnightblue" d="M92.98,-168.4C98.67,-159.93 105.95,-149.1 111.98,-140.14"/>
<polygon fill="midnightblue" stroke="midnightblue" points="115.01,-141.91 117.68,-131.66 109.2,-138 115.01,-141.91"/>
</g>
<!-- Node7 -->
<g id="node7" class="node">
<title>Node7</title>
<g id="a_node7"><a xlink:href="nmlmsg_8hh.html" target="_top" xlink:title=" ">
<polygon fill="white" stroke="black" points="9,-112.5 9,-131.5 80,-131.5 80,-112.5 9,-112.5"/>
<text text-anchor="middle" x="44.5" y="-119.5" font-family="Helvetica,sans-Serif" font-size="10.00">nmlmsg.hh</text>
</a>
</g>
</g>
<!-- Node1&#45;&gt;Node7 -->
<g id="edge6" class="edge">
<title>Node1&#45;&gt;Node7</title>
<path fill="none" stroke="midnightblue" d="M74.26,-168.4C68.71,-159.93 61.61,-149.1 55.73,-140.14"/>
<polygon fill="midnightblue" stroke="midnightblue" points="58.58,-138.1 50.17,-131.66 52.73,-141.94 58.58,-138.1"/>
</g>
<!-- Node3 -->
<g id="node3" class="node">
<title>Node3</title>
<g id="a_node3"><a xlink:title=" ">
<polygon fill="white" stroke="#bfbfbf" points="95.5,-56.5 95.5,-75.5 151.5,-75.5 151.5,-56.5 95.5,-56.5"/>
<text text-anchor="middle" x="123.5" y="-63.5" font-family="Helvetica,sans-Serif" font-size="10.00">stddef.h</text>
</a>
</g>
</g>
<!-- Node2&#45;&gt;Node3 -->
<g id="edge2" class="edge">
<title>Node2&#45;&gt;Node3</title>
<path fill="none" stroke="midnightblue" d="M123.5,-112.08C123.5,-105.01 123.5,-94.86 123.5,-85.99"/>
<polygon fill="midnightblue" stroke="midnightblue" points="127,-85.75 123.5,-75.75 120,-85.75 127,-85.75"/>
</g>
<!-- Node4 -->
<g id="node4" class="node">
<title>Node4</title>
<g id="a_node4"><a xlink:href="cms__user_8hh.html" target="_top" xlink:title=" ">
<polygon fill="white" stroke="black" points="170,-56.5 170,-75.5 247,-75.5 247,-56.5 170,-56.5"/>
<text text-anchor="middle" x="208.5" y="-63.5" font-family="Helvetica,sans-Serif" font-size="10.00">cms_user.hh</text>
</a>
</g>
</g>
<!-- Node2&#45;&gt;Node4 -->
<g id="edge3" class="edge">
<title>Node2&#45;&gt;Node4</title>
<path fill="none" stroke="midnightblue" d="M137.16,-112.32C150.42,-103.9 170.77,-90.97 186.35,-81.07"/>
<polygon fill="midnightblue" stroke="midnightblue" points="188.31,-83.97 194.88,-75.65 184.56,-78.06 188.31,-83.97"/>
</g>
<!-- Node5 -->
<g id="node5" class="node">
<title>Node5</title>
<g id="a_node5"><a xlink:href="nml__type_8hh.html" target="_top" xlink:title=" ">
<polygon fill="white" stroke="black" points="0,-56.5 0,-75.5 77,-75.5 77,-56.5 0,-56.5"/>
<text text-anchor="middle" x="38.5" y="-63.5" font-family="Helvetica,sans-Serif" font-size="10.00">nml_type.hh</text>
</a>
</g>
</g>
<!-- Node2&#45;&gt;Node5 -->
<g id="edge4" class="edge">
<title>Node2&#45;&gt;Node5</title>
<path fill="none" stroke="midnightblue" d="M109.84,-112.32C96.58,-103.9 76.23,-90.97 60.65,-81.07"/>
<polygon fill="midnightblue" stroke="midnightblue" points="62.44,-78.06 52.12,-75.65 58.69,-83.97 62.44,-78.06"/>
</g>
<!-- Node6 -->
<g id="node6" class="node">
<title>Node6</title>
<g id="a_node6"><a xlink:title=" ">
<polygon fill="white" stroke="#bfbfbf" points="12,-0.5 12,-19.5 65,-19.5 65,-0.5 12,-0.5"/>
<text text-anchor="middle" x="38.5" y="-7.5" font-family="Helvetica,sans-Serif" font-size="10.00">stdint.h</text>
</a>
</g>
</g>
<!-- Node5&#45;&gt;Node6 -->
<g id="edge5" class="edge">
<title>Node5&#45;&gt;Node6</title>
<path fill="none" stroke="midnightblue" d="M38.5,-56.08C38.5,-49.01 38.5,-38.86 38.5,-29.99"/>
<polygon fill="midnightblue" stroke="midnightblue" points="42,-29.75 38.5,-19.75 35,-29.75 42,-29.75"/>
</g>
<!-- Node7&#45;&gt;Node3 -->
<g id="edge7" class="edge">
<title>Node7&#45;&gt;Node3</title>
<path fill="none" stroke="midnightblue" d="M57.19,-112.32C69.4,-103.98 88.08,-91.21 102.5,-81.35"/>
<polygon fill="midnightblue" stroke="midnightblue" points="104.56,-84.19 110.84,-75.65 100.61,-78.41 104.56,-84.19"/>
</g>
<!-- Node7&#45;&gt;Node5 -->
<g id="edge8" class="edge">
<title>Node7&#45;&gt;Node5</title>
<path fill="none" stroke="midnightblue" d="M43.51,-112.08C42.71,-104.93 41.57,-94.64 40.58,-85.69"/>
<polygon fill="midnightblue" stroke="midnightblue" points="44.06,-85.3 39.47,-75.75 37.1,-86.08 44.06,-85.3"/>
</g>
</g>
</svg>
