<?xml version="1.0" encoding="UTF-8" standalone="no"?>
<!DOCTYPE svg PUBLIC "-//W3C//DTD SVG 1.1//EN"
 "http://www.w3.org/Graphics/SVG/1.1/DTD/svg11.dtd">
<!-- Generated by graphviz version 2.43.0 (0)
 -->
<!-- Title: /usr/include/linuxcnc/state_tag.h Pages: 1 -->
<svg width="1292pt" height="396pt"
 viewBox="0.00 0.00 1292.24 396.00" xmlns="http://www.w3.org/2000/svg" xmlns:xlink="http://www.w3.org/1999/xlink">
<g id="graph0" class="graph" transform="scale(1 1) rotate(0) translate(4 392)">
<title>/usr/include/linuxcnc/state_tag.h</title>
<polygon fill="white" stroke="transparent" points="-4,4 -4,-392 1288.24,-392 1288.24,4 -4,4"/>
<!-- Node1 -->
<g id="node1" class="node">
<title>Node1</title>
<g id="a_node1"><a xlink:title=" ">
<polygon fill="#bfbfbf" stroke="black" points="847.27,-357.5 847.27,-387.5 963.27,-387.5 963.27,-357.5 847.27,-357.5"/>
<text text-anchor="start" x="855.27" y="-375.5" font-family="Helvetica,sans-Serif" font-size="10.00">/usr/include/linuxcnc</text>
<text text-anchor="middle" x="905.27" y="-364.5" font-family="Helvetica,sans-Serif" font-size="10.00">/state_tag.h</text>
</a>
</g>
</g>
<!-- Node2 -->
<g id="node2" class="node">
<title>Node2</title>
<g id="a_node2"><a xlink:href="modal__state_8hh.html" target="_top" xlink:title=" ">
<polygon fill="white" stroke="black" points="321.27,-290.5 321.27,-320.5 437.27,-320.5 437.27,-290.5 321.27,-290.5"/>
<text text-anchor="start" x="329.27" y="-308.5" font-family="Helvetica,sans-Serif" font-size="10.00">/usr/include/linuxcnc</text>
<text text-anchor="middle" x="379.27" y="-297.5" font-family="Helvetica,sans-Serif" font-size="10.00">/modal_state.hh</text>
</a>
</g>
</g>
<!-- Node1&#45;&gt;Node2 -->
<g id="edge1" class="edge">
<title>Node1&#45;&gt;Node2</title>
<path fill="none" stroke="midnightblue" d="M837.12,-363.08C732.84,-350.19 535.49,-325.8 437.5,-313.7"/>
<polygon fill="midnightblue" stroke="midnightblue" points="836.87,-366.57 847.22,-364.33 837.73,-359.63 836.87,-366.57"/>
</g>
<!-- Node13 -->
<g id="node13" class="node">
<title>Node13</title>
<g id="a_node13"><a xlink:href="motion_8h.html" target="_top" xlink:title=" ">
<polygon fill="white" stroke="black" points="837.27,-89.5 837.27,-119.5 953.27,-119.5 953.27,-89.5 837.27,-89.5"/>
<text text-anchor="start" x="845.27" y="-107.5" font-family="Helvetica,sans-Serif" font-size="10.00">/usr/include/linuxcnc</text>
<text text-anchor="middle" x="895.27" y="-96.5" font-family="Helvetica,sans-Serif" font-size="10.00">/motion.h</text>
</a>
</g>
</g>
<!-- Node1&#45;&gt;Node13 -->
<g id="edge18" class="edge">
<title>Node1&#45;&gt;Node13</title>
<path fill="none" stroke="midnightblue" d="M904.35,-347.07C902.3,-292.57 897.41,-162.52 895.8,-119.55"/>
<polygon fill="midnightblue" stroke="midnightblue" points="900.86,-347.34 904.73,-357.2 907.85,-347.07 900.86,-347.34"/>
</g>
<!-- Node15 -->
<g id="node15" class="node">
<title>Node15</title>
<g id="a_node15"><a xlink:href="tc__types_8h.html" target="_top" xlink:title=" ">
<polygon fill="white" stroke="black" points="971.27,-290.5 971.27,-320.5 1087.27,-320.5 1087.27,-290.5 971.27,-290.5"/>
<text text-anchor="start" x="979.27" y="-308.5" font-family="Helvetica,sans-Serif" font-size="10.00">/usr/include/linuxcnc</text>
<text text-anchor="middle" x="1029.27" y="-297.5" font-family="Helvetica,sans-Serif" font-size="10.00">/tc_types.h</text>
</a>
</g>
</g>
<!-- Node1&#45;&gt;Node15 -->
<g id="edge20" class="edge">
<title>Node1&#45;&gt;Node15</title>
<path fill="none" stroke="midnightblue" d="M941.11,-352.71C960.66,-342.46 984.47,-329.98 1002.42,-320.58"/>
<polygon fill="midnightblue" stroke="midnightblue" points="939.41,-349.65 932.18,-357.4 942.66,-355.85 939.41,-349.65"/>
</g>
<!-- Node3 -->
<g id="node3" class="node">
<title>Node3</title>
<g id="a_node3"><a xlink:href="canon_8hh.html" target="_top" xlink:title=" ">
<polygon fill="white" stroke="black" points="187.27,-223.5 187.27,-253.5 303.27,-253.5 303.27,-223.5 187.27,-223.5"/>
<text text-anchor="start" x="195.27" y="-241.5" font-family="Helvetica,sans-Serif" font-size="10.00">/usr/include/linuxcnc</text>
<text text-anchor="middle" x="245.27" y="-230.5" font-family="Helvetica,sans-Serif" font-size="10.00">/canon.hh</text>
</a>
</g>
</g>
<!-- Node2&#45;&gt;Node3 -->
<g id="edge2" class="edge">
<title>Node2&#45;&gt;Node3</title>
<path fill="none" stroke="midnightblue" d="M341.11,-285.99C319.87,-275.69 293.86,-263.07 274.29,-253.58"/>
<polygon fill="midnightblue" stroke="midnightblue" points="339.67,-289.18 350.19,-290.4 342.72,-282.88 339.67,-289.18"/>
</g>
<!-- Node4 -->
<g id="node4" class="node">
<title>Node4</title>
<g id="a_node4"><a xlink:href="emc__nml_8hh.html" target="_top" xlink:title=" ">
<polygon fill="white" stroke="black" points="211.27,-89.5 211.27,-119.5 327.27,-119.5 327.27,-89.5 211.27,-89.5"/>
<text text-anchor="start" x="219.27" y="-107.5" font-family="Helvetica,sans-Serif" font-size="10.00">/usr/include/linuxcnc</text>
<text text-anchor="middle" x="269.27" y="-96.5" font-family="Helvetica,sans-Serif" font-size="10.00">/emc_nml.hh</text>
</a>
</g>
</g>
<!-- Node2&#45;&gt;Node4 -->
<g id="edge14" class="edge">
<title>Node2&#45;&gt;Node4</title>
<path fill="none" stroke="midnightblue" d="M311.06,-293.24C213.22,-275.5 40.96,-237.75 6.27,-187 -1.51,-175.63 -2.51,-166.62 6.27,-156 31.74,-125.18 141.71,-112.98 211.13,-108.29"/>
<polygon fill="midnightblue" stroke="midnightblue" points="310.7,-296.73 321.16,-295.05 311.93,-289.84 310.7,-296.73"/>
</g>
<!-- Node8 -->
<g id="node8" class="node">
<title>Node8</title>
<g id="a_node8"><a xlink:href="emc_8hh.html" target="_top" xlink:title=" ">
<polygon fill="white" stroke="black" points="474.27,-223.5 474.27,-253.5 590.27,-253.5 590.27,-223.5 474.27,-223.5"/>
<text text-anchor="start" x="482.27" y="-241.5" font-family="Helvetica,sans-Serif" font-size="10.00">/usr/include/linuxcnc</text>
<text text-anchor="middle" x="532.27" y="-230.5" font-family="Helvetica,sans-Serif" font-size="10.00">/emc.hh</text>
</a>
</g>
</g>
<!-- Node2&#45;&gt;Node8 -->
<g id="edge8" class="edge">
<title>Node2&#45;&gt;Node8</title>
<path fill="none" stroke="midnightblue" d="M421.86,-286.41C446.28,-276.03 476.49,-263.2 499.14,-253.58"/>
<polygon fill="midnightblue" stroke="midnightblue" points="420.3,-283.26 412.47,-290.4 423.04,-289.71 420.3,-283.26"/>
</g>
<!-- Node12 -->
<g id="node12" class="node">
<title>Node12</title>
<g id="a_node12"><a xlink:href="interp__base_8hh.html" target="_top" xlink:title=" ">
<polygon fill="white" stroke="black" points="321.27,-223.5 321.27,-253.5 437.27,-253.5 437.27,-223.5 321.27,-223.5"/>
<text text-anchor="start" x="329.27" y="-241.5" font-family="Helvetica,sans-Serif" font-size="10.00">/usr/include/linuxcnc</text>
<text text-anchor="middle" x="379.27" y="-230.5" font-family="Helvetica,sans-Serif" font-size="10.00">/interp_base.hh</text>
</a>
</g>
</g>
<!-- Node2&#45;&gt;Node12 -->
<g id="edge15" class="edge">
<title>Node2&#45;&gt;Node12</title>
<path fill="none" stroke="midnightblue" d="M379.27,-280.11C379.27,-271.15 379.27,-261.32 379.27,-253.58"/>
<polygon fill="midnightblue" stroke="midnightblue" points="375.77,-280.4 379.27,-290.4 382.77,-280.4 375.77,-280.4"/>
</g>
<!-- Node3&#45;&gt;Node4 -->
<g id="edge3" class="edge">
<title>Node3&#45;&gt;Node4</title>
<path fill="none" stroke="midnightblue" d="M206.93,-217.75C195.59,-209.83 184.54,-199.57 178.27,-187 172.12,-174.67 171.28,-167.87 178.27,-156 188.26,-139.03 206.24,-127.35 223.6,-119.54"/>
<polygon fill="midnightblue" stroke="midnightblue" points="205.29,-220.85 215.58,-223.34 209.08,-214.97 205.29,-220.85"/>
</g>
<!-- Node5 -->
<g id="node5" class="node">
<title>Node5</title>
<g id="a_node5"><a xlink:href="interp__internal_8hh.html" target="_top" xlink:title=" ">
<polygon fill="white" stroke="black" points="187.27,-156.5 187.27,-186.5 303.27,-186.5 303.27,-156.5 187.27,-156.5"/>
<text text-anchor="start" x="195.27" y="-174.5" font-family="Helvetica,sans-Serif" font-size="10.00">/usr/include/linuxcnc</text>
<text text-anchor="middle" x="245.27" y="-163.5" font-family="Helvetica,sans-Serif" font-size="10.00">/interp_internal.hh</text>
</a>
</g>
</g>
<!-- Node3&#45;&gt;Node5 -->
<g id="edge4" class="edge">
<title>Node3&#45;&gt;Node5</title>
<path fill="none" stroke="midnightblue" d="M245.27,-213.11C245.27,-204.15 245.27,-194.32 245.27,-186.58"/>
<polygon fill="midnightblue" stroke="midnightblue" points="241.77,-213.4 245.27,-223.4 248.77,-213.4 241.77,-213.4"/>
</g>
<!-- Node6 -->
<g id="node6" class="node">
<title>Node6</title>
<g id="a_node6"><a xlink:href="rs274ngc_8hh.html" target="_top" xlink:title=" ">
<polygon fill="white" stroke="black" points="321.27,-156.5 321.27,-186.5 437.27,-186.5 437.27,-156.5 321.27,-156.5"/>
<text text-anchor="start" x="329.27" y="-174.5" font-family="Helvetica,sans-Serif" font-size="10.00">/usr/include/linuxcnc</text>
<text text-anchor="middle" x="379.27" y="-163.5" font-family="Helvetica,sans-Serif" font-size="10.00">/rs274ngc.hh</text>
</a>
</g>
</g>
<!-- Node3&#45;&gt;Node6 -->
<g id="edge5" class="edge">
<title>Node3&#45;&gt;Node6</title>
<path fill="none" stroke="midnightblue" d="M283.42,-218.99C304.66,-208.69 330.68,-196.07 350.25,-186.58"/>
<polygon fill="midnightblue" stroke="midnightblue" points="281.82,-215.88 274.35,-223.4 284.87,-222.18 281.82,-215.88"/>
</g>
<!-- Node7 -->
<g id="node7" class="node">
<title>Node7</title>
<g id="a_node7"><a xlink:href="saicanon_8hh.html" target="_top" xlink:title=" ">
<polygon fill="white" stroke="black" points="15.27,-156.5 15.27,-186.5 131.27,-186.5 131.27,-156.5 15.27,-156.5"/>
<text text-anchor="start" x="23.27" y="-174.5" font-family="Helvetica,sans-Serif" font-size="10.00">/usr/include/linuxcnc</text>
<text text-anchor="middle" x="73.27" y="-163.5" font-family="Helvetica,sans-Serif" font-size="10.00">/saicanon.hh</text>
</a>
</g>
</g>
<!-- Node3&#45;&gt;Node7 -->
<g id="edge7" class="edge">
<title>Node3&#45;&gt;Node7</title>
<path fill="none" stroke="midnightblue" d="M198.48,-219.82C170.83,-209.37 136.31,-196.32 110.52,-186.58"/>
<polygon fill="midnightblue" stroke="midnightblue" points="197.36,-223.13 207.95,-223.4 199.83,-216.59 197.36,-223.13"/>
</g>
<!-- Node6&#45;&gt;Node4 -->
<g id="edge6" class="edge">
<title>Node6&#45;&gt;Node4</title>
<path fill="none" stroke="midnightblue" d="M346.77,-151.3C329.56,-141.12 308.79,-128.85 293.09,-119.58"/>
<polygon fill="midnightblue" stroke="midnightblue" points="345.01,-154.32 355.4,-156.4 348.57,-148.3 345.01,-154.32"/>
</g>
<!-- Node8&#45;&gt;Node4 -->
<g id="edge10" class="edge">
<title>Node8&#45;&gt;Node4</title>
<path fill="none" stroke="midnightblue" d="M511.89,-215.98C491.37,-194.73 460.75,-164.26 446.27,-156 409.49,-135.03 363.37,-122.24 327.42,-114.78"/>
<polygon fill="midnightblue" stroke="midnightblue" points="509.49,-218.54 518.94,-223.33 514.55,-213.69 509.49,-218.54"/>
</g>
<!-- Node8&#45;&gt;Node6 -->
<g id="edge13" class="edge">
<title>Node8&#45;&gt;Node6</title>
<path fill="none" stroke="midnightblue" d="M489.68,-219.41C465.25,-209.03 435.04,-196.2 412.4,-186.58"/>
<polygon fill="midnightblue" stroke="midnightblue" points="488.5,-222.71 499.07,-223.4 491.24,-216.26 488.5,-222.71"/>
</g>
<!-- Node9 -->
<g id="node9" class="node">
<title>Node9</title>
<g id="a_node9"><a xlink:href="emcIniFile_8hh.html" target="_top" xlink:title=" ">
<polygon fill="white" stroke="black" points="493.27,-156.5 493.27,-186.5 609.27,-186.5 609.27,-156.5 493.27,-156.5"/>
<text text-anchor="start" x="501.27" y="-174.5" font-family="Helvetica,sans-Serif" font-size="10.00">/usr/include/linuxcnc</text>
<text text-anchor="middle" x="551.27" y="-163.5" font-family="Helvetica,sans-Serif" font-size="10.00">/emcIniFile.hh</text>
</a>
</g>
</g>
<!-- Node8&#45;&gt;Node9 -->
<g id="edge9" class="edge">
<title>Node8&#45;&gt;Node9</title>
<path fill="none" stroke="midnightblue" d="M539.23,-213.7C541.89,-204.59 544.84,-194.49 547.15,-186.58"/>
<polygon fill="midnightblue" stroke="midnightblue" points="535.84,-212.82 536.39,-223.4 542.56,-214.78 535.84,-212.82"/>
</g>
<!-- Node10 -->
<g id="node10" class="node">
<title>Node10</title>
<g id="a_node10"><a xlink:href="iniaxis_8hh.html" target="_top" xlink:title=" ">
<polygon fill="white" stroke="black" points="627.27,-156.5 627.27,-186.5 743.27,-186.5 743.27,-156.5 627.27,-156.5"/>
<text text-anchor="start" x="635.27" y="-174.5" font-family="Helvetica,sans-Serif" font-size="10.00">/usr/include/linuxcnc</text>
<text text-anchor="middle" x="685.27" y="-163.5" font-family="Helvetica,sans-Serif" font-size="10.00">/iniaxis.hh</text>
</a>
</g>
</g>
<!-- Node8&#45;&gt;Node10 -->
<g id="edge11" class="edge">
<title>Node8&#45;&gt;Node10</title>
<path fill="none" stroke="midnightblue" d="M574.86,-219.41C599.28,-209.03 629.49,-196.2 652.14,-186.58"/>
<polygon fill="midnightblue" stroke="midnightblue" points="573.3,-216.26 565.47,-223.4 576.04,-222.71 573.3,-216.26"/>
</g>
<!-- Node11 -->
<g id="node11" class="node">
<title>Node11</title>
<g id="a_node11"><a xlink:href="inispindle_8hh.html" target="_top" xlink:title=" ">
<polygon fill="white" stroke="black" points="761.27,-156.5 761.27,-186.5 877.27,-186.5 877.27,-156.5 761.27,-156.5"/>
<text text-anchor="start" x="769.27" y="-174.5" font-family="Helvetica,sans-Serif" font-size="10.00">/usr/include/linuxcnc</text>
<text text-anchor="middle" x="819.27" y="-163.5" font-family="Helvetica,sans-Serif" font-size="10.00">/inispindle.hh</text>
</a>
</g>
</g>
<!-- Node8&#45;&gt;Node11 -->
<g id="edge12" class="edge">
<title>Node8&#45;&gt;Node11</title>
<path fill="none" stroke="midnightblue" d="M600.2,-222.11C649.05,-211.05 714.25,-196.29 760.79,-185.75"/>
<polygon fill="midnightblue" stroke="midnightblue" points="599.33,-218.72 590.35,-224.35 600.87,-225.55 599.33,-218.72"/>
</g>
<!-- Node12&#45;&gt;Node5 -->
<g id="edge16" class="edge">
<title>Node12&#45;&gt;Node5</title>
<path fill="none" stroke="midnightblue" d="M341.11,-218.99C319.87,-208.69 293.86,-196.07 274.29,-186.58"/>
<polygon fill="midnightblue" stroke="midnightblue" points="339.67,-222.18 350.19,-223.4 342.72,-215.88 339.67,-222.18"/>
</g>
<!-- Node12&#45;&gt;Node6 -->
<g id="edge17" class="edge">
<title>Node12&#45;&gt;Node6</title>
<path fill="none" stroke="midnightblue" d="M379.27,-213.11C379.27,-204.15 379.27,-194.32 379.27,-186.58"/>
<polygon fill="midnightblue" stroke="midnightblue" points="375.77,-213.4 379.27,-223.4 382.77,-213.4 375.77,-213.4"/>
</g>
<!-- Node14 -->
<g id="node14" class="node">
<title>Node14</title>
<g id="a_node14"><a xlink:href="pokeys__homecomp_8c.html" target="_top" xlink:title="HAL component for managing homing sequence and state logic using PoKeys PulseEngine v2.">
<polygon fill="white" stroke="black" points="803.27,-0.5 803.27,-52.5 987.27,-52.5 987.27,-0.5 803.27,-0.5"/>
<text text-anchor="start" x="811.27" y="-40.5" font-family="Helvetica,sans-Serif" font-size="10.00">/home/cnc/actions&#45;runner</text>
<text text-anchor="start" x="811.27" y="-29.5" font-family="Helvetica,sans-Serif" font-size="10.00">/_work/LinuxCnc_PokeysLibComp</text>
<text text-anchor="start" x="811.27" y="-18.5" font-family="Helvetica,sans-Serif" font-size="10.00">/LinuxCnc_PokeysLibComp/pokeys</text>
<text text-anchor="middle" x="895.27" y="-7.5" font-family="Helvetica,sans-Serif" font-size="10.00">_rt/pokeys_homecomp.c</text>
</a>
</g>
</g>
<!-- Node13&#45;&gt;Node14 -->
<g id="edge19" class="edge">
<title>Node13&#45;&gt;Node14</title>
<path fill="none" stroke="midnightblue" d="M895.27,-79.14C895.27,-70.63 895.27,-61.07 895.27,-52.5"/>
<polygon fill="midnightblue" stroke="midnightblue" points="891.77,-79.2 895.27,-89.2 898.77,-79.21 891.77,-79.2"/>
</g>
<!-- Node16 -->
<g id="node16" class="node">
<title>Node16</title>
<g id="a_node16"><a xlink:href="blendmath_8h.html" target="_top" xlink:title=" ">
<polygon fill="white" stroke="black" points="1148.27,-223.5 1148.27,-253.5 1264.27,-253.5 1264.27,-223.5 1148.27,-223.5"/>
<text text-anchor="start" x="1156.27" y="-241.5" font-family="Helvetica,sans-Serif" font-size="10.00">/usr/include/linuxcnc</text>
<text text-anchor="middle" x="1206.27" y="-230.5" font-family="Helvetica,sans-Serif" font-size="10.00">/blendmath.h</text>
</a>
</g>
</g>
<!-- Node15&#45;&gt;Node16 -->
<g id="edge21" class="edge">
<title>Node15&#45;&gt;Node16</title>
<path fill="none" stroke="midnightblue" d="M1077.42,-286.82C1105.87,-276.37 1141.4,-263.32 1167.94,-253.58"/>
<polygon fill="midnightblue" stroke="midnightblue" points="1075.86,-283.66 1067.68,-290.4 1078.27,-290.23 1075.86,-283.66"/>
</g>
<!-- Node17 -->
<g id="node17" class="node">
<title>Node17</title>
<g id="a_node17"><a xlink:href="tc_8h.html" target="_top" xlink:title=" ">
<polygon fill="white" stroke="black" points="971.77,-95 971.77,-114 1108.77,-114 1108.77,-95 971.77,-95"/>
<text text-anchor="middle" x="1040.27" y="-102" font-family="Helvetica,sans-Serif" font-size="10.00">/usr/include/linuxcnc/tc.h</text>
</a>
</g>
</g>
<!-- Node15&#45;&gt;Node17 -->
<g id="edge22" class="edge">
<title>Node15&#45;&gt;Node17</title>
<path fill="none" stroke="midnightblue" d="M1009.44,-282.14C985.73,-252.55 951.79,-199.09 973.27,-156 983.08,-136.32 1004.63,-122.28 1020.65,-114.08"/>
<polygon fill="midnightblue" stroke="midnightblue" points="1007.02,-284.71 1016.09,-290.17 1012.41,-280.24 1007.02,-284.71"/>
</g>
<!-- Node18 -->
<g id="node18" class="node">
<title>Node18</title>
<g id="a_node18"><a xlink:href="tcq_8h.html" target="_top" xlink:title=" ">
<polygon fill="white" stroke="black" points="1014.27,-223.5 1014.27,-253.5 1130.27,-253.5 1130.27,-223.5 1014.27,-223.5"/>
<text text-anchor="start" x="1022.27" y="-241.5" font-family="Helvetica,sans-Serif" font-size="10.00">/usr/include/linuxcnc</text>
<text text-anchor="middle" x="1072.27" y="-230.5" font-family="Helvetica,sans-Serif" font-size="10.00">/tcq.h</text>
</a>
</g>
</g>
<!-- Node15&#45;&gt;Node18 -->
<g id="edge23" class="edge">
<title>Node15&#45;&gt;Node18</title>
<path fill="none" stroke="midnightblue" d="M1044.24,-281.87C1050.47,-272.46 1057.49,-261.83 1062.96,-253.58"/>
<polygon fill="midnightblue" stroke="midnightblue" points="1041.2,-280.12 1038.6,-290.4 1047.04,-283.99 1041.2,-280.12"/>
</g>
<!-- Node19 -->
<g id="node19" class="node">
<title>Node19</title>
<g id="a_node19"><a xlink:href="tp_8h.html" target="_top" xlink:title=" ">
<polygon fill="white" stroke="black" points="1127.27,-95 1127.27,-114 1265.27,-114 1265.27,-95 1127.27,-95"/>
<text text-anchor="middle" x="1196.27" y="-102" font-family="Helvetica,sans-Serif" font-size="10.00">/usr/include/linuxcnc/tp.h</text>
</a>
</g>
</g>
<!-- Node15&#45;&gt;Node19 -->
<g id="edge29" class="edge">
<title>Node15&#45;&gt;Node19</title>
<path fill="none" stroke="midnightblue" d="M1097.61,-299.81C1161.9,-293.81 1251.46,-280.79 1273.27,-254 1311.41,-207.16 1236.74,-138.4 1207.4,-114.26"/>
<polygon fill="midnightblue" stroke="midnightblue" points="1097.17,-296.34 1087.52,-300.71 1097.79,-303.31 1097.17,-296.34"/>
</g>
<!-- Node20 -->
<g id="node20" class="node">
<title>Node20</title>
<g id="a_node20"><a xlink:href="tp__types_8h.html" target="_top" xlink:title=" ">
<polygon fill="white" stroke="black" points="982.27,-156.5 982.27,-186.5 1098.27,-186.5 1098.27,-156.5 982.27,-156.5"/>
<text text-anchor="start" x="990.27" y="-174.5" font-family="Helvetica,sans-Serif" font-size="10.00">/usr/include/linuxcnc</text>
<text text-anchor="middle" x="1040.27" y="-163.5" font-family="Helvetica,sans-Serif" font-size="10.00">/tp_types.h</text>
</a>
</g>
</g>
<!-- Node15&#45;&gt;Node20 -->
<g id="edge30" class="edge">
<title>Node15&#45;&gt;Node20</title>
<path fill="none" stroke="midnightblue" d="M1015.09,-281.46C1006.82,-265.11 999.12,-242.65 1005.27,-223 1009.53,-209.36 1018.92,-196.16 1026.91,-186.68"/>
<polygon fill="midnightblue" stroke="midnightblue" points="1012.06,-283.22 1019.92,-290.32 1018.2,-279.87 1012.06,-283.22"/>
</g>
<!-- Node18&#45;&gt;Node19 -->
<g id="edge24" class="edge">
<title>Node18&#45;&gt;Node19</title>
<path fill="none" stroke="midnightblue" d="M1092.45,-216.02C1120.23,-186.44 1169.01,-134.52 1188.19,-114.1"/>
<polygon fill="midnightblue" stroke="midnightblue" points="1089.84,-213.69 1085.54,-223.37 1094.94,-218.48 1089.84,-213.69"/>
</g>
<!-- Node18&#45;&gt;Node20 -->
<g id="edge25" class="edge">
<title>Node18&#45;&gt;Node20</title>
<path fill="none" stroke="midnightblue" d="M1060.84,-214.28C1056.28,-205.02 1051.18,-194.66 1047.2,-186.58"/>
<polygon fill="midnightblue" stroke="midnightblue" points="1057.77,-215.97 1065.33,-223.4 1064.05,-212.88 1057.77,-215.97"/>
</g>
<!-- Node20&#45;&gt;Node13 -->
<g id="edge26" class="edge">
<title>Node20&#45;&gt;Node13</title>
<path fill="none" stroke="midnightblue" d="M999.6,-152.27C976.5,-141.92 948.03,-129.15 926.67,-119.58"/>
<polygon fill="midnightblue" stroke="midnightblue" points="998.25,-155.5 1008.81,-156.4 1001.11,-149.11 998.25,-155.5"/>
</g>
<!-- Node20&#45;&gt;Node17 -->
<g id="edge27" class="edge">
<title>Node20&#45;&gt;Node17</title>
<path fill="none" stroke="midnightblue" d="M1040.27,-146.25C1040.27,-135.02 1040.27,-122.38 1040.27,-114.19"/>
<polygon fill="midnightblue" stroke="midnightblue" points="1036.77,-146.4 1040.27,-156.4 1043.77,-146.4 1036.77,-146.4"/>
</g>
<!-- Node20&#45;&gt;Node19 -->
<g id="edge28" class="edge">
<title>Node20&#45;&gt;Node19</title>
<path fill="none" stroke="midnightblue" d="M1083.57,-152.46C1113.71,-139.9 1152.53,-123.72 1175.85,-114.01"/>
<polygon fill="midnightblue" stroke="midnightblue" points="1082,-149.32 1074.12,-156.4 1084.7,-155.78 1082,-149.32"/>
</g>
</g>
</svg>
