<?xml version="1.0" encoding="UTF-8" standalone="no"?>
<!DOCTYPE svg PUBLIC "-//W3C//DTD SVG 1.1//EN"
 "http://www.w3.org/Graphics/SVG/1.1/DTD/svg11.dtd">
<!-- Generated by graphviz version 2.43.0 (0)
 -->
<!-- Title: REMOTE_LOGIN_REPLY Pages: 1 -->
<svg width="218pt" height="266pt"
 viewBox="0.00 0.00 218.00 266.00" xmlns="http://www.w3.org/2000/svg" xmlns:xlink="http://www.w3.org/1999/xlink">
<g id="graph0" class="graph" transform="scale(1 1) rotate(0) translate(4 262)">
<title>REMOTE_LOGIN_REPLY</title>
<polygon fill="white" stroke="transparent" points="-4,4 -4,-262 214,-262 214,4 -4,4"/>
<!-- Node1 -->
<g id="node1" class="node">
<title>Node1</title>
<g id="a_node1"><a xlink:title=" ">
<polygon fill="#bfbfbf" stroke="black" points="57,-0.5 57,-57.5 185,-57.5 185,-0.5 57,-0.5"/>
<text text-anchor="middle" x="121" y="-45.5" font-family="Helvetica,sans-Serif" font-size="10.00">REMOTE_LOGIN_REPLY</text>
<polyline fill="none" stroke="black" points="57,-38.5 185,-38.5 "/>
<text text-anchor="middle" x="121" y="-26.5" font-family="Helvetica,sans-Serif" font-size="10.00"> </text>
<polyline fill="none" stroke="black" points="57,-19.5 185,-19.5 "/>
<text text-anchor="middle" x="121" y="-7.5" font-family="Helvetica,sans-Serif" font-size="10.00"> </text>
</a>
</g>
</g>
<!-- Node2 -->
<g id="node2" class="node">
<title>Node2</title>
<g id="a_node2"><a xlink:href="structREMOTE__CMS__REPLY.html" target="_top" xlink:title=" ">
<polygon fill="white" stroke="black" points="0,-95.5 0,-152.5 138,-152.5 138,-95.5 0,-95.5"/>
<text text-anchor="middle" x="69" y="-140.5" font-family="Helvetica,sans-Serif" font-size="10.00">REMOTE_CMS_REPLY</text>
<polyline fill="none" stroke="black" points="0,-133.5 138,-133.5 "/>
<text text-anchor="middle" x="69" y="-121.5" font-family="Helvetica,sans-Serif" font-size="10.00"> </text>
<polyline fill="none" stroke="black" points="0,-114.5 138,-114.5 "/>
<text text-anchor="start" x="8" y="-102.5" font-family="Helvetica,sans-Serif" font-size="10.00">+ REMOTE_CMS_REPLY()</text>
</a>
</g>
</g>
<!-- Node2&#45;&gt;Node1 -->
<g id="edge1" class="edge">
<title>Node2&#45;&gt;Node1</title>
<path fill="none" stroke="midnightblue" d="M89.45,-86.42C94.8,-76.86 100.47,-66.72 105.51,-57.71"/>
<polygon fill="none" stroke="midnightblue" points="86.29,-84.91 84.46,-95.35 92.4,-88.33 86.29,-84.91"/>
</g>
<!-- Node3 -->
<g id="node3" class="node">
<title>Node3</title>
<g id="a_node3"><a xlink:href="structREMOTE__CMS__MESSAGE.html" target="_top" xlink:title=" ">
<polygon fill="white" stroke="black" points="0,-200.5 0,-257.5 138,-257.5 138,-200.5 0,-200.5"/>
<text text-anchor="middle" x="69" y="-245.5" font-family="Helvetica,sans-Serif" font-size="10.00">REMOTE_CMS_MESSAGE</text>
<polyline fill="none" stroke="black" points="0,-238.5 138,-238.5 "/>
<text text-anchor="middle" x="69" y="-226.5" font-family="Helvetica,sans-Serif" font-size="10.00"> </text>
<polyline fill="none" stroke="black" points="0,-219.5 138,-219.5 "/>
<text text-anchor="middle" x="69" y="-207.5" font-family="Helvetica,sans-Serif" font-size="10.00"> </text>
</a>
</g>
</g>
<!-- Node3&#45;&gt;Node2 -->
<g id="edge2" class="edge">
<title>Node3&#45;&gt;Node2</title>
<path fill="none" stroke="midnightblue" d="M69,-190.29C69,-177.84 69,-164.23 69,-152.68"/>
<polygon fill="none" stroke="midnightblue" points="65.5,-190.4 69,-200.4 72.5,-190.4 65.5,-190.4"/>
</g>
<!-- Node4 -->
<g id="node4" class="node">
<title>Node4</title>
<g id="a_node4"><a xlink:title=" ">
<polygon fill="white" stroke="black" points="158.5,-200.5 158.5,-257.5 187.5,-257.5 187.5,-200.5 158.5,-200.5"/>
<text text-anchor="middle" x="173" y="-245.5" font-family="Helvetica,sans-Serif" font-size="10.00">int</text>
<polyline fill="none" stroke="black" points="158.5,-238.5 187.5,-238.5 "/>
<text text-anchor="middle" x="173" y="-226.5" font-family="Helvetica,sans-Serif" font-size="10.00"> </text>
<polyline fill="none" stroke="black" points="158.5,-219.5 187.5,-219.5 "/>
<text text-anchor="middle" x="173" y="-207.5" font-family="Helvetica,sans-Serif" font-size="10.00"> </text>
</a>
</g>
</g>
<!-- Node4&#45;&gt;Node1 -->
<g id="edge4" class="edge">
<title>Node4&#45;&gt;Node1</title>
<path fill="none" stroke="#404040" d="M169.15,-200.38C165,-173.23 157.55,-130.77 147,-95 144.47,-86.42 141.25,-77.41 137.94,-68.92"/>
<polygon fill="none" stroke="#404040" points="137.92,-68.88 131.97,-64.81 133.43,-57.75 139.39,-61.82 137.92,-68.88"/>
<text text-anchor="middle" x="185" y="-121.5" font-family="Helvetica,sans-Serif" font-size="10.00"> +success</text>
</g>
<!-- Node4&#45;&gt;Node2 -->
<g id="edge3" class="edge">
<title>Node4&#45;&gt;Node2</title>
<path fill="none" stroke="#404040" d="M158.29,-210.69C154.76,-206.97 150.89,-203.21 147,-200 135.29,-190.36 129.52,-191.87 118,-182 111.05,-176.05 104.23,-169.08 97.99,-162.1"/>
<polygon fill="none" stroke="#404040" points="97.71,-161.77 90.76,-159.82 89.89,-152.67 96.83,-154.61 97.71,-161.77"/>
<text text-anchor="middle" x="139" y="-174" font-family="Helvetica,sans-Serif" font-size="10.00"> +status</text>
</g>
</g>
</svg>
