<?xml version="1.0" encoding="UTF-8" standalone="no"?>
<!DOCTYPE svg PUBLIC "-//W3C//DTD SVG 1.1//EN"
 "http://www.w3.org/Graphics/SVG/1.1/DTD/svg11.dtd">
<!-- Generated by graphviz version 2.43.0 (0)
 -->
<!-- Title: device_status_cache_t Pages: 1 -->
<svg width="532pt" height="314pt"
 viewBox="0.00 0.00 532.00 314.00" xmlns="http://www.w3.org/2000/svg" xmlns:xlink="http://www.w3.org/1999/xlink">
<g id="graph0" class="graph" transform="scale(1 1) rotate(0) translate(4 310)">
<title>device_status_cache_t</title>
<polygon fill="white" stroke="transparent" points="-4,4 -4,-310 528,-310 528,4 -4,4"/>
<!-- Node1 -->
<g id="node1" class="node">
<title>Node1</title>
<g id="a_node1"><a xlink:title=" ">
<polygon fill="#bfbfbf" stroke="black" points="166,-0.5 166,-79.5 302,-79.5 302,-0.5 166,-0.5"/>
<text text-anchor="middle" x="234" y="-67.5" font-family="Helvetica,sans-Serif" font-size="10.00">device_status_cache_t</text>
<polyline fill="none" stroke="black" points="166,-60.5 302,-60.5 "/>
<text text-anchor="start" x="174" y="-48.5" font-family="Helvetica,sans-Serif" font-size="10.00">+ total_commands_sent</text>
<text text-anchor="start" x="174" y="-37.5" font-family="Helvetica,sans-Serif" font-size="10.00">+ rt_cycle_min_ns</text>
<text text-anchor="start" x="174" y="-26.5" font-family="Helvetica,sans-Serif" font-size="10.00">+ rt_cycle_total_ns</text>
<polyline fill="none" stroke="black" points="166,-19.5 302,-19.5 "/>
<text text-anchor="middle" x="234" y="-7.5" font-family="Helvetica,sans-Serif" font-size="10.00"> </text>
</a>
</g>
</g>
<!-- Node2 -->
<g id="node2" class="node">
<title>Node2</title>
<g id="a_node2"><a xlink:title=" ">
<polygon fill="white" stroke="black" points="0,-248.5 0,-305.5 96,-305.5 96,-248.5 0,-248.5"/>
<text text-anchor="middle" x="48" y="-293.5" font-family="Helvetica,sans-Serif" font-size="10.00">volatile uint32_t</text>
<polyline fill="none" stroke="black" points="0,-286.5 96,-286.5 "/>
<text text-anchor="middle" x="48" y="-274.5" font-family="Helvetica,sans-Serif" font-size="10.00"> </text>
<polyline fill="none" stroke="black" points="0,-267.5 96,-267.5 "/>
<text text-anchor="middle" x="48" y="-255.5" font-family="Helvetica,sans-Serif" font-size="10.00"> </text>
</a>
</g>
</g>
<!-- Node2&#45;&gt;Node1 -->
<g id="edge1" class="edge">
<title>Node2&#45;&gt;Node1</title>
<path fill="none" stroke="#404040" d="M39.99,-248.39C30.77,-210.39 20.83,-141.73 54,-98 77.31,-67.26 117.24,-52.74 153.57,-46.02"/>
<polygon fill="none" stroke="#404040" points="153.88,-45.97 159.16,-41.05 165.72,-44.03 160.45,-48.94 153.88,-45.97"/>
<text text-anchor="middle" x="107" y="-222" font-family="Helvetica,sans-Serif" font-size="10.00"> +axes_state</text>
<text text-anchor="middle" x="107" y="-211" font-family="Helvetica,sans-Serif" font-size="10.00">+error_count</text>
<text text-anchor="middle" x="107" y="-200" font-family="Helvetica,sans-Serif" font-size="10.00">+failed_commands</text>
<text text-anchor="start" x="54" y="-189" font-family="Helvetica,sans-Serif" font-size="10.00">+last_cycle_time</text>
<text text-anchor="middle" x="107" y="-178" font-family="Helvetica,sans-Serif" font-size="10.00">_ns</text>
<text text-anchor="middle" x="107" y="-167" font-family="Helvetica,sans-Serif" font-size="10.00">+last_error_time</text>
<text text-anchor="middle" x="107" y="-156" font-family="Helvetica,sans-Serif" font-size="10.00">+last_update_time</text>
<text text-anchor="middle" x="107" y="-145" font-family="Helvetica,sans-Serif" font-size="10.00">+pulse_engine_state</text>
<text text-anchor="middle" x="107" y="-134" font-family="Helvetica,sans-Serif" font-size="10.00">+reconnect_attempts</text>
<text text-anchor="middle" x="107" y="-123" font-family="Helvetica,sans-Serif" font-size="10.00">+rt_cycle_count</text>
<text text-anchor="middle" x="107" y="-112" font-family="Helvetica,sans-Serif" font-size="10.00">+rt_cycle_max_ns</text>
<text text-anchor="middle" x="107" y="-101" font-family="Helvetica,sans-Serif" font-size="10.00">...</text>
</g>
<!-- Node3 -->
<g id="node3" class="node">
<title>Node3</title>
<g id="a_node3"><a xlink:title=" ">
<polygon fill="white" stroke="black" points="162.5,-248.5 162.5,-305.5 191.5,-305.5 191.5,-248.5 162.5,-248.5"/>
<text text-anchor="middle" x="177" y="-293.5" font-family="Helvetica,sans-Serif" font-size="10.00">int</text>
<polyline fill="none" stroke="black" points="162.5,-286.5 191.5,-286.5 "/>
<text text-anchor="middle" x="177" y="-274.5" font-family="Helvetica,sans-Serif" font-size="10.00"> </text>
<polyline fill="none" stroke="black" points="162.5,-267.5 191.5,-267.5 "/>
<text text-anchor="middle" x="177" y="-255.5" font-family="Helvetica,sans-Serif" font-size="10.00"> </text>
</a>
</g>
</g>
<!-- Node3&#45;&gt;Node1 -->
<g id="edge2" class="edge">
<title>Node3&#45;&gt;Node1</title>
<path fill="none" stroke="#404040" d="M170.93,-248.21C164.41,-212.08 157.5,-147.71 178,-98 179.18,-95.14 180.58,-92.34 182.15,-89.62"/>
<polygon fill="none" stroke="#404040" points="182.25,-89.47 182.3,-82.26 188.97,-79.53 188.93,-86.74 182.25,-89.47"/>
<text text-anchor="middle" x="223.5" y="-161.5" font-family="Helvetica,sans-Serif" font-size="10.00"> +current_position</text>
</g>
<!-- Node4 -->
<g id="node4" class="node">
<title>Node4</title>
<g id="a_node4"><a xlink:title=" ">
<polygon fill="white" stroke="black" points="248.5,-248.5 248.5,-305.5 333.5,-305.5 333.5,-248.5 248.5,-248.5"/>
<text text-anchor="middle" x="291" y="-293.5" font-family="Helvetica,sans-Serif" font-size="10.00">unsigned char</text>
<polyline fill="none" stroke="black" points="248.5,-286.5 333.5,-286.5 "/>
<text text-anchor="middle" x="291" y="-274.5" font-family="Helvetica,sans-Serif" font-size="10.00"> </text>
<polyline fill="none" stroke="black" points="248.5,-267.5 333.5,-267.5 "/>
<text text-anchor="middle" x="291" y="-255.5" font-family="Helvetica,sans-Serif" font-size="10.00"> </text>
</a>
</g>
</g>
<!-- Node4&#45;&gt;Node1 -->
<g id="edge3" class="edge">
<title>Node4&#45;&gt;Node1</title>
<path fill="none" stroke="#404040" d="M291.18,-248.34C290.61,-212.62 286.85,-148.99 269,-98 268.16,-95.6 267.21,-93.2 266.17,-90.81"/>
<polygon fill="none" stroke="#404040" points="266.05,-90.55 259.82,-86.92 260.77,-79.77 267,-83.4 266.05,-90.55"/>
<text text-anchor="middle" x="329" y="-172.5" font-family="Helvetica,sans-Serif" font-size="10.00"> +home_status</text>
<text text-anchor="middle" x="329" y="-161.5" font-family="Helvetica,sans-Serif" font-size="10.00">+limit_status_n</text>
<text text-anchor="middle" x="329" y="-150.5" font-family="Helvetica,sans-Serif" font-size="10.00">+limit_status_p</text>
</g>
<!-- Node5 -->
<g id="node5" class="node">
<title>Node5</title>
<g id="a_node5"><a xlink:title=" ">
<polygon fill="white" stroke="black" points="373,-248.5 373,-305.5 411,-305.5 411,-248.5 373,-248.5"/>
<text text-anchor="middle" x="392" y="-293.5" font-family="Helvetica,sans-Serif" font-size="10.00">bool</text>
<polyline fill="none" stroke="black" points="373,-286.5 411,-286.5 "/>
<text text-anchor="middle" x="392" y="-274.5" font-family="Helvetica,sans-Serif" font-size="10.00"> </text>
<polyline fill="none" stroke="black" points="373,-267.5 411,-267.5 "/>
<text text-anchor="middle" x="392" y="-255.5" font-family="Helvetica,sans-Serif" font-size="10.00"> </text>
</a>
</g>
</g>
<!-- Node5&#45;&gt;Node1 -->
<g id="edge4" class="edge">
<title>Node5&#45;&gt;Node1</title>
<path fill="none" stroke="#404040" d="M396.48,-248.48C401.05,-210.59 403.38,-142.05 370,-98 356.04,-79.58 335.02,-67.06 313.64,-58.58"/>
<polygon fill="none" stroke="#404040" points="313.4,-58.49 306.39,-60.19 302.12,-54.38 309.13,-52.68 313.4,-58.49"/>
<text text-anchor="middle" x="461.5" y="-178" font-family="Helvetica,sans-Serif" font-size="10.00"> +communication_ok</text>
<text text-anchor="middle" x="461.5" y="-167" font-family="Helvetica,sans-Serif" font-size="10.00">+device_connected</text>
<text text-anchor="middle" x="461.5" y="-156" font-family="Helvetica,sans-Serif" font-size="10.00">+emergency_active</text>
<text text-anchor="middle" x="461.5" y="-145" font-family="Helvetica,sans-Serif" font-size="10.00">+emergency_stop_active</text>
</g>
</g>
</svg>
