<?xml version="1.0" encoding="UTF-8" standalone="no"?>
<!DOCTYPE svg PUBLIC "-//W3C//DTD SVG 1.1//EN"
 "http://www.w3.org/Graphics/SVG/1.1/DTD/svg11.dtd">
<!-- Generated by graphviz version 2.43.0 (0)
 -->
<!-- Title: sPoKeysPWM Pages: 1 -->
<svg width="518pt" height="182pt"
 viewBox="0.00 0.00 517.50 182.00" xmlns="http://www.w3.org/2000/svg" xmlns:xlink="http://www.w3.org/1999/xlink">
<g id="graph0" class="graph" transform="scale(1 1) rotate(0) translate(4 178)">
<title>sPoKeysPWM</title>
<polygon fill="white" stroke="transparent" points="-4,4 -4,-178 513.5,-178 513.5,4 -4,4"/>
<!-- Node1 -->
<g id="node1" class="node">
<title>Node1</title>
<g id="a_node1"><a xlink:title=" ">
<polygon fill="#bfbfbf" stroke="black" points="191.5,-0.5 191.5,-57.5 273.5,-57.5 273.5,-0.5 191.5,-0.5"/>
<text text-anchor="middle" x="232.5" y="-45.5" font-family="Helvetica,sans-Serif" font-size="10.00">sPoKeysPWM</text>
<polyline fill="none" stroke="black" points="191.5,-38.5 273.5,-38.5 "/>
<text text-anchor="middle" x="232.5" y="-26.5" font-family="Helvetica,sans-Serif" font-size="10.00"> </text>
<polyline fill="none" stroke="black" points="191.5,-19.5 273.5,-19.5 "/>
<text text-anchor="middle" x="232.5" y="-7.5" font-family="Helvetica,sans-Serif" font-size="10.00"> </text>
</a>
</g>
</g>
<!-- Node2 -->
<g id="node2" class="node">
<title>Node2</title>
<g id="a_node2"><a xlink:title=" ">
<polygon fill="white" stroke="black" points="0,-116.5 0,-173.5 61,-173.5 61,-116.5 0,-116.5"/>
<text text-anchor="middle" x="30.5" y="-161.5" font-family="Helvetica,sans-Serif" font-size="10.00">unsigned</text>
<polyline fill="none" stroke="black" points="0,-154.5 61,-154.5 "/>
<text text-anchor="middle" x="30.5" y="-142.5" font-family="Helvetica,sans-Serif" font-size="10.00"> </text>
<polyline fill="none" stroke="black" points="0,-135.5 61,-135.5 "/>
<text text-anchor="middle" x="30.5" y="-123.5" font-family="Helvetica,sans-Serif" font-size="10.00"> </text>
</a>
</g>
</g>
<!-- Node2&#45;&gt;Node1 -->
<g id="edge1" class="edge">
<title>Node2&#45;&gt;Node1</title>
<path fill="none" stroke="#404040" d="M43.39,-116.39C51.18,-102.45 62.35,-86.35 76.5,-76 106.61,-53.98 147.2,-42.44 179.42,-36.42"/>
<polygon fill="none" stroke="#404040" points="179.5,-36.41 184.73,-31.45 191.32,-34.38 186.09,-39.33 179.5,-36.41"/>
<text text-anchor="middle" x="110" y="-90" font-family="Helvetica,sans-Serif" font-size="10.00"> +PWMperiod</text>
<text text-anchor="middle" x="110" y="-79" font-family="Helvetica,sans-Serif" font-size="10.00">+reserved</text>
</g>
<!-- Node3 -->
<g id="node3" class="node">
<title>Node3</title>
<g id="a_node3"><a xlink:title=" ">
<polygon fill="white" stroke="black" points="79.5,-116.5 79.5,-173.5 181.5,-173.5 181.5,-116.5 79.5,-116.5"/>
<text text-anchor="middle" x="130.5" y="-161.5" font-family="Helvetica,sans-Serif" font-size="10.00">volatile rtapi_u32</text>
<polyline fill="none" stroke="black" points="79.5,-154.5 181.5,-154.5 "/>
<text text-anchor="middle" x="130.5" y="-142.5" font-family="Helvetica,sans-Serif" font-size="10.00"> </text>
<polyline fill="none" stroke="black" points="79.5,-135.5 181.5,-135.5 "/>
<text text-anchor="middle" x="130.5" y="-123.5" font-family="Helvetica,sans-Serif" font-size="10.00"> </text>
</a>
</g>
</g>
<!-- Node3&#45;&gt;Node1 -->
<g id="edge2" class="edge">
<title>Node3&#45;&gt;Node1</title>
<path fill="none" stroke="#404040" d="M138.97,-116.46C144.01,-103.21 151.41,-87.69 161.5,-76 167.24,-69.35 174.17,-63.29 181.43,-57.92"/>
<polygon fill="none" stroke="#404040" points="181.56,-57.83 184.23,-51.13 191.44,-51.02 188.77,-57.72 181.56,-57.83"/>
<text text-anchor="middle" x="195" y="-90" font-family="Helvetica,sans-Serif" font-size="10.00"> +PWMperiod</text>
<text text-anchor="middle" x="195" y="-79" font-family="Helvetica,sans-Serif" font-size="10.00">+reserved</text>
</g>
<!-- Node4 -->
<g id="node4" class="node">
<title>Node4</title>
<g id="a_node4"><a xlink:title=" ">
<polygon fill="white" stroke="black" points="200,-116.5 200,-173.5 265,-173.5 265,-116.5 200,-116.5"/>
<text text-anchor="middle" x="232.5" y="-161.5" font-family="Helvetica,sans-Serif" font-size="10.00">uint32_t *</text>
<polyline fill="none" stroke="black" points="200,-154.5 265,-154.5 "/>
<text text-anchor="middle" x="232.5" y="-142.5" font-family="Helvetica,sans-Serif" font-size="10.00"> </text>
<polyline fill="none" stroke="black" points="200,-135.5 265,-135.5 "/>
<text text-anchor="middle" x="232.5" y="-123.5" font-family="Helvetica,sans-Serif" font-size="10.00"> </text>
</a>
</g>
</g>
<!-- Node4&#45;&gt;Node1 -->
<g id="edge3" class="edge">
<title>Node4&#45;&gt;Node1</title>
<path fill="none" stroke="#404040" d="M232.5,-116.4C232.5,-102.5 232.5,-85.39 232.5,-70.07"/>
<polygon fill="none" stroke="#404040" points="232.5,-69.74 228.5,-63.74 232.5,-57.74 236.5,-63.74 232.5,-69.74"/>
<text text-anchor="middle" x="261.5" y="-84.5" font-family="Helvetica,sans-Serif" font-size="10.00"> +PWMduty</text>
</g>
<!-- Node5 -->
<g id="node5" class="node">
<title>Node5</title>
<g id="a_node5"><a xlink:title=" ">
<polygon fill="white" stroke="black" points="283.5,-116.5 283.5,-173.5 355.5,-173.5 355.5,-116.5 283.5,-116.5"/>
<text text-anchor="middle" x="319.5" y="-161.5" font-family="Helvetica,sans-Serif" font-size="10.00">hal_u32_t *</text>
<polyline fill="none" stroke="black" points="283.5,-154.5 355.5,-154.5 "/>
<text text-anchor="middle" x="319.5" y="-142.5" font-family="Helvetica,sans-Serif" font-size="10.00"> </text>
<polyline fill="none" stroke="black" points="283.5,-135.5 355.5,-135.5 "/>
<text text-anchor="middle" x="319.5" y="-123.5" font-family="Helvetica,sans-Serif" font-size="10.00"> </text>
</a>
</g>
</g>
<!-- Node5&#45;&gt;Node1 -->
<g id="edge4" class="edge">
<title>Node5&#45;&gt;Node1</title>
<path fill="none" stroke="#404040" d="M313.29,-116.38C309.4,-103.26 303.39,-87.88 294.5,-76 291.07,-71.41 287.05,-67.07 282.74,-63.03"/>
<polygon fill="none" stroke="#404040" points="282.69,-62.98 275.53,-62.1 273.59,-55.16 280.74,-56.03 282.69,-62.98"/>
<text text-anchor="middle" x="334.5" y="-84.5" font-family="Helvetica,sans-Serif" font-size="10.00"> +PWMduty</text>
</g>
<!-- Node6 -->
<g id="node6" class="node">
<title>Node6</title>
<g id="a_node6"><a xlink:title=" ">
<polygon fill="white" stroke="black" points="374,-116.5 374,-173.5 459,-173.5 459,-116.5 374,-116.5"/>
<text text-anchor="middle" x="416.5" y="-161.5" font-family="Helvetica,sans-Serif" font-size="10.00">unsigned char</text>
<polyline fill="none" stroke="black" points="374,-154.5 459,-154.5 "/>
<text text-anchor="middle" x="416.5" y="-142.5" font-family="Helvetica,sans-Serif" font-size="10.00"> </text>
<polyline fill="none" stroke="black" points="374,-135.5 459,-135.5 "/>
<text text-anchor="middle" x="416.5" y="-123.5" font-family="Helvetica,sans-Serif" font-size="10.00"> </text>
</a>
</g>
</g>
<!-- Node6&#45;&gt;Node1 -->
<g id="edge5" class="edge">
<title>Node6&#45;&gt;Node1</title>
<path fill="none" stroke="#404040" d="M402.01,-116.29C393.56,-102.5 381.77,-86.56 367.5,-76 343.43,-58.17 311.96,-46.92 285.46,-40.01"/>
<polygon fill="none" stroke="#404040" points="285.34,-39.98 278.56,-42.45 273.68,-37.14 280.46,-34.68 285.34,-39.98"/>
<text text-anchor="middle" x="449" y="-90" font-family="Helvetica,sans-Serif" font-size="10.00"> +PWMenabledChannels</text>
<text text-anchor="middle" x="449" y="-79" font-family="Helvetica,sans-Serif" font-size="10.00">+PWMpinIDs</text>
</g>
</g>
</svg>
