<?xml version="1.0" encoding="UTF-8" standalone="no"?>
<!DOCTYPE svg PUBLIC "-//W3C//DTD SVG 1.1//EN"
 "http://www.w3.org/Graphics/SVG/1.1/DTD/svg11.dtd">
<!-- Generated by graphviz version 2.43.0 (0)
 -->
<!-- Title: sPoKeysOtherPeripherals Pages: 1 -->
<svg width="213pt" height="171pt"
 viewBox="0.00 0.00 212.50 171.00" xmlns="http://www.w3.org/2000/svg" xmlns:xlink="http://www.w3.org/1999/xlink">
<g id="graph0" class="graph" transform="scale(1 1) rotate(0) translate(4 167)">
<title>sPoKeysOtherPeripherals</title>
<polygon fill="white" stroke="transparent" points="-4,4 -4,-167 208.5,-167 208.5,4 -4,4"/>
<!-- Node1 -->
<g id="node1" class="node">
<title>Node1</title>
<g id="a_node1"><a xlink:title=" ">
<polygon fill="#bfbfbf" stroke="black" points="14,-0.5 14,-57.5 153,-57.5 153,-0.5 14,-0.5"/>
<text text-anchor="middle" x="83.5" y="-45.5" font-family="Helvetica,sans-Serif" font-size="10.00">sPoKeysOtherPeripherals</text>
<polyline fill="none" stroke="black" points="14,-38.5 153,-38.5 "/>
<text text-anchor="middle" x="83.5" y="-26.5" font-family="Helvetica,sans-Serif" font-size="10.00"> </text>
<polyline fill="none" stroke="black" points="14,-19.5 153,-19.5 "/>
<text text-anchor="middle" x="83.5" y="-7.5" font-family="Helvetica,sans-Serif" font-size="10.00"> </text>
</a>
</g>
</g>
<!-- Node2 -->
<g id="node2" class="node">
<title>Node2</title>
<g id="a_node2"><a xlink:title=" ">
<polygon fill="white" stroke="black" points="0,-105.5 0,-162.5 61,-162.5 61,-105.5 0,-105.5"/>
<text text-anchor="middle" x="30.5" y="-150.5" font-family="Helvetica,sans-Serif" font-size="10.00">unsigned</text>
<polyline fill="none" stroke="black" points="0,-143.5 61,-143.5 "/>
<text text-anchor="middle" x="30.5" y="-131.5" font-family="Helvetica,sans-Serif" font-size="10.00"> </text>
<polyline fill="none" stroke="black" points="0,-124.5 61,-124.5 "/>
<text text-anchor="middle" x="30.5" y="-112.5" font-family="Helvetica,sans-Serif" font-size="10.00"> </text>
</a>
</g>
</g>
<!-- Node2&#45;&gt;Node1 -->
<g id="edge1" class="edge">
<title>Node2&#45;&gt;Node1</title>
<path fill="none" stroke="#404040" d="M26.54,-105.31C26.3,-95.65 27.36,-84.99 31.5,-76 32.97,-72.82 34.77,-69.77 36.82,-66.86"/>
<polygon fill="none" stroke="#404040" points="36.9,-66.76 37.65,-59.58 44.56,-57.52 43.81,-64.69 36.9,-66.76"/>
<text text-anchor="middle" x="73.5" y="-79" font-family="Helvetica,sans-Serif" font-size="10.00"> +AnalogRCFilter</text>
</g>
<!-- Node3 -->
<g id="node3" class="node">
<title>Node3</title>
<g id="a_node3"><a xlink:title=" ">
<polygon fill="white" stroke="black" points="86.5,-105.5 86.5,-162.5 188.5,-162.5 188.5,-105.5 86.5,-105.5"/>
<text text-anchor="middle" x="137.5" y="-150.5" font-family="Helvetica,sans-Serif" font-size="10.00">volatile rtapi_u32</text>
<polyline fill="none" stroke="black" points="86.5,-143.5 188.5,-143.5 "/>
<text text-anchor="middle" x="137.5" y="-131.5" font-family="Helvetica,sans-Serif" font-size="10.00"> </text>
<polyline fill="none" stroke="black" points="86.5,-124.5 188.5,-124.5 "/>
<text text-anchor="middle" x="137.5" y="-112.5" font-family="Helvetica,sans-Serif" font-size="10.00"> </text>
</a>
</g>
</g>
<!-- Node3&#45;&gt;Node1 -->
<g id="edge2" class="edge">
<title>Node3&#45;&gt;Node1</title>
<path fill="none" stroke="#404040" d="M128.38,-105.45C124.83,-95.9 120.42,-85.28 115.5,-76 114.06,-73.29 112.5,-70.56 110.85,-67.84"/>
<polygon fill="none" stroke="#404040" points="110.72,-67.64 104.12,-64.75 104.24,-57.54 110.85,-60.43 110.72,-67.64"/>
<text text-anchor="middle" x="162.5" y="-79" font-family="Helvetica,sans-Serif" font-size="10.00"> +AnalogRCFilter</text>
</g>
</g>
</svg>
