<?xml version="1.0" encoding="UTF-8" standalone="no"?>
<!DOCTYPE svg PUBLIC "-//W3C//DTD SVG 1.1//EN"
 "http://www.w3.org/Graphics/SVG/1.1/DTD/svg11.dtd">
<!-- Generated by graphviz version 2.43.0 (0)
 -->
<!-- Title: PLANE_POINT Pages: 1 -->
<svg width="92pt" height="182pt"
 viewBox="0.00 0.00 92.00 182.00" xmlns="http://www.w3.org/2000/svg" xmlns:xlink="http://www.w3.org/1999/xlink">
<g id="graph0" class="graph" transform="scale(1 1) rotate(0) translate(4 178)">
<title>PLANE_POINT</title>
<polygon fill="white" stroke="transparent" points="-4,4 -4,-178 88,-178 88,4 -4,4"/>
<!-- Node1 -->
<g id="node1" class="node">
<title>Node1</title>
<g id="a_node1"><a xlink:title=" ">
<polygon fill="#bfbfbf" stroke="black" points="0,-0.5 0,-57.5 84,-57.5 84,-0.5 0,-0.5"/>
<text text-anchor="middle" x="42" y="-45.5" font-family="Helvetica,sans-Serif" font-size="10.00">PLANE_POINT</text>
<polyline fill="none" stroke="black" points="0,-38.5 84,-38.5 "/>
<text text-anchor="middle" x="42" y="-26.5" font-family="Helvetica,sans-Serif" font-size="10.00"> </text>
<polyline fill="none" stroke="black" points="0,-19.5 84,-19.5 "/>
<text text-anchor="middle" x="42" y="-7.5" font-family="Helvetica,sans-Serif" font-size="10.00"> </text>
</a>
</g>
</g>
<!-- Node2 -->
<g id="node2" class="node">
<title>Node2</title>
<g id="a_node2"><a xlink:title=" ">
<polygon fill="white" stroke="black" points="17,-116.5 17,-173.5 67,-173.5 67,-116.5 17,-116.5"/>
<text text-anchor="middle" x="42" y="-161.5" font-family="Helvetica,sans-Serif" font-size="10.00">double</text>
<polyline fill="none" stroke="black" points="17,-154.5 67,-154.5 "/>
<text text-anchor="middle" x="42" y="-142.5" font-family="Helvetica,sans-Serif" font-size="10.00"> </text>
<polyline fill="none" stroke="black" points="17,-135.5 67,-135.5 "/>
<text text-anchor="middle" x="42" y="-123.5" font-family="Helvetica,sans-Serif" font-size="10.00"> </text>
</a>
</g>
</g>
<!-- Node2&#45;&gt;Node1 -->
<g id="edge1" class="edge">
<title>Node2&#45;&gt;Node1</title>
<path fill="none" stroke="#404040" d="M42,-116.4C42,-102.5 42,-85.39 42,-70.07"/>
<polygon fill="none" stroke="#404040" points="42,-69.74 38,-63.74 42,-57.74 46,-63.74 42,-69.74"/>
<text text-anchor="middle" x="51.5" y="-90" font-family="Helvetica,sans-Serif" font-size="10.00"> +X</text>
<text text-anchor="middle" x="51.5" y="-79" font-family="Helvetica,sans-Serif" font-size="10.00">+Y</text>
</g>
</g>
</svg>
