<?xml version="1.0" encoding="UTF-8" standalone="no"?>
<!DOCTYPE svg PUBLIC "-//W3C//DTD SVG 1.1//EN"
 "http://www.w3.org/Graphics/SVG/1.1/DTD/svg11.dtd">
<!-- Generated by graphviz version 2.43.0 (0)
 -->
<!-- Title: REMOTE_SET_DIAG_INFO_REPLY Pages: 1 -->
<svg width="148pt" height="265pt"
 viewBox="0.00 0.00 148.00 265.00" xmlns="http://www.w3.org/2000/svg" xmlns:xlink="http://www.w3.org/1999/xlink">
<g id="graph0" class="graph" transform="scale(1 1) rotate(0) translate(4 261)">
<title>REMOTE_SET_DIAG_INFO_REPLY</title>
<polygon fill="white" stroke="transparent" points="-4,4 -4,-261 144,-261 144,4 -4,4"/>
<!-- Node1 -->
<g id="node1" class="node">
<title>Node1</title>
<g id="a_node1"><a xlink:title=" ">
<polygon fill="#bfbfbf" stroke="black" points="0,-0.5 0,-68.5 140,-68.5 140,-0.5 0,-0.5"/>
<text text-anchor="start" x="8" y="-56.5" font-family="Helvetica,sans-Serif" font-size="10.00">REMOTE_SET_DIAG_INFO</text>
<text text-anchor="middle" x="70" y="-45.5" font-family="Helvetica,sans-Serif" font-size="10.00">_REPLY</text>
<polyline fill="none" stroke="black" points="0,-38.5 140,-38.5 "/>
<text text-anchor="middle" x="70" y="-26.5" font-family="Helvetica,sans-Serif" font-size="10.00"> </text>
<polyline fill="none" stroke="black" points="0,-19.5 140,-19.5 "/>
<text text-anchor="middle" x="70" y="-7.5" font-family="Helvetica,sans-Serif" font-size="10.00"> </text>
</a>
</g>
</g>
<!-- Node2 -->
<g id="node2" class="node">
<title>Node2</title>
<g id="a_node2"><a xlink:href="structREMOTE__CMS__REPLY.html" target="_top" xlink:title=" ">
<polygon fill="white" stroke="black" points="1,-105.5 1,-162.5 139,-162.5 139,-105.5 1,-105.5"/>
<text text-anchor="middle" x="70" y="-150.5" font-family="Helvetica,sans-Serif" font-size="10.00">REMOTE_CMS_REPLY</text>
<polyline fill="none" stroke="black" points="1,-143.5 139,-143.5 "/>
<text text-anchor="start" x="9" y="-131.5" font-family="Helvetica,sans-Serif" font-size="10.00">+ status</text>
<polyline fill="none" stroke="black" points="1,-124.5 139,-124.5 "/>
<text text-anchor="start" x="9" y="-112.5" font-family="Helvetica,sans-Serif" font-size="10.00">+ REMOTE_CMS_REPLY()</text>
</a>
</g>
</g>
<!-- Node2&#45;&gt;Node1 -->
<g id="edge1" class="edge">
<title>Node2&#45;&gt;Node1</title>
<path fill="none" stroke="midnightblue" d="M70,-95.06C70,-86.39 70,-77.24 70,-68.79"/>
<polygon fill="none" stroke="midnightblue" points="66.5,-95.32 70,-105.32 73.5,-95.32 66.5,-95.32"/>
</g>
<!-- Node3 -->
<g id="node3" class="node">
<title>Node3</title>
<g id="a_node3"><a xlink:href="structREMOTE__CMS__MESSAGE.html" target="_top" xlink:title=" ">
<polygon fill="white" stroke="black" points="1,-199.5 1,-256.5 139,-256.5 139,-199.5 1,-199.5"/>
<text text-anchor="middle" x="70" y="-244.5" font-family="Helvetica,sans-Serif" font-size="10.00">REMOTE_CMS_MESSAGE</text>
<polyline fill="none" stroke="black" points="1,-237.5 139,-237.5 "/>
<text text-anchor="middle" x="70" y="-225.5" font-family="Helvetica,sans-Serif" font-size="10.00"> </text>
<polyline fill="none" stroke="black" points="1,-218.5 139,-218.5 "/>
<text text-anchor="middle" x="70" y="-206.5" font-family="Helvetica,sans-Serif" font-size="10.00"> </text>
</a>
</g>
</g>
<!-- Node3&#45;&gt;Node2 -->
<g id="edge2" class="edge">
<title>Node3&#45;&gt;Node2</title>
<path fill="none" stroke="midnightblue" d="M70,-189.21C70,-180.29 70,-170.95 70,-162.58"/>
<polygon fill="none" stroke="midnightblue" points="66.5,-189.4 70,-199.4 73.5,-189.4 66.5,-189.4"/>
</g>
</g>
</svg>
