<?xml version="1.0" encoding="UTF-8" standalone="no"?>
<!DOCTYPE svg PUBLIC "-//W3C//DTD SVG 1.1//EN"
 "http://www.w3.org/Graphics/SVG/1.1/DTD/svg11.dtd">
<!-- Generated by graphviz version 2.43.0 (0)
 -->
<!-- Title: all_PoNET_data_t Pages: 1 -->
<svg width="904pt" height="331pt"
 viewBox="0.00 0.00 904.00 331.00" xmlns="http://www.w3.org/2000/svg" xmlns:xlink="http://www.w3.org/1999/xlink">
<g id="graph0" class="graph" transform="scale(1 1) rotate(0) translate(4 327)">
<title>all_PoNET_data_t</title>
<polygon fill="white" stroke="transparent" points="-4,4 -4,-327 900,-327 900,4 -4,4"/>
<!-- Node1 -->
<g id="node1" class="node">
<title>Node1</title>
<g id="a_node1"><a xlink:title="Contains all PoNET&#45;related data for communication with PoKeys devices.">
<polygon fill="#bfbfbf" stroke="black" points="442.5,-0.5 442.5,-57.5 543.5,-57.5 543.5,-0.5 442.5,-0.5"/>
<text text-anchor="middle" x="493" y="-45.5" font-family="Helvetica,sans-Serif" font-size="10.00">all_PoNET_data_t</text>
<polyline fill="none" stroke="black" points="442.5,-38.5 543.5,-38.5 "/>
<text text-anchor="middle" x="493" y="-26.5" font-family="Helvetica,sans-Serif" font-size="10.00"> </text>
<polyline fill="none" stroke="black" points="442.5,-19.5 543.5,-19.5 "/>
<text text-anchor="middle" x="493" y="-7.5" font-family="Helvetica,sans-Serif" font-size="10.00"> </text>
</a>
</g>
</g>
<!-- Node2 -->
<g id="node2" class="node">
<title>Node2</title>
<g id="a_node2"><a xlink:href="structone__PoNET__data__t.html" target="_top" xlink:title="Structure holding HAL parameters and pin references for one PoNET device.">
<polygon fill="white" stroke="black" points="157.5,-111 157.5,-168 264.5,-168 264.5,-111 157.5,-111"/>
<text text-anchor="middle" x="211" y="-156" font-family="Helvetica,sans-Serif" font-size="10.00">one_PoNET_data_t</text>
<polyline fill="none" stroke="black" points="157.5,-149 264.5,-149 "/>
<text text-anchor="middle" x="211" y="-137" font-family="Helvetica,sans-Serif" font-size="10.00"> </text>
<polyline fill="none" stroke="black" points="157.5,-130 264.5,-130 "/>
<text text-anchor="middle" x="211" y="-118" font-family="Helvetica,sans-Serif" font-size="10.00"> </text>
</a>
</g>
</g>
<!-- Node2&#45;&gt;Node1 -->
<g id="edge1" class="edge">
<title>Node2&#45;&gt;Node1</title>
<path fill="none" stroke="#404040" d="M226.93,-110.7C235.47,-98.22 247.1,-84.44 261,-76 312.44,-44.75 381.03,-34.21 430.27,-30.9"/>
<polygon fill="none" stroke="#404040" points="430.37,-30.9 436.13,-26.56 442.35,-30.21 436.59,-34.55 430.37,-30.9"/>
<text text-anchor="middle" x="282.5" y="-79" font-family="Helvetica,sans-Serif" font-size="10.00"> +PoNET</text>
</g>
<!-- Node3 -->
<g id="node3" class="node">
<title>Node3</title>
<g id="a_node3"><a xlink:title=" ">
<polygon fill="white" stroke="black" points="0,-265.5 0,-322.5 102,-322.5 102,-265.5 0,-265.5"/>
<text text-anchor="middle" x="51" y="-310.5" font-family="Helvetica,sans-Serif" font-size="10.00">volatile rtapi_u32</text>
<polyline fill="none" stroke="black" points="0,-303.5 102,-303.5 "/>
<text text-anchor="middle" x="51" y="-291.5" font-family="Helvetica,sans-Serif" font-size="10.00"> </text>
<polyline fill="none" stroke="black" points="0,-284.5 102,-284.5 "/>
<text text-anchor="middle" x="51" y="-272.5" font-family="Helvetica,sans-Serif" font-size="10.00"> </text>
</a>
</g>
</g>
<!-- Node3&#45;&gt;Node1 -->
<g id="edge5" class="edge">
<title>Node3&#45;&gt;Node1</title>
<path fill="none" stroke="#404040" d="M39.38,-265.33C24.5,-225 4.89,-149.99 43,-105 91.91,-47.26 318.53,-33.93 430.31,-30.88"/>
<polygon fill="none" stroke="#404040" points="430.38,-30.88 436.28,-26.73 442.38,-30.58 436.48,-34.73 430.38,-30.88"/>
<text text-anchor="middle" x="95.5" y="-142.5" font-family="Helvetica,sans-Serif" font-size="10.00"> +PoNET_DevCount</text>
<text text-anchor="middle" x="95.5" y="-131.5" font-family="Helvetica,sans-Serif" font-size="10.00">+kbd48CNC_PoNetID</text>
</g>
<!-- Node3&#45;&gt;Node2 -->
<g id="edge2" class="edge">
<title>Node3&#45;&gt;Node2</title>
<path fill="none" stroke="#404040" d="M51.52,-265.34C53.43,-242.69 59.74,-211.34 79,-192 99.85,-171.07 115.41,-184.57 143,-174 144.02,-173.61 145.05,-173.21 146.08,-172.8"/>
<polygon fill="none" stroke="#404040" points="146.15,-172.77 150.13,-166.75 157.21,-168.11 153.23,-174.13 146.15,-172.77"/>
<text text-anchor="middle" x="139" y="-239" font-family="Helvetica,sans-Serif" font-size="10.00"> +PoNET_i2cAddress</text>
<text text-anchor="middle" x="139" y="-228" font-family="Helvetica,sans-Serif" font-size="10.00">+PoNET_moduleID</text>
<text text-anchor="middle" x="139" y="-217" font-family="Helvetica,sans-Serif" font-size="10.00">+PoNET_moduleOptions</text>
<text text-anchor="middle" x="139" y="-206" font-family="Helvetica,sans-Serif" font-size="10.00">+PoNET_moduleSize</text>
<text text-anchor="middle" x="139" y="-195" font-family="Helvetica,sans-Serif" font-size="10.00">+PoNET_moduleType</text>
</g>
<!-- Node4 -->
<g id="node4" class="node">
<title>Node4</title>
<g id="a_node4"><a xlink:title=" ">
<polygon fill="white" stroke="black" points="228,-265.5 228,-322.5 300,-322.5 300,-265.5 228,-265.5"/>
<text text-anchor="middle" x="264" y="-310.5" font-family="Helvetica,sans-Serif" font-size="10.00">hal_u32_t *</text>
<polyline fill="none" stroke="black" points="228,-303.5 300,-303.5 "/>
<text text-anchor="middle" x="264" y="-291.5" font-family="Helvetica,sans-Serif" font-size="10.00"> </text>
<polyline fill="none" stroke="black" points="228,-284.5 300,-284.5 "/>
<text text-anchor="middle" x="264" y="-272.5" font-family="Helvetica,sans-Serif" font-size="10.00"> </text>
</a>
</g>
</g>
<!-- Node4&#45;&gt;Node1 -->
<g id="edge4" class="edge">
<title>Node4&#45;&gt;Node1</title>
<path fill="none" stroke="#404040" d="M291.03,-265.36C295.79,-259.6 300.37,-253.33 304,-247 337.15,-189.21 308.88,-155.78 352,-105 372.82,-80.48 403.73,-62.78 431.3,-50.76"/>
<polygon fill="none" stroke="#404040" points="431.4,-50.72 435.4,-44.72 442.48,-46.11 438.47,-52.1 431.4,-50.72"/>
<text text-anchor="middle" x="421.5" y="-164.5" font-family="Helvetica,sans-Serif" font-size="10.00"> +PoNET_PWMduty</text>
<text text-anchor="middle" x="421.5" y="-153.5" font-family="Helvetica,sans-Serif" font-size="10.00">+PoNET_PoNETstatus</text>
<text text-anchor="middle" x="421.5" y="-142.5" font-family="Helvetica,sans-Serif" font-size="10.00">+PoNET_lightValue</text>
<text text-anchor="middle" x="421.5" y="-131.5" font-family="Helvetica,sans-Serif" font-size="10.00">+kbd48CNC_KeyBrightness</text>
<text text-anchor="middle" x="421.5" y="-120.5" font-family="Helvetica,sans-Serif" font-size="10.00">+kbd48CNC_lightValue</text>
<text text-anchor="middle" x="421.5" y="-109.5" font-family="Helvetica,sans-Serif" font-size="10.00">+kbd48CNC_prevBrightness</text>
</g>
<!-- Node4&#45;&gt;Node2 -->
<g id="edge3" class="edge">
<title>Node4&#45;&gt;Node2</title>
<path fill="none" stroke="#404040" d="M227.94,-269.25C221.08,-262.9 214.84,-255.42 211,-247 201.55,-226.29 201.19,-200.86 203.36,-180.04"/>
<polygon fill="none" stroke="#404040" points="203.37,-179.98 200.19,-173.51 204.94,-168.08 208.12,-174.55 203.37,-179.98"/>
<text text-anchor="middle" x="257.5" y="-222.5" font-family="Helvetica,sans-Serif" font-size="10.00"> +PoNET_statusIn</text>
<text text-anchor="middle" x="257.5" y="-211.5" font-family="Helvetica,sans-Serif" font-size="10.00">+PoNET_statusOut</text>
</g>
<!-- Node5 -->
<g id="node5" class="node">
<title>Node5</title>
<g id="a_node5"><a xlink:title=" ">
<polygon fill="white" stroke="black" points="530,-265.5 530,-322.5 568,-322.5 568,-265.5 530,-265.5"/>
<text text-anchor="middle" x="549" y="-310.5" font-family="Helvetica,sans-Serif" font-size="10.00">bool</text>
<polyline fill="none" stroke="black" points="530,-303.5 568,-303.5 "/>
<text text-anchor="middle" x="549" y="-291.5" font-family="Helvetica,sans-Serif" font-size="10.00"> </text>
<polyline fill="none" stroke="black" points="530,-284.5 568,-284.5 "/>
<text text-anchor="middle" x="549" y="-272.5" font-family="Helvetica,sans-Serif" font-size="10.00"> </text>
</a>
</g>
</g>
<!-- Node5&#45;&gt;Node1 -->
<g id="edge6" class="edge">
<title>Node5&#45;&gt;Node1</title>
<path fill="none" stroke="#404040" d="M535.59,-265.37C524.77,-241.71 510.22,-206.43 503,-174 495.29,-139.37 493.05,-99.01 492.59,-69.85"/>
<polygon fill="none" stroke="#404040" points="492.58,-69.69 488.54,-63.72 492.49,-57.69 496.53,-63.65 492.58,-69.69"/>
<text text-anchor="middle" x="559.5" y="-137" font-family="Helvetica,sans-Serif" font-size="10.00"> +kbd48CNC_available</text>
</g>
<!-- Node6 -->
<g id="node6" class="node">
<title>Node6</title>
<g id="a_node6"><a xlink:href="structone__kbd48CNCButton__data__t.html" target="_top" xlink:title="Represents a single button and LED pair on the kbd48CNC PoNET module.">
<polygon fill="white" stroke="black" points="624.5,-105.5 624.5,-173.5 747.5,-173.5 747.5,-105.5 624.5,-105.5"/>
<text text-anchor="start" x="632.5" y="-161.5" font-family="Helvetica,sans-Serif" font-size="10.00">one_kbd48CNCButton</text>
<text text-anchor="middle" x="686" y="-150.5" font-family="Helvetica,sans-Serif" font-size="10.00">_data_t</text>
<polyline fill="none" stroke="black" points="624.5,-143.5 747.5,-143.5 "/>
<text text-anchor="middle" x="686" y="-131.5" font-family="Helvetica,sans-Serif" font-size="10.00"> </text>
<polyline fill="none" stroke="black" points="624.5,-124.5 747.5,-124.5 "/>
<text text-anchor="middle" x="686" y="-112.5" font-family="Helvetica,sans-Serif" font-size="10.00"> </text>
</a>
</g>
</g>
<!-- Node5&#45;&gt;Node6 -->
<g id="edge8" class="edge">
<title>Node5&#45;&gt;Node6</title>
<path fill="none" stroke="#404040" d="M568.05,-271.8C588.68,-248.83 622.13,-211.59 648.15,-182.63"/>
<polygon fill="none" stroke="#404040" points="648.29,-182.48 649.32,-175.34 656.31,-173.55 655.28,-180.69 648.29,-182.48"/>
<text text-anchor="middle" x="659" y="-222.5" font-family="Helvetica,sans-Serif" font-size="10.00"> +Button</text>
<text text-anchor="middle" x="659" y="-211.5" font-family="Helvetica,sans-Serif" font-size="10.00">+LED</text>
</g>
<!-- Node6&#45;&gt;Node1 -->
<g id="edge7" class="edge">
<title>Node6&#45;&gt;Node1</title>
<path fill="none" stroke="#404040" d="M627.04,-105.36C603.49,-92.12 576.41,-76.89 552.77,-63.6"/>
<polygon fill="none" stroke="#404040" points="552.64,-63.53 545.45,-64.08 542.18,-57.65 549.37,-57.1 552.64,-63.53"/>
<text text-anchor="middle" x="625" y="-79" font-family="Helvetica,sans-Serif" font-size="10.00"> +kbd48CNCio</text>
</g>
<!-- Node7 -->
<g id="node7" class="node">
<title>Node7</title>
<g id="a_node7"><a xlink:title=" ">
<polygon fill="white" stroke="black" points="766,-111 766,-168 804,-168 804,-111 766,-111"/>
<text text-anchor="middle" x="785" y="-156" font-family="Helvetica,sans-Serif" font-size="10.00">char</text>
<polyline fill="none" stroke="black" points="766,-149 804,-149 "/>
<text text-anchor="middle" x="785" y="-137" font-family="Helvetica,sans-Serif" font-size="10.00"> </text>
<polyline fill="none" stroke="black" points="766,-130 804,-130 "/>
<text text-anchor="middle" x="785" y="-118" font-family="Helvetica,sans-Serif" font-size="10.00"> </text>
</a>
</g>
</g>
<!-- Node7&#45;&gt;Node1 -->
<g id="edge9" class="edge">
<title>Node7&#45;&gt;Node1</title>
<path fill="none" stroke="#404040" d="M765.9,-112.43C763.14,-109.67 760.15,-107.11 757,-105 695.77,-64 612.17,-45.17 555.58,-36.68"/>
<polygon fill="none" stroke="#404040" points="555.46,-36.66 548.95,-39.78 543.58,-34.98 550.08,-31.86 555.46,-36.66"/>
<text text-anchor="middle" x="777" y="-79" font-family="Helvetica,sans-Serif" font-size="10.00"> +kbd48CNC_Counter</text>
</g>
<!-- Node8 -->
<g id="node8" class="node">
<title>Node8</title>
<g id="a_node8"><a xlink:title=" ">
<polygon fill="white" stroke="black" points="858.5,-111 858.5,-168 887.5,-168 887.5,-111 858.5,-111"/>
<text text-anchor="middle" x="873" y="-156" font-family="Helvetica,sans-Serif" font-size="10.00">int</text>
<polyline fill="none" stroke="black" points="858.5,-149 887.5,-149 "/>
<text text-anchor="middle" x="873" y="-137" font-family="Helvetica,sans-Serif" font-size="10.00"> </text>
<polyline fill="none" stroke="black" points="858.5,-130 887.5,-130 "/>
<text text-anchor="middle" x="873" y="-118" font-family="Helvetica,sans-Serif" font-size="10.00"> </text>
</a>
</g>
</g>
<!-- Node8&#45;&gt;Node1 -->
<g id="edge10" class="edge">
<title>Node8&#45;&gt;Node1</title>
<path fill="none" stroke="#404040" d="M862.27,-110.73C855.95,-98.11 846.68,-84.19 834,-76 789.28,-47.12 641.54,-36.15 555.9,-32.16"/>
<polygon fill="none" stroke="#404040" points="555.73,-32.15 549.56,-35.88 543.74,-31.62 549.91,-27.89 555.73,-32.15"/>
<text text-anchor="middle" x="870.5" y="-79" font-family="Helvetica,sans-Serif" font-size="10.00"> +deb_out</text>
</g>
</g>
</svg>
