<?xml version="1.0" encoding="UTF-8" standalone="no"?>
<!DOCTYPE svg PUBLIC "-//W3C//DTD SVG 1.1//EN"
 "http://www.w3.org/Graphics/SVG/1.1/DTD/svg11.dtd">
<!-- Generated by graphviz version 2.43.0 (0)
 -->
<!-- Title: one_sequence_home_data_t Pages: 1 -->
<svg width="297pt" height="204pt"
 viewBox="0.00 0.00 296.50 204.00" xmlns="http://www.w3.org/2000/svg" xmlns:xlink="http://www.w3.org/1999/xlink">
<g id="graph0" class="graph" transform="scale(1 1) rotate(0) translate(4 200)">
<title>one_sequence_home_data_t</title>
<polygon fill="white" stroke="transparent" points="-4,4 -4,-200 292.5,-200 292.5,4 -4,4"/>
<!-- Node1 -->
<g id="node1" class="node">
<title>Node1</title>
<g id="a_node1"><a xlink:title="Repräsentiert eine einzelne Homing&#45;Sequenz mit einer Gruppe von Achsen (Joints).">
<polygon fill="#bfbfbf" stroke="black" points="62,-0.5 62,-57.5 217,-57.5 217,-0.5 62,-0.5"/>
<text text-anchor="middle" x="139.5" y="-45.5" font-family="Helvetica,sans-Serif" font-size="10.00">one_sequence_home_data_t</text>
<polyline fill="none" stroke="black" points="62,-38.5 217,-38.5 "/>
<text text-anchor="middle" x="139.5" y="-26.5" font-family="Helvetica,sans-Serif" font-size="10.00"> </text>
<polyline fill="none" stroke="black" points="62,-19.5 217,-19.5 "/>
<text text-anchor="middle" x="139.5" y="-7.5" font-family="Helvetica,sans-Serif" font-size="10.00"> </text>
</a>
</g>
</g>
<!-- Node2 -->
<g id="node2" class="node">
<title>Node2</title>
<g id="a_node2"><a xlink:title=" ">
<polygon fill="white" stroke="black" points="0,-138.5 0,-195.5 29,-195.5 29,-138.5 0,-138.5"/>
<text text-anchor="middle" x="14.5" y="-183.5" font-family="Helvetica,sans-Serif" font-size="10.00">int</text>
<polyline fill="none" stroke="black" points="0,-176.5 29,-176.5 "/>
<text text-anchor="middle" x="14.5" y="-164.5" font-family="Helvetica,sans-Serif" font-size="10.00"> </text>
<polyline fill="none" stroke="black" points="0,-157.5 29,-157.5 "/>
<text text-anchor="middle" x="14.5" y="-145.5" font-family="Helvetica,sans-Serif" font-size="10.00"> </text>
</a>
</g>
</g>
<!-- Node2&#45;&gt;Node1 -->
<g id="edge1" class="edge">
<title>Node2&#45;&gt;Node1</title>
<path fill="none" stroke="#404040" d="M13.94,-138.39C14.94,-118.97 19.26,-93.44 33.5,-76 38.66,-69.68 44.85,-64.21 51.62,-59.48"/>
<polygon fill="none" stroke="#404040" points="51.72,-59.42 54.68,-52.85 61.89,-53.06 58.92,-59.63 51.72,-59.42"/>
<text text-anchor="middle" x="84.5" y="-112" font-family="Helvetica,sans-Serif" font-size="10.00"> +home_sequence</text>
<text text-anchor="middle" x="84.5" y="-101" font-family="Helvetica,sans-Serif" font-size="10.00">+joint_ids</text>
<text text-anchor="middle" x="84.5" y="-90" font-family="Helvetica,sans-Serif" font-size="10.00">+joints_in_sequence</text>
<text text-anchor="middle" x="84.5" y="-79" font-family="Helvetica,sans-Serif" font-size="10.00">+next_sequence</text>
</g>
<!-- Node3 -->
<g id="node3" class="node">
<title>Node3</title>
<g id="a_node3"><a xlink:title=" ">
<polygon fill="white" stroke="black" points="120.5,-138.5 120.5,-195.5 158.5,-195.5 158.5,-138.5 120.5,-138.5"/>
<text text-anchor="middle" x="139.5" y="-183.5" font-family="Helvetica,sans-Serif" font-size="10.00">bool</text>
<polyline fill="none" stroke="black" points="120.5,-176.5 158.5,-176.5 "/>
<text text-anchor="middle" x="139.5" y="-164.5" font-family="Helvetica,sans-Serif" font-size="10.00"> </text>
<polyline fill="none" stroke="black" points="120.5,-157.5 158.5,-157.5 "/>
<text text-anchor="middle" x="139.5" y="-145.5" font-family="Helvetica,sans-Serif" font-size="10.00"> </text>
</a>
</g>
</g>
<!-- Node3&#45;&gt;Node1 -->
<g id="edge2" class="edge">
<title>Node3&#45;&gt;Node1</title>
<path fill="none" stroke="#404040" d="M139.5,-138.48C139.5,-118.79 139.5,-91.99 139.5,-69.95"/>
<polygon fill="none" stroke="#404040" points="139.5,-69.95 135.5,-63.95 139.5,-57.95 143.5,-63.95 139.5,-69.95"/>
<text text-anchor="middle" x="162.5" y="-106.5" font-family="Helvetica,sans-Serif" font-size="10.00"> +homed</text>
<text text-anchor="middle" x="162.5" y="-95.5" font-family="Helvetica,sans-Serif" font-size="10.00">+homing</text>
<text text-anchor="middle" x="162.5" y="-84.5" font-family="Helvetica,sans-Serif" font-size="10.00">+is_last</text>
</g>
<!-- Node4 -->
<g id="node4" class="node">
<title>Node4</title>
<g id="a_node4"><a xlink:title=" ">
<polygon fill="white" stroke="black" points="176.5,-138.5 176.5,-195.5 288.5,-195.5 288.5,-138.5 176.5,-138.5"/>
<text text-anchor="middle" x="232.5" y="-183.5" font-family="Helvetica,sans-Serif" font-size="10.00">local_home_state_t</text>
<polyline fill="none" stroke="black" points="176.5,-176.5 288.5,-176.5 "/>
<text text-anchor="middle" x="232.5" y="-164.5" font-family="Helvetica,sans-Serif" font-size="10.00"> </text>
<polyline fill="none" stroke="black" points="176.5,-157.5 288.5,-157.5 "/>
<text text-anchor="middle" x="232.5" y="-145.5" font-family="Helvetica,sans-Serif" font-size="10.00"> </text>
</a>
</g>
</g>
<!-- Node4&#45;&gt;Node1 -->
<g id="edge3" class="edge">
<title>Node4&#45;&gt;Node1</title>
<path fill="none" stroke="#404040" d="M222.4,-138.11C214.92,-119.51 203.6,-95.08 189.5,-76 187.04,-72.67 184.32,-69.4 181.45,-66.22"/>
<polygon fill="none" stroke="#404040" points="181.42,-66.18 174.37,-64.64 173.08,-57.55 180.12,-59.09 181.42,-66.18"/>
<text text-anchor="middle" x="248.5" y="-95.5" font-family="Helvetica,sans-Serif" font-size="10.00"> +home_state</text>
</g>
</g>
</svg>
