<?xml version="1.0" encoding="UTF-8" standalone="no"?>
<!DOCTYPE svg PUBLIC "-//W3C//DTD SVG 1.1//EN"
 "http://www.w3.org/Graphics/SVG/1.1/DTD/svg11.dtd">
<!-- Generated by graphviz version 2.43.0 (0)
 -->
<!-- Title: REMOTE_GET_KEYS_REPLY Pages: 1 -->
<svg width="255pt" height="287pt"
 viewBox="0.00 0.00 254.50 287.00" xmlns="http://www.w3.org/2000/svg" xmlns:xlink="http://www.w3.org/1999/xlink">
<g id="graph0" class="graph" transform="scale(1 1) rotate(0) translate(4 283)">
<title>REMOTE_GET_KEYS_REPLY</title>
<polygon fill="white" stroke="transparent" points="-4,4 -4,-283 250.5,-283 250.5,4 -4,4"/>
<!-- Node1 -->
<g id="node1" class="node">
<title>Node1</title>
<g id="a_node1"><a xlink:title=" ">
<polygon fill="#bfbfbf" stroke="black" points="99.5,-0.5 99.5,-57.5 246.5,-57.5 246.5,-0.5 99.5,-0.5"/>
<text text-anchor="middle" x="173" y="-45.5" font-family="Helvetica,sans-Serif" font-size="10.00">REMOTE_GET_KEYS_REPLY</text>
<polyline fill="none" stroke="black" points="99.5,-38.5 246.5,-38.5 "/>
<text text-anchor="middle" x="173" y="-26.5" font-family="Helvetica,sans-Serif" font-size="10.00"> </text>
<polyline fill="none" stroke="black" points="99.5,-19.5 246.5,-19.5 "/>
<text text-anchor="middle" x="173" y="-7.5" font-family="Helvetica,sans-Serif" font-size="10.00"> </text>
</a>
</g>
</g>
<!-- Node2 -->
<g id="node2" class="node">
<title>Node2</title>
<g id="a_node2"><a xlink:href="structREMOTE__CMS__REPLY.html" target="_top" xlink:title=" ">
<polygon fill="white" stroke="black" points="51,-116.5 51,-173.5 189,-173.5 189,-116.5 51,-116.5"/>
<text text-anchor="middle" x="120" y="-161.5" font-family="Helvetica,sans-Serif" font-size="10.00">REMOTE_CMS_REPLY</text>
<polyline fill="none" stroke="black" points="51,-154.5 189,-154.5 "/>
<text text-anchor="middle" x="120" y="-142.5" font-family="Helvetica,sans-Serif" font-size="10.00"> </text>
<polyline fill="none" stroke="black" points="51,-135.5 189,-135.5 "/>
<text text-anchor="start" x="59" y="-123.5" font-family="Helvetica,sans-Serif" font-size="10.00">+ REMOTE_CMS_REPLY()</text>
</a>
</g>
</g>
<!-- Node2&#45;&gt;Node1 -->
<g id="edge1" class="edge">
<title>Node2&#45;&gt;Node1</title>
<path fill="none" stroke="midnightblue" d="M137.08,-107.27C144.55,-91.19 153.18,-72.63 160.1,-57.74"/>
<polygon fill="none" stroke="midnightblue" points="133.87,-105.86 132.83,-116.4 140.22,-108.81 133.87,-105.86"/>
</g>
<!-- Node3 -->
<g id="node3" class="node">
<title>Node3</title>
<g id="a_node3"><a xlink:href="structREMOTE__CMS__MESSAGE.html" target="_top" xlink:title=" ">
<polygon fill="white" stroke="black" points="0,-221.5 0,-278.5 138,-278.5 138,-221.5 0,-221.5"/>
<text text-anchor="middle" x="69" y="-266.5" font-family="Helvetica,sans-Serif" font-size="10.00">REMOTE_CMS_MESSAGE</text>
<polyline fill="none" stroke="black" points="0,-259.5 138,-259.5 "/>
<text text-anchor="middle" x="69" y="-247.5" font-family="Helvetica,sans-Serif" font-size="10.00"> </text>
<polyline fill="none" stroke="black" points="0,-240.5 138,-240.5 "/>
<text text-anchor="middle" x="69" y="-228.5" font-family="Helvetica,sans-Serif" font-size="10.00"> </text>
</a>
</g>
</g>
<!-- Node3&#45;&gt;Node2 -->
<g id="edge2" class="edge">
<title>Node3&#45;&gt;Node2</title>
<path fill="none" stroke="midnightblue" d="M87.12,-212.4C93.43,-199.66 100.4,-185.58 106.3,-173.68"/>
<polygon fill="none" stroke="midnightblue" points="83.97,-210.88 82.67,-221.4 90.24,-213.99 83.97,-210.88"/>
</g>
<!-- Node4 -->
<g id="node4" class="node">
<title>Node4</title>
<g id="a_node4"><a xlink:title=" ">
<polygon fill="white" stroke="black" points="156.5,-221.5 156.5,-278.5 185.5,-278.5 185.5,-221.5 156.5,-221.5"/>
<text text-anchor="middle" x="171" y="-266.5" font-family="Helvetica,sans-Serif" font-size="10.00">int</text>
<polyline fill="none" stroke="black" points="156.5,-259.5 185.5,-259.5 "/>
<text text-anchor="middle" x="171" y="-247.5" font-family="Helvetica,sans-Serif" font-size="10.00"> </text>
<polyline fill="none" stroke="black" points="156.5,-240.5 185.5,-240.5 "/>
<text text-anchor="middle" x="171" y="-228.5" font-family="Helvetica,sans-Serif" font-size="10.00"> </text>
</a>
</g>
</g>
<!-- Node4&#45;&gt;Node2 -->
<g id="edge3" class="edge">
<title>Node4&#45;&gt;Node2</title>
<path fill="none" stroke="#404040" d="M157.33,-221.4C151.73,-210.08 145.15,-196.79 139.09,-184.54"/>
<polygon fill="none" stroke="#404040" points="139.03,-184.43 132.78,-180.83 133.7,-173.68 139.95,-177.28 139.03,-184.43"/>
<text text-anchor="middle" x="169" y="-195" font-family="Helvetica,sans-Serif" font-size="10.00"> +status</text>
</g>
<!-- Node5 -->
<g id="node5" class="node">
<title>Node5</title>
<g id="a_node5"><a xlink:title=" ">
<polygon fill="white" stroke="black" points="207,-116.5 207,-173.5 245,-173.5 245,-116.5 207,-116.5"/>
<text text-anchor="middle" x="226" y="-161.5" font-family="Helvetica,sans-Serif" font-size="10.00">char</text>
<polyline fill="none" stroke="black" points="207,-154.5 245,-154.5 "/>
<text text-anchor="middle" x="226" y="-142.5" font-family="Helvetica,sans-Serif" font-size="10.00"> </text>
<polyline fill="none" stroke="black" points="207,-135.5 245,-135.5 "/>
<text text-anchor="middle" x="226" y="-123.5" font-family="Helvetica,sans-Serif" font-size="10.00"> </text>
</a>
</g>
</g>
<!-- Node5&#45;&gt;Node1 -->
<g id="edge4" class="edge">
<title>Node5&#45;&gt;Node1</title>
<path fill="none" stroke="#404040" d="M213.17,-116.4C206.51,-102.09 198.27,-84.36 190.99,-68.7"/>
<polygon fill="none" stroke="#404040" points="190.95,-68.62 184.8,-64.86 185.9,-57.74 192.05,-61.49 190.95,-68.62"/>
<text text-anchor="middle" x="221.5" y="-90" font-family="Helvetica,sans-Serif" font-size="10.00"> +key1</text>
<text text-anchor="middle" x="221.5" y="-79" font-family="Helvetica,sans-Serif" font-size="10.00">+key2</text>
</g>
</g>
</svg>
