<?xml version="1.0" encoding="UTF-8" standalone="no"?>
<!DOCTYPE svg PUBLIC "-//W3C//DTD SVG 1.1//EN"
 "http://www.w3.org/Graphics/SVG/1.1/DTD/svg11.dtd">
<!-- Generated by graphviz version 2.43.0 (0)
 -->
<!-- Title: one_adcout_data_t Pages: 1 -->
<svg width="248pt" height="226pt"
 viewBox="0.00 0.00 248.00 226.00" xmlns="http://www.w3.org/2000/svg" xmlns:xlink="http://www.w3.org/1999/xlink">
<g id="graph0" class="graph" transform="scale(1 1) rotate(0) translate(4 222)">
<title>one_adcout_data_t</title>
<polygon fill="white" stroke="transparent" points="-4,4 -4,-222 244,-222 244,4 -4,4"/>
<!-- Node1 -->
<g id="node1" class="node">
<title>Node1</title>
<g id="a_node1"><a xlink:title=" ">
<polygon fill="#bfbfbf" stroke="black" points="58.5,-0.5 58.5,-57.5 167.5,-57.5 167.5,-0.5 58.5,-0.5"/>
<text text-anchor="middle" x="113" y="-45.5" font-family="Helvetica,sans-Serif" font-size="10.00">one_adcout_data_t</text>
<polyline fill="none" stroke="black" points="58.5,-38.5 167.5,-38.5 "/>
<text text-anchor="middle" x="113" y="-26.5" font-family="Helvetica,sans-Serif" font-size="10.00"> </text>
<polyline fill="none" stroke="black" points="58.5,-19.5 167.5,-19.5 "/>
<text text-anchor="middle" x="113" y="-7.5" font-family="Helvetica,sans-Serif" font-size="10.00"> </text>
</a>
</g>
</g>
<!-- Node2 -->
<g id="node2" class="node">
<title>Node2</title>
<g id="a_node2"><a xlink:title=" ">
<polygon fill="white" stroke="black" points="0,-160.5 0,-217.5 56,-217.5 56,-160.5 0,-160.5"/>
<text text-anchor="middle" x="28" y="-205.5" font-family="Helvetica,sans-Serif" font-size="10.00">uint32_t</text>
<polyline fill="none" stroke="black" points="0,-198.5 56,-198.5 "/>
<text text-anchor="middle" x="28" y="-186.5" font-family="Helvetica,sans-Serif" font-size="10.00"> </text>
<polyline fill="none" stroke="black" points="0,-179.5 56,-179.5 "/>
<text text-anchor="middle" x="28" y="-167.5" font-family="Helvetica,sans-Serif" font-size="10.00"> </text>
</a>
</g>
</g>
<!-- Node2&#45;&gt;Node1 -->
<g id="edge1" class="edge">
<title>Node2&#45;&gt;Node1</title>
<path fill="none" stroke="#404040" d="M26.91,-160.1C27.26,-136.06 30.95,-101.32 47,-76 49.24,-72.47 51.85,-69.14 54.73,-66.01"/>
<polygon fill="none" stroke="#404040" points="54.74,-66 56.31,-58.96 63.41,-57.71 61.84,-64.75 54.74,-66"/>
<text text-anchor="middle" x="78" y="-117.5" font-family="Helvetica,sans-Serif" font-size="10.00"> +PinId</text>
<text text-anchor="middle" x="78" y="-106.5" font-family="Helvetica,sans-Serif" font-size="10.00">+deb_out</text>
<text text-anchor="middle" x="78" y="-95.5" font-family="Helvetica,sans-Serif" font-size="10.00">+deb_setval</text>
</g>
<!-- Node3 -->
<g id="node3" class="node">
<title>Node3</title>
<g id="a_node3"><a xlink:title=" ">
<polygon fill="white" stroke="black" points="79,-160.5 79,-217.5 147,-217.5 147,-160.5 79,-160.5"/>
<text text-anchor="middle" x="113" y="-205.5" font-family="Helvetica,sans-Serif" font-size="10.00">hal_float_t</text>
<polyline fill="none" stroke="black" points="79,-198.5 147,-198.5 "/>
<text text-anchor="middle" x="113" y="-186.5" font-family="Helvetica,sans-Serif" font-size="10.00"> </text>
<polyline fill="none" stroke="black" points="79,-179.5 147,-179.5 "/>
<text text-anchor="middle" x="113" y="-167.5" font-family="Helvetica,sans-Serif" font-size="10.00"> </text>
</a>
</g>
</g>
<!-- Node3&#45;&gt;Node1 -->
<g id="edge2" class="edge">
<title>Node3&#45;&gt;Node1</title>
<path fill="none" stroke="#404040" d="M113,-160.48C113,-135.48 113,-98.31 113,-70.03"/>
<polygon fill="none" stroke="#404040" points="113,-69.74 109,-63.74 113,-57.74 117,-63.74 113,-69.74"/>
<text text-anchor="middle" x="143.5" y="-134" font-family="Helvetica,sans-Serif" font-size="10.00"> +high_limit</text>
<text text-anchor="middle" x="143.5" y="-123" font-family="Helvetica,sans-Serif" font-size="10.00">+low_limit</text>
<text text-anchor="middle" x="143.5" y="-112" font-family="Helvetica,sans-Serif" font-size="10.00">+max_v</text>
<text text-anchor="middle" x="143.5" y="-101" font-family="Helvetica,sans-Serif" font-size="10.00">+offset</text>
<text text-anchor="middle" x="143.5" y="-90" font-family="Helvetica,sans-Serif" font-size="10.00">+scale</text>
<text text-anchor="middle" x="143.5" y="-79" font-family="Helvetica,sans-Serif" font-size="10.00">+value</text>
</g>
<!-- Node4 -->
<g id="node4" class="node">
<title>Node4</title>
<g id="a_node4"><a xlink:title=" ">
<polygon fill="white" stroke="black" points="178,-160.5 178,-217.5 216,-217.5 216,-160.5 178,-160.5"/>
<text text-anchor="middle" x="197" y="-205.5" font-family="Helvetica,sans-Serif" font-size="10.00">bool</text>
<polyline fill="none" stroke="black" points="178,-198.5 216,-198.5 "/>
<text text-anchor="middle" x="197" y="-186.5" font-family="Helvetica,sans-Serif" font-size="10.00"> </text>
<polyline fill="none" stroke="black" points="178,-179.5 216,-179.5 "/>
<text text-anchor="middle" x="197" y="-167.5" font-family="Helvetica,sans-Serif" font-size="10.00"> </text>
</a>
</g>
</g>
<!-- Node4&#45;&gt;Node1 -->
<g id="edge3" class="edge">
<title>Node4&#45;&gt;Node1</title>
<path fill="none" stroke="#404040" d="M197.02,-160.18C195.82,-136.18 191.08,-101.47 175,-76 172.85,-72.6 170.36,-69.37 167.63,-66.3"/>
<polygon fill="none" stroke="#404040" points="167.38,-66.06 160.3,-64.71 158.83,-57.65 165.91,-59 167.38,-66.06"/>
<text text-anchor="middle" x="217.5" y="-106.5" font-family="Helvetica,sans-Serif" font-size="10.00"> +enable</text>
</g>
</g>
</svg>
