<?xml version="1.0" encoding="UTF-8" standalone="no"?>
<!DOCTYPE svg PUBLIC "-//W3C//DTD SVG 1.1//EN"
 "http://www.w3.org/Graphics/SVG/1.1/DTD/svg11.dtd">
<!-- Generated by graphviz version 2.43.0 (0)
 -->
<!-- Title: PKEncoderCfgAsyncContext Pages: 1 -->
<svg width="203pt" height="171pt"
 viewBox="0.00 0.00 202.50 171.00" xmlns="http://www.w3.org/2000/svg" xmlns:xlink="http://www.w3.org/1999/xlink">
<g id="graph0" class="graph" transform="scale(1 1) rotate(0) translate(4 167)">
<title>PKEncoderCfgAsyncContext</title>
<polygon fill="white" stroke="transparent" points="-4,4 -4,-167 198.5,-167 198.5,4 -4,4"/>
<!-- Node1 -->
<g id="node1" class="node">
<title>Node1</title>
<g id="a_node1"><a xlink:title=" ">
<polygon fill="#bfbfbf" stroke="black" points="25.5,-0.5 25.5,-57.5 177.5,-57.5 177.5,-0.5 25.5,-0.5"/>
<text text-anchor="middle" x="101.5" y="-45.5" font-family="Helvetica,sans-Serif" font-size="10.00">PKEncoderCfgAsyncContext</text>
<polyline fill="none" stroke="black" points="25.5,-38.5 177.5,-38.5 "/>
<text text-anchor="middle" x="101.5" y="-26.5" font-family="Helvetica,sans-Serif" font-size="10.00"> </text>
<polyline fill="none" stroke="black" points="25.5,-19.5 177.5,-19.5 "/>
<text text-anchor="middle" x="101.5" y="-7.5" font-family="Helvetica,sans-Serif" font-size="10.00"> </text>
</a>
</g>
</g>
<!-- Node2 -->
<g id="node2" class="node">
<title>Node2</title>
<g id="a_node2"><a xlink:title=" ">
<polygon fill="white" stroke="black" points="0,-105.5 0,-162.5 107,-162.5 107,-105.5 0,-105.5"/>
<text text-anchor="middle" x="53.5" y="-150.5" font-family="Helvetica,sans-Serif" font-size="10.00">PKEncoderCfgStep</text>
<polyline fill="none" stroke="black" points="0,-143.5 107,-143.5 "/>
<text text-anchor="middle" x="53.5" y="-131.5" font-family="Helvetica,sans-Serif" font-size="10.00"> </text>
<polyline fill="none" stroke="black" points="0,-124.5 107,-124.5 "/>
<text text-anchor="middle" x="53.5" y="-112.5" font-family="Helvetica,sans-Serif" font-size="10.00"> </text>
</a>
</g>
</g>
<!-- Node2&#45;&gt;Node1 -->
<g id="edge1" class="edge">
<title>Node2&#45;&gt;Node1</title>
<path fill="none" stroke="#404040" d="M49.8,-105.42C49.57,-95.78 50.58,-85.09 54.5,-76 55.79,-73.01 57.38,-70.11 59.18,-67.32"/>
<polygon fill="none" stroke="#404040" points="59.21,-67.29 59.67,-60.09 66.49,-57.75 66.03,-64.95 59.21,-67.29"/>
<text text-anchor="middle" x="91" y="-79" font-family="Helvetica,sans-Serif" font-size="10.00"> +current_step</text>
</g>
<!-- Node3 -->
<g id="node3" class="node">
<title>Node3</title>
<g id="a_node3"><a xlink:title=" ">
<polygon fill="white" stroke="black" points="130.5,-105.5 130.5,-162.5 168.5,-162.5 168.5,-105.5 130.5,-105.5"/>
<text text-anchor="middle" x="149.5" y="-150.5" font-family="Helvetica,sans-Serif" font-size="10.00">char</text>
<polyline fill="none" stroke="black" points="130.5,-143.5 168.5,-143.5 "/>
<text text-anchor="middle" x="149.5" y="-131.5" font-family="Helvetica,sans-Serif" font-size="10.00"> </text>
<polyline fill="none" stroke="black" points="130.5,-124.5 168.5,-124.5 "/>
<text text-anchor="middle" x="149.5" y="-112.5" font-family="Helvetica,sans-Serif" font-size="10.00"> </text>
</a>
</g>
</g>
<!-- Node3&#45;&gt;Node1 -->
<g id="edge2" class="edge">
<title>Node3&#45;&gt;Node1</title>
<path fill="none" stroke="#404040" d="M139.78,-105.4C136.21,-95.95 131.94,-85.4 127.5,-76 126.35,-73.57 125.13,-71.1 123.86,-68.63"/>
<polygon fill="none" stroke="#404040" points="123.77,-68.46 117.42,-65.05 118.11,-57.88 124.47,-61.28 123.77,-68.46"/>
<text text-anchor="middle" x="163" y="-79" font-family="Helvetica,sans-Serif" font-size="10.00"> +request_id</text>
</g>
</g>
</svg>
