<?xml version="1.0" encoding="UTF-8" standalone="no"?>
<!DOCTYPE svg PUBLIC "-//W3C//DTD SVG 1.1//EN"
 "http://www.w3.org/Graphics/SVG/1.1/DTD/svg11.dtd">
<!-- Generated by graphviz version 2.43.0 (0)
 -->
<!-- Title: block_struct Pages: 1 -->
<!--zoomable 614 -->
<svg id="main" version="1.1" xmlns="http://www.w3.org/2000/svg" xmlns:xlink="http://www.w3.org/1999/xlink" xml:space="preserve" onload="init(evt)">
<style type="text/css"><![CDATA[
.edge:hover path { stroke: red; }
.edge:hover polygon { stroke: red; fill: red; }
]]></style>
<script type="text/javascript"><![CDATA[
var edges = document.getElementsByTagName('g');
if (edges && edges.length) {
  for (var i=0;i<edges.length;i++) {
    if (edges[i].id.substr(0,4)=='edge') {
      edges[i].setAttribute('class','edge');
    }
  }
}
]]></script>
        <defs>
                <circle id="rim" cx="0" cy="0" r="7"/>
                <circle id="rim2" cx="0" cy="0" r="3.5"/>
                <g id="zoomPlus">
                        <use xlink:href="#rim" fill="#404040">
                                <set attributeName="fill" to="#808080" begin="zoomplus.mouseover" end="zoomplus.mouseout"/>
                        </use>
                        <path d="M-4,0h8M0,-4v8" fill="none" stroke="white" stroke-width="1.5" pointer-events="none"/>
                </g>
                <g id="zoomMin">
                        <use xlink:href="#rim" fill="#404040">
                                <set attributeName="fill" to="#808080" begin="zoomminus.mouseover" end="zoomminus.mouseout"/>
                        </use>
                        <path d="M-4,0h8" fill="none" stroke="white" stroke-width="1.5" pointer-events="none"/>
                </g>
                <g id="dirArrow">
                        <path fill="none" stroke="white" stroke-width="1.5" d="M0,-3.0v7 M-2.5,-0.5L0,-3.0L2.5,-0.5"/>
                </g>
               <g id="resetDef">
                       <use xlink:href="#rim2" fill="#404040">
                               <set attributeName="fill" to="#808080" begin="reset.mouseover" end="reset.mouseout"/>
                       </use>
               </g>
        </defs>

<script type="text/javascript">
var viewWidth = 830;
var viewHeight = 614;
var sectionId = 'dynsection-0';
</script>
<script xlink:href="svgpan.js"/>
<svg id="graph" class="graph">
<g id="viewport">
<title>block_struct</title>
<polygon fill="white" stroke="transparent" points="-4,4 -4,-610 826.2,-610 826.2,4 -4,4"/>
<!-- Node1 -->
<g id="node1" class="node">
<title>Node1</title>
<g id="a_node1"><a xlink:title=" ">
<polygon fill="#bfbfbf" stroke="black" points="311.7,-0.5 311.7,-167.5 434.7,-167.5 434.7,-0.5 311.7,-0.5"/>
<text text-anchor="middle" x="373.2" y="-155.5" font-family="Helvetica,sans-Serif" font-size="10.00">block_struct</text>
<polyline fill="none" stroke="black" points="311.7,-148.5 434.7,-148.5 "/>
<text text-anchor="start" x="319.7" y="-136.5" font-family="Helvetica,sans-Serif" font-size="10.00">+ j_flag</text>
<text text-anchor="start" x="319.7" y="-125.5" font-family="Helvetica,sans-Serif" font-size="10.00">+ k_flag</text>
<text text-anchor="start" x="319.7" y="-114.5" font-family="Helvetica,sans-Serif" font-size="10.00">+ l_flag</text>
<text text-anchor="start" x="319.7" y="-103.5" font-family="Helvetica,sans-Serif" font-size="10.00">+ saved_line_number</text>
<text text-anchor="start" x="319.7" y="-92.5" font-family="Helvetica,sans-Serif" font-size="10.00">+ user_m</text>
<text text-anchor="start" x="319.7" y="-81.5" font-family="Helvetica,sans-Serif" font-size="10.00">+ p_flag</text>
<text text-anchor="start" x="319.7" y="-70.5" font-family="Helvetica,sans-Serif" font-size="10.00">+ q_number</text>
<text text-anchor="start" x="319.7" y="-59.5" font-family="Helvetica,sans-Serif" font-size="10.00">+ q_flag</text>
<text text-anchor="start" x="319.7" y="-48.5" font-family="Helvetica,sans-Serif" font-size="10.00">+ r_flag</text>
<text text-anchor="start" x="319.7" y="-37.5" font-family="Helvetica,sans-Serif" font-size="10.00">+ r_number</text>
<text text-anchor="start" x="319.7" y="-26.5" font-family="Helvetica,sans-Serif" font-size="10.00">and 24 more...</text>
<polyline fill="none" stroke="black" points="311.7,-19.5 434.7,-19.5 "/>
<text text-anchor="start" x="319.7" y="-7.5" font-family="Helvetica,sans-Serif" font-size="10.00">+ block_struct()</text>
</a>
</g>
</g>
<!-- Node2 -->
<g id="node2" class="node">
<title>Node2</title>
<g id="a_node2"><a xlink:title=" ">
<polygon fill="white" stroke="black" points="6.2,-357 6.2,-414 44.2,-414 44.2,-357 6.2,-357"/>
<text text-anchor="middle" x="25.2" y="-402" font-family="Helvetica,sans-Serif" font-size="10.00">bool</text>
<polyline fill="none" stroke="black" points="6.2,-395 44.2,-395 "/>
<text text-anchor="middle" x="25.2" y="-383" font-family="Helvetica,sans-Serif" font-size="10.00"> </text>
<polyline fill="none" stroke="black" points="6.2,-376 44.2,-376 "/>
<text text-anchor="middle" x="25.2" y="-364" font-family="Helvetica,sans-Serif" font-size="10.00"> </text>
</a>
</g>
</g>
<!-- Node2&#45;&gt;Node1 -->
<g id="edge1" class="edge">
<title>Node2&#45;&gt;Node1</title>
<path fill="none" stroke="#404040" d="M15.34,-356.9C2.41,-315.31 -14.51,-236.13 23.2,-186 56.36,-141.92 206.8,-111.02 299.32,-95.81"/>
<polygon fill="none" stroke="#404040" points="299.57,-95.77 304.86,-90.86 311.42,-93.85 306.13,-98.76 299.57,-95.77"/>
<text text-anchor="middle" x="57.2" y="-299" font-family="Helvetica,sans-Serif" font-size="10.00"> +a_flag</text>
<text text-anchor="middle" x="57.2" y="-288" font-family="Helvetica,sans-Serif" font-size="10.00">+b_flag</text>
<text text-anchor="middle" x="57.2" y="-277" font-family="Helvetica,sans-Serif" font-size="10.00">+builtin_used</text>
<text text-anchor="middle" x="57.2" y="-266" font-family="Helvetica,sans-Serif" font-size="10.00">+c_flag</text>
<text text-anchor="middle" x="57.2" y="-255" font-family="Helvetica,sans-Serif" font-size="10.00">+d_flag</text>
<text text-anchor="middle" x="57.2" y="-244" font-family="Helvetica,sans-Serif" font-size="10.00">+dollar_flag</text>
<text text-anchor="middle" x="57.2" y="-233" font-family="Helvetica,sans-Serif" font-size="10.00">+e_flag</text>
<text text-anchor="middle" x="57.2" y="-222" font-family="Helvetica,sans-Serif" font-size="10.00">+f_flag</text>
<text text-anchor="middle" x="57.2" y="-211" font-family="Helvetica,sans-Serif" font-size="10.00">+h_flag</text>
<text text-anchor="middle" x="57.2" y="-200" font-family="Helvetica,sans-Serif" font-size="10.00">+i_flag</text>
<text text-anchor="middle" x="57.2" y="-189" font-family="Helvetica,sans-Serif" font-size="10.00">...</text>
</g>
<!-- Node3 -->
<g id="node3" class="node">
<title>Node3</title>
<g id="a_node3"><a xlink:title=" ">
<polygon fill="white" stroke="black" points="91.2,-357 91.2,-414 141.2,-414 141.2,-357 91.2,-357"/>
<text text-anchor="middle" x="116.2" y="-402" font-family="Helvetica,sans-Serif" font-size="10.00">double</text>
<polyline fill="none" stroke="black" points="91.2,-395 141.2,-395 "/>
<text text-anchor="middle" x="116.2" y="-383" font-family="Helvetica,sans-Serif" font-size="10.00"> </text>
<polyline fill="none" stroke="black" points="91.2,-376 141.2,-376 "/>
<text text-anchor="middle" x="116.2" y="-364" font-family="Helvetica,sans-Serif" font-size="10.00"> </text>
</a>
</g>
</g>
<!-- Node3&#45;&gt;Node1 -->
<g id="edge2" class="edge">
<title>Node3&#45;&gt;Node1</title>
<path fill="none" stroke="#404040" d="M107.43,-356.97C96.14,-315.82 81.88,-237.62 117.2,-186 157.84,-126.61 239.28,-102.14 299.44,-92.06"/>
<polygon fill="none" stroke="#404040" points="299.69,-92.02 305,-87.15 311.55,-90.18 306.23,-95.05 299.69,-92.02"/>
<text text-anchor="middle" x="159.7" y="-299" font-family="Helvetica,sans-Serif" font-size="10.00"> +a_number</text>
<text text-anchor="middle" x="159.7" y="-288" font-family="Helvetica,sans-Serif" font-size="10.00">+b_number</text>
<text text-anchor="middle" x="159.7" y="-277" font-family="Helvetica,sans-Serif" font-size="10.00">+c_number</text>
<text text-anchor="middle" x="159.7" y="-266" font-family="Helvetica,sans-Serif" font-size="10.00">+d_number_float</text>
<text text-anchor="middle" x="159.7" y="-255" font-family="Helvetica,sans-Serif" font-size="10.00">+e_number</text>
<text text-anchor="middle" x="159.7" y="-244" font-family="Helvetica,sans-Serif" font-size="10.00">+f_number</text>
<text text-anchor="middle" x="159.7" y="-233" font-family="Helvetica,sans-Serif" font-size="10.00">+i_number</text>
<text text-anchor="middle" x="159.7" y="-222" font-family="Helvetica,sans-Serif" font-size="10.00">+j_number</text>
<text text-anchor="middle" x="159.7" y="-211" font-family="Helvetica,sans-Serif" font-size="10.00">+k_number</text>
<text text-anchor="middle" x="159.7" y="-200" font-family="Helvetica,sans-Serif" font-size="10.00">+p_number</text>
<text text-anchor="middle" x="159.7" y="-189" font-family="Helvetica,sans-Serif" font-size="10.00">...</text>
</g>
<!-- Node4 -->
<g id="node4" class="node">
<title>Node4</title>
<g id="a_node4"><a xlink:title=" ">
<polygon fill="white" stroke="black" points="214.2,-548.5 214.2,-605.5 252.2,-605.5 252.2,-548.5 214.2,-548.5"/>
<text text-anchor="middle" x="233.2" y="-593.5" font-family="Helvetica,sans-Serif" font-size="10.00">char</text>
<polyline fill="none" stroke="black" points="214.2,-586.5 252.2,-586.5 "/>
<text text-anchor="middle" x="233.2" y="-574.5" font-family="Helvetica,sans-Serif" font-size="10.00"> </text>
<polyline fill="none" stroke="black" points="214.2,-567.5 252.2,-567.5 "/>
<text text-anchor="middle" x="233.2" y="-555.5" font-family="Helvetica,sans-Serif" font-size="10.00"> </text>
</a>
</g>
</g>
<!-- Node4&#45;&gt;Node1 -->
<g id="edge3" class="edge">
<title>Node4&#45;&gt;Node1</title>
<path fill="none" stroke="#404040" d="M227.27,-548.27C218.36,-501.32 204.73,-403.64 226.2,-325 241.42,-269.24 273.96,-213.77 304.56,-170.23"/>
<polygon fill="none" stroke="#404040" points="304.7,-170.04 304.93,-162.83 311.67,-160.28 311.44,-167.48 304.7,-170.04"/>
<text text-anchor="middle" x="255.2" y="-388.5" font-family="Helvetica,sans-Serif" font-size="10.00"> +comment</text>
<text text-anchor="middle" x="255.2" y="-377.5" font-family="Helvetica,sans-Serif" font-size="10.00">+o_name</text>
</g>
<!-- Node8 -->
<g id="node8" class="node">
<title>Node8</title>
<g id="a_node8"><a xlink:href="structremap__struct.html" target="_top" xlink:title=" ">
<polygon fill="white" stroke="black" points="292.7,-357 292.7,-414 373.7,-414 373.7,-357 292.7,-357"/>
<text text-anchor="middle" x="333.2" y="-402" font-family="Helvetica,sans-Serif" font-size="10.00">remap_struct</text>
<polyline fill="none" stroke="black" points="292.7,-395 373.7,-395 "/>
<text text-anchor="middle" x="333.2" y="-383" font-family="Helvetica,sans-Serif" font-size="10.00"> </text>
<polyline fill="none" stroke="black" points="292.7,-376 373.7,-376 "/>
<text text-anchor="middle" x="333.2" y="-364" font-family="Helvetica,sans-Serif" font-size="10.00"> </text>
</a>
</g>
</g>
<!-- Node4&#45;&gt;Node8 -->
<g id="edge8" class="edge">
<title>Node4&#45;&gt;Node8</title>
<path fill="none" stroke="#404040" d="M233.77,-548.35C235.41,-524.46 240.59,-489.82 256.2,-464 262.74,-453.19 269,-454.66 278.2,-446 285.78,-438.86 293.58,-430.88 300.83,-423.13"/>
<polygon fill="none" stroke="#404040" points="300.92,-423.04 302.04,-415.91 309.05,-414.21 307.93,-421.34 300.92,-423.04"/>
<text text-anchor="middle" x="289.2" y="-522" font-family="Helvetica,sans-Serif" font-size="10.00"> +argspec</text>
<text text-anchor="middle" x="289.2" y="-511" font-family="Helvetica,sans-Serif" font-size="10.00">+epilog_func</text>
<text text-anchor="middle" x="289.2" y="-500" font-family="Helvetica,sans-Serif" font-size="10.00">+name</text>
<text text-anchor="middle" x="289.2" y="-489" font-family="Helvetica,sans-Serif" font-size="10.00">+prolog_func</text>
<text text-anchor="middle" x="289.2" y="-478" font-family="Helvetica,sans-Serif" font-size="10.00">+remap_ngc</text>
<text text-anchor="middle" x="289.2" y="-467" font-family="Helvetica,sans-Serif" font-size="10.00">+remap_py</text>
</g>
<!-- Node5 -->
<g id="node5" class="node">
<title>Node5</title>
<g id="a_node5"><a xlink:title=" ">
<polygon fill="white" stroke="black" points="368.7,-548.5 368.7,-605.5 397.7,-605.5 397.7,-548.5 368.7,-548.5"/>
<text text-anchor="middle" x="383.2" y="-593.5" font-family="Helvetica,sans-Serif" font-size="10.00">int</text>
<polyline fill="none" stroke="black" points="368.7,-586.5 397.7,-586.5 "/>
<text text-anchor="middle" x="383.2" y="-574.5" font-family="Helvetica,sans-Serif" font-size="10.00"> </text>
<polyline fill="none" stroke="black" points="368.7,-567.5 397.7,-567.5 "/>
<text text-anchor="middle" x="383.2" y="-555.5" font-family="Helvetica,sans-Serif" font-size="10.00"> </text>
</a>
</g>
</g>
<!-- Node5&#45;&gt;Node1 -->
<g id="edge4" class="edge">
<title>Node5&#45;&gt;Node1</title>
<path fill="none" stroke="#404040" d="M397.74,-560.28C404.46,-551.94 411.71,-541.14 415.2,-530 438.08,-457.06 430.17,-260.97 415.2,-186 414.77,-183.82 414.28,-181.64 413.76,-179.45"/>
<polygon fill="none" stroke="#404040" points="413.71,-179.27 408.28,-174.53 410.58,-167.69 416.01,-172.44 413.71,-179.27"/>
<text text-anchor="middle" x="468.7" y="-438" font-family="Helvetica,sans-Serif" font-size="10.00"> +call_type</text>
<text text-anchor="middle" x="468.7" y="-427" font-family="Helvetica,sans-Serif" font-size="10.00">+dollar_number</text>
<text text-anchor="middle" x="468.7" y="-416" font-family="Helvetica,sans-Serif" font-size="10.00">+g_modes</text>
<text text-anchor="middle" x="468.7" y="-405" font-family="Helvetica,sans-Serif" font-size="10.00">+h_number</text>
<text text-anchor="middle" x="468.7" y="-394" font-family="Helvetica,sans-Serif" font-size="10.00">+l_number</text>
<text text-anchor="middle" x="468.7" y="-383" font-family="Helvetica,sans-Serif" font-size="10.00">+line_number</text>
<text text-anchor="middle" x="468.7" y="-372" font-family="Helvetica,sans-Serif" font-size="10.00">+m_count</text>
<text text-anchor="middle" x="468.7" y="-361" font-family="Helvetica,sans-Serif" font-size="10.00">+m_modes</text>
<text text-anchor="middle" x="468.7" y="-350" font-family="Helvetica,sans-Serif" font-size="10.00">+motion_to_be</text>
<text text-anchor="middle" x="468.7" y="-339" font-family="Helvetica,sans-Serif" font-size="10.00">+n_number</text>
<text text-anchor="middle" x="468.7" y="-328" font-family="Helvetica,sans-Serif" font-size="10.00">...</text>
</g>
<!-- Node5&#45;&gt;Node8 -->
<g id="edge9" class="edge">
<title>Node5&#45;&gt;Node8</title>
<path fill="none" stroke="#404040" d="M368.45,-565.35C358.21,-557.01 345.35,-544.44 339.2,-530 325.18,-497.08 325,-455.97 327.54,-426.21"/>
<polygon fill="none" stroke="#404040" points="327.54,-426.14 324.17,-419.76 328.76,-414.2 332.13,-420.58 327.54,-426.14"/>
<text text-anchor="middle" x="377.2" y="-500" font-family="Helvetica,sans-Serif" font-size="10.00"> +modal_group</text>
<text text-anchor="middle" x="377.2" y="-489" font-family="Helvetica,sans-Serif" font-size="10.00">+motion_code</text>
</g>
<!-- Node6 -->
<g id="node6" class="node">
<title>Node6</title>
<g id="a_node6"><a xlink:title=" ">
<polygon fill="white" stroke="black" points="526.2,-357 526.2,-414 564.2,-414 564.2,-357 526.2,-357"/>
<text text-anchor="middle" x="545.2" y="-402" font-family="Helvetica,sans-Serif" font-size="10.00">long</text>
<polyline fill="none" stroke="black" points="526.2,-395 564.2,-395 "/>
<text text-anchor="middle" x="545.2" y="-383" font-family="Helvetica,sans-Serif" font-size="10.00"> </text>
<polyline fill="none" stroke="black" points="526.2,-376 564.2,-376 "/>
<text text-anchor="middle" x="545.2" y="-364" font-family="Helvetica,sans-Serif" font-size="10.00"> </text>
</a>
</g>
</g>
<!-- Node6&#45;&gt;Node1 -->
<g id="edge5" class="edge">
<title>Node6&#45;&gt;Node1</title>
<path fill="none" stroke="#404040" d="M532.44,-356.92C514.13,-318.01 478.68,-245.14 443.2,-186 441.62,-183.36 439.99,-180.69 438.32,-178.02"/>
<polygon fill="none" stroke="#404040" points="438.18,-177.79 431.59,-174.86 431.77,-167.65 438.35,-170.58 438.18,-177.79"/>
<text text-anchor="middle" x="525.2" y="-244" font-family="Helvetica,sans-Serif" font-size="10.00"> +offset</text>
</g>
<!-- Node7 -->
<g id="node7" class="node">
<title>Node7</title>
<g id="a_node7"><a xlink:title=" ">
<polygon fill="white" stroke="black" points="582.7,-357 582.7,-414 707.7,-414 707.7,-357 582.7,-357"/>
<text text-anchor="middle" x="645.2" y="-402" font-family="Helvetica,sans-Serif" font-size="10.00">bitset&lt; MAX_STEPS &gt;</text>
<polyline fill="none" stroke="black" points="582.7,-395 707.7,-395 "/>
<text text-anchor="middle" x="645.2" y="-383" font-family="Helvetica,sans-Serif" font-size="10.00"> </text>
<polyline fill="none" stroke="black" points="582.7,-376 707.7,-376 "/>
<text text-anchor="middle" x="645.2" y="-364" font-family="Helvetica,sans-Serif" font-size="10.00"> </text>
</a>
</g>
</g>
<!-- Node7&#45;&gt;Node1 -->
<g id="edge6" class="edge">
<title>Node7&#45;&gt;Node1</title>
<path fill="none" stroke="#404040" d="M637.58,-356.77C625.02,-315.36 596.57,-236.83 549.2,-186 520.59,-155.3 480.51,-131.3 445.81,-114.42"/>
<polygon fill="none" stroke="#404040" points="445.61,-114.32 438.47,-115.37 434.76,-109.19 441.9,-108.14 445.61,-114.32"/>
<text text-anchor="middle" x="656.2" y="-244" font-family="Helvetica,sans-Serif" font-size="10.00"> +breadcrumbs</text>
</g>
<!-- Node8&#45;&gt;Node1 -->
<g id="edge7" class="edge">
<title>Node8&#45;&gt;Node1</title>
<path fill="none" stroke="#404040" d="M325.85,-356.73C316.79,-317.91 304.3,-245.48 319.2,-186 319.77,-183.72 320.4,-181.44 321.09,-179.16"/>
<polygon fill="none" stroke="#404040" points="321.1,-179.13 319.25,-172.16 324.96,-167.77 326.82,-174.74 321.1,-179.13"/>
<text text-anchor="middle" x="367.2" y="-244" font-family="Helvetica,sans-Serif" font-size="10.00"> +executing_remap</text>
</g>
<!-- Node9 -->
<g id="node9" class="node">
<title>Node9</title>
<g id="a_node9"><a xlink:title=" ">
<polygon fill="white" stroke="black" points="725.7,-357 725.7,-414 792.7,-414 792.7,-357 725.7,-357"/>
<text text-anchor="middle" x="759.2" y="-402" font-family="Helvetica,sans-Serif" font-size="10.00">set&lt; int &gt;</text>
<polyline fill="none" stroke="black" points="725.7,-395 792.7,-395 "/>
<text text-anchor="middle" x="759.2" y="-383" font-family="Helvetica,sans-Serif" font-size="10.00"> </text>
<polyline fill="none" stroke="black" points="725.7,-376 792.7,-376 "/>
<text text-anchor="middle" x="759.2" y="-364" font-family="Helvetica,sans-Serif" font-size="10.00"> </text>
</a>
</g>
</g>
<!-- Node9&#45;&gt;Node1 -->
<g id="edge10" class="edge">
<title>Node9&#45;&gt;Node1</title>
<path fill="none" stroke="#404040" d="M758.51,-356.68C755.94,-314.08 744.78,-232.73 698.2,-186 631.26,-118.85 520.55,-96.2 447.23,-88.64"/>
<polygon fill="none" stroke="#404040" points="446.85,-88.61 440.5,-92.03 434.9,-87.48 441.25,-84.06 446.85,-88.61"/>
<text text-anchor="middle" x="787.2" y="-244" font-family="Helvetica,sans-Serif" font-size="10.00"> +remappings</text>
</g>
</g>
</svg>
        <g id="navigator" transform="translate(0 0)" fill="#404254">
                <rect fill="#f2f5e9" fill-opacity="0.5" stroke="#606060" stroke-width=".5" x="0" y="0" width="60" height="60"/>
                <use id="zoomplus" xlink:href="#zoomPlus" x="17" y="9" onmousedown="handleZoom(evt,'in')"/>
                <use id="zoomminus" xlink:href="#zoomMin" x="42" y="9" onmousedown="handleZoom(evt,'out')"/>
                <use id="reset" xlink:href="#resetDef" x="30" y="36" onmousedown="handleReset()"/>
                <g id="arrowUp" xlink:href="#dirArrow" transform="translate(30 24)" onmousedown="handlePan(0,-1)">
                  <use xlink:href="#rim" fill="#404040">
                        <set attributeName="fill" to="#808080" begin="arrowUp.mouseover" end="arrowUp.mouseout"/>
                  </use>
                  <path fill="none" stroke="white" stroke-width="1.5" d="M0,-3.0v7 M-2.5,-0.5L0,-3.0L2.5,-0.5"/>
                </g>
                <g id="arrowRight" xlink:href="#dirArrow" transform="rotate(90) translate(36 -43)" onmousedown="handlePan(1,0)">
                  <use xlink:href="#rim" fill="#404040">
                        <set attributeName="fill" to="#808080" begin="arrowRight.mouseover" end="arrowRight.mouseout"/>
                  </use>
                  <path fill="none" stroke="white" stroke-width="1.5" d="M0,-3.0v7 M-2.5,-0.5L0,-3.0L2.5,-0.5"/>
                </g>
                <g id="arrowDown" xlink:href="#dirArrow" transform="rotate(180) translate(-30 -48)" onmousedown="handlePan(0,1)">
                  <use xlink:href="#rim" fill="#404040">
                        <set attributeName="fill" to="#808080" begin="arrowDown.mouseover" end="arrowDown.mouseout"/>
                  </use>
                  <path fill="none" stroke="white" stroke-width="1.5" d="M0,-3.0v7 M-2.5,-0.5L0,-3.0L2.5,-0.5"/>
                </g>
                <g id="arrowLeft" xlink:href="#dirArrow" transform="rotate(270) translate(-36 17)" onmousedown="handlePan(-1,0)">
                  <use xlink:href="#rim" fill="#404040">
                        <set attributeName="fill" to="#808080" begin="arrowLeft.mouseover" end="arrowLeft.mouseout"/>
                  </use>
                  <path fill="none" stroke="white" stroke-width="1.5" d="M0,-3.0v7 M-2.5,-0.5L0,-3.0L2.5,-0.5"/>
                </g>
        </g>
        <svg viewBox="0 0 15 15" width="100%" height="30px" preserveAspectRatio="xMaxYMin meet">
         <g id="arrow_out" transform="scale(0.3 0.3)">
          <a xlink:href="structblock__struct__coll__graph_org.svg" target="_base">
           <rect id="button" ry="5" rx="5" y="6" x="6" height="38" width="38"
                fill="#f2f5e9" fill-opacity="0.5" stroke="#606060" stroke-width="1.0"/>
           <path id="arrow"
             d="M 11.500037,31.436501 C 11.940474,20.09759 22.043105,11.32322 32.158766,21.979434 L 37.068811,17.246167 C 37.068811,17.246167 37.088388,32 37.088388,32 L 22.160133,31.978069 C 22.160133,31.978069 26.997745,27.140456 26.997745,27.140456 C 18.528582,18.264221 13.291696,25.230495 11.500037,31.436501 z"
             style="fill:#404040;"/>
          </a>
         </g>
        </svg>
</svg>
