<?xml version="1.0" encoding="UTF-8" standalone="no"?>
<!DOCTYPE svg PUBLIC "-//W3C//DTD SVG 1.1//EN"
 "http://www.w3.org/Graphics/SVG/1.1/DTD/svg11.dtd">
<!-- Generated by graphviz version 2.43.0 (0)
 -->
<!-- Title: CMS_USER_CONNECT_STRUCT Pages: 1 -->
<svg width="198pt" height="171pt"
 viewBox="0.00 0.00 197.50 171.00" xmlns="http://www.w3.org/2000/svg" xmlns:xlink="http://www.w3.org/1999/xlink">
<g id="graph0" class="graph" transform="scale(1 1) rotate(0) translate(4 167)">
<title>CMS_USER_CONNECT_STRUCT</title>
<polygon fill="white" stroke="transparent" points="-4,4 -4,-167 193.5,-167 193.5,4 -4,4"/>
<!-- Node1 -->
<g id="node1" class="node">
<title>Node1</title>
<g id="a_node1"><a xlink:title=" ">
<polygon fill="#bfbfbf" stroke="black" points="3.5,-0.5 3.5,-57.5 189.5,-57.5 189.5,-0.5 3.5,-0.5"/>
<text text-anchor="middle" x="96.5" y="-45.5" font-family="Helvetica,sans-Serif" font-size="10.00">CMS_USER_CONNECT_STRUCT</text>
<polyline fill="none" stroke="black" points="3.5,-38.5 189.5,-38.5 "/>
<text text-anchor="middle" x="96.5" y="-26.5" font-family="Helvetica,sans-Serif" font-size="10.00"> </text>
<polyline fill="none" stroke="black" points="3.5,-19.5 189.5,-19.5 "/>
<text text-anchor="start" x="11.5" y="-7.5" font-family="Helvetica,sans-Serif" font-size="10.00">+ CMS_USER_CONNECT_STRUCT()</text>
</a>
</g>
</g>
<!-- Node2 -->
<g id="node2" class="node">
<title>Node2</title>
<g id="a_node2"><a xlink:title=" ">
<polygon fill="white" stroke="black" points="0,-105.5 0,-162.5 107,-162.5 107,-105.5 0,-105.5"/>
<text text-anchor="middle" x="53.5" y="-150.5" font-family="Helvetica,sans-Serif" font-size="10.00">CMS_USER_INFO *</text>
<polyline fill="none" stroke="black" points="0,-143.5 107,-143.5 "/>
<text text-anchor="middle" x="53.5" y="-131.5" font-family="Helvetica,sans-Serif" font-size="10.00"> </text>
<polyline fill="none" stroke="black" points="0,-124.5 107,-124.5 "/>
<text text-anchor="middle" x="53.5" y="-112.5" font-family="Helvetica,sans-Serif" font-size="10.00"> </text>
</a>
</g>
</g>
<!-- Node2&#45;&gt;Node1 -->
<g id="edge1" class="edge">
<title>Node2&#45;&gt;Node1</title>
<path fill="none" stroke="#404040" d="M53.9,-105.27C54.82,-95.71 56.72,-85.12 60.5,-76 61.61,-73.31 62.93,-70.65 64.39,-68.04"/>
<polygon fill="none" stroke="#404040" points="64.56,-67.78 64.44,-60.57 71.04,-57.68 71.17,-64.89 64.56,-67.78"/>
<text text-anchor="middle" x="89" y="-79" font-family="Helvetica,sans-Serif" font-size="10.00"> +user_info</text>
</g>
<!-- Node3 -->
<g id="node3" class="node">
<title>Node3</title>
<g id="a_node3"><a xlink:title=" ">
<polygon fill="white" stroke="black" points="125,-105.5 125,-162.5 154,-162.5 154,-105.5 125,-105.5"/>
<text text-anchor="middle" x="139.5" y="-150.5" font-family="Helvetica,sans-Serif" font-size="10.00">int</text>
<polyline fill="none" stroke="black" points="125,-143.5 154,-143.5 "/>
<text text-anchor="middle" x="139.5" y="-131.5" font-family="Helvetica,sans-Serif" font-size="10.00"> </text>
<polyline fill="none" stroke="black" points="125,-124.5 154,-124.5 "/>
<text text-anchor="middle" x="139.5" y="-112.5" font-family="Helvetica,sans-Serif" font-size="10.00"> </text>
</a>
</g>
</g>
<!-- Node3&#45;&gt;Node1 -->
<g id="edge2" class="edge">
<title>Node3&#45;&gt;Node1</title>
<path fill="none" stroke="#404040" d="M129.2,-105.32C125.62,-95.96 121.49,-85.48 117.5,-76 116.52,-73.66 115.49,-71.26 114.43,-68.85"/>
<polygon fill="none" stroke="#404040" points="114.31,-68.57 108.22,-64.72 109.43,-57.61 115.52,-61.47 114.31,-68.57"/>
<text text-anchor="middle" x="132.5" y="-79" font-family="Helvetica,sans-Serif" font-size="10.00"> +fd</text>
</g>
</g>
</svg>
