<?xml version="1.0" encoding="UTF-8" standalone="no"?>
<!DOCTYPE svg PUBLIC "-//W3C//DTD SVG 1.1//EN"
 "http://www.w3.org/Graphics/SVG/1.1/DTD/svg11.dtd">
<!-- Generated by graphviz version 2.43.0 (0)
 -->
<!-- Title: sPoPoStepDriverConfig Pages: 1 -->
<svg width="167pt" height="336pt"
 viewBox="0.00 0.00 167.00 336.00" xmlns="http://www.w3.org/2000/svg" xmlns:xlink="http://www.w3.org/1999/xlink">
<g id="graph0" class="graph" transform="scale(1 1) rotate(0) translate(4 332)">
<title>sPoPoStepDriverConfig</title>
<polygon fill="white" stroke="transparent" points="-4,4 -4,-332 163,-332 163,4 -4,4"/>
<!-- Node1 -->
<g id="node1" class="node">
<title>Node1</title>
<g id="a_node1"><a xlink:title=" ">
<polygon fill="#bfbfbf" stroke="black" points="0,-0.5 0,-112.5 128,-112.5 128,-0.5 0,-0.5"/>
<text text-anchor="middle" x="64" y="-100.5" font-family="Helvetica,sans-Serif" font-size="10.00">sPoPoStepDriverConfig</text>
<polyline fill="none" stroke="black" points="0,-93.5 128,-93.5 "/>
<text text-anchor="start" x="8" y="-81.5" font-family="Helvetica,sans-Serif" font-size="10.00">+ SupplyVoltage</text>
<text text-anchor="start" x="8" y="-70.5" font-family="Helvetica,sans-Serif" font-size="10.00">+ Temperature</text>
<text text-anchor="start" x="8" y="-59.5" font-family="Helvetica,sans-Serif" font-size="10.00">+ UpdateState</text>
<text text-anchor="start" x="8" y="-48.5" font-family="Helvetica,sans-Serif" font-size="10.00">+ TemperatureLimit</text>
<text text-anchor="start" x="8" y="-37.5" font-family="Helvetica,sans-Serif" font-size="10.00">+ UpdateConfig</text>
<text text-anchor="start" x="8" y="-26.5" font-family="Helvetica,sans-Serif" font-size="10.00">+ reserved</text>
<polyline fill="none" stroke="black" points="0,-19.5 128,-19.5 "/>
<text text-anchor="middle" x="64" y="-7.5" font-family="Helvetica,sans-Serif" font-size="10.00"> </text>
</a>
</g>
</g>
<!-- Node2 -->
<g id="node2" class="node">
<title>Node2</title>
<g id="a_node2"><a xlink:title=" ">
<polygon fill="white" stroke="black" points="33.5,-270.5 33.5,-327.5 94.5,-327.5 94.5,-270.5 33.5,-270.5"/>
<text text-anchor="middle" x="64" y="-315.5" font-family="Helvetica,sans-Serif" font-size="10.00">unsigned</text>
<polyline fill="none" stroke="black" points="33.5,-308.5 94.5,-308.5 "/>
<text text-anchor="middle" x="64" y="-296.5" font-family="Helvetica,sans-Serif" font-size="10.00"> </text>
<polyline fill="none" stroke="black" points="33.5,-289.5 94.5,-289.5 "/>
<text text-anchor="middle" x="64" y="-277.5" font-family="Helvetica,sans-Serif" font-size="10.00"> </text>
</a>
</g>
</g>
<!-- Node2&#45;&gt;Node1 -->
<g id="edge1" class="edge">
<title>Node2&#45;&gt;Node1</title>
<path fill="none" stroke="#404040" d="M64,-270.41C64,-235.23 64,-173.18 64,-125.12"/>
<polygon fill="none" stroke="#404040" points="64,-124.91 60,-118.91 64,-112.91 68,-118.91 64,-124.91"/>
<text text-anchor="middle" x="111.5" y="-244" font-family="Helvetica,sans-Serif" font-size="10.00"> +AddressI2C</text>
<text text-anchor="middle" x="111.5" y="-233" font-family="Helvetica,sans-Serif" font-size="10.00">+Current_FS</text>
<text text-anchor="middle" x="111.5" y="-222" font-family="Helvetica,sans-Serif" font-size="10.00">+Current_Idle</text>
<text text-anchor="middle" x="111.5" y="-211" font-family="Helvetica,sans-Serif" font-size="10.00">+Current_Overheat</text>
<text text-anchor="middle" x="111.5" y="-200" font-family="Helvetica,sans-Serif" font-size="10.00">+DriverMode</text>
<text text-anchor="middle" x="111.5" y="-189" font-family="Helvetica,sans-Serif" font-size="10.00">+DriverStatus</text>
<text text-anchor="middle" x="111.5" y="-178" font-family="Helvetica,sans-Serif" font-size="10.00">+DriverType</text>
<text text-anchor="middle" x="111.5" y="-167" font-family="Helvetica,sans-Serif" font-size="10.00">+FaultStatus</text>
<text text-anchor="middle" x="111.5" y="-156" font-family="Helvetica,sans-Serif" font-size="10.00">+InputStatus</text>
<text text-anchor="middle" x="111.5" y="-145" font-family="Helvetica,sans-Serif" font-size="10.00">+StepMode</text>
<text text-anchor="middle" x="111.5" y="-134" font-family="Helvetica,sans-Serif" font-size="10.00">...</text>
</g>
</g>
</svg>
