<?xml version="1.0" encoding="UTF-8" standalone="no"?>
<!DOCTYPE svg PUBLIC "-//W3C//DTD SVG 1.1//EN"
 "http://www.w3.org/Graphics/SVG/1.1/DTD/svg11.dtd">
<!-- Generated by graphviz version 2.43.0 (0)
 -->
<!-- Title: REMOTE_GET_MSG_COUNT_REQUEST Pages: 1 -->
<svg width="170pt" height="298pt"
 viewBox="0.00 0.00 170.00 298.00" xmlns="http://www.w3.org/2000/svg" xmlns:xlink="http://www.w3.org/1999/xlink">
<g id="graph0" class="graph" transform="scale(1 1) rotate(0) translate(4 294)">
<title>REMOTE_GET_MSG_COUNT_REQUEST</title>
<polygon fill="white" stroke="transparent" points="-4,4 -4,-294 166,-294 166,4 -4,4"/>
<!-- Node1 -->
<g id="node1" class="node">
<title>Node1</title>
<g id="a_node1"><a xlink:title=" ">
<polygon fill="#bfbfbf" stroke="black" points="0,-0.5 0,-79.5 162,-79.5 162,-0.5 0,-0.5"/>
<text text-anchor="start" x="8" y="-67.5" font-family="Helvetica,sans-Serif" font-size="10.00">REMOTE_GET_MSG_COUNT</text>
<text text-anchor="middle" x="81" y="-56.5" font-family="Helvetica,sans-Serif" font-size="10.00">_REQUEST</text>
<polyline fill="none" stroke="black" points="0,-49.5 162,-49.5 "/>
<text text-anchor="middle" x="81" y="-37.5" font-family="Helvetica,sans-Serif" font-size="10.00"> </text>
<polyline fill="none" stroke="black" points="0,-30.5 162,-30.5 "/>
<text text-anchor="start" x="8" y="-18.5" font-family="Helvetica,sans-Serif" font-size="10.00">+ REMOTE_GET_MSG_COUNT</text>
<text text-anchor="start" x="8" y="-7.5" font-family="Helvetica,sans-Serif" font-size="10.00">_REQUEST()</text>
</a>
</g>
</g>
<!-- Node2 -->
<g id="node2" class="node">
<title>Node2</title>
<g id="a_node2"><a xlink:href="structREMOTE__CMS__REQUEST.html" target="_top" xlink:title=" ">
<polygon fill="white" stroke="black" points="3.5,-116.5 3.5,-195.5 158.5,-195.5 158.5,-116.5 3.5,-116.5"/>
<text text-anchor="middle" x="81" y="-183.5" font-family="Helvetica,sans-Serif" font-size="10.00">REMOTE_CMS_REQUEST</text>
<polyline fill="none" stroke="black" points="3.5,-176.5 158.5,-176.5 "/>
<text text-anchor="start" x="11.5" y="-164.5" font-family="Helvetica,sans-Serif" font-size="10.00">+ buffer_number</text>
<text text-anchor="start" x="11.5" y="-153.5" font-family="Helvetica,sans-Serif" font-size="10.00">+ type</text>
<text text-anchor="start" x="11.5" y="-142.5" font-family="Helvetica,sans-Serif" font-size="10.00">+ subdiv</text>
<polyline fill="none" stroke="black" points="3.5,-135.5 158.5,-135.5 "/>
<text text-anchor="start" x="11.5" y="-123.5" font-family="Helvetica,sans-Serif" font-size="10.00">+ REMOTE_CMS_REQUEST()</text>
</a>
</g>
</g>
<!-- Node2&#45;&gt;Node1 -->
<g id="edge1" class="edge">
<title>Node2&#45;&gt;Node1</title>
<path fill="none" stroke="midnightblue" d="M81,-106.15C81,-97.26 81,-88.1 81,-79.56"/>
<polygon fill="none" stroke="midnightblue" points="77.5,-106.4 81,-116.4 84.5,-106.4 77.5,-106.4"/>
</g>
<!-- Node3 -->
<g id="node3" class="node">
<title>Node3</title>
<g id="a_node3"><a xlink:href="structREMOTE__CMS__MESSAGE.html" target="_top" xlink:title=" ">
<polygon fill="white" stroke="black" points="12,-232.5 12,-289.5 150,-289.5 150,-232.5 12,-232.5"/>
<text text-anchor="middle" x="81" y="-277.5" font-family="Helvetica,sans-Serif" font-size="10.00">REMOTE_CMS_MESSAGE</text>
<polyline fill="none" stroke="black" points="12,-270.5 150,-270.5 "/>
<text text-anchor="middle" x="81" y="-258.5" font-family="Helvetica,sans-Serif" font-size="10.00"> </text>
<polyline fill="none" stroke="black" points="12,-251.5 150,-251.5 "/>
<text text-anchor="middle" x="81" y="-239.5" font-family="Helvetica,sans-Serif" font-size="10.00"> </text>
</a>
</g>
</g>
<!-- Node3&#45;&gt;Node2 -->
<g id="edge2" class="edge">
<title>Node3&#45;&gt;Node2</title>
<path fill="none" stroke="midnightblue" d="M81,-222.16C81,-213.47 81,-204.23 81,-195.52"/>
<polygon fill="none" stroke="midnightblue" points="77.5,-222.4 81,-232.4 84.5,-222.4 77.5,-222.4"/>
</g>
</g>
</svg>
