<?xml version="1.0" encoding="UTF-8" standalone="no"?>
<!DOCTYPE svg PUBLIC "-//W3C//DTD SVG 1.1//EN"
 "http://www.w3.org/Graphics/SVG/1.1/DTD/svg11.dtd">
<!-- Generated by graphviz version 2.43.0 (0)
 -->
<!-- Title: REMOTE_CANCEL_SUBSCRIPTION_REPLY Pages: 1 -->
<svg width="188pt" height="276pt"
 viewBox="0.00 0.00 188.00 276.00" xmlns="http://www.w3.org/2000/svg" xmlns:xlink="http://www.w3.org/1999/xlink">
<g id="graph0" class="graph" transform="scale(1 1) rotate(0) translate(4 272)">
<title>REMOTE_CANCEL_SUBSCRIPTION_REPLY</title>
<polygon fill="white" stroke="transparent" points="-4,4 -4,-272 184,-272 184,4 -4,4"/>
<!-- Node1 -->
<g id="node1" class="node">
<title>Node1</title>
<g id="a_node1"><a xlink:title=" ">
<polygon fill="#bfbfbf" stroke="black" points="0,-0.5 0,-79.5 180,-79.5 180,-0.5 0,-0.5"/>
<text text-anchor="start" x="8" y="-67.5" font-family="Helvetica,sans-Serif" font-size="10.00">REMOTE_CANCEL_SUBSCRIPTION</text>
<text text-anchor="middle" x="90" y="-56.5" font-family="Helvetica,sans-Serif" font-size="10.00">_REPLY</text>
<polyline fill="none" stroke="black" points="0,-49.5 180,-49.5 "/>
<text text-anchor="start" x="8" y="-37.5" font-family="Helvetica,sans-Serif" font-size="10.00">+ success</text>
<text text-anchor="start" x="8" y="-26.5" font-family="Helvetica,sans-Serif" font-size="10.00">+ subscription_id</text>
<polyline fill="none" stroke="black" points="0,-19.5 180,-19.5 "/>
<text text-anchor="middle" x="90" y="-7.5" font-family="Helvetica,sans-Serif" font-size="10.00"> </text>
</a>
</g>
</g>
<!-- Node2 -->
<g id="node2" class="node">
<title>Node2</title>
<g id="a_node2"><a xlink:href="structREMOTE__CMS__REPLY.html" target="_top" xlink:title=" ">
<polygon fill="white" stroke="black" points="21,-116.5 21,-173.5 159,-173.5 159,-116.5 21,-116.5"/>
<text text-anchor="middle" x="90" y="-161.5" font-family="Helvetica,sans-Serif" font-size="10.00">REMOTE_CMS_REPLY</text>
<polyline fill="none" stroke="black" points="21,-154.5 159,-154.5 "/>
<text text-anchor="start" x="29" y="-142.5" font-family="Helvetica,sans-Serif" font-size="10.00">+ status</text>
<polyline fill="none" stroke="black" points="21,-135.5 159,-135.5 "/>
<text text-anchor="start" x="29" y="-123.5" font-family="Helvetica,sans-Serif" font-size="10.00">+ REMOTE_CMS_REPLY()</text>
</a>
</g>
</g>
<!-- Node2&#45;&gt;Node1 -->
<g id="edge1" class="edge">
<title>Node2&#45;&gt;Node1</title>
<path fill="none" stroke="midnightblue" d="M90,-106.16C90,-97.47 90,-88.23 90,-79.52"/>
<polygon fill="none" stroke="midnightblue" points="86.5,-106.4 90,-116.4 93.5,-106.4 86.5,-106.4"/>
</g>
<!-- Node3 -->
<g id="node3" class="node">
<title>Node3</title>
<g id="a_node3"><a xlink:href="structREMOTE__CMS__MESSAGE.html" target="_top" xlink:title=" ">
<polygon fill="white" stroke="black" points="21,-210.5 21,-267.5 159,-267.5 159,-210.5 21,-210.5"/>
<text text-anchor="middle" x="90" y="-255.5" font-family="Helvetica,sans-Serif" font-size="10.00">REMOTE_CMS_MESSAGE</text>
<polyline fill="none" stroke="black" points="21,-248.5 159,-248.5 "/>
<text text-anchor="middle" x="90" y="-236.5" font-family="Helvetica,sans-Serif" font-size="10.00"> </text>
<polyline fill="none" stroke="black" points="21,-229.5 159,-229.5 "/>
<text text-anchor="middle" x="90" y="-217.5" font-family="Helvetica,sans-Serif" font-size="10.00"> </text>
</a>
</g>
</g>
<!-- Node3&#45;&gt;Node2 -->
<g id="edge2" class="edge">
<title>Node3&#45;&gt;Node2</title>
<path fill="none" stroke="midnightblue" d="M90,-200.21C90,-191.29 90,-181.95 90,-173.58"/>
<polygon fill="none" stroke="midnightblue" points="86.5,-200.4 90,-210.4 93.5,-200.4 86.5,-200.4"/>
</g>
</g>
</svg>
