<?xml version="1.0" encoding="UTF-8" standalone="no"?>
<!DOCTYPE svg PUBLIC "-//W3C//DTD SVG 1.1//EN"
 "http://www.w3.org/Graphics/SVG/1.1/DTD/svg11.dtd">
<!-- Generated by graphviz version 2.43.0 (0)
 -->
<!-- Title: AxisConfig_t Pages: 1 -->
<svg width="220pt" height="215pt"
 viewBox="0.00 0.00 219.50 215.00" xmlns="http://www.w3.org/2000/svg" xmlns:xlink="http://www.w3.org/1999/xlink">
<g id="graph0" class="graph" transform="scale(1 1) rotate(0) translate(4 211)">
<title>AxisConfig_t</title>
<polygon fill="white" stroke="transparent" points="-4,4 -4,-211 215.5,-211 215.5,4 -4,4"/>
<!-- Node1 -->
<g id="node1" class="node">
<title>Node1</title>
<g id="a_node1"><a xlink:title=" ">
<polygon fill="#bfbfbf" stroke="black" points="51,-0.5 51,-57.5 128,-57.5 128,-0.5 51,-0.5"/>
<text text-anchor="middle" x="89.5" y="-45.5" font-family="Helvetica,sans-Serif" font-size="10.00">AxisConfig_t</text>
<polyline fill="none" stroke="black" points="51,-38.5 128,-38.5 "/>
<text text-anchor="middle" x="89.5" y="-26.5" font-family="Helvetica,sans-Serif" font-size="10.00"> </text>
<polyline fill="none" stroke="black" points="51,-19.5 128,-19.5 "/>
<text text-anchor="middle" x="89.5" y="-7.5" font-family="Helvetica,sans-Serif" font-size="10.00"> </text>
</a>
</g>
</g>
<!-- Node2 -->
<g id="node2" class="node">
<title>Node2</title>
<g id="a_node2"><a xlink:title=" ">
<polygon fill="white" stroke="black" points="0,-149.5 0,-206.5 29,-206.5 29,-149.5 0,-149.5"/>
<text text-anchor="middle" x="14.5" y="-194.5" font-family="Helvetica,sans-Serif" font-size="10.00">int</text>
<polyline fill="none" stroke="black" points="0,-187.5 29,-187.5 "/>
<text text-anchor="middle" x="14.5" y="-175.5" font-family="Helvetica,sans-Serif" font-size="10.00"> </text>
<polyline fill="none" stroke="black" points="0,-168.5 29,-168.5 "/>
<text text-anchor="middle" x="14.5" y="-156.5" font-family="Helvetica,sans-Serif" font-size="10.00"> </text>
</a>
</g>
</g>
<!-- Node2&#45;&gt;Node1 -->
<g id="edge1" class="edge">
<title>Node2&#45;&gt;Node1</title>
<path fill="none" stroke="#404040" d="M19.34,-149.44C23.89,-128.3 32.04,-98.94 45.5,-76 47.28,-72.96 49.3,-69.97 51.47,-67.05"/>
<polygon fill="none" stroke="#404040" points="51.7,-66.78 52.42,-59.6 59.32,-57.5 58.6,-64.68 51.7,-66.78"/>
<text text-anchor="middle" x="65.5" y="-101" font-family="Helvetica,sans-Serif" font-size="10.00"> +Inited</text>
</g>
<!-- Node3 -->
<g id="node3" class="node">
<title>Node3</title>
<g id="a_node3"><a xlink:title=" ">
<polygon fill="white" stroke="black" points="47,-149.5 47,-206.5 132,-206.5 132,-149.5 47,-149.5"/>
<text text-anchor="middle" x="89.5" y="-194.5" font-family="Helvetica,sans-Serif" font-size="10.00">unsigned char</text>
<polyline fill="none" stroke="black" points="47,-187.5 132,-187.5 "/>
<text text-anchor="middle" x="89.5" y="-175.5" font-family="Helvetica,sans-Serif" font-size="10.00"> </text>
<polyline fill="none" stroke="black" points="47,-168.5 132,-168.5 "/>
<text text-anchor="middle" x="89.5" y="-156.5" font-family="Helvetica,sans-Serif" font-size="10.00"> </text>
</a>
</g>
</g>
<!-- Node3&#45;&gt;Node1 -->
<g id="edge2" class="edge">
<title>Node3&#45;&gt;Node1</title>
<path fill="none" stroke="#404040" d="M89.5,-149.35C89.5,-126.87 89.5,-94.85 89.5,-69.64"/>
<polygon fill="none" stroke="#404040" points="89.5,-69.53 85.5,-63.53 89.5,-57.53 93.5,-63.53 89.5,-69.53"/>
<text text-anchor="middle" x="106.5" y="-101" font-family="Helvetica,sans-Serif" font-size="10.00"> +Type</text>
</g>
<!-- Node4 -->
<g id="node4" class="node">
<title>Node4</title>
<g id="a_node4"><a xlink:title=" ">
<polygon fill="white" stroke="black" points="150.5,-149.5 150.5,-206.5 200.5,-206.5 200.5,-149.5 150.5,-149.5"/>
<text text-anchor="middle" x="175.5" y="-194.5" font-family="Helvetica,sans-Serif" font-size="10.00">double</text>
<polyline fill="none" stroke="black" points="150.5,-187.5 200.5,-187.5 "/>
<text text-anchor="middle" x="175.5" y="-175.5" font-family="Helvetica,sans-Serif" font-size="10.00"> </text>
<polyline fill="none" stroke="black" points="150.5,-168.5 200.5,-168.5 "/>
<text text-anchor="middle" x="175.5" y="-156.5" font-family="Helvetica,sans-Serif" font-size="10.00"> </text>
</a>
</g>
</g>
<!-- Node4&#45;&gt;Node1 -->
<g id="edge3" class="edge">
<title>Node4&#45;&gt;Node1</title>
<path fill="none" stroke="#404040" d="M164.6,-149.46C155.83,-128.59 142.52,-99.58 127.5,-76 125.74,-73.23 123.82,-70.44 121.83,-67.67"/>
<polygon fill="none" stroke="#404040" points="121.64,-67.42 114.82,-65.07 114.36,-57.88 121.18,-60.22 121.64,-67.42"/>
<text text-anchor="middle" x="183.5" y="-123" font-family="Helvetica,sans-Serif" font-size="10.00"> +Home</text>
<text text-anchor="middle" x="183.5" y="-112" font-family="Helvetica,sans-Serif" font-size="10.00">+MaxAccel</text>
<text text-anchor="middle" x="183.5" y="-101" font-family="Helvetica,sans-Serif" font-size="10.00">+MaxLimit</text>
<text text-anchor="middle" x="183.5" y="-90" font-family="Helvetica,sans-Serif" font-size="10.00">+MaxVel</text>
<text text-anchor="middle" x="183.5" y="-79" font-family="Helvetica,sans-Serif" font-size="10.00">+MinLimit</text>
</g>
</g>
</svg>
