<?xml version="1.0" encoding="UTF-8" standalone="no"?>
<!DOCTYPE svg PUBLIC "-//W3C//DTD SVG 1.1//EN"
 "http://www.w3.org/Graphics/SVG/1.1/DTD/svg11.dtd">
<!-- Generated by graphviz version 2.43.0 (0)
 -->
<!-- Title: kinematics_parms Pages: 1 -->
<svg width="256pt" height="204pt"
 viewBox="0.00 0.00 256.00 204.00" xmlns="http://www.w3.org/2000/svg" xmlns:xlink="http://www.w3.org/1999/xlink">
<g id="graph0" class="graph" transform="scale(1 1) rotate(0) translate(4 200)">
<title>kinematics_parms</title>
<polygon fill="white" stroke="transparent" points="-4,4 -4,-200 252,-200 252,4 -4,4"/>
<!-- Node1 -->
<g id="node1" class="node">
<title>Node1</title>
<g id="a_node1"><a xlink:title=" ">
<polygon fill="#bfbfbf" stroke="black" points="32.5,-0.5 32.5,-57.5 139.5,-57.5 139.5,-0.5 32.5,-0.5"/>
<text text-anchor="middle" x="86" y="-45.5" font-family="Helvetica,sans-Serif" font-size="10.00">kinematics_parms</text>
<polyline fill="none" stroke="black" points="32.5,-38.5 139.5,-38.5 "/>
<text text-anchor="middle" x="86" y="-26.5" font-family="Helvetica,sans-Serif" font-size="10.00"> </text>
<polyline fill="none" stroke="black" points="32.5,-19.5 139.5,-19.5 "/>
<text text-anchor="middle" x="86" y="-7.5" font-family="Helvetica,sans-Serif" font-size="10.00"> </text>
</a>
</g>
</g>
<!-- Node2 -->
<g id="node2" class="node">
<title>Node2</title>
<g id="a_node2"><a xlink:title=" ">
<polygon fill="white" stroke="black" points="0,-138.5 0,-195.5 38,-195.5 38,-138.5 0,-138.5"/>
<text text-anchor="middle" x="19" y="-183.5" font-family="Helvetica,sans-Serif" font-size="10.00">char</text>
<polyline fill="none" stroke="black" points="0,-176.5 38,-176.5 "/>
<text text-anchor="middle" x="19" y="-164.5" font-family="Helvetica,sans-Serif" font-size="10.00"> </text>
<polyline fill="none" stroke="black" points="0,-157.5 38,-157.5 "/>
<text text-anchor="middle" x="19" y="-145.5" font-family="Helvetica,sans-Serif" font-size="10.00"> </text>
</a>
</g>
</g>
<!-- Node2&#45;&gt;Node1 -->
<g id="edge1" class="edge">
<title>Node2&#45;&gt;Node1</title>
<path fill="none" stroke="#404040" d="M13.01,-138.41C10.41,-119.72 9.92,-95.06 20,-76 21.77,-72.65 23.91,-69.5 26.31,-66.53"/>
<polygon fill="none" stroke="#404040" points="26.48,-66.36 27.75,-59.26 34.79,-57.7 33.52,-64.8 26.48,-66.36"/>
<text text-anchor="middle" x="76" y="-112" font-family="Helvetica,sans-Serif" font-size="10.00"> +halprefix</text>
<text text-anchor="middle" x="76" y="-101" font-family="Helvetica,sans-Serif" font-size="10.00">+kinsname</text>
<text text-anchor="middle" x="76" y="-90" font-family="Helvetica,sans-Serif" font-size="10.00">+required_coordinates</text>
<text text-anchor="middle" x="76" y="-79" font-family="Helvetica,sans-Serif" font-size="10.00">+sparm</text>
</g>
<!-- Node3 -->
<g id="node3" class="node">
<title>Node3</title>
<g id="a_node3"><a xlink:title=" ">
<polygon fill="white" stroke="black" points="139.5,-138.5 139.5,-195.5 168.5,-195.5 168.5,-138.5 139.5,-138.5"/>
<text text-anchor="middle" x="154" y="-183.5" font-family="Helvetica,sans-Serif" font-size="10.00">int</text>
<polyline fill="none" stroke="black" points="139.5,-176.5 168.5,-176.5 "/>
<text text-anchor="middle" x="154" y="-164.5" font-family="Helvetica,sans-Serif" font-size="10.00"> </text>
<polyline fill="none" stroke="black" points="139.5,-157.5 168.5,-157.5 "/>
<text text-anchor="middle" x="154" y="-145.5" font-family="Helvetica,sans-Serif" font-size="10.00"> </text>
</a>
</g>
</g>
<!-- Node3&#45;&gt;Node1 -->
<g id="edge2" class="edge">
<title>Node3&#45;&gt;Node1</title>
<path fill="none" stroke="#404040" d="M151.16,-138.19C148.35,-119.63 142.81,-95.2 132,-76 130.29,-72.95 128.32,-69.97 126.17,-67.09"/>
<polygon fill="none" stroke="#404040" points="126.02,-66.91 119.11,-64.84 118.36,-57.67 125.27,-59.73 126.02,-66.91"/>
<text text-anchor="middle" x="197.5" y="-112" font-family="Helvetica,sans-Serif" font-size="10.00"> +allow_duplicates</text>
<text text-anchor="middle" x="197.5" y="-101" font-family="Helvetica,sans-Serif" font-size="10.00">+fwd_iterates_mask</text>
<text text-anchor="middle" x="197.5" y="-90" font-family="Helvetica,sans-Serif" font-size="10.00">+gui_kinstype</text>
<text text-anchor="middle" x="197.5" y="-79" font-family="Helvetica,sans-Serif" font-size="10.00">+max_joints</text>
</g>
</g>
</svg>
