<?xml version="1.0" encoding="UTF-8" standalone="no"?>
<!DOCTYPE svg PUBLIC "-//W3C//DTD SVG 1.1//EN"
 "http://www.w3.org/Graphics/SVG/1.1/DTD/svg11.dtd">
<!-- Generated by graphviz version 2.43.0 (0)
 -->
<!-- Title: sPoILStatus Pages: 1 -->
<!--zoomable 471 -->
<svg id="main" version="1.1" xmlns="http://www.w3.org/2000/svg" xmlns:xlink="http://www.w3.org/1999/xlink" xml:space="preserve" onload="init(evt)">
<style type="text/css"><![CDATA[
.edge:hover path { stroke: red; }
.edge:hover polygon { stroke: red; fill: red; }
]]></style>
<script type="text/javascript"><![CDATA[
var edges = document.getElementsByTagName('g');
if (edges && edges.length) {
  for (var i=0;i<edges.length;i++) {
    if (edges[i].id.substr(0,4)=='edge') {
      edges[i].setAttribute('class','edge');
    }
  }
}
]]></script>
        <defs>
                <circle id="rim" cx="0" cy="0" r="7"/>
                <circle id="rim2" cx="0" cy="0" r="3.5"/>
                <g id="zoomPlus">
                        <use xlink:href="#rim" fill="#404040">
                                <set attributeName="fill" to="#808080" begin="zoomplus.mouseover" end="zoomplus.mouseout"/>
                        </use>
                        <path d="M-4,0h8M0,-4v8" fill="none" stroke="white" stroke-width="1.5" pointer-events="none"/>
                </g>
                <g id="zoomMin">
                        <use xlink:href="#rim" fill="#404040">
                                <set attributeName="fill" to="#808080" begin="zoomminus.mouseover" end="zoomminus.mouseout"/>
                        </use>
                        <path d="M-4,0h8" fill="none" stroke="white" stroke-width="1.5" pointer-events="none"/>
                </g>
                <g id="dirArrow">
                        <path fill="none" stroke="white" stroke-width="1.5" d="M0,-3.0v7 M-2.5,-0.5L0,-3.0L2.5,-0.5"/>
                </g>
               <g id="resetDef">
                       <use xlink:href="#rim2" fill="#404040">
                               <set attributeName="fill" to="#808080" begin="reset.mouseover" end="reset.mouseout"/>
                       </use>
               </g>
        </defs>

<script type="text/javascript">
var viewWidth = 602;
var viewHeight = 471;
var sectionId = 'dynsection-0';
</script>
<script xlink:href="svgpan.js"/>
<svg id="graph" class="graph">
<g id="viewport">
<title>sPoILStatus</title>
<polygon fill="white" stroke="transparent" points="-4,4 -4,-467 597.72,-467 597.72,4 -4,4"/>
<!-- Node1 -->
<g id="node1" class="node">
<title>Node1</title>
<g id="a_node1"><a xlink:title=" ">
<polygon fill="#bfbfbf" stroke="black" points="205.22,-0.5 205.22,-134.5 320.22,-134.5 320.22,-0.5 205.22,-0.5"/>
<text text-anchor="middle" x="262.72" y="-122.5" font-family="Helvetica,sans-Serif" font-size="10.00">sPoILStatus</text>
<polyline fill="none" stroke="black" points="205.22,-115.5 320.22,-115.5 "/>
<text text-anchor="start" x="213.22" y="-103.5" font-family="Helvetica,sans-Serif" font-size="10.00">+ currentTask</text>
<text text-anchor="start" x="213.22" y="-92.5" font-family="Helvetica,sans-Serif" font-size="10.00">+ W</text>
<text text-anchor="start" x="213.22" y="-81.5" font-family="Helvetica,sans-Serif" font-size="10.00">+ reserved_for_64</text>
<text text-anchor="start" x="213.22" y="-70.5" font-family="Helvetica,sans-Serif" font-size="10.00">+ codeMemoryPage</text>
<text text-anchor="start" x="213.22" y="-59.5" font-family="Helvetica,sans-Serif" font-size="10.00">+ dataMemoryPage</text>
<text text-anchor="start" x="213.22" y="-48.5" font-family="Helvetica,sans-Serif" font-size="10.00">+ inactiveLoad</text>
<text text-anchor="start" x="213.22" y="-37.5" font-family="Helvetica,sans-Serif" font-size="10.00">+ taskCount</text>
<text text-anchor="start" x="213.22" y="-26.5" font-family="Helvetica,sans-Serif" font-size="10.00">+ reserved</text>
<polyline fill="none" stroke="black" points="205.22,-19.5 320.22,-19.5 "/>
<text text-anchor="middle" x="262.72" y="-7.5" font-family="Helvetica,sans-Serif" font-size="10.00"> </text>
</a>
</g>
</g>
<!-- Node2 -->
<g id="node2" class="node">
<title>Node2</title>
<g id="a_node2"><a xlink:href="structsPoILinfo.html" target="_top" xlink:title=" ">
<polygon fill="white" stroke="black" points="149.22,-225 149.22,-282 210.22,-282 210.22,-225 149.22,-225"/>
<text text-anchor="middle" x="179.72" y="-270" font-family="Helvetica,sans-Serif" font-size="10.00">sPoILinfo</text>
<polyline fill="none" stroke="black" points="149.22,-263 210.22,-263 "/>
<text text-anchor="middle" x="179.72" y="-251" font-family="Helvetica,sans-Serif" font-size="10.00"> </text>
<polyline fill="none" stroke="black" points="149.22,-244 210.22,-244 "/>
<text text-anchor="middle" x="179.72" y="-232" font-family="Helvetica,sans-Serif" font-size="10.00"> </text>
</a>
</g>
</g>
<!-- Node2&#45;&gt;Node1 -->
<g id="edge1" class="edge">
<title>Node2&#45;&gt;Node1</title>
<path fill="none" stroke="#404040" d="M192.15,-224.95C201.61,-203.98 215.12,-174.02 227.8,-145.92"/>
<polygon fill="none" stroke="#404040" points="227.85,-145.79 226.67,-138.68 232.79,-134.86 233.97,-141.97 227.85,-145.79"/>
<text text-anchor="middle" x="239.22" y="-161.5" font-family="Helvetica,sans-Serif" font-size="10.00"> +info</text>
</g>
<!-- Node3 -->
<g id="node3" class="node">
<title>Node3</title>
<g id="a_node3"><a xlink:title=" ">
<polygon fill="white" stroke="black" points="237.22,-405.5 237.22,-462.5 298.22,-462.5 298.22,-405.5 237.22,-405.5"/>
<text text-anchor="middle" x="267.72" y="-450.5" font-family="Helvetica,sans-Serif" font-size="10.00">unsigned</text>
<polyline fill="none" stroke="black" points="237.22,-443.5 298.22,-443.5 "/>
<text text-anchor="middle" x="267.72" y="-431.5" font-family="Helvetica,sans-Serif" font-size="10.00"> </text>
<polyline fill="none" stroke="black" points="237.22,-424.5 298.22,-424.5 "/>
<text text-anchor="middle" x="267.72" y="-412.5" font-family="Helvetica,sans-Serif" font-size="10.00"> </text>
</a>
</g>
</g>
<!-- Node3&#45;&gt;Node1 -->
<g id="edge3" class="edge">
<title>Node3&#45;&gt;Node1</title>
<path fill="none" stroke="#404040" d="M236.89,-429.07C181.47,-420.12 66.52,-392.54 20.72,-314 -6.37,-267.54 -7.29,-238.91 20.72,-193 57.99,-131.9 135.89,-99.52 193.28,-83.26"/>
<polygon fill="none" stroke="#404040" points="193.61,-83.17 198.35,-77.74 205.19,-80.03 200.45,-85.46 193.61,-83.17"/>
<text text-anchor="middle" x="80.22" y="-306" font-family="Helvetica,sans-Serif" font-size="10.00"> +CoreDebugBreakpoint</text>
<text text-anchor="middle" x="80.22" y="-295" font-family="Helvetica,sans-Serif" font-size="10.00">+CoreDebugMode</text>
<text text-anchor="middle" x="80.22" y="-284" font-family="Helvetica,sans-Serif" font-size="10.00">+CoreState</text>
<text text-anchor="middle" x="80.22" y="-273" font-family="Helvetica,sans-Serif" font-size="10.00">+ExceptionDescription</text>
<text text-anchor="middle" x="80.22" y="-262" font-family="Helvetica,sans-Serif" font-size="10.00">+ExceptionLocation</text>
<text text-anchor="middle" x="80.22" y="-251" font-family="Helvetica,sans-Serif" font-size="10.00">+ExceptionPC</text>
<text text-anchor="middle" x="80.22" y="-240" font-family="Helvetica,sans-Serif" font-size="10.00">+ExternalCoreID</text>
<text text-anchor="middle" x="80.22" y="-229" font-family="Helvetica,sans-Serif" font-size="10.00">+MasterEnable</text>
<text text-anchor="middle" x="80.22" y="-218" font-family="Helvetica,sans-Serif" font-size="10.00">+PC</text>
<text text-anchor="middle" x="80.22" y="-207" font-family="Helvetica,sans-Serif" font-size="10.00">+STATUS</text>
<text text-anchor="middle" x="80.22" y="-196" font-family="Helvetica,sans-Serif" font-size="10.00">...</text>
</g>
<!-- Node3&#45;&gt;Node2 -->
<g id="edge2" class="edge">
<title>Node3&#45;&gt;Node2</title>
<path fill="none" stroke="#404040" d="M237.1,-428.44C212.89,-423.05 180.6,-411.48 164.72,-387 146.86,-359.47 153.38,-321.8 162.75,-293.67"/>
<polygon fill="none" stroke="#404040" points="162.8,-293.53 161.08,-286.53 166.88,-282.25 168.6,-289.25 162.8,-293.53"/>
<text text-anchor="middle" x="213.22" y="-373.5" font-family="Helvetica,sans-Serif" font-size="10.00"> +CodeMemorySize</text>
<text text-anchor="middle" x="213.22" y="-362.5" font-family="Helvetica,sans-Serif" font-size="10.00">+DataMemorySize</text>
<text text-anchor="middle" x="213.22" y="-351.5" font-family="Helvetica,sans-Serif" font-size="10.00">+DeviceType</text>
<text text-anchor="middle" x="213.22" y="-340.5" font-family="Helvetica,sans-Serif" font-size="10.00">+Version</text>
</g>
<!-- Node4 -->
<g id="node4" class="node">
<title>Node4</title>
<g id="a_node4"><a xlink:href="structsPoILStack.html" target="_top" xlink:title=" ">
<polygon fill="white" stroke="black" points="228.22,-225 228.22,-282 297.22,-282 297.22,-225 228.22,-225"/>
<text text-anchor="middle" x="262.72" y="-270" font-family="Helvetica,sans-Serif" font-size="10.00">sPoILStack</text>
<polyline fill="none" stroke="black" points="228.22,-263 297.22,-263 "/>
<text text-anchor="middle" x="262.72" y="-251" font-family="Helvetica,sans-Serif" font-size="10.00"> </text>
<polyline fill="none" stroke="black" points="228.22,-244 297.22,-244 "/>
<text text-anchor="middle" x="262.72" y="-232" font-family="Helvetica,sans-Serif" font-size="10.00"> </text>
</a>
</g>
</g>
<!-- Node3&#45;&gt;Node4 -->
<g id="edge5" class="edge">
<title>Node3&#45;&gt;Node4</title>
<path fill="none" stroke="#404040" d="M266.94,-405.11C266.11,-375.37 264.78,-328.03 263.84,-294.36"/>
<polygon fill="none" stroke="#404040" points="263.83,-294.19 259.66,-288.3 263.5,-282.19 267.66,-288.08 263.83,-294.19"/>
<text text-anchor="middle" x="307.72" y="-368" font-family="Helvetica,sans-Serif" font-size="10.00"> +StackContents</text>
<text text-anchor="middle" x="307.72" y="-357" font-family="Helvetica,sans-Serif" font-size="10.00">+stackPtr</text>
<text text-anchor="middle" x="307.72" y="-346" font-family="Helvetica,sans-Serif" font-size="10.00">+stackSize</text>
</g>
<!-- Node5 -->
<g id="node5" class="node">
<title>Node5</title>
<g id="a_node5"><a xlink:href="structsPoILmemoryChunk.html" target="_top" xlink:title=" ">
<polygon fill="white" stroke="black" points="315.72,-225 315.72,-282 429.72,-282 429.72,-225 315.72,-225"/>
<text text-anchor="middle" x="372.72" y="-270" font-family="Helvetica,sans-Serif" font-size="10.00">sPoILmemoryChunk</text>
<polyline fill="none" stroke="black" points="315.72,-263 429.72,-263 "/>
<text text-anchor="middle" x="372.72" y="-251" font-family="Helvetica,sans-Serif" font-size="10.00"> </text>
<polyline fill="none" stroke="black" points="315.72,-244 429.72,-244 "/>
<text text-anchor="middle" x="372.72" y="-232" font-family="Helvetica,sans-Serif" font-size="10.00"> </text>
</a>
</g>
</g>
<!-- Node3&#45;&gt;Node5 -->
<g id="edge7" class="edge">
<title>Node3&#45;&gt;Node5</title>
<path fill="none" stroke="#404040" d="M298.45,-423.58C316.5,-416.44 338.18,-404.77 350.72,-387 369.67,-360.15 374.42,-322.71 374.87,-294.48"/>
<polygon fill="none" stroke="#404040" points="374.87,-294.22 370.83,-288.25 374.8,-282.23 378.83,-288.2 374.87,-294.22"/>
<text text-anchor="middle" x="407.22" y="-373.5" font-family="Helvetica,sans-Serif" font-size="10.00"> +address</text>
<text text-anchor="middle" x="407.22" y="-362.5" font-family="Helvetica,sans-Serif" font-size="10.00">+chunkLength</text>
<text text-anchor="middle" x="407.22" y="-351.5" font-family="Helvetica,sans-Serif" font-size="10.00">+reserved</text>
<text text-anchor="middle" x="407.22" y="-340.5" font-family="Helvetica,sans-Serif" font-size="10.00">+reserved2</text>
</g>
<!-- Node6 -->
<g id="node6" class="node">
<title>Node6</title>
<g id="a_node6"><a xlink:href="structsPoILTask.html" target="_top" xlink:title=" ">
<polygon fill="white" stroke="black" points="448.22,-225 448.22,-282 511.22,-282 511.22,-225 448.22,-225"/>
<text text-anchor="middle" x="479.72" y="-270" font-family="Helvetica,sans-Serif" font-size="10.00">sPoILTask</text>
<polyline fill="none" stroke="black" points="448.22,-263 511.22,-263 "/>
<text text-anchor="middle" x="479.72" y="-251" font-family="Helvetica,sans-Serif" font-size="10.00"> </text>
<polyline fill="none" stroke="black" points="448.22,-244 511.22,-244 "/>
<text text-anchor="middle" x="479.72" y="-232" font-family="Helvetica,sans-Serif" font-size="10.00"> </text>
</a>
</g>
</g>
<!-- Node3&#45;&gt;Node6 -->
<g id="edge9" class="edge">
<title>Node3&#45;&gt;Node6</title>
<path fill="none" stroke="#404040" d="M298.41,-428.94C343.91,-422.31 426.09,-407.78 446.72,-387 470.8,-362.74 478.22,-323.79 480.11,-294.38"/>
<polygon fill="none" stroke="#404040" points="480.13,-294.02 476.38,-287.86 480.63,-282.03 484.37,-288.19 480.13,-294.02"/>
<text text-anchor="middle" x="534.22" y="-379" font-family="Helvetica,sans-Serif" font-size="10.00"> +taskLoad</text>
<text text-anchor="middle" x="534.22" y="-368" font-family="Helvetica,sans-Serif" font-size="10.00">+taskPeriod</text>
<text text-anchor="middle" x="534.22" y="-357" font-family="Helvetica,sans-Serif" font-size="10.00">+taskRealPeriod</text>
<text text-anchor="middle" x="534.22" y="-346" font-family="Helvetica,sans-Serif" font-size="10.00">+taskRealPeriodFiltered</text>
<text text-anchor="middle" x="534.22" y="-335" font-family="Helvetica,sans-Serif" font-size="10.00">+taskStatus</text>
</g>
<!-- Node4&#45;&gt;Node1 -->
<g id="edge4" class="edge">
<title>Node4&#45;&gt;Node1</title>
<path fill="none" stroke="#404040" d="M262.72,-224.95C262.72,-204.26 262.72,-174.81 262.72,-147.04"/>
<polygon fill="none" stroke="#404040" points="262.72,-146.86 258.72,-140.86 262.72,-134.86 266.72,-140.86 262.72,-146.86"/>
<text text-anchor="middle" x="300.72" y="-167" font-family="Helvetica,sans-Serif" font-size="10.00"> +dataStack</text>
<text text-anchor="middle" x="300.72" y="-156" font-family="Helvetica,sans-Serif" font-size="10.00">+functionStack</text>
</g>
<!-- Node5&#45;&gt;Node1 -->
<g id="edge6" class="edge">
<title>Node5&#45;&gt;Node1</title>
<path fill="none" stroke="#404040" d="M368,-224.94C363.61,-204.15 355.75,-175.48 342.72,-153 338.57,-145.84 333.69,-138.8 328.44,-132.04"/>
<polygon fill="none" stroke="#404040" points="328.1,-131.62 321.2,-129.51 320.5,-122.34 327.39,-124.45 328.1,-131.62"/>
<text text-anchor="middle" x="395.72" y="-161.5" font-family="Helvetica,sans-Serif" font-size="10.00"> +monitorChunks</text>
</g>
<!-- Node6&#45;&gt;Node1 -->
<g id="edge8" class="edge">
<title>Node6&#45;&gt;Node1</title>
<path fill="none" stroke="#404040" d="M475.29,-224.59C470.54,-202.78 461.07,-172.93 442.72,-153 413.29,-121.03 369.28,-100.07 332.15,-87.02"/>
<polygon fill="none" stroke="#404040" points="331.74,-86.88 324.77,-88.76 320.36,-83.06 327.32,-81.18 331.74,-86.88"/>
<text text-anchor="middle" x="476.72" y="-161.5" font-family="Helvetica,sans-Serif" font-size="10.00"> +tasks</text>
</g>
</g>
</svg>
        <g id="navigator" transform="translate(0 0)" fill="#404254">
                <rect fill="#f2f5e9" fill-opacity="0.5" stroke="#606060" stroke-width=".5" x="0" y="0" width="60" height="60"/>
                <use id="zoomplus" xlink:href="#zoomPlus" x="17" y="9" onmousedown="handleZoom(evt,'in')"/>
                <use id="zoomminus" xlink:href="#zoomMin" x="42" y="9" onmousedown="handleZoom(evt,'out')"/>
                <use id="reset" xlink:href="#resetDef" x="30" y="36" onmousedown="handleReset()"/>
                <g id="arrowUp" xlink:href="#dirArrow" transform="translate(30 24)" onmousedown="handlePan(0,-1)">
                  <use xlink:href="#rim" fill="#404040">
                        <set attributeName="fill" to="#808080" begin="arrowUp.mouseover" end="arrowUp.mouseout"/>
                  </use>
                  <path fill="none" stroke="white" stroke-width="1.5" d="M0,-3.0v7 M-2.5,-0.5L0,-3.0L2.5,-0.5"/>
                </g>
                <g id="arrowRight" xlink:href="#dirArrow" transform="rotate(90) translate(36 -43)" onmousedown="handlePan(1,0)">
                  <use xlink:href="#rim" fill="#404040">
                        <set attributeName="fill" to="#808080" begin="arrowRight.mouseover" end="arrowRight.mouseout"/>
                  </use>
                  <path fill="none" stroke="white" stroke-width="1.5" d="M0,-3.0v7 M-2.5,-0.5L0,-3.0L2.5,-0.5"/>
                </g>
                <g id="arrowDown" xlink:href="#dirArrow" transform="rotate(180) translate(-30 -48)" onmousedown="handlePan(0,1)">
                  <use xlink:href="#rim" fill="#404040">
                        <set attributeName="fill" to="#808080" begin="arrowDown.mouseover" end="arrowDown.mouseout"/>
                  </use>
                  <path fill="none" stroke="white" stroke-width="1.5" d="M0,-3.0v7 M-2.5,-0.5L0,-3.0L2.5,-0.5"/>
                </g>
                <g id="arrowLeft" xlink:href="#dirArrow" transform="rotate(270) translate(-36 17)" onmousedown="handlePan(-1,0)">
                  <use xlink:href="#rim" fill="#404040">
                        <set attributeName="fill" to="#808080" begin="arrowLeft.mouseover" end="arrowLeft.mouseout"/>
                  </use>
                  <path fill="none" stroke="white" stroke-width="1.5" d="M0,-3.0v7 M-2.5,-0.5L0,-3.0L2.5,-0.5"/>
                </g>
        </g>
        <svg viewBox="0 0 15 15" width="100%" height="30px" preserveAspectRatio="xMaxYMin meet">
         <g id="arrow_out" transform="scale(0.3 0.3)">
          <a xlink:href="structsPoILStatus__coll__graph_org.svg" target="_base">
           <rect id="button" ry="5" rx="5" y="6" x="6" height="38" width="38"
                fill="#f2f5e9" fill-opacity="0.5" stroke="#606060" stroke-width="1.0"/>
           <path id="arrow"
             d="M 11.500037,31.436501 C 11.940474,20.09759 22.043105,11.32322 32.158766,21.979434 L 37.068811,17.246167 C 37.068811,17.246167 37.088388,32 37.088388,32 L 22.160133,31.978069 C 22.160133,31.978069 26.997745,27.140456 26.997745,27.140456 C 18.528582,18.264221 13.291696,25.230495 11.500037,31.436501 z"
             style="fill:#404040;"/>
          </a>
         </g>
        </svg>
</svg>
