<?xml version="1.0" encoding="UTF-8" standalone="no"?>
<!DOCTYPE svg PUBLIC "-//W3C//DTD SVG 1.1//EN"
 "http://www.w3.org/Graphics/SVG/1.1/DTD/svg11.dtd">
<!-- Generated by graphviz version 2.43.0 (0)
 -->
<!-- Title: all_encoder_data_t Pages: 1 -->
<!--zoomable 449 -->
<svg id="main" version="1.1" xmlns="http://www.w3.org/2000/svg" xmlns:xlink="http://www.w3.org/1999/xlink" xml:space="preserve" onload="init(evt)">
<style type="text/css"><![CDATA[
.edge:hover path { stroke: red; }
.edge:hover polygon { stroke: red; fill: red; }
]]></style>
<script type="text/javascript"><![CDATA[
var edges = document.getElementsByTagName('g');
if (edges && edges.length) {
  for (var i=0;i<edges.length;i++) {
    if (edges[i].id.substr(0,4)=='edge') {
      edges[i].setAttribute('class','edge');
    }
  }
}
]]></script>
        <defs>
                <circle id="rim" cx="0" cy="0" r="7"/>
                <circle id="rim2" cx="0" cy="0" r="3.5"/>
                <g id="zoomPlus">
                        <use xlink:href="#rim" fill="#404040">
                                <set attributeName="fill" to="#808080" begin="zoomplus.mouseover" end="zoomplus.mouseout"/>
                        </use>
                        <path d="M-4,0h8M0,-4v8" fill="none" stroke="white" stroke-width="1.5" pointer-events="none"/>
                </g>
                <g id="zoomMin">
                        <use xlink:href="#rim" fill="#404040">
                                <set attributeName="fill" to="#808080" begin="zoomminus.mouseover" end="zoomminus.mouseout"/>
                        </use>
                        <path d="M-4,0h8" fill="none" stroke="white" stroke-width="1.5" pointer-events="none"/>
                </g>
                <g id="dirArrow">
                        <path fill="none" stroke="white" stroke-width="1.5" d="M0,-3.0v7 M-2.5,-0.5L0,-3.0L2.5,-0.5"/>
                </g>
               <g id="resetDef">
                       <use xlink:href="#rim2" fill="#404040">
                               <set attributeName="fill" to="#808080" begin="reset.mouseover" end="reset.mouseout"/>
                       </use>
               </g>
        </defs>

<script type="text/javascript">
var viewWidth = 842;
var viewHeight = 449;
var sectionId = 'dynsection-0';
</script>
<script xlink:href="svgpan.js"/>
<svg id="graph" class="graph">
<g id="viewport">
<title>all_encoder_data_t</title>
<polygon fill="white" stroke="transparent" points="-4,4 -4,-445 838.29,-445 838.29,4 -4,4"/>
<!-- Node1 -->
<g id="node1" class="node">
<title>Node1</title>
<g id="a_node1"><a xlink:title="Structure representing all encoder channels and debug output for the PoKeys HAL component.">
<polygon fill="#bfbfbf" stroke="black" points="338.79,-0.5 338.79,-57.5 447.79,-57.5 447.79,-0.5 338.79,-0.5"/>
<text text-anchor="middle" x="393.29" y="-45.5" font-family="Helvetica,sans-Serif" font-size="10.00">all_encoder_data_t</text>
<polyline fill="none" stroke="black" points="338.79,-38.5 447.79,-38.5 "/>
<text text-anchor="middle" x="393.29" y="-26.5" font-family="Helvetica,sans-Serif" font-size="10.00"> </text>
<polyline fill="none" stroke="black" points="338.79,-19.5 447.79,-19.5 "/>
<text text-anchor="middle" x="393.29" y="-7.5" font-family="Helvetica,sans-Serif" font-size="10.00"> </text>
</a>
</g>
</g>
<!-- Node2 -->
<g id="node2" class="node">
<title>Node2</title>
<g id="a_node2"><a xlink:href="structone__encoder__data__t.html" target="_top" xlink:title="Structure representing a single encoder channel with HAL and PoKeys configuration.">
<polygon fill="white" stroke="black" points="164.79,-153.5 164.79,-210.5 279.79,-210.5 279.79,-153.5 164.79,-153.5"/>
<text text-anchor="middle" x="222.29" y="-198.5" font-family="Helvetica,sans-Serif" font-size="10.00">one_encoder_data_t</text>
<polyline fill="none" stroke="black" points="164.79,-191.5 279.79,-191.5 "/>
<text text-anchor="middle" x="222.29" y="-179.5" font-family="Helvetica,sans-Serif" font-size="10.00"> </text>
<polyline fill="none" stroke="black" points="164.79,-172.5 279.79,-172.5 "/>
<text text-anchor="middle" x="222.29" y="-160.5" font-family="Helvetica,sans-Serif" font-size="10.00"> </text>
</a>
</g>
</g>
<!-- Node2&#45;&gt;Node1 -->
<g id="edge1" class="edge">
<title>Node2&#45;&gt;Node1</title>
<path fill="none" stroke="#404040" d="M247.71,-153.42C268.5,-131.47 299.12,-100.48 328.29,-76 332.69,-72.31 337.37,-68.6 342.14,-64.98"/>
<polygon fill="none" stroke="#404040" points="342.31,-64.85 344.75,-58.07 351.95,-57.71 349.51,-64.5 342.31,-64.85"/>
<text text-anchor="middle" x="353.79" y="-84.5" font-family="Helvetica,sans-Serif" font-size="10.00"> +encoder</text>
</g>
<!-- Node3 -->
<g id="node3" class="node">
<title>Node3</title>
<g id="a_node3"><a xlink:title=" ">
<polygon fill="white" stroke="black" points="11.29,-383.5 11.29,-440.5 61.29,-440.5 61.29,-383.5 11.29,-383.5"/>
<text text-anchor="middle" x="36.29" y="-428.5" font-family="Helvetica,sans-Serif" font-size="10.00">int32_t</text>
<polyline fill="none" stroke="black" points="11.29,-421.5 61.29,-421.5 "/>
<text text-anchor="middle" x="36.29" y="-409.5" font-family="Helvetica,sans-Serif" font-size="10.00"> </text>
<polyline fill="none" stroke="black" points="11.29,-402.5 61.29,-402.5 "/>
<text text-anchor="middle" x="36.29" y="-390.5" font-family="Helvetica,sans-Serif" font-size="10.00"> </text>
</a>
</g>
</g>
<!-- Node3&#45;&gt;Node1 -->
<g id="edge9" class="edge">
<title>Node3&#45;&gt;Node1</title>
<path fill="none" stroke="#404040" d="M26.2,-383.41C7.34,-326.56 -25.99,-195.06 36.29,-116 71.73,-71.01 233.29,-46.81 326.47,-36.38"/>
<polygon fill="none" stroke="#404040" points="326.66,-36.36 332.19,-31.73 338.59,-35.05 333.06,-39.68 326.66,-36.36"/>
<text text-anchor="middle" x="95.79" y="-185" font-family="Helvetica,sans-Serif" font-size="10.00"> +UltraFastEncoderFilter</text>
<text text-anchor="middle" x="95.79" y="-174" font-family="Helvetica,sans-Serif" font-size="10.00">+encoder_deb_out</text>
</g>
<!-- Node3&#45;&gt;Node2 -->
<g id="edge2" class="edge">
<title>Node3&#45;&gt;Node2</title>
<path fill="none" stroke="#404040" d="M39.28,-383.33C43.89,-345.97 53.94,-282.2 70.29,-266 96.17,-240.35 117.93,-264.76 150.29,-248 164.45,-240.67 177.98,-229.87 189.42,-219.17"/>
<polygon fill="none" stroke="#404040" points="189.53,-219.06 191.02,-212.01 198.11,-210.67 196.61,-217.73 189.53,-219.06"/>
<text text-anchor="middle" x="89.79" y="-313" font-family="Helvetica,sans-Serif" font-size="10.00"> +count</text>
</g>
<!-- Node4 -->
<g id="node4" class="node">
<title>Node4</title>
<g id="a_node4"><a xlink:title=" ">
<polygon fill="white" stroke="black" points="88.29,-383.5 88.29,-440.5 156.29,-440.5 156.29,-383.5 88.29,-383.5"/>
<text text-anchor="middle" x="122.29" y="-428.5" font-family="Helvetica,sans-Serif" font-size="10.00">hal_float_t</text>
<polyline fill="none" stroke="black" points="88.29,-421.5 156.29,-421.5 "/>
<text text-anchor="middle" x="122.29" y="-409.5" font-family="Helvetica,sans-Serif" font-size="10.00"> </text>
<polyline fill="none" stroke="black" points="88.29,-402.5 156.29,-402.5 "/>
<text text-anchor="middle" x="122.29" y="-390.5" font-family="Helvetica,sans-Serif" font-size="10.00"> </text>
</a>
</g>
</g>
<!-- Node4&#45;&gt;Node2 -->
<g id="edge3" class="edge">
<title>Node4&#45;&gt;Node2</title>
<path fill="none" stroke="#404040" d="M116.63,-383.38C111.83,-352.87 108.39,-303.16 127.29,-266 133.17,-254.43 140.35,-256.35 150.29,-248 161.25,-238.78 172.88,-228.51 183.52,-218.9"/>
<polygon fill="none" stroke="#404040" points="183.7,-218.75 185.45,-211.75 192.58,-210.68 190.83,-217.67 183.7,-218.75"/>
<text text-anchor="middle" x="152.79" y="-324" font-family="Helvetica,sans-Serif" font-size="10.00"> +position</text>
<text text-anchor="middle" x="152.79" y="-313" font-family="Helvetica,sans-Serif" font-size="10.00">+scale</text>
<text text-anchor="middle" x="152.79" y="-302" font-family="Helvetica,sans-Serif" font-size="10.00">+velocity</text>
</g>
<!-- Node5 -->
<g id="node5" class="node">
<title>Node5</title>
<g id="a_node5"><a xlink:title=" ">
<polygon fill="white" stroke="black" points="371.29,-383.5 371.29,-440.5 409.29,-440.5 409.29,-383.5 371.29,-383.5"/>
<text text-anchor="middle" x="390.29" y="-428.5" font-family="Helvetica,sans-Serif" font-size="10.00">bool</text>
<polyline fill="none" stroke="black" points="371.29,-421.5 409.29,-421.5 "/>
<text text-anchor="middle" x="390.29" y="-409.5" font-family="Helvetica,sans-Serif" font-size="10.00"> </text>
<polyline fill="none" stroke="black" points="371.29,-402.5 409.29,-402.5 "/>
<text text-anchor="middle" x="390.29" y="-390.5" font-family="Helvetica,sans-Serif" font-size="10.00"> </text>
</a>
</g>
</g>
<!-- Node5&#45;&gt;Node1 -->
<g id="edge7" class="edge">
<title>Node5&#45;&gt;Node1</title>
<path fill="none" stroke="#404040" d="M409.51,-397.59C443.27,-372.72 512.12,-315.75 538.29,-248 559.43,-193.27 567.32,-166.98 538.29,-116 521.14,-85.89 488.85,-65.24 459.08,-51.74"/>
<polygon fill="none" stroke="#404040" points="458.86,-51.64 451.77,-52.95 447.83,-46.91 454.93,-45.6 458.86,-51.64"/>
<text text-anchor="middle" x="621.79" y="-240" font-family="Helvetica,sans-Serif" font-size="10.00"> +FastEncodersInvert</text>
<text text-anchor="start" x="557.29" y="-229" font-family="Helvetica,sans-Serif" font-size="10.00">+UltraFastEncoderOptions</text>
<text text-anchor="middle" x="621.79" y="-218" font-family="Helvetica,sans-Serif" font-size="10.00">_ENABLE_4X_SAMPLING</text>
<text text-anchor="start" x="557.29" y="-207" font-family="Helvetica,sans-Serif" font-size="10.00">+UltraFastEncoderOptions</text>
<text text-anchor="middle" x="621.79" y="-196" font-family="Helvetica,sans-Serif" font-size="10.00">_INVERT_DIRECTION</text>
<text text-anchor="start" x="557.29" y="-185" font-family="Helvetica,sans-Serif" font-size="10.00">+UltraFastEncoderOptions</text>
<text text-anchor="middle" x="621.79" y="-174" font-family="Helvetica,sans-Serif" font-size="10.00">_RESET_ON_INDEX</text>
<text text-anchor="start" x="557.29" y="-163" font-family="Helvetica,sans-Serif" font-size="10.00">+UltraFastEncoderOptions</text>
<text text-anchor="middle" x="621.79" y="-152" font-family="Helvetica,sans-Serif" font-size="10.00">_SIGNAL_MODE</text>
<text text-anchor="middle" x="621.79" y="-141" font-family="Helvetica,sans-Serif" font-size="10.00">+alternativeconfig</text>
<text text-anchor="middle" x="621.79" y="-130" font-family="Helvetica,sans-Serif" font-size="10.00">+disable_4x_sampling</text>
<text text-anchor="middle" x="621.79" y="-119" font-family="Helvetica,sans-Serif" font-size="10.00">+encoderFastEnable</text>
</g>
<!-- Node5&#45;&gt;Node2 -->
<g id="edge4" class="edge">
<title>Node5&#45;&gt;Node2</title>
<path fill="none" stroke="#404040" d="M371.02,-384.85C341.29,-344.5 284.12,-266.91 249.97,-220.57"/>
<polygon fill="none" stroke="#404040" points="249.76,-220.28 242.98,-217.82 242.64,-210.62 249.42,-213.08 249.76,-220.28"/>
<text text-anchor="middle" x="391.29" y="-357" font-family="Helvetica,sans-Serif" font-size="10.00"> +enable</text>
<text text-anchor="middle" x="391.29" y="-346" font-family="Helvetica,sans-Serif" font-size="10.00">+index_enable</text>
<text text-anchor="middle" x="391.29" y="-335" font-family="Helvetica,sans-Serif" font-size="10.00">+keymap_dirA</text>
<text text-anchor="middle" x="391.29" y="-324" font-family="Helvetica,sans-Serif" font-size="10.00">+keymap_dirB</text>
<text text-anchor="middle" x="391.29" y="-313" font-family="Helvetica,sans-Serif" font-size="10.00">+macro_dirA</text>
<text text-anchor="middle" x="391.29" y="-302" font-family="Helvetica,sans-Serif" font-size="10.00">+macro_dirB</text>
<text text-anchor="middle" x="391.29" y="-291" font-family="Helvetica,sans-Serif" font-size="10.00">+reset</text>
<text text-anchor="middle" x="391.29" y="-280" font-family="Helvetica,sans-Serif" font-size="10.00">+x2_sampling</text>
<text text-anchor="middle" x="391.29" y="-269" font-family="Helvetica,sans-Serif" font-size="10.00">+x4_sampling</text>
</g>
<!-- Node6 -->
<g id="node6" class="node">
<title>Node6</title>
<g id="a_node6"><a xlink:title=" ">
<polygon fill="white" stroke="black" points="279.29,-383.5 279.29,-440.5 335.29,-440.5 335.29,-383.5 279.29,-383.5"/>
<text text-anchor="middle" x="307.29" y="-428.5" font-family="Helvetica,sans-Serif" font-size="10.00">uint32_t</text>
<polyline fill="none" stroke="black" points="279.29,-421.5 335.29,-421.5 "/>
<text text-anchor="middle" x="307.29" y="-409.5" font-family="Helvetica,sans-Serif" font-size="10.00"> </text>
<polyline fill="none" stroke="black" points="279.29,-402.5 335.29,-402.5 "/>
<text text-anchor="middle" x="307.29" y="-390.5" font-family="Helvetica,sans-Serif" font-size="10.00"> </text>
</a>
</g>
</g>
<!-- Node6&#45;&gt;Node1 -->
<g id="edge6" class="edge">
<title>Node6&#45;&gt;Node1</title>
<path fill="none" stroke="#404040" d="M335.44,-396.56C353.36,-386.73 374.15,-373.94 379.29,-365 386.53,-352.4 390.99,-155.58 392.61,-69.64"/>
<polygon fill="none" stroke="#404040" points="392.61,-69.55 388.72,-63.48 392.83,-57.56 396.72,-63.63 392.61,-69.55"/>
<text text-anchor="middle" x="462.79" y="-185" font-family="Helvetica,sans-Serif" font-size="10.00"> +FastEncodersConfiguration</text>
<text text-anchor="middle" x="462.79" y="-174" font-family="Helvetica,sans-Serif" font-size="10.00">+FastEncodersOptions</text>
</g>
<!-- Node6&#45;&gt;Node2 -->
<g id="edge5" class="edge">
<title>Node6&#45;&gt;Node2</title>
<path fill="none" stroke="#404040" d="M279.24,-407.91C253.07,-403.37 215.41,-392.22 197.29,-365 168.73,-322.11 186.18,-260.87 202.93,-221.52"/>
<polygon fill="none" stroke="#404040" points="202.94,-221.51 201.73,-214.4 207.83,-210.55 209.04,-217.66 202.94,-221.51"/>
<text text-anchor="middle" x="239.79" y="-324" font-family="Helvetica,sans-Serif" font-size="10.00"> +channelApin</text>
<text text-anchor="middle" x="239.79" y="-313" font-family="Helvetica,sans-Serif" font-size="10.00">+channelBpin</text>
<text text-anchor="middle" x="239.79" y="-302" font-family="Helvetica,sans-Serif" font-size="10.00">+encoderOptions</text>
</g>
<!-- Node7 -->
<g id="node7" class="node">
<title>Node7</title>
<g id="a_node7"><a xlink:title=" ">
<polygon fill="white" stroke="black" points="717.29,-153.5 717.29,-210.5 767.29,-210.5 767.29,-153.5 717.29,-153.5"/>
<text text-anchor="middle" x="742.29" y="-198.5" font-family="Helvetica,sans-Serif" font-size="10.00">uint8_t</text>
<polyline fill="none" stroke="black" points="717.29,-191.5 767.29,-191.5 "/>
<text text-anchor="middle" x="742.29" y="-179.5" font-family="Helvetica,sans-Serif" font-size="10.00"> </text>
<polyline fill="none" stroke="black" points="717.29,-172.5 767.29,-172.5 "/>
<text text-anchor="middle" x="742.29" y="-160.5" font-family="Helvetica,sans-Serif" font-size="10.00"> </text>
</a>
</g>
</g>
<!-- Node7&#45;&gt;Node1 -->
<g id="edge8" class="edge">
<title>Node7&#45;&gt;Node1</title>
<path fill="none" stroke="#404040" d="M731.06,-153.18C724.62,-140.3 715.39,-125.73 703.29,-116 633.02,-59.49 528.08,-40.05 460.16,-33.4"/>
<polygon fill="none" stroke="#404040" points="459.87,-33.38 453.54,-36.82 447.92,-32.3 454.25,-28.86 459.87,-33.38"/>
<text text-anchor="middle" x="754.29" y="-90" font-family="Helvetica,sans-Serif" font-size="10.00"> +UltraFastEncoderConfiguration</text>
<text text-anchor="middle" x="754.29" y="-79" font-family="Helvetica,sans-Serif" font-size="10.00">+UltraFastEncoderOptions</text>
</g>
</g>
</svg>
        <g id="navigator" transform="translate(0 0)" fill="#404254">
                <rect fill="#f2f5e9" fill-opacity="0.5" stroke="#606060" stroke-width=".5" x="0" y="0" width="60" height="60"/>
                <use id="zoomplus" xlink:href="#zoomPlus" x="17" y="9" onmousedown="handleZoom(evt,'in')"/>
                <use id="zoomminus" xlink:href="#zoomMin" x="42" y="9" onmousedown="handleZoom(evt,'out')"/>
                <use id="reset" xlink:href="#resetDef" x="30" y="36" onmousedown="handleReset()"/>
                <g id="arrowUp" xlink:href="#dirArrow" transform="translate(30 24)" onmousedown="handlePan(0,-1)">
                  <use xlink:href="#rim" fill="#404040">
                        <set attributeName="fill" to="#808080" begin="arrowUp.mouseover" end="arrowUp.mouseout"/>
                  </use>
                  <path fill="none" stroke="white" stroke-width="1.5" d="M0,-3.0v7 M-2.5,-0.5L0,-3.0L2.5,-0.5"/>
                </g>
                <g id="arrowRight" xlink:href="#dirArrow" transform="rotate(90) translate(36 -43)" onmousedown="handlePan(1,0)">
                  <use xlink:href="#rim" fill="#404040">
                        <set attributeName="fill" to="#808080" begin="arrowRight.mouseover" end="arrowRight.mouseout"/>
                  </use>
                  <path fill="none" stroke="white" stroke-width="1.5" d="M0,-3.0v7 M-2.5,-0.5L0,-3.0L2.5,-0.5"/>
                </g>
                <g id="arrowDown" xlink:href="#dirArrow" transform="rotate(180) translate(-30 -48)" onmousedown="handlePan(0,1)">
                  <use xlink:href="#rim" fill="#404040">
                        <set attributeName="fill" to="#808080" begin="arrowDown.mouseover" end="arrowDown.mouseout"/>
                  </use>
                  <path fill="none" stroke="white" stroke-width="1.5" d="M0,-3.0v7 M-2.5,-0.5L0,-3.0L2.5,-0.5"/>
                </g>
                <g id="arrowLeft" xlink:href="#dirArrow" transform="rotate(270) translate(-36 17)" onmousedown="handlePan(-1,0)">
                  <use xlink:href="#rim" fill="#404040">
                        <set attributeName="fill" to="#808080" begin="arrowLeft.mouseover" end="arrowLeft.mouseout"/>
                  </use>
                  <path fill="none" stroke="white" stroke-width="1.5" d="M0,-3.0v7 M-2.5,-0.5L0,-3.0L2.5,-0.5"/>
                </g>
        </g>
        <svg viewBox="0 0 15 15" width="100%" height="30px" preserveAspectRatio="xMaxYMin meet">
         <g id="arrow_out" transform="scale(0.3 0.3)">
          <a xlink:href="structall__encoder__data__t__coll__graph_org.svg" target="_base">
           <rect id="button" ry="5" rx="5" y="6" x="6" height="38" width="38"
                fill="#f2f5e9" fill-opacity="0.5" stroke="#606060" stroke-width="1.0"/>
           <path id="arrow"
             d="M 11.500037,31.436501 C 11.940474,20.09759 22.043105,11.32322 32.158766,21.979434 L 37.068811,17.246167 C 37.068811,17.246167 37.088388,32 37.088388,32 L 22.160133,31.978069 C 22.160133,31.978069 26.997745,27.140456 26.997745,27.140456 C 18.528582,18.264221 13.291696,25.230495 11.500037,31.436501 z"
             style="fill:#404040;"/>
          </a>
         </g>
        </svg>
</svg>
