<?xml version="1.0" encoding="UTF-8" standalone="no"?>
<!DOCTYPE svg PUBLIC "-//W3C//DTD SVG 1.1//EN"
 "http://www.w3.org/Graphics/SVG/1.1/DTD/svg11.dtd">
<!-- Generated by graphviz version 2.43.0 (0)
 -->
<!-- Title: hid_device_info Pages: 1 -->
<svg width="449pt" height="215pt"
 viewBox="0.00 0.00 449.00 215.00" xmlns="http://www.w3.org/2000/svg" xmlns:xlink="http://www.w3.org/1999/xlink">
<g id="graph0" class="graph" transform="scale(1 1) rotate(0) translate(4 211)">
<title>hid_device_info</title>
<polygon fill="white" stroke="transparent" points="-4,4 -4,-211 445,-211 445,4 -4,4"/>
<!-- Node1 -->
<g id="node1" class="node">
<title>Node1</title>
<g id="a_node1"><a xlink:title=" ">
<polygon fill="#bfbfbf" stroke="black" points="109.5,-0.5 109.5,-57.5 202.5,-57.5 202.5,-0.5 109.5,-0.5"/>
<text text-anchor="middle" x="156" y="-45.5" font-family="Helvetica,sans-Serif" font-size="10.00">hid_device_info</text>
<polyline fill="none" stroke="black" points="109.5,-38.5 202.5,-38.5 "/>
<text text-anchor="middle" x="156" y="-26.5" font-family="Helvetica,sans-Serif" font-size="10.00"> </text>
<polyline fill="none" stroke="black" points="109.5,-19.5 202.5,-19.5 "/>
<text text-anchor="middle" x="156" y="-7.5" font-family="Helvetica,sans-Serif" font-size="10.00"> </text>
</a>
</g>
</g>
<!-- Node1&#45;&gt;Node1 -->
<g id="edge5" class="edge">
<title>Node1&#45;&gt;Node1</title>
<path fill="none" stroke="#404040" d="M202.67,-42.5C212.99,-41.23 220.5,-36.73 220.5,-29 220.5,-24.65 218.12,-21.32 214.21,-19.02"/>
<polygon fill="none" stroke="#404040" points="214.15,-19 207.24,-21.08 202.67,-15.5 209.58,-13.42 214.15,-19"/>
<text text-anchor="middle" x="237.5" y="-26.5" font-family="Helvetica,sans-Serif" font-size="10.00"> +next</text>
</g>
<!-- Node2 -->
<g id="node2" class="node">
<title>Node2</title>
<g id="a_node2"><a xlink:title=" ">
<polygon fill="white" stroke="black" points="0,-149.5 0,-206.5 38,-206.5 38,-149.5 0,-149.5"/>
<text text-anchor="middle" x="19" y="-194.5" font-family="Helvetica,sans-Serif" font-size="10.00">char</text>
<polyline fill="none" stroke="black" points="0,-187.5 38,-187.5 "/>
<text text-anchor="middle" x="19" y="-175.5" font-family="Helvetica,sans-Serif" font-size="10.00"> </text>
<polyline fill="none" stroke="black" points="0,-168.5 38,-168.5 "/>
<text text-anchor="middle" x="19" y="-156.5" font-family="Helvetica,sans-Serif" font-size="10.00"> </text>
</a>
</g>
</g>
<!-- Node2&#45;&gt;Node1 -->
<g id="edge1" class="edge">
<title>Node2&#45;&gt;Node1</title>
<path fill="none" stroke="#404040" d="M23.19,-149.08C27.82,-126.89 37.25,-96.31 56,-76 67.47,-63.57 82.97,-54.24 98.33,-47.34"/>
<polygon fill="none" stroke="#404040" points="98.35,-47.34 102.36,-41.35 109.43,-42.75 105.42,-48.74 98.35,-47.34"/>
<text text-anchor="middle" x="73" y="-101" font-family="Helvetica,sans-Serif" font-size="10.00"> +path</text>
</g>
<!-- Node3 -->
<g id="node3" class="node">
<title>Node3</title>
<g id="a_node3"><a xlink:title=" ">
<polygon fill="white" stroke="black" points="56.5,-149.5 56.5,-206.5 145.5,-206.5 145.5,-149.5 56.5,-149.5"/>
<text text-anchor="middle" x="101" y="-194.5" font-family="Helvetica,sans-Serif" font-size="10.00">unsigned short</text>
<polyline fill="none" stroke="black" points="56.5,-187.5 145.5,-187.5 "/>
<text text-anchor="middle" x="101" y="-175.5" font-family="Helvetica,sans-Serif" font-size="10.00"> </text>
<polyline fill="none" stroke="black" points="56.5,-168.5 145.5,-168.5 "/>
<text text-anchor="middle" x="101" y="-156.5" font-family="Helvetica,sans-Serif" font-size="10.00"> </text>
</a>
</g>
</g>
<!-- Node3&#45;&gt;Node1 -->
<g id="edge2" class="edge">
<title>Node3&#45;&gt;Node1</title>
<path fill="none" stroke="#404040" d="M95.32,-149.49C92.34,-128.37 91.23,-99.03 102,-76 103.49,-72.81 105.32,-69.76 107.4,-66.86"/>
<polygon fill="none" stroke="#404040" points="107.52,-66.72 108.35,-59.56 115.28,-57.56 114.45,-64.73 107.52,-66.72"/>
<text text-anchor="middle" x="146" y="-123" font-family="Helvetica,sans-Serif" font-size="10.00"> +product_id</text>
<text text-anchor="middle" x="146" y="-112" font-family="Helvetica,sans-Serif" font-size="10.00">+release_number</text>
<text text-anchor="middle" x="146" y="-101" font-family="Helvetica,sans-Serif" font-size="10.00">+usage</text>
<text text-anchor="middle" x="146" y="-90" font-family="Helvetica,sans-Serif" font-size="10.00">+usage_page</text>
<text text-anchor="middle" x="146" y="-79" font-family="Helvetica,sans-Serif" font-size="10.00">+vendor_id</text>
</g>
<!-- Node4 -->
<g id="node4" class="node">
<title>Node4</title>
<g id="a_node4"><a xlink:title=" ">
<polygon fill="white" stroke="black" points="180.5,-149.5 180.5,-206.5 243.5,-206.5 243.5,-149.5 180.5,-149.5"/>
<text text-anchor="middle" x="212" y="-194.5" font-family="Helvetica,sans-Serif" font-size="10.00">wchar_t *</text>
<polyline fill="none" stroke="black" points="180.5,-187.5 243.5,-187.5 "/>
<text text-anchor="middle" x="212" y="-175.5" font-family="Helvetica,sans-Serif" font-size="10.00"> </text>
<polyline fill="none" stroke="black" points="180.5,-168.5 243.5,-168.5 "/>
<text text-anchor="middle" x="212" y="-156.5" font-family="Helvetica,sans-Serif" font-size="10.00"> </text>
</a>
</g>
</g>
<!-- Node4&#45;&gt;Node1 -->
<g id="edge3" class="edge">
<title>Node4&#45;&gt;Node1</title>
<path fill="none" stroke="#404040" d="M209.18,-149.44C206.29,-128.55 200.67,-99.54 190,-76 188.74,-73.23 187.3,-70.46 185.74,-67.74"/>
<polygon fill="none" stroke="#404040" points="185.68,-67.65 179.08,-64.75 179.22,-57.54 185.82,-60.44 185.68,-67.65"/>
<text text-anchor="middle" x="260.5" y="-112" font-family="Helvetica,sans-Serif" font-size="10.00"> +manufacturer_string</text>
<text text-anchor="middle" x="260.5" y="-101" font-family="Helvetica,sans-Serif" font-size="10.00">+product_string</text>
<text text-anchor="middle" x="260.5" y="-90" font-family="Helvetica,sans-Serif" font-size="10.00">+serial_number</text>
</g>
<!-- Node5 -->
<g id="node5" class="node">
<title>Node5</title>
<g id="a_node5"><a xlink:title=" ">
<polygon fill="white" stroke="black" points="331.5,-149.5 331.5,-206.5 360.5,-206.5 360.5,-149.5 331.5,-149.5"/>
<text text-anchor="middle" x="346" y="-194.5" font-family="Helvetica,sans-Serif" font-size="10.00">int</text>
<polyline fill="none" stroke="black" points="331.5,-187.5 360.5,-187.5 "/>
<text text-anchor="middle" x="346" y="-175.5" font-family="Helvetica,sans-Serif" font-size="10.00"> </text>
<polyline fill="none" stroke="black" points="331.5,-168.5 360.5,-168.5 "/>
<text text-anchor="middle" x="346" y="-156.5" font-family="Helvetica,sans-Serif" font-size="10.00"> </text>
</a>
</g>
</g>
<!-- Node5&#45;&gt;Node1 -->
<g id="edge4" class="edge">
<title>Node5&#45;&gt;Node1</title>
<path fill="none" stroke="#404040" d="M346.09,-149.37C344.66,-126.75 339,-95.41 320,-76 292.62,-48.02 249.69,-36.68 214.63,-32.25"/>
<polygon fill="none" stroke="#404040" points="214.52,-32.24 208.13,-35.57 202.59,-30.95 208.99,-27.62 214.52,-32.24"/>
<text text-anchor="middle" x="392" y="-101" font-family="Helvetica,sans-Serif" font-size="10.00"> +interface_number</text>
</g>
</g>
</svg>
