<?xml version="1.0" encoding="UTF-8" standalone="no"?>
<!DOCTYPE svg PUBLIC "-//W3C//DTD SVG 1.1//EN"
 "http://www.w3.org/Graphics/SVG/1.1/DTD/svg11.dtd">
<!-- Generated by graphviz version 2.43.0 (0)
 -->
<!-- Title: REMOTE_SET_DIAG_INFO_REQUEST Pages: 1 -->
<svg width="649pt" height="342pt"
 viewBox="0.00 0.00 649.00 342.00" xmlns="http://www.w3.org/2000/svg" xmlns:xlink="http://www.w3.org/1999/xlink">
<g id="graph0" class="graph" transform="scale(1 1) rotate(0) translate(4 338)">
<title>REMOTE_SET_DIAG_INFO_REQUEST</title>
<polygon fill="white" stroke="transparent" points="-4,4 -4,-338 645,-338 645,4 -4,4"/>
<!-- Node1 -->
<g id="node1" class="node">
<title>Node1</title>
<g id="a_node1"><a xlink:title=" ">
<polygon fill="#bfbfbf" stroke="black" points="307,-0.5 307,-79.5 459,-79.5 459,-0.5 307,-0.5"/>
<text text-anchor="start" x="315" y="-67.5" font-family="Helvetica,sans-Serif" font-size="10.00">REMOTE_SET_DIAG_INFO</text>
<text text-anchor="middle" x="383" y="-56.5" font-family="Helvetica,sans-Serif" font-size="10.00">_REQUEST</text>
<polyline fill="none" stroke="black" points="307,-49.5 459,-49.5 "/>
<text text-anchor="middle" x="383" y="-37.5" font-family="Helvetica,sans-Serif" font-size="10.00"> </text>
<polyline fill="none" stroke="black" points="307,-30.5 459,-30.5 "/>
<text text-anchor="start" x="315" y="-18.5" font-family="Helvetica,sans-Serif" font-size="10.00">+ REMOTE_SET_DIAG_INFO</text>
<text text-anchor="start" x="315" y="-7.5" font-family="Helvetica,sans-Serif" font-size="10.00">_REQUEST()</text>
</a>
</g>
</g>
<!-- Node2 -->
<g id="node2" class="node">
<title>Node2</title>
<g id="a_node2"><a xlink:href="structREMOTE__CMS__REQUEST.html" target="_top" xlink:title=" ">
<polygon fill="white" stroke="black" points="123.5,-160.5 123.5,-217.5 278.5,-217.5 278.5,-160.5 123.5,-160.5"/>
<text text-anchor="middle" x="201" y="-205.5" font-family="Helvetica,sans-Serif" font-size="10.00">REMOTE_CMS_REQUEST</text>
<polyline fill="none" stroke="black" points="123.5,-198.5 278.5,-198.5 "/>
<text text-anchor="middle" x="201" y="-186.5" font-family="Helvetica,sans-Serif" font-size="10.00"> </text>
<polyline fill="none" stroke="black" points="123.5,-179.5 278.5,-179.5 "/>
<text text-anchor="start" x="131.5" y="-167.5" font-family="Helvetica,sans-Serif" font-size="10.00">+ REMOTE_CMS_REQUEST()</text>
</a>
</g>
</g>
<!-- Node2&#45;&gt;Node1 -->
<g id="edge1" class="edge">
<title>Node2&#45;&gt;Node1</title>
<path fill="none" stroke="midnightblue" d="M243.12,-153.98C270.62,-131.77 306.6,-102.7 335.19,-79.62"/>
<polygon fill="none" stroke="midnightblue" points="240.81,-151.34 235.23,-160.35 245.21,-156.79 240.81,-151.34"/>
</g>
<!-- Node3 -->
<g id="node3" class="node">
<title>Node3</title>
<g id="a_node3"><a xlink:href="structREMOTE__CMS__MESSAGE.html" target="_top" xlink:title=" ">
<polygon fill="white" stroke="black" points="0,-276.5 0,-333.5 138,-333.5 138,-276.5 0,-276.5"/>
<text text-anchor="middle" x="69" y="-321.5" font-family="Helvetica,sans-Serif" font-size="10.00">REMOTE_CMS_MESSAGE</text>
<polyline fill="none" stroke="black" points="0,-314.5 138,-314.5 "/>
<text text-anchor="middle" x="69" y="-302.5" font-family="Helvetica,sans-Serif" font-size="10.00"> </text>
<polyline fill="none" stroke="black" points="0,-295.5 138,-295.5 "/>
<text text-anchor="middle" x="69" y="-283.5" font-family="Helvetica,sans-Serif" font-size="10.00"> </text>
</a>
</g>
</g>
<!-- Node3&#45;&gt;Node2 -->
<g id="edge2" class="edge">
<title>Node3&#45;&gt;Node2</title>
<path fill="none" stroke="midnightblue" d="M108.68,-269.73C127.93,-253.11 150.75,-233.4 168.88,-217.74"/>
<polygon fill="none" stroke="midnightblue" points="106.23,-267.22 100.95,-276.4 110.81,-272.52 106.23,-267.22"/>
</g>
<!-- Node4 -->
<g id="node4" class="node">
<title>Node4</title>
<g id="a_node4"><a xlink:title=" ">
<polygon fill="white" stroke="black" points="156,-276.5 156,-333.5 194,-333.5 194,-276.5 156,-276.5"/>
<text text-anchor="middle" x="175" y="-321.5" font-family="Helvetica,sans-Serif" font-size="10.00">long</text>
<polyline fill="none" stroke="black" points="156,-314.5 194,-314.5 "/>
<text text-anchor="middle" x="175" y="-302.5" font-family="Helvetica,sans-Serif" font-size="10.00"> </text>
<polyline fill="none" stroke="black" points="156,-295.5 194,-295.5 "/>
<text text-anchor="middle" x="175" y="-283.5" font-family="Helvetica,sans-Serif" font-size="10.00"> </text>
</a>
</g>
</g>
<!-- Node4&#45;&gt;Node2 -->
<g id="edge3" class="edge">
<title>Node4&#45;&gt;Node2</title>
<path fill="none" stroke="#404040" d="M172.43,-276.46C172.02,-263.93 172.59,-249.02 176,-236 176.6,-233.69 177.35,-231.37 178.2,-229.07"/>
<polygon fill="none" stroke="#404040" points="178.31,-228.8 177.06,-221.7 183.14,-217.82 184.39,-224.92 178.31,-228.8"/>
<text text-anchor="middle" x="217.5" y="-244.5" font-family="Helvetica,sans-Serif" font-size="10.00"> +buffer_number</text>
</g>
<!-- Node5 -->
<g id="node5" class="node">
<title>Node5</title>
<g id="a_node5"><a xlink:title=" ">
<polygon fill="white" stroke="black" points="295.5,-276.5 295.5,-333.5 324.5,-333.5 324.5,-276.5 295.5,-276.5"/>
<text text-anchor="middle" x="310" y="-321.5" font-family="Helvetica,sans-Serif" font-size="10.00">int</text>
<polyline fill="none" stroke="black" points="295.5,-314.5 324.5,-314.5 "/>
<text text-anchor="middle" x="310" y="-302.5" font-family="Helvetica,sans-Serif" font-size="10.00"> </text>
<polyline fill="none" stroke="black" points="295.5,-295.5 324.5,-295.5 "/>
<text text-anchor="middle" x="310" y="-283.5" font-family="Helvetica,sans-Serif" font-size="10.00"> </text>
</a>
</g>
</g>
<!-- Node5&#45;&gt;Node1 -->
<g id="edge6" class="edge">
<title>Node5&#45;&gt;Node1</title>
<path fill="none" stroke="#404040" d="M320.12,-276.42C322.18,-270.39 324.26,-264.01 326,-258 338.48,-215.04 337.74,-203.3 349,-160 354.88,-137.38 361.9,-112.51 368.03,-91.37"/>
<polygon fill="none" stroke="#404040" points="368.07,-91.25 365.91,-84.37 371.43,-79.73 373.59,-86.61 368.07,-91.25"/>
<text text-anchor="middle" x="383.5" y="-197.5" font-family="Helvetica,sans-Serif" font-size="10.00"> +c_num</text>
<text text-anchor="middle" x="383.5" y="-186.5" font-family="Helvetica,sans-Serif" font-size="10.00">+pid</text>
<text text-anchor="middle" x="383.5" y="-175.5" font-family="Helvetica,sans-Serif" font-size="10.00">+reverse_flag</text>
</g>
<!-- Node5&#45;&gt;Node2 -->
<g id="edge4" class="edge">
<title>Node5&#45;&gt;Node2</title>
<path fill="none" stroke="#404040" d="M295.47,-281.73C285.92,-267.87 272.69,-250.06 259,-236 255.52,-232.43 251.76,-228.88 247.89,-225.43"/>
<polygon fill="none" stroke="#404040" points="247.85,-225.4 240.69,-224.54 238.73,-217.6 245.89,-218.46 247.85,-225.4"/>
<text text-anchor="middle" x="300" y="-250" font-family="Helvetica,sans-Serif" font-size="10.00"> +subdiv</text>
<text text-anchor="middle" x="300" y="-239" font-family="Helvetica,sans-Serif" font-size="10.00">+type</text>
</g>
<!-- Node6 -->
<g id="node6" class="node">
<title>Node6</title>
<g id="a_node6"><a xlink:title=" ">
<polygon fill="white" stroke="black" points="427,-160.5 427,-217.5 465,-217.5 465,-160.5 427,-160.5"/>
<text text-anchor="middle" x="446" y="-205.5" font-family="Helvetica,sans-Serif" font-size="10.00">char</text>
<polyline fill="none" stroke="black" points="427,-198.5 465,-198.5 "/>
<text text-anchor="middle" x="446" y="-186.5" font-family="Helvetica,sans-Serif" font-size="10.00"> </text>
<polyline fill="none" stroke="black" points="427,-179.5 465,-179.5 "/>
<text text-anchor="middle" x="446" y="-167.5" font-family="Helvetica,sans-Serif" font-size="10.00"> </text>
</a>
</g>
</g>
<!-- Node6&#45;&gt;Node1 -->
<g id="edge5" class="edge">
<title>Node6&#45;&gt;Node1</title>
<path fill="none" stroke="#404040" d="M434.15,-160.35C425.76,-140.77 414.27,-113.95 404.3,-90.7"/>
<polygon fill="none" stroke="#404040" points="404.28,-90.65 398.24,-86.71 399.55,-79.62 405.59,-83.56 404.28,-90.65"/>
<text text-anchor="middle" x="464.5" y="-123" font-family="Helvetica,sans-Serif" font-size="10.00"> +host_sysinfo</text>
<text text-anchor="middle" x="464.5" y="-112" font-family="Helvetica,sans-Serif" font-size="10.00">+process_name</text>
</g>
<!-- Node7 -->
<g id="node7" class="node">
<title>Node7</title>
<g id="a_node7"><a xlink:title=" ">
<polygon fill="white" stroke="black" points="503,-160.5 503,-217.5 553,-217.5 553,-160.5 503,-160.5"/>
<text text-anchor="middle" x="528" y="-205.5" font-family="Helvetica,sans-Serif" font-size="10.00">double</text>
<polyline fill="none" stroke="black" points="503,-198.5 553,-198.5 "/>
<text text-anchor="middle" x="528" y="-186.5" font-family="Helvetica,sans-Serif" font-size="10.00"> </text>
<polyline fill="none" stroke="black" points="503,-179.5 553,-179.5 "/>
<text text-anchor="middle" x="528" y="-167.5" font-family="Helvetica,sans-Serif" font-size="10.00"> </text>
</a>
</g>
</g>
<!-- Node7&#45;&gt;Node1 -->
<g id="edge7" class="edge">
<title>Node7&#45;&gt;Node1</title>
<path fill="none" stroke="#404040" d="M527.39,-160.44C525.62,-141.04 520.41,-115.52 506,-98 496.33,-86.24 483.69,-76.78 470.2,-69.21"/>
<polygon fill="none" stroke="#404040" points="469.89,-69.06 462.73,-69.85 459.23,-63.54 466.4,-62.75 469.89,-69.06"/>
<text text-anchor="middle" x="582.5" y="-134" font-family="Helvetica,sans-Serif" font-size="10.00"> +bytes_moved</text>
<text text-anchor="start" x="524" y="-123" font-family="Helvetica,sans-Serif" font-size="10.00">+bytes_moved_accross</text>
<text text-anchor="middle" x="582.5" y="-112" font-family="Helvetica,sans-Serif" font-size="10.00">_socket</text>
<text text-anchor="middle" x="582.5" y="-101" font-family="Helvetica,sans-Serif" font-size="10.00">+rcslib_ver</text>
</g>
</g>
</svg>
