<?xml version="1.0" encoding="UTF-8" standalone="no"?>
<!DOCTYPE svg PUBLIC "-//W3C//DTD SVG 1.1//EN"
 "http://www.w3.org/Graphics/SVG/1.1/DTD/svg11.dtd">
<!-- Generated by graphviz version 2.43.0 (0)
 -->
<!-- Title: all_encoder_data_t Pages: 1 -->
<svg width="361pt" height="298pt"
 viewBox="0.00 0.00 360.50 298.00" xmlns="http://www.w3.org/2000/svg" xmlns:xlink="http://www.w3.org/1999/xlink">
<g id="graph0" class="graph" transform="scale(1 1) rotate(0) translate(4 294)">
<title>all_encoder_data_t</title>
<polygon fill="white" stroke="transparent" points="-4,4 -4,-294 356.5,-294 356.5,4 -4,4"/>
<!-- Node1 -->
<g id="node1" class="node">
<title>Node1</title>
<g id="a_node1"><a xlink:title="Structure representing all encoder channels and debug output for the PoKeys HAL component.">
<polygon fill="#bfbfbf" stroke="black" points="0,-0.5 0,-57.5 109,-57.5 109,-0.5 0,-0.5"/>
<text text-anchor="middle" x="54.5" y="-45.5" font-family="Helvetica,sans-Serif" font-size="10.00">all_encoder_data_t</text>
<polyline fill="none" stroke="black" points="0,-38.5 109,-38.5 "/>
<text text-anchor="middle" x="54.5" y="-26.5" font-family="Helvetica,sans-Serif" font-size="10.00"> </text>
<polyline fill="none" stroke="black" points="0,-19.5 109,-19.5 "/>
<text text-anchor="middle" x="54.5" y="-7.5" font-family="Helvetica,sans-Serif" font-size="10.00"> </text>
</a>
</g>
</g>
<!-- Node2 -->
<g id="node2" class="node">
<title>Node2</title>
<g id="a_node2"><a xlink:href="structone__encoder__data__t.html" target="_top" xlink:title="Structure representing a single encoder channel with HAL and PoKeys configuration.">
<polygon fill="white" stroke="black" points="117,-105.5 117,-162.5 232,-162.5 232,-105.5 117,-105.5"/>
<text text-anchor="middle" x="174.5" y="-150.5" font-family="Helvetica,sans-Serif" font-size="10.00">one_encoder_data_t</text>
<polyline fill="none" stroke="black" points="117,-143.5 232,-143.5 "/>
<text text-anchor="middle" x="174.5" y="-131.5" font-family="Helvetica,sans-Serif" font-size="10.00"> </text>
<polyline fill="none" stroke="black" points="117,-124.5 232,-124.5 "/>
<text text-anchor="middle" x="174.5" y="-112.5" font-family="Helvetica,sans-Serif" font-size="10.00"> </text>
</a>
</g>
</g>
<!-- Node2&#45;&gt;Node1 -->
<g id="edge1" class="edge">
<title>Node2&#45;&gt;Node1</title>
<path fill="none" stroke="#404040" d="M142.34,-105.4C128.08,-93.16 111.13,-78.61 95.94,-65.57"/>
<polygon fill="none" stroke="#404040" points="95.85,-65.49 88.69,-64.62 86.75,-57.68 93.9,-58.55 95.85,-65.49"/>
<text text-anchor="middle" x="144" y="-79" font-family="Helvetica,sans-Serif" font-size="10.00"> +encoder</text>
</g>
<!-- Node3 -->
<g id="node3" class="node">
<title>Node3</title>
<g id="a_node3"><a xlink:title=" ">
<polygon fill="white" stroke="black" points="4,-232.5 4,-289.5 33,-289.5 33,-232.5 4,-232.5"/>
<text text-anchor="middle" x="18.5" y="-277.5" font-family="Helvetica,sans-Serif" font-size="10.00">int</text>
<polyline fill="none" stroke="black" points="4,-270.5 33,-270.5 "/>
<text text-anchor="middle" x="18.5" y="-258.5" font-family="Helvetica,sans-Serif" font-size="10.00"> </text>
<polyline fill="none" stroke="black" points="4,-251.5 33,-251.5 "/>
<text text-anchor="middle" x="18.5" y="-239.5" font-family="Helvetica,sans-Serif" font-size="10.00"> </text>
</a>
</g>
</g>
<!-- Node3&#45;&gt;Node1 -->
<g id="edge6" class="edge">
<title>Node3&#45;&gt;Node1</title>
<path fill="none" stroke="#404040" d="M12.66,-232.32C7.12,-200.9 1.18,-148.39 12.5,-105 15.81,-92.31 21.8,-79.49 28.24,-68.12"/>
<polygon fill="none" stroke="#404040" points="28.3,-68.02 27.96,-60.82 34.48,-57.73 34.82,-64.93 28.3,-68.02"/>
<text text-anchor="middle" x="60" y="-131.5" font-family="Helvetica,sans-Serif" font-size="10.00"> +encoder_deb_out</text>
</g>
<!-- Node3&#45;&gt;Node2 -->
<g id="edge2" class="edge">
<title>Node3&#45;&gt;Node2</title>
<path fill="none" stroke="#404040" d="M28.78,-232.43C36.23,-215.67 47.76,-194.89 63.5,-181 65.52,-179.22 84.04,-171.36 105.39,-162.63"/>
<polygon fill="none" stroke="#404040" points="105.63,-162.54 109.68,-156.57 116.74,-158.01 112.69,-163.98 105.63,-162.54"/>
<text text-anchor="middle" x="83" y="-195" font-family="Helvetica,sans-Serif" font-size="10.00"> +count</text>
</g>
<!-- Node4 -->
<g id="node4" class="node">
<title>Node4</title>
<g id="a_node4"><a xlink:title=" ">
<polygon fill="white" stroke="black" points="66.5,-232.5 66.5,-289.5 134.5,-289.5 134.5,-232.5 66.5,-232.5"/>
<text text-anchor="middle" x="100.5" y="-277.5" font-family="Helvetica,sans-Serif" font-size="10.00">hal_float_t</text>
<polyline fill="none" stroke="black" points="66.5,-270.5 134.5,-270.5 "/>
<text text-anchor="middle" x="100.5" y="-258.5" font-family="Helvetica,sans-Serif" font-size="10.00"> </text>
<polyline fill="none" stroke="black" points="66.5,-251.5 134.5,-251.5 "/>
<text text-anchor="middle" x="100.5" y="-239.5" font-family="Helvetica,sans-Serif" font-size="10.00"> </text>
</a>
</g>
</g>
<!-- Node4&#45;&gt;Node2 -->
<g id="edge3" class="edge">
<title>Node4&#45;&gt;Node2</title>
<path fill="none" stroke="#404040" d="M102.81,-232.38C105.16,-216.4 109.91,-196.46 119.5,-181 121.57,-177.67 123.96,-174.46 126.56,-171.39"/>
<polygon fill="none" stroke="#404040" points="126.62,-171.33 127.87,-164.23 134.9,-162.65 133.65,-169.75 126.62,-171.33"/>
<text text-anchor="middle" x="145" y="-206" font-family="Helvetica,sans-Serif" font-size="10.00"> +position</text>
<text text-anchor="middle" x="145" y="-195" font-family="Helvetica,sans-Serif" font-size="10.00">+scale</text>
<text text-anchor="middle" x="145" y="-184" font-family="Helvetica,sans-Serif" font-size="10.00">+velocity</text>
</g>
<!-- Node5 -->
<g id="node5" class="node">
<title>Node5</title>
<g id="a_node5"><a xlink:title=" ">
<polygon fill="white" stroke="black" points="155.5,-232.5 155.5,-289.5 193.5,-289.5 193.5,-232.5 155.5,-232.5"/>
<text text-anchor="middle" x="174.5" y="-277.5" font-family="Helvetica,sans-Serif" font-size="10.00">bool</text>
<polyline fill="none" stroke="black" points="155.5,-270.5 193.5,-270.5 "/>
<text text-anchor="middle" x="174.5" y="-258.5" font-family="Helvetica,sans-Serif" font-size="10.00"> </text>
<polyline fill="none" stroke="black" points="155.5,-251.5 193.5,-251.5 "/>
<text text-anchor="middle" x="174.5" y="-239.5" font-family="Helvetica,sans-Serif" font-size="10.00"> </text>
</a>
</g>
</g>
<!-- Node5&#45;&gt;Node2 -->
<g id="edge4" class="edge">
<title>Node5&#45;&gt;Node2</title>
<path fill="none" stroke="#404040" d="M174.5,-232.26C174.5,-215.35 174.5,-193.46 174.5,-174.73"/>
<polygon fill="none" stroke="#404040" points="174.5,-174.66 170.5,-168.66 174.5,-162.66 178.5,-168.66 174.5,-174.66"/>
<text text-anchor="middle" x="213" y="-200.5" font-family="Helvetica,sans-Serif" font-size="10.00"> +index_enable</text>
<text text-anchor="middle" x="213" y="-189.5" font-family="Helvetica,sans-Serif" font-size="10.00">+reset</text>
</g>
<!-- Node6 -->
<g id="node6" class="node">
<title>Node6</title>
<g id="a_node6"><a xlink:title=" ">
<polygon fill="white" stroke="black" points="223.5,-232.5 223.5,-289.5 325.5,-289.5 325.5,-232.5 223.5,-232.5"/>
<text text-anchor="middle" x="274.5" y="-277.5" font-family="Helvetica,sans-Serif" font-size="10.00">volatile rtapi_u32</text>
<polyline fill="none" stroke="black" points="223.5,-270.5 325.5,-270.5 "/>
<text text-anchor="middle" x="274.5" y="-258.5" font-family="Helvetica,sans-Serif" font-size="10.00"> </text>
<polyline fill="none" stroke="black" points="223.5,-251.5 325.5,-251.5 "/>
<text text-anchor="middle" x="274.5" y="-239.5" font-family="Helvetica,sans-Serif" font-size="10.00"> </text>
</a>
</g>
</g>
<!-- Node6&#45;&gt;Node2 -->
<g id="edge5" class="edge">
<title>Node6&#45;&gt;Node2</title>
<path fill="none" stroke="#404040" d="M272.01,-232.47C269.35,-216.13 263.86,-195.79 252.5,-181 249.38,-176.93 245.78,-173.15 241.89,-169.66"/>
<polygon fill="none" stroke="#404040" points="241.7,-169.51 234.52,-168.88 232.34,-162.01 239.52,-162.64 241.7,-169.51"/>
<text text-anchor="middle" x="310" y="-206" font-family="Helvetica,sans-Serif" font-size="10.00"> +channelApin</text>
<text text-anchor="middle" x="310" y="-195" font-family="Helvetica,sans-Serif" font-size="10.00">+channelBpin</text>
<text text-anchor="middle" x="310" y="-184" font-family="Helvetica,sans-Serif" font-size="10.00">+encoderOptions</text>
</g>
</g>
</svg>
