<?xml version="1.0" encoding="UTF-8" standalone="no"?>
<!DOCTYPE svg PUBLIC "-//W3C//DTD SVG 1.1//EN"
 "http://www.w3.org/Graphics/SVG/1.1/DTD/svg11.dtd">
<!-- Generated by graphviz version 2.43.0 (0)
 -->
<!-- Title: all_IO_data_t Pages: 1 -->
<svg width="562pt" height="331pt"
 viewBox="0.00 0.00 562.00 331.00" xmlns="http://www.w3.org/2000/svg" xmlns:xlink="http://www.w3.org/1999/xlink">
<g id="graph0" class="graph" transform="scale(1 1) rotate(0) translate(4 327)">
<title>all_IO_data_t</title>
<polygon fill="white" stroke="transparent" points="-4,4 -4,-327 558,-327 558,4 -4,4"/>
<!-- Node1 -->
<g id="node1" class="node">
<title>Node1</title>
<g id="a_node1"><a xlink:title=" ">
<polygon fill="#bfbfbf" stroke="black" points="241,-0.5 241,-57.5 321,-57.5 321,-0.5 241,-0.5"/>
<text text-anchor="middle" x="281" y="-45.5" font-family="Helvetica,sans-Serif" font-size="10.00">all_IO_data_t</text>
<polyline fill="none" stroke="black" points="241,-38.5 321,-38.5 "/>
<text text-anchor="middle" x="281" y="-26.5" font-family="Helvetica,sans-Serif" font-size="10.00"> </text>
<polyline fill="none" stroke="black" points="241,-19.5 321,-19.5 "/>
<text text-anchor="middle" x="281" y="-7.5" font-family="Helvetica,sans-Serif" font-size="10.00"> </text>
</a>
</g>
</g>
<!-- Node2 -->
<g id="node2" class="node">
<title>Node2</title>
<g id="a_node2"><a xlink:href="structone__adcout__data__t.html" target="_top" xlink:title=" ">
<polygon fill="white" stroke="black" points="294.5,-105.5 294.5,-162.5 403.5,-162.5 403.5,-105.5 294.5,-105.5"/>
<text text-anchor="middle" x="349" y="-150.5" font-family="Helvetica,sans-Serif" font-size="10.00">one_adcout_data_t</text>
<polyline fill="none" stroke="black" points="294.5,-143.5 403.5,-143.5 "/>
<text text-anchor="middle" x="349" y="-131.5" font-family="Helvetica,sans-Serif" font-size="10.00"> </text>
<polyline fill="none" stroke="black" points="294.5,-124.5 403.5,-124.5 "/>
<text text-anchor="middle" x="349" y="-112.5" font-family="Helvetica,sans-Serif" font-size="10.00"> </text>
</a>
</g>
</g>
<!-- Node2&#45;&gt;Node1 -->
<g id="edge1" class="edge">
<title>Node2&#45;&gt;Node1</title>
<path fill="none" stroke="#404040" d="M330.78,-105.4C323.15,-93.85 314.17,-80.25 305.95,-67.8"/>
<polygon fill="none" stroke="#404040" points="305.88,-67.69 299.24,-64.89 299.27,-57.68 305.92,-60.48 305.88,-67.69"/>
<text text-anchor="middle" x="340.5" y="-79" font-family="Helvetica,sans-Serif" font-size="10.00"> +adcout</text>
</g>
<!-- Node3 -->
<g id="node3" class="node">
<title>Node3</title>
<g id="a_node3"><a xlink:title=" ">
<polygon fill="white" stroke="black" points="0,-265.5 0,-322.5 56,-322.5 56,-265.5 0,-265.5"/>
<text text-anchor="middle" x="28" y="-310.5" font-family="Helvetica,sans-Serif" font-size="10.00">uint32_t</text>
<polyline fill="none" stroke="black" points="0,-303.5 56,-303.5 "/>
<text text-anchor="middle" x="28" y="-291.5" font-family="Helvetica,sans-Serif" font-size="10.00"> </text>
<polyline fill="none" stroke="black" points="0,-284.5 56,-284.5 "/>
<text text-anchor="middle" x="28" y="-272.5" font-family="Helvetica,sans-Serif" font-size="10.00"> </text>
</a>
</g>
</g>
<!-- Node3&#45;&gt;Node1 -->
<g id="edge5" class="edge">
<title>Node3&#45;&gt;Node1</title>
<path fill="none" stroke="#404040" d="M15.95,-265.22C13.9,-259.31 12.08,-253.03 11,-247 -0.44,-183.02 -2.69,-148.06 46,-105 97.53,-59.43 176.91,-41.52 228.91,-34.5"/>
<polygon fill="none" stroke="#404040" points="228.95,-34.49 234.41,-29.78 240.85,-33.01 235.39,-37.72 228.95,-34.49"/>
<text text-anchor="middle" x="99.5" y="-142.5" font-family="Helvetica,sans-Serif" font-size="10.00"> +adcout_deb_outv</text>
<text text-anchor="middle" x="99.5" y="-131.5" font-family="Helvetica,sans-Serif" font-size="10.00">+adcout_pwm_period</text>
<text text-anchor="middle" x="99.5" y="-120.5" font-family="Helvetica,sans-Serif" font-size="10.00">+deb_out</text>
</g>
<!-- Node3&#45;&gt;Node2 -->
<g id="edge2" class="edge">
<title>Node3&#45;&gt;Node2</title>
<path fill="none" stroke="#404040" d="M56.28,-281.97C72.89,-274.28 93.25,-262.6 107,-247 128.07,-223.09 109.61,-200.25 135,-181 160,-162.05 244.57,-170.6 275,-163 277.6,-162.35 280.23,-161.64 282.88,-160.88"/>
<polygon fill="none" stroke="#404040" points="283.04,-160.82 287.58,-155.22 294.5,-157.25 289.96,-162.86 283.04,-160.82"/>
<text text-anchor="middle" x="166" y="-222.5" font-family="Helvetica,sans-Serif" font-size="10.00"> +PinId</text>
<text text-anchor="middle" x="166" y="-211.5" font-family="Helvetica,sans-Serif" font-size="10.00">+deb_out</text>
<text text-anchor="middle" x="166" y="-200.5" font-family="Helvetica,sans-Serif" font-size="10.00">+deb_setval</text>
</g>
<!-- Node7 -->
<g id="node7" class="node">
<title>Node7</title>
<g id="a_node7"><a xlink:href="structone__digiIO__data__t.html" target="_top" xlink:title=" ">
<polygon fill="white" stroke="black" points="162,-105.5 162,-162.5 266,-162.5 266,-105.5 162,-105.5"/>
<text text-anchor="middle" x="214" y="-150.5" font-family="Helvetica,sans-Serif" font-size="10.00">one_digiIO_data_t</text>
<polyline fill="none" stroke="black" points="162,-143.5 266,-143.5 "/>
<text text-anchor="middle" x="214" y="-131.5" font-family="Helvetica,sans-Serif" font-size="10.00"> </text>
<polyline fill="none" stroke="black" points="162,-124.5 266,-124.5 "/>
<text text-anchor="middle" x="214" y="-112.5" font-family="Helvetica,sans-Serif" font-size="10.00"> </text>
</a>
</g>
</g>
<!-- Node3&#45;&gt;Node7 -->
<g id="edge10" class="edge">
<title>Node3&#45;&gt;Node7</title>
<path fill="none" stroke="#404040" d="M19.55,-265.44C13.77,-240.62 10.16,-204.53 29,-181 50.96,-153.56 71.88,-171.41 106,-163 120.25,-159.49 135.53,-155.6 149.98,-151.87"/>
<polygon fill="none" stroke="#404040" points="150.26,-151.8 155.07,-146.42 161.88,-148.78 157.07,-154.16 150.26,-151.8"/>
<text text-anchor="middle" x="68" y="-217" font-family="Helvetica,sans-Serif" font-size="10.00"> +PinFunction</text>
<text text-anchor="middle" x="68" y="-206" font-family="Helvetica,sans-Serif" font-size="10.00">+counter_value</text>
</g>
<!-- Node4 -->
<g id="node4" class="node">
<title>Node4</title>
<g id="a_node4"><a xlink:title=" ">
<polygon fill="white" stroke="black" points="436,-265.5 436,-322.5 504,-322.5 504,-265.5 436,-265.5"/>
<text text-anchor="middle" x="470" y="-310.5" font-family="Helvetica,sans-Serif" font-size="10.00">hal_float_t</text>
<polyline fill="none" stroke="black" points="436,-303.5 504,-303.5 "/>
<text text-anchor="middle" x="470" y="-291.5" font-family="Helvetica,sans-Serif" font-size="10.00"> </text>
<polyline fill="none" stroke="black" points="436,-284.5 504,-284.5 "/>
<text text-anchor="middle" x="470" y="-272.5" font-family="Helvetica,sans-Serif" font-size="10.00"> </text>
</a>
</g>
</g>
<!-- Node4&#45;&gt;Node2 -->
<g id="edge3" class="edge">
<title>Node4&#45;&gt;Node2</title>
<path fill="none" stroke="#404040" d="M439.31,-265.46C434.05,-259.73 429,-253.46 425,-247 408.63,-220.6 419.43,-206.71 402,-181 399.78,-177.72 397.27,-174.54 394.57,-171.47"/>
<polygon fill="none" stroke="#404040" points="394.4,-171.29 387.36,-169.76 386.06,-162.66 393.11,-164.2 394.4,-171.29"/>
<text text-anchor="middle" x="455.5" y="-239" font-family="Helvetica,sans-Serif" font-size="10.00"> +high_limit</text>
<text text-anchor="middle" x="455.5" y="-228" font-family="Helvetica,sans-Serif" font-size="10.00">+low_limit</text>
<text text-anchor="middle" x="455.5" y="-217" font-family="Helvetica,sans-Serif" font-size="10.00">+max_v</text>
<text text-anchor="middle" x="455.5" y="-206" font-family="Helvetica,sans-Serif" font-size="10.00">+offset</text>
<text text-anchor="middle" x="455.5" y="-195" font-family="Helvetica,sans-Serif" font-size="10.00">+scale</text>
<text text-anchor="middle" x="455.5" y="-184" font-family="Helvetica,sans-Serif" font-size="10.00">+value</text>
</g>
<!-- Node6 -->
<g id="node6" class="node">
<title>Node6</title>
<g id="a_node6"><a xlink:href="structone__adcin__data__t.html" target="_top" xlink:title=" ">
<polygon fill="white" stroke="black" points="441,-105.5 441,-162.5 543,-162.5 543,-105.5 441,-105.5"/>
<text text-anchor="middle" x="492" y="-150.5" font-family="Helvetica,sans-Serif" font-size="10.00">one_adcin_data_t</text>
<polyline fill="none" stroke="black" points="441,-143.5 543,-143.5 "/>
<text text-anchor="middle" x="492" y="-131.5" font-family="Helvetica,sans-Serif" font-size="10.00"> </text>
<polyline fill="none" stroke="black" points="441,-124.5 543,-124.5 "/>
<text text-anchor="middle" x="492" y="-112.5" font-family="Helvetica,sans-Serif" font-size="10.00"> </text>
</a>
</g>
</g>
<!-- Node4&#45;&gt;Node6 -->
<g id="edge7" class="edge">
<title>Node4&#45;&gt;Node6</title>
<path fill="none" stroke="#404040" d="M484.08,-265.36C486.5,-259.45 488.67,-253.13 490,-247 495.14,-223.33 495.76,-196.18 495.03,-174.54"/>
<polygon fill="none" stroke="#404040" points="495.03,-174.49 490.75,-168.68 494.47,-162.5 498.74,-168.31 495.03,-174.49"/>
<text text-anchor="middle" x="524.5" y="-228" font-family="Helvetica,sans-Serif" font-size="10.00"> +offset</text>
<text text-anchor="middle" x="524.5" y="-217" font-family="Helvetica,sans-Serif" font-size="10.00">+scale</text>
<text text-anchor="middle" x="524.5" y="-206" font-family="Helvetica,sans-Serif" font-size="10.00">+value</text>
<text text-anchor="middle" x="524.5" y="-195" font-family="Helvetica,sans-Serif" font-size="10.00">+value_raw</text>
</g>
<!-- Node5 -->
<g id="node5" class="node">
<title>Node5</title>
<g id="a_node5"><a xlink:title=" ">
<polygon fill="white" stroke="black" points="266,-265.5 266,-322.5 304,-322.5 304,-265.5 266,-265.5"/>
<text text-anchor="middle" x="285" y="-310.5" font-family="Helvetica,sans-Serif" font-size="10.00">bool</text>
<polyline fill="none" stroke="black" points="266,-303.5 304,-303.5 "/>
<text text-anchor="middle" x="285" y="-291.5" font-family="Helvetica,sans-Serif" font-size="10.00"> </text>
<polyline fill="none" stroke="black" points="266,-284.5 304,-284.5 "/>
<text text-anchor="middle" x="285" y="-272.5" font-family="Helvetica,sans-Serif" font-size="10.00"> </text>
</a>
</g>
</g>
<!-- Node5&#45;&gt;Node2 -->
<g id="edge4" class="edge">
<title>Node5&#45;&gt;Node2</title>
<path fill="none" stroke="#404040" d="M304,-281.86C315.91,-273.78 330.39,-261.72 338,-247 349.37,-224.99 352.18,-197.3 352.11,-174.96"/>
<polygon fill="none" stroke="#404040" points="352.11,-174.84 347.96,-168.94 351.8,-162.84 355.95,-168.74 352.11,-174.84"/>
<text text-anchor="middle" x="375.5" y="-211.5" font-family="Helvetica,sans-Serif" font-size="10.00"> +enable</text>
</g>
<!-- Node5&#45;&gt;Node7 -->
<g id="edge9" class="edge">
<title>Node5&#45;&gt;Node7</title>
<path fill="none" stroke="#404040" d="M265.87,-287.12C248.08,-280.52 222.61,-267.89 211,-247 198.88,-225.2 199.66,-197.13 203.45,-174.55"/>
<polygon fill="none" stroke="#404040" points="203.48,-174.41 200.72,-167.75 205.8,-162.64 208.56,-169.3 203.48,-174.41"/>
<text text-anchor="middle" x="272.5" y="-239" font-family="Helvetica,sans-Serif" font-size="10.00"> +DigitalValueSet_ignore</text>
<text text-anchor="middle" x="272.5" y="-228" font-family="Helvetica,sans-Serif" font-size="10.00">+digin_in</text>
<text text-anchor="middle" x="272.5" y="-217" font-family="Helvetica,sans-Serif" font-size="10.00">+digin_in_not</text>
<text text-anchor="middle" x="272.5" y="-206" font-family="Helvetica,sans-Serif" font-size="10.00">+digin_invert</text>
<text text-anchor="middle" x="272.5" y="-195" font-family="Helvetica,sans-Serif" font-size="10.00">+digout_invert</text>
<text text-anchor="middle" x="272.5" y="-184" font-family="Helvetica,sans-Serif" font-size="10.00">+digout_out</text>
</g>
<!-- Node6&#45;&gt;Node1 -->
<g id="edge6" class="edge">
<title>Node6&#45;&gt;Node1</title>
<path fill="none" stroke="#404040" d="M440.92,-108.07C407.83,-91.91 364.9,-70.96 331.85,-54.82"/>
<polygon fill="none" stroke="#404040" points="331.84,-54.82 324.69,-55.78 321.05,-49.55 328.2,-48.59 331.84,-54.82"/>
<text text-anchor="middle" x="412" y="-79" font-family="Helvetica,sans-Serif" font-size="10.00"> +adcin</text>
</g>
<!-- Node7&#45;&gt;Node1 -->
<g id="edge8" class="edge">
<title>Node7&#45;&gt;Node1</title>
<path fill="none" stroke="#404040" d="M231.95,-105.4C239.46,-93.85 248.31,-80.25 256.41,-67.8"/>
<polygon fill="none" stroke="#404040" points="256.45,-67.74 256.37,-60.53 263,-57.68 263.08,-64.89 256.45,-67.74"/>
<text text-anchor="middle" x="263.5" y="-79" font-family="Helvetica,sans-Serif" font-size="10.00"> +Pin</text>
</g>
</g>
</svg>
