<?xml version="1.0" encoding="UTF-8" standalone="no"?>
<!DOCTYPE svg PUBLIC "-//W3C//DTD SVG 1.1//EN"
 "http://www.w3.org/Graphics/SVG/1.1/DTD/svg11.dtd">
<!-- Generated by graphviz version 2.43.0 (0)
 -->
<!-- Title: CanonConfig_t Pages: 1 -->
<svg width="1079pt" height="653pt"
 viewBox="0.00 0.00 1078.85 653.00" xmlns="http://www.w3.org/2000/svg" xmlns:xlink="http://www.w3.org/1999/xlink">
<g id="graph0" class="graph" transform="scale(1 1) rotate(0) translate(4 649)">
<title>CanonConfig_t</title>
<polygon fill="white" stroke="transparent" points="-4,4 -4,-649 1074.85,-649 1074.85,4 -4,4"/>
<!-- Node1 -->
<g id="node1" class="node">
<title>Node1</title>
<g id="a_node1"><a xlink:title=" ">
<polygon fill="#bfbfbf" stroke="black" points="454.85,-0.5 454.85,-57.5 560.85,-57.5 560.85,-0.5 454.85,-0.5"/>
<text text-anchor="middle" x="507.85" y="-45.5" font-family="Helvetica,sans-Serif" font-size="10.00">CanonConfig_t</text>
<polyline fill="none" stroke="black" points="454.85,-38.5 560.85,-38.5 "/>
<text text-anchor="middle" x="507.85" y="-26.5" font-family="Helvetica,sans-Serif" font-size="10.00"> </text>
<polyline fill="none" stroke="black" points="454.85,-19.5 560.85,-19.5 "/>
<text text-anchor="start" x="462.85" y="-7.5" font-family="Helvetica,sans-Serif" font-size="10.00">+ CanonConfig_t()</text>
</a>
</g>
</g>
<!-- Node2 -->
<g id="node2" class="node">
<title>Node2</title>
<g id="a_node2"><a xlink:title=" ">
<polygon fill="white" stroke="black" points="218.85,-587.5 218.85,-644.5 268.85,-644.5 268.85,-587.5 218.85,-587.5"/>
<text text-anchor="middle" x="243.85" y="-632.5" font-family="Helvetica,sans-Serif" font-size="10.00">double</text>
<polyline fill="none" stroke="black" points="218.85,-625.5 268.85,-625.5 "/>
<text text-anchor="middle" x="243.85" y="-613.5" font-family="Helvetica,sans-Serif" font-size="10.00"> </text>
<polyline fill="none" stroke="black" points="218.85,-606.5 268.85,-606.5 "/>
<text text-anchor="middle" x="243.85" y="-594.5" font-family="Helvetica,sans-Serif" font-size="10.00"> </text>
</a>
</g>
</g>
<!-- Node2&#45;&gt;Node1 -->
<g id="edge1" class="edge">
<title>Node2&#45;&gt;Node1</title>
<path fill="none" stroke="#404040" d="M218.75,-597.57C169.48,-561.56 61.58,-473.43 23.85,-368 -1.31,-297.7 -13.57,-264.62 23.85,-200 79.31,-104.2 135.7,-113.49 239.85,-76 306.64,-51.95 387.44,-40.29 442.74,-34.75"/>
<polygon fill="none" stroke="#404040" points="442.89,-34.74 448.48,-30.18 454.83,-33.6 449.24,-38.15 442.89,-34.74"/>
<text text-anchor="middle" x="75.35" y="-303.5" font-family="Helvetica,sans-Serif" font-size="10.00"> +angularFeedRate</text>
<text text-anchor="middle" x="75.35" y="-292.5" font-family="Helvetica,sans-Serif" font-size="10.00">+linearFeedRate</text>
<text text-anchor="middle" x="75.35" y="-281.5" font-family="Helvetica,sans-Serif" font-size="10.00">+motionTolerance</text>
<text text-anchor="middle" x="75.35" y="-270.5" font-family="Helvetica,sans-Serif" font-size="10.00">+naivecamTolerance</text>
<text text-anchor="middle" x="75.35" y="-259.5" font-family="Helvetica,sans-Serif" font-size="10.00">+xy_rotation</text>
</g>
<!-- Node4 -->
<g id="node4" class="node">
<title>Node4</title>
<g id="a_node4"><a xlink:href="structCANON__POSITION.html" target="_top" xlink:title=" ">
<polygon fill="white" stroke="black" points="136.35,-200.5 136.35,-367.5 259.35,-367.5 259.35,-200.5 136.35,-200.5"/>
<text text-anchor="middle" x="197.85" y="-355.5" font-family="Helvetica,sans-Serif" font-size="10.00">CANON_POSITION</text>
<polyline fill="none" stroke="black" points="136.35,-348.5 259.35,-348.5 "/>
<text text-anchor="middle" x="197.85" y="-336.5" font-family="Helvetica,sans-Serif" font-size="10.00"> </text>
<polyline fill="none" stroke="black" points="136.35,-329.5 259.35,-329.5 "/>
<text text-anchor="start" x="144.35" y="-317.5" font-family="Helvetica,sans-Serif" font-size="10.00">+ CANON_POSITION()</text>
<text text-anchor="start" x="144.35" y="-306.5" font-family="Helvetica,sans-Serif" font-size="10.00">+ CANON_POSITION()</text>
<text text-anchor="start" x="144.35" y="-295.5" font-family="Helvetica,sans-Serif" font-size="10.00">+ CANON_POSITION()</text>
<text text-anchor="start" x="144.35" y="-284.5" font-family="Helvetica,sans-Serif" font-size="10.00">+ CANON_POSITION()</text>
<text text-anchor="start" x="144.35" y="-273.5" font-family="Helvetica,sans-Serif" font-size="10.00">+ CANON_POSITION()</text>
<text text-anchor="start" x="144.35" y="-262.5" font-family="Helvetica,sans-Serif" font-size="10.00">+ operator==()</text>
<text text-anchor="start" x="144.35" y="-251.5" font-family="Helvetica,sans-Serif" font-size="10.00">+ operator!=()</text>
<text text-anchor="start" x="144.35" y="-240.5" font-family="Helvetica,sans-Serif" font-size="10.00">+ operator+=()</text>
<text text-anchor="start" x="144.35" y="-229.5" font-family="Helvetica,sans-Serif" font-size="10.00">+ operator+=()</text>
<text text-anchor="start" x="144.35" y="-218.5" font-family="Helvetica,sans-Serif" font-size="10.00">+ operator+()</text>
<text text-anchor="start" x="144.35" y="-207.5" font-family="Helvetica,sans-Serif" font-size="10.00">and 15 more...</text>
</a>
</g>
</g>
<!-- Node2&#45;&gt;Node4 -->
<g id="edge4" class="edge">
<title>Node2&#45;&gt;Node4</title>
<path fill="none" stroke="#404040" d="M221.04,-587.39C217.34,-581.62 214.01,-575.35 211.85,-569 191.18,-508.38 187.87,-436.27 189.62,-379.88"/>
<polygon fill="none" stroke="#404040" points="189.63,-379.72 185.86,-373.57 190.09,-367.73 193.86,-373.88 189.63,-379.72"/>
<text text-anchor="middle" x="220.85" y="-561" font-family="Helvetica,sans-Serif" font-size="10.00"> +a</text>
<text text-anchor="middle" x="220.85" y="-550" font-family="Helvetica,sans-Serif" font-size="10.00">+b</text>
<text text-anchor="middle" x="220.85" y="-539" font-family="Helvetica,sans-Serif" font-size="10.00">+c</text>
<text text-anchor="middle" x="220.85" y="-528" font-family="Helvetica,sans-Serif" font-size="10.00">+u</text>
<text text-anchor="middle" x="220.85" y="-517" font-family="Helvetica,sans-Serif" font-size="10.00">+v</text>
<text text-anchor="middle" x="220.85" y="-506" font-family="Helvetica,sans-Serif" font-size="10.00">+w</text>
<text text-anchor="middle" x="220.85" y="-495" font-family="Helvetica,sans-Serif" font-size="10.00">+x</text>
<text text-anchor="middle" x="220.85" y="-484" font-family="Helvetica,sans-Serif" font-size="10.00">+y</text>
<text text-anchor="middle" x="220.85" y="-473" font-family="Helvetica,sans-Serif" font-size="10.00">+z</text>
</g>
<!-- Node7 -->
<g id="node7" class="node">
<title>Node7</title>
<g id="a_node7"><a xlink:href="structEmcPose.html" target="_top" xlink:title=" ">
<polygon fill="white" stroke="black" points="289.35,-120.5 289.35,-177.5 350.35,-177.5 350.35,-120.5 289.35,-120.5"/>
<text text-anchor="middle" x="319.85" y="-165.5" font-family="Helvetica,sans-Serif" font-size="10.00">EmcPose</text>
<polyline fill="none" stroke="black" points="289.35,-158.5 350.35,-158.5 "/>
<text text-anchor="middle" x="319.85" y="-146.5" font-family="Helvetica,sans-Serif" font-size="10.00"> </text>
<polyline fill="none" stroke="black" points="289.35,-139.5 350.35,-139.5 "/>
<text text-anchor="middle" x="319.85" y="-127.5" font-family="Helvetica,sans-Serif" font-size="10.00"> </text>
</a>
</g>
</g>
<!-- Node2&#45;&gt;Node7 -->
<g id="edge10" class="edge">
<title>Node2&#45;&gt;Node7</title>
<path fill="none" stroke="#404040" d="M241.62,-587.41C238.85,-543.94 236.29,-457.11 252.85,-386 254.83,-377.47 257.92,-376.25 260.85,-368 282.57,-306.83 300.87,-233.61 311.09,-189.51"/>
<polygon fill="none" stroke="#404040" points="311.14,-189.3 308.58,-182.56 313.82,-177.6 316.38,-184.35 311.14,-189.3"/>
<text text-anchor="middle" x="261.85" y="-444" font-family="Helvetica,sans-Serif" font-size="10.00"> +a</text>
<text text-anchor="middle" x="261.85" y="-433" font-family="Helvetica,sans-Serif" font-size="10.00">+b</text>
<text text-anchor="middle" x="261.85" y="-422" font-family="Helvetica,sans-Serif" font-size="10.00">+c</text>
<text text-anchor="middle" x="261.85" y="-411" font-family="Helvetica,sans-Serif" font-size="10.00">+u</text>
<text text-anchor="middle" x="261.85" y="-400" font-family="Helvetica,sans-Serif" font-size="10.00">+v</text>
<text text-anchor="middle" x="261.85" y="-389" font-family="Helvetica,sans-Serif" font-size="10.00">+w</text>
</g>
<!-- Node8 -->
<g id="node8" class="node">
<title>Node8</title>
<g id="a_node8"><a xlink:href="structPmCartesian.html" target="_top" xlink:title=" ">
<polygon fill="white" stroke="black" points="280.35,-390.5 280.35,-447.5 359.35,-447.5 359.35,-390.5 280.35,-390.5"/>
<text text-anchor="middle" x="319.85" y="-435.5" font-family="Helvetica,sans-Serif" font-size="10.00">PmCartesian</text>
<polyline fill="none" stroke="black" points="280.35,-428.5 359.35,-428.5 "/>
<text text-anchor="middle" x="319.85" y="-416.5" font-family="Helvetica,sans-Serif" font-size="10.00"> </text>
<polyline fill="none" stroke="black" points="280.35,-409.5 359.35,-409.5 "/>
<text text-anchor="middle" x="319.85" y="-397.5" font-family="Helvetica,sans-Serif" font-size="10.00"> </text>
</a>
</g>
</g>
<!-- Node2&#45;&gt;Node8 -->
<g id="edge9" class="edge">
<title>Node2&#45;&gt;Node8</title>
<path fill="none" stroke="#404040" d="M254.58,-587.47C267.61,-554.03 289.69,-497.38 304.51,-459.34"/>
<polygon fill="none" stroke="#404040" points="304.69,-458.88 303.15,-451.84 309.05,-447.7 310.6,-454.74 304.69,-458.88"/>
<text text-anchor="middle" x="308.85" y="-528" font-family="Helvetica,sans-Serif" font-size="10.00"> +x</text>
<text text-anchor="middle" x="308.85" y="-517" font-family="Helvetica,sans-Serif" font-size="10.00">+y</text>
<text text-anchor="middle" x="308.85" y="-506" font-family="Helvetica,sans-Serif" font-size="10.00">+z</text>
</g>
<!-- Node10 -->
<g id="node10" class="node">
<title>Node10</title>
<g id="a_node10"><a xlink:href="structCanonSpindle__t.html" target="_top" xlink:title=" ">
<polygon fill="white" stroke="black" points="379.85,-120.5 379.85,-177.5 471.85,-177.5 471.85,-120.5 379.85,-120.5"/>
<text text-anchor="middle" x="425.85" y="-165.5" font-family="Helvetica,sans-Serif" font-size="10.00">CanonSpindle_t</text>
<polyline fill="none" stroke="black" points="379.85,-158.5 471.85,-158.5 "/>
<text text-anchor="middle" x="425.85" y="-146.5" font-family="Helvetica,sans-Serif" font-size="10.00"> </text>
<polyline fill="none" stroke="black" points="379.85,-139.5 471.85,-139.5 "/>
<text text-anchor="middle" x="425.85" y="-127.5" font-family="Helvetica,sans-Serif" font-size="10.00"> </text>
</a>
</g>
</g>
<!-- Node2&#45;&gt;Node10 -->
<g id="edge14" class="edge">
<title>Node2&#45;&gt;Node10</title>
<path fill="none" stroke="#404040" d="M268.95,-605.38C285.89,-597.76 307.67,-585.62 321.85,-569 431.47,-440.49 376.72,-365.01 412.85,-200 413.59,-196.59 414.41,-193.06 415.27,-189.53"/>
<polygon fill="none" stroke="#404040" points="415.32,-189.32 412.9,-182.52 418.24,-177.68 420.66,-184.47 415.32,-189.32"/>
<text text-anchor="middle" x="435.85" y="-427.5" font-family="Helvetica,sans-Serif" font-size="10.00"> +css_factor</text>
<text text-anchor="middle" x="435.85" y="-416.5" font-family="Helvetica,sans-Serif" font-size="10.00">+css_maximum</text>
<text text-anchor="middle" x="435.85" y="-405.5" font-family="Helvetica,sans-Serif" font-size="10.00">+speed</text>
</g>
<!-- Node3 -->
<g id="node3" class="node">
<title>Node3</title>
<g id="a_node3"><a xlink:title=" ">
<polygon fill="white" stroke="black" points="494.35,-390.5 494.35,-447.5 523.35,-447.5 523.35,-390.5 494.35,-390.5"/>
<text text-anchor="middle" x="508.85" y="-435.5" font-family="Helvetica,sans-Serif" font-size="10.00">int</text>
<polyline fill="none" stroke="black" points="494.35,-428.5 523.35,-428.5 "/>
<text text-anchor="middle" x="508.85" y="-416.5" font-family="Helvetica,sans-Serif" font-size="10.00"> </text>
<polyline fill="none" stroke="black" points="494.35,-409.5 523.35,-409.5 "/>
<text text-anchor="middle" x="508.85" y="-397.5" font-family="Helvetica,sans-Serif" font-size="10.00"> </text>
</a>
</g>
</g>
<!-- Node3&#45;&gt;Node1 -->
<g id="edge2" class="edge">
<title>Node3&#45;&gt;Node1</title>
<path fill="none" stroke="#404040" d="M508.78,-390.41C508.6,-322.84 508.15,-148.87 507.95,-69.97"/>
<polygon fill="none" stroke="#404040" points="507.95,-69.71 503.93,-63.72 507.92,-57.71 511.93,-63.7 507.95,-69.71"/>
<text text-anchor="middle" x="554.85" y="-174" font-family="Helvetica,sans-Serif" font-size="10.00"> +angular_move</text>
<text text-anchor="middle" x="554.85" y="-163" font-family="Helvetica,sans-Serif" font-size="10.00">+cartesian_move</text>
<text text-anchor="middle" x="554.85" y="-152" font-family="Helvetica,sans-Serif" font-size="10.00">+feed_mode</text>
<text text-anchor="start" x="507.85" y="-141" font-family="Helvetica,sans-Serif" font-size="10.00">+rotary_unlock_for</text>
<text text-anchor="middle" x="554.85" y="-130" font-family="Helvetica,sans-Serif" font-size="10.00">_traverse</text>
<text text-anchor="middle" x="554.85" y="-119" font-family="Helvetica,sans-Serif" font-size="10.00">+spindle_num</text>
</g>
<!-- Node3&#45;&gt;Node10 -->
<g id="edge13" class="edge">
<title>Node3&#45;&gt;Node10</title>
<path fill="none" stroke="#404040" d="M494.25,-398.82C490,-394.15 485.08,-389.5 479.85,-386 460.22,-372.86 443.6,-387.2 429.85,-368 410.11,-340.45 416.02,-244.8 421.36,-189.78"/>
<polygon fill="none" stroke="#404040" points="421.38,-189.65 418,-183.28 422.59,-177.71 425.96,-184.09 421.38,-189.65"/>
<text text-anchor="middle" x="461.85" y="-292.5" font-family="Helvetica,sans-Serif" font-size="10.00"> +dir</text>
<text text-anchor="middle" x="461.85" y="-281.5" font-family="Helvetica,sans-Serif" font-size="10.00">+feed_mode</text>
<text text-anchor="middle" x="461.85" y="-270.5" font-family="Helvetica,sans-Serif" font-size="10.00">+synched</text>
</g>
<!-- Node4&#45;&gt;Node1 -->
<g id="edge3" class="edge">
<title>Node4&#45;&gt;Node1</title>
<path fill="none" stroke="#404040" d="M193.54,-200.41C196.11,-170.82 204.13,-139.1 223.85,-116 277.89,-52.69 376.86,-35.04 442.51,-30.63"/>
<polygon fill="none" stroke="#404040" points="442.78,-30.61 448.55,-26.28 454.76,-29.93 449,-34.27 442.78,-30.61"/>
<text text-anchor="middle" x="251.85" y="-157.5" font-family="Helvetica,sans-Serif" font-size="10.00"> +endPoint</text>
<text text-anchor="middle" x="251.85" y="-146.5" font-family="Helvetica,sans-Serif" font-size="10.00">+g5xOffset</text>
<text text-anchor="middle" x="251.85" y="-135.5" font-family="Helvetica,sans-Serif" font-size="10.00">+g92Offset</text>
</g>
<!-- Node5 -->
<g id="node5" class="node">
<title>Node5</title>
<g id="a_node5"><a xlink:title=" ">
<polygon fill="white" stroke="black" points="619.85,-120.5 619.85,-177.5 707.85,-177.5 707.85,-120.5 619.85,-120.5"/>
<text text-anchor="middle" x="663.85" y="-165.5" font-family="Helvetica,sans-Serif" font-size="10.00">CANON_UNITS</text>
<polyline fill="none" stroke="black" points="619.85,-158.5 707.85,-158.5 "/>
<text text-anchor="middle" x="663.85" y="-146.5" font-family="Helvetica,sans-Serif" font-size="10.00"> </text>
<polyline fill="none" stroke="black" points="619.85,-139.5 707.85,-139.5 "/>
<text text-anchor="middle" x="663.85" y="-127.5" font-family="Helvetica,sans-Serif" font-size="10.00"> </text>
</a>
</g>
</g>
<!-- Node5&#45;&gt;Node1 -->
<g id="edge5" class="edge">
<title>Node5&#45;&gt;Node1</title>
<path fill="none" stroke="#404040" d="M627.27,-120.33C605.44,-103.82 577.52,-82.7 554.16,-65.03"/>
<polygon fill="none" stroke="#404040" points="554.03,-64.94 546.84,-64.51 544.46,-57.7 551.66,-58.13 554.03,-64.94"/>
<text text-anchor="middle" x="628.85" y="-84.5" font-family="Helvetica,sans-Serif" font-size="10.00"> +lengthUnits</text>
</g>
<!-- Node6 -->
<g id="node6" class="node">
<title>Node6</title>
<g id="a_node6"><a xlink:title=" ">
<polygon fill="white" stroke="black" points="725.85,-120.5 725.85,-177.5 815.85,-177.5 815.85,-120.5 725.85,-120.5"/>
<text text-anchor="middle" x="770.85" y="-165.5" font-family="Helvetica,sans-Serif" font-size="10.00">CANON_PLANE</text>
<polyline fill="none" stroke="black" points="725.85,-158.5 815.85,-158.5 "/>
<text text-anchor="middle" x="770.85" y="-146.5" font-family="Helvetica,sans-Serif" font-size="10.00"> </text>
<polyline fill="none" stroke="black" points="725.85,-139.5 815.85,-139.5 "/>
<text text-anchor="middle" x="770.85" y="-127.5" font-family="Helvetica,sans-Serif" font-size="10.00"> </text>
</a>
</g>
</g>
<!-- Node6&#45;&gt;Node1 -->
<g id="edge6" class="edge">
<title>Node6&#45;&gt;Node1</title>
<path fill="none" stroke="#404040" d="M736.96,-120.34C717.42,-105.5 691.84,-87.88 666.85,-76 637.19,-61.91 602.33,-51.23 572.83,-43.73"/>
<polygon fill="none" stroke="#404040" points="572.61,-43.68 565.83,-46.13 560.96,-40.81 567.74,-38.36 572.61,-43.68"/>
<text text-anchor="middle" x="737.35" y="-84.5" font-family="Helvetica,sans-Serif" font-size="10.00"> +activePlane</text>
</g>
<!-- Node7&#45;&gt;Node1 -->
<g id="edge7" class="edge">
<title>Node7&#45;&gt;Node1</title>
<path fill="none" stroke="#404040" d="M334.55,-120.45C343.78,-105.46 356.95,-87.65 372.85,-76 393.44,-60.91 419.33,-50.52 442.93,-43.48"/>
<polygon fill="none" stroke="#404040" points="443.09,-43.44 447.79,-37.97 454.65,-40.2 449.95,-45.67 443.09,-43.44"/>
<text text-anchor="middle" x="402.85" y="-84.5" font-family="Helvetica,sans-Serif" font-size="10.00"> +toolOffset</text>
</g>
<!-- Node8&#45;&gt;Node7 -->
<g id="edge8" class="edge">
<title>Node8&#45;&gt;Node7</title>
<path fill="none" stroke="#404040" d="M319.85,-390.33C319.85,-342.56 319.85,-244.48 319.85,-189.53"/>
<polygon fill="none" stroke="#404040" points="319.85,-189.52 315.85,-183.52 319.85,-177.52 323.85,-183.52 319.85,-189.52"/>
<text text-anchor="middle" x="335.35" y="-281.5" font-family="Helvetica,sans-Serif" font-size="10.00"> +tran</text>
</g>
<!-- Node9 -->
<g id="node9" class="node">
<title>Node9</title>
<g id="a_node9"><a xlink:title=" ">
<polygon fill="white" stroke="black" points="833.85,-120.5 833.85,-177.5 967.85,-177.5 967.85,-120.5 833.85,-120.5"/>
<text text-anchor="middle" x="900.85" y="-165.5" font-family="Helvetica,sans-Serif" font-size="10.00">CANON_MOTION_MODE</text>
<polyline fill="none" stroke="black" points="833.85,-158.5 967.85,-158.5 "/>
<text text-anchor="middle" x="900.85" y="-146.5" font-family="Helvetica,sans-Serif" font-size="10.00"> </text>
<polyline fill="none" stroke="black" points="833.85,-139.5 967.85,-139.5 "/>
<text text-anchor="middle" x="900.85" y="-127.5" font-family="Helvetica,sans-Serif" font-size="10.00"> </text>
</a>
</g>
</g>
<!-- Node9&#45;&gt;Node1 -->
<g id="edge11" class="edge">
<title>Node9&#45;&gt;Node1</title>
<path fill="none" stroke="#404040" d="M861.24,-120.34C837.49,-105.02 806.12,-86.92 775.85,-76 709.07,-51.91 628.27,-40.25 572.96,-34.73"/>
<polygon fill="none" stroke="#404040" points="572.82,-34.71 566.46,-38.13 560.87,-33.58 567.22,-30.16 572.82,-34.71"/>
<text text-anchor="middle" x="858.35" y="-84.5" font-family="Helvetica,sans-Serif" font-size="10.00"> +motionMode</text>
</g>
<!-- Node10&#45;&gt;Node1 -->
<g id="edge12" class="edge">
<title>Node10&#45;&gt;Node1</title>
<path fill="none" stroke="#404040" d="M429.67,-120.22C432.63,-106.04 437.82,-89.07 446.85,-76 449.26,-72.51 452.02,-69.18 455,-66.01"/>
<polygon fill="none" stroke="#404040" points="455.2,-65.82 456.79,-58.79 463.9,-57.55 462.3,-64.59 455.2,-65.82"/>
<text text-anchor="middle" x="470.35" y="-84.5" font-family="Helvetica,sans-Serif" font-size="10.00"> +spindle</text>
</g>
<!-- Node11 -->
<g id="node11" class="node">
<title>Node11</title>
<g id="a_node11"><a xlink:title=" ">
<polygon fill="white" stroke="black" points="985.85,-120.5 985.85,-177.5 1023.85,-177.5 1023.85,-120.5 985.85,-120.5"/>
<text text-anchor="middle" x="1004.85" y="-165.5" font-family="Helvetica,sans-Serif" font-size="10.00">bool</text>
<polyline fill="none" stroke="black" points="985.85,-158.5 1023.85,-158.5 "/>
<text text-anchor="middle" x="1004.85" y="-146.5" font-family="Helvetica,sans-Serif" font-size="10.00"> </text>
<polyline fill="none" stroke="black" points="985.85,-139.5 1023.85,-139.5 "/>
<text text-anchor="middle" x="1004.85" y="-127.5" font-family="Helvetica,sans-Serif" font-size="10.00"> </text>
</a>
</g>
</g>
<!-- Node11&#45;&gt;Node1 -->
<g id="edge15" class="edge">
<title>Node11&#45;&gt;Node1</title>
<path fill="none" stroke="#404040" d="M985.61,-123.92C982.82,-121.09 979.87,-118.36 976.85,-116 946.14,-92.02 936.12,-87.34 898.85,-76 787.75,-42.18 651.88,-32.99 573.07,-30.63"/>
<polygon fill="none" stroke="#404040" points="572.92,-30.63 566.81,-34.47 560.92,-30.31 567.03,-26.47 572.92,-30.63"/>
<text text-anchor="middle" x="1010.35" y="-90" font-family="Helvetica,sans-Serif" font-size="10.00"> +block_delete</text>
<text text-anchor="middle" x="1010.35" y="-79" font-family="Helvetica,sans-Serif" font-size="10.00">+optional_program_stop</text>
</g>
</g>
</svg>
