<?xml version="1.0" encoding="UTF-8" standalone="no"?>
<!DOCTYPE svg PUBLIC "-//W3C//DTD SVG 1.1//EN"
 "http://www.w3.org/Graphics/SVG/1.1/DTD/svg11.dtd">
<!-- Generated by graphviz version 2.43.0 (0)
 -->
<!-- Title: StateTag Pages: 1 -->
<svg width="248pt" height="309pt"
 viewBox="0.00 0.00 247.50 309.00" xmlns="http://www.w3.org/2000/svg" xmlns:xlink="http://www.w3.org/1999/xlink">
<g id="graph0" class="graph" transform="scale(1 1) rotate(0) translate(4 305)">
<title>StateTag</title>
<polygon fill="white" stroke="transparent" points="-4,4 -4,-305 243.5,-305 243.5,4 -4,4"/>
<!-- Node1 -->
<g id="node1" class="node">
<title>Node1</title>
<g id="a_node1"><a xlink:title=" ">
<polygon fill="#bfbfbf" stroke="black" points="102,-0.5 102,-90.5 204,-90.5 204,-0.5 102,-0.5"/>
<text text-anchor="middle" x="153" y="-78.5" font-family="Helvetica,sans-Serif" font-size="10.00">StateTag</text>
<polyline fill="none" stroke="black" points="102,-71.5 204,-71.5 "/>
<text text-anchor="middle" x="153" y="-59.5" font-family="Helvetica,sans-Serif" font-size="10.00"> </text>
<polyline fill="none" stroke="black" points="102,-52.5 204,-52.5 "/>
<text text-anchor="start" x="110" y="-40.5" font-family="Helvetica,sans-Serif" font-size="10.00">+ StateTag()</text>
<text text-anchor="start" x="110" y="-29.5" font-family="Helvetica,sans-Serif" font-size="10.00">+ StateTag()</text>
<text text-anchor="start" x="110" y="-18.5" font-family="Helvetica,sans-Serif" font-size="10.00">+ is_valid()</text>
<text text-anchor="start" x="110" y="-7.5" font-family="Helvetica,sans-Serif" font-size="10.00">+ get_state_tag()</text>
</a>
</g>
</g>
<!-- Node2 -->
<g id="node2" class="node">
<title>Node2</title>
<g id="a_node2"><a xlink:href="structstate__tag__t.html" target="_top" xlink:title=" ">
<polygon fill="white" stroke="black" points="71.5,-138.5 71.5,-195.5 142.5,-195.5 142.5,-138.5 71.5,-138.5"/>
<text text-anchor="middle" x="107" y="-183.5" font-family="Helvetica,sans-Serif" font-size="10.00">state_tag_t</text>
<polyline fill="none" stroke="black" points="71.5,-176.5 142.5,-176.5 "/>
<text text-anchor="middle" x="107" y="-164.5" font-family="Helvetica,sans-Serif" font-size="10.00"> </text>
<polyline fill="none" stroke="black" points="71.5,-157.5 142.5,-157.5 "/>
<text text-anchor="middle" x="107" y="-145.5" font-family="Helvetica,sans-Serif" font-size="10.00"> </text>
</a>
</g>
</g>
<!-- Node2&#45;&gt;Node1 -->
<g id="edge1" class="edge">
<title>Node2&#45;&gt;Node1</title>
<path fill="none" stroke="midnightblue" d="M121.39,-128.62C125.99,-116.67 131.13,-103.32 135.9,-90.91"/>
<polygon fill="none" stroke="midnightblue" points="118,-127.69 117.67,-138.28 124.53,-130.21 118,-127.69"/>
</g>
<!-- Node3 -->
<g id="node3" class="node">
<title>Node3</title>
<g id="a_node3"><a xlink:title=" ">
<polygon fill="white" stroke="black" points="0,-243.5 0,-300.5 38,-300.5 38,-243.5 0,-243.5"/>
<text text-anchor="middle" x="19" y="-288.5" font-family="Helvetica,sans-Serif" font-size="10.00">float</text>
<polyline fill="none" stroke="black" points="0,-281.5 38,-281.5 "/>
<text text-anchor="middle" x="19" y="-269.5" font-family="Helvetica,sans-Serif" font-size="10.00"> </text>
<polyline fill="none" stroke="black" points="0,-262.5 38,-262.5 "/>
<text text-anchor="middle" x="19" y="-250.5" font-family="Helvetica,sans-Serif" font-size="10.00"> </text>
</a>
</g>
</g>
<!-- Node3&#45;&gt;Node2 -->
<g id="edge2" class="edge">
<title>Node3&#45;&gt;Node2</title>
<path fill="none" stroke="#404040" d="M24.26,-243.41C27.13,-233.43 31.48,-222.54 38,-214 44.34,-205.69 52.64,-198.4 61.27,-192.21"/>
<polygon fill="none" stroke="#404040" points="61.45,-192.09 64.24,-185.44 71.45,-185.46 68.66,-192.11 61.45,-192.09"/>
<text text-anchor="middle" x="70.5" y="-217" font-family="Helvetica,sans-Serif" font-size="10.00"> +fields_float</text>
</g>
<!-- Node4 -->
<g id="node4" class="node">
<title>Node4</title>
<g id="a_node4"><a xlink:title=" ">
<polygon fill="white" stroke="black" points="92.5,-243.5 92.5,-300.5 121.5,-300.5 121.5,-243.5 92.5,-243.5"/>
<text text-anchor="middle" x="107" y="-288.5" font-family="Helvetica,sans-Serif" font-size="10.00">int</text>
<polyline fill="none" stroke="black" points="92.5,-281.5 121.5,-281.5 "/>
<text text-anchor="middle" x="107" y="-269.5" font-family="Helvetica,sans-Serif" font-size="10.00"> </text>
<polyline fill="none" stroke="black" points="92.5,-262.5 121.5,-262.5 "/>
<text text-anchor="middle" x="107" y="-250.5" font-family="Helvetica,sans-Serif" font-size="10.00"> </text>
</a>
</g>
</g>
<!-- Node4&#45;&gt;Node2 -->
<g id="edge3" class="edge">
<title>Node4&#45;&gt;Node2</title>
<path fill="none" stroke="#404040" d="M107,-243.4C107,-232.55 107,-219.87 107,-208.05"/>
<polygon fill="none" stroke="#404040" points="107,-207.68 103,-201.68 107,-195.68 111,-201.68 107,-207.68"/>
<text text-anchor="middle" x="126" y="-217" font-family="Helvetica,sans-Serif" font-size="10.00"> +fields</text>
</g>
<!-- Node5 -->
<g id="node5" class="node">
<title>Node5</title>
<g id="a_node5"><a xlink:title=" ">
<polygon fill="white" stroke="black" points="139.5,-243.5 139.5,-300.5 200.5,-300.5 200.5,-243.5 139.5,-243.5"/>
<text text-anchor="middle" x="170" y="-288.5" font-family="Helvetica,sans-Serif" font-size="10.00">unsigned</text>
<polyline fill="none" stroke="black" points="139.5,-281.5 200.5,-281.5 "/>
<text text-anchor="middle" x="170" y="-269.5" font-family="Helvetica,sans-Serif" font-size="10.00"> </text>
<polyline fill="none" stroke="black" points="139.5,-262.5 200.5,-262.5 "/>
<text text-anchor="middle" x="170" y="-250.5" font-family="Helvetica,sans-Serif" font-size="10.00"> </text>
</a>
</g>
</g>
<!-- Node5&#45;&gt;Node2 -->
<g id="edge4" class="edge">
<title>Node5&#45;&gt;Node2</title>
<path fill="none" stroke="#404040" d="M161.61,-243.38C158.09,-233.73 153.53,-223.05 148,-214 146.2,-211.05 144.19,-208.11 142.07,-205.22"/>
<polygon fill="none" stroke="#404040" points="141.97,-205.09 135.11,-202.88 134.51,-195.69 141.38,-197.91 141.97,-205.09"/>
<text text-anchor="middle" x="191.5" y="-217" font-family="Helvetica,sans-Serif" font-size="10.00"> +packed_flags</text>
</g>
<!-- Node6 -->
<g id="node6" class="node">
<title>Node6</title>
<g id="a_node6"><a xlink:title=" ">
<polygon fill="white" stroke="black" points="160.5,-138.5 160.5,-195.5 239.5,-195.5 239.5,-138.5 160.5,-138.5"/>
<text text-anchor="middle" x="200" y="-183.5" font-family="Helvetica,sans-Serif" font-size="10.00">bitset&lt; 64 &gt;</text>
<polyline fill="none" stroke="black" points="160.5,-176.5 239.5,-176.5 "/>
<text text-anchor="middle" x="200" y="-164.5" font-family="Helvetica,sans-Serif" font-size="10.00"> </text>
<polyline fill="none" stroke="black" points="160.5,-157.5 239.5,-157.5 "/>
<text text-anchor="middle" x="200" y="-145.5" font-family="Helvetica,sans-Serif" font-size="10.00"> </text>
</a>
</g>
</g>
<!-- Node6&#45;&gt;Node1 -->
<g id="edge5" class="edge">
<title>Node6&#45;&gt;Node1</title>
<path fill="none" stroke="#404040" d="M189.1,-138.28C184.86,-127.52 179.85,-114.78 174.93,-102.27"/>
<polygon fill="none" stroke="#404040" points="174.86,-102.08 168.94,-97.96 170.47,-90.91 176.39,-95.03 174.86,-102.08"/>
<text text-anchor="middle" x="197.5" y="-112" font-family="Helvetica,sans-Serif" font-size="10.00"> +flags</text>
</g>
</g>
</svg>
