<?xml version="1.0" encoding="UTF-8" standalone="no"?>
<!DOCTYPE svg PUBLIC "-//W3C//DTD SVG 1.1//EN"
 "http://www.w3.org/Graphics/SVG/1.1/DTD/svg11.dtd">
<!-- Generated by graphviz version 2.43.0 (0)
 -->
<!-- Title: PmLine9 Pages: 1 -->
<svg width="228pt" height="447pt"
 viewBox="0.00 0.00 228.00 447.00" xmlns="http://www.w3.org/2000/svg" xmlns:xlink="http://www.w3.org/1999/xlink">
<g id="graph0" class="graph" transform="scale(1 1) rotate(0) translate(4 443)">
<title>PmLine9</title>
<polygon fill="white" stroke="transparent" points="-4,4 -4,-443 224,-443 224,4 -4,4"/>
<!-- Node1 -->
<g id="node1" class="node">
<title>Node1</title>
<g id="a_node1"><a xlink:title=" ">
<polygon fill="#bfbfbf" stroke="black" points="74.5,-0.5 74.5,-57.5 133.5,-57.5 133.5,-0.5 74.5,-0.5"/>
<text text-anchor="middle" x="104" y="-45.5" font-family="Helvetica,sans-Serif" font-size="10.00">PmLine9</text>
<polyline fill="none" stroke="black" points="74.5,-38.5 133.5,-38.5 "/>
<text text-anchor="middle" x="104" y="-26.5" font-family="Helvetica,sans-Serif" font-size="10.00"> </text>
<polyline fill="none" stroke="black" points="74.5,-19.5 133.5,-19.5 "/>
<text text-anchor="middle" x="104" y="-7.5" font-family="Helvetica,sans-Serif" font-size="10.00"> </text>
</a>
</g>
</g>
<!-- Node2 -->
<g id="node2" class="node">
<title>Node2</title>
<g id="a_node2"><a xlink:href="structPmCartLine.html" target="_top" xlink:title=" ">
<polygon fill="white" stroke="black" points="67.5,-127.5 67.5,-184.5 140.5,-184.5 140.5,-127.5 67.5,-127.5"/>
<text text-anchor="middle" x="104" y="-172.5" font-family="Helvetica,sans-Serif" font-size="10.00">PmCartLine</text>
<polyline fill="none" stroke="black" points="67.5,-165.5 140.5,-165.5 "/>
<text text-anchor="middle" x="104" y="-153.5" font-family="Helvetica,sans-Serif" font-size="10.00"> </text>
<polyline fill="none" stroke="black" points="67.5,-146.5 140.5,-146.5 "/>
<text text-anchor="middle" x="104" y="-134.5" font-family="Helvetica,sans-Serif" font-size="10.00"> </text>
</a>
</g>
</g>
<!-- Node2&#45;&gt;Node1 -->
<g id="edge1" class="edge">
<title>Node2&#45;&gt;Node1</title>
<path fill="none" stroke="#404040" d="M104,-127.26C104,-110.35 104,-88.46 104,-69.73"/>
<polygon fill="none" stroke="#404040" points="104,-69.66 100,-63.66 104,-57.66 108,-63.66 104,-69.66"/>
<text text-anchor="middle" x="118.5" y="-101" font-family="Helvetica,sans-Serif" font-size="10.00"> +abc</text>
<text text-anchor="middle" x="118.5" y="-90" font-family="Helvetica,sans-Serif" font-size="10.00">+uvw</text>
<text text-anchor="middle" x="118.5" y="-79" font-family="Helvetica,sans-Serif" font-size="10.00">+xyz</text>
</g>
<!-- Node3 -->
<g id="node3" class="node">
<title>Node3</title>
<g id="a_node3"><a xlink:href="structPmCartesian.html" target="_top" xlink:title=" ">
<polygon fill="white" stroke="black" points="64.5,-254.5 64.5,-311.5 143.5,-311.5 143.5,-254.5 64.5,-254.5"/>
<text text-anchor="middle" x="104" y="-299.5" font-family="Helvetica,sans-Serif" font-size="10.00">PmCartesian</text>
<polyline fill="none" stroke="black" points="64.5,-292.5 143.5,-292.5 "/>
<text text-anchor="middle" x="104" y="-280.5" font-family="Helvetica,sans-Serif" font-size="10.00"> </text>
<polyline fill="none" stroke="black" points="64.5,-273.5 143.5,-273.5 "/>
<text text-anchor="middle" x="104" y="-261.5" font-family="Helvetica,sans-Serif" font-size="10.00"> </text>
</a>
</g>
</g>
<!-- Node3&#45;&gt;Node2 -->
<g id="edge2" class="edge">
<title>Node3&#45;&gt;Node2</title>
<path fill="none" stroke="#404040" d="M104,-254.26C104,-237.35 104,-215.46 104,-196.73"/>
<polygon fill="none" stroke="#404040" points="104,-196.66 100,-190.66 104,-184.66 108,-190.66 104,-196.66"/>
<text text-anchor="middle" x="120" y="-228" font-family="Helvetica,sans-Serif" font-size="10.00"> +end</text>
<text text-anchor="middle" x="120" y="-217" font-family="Helvetica,sans-Serif" font-size="10.00">+start</text>
<text text-anchor="middle" x="120" y="-206" font-family="Helvetica,sans-Serif" font-size="10.00">+uVec</text>
</g>
<!-- Node4 -->
<g id="node4" class="node">
<title>Node4</title>
<g id="a_node4"><a xlink:title=" ">
<polygon fill="white" stroke="black" points="0,-381.5 0,-438.5 50,-438.5 50,-381.5 0,-381.5"/>
<text text-anchor="middle" x="25" y="-426.5" font-family="Helvetica,sans-Serif" font-size="10.00">double</text>
<polyline fill="none" stroke="black" points="0,-419.5 50,-419.5 "/>
<text text-anchor="middle" x="25" y="-407.5" font-family="Helvetica,sans-Serif" font-size="10.00"> </text>
<polyline fill="none" stroke="black" points="0,-400.5 50,-400.5 "/>
<text text-anchor="middle" x="25" y="-388.5" font-family="Helvetica,sans-Serif" font-size="10.00"> </text>
</a>
</g>
</g>
<!-- Node4&#45;&gt;Node2 -->
<g id="edge4" class="edge">
<title>Node4&#45;&gt;Node2</title>
<path fill="none" stroke="#404040" d="M17.65,-381.37C10.59,-349.55 3.12,-296.22 19,-254 27.65,-231.01 44.49,-209.92 60.92,-193.31"/>
<polygon fill="none" stroke="#404040" points="61.33,-192.91 62.85,-185.87 69.94,-184.56 68.42,-191.61 61.33,-192.91"/>
<text text-anchor="middle" x="37.5" y="-280.5" font-family="Helvetica,sans-Serif" font-size="10.00"> +tmag</text>
</g>
<!-- Node4&#45;&gt;Node3 -->
<g id="edge3" class="edge">
<title>Node4&#45;&gt;Node3</title>
<path fill="none" stroke="#404040" d="M42.53,-381.26C53.58,-363.78 67.99,-340.99 80.07,-321.86"/>
<polygon fill="none" stroke="#404040" points="80.11,-321.81 79.93,-314.6 86.52,-311.66 86.69,-318.87 80.11,-321.81"/>
<text text-anchor="middle" x="83" y="-355" font-family="Helvetica,sans-Serif" font-size="10.00"> +x</text>
<text text-anchor="middle" x="83" y="-344" font-family="Helvetica,sans-Serif" font-size="10.00">+y</text>
<text text-anchor="middle" x="83" y="-333" font-family="Helvetica,sans-Serif" font-size="10.00">+z</text>
</g>
<!-- Node5 -->
<g id="node5" class="node">
<title>Node5</title>
<g id="a_node5"><a xlink:title=" ">
<polygon fill="white" stroke="black" points="161.5,-254.5 161.5,-311.5 190.5,-311.5 190.5,-254.5 161.5,-254.5"/>
<text text-anchor="middle" x="176" y="-299.5" font-family="Helvetica,sans-Serif" font-size="10.00">int</text>
<polyline fill="none" stroke="black" points="161.5,-292.5 190.5,-292.5 "/>
<text text-anchor="middle" x="176" y="-280.5" font-family="Helvetica,sans-Serif" font-size="10.00"> </text>
<polyline fill="none" stroke="black" points="161.5,-273.5 190.5,-273.5 "/>
<text text-anchor="middle" x="176" y="-261.5" font-family="Helvetica,sans-Serif" font-size="10.00"> </text>
</a>
</g>
</g>
<!-- Node5&#45;&gt;Node2 -->
<g id="edge5" class="edge">
<title>Node5&#45;&gt;Node2</title>
<path fill="none" stroke="#404040" d="M165.36,-254.5C158.87,-238.93 149.94,-219.36 140,-203 138.33,-200.25 136.52,-197.48 134.63,-194.73"/>
<polygon fill="none" stroke="#404040" points="134.6,-194.68 127.84,-192.16 127.56,-184.95 134.32,-187.47 134.6,-194.68"/>
<text text-anchor="middle" x="188" y="-217" font-family="Helvetica,sans-Serif" font-size="10.00"> +tmag_zero</text>
</g>
</g>
</svg>
