<?xml version="1.0" encoding="UTF-8" standalone="no"?>
<!DOCTYPE svg PUBLIC "-//W3C//DTD SVG 1.1//EN"
 "http://www.w3.org/Graphics/SVG/1.1/DTD/svg11.dtd">
<!-- Generated by graphviz version 2.43.0 (0)
 -->
<!-- Title: go_link Pages: 1 -->
<svg width="352pt" height="577pt"
 viewBox="0.00 0.00 352.00 577.00" xmlns="http://www.w3.org/2000/svg" xmlns:xlink="http://www.w3.org/1999/xlink">
<g id="graph0" class="graph" transform="scale(1 1) rotate(0) translate(4 573)">
<title>go_link</title>
<polygon fill="white" stroke="transparent" points="-4,4 -4,-573 348,-573 348,4 -4,4"/>
<!-- Node1 -->
<g id="node1" class="node">
<title>Node1</title>
<g id="a_node1"><a xlink:title=" ">
<polygon fill="#bfbfbf" stroke="black" points="129,-0.5 129,-57.5 181,-57.5 181,-0.5 129,-0.5"/>
<text text-anchor="middle" x="155" y="-45.5" font-family="Helvetica,sans-Serif" font-size="10.00">go_link</text>
<polyline fill="none" stroke="black" points="129,-38.5 181,-38.5 "/>
<text text-anchor="middle" x="155" y="-26.5" font-family="Helvetica,sans-Serif" font-size="10.00"> </text>
<polyline fill="none" stroke="black" points="129,-19.5 181,-19.5 "/>
<text text-anchor="middle" x="155" y="-7.5" font-family="Helvetica,sans-Serif" font-size="10.00"> </text>
</a>
</g>
</g>
<!-- Node2 -->
<g id="node2" class="node">
<title>Node2</title>
<g id="a_node2"><a xlink:href="structgo__dh.html" target="_top" xlink:title=" ">
<polygon fill="white" stroke="black" points="0,-297.5 0,-354.5 46,-354.5 46,-297.5 0,-297.5"/>
<text text-anchor="middle" x="23" y="-342.5" font-family="Helvetica,sans-Serif" font-size="10.00">go_dh</text>
<polyline fill="none" stroke="black" points="0,-335.5 46,-335.5 "/>
<text text-anchor="middle" x="23" y="-323.5" font-family="Helvetica,sans-Serif" font-size="10.00"> </text>
<polyline fill="none" stroke="black" points="0,-316.5 46,-316.5 "/>
<text text-anchor="middle" x="23" y="-304.5" font-family="Helvetica,sans-Serif" font-size="10.00"> </text>
</a>
</g>
</g>
<!-- Node2&#45;&gt;Node1 -->
<g id="edge1" class="edge">
<title>Node2&#45;&gt;Node1</title>
<path fill="none" stroke="#404040" d="M26.06,-297.35C32.66,-248.44 51.98,-145.29 103,-76 107.74,-69.57 113.51,-63.38 119.46,-57.75"/>
<polygon fill="none" stroke="#404040" points="119.88,-57.37 121.69,-50.39 128.83,-49.39 127.02,-56.37 119.88,-57.37"/>
<text text-anchor="middle" x="61" y="-195" font-family="Helvetica,sans-Serif" font-size="10.00"> +dh</text>
</g>
<!-- Node3 -->
<g id="node3" class="node">
<title>Node3</title>
<g id="a_node3"><a xlink:title=" ">
<polygon fill="white" stroke="black" points="58,-511.5 58,-568.5 108,-568.5 108,-511.5 58,-511.5"/>
<text text-anchor="middle" x="83" y="-556.5" font-family="Helvetica,sans-Serif" font-size="10.00">double</text>
<polyline fill="none" stroke="black" points="58,-549.5 108,-549.5 "/>
<text text-anchor="middle" x="83" y="-537.5" font-family="Helvetica,sans-Serif" font-size="10.00"> </text>
<polyline fill="none" stroke="black" points="58,-530.5 108,-530.5 "/>
<text text-anchor="middle" x="83" y="-518.5" font-family="Helvetica,sans-Serif" font-size="10.00"> </text>
</a>
</g>
</g>
<!-- Node3&#45;&gt;Node2 -->
<g id="edge2" class="edge">
<title>Node3&#45;&gt;Node2</title>
<path fill="none" stroke="#404040" d="M57.89,-528.75C43.07,-521.24 25.6,-509.47 17,-493 -3.53,-453.67 2.78,-401.65 11.09,-366.4"/>
<polygon fill="none" stroke="#404040" points="11.11,-366.32 8.72,-359.51 14.07,-354.69 16.47,-361.49 11.11,-366.32"/>
<text text-anchor="middle" x="35" y="-485" font-family="Helvetica,sans-Serif" font-size="10.00"> +a</text>
<text text-anchor="middle" x="35" y="-474" font-family="Helvetica,sans-Serif" font-size="10.00">+alpha</text>
<text text-anchor="middle" x="35" y="-463" font-family="Helvetica,sans-Serif" font-size="10.00">+d</text>
<text text-anchor="middle" x="35" y="-452" font-family="Helvetica,sans-Serif" font-size="10.00">+theta</text>
</g>
<!-- Node4 -->
<g id="node4" class="node">
<title>Node4</title>
<g id="a_node4"><a xlink:href="structgo__pk.html" target="_top" xlink:title=" ">
<polygon fill="white" stroke="black" points="67,-221.5 67,-278.5 113,-278.5 113,-221.5 67,-221.5"/>
<text text-anchor="middle" x="90" y="-266.5" font-family="Helvetica,sans-Serif" font-size="10.00">go_pk</text>
<polyline fill="none" stroke="black" points="67,-259.5 113,-259.5 "/>
<text text-anchor="middle" x="90" y="-247.5" font-family="Helvetica,sans-Serif" font-size="10.00"> </text>
<polyline fill="none" stroke="black" points="67,-240.5 113,-240.5 "/>
<text text-anchor="middle" x="90" y="-228.5" font-family="Helvetica,sans-Serif" font-size="10.00"> </text>
</a>
</g>
</g>
<!-- Node3&#45;&gt;Node4 -->
<g id="edge6" class="edge">
<title>Node3&#45;&gt;Node4</title>
<path fill="none" stroke="#404040" d="M80.69,-511.05C79.01,-489.26 76.88,-458.23 76,-431 75.17,-405.24 74.53,-398.74 76,-373 77.58,-345.4 81.15,-314.45 84.29,-290.63"/>
<polygon fill="none" stroke="#404040" points="84.32,-290.43 81.16,-283.95 85.93,-278.54 89.09,-285.02 84.32,-290.43"/>
<text text-anchor="middle" x="85" y="-399.5" font-family="Helvetica,sans-Serif" font-size="10.00"> +d</text>
</g>
<!-- Node5 -->
<g id="node5" class="node">
<title>Node5</title>
<g id="a_node5"><a xlink:href="structgo__cart.html" target="_top" xlink:title=" ">
<polygon fill="white" stroke="black" points="103.5,-373.5 103.5,-430.5 156.5,-430.5 156.5,-373.5 103.5,-373.5"/>
<text text-anchor="middle" x="130" y="-418.5" font-family="Helvetica,sans-Serif" font-size="10.00">go_cart</text>
<polyline fill="none" stroke="black" points="103.5,-411.5 156.5,-411.5 "/>
<text text-anchor="middle" x="130" y="-399.5" font-family="Helvetica,sans-Serif" font-size="10.00"> </text>
<polyline fill="none" stroke="black" points="103.5,-392.5 156.5,-392.5 "/>
<text text-anchor="middle" x="130" y="-380.5" font-family="Helvetica,sans-Serif" font-size="10.00"> </text>
</a>
</g>
</g>
<!-- Node3&#45;&gt;Node5 -->
<g id="edge5" class="edge">
<title>Node3&#45;&gt;Node5</title>
<path fill="none" stroke="#404040" d="M92.51,-511.48C99.38,-491.61 108.75,-464.49 116.4,-442.34"/>
<polygon fill="none" stroke="#404040" points="116.42,-442.29 114.6,-435.31 120.34,-430.95 122.16,-437.92 116.42,-442.29"/>
<text text-anchor="middle" x="123" y="-479.5" font-family="Helvetica,sans-Serif" font-size="10.00"> +x</text>
<text text-anchor="middle" x="123" y="-468.5" font-family="Helvetica,sans-Serif" font-size="10.00">+y</text>
<text text-anchor="middle" x="123" y="-457.5" font-family="Helvetica,sans-Serif" font-size="10.00">+z</text>
</g>
<!-- Node8 -->
<g id="node8" class="node">
<title>Node8</title>
<g id="a_node8"><a xlink:href="structgo__quat.html" target="_top" xlink:title=" ">
<polygon fill="white" stroke="black" points="187,-373.5 187,-430.5 243,-430.5 243,-373.5 187,-373.5"/>
<text text-anchor="middle" x="215" y="-418.5" font-family="Helvetica,sans-Serif" font-size="10.00">go_quat</text>
<polyline fill="none" stroke="black" points="187,-411.5 243,-411.5 "/>
<text text-anchor="middle" x="215" y="-399.5" font-family="Helvetica,sans-Serif" font-size="10.00"> </text>
<polyline fill="none" stroke="black" points="187,-392.5 243,-392.5 "/>
<text text-anchor="middle" x="215" y="-380.5" font-family="Helvetica,sans-Serif" font-size="10.00"> </text>
</a>
</g>
</g>
<!-- Node3&#45;&gt;Node8 -->
<g id="edge11" class="edge">
<title>Node3&#45;&gt;Node8</title>
<path fill="none" stroke="#404040" d="M108.16,-518.37C117.18,-510.67 127.27,-501.68 136,-493 152.76,-476.33 170.21,-456.72 184.44,-440.06"/>
<polygon fill="none" stroke="#404040" points="184.66,-439.8 185.48,-432.64 192.41,-430.64 191.59,-437.81 184.66,-439.8"/>
<text text-anchor="middle" x="185.5" y="-485" font-family="Helvetica,sans-Serif" font-size="10.00"> +s</text>
<text text-anchor="middle" x="185.5" y="-474" font-family="Helvetica,sans-Serif" font-size="10.00">+x</text>
<text text-anchor="middle" x="185.5" y="-463" font-family="Helvetica,sans-Serif" font-size="10.00">+y</text>
<text text-anchor="middle" x="185.5" y="-452" font-family="Helvetica,sans-Serif" font-size="10.00">+z</text>
</g>
<!-- Node4&#45;&gt;Node1 -->
<g id="edge3" class="edge">
<title>Node4&#45;&gt;Node1</title>
<path fill="none" stroke="#404040" d="M87.89,-221.48C86.69,-194.02 87.31,-151.01 99,-116 104.72,-98.87 114.7,-81.81 124.66,-67.47"/>
<polygon fill="none" stroke="#404040" points="124.81,-67.26 125.09,-60.05 131.85,-57.54 131.57,-64.74 124.81,-67.26"/>
<text text-anchor="middle" x="111" y="-142.5" font-family="Helvetica,sans-Serif" font-size="10.00"> +pk</text>
</g>
<!-- Node5&#45;&gt;Node4 -->
<g id="edge4" class="edge">
<title>Node5&#45;&gt;Node4</title>
<path fill="none" stroke="#404040" d="M109.75,-373.32C106.32,-367.51 103.17,-361.24 101,-355 93.89,-334.5 91.02,-310.47 89.98,-290.68"/>
<polygon fill="none" stroke="#404040" points="89.98,-290.67 85.76,-284.81 89.54,-278.67 93.76,-284.52 89.98,-290.67"/>
<text text-anchor="middle" x="126.5" y="-329" font-family="Helvetica,sans-Serif" font-size="10.00"> +base</text>
<text text-anchor="middle" x="126.5" y="-318" font-family="Helvetica,sans-Serif" font-size="10.00">+platform</text>
</g>
<!-- Node7 -->
<g id="node7" class="node">
<title>Node7</title>
<g id="a_node7"><a xlink:href="structgo__pose.html" target="_top" xlink:title=" ">
<polygon fill="white" stroke="black" points="145.5,-221.5 145.5,-278.5 202.5,-278.5 202.5,-221.5 145.5,-221.5"/>
<text text-anchor="middle" x="174" y="-266.5" font-family="Helvetica,sans-Serif" font-size="10.00">go_pose</text>
<polyline fill="none" stroke="black" points="145.5,-259.5 202.5,-259.5 "/>
<text text-anchor="middle" x="174" y="-247.5" font-family="Helvetica,sans-Serif" font-size="10.00"> </text>
<polyline fill="none" stroke="black" points="145.5,-240.5 202.5,-240.5 "/>
<text text-anchor="middle" x="174" y="-228.5" font-family="Helvetica,sans-Serif" font-size="10.00"> </text>
</a>
</g>
</g>
<!-- Node5&#45;&gt;Node7 -->
<g id="edge9" class="edge">
<title>Node5&#45;&gt;Node7</title>
<path fill="none" stroke="#404040" d="M144.58,-373.22C147.31,-367.31 149.95,-361.04 152,-355 159.04,-334.26 164.28,-310.4 167.88,-290.76"/>
<polygon fill="none" stroke="#404040" points="167.89,-290.67 164.99,-284.07 169.96,-278.85 172.87,-285.45 167.89,-290.67"/>
<text text-anchor="middle" x="182.5" y="-323.5" font-family="Helvetica,sans-Serif" font-size="10.00"> +tran</text>
</g>
<!-- Node6 -->
<g id="node6" class="node">
<title>Node6</title>
<g id="a_node6"><a xlink:href="structgo__pp.html" target="_top" xlink:title=" ">
<polygon fill="white" stroke="black" points="132,-116.5 132,-173.5 178,-173.5 178,-116.5 132,-116.5"/>
<text text-anchor="middle" x="155" y="-161.5" font-family="Helvetica,sans-Serif" font-size="10.00">go_pp</text>
<polyline fill="none" stroke="black" points="132,-154.5 178,-154.5 "/>
<text text-anchor="middle" x="155" y="-142.5" font-family="Helvetica,sans-Serif" font-size="10.00"> </text>
<polyline fill="none" stroke="black" points="132,-135.5 178,-135.5 "/>
<text text-anchor="middle" x="155" y="-123.5" font-family="Helvetica,sans-Serif" font-size="10.00"> </text>
</a>
</g>
</g>
<!-- Node6&#45;&gt;Node1 -->
<g id="edge7" class="edge">
<title>Node6&#45;&gt;Node1</title>
<path fill="none" stroke="#404040" d="M155,-116.4C155,-102.5 155,-85.39 155,-70.07"/>
<polygon fill="none" stroke="#404040" points="155,-69.74 151,-63.74 155,-57.74 159,-63.74 155,-69.74"/>
<text text-anchor="middle" x="167" y="-84.5" font-family="Helvetica,sans-Serif" font-size="10.00"> +pp</text>
</g>
<!-- Node7&#45;&gt;Node6 -->
<g id="edge8" class="edge">
<title>Node7&#45;&gt;Node6</title>
<path fill="none" stroke="#404040" d="M168.91,-221.4C166.89,-210.43 164.52,-197.6 162.32,-185.67"/>
<polygon fill="none" stroke="#404040" points="162.28,-185.48 157.26,-180.3 160.11,-173.68 165.13,-178.85 162.28,-185.48"/>
<text text-anchor="middle" x="183.5" y="-195" font-family="Helvetica,sans-Serif" font-size="10.00"> +pose</text>
</g>
<!-- Node8&#45;&gt;Node7 -->
<g id="edge10" class="edge">
<title>Node8&#45;&gt;Node7</title>
<path fill="none" stroke="#404040" d="M216.43,-373.24C216.64,-351.79 214.94,-321.71 206,-297 205.07,-294.44 203.96,-291.88 202.73,-289.37"/>
<polygon fill="none" stroke="#404040" points="202.57,-289.09 196.12,-285.87 196.62,-278.67 203.07,-281.9 202.57,-289.09"/>
<text text-anchor="middle" x="227.5" y="-323.5" font-family="Helvetica,sans-Serif" font-size="10.00"> +rot</text>
</g>
<!-- Node9 -->
<g id="node9" class="node">
<title>Node9</title>
<g id="a_node9"><a xlink:title=" ">
<polygon fill="white" stroke="black" points="196.5,-116.5 196.5,-173.5 287.5,-173.5 287.5,-116.5 196.5,-116.5"/>
<text text-anchor="middle" x="242" y="-161.5" font-family="Helvetica,sans-Serif" font-size="10.00">anonymous:+u</text>
<polyline fill="none" stroke="black" points="196.5,-154.5 287.5,-154.5 "/>
<text text-anchor="middle" x="242" y="-142.5" font-family="Helvetica,sans-Serif" font-size="10.00"> </text>
<polyline fill="none" stroke="black" points="196.5,-135.5 287.5,-135.5 "/>
<text text-anchor="middle" x="242" y="-123.5" font-family="Helvetica,sans-Serif" font-size="10.00"> </text>
</a>
</g>
</g>
<!-- Node9&#45;&gt;Node1 -->
<g id="edge12" class="edge">
<title>Node9&#45;&gt;Node1</title>
<path fill="none" stroke="#404040" d="M220.94,-116.4C209.7,-101.67 195.7,-83.33 183.49,-67.34"/>
<polygon fill="none" stroke="#404040" points="183.45,-67.28 176.63,-64.93 176.17,-57.74 182.99,-60.08 183.45,-67.28"/>
<text text-anchor="middle" x="215" y="-84.5" font-family="Helvetica,sans-Serif" font-size="10.00"> +u</text>
</g>
<!-- Node10 -->
<g id="node10" class="node">
<title>Node10</title>
<g id="a_node10"><a xlink:title=" ">
<polygon fill="white" stroke="black" points="306,-116.5 306,-173.5 344,-173.5 344,-116.5 306,-116.5"/>
<text text-anchor="middle" x="325" y="-161.5" font-family="Helvetica,sans-Serif" font-size="10.00">char</text>
<polyline fill="none" stroke="black" points="306,-154.5 344,-154.5 "/>
<text text-anchor="middle" x="325" y="-142.5" font-family="Helvetica,sans-Serif" font-size="10.00"> </text>
<polyline fill="none" stroke="black" points="306,-135.5 344,-135.5 "/>
<text text-anchor="middle" x="325" y="-123.5" font-family="Helvetica,sans-Serif" font-size="10.00"> </text>
</a>
</g>
</g>
<!-- Node10&#45;&gt;Node1 -->
<g id="edge13" class="edge">
<title>Node10&#45;&gt;Node1</title>
<path fill="none" stroke="#404040" d="M305.98,-123.78C303.07,-121.05 300.03,-118.38 297,-116 263.51,-89.74 221.42,-65.17 191.79,-49.07"/>
<polygon fill="none" stroke="#404040" points="191.66,-49 184.48,-49.69 181.09,-43.33 188.26,-42.64 191.66,-49"/>
<text text-anchor="middle" x="297" y="-90" font-family="Helvetica,sans-Serif" font-size="10.00"> +quantity</text>
<text text-anchor="middle" x="297" y="-79" font-family="Helvetica,sans-Serif" font-size="10.00">+type</text>
</g>
</g>
</svg>
