<?xml version="1.0" encoding="UTF-8" standalone="no"?>
<!DOCTYPE svg PUBLIC "-//W3C//DTD SVG 1.1//EN"
 "http://www.w3.org/Graphics/SVG/1.1/DTD/svg11.dtd">
<!-- Generated by graphviz version 2.43.0 (0)
 -->
<!-- Title: PmPose Pages: 1 -->
<svg width="192pt" height="309pt"
 viewBox="0.00 0.00 191.50 309.00" xmlns="http://www.w3.org/2000/svg" xmlns:xlink="http://www.w3.org/1999/xlink">
<g id="graph0" class="graph" transform="scale(1 1) rotate(0) translate(4 305)">
<title>PmPose</title>
<polygon fill="white" stroke="transparent" points="-4,4 -4,-305 187.5,-305 187.5,4 -4,4"/>
<!-- Node1 -->
<g id="node1" class="node">
<title>Node1</title>
<g id="a_node1"><a xlink:title=" ">
<polygon fill="#bfbfbf" stroke="black" points="61.5,-0.5 61.5,-57.5 117.5,-57.5 117.5,-0.5 61.5,-0.5"/>
<text text-anchor="middle" x="89.5" y="-45.5" font-family="Helvetica,sans-Serif" font-size="10.00">PmPose</text>
<polyline fill="none" stroke="black" points="61.5,-38.5 117.5,-38.5 "/>
<text text-anchor="middle" x="89.5" y="-26.5" font-family="Helvetica,sans-Serif" font-size="10.00"> </text>
<polyline fill="none" stroke="black" points="61.5,-19.5 117.5,-19.5 "/>
<text text-anchor="middle" x="89.5" y="-7.5" font-family="Helvetica,sans-Serif" font-size="10.00"> </text>
</a>
</g>
</g>
<!-- Node2 -->
<g id="node2" class="node">
<title>Node2</title>
<g id="a_node2"><a xlink:href="structPmCartesian.html" target="_top" xlink:title=" ">
<polygon fill="white" stroke="black" points="0,-105.5 0,-162.5 79,-162.5 79,-105.5 0,-105.5"/>
<text text-anchor="middle" x="39.5" y="-150.5" font-family="Helvetica,sans-Serif" font-size="10.00">PmCartesian</text>
<polyline fill="none" stroke="black" points="0,-143.5 79,-143.5 "/>
<text text-anchor="middle" x="39.5" y="-131.5" font-family="Helvetica,sans-Serif" font-size="10.00"> </text>
<polyline fill="none" stroke="black" points="0,-124.5 79,-124.5 "/>
<text text-anchor="middle" x="39.5" y="-112.5" font-family="Helvetica,sans-Serif" font-size="10.00"> </text>
</a>
</g>
</g>
<!-- Node2&#45;&gt;Node1 -->
<g id="edge1" class="edge">
<title>Node2&#45;&gt;Node1</title>
<path fill="none" stroke="#404040" d="M52.9,-105.4C58.39,-94.08 64.84,-80.79 70.79,-68.54"/>
<polygon fill="none" stroke="#404040" points="70.82,-68.47 69.85,-61.33 76.06,-57.68 77.04,-64.82 70.82,-68.47"/>
<text text-anchor="middle" x="82" y="-79" font-family="Helvetica,sans-Serif" font-size="10.00"> +tran</text>
</g>
<!-- Node3 -->
<g id="node3" class="node">
<title>Node3</title>
<g id="a_node3"><a xlink:title=" ">
<polygon fill="white" stroke="black" points="64.5,-243.5 64.5,-300.5 114.5,-300.5 114.5,-243.5 64.5,-243.5"/>
<text text-anchor="middle" x="89.5" y="-288.5" font-family="Helvetica,sans-Serif" font-size="10.00">double</text>
<polyline fill="none" stroke="black" points="64.5,-281.5 114.5,-281.5 "/>
<text text-anchor="middle" x="89.5" y="-269.5" font-family="Helvetica,sans-Serif" font-size="10.00"> </text>
<polyline fill="none" stroke="black" points="64.5,-262.5 114.5,-262.5 "/>
<text text-anchor="middle" x="89.5" y="-250.5" font-family="Helvetica,sans-Serif" font-size="10.00"> </text>
</a>
</g>
</g>
<!-- Node3&#45;&gt;Node2 -->
<g id="edge2" class="edge">
<title>Node3&#45;&gt;Node2</title>
<path fill="none" stroke="#404040" d="M79.38,-243.48C72.08,-223.61 62.11,-196.49 53.96,-174.34"/>
<polygon fill="none" stroke="#404040" points="53.92,-174.21 48.09,-169.96 49.77,-162.95 55.6,-167.2 53.92,-174.21"/>
<text text-anchor="middle" x="81.5" y="-211.5" font-family="Helvetica,sans-Serif" font-size="10.00"> +x</text>
<text text-anchor="middle" x="81.5" y="-200.5" font-family="Helvetica,sans-Serif" font-size="10.00">+y</text>
<text text-anchor="middle" x="81.5" y="-189.5" font-family="Helvetica,sans-Serif" font-size="10.00">+z</text>
</g>
<!-- Node4 -->
<g id="node4" class="node">
<title>Node4</title>
<g id="a_node4"><a xlink:href="structPmQuaternion.html" target="_top" xlink:title=" ">
<polygon fill="white" stroke="black" points="97.5,-105.5 97.5,-162.5 183.5,-162.5 183.5,-105.5 97.5,-105.5"/>
<text text-anchor="middle" x="140.5" y="-150.5" font-family="Helvetica,sans-Serif" font-size="10.00">PmQuaternion</text>
<polyline fill="none" stroke="black" points="97.5,-143.5 183.5,-143.5 "/>
<text text-anchor="middle" x="140.5" y="-131.5" font-family="Helvetica,sans-Serif" font-size="10.00"> </text>
<polyline fill="none" stroke="black" points="97.5,-124.5 183.5,-124.5 "/>
<text text-anchor="middle" x="140.5" y="-112.5" font-family="Helvetica,sans-Serif" font-size="10.00"> </text>
</a>
</g>
</g>
<!-- Node3&#45;&gt;Node4 -->
<g id="edge4" class="edge">
<title>Node3&#45;&gt;Node4</title>
<path fill="none" stroke="#404040" d="M99.82,-243.48C107.27,-223.61 117.44,-196.49 125.75,-174.34"/>
<polygon fill="none" stroke="#404040" points="125.81,-174.18 124.17,-167.16 130.02,-162.95 131.66,-169.97 125.81,-174.18"/>
<text text-anchor="middle" x="132" y="-217" font-family="Helvetica,sans-Serif" font-size="10.00"> +s</text>
<text text-anchor="middle" x="132" y="-206" font-family="Helvetica,sans-Serif" font-size="10.00">+x</text>
<text text-anchor="middle" x="132" y="-195" font-family="Helvetica,sans-Serif" font-size="10.00">+y</text>
<text text-anchor="middle" x="132" y="-184" font-family="Helvetica,sans-Serif" font-size="10.00">+z</text>
</g>
<!-- Node4&#45;&gt;Node1 -->
<g id="edge3" class="edge">
<title>Node4&#45;&gt;Node1</title>
<path fill="none" stroke="#404040" d="M126.83,-105.4C121.23,-94.08 114.65,-80.79 108.59,-68.54"/>
<polygon fill="none" stroke="#404040" points="108.53,-68.43 102.28,-64.83 103.2,-57.68 109.45,-61.28 108.53,-68.43"/>
<text text-anchor="middle" x="130" y="-79" font-family="Helvetica,sans-Serif" font-size="10.00"> +rot</text>
</g>
</g>
</svg>
