<?xml version="1.0" encoding="UTF-8" standalone="no"?>
<!DOCTYPE svg PUBLIC "-//W3C//DTD SVG 1.1//EN"
 "http://www.w3.org/Graphics/SVG/1.1/DTD/svg11.dtd">
<!-- Generated by graphviz version 2.43.0 (0)
 -->
<!-- Title: sPoKeysPWM Pages: 1 -->
<!--zoomable 353 -->
<svg id="main" version="1.1" xmlns="http://www.w3.org/2000/svg" xmlns:xlink="http://www.w3.org/1999/xlink" xml:space="preserve" onload="init(evt)">
<style type="text/css"><![CDATA[
.edge:hover path { stroke: red; }
.edge:hover polygon { stroke: red; fill: red; }
]]></style>
<script type="text/javascript"><![CDATA[
var edges = document.getElementsByTagName('g');
if (edges && edges.length) {
  for (var i=0;i<edges.length;i++) {
    if (edges[i].id.substr(0,4)=='edge') {
      edges[i].setAttribute('class','edge');
    }
  }
}
]]></script>
        <defs>
                <circle id="rim" cx="0" cy="0" r="7"/>
                <circle id="rim2" cx="0" cy="0" r="3.5"/>
                <g id="zoomPlus">
                        <use xlink:href="#rim" fill="#404040">
                                <set attributeName="fill" to="#808080" begin="zoomplus.mouseover" end="zoomplus.mouseout"/>
                        </use>
                        <path d="M-4,0h8M0,-4v8" fill="none" stroke="white" stroke-width="1.5" pointer-events="none"/>
                </g>
                <g id="zoomMin">
                        <use xlink:href="#rim" fill="#404040">
                                <set attributeName="fill" to="#808080" begin="zoomminus.mouseover" end="zoomminus.mouseout"/>
                        </use>
                        <path d="M-4,0h8" fill="none" stroke="white" stroke-width="1.5" pointer-events="none"/>
                </g>
                <g id="dirArrow">
                        <path fill="none" stroke="white" stroke-width="1.5" d="M0,-3.0v7 M-2.5,-0.5L0,-3.0L2.5,-0.5"/>
                </g>
               <g id="resetDef">
                       <use xlink:href="#rim2" fill="#404040">
                               <set attributeName="fill" to="#808080" begin="reset.mouseover" end="reset.mouseout"/>
                       </use>
               </g>
        </defs>

<script type="text/javascript">
var viewWidth = 724;
var viewHeight = 353;
var sectionId = 'dynsection-0';
</script>
<script xlink:href="svgpan.js"/>
<svg id="graph" class="graph">
<g id="viewport">
<title>sPoKeysPWM</title>
<polygon fill="white" stroke="transparent" points="-4,4 -4,-349 719.5,-349 719.5,4 -4,4"/>
<!-- Node1 -->
<g id="node1" class="node">
<title>Node1</title>
<g id="a_node1"><a xlink:title=" ">
<polygon fill="#bfbfbf" stroke="black" points="278.5,-0.5 278.5,-57.5 360.5,-57.5 360.5,-0.5 278.5,-0.5"/>
<text text-anchor="middle" x="319.5" y="-45.5" font-family="Helvetica,sans-Serif" font-size="10.00">sPoKeysPWM</text>
<polyline fill="none" stroke="black" points="278.5,-38.5 360.5,-38.5 "/>
<text text-anchor="middle" x="319.5" y="-26.5" font-family="Helvetica,sans-Serif" font-size="10.00"> </text>
<polyline fill="none" stroke="black" points="278.5,-19.5 360.5,-19.5 "/>
<text text-anchor="middle" x="319.5" y="-7.5" font-family="Helvetica,sans-Serif" font-size="10.00"> </text>
</a>
</g>
</g>
<!-- Node2 -->
<g id="node2" class="node">
<title>Node2</title>
<g id="a_node2"><a xlink:title=" ">
<polygon fill="white" stroke="black" points="0,-116.5 0,-173.5 61,-173.5 61,-116.5 0,-116.5"/>
<text text-anchor="middle" x="30.5" y="-161.5" font-family="Helvetica,sans-Serif" font-size="10.00">unsigned</text>
<polyline fill="none" stroke="black" points="0,-154.5 61,-154.5 "/>
<text text-anchor="middle" x="30.5" y="-142.5" font-family="Helvetica,sans-Serif" font-size="10.00"> </text>
<polyline fill="none" stroke="black" points="0,-135.5 61,-135.5 "/>
<text text-anchor="middle" x="30.5" y="-123.5" font-family="Helvetica,sans-Serif" font-size="10.00"> </text>
</a>
</g>
</g>
<!-- Node2&#45;&gt;Node1 -->
<g id="edge1" class="edge">
<title>Node2&#45;&gt;Node1</title>
<path fill="none" stroke="#404040" d="M46.43,-116.16C55.97,-101.98 69.37,-85.72 85.5,-76 141.07,-42.51 216.3,-32.78 266.29,-30.28"/>
<polygon fill="none" stroke="#404040" points="266.44,-30.27 272.27,-26.03 278.43,-29.79 272.6,-34.02 266.44,-30.27"/>
<text text-anchor="middle" x="119" y="-90" font-family="Helvetica,sans-Serif" font-size="10.00"> +PWMperiod</text>
<text text-anchor="middle" x="119" y="-79" font-family="Helvetica,sans-Serif" font-size="10.00">+reserved</text>
</g>
<!-- Node3 -->
<g id="node3" class="node">
<title>Node3</title>
<g id="a_node3"><a xlink:title=" ">
<polygon fill="white" stroke="black" points="79.5,-116.5 79.5,-173.5 181.5,-173.5 181.5,-116.5 79.5,-116.5"/>
<text text-anchor="middle" x="130.5" y="-161.5" font-family="Helvetica,sans-Serif" font-size="10.00">volatile rtapi_u32</text>
<polyline fill="none" stroke="black" points="79.5,-154.5 181.5,-154.5 "/>
<text text-anchor="middle" x="130.5" y="-142.5" font-family="Helvetica,sans-Serif" font-size="10.00"> </text>
<polyline fill="none" stroke="black" points="79.5,-135.5 181.5,-135.5 "/>
<text text-anchor="middle" x="130.5" y="-123.5" font-family="Helvetica,sans-Serif" font-size="10.00"> </text>
</a>
</g>
</g>
<!-- Node3&#45;&gt;Node1 -->
<g id="edge2" class="edge">
<title>Node3&#45;&gt;Node1</title>
<path fill="none" stroke="#404040" d="M143.26,-116.18C150.86,-102.35 161.73,-86.42 175.5,-76 201.87,-56.05 237.17,-44.59 266.21,-38.1"/>
<polygon fill="none" stroke="#404040" points="266.48,-38.05 271.55,-32.92 278.24,-35.62 273.17,-40.75 266.48,-38.05"/>
<text text-anchor="middle" x="209" y="-84.5" font-family="Helvetica,sans-Serif" font-size="10.00"> +PWMperiod</text>
</g>
<!-- Node4 -->
<g id="node4" class="node">
<title>Node4</title>
<g id="a_node4"><a xlink:title=" ">
<polygon fill="white" stroke="black" points="200,-116.5 200,-173.5 265,-173.5 265,-116.5 200,-116.5"/>
<text text-anchor="middle" x="232.5" y="-161.5" font-family="Helvetica,sans-Serif" font-size="10.00">uint32_t *</text>
<polyline fill="none" stroke="black" points="200,-154.5 265,-154.5 "/>
<text text-anchor="middle" x="232.5" y="-142.5" font-family="Helvetica,sans-Serif" font-size="10.00"> </text>
<polyline fill="none" stroke="black" points="200,-135.5 265,-135.5 "/>
<text text-anchor="middle" x="232.5" y="-123.5" font-family="Helvetica,sans-Serif" font-size="10.00"> </text>
</a>
</g>
</g>
<!-- Node4&#45;&gt;Node1 -->
<g id="edge3" class="edge">
<title>Node4&#45;&gt;Node1</title>
<path fill="none" stroke="#404040" d="M238.71,-116.38C242.6,-103.26 248.61,-87.88 257.5,-76 260.93,-71.41 264.95,-67.07 269.26,-63.03"/>
<polygon fill="none" stroke="#404040" points="269.31,-62.98 271.26,-56.03 278.41,-55.16 276.47,-62.1 269.31,-62.98"/>
<text text-anchor="middle" x="286.5" y="-84.5" font-family="Helvetica,sans-Serif" font-size="10.00"> +PWMduty</text>
</g>
<!-- Node5 -->
<g id="node5" class="node">
<title>Node5</title>
<g id="a_node5"><a xlink:title=" ">
<polygon fill="white" stroke="black" points="283.5,-116.5 283.5,-173.5 355.5,-173.5 355.5,-116.5 283.5,-116.5"/>
<text text-anchor="middle" x="319.5" y="-161.5" font-family="Helvetica,sans-Serif" font-size="10.00">hal_u32_t *</text>
<polyline fill="none" stroke="black" points="283.5,-154.5 355.5,-154.5 "/>
<text text-anchor="middle" x="319.5" y="-142.5" font-family="Helvetica,sans-Serif" font-size="10.00"> </text>
<polyline fill="none" stroke="black" points="283.5,-135.5 355.5,-135.5 "/>
<text text-anchor="middle" x="319.5" y="-123.5" font-family="Helvetica,sans-Serif" font-size="10.00"> </text>
</a>
</g>
</g>
<!-- Node5&#45;&gt;Node1 -->
<g id="edge4" class="edge">
<title>Node5&#45;&gt;Node1</title>
<path fill="none" stroke="#404040" d="M319.5,-116.4C319.5,-102.5 319.5,-85.39 319.5,-70.07"/>
<polygon fill="none" stroke="#404040" points="319.5,-69.74 315.5,-63.74 319.5,-57.74 323.5,-63.74 319.5,-69.74"/>
<text text-anchor="middle" x="348.5" y="-84.5" font-family="Helvetica,sans-Serif" font-size="10.00"> +PWMduty</text>
</g>
<!-- Node6 -->
<g id="node6" class="node">
<title>Node6</title>
<g id="a_node6"><a xlink:title=" ">
<polygon fill="white" stroke="black" points="374,-116.5 374,-173.5 459,-173.5 459,-116.5 374,-116.5"/>
<text text-anchor="middle" x="416.5" y="-161.5" font-family="Helvetica,sans-Serif" font-size="10.00">unsigned char</text>
<polyline fill="none" stroke="black" points="374,-154.5 459,-154.5 "/>
<text text-anchor="middle" x="416.5" y="-142.5" font-family="Helvetica,sans-Serif" font-size="10.00"> </text>
<polyline fill="none" stroke="black" points="374,-135.5 459,-135.5 "/>
<text text-anchor="middle" x="416.5" y="-123.5" font-family="Helvetica,sans-Serif" font-size="10.00"> </text>
</a>
</g>
</g>
<!-- Node6&#45;&gt;Node1 -->
<g id="edge5" class="edge">
<title>Node6&#45;&gt;Node1</title>
<path fill="none" stroke="#404040" d="M404.17,-116.25C397.63,-103.24 388.8,-88.01 378.5,-76 375.45,-72.44 372.08,-68.97 368.55,-65.64"/>
<polygon fill="none" stroke="#404040" points="368.52,-65.61 361.37,-64.62 359.53,-57.65 366.68,-58.63 368.52,-65.61"/>
<text text-anchor="middle" x="454" y="-90" font-family="Helvetica,sans-Serif" font-size="10.00"> +PWMenabledChannels</text>
<text text-anchor="middle" x="454" y="-79" font-family="Helvetica,sans-Serif" font-size="10.00">+PWMpinIDs</text>
</g>
<!-- Node7 -->
<g id="node7" class="node">
<title>Node7</title>
<g id="a_node7"><a xlink:href="structhal__adcout__t.html" target="_top" xlink:title="Canonical analog output (adcout) structure for HAL.">
<polygon fill="white" stroke="black" points="631,-116.5 631,-173.5 710,-173.5 710,-116.5 631,-116.5"/>
<text text-anchor="middle" x="670.5" y="-161.5" font-family="Helvetica,sans-Serif" font-size="10.00">hal_adcout_t</text>
<polyline fill="none" stroke="black" points="631,-154.5 710,-154.5 "/>
<text text-anchor="middle" x="670.5" y="-142.5" font-family="Helvetica,sans-Serif" font-size="10.00"> </text>
<polyline fill="none" stroke="black" points="631,-135.5 710,-135.5 "/>
<text text-anchor="middle" x="670.5" y="-123.5" font-family="Helvetica,sans-Serif" font-size="10.00"> </text>
</a>
</g>
</g>
<!-- Node7&#45;&gt;Node1 -->
<g id="edge6" class="edge">
<title>Node7&#45;&gt;Node1</title>
<path fill="none" stroke="#404040" d="M630.97,-117.34C608.29,-103.15 578.78,-86.52 550.5,-76 491.74,-54.15 420.52,-41.97 372.83,-35.72"/>
<polygon fill="none" stroke="#404040" points="372.54,-35.68 366.09,-38.9 360.64,-34.18 367.09,-30.96 372.54,-35.68"/>
<text text-anchor="middle" x="649.5" y="-84.5" font-family="Helvetica,sans-Serif" font-size="10.00"> +PWManalogOutputs</text>
</g>
<!-- Node8 -->
<g id="node8" class="node">
<title>Node8</title>
<g id="a_node8"><a xlink:title=" ">
<polygon fill="white" stroke="black" points="519.5,-287.5 519.5,-344.5 587.5,-344.5 587.5,-287.5 519.5,-287.5"/>
<text text-anchor="middle" x="553.5" y="-332.5" font-family="Helvetica,sans-Serif" font-size="10.00">hal_float_t</text>
<polyline fill="none" stroke="black" points="519.5,-325.5 587.5,-325.5 "/>
<text text-anchor="middle" x="553.5" y="-313.5" font-family="Helvetica,sans-Serif" font-size="10.00"> </text>
<polyline fill="none" stroke="black" points="519.5,-306.5 587.5,-306.5 "/>
<text text-anchor="middle" x="553.5" y="-294.5" font-family="Helvetica,sans-Serif" font-size="10.00"> </text>
</a>
</g>
</g>
<!-- Node8&#45;&gt;Node1 -->
<g id="edge9" class="edge">
<title>Node8&#45;&gt;Node1</title>
<path fill="none" stroke="#404040" d="M551.21,-287.46C546.01,-227.94 532.67,-91.38 518.5,-76 499.09,-54.94 424.93,-42.14 372.85,-35.56"/>
<polygon fill="none" stroke="#404040" points="372.7,-35.54 366.27,-38.79 360.79,-34.1 367.23,-30.85 372.7,-35.54"/>
<text text-anchor="middle" x="577.5" y="-142.5" font-family="Helvetica,sans-Serif" font-size="10.00"> +max_Voltage</text>
</g>
<!-- Node8&#45;&gt;Node7 -->
<g id="edge7" class="edge">
<title>Node8&#45;&gt;Node7</title>
<path fill="none" stroke="#404040" d="M559.77,-287.45C566.89,-260.83 580.59,-220.46 603.5,-192 608.55,-185.72 614.68,-179.96 621.16,-174.79"/>
<polygon fill="none" stroke="#404040" points="621.17,-174.78 623.62,-168 630.82,-167.65 628.37,-174.43 621.17,-174.78"/>
<text text-anchor="middle" x="635" y="-261" font-family="Helvetica,sans-Serif" font-size="10.00"> +bit_weight</text>
<text text-anchor="middle" x="635" y="-250" font-family="Helvetica,sans-Serif" font-size="10.00">+high_limit</text>
<text text-anchor="middle" x="635" y="-239" font-family="Helvetica,sans-Serif" font-size="10.00">+hw_offset</text>
<text text-anchor="middle" x="635" y="-228" font-family="Helvetica,sans-Serif" font-size="10.00">+low_limit</text>
<text text-anchor="middle" x="635" y="-217" font-family="Helvetica,sans-Serif" font-size="10.00">+offset</text>
<text text-anchor="middle" x="635" y="-206" font-family="Helvetica,sans-Serif" font-size="10.00">+scale</text>
<text text-anchor="middle" x="635" y="-195" font-family="Helvetica,sans-Serif" font-size="10.00">+value</text>
</g>
<!-- Node9 -->
<g id="node9" class="node">
<title>Node9</title>
<g id="a_node9"><a xlink:title=" ">
<polygon fill="white" stroke="black" points="651.5,-287.5 651.5,-344.5 689.5,-344.5 689.5,-287.5 651.5,-287.5"/>
<text text-anchor="middle" x="670.5" y="-332.5" font-family="Helvetica,sans-Serif" font-size="10.00">bool</text>
<polyline fill="none" stroke="black" points="651.5,-325.5 689.5,-325.5 "/>
<text text-anchor="middle" x="670.5" y="-313.5" font-family="Helvetica,sans-Serif" font-size="10.00"> </text>
<polyline fill="none" stroke="black" points="651.5,-306.5 689.5,-306.5 "/>
<text text-anchor="middle" x="670.5" y="-294.5" font-family="Helvetica,sans-Serif" font-size="10.00"> </text>
</a>
</g>
</g>
<!-- Node9&#45;&gt;Node7 -->
<g id="edge8" class="edge">
<title>Node9&#45;&gt;Node7</title>
<path fill="none" stroke="#404040" d="M670.5,-287.47C670.5,-259.85 670.5,-217.03 670.5,-185.73"/>
<polygon fill="none" stroke="#404040" points="670.5,-185.52 666.5,-179.52 670.5,-173.52 674.5,-179.52 670.5,-185.52"/>
<text text-anchor="middle" x="693" y="-228" font-family="Helvetica,sans-Serif" font-size="10.00"> +enable</text>
</g>
</g>
</svg>
        <g id="navigator" transform="translate(0 0)" fill="#404254">
                <rect fill="#f2f5e9" fill-opacity="0.5" stroke="#606060" stroke-width=".5" x="0" y="0" width="60" height="60"/>
                <use id="zoomplus" xlink:href="#zoomPlus" x="17" y="9" onmousedown="handleZoom(evt,'in')"/>
                <use id="zoomminus" xlink:href="#zoomMin" x="42" y="9" onmousedown="handleZoom(evt,'out')"/>
                <use id="reset" xlink:href="#resetDef" x="30" y="36" onmousedown="handleReset()"/>
                <g id="arrowUp" xlink:href="#dirArrow" transform="translate(30 24)" onmousedown="handlePan(0,-1)">
                  <use xlink:href="#rim" fill="#404040">
                        <set attributeName="fill" to="#808080" begin="arrowUp.mouseover" end="arrowUp.mouseout"/>
                  </use>
                  <path fill="none" stroke="white" stroke-width="1.5" d="M0,-3.0v7 M-2.5,-0.5L0,-3.0L2.5,-0.5"/>
                </g>
                <g id="arrowRight" xlink:href="#dirArrow" transform="rotate(90) translate(36 -43)" onmousedown="handlePan(1,0)">
                  <use xlink:href="#rim" fill="#404040">
                        <set attributeName="fill" to="#808080" begin="arrowRight.mouseover" end="arrowRight.mouseout"/>
                  </use>
                  <path fill="none" stroke="white" stroke-width="1.5" d="M0,-3.0v7 M-2.5,-0.5L0,-3.0L2.5,-0.5"/>
                </g>
                <g id="arrowDown" xlink:href="#dirArrow" transform="rotate(180) translate(-30 -48)" onmousedown="handlePan(0,1)">
                  <use xlink:href="#rim" fill="#404040">
                        <set attributeName="fill" to="#808080" begin="arrowDown.mouseover" end="arrowDown.mouseout"/>
                  </use>
                  <path fill="none" stroke="white" stroke-width="1.5" d="M0,-3.0v7 M-2.5,-0.5L0,-3.0L2.5,-0.5"/>
                </g>
                <g id="arrowLeft" xlink:href="#dirArrow" transform="rotate(270) translate(-36 17)" onmousedown="handlePan(-1,0)">
                  <use xlink:href="#rim" fill="#404040">
                        <set attributeName="fill" to="#808080" begin="arrowLeft.mouseover" end="arrowLeft.mouseout"/>
                  </use>
                  <path fill="none" stroke="white" stroke-width="1.5" d="M0,-3.0v7 M-2.5,-0.5L0,-3.0L2.5,-0.5"/>
                </g>
        </g>
        <svg viewBox="0 0 15 15" width="100%" height="30px" preserveAspectRatio="xMaxYMin meet">
         <g id="arrow_out" transform="scale(0.3 0.3)">
          <a xlink:href="structsPoKeysPWM__coll__graph_org.svg" target="_base">
           <rect id="button" ry="5" rx="5" y="6" x="6" height="38" width="38"
                fill="#f2f5e9" fill-opacity="0.5" stroke="#606060" stroke-width="1.0"/>
           <path id="arrow"
             d="M 11.500037,31.436501 C 11.940474,20.09759 22.043105,11.32322 32.158766,21.979434 L 37.068811,17.246167 C 37.068811,17.246167 37.088388,32 37.088388,32 L 22.160133,31.978069 C 22.160133,31.978069 26.997745,27.140456 26.997745,27.140456 C 18.528582,18.264221 13.291696,25.230495 11.500037,31.436501 z"
             style="fill:#404040;"/>
          </a>
         </g>
        </svg>
</svg>
