<?xml version="1.0" encoding="UTF-8" standalone="no"?>
<!DOCTYPE svg PUBLIC "-//W3C//DTD SVG 1.1//EN"
 "http://www.w3.org/Graphics/SVG/1.1/DTD/svg11.dtd">
<!-- Generated by graphviz version 2.43.0 (0)
 -->
<!-- Title: _HIDP_CAPS Pages: 1 -->
<svg width="183pt" height="248pt"
 viewBox="0.00 0.00 182.50 248.00" xmlns="http://www.w3.org/2000/svg" xmlns:xlink="http://www.w3.org/1999/xlink">
<g id="graph0" class="graph" transform="scale(1 1) rotate(0) translate(4 244)">
<title>_HIDP_CAPS</title>
<polygon fill="white" stroke="transparent" points="-4,4 -4,-244 178.5,-244 178.5,4 -4,4"/>
<!-- Node1 -->
<g id="node1" class="node">
<title>Node1</title>
<g id="a_node1"><a xlink:title=" ">
<polygon fill="#bfbfbf" stroke="black" points="0,-0.5 0,-57.5 77,-57.5 77,-0.5 0,-0.5"/>
<text text-anchor="middle" x="38.5" y="-45.5" font-family="Helvetica,sans-Serif" font-size="10.00">_HIDP_CAPS</text>
<polyline fill="none" stroke="black" points="0,-38.5 77,-38.5 "/>
<text text-anchor="middle" x="38.5" y="-26.5" font-family="Helvetica,sans-Serif" font-size="10.00"> </text>
<polyline fill="none" stroke="black" points="0,-19.5 77,-19.5 "/>
<text text-anchor="middle" x="38.5" y="-7.5" font-family="Helvetica,sans-Serif" font-size="10.00"> </text>
</a>
</g>
</g>
<!-- Node2 -->
<g id="node2" class="node">
<title>Node2</title>
<g id="a_node2"><a xlink:title=" ">
<polygon fill="white" stroke="black" points="10,-182.5 10,-239.5 67,-239.5 67,-182.5 10,-182.5"/>
<text text-anchor="middle" x="38.5" y="-227.5" font-family="Helvetica,sans-Serif" font-size="10.00">USHORT</text>
<polyline fill="none" stroke="black" points="10,-220.5 67,-220.5 "/>
<text text-anchor="middle" x="38.5" y="-208.5" font-family="Helvetica,sans-Serif" font-size="10.00"> </text>
<polyline fill="none" stroke="black" points="10,-201.5 67,-201.5 "/>
<text text-anchor="middle" x="38.5" y="-189.5" font-family="Helvetica,sans-Serif" font-size="10.00"> </text>
</a>
</g>
</g>
<!-- Node2&#45;&gt;Node1 -->
<g id="edge1" class="edge">
<title>Node2&#45;&gt;Node1</title>
<path fill="none" stroke="#404040" d="M38.5,-182.27C38.5,-152.28 38.5,-104.18 38.5,-70.08"/>
<polygon fill="none" stroke="#404040" points="38.5,-69.76 34.5,-63.76 38.5,-57.76 42.5,-63.76 38.5,-69.76"/>
<text text-anchor="middle" x="106.5" y="-156" font-family="Helvetica,sans-Serif" font-size="10.00"> +FeatureReportByteLength</text>
<text text-anchor="middle" x="106.5" y="-145" font-family="Helvetica,sans-Serif" font-size="10.00">+InputReportByteLength</text>
<text text-anchor="middle" x="106.5" y="-134" font-family="Helvetica,sans-Serif" font-size="10.00">+OutputReportByteLength</text>
<text text-anchor="middle" x="106.5" y="-123" font-family="Helvetica,sans-Serif" font-size="10.00">+Reserved</text>
<text text-anchor="middle" x="106.5" y="-112" font-family="Helvetica,sans-Serif" font-size="10.00">+Usage</text>
<text text-anchor="middle" x="106.5" y="-101" font-family="Helvetica,sans-Serif" font-size="10.00">+UsagePage</text>
<text text-anchor="start" x="38.5" y="-90" font-family="Helvetica,sans-Serif" font-size="10.00">+fields_not_used</text>
<text text-anchor="middle" x="106.5" y="-79" font-family="Helvetica,sans-Serif" font-size="10.00">_by_hidapi</text>
</g>
</g>
</svg>
