<?xml version="1.0" encoding="UTF-8" standalone="no"?>
<!DOCTYPE svg PUBLIC "-//W3C//DTD SVG 1.1//EN"
 "http://www.w3.org/Graphics/SVG/1.1/DTD/svg11.dtd">
<!-- Generated by graphviz version 2.43.0 (0)
 -->
<!-- Title: REMOTE_SET_SUBSCRIPTION_REPLY Pages: 1 -->
<svg width="253pt" height="277pt"
 viewBox="0.00 0.00 253.00 277.00" xmlns="http://www.w3.org/2000/svg" xmlns:xlink="http://www.w3.org/1999/xlink">
<g id="graph0" class="graph" transform="scale(1 1) rotate(0) translate(4 273)">
<title>REMOTE_SET_SUBSCRIPTION_REPLY</title>
<polygon fill="white" stroke="transparent" points="-4,4 -4,-273 249,-273 249,4 -4,4"/>
<!-- Node1 -->
<g id="node1" class="node">
<title>Node1</title>
<g id="a_node1"><a xlink:title=" ">
<polygon fill="#bfbfbf" stroke="black" points="41.5,-0.5 41.5,-68.5 200.5,-68.5 200.5,-0.5 41.5,-0.5"/>
<text text-anchor="start" x="49.5" y="-56.5" font-family="Helvetica,sans-Serif" font-size="10.00">REMOTE_SET_SUBSCRIPTION</text>
<text text-anchor="middle" x="121" y="-45.5" font-family="Helvetica,sans-Serif" font-size="10.00">_REPLY</text>
<polyline fill="none" stroke="black" points="41.5,-38.5 200.5,-38.5 "/>
<text text-anchor="middle" x="121" y="-26.5" font-family="Helvetica,sans-Serif" font-size="10.00"> </text>
<polyline fill="none" stroke="black" points="41.5,-19.5 200.5,-19.5 "/>
<text text-anchor="middle" x="121" y="-7.5" font-family="Helvetica,sans-Serif" font-size="10.00"> </text>
</a>
</g>
</g>
<!-- Node2 -->
<g id="node2" class="node">
<title>Node2</title>
<g id="a_node2"><a xlink:href="structREMOTE__CMS__REPLY.html" target="_top" xlink:title=" ">
<polygon fill="white" stroke="black" points="0,-106.5 0,-163.5 138,-163.5 138,-106.5 0,-106.5"/>
<text text-anchor="middle" x="69" y="-151.5" font-family="Helvetica,sans-Serif" font-size="10.00">REMOTE_CMS_REPLY</text>
<polyline fill="none" stroke="black" points="0,-144.5 138,-144.5 "/>
<text text-anchor="middle" x="69" y="-132.5" font-family="Helvetica,sans-Serif" font-size="10.00"> </text>
<polyline fill="none" stroke="black" points="0,-125.5 138,-125.5 "/>
<text text-anchor="start" x="8" y="-113.5" font-family="Helvetica,sans-Serif" font-size="10.00">+ REMOTE_CMS_REPLY()</text>
</a>
</g>
</g>
<!-- Node2&#45;&gt;Node1 -->
<g id="edge1" class="edge">
<title>Node2&#45;&gt;Node1</title>
<path fill="none" stroke="midnightblue" d="M88.44,-97.18C93.39,-87.8 98.69,-77.77 103.54,-68.58"/>
<polygon fill="none" stroke="midnightblue" points="85.2,-95.82 83.62,-106.3 91.39,-99.09 85.2,-95.82"/>
</g>
<!-- Node3 -->
<g id="node3" class="node">
<title>Node3</title>
<g id="a_node3"><a xlink:href="structREMOTE__CMS__MESSAGE.html" target="_top" xlink:title=" ">
<polygon fill="white" stroke="black" points="0,-211.5 0,-268.5 138,-268.5 138,-211.5 0,-211.5"/>
<text text-anchor="middle" x="69" y="-256.5" font-family="Helvetica,sans-Serif" font-size="10.00">REMOTE_CMS_MESSAGE</text>
<polyline fill="none" stroke="black" points="0,-249.5 138,-249.5 "/>
<text text-anchor="middle" x="69" y="-237.5" font-family="Helvetica,sans-Serif" font-size="10.00"> </text>
<polyline fill="none" stroke="black" points="0,-230.5 138,-230.5 "/>
<text text-anchor="middle" x="69" y="-218.5" font-family="Helvetica,sans-Serif" font-size="10.00"> </text>
</a>
</g>
</g>
<!-- Node3&#45;&gt;Node2 -->
<g id="edge2" class="edge">
<title>Node3&#45;&gt;Node2</title>
<path fill="none" stroke="midnightblue" d="M69,-201.29C69,-188.84 69,-175.23 69,-163.68"/>
<polygon fill="none" stroke="midnightblue" points="65.5,-201.4 69,-211.4 72.5,-201.4 65.5,-201.4"/>
</g>
<!-- Node4 -->
<g id="node4" class="node">
<title>Node4</title>
<g id="a_node4"><a xlink:title=" ">
<polygon fill="white" stroke="black" points="158.5,-211.5 158.5,-268.5 187.5,-268.5 187.5,-211.5 158.5,-211.5"/>
<text text-anchor="middle" x="173" y="-256.5" font-family="Helvetica,sans-Serif" font-size="10.00">int</text>
<polyline fill="none" stroke="black" points="158.5,-249.5 187.5,-249.5 "/>
<text text-anchor="middle" x="173" y="-237.5" font-family="Helvetica,sans-Serif" font-size="10.00"> </text>
<polyline fill="none" stroke="black" points="158.5,-230.5 187.5,-230.5 "/>
<text text-anchor="middle" x="173" y="-218.5" font-family="Helvetica,sans-Serif" font-size="10.00"> </text>
</a>
</g>
</g>
<!-- Node4&#45;&gt;Node1 -->
<g id="edge4" class="edge">
<title>Node4&#45;&gt;Node1</title>
<path fill="none" stroke="#404040" d="M168.94,-211.44C164.63,-184.34 157.06,-141.91 147,-106 144.63,-97.54 141.7,-88.64 138.68,-80.14"/>
<polygon fill="none" stroke="#404040" points="138.68,-80.11 132.85,-75.86 134.54,-68.85 140.37,-73.1 138.68,-80.11"/>
<text text-anchor="middle" x="202.5" y="-138" font-family="Helvetica,sans-Serif" font-size="10.00"> +subscription_id</text>
<text text-anchor="middle" x="202.5" y="-127" font-family="Helvetica,sans-Serif" font-size="10.00">+success</text>
</g>
<!-- Node4&#45;&gt;Node2 -->
<g id="edge3" class="edge">
<title>Node4&#45;&gt;Node2</title>
<path fill="none" stroke="#404040" d="M158.29,-221.69C154.76,-217.97 150.89,-214.21 147,-211 135.29,-201.36 129.52,-202.87 118,-193 111.05,-187.05 104.23,-180.08 97.99,-173.1"/>
<polygon fill="none" stroke="#404040" points="97.71,-172.77 90.76,-170.82 89.89,-163.67 96.83,-165.61 97.71,-172.77"/>
<text text-anchor="middle" x="139" y="-185" font-family="Helvetica,sans-Serif" font-size="10.00"> +status</text>
</g>
</g>
</svg>
