<?xml version="1.0" encoding="UTF-8" standalone="no"?>
<!DOCTYPE svg PUBLIC "-//W3C//DTD SVG 1.1//EN"
 "http://www.w3.org/Graphics/SVG/1.1/DTD/svg11.dtd">
<!-- Generated by graphviz version 2.43.0 (0)
 -->
<!-- Title: sPoKeysNetworkDeviceInfo Pages: 1 -->
<svg width="224pt" height="237pt"
 viewBox="0.00 0.00 223.50 237.00" xmlns="http://www.w3.org/2000/svg" xmlns:xlink="http://www.w3.org/1999/xlink">
<g id="graph0" class="graph" transform="scale(1 1) rotate(0) translate(4 233)">
<title>sPoKeysNetworkDeviceInfo</title>
<polygon fill="white" stroke="transparent" points="-4,4 -4,-233 219.5,-233 219.5,4 -4,4"/>
<!-- Node1 -->
<g id="node1" class="node">
<title>Node1</title>
<g id="a_node1"><a xlink:title=" ">
<polygon fill="#bfbfbf" stroke="black" points="0,-0.5 0,-57.5 151,-57.5 151,-0.5 0,-0.5"/>
<text text-anchor="middle" x="75.5" y="-45.5" font-family="Helvetica,sans-Serif" font-size="10.00">sPoKeysNetworkDeviceInfo</text>
<polyline fill="none" stroke="black" points="0,-38.5 151,-38.5 "/>
<text text-anchor="middle" x="75.5" y="-26.5" font-family="Helvetica,sans-Serif" font-size="10.00"> </text>
<polyline fill="none" stroke="black" points="0,-19.5 151,-19.5 "/>
<text text-anchor="middle" x="75.5" y="-7.5" font-family="Helvetica,sans-Serif" font-size="10.00"> </text>
</a>
</g>
</g>
<!-- Node2 -->
<g id="node2" class="node">
<title>Node2</title>
<g id="a_node2"><a xlink:title=" ">
<polygon fill="white" stroke="black" points="45,-171.5 45,-228.5 106,-228.5 106,-171.5 45,-171.5"/>
<text text-anchor="middle" x="75.5" y="-216.5" font-family="Helvetica,sans-Serif" font-size="10.00">unsigned</text>
<polyline fill="none" stroke="black" points="45,-209.5 106,-209.5 "/>
<text text-anchor="middle" x="75.5" y="-197.5" font-family="Helvetica,sans-Serif" font-size="10.00"> </text>
<polyline fill="none" stroke="black" points="45,-190.5 106,-190.5 "/>
<text text-anchor="middle" x="75.5" y="-178.5" font-family="Helvetica,sans-Serif" font-size="10.00"> </text>
</a>
</g>
</g>
<!-- Node2&#45;&gt;Node1 -->
<g id="edge1" class="edge">
<title>Node2&#45;&gt;Node1</title>
<path fill="none" stroke="#404040" d="M75.5,-171.47C75.5,-143.85 75.5,-101.03 75.5,-69.73"/>
<polygon fill="none" stroke="#404040" points="75.5,-69.52 71.5,-63.52 75.5,-57.52 79.5,-63.52 75.5,-69.52"/>
<text text-anchor="middle" x="145.5" y="-145" font-family="Helvetica,sans-Serif" font-size="10.00"> +AdditionalNetworkOptions</text>
<text text-anchor="middle" x="145.5" y="-134" font-family="Helvetica,sans-Serif" font-size="10.00">+DHCP</text>
<text text-anchor="middle" x="145.5" y="-123" font-family="Helvetica,sans-Serif" font-size="10.00">+DefaultGateway</text>
<text text-anchor="middle" x="145.5" y="-112" font-family="Helvetica,sans-Serif" font-size="10.00">+IPAddressCurrent</text>
<text text-anchor="middle" x="145.5" y="-101" font-family="Helvetica,sans-Serif" font-size="10.00">+IPAddressSetup</text>
<text text-anchor="middle" x="145.5" y="-90" font-family="Helvetica,sans-Serif" font-size="10.00">+Subnetmask</text>
<text text-anchor="middle" x="145.5" y="-79" font-family="Helvetica,sans-Serif" font-size="10.00">+TCPtimeout</text>
</g>
</g>
</svg>
