<?xml version="1.0" encoding="UTF-8" standalone="no"?>
<!DOCTYPE svg PUBLIC "-//W3C//DTD SVG 1.1//EN"
 "http://www.w3.org/Graphics/SVG/1.1/DTD/svg11.dtd">
<!-- Generated by graphviz version 2.43.0 (0)
 -->
<!-- Title: sPoKeysCANmsg Pages: 1 -->
<svg width="107pt" height="215pt"
 viewBox="0.00 0.00 107.00 215.00" xmlns="http://www.w3.org/2000/svg" xmlns:xlink="http://www.w3.org/1999/xlink">
<g id="graph0" class="graph" transform="scale(1 1) rotate(0) translate(4 211)">
<title>sPoKeysCANmsg</title>
<polygon fill="white" stroke="transparent" points="-4,4 -4,-211 103,-211 103,4 -4,4"/>
<!-- Node1 -->
<g id="node1" class="node">
<title>Node1</title>
<g id="a_node1"><a xlink:title=" ">
<polygon fill="#bfbfbf" stroke="black" points="0,-0.5 0,-57.5 99,-57.5 99,-0.5 0,-0.5"/>
<text text-anchor="middle" x="49.5" y="-45.5" font-family="Helvetica,sans-Serif" font-size="10.00">sPoKeysCANmsg</text>
<polyline fill="none" stroke="black" points="0,-38.5 99,-38.5 "/>
<text text-anchor="middle" x="49.5" y="-26.5" font-family="Helvetica,sans-Serif" font-size="10.00"> </text>
<polyline fill="none" stroke="black" points="0,-19.5 99,-19.5 "/>
<text text-anchor="middle" x="49.5" y="-7.5" font-family="Helvetica,sans-Serif" font-size="10.00"> </text>
</a>
</g>
</g>
<!-- Node2 -->
<g id="node2" class="node">
<title>Node2</title>
<g id="a_node2"><a xlink:title=" ">
<polygon fill="white" stroke="black" points="19,-149.5 19,-206.5 80,-206.5 80,-149.5 19,-149.5"/>
<text text-anchor="middle" x="49.5" y="-194.5" font-family="Helvetica,sans-Serif" font-size="10.00">unsigned</text>
<polyline fill="none" stroke="black" points="19,-187.5 80,-187.5 "/>
<text text-anchor="middle" x="49.5" y="-175.5" font-family="Helvetica,sans-Serif" font-size="10.00"> </text>
<polyline fill="none" stroke="black" points="19,-168.5 80,-168.5 "/>
<text text-anchor="middle" x="49.5" y="-156.5" font-family="Helvetica,sans-Serif" font-size="10.00"> </text>
</a>
</g>
</g>
<!-- Node2&#45;&gt;Node1 -->
<g id="edge1" class="edge">
<title>Node2&#45;&gt;Node1</title>
<path fill="none" stroke="#404040" d="M49.5,-149.35C49.5,-126.87 49.5,-94.85 49.5,-69.64"/>
<polygon fill="none" stroke="#404040" points="49.5,-69.53 45.5,-63.53 49.5,-57.53 53.5,-63.53 49.5,-69.53"/>
<text text-anchor="middle" x="70.5" y="-123" font-family="Helvetica,sans-Serif" font-size="10.00"> +data</text>
<text text-anchor="middle" x="70.5" y="-112" font-family="Helvetica,sans-Serif" font-size="10.00">+format</text>
<text text-anchor="middle" x="70.5" y="-101" font-family="Helvetica,sans-Serif" font-size="10.00">+id</text>
<text text-anchor="middle" x="70.5" y="-90" font-family="Helvetica,sans-Serif" font-size="10.00">+len</text>
<text text-anchor="middle" x="70.5" y="-79" font-family="Helvetica,sans-Serif" font-size="10.00">+type</text>
</g>
</g>
</svg>
