<?xml version="1.0" encoding="UTF-8" standalone="no"?>
<!DOCTYPE svg PUBLIC "-//W3C//DTD SVG 1.1//EN"
 "http://www.w3.org/Graphics/SVG/1.1/DTD/svg11.dtd">
<!-- Generated by graphviz version 2.43.0 (0)
 -->
<!-- Title: spindle_status_t Pages: 1 -->
<svg width="237pt" height="325pt"
 viewBox="0.00 0.00 237.00 325.00" xmlns="http://www.w3.org/2000/svg" xmlns:xlink="http://www.w3.org/1999/xlink">
<g id="graph0" class="graph" transform="scale(1 1) rotate(0) translate(4 321)">
<title>spindle_status_t</title>
<polygon fill="white" stroke="transparent" points="-4,4 -4,-321 233,-321 233,4 -4,4"/>
<!-- Node1 -->
<g id="node1" class="node">
<title>Node1</title>
<g id="a_node1"><a xlink:title=" ">
<polygon fill="#bfbfbf" stroke="black" points="32,-0.5 32,-90.5 134,-90.5 134,-0.5 32,-0.5"/>
<text text-anchor="middle" x="83" y="-78.5" font-family="Helvetica,sans-Serif" font-size="10.00">spindle_status_t</text>
<polyline fill="none" stroke="black" points="32,-71.5 134,-71.5 "/>
<text text-anchor="start" x="40" y="-59.5" font-family="Helvetica,sans-Serif" font-size="10.00">+ speed</text>
<text text-anchor="start" x="40" y="-48.5" font-family="Helvetica,sans-Serif" font-size="10.00">+ xoffset</text>
<text text-anchor="start" x="40" y="-37.5" font-family="Helvetica,sans-Serif" font-size="10.00">+ spindleRevs</text>
<text text-anchor="start" x="40" y="-26.5" font-family="Helvetica,sans-Serif" font-size="10.00">+ spindleSpeedIn</text>
<polyline fill="none" stroke="black" points="32,-19.5 134,-19.5 "/>
<text text-anchor="middle" x="83" y="-7.5" font-family="Helvetica,sans-Serif" font-size="10.00"> </text>
</a>
</g>
</g>
<!-- Node2 -->
<g id="node2" class="node">
<title>Node2</title>
<g id="a_node2"><a xlink:title=" ">
<polygon fill="white" stroke="black" points="0,-259.5 0,-316.5 50,-316.5 50,-259.5 0,-259.5"/>
<text text-anchor="middle" x="25" y="-304.5" font-family="Helvetica,sans-Serif" font-size="10.00">double</text>
<polyline fill="none" stroke="black" points="0,-297.5 50,-297.5 "/>
<text text-anchor="middle" x="25" y="-285.5" font-family="Helvetica,sans-Serif" font-size="10.00"> </text>
<polyline fill="none" stroke="black" points="0,-278.5 50,-278.5 "/>
<text text-anchor="middle" x="25" y="-266.5" font-family="Helvetica,sans-Serif" font-size="10.00"> </text>
</a>
</g>
</g>
<!-- Node2&#45;&gt;Node1 -->
<g id="edge1" class="edge">
<title>Node2&#45;&gt;Node1</title>
<path fill="none" stroke="#404040" d="M19.22,-259.33C13,-223.32 6.43,-159.08 26,-109 27.06,-106.29 28.3,-103.62 29.68,-101.01"/>
<polygon fill="none" stroke="#404040" points="29.79,-100.82 29.53,-93.61 36.08,-90.6 36.35,-97.81 29.79,-100.82"/>
<text text-anchor="middle" x="73" y="-227.5" font-family="Helvetica,sans-Serif" font-size="10.00"> +css_factor</text>
<text text-anchor="middle" x="73" y="-216.5" font-family="Helvetica,sans-Serif" font-size="10.00">+home_angle</text>
<text text-anchor="middle" x="73" y="-205.5" font-family="Helvetica,sans-Serif" font-size="10.00">+home_search_vel</text>
<text text-anchor="middle" x="73" y="-194.5" font-family="Helvetica,sans-Serif" font-size="10.00">+increment</text>
<text text-anchor="middle" x="73" y="-183.5" font-family="Helvetica,sans-Serif" font-size="10.00">+max_neg_speed</text>
<text text-anchor="middle" x="73" y="-172.5" font-family="Helvetica,sans-Serif" font-size="10.00">+max_pos_speed</text>
<text text-anchor="middle" x="73" y="-161.5" font-family="Helvetica,sans-Serif" font-size="10.00">+min_neg_speed</text>
<text text-anchor="middle" x="73" y="-150.5" font-family="Helvetica,sans-Serif" font-size="10.00">+min_pos_speed</text>
<text text-anchor="middle" x="73" y="-139.5" font-family="Helvetica,sans-Serif" font-size="10.00">+net_scale</text>
<text text-anchor="middle" x="73" y="-128.5" font-family="Helvetica,sans-Serif" font-size="10.00">+scale</text>
<text text-anchor="middle" x="73" y="-117.5" font-family="Helvetica,sans-Serif" font-size="10.00">...</text>
</g>
<!-- Node3 -->
<g id="node3" class="node">
<title>Node3</title>
<g id="a_node3"><a xlink:title=" ">
<polygon fill="white" stroke="black" points="127.5,-259.5 127.5,-316.5 156.5,-316.5 156.5,-259.5 127.5,-259.5"/>
<text text-anchor="middle" x="142" y="-304.5" font-family="Helvetica,sans-Serif" font-size="10.00">int</text>
<polyline fill="none" stroke="black" points="127.5,-297.5 156.5,-297.5 "/>
<text text-anchor="middle" x="142" y="-285.5" font-family="Helvetica,sans-Serif" font-size="10.00"> </text>
<polyline fill="none" stroke="black" points="127.5,-278.5 156.5,-278.5 "/>
<text text-anchor="middle" x="142" y="-266.5" font-family="Helvetica,sans-Serif" font-size="10.00"> </text>
</a>
</g>
</g>
<!-- Node3&#45;&gt;Node1 -->
<g id="edge2" class="edge">
<title>Node3&#45;&gt;Node1</title>
<path fill="none" stroke="#404040" d="M142.05,-259.39C141.35,-223.72 137.44,-160.13 120,-109 119.19,-106.62 118.28,-104.24 117.29,-101.86"/>
<polygon fill="none" stroke="#404040" points="117.23,-101.73 111.08,-97.96 112.19,-90.84 118.34,-94.6 117.23,-101.73"/>
<text text-anchor="middle" x="185" y="-233" font-family="Helvetica,sans-Serif" font-size="10.00"> +at_speed</text>
<text text-anchor="middle" x="185" y="-222" font-family="Helvetica,sans-Serif" font-size="10.00">+brake</text>
<text text-anchor="middle" x="185" y="-211" font-family="Helvetica,sans-Serif" font-size="10.00">+direction</text>
<text text-anchor="middle" x="185" y="-200" font-family="Helvetica,sans-Serif" font-size="10.00">+fault</text>
<text text-anchor="middle" x="185" y="-189" font-family="Helvetica,sans-Serif" font-size="10.00">+home_sequence</text>
<text text-anchor="middle" x="185" y="-178" font-family="Helvetica,sans-Serif" font-size="10.00">+locked</text>
<text text-anchor="middle" x="185" y="-167" font-family="Helvetica,sans-Serif" font-size="10.00">+orient_fault</text>
<text text-anchor="middle" x="185" y="-156" font-family="Helvetica,sans-Serif" font-size="10.00">+orient_state</text>
<text text-anchor="start" x="141" y="-145" font-family="Helvetica,sans-Serif" font-size="10.00">+spindle_index</text>
<text text-anchor="middle" x="185" y="-134" font-family="Helvetica,sans-Serif" font-size="10.00">_enable</text>
<text text-anchor="middle" x="185" y="-123" font-family="Helvetica,sans-Serif" font-size="10.00">+state</text>
<text text-anchor="middle" x="185" y="-112" font-family="Helvetica,sans-Serif" font-size="10.00">...</text>
</g>
</g>
</svg>
