<?xml version="1.0" encoding="UTF-8" standalone="no"?>
<!DOCTYPE svg PUBLIC "-//W3C//DTD SVG 1.1//EN"
 "http://www.w3.org/Graphics/SVG/1.1/DTD/svg11.dtd">
<!-- Generated by graphviz version 2.43.0 (0)
 -->
<!-- Title: go_plane Pages: 1 -->
<svg width="107pt" height="298pt"
 viewBox="0.00 0.00 107.00 298.00" xmlns="http://www.w3.org/2000/svg" xmlns:xlink="http://www.w3.org/1999/xlink">
<g id="graph0" class="graph" transform="scale(1 1) rotate(0) translate(4 294)">
<title>go_plane</title>
<polygon fill="white" stroke="transparent" points="-4,4 -4,-294 103,-294 103,4 -4,4"/>
<!-- Node1 -->
<g id="node1" class="node">
<title>Node1</title>
<g id="a_node1"><a xlink:title=" ">
<polygon fill="#bfbfbf" stroke="black" points="2.5,-0.5 2.5,-57.5 63.5,-57.5 63.5,-0.5 2.5,-0.5"/>
<text text-anchor="middle" x="33" y="-45.5" font-family="Helvetica,sans-Serif" font-size="10.00">go_plane</text>
<polyline fill="none" stroke="black" points="2.5,-38.5 63.5,-38.5 "/>
<text text-anchor="middle" x="33" y="-26.5" font-family="Helvetica,sans-Serif" font-size="10.00"> </text>
<polyline fill="none" stroke="black" points="2.5,-19.5 63.5,-19.5 "/>
<text text-anchor="middle" x="33" y="-7.5" font-family="Helvetica,sans-Serif" font-size="10.00"> </text>
</a>
</g>
</g>
<!-- Node2 -->
<g id="node2" class="node">
<title>Node2</title>
<g id="a_node2"><a xlink:href="structgo__cart.html" target="_top" xlink:title=" ">
<polygon fill="white" stroke="black" points="45.5,-105.5 45.5,-162.5 98.5,-162.5 98.5,-105.5 45.5,-105.5"/>
<text text-anchor="middle" x="72" y="-150.5" font-family="Helvetica,sans-Serif" font-size="10.00">go_cart</text>
<polyline fill="none" stroke="black" points="45.5,-143.5 98.5,-143.5 "/>
<text text-anchor="middle" x="72" y="-131.5" font-family="Helvetica,sans-Serif" font-size="10.00"> </text>
<polyline fill="none" stroke="black" points="45.5,-124.5 98.5,-124.5 "/>
<text text-anchor="middle" x="72" y="-112.5" font-family="Helvetica,sans-Serif" font-size="10.00"> </text>
</a>
</g>
</g>
<!-- Node2&#45;&gt;Node1 -->
<g id="edge1" class="edge">
<title>Node2&#45;&gt;Node1</title>
<path fill="none" stroke="#404040" d="M61.55,-105.4C57.31,-94.2 52.33,-81.06 47.74,-68.92"/>
<polygon fill="none" stroke="#404040" points="47.73,-68.9 41.86,-64.71 43.48,-57.68 49.35,-61.87 47.73,-68.9"/>
<text text-anchor="middle" x="76" y="-79" font-family="Helvetica,sans-Serif" font-size="10.00"> +normal</text>
</g>
<!-- Node3 -->
<g id="node3" class="node">
<title>Node3</title>
<g id="a_node3"><a xlink:title=" ">
<polygon fill="white" stroke="black" points="0,-232.5 0,-289.5 50,-289.5 50,-232.5 0,-232.5"/>
<text text-anchor="middle" x="25" y="-277.5" font-family="Helvetica,sans-Serif" font-size="10.00">double</text>
<polyline fill="none" stroke="black" points="0,-270.5 50,-270.5 "/>
<text text-anchor="middle" x="25" y="-258.5" font-family="Helvetica,sans-Serif" font-size="10.00"> </text>
<polyline fill="none" stroke="black" points="0,-251.5 50,-251.5 "/>
<text text-anchor="middle" x="25" y="-239.5" font-family="Helvetica,sans-Serif" font-size="10.00"> </text>
</a>
</g>
</g>
<!-- Node3&#45;&gt;Node1 -->
<g id="edge3" class="edge">
<title>Node3&#45;&gt;Node1</title>
<path fill="none" stroke="#404040" d="M21.74,-232.22C18.6,-201.16 14.89,-149.38 19,-105 20.08,-93.38 22.07,-80.87 24.22,-69.46"/>
<polygon fill="none" stroke="#404040" points="24.24,-69.38 21.49,-62.71 26.58,-57.61 29.33,-64.28 24.24,-69.38"/>
<text text-anchor="middle" x="28" y="-131.5" font-family="Helvetica,sans-Serif" font-size="10.00"> +d</text>
</g>
<!-- Node3&#45;&gt;Node2 -->
<g id="edge2" class="edge">
<title>Node3&#45;&gt;Node2</title>
<path fill="none" stroke="#404040" d="M35.43,-232.26C41.88,-215.1 50.26,-192.83 57.36,-173.92"/>
<polygon fill="none" stroke="#404040" points="57.37,-173.9 55.74,-166.87 61.6,-162.66 63.23,-169.69 57.37,-173.9"/>
<text text-anchor="middle" x="63" y="-206" font-family="Helvetica,sans-Serif" font-size="10.00"> +x</text>
<text text-anchor="middle" x="63" y="-195" font-family="Helvetica,sans-Serif" font-size="10.00">+y</text>
<text text-anchor="middle" x="63" y="-184" font-family="Helvetica,sans-Serif" font-size="10.00">+z</text>
</g>
</g>
</svg>
