<?xml version="1.0" encoding="UTF-8" standalone="no"?>
<!DOCTYPE svg PUBLIC "-//W3C//DTD SVG 1.1//EN"
 "http://www.w3.org/Graphics/SVG/1.1/DTD/svg11.dtd">
<!-- Generated by graphviz version 2.43.0 (0)
 -->
<!-- Title: REMOTE_BLOCKING_READ_REQUEST Pages: 1 -->
<svg width="170pt" height="524pt"
 viewBox="0.00 0.00 170.00 524.00" xmlns="http://www.w3.org/2000/svg" xmlns:xlink="http://www.w3.org/1999/xlink">
<g id="graph0" class="graph" transform="scale(1 1) rotate(0) translate(4 520)">
<title>REMOTE_BLOCKING_READ_REQUEST</title>
<polygon fill="white" stroke="transparent" points="-4,4 -4,-520 166,-520 166,4 -4,4"/>
<!-- Node1 -->
<g id="node1" class="node">
<title>Node1</title>
<g id="a_node1"><a xlink:title=" ">
<polygon fill="#bfbfbf" stroke="black" points="2,-171.5 2,-305.5 160,-305.5 160,-171.5 2,-171.5"/>
<text text-anchor="start" x="10" y="-293.5" font-family="Helvetica,sans-Serif" font-size="10.00">REMOTE_BLOCKING_READ</text>
<text text-anchor="middle" x="81" y="-282.5" font-family="Helvetica,sans-Serif" font-size="10.00">_REQUEST</text>
<polyline fill="none" stroke="black" points="2,-275.5 160,-275.5 "/>
<text text-anchor="start" x="10" y="-263.5" font-family="Helvetica,sans-Serif" font-size="10.00">+ access_type</text>
<text text-anchor="start" x="10" y="-252.5" font-family="Helvetica,sans-Serif" font-size="10.00">+ last_id_read</text>
<text text-anchor="start" x="10" y="-241.5" font-family="Helvetica,sans-Serif" font-size="10.00">+ timeout_millis</text>
<text text-anchor="start" x="10" y="-230.5" font-family="Helvetica,sans-Serif" font-size="10.00">+ _nml</text>
<text text-anchor="start" x="10" y="-219.5" font-family="Helvetica,sans-Serif" font-size="10.00">+ _data</text>
<text text-anchor="start" x="10" y="-208.5" font-family="Helvetica,sans-Serif" font-size="10.00">+ _reply</text>
<polyline fill="none" stroke="black" points="2,-201.5 160,-201.5 "/>
<text text-anchor="start" x="10" y="-189.5" font-family="Helvetica,sans-Serif" font-size="10.00">+ REMOTE_BLOCKING_READ</text>
<text text-anchor="start" x="10" y="-178.5" font-family="Helvetica,sans-Serif" font-size="10.00">_REQUEST()</text>
</a>
</g>
</g>
<!-- Node4 -->
<g id="node4" class="node">
<title>Node4</title>
<g id="a_node4"><a xlink:href="classTCPSVR__BLOCKING__READ__REQUEST.html" target="_top" xlink:title=" ">
<polygon fill="white" stroke="black" points="0,-0.5 0,-134.5 162,-134.5 162,-0.5 0,-0.5"/>
<text text-anchor="start" x="8" y="-122.5" font-family="Helvetica,sans-Serif" font-size="10.00">TCPSVR_BLOCKING_READ</text>
<text text-anchor="middle" x="81" y="-111.5" font-family="Helvetica,sans-Serif" font-size="10.00">_REQUEST</text>
<polyline fill="none" stroke="black" points="0,-104.5 162,-104.5 "/>
<text text-anchor="start" x="8" y="-92.5" font-family="Helvetica,sans-Serif" font-size="10.00">+ _client_tcp_port</text>
<text text-anchor="start" x="8" y="-81.5" font-family="Helvetica,sans-Serif" font-size="10.00">+ remport</text>
<text text-anchor="start" x="8" y="-70.5" font-family="Helvetica,sans-Serif" font-size="10.00">+ server</text>
<text text-anchor="start" x="8" y="-59.5" font-family="Helvetica,sans-Serif" font-size="10.00">+ read_reply</text>
<polyline fill="none" stroke="black" points="0,-52.5 162,-52.5 "/>
<text text-anchor="start" x="8" y="-40.5" font-family="Helvetica,sans-Serif" font-size="10.00">+ TCPSVR_BLOCKING_READ</text>
<text text-anchor="start" x="8" y="-29.5" font-family="Helvetica,sans-Serif" font-size="10.00">_REQUEST()</text>
<text text-anchor="start" x="8" y="-18.5" font-family="Helvetica,sans-Serif" font-size="10.00">+ ~TCPSVR_BLOCKING_READ</text>
<text text-anchor="start" x="8" y="-7.5" font-family="Helvetica,sans-Serif" font-size="10.00">_REQUEST()</text>
</a>
</g>
</g>
<!-- Node1&#45;&gt;Node4 -->
<g id="edge3" class="edge">
<title>Node1&#45;&gt;Node4</title>
<path fill="none" stroke="midnightblue" d="M81,-160.95C81,-152.16 81,-143.25 81,-134.62"/>
<polygon fill="none" stroke="midnightblue" points="77.5,-161.19 81,-171.19 84.5,-161.19 77.5,-161.19"/>
</g>
<!-- Node2 -->
<g id="node2" class="node">
<title>Node2</title>
<g id="a_node2"><a xlink:href="structREMOTE__CMS__REQUEST.html" target="_top" xlink:title=" ">
<polygon fill="white" stroke="black" points="3.5,-342.5 3.5,-421.5 158.5,-421.5 158.5,-342.5 3.5,-342.5"/>
<text text-anchor="middle" x="81" y="-409.5" font-family="Helvetica,sans-Serif" font-size="10.00">REMOTE_CMS_REQUEST</text>
<polyline fill="none" stroke="black" points="3.5,-402.5 158.5,-402.5 "/>
<text text-anchor="start" x="11.5" y="-390.5" font-family="Helvetica,sans-Serif" font-size="10.00">+ buffer_number</text>
<text text-anchor="start" x="11.5" y="-379.5" font-family="Helvetica,sans-Serif" font-size="10.00">+ type</text>
<text text-anchor="start" x="11.5" y="-368.5" font-family="Helvetica,sans-Serif" font-size="10.00">+ subdiv</text>
<polyline fill="none" stroke="black" points="3.5,-361.5 158.5,-361.5 "/>
<text text-anchor="start" x="11.5" y="-349.5" font-family="Helvetica,sans-Serif" font-size="10.00">+ REMOTE_CMS_REQUEST()</text>
</a>
</g>
</g>
<!-- Node2&#45;&gt;Node1 -->
<g id="edge1" class="edge">
<title>Node2&#45;&gt;Node1</title>
<path fill="none" stroke="midnightblue" d="M81,-332.16C81,-323.59 81,-314.55 81,-305.6"/>
<polygon fill="none" stroke="midnightblue" points="77.5,-332.33 81,-342.33 84.5,-332.33 77.5,-332.33"/>
</g>
<!-- Node3 -->
<g id="node3" class="node">
<title>Node3</title>
<g id="a_node3"><a xlink:href="structREMOTE__CMS__MESSAGE.html" target="_top" xlink:title=" ">
<polygon fill="white" stroke="black" points="12,-458.5 12,-515.5 150,-515.5 150,-458.5 12,-458.5"/>
<text text-anchor="middle" x="81" y="-503.5" font-family="Helvetica,sans-Serif" font-size="10.00">REMOTE_CMS_MESSAGE</text>
<polyline fill="none" stroke="black" points="12,-496.5 150,-496.5 "/>
<text text-anchor="middle" x="81" y="-484.5" font-family="Helvetica,sans-Serif" font-size="10.00"> </text>
<polyline fill="none" stroke="black" points="12,-477.5 150,-477.5 "/>
<text text-anchor="middle" x="81" y="-465.5" font-family="Helvetica,sans-Serif" font-size="10.00"> </text>
</a>
</g>
</g>
<!-- Node3&#45;&gt;Node2 -->
<g id="edge2" class="edge">
<title>Node3&#45;&gt;Node2</title>
<path fill="none" stroke="midnightblue" d="M81,-448.16C81,-439.47 81,-430.23 81,-421.52"/>
<polygon fill="none" stroke="midnightblue" points="77.5,-448.4 81,-458.4 84.5,-448.4 77.5,-448.4"/>
</g>
</g>
</svg>
