<?xml version="1.0" encoding="UTF-8" standalone="no"?>
<!DOCTYPE svg PUBLIC "-//W3C//DTD SVG 1.1//EN"
 "http://www.w3.org/Graphics/SVG/1.1/DTD/svg11.dtd">
<!-- Generated by graphviz version 2.43.0 (0)
 -->
<!-- Title: REMOTE_CLEAR_REQUEST Pages: 1 -->
<svg width="323pt" height="277pt"
 viewBox="0.00 0.00 323.00 277.00" xmlns="http://www.w3.org/2000/svg" xmlns:xlink="http://www.w3.org/1999/xlink">
<g id="graph0" class="graph" transform="scale(1 1) rotate(0) translate(4 273)">
<title>REMOTE_CLEAR_REQUEST</title>
<polygon fill="white" stroke="transparent" points="-4,4 -4,-273 319,-273 319,4 -4,4"/>
<!-- Node1 -->
<g id="node1" class="node">
<title>Node1</title>
<g id="a_node1"><a xlink:title=" ">
<polygon fill="#bfbfbf" stroke="black" points="93,-0.5 93,-57.5 257,-57.5 257,-0.5 93,-0.5"/>
<text text-anchor="middle" x="175" y="-45.5" font-family="Helvetica,sans-Serif" font-size="10.00">REMOTE_CLEAR_REQUEST</text>
<polyline fill="none" stroke="black" points="93,-38.5 257,-38.5 "/>
<text text-anchor="middle" x="175" y="-26.5" font-family="Helvetica,sans-Serif" font-size="10.00"> </text>
<polyline fill="none" stroke="black" points="93,-19.5 257,-19.5 "/>
<text text-anchor="start" x="101" y="-7.5" font-family="Helvetica,sans-Serif" font-size="10.00">+ REMOTE_CLEAR_REQUEST()</text>
</a>
</g>
</g>
<!-- Node2 -->
<g id="node2" class="node">
<title>Node2</title>
<g id="a_node2"><a xlink:href="structREMOTE__CMS__REQUEST.html" target="_top" xlink:title=" ">
<polygon fill="white" stroke="black" points="97.5,-95.5 97.5,-152.5 252.5,-152.5 252.5,-95.5 97.5,-95.5"/>
<text text-anchor="middle" x="175" y="-140.5" font-family="Helvetica,sans-Serif" font-size="10.00">REMOTE_CMS_REQUEST</text>
<polyline fill="none" stroke="black" points="97.5,-133.5 252.5,-133.5 "/>
<text text-anchor="middle" x="175" y="-121.5" font-family="Helvetica,sans-Serif" font-size="10.00"> </text>
<polyline fill="none" stroke="black" points="97.5,-114.5 252.5,-114.5 "/>
<text text-anchor="start" x="105.5" y="-102.5" font-family="Helvetica,sans-Serif" font-size="10.00">+ REMOTE_CMS_REQUEST()</text>
</a>
</g>
</g>
<!-- Node2&#45;&gt;Node1 -->
<g id="edge1" class="edge">
<title>Node2&#45;&gt;Node1</title>
<path fill="none" stroke="midnightblue" d="M175,-85.24C175,-76.03 175,-66.35 175,-57.71"/>
<polygon fill="none" stroke="midnightblue" points="171.5,-85.35 175,-95.35 178.5,-85.35 171.5,-85.35"/>
</g>
<!-- Node3 -->
<g id="node3" class="node">
<title>Node3</title>
<g id="a_node3"><a xlink:href="structREMOTE__CMS__MESSAGE.html" target="_top" xlink:title=" ">
<polygon fill="white" stroke="black" points="0,-211.5 0,-268.5 138,-268.5 138,-211.5 0,-211.5"/>
<text text-anchor="middle" x="69" y="-256.5" font-family="Helvetica,sans-Serif" font-size="10.00">REMOTE_CMS_MESSAGE</text>
<polyline fill="none" stroke="black" points="0,-249.5 138,-249.5 "/>
<text text-anchor="middle" x="69" y="-237.5" font-family="Helvetica,sans-Serif" font-size="10.00"> </text>
<polyline fill="none" stroke="black" points="0,-230.5 138,-230.5 "/>
<text text-anchor="middle" x="69" y="-218.5" font-family="Helvetica,sans-Serif" font-size="10.00"> </text>
</a>
</g>
</g>
<!-- Node3&#45;&gt;Node2 -->
<g id="edge2" class="edge">
<title>Node3&#45;&gt;Node2</title>
<path fill="none" stroke="midnightblue" d="M101.49,-204.06C116.81,-187.58 134.84,-168.19 149.21,-152.74"/>
<polygon fill="none" stroke="midnightblue" points="98.91,-201.7 94.66,-211.4 104.03,-206.46 98.91,-201.7"/>
</g>
<!-- Node4 -->
<g id="node4" class="node">
<title>Node4</title>
<g id="a_node4"><a xlink:title=" ">
<polygon fill="white" stroke="black" points="156,-211.5 156,-268.5 194,-268.5 194,-211.5 156,-211.5"/>
<text text-anchor="middle" x="175" y="-256.5" font-family="Helvetica,sans-Serif" font-size="10.00">long</text>
<polyline fill="none" stroke="black" points="156,-249.5 194,-249.5 "/>
<text text-anchor="middle" x="175" y="-237.5" font-family="Helvetica,sans-Serif" font-size="10.00"> </text>
<polyline fill="none" stroke="black" points="156,-230.5 194,-230.5 "/>
<text text-anchor="middle" x="175" y="-218.5" font-family="Helvetica,sans-Serif" font-size="10.00"> </text>
</a>
</g>
</g>
<!-- Node4&#45;&gt;Node2 -->
<g id="edge3" class="edge">
<title>Node4&#45;&gt;Node2</title>
<path fill="none" stroke="#404040" d="M175,-211.4C175,-197.5 175,-180.39 175,-165.07"/>
<polygon fill="none" stroke="#404040" points="175,-164.74 171,-158.74 175,-152.74 179,-158.74 175,-164.74"/>
<text text-anchor="middle" x="216.5" y="-179.5" font-family="Helvetica,sans-Serif" font-size="10.00"> +buffer_number</text>
</g>
<!-- Node5 -->
<g id="node5" class="node">
<title>Node5</title>
<g id="a_node5"><a xlink:title=" ">
<polygon fill="white" stroke="black" points="266.5,-211.5 266.5,-268.5 295.5,-268.5 295.5,-211.5 266.5,-211.5"/>
<text text-anchor="middle" x="281" y="-256.5" font-family="Helvetica,sans-Serif" font-size="10.00">int</text>
<polyline fill="none" stroke="black" points="266.5,-249.5 295.5,-249.5 "/>
<text text-anchor="middle" x="281" y="-237.5" font-family="Helvetica,sans-Serif" font-size="10.00"> </text>
<polyline fill="none" stroke="black" points="266.5,-230.5 295.5,-230.5 "/>
<text text-anchor="middle" x="281" y="-218.5" font-family="Helvetica,sans-Serif" font-size="10.00"> </text>
</a>
</g>
</g>
<!-- Node5&#45;&gt;Node2 -->
<g id="edge4" class="edge">
<title>Node5&#45;&gt;Node2</title>
<path fill="none" stroke="#404040" d="M276.93,-211.19C273.83,-197.87 268.41,-182.38 259,-171 255.72,-167.04 252.01,-163.36 248.01,-159.96"/>
<polygon fill="none" stroke="#404040" points="247.79,-159.79 240.6,-159.33 238.25,-152.51 245.45,-152.97 247.79,-159.79"/>
<text text-anchor="middle" x="293" y="-185" font-family="Helvetica,sans-Serif" font-size="10.00"> +subdiv</text>
<text text-anchor="middle" x="293" y="-174" font-family="Helvetica,sans-Serif" font-size="10.00">+type</text>
</g>
</g>
</svg>
