<?xml version="1.0" encoding="UTF-8" standalone="no"?>
<!DOCTYPE svg PUBLIC "-//W3C//DTD SVG 1.1//EN"
 "http://www.w3.org/Graphics/SVG/1.1/DTD/svg11.dtd">
<!-- Generated by graphviz version 2.43.0 (0)
 -->
<!-- Title: StandaloneInterpInternals Pages: 1 -->
<!--zoomable 785 -->
<svg id="main" version="1.1" xmlns="http://www.w3.org/2000/svg" xmlns:xlink="http://www.w3.org/1999/xlink" xml:space="preserve" onload="init(evt)">
<style type="text/css"><![CDATA[
.edge:hover path { stroke: red; }
.edge:hover polygon { stroke: red; fill: red; }
]]></style>
<script type="text/javascript"><![CDATA[
var edges = document.getElementsByTagName('g');
if (edges && edges.length) {
  for (var i=0;i<edges.length;i++) {
    if (edges[i].id.substr(0,4)=='edge') {
      edges[i].setAttribute('class','edge');
    }
  }
}
]]></script>
        <defs>
                <circle id="rim" cx="0" cy="0" r="7"/>
                <circle id="rim2" cx="0" cy="0" r="3.5"/>
                <g id="zoomPlus">
                        <use xlink:href="#rim" fill="#404040">
                                <set attributeName="fill" to="#808080" begin="zoomplus.mouseover" end="zoomplus.mouseout"/>
                        </use>
                        <path d="M-4,0h8M0,-4v8" fill="none" stroke="white" stroke-width="1.5" pointer-events="none"/>
                </g>
                <g id="zoomMin">
                        <use xlink:href="#rim" fill="#404040">
                                <set attributeName="fill" to="#808080" begin="zoomminus.mouseover" end="zoomminus.mouseout"/>
                        </use>
                        <path d="M-4,0h8" fill="none" stroke="white" stroke-width="1.5" pointer-events="none"/>
                </g>
                <g id="dirArrow">
                        <path fill="none" stroke="white" stroke-width="1.5" d="M0,-3.0v7 M-2.5,-0.5L0,-3.0L2.5,-0.5"/>
                </g>
               <g id="resetDef">
                       <use xlink:href="#rim2" fill="#404040">
                               <set attributeName="fill" to="#808080" begin="reset.mouseover" end="reset.mouseout"/>
                       </use>
               </g>
        </defs>

<script type="text/javascript">
var viewWidth = 1042;
var viewHeight = 785;
var sectionId = 'dynsection-0';
</script>
<script xlink:href="svgpan.js"/>
<svg id="graph" class="graph">
<g id="viewport">
<title>StandaloneInterpInternals</title>
<polygon fill="white" stroke="transparent" points="-4,4 -4,-781 1038,-781 1038,4 -4,4"/>
<!-- Node1 -->
<g id="node1" class="node">
<title>Node1</title>
<g id="a_node1"><a xlink:title=" ">
<polygon fill="#bfbfbf" stroke="black" points="357.5,-0.5 357.5,-167.5 518.5,-167.5 518.5,-0.5 357.5,-0.5"/>
<text text-anchor="middle" x="438" y="-155.5" font-family="Helvetica,sans-Serif" font-size="10.00">StandaloneInterpInternals</text>
<polyline fill="none" stroke="black" points="357.5,-148.5 518.5,-148.5 "/>
<text text-anchor="start" x="365.5" y="-136.5" font-family="Helvetica,sans-Serif" font-size="10.00">+ _length_unit_factor</text>
<text text-anchor="start" x="365.5" y="-125.5" font-family="Helvetica,sans-Serif" font-size="10.00">+ _probe_position_a</text>
<text text-anchor="start" x="365.5" y="-114.5" font-family="Helvetica,sans-Serif" font-size="10.00">+ _probe_position_b</text>
<text text-anchor="start" x="365.5" y="-103.5" font-family="Helvetica,sans-Serif" font-size="10.00">+ _probe_position_c</text>
<text text-anchor="start" x="365.5" y="-92.5" font-family="Helvetica,sans-Serif" font-size="10.00">+ _probe_position_x</text>
<text text-anchor="start" x="365.5" y="-81.5" font-family="Helvetica,sans-Serif" font-size="10.00">+ _probe_position_y</text>
<text text-anchor="start" x="365.5" y="-70.5" font-family="Helvetica,sans-Serif" font-size="10.00">+ _probe_position_z</text>
<text text-anchor="start" x="365.5" y="-59.5" font-family="Helvetica,sans-Serif" font-size="10.00">+ _g92_x</text>
<text text-anchor="start" x="365.5" y="-48.5" font-family="Helvetica,sans-Serif" font-size="10.00">+ _g92_y</text>
<text text-anchor="start" x="365.5" y="-37.5" font-family="Helvetica,sans-Serif" font-size="10.00">+ _g92_z</text>
<text text-anchor="start" x="365.5" y="-26.5" font-family="Helvetica,sans-Serif" font-size="10.00">and 11 more...</text>
<polyline fill="none" stroke="black" points="357.5,-19.5 518.5,-19.5 "/>
<text text-anchor="start" x="365.5" y="-7.5" font-family="Helvetica,sans-Serif" font-size="10.00">+ StandaloneInterpInternals()</text>
</a>
</g>
</g>
<!-- Node2 -->
<g id="node2" class="node">
<title>Node2</title>
<g id="a_node2"><a xlink:title=" ">
<polygon fill="white" stroke="black" points="0,-252.5 0,-309.5 90,-309.5 90,-252.5 0,-252.5"/>
<text text-anchor="middle" x="45" y="-297.5" font-family="Helvetica,sans-Serif" font-size="10.00">CANON_PLANE</text>
<polyline fill="none" stroke="black" points="0,-290.5 90,-290.5 "/>
<text text-anchor="middle" x="45" y="-278.5" font-family="Helvetica,sans-Serif" font-size="10.00"> </text>
<polyline fill="none" stroke="black" points="0,-271.5 90,-271.5 "/>
<text text-anchor="middle" x="45" y="-259.5" font-family="Helvetica,sans-Serif" font-size="10.00"> </text>
</a>
</g>
</g>
<!-- Node2&#45;&gt;Node1 -->
<g id="edge1" class="edge">
<title>Node2&#45;&gt;Node1</title>
<path fill="none" stroke="#404040" d="M37.08,-252.39C33,-231.93 31.51,-204.5 46,-186 82.59,-139.31 241.38,-110.28 345.3,-95.92"/>
<polygon fill="none" stroke="#404040" points="345.49,-95.89 350.89,-91.12 357.38,-94.28 351.97,-99.05 345.49,-95.89"/>
<text text-anchor="middle" x="85.5" y="-200" font-family="Helvetica,sans-Serif" font-size="10.00"> +_active_plane</text>
</g>
<!-- Node3 -->
<g id="node3" class="node">
<title>Node3</title>
<g id="a_node3"><a xlink:title=" ">
<polygon fill="white" stroke="black" points="280.5,-426 280.5,-483 309.5,-483 309.5,-426 280.5,-426"/>
<text text-anchor="middle" x="295" y="-471" font-family="Helvetica,sans-Serif" font-size="10.00">int</text>
<polyline fill="none" stroke="black" points="280.5,-464 309.5,-464 "/>
<text text-anchor="middle" x="295" y="-452" font-family="Helvetica,sans-Serif" font-size="10.00"> </text>
<polyline fill="none" stroke="black" points="280.5,-445 309.5,-445 "/>
<text text-anchor="middle" x="295" y="-433" font-family="Helvetica,sans-Serif" font-size="10.00"> </text>
</a>
</g>
</g>
<!-- Node3&#45;&gt;Node1 -->
<g id="edge2" class="edge">
<title>Node3&#45;&gt;Node1</title>
<path fill="none" stroke="#404040" d="M284.05,-425.99C279.27,-415.51 273.11,-403.75 266,-394 239.88,-358.19 211.4,-365.77 194,-325 178.65,-289.03 175.01,-271.19 194,-237 226.35,-178.73 291.36,-139.89 346.14,-116.06"/>
<polygon fill="none" stroke="#404040" points="346.24,-116.02 350.22,-110 357.3,-111.35 353.33,-117.37 346.24,-116.02"/>
<text text-anchor="middle" x="233.5" y="-317" font-family="Helvetica,sans-Serif" font-size="10.00"> +_active_slot</text>
<text text-anchor="middle" x="233.5" y="-306" font-family="Helvetica,sans-Serif" font-size="10.00">+_feed_mode</text>
<text text-anchor="middle" x="233.5" y="-295" font-family="Helvetica,sans-Serif" font-size="10.00">+_flood</text>
<text text-anchor="middle" x="233.5" y="-284" font-family="Helvetica,sans-Serif" font-size="10.00">+_line_number</text>
<text text-anchor="middle" x="233.5" y="-273" font-family="Helvetica,sans-Serif" font-size="10.00">+_mist</text>
<text text-anchor="middle" x="233.5" y="-262" font-family="Helvetica,sans-Serif" font-size="10.00">+_pockets_max</text>
<text text-anchor="start" x="194" y="-251" font-family="Helvetica,sans-Serif" font-size="10.00">+_toolchanger</text>
<text text-anchor="middle" x="233.5" y="-240" font-family="Helvetica,sans-Serif" font-size="10.00">_reason</text>
</g>
<!-- Node8 -->
<g id="node8" class="node">
<title>Node8</title>
<g id="a_node8"><a xlink:href="structCANON__TOOL__TABLE.html" target="_top" xlink:title=" ">
<polygon fill="white" stroke="black" points="282.5,-252.5 282.5,-309.5 401.5,-309.5 401.5,-252.5 282.5,-252.5"/>
<text text-anchor="middle" x="342" y="-297.5" font-family="Helvetica,sans-Serif" font-size="10.00">CANON_TOOL_TABLE</text>
<polyline fill="none" stroke="black" points="282.5,-290.5 401.5,-290.5 "/>
<text text-anchor="middle" x="342" y="-278.5" font-family="Helvetica,sans-Serif" font-size="10.00"> </text>
<polyline fill="none" stroke="black" points="282.5,-271.5 401.5,-271.5 "/>
<text text-anchor="middle" x="342" y="-259.5" font-family="Helvetica,sans-Serif" font-size="10.00"> </text>
</a>
</g>
</g>
<!-- Node3&#45;&gt;Node8 -->
<g id="edge8" class="edge">
<title>Node3&#45;&gt;Node8</title>
<path fill="none" stroke="#404040" d="M281.45,-425.89C275.08,-411.41 268.21,-393.16 265,-376 262.31,-361.58 258.62,-356.2 265,-343 269.64,-333.41 276.6,-324.86 284.48,-317.43"/>
<polygon fill="none" stroke="#404040" points="284.58,-317.33 286.52,-310.39 293.68,-309.5 291.74,-316.45 284.58,-317.33"/>
<text text-anchor="middle" x="297.5" y="-368" font-family="Helvetica,sans-Serif" font-size="10.00"> +orientation</text>
<text text-anchor="middle" x="297.5" y="-357" font-family="Helvetica,sans-Serif" font-size="10.00">+pocketno</text>
<text text-anchor="middle" x="297.5" y="-346" font-family="Helvetica,sans-Serif" font-size="10.00">+toolno</text>
</g>
<!-- Node4 -->
<g id="node4" class="node">
<title>Node4</title>
<g id="a_node4"><a xlink:title=" ">
<polygon fill="white" stroke="black" points="357,-719.5 357,-776.5 407,-776.5 407,-719.5 357,-719.5"/>
<text text-anchor="middle" x="382" y="-764.5" font-family="Helvetica,sans-Serif" font-size="10.00">double</text>
<polyline fill="none" stroke="black" points="357,-757.5 407,-757.5 "/>
<text text-anchor="middle" x="382" y="-745.5" font-family="Helvetica,sans-Serif" font-size="10.00"> </text>
<polyline fill="none" stroke="black" points="357,-738.5 407,-738.5 "/>
<text text-anchor="middle" x="382" y="-726.5" font-family="Helvetica,sans-Serif" font-size="10.00"> </text>
</a>
</g>
</g>
<!-- Node4&#45;&gt;Node1 -->
<g id="edge3" class="edge">
<title>Node4&#45;&gt;Node1</title>
<path fill="none" stroke="#404040" d="M356.91,-745.34C294.82,-739.73 139,-715.92 139,-618 139,-618 139,-618 139,-280 139,-179.91 258,-128.5 345.85,-104.18"/>
<polygon fill="none" stroke="#404040" points="345.89,-104.17 350.65,-98.76 357.48,-101.07 352.72,-106.48 345.89,-104.17"/>
<text text-anchor="middle" x="200.5" y="-507" font-family="Helvetica,sans-Serif" font-size="10.00"> +_external_length_units</text>
<text text-anchor="middle" x="200.5" y="-496" font-family="Helvetica,sans-Serif" font-size="10.00">+_feed_rate</text>
<text text-anchor="middle" x="200.5" y="-485" font-family="Helvetica,sans-Serif" font-size="10.00">+_g5x_a</text>
<text text-anchor="middle" x="200.5" y="-474" font-family="Helvetica,sans-Serif" font-size="10.00">+_g5x_b</text>
<text text-anchor="middle" x="200.5" y="-463" font-family="Helvetica,sans-Serif" font-size="10.00">+_g5x_c</text>
<text text-anchor="middle" x="200.5" y="-452" font-family="Helvetica,sans-Serif" font-size="10.00">+_g5x_x</text>
<text text-anchor="middle" x="200.5" y="-441" font-family="Helvetica,sans-Serif" font-size="10.00">+_g5x_y</text>
<text text-anchor="middle" x="200.5" y="-430" font-family="Helvetica,sans-Serif" font-size="10.00">+_g5x_z</text>
<text text-anchor="middle" x="200.5" y="-419" font-family="Helvetica,sans-Serif" font-size="10.00">+_g92_a</text>
<text text-anchor="middle" x="200.5" y="-408" font-family="Helvetica,sans-Serif" font-size="10.00">+_g92_b</text>
<text text-anchor="middle" x="200.5" y="-397" font-family="Helvetica,sans-Serif" font-size="10.00">...</text>
</g>
<!-- Node4&#45;&gt;Node8 -->
<g id="edge13" class="edge">
<title>Node4&#45;&gt;Node8</title>
<path fill="none" stroke="#404040" d="M374.86,-719.33C366.13,-684.04 351.8,-620.96 346,-566 336.84,-479.29 338.43,-376.87 340.28,-321.81"/>
<polygon fill="none" stroke="#404040" points="340.29,-321.51 336.51,-315.37 340.73,-309.51 344.51,-315.66 340.29,-321.51"/>
<text text-anchor="middle" x="376.5" y="-558" font-family="Helvetica,sans-Serif" font-size="10.00"> +backangle</text>
<text text-anchor="middle" x="376.5" y="-547" font-family="Helvetica,sans-Serif" font-size="10.00">+diameter</text>
<text text-anchor="middle" x="376.5" y="-536" font-family="Helvetica,sans-Serif" font-size="10.00">+frontangle</text>
</g>
<!-- Node9 -->
<g id="node9" class="node">
<title>Node9</title>
<g id="a_node9"><a xlink:href="structEmcPose.html" target="_top" xlink:title=" ">
<polygon fill="white" stroke="black" points="397.5,-426 397.5,-483 458.5,-483 458.5,-426 397.5,-426"/>
<text text-anchor="middle" x="428" y="-471" font-family="Helvetica,sans-Serif" font-size="10.00">EmcPose</text>
<polyline fill="none" stroke="black" points="397.5,-464 458.5,-464 "/>
<text text-anchor="middle" x="428" y="-452" font-family="Helvetica,sans-Serif" font-size="10.00"> </text>
<polyline fill="none" stroke="black" points="397.5,-445 458.5,-445 "/>
<text text-anchor="middle" x="428" y="-433" font-family="Helvetica,sans-Serif" font-size="10.00"> </text>
</a>
</g>
</g>
<!-- Node4&#45;&gt;Node9 -->
<g id="edge12" class="edge">
<title>Node4&#45;&gt;Node9</title>
<path fill="none" stroke="#404040" d="M386.37,-719.31C394.58,-667.3 412.32,-554.86 421.77,-494.95"/>
<polygon fill="none" stroke="#404040" points="421.79,-494.85 418.77,-488.3 423.66,-483 426.68,-489.55 421.79,-494.85"/>
<text text-anchor="middle" x="416" y="-642" font-family="Helvetica,sans-Serif" font-size="10.00"> +a</text>
<text text-anchor="middle" x="416" y="-631" font-family="Helvetica,sans-Serif" font-size="10.00">+b</text>
<text text-anchor="middle" x="416" y="-620" font-family="Helvetica,sans-Serif" font-size="10.00">+c</text>
<text text-anchor="middle" x="416" y="-609" font-family="Helvetica,sans-Serif" font-size="10.00">+u</text>
<text text-anchor="middle" x="416" y="-598" font-family="Helvetica,sans-Serif" font-size="10.00">+v</text>
<text text-anchor="middle" x="416" y="-587" font-family="Helvetica,sans-Serif" font-size="10.00">+w</text>
</g>
<!-- Node10 -->
<g id="node10" class="node">
<title>Node10</title>
<g id="a_node10"><a xlink:href="structPmCartesian.html" target="_top" xlink:title=" ">
<polygon fill="white" stroke="black" points="456.5,-588.5 456.5,-645.5 535.5,-645.5 535.5,-588.5 456.5,-588.5"/>
<text text-anchor="middle" x="496" y="-633.5" font-family="Helvetica,sans-Serif" font-size="10.00">PmCartesian</text>
<polyline fill="none" stroke="black" points="456.5,-626.5 535.5,-626.5 "/>
<text text-anchor="middle" x="496" y="-614.5" font-family="Helvetica,sans-Serif" font-size="10.00"> </text>
<polyline fill="none" stroke="black" points="456.5,-607.5 535.5,-607.5 "/>
<text text-anchor="middle" x="496" y="-595.5" font-family="Helvetica,sans-Serif" font-size="10.00"> </text>
</a>
</g>
</g>
<!-- Node4&#45;&gt;Node10 -->
<g id="edge11" class="edge">
<title>Node4&#45;&gt;Node10</title>
<path fill="none" stroke="#404040" d="M407.04,-726.68C415.92,-719.01 425.76,-709.96 434,-701 446.97,-686.92 459.87,-670.19 470.52,-655.46"/>
<polygon fill="none" stroke="#404040" points="470.55,-655.42 470.77,-648.21 477.5,-645.64 477.29,-652.85 470.55,-655.42"/>
<text text-anchor="middle" x="470" y="-693" font-family="Helvetica,sans-Serif" font-size="10.00"> +x</text>
<text text-anchor="middle" x="470" y="-682" font-family="Helvetica,sans-Serif" font-size="10.00">+y</text>
<text text-anchor="middle" x="470" y="-671" font-family="Helvetica,sans-Serif" font-size="10.00">+z</text>
</g>
<!-- Node5 -->
<g id="node5" class="node">
<title>Node5</title>
<g id="a_node5"><a xlink:title=" ">
<polygon fill="white" stroke="black" points="525,-252.5 525,-309.5 613,-309.5 613,-252.5 525,-252.5"/>
<text text-anchor="middle" x="569" y="-297.5" font-family="Helvetica,sans-Serif" font-size="10.00">CANON_UNITS</text>
<polyline fill="none" stroke="black" points="525,-290.5 613,-290.5 "/>
<text text-anchor="middle" x="569" y="-278.5" font-family="Helvetica,sans-Serif" font-size="10.00"> </text>
<polyline fill="none" stroke="black" points="525,-271.5 613,-271.5 "/>
<text text-anchor="middle" x="569" y="-259.5" font-family="Helvetica,sans-Serif" font-size="10.00"> </text>
</a>
</g>
</g>
<!-- Node5&#45;&gt;Node1 -->
<g id="edge4" class="edge">
<title>Node5&#45;&gt;Node1</title>
<path fill="none" stroke="#404040" d="M550.51,-252.47C537.26,-232.75 518.57,-204.94 500.23,-177.64"/>
<polygon fill="none" stroke="#404040" points="500.2,-177.58 493.53,-174.83 493.5,-167.62 500.17,-170.37 500.2,-177.58"/>
<text text-anchor="middle" x="575.5" y="-200" font-family="Helvetica,sans-Serif" font-size="10.00"> +_length_unit_type</text>
</g>
<!-- Node6 -->
<g id="node6" class="node">
<title>Node6</title>
<g id="a_node6"><a xlink:title=" ">
<polygon fill="white" stroke="black" points="631,-252.5 631,-309.5 765,-309.5 765,-252.5 631,-252.5"/>
<text text-anchor="middle" x="698" y="-297.5" font-family="Helvetica,sans-Serif" font-size="10.00">CANON_MOTION_MODE</text>
<polyline fill="none" stroke="black" points="631,-290.5 765,-290.5 "/>
<text text-anchor="middle" x="698" y="-278.5" font-family="Helvetica,sans-Serif" font-size="10.00"> </text>
<polyline fill="none" stroke="black" points="631,-271.5 765,-271.5 "/>
<text text-anchor="middle" x="698" y="-259.5" font-family="Helvetica,sans-Serif" font-size="10.00"> </text>
</a>
</g>
</g>
<!-- Node6&#45;&gt;Node1 -->
<g id="edge5" class="edge">
<title>Node6&#45;&gt;Node1</title>
<path fill="none" stroke="#404040" d="M682.35,-252.28C669.88,-232.03 650.92,-204.91 629,-186 599.79,-160.79 563.21,-139.53 529.9,-123.12"/>
<polygon fill="none" stroke="#404040" points="529.56,-122.95 522.42,-123.95 518.75,-117.74 525.89,-116.74 529.56,-122.95"/>
<text text-anchor="middle" x="701.5" y="-200" font-family="Helvetica,sans-Serif" font-size="10.00"> +_motion_mode</text>
</g>
<!-- Node7 -->
<g id="node7" class="node">
<title>Node7</title>
<g id="a_node7"><a xlink:title=" ">
<polygon fill="white" stroke="black" points="783,-252.5 783,-309.5 895,-309.5 895,-252.5 783,-252.5"/>
<text text-anchor="middle" x="839" y="-297.5" font-family="Helvetica,sans-Serif" font-size="10.00">CANON_DIRECTION</text>
<polyline fill="none" stroke="black" points="783,-290.5 895,-290.5 "/>
<text text-anchor="middle" x="839" y="-278.5" font-family="Helvetica,sans-Serif" font-size="10.00"> </text>
<polyline fill="none" stroke="black" points="783,-271.5 895,-271.5 "/>
<text text-anchor="middle" x="839" y="-259.5" font-family="Helvetica,sans-Serif" font-size="10.00"> </text>
</a>
</g>
</g>
<!-- Node7&#45;&gt;Node1 -->
<g id="edge6" class="edge">
<title>Node7&#45;&gt;Node1</title>
<path fill="none" stroke="#404040" d="M818.27,-252.15C801.42,-231.29 775.93,-203.45 748,-186 681,-144.15 594.91,-117.91 530.47,-102.7"/>
<polygon fill="none" stroke="#404040" points="530.39,-102.69 523.65,-105.24 518.7,-99.99 525.44,-97.44 530.39,-102.69"/>
<text text-anchor="middle" x="832" y="-200" font-family="Helvetica,sans-Serif" font-size="10.00"> +_spindle_turning</text>
</g>
<!-- Node8&#45;&gt;Node1 -->
<g id="edge7" class="edge">
<title>Node8&#45;&gt;Node1</title>
<path fill="none" stroke="#404040" d="M353.39,-252.15C361.29,-233.29 372.28,-207.91 383,-186 384.19,-183.56 385.42,-181.09 386.66,-178.61"/>
<polygon fill="none" stroke="#404040" points="386.8,-178.34 385.95,-171.18 392.24,-167.65 393.08,-174.81 386.8,-178.34"/>
<text text-anchor="middle" x="403.5" y="-200" font-family="Helvetica,sans-Serif" font-size="10.00"> +_tools</text>
</g>
<!-- Node9&#45;&gt;Node1 -->
<g id="edge15" class="edge">
<title>Node9&#45;&gt;Node1</title>
<path fill="none" stroke="#404040" d="M428.75,-425.8C430.15,-374.25 433.21,-261.38 435.43,-179.63"/>
<polygon fill="none" stroke="#404040" points="435.43,-179.55 431.6,-173.44 435.76,-167.55 439.6,-173.66 435.43,-179.55"/>
<text text-anchor="middle" x="467.5" y="-278.5" font-family="Helvetica,sans-Serif" font-size="10.00"> +_tool_offset</text>
</g>
<!-- Node9&#45;&gt;Node8 -->
<g id="edge9" class="edge">
<title>Node9&#45;&gt;Node8</title>
<path fill="none" stroke="#404040" d="M411.46,-425.87C402.91,-411.23 392.52,-392.84 384,-376 375.02,-358.25 365.91,-338.16 358.48,-321.12"/>
<polygon fill="none" stroke="#404040" points="358.38,-320.9 352.33,-316.98 353.62,-309.89 359.68,-313.81 358.38,-320.9"/>
<text text-anchor="middle" x="404" y="-357" font-family="Helvetica,sans-Serif" font-size="10.00"> +offset</text>
</g>
<!-- Node10&#45;&gt;Node9 -->
<g id="edge10" class="edge">
<title>Node10&#45;&gt;Node9</title>
<path fill="none" stroke="#404040" d="M484.31,-588.41C473.36,-562.57 456.89,-523.69 444.59,-494.65"/>
<polygon fill="none" stroke="#404040" points="444.45,-494.32 438.42,-490.35 439.76,-483.27 445.79,-487.23 444.45,-494.32"/>
<text text-anchor="middle" x="489.5" y="-547" font-family="Helvetica,sans-Serif" font-size="10.00"> +tran</text>
</g>
<!-- Node11 -->
<g id="node11" class="node">
<title>Node11</title>
<g id="a_node11"><a xlink:title=" ">
<polygon fill="white" stroke="black" points="924,-252.5 924,-309.5 962,-309.5 962,-252.5 924,-252.5"/>
<text text-anchor="middle" x="943" y="-297.5" font-family="Helvetica,sans-Serif" font-size="10.00">bool</text>
<polyline fill="none" stroke="black" points="924,-290.5 962,-290.5 "/>
<text text-anchor="middle" x="943" y="-278.5" font-family="Helvetica,sans-Serif" font-size="10.00"> </text>
<polyline fill="none" stroke="black" points="924,-271.5 962,-271.5 "/>
<text text-anchor="middle" x="943" y="-259.5" font-family="Helvetica,sans-Serif" font-size="10.00"> </text>
</a>
</g>
</g>
<!-- Node11&#45;&gt;Node1 -->
<g id="edge14" class="edge">
<title>Node11&#45;&gt;Node1</title>
<path fill="none" stroke="#404040" d="M931.99,-252.29C922.08,-230.93 905.45,-202.37 882,-186 776.79,-112.56 626.51,-91.64 530.61,-86.17"/>
<polygon fill="none" stroke="#404040" points="530.59,-86.17 524.39,-89.86 518.61,-85.55 524.8,-81.87 530.59,-86.17"/>
<text text-anchor="middle" x="973.5" y="-211" font-family="Helvetica,sans-Serif" font-size="10.00"> +_toolchanger_fault</text>
<text text-anchor="middle" x="973.5" y="-200" font-family="Helvetica,sans-Serif" font-size="10.00">+block_delete</text>
<text text-anchor="middle" x="973.5" y="-189" font-family="Helvetica,sans-Serif" font-size="10.00">+optional_program_stop</text>
</g>
</g>
</svg>
        <g id="navigator" transform="translate(0 0)" fill="#404254">
                <rect fill="#f2f5e9" fill-opacity="0.5" stroke="#606060" stroke-width=".5" x="0" y="0" width="60" height="60"/>
                <use id="zoomplus" xlink:href="#zoomPlus" x="17" y="9" onmousedown="handleZoom(evt,'in')"/>
                <use id="zoomminus" xlink:href="#zoomMin" x="42" y="9" onmousedown="handleZoom(evt,'out')"/>
                <use id="reset" xlink:href="#resetDef" x="30" y="36" onmousedown="handleReset()"/>
                <g id="arrowUp" xlink:href="#dirArrow" transform="translate(30 24)" onmousedown="handlePan(0,-1)">
                  <use xlink:href="#rim" fill="#404040">
                        <set attributeName="fill" to="#808080" begin="arrowUp.mouseover" end="arrowUp.mouseout"/>
                  </use>
                  <path fill="none" stroke="white" stroke-width="1.5" d="M0,-3.0v7 M-2.5,-0.5L0,-3.0L2.5,-0.5"/>
                </g>
                <g id="arrowRight" xlink:href="#dirArrow" transform="rotate(90) translate(36 -43)" onmousedown="handlePan(1,0)">
                  <use xlink:href="#rim" fill="#404040">
                        <set attributeName="fill" to="#808080" begin="arrowRight.mouseover" end="arrowRight.mouseout"/>
                  </use>
                  <path fill="none" stroke="white" stroke-width="1.5" d="M0,-3.0v7 M-2.5,-0.5L0,-3.0L2.5,-0.5"/>
                </g>
                <g id="arrowDown" xlink:href="#dirArrow" transform="rotate(180) translate(-30 -48)" onmousedown="handlePan(0,1)">
                  <use xlink:href="#rim" fill="#404040">
                        <set attributeName="fill" to="#808080" begin="arrowDown.mouseover" end="arrowDown.mouseout"/>
                  </use>
                  <path fill="none" stroke="white" stroke-width="1.5" d="M0,-3.0v7 M-2.5,-0.5L0,-3.0L2.5,-0.5"/>
                </g>
                <g id="arrowLeft" xlink:href="#dirArrow" transform="rotate(270) translate(-36 17)" onmousedown="handlePan(-1,0)">
                  <use xlink:href="#rim" fill="#404040">
                        <set attributeName="fill" to="#808080" begin="arrowLeft.mouseover" end="arrowLeft.mouseout"/>
                  </use>
                  <path fill="none" stroke="white" stroke-width="1.5" d="M0,-3.0v7 M-2.5,-0.5L0,-3.0L2.5,-0.5"/>
                </g>
        </g>
        <svg viewBox="0 0 15 15" width="100%" height="30px" preserveAspectRatio="xMaxYMin meet">
         <g id="arrow_out" transform="scale(0.3 0.3)">
          <a xlink:href="structStandaloneInterpInternals__coll__graph_org.svg" target="_base">
           <rect id="button" ry="5" rx="5" y="6" x="6" height="38" width="38"
                fill="#f2f5e9" fill-opacity="0.5" stroke="#606060" stroke-width="1.0"/>
           <path id="arrow"
             d="M 11.500037,31.436501 C 11.940474,20.09759 22.043105,11.32322 32.158766,21.979434 L 37.068811,17.246167 C 37.068811,17.246167 37.088388,32 37.088388,32 L 22.160133,31.978069 C 22.160133,31.978069 26.997745,27.140456 26.997745,27.140456 C 18.528582,18.264221 13.291696,25.230495 11.500037,31.436501 z"
             style="fill:#404040;"/>
          </a>
         </g>
        </svg>
</svg>
