<?xml version="1.0" encoding="UTF-8" standalone="no"?>
<!DOCTYPE svg PUBLIC "-//W3C//DTD SVG 1.1//EN"
 "http://www.w3.org/Graphics/SVG/1.1/DTD/svg11.dtd">
<!-- Generated by graphviz version 2.43.0 (0)
 -->
<!-- Title: sPoILTask Pages: 1 -->
<svg width="159pt" height="215pt"
 viewBox="0.00 0.00 158.50 215.00" xmlns="http://www.w3.org/2000/svg" xmlns:xlink="http://www.w3.org/1999/xlink">
<g id="graph0" class="graph" transform="scale(1 1) rotate(0) translate(4 211)">
<title>sPoILTask</title>
<polygon fill="white" stroke="transparent" points="-4,4 -4,-211 154.5,-211 154.5,4 -4,4"/>
<!-- Node1 -->
<g id="node1" class="node">
<title>Node1</title>
<g id="a_node1"><a xlink:title=" ">
<polygon fill="#bfbfbf" stroke="black" points="0,-0.5 0,-57.5 63,-57.5 63,-0.5 0,-0.5"/>
<text text-anchor="middle" x="31.5" y="-45.5" font-family="Helvetica,sans-Serif" font-size="10.00">sPoILTask</text>
<polyline fill="none" stroke="black" points="0,-38.5 63,-38.5 "/>
<text text-anchor="middle" x="31.5" y="-26.5" font-family="Helvetica,sans-Serif" font-size="10.00"> </text>
<polyline fill="none" stroke="black" points="0,-19.5 63,-19.5 "/>
<text text-anchor="middle" x="31.5" y="-7.5" font-family="Helvetica,sans-Serif" font-size="10.00"> </text>
</a>
</g>
</g>
<!-- Node2 -->
<g id="node2" class="node">
<title>Node2</title>
<g id="a_node2"><a xlink:title=" ">
<polygon fill="white" stroke="black" points="1,-149.5 1,-206.5 62,-206.5 62,-149.5 1,-149.5"/>
<text text-anchor="middle" x="31.5" y="-194.5" font-family="Helvetica,sans-Serif" font-size="10.00">unsigned</text>
<polyline fill="none" stroke="black" points="1,-187.5 62,-187.5 "/>
<text text-anchor="middle" x="31.5" y="-175.5" font-family="Helvetica,sans-Serif" font-size="10.00"> </text>
<polyline fill="none" stroke="black" points="1,-168.5 62,-168.5 "/>
<text text-anchor="middle" x="31.5" y="-156.5" font-family="Helvetica,sans-Serif" font-size="10.00"> </text>
</a>
</g>
</g>
<!-- Node2&#45;&gt;Node1 -->
<g id="edge1" class="edge">
<title>Node2&#45;&gt;Node1</title>
<path fill="none" stroke="#404040" d="M31.5,-149.35C31.5,-126.87 31.5,-94.85 31.5,-69.64"/>
<polygon fill="none" stroke="#404040" points="31.5,-69.53 27.5,-63.53 31.5,-57.53 35.5,-63.53 31.5,-69.53"/>
<text text-anchor="middle" x="91" y="-123" font-family="Helvetica,sans-Serif" font-size="10.00"> +taskLoad</text>
<text text-anchor="middle" x="91" y="-112" font-family="Helvetica,sans-Serif" font-size="10.00">+taskPeriod</text>
<text text-anchor="middle" x="91" y="-101" font-family="Helvetica,sans-Serif" font-size="10.00">+taskRealPeriod</text>
<text text-anchor="middle" x="91" y="-90" font-family="Helvetica,sans-Serif" font-size="10.00">+taskRealPeriodFiltered</text>
<text text-anchor="middle" x="91" y="-79" font-family="Helvetica,sans-Serif" font-size="10.00">+taskStatus</text>
</g>
</g>
</svg>
