<?xml version="1.0" encoding="UTF-8" standalone="no"?>
<!DOCTYPE svg PUBLIC "-//W3C//DTD SVG 1.1//EN"
 "http://www.w3.org/Graphics/SVG/1.1/DTD/svg11.dtd">
<!-- Generated by graphviz version 2.43.0 (0)
 -->
<!-- Title: mem_access_object Pages: 1 -->
<svg width="587pt" height="408pt"
 viewBox="0.00 0.00 587.00 408.00" xmlns="http://www.w3.org/2000/svg" xmlns:xlink="http://www.w3.org/1999/xlink">
<g id="graph0" class="graph" transform="scale(1 1) rotate(0) translate(4 404)">
<title>mem_access_object</title>
<polygon fill="white" stroke="transparent" points="-4,4 -4,-404 583,-404 583,4 -4,4"/>
<!-- Node1 -->
<g id="node1" class="node">
<title>Node1</title>
<g id="a_node1"><a xlink:title=" ">
<polygon fill="#bfbfbf" stroke="black" points="290,-0.5 290,-57.5 406,-57.5 406,-0.5 290,-0.5"/>
<text text-anchor="middle" x="348" y="-45.5" font-family="Helvetica,sans-Serif" font-size="10.00">mem_access_object</text>
<polyline fill="none" stroke="black" points="290,-38.5 406,-38.5 "/>
<text text-anchor="middle" x="348" y="-26.5" font-family="Helvetica,sans-Serif" font-size="10.00"> </text>
<polyline fill="none" stroke="black" points="290,-19.5 406,-19.5 "/>
<text text-anchor="middle" x="348" y="-7.5" font-family="Helvetica,sans-Serif" font-size="10.00"> </text>
</a>
</g>
</g>
<!-- Node2 -->
<g id="node2" class="node">
<title>Node2</title>
<g id="a_node2"><a xlink:title=" ">
<polygon fill="white" stroke="black" points="0,-155 0,-212 46,-212 46,-155 0,-155"/>
<text text-anchor="middle" x="23" y="-200" font-family="Helvetica,sans-Serif" font-size="10.00">void *</text>
<polyline fill="none" stroke="black" points="0,-193 46,-193 "/>
<text text-anchor="middle" x="23" y="-181" font-family="Helvetica,sans-Serif" font-size="10.00"> </text>
<polyline fill="none" stroke="black" points="0,-174 46,-174 "/>
<text text-anchor="middle" x="23" y="-162" font-family="Helvetica,sans-Serif" font-size="10.00"> </text>
</a>
</g>
</g>
<!-- Node2&#45;&gt;Node1 -->
<g id="edge1" class="edge">
<title>Node2&#45;&gt;Node1</title>
<path fill="none" stroke="#404040" d="M17.35,-154.62C14.24,-130.56 14.32,-96.53 34,-76 66.58,-42.01 195.61,-32.9 277.79,-30.6"/>
<polygon fill="none" stroke="#404040" points="277.81,-30.6 283.71,-26.45 289.8,-30.3 283.91,-34.45 277.81,-30.6"/>
<text text-anchor="middle" x="51" y="-79" font-family="Helvetica,sans-Serif" font-size="10.00"> +data</text>
</g>
<!-- Node3 -->
<g id="node3" class="node">
<title>Node3</title>
<g id="a_node3"><a xlink:title=" ">
<polygon fill="white" stroke="black" points="80,-342.5 80,-399.5 118,-399.5 118,-342.5 80,-342.5"/>
<text text-anchor="middle" x="99" y="-387.5" font-family="Helvetica,sans-Serif" font-size="10.00">long</text>
<polyline fill="none" stroke="black" points="80,-380.5 118,-380.5 "/>
<text text-anchor="middle" x="99" y="-368.5" font-family="Helvetica,sans-Serif" font-size="10.00"> </text>
<polyline fill="none" stroke="black" points="80,-361.5 118,-361.5 "/>
<text text-anchor="middle" x="99" y="-349.5" font-family="Helvetica,sans-Serif" font-size="10.00"> </text>
</a>
</g>
</g>
<!-- Node3&#45;&gt;Node1 -->
<g id="edge2" class="edge">
<title>Node3&#45;&gt;Node1</title>
<path fill="none" stroke="#404040" d="M87.96,-342.26C69.15,-290.01 37.84,-175.89 91,-105 113.49,-75.01 209.68,-53.03 277.76,-40.88"/>
<polygon fill="none" stroke="#404040" points="277.88,-40.86 283.1,-35.89 289.7,-38.8 284.48,-43.77 277.88,-40.86"/>
<text text-anchor="middle" x="145" y="-186.5" font-family="Helvetica,sans-Serif" font-size="10.00"> +connection_number</text>
<text text-anchor="middle" x="145" y="-175.5" font-family="Helvetica,sans-Serif" font-size="10.00">+total_connections</text>
</g>
<!-- Node7 -->
<g id="node7" class="node">
<title>Node7</title>
<g id="a_node7"><a xlink:href="classRCS__SEMAPHORE.html" target="_top" xlink:title=" ">
<polygon fill="white" stroke="black" points="208,-105.5 208,-261.5 338,-261.5 338,-105.5 208,-105.5"/>
<text text-anchor="middle" x="273" y="-249.5" font-family="Helvetica,sans-Serif" font-size="10.00">RCS_SEMAPHORE</text>
<polyline fill="none" stroke="black" points="208,-242.5 338,-242.5 "/>
<text text-anchor="middle" x="273" y="-230.5" font-family="Helvetica,sans-Serif" font-size="10.00"> </text>
<polyline fill="none" stroke="black" points="208,-223.5 338,-223.5 "/>
<text text-anchor="start" x="216" y="-211.5" font-family="Helvetica,sans-Serif" font-size="10.00">+ RCS_SEMAPHORE()</text>
<text text-anchor="start" x="216" y="-200.5" font-family="Helvetica,sans-Serif" font-size="10.00">+ ~RCS_SEMAPHORE()</text>
<text text-anchor="start" x="216" y="-189.5" font-family="Helvetica,sans-Serif" font-size="10.00">+ wait()</text>
<text text-anchor="start" x="216" y="-178.5" font-family="Helvetica,sans-Serif" font-size="10.00">+ trywait()</text>
<text text-anchor="start" x="216" y="-167.5" font-family="Helvetica,sans-Serif" font-size="10.00">+ post()</text>
<text text-anchor="start" x="216" y="-156.5" font-family="Helvetica,sans-Serif" font-size="10.00">+ flush()</text>
<text text-anchor="start" x="216" y="-145.5" font-family="Helvetica,sans-Serif" font-size="10.00">+ setflag()</text>
<text text-anchor="start" x="216" y="-134.5" font-family="Helvetica,sans-Serif" font-size="10.00">+ valid()</text>
<text text-anchor="start" x="216" y="-123.5" font-family="Helvetica,sans-Serif" font-size="10.00">+ clear()</text>
<text text-anchor="start" x="216" y="-112.5" font-family="Helvetica,sans-Serif" font-size="10.00">&#45; RCS_SEMAPHORE()</text>
</a>
</g>
</g>
<!-- Node3&#45;&gt;Node7 -->
<g id="edge7" class="edge">
<title>Node3&#45;&gt;Node7</title>
<path fill="none" stroke="#404040" d="M116.22,-342.49C128.85,-323.6 147.19,-298.67 167,-280 177.49,-270.11 182.8,-271.09 194,-262 195.59,-260.71 197.18,-259.39 198.78,-258.05"/>
<polygon fill="none" stroke="#404040" points="198.83,-258.01 200.76,-251.06 207.91,-250.17 205.98,-257.12 198.83,-258.01"/>
<text text-anchor="middle" x="177.5" y="-299.5" font-family="Helvetica,sans-Serif" font-size="10.00"> +id</text>
</g>
<!-- Node4 -->
<g id="node4" class="node">
<title>Node4</title>
<g id="a_node4"><a xlink:title=" ">
<polygon fill="white" stroke="black" points="297,-342.5 297,-399.5 347,-399.5 347,-342.5 297,-342.5"/>
<text text-anchor="middle" x="322" y="-387.5" font-family="Helvetica,sans-Serif" font-size="10.00">double</text>
<polyline fill="none" stroke="black" points="297,-380.5 347,-380.5 "/>
<text text-anchor="middle" x="322" y="-368.5" font-family="Helvetica,sans-Serif" font-size="10.00"> </text>
<polyline fill="none" stroke="black" points="297,-361.5 347,-361.5 "/>
<text text-anchor="middle" x="322" y="-349.5" font-family="Helvetica,sans-Serif" font-size="10.00"> </text>
</a>
</g>
</g>
<!-- Node4&#45;&gt;Node1 -->
<g id="edge3" class="edge">
<title>Node4&#45;&gt;Node1</title>
<path fill="none" stroke="#404040" d="M347.21,-345.73C352.43,-339.21 357.2,-331.8 360,-324 391.08,-237.57 372.58,-127.51 358.82,-69.66"/>
<polygon fill="none" stroke="#404040" points="358.76,-69.45 353.44,-64.58 355.88,-57.8 361.21,-62.66 358.76,-69.45"/>
<text text-anchor="middle" x="408.5" y="-186.5" font-family="Helvetica,sans-Serif" font-size="10.00"> +sem_delay</text>
<text text-anchor="middle" x="408.5" y="-175.5" font-family="Helvetica,sans-Serif" font-size="10.00">+timeout</text>
</g>
<!-- Node4&#45;&gt;Node7 -->
<g id="edge8" class="edge">
<title>Node4&#45;&gt;Node7</title>
<path fill="none" stroke="#404040" d="M296.93,-362.02C279.51,-355.01 257.59,-342.93 247,-324 238.44,-308.72 236.65,-291.16 238.51,-273.78"/>
<polygon fill="none" stroke="#404040" points="238.53,-273.66 235.49,-267.13 240.35,-261.8 243.39,-268.34 238.53,-273.66"/>
<text text-anchor="middle" x="272" y="-299.5" font-family="Helvetica,sans-Serif" font-size="10.00"> +timeout</text>
</g>
<!-- Node5 -->
<g id="node5" class="node">
<title>Node5</title>
<g id="a_node5"><a xlink:title=" ">
<polygon fill="white" stroke="black" points="440.5,-342.5 440.5,-399.5 469.5,-399.5 469.5,-342.5 440.5,-342.5"/>
<text text-anchor="middle" x="455" y="-387.5" font-family="Helvetica,sans-Serif" font-size="10.00">int</text>
<polyline fill="none" stroke="black" points="440.5,-380.5 469.5,-380.5 "/>
<text text-anchor="middle" x="455" y="-368.5" font-family="Helvetica,sans-Serif" font-size="10.00"> </text>
<polyline fill="none" stroke="black" points="440.5,-361.5 469.5,-361.5 "/>
<text text-anchor="middle" x="455" y="-349.5" font-family="Helvetica,sans-Serif" font-size="10.00"> </text>
</a>
</g>
</g>
<!-- Node5&#45;&gt;Node1 -->
<g id="edge4" class="edge">
<title>Node5&#45;&gt;Node1</title>
<path fill="none" stroke="#404040" d="M469.65,-345.73C481.56,-324.5 497.43,-292.39 504,-262 518.75,-193.8 519.56,-173.02 504,-105 500.81,-91.05 500.79,-85.41 490,-76 469.85,-58.43 442.88,-47.55 417.86,-40.82"/>
<polygon fill="none" stroke="#404040" points="417.8,-40.81 411.02,-43.25 406.16,-37.93 412.94,-35.49 417.8,-40.81"/>
<text text-anchor="middle" x="547" y="-186.5" font-family="Helvetica,sans-Serif" font-size="10.00"> +read_only</text>
<text text-anchor="middle" x="547" y="-175.5" font-family="Helvetica,sans-Serif" font-size="10.00">+split_buffer</text>
</g>
<!-- Node5&#45;&gt;Node7 -->
<g id="edge9" class="edge">
<title>Node5&#45;&gt;Node7</title>
<path fill="none" stroke="#404040" d="M440.41,-355.13C420.12,-334.45 381.93,-295.52 347.14,-260.07"/>
<polygon fill="none" stroke="#404040" points="346.79,-259.7 339.73,-258.22 338.38,-251.14 345.44,-252.62 346.79,-259.7"/>
<text text-anchor="middle" x="426" y="-316" font-family="Helvetica,sans-Serif" font-size="10.00"> +mode</text>
<text text-anchor="middle" x="426" y="-305" font-family="Helvetica,sans-Serif" font-size="10.00">+oflag</text>
<text text-anchor="middle" x="426" y="-294" font-family="Helvetica,sans-Serif" font-size="10.00">+state</text>
<text text-anchor="middle" x="426" y="-283" font-family="Helvetica,sans-Serif" font-size="10.00">+sval</text>
</g>
<!-- Node6 -->
<g id="node6" class="node">
<title>Node6</title>
<g id="a_node6"><a xlink:title=" ">
<polygon fill="white" stroke="black" points="457,-155 457,-212 495,-212 495,-155 457,-155"/>
<text text-anchor="middle" x="476" y="-200" font-family="Helvetica,sans-Serif" font-size="10.00">char</text>
<polyline fill="none" stroke="black" points="457,-193 495,-193 "/>
<text text-anchor="middle" x="476" y="-181" font-family="Helvetica,sans-Serif" font-size="10.00"> </text>
<polyline fill="none" stroke="black" points="457,-174 495,-174 "/>
<text text-anchor="middle" x="476" y="-162" font-family="Helvetica,sans-Serif" font-size="10.00"> </text>
</a>
</g>
</g>
<!-- Node6&#45;&gt;Node1 -->
<g id="edge5" class="edge">
<title>Node6&#45;&gt;Node1</title>
<path fill="none" stroke="#404040" d="M468.02,-154.9C462.62,-139.25 454.37,-119.87 443,-105 431.7,-90.21 416.85,-76.68 402.26,-65.31"/>
<polygon fill="none" stroke="#404040" points="401.84,-64.99 394.64,-64.59 392.24,-57.79 399.44,-58.19 401.84,-64.99"/>
<text text-anchor="middle" x="455.5" y="-79" font-family="Helvetica,sans-Serif" font-size="10.00"> +toggle_bit</text>
</g>
<!-- Node7&#45;&gt;Node1 -->
<g id="edge6" class="edge">
<title>Node7&#45;&gt;Node1</title>
<path fill="none" stroke="#404040" d="M310.94,-105.36C317.26,-92.5 323.57,-79.68 329.14,-68.36"/>
<polygon fill="none" stroke="#404040" points="329.14,-68.35 328.2,-61.2 334.43,-57.58 335.38,-64.73 329.14,-68.35"/>
<text text-anchor="middle" x="339.5" y="-79" font-family="Helvetica,sans-Serif" font-size="10.00"> +sem</text>
</g>
<!-- Node8 -->
<g id="node8" class="node">
<title>Node8</title>
<g id="a_node8"><a xlink:title=" ">
<polygon fill="white" stroke="black" points="153,-342.5 153,-399.5 227,-399.5 227,-342.5 153,-342.5"/>
<text text-anchor="middle" x="190" y="-387.5" font-family="Helvetica,sans-Serif" font-size="10.00">rcs_sem_t *</text>
<polyline fill="none" stroke="black" points="153,-380.5 227,-380.5 "/>
<text text-anchor="middle" x="190" y="-368.5" font-family="Helvetica,sans-Serif" font-size="10.00"> </text>
<polyline fill="none" stroke="black" points="153,-361.5 227,-361.5 "/>
<text text-anchor="middle" x="190" y="-349.5" font-family="Helvetica,sans-Serif" font-size="10.00"> </text>
</a>
</g>
</g>
<!-- Node8&#45;&gt;Node7 -->
<g id="edge10" class="edge">
<title>Node8&#45;&gt;Node7</title>
<path fill="none" stroke="#404040" d="M189.7,-342.3C190.38,-324.01 192.98,-299.85 201,-280 202.01,-277.5 203.1,-275 204.27,-272.52"/>
<polygon fill="none" stroke="#404040" points="204.32,-272.42 203.51,-265.25 209.81,-261.75 210.62,-268.91 204.32,-272.42"/>
<text text-anchor="middle" x="217.5" y="-299.5" font-family="Helvetica,sans-Serif" font-size="10.00"> +sem</text>
</g>
</g>
</svg>
