<?xml version="1.0" encoding="UTF-8" standalone="no"?>
<!DOCTYPE svg PUBLIC "-//W3C//DTD SVG 1.1//EN"
 "http://www.w3.org/Graphics/SVG/1.1/DTD/svg11.dtd">
<!-- Generated by graphviz version 2.43.0 (0)
 -->
<!-- Title: sPoILmemoryChunk Pages: 1 -->
<svg width="191pt" height="204pt"
 viewBox="0.00 0.00 190.50 204.00" xmlns="http://www.w3.org/2000/svg" xmlns:xlink="http://www.w3.org/1999/xlink">
<g id="graph0" class="graph" transform="scale(1 1) rotate(0) translate(4 200)">
<title>sPoILmemoryChunk</title>
<polygon fill="white" stroke="transparent" points="-4,4 -4,-200 186.5,-200 186.5,4 -4,4"/>
<!-- Node1 -->
<g id="node1" class="node">
<title>Node1</title>
<g id="a_node1"><a xlink:title=" ">
<polygon fill="#bfbfbf" stroke="black" points="23.5,-0.5 23.5,-57.5 137.5,-57.5 137.5,-0.5 23.5,-0.5"/>
<text text-anchor="middle" x="80.5" y="-45.5" font-family="Helvetica,sans-Serif" font-size="10.00">sPoILmemoryChunk</text>
<polyline fill="none" stroke="black" points="23.5,-38.5 137.5,-38.5 "/>
<text text-anchor="middle" x="80.5" y="-26.5" font-family="Helvetica,sans-Serif" font-size="10.00"> </text>
<polyline fill="none" stroke="black" points="23.5,-19.5 137.5,-19.5 "/>
<text text-anchor="middle" x="80.5" y="-7.5" font-family="Helvetica,sans-Serif" font-size="10.00"> </text>
</a>
</g>
</g>
<!-- Node2 -->
<g id="node2" class="node">
<title>Node2</title>
<g id="a_node2"><a xlink:title=" ">
<polygon fill="white" stroke="black" points="0,-138.5 0,-195.5 61,-195.5 61,-138.5 0,-138.5"/>
<text text-anchor="middle" x="30.5" y="-183.5" font-family="Helvetica,sans-Serif" font-size="10.00">unsigned</text>
<polyline fill="none" stroke="black" points="0,-176.5 61,-176.5 "/>
<text text-anchor="middle" x="30.5" y="-164.5" font-family="Helvetica,sans-Serif" font-size="10.00"> </text>
<polyline fill="none" stroke="black" points="0,-157.5 61,-157.5 "/>
<text text-anchor="middle" x="30.5" y="-145.5" font-family="Helvetica,sans-Serif" font-size="10.00"> </text>
</a>
</g>
</g>
<!-- Node2&#45;&gt;Node1 -->
<g id="edge1" class="edge">
<title>Node2&#45;&gt;Node1</title>
<path fill="none" stroke="#404040" d="M28.02,-138.48C27.45,-120.04 28.85,-95.65 37.5,-76 38.75,-73.15 40.26,-70.37 41.94,-67.68"/>
<polygon fill="none" stroke="#404040" points="42.12,-67.44 42.42,-60.24 49.19,-57.75 48.88,-64.95 42.12,-67.44"/>
<text text-anchor="middle" x="73" y="-112" font-family="Helvetica,sans-Serif" font-size="10.00"> +address</text>
<text text-anchor="middle" x="73" y="-101" font-family="Helvetica,sans-Serif" font-size="10.00">+chunkLength</text>
<text text-anchor="middle" x="73" y="-90" font-family="Helvetica,sans-Serif" font-size="10.00">+reserved</text>
<text text-anchor="middle" x="73" y="-79" font-family="Helvetica,sans-Serif" font-size="10.00">+reserved2</text>
</g>
<!-- Node3 -->
<g id="node3" class="node">
<title>Node3</title>
<g id="a_node3"><a xlink:title=" ">
<polygon fill="white" stroke="black" points="79.5,-138.5 79.5,-195.5 181.5,-195.5 181.5,-138.5 79.5,-138.5"/>
<text text-anchor="middle" x="130.5" y="-183.5" font-family="Helvetica,sans-Serif" font-size="10.00">volatile rtapi_u32</text>
<polyline fill="none" stroke="black" points="79.5,-176.5 181.5,-176.5 "/>
<text text-anchor="middle" x="130.5" y="-164.5" font-family="Helvetica,sans-Serif" font-size="10.00"> </text>
<polyline fill="none" stroke="black" points="79.5,-157.5 181.5,-157.5 "/>
<text text-anchor="middle" x="130.5" y="-145.5" font-family="Helvetica,sans-Serif" font-size="10.00"> </text>
</a>
</g>
</g>
<!-- Node3&#45;&gt;Node1 -->
<g id="edge2" class="edge">
<title>Node3&#45;&gt;Node1</title>
<path fill="none" stroke="#404040" d="M125.98,-138.13C122.48,-119.99 116.82,-96.06 108.5,-76 107.48,-73.54 106.34,-71.07 105.13,-68.6"/>
<polygon fill="none" stroke="#404040" points="105.1,-68.55 98.72,-65.17 99.39,-57.99 105.76,-61.37 105.1,-68.55"/>
<text text-anchor="middle" x="152" y="-95.5" font-family="Helvetica,sans-Serif" font-size="10.00"> +reserved2</text>
</g>
</g>
</svg>
