<?xml version="1.0" encoding="UTF-8" standalone="no"?>
<!DOCTYPE svg PUBLIC "-//W3C//DTD SVG 1.1//EN"
 "http://www.w3.org/Graphics/SVG/1.1/DTD/svg11.dtd">
<!-- Generated by graphviz version 2.43.0 (0)
 -->
<!-- Title: REMOTE_CLEAR_REQUEST Pages: 1 -->
<svg width="172pt" height="276pt"
 viewBox="0.00 0.00 172.00 276.00" xmlns="http://www.w3.org/2000/svg" xmlns:xlink="http://www.w3.org/1999/xlink">
<g id="graph0" class="graph" transform="scale(1 1) rotate(0) translate(4 272)">
<title>REMOTE_CLEAR_REQUEST</title>
<polygon fill="white" stroke="transparent" points="-4,4 -4,-272 168,-272 168,4 -4,4"/>
<!-- Node1 -->
<g id="node1" class="node">
<title>Node1</title>
<g id="a_node1"><a xlink:title=" ">
<polygon fill="#bfbfbf" stroke="black" points="0,-0.5 0,-57.5 164,-57.5 164,-0.5 0,-0.5"/>
<text text-anchor="middle" x="82" y="-45.5" font-family="Helvetica,sans-Serif" font-size="10.00">REMOTE_CLEAR_REQUEST</text>
<polyline fill="none" stroke="black" points="0,-38.5 164,-38.5 "/>
<text text-anchor="middle" x="82" y="-26.5" font-family="Helvetica,sans-Serif" font-size="10.00"> </text>
<polyline fill="none" stroke="black" points="0,-19.5 164,-19.5 "/>
<text text-anchor="start" x="8" y="-7.5" font-family="Helvetica,sans-Serif" font-size="10.00">+ REMOTE_CLEAR_REQUEST()</text>
</a>
</g>
</g>
<!-- Node2 -->
<g id="node2" class="node">
<title>Node2</title>
<g id="a_node2"><a xlink:href="structREMOTE__CMS__REQUEST.html" target="_top" xlink:title=" ">
<polygon fill="white" stroke="black" points="4.5,-94.5 4.5,-173.5 159.5,-173.5 159.5,-94.5 4.5,-94.5"/>
<text text-anchor="middle" x="82" y="-161.5" font-family="Helvetica,sans-Serif" font-size="10.00">REMOTE_CMS_REQUEST</text>
<polyline fill="none" stroke="black" points="4.5,-154.5 159.5,-154.5 "/>
<text text-anchor="start" x="12.5" y="-142.5" font-family="Helvetica,sans-Serif" font-size="10.00">+ buffer_number</text>
<text text-anchor="start" x="12.5" y="-131.5" font-family="Helvetica,sans-Serif" font-size="10.00">+ type</text>
<text text-anchor="start" x="12.5" y="-120.5" font-family="Helvetica,sans-Serif" font-size="10.00">+ subdiv</text>
<polyline fill="none" stroke="black" points="4.5,-113.5 159.5,-113.5 "/>
<text text-anchor="start" x="12.5" y="-101.5" font-family="Helvetica,sans-Serif" font-size="10.00">+ REMOTE_CMS_REQUEST()</text>
</a>
</g>
</g>
<!-- Node2&#45;&gt;Node1 -->
<g id="edge1" class="edge">
<title>Node2&#45;&gt;Node1</title>
<path fill="none" stroke="midnightblue" d="M82,-84.16C82,-75.04 82,-65.81 82,-57.61"/>
<polygon fill="none" stroke="midnightblue" points="78.5,-84.35 82,-94.35 85.5,-84.35 78.5,-84.35"/>
</g>
<!-- Node3 -->
<g id="node3" class="node">
<title>Node3</title>
<g id="a_node3"><a xlink:href="structREMOTE__CMS__MESSAGE.html" target="_top" xlink:title=" ">
<polygon fill="white" stroke="black" points="13,-210.5 13,-267.5 151,-267.5 151,-210.5 13,-210.5"/>
<text text-anchor="middle" x="82" y="-255.5" font-family="Helvetica,sans-Serif" font-size="10.00">REMOTE_CMS_MESSAGE</text>
<polyline fill="none" stroke="black" points="13,-248.5 151,-248.5 "/>
<text text-anchor="middle" x="82" y="-236.5" font-family="Helvetica,sans-Serif" font-size="10.00"> </text>
<polyline fill="none" stroke="black" points="13,-229.5 151,-229.5 "/>
<text text-anchor="middle" x="82" y="-217.5" font-family="Helvetica,sans-Serif" font-size="10.00"> </text>
</a>
</g>
</g>
<!-- Node3&#45;&gt;Node2 -->
<g id="edge2" class="edge">
<title>Node3&#45;&gt;Node2</title>
<path fill="none" stroke="midnightblue" d="M82,-200.16C82,-191.47 82,-182.23 82,-173.52"/>
<polygon fill="none" stroke="midnightblue" points="78.5,-200.4 82,-210.4 85.5,-200.4 78.5,-200.4"/>
</g>
</g>
</svg>
