<?xml version="1.0" encoding="UTF-8" standalone="no"?>
<!DOCTYPE svg PUBLIC "-//W3C//DTD SVG 1.1//EN"
 "http://www.w3.org/Graphics/SVG/1.1/DTD/svg11.dtd">
<!-- Generated by graphviz version 2.43.0 (0)
 -->
<!-- Title: async_command_t Pages: 1 -->
<svg width="461pt" height="182pt"
 viewBox="0.00 0.00 460.50 182.00" xmlns="http://www.w3.org/2000/svg" xmlns:xlink="http://www.w3.org/1999/xlink">
<g id="graph0" class="graph" transform="scale(1 1) rotate(0) translate(4 178)">
<title>async_command_t</title>
<polygon fill="white" stroke="transparent" points="-4,4 -4,-178 456.5,-178 456.5,4 -4,4"/>
<!-- Node1 -->
<g id="node1" class="node">
<title>Node1</title>
<g id="a_node1"><a xlink:title=" ">
<polygon fill="#bfbfbf" stroke="black" points="177.5,-0.5 177.5,-57.5 285.5,-57.5 285.5,-0.5 177.5,-0.5"/>
<text text-anchor="middle" x="231.5" y="-45.5" font-family="Helvetica,sans-Serif" font-size="10.00">async_command_t</text>
<polyline fill="none" stroke="black" points="177.5,-38.5 285.5,-38.5 "/>
<text text-anchor="middle" x="231.5" y="-26.5" font-family="Helvetica,sans-Serif" font-size="10.00"> </text>
<polyline fill="none" stroke="black" points="177.5,-19.5 285.5,-19.5 "/>
<text text-anchor="middle" x="231.5" y="-7.5" font-family="Helvetica,sans-Serif" font-size="10.00"> </text>
</a>
</g>
</g>
<!-- Node2 -->
<g id="node2" class="node">
<title>Node2</title>
<g id="a_node2"><a xlink:title=" ">
<polygon fill="white" stroke="black" points="0,-116.5 0,-173.5 107,-173.5 107,-116.5 0,-116.5"/>
<text text-anchor="middle" x="53.5" y="-161.5" font-family="Helvetica,sans-Serif" font-size="10.00">async_cmd_type_t</text>
<polyline fill="none" stroke="black" points="0,-154.5 107,-154.5 "/>
<text text-anchor="middle" x="53.5" y="-142.5" font-family="Helvetica,sans-Serif" font-size="10.00"> </text>
<polyline fill="none" stroke="black" points="0,-135.5 107,-135.5 "/>
<text text-anchor="middle" x="53.5" y="-123.5" font-family="Helvetica,sans-Serif" font-size="10.00"> </text>
</a>
</g>
</g>
<!-- Node2&#45;&gt;Node1 -->
<g id="edge1" class="edge">
<title>Node2&#45;&gt;Node1</title>
<path fill="none" stroke="#404040" d="M73.77,-116.38C84.87,-102.78 99.6,-86.99 115.5,-76 130.63,-65.55 148.49,-56.97 165.6,-50.17"/>
<polygon fill="none" stroke="#404040" points="166.06,-49.99 170.25,-44.13 177.28,-45.74 173.08,-51.61 166.06,-49.99"/>
<text text-anchor="middle" x="132.5" y="-84.5" font-family="Helvetica,sans-Serif" font-size="10.00"> +type</text>
</g>
<!-- Node3 -->
<g id="node3" class="node">
<title>Node3</title>
<g id="a_node3"><a xlink:title=" ">
<polygon fill="white" stroke="black" points="125.5,-116.5 125.5,-173.5 163.5,-173.5 163.5,-116.5 125.5,-116.5"/>
<text text-anchor="middle" x="144.5" y="-161.5" font-family="Helvetica,sans-Serif" font-size="10.00">char</text>
<polyline fill="none" stroke="black" points="125.5,-154.5 163.5,-154.5 "/>
<text text-anchor="middle" x="144.5" y="-142.5" font-family="Helvetica,sans-Serif" font-size="10.00"> </text>
<polyline fill="none" stroke="black" points="125.5,-135.5 163.5,-135.5 "/>
<text text-anchor="middle" x="144.5" y="-123.5" font-family="Helvetica,sans-Serif" font-size="10.00"> </text>
</a>
</g>
</g>
<!-- Node3&#45;&gt;Node1 -->
<g id="edge2" class="edge">
<title>Node3&#45;&gt;Node1</title>
<path fill="none" stroke="#404040" d="M147.74,-116.25C150.35,-103.1 155.05,-87.74 163.5,-76 166.11,-72.38 169.1,-68.95 172.34,-65.73"/>
<polygon fill="none" stroke="#404040" points="172.43,-65.64 174.26,-58.67 181.4,-57.67 179.57,-64.65 172.43,-65.64"/>
<text text-anchor="middle" x="195.5" y="-84.5" font-family="Helvetica,sans-Serif" font-size="10.00"> +axis_mask</text>
</g>
<!-- Node4 -->
<g id="node4" class="node">
<title>Node4</title>
<g id="a_node4"><a xlink:title=" ">
<polygon fill="white" stroke="black" points="212.5,-116.5 212.5,-173.5 250.5,-173.5 250.5,-116.5 212.5,-116.5"/>
<text text-anchor="middle" x="231.5" y="-161.5" font-family="Helvetica,sans-Serif" font-size="10.00">float</text>
<polyline fill="none" stroke="black" points="212.5,-154.5 250.5,-154.5 "/>
<text text-anchor="middle" x="231.5" y="-142.5" font-family="Helvetica,sans-Serif" font-size="10.00"> </text>
<polyline fill="none" stroke="black" points="212.5,-135.5 250.5,-135.5 "/>
<text text-anchor="middle" x="231.5" y="-123.5" font-family="Helvetica,sans-Serif" font-size="10.00"> </text>
</a>
</g>
</g>
<!-- Node4&#45;&gt;Node1 -->
<g id="edge3" class="edge">
<title>Node4&#45;&gt;Node1</title>
<path fill="none" stroke="#404040" d="M231.5,-116.4C231.5,-102.5 231.5,-85.39 231.5,-70.07"/>
<polygon fill="none" stroke="#404040" points="231.5,-69.74 227.5,-63.74 231.5,-57.74 235.5,-63.74 231.5,-69.74"/>
<text text-anchor="middle" x="265" y="-90" font-family="Helvetica,sans-Serif" font-size="10.00"> +pos_values</text>
<text text-anchor="middle" x="265" y="-79" font-family="Helvetica,sans-Serif" font-size="10.00">+vel_values</text>
</g>
<!-- Node5 -->
<g id="node5" class="node">
<title>Node5</title>
<g id="a_node5"><a xlink:title=" ">
<polygon fill="white" stroke="black" points="307,-116.5 307,-173.5 336,-173.5 336,-116.5 307,-116.5"/>
<text text-anchor="middle" x="321.5" y="-161.5" font-family="Helvetica,sans-Serif" font-size="10.00">int</text>
<polyline fill="none" stroke="black" points="307,-154.5 336,-154.5 "/>
<text text-anchor="middle" x="321.5" y="-142.5" font-family="Helvetica,sans-Serif" font-size="10.00"> </text>
<polyline fill="none" stroke="black" points="307,-135.5 336,-135.5 "/>
<text text-anchor="middle" x="321.5" y="-123.5" font-family="Helvetica,sans-Serif" font-size="10.00"> </text>
</a>
</g>
</g>
<!-- Node5&#45;&gt;Node1 -->
<g id="edge4" class="edge">
<title>Node5&#45;&gt;Node1</title>
<path fill="none" stroke="#404040" d="M316.88,-116.23C313.66,-103.07 308.3,-87.7 299.5,-76 296.77,-72.37 293.67,-68.93 290.32,-65.69"/>
<polygon fill="none" stroke="#404040" points="290.06,-65.46 282.91,-64.54 281.01,-57.58 288.16,-58.5 290.06,-65.46"/>
<text text-anchor="middle" x="341.5" y="-84.5" font-family="Helvetica,sans-Serif" font-size="10.00"> +misc_data</text>
</g>
<!-- Node6 -->
<g id="node6" class="node">
<title>Node6</title>
<g id="a_node6"><a xlink:title=" ">
<polygon fill="white" stroke="black" points="387.5,-116.5 387.5,-173.5 425.5,-173.5 425.5,-116.5 387.5,-116.5"/>
<text text-anchor="middle" x="406.5" y="-161.5" font-family="Helvetica,sans-Serif" font-size="10.00">bool</text>
<polyline fill="none" stroke="black" points="387.5,-154.5 425.5,-154.5 "/>
<text text-anchor="middle" x="406.5" y="-142.5" font-family="Helvetica,sans-Serif" font-size="10.00"> </text>
<polyline fill="none" stroke="black" points="387.5,-135.5 425.5,-135.5 "/>
<text text-anchor="middle" x="406.5" y="-123.5" font-family="Helvetica,sans-Serif" font-size="10.00"> </text>
</a>
</g>
</g>
<!-- Node6&#45;&gt;Node1 -->
<g id="edge5" class="edge">
<title>Node6&#45;&gt;Node1</title>
<path fill="none" stroke="#404040" d="M400.08,-116.25C395.58,-102.45 388.22,-86.51 376.5,-76 354.75,-56.49 324.72,-45.25 297.63,-38.78"/>
<polygon fill="none" stroke="#404040" points="297.56,-38.76 290.84,-41.39 285.83,-36.21 292.55,-33.58 297.56,-38.76"/>
<text text-anchor="middle" x="422" y="-84.5" font-family="Helvetica,sans-Serif" font-size="10.00"> +processed</text>
</g>
</g>
</svg>
