<?xml version="1.0" encoding="UTF-8" standalone="no"?>
<!DOCTYPE svg PUBLIC "-//W3C//DTD SVG 1.1//EN"
 "http://www.w3.org/Graphics/SVG/1.1/DTD/svg11.dtd">
<!-- Generated by graphviz version 2.43.0 (0)
 -->
<!-- Title: one_PoExtBus_data_t Pages: 1 -->
<svg width="261pt" height="226pt"
 viewBox="0.00 0.00 261.00 226.00" xmlns="http://www.w3.org/2000/svg" xmlns:xlink="http://www.w3.org/1999/xlink">
<g id="graph0" class="graph" transform="scale(1 1) rotate(0) translate(4 222)">
<title>one_PoExtBus_data_t</title>
<polygon fill="white" stroke="transparent" points="-4,4 -4,-222 257,-222 257,4 -4,4"/>
<!-- Node1 -->
<g id="node1" class="node">
<title>Node1</title>
<g id="a_node1"><a xlink:title="Structure holding HAL pin references and configuration for one PoExtBus bank.">
<polygon fill="#bfbfbf" stroke="black" points="25,-0.5 25,-57.5 147,-57.5 147,-0.5 25,-0.5"/>
<text text-anchor="middle" x="86" y="-45.5" font-family="Helvetica,sans-Serif" font-size="10.00">one_PoExtBus_data_t</text>
<polyline fill="none" stroke="black" points="25,-38.5 147,-38.5 "/>
<text text-anchor="middle" x="86" y="-26.5" font-family="Helvetica,sans-Serif" font-size="10.00"> </text>
<polyline fill="none" stroke="black" points="25,-19.5 147,-19.5 "/>
<text text-anchor="middle" x="86" y="-7.5" font-family="Helvetica,sans-Serif" font-size="10.00"> </text>
</a>
</g>
</g>
<!-- Node2 -->
<g id="node2" class="node">
<title>Node2</title>
<g id="a_node2"><a xlink:title=" ">
<polygon fill="white" stroke="black" points="0,-160.5 0,-217.5 38,-217.5 38,-160.5 0,-160.5"/>
<text text-anchor="middle" x="19" y="-205.5" font-family="Helvetica,sans-Serif" font-size="10.00">bool</text>
<polyline fill="none" stroke="black" points="0,-198.5 38,-198.5 "/>
<text text-anchor="middle" x="19" y="-186.5" font-family="Helvetica,sans-Serif" font-size="10.00"> </text>
<polyline fill="none" stroke="black" points="0,-179.5 38,-179.5 "/>
<text text-anchor="middle" x="19" y="-167.5" font-family="Helvetica,sans-Serif" font-size="10.00"> </text>
</a>
</g>
</g>
<!-- Node2&#45;&gt;Node1 -->
<g id="edge1" class="edge">
<title>Node2&#45;&gt;Node1</title>
<path fill="none" stroke="#404040" d="M12.45,-160.04C8.41,-136.27 6.3,-101.97 20,-76 21.77,-72.65 23.9,-69.49 26.31,-66.53"/>
<polygon fill="none" stroke="#404040" points="26.47,-66.35 27.74,-59.25 34.78,-57.69 33.51,-64.79 26.47,-66.35"/>
<text text-anchor="middle" x="76" y="-134" font-family="Helvetica,sans-Serif" font-size="10.00"> +PoExtBus_digin_in</text>
<text text-anchor="start" x="20" y="-123" font-family="Helvetica,sans-Serif" font-size="10.00">+PoExtBus_digin_in</text>
<text text-anchor="middle" x="76" y="-112" font-family="Helvetica,sans-Serif" font-size="10.00">_not</text>
<text text-anchor="start" x="20" y="-101" font-family="Helvetica,sans-Serif" font-size="10.00">+PoExtBus_digout</text>
<text text-anchor="middle" x="76" y="-90" font-family="Helvetica,sans-Serif" font-size="10.00">_invert</text>
<text text-anchor="middle" x="76" y="-79" font-family="Helvetica,sans-Serif" font-size="10.00">+PoExtBus_digout_out</text>
</g>
<!-- Node3 -->
<g id="node3" class="node">
<title>Node3</title>
<g id="a_node3"><a xlink:title=" ">
<polygon fill="white" stroke="black" points="103,-160.5 103,-217.5 205,-217.5 205,-160.5 103,-160.5"/>
<text text-anchor="middle" x="154" y="-205.5" font-family="Helvetica,sans-Serif" font-size="10.00">volatile rtapi_u32</text>
<polyline fill="none" stroke="black" points="103,-198.5 205,-198.5 "/>
<text text-anchor="middle" x="154" y="-186.5" font-family="Helvetica,sans-Serif" font-size="10.00"> </text>
<polyline fill="none" stroke="black" points="103,-179.5 205,-179.5 "/>
<text text-anchor="middle" x="154" y="-167.5" font-family="Helvetica,sans-Serif" font-size="10.00"> </text>
</a>
</g>
</g>
<!-- Node3&#45;&gt;Node1 -->
<g id="edge2" class="edge">
<title>Node3&#45;&gt;Node1</title>
<path fill="none" stroke="#404040" d="M153.04,-160.26C151.2,-136.63 146.07,-102.41 132,-76 130.36,-72.92 128.44,-69.91 126.34,-67"/>
<polygon fill="none" stroke="#404040" points="126.2,-66.83 119.31,-64.71 118.61,-57.53 125.5,-59.65 126.2,-66.83"/>
<text text-anchor="middle" x="201.5" y="-112" font-family="Helvetica,sans-Serif" font-size="10.00"> +PoExtBus_DataGet</text>
<text text-anchor="middle" x="201.5" y="-101" font-family="Helvetica,sans-Serif" font-size="10.00">+PoExtBus_DataSet</text>
</g>
</g>
</svg>
