<?xml version="1.0" encoding="UTF-8" standalone="no"?>
<!DOCTYPE svg PUBLIC "-//W3C//DTD SVG 1.1//EN"
 "http://www.w3.org/Graphics/SVG/1.1/DTD/svg11.dtd">
<!-- Generated by graphviz version 2.43.0 (0)
 -->
<!-- Title: sPoKeysMatrixLED Pages: 1 -->
<svg width="145pt" height="226pt"
 viewBox="0.00 0.00 144.50 226.00" xmlns="http://www.w3.org/2000/svg" xmlns:xlink="http://www.w3.org/1999/xlink">
<g id="graph0" class="graph" transform="scale(1 1) rotate(0) translate(4 222)">
<title>sPoKeysMatrixLED</title>
<polygon fill="white" stroke="transparent" points="-4,4 -4,-222 140.5,-222 140.5,4 -4,4"/>
<!-- Node1 -->
<g id="node1" class="node">
<title>Node1</title>
<g id="a_node1"><a xlink:title=" ">
<polygon fill="#bfbfbf" stroke="black" points="0,-0.5 0,-57.5 107,-57.5 107,-0.5 0,-0.5"/>
<text text-anchor="middle" x="53.5" y="-45.5" font-family="Helvetica,sans-Serif" font-size="10.00">sPoKeysMatrixLED</text>
<polyline fill="none" stroke="black" points="0,-38.5 107,-38.5 "/>
<text text-anchor="middle" x="53.5" y="-26.5" font-family="Helvetica,sans-Serif" font-size="10.00"> </text>
<polyline fill="none" stroke="black" points="0,-19.5 107,-19.5 "/>
<text text-anchor="middle" x="53.5" y="-7.5" font-family="Helvetica,sans-Serif" font-size="10.00"> </text>
</a>
</g>
</g>
<!-- Node2 -->
<g id="node2" class="node">
<title>Node2</title>
<g id="a_node2"><a xlink:title=" ">
<polygon fill="white" stroke="black" points="23,-160.5 23,-217.5 84,-217.5 84,-160.5 23,-160.5"/>
<text text-anchor="middle" x="53.5" y="-205.5" font-family="Helvetica,sans-Serif" font-size="10.00">unsigned</text>
<polyline fill="none" stroke="black" points="23,-198.5 84,-198.5 "/>
<text text-anchor="middle" x="53.5" y="-186.5" font-family="Helvetica,sans-Serif" font-size="10.00"> </text>
<polyline fill="none" stroke="black" points="23,-179.5 84,-179.5 "/>
<text text-anchor="middle" x="53.5" y="-167.5" font-family="Helvetica,sans-Serif" font-size="10.00"> </text>
</a>
</g>
</g>
<!-- Node2&#45;&gt;Node1 -->
<g id="edge1" class="edge">
<title>Node2&#45;&gt;Node1</title>
<path fill="none" stroke="#404040" d="M53.5,-160.48C53.5,-135.48 53.5,-98.31 53.5,-70.03"/>
<polygon fill="none" stroke="#404040" points="53.5,-69.74 49.5,-63.74 53.5,-57.74 57.5,-63.74 53.5,-69.74"/>
<text text-anchor="middle" x="95" y="-134" font-family="Helvetica,sans-Serif" font-size="10.00"> +RefreshFlag</text>
<text text-anchor="middle" x="95" y="-123" font-family="Helvetica,sans-Serif" font-size="10.00">+columns</text>
<text text-anchor="middle" x="95" y="-112" font-family="Helvetica,sans-Serif" font-size="10.00">+data</text>
<text text-anchor="middle" x="95" y="-101" font-family="Helvetica,sans-Serif" font-size="10.00">+displayEnabled</text>
<text text-anchor="middle" x="95" y="-90" font-family="Helvetica,sans-Serif" font-size="10.00">+reserved</text>
<text text-anchor="middle" x="95" y="-79" font-family="Helvetica,sans-Serif" font-size="10.00">+rows</text>
</g>
</g>
</svg>
