<?xml version="1.0" encoding="UTF-8" standalone="no"?>
<!DOCTYPE svg PUBLIC "-//W3C//DTD SVG 1.1//EN"
 "http://www.w3.org/Graphics/SVG/1.1/DTD/svg11.dtd">
<!-- Generated by graphviz version 2.43.0 (0)
 -->
<!-- Title: go_screw Pages: 1 -->
<svg width="70pt" height="309pt"
 viewBox="0.00 0.00 70.00 309.00" xmlns="http://www.w3.org/2000/svg" xmlns:xlink="http://www.w3.org/1999/xlink">
<g id="graph0" class="graph" transform="scale(1 1) rotate(0) translate(4 305)">
<title>go_screw</title>
<polygon fill="white" stroke="transparent" points="-4,4 -4,-305 66,-305 66,4 -4,4"/>
<!-- Node1 -->
<g id="node1" class="node">
<title>Node1</title>
<g id="a_node1"><a xlink:title=" ">
<polygon fill="#bfbfbf" stroke="black" points="0,-0.5 0,-57.5 62,-57.5 62,-0.5 0,-0.5"/>
<text text-anchor="middle" x="31" y="-45.5" font-family="Helvetica,sans-Serif" font-size="10.00">go_screw</text>
<polyline fill="none" stroke="black" points="0,-38.5 62,-38.5 "/>
<text text-anchor="middle" x="31" y="-26.5" font-family="Helvetica,sans-Serif" font-size="10.00"> </text>
<polyline fill="none" stroke="black" points="0,-19.5 62,-19.5 "/>
<text text-anchor="middle" x="31" y="-7.5" font-family="Helvetica,sans-Serif" font-size="10.00"> </text>
</a>
</g>
</g>
<!-- Node2 -->
<g id="node2" class="node">
<title>Node2</title>
<g id="a_node2"><a xlink:href="structgo__cart.html" target="_top" xlink:title=" ">
<polygon fill="white" stroke="black" points="4.5,-116.5 4.5,-173.5 57.5,-173.5 57.5,-116.5 4.5,-116.5"/>
<text text-anchor="middle" x="31" y="-161.5" font-family="Helvetica,sans-Serif" font-size="10.00">go_cart</text>
<polyline fill="none" stroke="black" points="4.5,-154.5 57.5,-154.5 "/>
<text text-anchor="middle" x="31" y="-142.5" font-family="Helvetica,sans-Serif" font-size="10.00"> </text>
<polyline fill="none" stroke="black" points="4.5,-135.5 57.5,-135.5 "/>
<text text-anchor="middle" x="31" y="-123.5" font-family="Helvetica,sans-Serif" font-size="10.00"> </text>
</a>
</g>
</g>
<!-- Node2&#45;&gt;Node1 -->
<g id="edge1" class="edge">
<title>Node2&#45;&gt;Node1</title>
<path fill="none" stroke="#404040" d="M31,-116.4C31,-102.5 31,-85.39 31,-70.07"/>
<polygon fill="none" stroke="#404040" points="31,-69.74 27,-63.74 31,-57.74 35,-63.74 31,-69.74"/>
<text text-anchor="middle" x="40" y="-90" font-family="Helvetica,sans-Serif" font-size="10.00"> +v</text>
<text text-anchor="middle" x="40" y="-79" font-family="Helvetica,sans-Serif" font-size="10.00">+w</text>
</g>
<!-- Node3 -->
<g id="node3" class="node">
<title>Node3</title>
<g id="a_node3"><a xlink:title=" ">
<polygon fill="white" stroke="black" points="6,-243.5 6,-300.5 56,-300.5 56,-243.5 6,-243.5"/>
<text text-anchor="middle" x="31" y="-288.5" font-family="Helvetica,sans-Serif" font-size="10.00">double</text>
<polyline fill="none" stroke="black" points="6,-281.5 56,-281.5 "/>
<text text-anchor="middle" x="31" y="-269.5" font-family="Helvetica,sans-Serif" font-size="10.00"> </text>
<polyline fill="none" stroke="black" points="6,-262.5 56,-262.5 "/>
<text text-anchor="middle" x="31" y="-250.5" font-family="Helvetica,sans-Serif" font-size="10.00"> </text>
</a>
</g>
</g>
<!-- Node3&#45;&gt;Node2 -->
<g id="edge2" class="edge">
<title>Node3&#45;&gt;Node2</title>
<path fill="none" stroke="#404040" d="M31,-243.26C31,-226.35 31,-204.46 31,-185.73"/>
<polygon fill="none" stroke="#404040" points="31,-185.66 27,-179.66 31,-173.66 35,-179.66 31,-185.66"/>
<text text-anchor="middle" x="40" y="-217" font-family="Helvetica,sans-Serif" font-size="10.00"> +x</text>
<text text-anchor="middle" x="40" y="-206" font-family="Helvetica,sans-Serif" font-size="10.00">+y</text>
<text text-anchor="middle" x="40" y="-195" font-family="Helvetica,sans-Serif" font-size="10.00">+z</text>
</g>
</g>
</svg>
