<?xml version="1.0" encoding="UTF-8" standalone="no"?>
<!DOCTYPE svg PUBLIC "-//W3C//DTD SVG 1.1//EN"
 "http://www.w3.org/Graphics/SVG/1.1/DTD/svg11.dtd">
<!-- Generated by graphviz version 2.43.0 (0)
 -->
<!-- Title: PmLine Pages: 1 -->
<svg width="293pt" height="436pt"
 viewBox="0.00 0.00 293.43 436.00" xmlns="http://www.w3.org/2000/svg" xmlns:xlink="http://www.w3.org/1999/xlink">
<g id="graph0" class="graph" transform="scale(1 1) rotate(0) translate(4 432)">
<title>PmLine</title>
<polygon fill="white" stroke="transparent" points="-4,4 -4,-432 289.43,-432 289.43,4 -4,4"/>
<!-- Node1 -->
<g id="node1" class="node">
<title>Node1</title>
<g id="a_node1"><a xlink:title=" ">
<polygon fill="#bfbfbf" stroke="black" points="97.93,-0.5 97.93,-57.5 150.93,-57.5 150.93,-0.5 97.93,-0.5"/>
<text text-anchor="middle" x="124.43" y="-45.5" font-family="Helvetica,sans-Serif" font-size="10.00">PmLine</text>
<polyline fill="none" stroke="black" points="97.93,-38.5 150.93,-38.5 "/>
<text text-anchor="middle" x="124.43" y="-26.5" font-family="Helvetica,sans-Serif" font-size="10.00"> </text>
<polyline fill="none" stroke="black" points="97.93,-19.5 150.93,-19.5 "/>
<text text-anchor="middle" x="124.43" y="-7.5" font-family="Helvetica,sans-Serif" font-size="10.00"> </text>
</a>
</g>
</g>
<!-- Node2 -->
<g id="node2" class="node">
<title>Node2</title>
<g id="a_node2"><a xlink:href="structPmPose.html" target="_top" xlink:title=" ">
<polygon fill="white" stroke="black" points="96.43,-116.5 96.43,-173.5 152.43,-173.5 152.43,-116.5 96.43,-116.5"/>
<text text-anchor="middle" x="124.43" y="-161.5" font-family="Helvetica,sans-Serif" font-size="10.00">PmPose</text>
<polyline fill="none" stroke="black" points="96.43,-154.5 152.43,-154.5 "/>
<text text-anchor="middle" x="124.43" y="-142.5" font-family="Helvetica,sans-Serif" font-size="10.00"> </text>
<polyline fill="none" stroke="black" points="96.43,-135.5 152.43,-135.5 "/>
<text text-anchor="middle" x="124.43" y="-123.5" font-family="Helvetica,sans-Serif" font-size="10.00"> </text>
</a>
</g>
</g>
<!-- Node2&#45;&gt;Node1 -->
<g id="edge1" class="edge">
<title>Node2&#45;&gt;Node1</title>
<path fill="none" stroke="#404040" d="M124.43,-116.4C124.43,-102.5 124.43,-85.39 124.43,-70.07"/>
<polygon fill="none" stroke="#404040" points="124.43,-69.74 120.43,-63.74 124.43,-57.74 128.43,-63.74 124.43,-69.74"/>
<text text-anchor="middle" x="139.93" y="-90" font-family="Helvetica,sans-Serif" font-size="10.00"> +end</text>
<text text-anchor="middle" x="139.93" y="-79" font-family="Helvetica,sans-Serif" font-size="10.00">+start</text>
</g>
<!-- Node3 -->
<g id="node3" class="node">
<title>Node3</title>
<g id="a_node3"><a xlink:href="structPmCartesian.html" target="_top" xlink:title=" ">
<polygon fill="white" stroke="black" points="19.93,-232.5 19.93,-289.5 98.93,-289.5 98.93,-232.5 19.93,-232.5"/>
<text text-anchor="middle" x="59.43" y="-277.5" font-family="Helvetica,sans-Serif" font-size="10.00">PmCartesian</text>
<polyline fill="none" stroke="black" points="19.93,-270.5 98.93,-270.5 "/>
<text text-anchor="middle" x="59.43" y="-258.5" font-family="Helvetica,sans-Serif" font-size="10.00"> </text>
<polyline fill="none" stroke="black" points="19.93,-251.5 98.93,-251.5 "/>
<text text-anchor="middle" x="59.43" y="-239.5" font-family="Helvetica,sans-Serif" font-size="10.00"> </text>
</a>
</g>
</g>
<!-- Node3&#45;&gt;Node1 -->
<g id="edge6" class="edge">
<title>Node3&#45;&gt;Node1</title>
<path fill="none" stroke="#404040" d="M51.88,-232.25C45.19,-202.53 38.46,-154.46 52.43,-116 59.92,-95.39 74.76,-76.27 89.02,-61.31"/>
<polygon fill="none" stroke="#404040" points="89.28,-61.06 90.69,-53.98 97.76,-52.57 96.35,-59.64 89.28,-61.06"/>
<text text-anchor="middle" x="69.93" y="-142.5" font-family="Helvetica,sans-Serif" font-size="10.00"> +uVec</text>
</g>
<!-- Node3&#45;&gt;Node2 -->
<g id="edge2" class="edge">
<title>Node3&#45;&gt;Node2</title>
<path fill="none" stroke="#404040" d="M75.17,-232.4C83.41,-217.95 93.63,-200.02 102.63,-184.24"/>
<polygon fill="none" stroke="#404040" points="102.67,-184.16 102.17,-176.97 108.62,-173.74 109.12,-180.93 102.67,-184.16"/>
<text text-anchor="middle" x="113.93" y="-200.5" font-family="Helvetica,sans-Serif" font-size="10.00"> +tran</text>
</g>
<!-- Node4 -->
<g id="node4" class="node">
<title>Node4</title>
<g id="a_node4"><a xlink:title=" ">
<polygon fill="white" stroke="black" points="34.43,-370.5 34.43,-427.5 84.43,-427.5 84.43,-370.5 34.43,-370.5"/>
<text text-anchor="middle" x="59.43" y="-415.5" font-family="Helvetica,sans-Serif" font-size="10.00">double</text>
<polyline fill="none" stroke="black" points="34.43,-408.5 84.43,-408.5 "/>
<text text-anchor="middle" x="59.43" y="-396.5" font-family="Helvetica,sans-Serif" font-size="10.00"> </text>
<polyline fill="none" stroke="black" points="34.43,-389.5 84.43,-389.5 "/>
<text text-anchor="middle" x="59.43" y="-377.5" font-family="Helvetica,sans-Serif" font-size="10.00"> </text>
</a>
</g>
</g>
<!-- Node4&#45;&gt;Node1 -->
<g id="edge8" class="edge">
<title>Node4&#45;&gt;Node1</title>
<path fill="none" stroke="#404040" d="M43.41,-370.14C32.05,-348.91 17.6,-318.56 10.43,-290 -0.18,-247.7 -3.69,-234.65 5.43,-192 17.25,-136.75 21.24,-119.38 57.43,-76 65.7,-66.09 76.62,-57.38 87.24,-50.29"/>
<polygon fill="none" stroke="#404040" points="87.48,-50.14 90.43,-43.56 97.64,-43.75 94.69,-50.33 87.48,-50.14"/>
<text text-anchor="middle" x="23.93" y="-206" font-family="Helvetica,sans-Serif" font-size="10.00"> +rmag</text>
<text text-anchor="middle" x="23.93" y="-195" font-family="Helvetica,sans-Serif" font-size="10.00">+tmag</text>
</g>
<!-- Node4&#45;&gt;Node3 -->
<g id="edge3" class="edge">
<title>Node4&#45;&gt;Node3</title>
<path fill="none" stroke="#404040" d="M59.43,-370.48C59.43,-350.79 59.43,-323.99 59.43,-301.95"/>
<polygon fill="none" stroke="#404040" points="59.43,-301.95 55.43,-295.95 59.43,-289.95 63.43,-295.95 59.43,-301.95"/>
<text text-anchor="middle" x="68.43" y="-338.5" font-family="Helvetica,sans-Serif" font-size="10.00"> +x</text>
<text text-anchor="middle" x="68.43" y="-327.5" font-family="Helvetica,sans-Serif" font-size="10.00">+y</text>
<text text-anchor="middle" x="68.43" y="-316.5" font-family="Helvetica,sans-Serif" font-size="10.00">+z</text>
</g>
<!-- Node5 -->
<g id="node5" class="node">
<title>Node5</title>
<g id="a_node5"><a xlink:href="structPmQuaternion.html" target="_top" xlink:title=" ">
<polygon fill="white" stroke="black" points="117.43,-232.5 117.43,-289.5 203.43,-289.5 203.43,-232.5 117.43,-232.5"/>
<text text-anchor="middle" x="160.43" y="-277.5" font-family="Helvetica,sans-Serif" font-size="10.00">PmQuaternion</text>
<polyline fill="none" stroke="black" points="117.43,-270.5 203.43,-270.5 "/>
<text text-anchor="middle" x="160.43" y="-258.5" font-family="Helvetica,sans-Serif" font-size="10.00"> </text>
<polyline fill="none" stroke="black" points="117.43,-251.5 203.43,-251.5 "/>
<text text-anchor="middle" x="160.43" y="-239.5" font-family="Helvetica,sans-Serif" font-size="10.00"> </text>
</a>
</g>
</g>
<!-- Node4&#45;&gt;Node5 -->
<g id="edge5" class="edge">
<title>Node4&#45;&gt;Node5</title>
<path fill="none" stroke="#404040" d="M79.87,-370.48C94.97,-350.15 115.7,-322.24 132.35,-299.82"/>
<polygon fill="none" stroke="#404040" points="132.52,-299.58 132.89,-292.38 139.68,-289.95 139.31,-297.15 132.52,-299.58"/>
<text text-anchor="middle" x="132.93" y="-344" font-family="Helvetica,sans-Serif" font-size="10.00"> +s</text>
<text text-anchor="middle" x="132.93" y="-333" font-family="Helvetica,sans-Serif" font-size="10.00">+x</text>
<text text-anchor="middle" x="132.93" y="-322" font-family="Helvetica,sans-Serif" font-size="10.00">+y</text>
<text text-anchor="middle" x="132.93" y="-311" font-family="Helvetica,sans-Serif" font-size="10.00">+z</text>
</g>
<!-- Node5&#45;&gt;Node1 -->
<g id="edge7" class="edge">
<title>Node5&#45;&gt;Node1</title>
<path fill="none" stroke="#404040" d="M170.36,-232.08C172.05,-226.18 173.55,-219.94 174.43,-214 181,-169.86 173.1,-109.3 159.43,-76 158.28,-73.2 156.92,-70.42 155.4,-67.69"/>
<polygon fill="none" stroke="#404040" points="155.38,-67.66 148.8,-64.73 148.97,-57.52 155.55,-60.45 155.38,-67.66"/>
<text text-anchor="middle" x="193.93" y="-142.5" font-family="Helvetica,sans-Serif" font-size="10.00"> +qVec</text>
</g>
<!-- Node5&#45;&gt;Node2 -->
<g id="edge4" class="edge">
<title>Node5&#45;&gt;Node2</title>
<path fill="none" stroke="#404040" d="M151.72,-232.4C147.28,-218.36 141.82,-201.05 136.94,-185.61"/>
<polygon fill="none" stroke="#404040" points="136.8,-185.18 131.18,-180.66 133.19,-173.74 138.81,-178.25 136.8,-185.18"/>
<text text-anchor="middle" x="157.93" y="-200.5" font-family="Helvetica,sans-Serif" font-size="10.00"> +rot</text>
</g>
<!-- Node6 -->
<g id="node6" class="node">
<title>Node6</title>
<g id="a_node6"><a xlink:title=" ">
<polygon fill="white" stroke="black" points="241.93,-116.5 241.93,-173.5 270.93,-173.5 270.93,-116.5 241.93,-116.5"/>
<text text-anchor="middle" x="256.43" y="-161.5" font-family="Helvetica,sans-Serif" font-size="10.00">int</text>
<polyline fill="none" stroke="black" points="241.93,-154.5 270.93,-154.5 "/>
<text text-anchor="middle" x="256.43" y="-142.5" font-family="Helvetica,sans-Serif" font-size="10.00"> </text>
<polyline fill="none" stroke="black" points="241.93,-135.5 270.93,-135.5 "/>
<text text-anchor="middle" x="256.43" y="-123.5" font-family="Helvetica,sans-Serif" font-size="10.00"> </text>
</a>
</g>
</g>
<!-- Node6&#45;&gt;Node1 -->
<g id="edge9" class="edge">
<title>Node6&#45;&gt;Node1</title>
<path fill="none" stroke="#404040" d="M241.71,-121.43C231.75,-107.27 217.67,-89.26 202.43,-76 190.3,-65.44 175.4,-55.97 161.88,-48.41"/>
<polygon fill="none" stroke="#404040" points="161.52,-48.21 154.34,-48.89 150.95,-42.52 158.13,-41.84 161.52,-48.21"/>
<text text-anchor="middle" x="253.43" y="-90" font-family="Helvetica,sans-Serif" font-size="10.00"> +rmag_zero</text>
<text text-anchor="middle" x="253.43" y="-79" font-family="Helvetica,sans-Serif" font-size="10.00">+tmag_zero</text>
</g>
</g>
</svg>
