<?xml version="1.0" encoding="UTF-8" standalone="no"?>
<!DOCTYPE svg PUBLIC "-//W3C//DTD SVG 1.1//EN"
 "http://www.w3.org/Graphics/SVG/1.1/DTD/svg11.dtd">
<!-- Generated by graphviz version 2.43.0 (0)
 -->
<!-- Title: CANON_TOOL_TABLE Pages: 1 -->
<svg width="294pt" height="455pt"
 viewBox="0.00 0.00 294.00 455.00" xmlns="http://www.w3.org/2000/svg" xmlns:xlink="http://www.w3.org/1999/xlink">
<g id="graph0" class="graph" transform="scale(1 1) rotate(0) translate(4 451)">
<title>CANON_TOOL_TABLE</title>
<polygon fill="white" stroke="transparent" points="-4,4 -4,-451 290,-451 290,4 -4,4"/>
<!-- Node1 -->
<g id="node1" class="node">
<title>Node1</title>
<g id="a_node1"><a xlink:title=" ">
<polygon fill="#bfbfbf" stroke="black" points="35,-0.5 35,-57.5 154,-57.5 154,-0.5 35,-0.5"/>
<text text-anchor="middle" x="94.5" y="-45.5" font-family="Helvetica,sans-Serif" font-size="10.00">CANON_TOOL_TABLE</text>
<polyline fill="none" stroke="black" points="35,-38.5 154,-38.5 "/>
<text text-anchor="middle" x="94.5" y="-26.5" font-family="Helvetica,sans-Serif" font-size="10.00"> </text>
<polyline fill="none" stroke="black" points="35,-19.5 154,-19.5 "/>
<text text-anchor="middle" x="94.5" y="-7.5" font-family="Helvetica,sans-Serif" font-size="10.00"> </text>
</a>
</g>
</g>
<!-- Node2 -->
<g id="node2" class="node">
<title>Node2</title>
<g id="a_node2"><a xlink:title=" ">
<polygon fill="white" stroke="black" points="0,-127.5 0,-184.5 29,-184.5 29,-127.5 0,-127.5"/>
<text text-anchor="middle" x="14.5" y="-172.5" font-family="Helvetica,sans-Serif" font-size="10.00">int</text>
<polyline fill="none" stroke="black" points="0,-165.5 29,-165.5 "/>
<text text-anchor="middle" x="14.5" y="-153.5" font-family="Helvetica,sans-Serif" font-size="10.00"> </text>
<polyline fill="none" stroke="black" points="0,-146.5 29,-146.5 "/>
<text text-anchor="middle" x="14.5" y="-134.5" font-family="Helvetica,sans-Serif" font-size="10.00"> </text>
</a>
</g>
</g>
<!-- Node2&#45;&gt;Node1 -->
<g id="edge1" class="edge">
<title>Node2&#45;&gt;Node1</title>
<path fill="none" stroke="#404040" d="M8.41,-127.25C6.4,-111.22 6.58,-91.28 15.5,-76 18.27,-71.24 21.75,-66.93 25.68,-63.03"/>
<polygon fill="none" stroke="#404040" points="25.8,-62.93 27.76,-55.99 34.92,-55.14 32.96,-62.08 25.8,-62.93"/>
<text text-anchor="middle" x="48" y="-101" font-family="Helvetica,sans-Serif" font-size="10.00"> +orientation</text>
<text text-anchor="middle" x="48" y="-90" font-family="Helvetica,sans-Serif" font-size="10.00">+pocketno</text>
<text text-anchor="middle" x="48" y="-79" font-family="Helvetica,sans-Serif" font-size="10.00">+toolno</text>
</g>
<!-- Node3 -->
<g id="node3" class="node">
<title>Node3</title>
<g id="a_node3"><a xlink:href="structEmcPose.html" target="_top" xlink:title=" ">
<polygon fill="white" stroke="black" points="140,-127.5 140,-184.5 201,-184.5 201,-127.5 140,-127.5"/>
<text text-anchor="middle" x="170.5" y="-172.5" font-family="Helvetica,sans-Serif" font-size="10.00">EmcPose</text>
<polyline fill="none" stroke="black" points="140,-165.5 201,-165.5 "/>
<text text-anchor="middle" x="170.5" y="-153.5" font-family="Helvetica,sans-Serif" font-size="10.00"> </text>
<polyline fill="none" stroke="black" points="140,-146.5 201,-146.5 "/>
<text text-anchor="middle" x="170.5" y="-134.5" font-family="Helvetica,sans-Serif" font-size="10.00"> </text>
</a>
</g>
</g>
<!-- Node3&#45;&gt;Node1 -->
<g id="edge2" class="edge">
<title>Node3&#45;&gt;Node1</title>
<path fill="none" stroke="#404040" d="M153.63,-127.26C143.06,-109.86 129.28,-87.2 117.68,-68.12"/>
<polygon fill="none" stroke="#404040" points="117.55,-67.92 111.02,-64.87 111.32,-57.66 117.85,-60.71 117.55,-67.92"/>
<text text-anchor="middle" x="161.5" y="-90" font-family="Helvetica,sans-Serif" font-size="10.00"> +offset</text>
</g>
<!-- Node4 -->
<g id="node4" class="node">
<title>Node4</title>
<g id="a_node4"><a xlink:href="structPmCartesian.html" target="_top" xlink:title=" ">
<polygon fill="white" stroke="black" points="207,-258.5 207,-315.5 286,-315.5 286,-258.5 207,-258.5"/>
<text text-anchor="middle" x="246.5" y="-303.5" font-family="Helvetica,sans-Serif" font-size="10.00">PmCartesian</text>
<polyline fill="none" stroke="black" points="207,-296.5 286,-296.5 "/>
<text text-anchor="middle" x="246.5" y="-284.5" font-family="Helvetica,sans-Serif" font-size="10.00"> </text>
<polyline fill="none" stroke="black" points="207,-277.5 286,-277.5 "/>
<text text-anchor="middle" x="246.5" y="-265.5" font-family="Helvetica,sans-Serif" font-size="10.00"> </text>
</a>
</g>
</g>
<!-- Node4&#45;&gt;Node3 -->
<g id="edge3" class="edge">
<title>Node4&#45;&gt;Node3</title>
<path fill="none" stroke="#404040" d="M230.2,-258.33C219.33,-239.88 204.9,-215.38 192.94,-195.1"/>
<polygon fill="none" stroke="#404040" points="192.87,-194.97 186.38,-191.83 186.78,-184.63 193.27,-187.77 192.87,-194.97"/>
<text text-anchor="middle" x="230" y="-217" font-family="Helvetica,sans-Serif" font-size="10.00"> +tran</text>
</g>
<!-- Node5 -->
<g id="node5" class="node">
<title>Node5</title>
<g id="a_node5"><a xlink:title=" ">
<polygon fill="white" stroke="black" points="145.5,-389.5 145.5,-446.5 195.5,-446.5 195.5,-389.5 145.5,-389.5"/>
<text text-anchor="middle" x="170.5" y="-434.5" font-family="Helvetica,sans-Serif" font-size="10.00">double</text>
<polyline fill="none" stroke="black" points="145.5,-427.5 195.5,-427.5 "/>
<text text-anchor="middle" x="170.5" y="-415.5" font-family="Helvetica,sans-Serif" font-size="10.00"> </text>
<polyline fill="none" stroke="black" points="145.5,-408.5 195.5,-408.5 "/>
<text text-anchor="middle" x="170.5" y="-396.5" font-family="Helvetica,sans-Serif" font-size="10.00"> </text>
</a>
</g>
</g>
<!-- Node5&#45;&gt;Node1 -->
<g id="edge6" class="edge">
<title>Node5&#45;&gt;Node1</title>
<path fill="none" stroke="#404040" d="M157.63,-389.2C142.15,-354.29 116.82,-292.13 105.5,-236 94.01,-179.05 92.67,-111.56 93.22,-69.75"/>
<polygon fill="none" stroke="#404040" points="93.22,-69.64 89.34,-63.57 93.45,-57.64 97.33,-63.72 93.22,-69.64"/>
<text text-anchor="middle" x="136" y="-228" font-family="Helvetica,sans-Serif" font-size="10.00"> +backangle</text>
<text text-anchor="middle" x="136" y="-217" font-family="Helvetica,sans-Serif" font-size="10.00">+diameter</text>
<text text-anchor="middle" x="136" y="-206" font-family="Helvetica,sans-Serif" font-size="10.00">+frontangle</text>
</g>
<!-- Node5&#45;&gt;Node3 -->
<g id="edge5" class="edge">
<title>Node5&#45;&gt;Node3</title>
<path fill="none" stroke="#404040" d="M170.5,-389.18C170.5,-342.94 170.5,-250.14 170.5,-196.93"/>
<polygon fill="none" stroke="#404040" points="170.5,-196.62 166.5,-190.62 170.5,-184.62 174.5,-190.62 170.5,-196.62"/>
<text text-anchor="middle" x="179.5" y="-312" font-family="Helvetica,sans-Serif" font-size="10.00"> +a</text>
<text text-anchor="middle" x="179.5" y="-301" font-family="Helvetica,sans-Serif" font-size="10.00">+b</text>
<text text-anchor="middle" x="179.5" y="-290" font-family="Helvetica,sans-Serif" font-size="10.00">+c</text>
<text text-anchor="middle" x="179.5" y="-279" font-family="Helvetica,sans-Serif" font-size="10.00">+u</text>
<text text-anchor="middle" x="179.5" y="-268" font-family="Helvetica,sans-Serif" font-size="10.00">+v</text>
<text text-anchor="middle" x="179.5" y="-257" font-family="Helvetica,sans-Serif" font-size="10.00">+w</text>
</g>
<!-- Node5&#45;&gt;Node4 -->
<g id="edge4" class="edge">
<title>Node5&#45;&gt;Node4</title>
<path fill="none" stroke="#404040" d="M186.8,-389.33C197.67,-370.88 212.1,-346.38 224.06,-326.1"/>
<polygon fill="none" stroke="#404040" points="224.13,-325.97 223.73,-318.77 230.22,-315.63 230.62,-322.83 224.13,-325.97"/>
<text text-anchor="middle" x="223.5" y="-363" font-family="Helvetica,sans-Serif" font-size="10.00"> +x</text>
<text text-anchor="middle" x="223.5" y="-352" font-family="Helvetica,sans-Serif" font-size="10.00">+y</text>
<text text-anchor="middle" x="223.5" y="-341" font-family="Helvetica,sans-Serif" font-size="10.00">+z</text>
</g>
</g>
</svg>
