<?xml version="1.0" encoding="UTF-8" standalone="no"?>
<!DOCTYPE svg PUBLIC "-//W3C//DTD SVG 1.1//EN"
 "http://www.w3.org/Graphics/SVG/1.1/DTD/svg11.dtd">
<!-- Generated by graphviz version 2.43.0 (0)
 -->
<!-- Title: one_PoNET_data_t Pages: 1 -->
<svg width="182pt" height="237pt"
 viewBox="0.00 0.00 181.50 237.00" xmlns="http://www.w3.org/2000/svg" xmlns:xlink="http://www.w3.org/1999/xlink">
<g id="graph0" class="graph" transform="scale(1 1) rotate(0) translate(4 233)">
<title>one_PoNET_data_t</title>
<polygon fill="white" stroke="transparent" points="-4,4 -4,-233 177.5,-233 177.5,4 -4,4"/>
<!-- Node1 -->
<g id="node1" class="node">
<title>Node1</title>
<g id="a_node1"><a xlink:title="Structure holding HAL parameters and pin references for one PoNET device.">
<polygon fill="#bfbfbf" stroke="black" points="0,-0.5 0,-57.5 107,-57.5 107,-0.5 0,-0.5"/>
<text text-anchor="middle" x="53.5" y="-45.5" font-family="Helvetica,sans-Serif" font-size="10.00">one_PoNET_data_t</text>
<polyline fill="none" stroke="black" points="0,-38.5 107,-38.5 "/>
<text text-anchor="middle" x="53.5" y="-26.5" font-family="Helvetica,sans-Serif" font-size="10.00"> </text>
<polyline fill="none" stroke="black" points="0,-19.5 107,-19.5 "/>
<text text-anchor="middle" x="53.5" y="-7.5" font-family="Helvetica,sans-Serif" font-size="10.00"> </text>
</a>
</g>
</g>
<!-- Node2 -->
<g id="node2" class="node">
<title>Node2</title>
<g id="a_node2"><a xlink:title=" ">
<polygon fill="white" stroke="black" points="25.5,-171.5 25.5,-228.5 81.5,-228.5 81.5,-171.5 25.5,-171.5"/>
<text text-anchor="middle" x="53.5" y="-216.5" font-family="Helvetica,sans-Serif" font-size="10.00">uint32_t</text>
<polyline fill="none" stroke="black" points="25.5,-209.5 81.5,-209.5 "/>
<text text-anchor="middle" x="53.5" y="-197.5" font-family="Helvetica,sans-Serif" font-size="10.00"> </text>
<polyline fill="none" stroke="black" points="25.5,-190.5 81.5,-190.5 "/>
<text text-anchor="middle" x="53.5" y="-178.5" font-family="Helvetica,sans-Serif" font-size="10.00"> </text>
</a>
</g>
</g>
<!-- Node2&#45;&gt;Node1 -->
<g id="edge1" class="edge">
<title>Node2&#45;&gt;Node1</title>
<path fill="none" stroke="#404040" d="M53.5,-171.47C53.5,-143.85 53.5,-101.03 53.5,-69.73"/>
<polygon fill="none" stroke="#404040" points="53.5,-69.52 49.5,-63.52 53.5,-57.52 57.5,-63.52 53.5,-69.52"/>
<text text-anchor="middle" x="113.5" y="-145" font-family="Helvetica,sans-Serif" font-size="10.00"> +PoNET_i2cAddress</text>
<text text-anchor="middle" x="113.5" y="-134" font-family="Helvetica,sans-Serif" font-size="10.00">+PoNET_moduleID</text>
<text text-anchor="middle" x="113.5" y="-123" font-family="Helvetica,sans-Serif" font-size="10.00">+PoNET_moduleOptions</text>
<text text-anchor="middle" x="113.5" y="-112" font-family="Helvetica,sans-Serif" font-size="10.00">+PoNET_moduleSize</text>
<text text-anchor="middle" x="113.5" y="-101" font-family="Helvetica,sans-Serif" font-size="10.00">+PoNET_moduleType</text>
<text text-anchor="middle" x="113.5" y="-90" font-family="Helvetica,sans-Serif" font-size="10.00">+PoNET_statusIn</text>
<text text-anchor="middle" x="113.5" y="-79" font-family="Helvetica,sans-Serif" font-size="10.00">+PoNET_statusOut</text>
</g>
</g>
</svg>
