<?xml version="1.0" encoding="UTF-8" standalone="no"?>
<!DOCTYPE svg PUBLIC "-//W3C//DTD SVG 1.1//EN"
 "http://www.w3.org/Graphics/SVG/1.1/DTD/svg11.dtd">
<!-- Generated by graphviz version 2.43.0 (0)
 -->
<!-- Title: rtapi_pci_driver Pages: 1 -->
<svg width="411pt" height="342pt"
 viewBox="0.00 0.00 411.00 342.00" xmlns="http://www.w3.org/2000/svg" xmlns:xlink="http://www.w3.org/1999/xlink">
<g id="graph0" class="graph" transform="scale(1 1) rotate(0) translate(4 338)">
<title>rtapi_pci_driver</title>
<polygon fill="white" stroke="transparent" points="-4,4 -4,-338 407,-338 407,4 -4,4"/>
<!-- Node1 -->
<g id="node1" class="node">
<title>Node1</title>
<g id="a_node1"><a xlink:title=" ">
<polygon fill="#bfbfbf" stroke="black" points="153,-0.5 153,-57.5 245,-57.5 245,-0.5 153,-0.5"/>
<text text-anchor="middle" x="199" y="-45.5" font-family="Helvetica,sans-Serif" font-size="10.00">rtapi_pci_driver</text>
<polyline fill="none" stroke="black" points="153,-38.5 245,-38.5 "/>
<text text-anchor="middle" x="199" y="-26.5" font-family="Helvetica,sans-Serif" font-size="10.00"> </text>
<polyline fill="none" stroke="black" points="153,-19.5 245,-19.5 "/>
<text text-anchor="middle" x="199" y="-7.5" font-family="Helvetica,sans-Serif" font-size="10.00"> </text>
</a>
</g>
</g>
<!-- Node2 -->
<g id="node2" class="node">
<title>Node2</title>
<g id="a_node2"><a xlink:title=" ">
<polygon fill="white" stroke="black" points="0,-111 0,-168 38,-168 38,-111 0,-111"/>
<text text-anchor="middle" x="19" y="-156" font-family="Helvetica,sans-Serif" font-size="10.00">char</text>
<polyline fill="none" stroke="black" points="0,-149 38,-149 "/>
<text text-anchor="middle" x="19" y="-137" font-family="Helvetica,sans-Serif" font-size="10.00"> </text>
<polyline fill="none" stroke="black" points="0,-130 38,-130 "/>
<text text-anchor="middle" x="19" y="-118" font-family="Helvetica,sans-Serif" font-size="10.00"> </text>
</a>
</g>
</g>
<!-- Node2&#45;&gt;Node1 -->
<g id="edge1" class="edge">
<title>Node2&#45;&gt;Node1</title>
<path fill="none" stroke="#404040" d="M38.06,-113.9C40.91,-110.77 43.93,-107.71 47,-105 74.38,-80.82 110.95,-62.45 141.35,-49.95"/>
<polygon fill="none" stroke="#404040" points="141.53,-49.88 145.62,-43.94 152.67,-45.44 148.58,-51.38 141.53,-49.88"/>
<text text-anchor="middle" x="105" y="-79" font-family="Helvetica,sans-Serif" font-size="10.00"> +name</text>
</g>
<!-- Node3 -->
<g id="node3" class="node">
<title>Node3</title>
<g id="a_node3"><a xlink:href="structrtapi__pci__device__id.html" target="_top" xlink:title=" ">
<polygon fill="white" stroke="black" points="56,-111 56,-168 166,-168 166,-111 56,-111"/>
<text text-anchor="middle" x="111" y="-156" font-family="Helvetica,sans-Serif" font-size="10.00">rtapi_pci_device_id</text>
<polyline fill="none" stroke="black" points="56,-149 166,-149 "/>
<text text-anchor="middle" x="111" y="-137" font-family="Helvetica,sans-Serif" font-size="10.00"> </text>
<polyline fill="none" stroke="black" points="56,-130 166,-130 "/>
<text text-anchor="middle" x="111" y="-118" font-family="Helvetica,sans-Serif" font-size="10.00"> </text>
</a>
</g>
</g>
<!-- Node3&#45;&gt;Node1 -->
<g id="edge2" class="edge">
<title>Node3&#45;&gt;Node1</title>
<path fill="none" stroke="#404040" d="M122.68,-110.94C128.23,-99.51 135.51,-86.49 144,-76 146.79,-72.55 149.86,-69.18 153.09,-65.92"/>
<polygon fill="none" stroke="#404040" points="153.18,-65.83 154.8,-58.8 161.91,-57.59 160.29,-64.62 153.18,-65.83"/>
<text text-anchor="middle" x="169.5" y="-79" font-family="Helvetica,sans-Serif" font-size="10.00"> +id_table</text>
</g>
<!-- Node4 -->
<g id="node4" class="node">
<title>Node4</title>
<g id="a_node4"><a xlink:title=" ">
<polygon fill="white" stroke="black" points="83,-276.5 83,-333.5 139,-333.5 139,-276.5 83,-276.5"/>
<text text-anchor="middle" x="111" y="-321.5" font-family="Helvetica,sans-Serif" font-size="10.00">uint32_t</text>
<polyline fill="none" stroke="black" points="83,-314.5 139,-314.5 "/>
<text text-anchor="middle" x="111" y="-302.5" font-family="Helvetica,sans-Serif" font-size="10.00"> </text>
<polyline fill="none" stroke="black" points="83,-295.5 139,-295.5 "/>
<text text-anchor="middle" x="111" y="-283.5" font-family="Helvetica,sans-Serif" font-size="10.00"> </text>
</a>
</g>
</g>
<!-- Node4&#45;&gt;Node3 -->
<g id="edge3" class="edge">
<title>Node4&#45;&gt;Node3</title>
<path fill="none" stroke="#404040" d="M111,-276.26C111,-249.88 111,-209.9 111,-180.15"/>
<polygon fill="none" stroke="#404040" points="111,-180.1 107,-174.1 111,-168.1 115,-174.1 111,-180.1"/>
<text text-anchor="middle" x="145.5" y="-250" font-family="Helvetica,sans-Serif" font-size="10.00"> +class_mask</text>
<text text-anchor="middle" x="145.5" y="-239" font-family="Helvetica,sans-Serif" font-size="10.00">+device</text>
<text text-anchor="middle" x="145.5" y="-228" font-family="Helvetica,sans-Serif" font-size="10.00">+rtapi_class</text>
<text text-anchor="middle" x="145.5" y="-217" font-family="Helvetica,sans-Serif" font-size="10.00">+subdevice</text>
<text text-anchor="middle" x="145.5" y="-206" font-family="Helvetica,sans-Serif" font-size="10.00">+subvendor</text>
<text text-anchor="middle" x="145.5" y="-195" font-family="Helvetica,sans-Serif" font-size="10.00">+vendor</text>
</g>
<!-- Node5 -->
<g id="node5" class="node">
<title>Node5</title>
<g id="a_node5"><a xlink:title=" ">
<polygon fill="white" stroke="black" points="184.5,-111 184.5,-168 213.5,-168 213.5,-111 184.5,-111"/>
<text text-anchor="middle" x="199" y="-156" font-family="Helvetica,sans-Serif" font-size="10.00">int</text>
<polyline fill="none" stroke="black" points="184.5,-149 213.5,-149 "/>
<text text-anchor="middle" x="199" y="-137" font-family="Helvetica,sans-Serif" font-size="10.00"> </text>
<polyline fill="none" stroke="black" points="184.5,-130 213.5,-130 "/>
<text text-anchor="middle" x="199" y="-118" font-family="Helvetica,sans-Serif" font-size="10.00"> </text>
</a>
</g>
</g>
<!-- Node5&#45;&gt;Node1 -->
<g id="edge4" class="edge">
<title>Node5&#45;&gt;Node1</title>
<path fill="none" stroke="#404040" d="M199,-110.84C199,-98.34 199,-83.34 199,-69.68"/>
<polygon fill="none" stroke="#404040" points="199,-69.61 195,-63.61 199,-57.61 203,-63.61 199,-69.61"/>
<text text-anchor="middle" x="219" y="-79" font-family="Helvetica,sans-Serif" font-size="10.00"> +probe</text>
</g>
<!-- Node6 -->
<g id="node6" class="node">
<title>Node6</title>
<g id="a_node6"><a xlink:title=" ">
<polygon fill="white" stroke="black" points="231.5,-105.5 231.5,-173.5 338.5,-173.5 338.5,-105.5 231.5,-105.5"/>
<text text-anchor="start" x="239.5" y="-161.5" font-family="Helvetica,sans-Serif" font-size="10.00">void(*)(struct rtapi</text>
<text text-anchor="middle" x="285" y="-150.5" font-family="Helvetica,sans-Serif" font-size="10.00">_pci_dev *dev)</text>
<polyline fill="none" stroke="black" points="231.5,-143.5 338.5,-143.5 "/>
<text text-anchor="middle" x="285" y="-131.5" font-family="Helvetica,sans-Serif" font-size="10.00"> </text>
<polyline fill="none" stroke="black" points="231.5,-124.5 338.5,-124.5 "/>
<text text-anchor="middle" x="285" y="-112.5" font-family="Helvetica,sans-Serif" font-size="10.00"> </text>
</a>
</g>
</g>
<!-- Node6&#45;&gt;Node1 -->
<g id="edge5" class="edge">
<title>Node6&#45;&gt;Node1</title>
<path fill="none" stroke="#404040" d="M264.23,-105.31C257.76,-95.61 250.37,-85.17 243,-76 240.51,-72.9 237.84,-69.76 235.11,-66.66"/>
<polygon fill="none" stroke="#404040" points="234.87,-66.39 227.87,-64.65 226.79,-57.52 233.78,-59.26 234.87,-66.39"/>
<text text-anchor="middle" x="274.5" y="-79" font-family="Helvetica,sans-Serif" font-size="10.00"> +remove</text>
</g>
<!-- Node7 -->
<g id="node7" class="node">
<title>Node7</title>
<g id="a_node7"><a xlink:title=" ">
<polygon fill="white" stroke="black" points="357,-111 357,-168 403,-168 403,-111 357,-111"/>
<text text-anchor="middle" x="380" y="-156" font-family="Helvetica,sans-Serif" font-size="10.00">void *</text>
<polyline fill="none" stroke="black" points="357,-149 403,-149 "/>
<text text-anchor="middle" x="380" y="-137" font-family="Helvetica,sans-Serif" font-size="10.00"> </text>
<polyline fill="none" stroke="black" points="357,-130 403,-130 "/>
<text text-anchor="middle" x="380" y="-118" font-family="Helvetica,sans-Serif" font-size="10.00"> </text>
</a>
</g>
</g>
<!-- Node7&#45;&gt;Node1 -->
<g id="edge6" class="edge">
<title>Node7&#45;&gt;Node1</title>
<path fill="none" stroke="#404040" d="M356.85,-112.96C353.96,-110.17 350.98,-107.46 348,-105 320.8,-82.53 285.74,-64.46 256.47,-51.69"/>
<polygon fill="none" stroke="#404040" points="256.19,-51.58 249.11,-52.92 245.15,-46.89 252.23,-45.55 256.19,-51.58"/>
<text text-anchor="middle" x="358.5" y="-79" font-family="Helvetica,sans-Serif" font-size="10.00"> +private_data</text>
</g>
</g>
</svg>
