<?xml version="1.0" encoding="UTF-8" standalone="no"?>
<!DOCTYPE svg PUBLIC "-//W3C//DTD SVG 1.1//EN"
 "http://www.w3.org/Graphics/SVG/1.1/DTD/svg11.dtd">
<!-- Generated by graphviz version 2.43.0 (0)
 -->
<!-- Title: hal_encoder_t Pages: 1 -->
<svg width="290pt" height="215pt"
 viewBox="0.00 0.00 289.50 215.00" xmlns="http://www.w3.org/2000/svg" xmlns:xlink="http://www.w3.org/1999/xlink">
<g id="graph0" class="graph" transform="scale(1 1) rotate(0) translate(4 211)">
<title>hal_encoder_t</title>
<polygon fill="white" stroke="transparent" points="-4,4 -4,-211 285.5,-211 285.5,4 -4,4"/>
<!-- Node1 -->
<g id="node1" class="node">
<title>Node1</title>
<g id="a_node1"><a xlink:title="Canonical encoder interface structure for HAL.">
<polygon fill="#bfbfbf" stroke="black" points="39,-0.5 39,-57.5 124,-57.5 124,-0.5 39,-0.5"/>
<text text-anchor="middle" x="81.5" y="-45.5" font-family="Helvetica,sans-Serif" font-size="10.00">hal_encoder_t</text>
<polyline fill="none" stroke="black" points="39,-38.5 124,-38.5 "/>
<text text-anchor="middle" x="81.5" y="-26.5" font-family="Helvetica,sans-Serif" font-size="10.00"> </text>
<polyline fill="none" stroke="black" points="39,-19.5 124,-19.5 "/>
<text text-anchor="middle" x="81.5" y="-7.5" font-family="Helvetica,sans-Serif" font-size="10.00"> </text>
</a>
</g>
</g>
<!-- Node2 -->
<g id="node2" class="node">
<title>Node2</title>
<g id="a_node2"><a xlink:title=" ">
<polygon fill="white" stroke="black" points="0,-149.5 0,-206.5 29,-206.5 29,-149.5 0,-149.5"/>
<text text-anchor="middle" x="14.5" y="-194.5" font-family="Helvetica,sans-Serif" font-size="10.00">int</text>
<polyline fill="none" stroke="black" points="0,-187.5 29,-187.5 "/>
<text text-anchor="middle" x="14.5" y="-175.5" font-family="Helvetica,sans-Serif" font-size="10.00"> </text>
<polyline fill="none" stroke="black" points="0,-168.5 29,-168.5 "/>
<text text-anchor="middle" x="14.5" y="-156.5" font-family="Helvetica,sans-Serif" font-size="10.00"> </text>
</a>
</g>
</g>
<!-- Node2&#45;&gt;Node1 -->
<g id="edge1" class="edge">
<title>Node2&#45;&gt;Node1</title>
<path fill="none" stroke="#404040" d="M17.15,-149.49C20.08,-128.37 26.14,-99.03 38.5,-76 40.12,-72.97 42,-70 44.03,-67.11"/>
<polygon fill="none" stroke="#404040" points="44.05,-67.08 44.61,-59.89 51.46,-57.64 50.9,-64.83 44.05,-67.08"/>
<text text-anchor="middle" x="58" y="-101" font-family="Helvetica,sans-Serif" font-size="10.00"> +count</text>
</g>
<!-- Node3 -->
<g id="node3" class="node">
<title>Node3</title>
<g id="a_node3"><a xlink:title=" ">
<polygon fill="white" stroke="black" points="47.5,-149.5 47.5,-206.5 115.5,-206.5 115.5,-149.5 47.5,-149.5"/>
<text text-anchor="middle" x="81.5" y="-194.5" font-family="Helvetica,sans-Serif" font-size="10.00">hal_float_t</text>
<polyline fill="none" stroke="black" points="47.5,-187.5 115.5,-187.5 "/>
<text text-anchor="middle" x="81.5" y="-175.5" font-family="Helvetica,sans-Serif" font-size="10.00"> </text>
<polyline fill="none" stroke="black" points="47.5,-168.5 115.5,-168.5 "/>
<text text-anchor="middle" x="81.5" y="-156.5" font-family="Helvetica,sans-Serif" font-size="10.00"> </text>
</a>
</g>
</g>
<!-- Node3&#45;&gt;Node1 -->
<g id="edge2" class="edge">
<title>Node3&#45;&gt;Node1</title>
<path fill="none" stroke="#404040" d="M81.5,-149.35C81.5,-126.87 81.5,-94.85 81.5,-69.64"/>
<polygon fill="none" stroke="#404040" points="81.5,-69.53 77.5,-63.53 81.5,-57.53 85.5,-63.53 81.5,-69.53"/>
<text text-anchor="middle" x="132.5" y="-123" font-family="Helvetica,sans-Serif" font-size="10.00"> +max_index_vel</text>
<text text-anchor="middle" x="132.5" y="-112" font-family="Helvetica,sans-Serif" font-size="10.00">+position</text>
<text text-anchor="middle" x="132.5" y="-101" font-family="Helvetica,sans-Serif" font-size="10.00">+scale</text>
<text text-anchor="middle" x="132.5" y="-90" font-family="Helvetica,sans-Serif" font-size="10.00">+velocity</text>
<text text-anchor="middle" x="132.5" y="-79" font-family="Helvetica,sans-Serif" font-size="10.00">+velocity_resolution</text>
</g>
<!-- Node4 -->
<g id="node4" class="node">
<title>Node4</title>
<g id="a_node4"><a xlink:title=" ">
<polygon fill="white" stroke="black" points="187.5,-149.5 187.5,-206.5 225.5,-206.5 225.5,-149.5 187.5,-149.5"/>
<text text-anchor="middle" x="206.5" y="-194.5" font-family="Helvetica,sans-Serif" font-size="10.00">bool</text>
<polyline fill="none" stroke="black" points="187.5,-187.5 225.5,-187.5 "/>
<text text-anchor="middle" x="206.5" y="-175.5" font-family="Helvetica,sans-Serif" font-size="10.00"> </text>
<polyline fill="none" stroke="black" points="187.5,-168.5 225.5,-168.5 "/>
<text text-anchor="middle" x="206.5" y="-156.5" font-family="Helvetica,sans-Serif" font-size="10.00"> </text>
</a>
</g>
</g>
<!-- Node4&#45;&gt;Node1 -->
<g id="edge3" class="edge">
<title>Node4&#45;&gt;Node1</title>
<path fill="none" stroke="#404040" d="M207,-149.24C205.99,-127.15 201.25,-96.61 184.5,-76 172.08,-60.72 153.52,-50.35 135.57,-43.38"/>
<polygon fill="none" stroke="#404040" points="135.54,-43.37 128.56,-45.15 124.23,-39.38 131.22,-37.6 135.54,-43.37"/>
<text text-anchor="middle" x="243" y="-106.5" font-family="Helvetica,sans-Serif" font-size="10.00"> +index_enable</text>
<text text-anchor="middle" x="243" y="-95.5" font-family="Helvetica,sans-Serif" font-size="10.00">+reset</text>
</g>
</g>
</svg>
