<?xml version="1.0" encoding="UTF-8" standalone="no"?>
<!DOCTYPE svg PUBLIC "-//W3C//DTD SVG 1.1//EN"
 "http://www.w3.org/Graphics/SVG/1.1/DTD/svg11.dtd">
<!-- Generated by graphviz version 2.43.0 (0)
 -->
<!-- Title: rtapi_firmware Pages: 1 -->
<svg width="122pt" height="171pt"
 viewBox="0.00 0.00 121.50 171.00" xmlns="http://www.w3.org/2000/svg" xmlns:xlink="http://www.w3.org/1999/xlink">
<g id="graph0" class="graph" transform="scale(1 1) rotate(0) translate(4 167)">
<title>rtapi_firmware</title>
<polygon fill="white" stroke="transparent" points="-4,4 -4,-167 117.5,-167 117.5,4 -4,4"/>
<!-- Node1 -->
<g id="node1" class="node">
<title>Node1</title>
<g id="a_node1"><a xlink:title=" ">
<polygon fill="#bfbfbf" stroke="black" points="11.5,-0.5 11.5,-57.5 99.5,-57.5 99.5,-0.5 11.5,-0.5"/>
<text text-anchor="middle" x="55.5" y="-45.5" font-family="Helvetica,sans-Serif" font-size="10.00">rtapi_firmware</text>
<polyline fill="none" stroke="black" points="11.5,-38.5 99.5,-38.5 "/>
<text text-anchor="middle" x="55.5" y="-26.5" font-family="Helvetica,sans-Serif" font-size="10.00"> </text>
<polyline fill="none" stroke="black" points="11.5,-19.5 99.5,-19.5 "/>
<text text-anchor="middle" x="55.5" y="-7.5" font-family="Helvetica,sans-Serif" font-size="10.00"> </text>
</a>
</g>
</g>
<!-- Node2 -->
<g id="node2" class="node">
<title>Node2</title>
<g id="a_node2"><a xlink:title=" ">
<polygon fill="white" stroke="black" points="0,-105.5 0,-162.5 45,-162.5 45,-105.5 0,-105.5"/>
<text text-anchor="middle" x="22.5" y="-150.5" font-family="Helvetica,sans-Serif" font-size="10.00">size_t</text>
<polyline fill="none" stroke="black" points="0,-143.5 45,-143.5 "/>
<text text-anchor="middle" x="22.5" y="-131.5" font-family="Helvetica,sans-Serif" font-size="10.00"> </text>
<polyline fill="none" stroke="black" points="0,-124.5 45,-124.5 "/>
<text text-anchor="middle" x="22.5" y="-112.5" font-family="Helvetica,sans-Serif" font-size="10.00"> </text>
</a>
</g>
</g>
<!-- Node2&#45;&gt;Node1 -->
<g id="edge1" class="edge">
<title>Node2&#45;&gt;Node1</title>
<path fill="none" stroke="#404040" d="M27.7,-105.46C29.77,-96.02 32.4,-85.45 35.5,-76 36.23,-73.77 37.03,-71.49 37.88,-69.21"/>
<polygon fill="none" stroke="#404040" points="37.95,-69.05 36.45,-61.99 42.39,-57.9 43.88,-64.95 37.95,-69.05"/>
<text text-anchor="middle" x="51" y="-79" font-family="Helvetica,sans-Serif" font-size="10.00"> +size</text>
</g>
<!-- Node3 -->
<g id="node3" class="node">
<title>Node3</title>
<g id="a_node3"><a xlink:title=" ">
<polygon fill="white" stroke="black" points="63.5,-105.5 63.5,-162.5 113.5,-162.5 113.5,-105.5 63.5,-105.5"/>
<text text-anchor="middle" x="88.5" y="-150.5" font-family="Helvetica,sans-Serif" font-size="10.00">uint8_t</text>
<polyline fill="none" stroke="black" points="63.5,-143.5 113.5,-143.5 "/>
<text text-anchor="middle" x="88.5" y="-131.5" font-family="Helvetica,sans-Serif" font-size="10.00"> </text>
<polyline fill="none" stroke="black" points="63.5,-124.5 113.5,-124.5 "/>
<text text-anchor="middle" x="88.5" y="-112.5" font-family="Helvetica,sans-Serif" font-size="10.00"> </text>
</a>
</g>
</g>
<!-- Node3&#45;&gt;Node1 -->
<g id="edge2" class="edge">
<title>Node3&#45;&gt;Node1</title>
<path fill="none" stroke="#404040" d="M79.66,-105.4C76.11,-94.31 71.95,-81.33 68.09,-69.3"/>
<polygon fill="none" stroke="#404040" points="68.03,-69.11 62.39,-64.61 64.37,-57.68 70.01,-62.17 68.03,-69.11"/>
<text text-anchor="middle" x="89.5" y="-79" font-family="Helvetica,sans-Serif" font-size="10.00"> +data</text>
</g>
</g>
</svg>
