<?xml version="1.0" encoding="UTF-8" standalone="no"?>
<!DOCTYPE svg PUBLIC "-//W3C//DTD SVG 1.1//EN"
 "http://www.w3.org/Graphics/SVG/1.1/DTD/svg11.dtd">
<!-- Generated by graphviz version 2.43.0 (0)
 -->
<!-- Title: Arc9 Pages: 1 -->
<!--zoomable 469 -->
<svg id="main" version="1.1" xmlns="http://www.w3.org/2000/svg" xmlns:xlink="http://www.w3.org/1999/xlink" xml:space="preserve" onload="init(evt)">
<style type="text/css"><![CDATA[
.edge:hover path { stroke: red; }
.edge:hover polygon { stroke: red; fill: red; }
]]></style>
<script type="text/javascript"><![CDATA[
var edges = document.getElementsByTagName('g');
if (edges && edges.length) {
  for (var i=0;i<edges.length;i++) {
    if (edges[i].id.substr(0,4)=='edge') {
      edges[i].setAttribute('class','edge');
    }
  }
}
]]></script>
        <defs>
                <circle id="rim" cx="0" cy="0" r="7"/>
                <circle id="rim2" cx="0" cy="0" r="3.5"/>
                <g id="zoomPlus">
                        <use xlink:href="#rim" fill="#404040">
                                <set attributeName="fill" to="#808080" begin="zoomplus.mouseover" end="zoomplus.mouseout"/>
                        </use>
                        <path d="M-4,0h8M0,-4v8" fill="none" stroke="white" stroke-width="1.5" pointer-events="none"/>
                </g>
                <g id="zoomMin">
                        <use xlink:href="#rim" fill="#404040">
                                <set attributeName="fill" to="#808080" begin="zoomminus.mouseover" end="zoomminus.mouseout"/>
                        </use>
                        <path d="M-4,0h8" fill="none" stroke="white" stroke-width="1.5" pointer-events="none"/>
                </g>
                <g id="dirArrow">
                        <path fill="none" stroke="white" stroke-width="1.5" d="M0,-3.0v7 M-2.5,-0.5L0,-3.0L2.5,-0.5"/>
                </g>
               <g id="resetDef">
                       <use xlink:href="#rim2" fill="#404040">
                               <set attributeName="fill" to="#808080" begin="reset.mouseover" end="reset.mouseout"/>
                       </use>
               </g>
        </defs>

<script type="text/javascript">
var viewWidth = 178;
var viewHeight = 469;
var sectionId = 'dynsection-0';
</script>
<script xlink:href="svgpan.js"/>
<svg id="graph" class="graph">
<g id="viewport">
<title>Arc9</title>
<polygon fill="white" stroke="transparent" points="-4,4 -4,-465 173.5,-465 173.5,4 -4,4"/>
<!-- Node1 -->
<g id="node1" class="node">
<title>Node1</title>
<g id="a_node1"><a xlink:title=" ">
<polygon fill="#bfbfbf" stroke="black" points="74,-0.5 74,-57.5 112,-57.5 112,-0.5 74,-0.5"/>
<text text-anchor="middle" x="93" y="-45.5" font-family="Helvetica,sans-Serif" font-size="10.00">Arc9</text>
<polyline fill="none" stroke="black" points="74,-38.5 112,-38.5 "/>
<text text-anchor="middle" x="93" y="-26.5" font-family="Helvetica,sans-Serif" font-size="10.00"> </text>
<polyline fill="none" stroke="black" points="74,-19.5 112,-19.5 "/>
<text text-anchor="middle" x="93" y="-7.5" font-family="Helvetica,sans-Serif" font-size="10.00"> </text>
</a>
</g>
</g>
<!-- Node2 -->
<g id="node2" class="node">
<title>Node2</title>
<g id="a_node2"><a xlink:href="structSphericalArc.html" target="_top" xlink:title=" ">
<polygon fill="white" stroke="black" points="16.5,-105.5 16.5,-162.5 93.5,-162.5 93.5,-105.5 16.5,-105.5"/>
<text text-anchor="middle" x="55" y="-150.5" font-family="Helvetica,sans-Serif" font-size="10.00">SphericalArc</text>
<polyline fill="none" stroke="black" points="16.5,-143.5 93.5,-143.5 "/>
<text text-anchor="middle" x="55" y="-131.5" font-family="Helvetica,sans-Serif" font-size="10.00"> </text>
<polyline fill="none" stroke="black" points="16.5,-124.5 93.5,-124.5 "/>
<text text-anchor="middle" x="55" y="-112.5" font-family="Helvetica,sans-Serif" font-size="10.00"> </text>
</a>
</g>
</g>
<!-- Node2&#45;&gt;Node1 -->
<g id="edge1" class="edge">
<title>Node2&#45;&gt;Node1</title>
<path fill="none" stroke="#404040" d="M65.18,-105.4C69.27,-94.31 74.06,-81.33 78.5,-69.3"/>
<polygon fill="none" stroke="#404040" points="78.63,-68.94 76.96,-61.92 82.79,-57.68 84.46,-64.69 78.63,-68.94"/>
<text text-anchor="middle" x="89.5" y="-79" font-family="Helvetica,sans-Serif" font-size="10.00"> +xyz</text>
</g>
<!-- Node3 -->
<g id="node3" class="node">
<title>Node3</title>
<g id="a_node3"><a xlink:href="structPmCartesian.html" target="_top" xlink:title=" ">
<polygon fill="white" stroke="black" points="90.5,-276.5 90.5,-333.5 169.5,-333.5 169.5,-276.5 90.5,-276.5"/>
<text text-anchor="middle" x="130" y="-321.5" font-family="Helvetica,sans-Serif" font-size="10.00">PmCartesian</text>
<polyline fill="none" stroke="black" points="90.5,-314.5 169.5,-314.5 "/>
<text text-anchor="middle" x="130" y="-302.5" font-family="Helvetica,sans-Serif" font-size="10.00"> </text>
<polyline fill="none" stroke="black" points="90.5,-295.5 169.5,-295.5 "/>
<text text-anchor="middle" x="130" y="-283.5" font-family="Helvetica,sans-Serif" font-size="10.00"> </text>
</a>
</g>
</g>
<!-- Node3&#45;&gt;Node1 -->
<g id="edge5" class="edge">
<title>Node3&#45;&gt;Node1</title>
<path fill="none" stroke="#404040" d="M129.28,-276.33C127.72,-233.14 122.86,-147.24 108,-76 107.56,-73.87 107.05,-71.7 106.5,-69.53"/>
<polygon fill="none" stroke="#404040" points="106.49,-69.49 100.99,-64.82 103.19,-57.96 108.69,-62.63 106.49,-69.49"/>
<text text-anchor="middle" x="135.5" y="-137" font-family="Helvetica,sans-Serif" font-size="10.00"> +abc</text>
<text text-anchor="middle" x="135.5" y="-126" font-family="Helvetica,sans-Serif" font-size="10.00">+uvw</text>
</g>
<!-- Node3&#45;&gt;Node2 -->
<g id="edge2" class="edge">
<title>Node3&#45;&gt;Node2</title>
<path fill="none" stroke="#404040" d="M90.46,-286.42C78.99,-279.3 67.75,-269.9 61,-258 46.79,-232.94 45.88,-200.19 48.2,-174.78"/>
<polygon fill="none" stroke="#404040" points="48.23,-174.53 44.94,-168.11 49.61,-162.61 52.89,-169.03 48.23,-174.53"/>
<text text-anchor="middle" x="88.5" y="-250" font-family="Helvetica,sans-Serif" font-size="10.00"> +binormal</text>
<text text-anchor="middle" x="88.5" y="-239" font-family="Helvetica,sans-Serif" font-size="10.00">+center</text>
<text text-anchor="middle" x="88.5" y="-228" font-family="Helvetica,sans-Serif" font-size="10.00">+end</text>
<text text-anchor="middle" x="88.5" y="-217" font-family="Helvetica,sans-Serif" font-size="10.00">+rEnd</text>
<text text-anchor="middle" x="88.5" y="-206" font-family="Helvetica,sans-Serif" font-size="10.00">+rStart</text>
<text text-anchor="middle" x="88.5" y="-195" font-family="Helvetica,sans-Serif" font-size="10.00">+start</text>
<text text-anchor="middle" x="88.5" y="-184" font-family="Helvetica,sans-Serif" font-size="10.00">+uTan</text>
</g>
<!-- Node4 -->
<g id="node4" class="node">
<title>Node4</title>
<g id="a_node4"><a xlink:title=" ">
<polygon fill="white" stroke="black" points="0,-403.5 0,-460.5 50,-460.5 50,-403.5 0,-403.5"/>
<text text-anchor="middle" x="25" y="-448.5" font-family="Helvetica,sans-Serif" font-size="10.00">double</text>
<polyline fill="none" stroke="black" points="0,-441.5 50,-441.5 "/>
<text text-anchor="middle" x="25" y="-429.5" font-family="Helvetica,sans-Serif" font-size="10.00"> </text>
<polyline fill="none" stroke="black" points="0,-422.5 50,-422.5 "/>
<text text-anchor="middle" x="25" y="-410.5" font-family="Helvetica,sans-Serif" font-size="10.00"> </text>
</a>
</g>
</g>
<!-- Node4&#45;&gt;Node2 -->
<g id="edge4" class="edge">
<title>Node4&#45;&gt;Node2</title>
<path fill="none" stroke="#404040" d="M22.84,-403.43C21.43,-384.02 19.72,-357.44 19,-334 18.2,-308.23 15.82,-301.58 19,-276 24.37,-232.78 32.17,-223.18 43,-181 43.55,-178.87 44.11,-176.69 44.68,-174.49"/>
<polygon fill="none" stroke="#404040" points="44.72,-174.34 42.35,-167.52 47.73,-162.72 50.1,-169.53 44.72,-174.34"/>
<text text-anchor="middle" x="50.5" y="-324.5" font-family="Helvetica,sans-Serif" font-size="10.00"> +Sangle</text>
<text text-anchor="middle" x="50.5" y="-313.5" font-family="Helvetica,sans-Serif" font-size="10.00">+angle</text>
<text text-anchor="middle" x="50.5" y="-302.5" font-family="Helvetica,sans-Serif" font-size="10.00">+line_length</text>
<text text-anchor="middle" x="50.5" y="-291.5" font-family="Helvetica,sans-Serif" font-size="10.00">+radius</text>
<text text-anchor="middle" x="50.5" y="-280.5" font-family="Helvetica,sans-Serif" font-size="10.00">+spiral</text>
</g>
<!-- Node4&#45;&gt;Node3 -->
<g id="edge3" class="edge">
<title>Node4&#45;&gt;Node3</title>
<path fill="none" stroke="#404040" d="M48.3,-403.26C63.19,-385.54 82.67,-362.35 98.87,-343.06"/>
<polygon fill="none" stroke="#404040" points="99.04,-342.85 99.84,-335.69 106.76,-333.66 105.97,-340.83 99.04,-342.85"/>
<text text-anchor="middle" x="98" y="-377" font-family="Helvetica,sans-Serif" font-size="10.00"> +x</text>
<text text-anchor="middle" x="98" y="-366" font-family="Helvetica,sans-Serif" font-size="10.00">+y</text>
<text text-anchor="middle" x="98" y="-355" font-family="Helvetica,sans-Serif" font-size="10.00">+z</text>
</g>
</g>
</svg>
        <g id="navigator" transform="translate(0 0)" fill="#404254">
                <rect fill="#f2f5e9" fill-opacity="0.5" stroke="#606060" stroke-width=".5" x="0" y="0" width="60" height="60"/>
                <use id="zoomplus" xlink:href="#zoomPlus" x="17" y="9" onmousedown="handleZoom(evt,'in')"/>
                <use id="zoomminus" xlink:href="#zoomMin" x="42" y="9" onmousedown="handleZoom(evt,'out')"/>
                <use id="reset" xlink:href="#resetDef" x="30" y="36" onmousedown="handleReset()"/>
                <g id="arrowUp" xlink:href="#dirArrow" transform="translate(30 24)" onmousedown="handlePan(0,-1)">
                  <use xlink:href="#rim" fill="#404040">
                        <set attributeName="fill" to="#808080" begin="arrowUp.mouseover" end="arrowUp.mouseout"/>
                  </use>
                  <path fill="none" stroke="white" stroke-width="1.5" d="M0,-3.0v7 M-2.5,-0.5L0,-3.0L2.5,-0.5"/>
                </g>
                <g id="arrowRight" xlink:href="#dirArrow" transform="rotate(90) translate(36 -43)" onmousedown="handlePan(1,0)">
                  <use xlink:href="#rim" fill="#404040">
                        <set attributeName="fill" to="#808080" begin="arrowRight.mouseover" end="arrowRight.mouseout"/>
                  </use>
                  <path fill="none" stroke="white" stroke-width="1.5" d="M0,-3.0v7 M-2.5,-0.5L0,-3.0L2.5,-0.5"/>
                </g>
                <g id="arrowDown" xlink:href="#dirArrow" transform="rotate(180) translate(-30 -48)" onmousedown="handlePan(0,1)">
                  <use xlink:href="#rim" fill="#404040">
                        <set attributeName="fill" to="#808080" begin="arrowDown.mouseover" end="arrowDown.mouseout"/>
                  </use>
                  <path fill="none" stroke="white" stroke-width="1.5" d="M0,-3.0v7 M-2.5,-0.5L0,-3.0L2.5,-0.5"/>
                </g>
                <g id="arrowLeft" xlink:href="#dirArrow" transform="rotate(270) translate(-36 17)" onmousedown="handlePan(-1,0)">
                  <use xlink:href="#rim" fill="#404040">
                        <set attributeName="fill" to="#808080" begin="arrowLeft.mouseover" end="arrowLeft.mouseout"/>
                  </use>
                  <path fill="none" stroke="white" stroke-width="1.5" d="M0,-3.0v7 M-2.5,-0.5L0,-3.0L2.5,-0.5"/>
                </g>
        </g>
        <svg viewBox="0 0 15 15" width="100%" height="30px" preserveAspectRatio="xMaxYMin meet">
         <g id="arrow_out" transform="scale(0.3 0.3)">
          <a xlink:href="structArc9__coll__graph_org.svg" target="_base">
           <rect id="button" ry="5" rx="5" y="6" x="6" height="38" width="38"
                fill="#f2f5e9" fill-opacity="0.5" stroke="#606060" stroke-width="1.0"/>
           <path id="arrow"
             d="M 11.500037,31.436501 C 11.940474,20.09759 22.043105,11.32322 32.158766,21.979434 L 37.068811,17.246167 C 37.068811,17.246167 37.088388,32 37.088388,32 L 22.160133,31.978069 C 22.160133,31.978069 26.997745,27.140456 26.997745,27.140456 C 18.528582,18.264221 13.291696,25.230495 11.500037,31.436501 z"
             style="fill:#404040;"/>
          </a>
         </g>
        </svg>
</svg>
