<?xml version="1.0" encoding="UTF-8" standalone="no"?>
<!DOCTYPE svg PUBLIC "-//W3C//DTD SVG 1.1//EN"
 "http://www.w3.org/Graphics/SVG/1.1/DTD/svg11.dtd">
<!-- Generated by graphviz version 2.43.0 (0)
 -->
<!-- Title: emcmot_comp_t Pages: 1 -->
<svg width="206pt" height="320pt"
 viewBox="0.00 0.00 205.50 320.00" xmlns="http://www.w3.org/2000/svg" xmlns:xlink="http://www.w3.org/1999/xlink">
<g id="graph0" class="graph" transform="scale(1 1) rotate(0) translate(4 316)">
<title>emcmot_comp_t</title>
<polygon fill="white" stroke="transparent" points="-4,4 -4,-316 201.5,-316 201.5,4 -4,4"/>
<!-- Node1 -->
<g id="node1" class="node">
<title>Node1</title>
<g id="a_node1"><a xlink:title=" ">
<polygon fill="#bfbfbf" stroke="black" points="6.5,-0.5 6.5,-57.5 104.5,-57.5 104.5,-0.5 6.5,-0.5"/>
<text text-anchor="middle" x="55.5" y="-45.5" font-family="Helvetica,sans-Serif" font-size="10.00">emcmot_comp_t</text>
<polyline fill="none" stroke="black" points="6.5,-38.5 104.5,-38.5 "/>
<text text-anchor="middle" x="55.5" y="-26.5" font-family="Helvetica,sans-Serif" font-size="10.00"> </text>
<polyline fill="none" stroke="black" points="6.5,-19.5 104.5,-19.5 "/>
<text text-anchor="middle" x="55.5" y="-7.5" font-family="Helvetica,sans-Serif" font-size="10.00"> </text>
</a>
</g>
</g>
<!-- Node2 -->
<g id="node2" class="node">
<title>Node2</title>
<g id="a_node2"><a xlink:title=" ">
<polygon fill="white" stroke="black" points="0,-116.5 0,-173.5 29,-173.5 29,-116.5 0,-116.5"/>
<text text-anchor="middle" x="14.5" y="-161.5" font-family="Helvetica,sans-Serif" font-size="10.00">int</text>
<polyline fill="none" stroke="black" points="0,-154.5 29,-154.5 "/>
<text text-anchor="middle" x="14.5" y="-142.5" font-family="Helvetica,sans-Serif" font-size="10.00"> </text>
<polyline fill="none" stroke="black" points="0,-135.5 29,-135.5 "/>
<text text-anchor="middle" x="14.5" y="-123.5" font-family="Helvetica,sans-Serif" font-size="10.00"> </text>
</a>
</g>
</g>
<!-- Node2&#45;&gt;Node1 -->
<g id="edge1" class="edge">
<title>Node2&#45;&gt;Node1</title>
<path fill="none" stroke="#404040" d="M18.68,-116.32C21.06,-103.76 24.57,-88.87 29.5,-76 30.46,-73.49 31.54,-70.96 32.7,-68.44"/>
<polygon fill="none" stroke="#404040" points="32.78,-68.29 31.9,-61.13 38.17,-57.57 39.05,-64.73 32.78,-68.29"/>
<text text-anchor="middle" x="52.5" y="-84.5" font-family="Helvetica,sans-Serif" font-size="10.00"> +entries</text>
</g>
<!-- Node3 -->
<g id="node3" class="node">
<title>Node3</title>
<g id="a_node3"><a xlink:href="structemcmot__comp__entry__t.html" target="_top" xlink:title=" ">
<polygon fill="white" stroke="black" points="47,-116.5 47,-173.5 176,-173.5 176,-116.5 47,-116.5"/>
<text text-anchor="middle" x="111.5" y="-161.5" font-family="Helvetica,sans-Serif" font-size="10.00">emcmot_comp_entry_t</text>
<polyline fill="none" stroke="black" points="47,-154.5 176,-154.5 "/>
<text text-anchor="middle" x="111.5" y="-142.5" font-family="Helvetica,sans-Serif" font-size="10.00"> </text>
<polyline fill="none" stroke="black" points="47,-135.5 176,-135.5 "/>
<text text-anchor="middle" x="111.5" y="-123.5" font-family="Helvetica,sans-Serif" font-size="10.00"> </text>
</a>
</g>
</g>
<!-- Node3&#45;&gt;Node1 -->
<g id="edge2" class="edge">
<title>Node3&#45;&gt;Node1</title>
<path fill="none" stroke="#404040" d="M97.94,-116.4C90.91,-102.09 82.2,-84.36 74.51,-68.7"/>
<polygon fill="none" stroke="#404040" points="74.42,-68.51 68.18,-64.89 69.13,-57.74 75.36,-61.36 74.42,-68.51"/>
<text text-anchor="middle" x="107" y="-90" font-family="Helvetica,sans-Serif" font-size="10.00"> +array</text>
<text text-anchor="middle" x="107" y="-79" font-family="Helvetica,sans-Serif" font-size="10.00">+entry</text>
</g>
<!-- Node4 -->
<g id="node4" class="node">
<title>Node4</title>
<g id="a_node4"><a xlink:title=" ">
<polygon fill="white" stroke="black" points="48.5,-254.5 48.5,-311.5 98.5,-311.5 98.5,-254.5 48.5,-254.5"/>
<text text-anchor="middle" x="73.5" y="-299.5" font-family="Helvetica,sans-Serif" font-size="10.00">double</text>
<polyline fill="none" stroke="black" points="48.5,-292.5 98.5,-292.5 "/>
<text text-anchor="middle" x="73.5" y="-280.5" font-family="Helvetica,sans-Serif" font-size="10.00"> </text>
<polyline fill="none" stroke="black" points="48.5,-273.5 98.5,-273.5 "/>
<text text-anchor="middle" x="73.5" y="-261.5" font-family="Helvetica,sans-Serif" font-size="10.00"> </text>
</a>
</g>
</g>
<!-- Node4&#45;&gt;Node3 -->
<g id="edge3" class="edge">
<title>Node4&#45;&gt;Node3</title>
<path fill="none" stroke="#404040" d="M67.15,-254.31C64.25,-236.03 62.93,-211.87 70.5,-192 71.6,-189.11 72.97,-186.29 74.54,-183.56"/>
<polygon fill="none" stroke="#404040" points="74.65,-183.41 74.74,-176.19 81.42,-173.5 81.34,-180.71 74.65,-183.41"/>
<text text-anchor="middle" x="96.5" y="-211.5" font-family="Helvetica,sans-Serif" font-size="10.00"> +nominal</text>
</g>
<!-- Node5 -->
<g id="node5" class="node">
<title>Node5</title>
<g id="a_node5"><a xlink:title=" ">
<polygon fill="white" stroke="black" points="129.5,-254.5 129.5,-311.5 167.5,-311.5 167.5,-254.5 129.5,-254.5"/>
<text text-anchor="middle" x="148.5" y="-299.5" font-family="Helvetica,sans-Serif" font-size="10.00">float</text>
<polyline fill="none" stroke="black" points="129.5,-292.5 167.5,-292.5 "/>
<text text-anchor="middle" x="148.5" y="-280.5" font-family="Helvetica,sans-Serif" font-size="10.00"> </text>
<polyline fill="none" stroke="black" points="129.5,-273.5 167.5,-273.5 "/>
<text text-anchor="middle" x="148.5" y="-261.5" font-family="Helvetica,sans-Serif" font-size="10.00"> </text>
</a>
</g>
</g>
<!-- Node5&#45;&gt;Node3 -->
<g id="edge4" class="edge">
<title>Node5&#45;&gt;Node3</title>
<path fill="none" stroke="#404040" d="M142.3,-254.29C138.16,-236.42 132.4,-212.73 126.5,-192 125.86,-189.76 125.19,-187.46 124.49,-185.15"/>
<polygon fill="none" stroke="#404040" points="124.46,-185.08 118.86,-180.55 120.88,-173.63 126.49,-178.16 124.46,-185.08"/>
<text text-anchor="middle" x="167" y="-228" font-family="Helvetica,sans-Serif" font-size="10.00"> +fwd_slope</text>
<text text-anchor="middle" x="167" y="-217" font-family="Helvetica,sans-Serif" font-size="10.00">+fwd_trim</text>
<text text-anchor="middle" x="167" y="-206" font-family="Helvetica,sans-Serif" font-size="10.00">+rev_slope</text>
<text text-anchor="middle" x="167" y="-195" font-family="Helvetica,sans-Serif" font-size="10.00">+rev_trim</text>
</g>
</g>
</svg>
