<?xml version="1.0" encoding="UTF-8" standalone="no"?>
<!DOCTYPE svg PUBLIC "-//W3C//DTD SVG 1.1//EN"
 "http://www.w3.org/Graphics/SVG/1.1/DTD/svg11.dtd">
<!-- Generated by graphviz version 2.43.0 (0)
 -->
<!-- Title: sPoKeysNetworkDeviceSummary Pages: 1 -->
<svg width="216pt" height="259pt"
 viewBox="0.00 0.00 215.50 259.00" xmlns="http://www.w3.org/2000/svg" xmlns:xlink="http://www.w3.org/1999/xlink">
<g id="graph0" class="graph" transform="scale(1 1) rotate(0) translate(4 255)">
<title>sPoKeysNetworkDeviceSummary</title>
<polygon fill="white" stroke="transparent" points="-4,4 -4,-255 211.5,-255 211.5,4 -4,4"/>
<!-- Node1 -->
<g id="node1" class="node">
<title>Node1</title>
<g id="a_node1"><a xlink:title=" ">
<polygon fill="#bfbfbf" stroke="black" points="0,-0.5 0,-57.5 179,-57.5 179,-0.5 0,-0.5"/>
<text text-anchor="middle" x="89.5" y="-45.5" font-family="Helvetica,sans-Serif" font-size="10.00">sPoKeysNetworkDeviceSummary</text>
<polyline fill="none" stroke="black" points="0,-38.5 179,-38.5 "/>
<text text-anchor="middle" x="89.5" y="-26.5" font-family="Helvetica,sans-Serif" font-size="10.00"> </text>
<polyline fill="none" stroke="black" points="0,-19.5 179,-19.5 "/>
<text text-anchor="middle" x="89.5" y="-7.5" font-family="Helvetica,sans-Serif" font-size="10.00"> </text>
</a>
</g>
</g>
<!-- Node2 -->
<g id="node2" class="node">
<title>Node2</title>
<g id="a_node2"><a xlink:title=" ">
<polygon fill="white" stroke="black" points="59,-193.5 59,-250.5 120,-250.5 120,-193.5 59,-193.5"/>
<text text-anchor="middle" x="89.5" y="-238.5" font-family="Helvetica,sans-Serif" font-size="10.00">unsigned</text>
<polyline fill="none" stroke="black" points="59,-231.5 120,-231.5 "/>
<text text-anchor="middle" x="89.5" y="-219.5" font-family="Helvetica,sans-Serif" font-size="10.00"> </text>
<polyline fill="none" stroke="black" points="59,-212.5 120,-212.5 "/>
<text text-anchor="middle" x="89.5" y="-200.5" font-family="Helvetica,sans-Serif" font-size="10.00"> </text>
</a>
</g>
</g>
<!-- Node2&#45;&gt;Node1 -->
<g id="edge1" class="edge">
<title>Node2&#45;&gt;Node1</title>
<path fill="none" stroke="#404040" d="M89.5,-193.23C89.5,-160.83 89.5,-107.02 89.5,-70.1"/>
<polygon fill="none" stroke="#404040" points="89.5,-69.81 85.5,-63.81 89.5,-57.81 93.5,-63.81 89.5,-69.81"/>
<text text-anchor="middle" x="148.5" y="-167" font-family="Helvetica,sans-Serif" font-size="10.00"> +DHCP</text>
<text text-anchor="middle" x="148.5" y="-156" font-family="Helvetica,sans-Serif" font-size="10.00">+FirmwareVersionMajor</text>
<text text-anchor="middle" x="148.5" y="-145" font-family="Helvetica,sans-Serif" font-size="10.00">+FirmwareVersionMinor</text>
<text text-anchor="middle" x="148.5" y="-134" font-family="Helvetica,sans-Serif" font-size="10.00">+HWtype</text>
<text text-anchor="middle" x="148.5" y="-123" font-family="Helvetica,sans-Serif" font-size="10.00">+IPaddress</text>
<text text-anchor="middle" x="148.5" y="-112" font-family="Helvetica,sans-Serif" font-size="10.00">+SerialNumber</text>
<text text-anchor="middle" x="148.5" y="-101" font-family="Helvetica,sans-Serif" font-size="10.00">+UserID</text>
<text text-anchor="middle" x="148.5" y="-90" font-family="Helvetica,sans-Serif" font-size="10.00">+hostIP</text>
<text text-anchor="middle" x="148.5" y="-79" font-family="Helvetica,sans-Serif" font-size="10.00">+useUDP</text>
</g>
</g>
</svg>
