<?xml version="1.0" encoding="UTF-8" standalone="no"?>
<!DOCTYPE svg PUBLIC "-//W3C//DTD SVG 1.1//EN"
 "http://www.w3.org/Graphics/SVG/1.1/DTD/svg11.dtd">
<!-- Generated by graphviz version 2.43.0 (0)
 -->
<!-- Title: BUFFERS_LIST_NODE Pages: 1 -->
<svg width="170pt" height="171pt"
 viewBox="0.00 0.00 170.00 171.00" xmlns="http://www.w3.org/2000/svg" xmlns:xlink="http://www.w3.org/1999/xlink">
<g id="graph0" class="graph" transform="scale(1 1) rotate(0) translate(4 167)">
<title>BUFFERS_LIST_NODE</title>
<polygon fill="white" stroke="transparent" points="-4,4 -4,-167 166,-167 166,4 -4,4"/>
<!-- Node1 -->
<g id="node1" class="node">
<title>Node1</title>
<g id="a_node1"><a xlink:title=" ">
<polygon fill="#bfbfbf" stroke="black" points="22.5,-0.5 22.5,-57.5 143.5,-57.5 143.5,-0.5 22.5,-0.5"/>
<text text-anchor="middle" x="83" y="-45.5" font-family="Helvetica,sans-Serif" font-size="10.00">BUFFERS_LIST_NODE</text>
<polyline fill="none" stroke="black" points="22.5,-38.5 143.5,-38.5 "/>
<text text-anchor="middle" x="83" y="-26.5" font-family="Helvetica,sans-Serif" font-size="10.00"> </text>
<polyline fill="none" stroke="black" points="22.5,-19.5 143.5,-19.5 "/>
<text text-anchor="middle" x="83" y="-7.5" font-family="Helvetica,sans-Serif" font-size="10.00"> </text>
</a>
</g>
</g>
<!-- Node2 -->
<g id="node2" class="node">
<title>Node2</title>
<g id="a_node2"><a xlink:title=" ">
<polygon fill="white" stroke="black" points="0,-105.5 0,-162.5 46,-162.5 46,-105.5 0,-105.5"/>
<text text-anchor="middle" x="23" y="-150.5" font-family="Helvetica,sans-Serif" font-size="10.00">void *</text>
<polyline fill="none" stroke="black" points="0,-143.5 46,-143.5 "/>
<text text-anchor="middle" x="23" y="-131.5" font-family="Helvetica,sans-Serif" font-size="10.00"> </text>
<polyline fill="none" stroke="black" points="0,-124.5 46,-124.5 "/>
<text text-anchor="middle" x="23" y="-112.5" font-family="Helvetica,sans-Serif" font-size="10.00"> </text>
</a>
</g>
</g>
<!-- Node2&#45;&gt;Node1 -->
<g id="edge1" class="edge">
<title>Node2&#45;&gt;Node1</title>
<path fill="none" stroke="#404040" d="M31.58,-105.5C35.11,-95.86 39.64,-85.16 45,-76 46.66,-73.16 48.49,-70.32 50.43,-67.53"/>
<polygon fill="none" stroke="#404040" points="50.61,-67.28 50.98,-60.08 57.77,-57.65 57.4,-64.85 50.61,-67.28"/>
<text text-anchor="middle" x="62" y="-79" font-family="Helvetica,sans-Serif" font-size="10.00"> +addr</text>
</g>
<!-- Node3 -->
<g id="node3" class="node">
<title>Node3</title>
<g id="a_node3"><a xlink:title=" ">
<polygon fill="white" stroke="black" points="64,-105.5 64,-162.5 102,-162.5 102,-105.5 64,-105.5"/>
<text text-anchor="middle" x="83" y="-150.5" font-family="Helvetica,sans-Serif" font-size="10.00">long</text>
<polyline fill="none" stroke="black" points="64,-143.5 102,-143.5 "/>
<text text-anchor="middle" x="83" y="-131.5" font-family="Helvetica,sans-Serif" font-size="10.00"> </text>
<polyline fill="none" stroke="black" points="64,-124.5 102,-124.5 "/>
<text text-anchor="middle" x="83" y="-112.5" font-family="Helvetica,sans-Serif" font-size="10.00"> </text>
</a>
</g>
</g>
<!-- Node3&#45;&gt;Node1 -->
<g id="edge2" class="edge">
<title>Node3&#45;&gt;Node1</title>
<path fill="none" stroke="#404040" d="M83,-105.4C83,-94.55 83,-81.87 83,-70.05"/>
<polygon fill="none" stroke="#404040" points="83,-69.68 79,-63.68 83,-57.68 87,-63.68 83,-69.68"/>
<text text-anchor="middle" x="98.5" y="-79" font-family="Helvetica,sans-Serif" font-size="10.00"> +size</text>
</g>
<!-- Node4 -->
<g id="node4" class="node">
<title>Node4</title>
<g id="a_node4"><a xlink:title=" ">
<polygon fill="white" stroke="black" points="120,-105.5 120,-162.5 158,-162.5 158,-105.5 120,-105.5"/>
<text text-anchor="middle" x="139" y="-150.5" font-family="Helvetica,sans-Serif" font-size="10.00">char</text>
<polyline fill="none" stroke="black" points="120,-143.5 158,-143.5 "/>
<text text-anchor="middle" x="139" y="-131.5" font-family="Helvetica,sans-Serif" font-size="10.00"> </text>
<polyline fill="none" stroke="black" points="120,-124.5 158,-124.5 "/>
<text text-anchor="middle" x="139" y="-112.5" font-family="Helvetica,sans-Serif" font-size="10.00"> </text>
</a>
</g>
</g>
<!-- Node4&#45;&gt;Node1 -->
<g id="edge3" class="edge">
<title>Node4&#45;&gt;Node1</title>
<path fill="none" stroke="#404040" d="M130.03,-105.36C126.49,-95.81 122.06,-85.2 117,-76 115.54,-73.33 113.93,-70.65 112.25,-67.98"/>
<polygon fill="none" stroke="#404040" points="112.17,-67.86 105.5,-65.13 105.46,-57.91 112.13,-60.65 112.17,-67.86"/>
<text text-anchor="middle" x="142" y="-79" font-family="Helvetica,sans-Serif" font-size="10.00"> +name</text>
</g>
</g>
</svg>
