<?xml version="1.0" encoding="UTF-8" standalone="no"?>
<!DOCTYPE svg PUBLIC "-//W3C//DTD SVG 1.1//EN"
 "http://www.w3.org/Graphics/SVG/1.1/DTD/svg11.dtd">
<!-- Generated by graphviz version 2.43.0 (0)
 -->
<!-- Title: sPoKeysCANmsg Pages: 1 -->
<svg width="190pt" height="215pt"
 viewBox="0.00 0.00 189.50 215.00" xmlns="http://www.w3.org/2000/svg" xmlns:xlink="http://www.w3.org/1999/xlink">
<g id="graph0" class="graph" transform="scale(1 1) rotate(0) translate(4 211)">
<title>sPoKeysCANmsg</title>
<polygon fill="white" stroke="transparent" points="-4,4 -4,-211 185.5,-211 185.5,4 -4,4"/>
<!-- Node1 -->
<g id="node1" class="node">
<title>Node1</title>
<g id="a_node1"><a xlink:title=" ">
<polygon fill="#bfbfbf" stroke="black" points="31,-0.5 31,-57.5 130,-57.5 130,-0.5 31,-0.5"/>
<text text-anchor="middle" x="80.5" y="-45.5" font-family="Helvetica,sans-Serif" font-size="10.00">sPoKeysCANmsg</text>
<polyline fill="none" stroke="black" points="31,-38.5 130,-38.5 "/>
<text text-anchor="middle" x="80.5" y="-26.5" font-family="Helvetica,sans-Serif" font-size="10.00"> </text>
<polyline fill="none" stroke="black" points="31,-19.5 130,-19.5 "/>
<text text-anchor="middle" x="80.5" y="-7.5" font-family="Helvetica,sans-Serif" font-size="10.00"> </text>
</a>
</g>
</g>
<!-- Node2 -->
<g id="node2" class="node">
<title>Node2</title>
<g id="a_node2"><a xlink:title=" ">
<polygon fill="white" stroke="black" points="0,-149.5 0,-206.5 61,-206.5 61,-149.5 0,-149.5"/>
<text text-anchor="middle" x="30.5" y="-194.5" font-family="Helvetica,sans-Serif" font-size="10.00">unsigned</text>
<polyline fill="none" stroke="black" points="0,-187.5 61,-187.5 "/>
<text text-anchor="middle" x="30.5" y="-175.5" font-family="Helvetica,sans-Serif" font-size="10.00"> </text>
<polyline fill="none" stroke="black" points="0,-168.5 61,-168.5 "/>
<text text-anchor="middle" x="30.5" y="-156.5" font-family="Helvetica,sans-Serif" font-size="10.00"> </text>
</a>
</g>
</g>
<!-- Node2&#45;&gt;Node1 -->
<g id="edge1" class="edge">
<title>Node2&#45;&gt;Node1</title>
<path fill="none" stroke="#404040" d="M39.9,-149.35C47.62,-126.66 58.64,-94.27 67.25,-68.95"/>
<polygon fill="none" stroke="#404040" points="67.27,-68.89 65.42,-61.92 71.14,-57.53 72.99,-64.49 67.27,-68.89"/>
<text text-anchor="middle" x="85.5" y="-123" font-family="Helvetica,sans-Serif" font-size="10.00"> +data</text>
<text text-anchor="middle" x="85.5" y="-112" font-family="Helvetica,sans-Serif" font-size="10.00">+format</text>
<text text-anchor="middle" x="85.5" y="-101" font-family="Helvetica,sans-Serif" font-size="10.00">+id</text>
<text text-anchor="middle" x="85.5" y="-90" font-family="Helvetica,sans-Serif" font-size="10.00">+len</text>
<text text-anchor="middle" x="85.5" y="-79" font-family="Helvetica,sans-Serif" font-size="10.00">+type</text>
</g>
<!-- Node3 -->
<g id="node3" class="node">
<title>Node3</title>
<g id="a_node3"><a xlink:title=" ">
<polygon fill="white" stroke="black" points="79.5,-149.5 79.5,-206.5 181.5,-206.5 181.5,-149.5 79.5,-149.5"/>
<text text-anchor="middle" x="130.5" y="-194.5" font-family="Helvetica,sans-Serif" font-size="10.00">volatile rtapi_u32</text>
<polyline fill="none" stroke="black" points="79.5,-187.5 181.5,-187.5 "/>
<text text-anchor="middle" x="130.5" y="-175.5" font-family="Helvetica,sans-Serif" font-size="10.00"> </text>
<polyline fill="none" stroke="black" points="79.5,-168.5 181.5,-168.5 "/>
<text text-anchor="middle" x="130.5" y="-156.5" font-family="Helvetica,sans-Serif" font-size="10.00"> </text>
</a>
</g>
</g>
<!-- Node3&#45;&gt;Node1 -->
<g id="edge2" class="edge">
<title>Node3&#45;&gt;Node1</title>
<path fill="none" stroke="#404040" d="M127,-149.26C123.78,-128.55 118.03,-99.83 108.5,-76 107.51,-73.53 106.4,-71.04 105.2,-68.57"/>
<polygon fill="none" stroke="#404040" points="105.17,-68.52 98.82,-65.12 99.51,-57.94 105.87,-61.35 105.17,-68.52"/>
<text text-anchor="middle" x="134" y="-101" font-family="Helvetica,sans-Serif" font-size="10.00"> +id</text>
</g>
</g>
</svg>
