<?xml version="1.0" encoding="UTF-8" standalone="no"?>
<!DOCTYPE svg PUBLIC "-//W3C//DTD SVG 1.1//EN"
 "http://www.w3.org/Graphics/SVG/1.1/DTD/svg11.dtd">
<!-- Generated by graphviz version 2.43.0 (0)
 -->
<!-- Title: sPoKeysPWM Pages: 1 -->
<svg width="325pt" height="182pt"
 viewBox="0.00 0.00 324.50 182.00" xmlns="http://www.w3.org/2000/svg" xmlns:xlink="http://www.w3.org/1999/xlink">
<g id="graph0" class="graph" transform="scale(1 1) rotate(0) translate(4 178)">
<title>sPoKeysPWM</title>
<polygon fill="white" stroke="transparent" points="-4,4 -4,-178 320.5,-178 320.5,4 -4,4"/>
<!-- Node1 -->
<g id="node1" class="node">
<title>Node1</title>
<g id="a_node1"><a xlink:title=" ">
<polygon fill="#bfbfbf" stroke="black" points="79.5,-0.5 79.5,-57.5 161.5,-57.5 161.5,-0.5 79.5,-0.5"/>
<text text-anchor="middle" x="120.5" y="-45.5" font-family="Helvetica,sans-Serif" font-size="10.00">sPoKeysPWM</text>
<polyline fill="none" stroke="black" points="79.5,-38.5 161.5,-38.5 "/>
<text text-anchor="middle" x="120.5" y="-26.5" font-family="Helvetica,sans-Serif" font-size="10.00"> </text>
<polyline fill="none" stroke="black" points="79.5,-19.5 161.5,-19.5 "/>
<text text-anchor="middle" x="120.5" y="-7.5" font-family="Helvetica,sans-Serif" font-size="10.00"> </text>
</a>
</g>
</g>
<!-- Node2 -->
<g id="node2" class="node">
<title>Node2</title>
<g id="a_node2"><a xlink:title=" ">
<polygon fill="white" stroke="black" points="0,-116.5 0,-173.5 61,-173.5 61,-116.5 0,-116.5"/>
<text text-anchor="middle" x="30.5" y="-161.5" font-family="Helvetica,sans-Serif" font-size="10.00">unsigned</text>
<polyline fill="none" stroke="black" points="0,-154.5 61,-154.5 "/>
<text text-anchor="middle" x="30.5" y="-142.5" font-family="Helvetica,sans-Serif" font-size="10.00"> </text>
<polyline fill="none" stroke="black" points="0,-135.5 61,-135.5 "/>
<text text-anchor="middle" x="30.5" y="-123.5" font-family="Helvetica,sans-Serif" font-size="10.00"> </text>
</a>
</g>
</g>
<!-- Node2&#45;&gt;Node1 -->
<g id="edge1" class="edge">
<title>Node2&#45;&gt;Node1</title>
<path fill="none" stroke="#404040" d="M33.64,-116.18C36.22,-103.01 40.93,-87.65 49.5,-76 54.89,-68.68 61.82,-62.21 69.23,-56.61"/>
<polygon fill="none" stroke="#404040" points="69.29,-56.56 71.96,-49.86 79.17,-49.74 76.5,-56.44 69.29,-56.56"/>
<text text-anchor="middle" x="83" y="-90" font-family="Helvetica,sans-Serif" font-size="10.00"> +PWMperiod</text>
<text text-anchor="middle" x="83" y="-79" font-family="Helvetica,sans-Serif" font-size="10.00">+reserved</text>
</g>
<!-- Node3 -->
<g id="node3" class="node">
<title>Node3</title>
<g id="a_node3"><a xlink:title=" ">
<polygon fill="white" stroke="black" points="88,-116.5 88,-173.5 153,-173.5 153,-116.5 88,-116.5"/>
<text text-anchor="middle" x="120.5" y="-161.5" font-family="Helvetica,sans-Serif" font-size="10.00">uint32_t *</text>
<polyline fill="none" stroke="black" points="88,-154.5 153,-154.5 "/>
<text text-anchor="middle" x="120.5" y="-142.5" font-family="Helvetica,sans-Serif" font-size="10.00"> </text>
<polyline fill="none" stroke="black" points="88,-135.5 153,-135.5 "/>
<text text-anchor="middle" x="120.5" y="-123.5" font-family="Helvetica,sans-Serif" font-size="10.00"> </text>
</a>
</g>
</g>
<!-- Node3&#45;&gt;Node1 -->
<g id="edge2" class="edge">
<title>Node3&#45;&gt;Node1</title>
<path fill="none" stroke="#404040" d="M120.5,-116.4C120.5,-102.5 120.5,-85.39 120.5,-70.07"/>
<polygon fill="none" stroke="#404040" points="120.5,-69.74 116.5,-63.74 120.5,-57.74 124.5,-63.74 120.5,-69.74"/>
<text text-anchor="middle" x="149.5" y="-84.5" font-family="Helvetica,sans-Serif" font-size="10.00"> +PWMduty</text>
</g>
<!-- Node4 -->
<g id="node4" class="node">
<title>Node4</title>
<g id="a_node4"><a xlink:title=" ">
<polygon fill="white" stroke="black" points="171,-116.5 171,-173.5 256,-173.5 256,-116.5 171,-116.5"/>
<text text-anchor="middle" x="213.5" y="-161.5" font-family="Helvetica,sans-Serif" font-size="10.00">unsigned char</text>
<polyline fill="none" stroke="black" points="171,-154.5 256,-154.5 "/>
<text text-anchor="middle" x="213.5" y="-142.5" font-family="Helvetica,sans-Serif" font-size="10.00"> </text>
<polyline fill="none" stroke="black" points="171,-135.5 256,-135.5 "/>
<text text-anchor="middle" x="213.5" y="-123.5" font-family="Helvetica,sans-Serif" font-size="10.00"> </text>
</a>
</g>
</g>
<!-- Node4&#45;&gt;Node1 -->
<g id="edge3" class="edge">
<title>Node4&#45;&gt;Node1</title>
<path fill="none" stroke="#404040" d="M204.58,-116.4C199.47,-103.28 192.13,-87.9 182.5,-76 179.09,-71.78 175.21,-67.75 171.09,-63.95"/>
<polygon fill="none" stroke="#404040" points="170.91,-63.8 163.75,-62.95 161.78,-56.01 168.95,-56.86 170.91,-63.8"/>
<text text-anchor="middle" x="256" y="-90" font-family="Helvetica,sans-Serif" font-size="10.00"> +PWMenabledChannels</text>
<text text-anchor="middle" x="256" y="-79" font-family="Helvetica,sans-Serif" font-size="10.00">+PWMpinIDs</text>
</g>
</g>
</svg>
