<?xml version="1.0" encoding="UTF-8" standalone="no"?>
<!DOCTYPE svg PUBLIC "-//W3C//DTD SVG 1.1//EN"
 "http://www.w3.org/Graphics/SVG/1.1/DTD/svg11.dtd">
<!-- Generated by graphviz version 2.43.0 (0)
 -->
<!-- Title: mailbox_entry_t Pages: 1 -->
<svg width="730pt" height="193pt"
 viewBox="0.00 0.00 730.00 193.00" xmlns="http://www.w3.org/2000/svg" xmlns:xlink="http://www.w3.org/1999/xlink">
<g id="graph0" class="graph" transform="scale(1 1) rotate(0) translate(4 189)">
<title>mailbox_entry_t</title>
<polygon fill="white" stroke="transparent" points="-4,4 -4,-189 726,-189 726,4 -4,4"/>
<!-- Node1 -->
<g id="node1" class="node">
<title>Node1</title>
<g id="a_node1"><a xlink:title=" ">
<polygon fill="#bfbfbf" stroke="black" points="305,-0.5 305,-57.5 401,-57.5 401,-0.5 305,-0.5"/>
<text text-anchor="middle" x="353" y="-45.5" font-family="Helvetica,sans-Serif" font-size="10.00">mailbox_entry_t</text>
<polyline fill="none" stroke="black" points="305,-38.5 401,-38.5 "/>
<text text-anchor="middle" x="353" y="-26.5" font-family="Helvetica,sans-Serif" font-size="10.00"> </text>
<polyline fill="none" stroke="black" points="305,-19.5 401,-19.5 "/>
<text text-anchor="middle" x="353" y="-7.5" font-family="Helvetica,sans-Serif" font-size="10.00"> </text>
</a>
</g>
</g>
<!-- Node2 -->
<g id="node2" class="node">
<title>Node2</title>
<g id="a_node2"><a xlink:title=" ">
<polygon fill="white" stroke="black" points="0,-127.5 0,-184.5 38,-184.5 38,-127.5 0,-127.5"/>
<text text-anchor="middle" x="19" y="-172.5" font-family="Helvetica,sans-Serif" font-size="10.00">char</text>
<polyline fill="none" stroke="black" points="0,-165.5 38,-165.5 "/>
<text text-anchor="middle" x="19" y="-153.5" font-family="Helvetica,sans-Serif" font-size="10.00"> </text>
<polyline fill="none" stroke="black" points="0,-146.5 38,-146.5 "/>
<text text-anchor="middle" x="19" y="-134.5" font-family="Helvetica,sans-Serif" font-size="10.00"> </text>
</a>
</g>
</g>
<!-- Node2&#45;&gt;Node1 -->
<g id="edge1" class="edge">
<title>Node2&#45;&gt;Node1</title>
<path fill="none" stroke="#404040" d="M20.57,-127.18C23.08,-109.88 29.22,-88.6 44,-76 80.43,-44.93 213.59,-34.84 292.72,-31.57"/>
<polygon fill="none" stroke="#404040" points="292.94,-31.56 298.78,-27.33 304.93,-31.1 299.09,-35.32 292.94,-31.56"/>
<text text-anchor="middle" x="87.5" y="-101" font-family="Helvetica,sans-Serif" font-size="10.00"> +request_buffer</text>
<text text-anchor="middle" x="87.5" y="-90" font-family="Helvetica,sans-Serif" font-size="10.00">+request_id</text>
<text text-anchor="middle" x="87.5" y="-79" font-family="Helvetica,sans-Serif" font-size="10.00">+response_buffer</text>
</g>
<!-- Node3 -->
<g id="node3" class="node">
<title>Node3</title>
<g id="a_node3"><a xlink:title=" ">
<polygon fill="white" stroke="black" points="72,-127.5 72,-184.5 186,-184.5 186,-127.5 72,-127.5"/>
<text text-anchor="middle" x="129" y="-172.5" font-family="Helvetica,sans-Serif" font-size="10.00">pokeys_command_t</text>
<polyline fill="none" stroke="black" points="72,-165.5 186,-165.5 "/>
<text text-anchor="middle" x="129" y="-153.5" font-family="Helvetica,sans-Serif" font-size="10.00"> </text>
<polyline fill="none" stroke="black" points="72,-146.5 186,-146.5 "/>
<text text-anchor="middle" x="129" y="-134.5" font-family="Helvetica,sans-Serif" font-size="10.00"> </text>
</a>
</g>
</g>
<!-- Node3&#45;&gt;Node1 -->
<g id="edge2" class="edge">
<title>Node3&#45;&gt;Node1</title>
<path fill="none" stroke="#404040" d="M130.59,-127.21C133.04,-110.14 138.96,-89.11 153,-76 173.07,-57.26 241.48,-44.41 292.74,-37.15"/>
<polygon fill="none" stroke="#404040" points="292.82,-37.14 298.22,-32.37 304.71,-35.51 299.31,-40.29 292.82,-37.14"/>
<text text-anchor="middle" x="196.5" y="-90" font-family="Helvetica,sans-Serif" font-size="10.00"> +command_sent</text>
</g>
<!-- Node4 -->
<g id="node4" class="node">
<title>Node4</title>
<g id="a_node4"><a xlink:title=" ">
<polygon fill="white" stroke="black" points="220,-127.5 220,-184.5 258,-184.5 258,-127.5 220,-127.5"/>
<text text-anchor="middle" x="239" y="-172.5" font-family="Helvetica,sans-Serif" font-size="10.00">long</text>
<polyline fill="none" stroke="black" points="220,-165.5 258,-165.5 "/>
<text text-anchor="middle" x="239" y="-153.5" font-family="Helvetica,sans-Serif" font-size="10.00"> </text>
<polyline fill="none" stroke="black" points="220,-146.5 258,-146.5 "/>
<text text-anchor="middle" x="239" y="-134.5" font-family="Helvetica,sans-Serif" font-size="10.00"> </text>
</a>
</g>
</g>
<!-- Node4&#45;&gt;Node1 -->
<g id="edge3" class="edge">
<title>Node4&#45;&gt;Node1</title>
<path fill="none" stroke="#404040" d="M239.88,-127.18C241.71,-110.74 246.41,-90.39 258,-76 267.34,-64.4 280.32,-55.53 293.69,-48.83"/>
<polygon fill="none" stroke="#404040" points="294.02,-48.68 297.82,-42.55 304.94,-43.69 301.14,-49.82 294.02,-48.68"/>
<text text-anchor="middle" x="303.5" y="-90" font-family="Helvetica,sans-Serif" font-size="10.00"> +timestamp_sent</text>
</g>
<!-- Node5 -->
<g id="node5" class="node">
<title>Node5</title>
<g id="a_node5"><a xlink:title=" ">
<polygon fill="white" stroke="black" points="338.5,-127.5 338.5,-184.5 367.5,-184.5 367.5,-127.5 338.5,-127.5"/>
<text text-anchor="middle" x="353" y="-172.5" font-family="Helvetica,sans-Serif" font-size="10.00">int</text>
<polyline fill="none" stroke="black" points="338.5,-165.5 367.5,-165.5 "/>
<text text-anchor="middle" x="353" y="-153.5" font-family="Helvetica,sans-Serif" font-size="10.00"> </text>
<polyline fill="none" stroke="black" points="338.5,-146.5 367.5,-146.5 "/>
<text text-anchor="middle" x="353" y="-134.5" font-family="Helvetica,sans-Serif" font-size="10.00"> </text>
</a>
</g>
</g>
<!-- Node5&#45;&gt;Node1 -->
<g id="edge4" class="edge">
<title>Node5&#45;&gt;Node1</title>
<path fill="none" stroke="#404040" d="M353,-127.26C353,-110.35 353,-88.46 353,-69.73"/>
<polygon fill="none" stroke="#404040" points="353,-69.66 349,-63.66 353,-57.66 357,-63.66 353,-69.66"/>
<text text-anchor="middle" x="399" y="-95.5" font-family="Helvetica,sans-Serif" font-size="10.00"> +response_parser</text>
<text text-anchor="middle" x="399" y="-84.5" font-family="Helvetica,sans-Serif" font-size="10.00">+retries_left</text>
</g>
<!-- Node6 -->
<g id="node6" class="node">
<title>Node6</title>
<g id="a_node6"><a xlink:title=" ">
<polygon fill="white" stroke="black" points="449,-127.5 449,-184.5 487,-184.5 487,-127.5 449,-127.5"/>
<text text-anchor="middle" x="468" y="-172.5" font-family="Helvetica,sans-Serif" font-size="10.00">bool</text>
<polyline fill="none" stroke="black" points="449,-165.5 487,-165.5 "/>
<text text-anchor="middle" x="468" y="-153.5" font-family="Helvetica,sans-Serif" font-size="10.00"> </text>
<polyline fill="none" stroke="black" points="449,-146.5 487,-146.5 "/>
<text text-anchor="middle" x="468" y="-134.5" font-family="Helvetica,sans-Serif" font-size="10.00"> </text>
</a>
</g>
</g>
<!-- Node6&#45;&gt;Node1 -->
<g id="edge5" class="edge">
<title>Node6&#45;&gt;Node1</title>
<path fill="none" stroke="#404040" d="M465.89,-127.16C463.38,-110.72 457.89,-90.37 446,-76 437.03,-65.16 424.87,-56.65 412.31,-50.06"/>
<polygon fill="none" stroke="#404040" points="412.06,-49.94 404.92,-50.96 401.24,-44.76 408.37,-43.74 412.06,-49.94"/>
<text text-anchor="middle" x="505.5" y="-90" font-family="Helvetica,sans-Serif" font-size="10.00"> +response_ready</text>
</g>
<!-- Node7 -->
<g id="node7" class="node">
<title>Node7</title>
<g id="a_node7"><a xlink:title=" ">
<polygon fill="white" stroke="black" points="557,-127.5 557,-184.5 603,-184.5 603,-127.5 557,-127.5"/>
<text text-anchor="middle" x="580" y="-172.5" font-family="Helvetica,sans-Serif" font-size="10.00">void *</text>
<polyline fill="none" stroke="black" points="557,-165.5 603,-165.5 "/>
<text text-anchor="middle" x="580" y="-153.5" font-family="Helvetica,sans-Serif" font-size="10.00"> </text>
<polyline fill="none" stroke="black" points="557,-146.5 603,-146.5 "/>
<text text-anchor="middle" x="580" y="-134.5" font-family="Helvetica,sans-Serif" font-size="10.00"> </text>
</a>
</g>
</g>
<!-- Node7&#45;&gt;Node1 -->
<g id="edge6" class="edge">
<title>Node7&#45;&gt;Node1</title>
<path fill="none" stroke="#404040" d="M577.66,-127.15C574.76,-110.06 568.3,-89.03 554,-76 533.61,-57.42 464.9,-44.54 413.45,-37.23"/>
<polygon fill="none" stroke="#404040" points="413.34,-37.21 406.85,-40.36 401.45,-35.58 407.94,-32.43 413.34,-37.21"/>
<text text-anchor="middle" x="603" y="-90" font-family="Helvetica,sans-Serif" font-size="10.00"> +target_ptr</text>
</g>
<!-- Node8 -->
<g id="node8" class="node">
<title>Node8</title>
<g id="a_node8"><a xlink:title=" ">
<polygon fill="white" stroke="black" points="640.5,-127.5 640.5,-184.5 685.5,-184.5 685.5,-127.5 640.5,-127.5"/>
<text text-anchor="middle" x="663" y="-172.5" font-family="Helvetica,sans-Serif" font-size="10.00">size_t</text>
<polyline fill="none" stroke="black" points="640.5,-165.5 685.5,-165.5 "/>
<text text-anchor="middle" x="663" y="-153.5" font-family="Helvetica,sans-Serif" font-size="10.00"> </text>
<polyline fill="none" stroke="black" points="640.5,-146.5 685.5,-146.5 "/>
<text text-anchor="middle" x="663" y="-134.5" font-family="Helvetica,sans-Serif" font-size="10.00"> </text>
</a>
</g>
</g>
<!-- Node8&#45;&gt;Node1 -->
<g id="edge7" class="edge">
<title>Node8&#45;&gt;Node1</title>
<path fill="none" stroke="#404040" d="M661,-127.22C658.24,-109.93 651.82,-88.66 637,-76 604.23,-48.02 486.65,-36.86 413.45,-32.56"/>
<polygon fill="none" stroke="#404040" points="413.2,-32.55 406.99,-36.21 401.22,-31.88 407.43,-28.22 413.2,-32.55"/>
<text text-anchor="middle" x="689" y="-90" font-family="Helvetica,sans-Serif" font-size="10.00"> +target_size</text>
</g>
</g>
</svg>
