<?xml version="1.0" encoding="UTF-8" standalone="no"?>
<!DOCTYPE svg PUBLIC "-//W3C//DTD SVG 1.1//EN"
 "http://www.w3.org/Graphics/SVG/1.1/DTD/svg11.dtd">
<!-- Generated by graphviz version 2.43.0 (0)
 -->
<!-- Title: PEv2_data_t Pages: 1 -->
<svg width="880pt" height="490pt"
 viewBox="0.00 0.00 879.63 490.00" xmlns="http://www.w3.org/2000/svg" xmlns:xlink="http://www.w3.org/1999/xlink">
<g id="graph0" class="graph" transform="scale(1 1) rotate(0) translate(4 486)">
<title>PEv2_data_t</title>
<polygon fill="white" stroke="transparent" points="-4,4 -4,-486 875.63,-486 875.63,4 -4,4"/>
<!-- Node1 -->
<g id="node1" class="node">
<title>Node1</title>
<g id="a_node1"><a xlink:title="State machine transitions for homing logic.">
<polygon fill="#bfbfbf" stroke="black" points="270.63,-0.5 270.63,-167.5 428.63,-167.5 428.63,-0.5 270.63,-0.5"/>
<text text-anchor="middle" x="349.63" y="-155.5" font-family="Helvetica,sans-Serif" font-size="10.00">PEv2_data_t</text>
<polyline fill="none" stroke="black" points="270.63,-148.5 428.63,-148.5 "/>
<text text-anchor="start" x="278.63" y="-136.5" font-family="Helvetica,sans-Serif" font-size="10.00">+ PEv2_deb_out</text>
<text text-anchor="start" x="278.63" y="-125.5" font-family="Helvetica,sans-Serif" font-size="10.00">+ PEv2_deb_estop</text>
<text text-anchor="start" x="278.63" y="-114.5" font-family="Helvetica,sans-Serif" font-size="10.00">+ PEv2_deb_axxisout</text>
<text text-anchor="start" x="278.63" y="-103.5" font-family="Helvetica,sans-Serif" font-size="10.00">+ PEv2_deb_ishoming</text>
<text text-anchor="start" x="278.63" y="-92.5" font-family="Helvetica,sans-Serif" font-size="10.00">+ PEv2_deb_inposition</text>
<text text-anchor="start" x="278.63" y="-81.5" font-family="Helvetica,sans-Serif" font-size="10.00">+ PEv2_deb_PosMode</text>
<text text-anchor="start" x="278.63" y="-70.5" font-family="Helvetica,sans-Serif" font-size="10.00">+ PEv2_deb_PosModeAct</text>
<text text-anchor="start" x="278.63" y="-59.5" font-family="Helvetica,sans-Serif" font-size="10.00">+ PEv2_deb_velmode_count</text>
<text text-anchor="start" x="278.63" y="-48.5" font-family="Helvetica,sans-Serif" font-size="10.00">+ PEv2_deb_posmode_count</text>
<text text-anchor="start" x="278.63" y="-37.5" font-family="Helvetica,sans-Serif" font-size="10.00">+ PEv2_deb_doMove</text>
<text text-anchor="start" x="278.63" y="-26.5" font-family="Helvetica,sans-Serif" font-size="10.00">and 102 more...</text>
<polyline fill="none" stroke="black" points="270.63,-19.5 428.63,-19.5 "/>
<text text-anchor="middle" x="349.63" y="-7.5" font-family="Helvetica,sans-Serif" font-size="10.00"> </text>
</a>
</g>
</g>
<!-- Node2 -->
<g id="node2" class="node">
<title>Node2</title>
<g id="a_node2"><a xlink:title=" ">
<polygon fill="white" stroke="black" points="1.63,-424.5 1.63,-481.5 51.63,-481.5 51.63,-424.5 1.63,-424.5"/>
<text text-anchor="middle" x="26.63" y="-469.5" font-family="Helvetica,sans-Serif" font-size="10.00">int32_t</text>
<polyline fill="none" stroke="black" points="1.63,-462.5 51.63,-462.5 "/>
<text text-anchor="middle" x="26.63" y="-450.5" font-family="Helvetica,sans-Serif" font-size="10.00"> </text>
<polyline fill="none" stroke="black" points="1.63,-443.5 51.63,-443.5 "/>
<text text-anchor="middle" x="26.63" y="-431.5" font-family="Helvetica,sans-Serif" font-size="10.00"> </text>
</a>
</g>
</g>
<!-- Node2&#45;&gt;Node1 -->
<g id="edge1" class="edge">
<title>Node2&#45;&gt;Node1</title>
<path fill="none" stroke="#404040" d="M17.85,-424.15C3.19,-371.69 -19.75,-257.12 33.63,-186 85.46,-116.95 184.94,-94.13 258.5,-87.08"/>
<polygon fill="none" stroke="#404040" points="258.57,-87.08 264.21,-82.58 270.53,-86.05 264.89,-90.55 258.57,-87.08"/>
<text text-anchor="middle" x="104.63" y="-348.5" font-family="Helvetica,sans-Serif" font-size="10.00"> +PEv2_ArmPosition</text>
<text text-anchor="middle" x="104.63" y="-337.5" font-family="Helvetica,sans-Serif" font-size="10.00">+PEv2_AxisEnabled</text>
<text text-anchor="middle" x="104.63" y="-326.5" font-family="Helvetica,sans-Serif" font-size="10.00">+PEv2_AxisEnabledMasked</text>
<text text-anchor="middle" x="104.63" y="-315.5" font-family="Helvetica,sans-Serif" font-size="10.00">+PEv2_AxisInternalPlanner</text>
<text text-anchor="middle" x="104.63" y="-304.5" font-family="Helvetica,sans-Serif" font-size="10.00">+PEv2_AxisInverted</text>
<text text-anchor="middle" x="104.63" y="-293.5" font-family="Helvetica,sans-Serif" font-size="10.00">+PEv2_AxisInvertedHome</text>
<text text-anchor="middle" x="104.63" y="-282.5" font-family="Helvetica,sans-Serif" font-size="10.00">+PEv2_AxisPositionMode</text>
<text text-anchor="middle" x="104.63" y="-271.5" font-family="Helvetica,sans-Serif" font-size="10.00">+PEv2_AxisSoftLimitEnabled</text>
<text text-anchor="middle" x="104.63" y="-260.5" font-family="Helvetica,sans-Serif" font-size="10.00">+PEv2_CurrentPosition</text>
<text text-anchor="middle" x="104.63" y="-249.5" font-family="Helvetica,sans-Serif" font-size="10.00">+PEv2_HomePosition</text>
<text text-anchor="middle" x="104.63" y="-238.5" font-family="Helvetica,sans-Serif" font-size="10.00">...</text>
</g>
<!-- Node3 -->
<g id="node3" class="node">
<title>Node3</title>
<g id="a_node3"><a xlink:title=" ">
<polygon fill="white" stroke="black" points="172.63,-424.5 172.63,-481.5 210.63,-481.5 210.63,-424.5 172.63,-424.5"/>
<text text-anchor="middle" x="191.63" y="-469.5" font-family="Helvetica,sans-Serif" font-size="10.00">bool</text>
<polyline fill="none" stroke="black" points="172.63,-462.5 210.63,-462.5 "/>
<text text-anchor="middle" x="191.63" y="-450.5" font-family="Helvetica,sans-Serif" font-size="10.00"> </text>
<polyline fill="none" stroke="black" points="172.63,-443.5 210.63,-443.5 "/>
<text text-anchor="middle" x="191.63" y="-431.5" font-family="Helvetica,sans-Serif" font-size="10.00"> </text>
</a>
</g>
</g>
<!-- Node3&#45;&gt;Node1 -->
<g id="edge2" class="edge">
<title>Node3&#45;&gt;Node1</title>
<path fill="none" stroke="#404040" d="M186.38,-424.21C178.25,-373.33 167.7,-263.31 210.63,-186 222.46,-164.69 240.9,-146.7 260.52,-132.08"/>
<polygon fill="none" stroke="#404040" points="260.76,-131.9 263.33,-125.17 270.54,-124.95 267.96,-131.69 260.76,-131.9"/>
<text text-anchor="start" x="210.63" y="-398" font-family="Helvetica,sans-Serif" font-size="10.00"> +PEv2_HomeAlg_OnHome</text>
<text text-anchor="middle" x="278.13" y="-387" font-family="Helvetica,sans-Serif" font-size="10.00">_ArmEncoder</text>
<text text-anchor="start" x="210.63" y="-376" font-family="Helvetica,sans-Serif" font-size="10.00">+PEv2_HomeAlg_OnHome</text>
<text text-anchor="middle" x="278.13" y="-365" font-family="Helvetica,sans-Serif" font-size="10.00">_ReducedSpeed</text>
<text text-anchor="start" x="210.63" y="-354" font-family="Helvetica,sans-Serif" font-size="10.00">+PEv2_HomeAlg_OnHome</text>
<text text-anchor="middle" x="278.13" y="-343" font-family="Helvetica,sans-Serif" font-size="10.00">_RevDirection</text>
<text text-anchor="start" x="210.63" y="-332" font-family="Helvetica,sans-Serif" font-size="10.00">+PEv2_HomeAlg_OnHome</text>
<text text-anchor="middle" x="278.13" y="-321" font-family="Helvetica,sans-Serif" font-size="10.00">_Stop</text>
<text text-anchor="start" x="210.63" y="-310" font-family="Helvetica,sans-Serif" font-size="10.00">+PEv2_HomeAlg_OutHome</text>
<text text-anchor="middle" x="278.13" y="-299" font-family="Helvetica,sans-Serif" font-size="10.00">_ArmEncoder</text>
<text text-anchor="start" x="210.63" y="-288" font-family="Helvetica,sans-Serif" font-size="10.00">+PEv2_HomeAlg_OutHome</text>
<text text-anchor="middle" x="278.13" y="-277" font-family="Helvetica,sans-Serif" font-size="10.00">_ReducedSpeed</text>
<text text-anchor="start" x="210.63" y="-266" font-family="Helvetica,sans-Serif" font-size="10.00">+PEv2_HomeAlg_OutHome</text>
<text text-anchor="middle" x="278.13" y="-255" font-family="Helvetica,sans-Serif" font-size="10.00">_RevDirection</text>
<text text-anchor="start" x="210.63" y="-244" font-family="Helvetica,sans-Serif" font-size="10.00">+PEv2_HomeAlg_OutHome</text>
<text text-anchor="middle" x="278.13" y="-233" font-family="Helvetica,sans-Serif" font-size="10.00">_Stop</text>
<text text-anchor="start" x="210.63" y="-222" font-family="Helvetica,sans-Serif" font-size="10.00">+PEv2_PG_extended</text>
<text text-anchor="middle" x="278.13" y="-211" font-family="Helvetica,sans-Serif" font-size="10.00">_io</text>
<text text-anchor="middle" x="278.13" y="-200" font-family="Helvetica,sans-Serif" font-size="10.00">+PEv2_PG_swap_stepdir</text>
<text text-anchor="middle" x="278.13" y="-189" font-family="Helvetica,sans-Serif" font-size="10.00">...</text>
</g>
<!-- Node4 -->
<g id="node4" class="node">
<title>Node4</title>
<g id="a_node4"><a xlink:title=" ">
<polygon fill="white" stroke="black" points="311.63,-424.5 311.63,-481.5 387.63,-481.5 387.63,-424.5 311.63,-424.5"/>
<text text-anchor="middle" x="349.63" y="-469.5" font-family="Helvetica,sans-Serif" font-size="10.00">hal_float_t *</text>
<polyline fill="none" stroke="black" points="311.63,-462.5 387.63,-462.5 "/>
<text text-anchor="middle" x="349.63" y="-450.5" font-family="Helvetica,sans-Serif" font-size="10.00"> </text>
<polyline fill="none" stroke="black" points="311.63,-443.5 387.63,-443.5 "/>
<text text-anchor="middle" x="349.63" y="-431.5" font-family="Helvetica,sans-Serif" font-size="10.00"> </text>
</a>
</g>
</g>
<!-- Node4&#45;&gt;Node1 -->
<g id="edge3" class="edge">
<title>Node4&#45;&gt;Node1</title>
<path fill="none" stroke="#404040" d="M349.63,-424.42C349.63,-373.15 349.63,-261.01 349.63,-179.62"/>
<polygon fill="none" stroke="#404040" points="349.63,-179.59 345.63,-173.59 349.63,-167.59 353.63,-173.59 349.63,-179.59"/>
<text text-anchor="middle" x="419.13" y="-359.5" font-family="Helvetica,sans-Serif" font-size="10.00"> +PEv2_ProbeSpeed</text>
<text text-anchor="middle" x="419.13" y="-348.5" font-family="Helvetica,sans-Serif" font-size="10.00">+PEv2_deb_RefPos</text>
<text text-anchor="middle" x="419.13" y="-337.5" font-family="Helvetica,sans-Serif" font-size="10.00">+PEv2_deb_RefPosSpeed</text>
<text text-anchor="middle" x="419.13" y="-326.5" font-family="Helvetica,sans-Serif" font-size="10.00">+PEv2_deb_RefSpeed</text>
<text text-anchor="middle" x="419.13" y="-315.5" font-family="Helvetica,sans-Serif" font-size="10.00">+PEv2_joint_pos_cmd</text>
<text text-anchor="middle" x="419.13" y="-304.5" font-family="Helvetica,sans-Serif" font-size="10.00">+PEv2_joint_pos_fb</text>
<text text-anchor="middle" x="419.13" y="-293.5" font-family="Helvetica,sans-Serif" font-size="10.00">+PEv2_joint_vel_cmd</text>
<text text-anchor="start" x="349.63" y="-282.5" font-family="Helvetica,sans-Serif" font-size="10.00">+PEv2_params_Feedback</text>
<text text-anchor="middle" x="419.13" y="-271.5" font-family="Helvetica,sans-Serif" font-size="10.00">_Encoder_Id</text>
<text text-anchor="middle" x="419.13" y="-260.5" font-family="Helvetica,sans-Serif" font-size="10.00">+PEv2_stepgen_DEADBAND</text>
<text text-anchor="start" x="349.63" y="-249.5" font-family="Helvetica,sans-Serif" font-size="10.00">+PEv2_stepgen_ENCODER</text>
<text text-anchor="middle" x="419.13" y="-238.5" font-family="Helvetica,sans-Serif" font-size="10.00">_SCALE</text>
<text text-anchor="middle" x="419.13" y="-227.5" font-family="Helvetica,sans-Serif" font-size="10.00">...</text>
</g>
<!-- Node5 -->
<g id="node5" class="node">
<title>Node5</title>
<g id="a_node5"><a xlink:title=" ">
<polygon fill="white" stroke="black" points="483.63,-424.5 483.63,-481.5 539.63,-481.5 539.63,-424.5 483.63,-424.5"/>
<text text-anchor="middle" x="511.63" y="-469.5" font-family="Helvetica,sans-Serif" font-size="10.00">uint32_t</text>
<polyline fill="none" stroke="black" points="483.63,-462.5 539.63,-462.5 "/>
<text text-anchor="middle" x="511.63" y="-450.5" font-family="Helvetica,sans-Serif" font-size="10.00"> </text>
<polyline fill="none" stroke="black" points="483.63,-443.5 539.63,-443.5 "/>
<text text-anchor="middle" x="511.63" y="-431.5" font-family="Helvetica,sans-Serif" font-size="10.00"> </text>
</a>
</g>
</g>
<!-- Node5&#45;&gt;Node1 -->
<g id="edge4" class="edge">
<title>Node5&#45;&gt;Node1</title>
<path fill="none" stroke="#404040" d="M512.22,-424.28C513.02,-364.61 512.31,-226.14 489.63,-186 477.47,-164.47 458.61,-146.33 438.63,-131.63"/>
<polygon fill="none" stroke="#404040" points="438.57,-131.59 431.36,-131.41 428.75,-124.69 435.96,-124.86 438.57,-131.59"/>
<text text-anchor="middle" x="607.63" y="-348.5" font-family="Helvetica,sans-Serif" font-size="10.00"> +PEv2_AxesCommand</text>
<text text-anchor="middle" x="607.63" y="-337.5" font-family="Helvetica,sans-Serif" font-size="10.00">+PEv2_AxesConfig</text>
<text text-anchor="middle" x="607.63" y="-326.5" font-family="Helvetica,sans-Serif" font-size="10.00">+PEv2_AxesState</text>
<text text-anchor="middle" x="607.63" y="-315.5" font-family="Helvetica,sans-Serif" font-size="10.00">+PEv2_AxesSwitchConfig</text>
<text text-anchor="middle" x="607.63" y="-304.5" font-family="Helvetica,sans-Serif" font-size="10.00">+PEv2_AxisEnabledMask</text>
<text text-anchor="middle" x="607.63" y="-293.5" font-family="Helvetica,sans-Serif" font-size="10.00">+PEv2_AxisEnabledStatesMask</text>
<text text-anchor="middle" x="607.63" y="-282.5" font-family="Helvetica,sans-Serif" font-size="10.00">+PEv2_BacklashAcceleration</text>
<text text-anchor="middle" x="607.63" y="-271.5" font-family="Helvetica,sans-Serif" font-size="10.00">+PEv2_BacklashCompensationEnabled</text>
<text text-anchor="middle" x="607.63" y="-260.5" font-family="Helvetica,sans-Serif" font-size="10.00">+PEv2_BacklashRegister</text>
<text text-anchor="middle" x="607.63" y="-249.5" font-family="Helvetica,sans-Serif" font-size="10.00">+PEv2_BacklashWidth</text>
<text text-anchor="middle" x="607.63" y="-238.5" font-family="Helvetica,sans-Serif" font-size="10.00">...</text>
</g>
<!-- Node6 -->
<g id="node6" class="node">
<title>Node6</title>
<g id="a_node6"><a xlink:title=" ">
<polygon fill="white" stroke="black" points="692.63,-424.5 692.63,-481.5 760.63,-481.5 760.63,-424.5 692.63,-424.5"/>
<text text-anchor="middle" x="726.63" y="-469.5" font-family="Helvetica,sans-Serif" font-size="10.00">hal_float_t</text>
<polyline fill="none" stroke="black" points="692.63,-462.5 760.63,-462.5 "/>
<text text-anchor="middle" x="726.63" y="-450.5" font-family="Helvetica,sans-Serif" font-size="10.00"> </text>
<polyline fill="none" stroke="black" points="692.63,-443.5 760.63,-443.5 "/>
<text text-anchor="middle" x="726.63" y="-431.5" font-family="Helvetica,sans-Serif" font-size="10.00"> </text>
</a>
</g>
</g>
<!-- Node6&#45;&gt;Node1 -->
<g id="edge5" class="edge">
<title>Node6&#45;&gt;Node1</title>
<path fill="none" stroke="#404040" d="M733.61,-424.15C745.09,-371.19 761.42,-255.08 704.63,-186 671.2,-145.34 534.46,-115.27 440.78,-98.94"/>
<polygon fill="none" stroke="#404040" points="440.55,-98.9 433.96,-101.83 428.73,-96.87 435.31,-93.95 440.55,-98.9"/>
<text text-anchor="middle" x="808.13" y="-381.5" font-family="Helvetica,sans-Serif" font-size="10.00"> +PEv2_MaxAcceleration</text>
<text text-anchor="middle" x="808.13" y="-370.5" font-family="Helvetica,sans-Serif" font-size="10.00">+PEv2_MaxDecceleration</text>
<text text-anchor="middle" x="808.13" y="-359.5" font-family="Helvetica,sans-Serif" font-size="10.00">+PEv2_MaxSpeed</text>
<text text-anchor="middle" x="808.13" y="-348.5" font-family="Helvetica,sans-Serif" font-size="10.00">+PEv2_stepgen_HOME</text>
<text text-anchor="start" x="744.63" y="-337.5" font-family="Helvetica,sans-Serif" font-size="10.00">+PEv2_stepgen_HOME</text>
<text text-anchor="middle" x="808.13" y="-326.5" font-family="Helvetica,sans-Serif" font-size="10.00">_LATCH_VEL</text>
<text text-anchor="start" x="744.63" y="-315.5" font-family="Helvetica,sans-Serif" font-size="10.00">+PEv2_stepgen_HOME</text>
<text text-anchor="middle" x="808.13" y="-304.5" font-family="Helvetica,sans-Serif" font-size="10.00">_OFFSET</text>
<text text-anchor="start" x="744.63" y="-293.5" font-family="Helvetica,sans-Serif" font-size="10.00">+PEv2_stepgen_HOME</text>
<text text-anchor="middle" x="808.13" y="-282.5" font-family="Helvetica,sans-Serif" font-size="10.00">_SEARCH_VEL</text>
<text text-anchor="start" x="744.63" y="-271.5" font-family="Helvetica,sans-Serif" font-size="10.00">+PEv2_stepgen_MAX</text>
<text text-anchor="middle" x="808.13" y="-260.5" font-family="Helvetica,sans-Serif" font-size="10.00">_LIMIT</text>
<text text-anchor="start" x="744.63" y="-249.5" font-family="Helvetica,sans-Serif" font-size="10.00">+PEv2_stepgen_MIN</text>
<text text-anchor="middle" x="808.13" y="-238.5" font-family="Helvetica,sans-Serif" font-size="10.00">_LIMIT</text>
<text text-anchor="start" x="744.63" y="-227.5" font-family="Helvetica,sans-Serif" font-size="10.00">+PEv2_stepgen_STEPGEN</text>
<text text-anchor="middle" x="808.13" y="-216.5" font-family="Helvetica,sans-Serif" font-size="10.00">_MAXACCEL</text>
<text text-anchor="middle" x="808.13" y="-205.5" font-family="Helvetica,sans-Serif" font-size="10.00">...</text>
</g>
</g>
</svg>
