<?xml version="1.0" encoding="UTF-8" standalone="no"?>
<!DOCTYPE svg PUBLIC "-//W3C//DTD SVG 1.1//EN"
 "http://www.w3.org/Graphics/SVG/1.1/DTD/svg11.dtd">
<!-- Generated by graphviz version 2.43.0 (0)
 -->
<!-- Title: sPoKeysDevice_Info Pages: 1 -->
<svg width="214pt" height="402pt"
 viewBox="0.00 0.00 214.00 402.00" xmlns="http://www.w3.org/2000/svg" xmlns:xlink="http://www.w3.org/1999/xlink">
<g id="graph0" class="graph" transform="scale(1 1) rotate(0) translate(4 398)">
<title>sPoKeysDevice_Info</title>
<polygon fill="white" stroke="transparent" points="-4,4 -4,-398 210,-398 210,4 -4,4"/>
<!-- Node1 -->
<g id="node1" class="node">
<title>Node1</title>
<g id="a_node1"><a xlink:title=" ">
<polygon fill="#bfbfbf" stroke="black" points="0,-0.5 0,-178.5 164,-178.5 164,-0.5 0,-0.5"/>
<text text-anchor="middle" x="82" y="-166.5" font-family="Helvetica,sans-Serif" font-size="10.00">sPoKeysDevice_Info</text>
<polyline fill="none" stroke="black" points="0,-159.5 164,-159.5 "/>
<text text-anchor="start" x="8" y="-147.5" font-family="Helvetica,sans-Serif" font-size="10.00">+ iPinCount</text>
<text text-anchor="start" x="8" y="-136.5" font-family="Helvetica,sans-Serif" font-size="10.00">+ iPWMCount</text>
<text text-anchor="start" x="8" y="-125.5" font-family="Helvetica,sans-Serif" font-size="10.00">+ iFastEncoders</text>
<text text-anchor="start" x="8" y="-114.5" font-family="Helvetica,sans-Serif" font-size="10.00">+ iUltraFastEncoders</text>
<text text-anchor="start" x="8" y="-103.5" font-family="Helvetica,sans-Serif" font-size="10.00">+ iKeyMapping</text>
<text text-anchor="start" x="8" y="-92.5" font-family="Helvetica,sans-Serif" font-size="10.00">+ iTriggeredKeyMapping</text>
<text text-anchor="start" x="8" y="-81.5" font-family="Helvetica,sans-Serif" font-size="10.00">+ iKeyRepeatDelay</text>
<text text-anchor="start" x="8" y="-70.5" font-family="Helvetica,sans-Serif" font-size="10.00">+ iJoystickButtonAxisMapping</text>
<text text-anchor="start" x="8" y="-59.5" font-family="Helvetica,sans-Serif" font-size="10.00">+ iJoystickAnalogToDigital</text>
<text text-anchor="start" x="8" y="-48.5" font-family="Helvetica,sans-Serif" font-size="10.00">Mapping</text>
<text text-anchor="start" x="8" y="-37.5" font-family="Helvetica,sans-Serif" font-size="10.00">+ iMacros</text>
<text text-anchor="start" x="8" y="-26.5" font-family="Helvetica,sans-Serif" font-size="10.00">and 18 more...</text>
<polyline fill="none" stroke="black" points="0,-19.5 164,-19.5 "/>
<text text-anchor="middle" x="82" y="-7.5" font-family="Helvetica,sans-Serif" font-size="10.00"> </text>
</a>
</g>
</g>
<!-- Node2 -->
<g id="node2" class="node">
<title>Node2</title>
<g id="a_node2"><a xlink:title=" ">
<polygon fill="white" stroke="black" points="51.5,-336.5 51.5,-393.5 112.5,-393.5 112.5,-336.5 51.5,-336.5"/>
<text text-anchor="middle" x="82" y="-381.5" font-family="Helvetica,sans-Serif" font-size="10.00">unsigned</text>
<polyline fill="none" stroke="black" points="51.5,-374.5 112.5,-374.5 "/>
<text text-anchor="middle" x="82" y="-362.5" font-family="Helvetica,sans-Serif" font-size="10.00"> </text>
<polyline fill="none" stroke="black" points="51.5,-355.5 112.5,-355.5 "/>
<text text-anchor="middle" x="82" y="-343.5" font-family="Helvetica,sans-Serif" font-size="10.00"> </text>
</a>
</g>
</g>
<!-- Node2&#45;&gt;Node1 -->
<g id="edge1" class="edge">
<title>Node2&#45;&gt;Node1</title>
<path fill="none" stroke="#404040" d="M82,-336.27C82,-302.32 82,-242.95 82,-191.06"/>
<polygon fill="none" stroke="#404040" points="82,-190.74 78,-184.74 82,-178.74 86,-184.74 82,-190.74"/>
<text text-anchor="middle" x="144" y="-310" font-family="Helvetica,sans-Serif" font-size="10.00"> +PWMinternalFrequency</text>
<text text-anchor="middle" x="144" y="-299" font-family="Helvetica,sans-Serif" font-size="10.00">+iAdditionalOptions</text>
<text text-anchor="middle" x="144" y="-288" font-family="Helvetica,sans-Serif" font-size="10.00">+iAnalogFiltering</text>
<text text-anchor="middle" x="144" y="-277" font-family="Helvetica,sans-Serif" font-size="10.00">+iAnalogInputs</text>
<text text-anchor="middle" x="144" y="-266" font-family="Helvetica,sans-Serif" font-size="10.00">+iBasicEncoderCount</text>
<text text-anchor="middle" x="144" y="-255" font-family="Helvetica,sans-Serif" font-size="10.00">+iConnectionSignal</text>
<text text-anchor="middle" x="144" y="-244" font-family="Helvetica,sans-Serif" font-size="10.00">+iCustomDeviceName</text>
<text text-anchor="middle" x="144" y="-233" font-family="Helvetica,sans-Serif" font-size="10.00">+iDigitalCounters</text>
<text text-anchor="middle" x="144" y="-222" font-family="Helvetica,sans-Serif" font-size="10.00">+iEasySensors</text>
<text text-anchor="middle" x="144" y="-211" font-family="Helvetica,sans-Serif" font-size="10.00">+iEncodersCount</text>
<text text-anchor="middle" x="144" y="-200" font-family="Helvetica,sans-Serif" font-size="10.00">...</text>
</g>
</g>
</svg>
