<?xml version="1.0" encoding="UTF-8" standalone="no"?>
<!DOCTYPE svg PUBLIC "-//W3C//DTD SVG 1.1//EN"
 "http://www.w3.org/Graphics/SVG/1.1/DTD/svg11.dtd">
<!-- Generated by graphviz version 2.43.0 (0)
 -->
<!-- Title: one_encoder_data_t Pages: 1 -->
<svg width="368pt" height="259pt"
 viewBox="0.00 0.00 368.00 259.00" xmlns="http://www.w3.org/2000/svg" xmlns:xlink="http://www.w3.org/1999/xlink">
<g id="graph0" class="graph" transform="scale(1 1) rotate(0) translate(4 255)">
<title>one_encoder_data_t</title>
<polygon fill="white" stroke="transparent" points="-4,4 -4,-255 364,-255 364,4 -4,4"/>
<!-- Node1 -->
<g id="node1" class="node">
<title>Node1</title>
<g id="a_node1"><a xlink:title="Structure representing a single encoder channel with HAL and PoKeys configuration.">
<polygon fill="#bfbfbf" stroke="black" points="81.5,-0.5 81.5,-57.5 196.5,-57.5 196.5,-0.5 81.5,-0.5"/>
<text text-anchor="middle" x="139" y="-45.5" font-family="Helvetica,sans-Serif" font-size="10.00">one_encoder_data_t</text>
<polyline fill="none" stroke="black" points="81.5,-38.5 196.5,-38.5 "/>
<text text-anchor="middle" x="139" y="-26.5" font-family="Helvetica,sans-Serif" font-size="10.00"> </text>
<polyline fill="none" stroke="black" points="81.5,-19.5 196.5,-19.5 "/>
<text text-anchor="middle" x="139" y="-7.5" font-family="Helvetica,sans-Serif" font-size="10.00"> </text>
</a>
</g>
</g>
<!-- Node2 -->
<g id="node2" class="node">
<title>Node2</title>
<g id="a_node2"><a xlink:title=" ">
<polygon fill="white" stroke="black" points="0,-193.5 0,-250.5 50,-250.5 50,-193.5 0,-193.5"/>
<text text-anchor="middle" x="25" y="-238.5" font-family="Helvetica,sans-Serif" font-size="10.00">int32_t</text>
<polyline fill="none" stroke="black" points="0,-231.5 50,-231.5 "/>
<text text-anchor="middle" x="25" y="-219.5" font-family="Helvetica,sans-Serif" font-size="10.00"> </text>
<polyline fill="none" stroke="black" points="0,-212.5 50,-212.5 "/>
<text text-anchor="middle" x="25" y="-200.5" font-family="Helvetica,sans-Serif" font-size="10.00"> </text>
</a>
</g>
</g>
<!-- Node2&#45;&gt;Node1 -->
<g id="edge1" class="edge">
<title>Node2&#45;&gt;Node1</title>
<path fill="none" stroke="#404040" d="M22.83,-193.37C21.81,-161.94 24.71,-110.52 50,-76 55.64,-68.3 62.94,-61.8 70.95,-56.32"/>
<polygon fill="none" stroke="#404040" points="71.15,-56.19 74.17,-49.64 81.38,-49.92 78.36,-56.46 71.15,-56.19"/>
<text text-anchor="middle" x="69.5" y="-123" font-family="Helvetica,sans-Serif" font-size="10.00"> +count</text>
</g>
<!-- Node3 -->
<g id="node3" class="node">
<title>Node3</title>
<g id="a_node3"><a xlink:title=" ">
<polygon fill="white" stroke="black" points="68,-193.5 68,-250.5 136,-250.5 136,-193.5 68,-193.5"/>
<text text-anchor="middle" x="102" y="-238.5" font-family="Helvetica,sans-Serif" font-size="10.00">hal_float_t</text>
<polyline fill="none" stroke="black" points="68,-231.5 136,-231.5 "/>
<text text-anchor="middle" x="102" y="-219.5" font-family="Helvetica,sans-Serif" font-size="10.00"> </text>
<polyline fill="none" stroke="black" points="68,-212.5 136,-212.5 "/>
<text text-anchor="middle" x="102" y="-200.5" font-family="Helvetica,sans-Serif" font-size="10.00"> </text>
</a>
</g>
</g>
<!-- Node3&#45;&gt;Node1 -->
<g id="edge2" class="edge">
<title>Node3&#45;&gt;Node1</title>
<path fill="none" stroke="#404040" d="M97.03,-193.38C92.82,-163.53 89.41,-114.98 103,-76 103.94,-73.29 105.12,-70.62 106.46,-68.02"/>
<polygon fill="none" stroke="#404040" points="106.5,-67.94 106.22,-60.74 112.76,-57.71 113.05,-64.91 106.5,-67.94"/>
<text text-anchor="middle" x="128.5" y="-134" font-family="Helvetica,sans-Serif" font-size="10.00"> +position</text>
<text text-anchor="middle" x="128.5" y="-123" font-family="Helvetica,sans-Serif" font-size="10.00">+scale</text>
<text text-anchor="middle" x="128.5" y="-112" font-family="Helvetica,sans-Serif" font-size="10.00">+velocity</text>
</g>
<!-- Node4 -->
<g id="node4" class="node">
<title>Node4</title>
<g id="a_node4"><a xlink:title=" ">
<polygon fill="white" stroke="black" points="157,-193.5 157,-250.5 195,-250.5 195,-193.5 157,-193.5"/>
<text text-anchor="middle" x="176" y="-238.5" font-family="Helvetica,sans-Serif" font-size="10.00">bool</text>
<polyline fill="none" stroke="black" points="157,-231.5 195,-231.5 "/>
<text text-anchor="middle" x="176" y="-219.5" font-family="Helvetica,sans-Serif" font-size="10.00"> </text>
<polyline fill="none" stroke="black" points="157,-212.5 195,-212.5 "/>
<text text-anchor="middle" x="176" y="-200.5" font-family="Helvetica,sans-Serif" font-size="10.00"> </text>
</a>
</g>
</g>
<!-- Node4&#45;&gt;Node1 -->
<g id="edge3" class="edge">
<title>Node4&#45;&gt;Node1</title>
<path fill="none" stroke="#404040" d="M173.19,-193.48C169.88,-164.12 163.58,-116.38 154,-76 153.46,-73.73 152.86,-71.42 152.23,-69.09"/>
<polygon fill="none" stroke="#404040" points="152.21,-69.02 146.66,-64.41 148.79,-57.52 154.33,-62.13 152.21,-69.02"/>
<text text-anchor="middle" x="207" y="-167" font-family="Helvetica,sans-Serif" font-size="10.00"> +enable</text>
<text text-anchor="middle" x="207" y="-156" font-family="Helvetica,sans-Serif" font-size="10.00">+index_enable</text>
<text text-anchor="middle" x="207" y="-145" font-family="Helvetica,sans-Serif" font-size="10.00">+keymap_dirA</text>
<text text-anchor="middle" x="207" y="-134" font-family="Helvetica,sans-Serif" font-size="10.00">+keymap_dirB</text>
<text text-anchor="middle" x="207" y="-123" font-family="Helvetica,sans-Serif" font-size="10.00">+macro_dirA</text>
<text text-anchor="middle" x="207" y="-112" font-family="Helvetica,sans-Serif" font-size="10.00">+macro_dirB</text>
<text text-anchor="middle" x="207" y="-101" font-family="Helvetica,sans-Serif" font-size="10.00">+reset</text>
<text text-anchor="middle" x="207" y="-90" font-family="Helvetica,sans-Serif" font-size="10.00">+x2_sampling</text>
<text text-anchor="middle" x="207" y="-79" font-family="Helvetica,sans-Serif" font-size="10.00">+x4_sampling</text>
</g>
<!-- Node5 -->
<g id="node5" class="node">
<title>Node5</title>
<g id="a_node5"><a xlink:title=" ">
<polygon fill="white" stroke="black" points="245,-193.5 245,-250.5 301,-250.5 301,-193.5 245,-193.5"/>
<text text-anchor="middle" x="273" y="-238.5" font-family="Helvetica,sans-Serif" font-size="10.00">uint32_t</text>
<polyline fill="none" stroke="black" points="245,-231.5 301,-231.5 "/>
<text text-anchor="middle" x="273" y="-219.5" font-family="Helvetica,sans-Serif" font-size="10.00"> </text>
<polyline fill="none" stroke="black" points="245,-212.5 301,-212.5 "/>
<text text-anchor="middle" x="273" y="-200.5" font-family="Helvetica,sans-Serif" font-size="10.00"> </text>
</a>
</g>
</g>
<!-- Node5&#45;&gt;Node1 -->
<g id="edge4" class="edge">
<title>Node5&#45;&gt;Node1</title>
<path fill="none" stroke="#404040" d="M275.63,-193.29C277.11,-161.55 274.69,-109.61 248,-76 237.67,-62.99 222.99,-53.61 207.74,-46.87"/>
<polygon fill="none" stroke="#404040" points="207.73,-46.86 200.67,-48.35 196.58,-42.4 203.64,-40.92 207.73,-46.86"/>
<text text-anchor="middle" x="317.5" y="-134" font-family="Helvetica,sans-Serif" font-size="10.00"> +channelApin</text>
<text text-anchor="middle" x="317.5" y="-123" font-family="Helvetica,sans-Serif" font-size="10.00">+channelBpin</text>
<text text-anchor="middle" x="317.5" y="-112" font-family="Helvetica,sans-Serif" font-size="10.00">+encoderOptions</text>
</g>
</g>
</svg>
