<?xml version="1.0" encoding="UTF-8" standalone="no"?>
<!DOCTYPE svg PUBLIC "-//W3C//DTD SVG 1.1//EN"
 "http://www.w3.org/Graphics/SVG/1.1/DTD/svg11.dtd">
<!-- Generated by graphviz version 2.43.0 (0)
 -->
<!-- Title: one_adcout_data_t Pages: 1 -->
<svg width="355pt" height="226pt"
 viewBox="0.00 0.00 355.00 226.00" xmlns="http://www.w3.org/2000/svg" xmlns:xlink="http://www.w3.org/1999/xlink">
<g id="graph0" class="graph" transform="scale(1 1) rotate(0) translate(4 222)">
<title>one_adcout_data_t</title>
<polygon fill="white" stroke="transparent" points="-4,4 -4,-222 351,-222 351,4 -4,4"/>
<!-- Node1 -->
<g id="node1" class="node">
<title>Node1</title>
<g id="a_node1"><a xlink:title=" ">
<polygon fill="#bfbfbf" stroke="black" points="111.5,-0.5 111.5,-57.5 220.5,-57.5 220.5,-0.5 111.5,-0.5"/>
<text text-anchor="middle" x="166" y="-45.5" font-family="Helvetica,sans-Serif" font-size="10.00">one_adcout_data_t</text>
<polyline fill="none" stroke="black" points="111.5,-38.5 220.5,-38.5 "/>
<text text-anchor="middle" x="166" y="-26.5" font-family="Helvetica,sans-Serif" font-size="10.00"> </text>
<polyline fill="none" stroke="black" points="111.5,-19.5 220.5,-19.5 "/>
<text text-anchor="middle" x="166" y="-7.5" font-family="Helvetica,sans-Serif" font-size="10.00"> </text>
</a>
</g>
</g>
<!-- Node2 -->
<g id="node2" class="node">
<title>Node2</title>
<g id="a_node2"><a xlink:title=" ">
<polygon fill="white" stroke="black" points="0,-160.5 0,-217.5 72,-217.5 72,-160.5 0,-160.5"/>
<text text-anchor="middle" x="36" y="-205.5" font-family="Helvetica,sans-Serif" font-size="10.00">hal_u32_t *</text>
<polyline fill="none" stroke="black" points="0,-198.5 72,-198.5 "/>
<text text-anchor="middle" x="36" y="-186.5" font-family="Helvetica,sans-Serif" font-size="10.00"> </text>
<polyline fill="none" stroke="black" points="0,-179.5 72,-179.5 "/>
<text text-anchor="middle" x="36" y="-167.5" font-family="Helvetica,sans-Serif" font-size="10.00"> </text>
</a>
</g>
</g>
<!-- Node2&#45;&gt;Node1 -->
<g id="edge1" class="edge">
<title>Node2&#45;&gt;Node1</title>
<path fill="none" stroke="#404040" d="M32.1,-160.19C30.21,-135.55 31.53,-99.86 50,-76 62.3,-60.11 80.92,-49.7 99.65,-42.88"/>
<polygon fill="none" stroke="#404040" points="99.87,-42.8 104.34,-37.14 111.28,-39.08 106.82,-44.74 99.87,-42.8"/>
<text text-anchor="middle" x="81" y="-112" font-family="Helvetica,sans-Serif" font-size="10.00"> +deb_out</text>
<text text-anchor="middle" x="81" y="-101" font-family="Helvetica,sans-Serif" font-size="10.00">+deb_setval</text>
</g>
<!-- Node3 -->
<g id="node3" class="node">
<title>Node3</title>
<g id="a_node3"><a xlink:title=" ">
<polygon fill="white" stroke="black" points="90,-160.5 90,-217.5 158,-217.5 158,-160.5 90,-160.5"/>
<text text-anchor="middle" x="124" y="-205.5" font-family="Helvetica,sans-Serif" font-size="10.00">hal_float_t</text>
<polyline fill="none" stroke="black" points="90,-198.5 158,-198.5 "/>
<text text-anchor="middle" x="124" y="-186.5" font-family="Helvetica,sans-Serif" font-size="10.00"> </text>
<polyline fill="none" stroke="black" points="90,-179.5 158,-179.5 "/>
<text text-anchor="middle" x="124" y="-167.5" font-family="Helvetica,sans-Serif" font-size="10.00"> </text>
</a>
</g>
</g>
<!-- Node3&#45;&gt;Node1 -->
<g id="edge2" class="edge">
<title>Node3&#45;&gt;Node1</title>
<path fill="none" stroke="#404040" d="M118.97,-160.29C115.96,-136.99 114.49,-103.21 125,-76 126.11,-73.12 127.5,-70.3 129.07,-67.57"/>
<polygon fill="none" stroke="#404040" points="129.18,-67.41 129.28,-60.2 135.97,-57.52 135.88,-64.73 129.18,-67.41"/>
<text text-anchor="middle" x="155.5" y="-134" font-family="Helvetica,sans-Serif" font-size="10.00"> +high_limit</text>
<text text-anchor="middle" x="155.5" y="-123" font-family="Helvetica,sans-Serif" font-size="10.00">+low_limit</text>
<text text-anchor="middle" x="155.5" y="-112" font-family="Helvetica,sans-Serif" font-size="10.00">+max_v</text>
<text text-anchor="middle" x="155.5" y="-101" font-family="Helvetica,sans-Serif" font-size="10.00">+offset</text>
<text text-anchor="middle" x="155.5" y="-90" font-family="Helvetica,sans-Serif" font-size="10.00">+scale</text>
<text text-anchor="middle" x="155.5" y="-79" font-family="Helvetica,sans-Serif" font-size="10.00">+value</text>
</g>
<!-- Node4 -->
<g id="node4" class="node">
<title>Node4</title>
<g id="a_node4"><a xlink:title=" ">
<polygon fill="white" stroke="black" points="189,-160.5 189,-217.5 227,-217.5 227,-160.5 189,-160.5"/>
<text text-anchor="middle" x="208" y="-205.5" font-family="Helvetica,sans-Serif" font-size="10.00">bool</text>
<polyline fill="none" stroke="black" points="189,-198.5 227,-198.5 "/>
<text text-anchor="middle" x="208" y="-186.5" font-family="Helvetica,sans-Serif" font-size="10.00"> </text>
<polyline fill="none" stroke="black" points="189,-179.5 227,-179.5 "/>
<text text-anchor="middle" x="208" y="-167.5" font-family="Helvetica,sans-Serif" font-size="10.00"> </text>
</a>
</g>
</g>
<!-- Node4&#45;&gt;Node1 -->
<g id="edge3" class="edge">
<title>Node4&#45;&gt;Node1</title>
<path fill="none" stroke="#404040" d="M204.29,-160.43C200.79,-137.51 194.78,-104.19 186,-76 185.3,-73.76 184.53,-71.47 183.7,-69.18"/>
<polygon fill="none" stroke="#404040" points="183.64,-69.02 177.72,-64.9 179.25,-57.85 185.17,-61.98 183.64,-69.02"/>
<text text-anchor="middle" x="222.5" y="-106.5" font-family="Helvetica,sans-Serif" font-size="10.00"> +enable</text>
</g>
<!-- Node5 -->
<g id="node5" class="node">
<title>Node5</title>
<g id="a_node5"><a xlink:title=" ">
<polygon fill="white" stroke="black" points="245,-160.5 245,-217.5 347,-217.5 347,-160.5 245,-160.5"/>
<text text-anchor="middle" x="296" y="-205.5" font-family="Helvetica,sans-Serif" font-size="10.00">volatile rtapi_u32</text>
<polyline fill="none" stroke="black" points="245,-198.5 347,-198.5 "/>
<text text-anchor="middle" x="296" y="-186.5" font-family="Helvetica,sans-Serif" font-size="10.00"> </text>
<polyline fill="none" stroke="black" points="245,-179.5 347,-179.5 "/>
<text text-anchor="middle" x="296" y="-167.5" font-family="Helvetica,sans-Serif" font-size="10.00"> </text>
</a>
</g>
</g>
<!-- Node5&#45;&gt;Node1 -->
<g id="edge4" class="edge">
<title>Node5&#45;&gt;Node1</title>
<path fill="none" stroke="#404040" d="M289.89,-160.34C283.29,-135.8 270.68,-100.18 249,-76 243.8,-70.2 237.7,-64.98 231.19,-60.32"/>
<polygon fill="none" stroke="#404040" points="230.76,-60.03 223.54,-60.08 220.72,-53.44 227.93,-53.39 230.76,-60.03"/>
<text text-anchor="middle" x="302" y="-106.5" font-family="Helvetica,sans-Serif" font-size="10.00"> +PinId</text>
</g>
</g>
</svg>
