<?xml version="1.0" encoding="UTF-8" standalone="no"?>
<!DOCTYPE svg PUBLIC "-//W3C//DTD SVG 1.1//EN"
 "http://www.w3.org/Graphics/SVG/1.1/DTD/svg11.dtd">
<!-- Generated by graphviz version 2.43.0 (0)
 -->
<!-- Title: PK57iUpdateCtx Pages: 1 -->
<svg width="271pt" height="419pt"
 viewBox="0.00 0.00 270.50 419.00" xmlns="http://www.w3.org/2000/svg" xmlns:xlink="http://www.w3.org/1999/xlink">
<g id="graph0" class="graph" transform="scale(1 1) rotate(0) translate(4 415)">
<title>PK57iUpdateCtx</title>
<polygon fill="white" stroke="transparent" points="-4,4 -4,-415 266.5,-415 266.5,4 -4,4"/>
<!-- Node1 -->
<g id="node1" class="node">
<title>Node1</title>
<g id="a_node1"><a xlink:title=" ">
<polygon fill="#bfbfbf" stroke="black" points="54.5,-0.5 54.5,-57.5 150.5,-57.5 150.5,-0.5 54.5,-0.5"/>
<text text-anchor="middle" x="102.5" y="-45.5" font-family="Helvetica,sans-Serif" font-size="10.00">PK57iUpdateCtx</text>
<polyline fill="none" stroke="black" points="54.5,-38.5 150.5,-38.5 "/>
<text text-anchor="middle" x="102.5" y="-26.5" font-family="Helvetica,sans-Serif" font-size="10.00"> </text>
<polyline fill="none" stroke="black" points="54.5,-19.5 150.5,-19.5 "/>
<text text-anchor="middle" x="102.5" y="-7.5" font-family="Helvetica,sans-Serif" font-size="10.00"> </text>
</a>
</g>
</g>
<!-- Node2 -->
<g id="node2" class="node">
<title>Node2</title>
<g id="a_node2"><a xlink:href="structsPoKeys57Industrial.html" target="_top" xlink:title=" ">
<polygon fill="white" stroke="black" points="37.5,-105.5 37.5,-195.5 167.5,-195.5 167.5,-105.5 37.5,-105.5"/>
<text text-anchor="middle" x="102.5" y="-183.5" font-family="Helvetica,sans-Serif" font-size="10.00">sPoKeys57Industrial</text>
<polyline fill="none" stroke="black" points="37.5,-176.5 167.5,-176.5 "/>
<text text-anchor="start" x="45.5" y="-164.5" font-family="Helvetica,sans-Serif" font-size="10.00">+ reserved</text>
<text text-anchor="start" x="45.5" y="-153.5" font-family="Helvetica,sans-Serif" font-size="10.00">+ digitalOutputs</text>
<text text-anchor="start" x="45.5" y="-142.5" font-family="Helvetica,sans-Serif" font-size="10.00">+ digitalOutputsEnable</text>
<text text-anchor="start" x="45.5" y="-131.5" font-family="Helvetica,sans-Serif" font-size="10.00">+ digitalOutputsFault</text>
<polyline fill="none" stroke="black" points="37.5,-124.5 167.5,-124.5 "/>
<text text-anchor="middle" x="102.5" y="-112.5" font-family="Helvetica,sans-Serif" font-size="10.00"> </text>
</a>
</g>
</g>
<!-- Node2&#45;&gt;Node1 -->
<g id="edge1" class="edge">
<title>Node2&#45;&gt;Node1</title>
<path fill="none" stroke="#404040" d="M102.5,-105.34C102.5,-93.75 102.5,-81.31 102.5,-69.95"/>
<polygon fill="none" stroke="#404040" points="102.5,-69.69 98.5,-63.69 102.5,-57.69 106.5,-63.69 102.5,-69.69"/>
<text text-anchor="middle" x="117.5" y="-79" font-family="Helvetica,sans-Serif" font-size="10.00"> +inst</text>
</g>
<!-- Node3 -->
<g id="node3" class="node">
<title>Node3</title>
<g id="a_node3"><a xlink:title=" ">
<polygon fill="white" stroke="black" points="0,-353.5 0,-410.5 61,-410.5 61,-353.5 0,-353.5"/>
<text text-anchor="middle" x="30.5" y="-398.5" font-family="Helvetica,sans-Serif" font-size="10.00">unsigned</text>
<polyline fill="none" stroke="black" points="0,-391.5 61,-391.5 "/>
<text text-anchor="middle" x="30.5" y="-379.5" font-family="Helvetica,sans-Serif" font-size="10.00"> </text>
<polyline fill="none" stroke="black" points="0,-372.5 61,-372.5 "/>
<text text-anchor="middle" x="30.5" y="-360.5" font-family="Helvetica,sans-Serif" font-size="10.00"> </text>
</a>
</g>
</g>
<!-- Node3&#45;&gt;Node2 -->
<g id="edge2" class="edge">
<title>Node3&#45;&gt;Node2</title>
<path fill="none" stroke="#404040" d="M24.02,-353.22C17.44,-318.82 10.89,-259.25 31.5,-214 32.86,-211.02 34.43,-208.13 36.19,-205.32"/>
<polygon fill="none" stroke="#404040" points="36.21,-205.29 36.48,-198.09 43.23,-195.57 42.96,-202.77 36.21,-205.29"/>
<text text-anchor="middle" x="92" y="-327" font-family="Helvetica,sans-Serif" font-size="10.00"> +FirmwareVersionMajor</text>
<text text-anchor="middle" x="92" y="-316" font-family="Helvetica,sans-Serif" font-size="10.00">+FirmwareVersionMinor</text>
<text text-anchor="middle" x="92" y="-305" font-family="Helvetica,sans-Serif" font-size="10.00">+HWtype</text>
<text text-anchor="middle" x="92" y="-294" font-family="Helvetica,sans-Serif" font-size="10.00">+IPaddress</text>
<text text-anchor="middle" x="92" y="-283" font-family="Helvetica,sans-Serif" font-size="10.00">+SerialNumber</text>
<text text-anchor="middle" x="92" y="-272" font-family="Helvetica,sans-Serif" font-size="10.00">+UserID</text>
<text text-anchor="middle" x="92" y="-261" font-family="Helvetica,sans-Serif" font-size="10.00">+analogInputs</text>
<text text-anchor="middle" x="92" y="-250" font-family="Helvetica,sans-Serif" font-size="10.00">+analogOutputs</text>
<text text-anchor="middle" x="92" y="-239" font-family="Helvetica,sans-Serif" font-size="10.00">+analogOutputsFault</text>
<text text-anchor="middle" x="92" y="-228" font-family="Helvetica,sans-Serif" font-size="10.00">+digitalInputs</text>
<text text-anchor="middle" x="92" y="-217" font-family="Helvetica,sans-Serif" font-size="10.00">...</text>
</g>
<!-- Node4 -->
<g id="node4" class="node">
<title>Node4</title>
<g id="a_node4"><a xlink:title=" ">
<polygon fill="white" stroke="black" points="151.5,-353.5 151.5,-410.5 197.5,-410.5 197.5,-353.5 151.5,-353.5"/>
<text text-anchor="middle" x="174.5" y="-398.5" font-family="Helvetica,sans-Serif" font-size="10.00">void *</text>
<polyline fill="none" stroke="black" points="151.5,-391.5 197.5,-391.5 "/>
<text text-anchor="middle" x="174.5" y="-379.5" font-family="Helvetica,sans-Serif" font-size="10.00"> </text>
<polyline fill="none" stroke="black" points="151.5,-372.5 197.5,-372.5 "/>
<text text-anchor="middle" x="174.5" y="-360.5" font-family="Helvetica,sans-Serif" font-size="10.00"> </text>
</a>
</g>
</g>
<!-- Node4&#45;&gt;Node2 -->
<g id="edge3" class="edge">
<title>Node4&#45;&gt;Node2</title>
<path fill="none" stroke="#404040" d="M175.32,-353.21C175.34,-319.06 172.11,-260 152.5,-214 151.37,-211.36 150.1,-208.73 148.72,-206.14"/>
<polygon fill="none" stroke="#404040" points="148.64,-206.01 142.12,-202.92 142.47,-195.72 148.99,-198.81 148.64,-206.01"/>
<text text-anchor="middle" x="218.5" y="-272" font-family="Helvetica,sans-Serif" font-size="10.00"> +deviceStructure</text>
</g>
</g>
</svg>
