<?xml version="1.0" encoding="UTF-8" standalone="no"?>
<!DOCTYPE svg PUBLIC "-//W3C//DTD SVG 1.1//EN"
 "http://www.w3.org/Graphics/SVG/1.1/DTD/svg11.dtd">
<!-- Generated by graphviz version 2.43.0 (0)
 -->
<!-- Title: sPoILmemoryChunk Pages: 1 -->
<svg width="136pt" height="204pt"
 viewBox="0.00 0.00 136.00 204.00" xmlns="http://www.w3.org/2000/svg" xmlns:xlink="http://www.w3.org/1999/xlink">
<g id="graph0" class="graph" transform="scale(1 1) rotate(0) translate(4 200)">
<title>sPoILmemoryChunk</title>
<polygon fill="white" stroke="transparent" points="-4,4 -4,-200 132,-200 132,4 -4,4"/>
<!-- Node1 -->
<g id="node1" class="node">
<title>Node1</title>
<g id="a_node1"><a xlink:title=" ">
<polygon fill="#bfbfbf" stroke="black" points="0,-0.5 0,-57.5 114,-57.5 114,-0.5 0,-0.5"/>
<text text-anchor="middle" x="57" y="-45.5" font-family="Helvetica,sans-Serif" font-size="10.00">sPoILmemoryChunk</text>
<polyline fill="none" stroke="black" points="0,-38.5 114,-38.5 "/>
<text text-anchor="middle" x="57" y="-26.5" font-family="Helvetica,sans-Serif" font-size="10.00"> </text>
<polyline fill="none" stroke="black" points="0,-19.5 114,-19.5 "/>
<text text-anchor="middle" x="57" y="-7.5" font-family="Helvetica,sans-Serif" font-size="10.00"> </text>
</a>
</g>
</g>
<!-- Node2 -->
<g id="node2" class="node">
<title>Node2</title>
<g id="a_node2"><a xlink:title=" ">
<polygon fill="white" stroke="black" points="26.5,-138.5 26.5,-195.5 87.5,-195.5 87.5,-138.5 26.5,-138.5"/>
<text text-anchor="middle" x="57" y="-183.5" font-family="Helvetica,sans-Serif" font-size="10.00">unsigned</text>
<polyline fill="none" stroke="black" points="26.5,-176.5 87.5,-176.5 "/>
<text text-anchor="middle" x="57" y="-164.5" font-family="Helvetica,sans-Serif" font-size="10.00"> </text>
<polyline fill="none" stroke="black" points="26.5,-157.5 87.5,-157.5 "/>
<text text-anchor="middle" x="57" y="-145.5" font-family="Helvetica,sans-Serif" font-size="10.00"> </text>
</a>
</g>
</g>
<!-- Node2&#45;&gt;Node1 -->
<g id="edge1" class="edge">
<title>Node2&#45;&gt;Node1</title>
<path fill="none" stroke="#404040" d="M57,-138.48C57,-118.79 57,-91.99 57,-69.95"/>
<polygon fill="none" stroke="#404040" points="57,-69.95 53,-63.95 57,-57.95 61,-63.95 57,-69.95"/>
<text text-anchor="middle" x="92.5" y="-112" font-family="Helvetica,sans-Serif" font-size="10.00"> +address</text>
<text text-anchor="middle" x="92.5" y="-101" font-family="Helvetica,sans-Serif" font-size="10.00">+chunkLength</text>
<text text-anchor="middle" x="92.5" y="-90" font-family="Helvetica,sans-Serif" font-size="10.00">+reserved</text>
<text text-anchor="middle" x="92.5" y="-79" font-family="Helvetica,sans-Serif" font-size="10.00">+reserved2</text>
</g>
</g>
</svg>
