<?xml version="1.0" encoding="UTF-8" standalone="no"?>
<!DOCTYPE svg PUBLIC "-//W3C//DTD SVG 1.1//EN"
 "http://www.w3.org/Graphics/SVG/1.1/DTD/svg11.dtd">
<!-- Generated by graphviz version 2.43.0 (0)
 -->
<!-- Title: go_hom Pages: 1 -->
<svg width="123pt" height="425pt"
 viewBox="0.00 0.00 122.50 425.00" xmlns="http://www.w3.org/2000/svg" xmlns:xlink="http://www.w3.org/1999/xlink">
<g id="graph0" class="graph" transform="scale(1 1) rotate(0) translate(4 421)">
<title>go_hom</title>
<polygon fill="white" stroke="transparent" points="-4,4 -4,-421 118.5,-421 118.5,4 -4,4"/>
<!-- Node1 -->
<g id="node1" class="node">
<title>Node1</title>
<g id="a_node1"><a xlink:title=" ">
<polygon fill="#bfbfbf" stroke="black" points="0,-0.5 0,-57.5 56,-57.5 56,-0.5 0,-0.5"/>
<text text-anchor="middle" x="28" y="-45.5" font-family="Helvetica,sans-Serif" font-size="10.00">go_hom</text>
<polyline fill="none" stroke="black" points="0,-38.5 56,-38.5 "/>
<text text-anchor="middle" x="28" y="-26.5" font-family="Helvetica,sans-Serif" font-size="10.00"> </text>
<polyline fill="none" stroke="black" points="0,-19.5 56,-19.5 "/>
<text text-anchor="middle" x="28" y="-7.5" font-family="Helvetica,sans-Serif" font-size="10.00"> </text>
</a>
</g>
</g>
<!-- Node2 -->
<g id="node2" class="node">
<title>Node2</title>
<g id="a_node2"><a xlink:href="structgo__cart.html" target="_top" xlink:title=" ">
<polygon fill="white" stroke="black" points="1.5,-232.5 1.5,-289.5 54.5,-289.5 54.5,-232.5 1.5,-232.5"/>
<text text-anchor="middle" x="28" y="-277.5" font-family="Helvetica,sans-Serif" font-size="10.00">go_cart</text>
<polyline fill="none" stroke="black" points="1.5,-270.5 54.5,-270.5 "/>
<text text-anchor="middle" x="28" y="-258.5" font-family="Helvetica,sans-Serif" font-size="10.00"> </text>
<polyline fill="none" stroke="black" points="1.5,-251.5 54.5,-251.5 "/>
<text text-anchor="middle" x="28" y="-239.5" font-family="Helvetica,sans-Serif" font-size="10.00"> </text>
</a>
</g>
</g>
<!-- Node2&#45;&gt;Node1 -->
<g id="edge1" class="edge">
<title>Node2&#45;&gt;Node1</title>
<path fill="none" stroke="#404040" d="M25.61,-232.28C23.25,-201.27 20.22,-149.53 22,-105 22.45,-93.62 23.3,-81.29 24.21,-69.98"/>
<polygon fill="none" stroke="#404040" points="24.23,-69.71 20.75,-63.39 25.25,-57.75 28.72,-64.07 24.23,-69.71"/>
<text text-anchor="middle" x="37.5" y="-131.5" font-family="Helvetica,sans-Serif" font-size="10.00"> +tran</text>
</g>
<!-- Node4 -->
<g id="node4" class="node">
<title>Node4</title>
<g id="a_node4"><a xlink:href="structgo__mat.html" target="_top" xlink:title=" ">
<polygon fill="white" stroke="black" points="61.5,-105.5 61.5,-162.5 114.5,-162.5 114.5,-105.5 61.5,-105.5"/>
<text text-anchor="middle" x="88" y="-150.5" font-family="Helvetica,sans-Serif" font-size="10.00">go_mat</text>
<polyline fill="none" stroke="black" points="61.5,-143.5 114.5,-143.5 "/>
<text text-anchor="middle" x="88" y="-131.5" font-family="Helvetica,sans-Serif" font-size="10.00"> </text>
<polyline fill="none" stroke="black" points="61.5,-124.5 114.5,-124.5 "/>
<text text-anchor="middle" x="88" y="-112.5" font-family="Helvetica,sans-Serif" font-size="10.00"> </text>
</a>
</g>
</g>
<!-- Node2&#45;&gt;Node4 -->
<g id="edge4" class="edge">
<title>Node2&#45;&gt;Node4</title>
<path fill="none" stroke="#404040" d="M41.32,-232.26C49.59,-215.02 60.34,-192.62 69.45,-173.66"/>
<polygon fill="none" stroke="#404040" points="69.53,-173.48 68.52,-166.34 74.72,-162.66 75.73,-169.8 69.53,-173.48"/>
<text text-anchor="middle" x="74" y="-206" font-family="Helvetica,sans-Serif" font-size="10.00"> +x</text>
<text text-anchor="middle" x="74" y="-195" font-family="Helvetica,sans-Serif" font-size="10.00">+y</text>
<text text-anchor="middle" x="74" y="-184" font-family="Helvetica,sans-Serif" font-size="10.00">+z</text>
</g>
<!-- Node3 -->
<g id="node3" class="node">
<title>Node3</title>
<g id="a_node3"><a xlink:title=" ">
<polygon fill="white" stroke="black" points="3,-359.5 3,-416.5 53,-416.5 53,-359.5 3,-359.5"/>
<text text-anchor="middle" x="28" y="-404.5" font-family="Helvetica,sans-Serif" font-size="10.00">double</text>
<polyline fill="none" stroke="black" points="3,-397.5 53,-397.5 "/>
<text text-anchor="middle" x="28" y="-385.5" font-family="Helvetica,sans-Serif" font-size="10.00"> </text>
<polyline fill="none" stroke="black" points="3,-378.5 53,-378.5 "/>
<text text-anchor="middle" x="28" y="-366.5" font-family="Helvetica,sans-Serif" font-size="10.00"> </text>
</a>
</g>
</g>
<!-- Node3&#45;&gt;Node2 -->
<g id="edge2" class="edge">
<title>Node3&#45;&gt;Node2</title>
<path fill="none" stroke="#404040" d="M28,-359.26C28,-342.35 28,-320.46 28,-301.73"/>
<polygon fill="none" stroke="#404040" points="28,-301.66 24,-295.66 28,-289.66 32,-295.66 28,-301.66"/>
<text text-anchor="middle" x="37" y="-333" font-family="Helvetica,sans-Serif" font-size="10.00"> +x</text>
<text text-anchor="middle" x="37" y="-322" font-family="Helvetica,sans-Serif" font-size="10.00">+y</text>
<text text-anchor="middle" x="37" y="-311" font-family="Helvetica,sans-Serif" font-size="10.00">+z</text>
</g>
<!-- Node4&#45;&gt;Node1 -->
<g id="edge3" class="edge">
<title>Node4&#45;&gt;Node1</title>
<path fill="none" stroke="#404040" d="M71.92,-105.4C65.26,-93.97 57.43,-80.52 50.24,-68.17"/>
<polygon fill="none" stroke="#404040" points="50.16,-68.05 43.69,-64.88 44.12,-57.68 50.6,-60.85 50.16,-68.05"/>
<text text-anchor="middle" x="72.5" y="-79" font-family="Helvetica,sans-Serif" font-size="10.00"> +rot</text>
</g>
</g>
</svg>
