<?xml version="1.0" encoding="UTF-8" standalone="no"?>
<!DOCTYPE svg PUBLIC "-//W3C//DTD SVG 1.1//EN"
 "http://www.w3.org/Graphics/SVG/1.1/DTD/svg11.dtd">
<!-- Generated by graphviz version 2.43.0 (0)
 -->
<!-- Title: EasySensorAsyncContext Pages: 1 -->
<svg width="221pt" height="353pt"
 viewBox="0.00 0.00 220.50 353.00" xmlns="http://www.w3.org/2000/svg" xmlns:xlink="http://www.w3.org/1999/xlink">
<g id="graph0" class="graph" transform="scale(1 1) rotate(0) translate(4 349)">
<title>EasySensorAsyncContext</title>
<polygon fill="white" stroke="transparent" points="-4,4 -4,-349 216.5,-349 216.5,4 -4,4"/>
<!-- Node1 -->
<g id="node1" class="node">
<title>Node1</title>
<g id="a_node1"><a xlink:title=" ">
<polygon fill="#bfbfbf" stroke="black" points="38.5,-0.5 38.5,-57.5 178.5,-57.5 178.5,-0.5 38.5,-0.5"/>
<text text-anchor="middle" x="108.5" y="-45.5" font-family="Helvetica,sans-Serif" font-size="10.00">EasySensorAsyncContext</text>
<polyline fill="none" stroke="black" points="38.5,-38.5 178.5,-38.5 "/>
<text text-anchor="middle" x="108.5" y="-26.5" font-family="Helvetica,sans-Serif" font-size="10.00"> </text>
<polyline fill="none" stroke="black" points="38.5,-19.5 178.5,-19.5 "/>
<text text-anchor="middle" x="108.5" y="-7.5" font-family="Helvetica,sans-Serif" font-size="10.00"> </text>
</a>
</g>
</g>
<!-- Node2 -->
<g id="node2" class="node">
<title>Node2</title>
<g id="a_node2"><a xlink:href="structsPoKeysEasySensor.html" target="_top" xlink:title=" ">
<polygon fill="white" stroke="black" points="5,-116.5 5,-173.5 118,-173.5 118,-116.5 5,-116.5"/>
<text text-anchor="middle" x="61.5" y="-161.5" font-family="Helvetica,sans-Serif" font-size="10.00">sPoKeysEasySensor</text>
<polyline fill="none" stroke="black" points="5,-154.5 118,-154.5 "/>
<text text-anchor="middle" x="61.5" y="-142.5" font-family="Helvetica,sans-Serif" font-size="10.00"> </text>
<polyline fill="none" stroke="black" points="5,-135.5 118,-135.5 "/>
<text text-anchor="middle" x="61.5" y="-123.5" font-family="Helvetica,sans-Serif" font-size="10.00"> </text>
</a>
</g>
</g>
<!-- Node2&#45;&gt;Node1 -->
<g id="edge1" class="edge">
<title>Node2&#45;&gt;Node1</title>
<path fill="none" stroke="#404040" d="M61.7,-116.26C62.66,-103.55 65.03,-88.55 70.5,-76 71.73,-73.17 73.19,-70.39 74.81,-67.66"/>
<polygon fill="none" stroke="#404040" points="74.93,-67.47 74.99,-60.26 81.67,-57.54 81.61,-64.75 74.93,-67.47"/>
<text text-anchor="middle" x="102" y="-84.5" font-family="Helvetica,sans-Serif" font-size="10.00"> +sensor_ptr</text>
</g>
<!-- Node3 -->
<g id="node3" class="node">
<title>Node3</title>
<g id="a_node3"><a xlink:title=" ">
<polygon fill="white" stroke="black" points="0,-287.5 0,-344.5 29,-344.5 29,-287.5 0,-287.5"/>
<text text-anchor="middle" x="14.5" y="-332.5" font-family="Helvetica,sans-Serif" font-size="10.00">int</text>
<polyline fill="none" stroke="black" points="0,-325.5 29,-325.5 "/>
<text text-anchor="middle" x="14.5" y="-313.5" font-family="Helvetica,sans-Serif" font-size="10.00"> </text>
<polyline fill="none" stroke="black" points="0,-306.5 29,-306.5 "/>
<text text-anchor="middle" x="14.5" y="-294.5" font-family="Helvetica,sans-Serif" font-size="10.00"> </text>
</a>
</g>
</g>
<!-- Node3&#45;&gt;Node2 -->
<g id="edge2" class="edge">
<title>Node3&#45;&gt;Node2</title>
<path fill="none" stroke="#404040" d="M8.95,-287.42C5.07,-261.68 2.63,-222.73 15.5,-192 16.77,-188.98 18.33,-186.05 20.12,-183.24"/>
<polygon fill="none" stroke="#404040" points="20.19,-183.15 20.6,-175.95 27.4,-173.56 26.99,-180.76 20.19,-183.15"/>
<text text-anchor="middle" x="51" y="-228" font-family="Helvetica,sans-Serif" font-size="10.00"> +sensorValue</text>
</g>
<!-- Node4 -->
<g id="node4" class="node">
<title>Node4</title>
<g id="a_node4"><a xlink:title=" ">
<polygon fill="white" stroke="black" points="78,-287.5 78,-344.5 139,-344.5 139,-287.5 78,-287.5"/>
<text text-anchor="middle" x="108.5" y="-332.5" font-family="Helvetica,sans-Serif" font-size="10.00">unsigned</text>
<polyline fill="none" stroke="black" points="78,-325.5 139,-325.5 "/>
<text text-anchor="middle" x="108.5" y="-313.5" font-family="Helvetica,sans-Serif" font-size="10.00"> </text>
<polyline fill="none" stroke="black" points="78,-306.5 139,-306.5 "/>
<text text-anchor="middle" x="108.5" y="-294.5" font-family="Helvetica,sans-Serif" font-size="10.00"> </text>
</a>
</g>
</g>
<!-- Node4&#45;&gt;Node2 -->
<g id="edge3" class="edge">
<title>Node4&#45;&gt;Node2</title>
<path fill="none" stroke="#404040" d="M106.13,-287.49C103.35,-262.13 97.63,-223.73 86.5,-192 85.62,-189.49 84.61,-186.96 83.52,-184.43"/>
<polygon fill="none" stroke="#404040" points="83.5,-184.38 77.3,-180.7 78.32,-173.56 84.52,-177.25 83.5,-184.38"/>
<text text-anchor="middle" x="158" y="-261" font-family="Helvetica,sans-Serif" font-size="10.00"> +reserved</text>
<text text-anchor="middle" x="158" y="-250" font-family="Helvetica,sans-Serif" font-size="10.00">+sensorFailsafeConfig</text>
<text text-anchor="middle" x="158" y="-239" font-family="Helvetica,sans-Serif" font-size="10.00">+sensorID</text>
<text text-anchor="middle" x="158" y="-228" font-family="Helvetica,sans-Serif" font-size="10.00">+sensorOKstatus</text>
<text text-anchor="middle" x="158" y="-217" font-family="Helvetica,sans-Serif" font-size="10.00">+sensorReadingID</text>
<text text-anchor="middle" x="158" y="-206" font-family="Helvetica,sans-Serif" font-size="10.00">+sensorRefreshPeriod</text>
<text text-anchor="middle" x="158" y="-195" font-family="Helvetica,sans-Serif" font-size="10.00">+sensorType</text>
</g>
<!-- Node5 -->
<g id="node5" class="node">
<title>Node5</title>
<g id="a_node5"><a xlink:title=" ">
<polygon fill="white" stroke="black" points="136.5,-116.5 136.5,-173.5 174.5,-173.5 174.5,-116.5 136.5,-116.5"/>
<text text-anchor="middle" x="155.5" y="-161.5" font-family="Helvetica,sans-Serif" font-size="10.00">char</text>
<polyline fill="none" stroke="black" points="136.5,-154.5 174.5,-154.5 "/>
<text text-anchor="middle" x="155.5" y="-142.5" font-family="Helvetica,sans-Serif" font-size="10.00"> </text>
<polyline fill="none" stroke="black" points="136.5,-135.5 174.5,-135.5 "/>
<text text-anchor="middle" x="155.5" y="-123.5" font-family="Helvetica,sans-Serif" font-size="10.00"> </text>
</a>
</g>
</g>
<!-- Node5&#45;&gt;Node1 -->
<g id="edge4" class="edge">
<title>Node5&#45;&gt;Node1</title>
<path fill="none" stroke="#404040" d="M147.85,-116.44C144.05,-103.91 139.08,-89 133.5,-76 132.45,-73.56 131.32,-71.07 130.13,-68.59"/>
<polygon fill="none" stroke="#404040" points="130.09,-68.52 123.82,-64.97 124.68,-57.81 130.96,-61.36 130.09,-68.52"/>
<text text-anchor="middle" x="160" y="-90" font-family="Helvetica,sans-Serif" font-size="10.00"> +count</text>
<text text-anchor="middle" x="160" y="-79" font-family="Helvetica,sans-Serif" font-size="10.00">+used</text>
</g>
</g>
</svg>
