<?xml version="1.0" encoding="UTF-8" standalone="no"?>
<!DOCTYPE svg PUBLIC "-//W3C//DTD SVG 1.1//EN"
 "http://www.w3.org/Graphics/SVG/1.1/DTD/svg11.dtd">
<!-- Generated by graphviz version 2.43.0 (0)
 -->
<!-- Title: go_dh Pages: 1 -->
<svg width="69pt" height="204pt"
 viewBox="0.00 0.00 69.00 204.00" xmlns="http://www.w3.org/2000/svg" xmlns:xlink="http://www.w3.org/1999/xlink">
<g id="graph0" class="graph" transform="scale(1 1) rotate(0) translate(4 200)">
<title>go_dh</title>
<polygon fill="white" stroke="transparent" points="-4,4 -4,-200 65,-200 65,4 -4,4"/>
<!-- Node1 -->
<g id="node1" class="node">
<title>Node1</title>
<g id="a_node1"><a xlink:title=" ">
<polygon fill="#bfbfbf" stroke="black" points="2,-0.5 2,-57.5 48,-57.5 48,-0.5 2,-0.5"/>
<text text-anchor="middle" x="25" y="-45.5" font-family="Helvetica,sans-Serif" font-size="10.00">go_dh</text>
<polyline fill="none" stroke="black" points="2,-38.5 48,-38.5 "/>
<text text-anchor="middle" x="25" y="-26.5" font-family="Helvetica,sans-Serif" font-size="10.00"> </text>
<polyline fill="none" stroke="black" points="2,-19.5 48,-19.5 "/>
<text text-anchor="middle" x="25" y="-7.5" font-family="Helvetica,sans-Serif" font-size="10.00"> </text>
</a>
</g>
</g>
<!-- Node2 -->
<g id="node2" class="node">
<title>Node2</title>
<g id="a_node2"><a xlink:title=" ">
<polygon fill="white" stroke="black" points="0,-138.5 0,-195.5 50,-195.5 50,-138.5 0,-138.5"/>
<text text-anchor="middle" x="25" y="-183.5" font-family="Helvetica,sans-Serif" font-size="10.00">double</text>
<polyline fill="none" stroke="black" points="0,-176.5 50,-176.5 "/>
<text text-anchor="middle" x="25" y="-164.5" font-family="Helvetica,sans-Serif" font-size="10.00"> </text>
<polyline fill="none" stroke="black" points="0,-157.5 50,-157.5 "/>
<text text-anchor="middle" x="25" y="-145.5" font-family="Helvetica,sans-Serif" font-size="10.00"> </text>
</a>
</g>
</g>
<!-- Node2&#45;&gt;Node1 -->
<g id="edge1" class="edge">
<title>Node2&#45;&gt;Node1</title>
<path fill="none" stroke="#404040" d="M25,-138.48C25,-118.79 25,-91.99 25,-69.95"/>
<polygon fill="none" stroke="#404040" points="25,-69.95 21,-63.95 25,-57.95 29,-63.95 25,-69.95"/>
<text text-anchor="middle" x="43" y="-112" font-family="Helvetica,sans-Serif" font-size="10.00"> +a</text>
<text text-anchor="middle" x="43" y="-101" font-family="Helvetica,sans-Serif" font-size="10.00">+alpha</text>
<text text-anchor="middle" x="43" y="-90" font-family="Helvetica,sans-Serif" font-size="10.00">+d</text>
<text text-anchor="middle" x="43" y="-79" font-family="Helvetica,sans-Serif" font-size="10.00">+theta</text>
</g>
</g>
</svg>
