<?xml version="1.0" encoding="UTF-8" standalone="no"?>
<!DOCTYPE svg PUBLIC "-//W3C//DTD SVG 1.1//EN"
 "http://www.w3.org/Graphics/SVG/1.1/DTD/svg11.dtd">
<!-- Generated by graphviz version 2.43.0 (0)
 -->
<!-- Title: pycontext Pages: 1 -->
<svg width="109pt" height="204pt"
 viewBox="0.00 0.00 109.00 204.00" xmlns="http://www.w3.org/2000/svg" xmlns:xlink="http://www.w3.org/1999/xlink">
<g id="graph0" class="graph" transform="scale(1 1) rotate(0) translate(4 200)">
<title>pycontext</title>
<polygon fill="white" stroke="transparent" points="-4,4 -4,-200 105,-200 105,4 -4,4"/>
<!-- Node1 -->
<g id="node1" class="node">
<title>Node1</title>
<g id="a_node1"><a xlink:title=" ">
<polygon fill="#bfbfbf" stroke="black" points="4.5,-0.5 4.5,-90.5 96.5,-90.5 96.5,-0.5 4.5,-0.5"/>
<text text-anchor="middle" x="50.5" y="-78.5" font-family="Helvetica,sans-Serif" font-size="10.00">pycontext</text>
<polyline fill="none" stroke="black" points="4.5,-71.5 96.5,-71.5 "/>
<text text-anchor="middle" x="50.5" y="-59.5" font-family="Helvetica,sans-Serif" font-size="10.00"> </text>
<polyline fill="none" stroke="black" points="4.5,-52.5 96.5,-52.5 "/>
<text text-anchor="start" x="12.5" y="-40.5" font-family="Helvetica,sans-Serif" font-size="10.00">+ pycontext()</text>
<text text-anchor="start" x="12.5" y="-29.5" font-family="Helvetica,sans-Serif" font-size="10.00">+ pycontext()</text>
<text text-anchor="start" x="12.5" y="-18.5" font-family="Helvetica,sans-Serif" font-size="10.00">+ operator=()</text>
<text text-anchor="start" x="12.5" y="-7.5" font-family="Helvetica,sans-Serif" font-size="10.00">+ ~pycontext()</text>
</a>
</g>
</g>
<!-- Node2 -->
<g id="node2" class="node">
<title>Node2</title>
<g id="a_node2"><a xlink:title=" ">
<polygon fill="white" stroke="black" points="0,-138.5 0,-195.5 101,-195.5 101,-138.5 0,-138.5"/>
<text text-anchor="middle" x="50.5" y="-183.5" font-family="Helvetica,sans-Serif" font-size="10.00">pycontext_impl *</text>
<polyline fill="none" stroke="black" points="0,-176.5 101,-176.5 "/>
<text text-anchor="middle" x="50.5" y="-164.5" font-family="Helvetica,sans-Serif" font-size="10.00"> </text>
<polyline fill="none" stroke="black" points="0,-157.5 101,-157.5 "/>
<text text-anchor="middle" x="50.5" y="-145.5" font-family="Helvetica,sans-Serif" font-size="10.00"> </text>
</a>
</g>
</g>
<!-- Node2&#45;&gt;Node1 -->
<g id="edge1" class="edge">
<title>Node2&#45;&gt;Node1</title>
<path fill="none" stroke="#404040" d="M50.5,-138.28C50.5,-127.73 50.5,-115.29 50.5,-103.03"/>
<polygon fill="none" stroke="#404040" points="50.5,-102.91 46.5,-96.91 50.5,-90.91 54.5,-96.91 50.5,-102.91"/>
<text text-anchor="middle" x="67.5" y="-112" font-family="Helvetica,sans-Serif" font-size="10.00"> +impl</text>
</g>
</g>
</svg>
