<?xml version="1.0" encoding="UTF-8" standalone="no"?>
<!DOCTYPE svg PUBLIC "-//W3C//DTD SVG 1.1//EN"
 "http://www.w3.org/Graphics/SVG/1.1/DTD/svg11.dtd">
<!-- Generated by graphviz version 2.43.0 (0)
 -->
<!-- Title: COSMAsyncContext Pages: 1 -->
<svg width="191pt" height="353pt"
 viewBox="0.00 0.00 191.00 353.00" xmlns="http://www.w3.org/2000/svg" xmlns:xlink="http://www.w3.org/1999/xlink">
<g id="graph0" class="graph" transform="scale(1 1) rotate(0) translate(4 349)">
<title>COSMAsyncContext</title>
<polygon fill="white" stroke="transparent" points="-4,4 -4,-349 187,-349 187,4 -4,4"/>
<!-- Node1 -->
<g id="node1" class="node">
<title>Node1</title>
<g id="a_node1"><a xlink:title=" ">
<polygon fill="#bfbfbf" stroke="black" points="69.5,-0.5 69.5,-57.5 182.5,-57.5 182.5,-0.5 69.5,-0.5"/>
<text text-anchor="middle" x="126" y="-45.5" font-family="Helvetica,sans-Serif" font-size="10.00">COSMAsyncContext</text>
<polyline fill="none" stroke="black" points="69.5,-38.5 182.5,-38.5 "/>
<text text-anchor="middle" x="126" y="-26.5" font-family="Helvetica,sans-Serif" font-size="10.00"> </text>
<polyline fill="none" stroke="black" points="69.5,-19.5 182.5,-19.5 "/>
<text text-anchor="middle" x="126" y="-7.5" font-family="Helvetica,sans-Serif" font-size="10.00"> </text>
</a>
</g>
</g>
<!-- Node2 -->
<g id="node2" class="node">
<title>Node2</title>
<g id="a_node2"><a xlink:href="structsPoKeysCOSMSettings.html" target="_top" xlink:title=" ">
<polygon fill="white" stroke="black" points="0,-116.5 0,-173.5 126,-173.5 126,-116.5 0,-116.5"/>
<text text-anchor="middle" x="63" y="-161.5" font-family="Helvetica,sans-Serif" font-size="10.00">sPoKeysCOSMSettings</text>
<polyline fill="none" stroke="black" points="0,-154.5 126,-154.5 "/>
<text text-anchor="middle" x="63" y="-142.5" font-family="Helvetica,sans-Serif" font-size="10.00"> </text>
<polyline fill="none" stroke="black" points="0,-135.5 126,-135.5 "/>
<text text-anchor="middle" x="63" y="-123.5" font-family="Helvetica,sans-Serif" font-size="10.00"> </text>
</a>
</g>
</g>
<!-- Node2&#45;&gt;Node1 -->
<g id="edge1" class="edge">
<title>Node2&#45;&gt;Node1</title>
<path fill="none" stroke="#404040" d="M69.66,-116.48C73.41,-103.68 78.8,-88.54 86,-76 87.7,-73.03 89.62,-70.08 91.66,-67.18"/>
<polygon fill="none" stroke="#404040" points="91.67,-67.16 92.14,-59.97 98.97,-57.64 98.5,-64.83 91.67,-67.16"/>
<text text-anchor="middle" x="111.5" y="-84.5" font-family="Helvetica,sans-Serif" font-size="10.00"> +settings</text>
</g>
<!-- Node3 -->
<g id="node3" class="node">
<title>Node3</title>
<g id="a_node3"><a xlink:title=" ">
<polygon fill="white" stroke="black" points="32.5,-287.5 32.5,-344.5 93.5,-344.5 93.5,-287.5 32.5,-287.5"/>
<text text-anchor="middle" x="63" y="-332.5" font-family="Helvetica,sans-Serif" font-size="10.00">unsigned</text>
<polyline fill="none" stroke="black" points="32.5,-325.5 93.5,-325.5 "/>
<text text-anchor="middle" x="63" y="-313.5" font-family="Helvetica,sans-Serif" font-size="10.00"> </text>
<polyline fill="none" stroke="black" points="32.5,-306.5 93.5,-306.5 "/>
<text text-anchor="middle" x="63" y="-294.5" font-family="Helvetica,sans-Serif" font-size="10.00"> </text>
</a>
</g>
</g>
<!-- Node3&#45;&gt;Node2 -->
<g id="edge2" class="edge">
<title>Node3&#45;&gt;Node2</title>
<path fill="none" stroke="#404040" d="M63,-287.47C63,-259.85 63,-217.03 63,-185.73"/>
<polygon fill="none" stroke="#404040" points="63,-185.52 59,-179.52 63,-173.52 67,-179.52 63,-185.52"/>
<text text-anchor="middle" x="115" y="-261" font-family="Helvetica,sans-Serif" font-size="10.00"> +lastStatusCode</text>
<text text-anchor="middle" x="115" y="-250" font-family="Helvetica,sans-Serif" font-size="10.00">+protocolDescription</text>
<text text-anchor="middle" x="115" y="-239" font-family="Helvetica,sans-Serif" font-size="10.00">+requestHeaders</text>
<text text-anchor="middle" x="115" y="-228" font-family="Helvetica,sans-Serif" font-size="10.00">+requestType</text>
<text text-anchor="middle" x="115" y="-217" font-family="Helvetica,sans-Serif" font-size="10.00">+serverIP</text>
<text text-anchor="middle" x="115" y="-206" font-family="Helvetica,sans-Serif" font-size="10.00">+serverPort</text>
<text text-anchor="middle" x="115" y="-195" font-family="Helvetica,sans-Serif" font-size="10.00">+updateRate</text>
</g>
<!-- Node4 -->
<g id="node4" class="node">
<title>Node4</title>
<g id="a_node4"><a xlink:title=" ">
<polygon fill="white" stroke="black" points="144,-116.5 144,-173.5 182,-173.5 182,-116.5 144,-116.5"/>
<text text-anchor="middle" x="163" y="-161.5" font-family="Helvetica,sans-Serif" font-size="10.00">char</text>
<polyline fill="none" stroke="black" points="144,-154.5 182,-154.5 "/>
<text text-anchor="middle" x="163" y="-142.5" font-family="Helvetica,sans-Serif" font-size="10.00"> </text>
<polyline fill="none" stroke="black" points="144,-135.5 182,-135.5 "/>
<text text-anchor="middle" x="163" y="-123.5" font-family="Helvetica,sans-Serif" font-size="10.00"> </text>
</a>
</g>
</g>
<!-- Node4&#45;&gt;Node1 -->
<g id="edge3" class="edge">
<title>Node4&#45;&gt;Node1</title>
<path fill="none" stroke="#404040" d="M154.04,-116.4C149.44,-102.23 143.76,-84.71 138.71,-69.16"/>
<polygon fill="none" stroke="#404040" points="138.71,-69.15 133.05,-64.68 135,-57.74 140.66,-62.21 138.71,-69.15"/>
<text text-anchor="middle" x="165" y="-90" font-family="Helvetica,sans-Serif" font-size="10.00"> +page</text>
<text text-anchor="middle" x="165" y="-79" font-family="Helvetica,sans-Serif" font-size="10.00">+used</text>
</g>
</g>
</svg>
