<?xml version="1.0" encoding="UTF-8" standalone="no"?>
<!DOCTYPE svg PUBLIC "-//W3C//DTD SVG 1.1//EN"
 "http://www.w3.org/Graphics/SVG/1.1/DTD/svg11.dtd">
<!-- Generated by graphviz version 2.43.0 (0)
 -->
<!-- Title: /usr/include/linuxcnc/tc_types.h Pages: 1 -->
<svg width="449pt" height="329pt"
 viewBox="0.00 0.00 449.00 329.00" xmlns="http://www.w3.org/2000/svg" xmlns:xlink="http://www.w3.org/1999/xlink">
<g id="graph0" class="graph" transform="scale(1 1) rotate(0) translate(4 325)">
<title>/usr/include/linuxcnc/tc_types.h</title>
<polygon fill="white" stroke="transparent" points="-4,4 -4,-325 445,-325 445,4 -4,4"/>
<!-- Node1 -->
<g id="node1" class="node">
<title>Node1</title>
<g id="a_node1"><a xlink:title=" ">
<polygon fill="#bfbfbf" stroke="black" points="131,-290.5 131,-320.5 247,-320.5 247,-290.5 131,-290.5"/>
<text text-anchor="start" x="139" y="-308.5" font-family="Helvetica,sans-Serif" font-size="10.00">/usr/include/linuxcnc</text>
<text text-anchor="middle" x="189" y="-297.5" font-family="Helvetica,sans-Serif" font-size="10.00">/tc_types.h</text>
</a>
</g>
</g>
<!-- Node2 -->
<g id="node2" class="node">
<title>Node2</title>
<g id="a_node2"><a xlink:href="blendmath_8h.html" target="_top" xlink:title=" ">
<polygon fill="white" stroke="black" points="0,-223.5 0,-253.5 116,-253.5 116,-223.5 0,-223.5"/>
<text text-anchor="start" x="8" y="-241.5" font-family="Helvetica,sans-Serif" font-size="10.00">/usr/include/linuxcnc</text>
<text text-anchor="middle" x="58" y="-230.5" font-family="Helvetica,sans-Serif" font-size="10.00">/blendmath.h</text>
</a>
</g>
</g>
<!-- Node1&#45;&gt;Node2 -->
<g id="edge1" class="edge">
<title>Node1&#45;&gt;Node2</title>
<path fill="none" stroke="midnightblue" d="M151.42,-285.85C130.71,-275.58 105.41,-263.03 86.37,-253.58"/>
<polygon fill="midnightblue" stroke="midnightblue" points="150.06,-289.09 160.57,-290.4 153.17,-282.82 150.06,-289.09"/>
</g>
<!-- Node3 -->
<g id="node3" class="node">
<title>Node3</title>
<g id="a_node3"><a xlink:href="tc_8h.html" target="_top" xlink:title=" ">
<polygon fill="white" stroke="black" points="13.5,-95 13.5,-114 150.5,-114 150.5,-95 13.5,-95"/>
<text text-anchor="middle" x="82" y="-102" font-family="Helvetica,sans-Serif" font-size="10.00">/usr/include/linuxcnc/tc.h</text>
</a>
</g>
</g>
<!-- Node1&#45;&gt;Node3 -->
<g id="edge2" class="edge">
<title>Node1&#45;&gt;Node3</title>
<path fill="none" stroke="midnightblue" d="M176.56,-281.36C152.92,-237.39 102.46,-143.56 86.76,-114.36"/>
<polygon fill="midnightblue" stroke="midnightblue" points="173.49,-283.04 181.3,-290.19 179.65,-279.72 173.49,-283.04"/>
</g>
<!-- Node4 -->
<g id="node4" class="node">
<title>Node4</title>
<g id="a_node4"><a xlink:href="tcq_8h.html" target="_top" xlink:title=" ">
<polygon fill="white" stroke="black" points="217,-223.5 217,-253.5 333,-253.5 333,-223.5 217,-223.5"/>
<text text-anchor="start" x="225" y="-241.5" font-family="Helvetica,sans-Serif" font-size="10.00">/usr/include/linuxcnc</text>
<text text-anchor="middle" x="275" y="-230.5" font-family="Helvetica,sans-Serif" font-size="10.00">/tcq.h</text>
</a>
</g>
</g>
<!-- Node1&#45;&gt;Node4 -->
<g id="edge3" class="edge">
<title>Node1&#45;&gt;Node4</title>
<path fill="none" stroke="midnightblue" d="M215.9,-284.17C229.05,-274.23 244.55,-262.51 256.38,-253.58"/>
<polygon fill="midnightblue" stroke="midnightblue" points="213.53,-281.57 207.66,-290.4 217.75,-287.16 213.53,-281.57"/>
</g>
<!-- Node5 -->
<g id="node5" class="node">
<title>Node5</title>
<g id="a_node5"><a xlink:href="tp_8h.html" target="_top" xlink:title=" ">
<polygon fill="white" stroke="black" points="303,-95 303,-114 441,-114 441,-95 303,-95"/>
<text text-anchor="middle" x="372" y="-102" font-family="Helvetica,sans-Serif" font-size="10.00">/usr/include/linuxcnc/tp.h</text>
</a>
</g>
</g>
<!-- Node1&#45;&gt;Node5 -->
<g id="edge10" class="edge">
<title>Node1&#45;&gt;Node5</title>
<path fill="none" stroke="midnightblue" d="M257.34,-297.39C287.35,-290.8 320.57,-278.16 342,-254 378.66,-212.68 375.36,-139.22 372.99,-114.16"/>
<polygon fill="midnightblue" stroke="midnightblue" points="256.42,-294.01 247.3,-299.41 257.79,-300.87 256.42,-294.01"/>
</g>
<!-- Node6 -->
<g id="node6" class="node">
<title>Node6</title>
<g id="a_node6"><a xlink:href="tp__types_8h.html" target="_top" xlink:title=" ">
<polygon fill="white" stroke="black" points="172,-156.5 172,-186.5 288,-186.5 288,-156.5 172,-156.5"/>
<text text-anchor="start" x="180" y="-174.5" font-family="Helvetica,sans-Serif" font-size="10.00">/usr/include/linuxcnc</text>
<text text-anchor="middle" x="230" y="-163.5" font-family="Helvetica,sans-Serif" font-size="10.00">/tp_types.h</text>
</a>
</g>
</g>
<!-- Node1&#45;&gt;Node6 -->
<g id="edge11" class="edge">
<title>Node1&#45;&gt;Node6</title>
<path fill="none" stroke="midnightblue" d="M193.38,-280.58C196.68,-264.17 201.7,-242.01 208,-223 212.15,-210.47 218.22,-196.78 222.93,-186.81"/>
<polygon fill="midnightblue" stroke="midnightblue" points="189.94,-279.96 191.47,-290.44 196.81,-281.29 189.94,-279.96"/>
</g>
<!-- Node4&#45;&gt;Node5 -->
<g id="edge4" class="edge">
<title>Node4&#45;&gt;Node5</title>
<path fill="none" stroke="midnightblue" d="M291.34,-215.26C313.17,-185.56 350.8,-134.35 365.68,-114.1"/>
<polygon fill="midnightblue" stroke="midnightblue" points="288.48,-213.24 285.38,-223.37 294.12,-217.39 288.48,-213.24"/>
</g>
<!-- Node4&#45;&gt;Node6 -->
<g id="edge5" class="edge">
<title>Node4&#45;&gt;Node6</title>
<path fill="none" stroke="midnightblue" d="M259.53,-215.16C252.97,-205.68 245.52,-194.92 239.75,-186.58"/>
<polygon fill="midnightblue" stroke="midnightblue" points="256.67,-217.17 265.24,-223.4 262.42,-213.18 256.67,-217.17"/>
</g>
<!-- Node6&#45;&gt;Node3 -->
<g id="edge8" class="edge">
<title>Node6&#45;&gt;Node3</title>
<path fill="none" stroke="midnightblue" d="M188.55,-152.3C160.01,-139.76 123.4,-123.68 101.37,-114.01"/>
<polygon fill="midnightblue" stroke="midnightblue" points="187.32,-155.58 197.89,-156.4 190.14,-149.17 187.32,-155.58"/>
</g>
<!-- Node6&#45;&gt;Node5 -->
<g id="edge9" class="edge">
<title>Node6&#45;&gt;Node5</title>
<path fill="none" stroke="midnightblue" d="M270.13,-152.13C297.46,-139.62 332.37,-123.64 353.42,-114.01"/>
<polygon fill="midnightblue" stroke="midnightblue" points="268.45,-149.05 260.81,-156.4 271.36,-155.42 268.45,-149.05"/>
</g>
<!-- Node7 -->
<g id="node7" class="node">
<title>Node7</title>
<g id="a_node7"><a xlink:href="motion_8h.html" target="_top" xlink:title=" ">
<polygon fill="white" stroke="black" points="169,-89.5 169,-119.5 285,-119.5 285,-89.5 169,-89.5"/>
<text text-anchor="start" x="177" y="-107.5" font-family="Helvetica,sans-Serif" font-size="10.00">/usr/include/linuxcnc</text>
<text text-anchor="middle" x="227" y="-96.5" font-family="Helvetica,sans-Serif" font-size="10.00">/motion.h</text>
</a>
</g>
</g>
<!-- Node6&#45;&gt;Node7 -->
<g id="edge6" class="edge">
<title>Node6&#45;&gt;Node7</title>
<path fill="none" stroke="midnightblue" d="M228.89,-146.4C228.47,-137.37 228.01,-127.41 227.65,-119.58"/>
<polygon fill="midnightblue" stroke="midnightblue" points="225.39,-146.57 229.35,-156.4 232.38,-146.25 225.39,-146.57"/>
</g>
<!-- Node8 -->
<g id="node8" class="node">
<title>Node8</title>
<g id="a_node8"><a xlink:href="pokeys__homecomp_8c.html" target="_top" xlink:title="HAL component for managing homing sequence and state logic using PoKeys PulseEngine v2.">
<polygon fill="white" stroke="black" points="135,-0.5 135,-52.5 319,-52.5 319,-0.5 135,-0.5"/>
<text text-anchor="start" x="143" y="-40.5" font-family="Helvetica,sans-Serif" font-size="10.00">/home/cnc/actions&#45;runner</text>
<text text-anchor="start" x="143" y="-29.5" font-family="Helvetica,sans-Serif" font-size="10.00">/_work/LinuxCnc_PokeysLibComp</text>
<text text-anchor="start" x="143" y="-18.5" font-family="Helvetica,sans-Serif" font-size="10.00">/LinuxCnc_PokeysLibComp/pokeys</text>
<text text-anchor="middle" x="227" y="-7.5" font-family="Helvetica,sans-Serif" font-size="10.00">_rt/pokeys_homecomp.c</text>
</a>
</g>
</g>
<!-- Node7&#45;&gt;Node8 -->
<g id="edge7" class="edge">
<title>Node7&#45;&gt;Node8</title>
<path fill="none" stroke="midnightblue" d="M227,-79.14C227,-70.63 227,-61.07 227,-52.5"/>
<polygon fill="midnightblue" stroke="midnightblue" points="223.5,-79.2 227,-89.2 230.5,-79.21 223.5,-79.2"/>
</g>
</g>
</svg>
