<?xml version="1.0" encoding="UTF-8" standalone="no"?>
<!DOCTYPE svg PUBLIC "-//W3C//DTD SVG 1.1//EN"
 "http://www.w3.org/Graphics/SVG/1.1/DTD/svg11.dtd">
<!-- Generated by graphviz version 2.43.0 (0)
 -->
<!-- Title: NML_INTERP_LIST_NODE::_command_union Pages: 1 -->
<svg width="384pt" height="193pt"
 viewBox="0.00 0.00 384.00 193.00" xmlns="http://www.w3.org/2000/svg" xmlns:xlink="http://www.w3.org/1999/xlink">
<g id="graph0" class="graph" transform="scale(1 1) rotate(0) translate(4 189)">
<title>NML_INTERP_LIST_NODE::_command_union</title>
<polygon fill="white" stroke="transparent" points="-4,4 -4,-189 380,-189 380,4 -4,4"/>
<!-- Node1 -->
<g id="node1" class="node">
<title>Node1</title>
<g id="a_node1"><a xlink:title=" ">
<polygon fill="#bfbfbf" stroke="black" points="133,-0.5 133,-68.5 271,-68.5 271,-0.5 133,-0.5"/>
<text text-anchor="start" x="141" y="-56.5" font-family="Helvetica,sans-Serif" font-size="10.00">NML_INTERP_LIST_NODE</text>
<text text-anchor="middle" x="202" y="-45.5" font-family="Helvetica,sans-Serif" font-size="10.00">::_command_union</text>
<polyline fill="none" stroke="black" points="133,-38.5 271,-38.5 "/>
<text text-anchor="middle" x="202" y="-26.5" font-family="Helvetica,sans-Serif" font-size="10.00"> </text>
<polyline fill="none" stroke="black" points="133,-19.5 271,-19.5 "/>
<text text-anchor="middle" x="202" y="-7.5" font-family="Helvetica,sans-Serif" font-size="10.00"> </text>
</a>
</g>
</g>
<!-- Node2 -->
<g id="node2" class="node">
<title>Node2</title>
<g id="a_node2"><a xlink:title=" ">
<polygon fill="white" stroke="black" points="0,-127.5 0,-184.5 38,-184.5 38,-127.5 0,-127.5"/>
<text text-anchor="middle" x="19" y="-172.5" font-family="Helvetica,sans-Serif" font-size="10.00">char</text>
<polyline fill="none" stroke="black" points="0,-165.5 38,-165.5 "/>
<text text-anchor="middle" x="19" y="-153.5" font-family="Helvetica,sans-Serif" font-size="10.00"> </text>
<polyline fill="none" stroke="black" points="0,-146.5 38,-146.5 "/>
<text text-anchor="middle" x="19" y="-134.5" font-family="Helvetica,sans-Serif" font-size="10.00"> </text>
</a>
</g>
</g>
<!-- Node2&#45;&gt;Node1 -->
<g id="edge1" class="edge">
<title>Node2&#45;&gt;Node1</title>
<path fill="none" stroke="#404040" d="M31.54,-127.43C38.99,-113.68 49.61,-97.73 63,-87 79.95,-73.42 100.83,-63.19 121.21,-55.59"/>
<polygon fill="none" stroke="#404040" points="121.46,-55.5 125.8,-49.73 132.79,-51.52 128.45,-57.28 121.46,-55.5"/>
<text text-anchor="middle" x="101" y="-95.5" font-family="Helvetica,sans-Serif" font-size="10.00"> +commandbuf</text>
</g>
<!-- Node3 -->
<g id="node3" class="node">
<title>Node3</title>
<g id="a_node3"><a xlink:title=" ">
<polygon fill="white" stroke="black" points="78,-127.5 78,-184.5 128,-184.5 128,-127.5 78,-127.5"/>
<text text-anchor="middle" x="103" y="-172.5" font-family="Helvetica,sans-Serif" font-size="10.00">int32_t</text>
<polyline fill="none" stroke="black" points="78,-165.5 128,-165.5 "/>
<text text-anchor="middle" x="103" y="-153.5" font-family="Helvetica,sans-Serif" font-size="10.00"> </text>
<polyline fill="none" stroke="black" points="78,-146.5 128,-146.5 "/>
<text text-anchor="middle" x="103" y="-134.5" font-family="Helvetica,sans-Serif" font-size="10.00"> </text>
</a>
</g>
</g>
<!-- Node3&#45;&gt;Node1 -->
<g id="edge2" class="edge">
<title>Node3&#45;&gt;Node1</title>
<path fill="none" stroke="#404040" d="M125.96,-127.28C138.09,-112.64 153.24,-94.36 166.81,-77.98"/>
<polygon fill="none" stroke="#404040" points="166.93,-77.83 167.68,-70.66 174.59,-68.59 173.84,-75.76 166.93,-77.83"/>
<text text-anchor="middle" x="165.5" y="-101" font-family="Helvetica,sans-Serif" font-size="10.00"> +i</text>
<text text-anchor="middle" x="165.5" y="-90" font-family="Helvetica,sans-Serif" font-size="10.00">+l</text>
</g>
<!-- Node4 -->
<g id="node4" class="node">
<title>Node4</title>
<g id="a_node4"><a xlink:title=" ">
<polygon fill="white" stroke="black" points="146,-127.5 146,-184.5 196,-184.5 196,-127.5 146,-127.5"/>
<text text-anchor="middle" x="171" y="-172.5" font-family="Helvetica,sans-Serif" font-size="10.00">double</text>
<polyline fill="none" stroke="black" points="146,-165.5 196,-165.5 "/>
<text text-anchor="middle" x="171" y="-153.5" font-family="Helvetica,sans-Serif" font-size="10.00"> </text>
<polyline fill="none" stroke="black" points="146,-146.5 196,-146.5 "/>
<text text-anchor="middle" x="171" y="-134.5" font-family="Helvetica,sans-Serif" font-size="10.00"> </text>
</a>
</g>
</g>
<!-- Node4&#45;&gt;Node1 -->
<g id="edge3" class="edge">
<title>Node4&#45;&gt;Node1</title>
<path fill="none" stroke="#404040" d="M178.19,-127.28C181.81,-113.33 186.29,-96.06 190.38,-80.28"/>
<polygon fill="none" stroke="#404040" points="190.4,-80.2 188.04,-73.39 193.42,-68.59 195.78,-75.4 190.4,-80.2"/>
<text text-anchor="middle" x="197" y="-95.5" font-family="Helvetica,sans-Serif" font-size="10.00"> +d</text>
</g>
<!-- Node5 -->
<g id="node5" class="node">
<title>Node5</title>
<g id="a_node5"><a xlink:title=" ">
<polygon fill="white" stroke="black" points="214,-127.5 214,-184.5 252,-184.5 252,-127.5 214,-127.5"/>
<text text-anchor="middle" x="233" y="-172.5" font-family="Helvetica,sans-Serif" font-size="10.00">float</text>
<polyline fill="none" stroke="black" points="214,-165.5 252,-165.5 "/>
<text text-anchor="middle" x="233" y="-153.5" font-family="Helvetica,sans-Serif" font-size="10.00"> </text>
<polyline fill="none" stroke="black" points="214,-146.5 252,-146.5 "/>
<text text-anchor="middle" x="233" y="-134.5" font-family="Helvetica,sans-Serif" font-size="10.00"> </text>
</a>
</g>
</g>
<!-- Node5&#45;&gt;Node1 -->
<g id="edge4" class="edge">
<title>Node5&#45;&gt;Node1</title>
<path fill="none" stroke="#404040" d="M225.81,-127.28C222.19,-113.33 217.71,-96.06 213.62,-80.28"/>
<polygon fill="none" stroke="#404040" points="213.6,-80.2 208.22,-75.4 210.58,-68.59 215.96,-73.39 213.6,-80.2"/>
<text text-anchor="middle" x="228" y="-95.5" font-family="Helvetica,sans-Serif" font-size="10.00"> +f</text>
</g>
<!-- Node6 -->
<g id="node6" class="node">
<title>Node6</title>
<g id="a_node6"><a xlink:title=" ">
<polygon fill="white" stroke="black" points="270,-127.5 270,-184.5 320,-184.5 320,-127.5 270,-127.5"/>
<text text-anchor="middle" x="295" y="-172.5" font-family="Helvetica,sans-Serif" font-size="10.00">int64_t</text>
<polyline fill="none" stroke="black" points="270,-165.5 320,-165.5 "/>
<text text-anchor="middle" x="295" y="-153.5" font-family="Helvetica,sans-Serif" font-size="10.00"> </text>
<polyline fill="none" stroke="black" points="270,-146.5 320,-146.5 "/>
<text text-anchor="middle" x="295" y="-134.5" font-family="Helvetica,sans-Serif" font-size="10.00"> </text>
</a>
</g>
</g>
<!-- Node6&#45;&gt;Node1 -->
<g id="edge5" class="edge">
<title>Node6&#45;&gt;Node1</title>
<path fill="none" stroke="#404040" d="M273.43,-127.28C262.14,-112.78 248.07,-94.7 235.41,-78.44"/>
<polygon fill="none" stroke="#404040" points="235.12,-78.06 228.28,-75.78 227.75,-68.59 234.59,-70.87 235.12,-78.06"/>
<text text-anchor="middle" x="265" y="-95.5" font-family="Helvetica,sans-Serif" font-size="10.00"> +ll</text>
</g>
<!-- Node7 -->
<g id="node7" class="node">
<title>Node7</title>
<g id="a_node7"><a xlink:title=" ">
<polygon fill="white" stroke="black" points="338,-127.5 338,-184.5 376,-184.5 376,-127.5 338,-127.5"/>
<text text-anchor="middle" x="357" y="-172.5" font-family="Helvetica,sans-Serif" font-size="10.00">long</text>
<polyline fill="none" stroke="black" points="338,-165.5 376,-165.5 "/>
<text text-anchor="middle" x="357" y="-153.5" font-family="Helvetica,sans-Serif" font-size="10.00"> </text>
<polyline fill="none" stroke="black" points="338,-146.5 376,-146.5 "/>
<text text-anchor="middle" x="357" y="-134.5" font-family="Helvetica,sans-Serif" font-size="10.00"> </text>
</a>
</g>
</g>
<!-- Node7&#45;&gt;Node1 -->
<g id="edge6" class="edge">
<title>Node7&#45;&gt;Node1</title>
<path fill="none" stroke="#404040" d="M337.71,-135.11C334.84,-132.33 331.88,-129.55 329,-127 308.55,-108.87 284.56,-90.86 262.98,-75.68"/>
<polygon fill="none" stroke="#404040" points="262.78,-75.54 255.57,-75.4 252.93,-68.69 260.14,-68.83 262.78,-75.54"/>
<text text-anchor="middle" x="316.5" y="-95.5" font-family="Helvetica,sans-Serif" font-size="10.00"> +ld</text>
</g>
</g>
</svg>
