<?xml version="1.0" encoding="UTF-8" standalone="no"?>
<!DOCTYPE svg PUBLIC "-//W3C//DTD SVG 1.1//EN"
 "http://www.w3.org/Graphics/SVG/1.1/DTD/svg11.dtd">
<!-- Generated by graphviz version 2.43.0 (0)
 -->
<!-- Title: hal_data_u Pages: 1 -->
<svg width="322pt" height="171pt"
 viewBox="0.00 0.00 321.50 171.00" xmlns="http://www.w3.org/2000/svg" xmlns:xlink="http://www.w3.org/1999/xlink">
<g id="graph0" class="graph" transform="scale(1 1) rotate(0) translate(4 167)">
<title>hal_data_u</title>
<polygon fill="white" stroke="transparent" points="-4,4 -4,-167 317.5,-167 317.5,4 -4,4"/>
<!-- Node1 -->
<g id="node1" class="node">
<title>Node1</title>
<g id="a_node1"><a xlink:title=" ">
<polygon fill="#bfbfbf" stroke="black" points="117,-0.5 117,-57.5 187,-57.5 187,-0.5 117,-0.5"/>
<text text-anchor="middle" x="152" y="-45.5" font-family="Helvetica,sans-Serif" font-size="10.00">hal_data_u</text>
<polyline fill="none" stroke="black" points="117,-38.5 187,-38.5 "/>
<text text-anchor="middle" x="152" y="-26.5" font-family="Helvetica,sans-Serif" font-size="10.00"> </text>
<polyline fill="none" stroke="black" points="117,-19.5 187,-19.5 "/>
<text text-anchor="middle" x="152" y="-7.5" font-family="Helvetica,sans-Serif" font-size="10.00"> </text>
</a>
</g>
</g>
<!-- Node2 -->
<g id="node2" class="node">
<title>Node2</title>
<g id="a_node2"><a xlink:title=" ">
<polygon fill="white" stroke="black" points="0,-105.5 0,-162.5 38,-162.5 38,-105.5 0,-105.5"/>
<text text-anchor="middle" x="19" y="-150.5" font-family="Helvetica,sans-Serif" font-size="10.00">bool</text>
<polyline fill="none" stroke="black" points="0,-143.5 38,-143.5 "/>
<text text-anchor="middle" x="19" y="-131.5" font-family="Helvetica,sans-Serif" font-size="10.00"> </text>
<polyline fill="none" stroke="black" points="0,-124.5 38,-124.5 "/>
<text text-anchor="middle" x="19" y="-112.5" font-family="Helvetica,sans-Serif" font-size="10.00"> </text>
</a>
</g>
</g>
<!-- Node2&#45;&gt;Node1 -->
<g id="edge1" class="edge">
<title>Node2&#45;&gt;Node1</title>
<path fill="none" stroke="#404040" d="M38.19,-112.99C41.07,-110.23 44.06,-107.49 47,-105 65.84,-89.04 87.91,-72.93 106.95,-59.75"/>
<polygon fill="none" stroke="#404040" points="106.98,-59.72 109.67,-53.03 116.88,-52.94 114.19,-59.63 106.98,-59.72"/>
<text text-anchor="middle" x="93" y="-79" font-family="Helvetica,sans-Serif" font-size="10.00"> +b</text>
</g>
<!-- Node3 -->
<g id="node3" class="node">
<title>Node3</title>
<g id="a_node3"><a xlink:title=" ">
<polygon fill="white" stroke="black" points="56,-105.5 56,-162.5 106,-162.5 106,-105.5 56,-105.5"/>
<text text-anchor="middle" x="81" y="-150.5" font-family="Helvetica,sans-Serif" font-size="10.00">int32_t</text>
<polyline fill="none" stroke="black" points="56,-143.5 106,-143.5 "/>
<text text-anchor="middle" x="81" y="-131.5" font-family="Helvetica,sans-Serif" font-size="10.00"> </text>
<polyline fill="none" stroke="black" points="56,-124.5 106,-124.5 "/>
<text text-anchor="middle" x="81" y="-112.5" font-family="Helvetica,sans-Serif" font-size="10.00"> </text>
</a>
</g>
</g>
<!-- Node3&#45;&gt;Node1 -->
<g id="edge2" class="edge">
<title>Node3&#45;&gt;Node1</title>
<path fill="none" stroke="#404040" d="M100.03,-105.4C107.99,-93.85 117.36,-80.25 125.95,-67.8"/>
<polygon fill="none" stroke="#404040" points="126.11,-67.56 126.22,-60.35 132.92,-57.68 132.81,-64.89 126.11,-67.56"/>
<text text-anchor="middle" x="127.5" y="-79" font-family="Helvetica,sans-Serif" font-size="10.00"> +s</text>
</g>
<!-- Node4 -->
<g id="node4" class="node">
<title>Node4</title>
<g id="a_node4"><a xlink:title=" ">
<polygon fill="white" stroke="black" points="124,-105.5 124,-162.5 180,-162.5 180,-105.5 124,-105.5"/>
<text text-anchor="middle" x="152" y="-150.5" font-family="Helvetica,sans-Serif" font-size="10.00">uint32_t</text>
<polyline fill="none" stroke="black" points="124,-143.5 180,-143.5 "/>
<text text-anchor="middle" x="152" y="-131.5" font-family="Helvetica,sans-Serif" font-size="10.00"> </text>
<polyline fill="none" stroke="black" points="124,-124.5 180,-124.5 "/>
<text text-anchor="middle" x="152" y="-112.5" font-family="Helvetica,sans-Serif" font-size="10.00"> </text>
</a>
</g>
</g>
<!-- Node4&#45;&gt;Node1 -->
<g id="edge3" class="edge">
<title>Node4&#45;&gt;Node1</title>
<path fill="none" stroke="#404040" d="M152,-105.4C152,-94.55 152,-81.87 152,-70.05"/>
<polygon fill="none" stroke="#404040" points="152,-69.68 148,-63.68 152,-57.68 156,-63.68 152,-69.68"/>
<text text-anchor="middle" x="161" y="-79" font-family="Helvetica,sans-Serif" font-size="10.00"> +u</text>
</g>
<!-- Node5 -->
<g id="node5" class="node">
<title>Node5</title>
<g id="a_node5"><a xlink:title=" ">
<polygon fill="white" stroke="black" points="198,-105.5 198,-162.5 266,-162.5 266,-105.5 198,-105.5"/>
<text text-anchor="middle" x="232" y="-150.5" font-family="Helvetica,sans-Serif" font-size="10.00">hal_float_t</text>
<polyline fill="none" stroke="black" points="198,-143.5 266,-143.5 "/>
<text text-anchor="middle" x="232" y="-131.5" font-family="Helvetica,sans-Serif" font-size="10.00"> </text>
<polyline fill="none" stroke="black" points="198,-124.5 266,-124.5 "/>
<text text-anchor="middle" x="232" y="-112.5" font-family="Helvetica,sans-Serif" font-size="10.00"> </text>
</a>
</g>
</g>
<!-- Node5&#45;&gt;Node1 -->
<g id="edge4" class="edge">
<title>Node5&#45;&gt;Node1</title>
<path fill="none" stroke="#404040" d="M210.56,-105.4C201.5,-93.74 190.82,-79.98 181.07,-67.42"/>
<polygon fill="none" stroke="#404040" points="180.86,-67.16 174.02,-64.87 173.5,-57.68 180.34,-59.96 180.86,-67.16"/>
<text text-anchor="middle" x="202" y="-79" font-family="Helvetica,sans-Serif" font-size="10.00"> +f</text>
</g>
<!-- Node6 -->
<g id="node6" class="node">
<title>Node6</title>
<g id="a_node6"><a xlink:title=" ">
<polygon fill="white" stroke="black" points="284.5,-105.5 284.5,-162.5 313.5,-162.5 313.5,-105.5 284.5,-105.5"/>
<text text-anchor="middle" x="299" y="-150.5" font-family="Helvetica,sans-Serif" font-size="10.00">int</text>
<polyline fill="none" stroke="black" points="284.5,-143.5 313.5,-143.5 "/>
<text text-anchor="middle" x="299" y="-131.5" font-family="Helvetica,sans-Serif" font-size="10.00"> </text>
<polyline fill="none" stroke="black" points="284.5,-124.5 313.5,-124.5 "/>
<text text-anchor="middle" x="299" y="-112.5" font-family="Helvetica,sans-Serif" font-size="10.00"> </text>
</a>
</g>
</g>
<!-- Node6&#45;&gt;Node1 -->
<g id="edge5" class="edge">
<title>Node6&#45;&gt;Node1</title>
<path fill="none" stroke="#404040" d="M284.28,-114.15C281.37,-110.93 278.22,-107.74 275,-105 251.46,-84.97 221.98,-66.81 197.79,-53.37"/>
<polygon fill="none" stroke="#404040" points="197.62,-53.28 190.44,-53.92 187.09,-47.54 194.27,-46.89 197.62,-53.28"/>
<text text-anchor="middle" x="259" y="-79" font-family="Helvetica,sans-Serif" font-size="10.00"> +p</text>
</g>
</g>
</svg>
