<?xml version="1.0" encoding="UTF-8" standalone="no"?>
<!DOCTYPE svg PUBLIC "-//W3C//DTD SVG 1.1//EN"
 "http://www.w3.org/Graphics/SVG/1.1/DTD/svg11.dtd">
<!-- Generated by graphviz version 2.43.0 (0)
 -->
<!-- Title: ieee754_double Pages: 1 -->
<svg width="378pt" height="215pt"
 viewBox="0.00 0.00 377.50 215.00" xmlns="http://www.w3.org/2000/svg" xmlns:xlink="http://www.w3.org/1999/xlink">
<g id="graph0" class="graph" transform="scale(1 1) rotate(0) translate(4 211)">
<title>ieee754_double</title>
<polygon fill="white" stroke="transparent" points="-4,4 -4,-211 373.5,-211 373.5,4 -4,4"/>
<!-- Node1 -->
<g id="node1" class="node">
<title>Node1</title>
<g id="a_node1"><a xlink:title=" ">
<polygon fill="#bfbfbf" stroke="black" points="79,-0.5 79,-57.5 173,-57.5 173,-0.5 79,-0.5"/>
<text text-anchor="middle" x="126" y="-45.5" font-family="Helvetica,sans-Serif" font-size="10.00">ieee754_double</text>
<polyline fill="none" stroke="black" points="79,-38.5 173,-38.5 "/>
<text text-anchor="middle" x="126" y="-26.5" font-family="Helvetica,sans-Serif" font-size="10.00"> </text>
<polyline fill="none" stroke="black" points="79,-19.5 173,-19.5 "/>
<text text-anchor="middle" x="126" y="-7.5" font-family="Helvetica,sans-Serif" font-size="10.00"> </text>
</a>
</g>
</g>
<!-- Node2 -->
<g id="node2" class="node">
<title>Node2</title>
<g id="a_node2"><a xlink:title=" ">
<polygon fill="white" stroke="black" points="0,-149.5 0,-206.5 50,-206.5 50,-149.5 0,-149.5"/>
<text text-anchor="middle" x="25" y="-194.5" font-family="Helvetica,sans-Serif" font-size="10.00">double</text>
<polyline fill="none" stroke="black" points="0,-187.5 50,-187.5 "/>
<text text-anchor="middle" x="25" y="-175.5" font-family="Helvetica,sans-Serif" font-size="10.00"> </text>
<polyline fill="none" stroke="black" points="0,-168.5 50,-168.5 "/>
<text text-anchor="middle" x="25" y="-156.5" font-family="Helvetica,sans-Serif" font-size="10.00"> </text>
</a>
</g>
</g>
<!-- Node2&#45;&gt;Node1 -->
<g id="edge1" class="edge">
<title>Node2&#45;&gt;Node1</title>
<path fill="none" stroke="#404040" d="M28.62,-149.41C32.61,-127.7 40.75,-97.61 57,-76 60.55,-71.29 64.72,-66.9 69.24,-62.86"/>
<polygon fill="none" stroke="#404040" points="69.56,-62.61 71.71,-55.73 78.89,-55.07 76.74,-61.95 69.56,-62.61"/>
<text text-anchor="middle" x="66" y="-101" font-family="Helvetica,sans-Serif" font-size="10.00"> +d</text>
</g>
<!-- Node3 -->
<g id="node3" class="node">
<title>Node3</title>
<g id="a_node3"><a xlink:title=" ">
<polygon fill="white" stroke="black" points="68.5,-149.5 68.5,-206.5 97.5,-206.5 97.5,-149.5 68.5,-149.5"/>
<text text-anchor="middle" x="83" y="-194.5" font-family="Helvetica,sans-Serif" font-size="10.00">int</text>
<polyline fill="none" stroke="black" points="68.5,-187.5 97.5,-187.5 "/>
<text text-anchor="middle" x="83" y="-175.5" font-family="Helvetica,sans-Serif" font-size="10.00"> </text>
<polyline fill="none" stroke="black" points="68.5,-168.5 97.5,-168.5 "/>
<text text-anchor="middle" x="83" y="-156.5" font-family="Helvetica,sans-Serif" font-size="10.00"> </text>
</a>
</g>
</g>
<!-- Node3&#45;&gt;Node1 -->
<g id="edge2" class="edge">
<title>Node3&#45;&gt;Node1</title>
<path fill="none" stroke="#404040" d="M79.36,-149.44C77.71,-128.56 77.83,-99.55 87,-76 88.11,-73.14 89.48,-70.33 91.04,-67.6"/>
<polygon fill="none" stroke="#404040" points="91.11,-67.49 91.12,-60.28 97.78,-57.51 97.77,-64.72 91.11,-67.49"/>
<text text-anchor="middle" x="117" y="-123" font-family="Helvetica,sans-Serif" font-size="10.00"> +exponent</text>
<text text-anchor="middle" x="117" y="-112" font-family="Helvetica,sans-Serif" font-size="10.00">+mantissa0</text>
<text text-anchor="middle" x="117" y="-101" font-family="Helvetica,sans-Serif" font-size="10.00">+mantissa1</text>
<text text-anchor="middle" x="117" y="-90" font-family="Helvetica,sans-Serif" font-size="10.00">+negative</text>
<text text-anchor="middle" x="117" y="-79" font-family="Helvetica,sans-Serif" font-size="10.00">+quiet_nan</text>
</g>
<!-- Node4 -->
<g id="node4" class="node">
<title>Node4</title>
<g id="a_node4"><a xlink:title=" ">
<polygon fill="white" stroke="black" points="116,-149.5 116,-206.5 222,-206.5 222,-149.5 116,-149.5"/>
<text text-anchor="middle" x="169" y="-194.5" font-family="Helvetica,sans-Serif" font-size="10.00">anonymous:+ieee</text>
<polyline fill="none" stroke="black" points="116,-187.5 222,-187.5 "/>
<text text-anchor="middle" x="169" y="-175.5" font-family="Helvetica,sans-Serif" font-size="10.00"> </text>
<polyline fill="none" stroke="black" points="116,-168.5 222,-168.5 "/>
<text text-anchor="middle" x="169" y="-156.5" font-family="Helvetica,sans-Serif" font-size="10.00"> </text>
</a>
</g>
</g>
<!-- Node4&#45;&gt;Node1 -->
<g id="edge3" class="edge">
<title>Node4&#45;&gt;Node1</title>
<path fill="none" stroke="#404040" d="M164.59,-149.14C160.94,-128.61 155.05,-100.18 147,-76 146.25,-73.75 145.43,-71.46 144.55,-69.17"/>
<polygon fill="none" stroke="#404040" points="144.45,-68.92 138.46,-64.91 139.86,-57.84 145.85,-61.85 144.45,-68.92"/>
<text text-anchor="middle" x="177.5" y="-101" font-family="Helvetica,sans-Serif" font-size="10.00"> +ieee</text>
</g>
<!-- Node5 -->
<g id="node5" class="node">
<title>Node5</title>
<g id="a_node5"><a xlink:title=" ">
<polygon fill="white" stroke="black" points="240.5,-149.5 240.5,-206.5 369.5,-206.5 369.5,-149.5 240.5,-149.5"/>
<text text-anchor="middle" x="305" y="-194.5" font-family="Helvetica,sans-Serif" font-size="10.00">anonymous:+ieee_nan</text>
<polyline fill="none" stroke="black" points="240.5,-187.5 369.5,-187.5 "/>
<text text-anchor="middle" x="305" y="-175.5" font-family="Helvetica,sans-Serif" font-size="10.00"> </text>
<polyline fill="none" stroke="black" points="240.5,-168.5 369.5,-168.5 "/>
<text text-anchor="middle" x="305" y="-156.5" font-family="Helvetica,sans-Serif" font-size="10.00"> </text>
</a>
</g>
</g>
<!-- Node5&#45;&gt;Node1 -->
<g id="edge4" class="edge">
<title>Node5&#45;&gt;Node1</title>
<path fill="none" stroke="#404040" d="M278.57,-149.35C257.65,-128.16 227.2,-98.78 198,-76 193.08,-72.16 187.84,-68.35 182.51,-64.65"/>
<polygon fill="none" stroke="#404040" points="182.16,-64.41 174.95,-64.37 172.21,-57.7 179.42,-57.74 182.16,-64.41"/>
<text text-anchor="middle" x="285" y="-101" font-family="Helvetica,sans-Serif" font-size="10.00"> +ieee_nan</text>
</g>
</g>
</svg>
