<?xml version="1.0" encoding="UTF-8" standalone="no"?>
<!DOCTYPE svg PUBLIC "-//W3C//DTD SVG 1.1//EN"
 "http://www.w3.org/Graphics/SVG/1.1/DTD/svg11.dtd">
<!-- Generated by graphviz version 2.43.0 (0)
 -->
<!-- Title: hal_stream_data Pages: 1 -->
<svg width="156pt" height="182pt"
 viewBox="0.00 0.00 155.50 182.00" xmlns="http://www.w3.org/2000/svg" xmlns:xlink="http://www.w3.org/1999/xlink">
<g id="graph0" class="graph" transform="scale(1 1) rotate(0) translate(4 178)">
<title>hal_stream_data</title>
<polygon fill="white" stroke="transparent" points="-4,4 -4,-178 151.5,-178 151.5,4 -4,4"/>
<!-- Node1 -->
<g id="node1" class="node">
<title>Node1</title>
<g id="a_node1"><a xlink:title=" ">
<polygon fill="#bfbfbf" stroke="black" points="32,-0.5 32,-57.5 130,-57.5 130,-0.5 32,-0.5"/>
<text text-anchor="middle" x="81" y="-45.5" font-family="Helvetica,sans-Serif" font-size="10.00">hal_stream_data</text>
<polyline fill="none" stroke="black" points="32,-38.5 130,-38.5 "/>
<text text-anchor="middle" x="81" y="-26.5" font-family="Helvetica,sans-Serif" font-size="10.00"> </text>
<polyline fill="none" stroke="black" points="32,-19.5 130,-19.5 "/>
<text text-anchor="middle" x="81" y="-7.5" font-family="Helvetica,sans-Serif" font-size="10.00"> </text>
</a>
</g>
</g>
<!-- Node2 -->
<g id="node2" class="node">
<title>Node2</title>
<g id="a_node2"><a xlink:title=" ">
<polygon fill="white" stroke="black" points="0,-116.5 0,-173.5 44,-173.5 44,-116.5 0,-116.5"/>
<text text-anchor="middle" x="22" y="-161.5" font-family="Helvetica,sans-Serif" font-size="10.00">real_t</text>
<polyline fill="none" stroke="black" points="0,-154.5 44,-154.5 "/>
<text text-anchor="middle" x="22" y="-142.5" font-family="Helvetica,sans-Serif" font-size="10.00"> </text>
<polyline fill="none" stroke="black" points="0,-135.5 44,-135.5 "/>
<text text-anchor="middle" x="22" y="-123.5" font-family="Helvetica,sans-Serif" font-size="10.00"> </text>
</a>
</g>
</g>
<!-- Node2&#45;&gt;Node1 -->
<g id="edge1" class="edge">
<title>Node2&#45;&gt;Node1</title>
<path fill="none" stroke="#404040" d="M36.28,-116.4C43.69,-102.09 52.87,-84.36 60.97,-68.7"/>
<polygon fill="none" stroke="#404040" points="61.13,-68.39 60.33,-61.23 66.64,-57.74 67.44,-64.9 61.13,-68.39"/>
<text text-anchor="middle" x="64" y="-84.5" font-family="Helvetica,sans-Serif" font-size="10.00"> +f</text>
</g>
<!-- Node3 -->
<g id="node3" class="node">
<title>Node3</title>
<g id="a_node3"><a xlink:title=" ">
<polygon fill="white" stroke="black" points="62,-116.5 62,-173.5 100,-173.5 100,-116.5 62,-116.5"/>
<text text-anchor="middle" x="81" y="-161.5" font-family="Helvetica,sans-Serif" font-size="10.00">bool</text>
<polyline fill="none" stroke="black" points="62,-154.5 100,-154.5 "/>
<text text-anchor="middle" x="81" y="-142.5" font-family="Helvetica,sans-Serif" font-size="10.00"> </text>
<polyline fill="none" stroke="black" points="62,-135.5 100,-135.5 "/>
<text text-anchor="middle" x="81" y="-123.5" font-family="Helvetica,sans-Serif" font-size="10.00"> </text>
</a>
</g>
</g>
<!-- Node3&#45;&gt;Node1 -->
<g id="edge2" class="edge">
<title>Node3&#45;&gt;Node1</title>
<path fill="none" stroke="#404040" d="M81,-116.4C81,-102.5 81,-85.39 81,-70.07"/>
<polygon fill="none" stroke="#404040" points="81,-69.74 77,-63.74 81,-57.74 85,-63.74 81,-69.74"/>
<text text-anchor="middle" x="90" y="-84.5" font-family="Helvetica,sans-Serif" font-size="10.00"> +b</text>
</g>
<!-- Node4 -->
<g id="node4" class="node">
<title>Node4</title>
<g id="a_node4"><a xlink:title=" ">
<polygon fill="white" stroke="black" points="118.5,-116.5 118.5,-173.5 147.5,-173.5 147.5,-116.5 118.5,-116.5"/>
<text text-anchor="middle" x="133" y="-161.5" font-family="Helvetica,sans-Serif" font-size="10.00">int</text>
<polyline fill="none" stroke="black" points="118.5,-154.5 147.5,-154.5 "/>
<text text-anchor="middle" x="133" y="-142.5" font-family="Helvetica,sans-Serif" font-size="10.00"> </text>
<polyline fill="none" stroke="black" points="118.5,-135.5 147.5,-135.5 "/>
<text text-anchor="middle" x="133" y="-123.5" font-family="Helvetica,sans-Serif" font-size="10.00"> </text>
</a>
</g>
</g>
<!-- Node4&#45;&gt;Node1 -->
<g id="edge3" class="edge">
<title>Node4&#45;&gt;Node1</title>
<path fill="none" stroke="#404040" d="M121.08,-116.45C115.65,-104.05 109.09,-89.25 103,-76 101.89,-73.58 100.73,-71.1 99.56,-68.6"/>
<polygon fill="none" stroke="#404040" points="99.53,-68.52 93.35,-64.8 94.4,-57.67 100.58,-61.38 99.53,-68.52"/>
<text text-anchor="middle" x="120.5" y="-90" font-family="Helvetica,sans-Serif" font-size="10.00"> +s</text>
<text text-anchor="middle" x="120.5" y="-79" font-family="Helvetica,sans-Serif" font-size="10.00">+u</text>
</g>
</g>
</svg>
