<?xml version="1.0" encoding="UTF-8" standalone="no"?>
<!DOCTYPE svg PUBLIC "-//W3C//DTD SVG 1.1//EN"
 "http://www.w3.org/Graphics/SVG/1.1/DTD/svg11.dtd">
<!-- Generated by graphviz version 2.43.0 (0)
 -->
<!-- Title: hal_data_u Pages: 1 -->
<svg width="300pt" height="182pt"
 viewBox="0.00 0.00 300.00 182.00" xmlns="http://www.w3.org/2000/svg" xmlns:xlink="http://www.w3.org/1999/xlink">
<g id="graph0" class="graph" transform="scale(1 1) rotate(0) translate(4 178)">
<title>hal_data_u</title>
<polygon fill="white" stroke="transparent" points="-4,4 -4,-178 296,-178 296,4 -4,4"/>
<!-- Node1 -->
<g id="node1" class="node">
<title>Node1</title>
<g id="a_node1"><a xlink:title=" ">
<polygon fill="#bfbfbf" stroke="black" points="78,-0.5 78,-57.5 148,-57.5 148,-0.5 78,-0.5"/>
<text text-anchor="middle" x="113" y="-45.5" font-family="Helvetica,sans-Serif" font-size="10.00">hal_data_u</text>
<polyline fill="none" stroke="black" points="78,-38.5 148,-38.5 "/>
<text text-anchor="middle" x="113" y="-26.5" font-family="Helvetica,sans-Serif" font-size="10.00"> </text>
<polyline fill="none" stroke="black" points="78,-19.5 148,-19.5 "/>
<text text-anchor="middle" x="113" y="-7.5" font-family="Helvetica,sans-Serif" font-size="10.00"> </text>
</a>
</g>
</g>
<!-- Node2 -->
<g id="node2" class="node">
<title>Node2</title>
<g id="a_node2"><a xlink:title=" ">
<polygon fill="white" stroke="black" points="0,-116.5 0,-173.5 38,-173.5 38,-116.5 0,-116.5"/>
<text text-anchor="middle" x="19" y="-161.5" font-family="Helvetica,sans-Serif" font-size="10.00">bool</text>
<polyline fill="none" stroke="black" points="0,-154.5 38,-154.5 "/>
<text text-anchor="middle" x="19" y="-142.5" font-family="Helvetica,sans-Serif" font-size="10.00"> </text>
<polyline fill="none" stroke="black" points="0,-135.5 38,-135.5 "/>
<text text-anchor="middle" x="19" y="-123.5" font-family="Helvetica,sans-Serif" font-size="10.00"> </text>
</a>
</g>
</g>
<!-- Node2&#45;&gt;Node1 -->
<g id="edge1" class="edge">
<title>Node2&#45;&gt;Node1</title>
<path fill="none" stroke="#404040" d="M36.9,-116.41C45.52,-103.72 56.29,-88.71 67,-76 69.55,-72.98 72.26,-69.92 75.04,-66.9"/>
<polygon fill="none" stroke="#404040" points="75.24,-66.69 76.47,-59.58 83.5,-57.99 82.27,-65.09 75.24,-66.69"/>
<text text-anchor="middle" x="76" y="-84.5" font-family="Helvetica,sans-Serif" font-size="10.00"> +b</text>
</g>
<!-- Node3 -->
<g id="node3" class="node">
<title>Node3</title>
<g id="a_node3"><a xlink:title=" ">
<polygon fill="white" stroke="black" points="56.5,-116.5 56.5,-173.5 85.5,-173.5 85.5,-116.5 56.5,-116.5"/>
<text text-anchor="middle" x="71" y="-161.5" font-family="Helvetica,sans-Serif" font-size="10.00">int</text>
<polyline fill="none" stroke="black" points="56.5,-154.5 85.5,-154.5 "/>
<text text-anchor="middle" x="71" y="-142.5" font-family="Helvetica,sans-Serif" font-size="10.00"> </text>
<polyline fill="none" stroke="black" points="56.5,-135.5 85.5,-135.5 "/>
<text text-anchor="middle" x="71" y="-123.5" font-family="Helvetica,sans-Serif" font-size="10.00"> </text>
</a>
</g>
</g>
<!-- Node3&#45;&gt;Node1 -->
<g id="edge2" class="edge">
<title>Node3&#45;&gt;Node1</title>
<path fill="none" stroke="#404040" d="M81.17,-116.4C86.39,-102.23 92.85,-84.71 98.57,-69.16"/>
<polygon fill="none" stroke="#404040" points="98.63,-69 96.95,-61.98 102.78,-57.74 104.46,-64.75 98.63,-69"/>
<text text-anchor="middle" x="105" y="-90" font-family="Helvetica,sans-Serif" font-size="10.00"> +p</text>
<text text-anchor="middle" x="105" y="-79" font-family="Helvetica,sans-Serif" font-size="10.00">+s</text>
</g>
<!-- Node4 -->
<g id="node4" class="node">
<title>Node4</title>
<g id="a_node4"><a xlink:title=" ">
<polygon fill="white" stroke="black" points="104,-116.5 104,-173.5 206,-173.5 206,-116.5 104,-116.5"/>
<text text-anchor="middle" x="155" y="-161.5" font-family="Helvetica,sans-Serif" font-size="10.00">volatile rtapi_u32</text>
<polyline fill="none" stroke="black" points="104,-154.5 206,-154.5 "/>
<text text-anchor="middle" x="155" y="-142.5" font-family="Helvetica,sans-Serif" font-size="10.00"> </text>
<polyline fill="none" stroke="black" points="104,-135.5 206,-135.5 "/>
<text text-anchor="middle" x="155" y="-123.5" font-family="Helvetica,sans-Serif" font-size="10.00"> </text>
</a>
</g>
</g>
<!-- Node4&#45;&gt;Node1 -->
<g id="edge3" class="edge">
<title>Node4&#45;&gt;Node1</title>
<path fill="none" stroke="#404040" d="M144.83,-116.4C139.61,-102.23 133.15,-84.71 127.43,-69.16"/>
<polygon fill="none" stroke="#404040" points="127.37,-69 121.54,-64.75 123.22,-57.74 129.05,-61.98 127.37,-69"/>
<text text-anchor="middle" x="146" y="-84.5" font-family="Helvetica,sans-Serif" font-size="10.00"> +u</text>
</g>
<!-- Node5 -->
<g id="node5" class="node">
<title>Node5</title>
<g id="a_node5"><a xlink:title=" ">
<polygon fill="white" stroke="black" points="224,-116.5 224,-173.5 292,-173.5 292,-116.5 224,-116.5"/>
<text text-anchor="middle" x="258" y="-161.5" font-family="Helvetica,sans-Serif" font-size="10.00">hal_float_t</text>
<polyline fill="none" stroke="black" points="224,-154.5 292,-154.5 "/>
<text text-anchor="middle" x="258" y="-142.5" font-family="Helvetica,sans-Serif" font-size="10.00"> </text>
<polyline fill="none" stroke="black" points="224,-135.5 292,-135.5 "/>
<text text-anchor="middle" x="258" y="-123.5" font-family="Helvetica,sans-Serif" font-size="10.00"> </text>
</a>
</g>
</g>
<!-- Node5&#45;&gt;Node1 -->
<g id="edge4" class="edge">
<title>Node5&#45;&gt;Node1</title>
<path fill="none" stroke="#404040" d="M223.64,-116.98C203.88,-101.45 178.85,-81.77 157.59,-65.06"/>
<polygon fill="none" stroke="#404040" points="157.56,-65.03 150.37,-64.47 148.12,-57.61 155.31,-58.18 157.56,-65.03"/>
<text text-anchor="middle" x="206" y="-84.5" font-family="Helvetica,sans-Serif" font-size="10.00"> +f</text>
</g>
</g>
</svg>
